<?xml version="1.0" encoding="utf-8"?>
<!-- Generator: Adobe Illustrator 27.0.0, SVG Export Plug-In . SVG Version: 6.00 Build 0)  -->
<svg version="1.1" id="Layer_1" xmlns="http://www.w3.org/2000/svg" xmlns:xlink="http://www.w3.org/1999/xlink" x="0px" y="0px"
	 viewBox="0 0 650 394.5" style="enable-background:new 0 0 650 394.5;" xml:space="preserve">
<style type="text/css">
	.st0{fill:#D4E2FF;}
	.st1{fill:#130C5C;}
	.st2{fill:#8DABFF;}
	.st3{fill:#3C41C7;}
	.st4{fill:#C4D2F6;}
	.st5{fill:#E8F1FE;}
	.st6{fill:#DAE9FC;}
	.st7{fill:#CFE2FE;}
	.st8{fill:#D8D8F8;}
	.st9{fill:#8196C7;}
	.st10{fill:#FFFFFF;}
	.st11{fill:#D3E2FB;}
	.st12{fill:#9EB9EE;}
	.st13{fill:url(#SVGID_1_);}
	.st14{fill:url(#SVGID_00000116915093412476561480000018086726011005649291_);}
	.st15{fill:#FFE7C9;}
	.st16{fill:#E8CB83;}
	.st17{fill:#FF560C;}
	.st18{opacity:0.63;fill:#2876F9;enable-background:new    ;}
	.st19{fill:#E8EEFB;}
	.st20{fill:#DAE2F5;}
	.st21{fill:#2876F9;}
	.st22{fill:#E44B0C;}
	.st23{fill:#E0E6F3;}
	.st24{fill:#B8D2FB;}
	.st25{fill:#0C5DF5;}
	.st26{fill:#436EF6;}
	.st27{fill:#718EE1;}
	.st28{fill:#C2D5FB;}
	.st29{fill:#CADDFB;}
	.st30{fill:#7D9FF6;}
	.st31{fill:url(#SVGID_00000033334097661729210430000005885286544948127896_);}
	.st32{fill:#A9C0F6;}
	.st33{fill:#1D1119;}
	.st34{fill:#FEB08A;}
	.st35{fill:#FFCF5B;}
	.st36{fill:#F1A57E;}
	.st37{fill:#0C0C0C;}
	.st38{fill:#273976;}
	.st39{fill:#283978;}
	.st40{fill:#FDDA64;}
	.st41{fill:#C19311;}
	.st42{fill:#6A90F6;}
	.st43{fill:#3858D8;}
	.st44{fill:#436DF6;}
	.st45{fill:#FF9A67;}
	.st46{fill:#8396C6;}
	.st47{fill:#ACC3F1;}
	.st48{fill:#FFFDF3;}
	.st49{fill:#FFDFA1;}
	.st50{fill:#5A80F6;}
	.st51{fill:#202D51;}
	.st52{fill:#20212C;}
	.st53{fill:#FFD05C;}
	.st54{fill:#202E55;}
	.st55{fill:#292D48;}
	.st56{opacity:0.42;fill:url(#SVGID_00000169520369940989281190000018132215220231328441_);enable-background:new    ;}
	.st57{fill:url(#SVGID_00000150799161804527278880000013778029660972833463_);}
	.st58{fill:#CD9D0F;}
	.st59{fill:#D6A40F;}
	.st60{fill:url(#SVGID_00000049905985480167986350000011034812000673589913_);}
	.st61{fill:url(#SVGID_00000056401297910249302120000010625830315766260109_);}
	.st62{fill:url(#SVGID_00000000930418693856948500000012571626585647600777_);}
	.st63{fill:#F1A076;}
</style>
<g>
	<path class="st0" d="M24.3,222.9c0,4-3.2,7.1-7.1,7.1c-4,0-7.1-3.1-7.1-7.1s3.2-7.1,7.1-7.1C21,215.7,24.3,218.9,24.3,222.9z"/>
	<path class="st0" d="M411.3,29.4c0,4-3.2,7.1-7.1,7.1c-4,0-7.1-3.1-7.1-7.1s3.2-7.1,7.1-7.1C408.2,22.2,411.3,25.4,411.3,29.4z"/>
	<path class="st0" d="M21,267.2c0,2-1.6,3.5-3.5,3.5c-2,0-3.5-1.6-3.5-3.5s1.6-3.5,3.5-3.5C19.4,263.7,21,265.3,21,267.2z"/>
	<path class="st1" d="M12.2,335.4c-0.2,0-0.3-0.1-0.3-0.3c0-0.5,0.4-13.5,6.6-14.3c1.1-0.1,2.2,0.2,3.1,0.9
		c3.6,3.1,3.9,12.5,3.9,12.9c0,0.2-0.1,0.3-0.3,0.3c-0.1,0-0.3-0.1-0.3-0.3c0-0.1-0.3-9.5-3.6-12.4c-0.7-0.6-1.7-0.9-2.6-0.8
		c-5.6,0.6-6,13.5-6,13.6C12.5,335.3,12.4,335.4,12.2,335.4z"/>
	<path class="st2" d="M7.8,329.8L7,379l33.6-4.3l-0.9-44.6L7.8,329.8z"/>
	<path class="st2" d="M1.7,329.8h3.2l-1,43.7L0,374.8L1.7,329.8z"/>
	<path class="st3" d="M4.9,330.1H8l-0.9,48.6l-3.3-5.1L4.9,330.1z"/>
	<path class="st2" d="M0.1,374.9l4-1.5l3,5.2L0.1,374.9z"/>
	<path class="st1" d="M17.6,334.4c-0.2,0-0.3-0.1-0.3-0.3c0-0.5,0.4-13.5,6.6-14.3c1.1-0.1,2.2,0.2,3.1,0.9
		c3.6,3.1,3.9,12.5,3.9,12.9c0,0.2-0.1,0.3-0.3,0.3c-0.1,0-0.3-0.1-0.3-0.3c0-0.1-0.3-9.5-3.6-12.4c-0.7-0.7-1.7-0.9-2.6-0.8
		c-5.6,0.6-6,13.5-6,13.6C17.9,334.3,17.7,334.4,17.6,334.4z"/>
	<path class="st4" d="M548.5,172.9c-4,0-7.2-3.2-7.2-7.2s3.2-7.2,7.2-7.2c4,0,7.2,3.2,7.2,7.2S552.4,172.9,548.5,172.9z
		 M548.5,159.8c-3.3,0-5.9,2.7-5.9,5.9c0,3.3,2.7,5.9,5.9,5.9c3.3,0,5.9-2.7,5.9-5.9C554.4,162.5,551.8,159.8,548.5,159.8z"/>
	<path class="st5" d="M536.9,249c-41.8-49.2,44.1-129.9-46.2-172.4c-82.9-39-150.8-5.2-211.7,27.4c-14.7-26.2-57.1-35.9-111-15.4
		C93.1,117.2,50.6,171.8,39.5,210.5c-18.4,64.1,37.3,142.3,91,126.3c20.2-5.9,41.1,1.8,62.5,9.7c60.3,32.9,125.2,46.6,171.8,46.1
		C476.4,391.8,583.1,303.5,536.9,249z"/>
	<path class="st6" d="M364.6,394.4c-54.4,0-118.8-17.5-173.1-47.1c-20.9-7.8-42.6-15.8-63-9.9c-20.9,6.1-44-1.2-63.1-20.3
		c-28.4-28.2-41-73.2-30.6-109.4C46.8,166,92.1,111.3,166,83.1c51.5-19.6,97-13.4,113.6,15.3C312,81.1,344,65.1,378.5,57.5
		c40.4-8.9,78.6-4.5,116.8,13.4c54.1,25.4,46.8,64.3,39.8,101.9c-5.1,27.4-9.9,53.2,7.6,73.8c13,15.3,15,34.1,5.8,54.2
		c-10.5,23.1-35.5,46.5-68.3,64.2c-34.9,18.7-75.1,29.2-113.3,29.6C366.1,394.4,365.4,394.4,364.6,394.4z M143.7,333.6
		c16,0,32.5,6.1,48.5,12.1h0.1c54.8,29.9,120,47.4,174.6,46.9c37.9-0.3,77.8-10.7,112.5-29.4c32.6-17.5,57.2-40.5,67.6-63.3
		c8.9-19.5,7-37.5-5.5-52.3c-18.1-21.2-12.9-48.7-8-75.3c6.9-37,14.1-75.1-38.8-100c-86.4-40.6-157.6-2.7-214.8,27.8l-0.7,0.4
		l-0.4-0.7c-15.9-28.5-60.9-34.7-112-15.3C93.3,112.5,48.4,166.6,36.6,208c-10.2,35.5,2.2,79.8,30.1,107.6
		c18.7,18.6,41.1,25.9,61.4,19.9C133.2,334.2,138.4,333.6,143.7,333.6z"/>
	<path class="st7" d="M184.4,87.6c0,0,3.9-14.4,5.1-22.8c1.2-8.3,2.3-12.4-1.6-15.3c-3.9-2.9-6.9,1.1-8.1,7.8
		C178.6,63.9,184.4,87.6,184.4,87.6z"/>
	<path class="st8" d="M185.2,90.5c0,0-9.5-4-16.9-4.9c-7.4-0.9-19.7,0-18.2-7.8c1.2-6.7,14.4-1.6,19.7,1.8
		C173.3,81.8,185.2,90.5,185.2,90.5z"/>
	<path class="st7" d="M155.6,62.9c-5.3-2.7-12.4-7.1-15.7-8.5c-3.3-1.5-10.9-4.9-14.4,2.2c-1.7,3.4,6,7.1,13,7.6
		C146,64.8,160.9,65.6,155.6,62.9z"/>
	<path class="st7" d="M143.2,43.7c0,0-2.4-7.1-4.9-13.7c-2.5-6.8-7.8-19.9-14.1-18.6c-6.7,1.4-4.2,9.4-1.2,13.2
		C125.7,28.3,143.2,43.7,143.2,43.7z"/>
	<path class="st9" d="M158.6,63.7c-0.2-0.1-23.6-7.9-32.3-7.7c-0.1,0-0.2,0.1-0.2,0.2c0,0.1,0.1,0.2,0.2,0.2
		c8.6-0.2,32,7.6,32.2,7.7c0.1,0,0.2,0,0.2,0l0.1-0.1C158.8,63.9,158.7,63.7,158.6,63.7z"/>
	<path class="st9" d="M204.7,123.6C204.6,123.6,204.6,123.6,204.7,123.6c-0.3,0.1-0.5,0-0.5-0.2c0-0.1-2.1-5.9-5.9-13.5
		c-3.4-7-9.2-16.9-16.4-24.4c-5.8-6-11.1-10.6-15.9-14.8c-6.9-5.9-12.7-10.9-18-18.3c-7-9.8-25.6-39.3-25.8-39.6
		c-0.1-0.2-0.1-0.4,0.1-0.5c0.2-0.1,0.4-0.1,0.5,0.1c0.2,0.3,18.9,29.8,25.8,39.6c5.2,7.3,11,12.4,17.9,18.2
		c4.8,4.1,10.1,8.7,15.9,14.8c7.3,7.5,13,17.5,16.5,24.6c3.7,7.6,5.9,13.5,5.9,13.6S204.8,123.5,204.7,123.6z"/>
	<path class="st9" d="M201.2,114.9c0,0-0.4-0.4-1.1-0.8c-2.6-1.8-9.2-6.4-14-8.7c-0.2-0.1-0.4-0.2-0.7-0.3
		c-5.2-2.6-21.1-10.6-27.1-7.3c-1.4,0.8-2.2,2.2-2.3,4.1c-0.3,4.7,7.4,7.8,12,9.2c6.2,2,18.1,2.1,23.5,1.9c3.1-0.1,5.4,0.4,6.9,1
		c0.9,0.5,1.6,0.8,1.9,1c0.3,0.2,0.4,0.3,0.4,0.3c0.1,0.1,0.2,0.1,0.3,0C201.3,115.1,201.3,115,201.2,114.9z M185.8,105.8
		c3.1,1.6,7.2,4.2,10.2,6.1c-1.9-0.9-4.1-1.9-5.9-2.4c-1.7-0.5-6.4-1.9-11.6-3.4l-3.4-5.3c4.2,1.7,8,3.6,10.1,4.7
		C185.4,105.6,185.6,105.7,185.8,105.8z M158.3,98.5c0.1-0.1,0.3-0.2,0.4-0.3c2.4-1.4,6.9-0.8,13.4,1.5c0.7,0.2,1.4,0.5,2.1,0.7
		c0,0,0,0,0,0.1l3.4,5.4c-0.7-0.2-1.5-0.4-2.3-0.6c-0.1-0.1-0.2-0.2-0.3-0.2H175c-8.6-2.6-17.5-5.2-17.7-5.3
		C157.5,99.3,157.8,98.8,158.3,98.5z M156.7,101.8c0-0.5,0.1-1,0.3-1.5c0,0,0,0,0.1,0s8.4,2.5,16.7,5l-11.5,2.7
		c-0.7-0.4-1.5-0.8-2.1-1.2C157.8,105.2,156.6,103.5,156.7,101.8z M163.2,108.4l11.8-2.7c0.9,0.3,1.8,0.5,2.6,0.8l-7.4,4.4
		c-0.7-0.1-1.4-0.3-2-0.5C166.7,109.9,165,109.3,163.2,108.4z M171,111l7.3-4.3c1.7,0.5,3.2,0.9,4.8,1.5l-6.8,3.6
		C174.5,111.5,172.7,111.3,171,111z M191.5,112.3c-3.6,0.1-9.2,0.1-14.2-0.4l6.5-3.4c2.8,0.8,5,1.5,6,1.8c1.9,0.5,4,1.5,5.7,2.3
		C194.6,112.3,193.2,112.2,191.5,112.3z"/>
	<path class="st9" d="M163.6,26.1c-1.7-0.1-3,0.3-4.1,1.2c-2.3,2.2-2.3,7.1-2,11.5c0.3,5.4,9.5,31.8,9.9,32.9c0,0.1,0.1,0.1,0.1,0.1
		c0,0.1,0,0.2,0,0.2c0,0.1,0.2,0.2,0.3,0.2h0.1c0.1-0.1,0.1-0.1,0.1-0.2c0,0,0-0.2-0.1-0.4c0.5-2.1,4-16.6,4.6-24.6l0.2-0.3
		c0.1-0.1,0-0.3-0.1-0.3c0-1,0-2-0.1-2.7c-0.1-1.2-0.3-3-0.7-5l0.1-0.2c0.1-0.1,0-0.3-0.1-0.3c-0.1,0-0.1,0-0.2,0
		c-0.2-0.7-0.3-1.5-0.5-2.2c0.1-0.1,0.1-0.3-0.1-0.3c0,0,0,0-0.1,0c-0.3-0.9-0.6-2-1-2.9C168.4,28.4,166.2,26.3,163.6,26.1z
		 M161.4,51.8l3.7,6.5v0.1c0.5,4.2,1.1,7.7,1.7,10.1C165.6,64.6,163.3,57.9,161.4,51.8z M167.8,70.4c-0.4-2.2-1.4-6.5-2.1-12.1
		l6.2-10.5C171.3,55.1,168.6,66.7,167.8,70.4z M172.1,43.5c0.1,0.8,0.1,1.9,0,3.1l-6.5,10.8c-0.3-2.4-0.6-5.2-0.8-8.2l6.7-10.2
		C171.7,40.6,172,42.1,172.1,43.5z M171.3,38.4l-6.7,10.1c-0.1-1-0.1-2.2-0.2-3.2c0.1,0,0.2,0,0.2,0s0,0,0.1-0.1l6-8.9
		C171,37.1,171.1,37.7,171.3,38.4z M170.6,35.7l-6.1,9.1c-0.3-5.4-0.3-11.4,0.1-17.5c0-0.1-0.1-0.2-0.2-0.2c-0.1,0-0.2,0.1-0.2,0.2
		c-0.8,11.2,0,22.1,0.9,29.7l-4.1-7l-0.1-0.1c-1.5-4.9-2.6-9.3-2.8-11c-0.3-4.1-0.3-9.1,1.9-11.1c0.1-0.1,0.2-0.2,0.4-0.3
		c0.8-0.6,1.9-0.8,3.2-0.7c2.4,0.2,4.4,2.3,6,6.1C170,33.6,170.3,34.7,170.6,35.7z"/>
	<path class="st9" d="M186.2,90.6c-0.1,0-6.6-3.4-14.2-6.8c-2.7-1.1-5.2-2.2-7.5-3c0-0.1,0-0.1-0.1-0.2l-4.8-5.3
		c-0.1-0.1-0.2-0.1-0.3,0c-0.1,0.1-0.1,0.2,0,0.3l4.5,4.9c-5.9-2.2-10.3-3.1-13.1-3c-0.1,0-0.2,0.1-0.2,0.2c0,0.1,0.1,0.2,0.2,0.2
		c3-0.2,7.8,1.1,12.9,2.9l-5.1,3c-0.1,0.1-0.1,0.2-0.1,0.3c0.1,0.1,0.2,0.1,0.3,0.1l5.4-3.2c10.4,3.9,21.8,9.7,21.9,9.8
		c0.1,0,0.2,0,0.2,0s0.1,0,0.1-0.1C186.4,90.8,186.4,90.7,186.2,90.6z"/>
	<path class="st9" d="M185.3,48.7c-0.1,0-0.2,0.1-0.3,0.2c-0.7,5-1.1,13.9-1.2,21.8l-3.2-5.5c-0.1-0.1-0.2-0.1-0.3-0.1
		c-0.1,0.1-0.1,0.2-0.1,0.3l3.4,5.8c0,0.1,0.1,0.1,0.2,0.1c-0.1,8.4-0.1,15.7-0.1,15.8s0.1,0.2,0.2,0.2c0.1,0,0.1,0,0.1,0
		c0.1,0,0.1-0.1,0.1-0.2s0-4.8,0-10.9c0.1,0,0.1-0.1,0.1-0.1l4.1-5.5c0.1-0.1,0.1-0.2,0-0.3c-0.1-0.1-0.2-0.1-0.3,0l-3.7,5.1
		c0-1.6,0-3.1,0.1-4.7l5.2-6.9c0.1-0.1,0.1-0.2,0-0.3c-0.1-0.1-0.2-0.1-0.3,0l-4.8,6.4c0.1-7.7,0.5-16.1,1.2-21
		C185.5,48.8,185.4,48.7,185.3,48.7z"/>
	<path class="st5" d="M110,104.9c0,5.4-4.4,9.9-9.9,9.9c-5.4,0-9.9-4.4-9.9-9.9c0-5.4,4.4-9.9,9.9-9.9C105.5,95,110,99.4,110,104.9z
		"/>
	<path class="st5" d="M558.9,141.3c0,2.7-2.2,4.9-4.9,4.9s-4.9-2.2-4.9-4.9c0-2.7,2.2-4.9,4.9-4.9S559,138.6,558.9,141.3z"/>
	<path class="st10" d="M405.2,57.1c0,2.9-2.4,5.3-5.3,5.3c-2.9,0-5.3-2.4-5.3-5.3c0-2.9,2.4-5.3,5.3-5.3
		C402.9,51.8,405.2,54.2,405.2,57.1z"/>
	<path class="st10" d="M290.1,362.4c0,2.9-2.4,5.3-5.3,5.3c-2.9,0-5.3-2.4-5.3-5.3c0-2.9,2.4-5.3,5.3-5.3
		C287.7,357.1,290.1,359.5,290.1,362.4z"/>
	<path class="st10" d="M395.9,372.3c-4.1,0-7.4-3.3-7.4-7.4c0-4.1,3.3-7.4,7.4-7.4c2,0,3.9,0.7,5.2,2.2c1.5,1.5,2.2,3.2,2.2,5.3
		C403.4,369,400,372.3,395.9,372.3z M395.9,358.8c-3.3,0-6.1,2.7-6.1,6.1c0,3.3,2.7,6.1,6.1,6.1c3.3,0,6.1-2.7,6.1-6.1
		c0-1.7-0.6-3.2-1.8-4.4S397.5,358.8,395.9,358.8z"/>
	<path class="st11" d="M204.8,198.3c-57.4,33.1,6,118.2,76.2,125.6c64.6,6.9,134.4-28.8,149.7-41.5c40.1-32.7,53.5-65.6,41-93.6
		c-13.7-30.9-56.7-63-106.1-39.4c-39.8,19.1-50.3,43.5-68,47C260.3,203.8,228.8,184.3,204.8,198.3z"/>
	<path class="st11" d="M163.6,138.6c-65.2,11.6-34.8,113.1,28.6,144.1c58.3,28.5,136.1,18.7,154.9,12.3c49-17.1,72.7-43.3,70.6-73.9
		c-2.3-33.7-31.7-78.6-86.2-73.3c-44,4.3-62.2,23.6-80,20.9C213.8,162.8,191,133.7,163.6,138.6z"/>
	<path class="st12" d="M286.8,173h-94.8c-2.4,0-4.3-1.9-4.3-4.3v-56.9c0-2.4,1.9-4.3,4.3-4.3h94.8c2.4,0,4.3,1.9,4.3,4.3v57
		C291,171.1,289.1,173,286.8,173z"/>
	
		<linearGradient id="SVGID_1_" gradientUnits="userSpaceOnUse" x1="340.9036" y1="340.0797" x2="245.3304" y2="269.0821" gradientTransform="matrix(1 0 0 -1 0 414.3197)">
		<stop  offset="0" style="stop-color:#E4ECFB"/>
		<stop  offset="1" style="stop-color:#A8C0EF"/>
	</linearGradient>
	<path class="st13" d="M284.9,107.6L251.9,173h-32.7l32.8-65.4H284.9z"/>
	
		<linearGradient id="SVGID_00000025401673784559960880000015546894543398278326_" gradientUnits="userSpaceOnUse" x1="138.3281" y1="326.6771" x2="222.224" y2="268.2052" gradientTransform="matrix(1 0 0 -1 0 414.3197)">
		<stop  offset="0" style="stop-color:#E4ECFB"/>
		<stop  offset="1" style="stop-color:#A8C0EF"/>
	</linearGradient>
	<path style="fill:url(#SVGID_00000025401673784559960880000015546894543398278326_);" d="M236.5,107.6L203.9,173h-11.1
		c-2.8,0-5-2.3-5-5v-22.9l20.5-37.5H236.5z"/>
	<path class="st15" d="M211.4,143.7h-10.5c-1.1,0-2.1-0.9-2.1-2.1v-9.3c0-1.1,0.9-2.1,2.1-2.1h10.5c1.1,0,2.1,0.9,2.1,2.1v9.3
		C213.5,142.8,212.6,143.7,211.4,143.7z"/>
	<path class="st16" d="M203.4,130.3h-0.3v13.4h0.3V130.3z"/>
	<path class="st16" d="M209.3,143.7H209v-10.2h4.5v0.3h-4.2V143.7z"/>
	<path class="st16" d="M203.2,133.5h-4.4v0.3h4.4V133.5z"/>
	<path class="st16" d="M203.2,136.6h-4.4v0.3h4.4V136.6z"/>
	<path class="st16" d="M203.2,139.7h-4.4v0.3h4.4V139.7z"/>
	<path class="st16" d="M213.6,136.6h-4.4v0.3h4.4V136.6z"/>
	<path class="st16" d="M213.6,139.7h-4.4v0.3h4.4V139.7z"/>
	<path class="st10" d="M282.1,132.3c-0.1,0-0.2,0-0.3-0.1c-0.2-0.2-0.2-0.4-0.1-0.6c0,0,0.3-0.4,0.3-1s-0.3-0.9-0.3-0.9
		c-0.1-0.2-0.1-0.5,0.1-0.6c0.2-0.1,0.5-0.1,0.6,0.1c0,0.1,0.5,0.6,0.5,1.6c0,0.9-0.4,1.6-0.5,1.6
		C282.4,132.2,282.2,132.3,282.1,132.3z"/>
	<path class="st10" d="M283.6,132.8c-0.1,0-0.2,0-0.2-0.1c-0.2-0.1-0.3-0.4-0.1-0.6c0,0,0.4-0.7,0.4-1.7c0-0.6-0.3-1.5-0.5-1.8
		c-0.1-0.2,0-0.5,0.2-0.6c0.2-0.1,0.5,0,0.6,0.2c0,0,0.6,1.1,0.6,2.2c0,1.1-0.6,2.1-0.6,2.1C283.9,132.7,283.8,132.8,283.6,132.8z"
		/>
	<path class="st10" d="M285.2,133.6c-0.1,0-0.1,0-0.2-0.1c-0.2-0.1-0.3-0.4-0.2-0.6c0,0,0.7-1.2,0.7-2.4c0-1-0.7-2.5-0.7-2.5
		c-0.1-0.2,0-0.5,0.2-0.6c0.2-0.1,0.5,0,0.6,0.2c0,0.1,0.8,1.7,0.8,2.9c0,1.5-0.7,2.8-0.8,2.8C285.5,133.5,285.3,133.6,285.2,133.6z
		"/>
	<path class="st10" d="M286.6,134.4c-0.1,0-0.1,0-0.2-0.1c-0.2-0.1-0.3-0.4-0.2-0.6c0,0,0.9-1.6,0.8-3.1c-0.1-1.5-0.9-3.4-0.9-3.4
		c-0.1-0.2,0-0.5,0.2-0.6c0.2-0.1,0.5,0,0.6,0.2c0,0.1,0.9,2.1,1,3.7c0.1,1.9-0.9,3.5-0.9,3.6C286.9,134.2,286.8,134.4,286.6,134.4z
		"/>
	<path class="st17" d="M278.5,169.8c3.9,0,7.1-3.2,7.1-7.1c0-3.9-3.2-7.1-7.1-7.1c-3.9,0-7.1,3.2-7.1,7.1
		C271.4,166.6,274.6,169.8,278.5,169.8z"/>
	<path class="st10" d="M251.9,165.9h-52c-0.6,0-1.1-0.5-1.1-1.1v-2.6c0-0.6,0.5-1.1,1.1-1.1h52c0.6,0,1.1,0.5,1.1,1.1v2.6
		C253.2,165.4,252.6,165.9,251.9,165.9z"/>
	<path class="st10" d="M238.2,121.5h-38.1c-0.7,0-1.2-0.5-1.2-1.2v-2.5c0-0.7,0.5-1.2,1.2-1.2h38.1c0.7,0,1.2,0.5,1.2,1.2v2.5
		C239.3,121,238.8,121.5,238.2,121.5z"/>
	<path class="st18" d="M397,371.2H262.6c-3.4,0-6.1-2.8-6.1-6.1V55.9c0-3.4,2.8-6.1,6.1-6.1h134.6c3.4,0,6.1,2.8,6.1,6.1v309
		C403.2,368.4,400.5,371.2,397,371.2z"/>
	<path class="st10" d="M397,371.2H262.6c-3.4,0-6.1-2.8-6.1-6.1V55.9c0-3.4,2.8-6.1,6.1-6.1h134.6c3.4,0,6.1,2.8,6.1,6.1v309
		C403.2,368.4,400.5,371.2,397,371.2z"/>
	<path class="st19" d="M397,371.2H262.6c-3.4,0-6.1-2.8-6.1-6.1v-27.7h146.9V365C403.2,368.4,400.5,371.2,397,371.2z"/>
	<path class="st20" d="M398.1,371.2H261.7c-2.9,0-5.3-2.4-5.3-5.3v-7.1h146.9v7.2C403.2,368.9,400.9,371.2,398.1,371.2z"/>
	<path class="st21" d="M405.8,49.8c-3-4-7.8-6.6-13.1-6.6H266.9c-5.4,0-10.2,2.6-13.1,6.6c-2.1,2.7-3.2,6.1-3.2,9.9v300.8
		c0,9.1,7.4,16.5,16.5,16.5h125.5c9.1,0,16.5-7.4,16.5-16.5V59.7C409,55.9,407.9,52.6,405.8,49.8z M403.2,359.2c0,6.7-5.4,12-12,12
		H268.3c-6.7,0-12-5.4-12-12V61.8c0-6.7,5.3-12,12-12h122.9c6.7,0,12,5.3,12,12V359.2z"/>
	<path class="st17" d="M339.2,102.7h-19l1.5-38.6h15.7L339.2,102.7z"/>
	<path class="st22" d="M331.4,119H328c-4.3,0-7.8-3.4-7.8-7.8v-8.5h19v8.5C339.2,115.5,335.7,119,331.4,119z"/>
	<path class="st10" d="M320.3,102.7h-19l4.6-38.6h15.8L320.3,102.7z"/>
	<path class="st23" d="M312.4,119h-3.3c-4.3,0-7.8-3.4-7.8-7.8v-8.5h19v8.5C320.3,115.5,316.8,119,312.4,119z"/>
	<path class="st17" d="M301.2,102.7h-18.9l7.9-38.6h15.3L301.2,102.7z"/>
	<path class="st22" d="M293.6,119h-3.5c-4.3,0-7.7-3.4-7.7-7.7v-8.6h19v8.6C301.2,115.6,297.8,119,293.6,119z"/>
	<path class="st10" d="M282.2,102.7h-18.9L274,64.1h16.2L282.2,102.7z"/>
	<path class="st23" d="M274.5,119H271c-4.3,0-7.7-3.4-7.7-7.7v-8.6h19v8.6C282.2,115.5,278.8,119,274.5,119z"/>
	<path class="st17" d="M263.4,102.7h-19L258,64.1h16L263.4,102.7z"/>
	<path class="st22" d="M255.6,119h-3.3c-4.3,0-7.8-3.5-7.8-7.8v-8.5h19v8.5C263.4,115.5,259.9,119,255.6,119z"/>
	<path class="st10" d="M339.3,102.7h18.9l-4.5-38.6h-15.9L339.3,102.7z"/>
	<path class="st23" d="M347.1,119h3.3c4.3,0,7.8-3.5,7.8-7.8v-8.5h-19v8.5C339.3,115.5,342.8,119,347.1,119z"/>
	<path class="st17" d="M358.3,102.7h19l-7.9-38.6h-15.4L358.3,102.7z"/>
	<path class="st22" d="M367.8,119c5.2,0,9.5-4.3,9.5-9.5v-6.9h-19v6.9C358.3,114.8,362.5,119,367.8,119z"/>
	<path class="st10" d="M377.2,102.7h19l-10.6-38.6h-16.2L377.2,102.7z"/>
	<path class="st23" d="M385,119h3.3c4.3,0,7.8-3.4,7.8-7.8v-8.5h-19v8.5C377.2,115.5,380.8,119,385,119z"/>
	<path class="st17" d="M396.2,102.7h19l-13.6-38.6h-15.9L396.2,102.7z"/>
	<path class="st22" d="M405.7,119c5.2,0,9.5-4.3,9.5-9.5v-6.9h-19v6.9C396.2,114.8,400.5,119,405.7,119z"/>
	<path class="st19" d="M384.5,149.4h-49.9v9.9h49.9V149.4z"/>
	<path class="st19" d="M384,170.3h-10.3v10.3H384V170.3z"/>
	<path class="st19" d="M384.5,246.9h-49.9v9.9h49.9V246.9z"/>
	<path class="st9" d="M350.3,332.8h-36.3v-7.3h36.3V332.8z M314.1,332.7h36v-7h-36V332.7z"/>
	<path class="st19" d="M384,268h-10.3v10.3H384V268z"/>
	<path class="st9" d="M359.5,319.1h-52.8v0.2h52.8V319.1z"/>
	<path class="st24" d="M268.6,303.2h120.5v3.3H268.6V303.2z"/>
	<path class="st24" d="M268.9,198.5h120.5v3.3H268.9V198.5z"/>
	<path class="st24" d="M268.9,205.1h120.5v3.3H268.9V205.1z"/>
	<path class="st24" d="M268.7,212.2l36.3-0.1v3.3l-36.3,0.1V212.2z"/>
	<path class="st24" d="M268.6,296.6h120.5v3.3H268.6V296.6z"/>
	<path class="st24" d="M268.5,310.3l36.3-0.1v3.3l-36.3,0.1V310.3z"/>
	<path class="st25" d="M373.6,158.2c-0.2,0-0.3-0.1-0.3-0.3v-7.4c0-0.2,0.1-0.3,0.3-0.3c0.2,0,0.3,0.1,0.3,0.3v7.4
		C373.9,158.1,373.8,158.2,373.6,158.2z"/>
	<path class="st10" d="M377.1,152.7h4.5l-2.1,3.1L377.1,152.7z"/>
	<path class="st25" d="M379.5,156.1c-0.1,0-0.2,0-0.2-0.1l-2.4-3.1c-0.1-0.1-0.1-0.2,0-0.3c0-0.1,0.2-0.2,0.3-0.2h4.5
		c0.1,0,0.2,0.1,0.3,0.2c0.1,0.1,0,0.2,0,0.3l-2.1,3.1C379.7,156,379.6,156.1,379.5,156.1z M377.8,153l1.8,2.3l1.5-2.3H377.8z"/>
	<path class="st26" d="M376.8,173.9c0,0-0.1-1,0.5-1.8c0.3-0.4,0.8-0.6,1.5-0.6s1.1,0.1,1.5,0.5c0.7,0.6,0.6,1.8,0.6,1.9h-0.5
		c0,0,0-0.9-0.5-1.5c-0.2-0.2-0.6-0.4-1-0.3c-0.5,0-0.8,0.2-1.1,0.5c-0.5,0.5-0.4,1.5-0.4,1.5L376.8,173.9z"/>
	<path class="st26" d="M375.9,179c-0.4,0-0.7-0.3-0.7-0.7l0.6-3.7c0-0.4,0.3-0.7,0.7-0.7h5.1c0.4,0,0.7,0.3,0.7,0.7l0.6,3.6
		c0,0.4-0.3,0.8-0.7,0.8H375.9z M376.4,174.2c-0.1,0-0.2,0.1-0.2,0.2l-0.6,3.7c0,0.1,0.1,0.2,0.2,0.2l6.4-0.1c0.1,0,0.2-0.1,0.2-0.2
		l-0.6-3.6c0-0.2-0.1-0.2-0.2-0.2H376.4z"/>
	<path class="st19" d="M267.7,130.1h53.8v61.1h-53.8V130.1z"/>
	<path class="st27" d="M288.5,142.1l2.1-2.3c0,0,1.7,1,3.4,0.9c0.9,0,3-0.6,3-0.6l1.5,2.1c0,0,4.6,0.4,6.9,2.3
		c2.3,1.9,10.5,23.5,10.5,23.5l-0.9,2.4l1.4,3.3l-2.4,1.9l-2.2-3.2l-2.7-0.9l-6.5-15l2.1,20.6h-20.9l0.4-20.6l-4.6,13.9l-2.5,1.6
		l-1.5,3l-3.1-0.9l0.7-3l-1.2-2.8c0,0,5.3-19.5,7.3-21.7C281.2,144.6,288.5,142.1,288.5,142.1z"/>
	<path class="st10" d="M310.4,185.2c0-2.9,2.4-5.2,5.2-5.2c2.9,0,5.2,2.3,5.2,5.2c0,2.9-2.4,5.2-5.2,5.2
		C312.7,190.4,310.4,188.1,310.4,185.2z"/>
	<path class="st25" d="M315.6,188.6C315.5,188.6,315.5,188.6,315.6,188.6c-0.2-0.1-3.4-2.4-3.4-4.4c0-0.6,0.3-1.1,0.9-1.6
		c0.4-0.2,0.8-0.3,1.2-0.2c0.6,0.1,1,0.6,1.2,0.9c0.2-0.3,0.7-0.8,1.4-0.9c0.4-0.1,0.8,0,1.2,0.2c0.6,0.4,0.8,0.8,0.9,1.5
		C319,186.1,315.8,188.5,315.6,188.6z M314,182.7c-0.2,0-0.4,0.1-0.7,0.2c-0.5,0.3-0.8,0.8-0.8,1.4c0,1.7,2.5,3.6,3,4.1
		c0.5-0.4,3.1-2.5,3.1-4.2c0-0.5-0.2-0.8-0.7-1.1c-0.3-0.2-0.6-0.3-0.9-0.2c-0.7,0.2-1.2,1-1.2,1c0,0.1-0.1,0.1-0.1,0.1
		c-0.1,0-0.1,0-0.1-0.1c0,0-0.5-0.8-1.1-0.9C314.1,182.7,314.1,182.7,314,182.7z"/>
	<path class="st26" d="M359.3,180.6h-19.4c-2.9,0-5.3-2.4-5.3-5.3s2.4-5.3,5.3-5.3h19.4c2.9,0,5.3,2.4,5.3,5.3
		C364.7,178.2,362.2,180.6,359.3,180.6z"/>
	<path class="st25" d="M373.6,255.9c-0.2,0-0.3-0.1-0.3-0.3v-7.4c0-0.2,0.1-0.3,0.3-0.3c0.2,0,0.3,0.1,0.3,0.3v7.4
		C373.9,255.8,373.8,255.9,373.6,255.9z"/>
	<path class="st10" d="M377.1,250.4h4.5l-2.1,3.1L377.1,250.4z"/>
	<path class="st25" d="M379.5,253.8c-0.1,0-0.2,0-0.2-0.1l-2.4-3.1c-0.1-0.1-0.1-0.2,0-0.3s0.2-0.2,0.3-0.2h4.5
		c0.1,0,0.2,0.1,0.3,0.2s0,0.2,0,0.3l-2.1,3.1C379.7,253.7,379.6,253.8,379.5,253.8z M377.8,250.7l1.8,2.3l1.5-2.3H377.8z"/>
	<path class="st26" d="M376.8,271.6c0,0-0.1-1,0.5-1.8c0.3-0.4,0.8-0.6,1.5-0.6s1,0.1,1.5,0.5c0.7,0.6,0.6,1.8,0.6,1.9h-0.5
		c0,0,0-0.9-0.5-1.5c-0.2-0.2-0.6-0.3-1-0.3c-0.5,0-0.8,0.2-1.1,0.5c-0.5,0.5-0.4,1.5-0.4,1.5L376.8,271.6z"/>
	<path class="st26" d="M375.9,276.6c-0.4,0-0.7-0.3-0.7-0.7l0.6-3.7c0-0.4,0.3-0.7,0.7-0.7h5.1c0.4,0,0.7,0.3,0.7,0.7l0.6,3.6
		c0,0.4-0.3,0.8-0.7,0.8H375.9z M376.4,271.9c-0.1,0-0.2,0.1-0.2,0.2l-0.6,3.7c0,0.1,0.1,0.2,0.2,0.2l6.4-0.1c0.1,0,0.2-0.1,0.2-0.2
		l-0.6-3.6c0-0.2-0.1-0.2-0.2-0.2H376.4z"/>
	<path class="st19" d="M267.7,227.8h53.8v61.1h-53.8V227.8z"/>
	<path class="st10" d="M310.4,282.9c0-2.9,2.4-5.2,5.2-5.2c2.9,0,5.2,2.3,5.2,5.2s-2.4,5.2-5.2,5.2
		C312.7,288.1,310.4,285.7,310.4,282.9z"/>
	<path class="st25" d="M315.6,286.3C315.5,286.3,315.5,286.3,315.6,286.3c-0.2-0.1-3.4-2.4-3.4-4.4c0-0.6,0.3-1.1,0.9-1.6
		c0.4-0.2,0.8-0.3,1.2-0.2c0.6,0.1,1,0.6,1.2,0.9c0.2-0.3,0.7-0.8,1.4-0.9c0.4-0.1,0.8,0,1.2,0.2c0.6,0.4,0.8,0.8,0.9,1.5
		C319,283.8,315.8,286.2,315.6,286.3z M314,280.4c-0.2,0-0.4,0.1-0.7,0.2c-0.5,0.3-0.8,0.8-0.8,1.4c0,1.7,2.5,3.6,3,4.1
		c0.5-0.4,3.1-2.5,3.1-4.2c0-0.5-0.2-0.8-0.7-1.1c-0.3-0.2-0.6-0.3-0.9-0.2c-0.7,0.2-1.2,1-1.2,1l-0.1,0.1c-0.1,0-0.1,0-0.1-0.1
		c0,0-0.5-0.8-1.1-0.9C314.1,280.4,314.1,280.4,314,280.4z"/>
	<path class="st26" d="M359.3,278.3h-19.4c-2.9,0-5.3-2.4-5.3-5.3s2.4-5.3,5.3-5.3h19.4c2.9,0,5.3,2.4,5.3,5.3
		C364.7,275.9,362.2,278.3,359.3,278.3z"/>
	<path class="st26" d="M285.9,234.3h16.7l2.5,9.8l4.2,34.2l-7.6,0.7l-7-28.6l-4.3,28.6l-8.2-1.4l1.8-32.9L285.9,234.3z"/>
	<path class="st26" d="M302.6,232.6h-16.7v1.8h16.7V232.6z"/>
	<path class="st25" d="M401.4,61.3H258.2v2.6h143.2V61.3z"/>
	<path class="st25" d="M138.1,324.1h-0.4v-0.8h0.4c1,0,1.7-0.1,1.7-0.1h0.4l0.1,0.8h-0.4C139.9,324,139.1,324.1,138.1,324.1z
		 M135,323.9h-0.4c-0.5-0.1-1.1-0.1-1.8-0.2l-0.4-0.1l0.1-0.8l0.4,0.1c0.6,0.1,1.1,0.2,1.7,0.2h0.4V323.9z M129.8,323.1l-0.4-0.1
		c-0.5-0.1-1.1-0.3-1.7-0.5l-0.4-0.1l0.3-0.8l0.4,0.1c0.5,0.2,1.1,0.3,1.7,0.5l0.4,0.1L129.8,323.1z M124.7,321.4l-0.4-0.2
		c-0.5-0.2-1-0.5-1.6-0.7l-0.4-0.2l0.4-0.7l0.4,0.2c0.5,0.3,1,0.5,1.6,0.7l0.4,0.2L124.7,321.4z M120.1,318.8l-0.3-0.2
		c-0.5-0.3-0.9-0.6-1.5-1l-0.3-0.3l0.5-0.7l0.3,0.3c0.4,0.3,0.9,0.7,1.4,1l0.3,0.2L120.1,318.8z M115.9,315.6l-0.3-0.3
		c-0.4-0.4-0.8-0.8-1.2-1.2l-0.3-0.3l0.6-0.6l0.3,0.3c0.4,0.4,0.8,0.8,1.1,1.2l0.3,0.3L115.9,315.6z M112.4,311.5l-0.2-0.3
		c-0.2-0.2-0.3-0.4-0.5-0.7c-0.2-0.2-0.7-1.1-0.7-1.1l0.7-0.4c0,0,0.5,0.8,0.7,1.1c0.1,0.2,0.3,0.4,0.4,0.7l0.2,0.3L112.4,311.5z
		 M109.7,307l-0.2-0.4c-0.3-0.5-0.5-1-0.7-1.6l-0.2-0.4l0.8-0.3l0.2,0.4c0.2,0.5,0.5,1,0.7,1.6l0.2,0.4L109.7,307z M107.5,302.1
		l-0.1-0.4c-0.2-0.5-0.4-1.1-0.5-1.7l-0.1-0.4l0.8-0.2l0.1,0.4c0.2,0.5,0.3,1,0.5,1.7l0.1,0.4L107.5,302.1z M106.1,297l-0.1-0.4
		c-0.1-0.6-0.2-1.1-0.3-1.8l-0.1-0.4l0.8-0.1l0.1,0.4c0.1,0.5,0.2,1.1,0.3,1.7l0.1,0.4L106.1,297z M105.5,291.8v-0.4
		c0-0.6,0-1.1,0-1.7v-0.4l0.8-0.1v0.4c0,0.6,0,1.1,0,1.8v0.4H105.5z M106.4,286.6l-0.8-0.1v-0.4c0.1-0.6,0.1-1.2,0.2-1.8l0.1-0.4
		l0.8,0.1l-0.1,0.4c-0.1,0.5-0.1,1.1-0.2,1.7V286.6z M107.2,281.5l-0.8-0.2l0.1-0.4c0.1-0.3,0.2-0.6,0.2-0.7v-0.4h0.8v0.6
		c0,0-0.1,0.3-0.2,0.7L107.2,281.5z"/>
	<path class="st10" d="M374.3,215.4h45.9c1,0,1.9,1.6,1.9,3.4v43c0,1.9-0.8,3.4-1.9,3.4h-45.9c-1,0-1.9-1.6-1.9-3.4v-43
		C372.4,216.9,373.3,215.4,374.3,215.4z"/>
	<path class="st25" d="M420.2,265.9h-45.9c-1.2,0-2.3-1.8-2.3-4v-43c0-2.2,1-4,2.3-4h45.9c1.2,0,2.3,1.8,2.3,4v43
		C422.5,264.1,421.5,265.9,420.2,265.9z M374.3,215.8c-0.7,0-1.5,1.2-1.5,3v43c0,1.8,0.7,3,1.5,3h45.9c0.7,0,1.5-1.2,1.5-3v-43
		c0-1.8-0.7-3-1.5-3H374.3z"/>
	<path class="st10" d="M247.1,0.5h32c0.7,0,1.4,1,1.4,2.4v30c0,1.4-0.6,2.4-1.4,2.4h-32c-0.7,0-1.4-1-1.4-2.4v-30
		C245.8,1.6,246.4,0.5,247.1,0.5z"/>
	<path class="st25" d="M279.1,35.8h-32c-1,0-1.8-1.2-1.8-2.9v-30c0-1.7,0.7-2.9,1.8-2.9h32c1,0,1.8,1.2,1.8,2.9v30
		C280.9,34.6,280.2,35.8,279.1,35.8z M247.1,0.9c-0.3,0-0.8,0.7-0.8,2v30c0,1.2,0.5,2,0.8,2h32c0.3,0,0.8-0.7,0.8-2v-30
		c0-1.2-0.5-2-0.8-2H247.1z"/>
	<path class="st10" d="M456.7,278.1h25.8c0.6,0,1,0.8,1,2v24.3c0,1-0.5,2-1,2h-25.8c-0.6,0-1-0.8-1-2v-24.3
		C455.7,278.9,456.2,278.1,456.7,278.1z"/>
	<path class="st25" d="M482.6,306.7h-25.8c-0.8,0-1.5-1-1.5-2.4v-24.3c0-1.4,0.6-2.4,1.5-2.4h25.8c0.8,0,1.5,1,1.5,2.4v24.3
		C484.1,305.7,483.5,306.7,482.6,306.7z M456.7,278.5c-0.2,0-0.6,0.6-0.6,1.6v24.3c0,0.9,0.4,1.6,0.6,1.6h25.8
		c0.2,0,0.6-0.6,0.6-1.6v-24.3c0-0.9-0.4-1.6-0.6-1.6H456.7z"/>
	<path class="st25" d="M408.4,234.9l-24.9-0.1c-0.2,0-0.4-0.2-0.4-0.4s0.2-0.4,0.4-0.4l24.9,0.1c0.2,0,0.4,0.2,0.4,0.4
		S408.6,234.9,408.4,234.9z"/>
	<path class="st25" d="M402.6,252.9C402.5,252.9,402.5,252.9,402.6,252.9h-11.8c-0.2,0-0.4-0.2-0.4-0.4c0-0.2,0.2-0.4,0.4-0.4h11.8
		c0.1-0.1,0.3-0.3,0.8-0.7c0.5-2,5.8-21.8,6-22.6c0.3-0.8,1.2-1,1.8-1l5.5-0.2c0.2,0,0.4,0.2,0.4,0.4c0,0.2-0.2,0.4-0.4,0.4
		l-5.6,0.2c0,0-0.7,0-0.9,0.4c-0.2,0.7-6,22.5-6,22.7c0,0.1-0.1,0.1-0.1,0.2C403.3,252.6,402.9,252.9,402.6,252.9z"/>
	<path class="st25" d="M404.2,248.3l-16.9-0.1c-0.2,0-0.3-0.1-0.4-0.3l-4.1-13.3c-0.1-0.2,0.1-0.5,0.3-0.5c0.2-0.1,0.5,0.1,0.5,0.3
		l4,13l16.6,0.1c0.2,0,0.4,0.2,0.4,0.4C404.7,248.1,404.5,248.3,404.2,248.3z"/>
	<path class="st25" d="M390.7,248.2c-0.2,0-0.4-0.1-0.4-0.3l-3.4-13.3c-0.1-0.2,0.1-0.5,0.3-0.5c0.2-0.1,0.5,0.1,0.5,0.3l3.4,13.3
		c0.1,0.2-0.1,0.5-0.3,0.5C390.7,248.2,390.7,248.2,390.7,248.2z"/>
	<path class="st25" d="M401.4,248.2c-0.3,0-0.5-0.3-0.4-0.5l2.3-12.9c0-0.2,0.3-0.4,0.5-0.3c0.2,0,0.4,0.3,0.3,0.5l-2.3,12.9
		C401.8,248,401.6,248.2,401.4,248.2z"/>
	<path class="st25" d="M398,248c-0.2,0-0.4-0.2-0.4-0.4l0.3-13c0-0.2,0.2-0.4,0.4-0.4s0.4,0.2,0.4,0.4l-0.3,13
		C398.5,247.8,398.3,248,398,248z"/>
	<path class="st25" d="M393.8,248.2c-0.2,0-0.4-0.2-0.4-0.4l-1.7-13.2c0-0.2,0.1-0.4,0.4-0.5c0.2,0,0.4,0.1,0.5,0.4l1.7,13.2
		C394.3,248,394.1,248.2,393.8,248.2z"/>
	<path class="st25" d="M407.1,239.1l-22.5-0.1c-0.2,0-0.4-0.2-0.4-0.4s0.2-0.4,0.4-0.4l22.5,0.1c0.2,0,0.4,0.2,0.4,0.4
		C407.5,238.9,407.3,239.1,407.1,239.1z"/>
	<path class="st25" d="M405.8,243.8l-19.5-0.2c-0.2,0-0.4-0.2-0.4-0.4c0-0.2,0.2-0.4,0.4-0.4l19.5,0.2c0.2,0,0.4,0.2,0.4,0.4
		C406.2,243.7,406,243.8,405.8,243.8z"/>
	<path class="st25" d="M393.3,256.3c-1,0-1.9-0.8-1.9-1.9c0-1,0.8-1.9,1.9-1.9s1.9,0.8,1.9,1.9C395.1,255.5,394.3,256.3,393.3,256.3
		z M393.3,253.4c-0.5,0-1,0.4-1,1c0,0.5,0.4,1,1,1c0.6,0,1-0.4,1-1C394.3,253.9,393.8,253.4,393.3,253.4z"/>
	<path class="st25" d="M400.4,256.3c-1,0-1.9-0.8-1.9-1.9c0-1,0.8-1.9,1.9-1.9s1.9,0.8,1.9,1.9C402.2,255.5,401.4,256.3,400.4,256.3
		z M400.4,253.4c-0.5,0-1,0.4-1,1c0,0.5,0.4,1,1,1c0.5,0,1-0.4,1-1C401.4,253.9,401,253.4,400.4,253.4z"/>
	<path class="st25" d="M417.8,229.2c-0.8,0-1.5-0.6-1.5-1.5c0-0.8,0.6-1.5,1.5-1.5c0.8,0,1.5,0.6,1.5,1.5
		C419.3,228.6,418.6,229.2,417.8,229.2z M417.8,227.2c-0.3,0-0.6,0.3-0.6,0.6c0,0.3,0.3,0.6,0.6,0.6c0.3,0,0.6-0.3,0.6-0.6
		C418.5,227.5,418.2,227.2,417.8,227.2z"/>
	<path class="st28" d="M272.5,12.3h-17v17h17V12.3z"/>
	<path class="st21" d="M265.1,12.3h-2.7v17h2.7V12.3z"/>
	<path class="st26" d="M261,12.5c-1.2,0-2.7-0.2-3.4-1c-0.6-0.7-0.8-1.7-0.4-2.9c0.3-1.1,0.9-1.8,1.7-1.9c2.2-0.3,4.9,4,5.4,4.8
		l0.4,0.6l-0.7,0.2C263.6,12.3,262.4,12.5,261,12.5z M259,7.6c-0.5,0.1-0.7,0.6-0.9,1.1c-0.2,0.8-0.2,1.6,0.2,2
		c0.8,0.9,3.1,0.8,4.6,0.6C261.7,9.6,260,7.6,259,7.6z"/>
	<path class="st26" d="M266,12.5c-1.4,0-2.6-0.2-2.8-0.3l-0.7-0.2l0.4-0.6c0.5-0.8,3.2-5.1,5.4-4.8c0.8,0.1,1.4,0.7,1.7,1.9
		c0.3,1.2,0.2,2.3-0.4,2.9C268.7,12.3,267.2,12.5,266,12.5z M264.2,11.4c1.4,0.2,3.6,0.3,4.6-0.6c0.4-0.4,0.5-1,0.2-2
		c-0.1-0.5-0.4-1.1-0.8-1.1C267.1,7.5,265.4,9.6,264.2,11.4z"/>
	<path class="st26" d="M473.2,298.5h-12v-8.9l4.4-0.1l2.8-3.6v-2.5c0-0.5,0.2-0.9,0.6-1.1c0.4-0.2,0.9-0.2,1.2,0l0.3,0.1
		c0.8,0.5,1.4,1.4,1.4,2.3l0.1,3.3h4.5c0.6,0,1.1,0.3,1.5,0.7c0.3,0.4,0.5,1,0.3,1.7l-2.3,6.4C475.3,297.7,474.3,298.5,473.2,298.5z
		 M462,297.6h11.1c0.8,0,1.6-0.5,1.9-1.2l2.3-6.4c0.1-0.3,0-0.6-0.2-0.8c-0.2-0.2-0.5-0.4-0.8-0.4H471l-0.1-4.2
		c0-0.6-0.3-1.2-0.9-1.6l-0.3-0.1c-0.2-0.1-0.3,0-0.4,0s-0.2,0.1-0.2,0.3v2.8l-3.2,4.3l-4,0.1v7.2H462z"/>
	<path class="st25" d="M484.3,205.7l-0.4-0.2c-0.6-0.3-0.9-0.4-0.9-0.4l-0.4-0.2l0.3-0.8l0.4,0.2c0,0,0.3,0.1,0.9,0.5l0.4,0.2
		L484.3,205.7z"/>
	<path class="st25" d="M487.7,293.4l-0.4-0.8l1.4-0.6l0.4,0.7L487.7,293.4z M491.4,291.4l-0.4-0.7l0.4-0.2c0.5-0.3,1-0.6,1.5-0.9
		l0.4-0.2l0.4,0.7l-0.4,0.2c-0.5,0.3-1,0.6-1.6,0.9L491.4,291.4z M495.9,288.6l-0.5-0.7l0.3-0.2c0.4-0.3,0.9-0.6,1.4-1l0.3-0.3
		l0.5,0.7l-0.3,0.3c-0.5,0.3-0.9,0.7-1.5,1L495.9,288.6z M500,285.4l-0.6-0.6l0.3-0.3c0.4-0.4,0.8-0.7,1.2-1.1l0.3-0.3l0.6,0.6
		l-0.3,0.3c-0.4,0.4-0.8,0.8-1.2,1.2L500,285.4z M503.7,281.6l-0.6-0.5l0.3-0.3c0.4-0.4,0.7-0.8,1-1.4l0.3-0.3l0.7,0.5l-0.3,0.3
		c-0.3,0.5-0.7,0.9-1.1,1.4L503.7,281.6z M506.9,277.4l-0.7-0.5l0.2-0.4c0.3-0.5,0.6-0.9,0.9-1.5l0.2-0.4l0.7,0.4l-0.2,0.4
		c-0.3,0.5-0.6,1-0.9,1.6L506.9,277.4z M509.5,272.8l-0.8-0.4l0.2-0.4c0.2-0.5,0.4-1,0.7-1.6l0.2-0.4l0.8,0.3l-0.2,0.4
		c-0.2,0.5-0.4,1-0.7,1.7L509.5,272.8z M511.4,267.9l-0.8-0.3l0.1-0.4c0.2-0.5,0.3-1.1,0.5-1.7l0.1-0.4l0.8,0.2l-0.1,0.4
		c-0.1,0.6-0.3,1.1-0.5,1.7L511.4,267.9z M512.7,262.8l-0.8-0.2l0.1-0.4c0.1-0.5,0.2-1.1,0.3-1.7l0.1-0.4l0.8,0.1l-0.1,0.4
		c-0.1,0.6-0.2,1.1-0.3,1.8L512.7,262.8z M513.6,257.6l-0.8-0.1V257c0-0.5,0.1-1.1,0.1-1.8v-0.4l0.8,0.1v0.4c0,0.6-0.1,1.1-0.1,1.8
		V257.6z M513.9,252.3H513v-2.6h0.8V252.3z M512.8,247l-0.2-2.6l0.8-0.1l0.2,2.6L512.8,247z M512.3,241.8v-0.4
		c-0.1-0.5-0.2-1.1-0.3-1.7l-0.1-0.4l0.8-0.2l0.1,0.4c0.1,0.6,0.2,1.1,0.3,1.8l0.1,0.4L512.3,241.8z M511.3,236.8l-0.1-0.4
		c-0.2-0.5-0.3-1.1-0.5-1.7l-0.1-0.4l0.8-0.3l0.1,0.4c0.2,0.5,0.3,1.1,0.5,1.7l0.1,0.4L511.3,236.8z M509.6,231.9l-0.2-0.4
		c-0.2-0.5-0.4-1-0.7-1.6l-0.2-0.4l0.8-0.4l0.2,0.4c0.2,0.5,0.5,1,0.7,1.6l0.2,0.4L509.6,231.9z M507.3,227.3l-0.2-0.4
		c-0.3-0.5-0.6-1-0.9-1.5L506,225l0.7-0.4l0.2,0.4c0.3,0.5,0.6,1,0.9,1.5l0.2,0.4L507.3,227.3z M504.6,222.9l-0.2-0.3
		c-0.3-0.4-0.7-0.9-1-1.4l-0.3-0.3l0.7-0.5l0.3,0.3c0.3,0.4,0.7,0.9,1,1.4l0.2,0.3L504.6,222.9z M501.3,218.8l-0.3-0.3
		c-0.4-0.4-0.8-0.8-1.1-1.2l-0.3-0.3l0.6-0.6l0.3,0.3c0.4,0.4,0.8,0.8,1.2,1.2l0.3,0.3L501.3,218.8z M497.6,215.1l-0.3-0.3
		c-0.4-0.4-0.8-0.8-1.2-1.1l-0.3-0.3l0.5-0.6l0.3,0.3c0.4,0.4,0.8,0.7,1.4,1.1l0.3,0.3L497.6,215.1z M493.7,211.7l-0.3-0.3
		c-0.5-0.3-0.9-0.7-1.4-1l-0.3-0.2l0.5-0.7l2.1,1.6L493.7,211.7z M489.5,208.7l-0.4-0.2c-0.5-0.3-1-0.6-1.5-0.9l-0.4-0.2l0.4-0.7
		l0.4,0.2c0.5,0.3,0.9,0.6,1.5,0.9l0.4,0.2L489.5,208.7z"/>
	<path class="st25" d="M414,209.5l-0.7-0.5l0.2-0.4c0.3-0.5,0.6-1,0.9-1.5l0.2-0.3l0.7,0.5l-0.2,0.3c-0.3,0.4-0.6,0.9-0.9,1.5
		L414,209.5z M417,205.3l-0.6-0.5l0.3-0.3c0.4-0.4,0.7-0.9,1.1-1.4l0.3-0.3l0.6,0.6l-0.3,0.3c-0.4,0.4-0.7,0.8-1.1,1.4L417,205.3z
		 M420.5,201.5l-0.6-0.6l0.3-0.3c0.4-0.4,0.8-0.8,1.4-1.1l0.3-0.3l0.5,0.6l-0.3,0.3c-0.4,0.3-0.8,0.7-1.2,1.1L420.5,201.5z
		 M424.5,198.2l-0.5-0.7l0.3-0.2c0.5-0.3,1-0.6,1.5-0.9l0.4-0.2l0.4,0.7l-0.4,0.2c-0.5,0.3-0.9,0.6-1.5,0.9L424.5,198.2z
		 M428.9,195.6l-0.3-0.8l0.4-0.2c0.5-0.2,1.1-0.5,1.7-0.6l0.4-0.1l0.3,0.8l-0.4,0.1c-0.5,0.2-1,0.4-1.6,0.6L428.9,195.6z
		 M433.8,193.9l-0.2-0.8l0.4-0.1c1.1-0.2,1.8-0.2,1.8-0.2h0.4v0.8h-0.4c0,0-0.6,0-1.7,0.2L433.8,193.9z"/>
	<path class="st29" d="M454.4,114.9c0,2.5-2.1,4.6-4.6,4.6c-2.5,0-4.6-2.1-4.6-4.6c0-2.5,2.1-4.6,4.6-4.6
		C452.3,110.2,454.4,112.3,454.4,114.9z"/>
	<path class="st10" d="M422.1,189.4c-4.6,0-8.2-3.7-8.2-8.2c0-4.6,3.7-8.2,8.2-8.2c4.6,0,8.2,3.7,8.2,8.2S426.6,189.4,422.1,189.4z
		 M422.1,174.1c-3.9,0-7,3.1-7,7c0,3.9,3.1,7,7,7s7-3.1,7-7c0-1.9-0.7-3.6-2.1-5C425.8,174.9,424,174.1,422.1,174.1z"/>
	<path class="st30" d="M418,75.2l-1.9-1.8c2.4-2.4,3.6-5.6,3.6-9.1c0-3.3-1.2-6.6-3.6-9l1.9-1.8c2.8,2.9,4.4,6.8,4.4,10.8
		C422.3,68.4,420.8,72.3,418,75.2z"/>
	<path class="st30" d="M427.1,83.3l-1.9-1.8c4.4-4.7,6.8-10.8,6.8-17.3c0-6.6-2.5-12.8-7.1-17.5l1.9-1.8c5,5.2,7.8,12.1,7.8,19.4
		C434.6,71.4,432,78.2,427.1,83.3z"/>
	<path class="st30" d="M436.5,91.7l-2-1.8c6.5-7,10-16,10-25.5c0-9.8-3.7-19.1-10.5-26.1l1.9-1.8c7.3,7.6,11.2,17.5,11.2,28
		C447.1,74.5,443.4,84.2,436.5,91.7z"/>
	<path class="st25" d="M475,328.8V328h0.4c0.5,0,1.1-0.1,1.7-0.1l0.4-0.1l0.1,0.8l-0.4,0.1c-0.6,0.1-1.2,0.1-1.8,0.2L475,328.8z
		 M472.3,328.8h-0.4c-1-0.1-1.8-0.2-1.8-0.2l-0.4-0.1l0.2-0.8l0.4,0.1c0,0,0.6,0.1,1.7,0.2h0.4L472.3,328.8z M480.2,328.1l-0.2-0.8
		l0.4-0.1c0.5-0.2,1-0.3,1.6-0.5l0.4-0.2l0.3,0.8l-0.4,0.2c-0.5,0.2-1.1,0.4-1.7,0.6H480.2z M485.1,325.9l-0.5-0.7l0.3-0.2
		c0.4-0.3,0.9-0.6,1.4-1l0.3-0.3l0.5,0.6l-0.3,0.3c-0.4,0.4-0.9,0.7-1.5,1.1L485.1,325.9z M489.1,322.2l-0.7-0.5l0.2-0.3
		c0.3-0.4,0.6-0.9,0.9-1.5l0.2-0.4l0.7,0.4l-0.2,0.4c-0.3,0.5-0.6,1-0.9,1.5L489.1,322.2z M491.6,317.6l-0.8-0.3l0.1-0.4
		c0.2-0.5,0.3-1,0.4-1.7l0.1-0.4l0.8,0.2l-0.1,0.4c-0.1,0.6-0.3,1.1-0.4,1.8L491.6,317.6z M492.6,312.2h-0.8v-0.4c0-0.2,0-0.4,0-0.6
		c0-0.3,0-0.7,0-1v-0.4h0.8v0.4c0,0.4,0,0.7,0,1.1c0,0.2,0,0.4,0,0.6V312.2z M491.4,307.1l-0.1-0.4c-0.1-0.6-0.2-1.1-0.3-1.7
		l-0.1-0.4l0.8-0.2l0.1,0.4c0.1,0.5,0.2,1.1,0.3,1.8l0.1,0.4L491.4,307.1z M490.1,302.1l-0.1-0.4c-0.2-0.6-0.4-1-0.4-1v-0.2v-0.4
		h0.8v0.3c0.1,0.2,0.2,0.5,0.4,1l0.1,0.4L490.1,302.1z"/>
	
		<linearGradient id="SVGID_00000095336012517099170600000014975363447274674067_" gradientUnits="userSpaceOnUse" x1="205.5046" y1="359.9625" x2="351.627" y2="359.9625" gradientTransform="matrix(1 0 0 -1 0 414.3197)">
		<stop  offset="0" style="stop-color:#E4ECFB"/>
		<stop  offset="1" style="stop-color:#B4C7F6"/>
	</linearGradient>
	<path style="fill:url(#SVGID_00000095336012517099170600000014975363447274674067_);" d="M402.9,58.8H256.7c1.2-5.4,6-9.3,12.3-9
		h122.1C397.4,49.8,401.8,54.3,402.9,58.8z"/>
	<path class="st10" d="M390.4,56.9h-8c-0.6,0-1.1-0.5-1.1-1.1v-2.8c0-0.6,0.5-1.1,1.1-1.1h8c0.6,0,1.1,0.5,1.1,1.1v2.8
		C391.5,56.3,391,56.9,390.4,56.9z M382.4,52.3c-0.3,0-0.5,0.2-0.5,0.5v2.8c0,0.3,0.2,0.5,0.5,0.5h8c0.3,0,0.5-0.2,0.5-0.5v-2.7
		c0-0.3-0.2-0.5-0.5-0.5h-8V52.3z"/>
	<path class="st10" d="M388.5,55.9h-5.7c-0.3,0-0.6-0.3-0.6-0.6v-1.9c0-0.3,0.3-0.6,0.6-0.6h3.6L388.5,55.9z"/>
	<path class="st10" d="M392.1,53.8v0.6c0,0.1-0.1,0.2-0.2,0.2h-0.6v-1h0.6C392,53.7,392.1,53.7,392.1,53.8z"/>
	<path class="st10" d="M274.1,53.5l-0.7,0.8c-0.7-0.7-1.7-1.1-2.7-1.1s-2.1,0.4-2.8,1.1l-0.8-0.8c0.9-0.9,2.2-1.5,3.5-1.5
		C271.9,52.1,273.2,52.6,274.1,53.5z"/>
	<path class="st10" d="M272.9,54.7l-0.8,0.8c-0.4-0.4-0.9-0.6-1.6-0.6c-0.6,0-1.1,0.2-1.6,0.6l-0.8-0.8c0.6-0.6,1.5-0.9,2.4-0.9
		C271.4,53.7,272.2,54.2,272.9,54.7z"/>
	<path class="st10" d="M271.7,55.9l-1.1,1.2l-1.1-1.2c0.3-0.3,0.7-0.5,1.1-0.5C271,55.5,271.4,55.7,271.7,55.9z"/>
	<path class="st10" d="M285,51.7h-1.6v5.5h1.6V51.7z"/>
	<path class="st10" d="M282.7,52.9h-1.6v4.3h1.6V52.9z"/>
	<path class="st10" d="M280.5,54h-1.6v3.2h1.6V54z"/>
	<path class="st10" d="M278.4,55.6h-1.6v1.7h1.6V55.6z"/>
	<path class="st10" d="M80.8,160.3H171c2.2,0,4,1.9,4,4.1v108.7c0,2.3-1.8,4.1-4,4.1H80.8c-2.2,0-4-1.9-4-4.1V164.3
		C76.9,162.2,78.6,160.3,80.8,160.3z"/>
	<path class="st25" d="M171,277.6H80.8c-2.4,0-4.4-2-4.4-4.5V164.3c0-2.5,2-4.5,4.4-4.5H171c2.4,0,4.4,2,4.4,4.5v108.7
		C175.4,275.6,173.4,277.6,171,277.6z M80.8,160.7c-2,0-3.5,1.7-3.5,3.6v108.7c0,2,1.6,3.6,3.5,3.6H171c2,0,3.5-1.7,3.5-3.6V164.3
		c0-2-1.6-3.6-3.5-3.6H80.8z"/>
	<path class="st32" d="M118.9,205.9l-29.4-0.6l1.4-0.7c6.2-3.6,16.4-10.2,16.8-11.9c0.2-0.8,0-1.7-0.5-2.3c-0.4-0.6-1.1-0.9-1.9-0.8
		c-1.6,0.1-2.3,2.1-2.3,2.1l-0.8-0.3c0-0.1,0.9-2.6,3.1-2.7c1,0,2,0.4,2.6,1.1c0.7,0.8,0.9,2,0.6,3.1c-0.2,0.7-1.4,1.9-3,3.1
		L118.9,205.9z M92.7,204.4l23.5,0.5l-11.5-8.4C101,199.4,95.3,202.9,92.7,204.4z"/>
	<path class="st32" d="M102.3,196.3l1.2-0.9c8-5.7,20-15.2,20.4-17.5c0.2-1.1-0.1-2.3-0.9-3c-0.7-0.7-1.7-1-2.6-0.9
		c-2.2,0.3-2.8,3.1-2.8,3.1l-0.8-0.2c0-0.1,0.8-3.4,3.5-3.9c1.2-0.2,2.5,0.3,3.3,1.2c0.9,1,1.5,2.4,1.1,3.9
		c-0.2,0.9-1.6,2.6-3.6,4.5l18.3,11.1L102.3,196.3z M120.5,183.2c-4.8,4.3-12.1,9.8-15.2,12.1l31.5-2.2L120.5,183.2z"/>
	<path class="st26" d="M113.7,185.5l5.7,6.6l7.8-7.3l12.8,6.8c2.2,1.1,3.7,3.1,4.4,5.5c1.9,7.2,5.7,22.4,6.9,25.8
		c1.5,4.5,6.1,20.2,6.1,20.2l-0.5,7.5l-7.4,1.6l-3.2-5l-8.6-27.3l2.3,30.4l-19.2,9.7l-22-8.6l-1.2-36.8l-12.5,28.8l-0.8-26.1
		l15.2-23L113.7,185.5z"/>
	<path class="st33" d="M147.5,247.1c-0.1,0-0.3-0.1-0.3-0.2c0-0.2,0.1-0.3,0.2-0.4l8.9-2.2c0.2,0,0.3,0.1,0.4,0.2
		c0,0.2-0.1,0.3-0.2,0.4L147.5,247.1z"/>
	<path class="st26" d="M120,191.4l4.8,5.2l6.4-11.1l-4.6-1.5L120,191.4z"/>
	<path class="st26" d="M122.4,195.1l-4.1,6.2l-7.1-10.2l5.2-2.3L122.4,195.1z"/>
	<path class="st33" d="M124.9,196.1c-0.1,0-0.2,0-0.2-0.1l-4.3-5c-0.1-0.1-0.1-0.3,0-0.4l6.1-6.7c0.1-0.1,0.2-0.1,0.3-0.1l4.2,1.4
		c0.1,0,0.2,0.1,0.2,0.2c0,0.1,0,0.2,0,0.3l-6,10.3C125.1,196,125,196.1,124.9,196.1z M121,190.8l3.9,4.5l5.6-9.6l-3.6-1.2
		L121,190.8z"/>
	<path class="st33" d="M115.2,197.2c-0.1,0-0.2-0.1-0.2-0.1l-4.2-6.8l-1.9-2.8c0-0.1-0.1-0.2,0-0.2c0-0.1,0.1-0.1,0.1-0.2l4.4-2.3
		c0.1-0.1,0.3,0,0.4,0.1l5.6,6.4c0.1,0.1,0.1,0.3,0,0.4l-4,5.5C115.4,197.1,115.3,197.2,115.2,197.2z M109.6,187.3l1.7,2.6l4,6.4
		l3.5-4.9l-5.3-6L109.6,187.3z"/>
	<path class="st33" d="M121.4,257c-0.2,0-0.3-0.1-0.3-0.3l-2-64.2c0-0.2,0.1-0.3,0.3-0.3s0.3,0.1,0.3,0.3l2,64.2
		C121.8,256.8,121.6,257,121.4,257z"/>
	<path class="st34" d="M591.7,322.9l21.4,41l3.2-5.7c0,0-3.6-11.2-4.7-15.2c-1-4-9.1-24.2-10.1-25.7
		C600.4,315.8,591.7,322.9,591.7,322.9z"/>
	<path class="st35" d="M623.3,367.1l-1.8-6.1l-5.3-5.5l-5.5,6.6c0,0,1.9,2,0,5.7c-1.9,3.7-6.1,7.8-6.1,7.8l12-5l1.1-6.5l2.5-1.9
		l2.3,5.2L623.3,367.1z"/>
	<path class="st34" d="M553.1,323.6l5.3,45.9l5-4.3c0,0,0.6-11.8,1-15.8c0.5-4.1,0.1-25.8-0.2-27.6
		C563.9,320.1,553.1,323.6,553.1,323.6z"/>
	<path class="st35" d="M567,376.2l0.5-6.5l-3-7.1l-7.5,4.1c0,0,1,2.5-2,5.3c-3,2.9-8.5,5.1-8.5,5.1l13-0.4l3.3-5.6l2.9-0.8l0.3,5.7
		L567,376.2z"/>
	<path class="st36" d="M494.6,236.8c0,0,3.7,2.2,4.4,2.5c0.6,0.3,2.4,1.4,2.4,1.4l4,9.7c0,0-2.1-0.4-3-0.5s-1.9,0-2.6-0.4
		c-0.7-0.5-3.2-2.1-3.6-2.3s-2.6-0.8-2.7-1c-0.2-0.2-1.8-1.4-1.6-2.4c0-0.2-1.7-0.5-1.5-1.7c0.3-1.1,0.9-0.8,0.9-0.8l-0.4-0.5
		c0,0-2.1-0.2-2.2-0.9c0-0.7,0.7-1.1,0.7-1.1L494.6,236.8z"/>
	<path class="st25" d="M494.2,233.4l-5.2,3.7c-0.1,0.1-0.1,0.2,0,0.3l7.8,10.7c0.1,0.1,0.2,0.1,0.3,0l5.2-3.7c0.1-0.1,0.1-0.2,0-0.3
		l-7.8-10.7C494.4,233.3,494.3,233.3,494.2,233.4z"/>
	<path class="st19" d="M494.1,233.8l-4.7,3.4c-0.1,0.1-0.1,0.4-0.1,0.4l7.4,10.1c0.1,0.1,0.3,0.2,0.4,0.1l4.7-3.4
		c0.1-0.1,0.2-0.3,0.1-0.4l-7.4-10.1C494.5,233.8,494.3,233.7,494.1,233.8z"/>
	<path class="st25" d="M496.6,248l-7.4-10.1v-0.1c0-0.1-0.1-0.5,0.1-0.6l4.7-3.4c0.1-0.1,0.2-0.1,0.4-0.1c0.1,0,0.2,0.1,0.3,0.2
		l7.4,10.1c0.1,0.1,0.1,0.2,0.1,0.4c0,0.1-0.1,0.3-0.2,0.3l-4.7,3.4c-0.1,0.1-0.2,0.1-0.3,0.1C496.8,248.2,496.7,248.1,496.6,248z
		 M494.3,234l-4.7,3.4c0,0,0,0.1,0,0.2l7.3,10.1h0.1l4.7-3.4c0,0,0,0,0-0.1l-7.4-10.1C494.4,234,494.3,234,494.3,234z"/>
	<path class="st25" d="M491.9,235.2l-0.6,0.4c0.2,0.3,0.5,0.5,0.7,0.3C492.2,235.8,492,235.3,491.9,235.2z"/>
	<path class="st37" d="M491.9,235.6c0-0.1-0.1-0.1-0.2,0c-0.1,0-0.1,0.1,0,0.2c0,0.1,0.1,0.1,0.2,0
		C491.9,235.8,491.9,235.7,491.9,235.6z"/>
	<path class="st34" d="M511.1,246.9l-4.4-2.2l-4.4-3.6l-1.1-0.5l-3.4,0.3l-2,2.6c0,0,0.3,1,3.2-0.4c0.8-0.4,2,2.6,2,2.6l2.9,1.9
		l0.6,2.7l4.2,3.1L511.1,246.9z"/>
	<path class="st34" d="M555.2,201l6,10.3c0,0,0.1,2.9-4.6,3.5s-6.9-0.9-6.9-0.9l-0.2-6.2L555.2,201z"/>
	<path class="st34" d="M553.3,197.5c0,0,0.6-2.7,3.4-2.3c2.8,0.4-3.3,13.3-7.3,14.8c-4,1.4-8-5.9-9.3-9c-1.1-3-3.4-8,1.2-9.4
		C546.3,190.4,553.3,197.5,553.3,197.5z"/>
	<path class="st38" d="M573.1,255.6l-24.9,3l-1.9,67.5c0,0,0.8,4.1,17.3,4.9c16.4,0.8,28.1-1.2,34.7-7.5
		c6.6-6.1,12.2-17.5,12.2-17.5L573.1,255.6z"/>
	<path class="st35" d="M560.7,211c0,0-2.6,4.3-5.3,4.2c-2.6-0.1-6.1-1.7-6.1-1.7s-5.3,4.5-8.1,8.1c-2.9,3.7-5.9,12.5-8,15.6
		c-2.2,3.1-1.1,9.9-7.7,6.6c-6.5-3.3-6.5-2.9-8.4,1.7c-0.6,1.6-9.5-2.9-9.5-2.9l-5,7c0,0,11.2,6,12.1,7.4c4.5,7,3.1,7.7,9.5,6.9
		c6.4-0.8,9.7,1.2,12.3-3.3c2.6-4.6,9.3-13.4,9.3-13.4l3,12.5c0,0,22.4-0.6,24.8-4c2.4-3.3,3.1-2.4,2.1-6.6s1.4-8,1.4-8l5.4,3.5
		c0,0,2.7,1,3.7,8.3c0.9,7.3,2.6,3.4,7.1,5.9c3.1,1.8,6,8.3,6,8.3l6.8-1.1c0,0-3.1-7.7-2.7-8c3.6-2.1,5.1-1.1,2.4-7.3
		c-2.7-6.1-6.5-6.8-9.9-10.7c-3.4-4-14.9-17.4-14.9-17.4s-4.6-5-7-6.7C571.5,214.1,560.7,211,560.7,211z"/>
	<path class="st39" d="M552.9,198.7c-2-0.3-1.6-2.4-4.6-4.3c-1.9-1.1-9.3,2.1-10.1-0.8c-0.7-3,3-9,8-10c7.4-1.6,9,5,14,7.7
		c4.9,2.6,4.6,0.8,9.1,3.9c4.4,3,9.2,9,8.6,12.8c-0.5,3.9-1.5,9.9-1.5,9.9s-3.6-3.6-7.2-4.4s-8.1-2-8.1-2l-5.5-9.3
		c0,0,2.2-5,0.5-6.7C554.4,193.9,554.8,199,552.9,198.7z"/>
	<path class="st39" d="M538.5,194.6c0,0,1,4.5,1.7,5.8c0.6,1.4,3,5.7,3.6,6.7c0.7,0.9,4.1,3.6,5.3,3c1.2-0.6,0.9,4.2,0.9,4.2
		s-4.9,2.8-6,4.4c-1.1,1.6-2.4,2.9-2.4,2.9s-4.9-4.2-5.9-10c-1-5.8-0.4-15.4-0.4-15.4s0.9-3.6,2-4.1
		C538.4,191.5,538.5,194.6,538.5,194.6z"/>
	<path class="st39" d="M578.3,200.8c-0.1,0-0.3-0.1-0.3-0.2c0,0-2.7-4.5-6.5-6.8c-1.4-0.8-2.6-1-4.1-1.2c-2.6-0.4-5.5-0.8-10-5.1
		c-5.8-5.7-9.9-3.4-10-3.3c-0.2,0.1-0.4,0.1-0.5-0.1c-0.1-0.2-0.1-0.4,0.1-0.5c0.2-0.1,4.8-2.8,11,3.4c4.2,4.2,7,4.5,9.5,4.9
		c1.5,0.2,2.9,0.4,4.4,1.4c4,2.4,6.7,6.9,6.8,7.1c0.1,0.2,0.1,0.4-0.1,0.5C578.6,200.8,578.4,200.8,578.3,200.8z"/>
	<path class="st33" d="M589.3,256.5c-1.1-0.1-2-0.4-2.5-1.1c-0.6-0.9-0.4-2-0.3-2.4c-0.3-0.7-1.7-4.1-1.7-6.2c0-1.9,0.7-2.9,1-3.3
		c-0.1-0.1-0.2-0.2-0.4-0.3c-0.4-0.2-1,0-1.9,0.4c-2.7,1.5-6.2-1.8-6.5-1.9l-8.5-8.3c-0.2-0.2-0.2-0.4,0-0.6c0.2-0.2,0.4-0.2,0.6,0
		l8.5,8.3c0,0,3.3,2.9,5.4,1.8c1-0.6,1.9-0.7,2.6-0.4c0.6,0.2,0.9,0.7,0.9,1c0,0.2,0,0.3-0.1,0.4c0,0-1,0.9-1,3c0,2.2,1.7,5.9,1.7,6
		s0,0.2,0,0.3c0,0-0.3,1.1,0.2,1.9c0.3,0.5,0.9,0.7,1.8,0.8c0.2,0,0.4,0.2,0.4,0.4C589.7,256.4,589.5,256.5,589.3,256.5z"/>
	<path class="st33" d="M545.9,247.4c-0.2,0-0.3-0.1-0.4-0.2c0-0.1-2.5-5.3-3.3-7.4c-0.7-1.8,0.2-3.6,1.2-5.8
		c0.3-0.6,0.6-1.2,0.9-1.9c1.2-2.8,1.1-6.8,1.1-6.9c0-0.2,0.2-0.4,0.4-0.4s0.4,0.2,0.4,0.4c0,0.2,0.1,4.2-1.2,7.2
		c-0.3,0.6-0.6,1.4-0.9,2c-0.9,2-1.8,3.7-1.2,5.2c0.8,2,3.2,7.3,3.3,7.3c0.1,0.2,0,0.4-0.2,0.5C546,247.4,546,247.4,545.9,247.4z"/>
	<path class="st33" d="M550.2,210c-0.2,0-0.3-0.1-0.4-0.3s0.1-0.4,0.3-0.5c3.4-1,3.9-4,3.9-4c0-0.2,0.2-0.4,0.4-0.3
		c0.2,0,0.4,0.2,0.3,0.4C554.7,205.4,554.2,208.7,550.2,210C550.3,210,550.3,210,550.2,210z"/>
	<path class="st33" d="M517.3,256.3c-0.2,0-0.4-0.2-0.4-0.4c0-0.2-0.2-6.2,1-8.7c0.8-1.6,1.6-2.6,2-2.7c0.1,0,0.1,0,0.2,0
		c0,0,3.2,0.5,6.7,1.6c1.6,0.4,2.2,0.1,2.8-0.3c0.7-0.4,1.4-0.8,2.8,0.2c2.7,1.9,1.5,3.7,1.5,3.7c-0.1,0.2-0.4,0.2-0.6,0.1
		c-0.2-0.1-0.2-0.4-0.1-0.6c0-0.1,0.7-1.2-1.2-2.6c-0.9-0.7-1.2-0.5-1.9-0.2c-0.6,0.4-1.6,0.8-3.4,0.3c-2.9-0.8-5.7-1.4-6.5-1.5
		c-0.1,0.1-0.6,0.6-1.5,2.3c-1.1,2.2-0.9,8.2-0.9,8.3C517.7,256.1,517.5,256.3,517.3,256.3z"/>
	<path class="st33" d="M514.9,248.3h-0.1l-7.8-3.1c-0.2-0.1-0.3-0.3-0.2-0.5c0.1-0.2,0.3-0.3,0.5-0.2l7.8,3.1
		c0.2,0.1,0.3,0.3,0.2,0.5C515.2,248.2,515.1,248.3,514.9,248.3z"/>
	<path class="st33" d="M513.9,250.3c-0.1,0-0.1,0-0.2,0l-7.2-3.1c-0.2-0.1-0.3-0.3-0.2-0.5c0.1-0.2,0.3-0.3,0.5-0.2l7.2,3.1
		c0.2,0.1,0.3,0.3,0.2,0.5C514.2,250.3,514,250.3,513.9,250.3z"/>
	<path class="st33" d="M512.8,252.4c-0.1,0-0.1,0-0.2,0l-6.8-3.5c-0.2-0.1-0.3-0.3-0.2-0.5c0.1-0.2,0.3-0.3,0.5-0.2l6.8,3.5
		c0.2,0.1,0.3,0.3,0.2,0.5C513,252.3,512.9,252.4,512.8,252.4z"/>
	<path class="st33" d="M603.9,264.5c-0.2,0-0.3-0.1-0.4-0.2l-2.3-5.4c-0.1-0.2,0-0.4,0.2-0.5c0.2-0.1,0.4,0,0.5,0.2l2.3,5.4
		c0.1,0.2,0,0.4-0.2,0.5C604,264.5,604,264.5,603.9,264.5z"/>
	<path class="st33" d="M601.5,265c-0.2,0-0.3-0.1-0.4-0.3l-1.9-5.1c-0.1-0.2,0-0.4,0.2-0.5c0.2-0.1,0.4,0,0.5,0.2l1.9,5.1
		c0.1,0.2,0,0.4-0.2,0.5C601.6,265,601.5,265,601.5,265z"/>
	<path class="st33" d="M599.9,265.3c-0.1,0-0.3-0.1-0.4-0.2l-2.6-5.1c-0.1-0.2,0-0.4,0.2-0.5c0.2-0.1,0.4,0,0.5,0.2l2.6,5.1
		c0.1,0.2,0,0.4-0.2,0.5C600,265.3,600,265.3,599.9,265.3z"/>
	<path class="st2" d="M620.5,323.5l-0.4,5.7l0.6,0.4l8-1.4L620.5,323.5z"/>
	<path class="st40" d="M642,304.2l2.6,4.2h0.6l4.8-5.1L642,304.2z"/>
	<path class="st41" d="M650,303.3l-23.1-24.2l-1.6,1.7l16.9,24.3L650,303.3z"/>
	<path class="st1" d="M614.3,290c-0.1,0-0.1,0-0.2-0.1c-0.2-0.3-4.6-7.6-3.7-10.8c0.2-0.6,0.5-1,0.9-1.4c3.4-1.9,11.1,5.5,11.5,5.8
		c0.1,0.1,0.1,0.2,0,0.3c-0.1,0.1-0.2,0.1-0.3,0c-0.1-0.1-7.8-7.5-10.9-5.7c-0.4,0.2-0.6,0.5-0.7,1c-0.8,3.1,3.6,10.4,3.7,10.5
		c0.1,0.1,0,0.2-0.1,0.3C614.3,290,614.3,290,614.3,290z"/>
	<path class="st35" d="M607.4,292.9l18-14.5c0,0,0.3,0.4,0.8,1.2c3.7,5.5,18.2,27.1,18.9,28.6c0-0.1-20.5,11.9-20.5,11.9
		L607.4,292.9z"/>
	<path class="st41" d="M621,284.8c-0.2-0.2-0.1-0.6,0.1-0.8c0.2-0.2,0.6-0.1,0.8,0.1s0.1,0.6-0.1,0.8
		C621.6,285.2,621.3,285.1,621,284.8z"/>
	<path class="st3" d="M612.7,290.9c-0.2-0.2-0.1-0.6,0.1-0.8c0.2-0.2,0.6-0.1,0.8,0.1c0.2,0.2,0.1,0.6-0.1,0.8
		C613.3,291.2,612.9,291.2,612.7,290.9z"/>
	<path class="st1" d="M613.1,290.8c-0.1,0-0.2,0-0.2-0.1c-0.2-0.4-5.2-10.8-1.8-12.7c3.4-1.9,10.2,6,10.5,6.4c0.1,0.1,0.1,0.2,0,0.3
		s-0.2,0.1-0.3,0c-0.1-0.1-6.8-8-9.9-6.2c-2.5,1.5,0.5,9.3,2,12.1C613.4,290.5,613.3,290.7,613.1,290.8z"/>
	<path class="st42" d="M590.5,314.6l-3.4,3.5l0.2,0.6l6,3.5L590.5,314.6z"/>
	<path class="st43" d="M593.3,322.3l18-28.2l-2-1.1l-19.7,22.1L593.3,322.3z"/>
	<path class="st1" d="M606,291.2h-0.1c-0.1-0.1-0.1-0.2-0.1-0.3c0.1-0.1,5.4-9.4,3-12c-0.3-0.3-0.7-0.5-1.1-0.5c-3.2,0-9.3,6-9.4,6
		c-0.1,0.1-0.2,0.1-0.3,0c-0.1-0.1-0.1-0.2,0-0.3c0.2-0.2,6.2-6.2,9.6-6.2c0.6,0,1.1,0.2,1.6,0.6c2.7,2.8-2.7,12.1-2.9,12.5
		C606.2,291.1,606,291.2,606,291.2z"/>
	<path class="st44" d="M593.4,278.4l18.3,14.2c0,0-0.4,0.4-1,1.1c-4.5,4.9-22.1,24.1-23.4,25.1c0.1,0-16.5-17.2-16.5-17.2
		L593.4,278.4z"/>
	<path class="st43" d="M596.3,283.4c0-0.3,0.3-0.6,0.6-0.6c0.3,0,0.6,0.3,0.6,0.6c0,0.3-0.3,0.6-0.6,0.6
		C596.6,284,596.3,283.8,596.3,283.4z"/>
	<path class="st41" d="M604.5,289.7c0.2-0.2,0.5-0.3,0.8-0.1c0.2,0.2,0.3,0.5,0.1,0.8c-0.2,0.2-0.5,0.3-0.8,0.1
		C604.3,290.4,604.3,290.1,604.5,289.7z"/>
	<path class="st1" d="M605,290.3h-0.1c-0.1-0.1-0.1-0.2,0-0.3c0.1-0.1,6.1-8.5,3.7-11c-2-2.1-8.9,2.7-11.4,4.8
		c-0.1,0.1-0.2,0.1-0.3,0c-0.1-0.1-0.1-0.2,0-0.3c0.4-0.3,9.3-7.6,12-4.7c2.7,2.9-3.4,11.4-3.7,11.7
		C605.1,290.3,605,290.3,605,290.3z"/>
	<path class="st3" d="M628.8,328.3v-39.6l-7.7,1.4l-0.9,34.4L628.8,328.3z"/>
	<path class="st1" d="M616.6,291c-0.1,0-0.2-0.1-0.2-0.2s-2.2-12.4-6.4-12.9c-0.5-0.1-1,0.1-1.5,0.5c-2.9,2.4-3.7,12.3-3.7,12.4
		s-0.1,0.2-0.2,0.2c-0.1,0-0.2-0.1-0.2-0.2c0-0.4,0.8-10.3,4-12.8c0.5-0.4,1.1-0.6,1.8-0.5c4.5,0.5,6.7,12.8,6.8,13.3
		C616.8,290.9,616.7,291,616.6,291z"/>
	<path class="st2" d="M595.9,289l26.9-1c0,0,0,0.6-0.1,1.8c-0.3,7.7-1.6,38-2.1,39.9c0.1-0.1-27.5-3-27.5-3L595.9,289z"/>
	<path class="st3" d="M614.3,290.9c0-0.3,0.3-0.6,0.6-0.6s0.6,0.3,0.6,0.6c0,0.3-0.3,0.6-0.6,0.6S614.3,291.3,614.3,290.9z"/>
	<path class="st3" d="M602.3,290.9c0-0.3,0.3-0.6,0.6-0.6s0.6,0.3,0.6,0.6c0,0.3-0.3,0.6-0.6,0.6S602.3,291.3,602.3,290.9z"/>
	<path class="st1" d="M602.9,291c-0.2,0-0.2-0.1-0.2-0.3c0.1-0.5,2.5-13.7,7.1-13.1c4.5,0.5,5.4,12.7,5.4,13.2
		c0,0.1-0.1,0.2-0.2,0.2c-0.1,0-0.2-0.1-0.2-0.2s-0.8-12.3-5-12.7c-0.1,0-0.1,0-0.2,0c-4,0-6.4,12.7-6.4,12.8
		C603.1,290.9,603,291,602.9,291z"/>
	<path class="st34" d="M609.6,283.2c0.8-0.3,2.7-5.9,2.7-6.6c0.1-2.2-5-6.1-5.3-6.9c-0.3-0.7-1.5-3.7-1.5-3.7l-5.6,0.9l2.6,4.3
		c0,0,0.8,3.6,0.7,4.5c0,0.8,1.7,4.2,1.7,4.2s-1.7-0.4-1.7,0.4c0,0.8,2.1,1.4,2.1,1.4s1.1,2.5,2.1,2.6c0.9,0.1,0.8-1.5,0.8-1.5
		S609.3,283.3,609.6,283.2z M607.4,279.9L607,278c0,0,0.8-0.7,1.2-0.5c0.4,0.2,0.3,2.8,0.3,2.8L607.4,279.9z"/>
	<path class="st10" d="M442.5,129.8h65.6c1.6,0,2.8,1.5,2.8,3.3v88.4c0,1.9-1.2,3.3-2.8,3.3h-65.6c-1.6,0-2.8-1.5-2.8-3.3v-88.4
		C439.6,131.2,441,129.8,442.5,129.8z"/>
	<path class="st25" d="M508,225.3h-65.6c-1.9,0-3.3-1.7-3.3-3.7v-88.4c0-2.1,1.5-3.7,3.3-3.7H508c1.9,0,3.3,1.7,3.3,3.7v88.4
		C511.5,223.6,509.9,225.3,508,225.3z M442.5,130.3c-1.4,0-2.4,1.2-2.4,2.8v88.4c0,1.6,1,2.8,2.4,2.8h65.6c1.4,0,2.4-1.2,2.4-2.8
		v-88.4c0-1.6-1-2.8-2.4-2.8H442.5z"/>
	<path class="st28" d="M491.3,213c0-4.7,3.9-8.5,8.5-8.5c4.7,0,8.5,3.9,8.5,8.5c0,4.7-3.9,8.5-8.5,8.5
		C495.1,221.5,491.3,217.7,491.3,213z"/>
	<path class="st35" d="M466.8,147.4c0,0,2,9.2,7.6,9.6c5.5,0.4,7.8-9.6,7.8-9.6s2.1-1.2,5.4,1.5c-5.1,12.1,0.8,19.9,0.8,19.9l2.1,30
		H460l0.6-30.1c0,0,5.5-3.4,1.4-19.4C464.5,147.4,466.8,147.4,466.8,147.4z"/>
	<path class="st10" d="M499.8,210.4c0,0-1.7-2.8-3.9-1.4c-4.9,3.2,3.9,9.4,3.9,9.4s8.5-6.4,4-9.4
		C501.6,207.5,499.8,210.4,499.8,210.4z"/>
	<path class="st25" d="M499.8,218.6c-0.1,0-0.1,0-0.2,0c-0.2-0.2-5.5-4-5.4-7.2c0-1,0.5-1.9,1.6-2.6c0.6-0.4,1.2-0.5,2-0.4
		c0.9,0.2,1.7,1,2.1,1.6c0.3-0.5,1.1-1.4,2.2-1.6c0.6-0.1,1.4,0,2,0.4c0.9,0.6,1.5,1.5,1.5,2.4c0.1,3.2-5.2,7.2-5.4,7.4
		C499.9,218.6,499.9,218.6,499.8,218.6z M497.3,208.8c-0.4,0-0.7,0.1-1.1,0.4c-0.9,0.6-1.4,1.2-1.4,2.2c0,2.7,4.2,5.9,5,6.7
		c0.8-0.7,5.1-4.2,5.1-6.8c0-0.8-0.4-1.5-1.2-2c-0.5-0.3-1-0.4-1.6-0.3c-1.1,0.3-2,1.7-2.1,1.7c0,0.1-0.1,0.1-0.2,0.1
		s-0.2-0.1-0.2-0.1s-0.8-1.4-2-1.7C497.5,208.8,497.4,208.8,497.3,208.8z"/>
	<path class="st28" d="M153.8,264.4c0-4.7,3.9-8.5,8.5-8.5s8.5,3.9,8.5,8.5s-3.9,8.5-8.5,8.5C157.7,273.1,153.8,269.2,153.8,264.4z"
		/>
	<path class="st10" d="M162.4,261.9c0,0-1.7-2.8-3.9-1.4c-4.9,3.2,3.9,9.4,3.9,9.4s8.5-6.4,4-9.4C164.1,259,162.4,261.9,162.4,261.9
		z"/>
	<path class="st25" d="M162.4,270.2c-0.1,0-0.1,0-0.2,0c-0.2-0.2-5.5-4-5.4-7.2c0-1,0.5-1.9,1.6-2.6c0.6-0.4,1.2-0.5,2-0.4
		c0.9,0.2,1.7,1,2.1,1.6c0.3-0.5,1.1-1.4,2.2-1.6c0.6-0.1,1.4,0,2,0.4c0.9,0.6,1.5,1.5,1.5,2.4c0.1,3.2-5.2,7.2-5.4,7.4
		C162.5,270.2,162.4,270.2,162.4,270.2z M159.8,260.4c-0.4,0-0.7,0.1-1.1,0.4c-0.9,0.6-1.4,1.2-1.4,2.2c0,2.7,4.2,5.9,5,6.7
		c0.8-0.7,5.1-4.2,5.1-6.8c0-0.8-0.4-1.5-1.2-2c-0.5-0.3-1-0.4-1.6-0.3c-1.1,0.3-2,1.7-2.1,1.7c0,0.1-0.1,0.1-0.2,0.1
		c-0.1,0-0.2-0.1-0.2-0.1s-0.8-1.4-2-1.7C160.1,260.4,160,260.4,159.8,260.4z"/>
	<path class="st45" d="M196.1,356.7l-4.8,16.4l-5.5-2.6l2.6-18L196.1,356.7z"/>
	<path class="st37" d="M185.6,368.8c-0.6-0.1-3,3.9-2.5,6c0.3,1.2,2.5,0.9,5.4,1.2c2.8,0.3,5.1,1.4,7.1,1.4c2,0,8.1-0.6,8.1-0.6
		l-0.2-1.7c0,0-3-0.1-4.3-0.9c-1.2-0.8-6.4-4.8-6.4-4.8c-0.2,0.2-1.6,1.2-3,1.9c-1.5,0.6-1.7,0.4-2.3,0.1
		C186.2,370.7,186.6,368.9,185.6,368.8z"/>
	<path class="st45" d="M236.5,353.4l0.5,17.1l-6-0.7l-3.1-18L236.5,353.4z"/>
	<path class="st37" d="M229.8,366.7c-0.6,0-2.5,4.3-1.7,6.4c0.5,1.2,2.6,0.5,5.5,0.4c2.8-0.1,5.3,0.6,7.2,0.3c2-0.3,7.9-1.9,7.9-1.9
		l-0.4-1.6c0,0-3,0.4-4.4-0.3c-1.4-0.7-7-3.9-7-3.9c-0.1,0.2-1.4,1.5-2.7,2.3s-1.6,0.7-2.3,0.4C230.7,368.5,230.8,366.7,229.8,366.7
		z"/>
	<path class="st38" d="M235.3,267.4c0,0,1.1,10,1.7,13.1c0.5,3.1,0.5,32.1,0.7,39.5c0.2,7.3-0.5,34.5-0.5,34.5l3,2.6l-14.4,2.6
		c0,0-2.8-1.1-1.9-3.2c0.9-2.1,2.7-2.3,2.2-5.3c-0.6-2.9-3.4-10-2.9-14c0.6-3.9,2.1-10.9,1.5-14.6c-0.6-3.7-5.3-32.4-5-32.7
		c-6.5,33.7-23.1,71.8-23.1,71.8s-4.3-3.9-6.2-3.3c-1.9,0.5-3.7,1-3.7,1s-0.8-1.4-0.2-3.2c0.6-1.9,2.9-4.6,3.7-7.6
		c0.8-3,0.9-3,0.9-3s-0.1-8,0.6-10.7c0.6-2.8,3.6-13.2,4.4-18.3s2.8-20.8,2.4-28.4c-0.5-10.2,2.6-24.3,2.6-24.3s5.2,1,8.7,0
		s7.2,2.6,11.9,2.2S235.3,267.4,235.3,267.4z"/>
	<path class="st36" d="M273.1,223.9c0,0-4.6,2.7-5.3,3c-0.7,0.3-2.9,1.6-2.9,1.6l-4.8,11.8c0,0,2.5-0.5,3.7-0.6
		c1.1-0.1,2.3,0.1,3.2-0.5c0.8-0.6,4-2.5,4.4-2.7c0.4-0.2,3.1-0.9,3.3-1.2c0.2-0.2,2.1-1.7,1.9-2.9c0-0.3,2.1-0.6,1.8-2
		c-0.3-1.4-1.1-0.9-1.1-0.9l0.5-0.6c0,0,2.6-0.2,2.6-1.1c0-0.9-0.9-1.4-0.9-1.4L273.1,223.9z"/>
	<path class="st25" d="M273.7,219.8l6.2,4.6c0.1,0.1,0.1,0.2,0.1,0.3l-9.5,13.1c-0.1,0.1-0.2,0.1-0.3,0.1l-6.2-4.6
		c-0.1-0.1-0.1-0.2-0.1-0.3l9.5-13.1C273.4,219.7,273.6,219.7,273.7,219.8z"/>
	<path class="st19" d="M273.7,220.3l5.7,4.2c0.2,0.1,0.1,0.5,0.1,0.5l-9,12.3c-0.1,0.2-0.3,0.2-0.5,0.1l-5.7-4.2
		c-0.2-0.1-0.2-0.3-0.1-0.5l9-12.3C273.3,220.2,273.6,220.2,273.7,220.3z"/>
	<path class="st25" d="M270.3,237.8c-0.1,0-0.3,0-0.4-0.1l-5.7-4.2c-0.1-0.1-0.2-0.2-0.2-0.4s0-0.3,0.1-0.5l9-12.3
		c0.1-0.1,0.2-0.2,0.4-0.2c0.2,0,0.3,0,0.5,0.1l5.7,4.2c0.3,0.2,0.2,0.6,0.2,0.8v0.1l-9,12.3C270.6,237.7,270.5,237.8,270.3,237.8z
		 M273.5,220.5l-9.1,12.4v0.1c0,0,0,0,0,0.1l5.7,4.2h0.1l9-12.3c0-0.1,0-0.2,0-0.2L273.5,220.5z"/>
	<path class="st25" d="M276.5,221.9l0.7,0.5c-0.2,0.3-0.6,0.6-0.8,0.4C276.1,222.7,276.3,222,276.5,221.9z"/>
	<path class="st37" d="M276.5,222.5c0.1-0.1,0.2-0.1,0.2,0c0.1,0.1,0.1,0.2,0,0.2c-0.1,0.1-0.2,0.1-0.2,0
		C276.4,222.6,276.4,222.5,276.5,222.5z"/>
	<path class="st34" d="M253.2,236.3l5.3-2.7l5.3-4.5l1.4-0.7l4.2,0.4l2.4,3.2c0,0-0.4,1.2-3.9-0.5c-1-0.5-2.4,3.1-2.4,3.1l-3.5,2.3
		l-0.7,3.3l-5,3.9L253.2,236.3z"/>
	<path class="st35" d="M221,198.7c0,0,1.1,5.5,3.5,5.9c2.4,0.3,5.8,0.6,5.4,0.4c-0.4-0.3-0.3-2-0.3-2s5.6,2.5,7.9,5.4
		c2.3,2.8,3,5.3,4.3,9s4.2,20.9,4.2,20.9l10.1-4.9l5,9.1c0,0-14.5,11.5-17.6,11.8c-3.1,0.3-6.4-2.8-6.4-2.8l-1.5,6.7l0.6,6.6
		l0.7,3.5c0,0-8.3,2.4-13,0.3c-4.7-2-5.6-3.2-10.9-3.6s-6.4,0-10.8,0c-4.6,0-4-2.9-4-2.9l2-2l-1.2-2.4l-0.2-3.2
		c0,0-14.3-0.4-15.3-9.8c-1.1-9.5,7.5-26.8,7.5-26.8s4.1-7.1,7.7-10.8C202.6,203,221,198.7,221,198.7z"/>
	<path class="st33" d="M237,248.5C236.9,248.5,236.9,248.5,237,248.5c-0.3-0.1-0.4-0.3-0.4-0.5c1-5.1,1.2-25.3,1.2-25.5
		s0.2-0.4,0.4-0.4c0.2,0,0.4,0.2,0.4,0.4c0,0.8-0.1,20.4-1.2,25.6C237.4,248.3,237.3,248.5,237,248.5z"/>
	<path class="st34" d="M226.2,254.1l7.6,3.4l5,2l1.8,5.4l-1.9,4.7l-5.8,3.7v-2.1c0,0,3.4-2.2,3.3-3.4c-0.4-4.3-4.5-2.7-4.5-2.7
		s-1,1.7-3,0.7c-1.1-0.5-3.3-3.9-3.3-3.9l-4.2-2L226.2,254.1z"/>
	<path class="st46" d="M256,305.7l56-7.3l4.5,34.4l-56,7.3L256,305.7z"/>
	<path class="st47" d="M289.4,301l23.4-3l4.5,34.4l-23.4,3L289.4,301z"/>
	<path class="st48" d="M297.8,300l1.6,9.2l1.8-1.7l1.9,1.7l1.6-1.8l2,1l-1.4-9.4L297.8,300z"/>
	<path class="st1" d="M268.1,300.1c-0.1,0-0.2-0.1-0.2-0.2c0-0.5,0.3-12.4,5.9-13c1-0.1,2,0.2,2.8,0.8c3.3,2.8,3.5,11.4,3.5,11.8
		c0,0.1-0.1,0.2-0.2,0.2s-0.2-0.1-0.2-0.2c0-0.1-0.3-8.7-3.4-11.5c-0.7-0.6-1.6-0.8-2.5-0.7c-5.2,0.6-5.5,12.5-5.5,12.6
		S268.2,300.1,268.1,300.1z"/>
	<path class="st35" d="M264,295.1l-0.6,45l30.8-4l-1-40.8L264,295.1z"/>
	<path class="st35" d="M258.4,295.1h3l-0.8,40.1l-3.5,1.1L258.4,295.1z"/>
	<path class="st41" d="M261.3,295.2h2.8l-0.7,44.6l-3-4.7L261.3,295.2z"/>
	<path class="st49" d="M257,336.4l3.6-1.4l2.8,4.8L257,336.4z"/>
	<path class="st1" d="M273,299.2c-0.1,0-0.2-0.1-0.2-0.2c0-0.5,0.3-12.4,5.9-13c1-0.1,2,0.2,2.8,0.8c3.3,2.8,3.5,11.4,3.5,11.8
		c0,0.1-0.1,0.2-0.2,0.2s-0.2-0.1-0.2-0.2s-0.3-8.7-3.4-11.5c-0.7-0.6-1.6-0.8-2.5-0.7c-5.2,0.6-5.5,12.5-5.5,12.6
		C273.2,299.1,273.1,299.2,273,299.2z"/>
	<path class="st1" d="M289.8,314.5c-0.1,0-0.2-0.1-0.2-0.2c0-0.3,0.2-7.1,3.4-7.5c0.6-0.1,1.1,0.1,1.7,0.5c1.9,1.7,2.1,6.6,2.1,6.8
		c0,0.1-0.1,0.2-0.2,0.2s-0.2-0.1-0.2-0.2c0,0-0.2-4.9-1.9-6.5c-0.4-0.3-0.8-0.5-1.4-0.4c-2.9,0.3-3,7-3,7.1
		S290.1,314.5,289.8,314.5z"/>
	<path class="st44" d="M287.7,311.6l-0.4,25.5l17.5-2.3l-0.5-23.2H287.7z"/>
	<path class="st44" d="M284.4,311.6h1.7l-0.5,22.8l-2,0.6L284.4,311.6z"/>
	<path class="st43" d="M286.1,311.6h1.6l-0.4,25.3l-1.7-2.7L286.1,311.6z"/>
	<path class="st50" d="M283.7,335.1l2.1-0.7l1.6,2.7L283.7,335.1z"/>
	<path class="st1" d="M292.7,314c-0.1,0-0.2-0.1-0.2-0.2c0-0.3,0.2-7.1,3.4-7.5c0.6-0.1,1.1,0.1,1.7,0.5c1.9,1.7,2.1,6.6,2.1,6.8
		c0,0.1-0.1,0.2-0.2,0.2s-0.2-0.1-0.2-0.2c0,0-0.2-4.9-1.9-6.5c-0.4-0.3-0.8-0.5-1.4-0.4c-2.9,0.3-3,7-3,7.1
		C292.9,313.9,292.8,314,292.7,314z"/>
	<path class="st28" d="M284.1,278.6h33.7v19.9h-33.7V278.6z"/>
	<path class="st46" d="M284.1,278.6h9.9v19.9h-9.9V278.6z"/>
	<path class="st51" d="M251.6,364.5c-0.1,0.2,0,0.5,0.1,0.7c0.1,0.2,0.4,0.3,0.6,0.3h18c-1.2,1.1-2.1,2.8-2.1,4.8
		c0,3.4,2.6,6.4,5.8,6.4c3.2,0,5.8-2.8,5.8-6.4c0-1.9-0.8-3.6-2.1-4.8h29.3c-1.2,1.1-2.1,2.8-2.1,4.8c0,3.4,2.6,6.4,5.8,6.4
		c3.2,0,5.8-2.8,5.8-6.4c0-1.9-0.8-3.6-2.1-4.8h6.5c0.4,0,0.7-0.3,0.7-0.7s-0.3-0.7-0.7-0.7h-67.7l3-9.8c0.8-2.8,3-4.8,5.6-5.2
		l40.8-6.6c0.4-0.1,0.7-0.4,0.6-0.8s-0.5-0.7-0.8-0.6l-40.8,6.6c-3.2,0.5-5.8,2.9-6.9,6.2L251.6,364.5z M310.9,365.6
		c2.4,0,4.3,2.2,4.3,4.8c0,2.6-1.9,4.8-4.3,4.8s-4.3-2.2-4.3-4.8C306.6,367.7,308.5,365.6,310.9,365.6z M274.1,365.6
		c2.4,0,4.3,2.2,4.3,4.8c0,2.6-1.9,4.8-4.3,4.8c-2.4,0-4.3-2.2-4.3-4.8C269.9,367.7,271.7,365.6,274.1,365.6z"/>
	<path class="st51" d="M230.2,267.7c0,2,1.5,3.6,3.3,3.6c1.6,0,2.9-1.2,3.2-2.8h1.5c2.3,0,4.4,1.9,4.8,4.4l10.7,65.6
		c0.3,1.7,1.1,3.1,2.5,4.1c0.9,0.6,2.1,1,3.1,1c0.3,0,0.6,0,0.8-0.1l69.9-11.5c2.2-0.3,3.9-2.2,4.2-4.5l1.2-7.9
		c0.3-0.1,0.4-0.4,0.4-0.8c0-0.1-0.1-0.3-0.2-0.4l4.5-29.5c0.2-1.7-0.2-3.3-1.2-4.5c-0.9-1.1-2.2-1.7-3.6-1.7h-89l-1.7-10.1
		c-0.5-3.3-3.1-5.7-6.2-5.7h-1.5c-0.3-1.6-1.7-2.8-3.2-2.8C231.7,264.1,230.2,265.7,230.2,267.7z M249.3,301.7l6.8-0.4l1.9,13.2
		l-6.5,0.6L249.3,301.7z M251.7,316.6l6.5-0.6l2,13.9l-6.1,0.9L251.7,316.6z M334.1,318.3l-5.2,0.8l0.8-10l5.8-0.5L334.1,318.3z
		 M294.4,299.1l11.4-0.6v11.4l-11.1,1L294.4,299.1z M293.1,311.1l-10.3,1l-0.7-12.3l10.8-0.6L293.1,311.1z M307.2,298.4l10.5-0.6
		l-0.5,10.9l-10,0.9V298.4z M317.2,310.3l-0.5,10.7l-9.4,1.5v-11.2L317.2,310.3z M305.7,322.8l-10.9,1.7l-0.2-12l11-1v11.4H305.7z
		 M293.3,324.7l-9.6,1.5l-0.7-12.6l10.2-1L293.3,324.7z M282.1,326.4l-10.2,1.6l-1.5-13.2l10.8-1L282.1,326.4z M270.4,313.3
		l-1.4-12.7l11.6-0.6l0.7,12.3L270.4,313.3z M268.8,299l-1.6-14.8h12.3l0.8,14.1L268.8,299z M281.1,284.3h11.6l0.2,13.3l-10.9,0.6
		L281.1,284.3z M294.1,284.3h11.6v12.6l-11.4,0.6L294.1,284.3z M307.2,284.3h11.2l-0.6,12l-10.6,0.6V284.3z M320.1,284.3h10.2
		l-0.9,11.2l-9.9,0.5L320.1,284.3z M329.2,297.1l-0.8,10.5l-9.5,0.9l0.5-10.9L329.2,297.1z M330.8,297l6.7-0.4l-1.6,10.3l-5.9,0.6
		L330.8,297z M327.3,319.3l-9.2,1.5l0.5-10.6l9.5-0.9L327.3,319.3z M327.2,321l-0.8,10.1l-8.7,1.5l0.5-10.2L327.2,321z M316.1,332.8
		l-8.9,1.5V324l9.4-1.5L316.1,332.8z M305.7,334.5l-10.7,1.8l-0.2-10.2l10.8-1.7v10.1H305.7z M293.5,336.5l-9.1,1.5l-0.6-10.3
		l9.6-1.5L293.5,336.5z M282.9,338.3l-9.6,1.6l-1.1-10.3l10.1-1.6L282.9,338.3z M271.7,340l-8.3,1.4l-1.5-10.3l8.7-1.4L271.7,340z
		 M261.7,329.6l-2-13.7l9.3-0.9l1.5,13.2L261.7,329.6z M257.7,301.2l9.8-0.5l1.4,12.8l-9.4,0.9L257.7,301.2z M257.4,299.7l-2.2-15.4
		h10.5l1.7,14.9L257.4,299.7z M338.7,288.7l-0.9,6.4l-6.8,0.4l0.9-11.2h3.5c0.9,0,1.8,0.4,2.5,1.1
		C338.5,286.3,338.8,287.6,338.7,288.7z M329.8,330.6l-1.9,0.3l0.8-10.1l5.1-0.8l-1.1,7.4C332.6,329,331.3,330.3,329.8,330.6z
		 M255.3,338.3l-0.9-5.9l6-0.9l1.5,10.3L260,342c-0.9,0.2-2-0.1-2.8-0.7C256.2,340.7,255.5,339.5,255.3,338.3z M246.5,284.3h7.2
		l2.2,15.5l-6.8,0.4L246.5,284.3z M231.7,267.7c0-1.1,0.8-2.1,1.8-2.1c1,0,1.8,0.9,1.8,2.1c0,1.1-0.8,2.1-1.8,2.1
		C232.6,269.7,231.7,268.8,231.7,267.7z"/>
	<path class="st33" d="M219.7,262.2h-0.1l-20.8-6.2c-0.2-0.1-0.3-0.3-0.3-0.5c0.1-0.2,0.3-0.3,0.5-0.3l20.5,6.2l7.5-9.5l-20.4-10.8
		l-9.8,2.4c-0.2,0-0.4-0.1-0.5-0.2c-0.1-0.2,0-0.4,0.2-0.5l7.7-4.5l5-18.7c0.1-0.2,0.3-0.3,0.5-0.3c0.2,0.1,0.3,0.3,0.3,0.5l-5.1,19
		c0,0.1-0.1,0.2-0.2,0.2l-5.5,3.1l7.3-1.8c0.1,0,0.2,0,0.3,0l21,11.1c0.1,0.1,0.2,0.2,0.2,0.3s0,0.2-0.1,0.3l-8,10.1
		C219.9,262.1,219.8,262.2,219.7,262.2z"/>
	<path class="st33" d="M229.5,201.9c-0.1,0-0.1,0-0.2-0.1c-3-1.9-4.3-5.8-4.4-6c-0.1-0.2,0.1-0.4,0.3-0.5c0.2-0.1,0.4,0.1,0.5,0.3
		c0,0,1.2,3.9,4,5.5c0.2,0.1,0.2,0.4,0.1,0.5C229.9,201.8,229.8,201.9,229.5,201.9z"/>
	<path class="st34" d="M223.5,192.7c0,0,0,4.1-2.5,6c-2.5,2.1,2.6,7.2,5.1,7.4c3.6,0.4,5.2-1.5,5.2-1.5l0.4-2.3L223.5,192.7z"/>
	<path class="st34" d="M226.6,191.5c0,0-0.8-4.6,3.4-6c4.2-1.5,8.6-2.4,8.6-2.4s2.1,4,2,5.8c-0.1,1.9-2.7,15.2-7.5,14.6
		c-4.8-0.6-9.5-7.3-9.5-7.3s-2.4-5.5-0.6-6.5C224.8,188.7,226.6,191.5,226.6,191.5z"/>
	<path class="st52" d="M226.7,191.7c1.6-0.9,0.5-4.8,2.9-5.6c2.4-0.8,7.3-2,9.5-0.9c1.1,0.5,1.8,2.8,1.8,2.8s1.6-0.2,1.7-3
		c0-2.8-1.6-5.9-2.7-6.5c-4.9-2.3-9.3,0.5-9.3,0.5s-2.3-3.2-5-1.6c-2.8,1.7-3.7,6-3.7,6s-1.7-1.6-2.3,1c-0.6,2.5-0.4,4.2-0.4,4.2
		s-1.5-1.6-1.6,0.9c0,2.5,0.7,4.4,1.7,5c0.9,0.6,4,2.7,4,2.7l0.2-2.3c0,0-1-3.9,0.1-5C224.4,188.6,225.3,192.7,226.7,191.7z"/>
	<path class="st52" d="M227.6,190.6c0,0,0.9,4.7,1.2,5.2c0.4,0.5,4.8,0.4,6.8,0.6c2.4,0.2,3.1,1.8,3.1,1.8s0.1,3.5-0.3,4.9
		c-0.5,1.8-2.3,3.9-6.2,2.1c-2.8-1.2-5.1-3.2-6.4-4.8c-0.6-0.7-0.9-1.6-1-2.5l-0.2-2.4l1-4.7L227.6,190.6z"/>
	<path class="st10" d="M126.8,94.9h43.7c0.9,0,1.8,1.2,1.8,2.7v33.7c0,1.5-0.8,2.7-1.8,2.7h-43.7c-0.9,0-1.8-1.2-1.8-2.7V97.7
		C125,96.1,125.8,94.9,126.8,94.9z"/>
	<path class="st25" d="M170.5,134.6h-43.7c-1.2,0-2.2-1.4-2.2-3.1V97.7c0-1.8,0.9-3.1,2.2-3.1h43.7c1.2,0,2.2,1.4,2.2,3.1v33.7
		C172.8,133.1,171.7,134.6,170.5,134.6z M126.8,95.3c-0.7,0-1.4,1-1.4,2.3v33.7c0,1.2,0.6,2.3,1.4,2.3h43.7c0.7,0,1.4-1,1.4-2.3
		V97.7c0-1.2-0.6-2.3-1.4-2.3h-43.7V95.3z"/>
	<path class="st25" d="M219.4,100.6l-0.5-0.4c0,0-0.8-0.7-2.1-2l-0.5-0.5l0.9-0.9l0.5,0.5c1.1,1.1,1.9,1.9,1.9,1.9l0.5,0.4
		L219.4,100.6z M213.8,94.6l-0.4-0.5c-0.5-0.7-1-1.5-1.6-2.3l-0.4-0.6l1.1-0.7L213,91c0.5,0.8,1,1.6,1.5,2.2l0.4,0.5L213.8,94.6z
		 M209.4,87.5l-0.3-0.6c-0.4-0.8-0.7-1.7-1-2.6l-0.2-0.6l1.2-0.5l0.2,0.6c0.3,0.8,0.6,1.7,1,2.5l0.3,0.6L209.4,87.5z M206.7,79.7
		l-0.1-0.6c-0.2-0.9-0.3-1.8-0.5-2.7l-0.1-0.6l1.4-0.2l0.1,0.6c0.1,0.9,0.3,1.8,0.4,2.6l0.1,0.6L206.7,79.7z M207.2,71.4h-1.4v-0.7
		c0-0.9,0.1-1.9,0.2-2.8l0.1-0.6l1.4,0.1l-0.1,0.6c-0.1,0.9-0.1,1.8-0.2,2.7V71.4z M208.1,63.5l-1.4-0.3l0.2-0.6
		c0.2-0.8,0.5-1.8,0.7-2.7l0.2-0.6l1.2,0.4l-0.2,0.6c-0.3,0.8-0.5,1.8-0.7,2.6L208.1,63.5z M210.6,55.9l-1.2-0.5l0.3-0.6
		c0.4-0.8,0.8-1.7,1.2-2.5l0.3-0.6l1.2,0.6l-0.3,0.6c-0.4,0.7-0.8,1.6-1.1,2.4L210.6,55.9z M214.4,48.8l-1.1-0.8l0.4-0.5
		c0.5-0.7,1.1-1.5,1.7-2.2l0.4-0.5l1,0.8l-0.4,0.5c-0.5,0.6-1.1,1.4-1.7,2.1L214.4,48.8z M219.8,42.8l-0.9-1l0.5-0.4
		c0.7-0.6,1.5-1.2,2.2-1.8l0.5-0.4l0.8,1l-0.5,0.4c-0.7,0.5-1.4,1-2.1,1.7L219.8,42.8z M226.2,38.1l-0.6-1.2l0.6-0.3
		c0.8-0.4,1.7-0.8,2.5-1.2l0.6-0.3l0.5,1.2l-0.6,0.3c-0.7,0.3-1.6,0.7-2.4,1.1L226.2,38.1z M233.5,35.1l-0.3-1.4l0.6-0.2
		c1.5-0.4,2.5-0.5,2.8-0.5l0.6-0.1l0.1,1.4l-0.6,0.1c-0.2,0-1.1,0.1-2.6,0.5L233.5,35.1z"/>
	<path class="st25" d="M158.8,124.6h-20.3c-1,0-1.9-0.8-1.9-1.9V109c0-1,0.8-1.9,1.9-1.9h20.3c1,0,1.9,0.8,1.9,1.9v13.6
		C160.7,123.8,159.9,124.6,158.8,124.6z M137.5,109.5v13c0,0.7,0.6,1.4,1.4,1.4h19.7c0.7,0,1.4-0.6,1.4-1.4v-13
		c0-0.7-0.6-1.4-1.4-1.4h-19.7C138.1,108.1,137.5,108.7,137.5,109.5z"/>
	<path class="st25" d="M137.2,111.4c-0.2,0-0.4-0.2-0.4-0.4s0.2-0.4,0.4-0.4l22.7-0.1c0.2,0,0.4,0.2,0.4,0.4s-0.2,0.4-0.4,0.4
		L137.2,111.4z"/>
	<path class="st25" d="M137.3,121.3c-0.2,0-0.4-0.2-0.4-0.4s0.2-0.4,0.4-0.4l22.7-0.1c0.2,0,0.4,0.2,0.4,0.4s-0.2,0.4-0.4,0.4
		L137.3,121.3z"/>
	<path class="st25" d="M141.9,108.2c-0.2,0-0.4-0.2-0.4-0.4l0.2-4.2c0-0.1,0.1-0.2,0.2-0.3c0.1-0.1,0.2-0.1,0.3-0.1l16,3.9
		c0.2,0.1,0.4,0.3,0.3,0.5c-0.1,0.2-0.3,0.4-0.5,0.3l-15.5-3.6l-0.2,3.6C142.3,108.1,142.1,108.2,141.9,108.2z"/>
	<path class="st25" d="M157.9,107.5c-0.1,0-0.1,0-0.2,0l-11.6-5.6l-0.1,2.4c0,0.2-0.2,0.4-0.4,0.4c-0.2,0-0.4-0.2-0.4-0.4l0.1-3
		c0-0.1,0.1-0.3,0.2-0.3c0.1-0.1,0.3-0.1,0.4,0l12.1,5.8c0.2,0.1,0.3,0.3,0.2,0.5C158.2,107.5,158.1,107.5,157.9,107.5z"/>
	<path class="st10" d="M165.2,181.1h19.4c0.4,0,0.8,0.6,0.8,1.5v18.2c0,0.8-0.3,1.5-0.8,1.5h-19.4c-0.4,0-0.8-0.6-0.8-1.5v-18.2
		C164.5,181.8,164.8,181.1,165.2,181.1z"/>
	<path class="st25" d="M184.7,202.6h-19.4c-0.6,0-1.1-0.7-1.1-1.8v-18.2c0-1,0.5-1.8,1.1-1.8h19.4c0.6,0,1.1,0.7,1.1,1.8v18.2
		C185.7,201.8,185.3,202.6,184.7,202.6z M165.2,181.4c-0.2,0-0.5,0.4-0.5,1.1v18.2c0,0.7,0.3,1.1,0.5,1.1h19.4
		c0.2,0,0.5-0.4,0.5-1.1v-18.2c0-0.7-0.3-1.1-0.5-1.1H165.2z"/>
	<path class="st53" d="M175,184l2.3,4.7l5.2,0.8l-3.7,3.6l0.8,5.1l-4.6-2.4l-4.7,2.4l0.9-5.1l-3.7-3.6l5.1-0.8L175,184z"/>
	<path class="st10" d="M144.5,306.2h38.6c0.8,0,1.6,1.4,1.6,2.9v36.5c0,1.7-0.7,2.9-1.6,2.9h-38.6c-0.8,0-1.6-1.4-1.6-2.9v-36.5
		C142.8,307.6,143.5,306.2,144.5,306.2z"/>
	<path class="st25" d="M183,348.9h-38.6c-1,0-1.9-1.5-1.9-3.2v-36.5c0-1.9,0.8-3.2,1.9-3.2H183c1,0,1.9,1.5,1.9,3.2v36.5
		C184.9,347.5,184,348.9,183,348.9z M144.5,306.5c-0.6,0-1.2,1-1.2,2.6v36.5c0,1.6,0.6,2.6,1.2,2.6h38.6c0.6,0,1.2-1,1.2-2.6v-36.5
		c0-1.6-0.6-2.6-1.2-2.6H144.5z"/>
	<path class="st28" d="M173.9,341h-21.1c-1.2,0-2.3-1-2.3-2.3v-21.1c0-1.2,1-2.3,2.3-2.3h21.1c1.2,0,2.3,1,2.3,2.3v21.1
		C176.2,339.9,175.2,341,173.9,341z"/>
	<path class="st26" d="M158,324c0-0.1-0.3-2.8,1.4-4.7c0.9-1,2.2-1.7,3.9-1.7c1.6-0.1,2.8,0.3,3.7,1.2c1.8,1.8,1.7,4.6,1.7,4.7h-1.2
		c0,0,0.1-2.4-1.4-3.7c-0.7-0.6-1.7-0.9-2.8-0.9c-1.2,0.1-2.3,0.5-2.9,1.2c-1.2,1.5-1,3.7-1,3.7L158,324z"/>
	<path class="st26" d="M155.4,337.1c-1,0-1.9-0.8-1.9-1.9l1.6-9.9c0-0.9,0.8-1.8,1.9-1.8h13.4c1,0,1.9,0.8,1.9,1.9l1.5,9.5
		c0,1.1-0.8,2-1.9,2L155.4,337.1z M157,324.8c-0.3,0-0.6,0.3-0.6,0.6l-1.6,9.9c0,0.2,0.3,0.5,0.6,0.5l16.6-0.2
		c0.3,0,0.6-0.3,0.6-0.6l-1.5-9.5c0-0.4-0.3-0.7-0.6-0.7H157z"/>
	<path class="st26" d="M161.7,335.1l-2.4-5.5l1.1-0.5l1.6,3.7l5.5-6.7l0.9,0.7L161.7,335.1z"/>
	<path class="st10" d="M473.4,84.2c0-11.2,9.2-20.4,20.4-20.4s20.4,9.2,20.4,20.4c0,11.2-9.2,20.4-20.4,20.4
		C482.5,104.5,473.4,95.4,473.4,84.2z"/>
	<path class="st25" d="M493.8,104.9c-11.5,0-20.8-9.4-20.8-20.8c0-11.5,9.4-20.8,20.8-20.8c11.5,0,20.8,9.4,20.8,20.8
		C514.6,95.6,505.3,104.9,493.8,104.9z M493.8,64.2c-11,0-20,9-20,19.9c0,11,9,19.9,20,19.9s20-9,20-19.9
		C513.8,73.1,504.8,64.2,493.8,64.2z"/>
	<path class="st25" d="M493.9,95.8c-0.1,0-0.3-0.1-0.3-0.2c-0.3-0.4-7.4-10.1-7.4-14.4c0-4.4,3.4-8,7.6-8c4.2,0,7.6,3.5,7.6,8
		c0,4.3-6.9,14-7.2,14.4C494.1,95.8,494,95.8,493.9,95.8z M493.8,74.2c-3.7,0-6.8,3.2-6.8,7.1c0,3.4,5.4,11.4,6.9,13.4
		c1.5-2.1,6.7-9.9,6.7-13.4C500.5,77.4,497.5,74.2,493.8,74.2z"/>
	<path class="st25" d="M493.9,85.3c-2.6,0-4.6-2-4.6-4.5c0-2.5,2.1-4.5,4.6-4.5c2.6,0,4.6,2,4.6,4.5
		C498.5,83.3,496.4,85.3,493.9,85.3z M493.9,77.2c-2.1,0-3.7,1.7-3.7,3.6c0,2,1.7,3.6,3.7,3.6c2.1,0,3.7-1.7,3.7-3.6
		C497.6,78.8,495.9,77.2,493.9,77.2z"/>
	<path class="st34" d="M496.6,360.9l10.6,3.9l5.1-5.3l-6.5-4.3L496.6,360.9z"/>
	<path class="st54" d="M504.8,364.5c0,0,2.4,2.1,4.8,3.7c2.4,1.7,3.4,2.2,5.8,0.8c2.4-1.4,2.7-4.7,3.7-6.1c1-1.4,5.4-7,5.4-7
		s0.8-3.9-0.1-4.4c-1.6-0.9-4.2,2.3-6.1,4s-8.3,2.5-8.3,2.5L504.8,364.5z"/>
	<path class="st22" d="M395.1,365.1c3.9,8.3,14.2,8.2,19.6,6.9c5.4-1.4,38.1-14.8,38.1-14.8s13.1,2.5,19.6,3.2
		c6.5,0.7,2.5,2.4,4.7,4.5c2.2,2.1,4-0.4,6.4,0.5c2.3,0.9,1.5,2.7,3.4,3.4c1.9,0.7,6.9-0.9,6.9-0.9l15.5-14.4c0,0-36.2-17.5-41.1-18
		c-7-0.8-62.7,17.4-62.7,17.4S390.9,356,395.1,365.1z"/>
	<path class="st17" d="M390.2,370.7c1.7,7.8,15.6,6.4,21,5c5.4-1.4,38.1-14.8,38.1-14.8s13.1,2.5,19.6,3.2c6.5,0.7,2.5,2.4,4.7,4.5
		c2.2,2.1,4-0.4,6.4,0.5c2.3,0.9,1.5,2.7,3.4,3.4c2,0.7,6.9-0.9,6.9-0.9l12.2-8.5c0,0-42.5-20.4-50.1-21s-52.8,12.5-52.8,12.5
		S388.5,362.9,390.2,370.7z"/>
	<path class="st38" d="M383.7,356.3c-0.8-0.5-1.6,6.6,0.3,10.6c1.8,4.1,6.8,5.8,6.8,5.8s-0.5-3.9,1.2-7.4c1.8-3.4,4-8,4-8
		S384.4,356.8,383.7,356.3z"/>
	<path class="st34" d="M491.3,371l8.1,2.8l5.6-5.4l-5.2-3.4L491.3,371z"/>
	<path class="st38" d="M498.9,374.4c0,0,2.4,2.1,4.8,3.7c2.4,1.7,3.4,2.2,5.7,0.8c2.3-1.4,2.7-4.7,3.7-6c1-1.4,5.4-7,5.4-7
		s0.8-3.9-0.1-4.4c-1.6-0.9-4.2,2.3-6.1,4c-2,1.7-8.2,2.5-8.2,2.5L498.9,374.4z"/>
	<path class="st55" d="M428.7,346l34.8-10l6.2-22.4c0.2-0.8-0.5-1.7-1.4-1.5l-11.6,2.7c-0.8,0.2-1.5,0.7-1.7,1.6l-6.6,21.6
		l-18.4,5.7L428.7,346z"/>
	<path class="st33" d="M501.7,363.7h-0.1c-0.4-0.2-39.4-19.3-43.6-21.1c-4.1-1.9-6.2-1.4-6.2-1.4c-0.2,0-0.3-0.1-0.4-0.2
		c0-0.2,0-0.3,0.2-0.4c0.1,0,2.4-0.6,6.7,1.4c4.3,2,43.2,21,43.6,21.1c0.1,0.1,0.2,0.2,0.1,0.4C502,363.6,501.9,363.7,501.7,363.7z"
		/>
	<path class="st33" d="M439.2,362.9c-0.1,0-0.2-0.1-0.3-0.2c0-0.2,0-0.3,0.2-0.4c0,0,4.8-1.5,6.8-2.5c1-0.5,2-2,2.7-3.2
		c0.7-1.1,1.2-1.9,1.8-2.1c0.3-0.1,0.4,0,0.5,0.1c0.3,0.3,0.1,1-0.2,2.4c-0.1,0.5-0.4,1.4-0.4,1.8c0.1-0.1,0.3-0.4,0.5-0.6
		c0.5-0.6,0.9-1.2,1.5-1.1c0.8,0.2,0.8,2.1,0.8,2.9c0.3,0.1,1,0.2,2.3,0.5c3.9,0.7,5.9,0.6,5.9,0.6c0.2,0,0.3,0.1,0.3,0.3
		c0,0.2-0.1,0.3-0.3,0.3c-0.1,0-2.1,0.1-6-0.6c-3-0.5-3-0.7-3-1c0-0.1,0.1-0.2,0.3-0.3c0-1-0.2-2-0.4-2c-0.2,0-0.6,0.6-0.8,0.9
		c-0.4,0.5-0.7,0.9-1,0.9c-0.1,0-0.3,0-0.4-0.2c-0.2-0.4-0.1-1.1,0.3-2.4c0.1-0.5,0.4-1.4,0.4-1.7c-0.3,0.2-0.8,1-1.2,1.8
		c-0.7,1.2-1.8,2.8-2.9,3.4C444.2,361.4,439.5,362.9,439.2,362.9C439.3,362.9,439.3,362.9,439.2,362.9z"/>
	
		<linearGradient id="SVGID_00000067944670302825484170000014221977578039223193_" gradientUnits="userSpaceOnUse" x1="459.9157" y1="88.5001" x2="461.5926" y2="88.0595" gradientTransform="matrix(1 0 0 -1 0 414.3197)">
		<stop  offset="0" style="stop-color:#FFFFFF"/>
		<stop  offset="1" style="stop-color:#D9DDED"/>
	</linearGradient>
	<path style="opacity:0.42;fill:url(#SVGID_00000067944670302825484170000014221977578039223193_);enable-background:new    ;" d="
		M461.6,326.3c-0.2,0.7-0.7,1.2-1.1,1c-0.4-0.1-0.7-0.8-0.5-1.6c0.2-0.7,0.7-1.2,1.1-1C461.5,324.9,461.8,325.6,461.6,326.3z"/>
	<path class="st34" d="M425.2,339.7l1,6.8c0,0,2.2-0.6,4-2.8c1.2-1.6,17-5,17-5l-4.6-2.6c0,0-6-0.5-8.5,0.1
		c-2.6,0.6-5.2,2.4-5.2,2.4L425.2,339.7z"/>
	<path class="st34" d="M417.4,304.2l-2.9,2.4l-2.7,4.6c0,0,1.8,2.6,4.4,3.7c2.6,1.1,5.4,0.7,5.4,0.7l0.7-5L417.4,304.2z"/>
	<path class="st34" d="M420.1,299.8c0,0-1.6-4.2-3.6-2.4c-2.1,1.9,2.5,14.3,6.7,14.5c4.2,0.2,8.7-6.2,10.2-9.3c1.5-3,3.1-6.4-0.3-9
		C426.2,288.4,420.1,299.8,420.1,299.8z"/>
	<path class="st52" d="M414.5,306.8l2.7-2.2c0,0-2.3-6.9-0.2-7.4c2.1-0.5,2.3,1.9,3.2,3.1c1.2,1.8,0.8-4.9,5.5-6
		c5-1.2,6.6,2.8,7.6,4.1c1.4,1.6,4.3,2.6,6.7,1.1c2.4-1.4,3.1-5.4,0.7-9.7c-2.3-4.2-4-1.9-5.4-2.7c-1.5-0.9,1.6-3.7-3.4-4.8
		c-4.8-1-6.4,4.3-8.7,4.6c-2.4,0.2-2.8-0.9-4.2-0.6c-3,0.7-4.8,0.5-6.1,6.6C411.5,299,414.5,306.8,414.5,306.8z"/>
	<path class="st38" d="M413.1,308.9c0,0-9,1.8-14.1,4.5c-8.2,4.4-22.9,33.7-20.3,39.7c6.8,15.9,47.9-6,47.9-6l-1.1-7.6l3.7-0.8
		l4.8-2.5c0,0-2.4-13.4-4.8-16.2c-2.4-2.8-5.6-5.7-7.2-6.8c-0.2-0.3,0.4,2.3-1.6,2.2c-2-0.1-4.8-0.4-6.5-2.2
		C411.7,310.6,413.1,308.9,413.1,308.9z"/>
	<path class="st33" d="M393.4,349.8c-0.1,0-0.1,0-0.2-0.1s-0.1-0.2-0.1-0.4l1.4-2.8l-1.9,0.3c-0.1,0-0.3,0-0.3-0.2
		c-0.1-0.1,0-0.3,0.1-0.3l2.9-2.6c0,0,3.9-5.1,7-10.4c2.7-4.6,5.5-9.2,5.5-9.3c0.1-0.1,0.3-0.2,0.4-0.1c0.1,0.1,0.2,0.3,0.1,0.4
		c0,0-2.8,4.7-5.5,9.3c-3.1,5.3-7.1,10.5-7.1,10.5l-2.2,2l1.5-0.2c0.1,0,0.2,0,0.3,0.1s0.1,0.2,0,0.3l-0.9,2l2.8-2.5l0.1-0.1
		l27.8-6.9c0.1,0,0.2,0,0.2,0c0.1,0,0.1,0.1,0.1,0.2l0.9,7.2c0,0.2-0.1,0.3-0.3,0.3c-0.2,0-0.3-0.1-0.3-0.3l-0.8-6.9l-27.4,6.8
		l-4,3.4C393.6,349.8,393.5,349.8,393.4,349.8z"/>
	<path class="st52" d="M422.1,312.1c-0.1,0-0.1,0-0.2,0c-3-1.4-4.4-5.5-4.4-5.7c-0.1-0.2,0.1-0.5,0.3-0.5c0.2-0.1,0.5,0.1,0.5,0.3
		c0,0,1.2,4,4,5.2c0.2,0.1,0.3,0.3,0.2,0.6C422.4,312,422.2,312.1,422.1,312.1z"/>
	<path class="st25" d="M447.4,272.2l-0.1-0.4c0,0-0.2-0.6-0.5-1.7l-0.1-0.4l0.8-0.2l0.1,0.4c0.3,1,0.5,1.7,0.5,1.7l0.1,0.4
		L447.4,272.2z M446.1,267.1l-0.1-0.4c-0.1-0.5-0.1-1.1-0.2-1.8v-0.4l0.8-0.1v0.4c0.1,0.6,0.1,1.1,0.2,1.7l0.1,0.4L446.1,267.1z
		 M446.5,261.8h-0.8v-0.6c0-0.5,0-1,0-1.6v-0.4h0.8v0.4c0,0.5,0,1,0,1.6V261.8z M446.7,256.6l-0.8-0.1l0.1-0.4
		c0.1-0.5,0.2-1.1,0.3-1.8l0.1-0.4l0.8,0.2l-0.1,0.4c-0.1,0.6-0.2,1.1-0.3,1.7L446.7,256.6z M447.7,251.6l-0.8-0.2
		c0,0,0.2-0.9,0.3-1.1c0.1-0.3,0.2-0.6,0.3-0.9l0.1-0.4l0.8,0.3l-0.1,0.4c-0.1,0.3-0.2,0.6-0.3,0.9
		C447.9,250.7,447.7,251.6,447.7,251.6z M449.5,246.7l-0.7-0.4l0.2-0.4c0.3-0.5,0.5-1,0.8-1.6l0.2-0.4l0.7,0.4l-0.2,0.4
		c-0.3,0.5-0.6,0.9-0.8,1.5L449.5,246.7z M452.2,242.4l-0.7-0.5l0.3-0.3c0.4-0.5,0.7-0.9,1.1-1.4l0.3-0.3l0.6,0.6l-0.3,0.3
		c-0.4,0.4-0.7,0.8-1.1,1.4L452.2,242.4z M455.8,238.6l-0.6-0.6l0.3-0.3c0.4-0.4,0.9-0.8,1.4-1.1l0.3-0.3l0.5,0.6l-0.3,0.3
		c-0.4,0.3-0.8,0.7-1.4,1.1L455.8,238.6z M459.8,235.4l-0.5-0.7l0.3-0.2c0.5-0.4,1-0.7,1.5-0.9l0.4-0.2l0.4,0.7l-0.4,0.2
		c-0.4,0.2-0.9,0.5-1.5,0.9L459.8,235.4z"/>
	<path class="st25" d="M98.3,157.1l-0.2-0.3c0,0-0.4-0.5-0.9-1.6l-0.2-0.4l0.7-0.4l0.2,0.4c0.5,0.9,0.9,1.5,0.9,1.5l0.2,0.3
		L98.3,157.1z M95.8,152.4l-0.1-0.4c-0.2-0.5-0.4-1-0.5-1.7l-0.1-0.4l0.8-0.2l0.1,0.4c0.2,0.6,0.3,1.1,0.5,1.7l0.1,0.4L95.8,152.4z
		 M94.5,147.2l-0.1-0.4c-0.1-0.6-0.1-1.1-0.1-1.8v-0.4h0.8v0.4c0,0.5,0.1,1.1,0.1,1.7l0.1,0.4L94.5,147.2z M95.2,142l-0.8-0.1
		l0.1-0.4c0.1-0.6,0.2-1.1,0.3-1.8l0.1-0.4l0.8,0.2l-0.1,0.4c-0.1,0.5-0.2,1.1-0.3,1.7L95.2,142z M96.7,137.1l-0.8-0.4l0.2-0.4
		c0.2-0.5,0.5-1,0.8-1.6l0.2-0.4l0.7,0.4l-0.2,0.4c-0.3,0.5-0.5,1-0.8,1.5L96.7,137.1z M99.3,132.7l-0.7-0.5l0.3-0.3
		c0.4-0.5,0.7-0.9,1.1-1.4l0.3-0.3l0.6,0.6l-0.3,0.3c-0.4,0.4-0.7,0.8-1.1,1.4L99.3,132.7z M102.8,128.9l-0.5-0.6l0.3-0.3
		c0.4-0.4,0.9-0.7,1.5-1l0.3-0.2l0.5,0.7l-0.3,0.2c-0.4,0.3-0.9,0.6-1.4,1L102.8,128.9z M107.1,126.1l-0.4-0.8l0.4-0.2
		c0.5-0.3,1-0.5,1.7-0.7l0.4-0.2l0.3,0.8l-0.4,0.2c-0.5,0.2-1,0.4-1.6,0.7L107.1,126.1z M123.8,124.6l-0.3-0.1c0,0-0.4-0.1-1-0.3
		l-0.4-0.1l0.2-0.8l0.4,0.1c0.6,0.1,1,0.3,1,0.3l0.2,0.1l0.1,0.4L123.8,124.6z M111.9,124.3l-0.2-0.8l0.4-0.1
		c0.6-0.1,1.1-0.2,1.8-0.3l0.4-0.1l0.1,0.8l-0.4,0.1c-0.5,0.1-1.1,0.2-1.7,0.3L111.9,124.3z M119.6,123.7h-0.4
		c-0.5,0-1.1-0.1-1.7-0.1h-0.4v-0.8h0.4c0.6,0,1.2,0,1.8,0.1h0.4L119.6,123.7z"/>
	
		<linearGradient id="SVGID_00000075156025928827008280000015744295918495900047_" gradientUnits="userSpaceOnUse" x1="169.4853" y1="50.1574" x2="135.823" y2="50.1636" gradientTransform="matrix(1 0 0 -1 0 414.3197)">
		<stop  offset="0" style="stop-color:#FFCF5B"/>
		<stop  offset="1" style="stop-color:#E8B20C"/>
	</linearGradient>
	<path style="fill:url(#SVGID_00000075156025928827008280000015744295918495900047_);" d="M137.5,361.1H180v6.1h-42.5V361.1z"/>
	<path class="st58" d="M139.5,361.4h-1.2v5.6h1.2V361.4z"/>
	<path class="st58" d="M141.7,361.4h-1.2v5.6h1.2V361.4z"/>
	<path class="st58" d="M144.5,361.4h-1.2v5.6h1.2V361.4z"/>
	<path class="st58" d="M146.7,361.4h-1.2v5.6h1.2V361.4z"/>
	<path class="st58" d="M149.4,361.4h-1.2v5.6h1.2V361.4z"/>
	<path class="st58" d="M151.6,361.4h-1.2v5.6h1.2V361.4z"/>
	<path class="st59" d="M154.1,361.4h-1.2v5.6h1.2V361.4z"/>
	<path class="st59" d="M156.4,361.4h-1.2v5.6h1.2V361.4z"/>
	<path class="st59" d="M159,361.4h-1.2v5.6h1.2V361.4z"/>
	<path class="st59" d="M161.3,361.4h-1.2v5.6h1.2V361.4z"/>
	<path class="st59" d="M164.1,361.4h-1.2v5.6h1.2V361.4z"/>
	<path class="st59" d="M166.4,361.4h-1.2v5.6h1.2V361.4z"/>
	<path class="st59" d="M169,361.4h-1.2v5.6h1.2V361.4z"/>
	<path class="st59" d="M171.3,361.4h-1.2v5.6h1.2V361.4z"/>
	<path class="st59" d="M173.6,361.4h-1.2v5.6h1.2V361.4z"/>
	<path class="st59" d="M176.2,361.4H175v5.6h1.2V361.4z"/>
	<path class="st59" d="M178.5,361.4h-1.2v5.6h1.2V361.4z"/>
	
		<linearGradient id="SVGID_00000016775289064383128340000017452410699792837802_" gradientUnits="userSpaceOnUse" x1="160.6409" y1="44.0122" x2="126.9776" y2="44.0194" gradientTransform="matrix(1 0 0 -1 0 414.3197)">
		<stop  offset="0" style="stop-color:#FFCF5B"/>
		<stop  offset="1" style="stop-color:#E8B20C"/>
	</linearGradient>
	<path style="fill:url(#SVGID_00000016775289064383128340000017452410699792837802_);" d="M128.6,367.2h42.5v6.1h-42.5V367.2z"/>
	<path class="st58" d="M130.6,367.6h-1.2v5.6h1.2V367.6z"/>
	<path class="st58" d="M132.9,367.6h-1.2v5.6h1.2V367.6z"/>
	<path class="st58" d="M135.6,367.6h-1.2v5.6h1.2V367.6z"/>
	<path class="st58" d="M137.9,367.6h-1.2v5.6h1.2V367.6z"/>
	<path class="st58" d="M140.5,367.6h-1.2v5.6h1.2V367.6z"/>
	<path class="st58" d="M142.8,367.6h-1.2v5.6h1.2V367.6z"/>
	<path class="st59" d="M145.3,367.6H144v5.6h1.2V367.6z"/>
	<path class="st59" d="M147.6,367.6h-1.2v5.6h1.2V367.6z"/>
	<path class="st59" d="M150.2,367.6h-1.2v5.6h1.2V367.6z"/>
	<path class="st59" d="M152.5,367.6h-1.2v5.6h1.2V367.6z"/>
	<path class="st59" d="M155.3,367.6H154v5.6h1.2V367.6z"/>
	<path class="st59" d="M157.6,367.6h-1.2v5.6h1.2V367.6z"/>
	<path class="st59" d="M160.2,367.6h-1.2v5.6h1.2V367.6z"/>
	<path class="st59" d="M162.5,367.6h-1.2v5.6h1.2V367.6z"/>
	<path class="st59" d="M164.8,367.6h-1.2v5.6h1.2V367.6z"/>
	<path class="st59" d="M167.4,367.6h-1.2v5.6h1.2V367.6z"/>
	<path class="st59" d="M169.7,367.6h-1.2v5.6h1.2V367.6z"/>
	
		<linearGradient id="SVGID_00000099656726689898151060000015810221895808867991_" gradientUnits="userSpaceOnUse" x1="151.8767" y1="56.0935" x2="118.2133" y2="56.1008" gradientTransform="matrix(1 0 0 -1 0 414.3197)">
		<stop  offset="0" style="stop-color:#FFCF5B"/>
		<stop  offset="1" style="stop-color:#E8B20C"/>
	</linearGradient>
	<path style="fill:url(#SVGID_00000099656726689898151060000015810221895808867991_);" d="M119.9,355.2h42.5v6.1h-42.5V355.2z"/>
	<path class="st58" d="M121.9,355.5h-1.2v5.6h1.2V355.5z"/>
	<path class="st58" d="M124.1,355.5h-1.2v5.6h1.2V355.5z"/>
	<path class="st58" d="M126.9,355.5h-1.2v5.6h1.2V355.5z"/>
	<path class="st58" d="M129.1,355.5h-1.2v5.6h1.2V355.5z"/>
	<path class="st58" d="M131.7,355.5h-1.2v5.6h1.2V355.5z"/>
	<path class="st58" d="M134,355.5h-1.2v5.6h1.2V355.5z"/>
	<path class="st59" d="M136.5,355.5h-1.2v5.6h1.2V355.5z"/>
	<path class="st59" d="M138.8,355.5h-1.2v5.6h1.2V355.5z"/>
	<path class="st59" d="M141.4,355.5h-1.2v5.6h1.2V355.5z"/>
	<path class="st59" d="M143.7,355.5h-1.2v5.6h1.2V355.5z"/>
	<path class="st59" d="M146.5,355.5h-1.2v5.6h1.2V355.5z"/>
	<path class="st59" d="M148.8,355.5h-1.2v5.6h1.2V355.5z"/>
	<path class="st59" d="M151.4,355.5h-1.2v5.6h1.2V355.5z"/>
	<path class="st59" d="M153.7,355.5h-1.2v5.6h1.2V355.5z"/>
	<path class="st59" d="M156,355.5h-1.2v5.6h1.2V355.5z"/>
	<path class="st59" d="M158.6,355.5h-1.2v5.6h1.2V355.5z"/>
	<path class="st59" d="M160.9,355.5h-1.2v5.6h1.2V355.5z"/>
	
		<linearGradient id="SVGID_00000168105744311969965450000010234901916007013782_" gradientUnits="userSpaceOnUse" x1="130.8644" y1="59.9491" x2="79.4188" y2="27.3876" gradientTransform="matrix(1 0 0 -1 0 414.3197)">
		<stop  offset="0" style="stop-color:#FFCF5B"/>
		<stop  offset="1" style="stop-color:#E8B20C"/>
	</linearGradient>
	<path style="fill:url(#SVGID_00000168105744311969965450000010234901916007013782_);" d="M103.2,354.8c3.1-9.9,13.6-15.3,23.5-12.1
		c9.9,3.1,15.4,13.6,12.2,23.5c-3.1,9.9-13.6,15.3-23.5,12.1C105.5,375.3,100.1,364.7,103.2,354.8z"/>
	<path class="st59" d="M116.3,375.6C108,373,103.4,364,106,355.7c2.6-8.3,11.6-12.9,19.9-10.2c8.3,2.6,12.9,11.6,10.3,19.9
		C133.6,373.7,124.7,378.2,116.3,375.6z M125.5,346.6c-7.7-2.4-15.9,1.8-18.3,9.5c-2.4,7.6,1.9,15.8,9.5,18.3
		c7.7,2.4,15.9-1.8,18.3-9.5C137.5,357.3,133.2,349.1,125.5,346.6z"/>
	<path class="st59" d="M118.2,369.5c-1.8-0.6-3.2-1.4-3.5-1.6c-0.6-0.3-0.8-1.1-0.4-1.7c0.3-0.6,1.1-0.8,1.7-0.4
		c1.2,0.7,4.9,2.4,7,1.6c0.4-0.2,1-0.5,1.4-1.8c0.4-1.5-0.4-2.1-3-3.4c-2.3-1.1-5.6-2.9-4.2-7c0.4-1.1,1.2-2,2.3-2.4
		c3.2-1.2,8,1.1,8.5,1.5c0.6,0.3,0.8,1,0.5,1.7c-0.3,0.6-1,0.8-1.7,0.5c-1.7-0.8-4.9-2-6.6-1.4c-0.4,0.2-0.7,0.4-0.9,0.9
		c-0.6,1.7,0.1,2.4,2.9,3.9c2.2,1.1,5.3,2.7,4.3,6.4c-0.5,2.1-1.9,3-2.8,3.4C122.2,370.5,120,370.1,118.2,369.5z"/>
	<path class="st59" d="M117.6,372.8c-0.6-0.2-1-0.9-0.8-1.6l1-3c0.2-0.6,0.9-1,1.6-0.8c0.6,0.2,1,0.9,0.8,1.6l-1,3
		C118.9,372.5,118.3,373,117.6,372.8z"/>
	<path class="st59" d="M123.4,355.3c-0.6-0.2-1-0.9-0.8-1.6l1.1-3.4c0.2-0.6,0.9-1,1.6-0.8c0.6,0.2,1,0.9,0.8,1.6l-1.1,3.4
		C124.8,355.2,124,355.5,123.4,355.3z"/>
	<path class="st59" d="M126.1,342.9l-0.7,2.2l1.2,0.4l0.7-2.2L126.1,342.9z"/>
	<path class="st59" d="M131.1,345l-1.3,1.9l1,0.7l1.3-1.9L131.1,345z"/>
	<path class="st59" d="M135.2,348.6l-1.8,1.4l0.7,1l1.8-1.4L135.2,348.6z"/>
	<path class="st59" d="M138.1,353.3l-2.2,0.7l0.4,1.2l2.2-0.7L138.1,353.3z"/>
	<path class="st59" d="M139.2,358.6l-2.3,0l0,1.2l2.3,0L139.2,358.6z"/>
	<path class="st59" d="M136.6,364.9l0.4-1.2l2.1,0.7l-0.3,1.1L136.6,364.9z"/>
	<path class="st59" d="M135.2,367.9l-0.7,1l1.9,1.3l0.7-1L135.2,367.9z"/>
	<path class="st59" d="M132.9,374.7l-1.6-1.7l0.9-0.8l1.6,1.7L132.9,374.7z"/>
	<path class="st59" d="M127.8,375.2l-1.1,0.5l1,2.1l1.1-0.5L127.8,375.2z"/>
	<path class="st59" d="M122.9,376.5l-1.2,0l0,2.3l1.2,0L122.9,376.5z"/>
	<path class="st59" d="M116.7,376.1l-0.7,2.2l1.2,0.4l0.7-2.2L116.7,376.1z"/>
	<path class="st59" d="M111.7,373.6l-1.3,1.9l1,0.7l1.3-1.9L111.7,373.6z"/>
	<path class="st59" d="M108.2,370l-1.8,1.4l0.7,1l1.8-1.4L108.2,370z"/>
	<path class="st59" d="M105.7,365l-2.2,0.7l0.4,1.2l2.2-0.7L105.7,365z"/>
	<path class="st59" d="M105,359.9l-2.3,0l0,1.2l2.3,0L105,359.9z"/>
	<path class="st59" d="M106.9,348.9l-0.7,1l1.9,1.3l0.7-1L106.9,348.9z"/>
	<path class="st59" d="M111.1,345l-1,0.7l1.4,1.8l1-0.7L111.1,345z"/>
	<path class="st59" d="M116.2,342.8l-1.2,0.4l0.7,2.2l1.2-0.4L116.2,342.8z"/>
	<path class="st59" d="M121.9,342.1l-1.2,0l0,2.3l1.2,0L121.9,342.1z"/>
	<path class="st59" d="M103.7,354.3l-0.4,1.2l2.2,0.7l0.4-1.2L103.7,354.3z"/>
	<path class="st10" d="M389.5,146.6c0-8.6,7-15.7,15.7-15.7c8.6,0,15.7,7,15.7,15.7c0,8.7-7,15.7-15.7,15.7
		C396.5,162.3,389.5,155.3,389.5,146.6z"/>
	<path class="st25" d="M405.1,162.8c-8.9,0-16.1-7.2-16.1-16.1c0-8.9,7.2-16.1,16.1-16.1c8.9,0,16.1,7.2,16.1,16.1
		C421.3,155.5,414.1,162.8,405.1,162.8z M405.1,131.3c-8.4,0-15.3,6.9-15.3,15.3s6.9,15.3,15.3,15.3s15.3-6.9,15.3-15.3
		S413.6,131.3,405.1,131.3z"/>
	<path class="st44" d="M404.8,155.4c-1.9,0-3.5-0.3-3.9-0.4c-0.6-0.1-1.1-0.8-0.9-1.5c0.1-0.6,0.8-1.1,1.5-0.9
		c1.4,0.3,5.4,0.7,7.1-0.7c0.3-0.3,0.8-0.8,0.7-2.1c-0.1-1.5-1-1.9-4-2.3c-2.5-0.4-6.2-0.9-6.1-5.3c0-1.2,0.5-2.2,1.5-3
		c2.6-2.2,8-1.5,8.6-1.4c0.7,0.1,1.1,0.7,1,1.5c-0.1,0.7-0.7,1.1-1.5,1c-1.9-0.3-5.3-0.3-6.7,0.8c-0.4,0.3-0.5,0.6-0.5,1.1
		c-0.1,1.8,0.8,2.2,4,2.7c2.5,0.4,5.8,0.9,6,4.7c0.1,2.2-0.8,3.4-1.7,4.2C408.8,155.1,406.7,155.4,404.8,155.4z"/>
	<path class="st44" d="M405.2,158.6c-0.7,0-1.2-0.5-1.2-1.2v-3.2c0-0.7,0.5-1.2,1.2-1.2c0.7,0,1.2,0.5,1.2,1.2v3.2
		C406.5,158,406,158.6,405.2,158.6z"/>
	<path class="st44" d="M405.2,140.3c-0.7,0-1.2-0.5-1.2-1.2v-3.6c0-0.7,0.6-1.2,1.2-1.2c0.7,0,1.2,0.5,1.2,1.2v3.6
		C406.5,139.7,406,140.3,405.2,140.3z"/>
	<path class="st63" d="M103.1,183.7l6.4,3c0,0,3.7-5.5,4.4-6.9c0.6-1.4,1-4.5,1.1-5.9c0.1-1.4,1.4-4.3-0.8-3.9
		c-2.3,0.5-4.3,1.7-5.1,2.8c-2.6,3.4-3,7-3,7L103.1,183.7z"/>
	<path class="st34" d="M65.6,328.2c0,0-6.1,35.5-4,40.5c2.1,4.9,6,7.5,6,7.5s-6.8-2.3-9-3.6c-1.1-0.6-4.6-3.7-4.6-3.7
		s1.5-7.4,0.7-13.7c-0.6-5.1-0.9-11.6-0.5-19.4c0.5-7.8,1.6-9.8,1.6-9.8L65.6,328.2z"/>
	<path class="st33" d="M53.6,368c0,0,9.6,7,11.9,7.2l4.3,1.2c0,0-2.8,2-5.9,1.6s-5.1-3.1-5.1-3.1l-2.1-0.6l0.6,3l-4.3-1.1L53.6,368z
		"/>
	<path class="st34" d="M89,327.8c0,0-2,36,0.6,40.6c2.7,4.7,6.9,6.8,6.9,6.8s-7-1.6-9.4-2.6c-1.1-0.5-5-3.2-5-3.2s0.6-7.5-0.8-13.7
		c-1.2-5-2.3-11.4-2.7-19.2c-0.4-7.8,0.4-9.9,0.4-9.9L89,327.8z"/>
	<path class="st33" d="M81.8,368.6c0,0,10.3,5.8,12.6,5.7l4.4,0.7c0,0-2.6,2.3-5.6,2.3c-3.1,0-5.4-2.5-5.4-2.5l-2.1-0.4l0.9,3
		l-4.4-0.6L81.8,368.6z"/>
	<path class="st38" d="M67,260.5l20.5-0.5l7.3,68.7l-44-0.7l2.2-66.1L67,260.5z"/>
	<path class="st17" d="M58.5,210.8c0,0-4.8,1-5.8,4.1c-1.1,3.1-1.5,24.1-1.7,31.8c-0.2,7.7-4.7,16.5-1.9,18c2.8,1.6,3.6,2.6,3.6,2.6
		l-0.2,3.9c0,0,11.1-3,16.6-3.5c5.4-0.5,19.5-1.6,19.5-1.6l-0.2-3.3c0,0,0.9-0.5,0.8-8.1c0.4-5.4,0-24.6,0-24.6s14.4-6.2,16.7-9.6
		c2.3-3.3,12-32.7,12-32.7l-7.5-2.4l-0.7,1.2l-6.6-3.7c0,0-9,17-13.3,17.8c-4.4,0.8-16.9,4.5-19.5,5.3c-2.6,0.8-3.3,1.9-3.3,1.9
		l2.3,2.4c0,0,0.7,2.5-3.2,2.8C63,213.3,58.5,210.8,58.5,210.8z"/>
	<path class="st33" d="M58.2,216.5c-0.2,0-0.3-0.1-0.3-0.3c0-0.2,0.1-0.3,0.3-0.3c0.3,0,26.3-1.6,33.4-5.9s17.2-22.6,17.3-22.8
		c0.1-0.1,0.3-0.2,0.4-0.1c0.1,0.1,0.2,0.3,0.1,0.4c-0.4,0.7-10.3,18.5-17.5,23C84.7,215,59.4,216.5,58.2,216.5z"/>
	<path class="st33" d="M71.1,234.8c-3.9,0-8.6-1.2-10.7-4.5c-0.1-0.1-0.1-0.3,0.1-0.4c0.1-0.1,0.3-0.1,0.4,0.1
		c2.5,3.7,9.3,4.7,13,3.9c3.9-0.8,12.2-2.6,12.2-2.6l0.1,0.6c0,0-8.3,1.8-12.2,2.6C73.2,234.6,72.2,234.8,71.1,234.8z"/>
	<path class="st33" d="M81.1,213.2c-0.1,0-0.1,0-0.2,0l-5.7-3.4c-0.1-0.1-0.2-0.3-0.1-0.4c0.1-0.1,0.3-0.2,0.4-0.1l5.7,3.4
		c0.1,0.1,0.2,0.3,0.1,0.4C81.3,213.2,81.2,213.2,81.1,213.2z"/>
	<path class="st33" d="M54.1,267.4c-0.1,0-0.2-0.1-0.3-0.2c-0.1-0.2,0-0.3,0.2-0.4c0.3-0.1,7.2-2.9,12.6-2.9c0.1,0,0.2,0,0.3,0
		c5.3,0.1,14.2-1.1,14.3-1.1c0.2,0,0.3,0.1,0.3,0.3c0,0.2-0.1,0.3-0.3,0.3c-0.1,0-9,1.2-14.4,1.1c-5.3-0.1-12.5,2.9-12.6,2.9
		C54.2,267.4,54.2,267.4,54.1,267.4z"/>
	<path class="st34" d="M110.2,185.5l7.5,2.3l2.1-5.4c0,0,4.6-3.5,4.8-5.8c0.2-2.3-0.8-3.1-0.9-4c-0.1-0.8,0.2-3.2-0.8-3.3
		c-0.9-0.1-5.5,4.2-5.5,4.2s0.7-5.9-0.1-6.5c-0.8-0.5-2.8,5.3-2.8,5.3s0,4.9-0.3,6.1C113.6,179.6,110.2,185.5,110.2,185.5z"/>
	<path class="st34" d="M63,201.3c0,0-3.1-3.5-4.7-1c-1.6,2.5,9.6,10,13.6,6.5c0.8-0.7,1.6-4.1,0.5-7.8c-0.1-0.5,1.5-2.6,0.9-2.7
		c-1.8-0.4-3.1-1.8-3.2-2.6c-0.1-2.9-1.7-4.8-1.7-4.8s-2.9,0.5-4.3,3c-1.4,2.5,0.4,6.7-0.4,8C63,201.3,63,201.3,63,201.3z"/>
	<path class="st34" d="M60.2,204.8l-0.7,6.9c0,0,4.4,3.5,9.7,0.2c0.1-0.2-1.7-6-1.7-6l-5.6-3.7L60.2,204.8z"/>
	<path class="st38" d="M60.8,208l1.1-2.8c0,0-4.7-4.1-3.1-5c1.6-0.9,3.9,1.4,3.9,1.4s1.9-1,1.9-2.5c0-1.5-0.4-5.9,1.5-7.7
		c1.9-1.8,3.1-2,3.1-2s-1.9-4.5-7.4-3.2c-5.5,1.2-9.5,2.5-11.4,6.5c-1.9,4-1.6,7.6,0.2,10.1C53.8,207.2,60.8,208,60.8,208z"/>
	<path class="st38" d="M60,207.7h-0.1c-0.1,0-7.1-0.9-10.3-5.3c-2-2.7-2.1-6.5-0.3-10.3c2-4.2,6.1-5.4,11.5-6.6
		c5.6-1.2,7.6,3.3,7.6,3.3l0.1,0.2h-0.2c0,0-1.2,0.2-3,1.9c-1.6,1.5-1.5,4.9-1.4,6.8c0,0.3,0,0.6,0,0.8s-0.1,0.4-0.2,0.5
		c-0.4,0.4-1.5,0.4-2.6,0.4c-1,0-2.3,0-3,0.3c-0.1,0.1-0.2,0.2-0.2,0.4c-0.1,1,2.4,3.4,3.4,4.4l0.1,0.1L60,207.7z M62.7,185.7
		c-0.5,0-1.1,0.1-1.8,0.2c-5.2,1.1-9.4,2.3-11.2,6.4c-1.8,3.7-1.7,7.4,0.2,9.9c2.8,4,9,5,9.9,5.1l1-2.6c-0.6-0.5-3.5-3.1-3.4-4.6
		c0-0.3,0.2-0.5,0.4-0.6c0.7-0.4,2-0.4,3.1-0.4c0.9,0,2,0,2.3-0.3c0.1-0.1,0.1-0.2,0.1-0.3c0-0.2,0-0.4,0-0.7
		c-0.1-2-0.2-5.5,1.5-7.1c1.5-1.4,2.6-1.8,3-2C67.6,188.1,66.1,185.7,62.7,185.7z"/>
	<path class="st38" d="M42,195.1c-1-2.2,0-4.9,2.3-5.9c2.3-1,5-0.1,6,2.1c1,2.2,0,4.9-2.3,5.9C45.7,198.2,43,197.3,42,195.1z"/>
	<path class="st38" d="M45.8,196.7c-1.8,0-3.4-0.9-4.3-2.6c-0.5-1.1-0.5-2.4-0.1-3.5c0.4-1.1,1.4-2.1,2.5-2.6
		c1.1-0.5,2.5-0.6,3.6-0.2c1.1,0.4,2.1,1.2,2.6,2.4c0.5,1.1,0.5,2.4,0.1,3.5c-0.4,1.1-1.4,2.1-2.5,2.6
		C47.3,196.6,46.6,196.7,45.8,196.7z M46.1,187.8c-0.6,0-1.4,0.1-1.9,0.4c-1,0.5-1.9,1.4-2.3,2.5c-0.4,1-0.4,2.3,0.1,3.3
		c0.9,2.2,3.6,3,5.8,2c1-0.5,1.9-1.4,2.3-2.5c0.4-1,0.4-2.3-0.1-3.3c-0.5-1-1.4-1.8-2.4-2.2C47.1,187.9,46.6,187.8,46.1,187.8z"/>
	<path class="st33" d="M68,208c-0.6,0-2.7-0.1-4.3-1.2c-0.1-0.1-0.2-0.3-0.1-0.4c0.1-0.1,0.3-0.2,0.4-0.1c1.7,1.2,4.1,1.1,4.1,1.1
		c0.2,0,0.3,0.1,0.3,0.3c0,0.2-0.1,0.3-0.3,0.3H68z"/>
	<path class="st33" d="M65.3,213.6c-3,0-6.2-2-6.4-2.1c-0.1-0.1-0.2-0.3-0.1-0.4c0.1-0.1,0.3-0.2,0.4-0.1c0,0,4.5,2.7,7.5,1.8
		c1.5-0.4,2-1,2.2-1.5c0.2-0.4,0.1-0.7,0-0.7c-0.1-0.1,0-0.3,0.1-0.4c0.1-0.1,0.3,0,0.4,0.1c0,0,0.3,0.6,0,1.2
		c-0.3,0.7-1.2,1.4-2.6,1.8C66.3,213.5,65.8,213.6,65.3,213.6z"/>
</g>
</svg>
