<?xml version="1.0" encoding="utf-8"?>
<!-- Generator: Adobe Illustrator 27.0.0, SVG Export Plug-In . SVG Version: 6.00 Build 0)  -->
<svg version="1.1" id="Layer_1" xmlns="http://www.w3.org/2000/svg" xmlns:xlink="http://www.w3.org/1999/xlink" x="0px" y="0px"
	 viewBox="0 0 500 384" style="enable-background:new 0 0 500 384;" xml:space="preserve">
<style type="text/css">
	.st0{fill:#EBEBEB;}
	.st1{fill:#E0E0E0;}
	.st2{fill:#F5F5F5;}
	.st3{fill:#F0F0F0;}
	.st4{fill:#264FDA;}
	.st5{fill:#263238;}
	.st6{opacity:0.7;fill:#FFFFFF;enable-background:new    ;}
	.st7{fill:#407BFF;}
	.st8{opacity:0.9;fill:#FFFFFF;enable-background:new    ;}
	.st9{opacity:0.1;enable-background:new    ;}
	.st10{opacity:0.2;fill:#FFFFFF;enable-background:new    ;}
	.st11{fill:none;stroke:#263238;stroke-linecap:round;stroke-linejoin:round;stroke-miterlimit:10;}
	.st12{opacity:0.5;}
	.st13{fill:#FFFFFF;}
	.st14{opacity:0.4;fill:#FFFFFF;enable-background:new    ;}
	.st15{fill:none;stroke:#407BFF;stroke-miterlimit:10;}
	.st16{fill:none;stroke:#263238;stroke-miterlimit:10;}
	.st17{opacity:0.7;fill:none;stroke:#FFFFFF;stroke-miterlimit:10;enable-background:new    ;}
	.st18{opacity:0.3;}
	.st19{opacity:0.8;fill:#FFFFFF;enable-background:new    ;}
	.st20{opacity:0.4;enable-background:new    ;}
	.st21{opacity:0.2;enable-background:new    ;}
	.st22{fill:#E4897B;}
	.st23{opacity:0.6;fill:#FFFFFF;enable-background:new    ;}
	.st24{opacity:0.1;fill:#FFFFFF;enable-background:new    ;}
	.st25{fill:#DE5753;}
	.st26{fill:#A24E3F;}
	.st27{opacity:0.3;enable-background:new    ;}
	.st28{opacity:0.5;fill:#FFFFFF;enable-background:new    ;}
	.st29{opacity:0.3;fill:#FFFFFF;enable-background:new    ;}
	.st30{fill:#FFB573;}
	.st31{fill:#E9B376;}
	.st32{fill:#EBB376;}
	.st33{fill:#D58745;}
	.st34{fill:none;stroke:#263238;stroke-width:0.4056;stroke-linecap:round;stroke-linejoin:round;stroke-miterlimit:10;}
	.st35{fill:none;stroke:#263238;stroke-width:0.4693;stroke-linecap:round;stroke-linejoin:round;stroke-miterlimit:10;}
</style>
<g>
	<path class="st0" d="M500,332.4H0v0.2h500V332.4z"/>
	<path class="st0" d="M449.9,348.5h-33.1v0.2h33.1V348.5z"/>
	<path class="st0" d="M331.2,351.2h-8.7v0.2h8.7V351.2z"/>
	<path class="st0" d="M415.8,339.2h-19.2v0.2h19.2V339.2z"/>
	<path class="st0" d="M95.7,340.9H52.5v0.2h43.2V340.9z"/>
	<path class="st0" d="M110.9,340.9h-6.3v0.2h6.3V340.9z"/>
	<path class="st0" d="M225.2,345.1h-93.7v0.2h93.7V345.1z"/>
	<path class="st0" d="M237,287.8H43.9c-3.1,0-5.7-2.6-5.7-5.7V10.7c0-3.1,2.6-5.7,5.7-5.7H237c3.1,0,5.7,2.6,5.7,5.7v271.4
		C242.7,285.2,240.2,287.8,237,287.8z M43.9,5.2c-3,0-5.5,2.4-5.5,5.5v271.4c0,3,2.4,5.5,5.5,5.5H237c3,0,5.5-2.4,5.5-5.5V10.7
		c0-3-2.4-5.5-5.5-5.5H43.9z"/>
	<path class="st0" d="M453.3,287.8H260.2c-3.1,0-5.7-2.6-5.7-5.7V10.7c0-3.1,2.6-5.7,5.7-5.7h193.1c3.1,0,5.7,2.6,5.7,5.7v271.4
		C459,285.2,456.5,287.8,453.3,287.8z M260.2,5.2c-3,0-5.5,2.4-5.5,5.5v271.4c0,3,2.4,5.5,5.5,5.5h193.1c3,0,5.5-2.4,5.5-5.5V10.7
		c0-3-2.4-5.5-5.5-5.5H260.2z"/>
	<path class="st0" d="M237.1,63.7c-2.1,0-3.9,1-4.9,2.6L219,59.4c0.2-0.7,0.4-1.4,0.4-2.1c0-0.7-0.2-1.5-0.4-2.1l13.2-6.9
		c1.1,1.6,2.9,2.6,4.9,2.6c3.3,0,6-2.7,6-6c0-3.3-2.7-6-6-6c-3.3,0-6,2.7-6,6c0,0.7,0.2,1.5,0.4,2.1l-13.2,6.9
		c-1.1-1.6-2.9-2.6-4.9-2.6c-3.3,0-6,2.7-6,6c0,3.3,2.7,6,6,6c2.1,0,3.9-1,4.9-2.6l13.2,6.9c-0.2,0.7-0.4,1.4-0.4,2.1
		c0,3.3,2.7,6,6,6c3.3,0,6-2.7,6-6C243.1,66.4,240.4,63.7,237.1,63.7z"/>
	<path class="st0" d="M277.6,333.3h-46.2c-0.4,0-0.7-0.3-0.7-0.7V292c0-0.4,0.3-0.7,0.7-0.7c0.4,0,0.7,0.3,0.7,0.7v39.9h45.5
		c0.4,0,0.7,0.3,0.7,0.7S278,333.3,277.6,333.3z"/>
	<path class="st0" d="M231.5,327.7l-0.3-2.9c0.3,0,27.3-3.1,39.2-21l2.5,1.6C260.2,324.5,232.7,327.6,231.5,327.7z"/>
	<path class="st0" d="M273.3,302.2l-5.7,2.3l5.7,3.7V302.2z"/>
	<path class="st0" d="M429.9,242.6h-25.1c-0.2,0-0.4-0.2-0.4-0.4v-22c0-0.2,0.2-0.4,0.4-0.4c0.2,0,0.4,0.2,0.4,0.4v21.6h24.7
		c0.2,0,0.4,0.2,0.4,0.4C430.3,242.5,430.1,242.6,429.9,242.6z"/>
	<path class="st0" d="M404.9,239.6l-0.2-1.6c0.1,0,14.8-1.7,21.3-11.4l1.3,0.9C420.4,237.9,405.5,239.6,404.9,239.6z"/>
	<path class="st0" d="M427.5,225.8l-3,1.2l3,2.1V225.8z"/>
	<path class="st0" d="M73.5,175.2v15.9c0,1.5,2.6,2.7,5.8,2.7H94c1.6,0,3-1.3,3-3v-4c0-1.2,0.3-2.3,0.9-3.4c0.6-1,0.9-2.2,0.9-3.4
		v-3.9c0-1.6-1.3-3-3-3H84V163c0-2.3-0.7-5.5-3.5-5.5c0,0-0.8,10.2-5.9,14.4C73.7,172.9,73.5,174.1,73.5,175.2z"/>
	<path class="st0" d="M72.3,175h-5v16.8h5V175z"/>
	<path class="st0" d="M340.9,113.8v9.9c0,0.9,1.6,1.7,3.6,1.7h9.1c1,0,1.8-0.8,1.8-1.8v-2.5c0-0.7,0.2-1.5,0.6-2.1s0.6-1.4,0.6-2.1
		v-2.4c0-1-0.8-1.8-1.9-1.8h-7.4v-6.3c0-1.5-0.4-3.4-2.1-3.4c0,0-0.5,6.4-3.7,9C341.1,112.4,340.9,113.1,340.9,113.8z"/>
	<path class="st0" d="M340.2,113.7h-3.1v10.4h3.1V113.7z"/>
	<path class="st0" d="M151.7,56.1c5.1-5.1,5.1-13.3,0-18.4c-5.1-5.1-13.3-5.1-18.4,0c-5.1,5.1-5.1,13.3,0,18.4
		C138.4,61.2,146.6,61.2,151.7,56.1z"/>
	<path class="st1" d="M142.5,58.2c6.2,0,11.3-5.1,11.3-11.3c0-6.2-5.1-11.3-11.3-11.3s-11.3,5.1-11.3,11.3
		C131.2,53.1,136.3,58.2,142.5,58.2z"/>
	<path class="st0" d="M143.2,52v1.6H142V52c-1.4-0.1-2.8-0.5-3.5-1.2l0.6-1.5c0.7,0.6,1.8,1,2.9,1.1v-2.9c-1.6-0.4-3.3-0.9-3.3-2.9
		c0-1.5,1.1-2.8,3.3-3V40h1.2v1.6c1.1,0.1,2.2,0.4,2.9,0.9l-0.6,1.5c-0.8-0.4-1.6-0.7-2.3-0.8v2.9c1.6,0.4,3.4,0.9,3.4,2.9
		C146.5,50.5,145.5,51.8,143.2,52z M142,45.9v-2.6c-1,0.2-1.5,0.7-1.5,1.3C140.6,45.3,141.2,45.6,142,45.9z M144.7,49.2
		c0-0.7-0.6-1-1.5-1.3v2.6C144.3,50.3,144.7,49.8,144.7,49.2z"/>
	<path class="st0" d="M409,74c1.5-6.2-2.4-12.5-8.6-14c-6.2-1.5-12.5,2.4-14,8.6c-1.5,6.2,2.4,12.5,8.6,14
		C401.3,84.1,407.6,80.2,409,74z"/>
	<path class="st1" d="M397.8,81.4c5.6,0,10.1-4.5,10.1-10.1c0-5.6-4.5-10.1-10.1-10.1s-10.1,4.5-10.1,10.1
		C387.7,76.9,392.2,81.4,397.8,81.4z"/>
	<path class="st0" d="M398.4,76v1.5h-1.1V76c-1.3-0.1-2.5-0.5-3.2-1.1l0.6-1.3c0.6,0.5,1.6,0.9,2.6,1V72c-1.4-0.4-3-0.8-3-2.6
		c0-1.3,1-2.5,3-2.7v-1.5h1.1v1.4c1,0.1,1.9,0.3,2.6,0.8l-0.5,1.3c-0.7-0.4-1.4-0.6-2.1-0.7v2.6c1.4,0.3,3,0.8,3,2.6
		C401.4,74.6,400.4,75.8,398.4,76z M397.3,70.4v-2.3c-0.9,0.1-1.3,0.6-1.3,1.2C396,69.9,396.6,70.2,397.3,70.4z M399.7,73.4
		c0-0.6-0.6-0.9-1.3-1.2v2.3C399.3,74.4,399.7,74,399.7,73.4z"/>
	<path class="st0" d="M318.8,295.6c1.5-6.2-2.4-12.5-8.6-14c-6.2-1.5-12.5,2.4-14,8.6c-1.5,6.2,2.4,12.5,8.6,14
		C311.1,305.6,317.3,301.8,318.8,295.6z"/>
	<path class="st1" d="M307.5,303c5.6,0,10.1-4.5,10.1-10.1s-4.5-10.1-10.1-10.1s-10.1,4.5-10.1,10.1S301.9,303,307.5,303z"/>
	<path class="st0" d="M308.1,297.5v1.5H307v-1.4c-1.3-0.1-2.5-0.5-3.2-1.1l0.6-1.3c0.6,0.5,1.6,0.9,2.6,1v-2.6c-1.4-0.4-3-0.8-3-2.6
		c0-1.3,1-2.5,3-2.7v-1.5h1.1v1.4c1,0.1,1.9,0.3,2.6,0.8l-0.5,1.3c-0.7-0.4-1.4-0.6-2.1-0.7v2.6c1.4,0.3,3,0.8,3,2.6
		C311.1,296.2,310.1,297.3,308.1,297.5z M307,292v-2.3c-0.9,0.1-1.3,0.6-1.3,1.2S306.3,291.8,307,292z M309.4,295
		c0-0.6-0.6-0.9-1.3-1.2v2.3C309,296,309.4,295.5,309.4,295z"/>
	<path class="st0" d="M112.9,308.8c1.5-6.2-2.4-12.5-8.6-14c-6.2-1.5-12.5,2.4-14,8.6c-1.5,6.2,2.4,12.5,8.6,14
		C105.2,318.9,111.4,315,112.9,308.8z"/>
	<path class="st1" d="M101.7,316.2c5.6,0,10.1-4.5,10.1-10.1s-4.5-10.1-10.1-10.1c-5.6,0-10.1,4.5-10.1,10.1S96.1,316.2,101.7,316.2
		z"/>
	<path class="st0" d="M102.3,310.8v1.5h-1.1v-1.4c-1.3-0.1-2.5-0.5-3.2-1.1l0.6-1.3c0.6,0.5,1.6,0.9,2.6,1v-2.6
		c-1.4-0.4-3-0.8-3-2.6c0-1.3,1-2.5,3-2.7v-1.5h1.1v1.4c1,0.1,1.9,0.3,2.6,0.8l-0.5,1.3c-0.7-0.4-1.4-0.6-2.1-0.7v2.6
		c1.4,0.3,3,0.8,3,2.6C105.3,309.4,104.3,310.6,102.3,310.8z M101.2,305.2v-2.3c-0.9,0.1-1.3,0.6-1.3,1.2S100.5,305,101.2,305.2z
		 M103.6,308.2c0-0.6-0.6-0.9-1.3-1.2v2.3C103.2,309.2,103.6,308.8,103.6,308.2z"/>
	<path class="st2" d="M163.8,104.1l8-22.1c3,1.1,5.7,2.8,8.1,5c2.3,2.2,4.2,4.8,5.5,7.7L163.8,104.1z"/>
	<path class="st1" d="M163.8,104.1l6.9,22.5c-2.2,0.7-4.5,1-6.9,1c-12.9,0-23.5-10.6-23.5-23.5c0-12.9,10.6-23.5,23.5-23.5
		c2.7,0,5.4,0.5,7.9,1.4L163.8,104.1z"/>
	<path class="st0" d="M163.8,104.1l21.6-9.3c1.3,2.9,1.9,6.1,1.9,9.3c0,10.3-6.7,19.4-16.6,22.5L163.8,104.1z"/>
	<path class="st2" d="M378.3,220.5l4.4-12c1.6,0.6,3.1,1.5,4.4,2.7c1.3,1.2,2.3,2.6,3,4.2L378.3,220.5z"/>
	<path class="st1" d="M378.3,220.5l3.7,12.2c-1.2,0.4-2.5,0.6-3.7,0.6c-7,0-12.8-5.8-12.8-12.8s5.8-12.8,12.8-12.8
		c1.5,0,2.9,0.3,4.3,0.8L378.3,220.5z"/>
	<path class="st0" d="M378.3,220.5l11.7-5c0.7,1.6,1,3.3,1,5c0,5.6-3.7,10.6-9,12.2L378.3,220.5z"/>
	<path class="st3" d="M335.5,175.1c-2.1-10-6-19.2-11.4-27.5l9.8-11.9l-21-21l-11.9,9.8c-8.2-5.4-17.5-9.3-27.4-11.4l-1.4-15.3
		h-29.7l-1.4,15.3c-10,2.1-19.2,6-27.4,11.4l-11.9-9.8l-21,21l9.8,11.9c-5.4,8.2-9.3,17.5-11.4,27.4l-15.3,1.4v29.7l15.3,1.4
		c2.1,10,6,19.2,11.4,27.4l-9.8,11.9l21,21l11.9-9.8c8.2,5.4,17.5,9.3,27.4,11.4l1.4,15.3h29.7l1.4-15.3c10-2.1,19.2-6,27.4-11.4
		l11.9,9.8l21-21l-9.8-11.9c5.4-8.2,9.3-17.5,11.4-27.4l15.3-1.4v-29.7L335.5,175.1z M297.5,191.4c0,22.2-18,40.2-40.2,40.2
		c-22.2,0-40.2-18-40.2-40.2s18-40.2,40.2-40.2C279.5,151.2,297.5,169.2,297.5,191.4z"/>
	<path class="st3" d="M430.7,129.5c-0.4-2-1.2-3.8-2.3-5.5l2-2.4l-4.2-4.2l-2.4,2c-1.6-1.1-3.5-1.9-5.5-2.3l-0.3-3h-5.9l-0.3,3
		c-2,0.4-3.8,1.2-5.5,2.3l-2.4-2l-4.2,4.2l2,2.4c-1.1,1.6-1.9,3.5-2.3,5.5l-3,0.3v5.9l3,0.3c0.4,2,1.2,3.8,2.3,5.5l-2,2.4l4.2,4.2
		l2.4-2c1.6,1.1,3.5,1.9,5.5,2.3l0.3,3h5.9l0.3-3c2-0.4,3.8-1.2,5.5-2.3l2.4,2l4.2-4.2l-2-2.4c1.1-1.6,1.9-3.5,2.3-5.5l3-0.3v-5.9
		L430.7,129.5z M423.2,132.8c0,4.4-3.6,8-8,8c-4.4,0-8-3.6-8-8c0-4.4,3.6-8,8-8C419.6,124.8,423.2,128.4,423.2,132.8z"/>
	<path class="st3" d="M151.4,228c-0.4-2-1.2-3.8-2.3-5.5l2-2.4l-4.2-4.2l-2.4,2c-1.6-1.1-3.5-1.9-5.5-2.3l-0.3-3h-5.9l-0.3,3
		c-2,0.4-3.8,1.2-5.5,2.3l-2.4-2l-4.2,4.2l2,2.4c-1.1,1.6-1.9,3.5-2.3,5.5l-3,0.3v5.9l3,0.3c0.4,2,1.2,3.8,2.3,5.5l-2,2.4l4.2,4.2
		l2.4-2c1.6,1.1,3.5,1.9,5.5,2.3l0.3,3h5.9l0.3-3c2-0.4,3.8-1.2,5.5-2.3l2.4,2l4.2-4.2l-2-2.4c1.1-1.6,1.9-3.5,2.3-5.5l3-0.3v-5.9
		L151.4,228z M143.8,231.2c0,4.4-3.6,8-8,8c-4.4,0-8-3.6-8-8c0-4.4,3.6-8,8-8C140.3,223.2,143.8,226.8,143.8,231.2z"/>
	<path class="st3" d="M202.9,293.8c-0.4-2-1.2-3.8-2.3-5.5l2-2.4l-4.2-4.2l-2.4,2c-1.6-1.1-3.5-1.9-5.5-2.3l-0.3-3h-5.9l-0.3,3
		c-2,0.4-3.8,1.2-5.5,2.3l-2.4-2l-4.2,4.2l2,2.4c-1.1,1.6-1.9,3.5-2.3,5.5l-3,0.3v5.9l3,0.3c0.4,2,1.2,3.8,2.3,5.5l-2,2.4l4.2,4.2
		l2.4-2c1.6,1.1,3.5,1.9,5.5,2.3l0.3,3h5.9l0.3-3c2-0.4,3.8-1.2,5.5-2.3l2.4,2l4.2-4.2l-2-2.4c1.1-1.6,1.9-3.5,2.3-5.5l3-0.3v-5.9
		L202.9,293.8z M195.3,297c0,4.4-3.6,8-8,8c-4.4,0-8-3.6-8-8s3.6-8,8-8C191.7,289,195.3,292.6,195.3,297z"/>
	<path class="st3" d="M96.8,107.6c-0.3-1.3-0.8-2.5-1.5-3.6l1.3-1.6l-2.8-2.8l-1.6,1.3c-1.1-0.7-2.3-1.2-3.6-1.5l-0.2-2h-3.9l-0.2,2
		c-1.3,0.3-2.5,0.8-3.6,1.5l-1.6-1.3l-2.8,2.8l1.3,1.6c-0.7,1.1-1.2,2.3-1.5,3.6l-2,0.2v3.9l2,0.2c0.3,1.3,0.8,2.5,1.5,3.6l-1.3,1.6
		l2.8,2.8l1.6-1.3c1.1,0.7,2.3,1.2,3.6,1.5l0.2,2h3.9l0.2-2c1.3-0.3,2.5-0.8,3.6-1.5l1.6,1.3l2.8-2.8l-1.3-1.6
		c0.7-1.1,1.2-2.3,1.5-3.6l2-0.2v-3.9L96.8,107.6z M91.9,109.7c0,2.9-2.4,5.3-5.3,5.3c-2.9,0-5.3-2.4-5.3-5.3c0-2.9,2.4-5.3,5.3-5.3
		C89.5,104.4,91.9,106.8,91.9,109.7z"/>
	<path class="st3" d="M112.1,93.6c-0.2-1-0.6-1.8-1.1-2.6l0.9-1.1l-2-2l-1.1,0.9c-0.8-0.5-1.7-0.9-2.6-1.1l-0.1-1.5h-2.9l-0.1,1.5
		c-1,0.2-1.8,0.6-2.6,1.1l-1.1-0.9l-2,2l0.9,1.1c-0.5,0.8-0.9,1.7-1.1,2.6l-1.5,0.1v2.9l1.5,0.1c0.2,1,0.6,1.8,1.1,2.6l-0.9,1.1l2,2
		l1.1-0.9c0.8,0.5,1.7,0.9,2.6,1.1l0.1,1.5h2.9l0.1-1.5c1-0.2,1.8-0.6,2.6-1.1l1.1,0.9l2-2l-0.9-1.1c0.5-0.8,0.9-1.7,1.1-2.6
		l1.5-0.1v-2.9L112.1,93.6z M108.4,95.2c0,2.1-1.7,3.9-3.9,3.9c-2.1,0-3.9-1.7-3.9-3.9c0-2.1,1.7-3.9,3.9-3.9S108.4,93.1,108.4,95.2
		z"/>
	<path class="st0" d="M371.7,328.1c-16.4-0.1-29.8-13.5-29.8-29.9c0-6.9,2.4-13.6,6.7-18.9c5.7-7,14.1-11,23.1-11h0.2
		c9,0,17.4,4.1,23.1,11c4.3,5.3,6.7,12,6.7,18.9c0,16.4-13.3,29.8-29.7,29.9H371.7L371.7,328.1z M373,325.8l1.2-0.3
		c4.3-1,8.1-4.7,10.8-10.3l0.5-1.1l-1.2-0.3c-3.2-0.7-6.6-1.2-10.3-1.3h-1V325.8z M369.6,312.5c-3.7,0.1-7.1,0.6-10.3,1.3l-1.2,0.3
		l0.5,1.1c2.7,5.6,6.5,9.3,10.8,10.3l1.2,0.3v-13.3H369.6z M387.4,315.5c-0.8,1.8-1.7,3.4-2.8,4.9l1.3,1.4c2-1.2,3.8-2.6,5.4-4.2
		l1-1L391,316c-0.7-0.4-1.6-0.7-2.4-1l-0.9-0.3L387.4,315.5z M355,315c-0.9,0.3-1.7,0.6-2.4,1l-1.3,0.6l1,1c1.6,1.6,3.4,3,5.4,4.2
		l1.3-1.4c-1-1.5-2-3.1-2.8-4.9l-0.4-0.8L355,315z M344.4,300.5c0.4,4.9,2.1,9.6,4.9,13.6l0.5,0.7l0.8-0.4c1.1-0.6,2.2-1.1,3.5-1.5
		l0.9-0.3l-0.3-0.9c-1.1-3.5-1.8-7.3-2-11.2v-1h-8.4L344.4,300.5z M390.9,300.3c-0.2,3.9-0.8,7.7-2,11.2l-0.3,0.9l0.9,0.3
		c1.3,0.5,2.5,1,3.5,1.5l0.8,0.4l0.5-0.7c2.8-4,4.5-8.7,4.9-13.6l0.1-1.1H391L390.9,300.3z M355.1,300.4c0.2,3.7,0.8,7.2,1.9,10.5
		l0.3,0.9l0.9-0.2c3.5-0.8,7.5-1.4,11.5-1.5h1v-10.7h-15.6V300.4z M373,310.1h1c4.1,0.1,8,0.6,11.5,1.5l0.9,0.2l0.3-0.9
		c1.1-3.3,1.7-6.8,1.9-10.5l0.1-1H373V310.1z M393.1,282c-1.1,0.6-2.2,1.1-3.5,1.5l-0.9,0.3l0.3,0.9c1.1,3.5,1.8,7.3,2,11.2v1h8.4
		l-0.1-1.1c-0.4-4.9-2.1-9.6-4.9-13.6l-0.5-0.7L393.1,282z M385.5,284.8c-3.5,0.9-7.4,1.4-11.5,1.5h-1V297h15.6l-0.1-1
		c-0.2-3.7-0.8-7.2-1.9-10.5l-0.3-0.9L385.5,284.8z M357,285.5c-1.1,3.3-1.7,6.8-1.9,10.5l-0.1,1h15.6v-10.7h-1
		c-4.1-0.1-8-0.6-11.5-1.5l-0.9-0.2L357,285.5z M349.3,282.4c-2.8,4-4.5,8.7-4.9,13.6l-0.1,1.1h8.4v-1c0.2-3.9,0.8-7.7,2-11.2
		l0.3-0.9l-0.9-0.3c-1.3-0.5-2.5-1-3.5-1.5l-0.8-0.4L349.3,282.4z M373,284h1c3.7-0.1,7.1-0.6,10.3-1.3l1.2-0.3l-0.5-1.1
		c-2.7-5.6-6.5-9.3-10.8-10.3l-1.2-0.3V284z M369.4,270.9c-4.3,1-8.1,4.7-10.8,10.3l-0.5,1.1l1.2,0.3c3.2,0.7,6.6,1.2,10.3,1.3h1
		v-13.3L369.4,270.9z M357.7,274.5c-2,1.2-3.8,2.6-5.4,4.3l-1,1l1.3,0.6c0.8,0.4,1.6,0.7,2.4,1l0.9,0.3l0.4-0.8
		c0.8-1.8,1.8-3.4,2.8-4.9L357.7,274.5z M384.6,276c1.1,1.5,2,3.1,2.8,4.9l0.4,0.8l0.9-0.3c0.9-0.3,1.7-0.6,2.4-1l1.3-0.6l-1-1
		c-1.6-1.7-3.5-3.1-5.4-4.3L384.6,276z"/>
	<path class="st0" d="M294.4,91.3c-9.7-0.1-17.6-8-17.6-17.7c0-4.1,1.4-8,4-11.2c3.4-4.1,8.3-6.5,13.7-6.5h0.1
		c5.3,0,10.3,2.4,13.7,6.5c2.6,3.1,4,7.1,4,11.2c0,9.7-7.9,17.7-17.6,17.7H294.4z M295.2,89.9l0.7-0.2c2.5-0.6,4.8-2.8,6.4-6.1
		l0.3-0.7l-0.7-0.2c-1.9-0.4-3.9-0.7-6.1-0.8h-0.6V89.9z M293.2,82c-2.2,0.1-4.2,0.3-6.1,0.8l-0.7,0.2l0.3,0.7
		c1.6,3.3,3.9,5.5,6.4,6.1l0.7,0.2v-8H293.2z M303.7,83.8c-0.5,1-1,2-1.6,2.9l0.8,0.9c1.2-0.7,2.2-1.5,3.2-2.5l0.6-0.6l-0.8-0.4
		c-0.4-0.2-0.9-0.4-1.4-0.6l-0.5-0.2L303.7,83.8z M284.5,83.5c-0.5,0.2-1,0.4-1.4,0.6l-0.8,0.4l0.6,0.6c1,1,2,1.8,3.2,2.5l0.8-0.8
		c-0.6-0.9-1.2-1.8-1.6-2.9l-0.2-0.5L284.5,83.5z M278.2,74.9c0.2,2.9,1.2,5.7,2.9,8l0.3,0.4l0.5-0.2c0.6-0.3,1.3-0.6,2.1-0.9
		l0.5-0.2l-0.2-0.5c-0.7-2.1-1.1-4.3-1.2-6.7v-0.6h-5L278.2,74.9z M305.8,74.8c-0.1,2.3-0.5,4.6-1.2,6.7l-0.2,0.5l0.5,0.2
		c0.8,0.3,1.5,0.6,2.1,0.9l0.5,0.2l0.3-0.4c1.7-2.4,2.7-5.2,2.9-8l0.1-0.6h-5V74.8z M284.6,74.9c0.1,2.2,0.5,4.3,1.1,6.2l0.2,0.5
		l0.5-0.1c2.1-0.5,4.4-0.8,6.8-0.9h0.6v-6.3h-9.2V74.9z M295.2,80.6h0.6c2.4,0.1,4.8,0.4,6.8,0.9l0.5,0.1l0.2-0.5
		c0.6-1.9,1-4,1.1-6.2v-0.6h-9.2V80.6z M307.1,64c-0.6,0.3-1.3,0.6-2.1,0.9l-0.5,0.2l0.2,0.5c0.7,2.1,1.1,4.3,1.2,6.7v0.6h5
		l-0.1-0.6c-0.2-2.9-1.2-5.7-2.9-8l-0.3-0.4L307.1,64z M302.6,65.6c-2.1,0.5-4.4,0.8-6.8,0.9h-0.6v6.3h9.2v-0.6
		c-0.1-2.2-0.5-4.3-1.1-6.2l-0.2-0.5L302.6,65.6z M285.7,66c-0.6,1.9-1,4-1.1,6.2v0.6h9.2v-6.3h-0.6c-2.4-0.1-4.8-0.4-6.8-0.9
		l-0.5-0.1L285.7,66z M281.1,64.2c-1.7,2.4-2.7,5.2-2.9,8l-0.1,0.6h5v-0.6c0.1-2.3,0.5-4.6,1.2-6.7l0.2-0.5l-0.5-0.2
		c-0.8-0.3-1.5-0.6-2.1-0.9l-0.5-0.2L281.1,64.2z M295.2,65.1h0.6c2.2-0.1,4.2-0.3,6.1-0.8l0.7-0.2l-0.3-0.7
		c-1.6-3.3-3.9-5.5-6.4-6.1l-0.7-0.2V65.1z M293.1,57.4c-2.5,0.6-4.8,2.8-6.4,6.1l-0.3,0.7l0.7,0.2c1.9,0.4,3.9,0.7,6.1,0.8h0.6
		v-7.9L293.1,57.4z M286.1,59.5c-1.2,0.7-2.3,1.6-3.2,2.5l-0.6,0.6l0.8,0.4c0.4,0.2,0.9,0.4,1.4,0.6l0.5,0.2l0.2-0.5
		c0.5-1.1,1-2,1.7-2.9L286.1,59.5z M302.1,60.4c0.6,0.9,1.2,1.9,1.7,2.9l0.2,0.5l0.5-0.2c0.5-0.2,1-0.4,1.4-0.6l0.8-0.4l-0.6-0.6
		c-1-1-2.1-1.8-3.2-2.5L302.1,60.4z"/>
	<path class="st4" d="M250,377.5c107.1,0,193.9-5.1,193.9-11.3s-86.8-11.3-193.9-11.3S56.1,360,56.1,366.2S142.9,377.5,250,377.5z"
		/>
	<path class="st5" d="M343.3,259.8V115.9H156.2v143.9h26.4v96.8l-7.1,2.5v2.6h22.4v-2.6l-7.1-2.5v-96.8h121.8v96.8l-7.1,2.5v2.6
		h22.4v-2.6l-7.1-2.5v-96.8H343.3z"/>
	<path class="st6" d="M343.3,259.8V115.9H156.2v143.9h26.4v96.8l-7.1,2.5v2.6h22.4v-2.6l-7.1-2.5v-96.8h121.8v96.8l-7.1,2.5v2.6
		h22.4v-2.6l-7.1-2.5v-96.8H343.3z"/>
	<path class="st7" d="M340.9,117.9H158.7v137.4h182.2V117.9z"/>
	<path class="st8" d="M340.9,117.9H158.7v137.4h182.2V117.9z"/>
	<path class="st5" d="M290.4,201h-5.7v5.7h5.7V201z"/>
	<path class="st5" d="M290.4,217.5h-5.7v5.7h5.7V217.5z"/>
	<path class="st7" d="M290.4,234h-5.7v5.7h5.7V234z"/>
	<path class="st6" d="M290.4,217.5h-5.7v5.7h5.7V217.5z"/>
	<path class="st9" d="M271.7,141.1c0.1,0,0.2-0.1,0.2-0.2c0-0.1-0.1-0.2-0.2-0.2h-2.3v-9.4h2.3c0.1,0,0.2-0.1,0.2-0.2
		c0-0.1-0.1-0.2-0.2-0.2h-2.3v-2.6c0-0.1-0.1-0.2-0.2-0.2c-0.1,0-0.2,0.1-0.2,0.2v2.6h-10.2v-2.6c0-0.1-0.1-0.2-0.2-0.2
		s-0.2,0.1-0.2,0.2v2.6h-10.2v-2.6c0-0.1-0.1-0.2-0.2-0.2s-0.2,0.1-0.2,0.2v2.6h-10.2v-2.6c0-0.1-0.1-0.2-0.2-0.2
		c-0.1,0-0.2,0.1-0.2,0.2v2.6H227v-2.6c0-0.1-0.1-0.2-0.2-0.2c-0.1,0-0.2,0.1-0.2,0.2v2.6h-10.2v-2.6c0-0.1-0.1-0.2-0.2-0.2
		c-0.1,0-0.2,0.1-0.2,0.2v2.6h-11v-2.6c0-0.1-0.1-0.2-0.2-0.2c-0.1,0-0.2,0.1-0.2,0.2v2.6h-10.2v-2.6c0-0.1-0.1-0.2-0.2-0.2
		c-0.1,0-0.2,0.1-0.2,0.2v2.6h-10.2v-2.6c0-0.1-0.1-0.2-0.2-0.2c-0.1,0-0.2,0.1-0.2,0.2v2.6H173v0.5h10.1v9.4H173v0.5h10.1v9.4H173
		v0.5h10.1v9.4H173v0.5h10.1v9.4H173v0.5h10.1v10.1c0,0.1,0.1,0.2,0.2,0.2c0.1,0,0.2-0.1,0.2-0.2V171h10.2v10.1
		c0,0.1,0.1,0.2,0.2,0.2c0.1,0,0.2-0.1,0.2-0.2V171h10.2v10.1c0,0.1,0.1,0.2,0.2,0.2s0.2-0.1,0.2-0.2V171h10.2v10.1
		c0,0.1,0.1,0.2,0.2,0.2c0.1,0,0.2-0.1,0.2-0.2V171H226v10.1c0,0.1,0.1,0.2,0.2,0.2c0.1,0,0.2-0.1,0.2-0.2V171h10.2v10.1
		c0,0.1,0.1,0.2,0.2,0.2c0.1,0,0.2-0.1,0.2-0.2V171h10.2v10.1c0,0.1,0.1,0.2,0.2,0.2c0.1,0,0.2-0.1,0.2-0.2V171h10.2v10.1
		c0,0.1,0.1,0.2,0.2,0.2s0.2-0.1,0.2-0.2V171h10.2v10.1c0,0.1,0.1,0.2,0.2,0.2s0.2-0.1,0.2-0.2V171h2.3c0.1,0,0.2-0.1,0.2-0.2
		c0-0.1-0.1-0.2-0.2-0.2h-2.3v-9.4h2.3c0.1,0,0.2-0.1,0.2-0.2s-0.1-0.2-0.2-0.2h-2.3V151h2.3c0.1,0,0.2-0.1,0.2-0.2
		c0-0.1-0.1-0.2-0.2-0.2h-2.3v-9.4L271.7,141.1L271.7,141.1z M193.8,170.2h-10.2v-9.4h10.2V170.2z M193.8,160.4h-10.2V151h10.2
		V160.4z M193.8,150.5h-10.2v-9.4h10.2V150.5z M193.8,140.6h-10.2v-9.4h10.2V140.6z M204.5,170.2h-10.2v-9.4h10.2V170.2z
		 M204.5,160.4h-10.2V151h10.2V160.4z M204.5,150.5h-10.2v-9.4h10.2V150.5z M204.5,140.6h-10.2v-9.4h10.2V140.6z M215.2,170.2H205
		v-9.4h10.2V170.2z M215.2,160.4H205V151h10.2V160.4z M215.2,150.5H205v-9.4h10.2V150.5z M215.2,140.6H205v-9.4h10.2V140.6z
		 M226,170.2h-10.2v-9.4H226V170.2z M226,160.4h-10.2V151H226V160.4z M226,150.5h-10.2v-9.4H226V150.5z M226,140.6h-10.2v-9.4H226
		V140.6z M236.7,170.2h-10.2v-9.4h10.2V170.2z M236.7,160.4h-10.2V151h10.2V160.4z M236.7,150.5h-10.2v-9.4h10.2V150.5z
		 M236.7,140.6h-10.2v-9.4h10.2V140.6z M247.4,170.2h-10.2v-9.4h10.2V170.2z M247.4,160.4h-10.2V151h10.2V160.4z M247.4,150.5h-10.2
		v-9.4h10.2V150.5z M247.4,140.6h-10.2v-9.4h10.2V140.6z M258.1,170.2h-10.2v-9.4h10.2V170.2z M258.1,160.4h-10.2V151h10.2V160.4z
		 M258.1,150.5h-10.2v-9.4h10.2V150.5z M258.1,140.6h-10.2v-9.4h10.2V140.6z M268.9,170.2h-10.2v-9.4h10.2V170.2z M268.9,160.4
		h-10.2V151h10.2V160.4z M268.9,150.5h-10.2v-9.4h10.2V150.5z M268.9,140.6h-10.2v-9.4h10.2V140.6z"/>
	<path class="st7" d="M189.2,165.3H183v15.3h6.2V165.3z"/>
	<path class="st10" d="M189.3,165.3h-2v15.3h2V165.3z"/>
	<path class="st7" d="M205.8,158.8h-6.2v21.8h6.2V158.8z"/>
	<path class="st10" d="M205.9,158.8h-2v21.8h2V158.8z"/>
	<path class="st7" d="M222.5,162.4h-6.2v18.2h6.2V162.4z"/>
	<path class="st10" d="M222.5,162.4h-2v18.2h2V162.4z"/>
	<path class="st7" d="M239.1,155.4h-6.2v25.2h6.2V155.4z"/>
	<path class="st10" d="M239.2,155.4h-2v25.2h2V155.4z"/>
	<path class="st7" d="M255.7,142.6h-6.2v38h6.2V142.6z"/>
	<path class="st10" d="M255.8,142.6h-2v38h2V142.6z"/>
	<path class="st5" d="M275.9,181.3H173c-0.3,0-0.5-0.2-0.5-0.5v-54.4c0-0.3,0.2-0.5,0.5-0.5s0.5,0.2,0.5,0.5v53.9h102.4
		c0.3,0,0.5,0.2,0.5,0.5S276.2,181.3,275.9,181.3z"/>
	<path class="st11" d="M175.7,167.5l10.4-6.2l15.8-6.5l17.5,3.6l16.6-7l25.5-19.5"/>
	<g class="st12">
		<path class="st13" d="M275.9,181.3H173c-0.3,0-0.5-0.2-0.5-0.5v-54.4c0-0.3,0.2-0.5,0.5-0.5s0.5,0.2,0.5,0.5v53.9h102.4
			c0.3,0,0.5,0.2,0.5,0.5S276.2,181.3,275.9,181.3z"/>
	</g>
	<path class="st5" d="M263.3,130.5l-4.8,1.7l1.9,2.5L263.3,130.5z"/>
	<path class="st7" d="M304.4,155.3l6.2,20.4c-2,0.6-4.1,0.9-6.2,0.9c-11.7,0-21.3-9.6-21.3-21.3s9.6-21.3,21.3-21.3
		c2.5,0,4.9,0.4,7.2,1.3L304.4,155.3z"/>
	<path class="st7" d="M304.4,155.3l7.3-20c2.7,1,5.2,2.5,7.3,4.5s3.8,4.4,4.9,7L304.4,155.3z"/>
	<path class="st7" d="M304.4,155.3l19.6-8.4c1.1,2.7,1.7,5.5,1.7,8.4c0,9.3-6.1,17.6-15,20.4L304.4,155.3z"/>
	<path class="st6" d="M304.4,155.3l6.2,20.4c-2,0.6-4.1,0.9-6.2,0.9c-11.7,0-21.3-9.6-21.3-21.3s9.6-21.3,21.3-21.3
		c2.5,0,4.9,0.4,7.2,1.3L304.4,155.3z"/>
	<path class="st14" d="M304.4,155.3l19.6-8.4c1.1,2.7,1.7,5.5,1.7,8.4c0,9.3-6.1,17.6-15,20.4L304.4,155.3z"/>
	<path class="st9" d="M271.7,207.1c0.1,0,0.2-0.1,0.2-0.2s-0.1-0.2-0.2-0.2h-2.3v-9.4h2.3c0.1,0,0.2-0.1,0.2-0.2
		c0-0.1-0.1-0.2-0.2-0.2h-2.3v-2.6c0-0.1-0.1-0.2-0.2-0.2c-0.1,0-0.2,0.1-0.2,0.2v2.6h-10.2v-2.6c0-0.1-0.1-0.2-0.2-0.2
		s-0.2,0.1-0.2,0.2v2.6h-10.2v-2.6c0-0.1-0.1-0.2-0.2-0.2s-0.2,0.1-0.2,0.2v2.6h-10.2v-2.6c0-0.1-0.1-0.2-0.2-0.2
		c-0.1,0-0.2,0.1-0.2,0.2v2.6H227v-2.6c0-0.1-0.1-0.2-0.2-0.2c-0.1,0-0.2,0.1-0.2,0.2v2.6h-10.2v-2.6c0-0.1-0.1-0.2-0.2-0.2
		c-0.1,0-0.2,0.1-0.2,0.2v2.6h-11v-2.6c0-0.1-0.1-0.2-0.2-0.2c-0.1,0-0.2,0.1-0.2,0.2v2.6h-10.2v-2.6c0-0.1-0.1-0.2-0.2-0.2
		c-0.1,0-0.2,0.1-0.2,0.2v2.6h-10.2v-2.6c0-0.1-0.1-0.2-0.2-0.2c-0.1,0-0.2,0.1-0.2,0.2v2.6H173v0.5h10.1v9.4H173v0.5h10.1v9.4H173
		v0.5h10.1v9.4H173v0.5h10.1v9.4H173v0.5h10.1v10.1c0,0.1,0.1,0.2,0.2,0.2c0.1,0,0.2-0.1,0.2-0.2V237h10.2v10.1
		c0,0.1,0.1,0.2,0.2,0.2c0.1,0,0.2-0.1,0.2-0.2V237h10.2v10.1c0,0.1,0.1,0.2,0.2,0.2s0.2-0.1,0.2-0.2V237h10.2v10.1
		c0,0.1,0.1,0.2,0.2,0.2c0.1,0,0.2-0.1,0.2-0.2V237H226v10.1c0,0.1,0.1,0.2,0.2,0.2c0.1,0,0.2-0.1,0.2-0.2V237h10.2v10.1
		c0,0.1,0.1,0.2,0.2,0.2c0.1,0,0.2-0.1,0.2-0.2V237h10.2v10.1c0,0.1,0.1,0.2,0.2,0.2c0.1,0,0.2-0.1,0.2-0.2V237h10.2v10.1
		c0,0.1,0.1,0.2,0.2,0.2s0.2-0.1,0.2-0.2V237h10.2v10.1c0,0.1,0.1,0.2,0.2,0.2s0.2-0.1,0.2-0.2V237h2.3c0.1,0,0.2-0.1,0.2-0.2
		c0-0.1-0.1-0.2-0.2-0.2h-2.3v-9.4h2.3c0.1,0,0.2-0.1,0.2-0.2s-0.1-0.2-0.2-0.2h-2.3V217h2.3c0.1,0,0.2-0.1,0.2-0.2
		c0-0.1-0.1-0.2-0.2-0.2h-2.3v-9.4h2.9V207.1z M193.8,236.3h-10.2v-9.4h10.2V236.3z M193.8,226.4h-10.2V217h10.2V226.4z
		 M193.8,216.5h-10.2v-9.4h10.2V216.5z M193.8,206.6h-10.2v-9.4h10.2V206.6z M204.5,236.3h-10.2v-9.4h10.2V236.3z M204.5,226.4
		h-10.2V217h10.2V226.4z M204.5,216.5h-10.2v-9.4h10.2V216.5z M204.5,206.6h-10.2v-9.4h10.2V206.6z M215.2,236.3H205v-9.4h10.2
		V236.3z M215.2,226.4H205V217h10.2V226.4z M215.2,216.5H205v-9.4h10.2V216.5z M215.2,206.6H205v-9.4h10.2V206.6z M226,236.3h-10.2
		v-9.4H226V236.3z M226,226.4h-10.2V217H226V226.4z M226,216.5h-10.2v-9.4H226V216.5z M226,206.6h-10.2v-9.4H226V206.6z
		 M236.7,236.3h-10.2v-9.4h10.2V236.3z M236.7,226.4h-10.2V217h10.2V226.4z M236.7,216.5h-10.2v-9.4h10.2V216.5z M236.7,206.6h-10.2
		v-9.4h10.2V206.6z M247.4,236.3h-10.2v-9.4h10.2V236.3z M247.4,226.4h-10.2V217h10.2V226.4z M247.4,216.5h-10.2v-9.4h10.2V216.5z
		 M247.4,206.6h-10.2v-9.4h10.2V206.6z M258.1,236.3h-10.2v-9.4h10.2V236.3z M258.1,226.4h-10.2V217h10.2V226.4z M258.1,216.5h-10.2
		v-9.4h10.2V216.5z M258.1,206.6h-10.2v-9.4h10.2V206.6z M268.9,236.3h-10.2v-9.4h10.2V236.3z M268.9,226.4h-10.2V217h10.2V226.4z
		 M268.9,216.5h-10.2v-9.4h10.2V216.5z M268.9,206.6h-10.2v-9.4h10.2V206.6z"/>
	<path class="st7" d="M173,236.3c0,0,6.5-9.9,10.6-9.9c4.3,0,6.5,5.5,10.2,5.5s6.3-12.1,10.7-12.1s6.8,15.1,11.2,15.1
		c4.4,0,8.7-18.3,13.4-18.3c4.7,0,5.2,5.8,7.6,5.8c2.8,0,4.9-15.7,11.2-15.7c6,0,6,9.9,10.7,9.9c4.7,0,3.7-15.5,10.7-15.5v46.1H173
		V236.3z"/>
	<path class="st14" d="M173,236.3c0,0,6.5-9.9,10.6-9.9c4.3,0,6.5,5.5,10.2,5.5s6.3-12.1,10.7-12.1s6.8,15.1,11.2,15.1
		c4.4,0,8.7-18.3,13.4-18.3c4.7,0,5.2,5.8,7.6,5.8c2.8,0,4.9-15.7,11.2-15.7c6,0,6,9.9,10.7,9.9c4.7,0,3.7-15.5,10.7-15.5v46.1H173
		V236.3z"/>
	<path class="st15" d="M173,236.3c0,0,6.5-9.9,10.6-9.9c4.3,0,6.5,5.5,10.2,5.5s6.3-12.1,10.7-12.1s6.8,15.1,11.2,15.1
		c4.4,0,8.7-18.3,13.4-18.3c4.7,0,5.2,5.8,7.6,5.8c2.8,0,4.9-15.7,11.2-15.7c6,0,6,9.9,10.7,9.9c4.7,0,3.7-15.5,10.7-15.5"/>
	<path class="st16" d="M173,237.6c1.3-1.4,2.7-2.8,4.1-4.1c1.7-1.6,3.8-3.8,6.2-4.1c1.8-0.2,3.1,1,4,2.4c1.3,2,2.5,6.9,5.4,7.3
		c2.6,0.3,4.9-4.5,6-6.4c1.8-3,3.5-6.1,5.5-9.1c1-1.5,2-2.9,3.2-4.2c2-2.3,4.6-4.1,7.1-1.3c2.8,3.1,3.5,7.4,5.7,10.8
		c0.4,0.7,0.9,1.3,1.5,1.7c1.2,0.6,2.5-0.3,3.3-1.2c1.9-1.9,3.2-4.2,4.6-6.5c1-1.6,2.4-4.6,4.7-4.6c2.6-0.1,3.9,5.4,6.5,4.5
		c0.5-0.2,0.9-0.6,1.2-1c2.4-2.8,3.6-6.3,5.1-9.5c0.2-0.5,0.5-0.9,0.8-1.3c2.9-3.2,5.3,3.4,6.2,5.1c1.4,2.9,2.9,6.3,6.7,4.5
		c3-1.4,5.2-2.7,8.6-2.7"/>
	<path class="st17" d="M173,237.6c1.3-1.4,2.7-2.8,4.1-4.1c1.7-1.6,3.8-3.8,6.2-4.1c1.8-0.2,3.1,1,4,2.4c1.3,2,2.5,6.9,5.4,7.3
		c2.6,0.3,4.9-4.5,6-6.4c1.8-3,3.5-6.1,5.5-9.1c1-1.5,2-2.9,3.2-4.2c2-2.3,4.6-4.1,7.1-1.3c2.8,3.1,3.5,7.4,5.7,10.8
		c0.4,0.7,0.9,1.3,1.5,1.7c1.2,0.6,2.5-0.3,3.3-1.2c1.9-1.9,3.2-4.2,4.6-6.5c1-1.6,2.4-4.6,4.7-4.6c2.6-0.1,3.9,5.4,6.5,4.5
		c0.5-0.2,0.9-0.6,1.2-1c2.4-2.8,3.6-6.3,5.1-9.5c0.2-0.5,0.5-0.9,0.8-1.3c2.9-3.2,5.3,3.4,6.2,5.1c1.4,2.9,2.9,6.3,6.7,4.5
		c3-1.4,5.2-2.7,8.6-2.7"/>
	<path class="st16" d="M173,236.3c0,0,5.3-4.7,10-4.7c4.8,0,6.5,2.3,10.8,2.3s7.3-9.9,10.7-9.9s6.4,7.5,10.7,7.5
		s10.8-11.9,14.7-11.9c3.9,0,5.1,3.6,7.1,3.6s6.2-19.2,11-19.2s7.9,14.8,11.3,14.8c3.5,0,5.6-9.4,10.1-9.3"/>
	<path class="st5" d="M275.9,247.3H173c-0.3,0-0.5-0.2-0.5-0.5v-54.4c0-0.3,0.2-0.5,0.5-0.5s0.5,0.2,0.5,0.5v53.9h102.4
		c0.3,0,0.5,0.2,0.5,0.5C276.4,247.1,276.2,247.3,275.9,247.3z"/>
	<g class="st12">
		<path class="st13" d="M275.9,247.3H173c-0.3,0-0.5-0.2-0.5-0.5v-54.4c0-0.3,0.2-0.5,0.5-0.5s0.5,0.2,0.5,0.5v53.9h102.4
			c0.3,0,0.5,0.2,0.5,0.5C276.4,247.1,276.2,247.3,275.9,247.3z"/>
	</g>
	<g class="st18">
		<path d="M323.1,200.5h-24.6v1h24.6V200.5z"/>
		<path d="M323.1,203.3h-24.6v1h24.6V203.3z"/>
		<path d="M323.1,206.2h-24.6v1h24.6V206.2z"/>
		<path d="M313.1,209h-14.6v1h14.6V209z"/>
	</g>
	<g class="st18">
		<path d="M323.1,217h-24.6v1h24.6V217z"/>
		<path d="M323.1,219.8h-24.6v1h24.6V219.8z"/>
		<path d="M323.1,222.7h-24.6v1h24.6V222.7z"/>
		<path d="M306.1,225.5h-7.6v1h7.6V225.5z"/>
	</g>
	<g class="st18">
		<path d="M323.1,233.5h-24.6v1h24.6V233.5z"/>
		<path d="M323.1,236.3h-24.6v1h24.6V236.3z"/>
		<path d="M323.1,239.2h-24.6v1h24.6V239.2z"/>
		<path d="M318.1,242h-19.6v1h19.6V242z"/>
	</g>
	<path class="st7" d="M364.6,38.9H333c-6,0-10.9,4.9-10.9,10.9v30.7c0,6,4.9,10.9,10.9,10.9h17.6l5.3,11.5l2-11.5h6.7
		c6,0,10.9-4.9,10.9-10.9V49.7C375.4,43.7,370.6,38.9,364.6,38.9z"/>
	<path class="st7" d="M356.3,66.4c1.3-3.3,4.3-5.1,6.9-4.1c2.6,1,3.6,4.4,2.3,7.7s-4.3,5.1-6.9,4.1
		C356.1,73.1,355.1,69.6,356.3,66.4z"/>
	<path class="st7" d="M335.6,58.5l4.3-11.5c0,0,5.3,8.1,11.6,10.6l-2.2,5.7l-0.3,0.9l-2.2,5.7c-6.3-2.4-15.7,0.1-15.7,0.1
		L335.6,58.5z"/>
	<path class="st19" d="M356.3,66.4c1.3-3.3,4.3-5.1,6.9-4.1c2.6,1,3.6,4.4,2.3,7.7s-4.3,5.1-6.9,4.1
		C356.1,73.1,355.1,69.6,356.3,66.4z"/>
	<path class="st19" d="M335.6,58.5l4.3-11.5c0,0,5.3,8.1,11.6,10.6l-2.2,5.7l-0.3,0.9l-2.2,5.7c-6.3-2.4-15.7,0.1-15.7,0.1
		L335.6,58.5z"/>
	<path class="st5" d="M357.6,72.6c0,0-3.3,6.7-6.9,9.5c-0.3,0.2-0.6,0.2-0.9-0.1l-3.9-3.7c-0.3-0.3-0.3-0.8,0.1-1.1
		c1.6-1,5.1-3.4,7-6.4C355.4,67.1,357.6,72.6,357.6,72.6z"/>
	<path class="st13" d="M331.2,70.3c1.4,0.6,4.6-4.2,7.1-10.7s3.3-12.2,1.9-12.7c-1.4-0.6-4.6,4.2-7.1,10.7
		C330.5,64,329.7,69.7,331.2,70.3z"/>
	<path class="st20" d="M339.9,49.6c0,1.8-0.8,4.9-2,8.3c-0.1,0.3-0.3,0.7-0.4,1.1c-0.1,0.3-0.2,0.6-0.4,0.9c-1.3,3.3-2.8,6-4,7.4
		c-0.7,0.9-1.3,1.3-1.7,1.1c-1.2-0.4-0.3-5.4,1.9-11.1c2.2-5.7,4.9-9.9,6-9.5C339.7,48,339.9,48.7,339.9,49.6z"/>
	<path class="st21" d="M339.9,49.6c0,1.8-0.8,4.9-2,8.3c-0.1,0.3-0.3,0.7-0.4,1.1c-0.1,0.3-0.2,0.6-0.4,0.9c-1.3,3.3-2.8,6-4,7.4
		c0-2,0.9-5.5,2.4-9.4C336.9,54.3,338.6,51.2,339.9,49.6z"/>
	<path class="st5" d="M359.4,75.1c0,0,1.3-1.2,3.2-6.3c2.1-5.4,1.8-6.9,1.8-6.9l-14.1-5.4c0,0,0.1,1.9-1.9,7
		c-1.9,5.1-3.2,6.2-3.2,6.2L359.4,75.1z"/>
	<path class="st13" d="M337.1,59.9c0.1-0.3,0.2-0.6,0.4-0.9c0.1-0.4,0.3-0.7,0.4-1.1l-1.4-0.2c-0.3-0.1-0.6,0.2-0.7,0.4l-0.1,0.2
		c-0.1,0.3-0.1,0.6,0.2,0.8L337.1,59.9z"/>
	<path class="st21" d="M337.1,59.9c0.1-0.3,0.2-0.6,0.4-0.9c0.1-0.4,0.3-0.7,0.4-1.1l-1.4-0.2c-0.3-0.1-0.6,0.2-0.7,0.4l-0.1,0.2
		c-0.1,0.3-0.1,0.6,0.2,0.8L337.1,59.9z"/>
	<path class="st10" d="M359.4,75.1c0,0,1.3-1.2,3.2-6.3c2.1-5.4,1.8-6.9,1.8-6.9l-14.1-5.4c0,0,0.1,1.9-1.9,7
		c-1.9,5.1-3.2,6.2-3.2,6.2L359.4,75.1z"/>
	<path class="st22" d="M372,360.3h-7.1l-0.3-16.6h7.1L372,360.3z"/>
	<path class="st5" d="M364.9,359.5h7.8c0.3,0,0.5,0.2,0.6,0.5l1.3,6.4c0.1,0.7-0.4,1.3-1.1,1.3c-2.8,0-6.9-0.2-10.4-0.2
		c-4.1,0-7.7,0.2-12.6,0.2c-2.9,0-3.7-3-2.4-3.2c5.6-1.2,10.2-1.4,15.1-4.3C363.7,359.7,364.3,359.5,364.9,359.5z"/>
	<path class="st7" d="M374.4,354.9h-12.7c-1.3-16.3-5.7-70.7-6-89.3c-0.2-14.9,0.9-45,1.6-61.5H382c-1.3,16.4-3.7,46.7-4.5,63.2
		C376.6,285.5,374.9,338.8,374.4,354.9z"/>
	<path class="st6" d="M355.8,265.6c0.2,18.6,4.6,73,6,89.3h12.7c0.4-12.2,1.5-45.5,2.4-68.9c0.3-7.6,0.6-14.2,0.8-18.7
		c0.5-10,1.6-24.9,2.6-38.8c0.7-9.2,1.4-17.9,1.9-24.5h-24.7C356.7,220.6,355.6,250.7,355.8,265.6z"/>
	<path class="st7" d="M359.9,352.4c-0.1,0,0.6,5,0.6,5h14.7l0.5-4.5L359.9,352.4z"/>
	<path class="st9" d="M376.8,286c0.3-7.6,0.6-14.2,0.8-18.7c0.5-10,1.3-21.1,2.3-35c-2.8-0.8-7.4-2.8-8.2-4.3l3.2,4.3
		C374.3,243,374.9,267.9,376.8,286z"/>
	<path class="st22" d="M398.2,360.3H391l-1-16.6h7.1L398.2,360.3z"/>
	<path class="st7" d="M399.9,354.9h-12.7c-0.7-5.7-2-16.1-3.5-28c-2.7-22-5.8-49.2-6.4-61.3c-0.4-7.5-0.7-19-0.9-30.5
		c-0.2-11.3-0.2-22.8-0.3-31h23c0.4,20.5,0.1,46.6,0,63.2C399.1,285.5,399.7,338.8,399.9,354.9z"/>
	<path class="st6" d="M399.9,354.9h-12.7c-0.7-5.7-2-16.1-3.5-28c-2.7-22-5.8-49.2-6.4-61.3c-0.4-7.5-0.7-19-0.9-30.5
		c-0.2-11.3-0.2-22.8-0.3-31h23c0.4,20.5,0.1,46.6,0,63.2C399.1,285.5,399.7,338.8,399.9,354.9z"/>
	<path class="st7" d="M385.4,352.4c-0.1,0,0.8,5,0.8,5h14.7l0.3-4.5L385.4,352.4z"/>
	<path class="st23" d="M359.9,352.4c-0.1,0,0.6,5,0.6,5h14.7l0.5-4.5L359.9,352.4z"/>
	<path class="st23" d="M385.4,352.4c-0.1,0,0.8,5,0.8,5h14.7l0.3-4.5L385.4,352.4z"/>
	<path class="st5" d="M391,359.5h7.8c0.3,0,0.5,0.2,0.6,0.5l1.5,6.4c0.2,0.7-0.3,1.3-1,1.3c-2.8,0-6.9-0.2-10.4-0.2
		c-4.1,0-7.7,0.2-12.6,0.2c-2.9,0-3.8-3-2.6-3.2c5.6-1.2,10.1-1.4,14.9-4.3C389.8,359.7,390.4,359.5,391,359.5z"/>
	<path class="st22" d="M322.9,158.6l-7.8-5.5l5.8-6c0,0,6,3.1,5.4,8.6L322.9,158.6z"/>
	<path class="st22" d="M312.1,147l5.4-3.4l3.5,3.5l-5.9,6L312.1,147z"/>
	<path class="st5" d="M361.3,144.4c-7.4,2.2-11,15.2-17.1,27.4l-17.8-17.6l-5.6,5c0,0,16.3,25.8,23.9,25.8
		c9.6,0,19.5-26.6,19.5-26.6L361.3,144.4z"/>
	<path class="st24" d="M364.2,158.4c0,0-1.6,4.2-4.1,9.3c-2.4,4.9-5.7,10.7-9.3,14.1c-2,2-4.1,3.2-6.2,3.2
		c-7.7,0-23.9-25.8-23.9-25.8l5.6-5l17.8,17.6c6.1-12.3,9.7-25.3,17.1-27.4L364.2,158.4z"/>
	<path class="st21" d="M360.2,167.7c-2.4,4.9-5.7,10.7-9.3,14.1c0.4-11.8,6.2-23.3,6.2-23.3C358.7,161.5,359.7,164.7,360.2,167.7z"
		/>
	<path class="st5" d="M403.2,146.4c-6.3,35-4,57.7-4,57.7s-29.8,0.7-41.8,0c-6.4-42.5,4-59.7,4-59.7s4.4-0.9,9.5-1.3
		c0.7-0.1,1.4-0.1,2.1-0.1c4.5-0.2,11.9,0.4,17,1c1.1,0.1,2.2,0.3,3.2,0.4C398.5,145.2,403.2,146.4,403.2,146.4z"/>
	<path class="st24" d="M403.2,146.4c-0.8,4.3-1.4,8.5-2,12.4c-0.8,6.2-1.4,11.9-1.8,17c-0.1,1.5-0.2,3-0.3,4.4
		c-0.3,5.2-0.4,9.7-0.4,13.3c0,6.8,0.4,10.5,0.4,10.5s-29.8,0.7-41.9,0c-6.4-42.5,4-59.7,4-59.7s4.4-0.9,9.5-1.3
		c0.7-0.1,1.4-0.1,2.1-0.1c4.5-0.2,11.9,0.4,17,1c1.1,0.1,2.1,0.3,3.2,0.4C398.5,145.2,403.2,146.4,403.2,146.4z"/>
	<path class="st22" d="M387.4,143.6c-2.6,2.7-6.6,4.9-13.1,4.7c-5-0.2-5.6-3.3-4.8-5c3-0.6,4.4-1.9,4.8-3.6c0.5-1.8-0.2-3.9-1-6
		l8.4-7l1.4-1.2c0,0.4-0.1,0.8-0.1,1.3c-0.1,1.5-0.1,3.2,0,4.9C383.3,136.2,384.4,141.3,387.4,143.6z"/>
	<path class="st21" d="M383.1,131.6c-1.6,3.2-4.3,7-8.7,8.1c0.5-1.8-0.2-3.9-1-6l8.4-7c0.4,0,0.9,0,1.3,0.1
		C383,128.2,383,129.9,383.1,131.6z"/>
	<path class="st13" d="M379,149.1c-1.5,0.9-3,1.7-4.5,2.6c-0.6,11.4-0.6,22.8-0.1,34.2c-0.8,1.3-1.5,2.6-2.3,3.9
		c-1-1.4-1.9-2.8-2.9-4.2c0.6-11.4,1.8-22.7,3.5-33.9c-0.5-1-1-2-1.5-3c1.5-0.5,3-1.1,4.5-1.6C376.8,147.7,377.9,148.4,379,149.1z"
		/>
	<path class="st21" d="M374.2,177.2c11.1,0.4,20.2,1.9,25,1.8c-0.3,5.2-0.4,11-0.4,14.6c-21.1-4.1-27.6-10-27.6-10L374.2,177.2z"/>
	<path class="st21" d="M401.2,158.8c-0.8,6.2-1.4,11.9-1.8,17c-4-8.2-1-17.9-1-17.9L401.2,158.8z"/>
	<path class="st5" d="M363.9,112.7c-1.2,2.8-1.4,8.8,2.9,7.3C371,118.5,366,107.8,363.9,112.7z"/>
	<path class="st22" d="M384.4,118.9c-0.4,7.5-0.2,11.9-4,15.8c-5.6,5.8-15,2.4-16.8-5.1c-1.7-6.7-0.8-17.9,6.5-20.9
		C377.3,105.7,384.7,111.4,384.4,118.9z"/>
	<path class="st5" d="M373,121c0,0.6-0.3,1.1-0.7,1.1c-0.4,0-0.7-0.5-0.7-1.1s0.3-1.1,0.7-1.1C372.6,119.9,373,120.4,373,121z"/>
	<path class="st5" d="M366.1,121c0,0.6-0.3,1.1-0.7,1.1s-0.7-0.5-0.7-1.1s0.3-1.1,0.7-1.1C365.7,119.9,366.1,120.4,366.1,121z"/>
	<path class="st25" d="M368.3,121.3c0,0-1.4,3.4-2.9,5c1.1,1,2.9,0.5,2.9,0.5V121.3z"/>
	<path class="st5" d="M375.1,118.8c-0.1,0-0.3,0-0.3-0.1c-1-1.3-2.3-1.2-2.3-1.2c-0.2,0-0.4-0.1-0.4-0.3s0.1-0.4,0.3-0.4
		c0.1,0,1.7-0.1,2.9,1.5c0.1,0.2,0.1,0.4-0.1,0.5C375.2,118.7,375.1,118.8,375.1,118.8z"/>
	<path class="st5" d="M363.1,118.6c-0.1,0-0.1,0-0.2,0c-0.2-0.1-0.3-0.3-0.2-0.5c0.8-1.8,2.5-2,2.6-2c0.2,0,0.4,0.1,0.4,0.3
		c0,0.2-0.1,0.4-0.3,0.4c-0.1,0-1.3,0.2-2,1.6C363.3,118.6,363.2,118.6,363.1,118.6z"/>
	<path class="st5" d="M372.6,112.9c0,0,2.1-1.5,3,0.1s0.9,5.9,0.9,5.9l0.4-0.8c0,0,2.7,9.5,6.5,7.1c3.9-2.4,9.5-12,0.5-16.9
		c0,0-1-2.3-6.9-3.4c-6-1.1-13.2,2.6-14.4,6.5c-1.2,3.9,0.5,6.1,0.5,6.1c0.3-1.4,1.1-2.3,1.1-2.3c0.1,1.3,1.5,1.8,1.5,1.8
		c0-1.6,0.5-2.3,0.5-2.3c0.1,0.8,1,1.9,1,1.9c0.4-4.1,3.2-4.9,4.1-4.9C372.3,111.7,372.6,112.9,372.6,112.9z"/>
	<path class="st22" d="M387.3,125.1c-0.6,1.9-2,3.4-3.5,4.2c-2.2,1.1-3.9-0.7-3.7-3.1c0.2-2.1,1.5-5.3,4-5.4
		C386.6,120.6,388,122.9,387.3,125.1z"/>
	<path class="st5" d="M368.5,129.4c0.7,0.7,1.8,2.2,1.8,2.2c0.1-0.1,0.3-0.1,0.4-0.2c2-1,2.6-2.1,2.6-3.1c0-0.5-0.1-1-0.3-1.3
		c-0.2-0.4-0.4-0.7-0.4-0.7c-0.7,1.2-2.5,2.2-3.5,2.8C368.8,129.2,368.5,129.4,368.5,129.4z"/>
	<path class="st13" d="M369.2,129l0.5,0.6c1.9-1,3.1-1.9,3.4-2.7c-0.2-0.4-0.4-0.7-0.4-0.7C371.9,127.4,370.2,128.5,369.2,129z"/>
	<path class="st26" d="M370.7,131.3c2-1,2.6-2.1,2.6-3.1c-0.7,0.4-1.4,0.9-2,1.6C370.9,130.3,370.8,130.8,370.7,131.3z"/>
	<path class="st5" d="M386.2,140.6c0,0-2.3,3-10.8,5.8c0,0-2.1-2.1-2.5-5.5l-4.5,2c0,0-1.4,4.1,0.7,7l6.2-2.8l4.8,4.1
		c0,0,7.8-4.9,9.2-7.4L386.2,140.6z"/>
	<path class="st5" d="M372.8,194.1h-21.3c-0.8,0-1.5-0.7-1.6-1.5l-3-28.3c-0.1-0.8,0.5-1.5,1.4-1.5h21.3c0.8,0,1.5,0.7,1.6,1.5
		l3,28.3C374.2,193.4,373.6,194.1,372.8,194.1z"/>
	<path class="st23" d="M372.8,194.1h-21.3c-0.8,0-1.5-0.7-1.6-1.5l-3-28.3c-0.1-0.8,0.5-1.5,1.4-1.5h21.3c0.8,0,1.5,0.7,1.6,1.5
		l3,28.3C374.2,193.4,373.6,194.1,372.8,194.1z"/>
	<path class="st10" d="M371.9,194.1h-20.4c-0.8,0-1.5-0.7-1.6-1.5l-3-28.3c-0.1-0.8,0.5-1.5,1.4-1.5h20.4c0.8,0,1.5,0.7,1.6,1.5
		l3,28.3C373.4,193.4,372.7,194.1,371.9,194.1z"/>
	<path class="st5" d="M359.5,176.1c-1.3,0-2.2,1-2.1,2.3c0.1,1.3,1.2,2.3,2.5,2.3c1.3,0,2.2-1,2.1-2.3
		C360.7,178.4,359.6,177.4,359.5,176.1z"/>
	<path class="st27" d="M364.1,165.1h-11.3c-0.5,0-1.1-0.3-1.3-0.8l-0.7-1.4h14.9l-0.4,1.4C365.1,164.7,364.7,165.1,364.1,165.1z"/>
	<path class="st22" d="M366.9,175.7l-4.9-0.4l0.2,6.6l4.1,2.2l9.5-0.9l0.8-4.4C373.5,174.1,366.9,175.7,366.9,175.7z"/>
	<path class="st5" d="M398.2,148.5c-5,6.3,0.5,18.8,3.1,32.2l-24.8-3.2l-1.4,7.4c0,0,28.6,10.6,34.7,5.9c7.6-5.8,2.7-27-1.3-37.4
		c-1.9-5.1-5.3-7-5.3-7S400,146.1,398.2,148.5z"/>
	<path class="st24" d="M398.2,148.5c-5,6.3,0.5,18.8,3.1,32.2l-24.8-3.2l-1.4,7.4c0,0,28.6,10.6,34.7,5.9c7.6-5.8,2.7-27-1.3-37.4
		c-1.9-5.1-5.3-7-5.3-7S400,146.1,398.2,148.5z"/>
	<path class="st5" d="M383.8,205.3c5.2-0.1,10.4-0.2,15.7-0.5c0,0.9,0.1,1.8,0.1,2.7c-5.3,0.2-10.5,0.4-15.8,0.5V205.3z"/>
	<path class="st5" d="M363,207.7c-2-0.1-4-0.1-6-0.2c0-0.9,0.1-1.8,0.1-2.7c2,0.1,3.9,0.2,5.9,0.2V207.7z"/>
	<path class="st5" d="M363.9,205.1c6.2,0.2,12.4,0.3,18.6,0.2v2.7c-6.2,0.1-12.4,0-18.6-0.2V205.1z"/>
	<path class="st13" d="M369.2,208.2l4.7,0.1c0.1,0,0.3-0.1,0.3-0.2v-2.7c0-0.1-0.1-0.2-0.2-0.2l-4.7-0.1c-0.1,0-0.3,0.1-0.3,0.2v2.7
		C368.9,208.1,369,208.2,369.2,208.2z"/>
	<path class="st7" d="M122.5,157.6c7-7,7-18.4,0-25.5c-7-7-18.4-7-25.5,0c-7,7-7,18.4,0,25.5C104.1,164.7,115.5,164.7,122.5,157.6z"
		/>
	<path class="st13" d="M112.5,141.1c0-1.5-1.3-2.5-3.4-2.5c-2,0-3.5,0.8-4.4,2.1l-2.6-1.7c1.5-2.1,3.9-3.3,7.3-3.3
		c4,0,6.6,1.8,6.6,4.9c0,4.4-4.6,4.8-4.6,8H108C108,144.6,112.5,143.8,112.5,141.1z M107.5,152.9c0-1.2,0.9-2.1,2.2-2.1
		c1.2,0,2.1,0.9,2.1,2.1c0,1.2-0.9,2.1-2.1,2.1C108.4,155,107.5,154.1,107.5,152.9z"/>
	<path class="st7" d="M109.8,157.8l-2.5,3.3l2.5,7.3l2.5-7.3L109.8,157.8z"/>
	<path class="st5" d="M125,300.4l1.8,67.2h-2.5l-3-67.2H125z"/>
	<path class="st5" d="M116.5,301.9H93.8l-7.2,65.7h-2.9l6.6-70.3l26.2,0.7V301.9z"/>
	<path class="st5" d="M118.2,298h32.2h1.7l7,69.6h-1.6l-0.3-2.5l0.3,2.5h-1.6l-8.2-65.5h-26.4l-0.2,65.5h-1.7h-0.1h-1.7l-1.1-69.6
		H118.2z"/>
	<path class="st10" d="M119.3,367.6l-1.1-69.6h33.9l7,69.6h-1.6l-8.1-65.5h-28.1l-0.2,65.5H119.3z"/>
	<path class="st10" d="M93.8,301.9H92l-7.1,65.7h1.7L93.8,301.9z"/>
	<path class="st5" d="M129,287.6l-7.1-59.4c-0.4-3.6-3.1-6.4-6.3-6.4H82.4c-0.8,0-1.5,0.8-1.5,1.7v62.1c0,7.3,5.2,13.2,11.6,13.2h37
		h29.4c0.4,0,0.7-0.4,0.7-0.8c0-3.3-2.3-5.9-5.2-5.9h-20.9C131.3,292.2,129.3,290.2,129,287.6z"/>
	<path class="st28" d="M80.9,223.6v62.1c0,7.3,5.2,13.2,11.6,13.2h66.4c0.4,0,0.7-0.4,0.7-0.8c0-1.6-0.6-3.1-1.5-4.2
		c-0.9-1.1-2.2-1.7-3.7-1.7h-20.9c-0.5,0-0.9-0.1-1.4-0.2c-1.7-0.6-2.9-2.2-3.2-4.3l-7.1-59.4c-0.4-3.6-3.1-6.4-6.3-6.4H82.4
		c-0.6,0-1.1,0.3-1.3,0.9C81,223,80.9,223.2,80.9,223.6z"/>
	<path class="st29" d="M87.1,221.8v56.9c0,7.3,5.2,13.2,11.6,13.2h33.6c-1.7-0.6-2.9-2.2-3.2-4.3l-7.1-59.4
		c-0.4-3.6-3.1-6.4-6.3-6.4H87.1z"/>
	<path class="st5" d="M129.3,262.3c-0.4-1.8-3.1-6.8-3.1-6.8l-28.4,1.6c0,0-10.1,28.1,2.1,35.3c3.7,2.2,9.7,3,16.4,3.2
		c7.7,0.2,14.1-6,14.1-13.8C130.5,281.8,130.5,267,129.3,262.3z"/>
	<path class="st5" d="M103.9,282.7V294c10.1,2.9,31.1,1.8,43.6,0.8c5.6-0.5,9.9-5.2,9.9-10.8v-9.3c0-3.1-1.9-5.8-4.8-6.9
		c-6-2.3-17.1-5.7-28.6-5.5C112.9,262.5,103.9,271.5,103.9,282.7z"/>
	<path class="st30" d="M156.4,315.5c-3.7,9.9-7.9,22.4-12.5,38.1c-0.1,0.3-0.2,0.6-0.2,0.9c-0.1,0.3-0.2,0.6-0.3,0.9l-4.7-1.1
		l-1.8-0.4c0,0,0.1-0.7,0.2-1.9c0-0.3,0.1-0.5,0.1-0.8c1.3-11,6.1-51.1,10.9-59.5c0,0-5.5,1-9.6,0.3c-3-0.5-6.6-21.2-6.6-21.2
		s7.6-2.2,15.4-2.2h0.1c0,0,15.2,3.6,18.1,7.9C169.2,281.6,165.9,289.7,156.4,315.5z"/>
	<path class="st7" d="M150.3,367.6l-11-4.8l-3.5-3.9l-1.1,1.5l-1.3-0.6c-0.6-4.9,1.8-7.1,3-8.2c0.1-0.1,0.2-0.2,0.4-0.3l0.1-0.1
		c0,0,0,0,0.1,0c0,0,0.1-0.1,0.2-0.1c0,0,0.1,0,0.1-0.1l6,2.7c0,0,0.1,0.3,0.3,0.8c0.6,1.7,2.1,5.6,3.7,7.6c0.1,0.1,0.1,0.2,0.2,0.3
		c0.2,0.2,0.4,0.4,0.6,0.6C152.8,366.6,150.3,367.6,150.3,367.6z"/>
	<path class="st30" d="M147.6,362.3c-1.7,0.7-4.1-1-6-3.2c-1-1.3-2-3.3-2.9-4.9c-0.6-1-1.1-1.9-1.5-2.4c-0.3-0.2-0.5-0.3-0.7-0.2
		c0.1-0.1,0.2-0.2,0.4-0.3l0.1-0.1c0,0,0,0,0.1,0c0,0,0.1-0.1,0.2-0.1c0,0,0.1,0,0.1-0.1c0.6-0.5,1.3-1,1.3-1l4.8,2.1
		c0,0,0.1,0.6,0.4,1.4c0.6,2.2,2,6.5,3.5,8.5C147.5,362.1,147.5,362.2,147.6,362.3z"/>
	<path class="st9" d="M156.4,315.5c-3.7,9.9-7.9,22.4-12.5,38.1c0.6,2.2,2,6.5,3.5,8.5c0.1,0.1,0.1,0.2,0.2,0.3
		c0.2,0.2,0.4,0.4,0.6,0.6c4.6,3.7,2.1,4.7,2.1,4.7l-11-4.8l-3.5-3.9l-1.1,1.5l-1.3-0.6c-0.6-4.9,1.8-7.1,3-8.2
		c0.1-0.1,0.2-0.2,0.4-0.3l0.1-0.1c0,0,0,0,0.1,0c0,0,0.1-0.1,0.2-0.1c1.3-11,6.1-51.1,10.9-59.5c0,0-5.5,1-9.6,0.3
		c-3-0.5-6.6-21.2-6.6-21.2s7.6-2.2,15.4-2.2h0.1c0,0-1.8,0.2-4.3,3.3c0,0,10.2,1.9,13,7.3C157.3,281.3,157,297.2,156.4,315.5z"/>
	<path class="st30" d="M132,270.7c0,0,17.5,2.7,20.4,7c5,7.4-4,21.9-20.6,79.8l-6.5-1.6c0,0,3.7-52.6,9.3-62.2c0,0-7.5,1-11.6,0.3
		C117.7,293.1,114.4,275.4,132,270.7z"/>
	<path class="st7" d="M124.3,367.2h1.4l0.4-1.8l4.7,2.1h12c0,0,1.9-1.9-3.8-3.4c-0.3-0.1-0.5-0.2-0.8-0.3c-3-1.4-7.4-6.3-7.4-6.3
		h-6.6c0,0-0.2,0.3-0.5,0.9C123,360,121.8,363,124.3,367.2z"/>
	<path class="st30" d="M123.7,358.5c0.9-0.9,4.8,3.3,7.7,4.8c2.6,1.3,5.5,1.9,6.8,0.5c-3-1.4-7.8-7.7-7.8-7.7h-5.3
		C125.1,356.2,124.1,357.9,123.7,358.5z"/>
	<path class="st5" d="M164.2,267.2v2.4c0,0.6-0.7,0.9-1.3,0.9h-47.6c-0.6,0-1.3-0.3-1.3-0.9v-2.4H164.2z"/>
	<path class="st14" d="M164.2,267.2v2.4c0,0.6-0.7,0.9-1.3,0.9h-47.6c-0.6,0-1.3-0.3-1.3-0.9v-2.4H164.2z"/>
	<path class="st21" d="M164.2,267.2v2.4c0,0.6-0.7,0.9-1.3,0.9h-31.4c-0.6,0-1.3-0.3-1.3-0.9v-2.4H164.2z"/>
	<path class="st5" d="M172.1,242.4l-5.7,25.7c-0.2,0.8-1,1.5-1.8,1.5h-31c-0.8,0-1.4-0.8-1.2-1.6l5.7-25.5c0.2-0.8,1-1.3,1.8-1.3h31
		C171.8,241.2,172.3,241.6,172.1,242.4z"/>
	<path class="st14" d="M172.1,242.4l-5.7,25.7c-0.2,0.8-1,1.5-1.8,1.5h-29.9c-0.8,0-1.4-0.8-1.2-1.6l5.7-25.5c0.2-0.8,1-1.3,1.8-1.3
		h30C171.8,241.2,172.3,241.6,172.1,242.4z"/>
	<path class="st21" d="M156.9,255.5c0,2.2-2.4,4-4.1,4s-2.8-1.8-2.3-4s2.2-3.9,3.9-4c-0.5,2.2,0.6,4,2.3,4H156.9z"/>
	<path class="st31" d="M128.7,213.4c3,2.7,6.2,5.4,9.3,7.9c1.6,1.2,3.2,2.4,4.7,3.5c0.8,0.5,1.6,1,2.2,1.3l0.5,0.2l0.1,0.1
		c-0.1,0-0.1,0-0.2,0H145c-0.1,0-0.3,0-0.4,0c-0.2,0-0.5,0.1-0.8,0.2c-0.2,0.1-0.7,0.3-1.1,0.6c-0.4,0.3-0.7,0.7-1,1.2
		c-0.1,0.2-0.2,0.5-0.3,0.7c-0.1,0.2-0.1,0.3-0.1,0.5c0,0.2,0,0.3,0,0.5v0.3c0,0.2,0,0.3,0.1,0.5c0,0.1,0.1,0.3,0.1,0.4l0.1,0.1
		c-0.1-0.2-0.3-0.6-0.5-0.9c-0.2-0.4-0.5-0.8-0.8-1.1c-0.6-0.8-1.2-1.6-1.9-2.4c-1.3-1.6-2.7-3.2-4-4.8c-2.7-3.2-5.5-6.4-8.2-9.6
		c-0.8-0.9-0.7-2.4,0.3-3.2c0.8-0.7,2-0.7,2.8-0.1c3.4,2.6,6.7,5.3,9.9,8.2c1.6,1.4,3.2,2.9,4.7,4.4c0.8,0.8,1.5,1.6,2.3,2.4
		c0.4,0.4,0.8,0.9,1.2,1.3c0.4,0.5,0.8,1,1.2,1.7l0.2,0.3l0.2,0.4c0.1,0.1,0.1,0.3,0.2,0.5c0.1,0.2,0.2,0.5,0.2,0.8
		c0,0.2,0.1,0.5,0.1,0.7c0,0.1,0,0.2,0,0.4c0,0.2,0,0.4-0.1,0.6c0,0.2-0.1,0.4-0.1,0.6c-0.1,0.2-0.2,0.5-0.3,0.8
		c-0.3,0.5-0.7,1-1.1,1.3c-0.4,0.3-1,0.6-1.3,0.7c-0.3,0.1-0.7,0.2-1,0.2c-0.2,0-0.4,0-0.6,0h-0.3h-0.2l-0.4-0.1h-0.2h-0.1l-0.3-0.1
		l-0.6-0.2c-0.3-0.1-0.7-0.2-1-0.3c-1.3-0.5-2.4-1-3.4-1.6c-2.1-1.2-3.9-2.4-5.7-3.7c-3.6-2.6-6.9-5.4-10.1-8.4
		c-1.8-1.7-1.9-4.6-0.2-6.4C124,211.9,126.8,211.7,128.7,213.4z"/>
	<path class="st7" d="M137.6,219.6c-0.3,6.4-5,13-5,13l-1.1-0.6l-5.5-3c0,0-0.1-0.3-0.3-0.8c-0.2-0.5-0.4-1.1-0.7-1.9
		c-1.6-4.1-4.4-11.8-4.9-15.1C126.5,210.4,129.7,213.3,137.6,219.6z"/>
	<path class="st6" d="M137.6,219.6c-0.3,6.4-5,13-5,13l-1.1-0.6l-5.5-3c0,0-0.1-0.3-0.3-0.8c-0.2-0.5-0.4-1.1-0.7-1.9
		c-1.6-4.1-4.4-11.8-4.9-15.1C126.5,210.4,129.7,213.3,137.6,219.6z"/>
	<path class="st21" d="M131.5,232.1l-5.5-3c0,0-0.1-0.3-0.3-0.8c0-1.5,0.2-3.1,0.5-4.8C126.1,223.4,130.8,226.1,131.5,232.1z"/>
	<path class="st7" d="M92.7,220.5c0,0.2,0.1,0.3,0.1,0.5c1.4,5.6,2.4,10.4,3.2,14.5c0.9,5.2,1.4,9.5,1.6,13.2c0.2,3.5,0,6.5-0.3,9.3
		l29.8,1c1.2-9.7,1.8-15.5,2.2-21.4c0.6-7,0.3-9.2,0.4-12.1c0-5.2-3.7-11.4-8.9-12.3c-1.5-0.2-3-0.5-4.4-0.7c-0.2,0-0.5-0.1-0.8-0.1
		c-4.5-0.4-11.2-0.4-16.4,0.8C96.1,213.8,92.1,216.3,92.7,220.5z"/>
	<path class="st6" d="M92.7,220.5c0,0.2,0.1,0.3,0.1,0.5c1.4,5.6,2.4,10.4,3.2,14.5c0.9,5.2,1.4,9.5,1.6,13.2c0.2,3.5,0,6.5-0.3,9.3
		l29.8,1c1.2-9.7,1.8-15.5,2.2-21.4c0.6-7,0.3-9.2,0.4-12.1c0-5.2-3.7-11.4-8.9-12.3c-1.5-0.2-3-0.5-4.4-0.7c-0.2,0-0.5-0.1-0.8-0.1
		c-4.5-0.4-11.2-0.4-16.4,0.8C96.1,213.8,92.1,216.3,92.7,220.5z"/>
	<path class="st21" d="M97.6,248.6c-0.2-3.7-0.7-8-1.6-13.2c3.3-4.7,6.5-8.6,6.5-8.6S109.5,241.3,97.6,248.6z"/>
	<path class="st31" d="M100.6,226.3l-0.9,11.5c-0.1,1.9-0.2,3.8-0.3,5.6c-0.1,1.8-0.1,3.7,0.1,5.1l-0.2-0.8c-0.2-0.4-0.1,0,0.1,0.2
		c0.2,0.3,0.5,0.6,0.9,0.9c0.7,0.7,1.5,1.3,2.3,2c1.7,1.3,3.5,2.7,5.3,4c1.8,1.3,3.7,2.6,5.5,3.9l5.6,3.8c1,0.7,1.3,2.1,0.6,3.1
		c-0.6,0.9-1.7,1.2-2.7,0.8c-2.2-0.9-4.3-1.8-6.4-2.8s-4.2-2-6.3-3.1c-2.1-1.1-4.1-2.3-6.1-3.6c-1-0.7-2-1.4-3.1-2.2
		c-0.5-0.4-1-0.9-1.6-1.5c-0.5-0.6-1.1-1.2-1.8-2.6c-0.1-0.2-0.1-0.4-0.2-0.6v-0.2c-0.5-2.5-0.6-4.5-0.7-6.6c-0.1-2.1-0.1-4.1,0-6.1
		c0-2,0.2-4,0.3-6c0.2-2,0.3-4,0.6-6c0.3-2.5,2.6-4.2,5-3.9C99,221.8,100.7,223.9,100.6,226.3z"/>
	<path class="st32" d="M126.4,261.5l-1.9-1.2c-0.7-0.4-1.6-0.5-2.4-0.2l-3.6,1.5c-1.4,0.6-2.5,1.9-2.8,3.4l-0.2,0.9
		c3,2.1,7.9,2.2,7.9,2.2l1.4,0.2c1.2,0.2,2.3-0.6,2.5-1.8l0.4-2.7C127.7,263,127.2,262,126.4,261.5z"/>
	<path class="st7" d="M99.4,213.1c-6,1.4-8.2,6.2-9.6,16.6c2.7,3.1,11.7,4.3,11.7,4.3S104.9,218.4,99.4,213.1z"/>
	<path class="st32" d="M101.1,212.7c-0.7,0.1,1.7,7.4,12,8.6c10.2,1.2,8.7-8,7.7-10.2C120.7,211.1,108.4,211.7,101.1,212.7z"/>
	<path class="st5" d="M101.4,179.2c0,0,5.2-6.9,16.1-4.4c10.8,2.4,11.9,21.3,7.1,28.6c0,0-12.1,0.3-24.8,4.4c0,0-6.2-13.2-4.3-21.5
		C97.3,178,101.4,179.2,101.4,179.2z"/>
	<path class="st32" d="M105,197.8c1,4.4,2.2,12.4-0.7,15.2c0,0,4.1-0.5,12.7,5.2c2.7-3.5,0.8-4.8,0.8-4.8c-4.9-1.3-4.9-4.9-4.2-8.3
		L105,197.8z"/>
	<path class="st21" d="M108.5,200.8l5.1,4.4c-0.2,0.8-0.3,1.6-0.3,2.4c-1.9-0.3-4.5-2.5-4.8-4.4
		C108.4,202.2,108.4,201.3,108.5,200.8z"/>
	<path class="st32" d="M101.6,189c1.1,7.1,1.4,10.1,5.3,13.6c5.9,5.3,14.2,2.9,15.3-4.3c0.9-6.4-1-16.9-8.2-19.4
		C106.9,176.3,100.5,181.9,101.6,189z"/>
	<path class="st5" d="M110.5,190.5c0.1,0.6,0.4,1.1,0.8,1.1c0.4,0,0.6-0.5,0.6-1.1c-0.1-0.6-0.4-1.1-0.8-1.1
		S110.5,189.9,110.5,190.5z"/>
	<path class="st5" d="M117.9,189.9c0.1,0.6,0.4,1.1,0.8,1.1c0.4,0,0.6-0.5,0.6-1.1c-0.1-0.6-0.4-1.1-0.8-1.1
		S117.9,189.3,117.9,189.9z"/>
	<path class="st5" d="M118.4,188.9l1.4-0.5C119.7,188.4,119.1,189.5,118.4,188.9z"/>
	<path class="st33" d="M115.8,191.3c0,0,1.3,2.5,2.5,3.7c-0.7,0.8-2,0.5-2,0.5L115.8,191.3z"/>
	<path class="st5" d="M109,186.8c0.1,0,0.2,0,0.2-0.1c1-1.1,2.3-0.8,2.3-0.8c0.2,0,0.4-0.1,0.4-0.3c0-0.2-0.1-0.4-0.3-0.4
		c-0.1,0-1.6-0.4-2.9,1c-0.1,0.1-0.1,0.4,0,0.5C108.9,186.7,108.9,186.8,109,186.8z"/>
	<path class="st5" d="M120.6,185.9c0.1,0,0.2,0,0.2-0.1c0.2-0.1,0.2-0.3,0.1-0.5c-1.2-1.6-2.8-1.6-2.8-1.6c-0.2,0-0.3,0.2-0.3,0.4
		c0,0.2,0.2,0.3,0.4,0.3c0.1,0,1.3,0,2.2,1.3C120.4,185.8,120.5,185.9,120.6,185.9z"/>
	<path class="st5" d="M110.9,189.4l1.4-0.5C112.3,188.9,111.7,190.1,110.9,189.4z"/>
	<path class="st5" d="M103.4,193.1c0,0,5.1-4.8,3.3-11.4c0,0,9.5-4.7,14.2,4.9c0,0,0.1-8.5-9.2-9.4c-9.4-0.9-19.2,12.5-8,21.1
		L103.4,193.1z"/>
	<path class="st32" d="M99.8,194.9c0.9,1.4,2.3,2.2,3.6,2.5c1.9,0.4,2.6-1.6,1.8-3.4c-0.7-1.7-2.5-3.8-4.3-3.4
		C99.2,191.1,98.7,193.3,99.8,194.9z"/>
	<path class="st34" d="M106,181.8c0,0,11.6-3.7,16.3,8.7"/>
	<path class="st35" d="M115.8,198.3c0,0-3.2,0-4.4-2.1"/>
	<path class="st35" d="M104.3,212.3c0,0,3.7,9.4,13.5,18.4c0,0,3.1-11.5-1.8-19.4"/>
	<path class="st13" d="M118.1,230.5l0.8,0.9c0.2,0.2,0.2,0.4,0.1,0.6l-0.7,1.1c-0.2,0.3-0.5,0.3-0.7,0.1l-0.8-0.8
		c-0.2-0.1-0.2-0.4-0.1-0.6l0.6-1.2C117.5,230.3,117.9,230.2,118.1,230.5z"/>
	<path class="st6" d="M99.4,213.1c-6,1.4-8.2,6.2-9.6,16.6c2.7,3.1,11.7,4.3,11.7,4.3S104.9,218.4,99.4,213.1z"/>
	<path class="st32" d="M130.8,211.1l-2.4-6.2l-5,5.4c0,0,2.5,5.4,5.2,4L130.8,211.1z"/>
	<path class="st32" d="M123.2,200.9l-2.8,6.2l3,3.2l5-5.4L123.2,200.9z"/>
	<path class="st31" d="M138.4,232.1c1,0.6,2.1,1.1,3.4,1.6c0.3,0.1,0.7,0.2,1,0.3l0.6,0.2l0.3,0.1h0.1h0.2l0.4,0.1h0.2h0.3
		c0.2,0,0.4,0,0.6,0c0.3,0,0.7-0.1,1-0.2c0.3-0.1,0.8-0.3,1.3-0.7c0.4-0.3,0.8-0.8,1.1-1.3c0.1-0.2,0.3-0.6,0.3-0.8
		c0.1-0.2,0.1-0.4,0.1-0.6c0-0.2,0.1-0.4,0.1-0.6c0-0.2,0-0.2,0-0.4c0-0.2,0-0.5-0.1-0.7c-0.1-0.3-0.1-0.6-0.2-0.8
		c-0.1-0.2-0.1-0.4-0.2-0.5l-0.2-0.4l-0.2-0.3c-0.5-0.8-0.8-1.2-1.2-1.7c-0.4-0.5-0.8-0.9-1.2-1.3c-0.8-0.8-1.5-1.6-2.3-2.4
		c-1.6-1.5-3.1-3-4.7-4.4c-3.2-2.9-6.5-5.6-9.9-8.2c-1-0.8-2.4-0.6-3.1,0.4c-0.7,0.9-0.6,2,0.1,2.8c2.7,3.2,5.5,6.4,8.2,9.6
		c1.4,1.6,2.7,3.2,4,4.8c0.7,0.8,1.3,1.6,1.9,2.4c0.3,0.4,0.6,0.8,0.8,1.1c0.2,0.4,0.5,0.7,0.5,0.9c0,0,0-0.1-0.1-0.1
		c0-0.1-0.1-0.3-0.1-0.4s-0.1-0.3-0.1-0.5v-0.3c0-0.2,0-0.3,0-0.5c0-0.2,0.1-0.3,0.1-0.5c0-0.1,0.2-0.5,0.3-0.7
		c0.3-0.5,0.6-0.8,1-1.2c0.4-0.3,0.9-0.5,1.1-0.6c0.3-0.1,0.6-0.2,0.8-0.2c0.1,0,0.3,0,0.4,0h0.3c0.1,0,0.1,0,0.2,0l-0.1-0.1
		l-0.5-0.2c-0.7-0.3-1.5-0.8-2.2-1.3C141.1,223.8,136.3,231,138.4,232.1z"/>
</g>
</svg>
