<svg width="630" height="630" viewBox="0 0 630 630" fill="none" xmlns="http://www.w3.org/2000/svg">
<g clip-path="url(#clip0_366_1702)">
<path d="M315 569.026C455.295 569.026 569.026 455.295 569.026 315C569.026 174.706 455.295 60.9746 315 60.9746C174.706 60.9746 60.9744 174.706 60.9744 315C60.9744 455.295 174.706 569.026 315 569.026Z" stroke="#E5E5E5" stroke-width="2" stroke-miterlimit="10" stroke-dasharray="6 6"/>
<path d="M315 593C468.535 593 593 468.535 593 315C593 161.465 468.535 37 315 37C161.465 37 36.9998 161.465 36.9998 315C36.9998 468.535 161.465 593 315 593Z" stroke="#E5E5E5" stroke-width="2" stroke-miterlimit="10" stroke-dasharray="6 6"/>
<path d="M315 543.767C441.344 543.767 543.766 441.344 543.766 315C543.766 188.656 441.344 86.2339 315 86.2339C188.656 86.2339 86.2336 188.656 86.2336 315C86.2336 441.344 188.656 543.767 315 543.767Z" stroke="#E5E5E5" stroke-width="2" stroke-miterlimit="10" stroke-dasharray="6 6"/>
<path d="M386.71 242.919C426.52 282.525 426.69 346.904 387.084 386.714C347.478 426.525 283.099 426.694 243.288 387.088C239.99 383.807 236.967 380.357 234.211 376.765C209.26 344.21 206.651 300.006 226.434 265.016C226.661 264.602 226.897 264.197 227.133 263.783C229.23 260.2 231.563 256.71 234.136 253.344C236.798 249.854 239.731 246.493 242.91 243.297C282.516 203.486 346.895 203.317 386.705 242.923L386.71 242.919Z" fill="#E9EDFB"/>
<path d="M73.2949 246.395L73.3839 246.395C75.2847 246.4 77.1767 246.476 79.0419 246.631C114.588 249.547 142.531 279.333 142.531 315.631C142.531 319.914 142.139 324.098 141.4 328.167C135.506 360.423 107.252 384.867 73.2949 384.867C35.0556 384.867 4.05912 353.87 4.05912 315.631C4.05913 278.104 33.916 247.553 71.167 246.431C71.8704 246.404 72.5826 246.395 73.2949 246.395Z" fill="#E9EDFB"/>
<path d="M605.666 363.334C632.705 336.295 632.705 292.456 605.666 265.417C578.627 238.378 534.788 238.378 507.749 265.417C480.71 292.456 480.71 336.295 507.749 363.334C534.788 390.374 578.627 390.374 605.666 363.334Z" fill="#E9EDFB"/>
<path d="M121.457 365.284C147.374 339.233 148.576 297.914 125.143 270.429C152.685 296.226 195.932 295.617 222.722 268.684C224.088 267.318 225.379 265.902 226.608 264.451C226.666 264.509 226.733 264.558 226.795 264.611C206.772 300.037 209.42 344.789 234.679 377.749C234.536 377.909 234.398 378.074 234.256 378.234C231.171 372.772 227.289 367.635 222.624 362.987C195.171 335.676 148.749 337.84 121.452 365.28" fill="#E9EDFB"/>
<path d="M509.476 264.011C483.153 290.466 481.934 332.436 505.732 360.348C477.763 334.15 433.839 334.769 406.63 362.119C405.242 363.508 403.928 364.946 402.686 366.42C402.628 366.362 402.562 366.313 402.495 366.255C422.83 330.277 420.141 284.826 394.482 251.35C394.682 251.613 395.003 252.031 395.225 252.334C398.911 257.168 401.979 261.625 406.724 266.343C434.604 294.081 481.751 291.887 509.471 264.015" fill="#E9EDFB"/>
<path d="M73.2904 255.49L73.3705 255.49C75.0221 255.494 76.6647 255.561 78.2851 255.695C109.161 258.232 133.432 284.096 133.427 315.627C133.427 319.348 133.089 322.981 132.443 326.511C127.324 354.529 102.782 375.759 73.2904 375.763C40.0815 375.763 13.1537 348.836 13.1537 315.627C13.1537 282.418 39.0843 256.496 71.443 255.521C72.0529 255.499 72.6716 255.494 73.2904 255.49Z" fill="white"/>
<path d="M556.707 255.49L556.788 255.49C558.439 255.494 560.082 255.561 561.702 255.695C592.578 258.232 616.849 284.096 616.844 315.627C616.844 319.348 616.506 322.981 615.86 326.511C610.741 354.529 586.199 375.759 556.707 375.763C523.498 375.763 496.571 348.836 496.571 315.627C496.571 283.032 522.501 256.496 554.86 255.521C555.47 255.499 556.089 255.494 556.707 255.49Z" fill="white"/>
<path d="M556.708 354.141C577.357 354.141 594.115 336.885 594.115 315.631C594.115 294.378 577.357 277.122 556.708 277.122C536.058 277.122 519.3 294.378 519.3 315.631C519.3 336.885 536.058 354.141 556.708 354.141Z" fill="#2CA01C"/>
<path d="M529.694 315.631C529.694 323.872 536.203 330.577 544.211 330.577H546.307V325.03H544.211C539.124 325.106 535.007 320.869 535.007 315.713C534.931 310.475 539.049 306.238 544.06 306.238H549.222V335.355C549.222 338.433 551.615 340.901 554.611 340.901V300.692H544.211C536.203 300.692 529.694 307.39 529.694 315.637V315.631ZM569.198 300.685H567.102V306.232H569.198C574.209 306.307 578.326 310.544 578.251 315.782C578.175 320.863 574.209 325.024 569.198 325.099H564.187V295.907C564.187 292.829 561.794 290.361 558.798 290.361V330.57H569.198C577.206 330.57 583.715 323.872 583.715 315.625C583.715 307.378 577.206 300.679 569.198 300.679V300.685Z" fill="white"/>
<path fill-rule="evenodd" clip-rule="evenodd" d="M65.6637 290.716C68.5975 287.662 72.6832 285.767 77.1971 285.767C83.2156 285.767 88.4283 289.11 91.2361 294.09C93.7291 292.976 96.4299 292.403 99.1622 292.403C109.99 292.403 118.785 301.261 118.785 312.196C118.785 323.131 109.99 331.989 99.1622 331.989C97.8401 331.989 96.5495 331.857 95.2841 331.605C92.8289 335.987 88.1324 338.958 82.7812 338.958C80.603 338.958 78.4562 338.467 76.4983 337.516C74.0053 343.365 68.2071 347.476 61.452 347.476C54.697 347.476 48.414 343.031 46.1099 336.78C45.0837 336.994 44.0387 337.107 42.9873 337.107C34.5954 337.107 27.8088 330.22 27.8088 321.765C27.8088 316.08 30.8622 311.132 35.3949 308.463C34.4317 306.247 33.9407 303.854 33.9407 301.443C33.9407 291.679 41.8667 283.791 51.6248 283.791C57.3411 283.791 62.453 286.516 65.6637 290.747" fill="#00A1E0"/>
<path fill-rule="evenodd" clip-rule="evenodd" d="M41.0546 316.792C40.998 316.943 41.0735 316.974 41.0924 316.999C41.2624 317.125 41.4387 317.213 41.6086 317.314C42.5404 317.805 43.4155 317.95 44.3283 317.95C46.1918 317.95 47.3564 316.955 47.3564 315.356V315.325C47.3564 313.845 46.047 313.31 44.8194 312.926L44.662 312.876C43.7365 312.574 42.937 312.315 42.937 311.705V311.673C42.937 311.151 43.4029 310.767 44.1269 310.767C44.9264 310.767 45.8833 311.031 46.494 311.371C46.494 311.371 46.6765 311.491 46.7395 311.314C46.7773 311.22 47.0857 310.383 47.1235 310.295C47.1613 310.194 47.0983 310.125 47.0354 310.087C46.3303 309.659 45.3608 309.369 44.3598 309.369H44.1709C42.4648 309.369 41.2687 310.402 41.2687 311.881V311.913C41.2687 313.468 42.5845 313.977 43.8184 314.33L44.0135 314.393C44.9075 314.67 45.6881 314.909 45.6881 315.539V315.57C45.6881 316.149 45.1845 316.577 44.3724 316.577C44.0576 316.577 43.0566 316.578 41.9675 315.885C41.8353 315.809 41.7597 315.753 41.659 315.69C41.6086 315.658 41.4701 315.602 41.4135 315.772L41.0483 316.792M68.3583 316.792C68.3016 316.943 68.3772 316.974 68.396 316.999C68.566 317.125 68.7423 317.213 68.9123 317.314C69.844 317.805 70.7191 317.95 71.6319 317.95C73.4954 317.95 74.6601 316.955 74.6601 315.356V315.325C74.6601 313.845 73.3506 313.31 72.123 312.926L71.9656 312.876C71.0402 312.574 70.2406 312.315 70.2406 311.705V311.673C70.2406 311.151 70.7065 310.767 71.4305 310.767C72.23 310.767 73.1869 311.031 73.7976 311.371C73.7976 311.371 73.9802 311.491 74.0431 311.314C74.0809 311.22 74.3894 310.383 74.4208 310.295C74.4586 310.194 74.3957 310.125 74.3327 310.087C73.6276 309.659 72.6581 309.369 71.6571 309.369H71.4683C69.7622 309.369 68.566 310.402 68.566 311.881V311.913C68.566 313.468 69.8818 313.977 71.1157 314.33L71.3109 314.393C72.2111 314.67 72.9855 314.909 72.9855 315.539V315.57C72.9855 316.149 72.4818 316.577 71.6697 316.577C71.3549 316.577 70.3477 316.578 69.2648 315.885C69.1326 315.809 69.0571 315.753 68.9563 315.69C68.9249 315.671 68.7675 315.608 68.7108 315.772L68.3457 316.792M86.9993 313.663C86.9993 314.563 86.8293 315.274 86.5019 315.784C86.1746 316.282 85.6772 316.527 84.9847 316.527C84.2922 316.527 83.7949 316.288 83.4738 315.791C83.1464 315.287 82.9827 314.576 82.9827 313.669C82.9827 312.762 83.1464 312.057 83.4738 311.56C83.7949 311.063 84.2922 310.83 84.9847 310.83C85.6772 310.83 86.1746 311.069 86.5019 311.56C86.8356 312.057 86.9993 312.769 86.9993 313.669M88.5543 311.994C88.4032 311.478 88.1639 311.019 87.8429 310.641C87.5281 310.257 87.1252 309.955 86.6467 309.734C86.1746 309.514 85.608 309.401 84.9721 309.401C84.3363 309.401 83.776 309.514 83.2975 309.734C82.8253 309.955 82.4161 310.263 82.1014 310.641C81.7866 311.025 81.5474 311.478 81.39 311.994C81.2389 312.511 81.1633 313.071 81.1633 313.669C81.1633 314.267 81.2389 314.827 81.39 315.344C81.5411 315.86 81.7803 316.319 82.1014 316.697C82.4161 317.081 82.8253 317.383 83.2975 317.597C83.776 317.811 84.3363 317.925 84.9721 317.925C85.608 317.925 86.1683 317.811 86.6404 317.597C87.1126 317.383 87.5218 317.075 87.8366 316.697C88.1514 316.313 88.3906 315.86 88.548 315.344C88.6991 314.827 88.7746 314.267 88.7746 313.669C88.7746 313.071 88.6991 312.511 88.548 311.994M101.353 316.275C101.303 316.124 101.152 316.181 101.152 316.181C100.925 316.269 100.686 316.345 100.428 316.389C100.169 316.426 99.8799 316.452 99.5777 316.452C98.8285 316.452 98.2242 316.225 97.7961 315.784C97.3617 315.337 97.1224 314.626 97.1287 313.656C97.1287 312.775 97.3428 312.114 97.7268 311.604C98.1045 311.1 98.6837 310.842 99.4581 310.842C100.1 310.842 100.591 310.918 101.108 311.075C101.108 311.075 101.227 311.126 101.29 310.968C101.429 310.59 101.529 310.32 101.674 309.904C101.718 309.785 101.611 309.734 101.58 309.722C101.378 309.64 100.9 309.514 100.541 309.457C100.201 309.407 99.8106 309.382 99.3699 309.382C98.7152 309.382 98.136 309.495 97.6324 309.715C97.135 309.936 96.7132 310.244 96.3796 310.622C96.0459 311 95.7941 311.459 95.6178 311.975C95.4478 312.492 95.366 313.058 95.366 313.656C95.366 314.947 95.7123 315.992 96.4048 316.76C97.091 317.528 98.1297 317.918 99.4833 317.918C100.283 317.918 101.101 317.755 101.687 317.522C101.687 317.522 101.8 317.465 101.75 317.339L101.366 316.282M104.092 312.806C104.167 312.303 104.306 311.887 104.52 311.56C104.841 311.063 105.338 310.792 106.024 310.792C106.711 310.792 107.176 311.063 107.504 311.56C107.724 311.887 107.819 312.322 107.85 312.806H104.073H104.092ZM109.342 311.705C109.21 311.207 108.882 310.704 108.668 310.471C108.328 310.106 107.995 309.848 107.667 309.709C107.189 309.508 106.673 309.401 106.157 309.401C105.495 309.401 104.897 309.514 104.413 309.741C103.928 309.967 103.519 310.276 103.198 310.666C102.877 311.056 102.637 311.51 102.48 312.038C102.329 312.555 102.247 313.128 102.247 313.719C102.247 314.311 102.329 314.89 102.486 315.407C102.644 315.923 102.902 316.37 103.254 316.747C103.601 317.125 104.048 317.421 104.583 317.629C105.111 317.837 105.76 317.944 106.496 317.937C108.02 317.937 108.826 317.591 109.153 317.409C109.21 317.377 109.266 317.32 109.197 317.157L108.851 316.193C108.801 316.049 108.65 316.099 108.65 316.099C108.272 316.238 107.737 316.496 106.484 316.489C105.665 316.489 105.061 316.244 104.677 315.866C104.287 315.476 104.098 314.915 104.066 314.11H109.348C109.348 314.11 109.487 314.11 109.499 313.977C109.499 313.921 109.682 312.895 109.342 311.705ZM61.8739 312.806C61.9494 312.303 62.0879 311.887 62.302 311.56C62.6231 311.063 63.1204 310.792 63.8066 310.792C64.4928 310.792 64.9587 311.063 65.2861 311.56C65.5001 311.887 65.6008 312.322 65.6323 312.806H61.855H61.8739ZM67.1243 311.705C66.9921 311.207 66.6648 310.704 66.4507 310.471C66.1108 310.106 65.7771 309.848 65.4497 309.709C64.9713 309.508 64.4551 309.401 63.9388 309.401C63.2778 309.401 62.6797 309.514 62.195 309.741C61.7102 309.967 61.301 310.276 60.9799 310.666C60.6589 311.056 60.4196 311.51 60.2622 312.038C60.1111 312.555 60.0293 313.128 60.0293 313.719C60.0293 314.311 60.1111 314.89 60.2685 315.407C60.4259 315.923 60.684 316.37 61.0303 316.747C61.3765 317.125 61.8235 317.421 62.3586 317.629C62.8875 317.837 63.5296 317.944 64.2725 317.937C65.796 317.937 66.6018 317.591 66.9292 317.409C66.9858 317.377 67.0425 317.32 66.9733 317.157L66.627 316.193C66.5766 316.049 66.4255 316.099 66.4255 316.099C66.0478 316.238 65.5127 316.496 64.2599 316.489C63.4415 316.489 62.8371 316.244 62.4531 315.866C62.0628 315.476 61.8739 314.915 61.8424 314.11H67.1243C67.1243 314.11 67.2628 314.11 67.2754 313.977C67.2754 313.921 67.458 312.895 67.1181 311.705H67.1243ZM50.479 316.25C50.2713 316.086 50.2461 316.042 50.1768 315.935C50.0698 315.772 50.0194 315.545 50.0194 315.249C50.0194 314.79 50.1705 314.456 50.4916 314.229C50.4916 314.229 50.9449 313.833 52.0214 313.845C52.4999 313.852 52.9783 313.896 53.4505 313.965V316.363C53.4505 316.363 52.7832 316.508 52.0277 316.552C50.9575 316.615 50.479 316.244 50.4853 316.244L50.479 316.25ZM52.5754 312.536C52.3614 312.523 52.0844 312.511 51.7507 312.511C51.2974 312.511 50.863 312.567 50.4538 312.674C50.0446 312.788 49.6732 312.958 49.3521 313.184C49.0311 313.411 48.7729 313.707 48.5841 314.053C48.3952 314.399 48.3008 314.808 48.3008 315.268C48.3008 315.728 48.3826 316.143 48.54 316.47C48.6974 316.798 48.9366 317.081 49.2262 317.295C49.5221 317.509 49.8809 317.667 50.2965 317.761C50.712 317.855 51.1778 317.906 51.6941 317.906C52.2355 317.906 52.7769 317.862 53.2931 317.774C53.7401 317.698 54.1808 317.61 54.6215 317.516C54.7977 317.478 54.9929 317.421 54.9929 317.421C55.1251 317.39 55.1125 317.251 55.1125 317.251V312.435C55.1125 311.377 54.8292 310.59 54.2689 310.106C53.7149 309.621 52.9028 309.375 51.8514 309.375C51.4548 309.375 50.819 309.426 50.435 309.508C50.435 309.508 49.2829 309.728 48.8107 310.106C48.8107 310.106 48.7037 310.169 48.7603 310.313L49.1318 311.314C49.1759 311.447 49.3081 311.403 49.3081 311.403C49.3081 311.403 49.3458 311.39 49.3962 311.359C50.4098 310.805 51.6941 310.823 51.6941 310.823C52.2606 310.823 52.7013 310.937 52.9972 311.163C53.2868 311.384 53.4316 311.717 53.4316 312.422V312.643C52.9783 312.58 52.5628 312.542 52.5628 312.542V312.529L52.5754 312.536ZM95.026 309.816C95.0575 309.741 95.0261 309.659 94.9505 309.627C94.8624 309.596 94.4154 309.501 94.0691 309.476C93.4081 309.432 93.0367 309.545 92.7093 309.697C92.3819 309.841 92.0231 310.081 91.8216 310.358V309.715C91.8216 309.627 91.7587 309.558 91.6705 309.558H90.317C90.2289 309.558 90.1659 309.627 90.1659 309.715V317.572C90.1659 317.66 90.2352 317.73 90.3233 317.73H91.7083C91.7964 317.73 91.8657 317.66 91.8657 317.572V313.625C91.8657 313.096 91.9224 312.574 92.042 312.24C92.1553 311.913 92.3127 311.654 92.5015 311.466C92.6841 311.283 92.9108 311.151 93.1563 311.075C93.3892 311.006 93.6222 310.974 93.8677 310.974C94.1447 310.974 94.4469 311.044 94.4469 311.044C94.5476 311.056 94.6042 310.993 94.642 310.899C94.7302 310.66 94.9883 309.936 95.0386 309.791" fill="#FFFFFE"/>
<path fill-rule="evenodd" clip-rule="evenodd" d="M82.1076 306.177C81.9376 306.127 81.7613 306.083 81.5851 306.052C81.3458 306.014 81.1066 305.995 80.8674 305.995C79.9168 305.995 79.1613 306.266 78.6325 306.794C78.1099 307.323 77.7511 308.129 77.5748 309.187L77.5119 309.546H76.3157C76.3157 309.546 76.1709 309.546 76.1395 309.697L75.9443 310.792C75.9317 310.899 75.9758 310.962 76.1143 310.962H77.2789L76.0954 317.56C76.0009 318.089 75.8939 318.529 75.7806 318.863C75.6673 319.19 75.554 319.436 75.4155 319.612C75.2833 319.782 75.1511 319.908 74.9307 319.984C74.7481 320.046 74.5404 320.072 74.3075 320.072C74.1815 320.072 74.0116 320.053 73.8857 320.028C73.7598 320.002 73.6968 319.977 73.6024 319.933C73.6024 319.933 73.4639 319.883 73.4135 320.015C73.3694 320.128 73.061 320.978 73.0232 321.085C72.9854 321.192 73.0358 321.274 73.105 321.293C73.2624 321.35 73.3757 321.381 73.5898 321.431C73.8857 321.501 74.1312 321.507 74.3641 321.507C74.8489 321.507 75.2896 321.438 75.661 321.306C76.0324 321.173 76.3535 320.94 76.6368 320.626C76.9453 320.286 77.1341 319.933 77.323 319.448C77.5056 318.97 77.663 318.372 77.7889 317.679L78.9787 310.956H80.7163C80.7163 310.956 80.8611 310.956 80.8926 310.805L81.0877 309.709C81.1003 309.602 81.0562 309.539 80.9177 309.539H79.2306C79.2368 309.501 79.3124 308.91 79.5075 308.349C79.5894 308.11 79.7468 307.921 79.879 307.789C80.0049 307.663 80.156 307.569 80.3197 307.512C80.5022 307.455 80.6911 307.43 80.8863 307.43C81.0437 307.43 81.201 307.449 81.3207 307.474C81.4843 307.512 81.5473 307.525 81.5914 307.537C81.7613 307.588 81.7865 307.537 81.818 307.455L82.2209 306.347C82.265 306.228 82.1643 306.177 82.1265 306.165M58.5687 317.572C58.5687 317.66 58.5057 317.73 58.4176 317.73H57.02C56.9319 317.73 56.8689 317.66 56.8689 317.572V306.316C56.8689 306.228 56.9319 306.159 57.02 306.159H58.4176C58.5057 306.159 58.5687 306.228 58.5687 306.316V317.572Z" fill="#FFFFFE"/>
<path d="M315 422.104C374.152 422.104 422.104 374.152 422.104 315C422.104 255.848 374.152 207.896 315 207.896C255.848 207.896 207.896 255.848 207.896 315C207.896 374.152 255.848 422.104 315 422.104Z" fill="#E9EDFB"/>
<path d="M315 415C370.228 415 415 370.228 415 315C415 259.772 370.228 215 315 215C259.772 215 215 259.772 215 315C215 370.228 259.772 415 315 415Z" fill="white"/>
<path fill-rule="evenodd" clip-rule="evenodd" d="M288.456 278.471C297.679 259.32 317.113 252.327 333.315 256.365C349.452 260.388 363.918 276.103 363.541 296.968C364.587 297.229 365.632 297.454 366.678 297.68C368.915 298.159 371.137 298.638 373.243 299.437C385.066 303.918 392.328 316.191 391.13 328.878C389.801 342.938 380.099 353.366 367.077 355.197C365.625 355.4 364.136 355.509 362.669 355.509C331.739 355.523 300.802 355.531 269.872 355.523C251.688 355.523 237.584 340.461 238.826 321.877C239.69 308.972 246.234 299.771 257.882 294.513C257.919 294.499 257.955 294.484 257.991 294.462C258.768 294.114 259.407 293.831 259.647 292.712C262.436 279.931 275.798 272.618 287.854 278.26C287.963 278.318 288.079 278.355 288.238 278.406C288.304 278.427 288.369 278.449 288.449 278.478L288.456 278.471ZM298.936 336.104H263.757V325.53H289.371C291.615 329.844 294.92 333.49 298.936 336.104ZM335.312 321.681C336.503 318.82 337.157 315.675 337.157 312.364C337.157 312.32 337.157 312.269 337.157 312.226C337.157 312.081 337.157 311.935 337.157 311.776C337.157 311.717 337.157 311.659 337.157 311.594C337.157 311.471 337.142 311.34 337.142 311.209C337.142 311.136 337.142 311.071 337.135 310.998V310.984C337.135 310.853 337.121 310.73 337.113 310.592C337.113 310.548 337.113 310.505 337.099 310.468C337.099 310.468 337.099 310.447 337.099 310.439C337.099 310.432 337.099 310.425 337.099 310.41C337.084 310.25 337.077 310.098 337.055 309.945C337.055 309.931 337.055 309.924 337.055 309.916C337.055 309.916 337.055 309.895 337.055 309.88V309.837C337.041 309.677 337.019 309.51 337.004 309.357V309.343C337.004 309.343 337.004 309.328 337.004 309.314C337.004 309.306 337.004 309.292 337.004 309.277C336.983 309.089 336.961 308.907 336.925 308.718C336.925 308.689 336.925 308.675 336.917 308.646V308.631C336.917 308.631 336.917 308.616 336.91 308.602C336.91 308.602 336.91 308.587 336.91 308.573C336.896 308.449 336.874 308.326 336.852 308.21C336.852 308.188 336.852 308.159 336.837 308.137C336.837 308.115 336.837 308.086 336.823 308.057C336.808 307.97 336.787 307.876 336.772 307.789C336.758 307.716 336.743 307.651 336.729 307.578C336.729 307.578 336.729 307.571 336.729 307.563C336.729 307.563 336.729 307.556 336.729 307.549C336.729 307.549 336.729 307.549 336.729 307.542C336.729 307.52 336.729 307.505 336.714 307.491C336.714 307.491 336.714 307.476 336.714 307.469C336.714 307.462 336.714 307.455 336.714 307.447C336.699 307.367 336.685 307.28 336.663 307.2C336.663 307.171 336.649 307.142 336.641 307.113C336.627 307.084 336.627 307.055 336.62 307.026C336.605 306.975 336.598 306.924 336.583 306.874C336.547 306.706 336.503 306.539 336.467 306.372C336.467 306.358 336.453 306.351 336.453 306.336C336.409 306.155 336.358 305.98 336.315 305.806C336.293 305.726 336.271 305.646 336.242 305.566L336.22 305.486L336.206 305.443C336.191 305.399 336.184 305.363 336.169 305.319C336.133 305.203 336.097 305.094 336.06 304.985C336.046 304.942 336.039 304.898 336.017 304.862C335.988 304.76 335.951 304.659 335.915 304.557L335.843 304.361C335.843 304.346 335.828 304.324 335.821 304.31C335.821 304.295 335.813 304.288 335.806 304.274C335.799 304.245 335.784 304.216 335.777 304.186C335.763 304.128 335.734 304.07 335.712 304.005C335.661 303.852 335.603 303.693 335.545 303.547C335.508 303.438 335.465 303.33 335.414 303.228C335.392 303.177 335.37 303.119 335.349 303.068C335.276 302.887 335.196 302.712 335.116 302.538C335.051 302.385 334.978 302.218 334.906 302.066L334.855 301.957C334.826 301.892 334.79 301.819 334.753 301.754C334.717 301.688 334.688 301.616 334.652 301.55C334.652 301.543 334.652 301.536 334.637 301.521C334.637 301.521 334.637 301.521 334.637 301.514C334.637 301.514 334.637 301.507 334.637 301.499C334.637 301.499 334.637 301.499 334.637 301.492C334.564 301.34 334.485 301.194 334.412 301.049C334.397 301.013 334.376 300.977 334.354 300.933C334.347 300.918 334.339 300.904 334.332 300.889C334.274 300.781 334.216 300.672 334.15 300.57C334.027 300.345 333.896 300.127 333.773 299.909C333.7 299.786 333.62 299.655 333.54 299.531C333.54 299.524 333.533 299.51 333.526 299.502C333.526 299.488 333.511 299.473 333.504 299.459C333.439 299.35 333.373 299.241 333.301 299.139C333.272 299.103 333.25 299.059 333.221 299.023C333.134 298.892 333.047 298.762 332.959 298.631C332.93 298.595 332.909 298.558 332.887 298.522C332.865 298.486 332.836 298.449 332.814 298.413C332.756 298.326 332.698 298.246 332.633 298.159C332.596 298.108 332.56 298.057 332.524 298.006C332.48 297.941 332.429 297.883 332.378 297.818C332.328 297.752 332.284 297.694 332.233 297.629C332.153 297.52 332.066 297.418 331.979 297.309L331.805 297.091C331.805 297.091 331.805 297.091 331.805 297.084L331.768 297.033C331.689 296.939 331.616 296.844 331.529 296.75C331.42 296.626 331.318 296.503 331.209 296.387L331.195 296.372C331.064 296.22 330.933 296.075 330.795 295.929L330.766 295.9H330.759V295.893C330.628 295.755 330.498 295.617 330.367 295.486C330.229 295.341 330.084 295.196 329.931 295.058C329.829 294.963 329.728 294.862 329.626 294.775C329.575 294.731 329.532 294.687 329.481 294.644C329.401 294.564 329.307 294.484 329.219 294.404C329.161 294.346 329.103 294.295 329.045 294.244C329.016 294.223 328.987 294.194 328.958 294.172C328.864 294.085 328.776 294.012 328.682 293.932C328.428 293.722 328.174 293.511 327.905 293.315C327.832 293.257 327.76 293.206 327.687 293.148C327.643 293.119 327.6 293.083 327.556 293.053C327.447 292.966 327.331 292.886 327.222 292.807L326.888 292.574C326.888 292.574 326.866 292.56 326.852 292.552C326.837 292.545 326.823 292.538 326.808 292.523C326.794 292.516 326.787 292.509 326.772 292.502C326.707 292.458 326.649 292.414 326.576 292.371C326.576 292.371 326.561 292.364 326.554 292.356C326.554 292.356 326.54 292.349 326.532 292.342C326.467 292.291 326.394 292.247 326.329 292.204C326.22 292.124 326.097 292.051 325.98 291.986C325.879 291.921 325.784 291.862 325.675 291.797C325.632 291.768 325.588 291.746 325.545 291.717C325.421 291.637 325.29 291.565 325.167 291.499C325.116 291.47 325.058 291.441 325.007 291.412C324.964 291.39 324.92 291.369 324.884 291.34C324.869 291.34 324.862 291.325 324.847 291.318C324.818 291.303 324.782 291.281 324.746 291.267C324.71 291.252 324.68 291.231 324.644 291.216L324.325 291.056C324.034 290.911 323.751 290.766 323.46 290.635C323.446 290.635 323.431 290.621 323.417 290.613C323.417 290.613 323.388 290.599 323.373 290.592L322.93 290.395L322.458 290.199L322.052 290.04C322.052 290.04 322.022 290.04 322.008 290.025L321.725 289.916V301.812C321.834 301.892 321.935 301.972 322.044 302.066C322.117 302.124 322.182 302.182 322.255 302.247C322.255 302.247 322.32 302.306 322.349 302.335C322.349 302.349 322.364 302.349 322.371 302.356C322.473 302.444 322.567 302.531 322.662 302.618L322.727 302.683C322.829 302.77 322.923 302.872 323.017 302.966C323.126 303.068 323.221 303.177 323.322 303.286C323.417 303.388 323.518 303.504 323.613 303.606C323.773 303.794 323.932 303.976 324.078 304.172C324.085 304.186 324.092 304.194 324.107 304.208C324.114 304.216 324.121 304.23 324.136 304.245C324.165 304.288 324.194 304.332 324.223 304.361C324.274 304.426 324.317 304.492 324.368 304.564C324.383 304.586 324.397 304.6 324.405 304.622C324.419 304.637 324.434 304.651 324.441 304.673C324.441 304.68 324.448 304.688 324.455 304.695C324.506 304.76 324.55 304.833 324.593 304.905C324.608 304.927 324.622 304.949 324.637 304.971C324.651 304.993 324.666 305.014 324.68 305.036C324.688 305.051 324.695 305.065 324.71 305.072C324.71 305.072 324.739 305.116 324.746 305.131C324.76 305.152 324.775 305.181 324.789 305.203C324.833 305.261 324.862 305.319 324.898 305.385C324.956 305.479 325.015 305.574 325.065 305.675C325.087 305.712 325.102 305.748 325.123 305.784C325.174 305.879 325.225 305.966 325.276 306.06C325.327 306.147 325.378 306.249 325.421 306.343C325.501 306.503 325.581 306.663 325.654 306.823C325.654 306.823 325.654 306.83 325.654 306.837C325.668 306.874 325.683 306.903 325.697 306.939C325.712 306.975 325.726 307.004 325.741 307.041C325.748 307.048 325.755 307.062 325.763 307.07C325.763 307.07 325.763 307.07 325.763 307.077C325.763 307.091 325.763 307.099 325.777 307.113C325.806 307.179 325.835 307.251 325.857 307.317C325.893 307.404 325.93 307.498 325.966 307.592C326.089 307.905 326.198 308.224 326.285 308.544C326.293 308.58 326.307 308.609 326.314 308.646C326.322 308.682 326.336 308.711 326.344 308.747C326.387 308.892 326.423 309.038 326.452 309.183L326.467 309.256C326.496 309.379 326.525 309.502 326.547 309.626C326.547 309.662 326.561 309.691 326.569 309.728C326.569 309.728 326.583 309.793 326.59 309.829C326.605 309.887 326.619 309.945 326.627 310.004V310.033C326.627 310.069 326.641 310.098 326.641 310.134C326.641 310.171 326.656 310.214 326.663 310.258C326.663 310.323 326.678 310.388 326.685 310.461V310.49C326.699 310.555 326.714 310.628 326.721 310.693L326.757 310.984C326.772 311.071 326.772 311.158 326.779 311.245C326.779 311.282 326.794 311.318 326.794 311.362V311.376C326.794 311.434 326.808 311.492 326.808 311.543C326.808 311.601 326.823 311.667 326.823 311.725C326.823 311.783 326.823 311.841 326.823 311.906C326.837 312.066 326.837 312.226 326.837 312.386C326.837 316.017 325.414 319.307 323.097 321.703H335.349L335.312 321.681ZM318.028 281.935V300.817C318.028 303.213 316.126 305.16 313.773 305.16C311.42 305.16 309.517 303.213 309.517 300.817V281.935C309.517 279.538 311.427 277.592 313.773 277.592C314.949 277.592 316.017 278.079 316.779 278.863C317.549 279.655 318.028 280.744 318.028 281.942V281.935ZM359.75 319.713L378.254 330.483L360.04 341.747L359.96 336.09H311.485C304.295 335.378 298.057 331.347 294.266 325.516C291.812 321.739 290.381 317.215 290.381 312.342C290.381 312.153 290.381 311.957 290.381 311.768C290.381 311.739 290.381 311.71 290.381 311.674C290.381 311.645 290.381 311.616 290.381 311.594C290.381 311.529 290.381 311.463 290.388 311.391C290.388 311.325 290.388 311.253 290.395 311.187C290.395 311.151 290.395 311.122 290.395 311.086C290.395 311.049 290.395 311.013 290.395 310.977V310.926C290.395 310.802 290.41 310.679 290.417 310.563C290.417 310.563 290.417 310.519 290.417 310.505C290.417 310.483 290.417 310.468 290.417 310.454C290.417 310.432 290.417 310.41 290.417 310.388V310.359C290.432 310.221 290.439 310.076 290.461 309.938C290.461 309.924 290.461 309.916 290.461 309.902C290.461 309.895 290.461 309.88 290.461 309.866V309.822C290.483 309.662 290.497 309.495 290.519 309.343V309.328C290.519 309.328 290.519 309.314 290.519 309.299C290.519 309.292 290.519 309.277 290.519 309.263C290.541 309.074 290.562 308.892 290.599 308.704C290.599 308.675 290.599 308.653 290.613 308.616C290.613 308.609 290.613 308.602 290.613 308.587C290.613 308.58 290.613 308.573 290.613 308.558C290.628 308.435 290.65 308.311 290.671 308.195C290.671 308.173 290.671 308.144 290.686 308.123C290.686 308.101 290.686 308.072 290.7 308.043C290.729 307.883 290.759 307.723 290.795 307.563C290.795 307.549 290.795 307.534 290.795 307.52C290.795 307.498 290.795 307.484 290.809 307.469C290.809 307.469 290.809 307.455 290.809 307.447C290.809 307.44 290.809 307.433 290.809 307.425C290.824 307.36 290.838 307.287 290.853 307.215C290.86 307.171 290.875 307.135 290.882 307.091C290.896 307.062 290.896 307.033 290.904 307.004C290.918 306.953 290.926 306.903 290.94 306.852C290.976 306.685 291.02 306.518 291.056 306.358C291.056 306.358 291.071 306.336 291.071 306.322C291.114 306.14 291.165 305.966 291.209 305.791C291.216 305.762 291.223 305.733 291.238 305.697C291.274 305.559 291.318 305.414 291.361 305.283C291.376 305.232 291.39 305.181 291.405 305.131C291.419 305.08 291.434 305.029 291.448 304.978C291.463 304.935 291.477 304.891 291.492 304.855C291.507 304.811 291.521 304.767 291.536 304.731C291.543 304.709 291.55 304.68 291.557 304.659C291.594 304.557 291.623 304.455 291.659 304.354C291.674 304.324 291.681 304.295 291.688 304.266C291.695 304.237 291.71 304.208 291.717 304.179C291.732 304.121 291.761 304.063 291.782 303.998C291.848 303.809 291.92 303.635 291.986 303.453C291.986 303.453 291.986 303.431 292 303.431C292.073 303.25 292.138 303.075 292.218 302.901C292.269 302.778 292.327 302.647 292.385 302.523C292.4 302.487 292.422 302.451 292.436 302.407C292.487 302.284 292.545 302.168 292.603 302.044L292.618 302.008L292.632 301.972C292.698 301.819 292.77 301.674 292.843 301.529C292.843 301.521 292.85 301.514 292.857 301.499C292.857 301.492 292.865 301.478 292.872 301.47C292.908 301.405 292.937 301.34 292.973 301.274C293.024 301.173 293.075 301.071 293.126 300.977C293.126 300.955 293.141 300.933 293.155 300.918L293.366 300.541C293.489 300.316 293.62 300.098 293.751 299.88C293.823 299.757 293.903 299.626 293.983 299.502C293.99 299.488 294.005 299.466 294.019 299.452C294.027 299.437 294.034 299.422 294.048 299.408C294.106 299.306 294.179 299.205 294.244 299.103C294.259 299.081 294.281 299.052 294.295 299.03C294.31 299.009 294.324 298.987 294.339 298.972C294.361 298.943 294.375 298.914 294.397 298.885C294.477 298.769 294.549 298.653 294.637 298.529C294.702 298.435 294.76 298.348 294.825 298.253C294.854 298.217 294.883 298.173 294.913 298.137C294.949 298.086 294.985 298.035 295.021 297.985C295.065 297.919 295.116 297.861 295.167 297.796C295.218 297.73 295.261 297.672 295.312 297.607C295.319 297.592 295.326 297.585 295.334 297.578C295.406 297.483 295.479 297.389 295.559 297.302C295.617 297.222 295.682 297.142 295.748 297.062C295.748 297.062 295.762 297.048 295.769 297.04C295.828 296.975 295.878 296.91 295.936 296.844C295.936 296.844 295.936 296.83 295.951 296.83C296.009 296.764 296.067 296.699 296.118 296.634C296.14 296.605 296.162 296.583 296.176 296.554C296.191 296.539 296.198 296.532 296.205 296.518C296.205 296.51 296.22 296.496 296.227 296.489C296.227 296.489 296.234 296.481 296.242 296.474C296.278 296.43 296.314 296.387 296.35 296.351C296.387 296.307 296.423 296.263 296.459 296.227C296.597 296.075 296.735 295.922 296.881 295.77C296.917 295.726 296.953 295.682 296.99 295.653C297.135 295.501 297.287 295.348 297.44 295.196C297.549 295.08 297.665 294.971 297.781 294.869C297.832 294.818 297.883 294.775 297.934 294.724C297.984 294.673 298.035 294.629 298.086 294.579L298.101 294.564C298.246 294.433 298.391 294.303 298.544 294.172C298.544 294.172 298.551 294.165 298.558 294.157C298.558 294.157 298.565 294.15 298.573 294.143C298.674 294.056 298.769 293.969 298.87 293.889C298.979 293.801 299.088 293.707 299.197 293.62L299.234 293.591C299.342 293.504 299.451 293.409 299.568 293.329C299.677 293.242 299.8 293.148 299.916 293.068C299.916 293.068 299.931 293.061 299.938 293.053C299.953 293.046 299.96 293.032 299.974 293.024C299.989 293.024 299.989 293.01 299.996 293.003C300.054 292.966 300.112 292.923 300.163 292.879C300.185 292.865 300.214 292.843 300.236 292.828C300.25 292.828 300.25 292.828 300.258 292.814C300.287 292.792 300.308 292.778 300.337 292.756C300.425 292.698 300.512 292.632 300.606 292.574C300.65 292.545 300.693 292.516 300.737 292.487C300.751 292.48 300.773 292.465 300.788 292.451C300.838 292.414 300.882 292.385 300.933 292.349C300.947 292.335 300.969 292.327 300.984 292.313C301.02 292.298 301.049 292.276 301.078 292.255C301.093 292.247 301.1 292.24 301.114 292.233L301.449 292.015C301.557 291.942 301.674 291.87 301.79 291.804C301.964 291.688 302.146 291.586 302.327 291.485C302.451 291.412 302.581 291.34 302.705 291.274C302.705 291.274 302.705 291.274 302.719 291.274C302.734 291.274 302.748 291.26 302.763 291.252C302.778 291.245 302.792 291.238 302.807 291.231C302.915 291.173 303.032 291.114 303.148 291.049C303.148 291.049 303.148 291.049 303.162 291.049C303.177 291.049 303.199 291.035 303.221 291.02C303.235 291.02 303.25 291.006 303.264 290.998C303.308 290.976 303.351 290.955 303.395 290.933C303.46 290.897 303.533 290.868 303.598 290.831C303.671 290.795 303.743 290.766 303.816 290.73C303.889 290.693 303.961 290.664 304.034 290.628C304.099 290.592 304.172 290.563 304.237 290.533C304.252 290.526 304.274 290.512 304.295 290.504C304.31 290.504 304.332 290.49 304.346 290.483C304.549 290.395 304.76 290.301 304.971 290.221C305.014 290.207 305.051 290.192 305.094 290.17C305.138 290.156 305.174 290.134 305.218 290.12C305.232 290.105 305.247 290.105 305.261 290.098C305.29 290.09 305.312 290.076 305.341 290.069C305.37 290.061 305.392 290.047 305.421 290.04C305.537 289.989 305.653 289.953 305.77 289.909V301.804C305.661 301.884 305.559 301.964 305.45 302.059C305.377 302.117 305.305 302.175 305.239 302.24C305.21 302.269 305.174 302.298 305.138 302.327C305.138 302.342 305.123 302.342 305.116 302.349L305.087 302.378C305 302.458 304.913 302.531 304.833 302.611L304.767 302.676C304.666 302.763 304.571 302.865 304.477 302.959C304.368 303.061 304.274 303.17 304.172 303.279C304.077 303.388 303.976 303.497 303.881 303.606C303.722 303.794 303.562 303.983 303.417 304.172C303.402 304.194 303.38 304.216 303.366 304.237C303.337 304.281 303.308 304.324 303.279 304.354C303.213 304.441 303.155 304.528 303.097 304.608C303.075 304.629 303.061 304.659 303.046 304.68C302.995 304.746 302.952 304.818 302.908 304.891C302.879 304.935 302.85 304.978 302.821 305.022C302.814 305.036 302.807 305.051 302.792 305.065C302.763 305.109 302.734 305.152 302.705 305.196C302.661 305.254 302.632 305.312 302.596 305.378C302.538 305.472 302.48 305.566 302.429 305.661C302.407 305.697 302.393 305.733 302.371 305.77C302.32 305.857 302.269 305.951 302.218 306.046C302.167 306.133 302.117 306.234 302.073 306.329C301.993 306.489 301.913 306.648 301.841 306.808C301.841 306.808 301.841 306.808 301.841 306.815C301.841 306.815 301.841 306.815 301.841 306.823C301.826 306.859 301.812 306.888 301.797 306.924C301.783 306.961 301.768 306.99 301.754 307.026C301.739 307.041 301.739 307.055 301.732 307.07C301.732 307.084 301.732 307.091 301.717 307.106C301.688 307.171 301.659 307.244 301.637 307.309C301.601 307.396 301.565 307.491 301.528 307.585C301.405 307.898 301.296 308.217 301.209 308.537C301.202 308.573 301.187 308.602 301.18 308.638C301.173 308.675 301.158 308.704 301.151 308.74C301.114 308.856 301.085 308.987 301.056 309.103C301.056 309.125 301.042 309.154 301.042 309.176C301.042 309.197 301.027 309.226 301.027 309.248C300.998 309.372 300.969 309.495 300.947 309.619C300.933 309.684 300.918 309.757 300.904 309.822C300.889 309.887 300.875 309.96 300.86 310.025C300.846 310.105 300.839 310.178 300.824 310.25C300.824 310.316 300.809 310.381 300.802 310.454C300.802 310.461 300.802 310.476 300.802 310.483C300.788 310.548 300.78 310.621 300.773 310.686L300.737 310.977C300.722 311.064 300.722 311.151 300.715 311.238C300.715 311.274 300.701 311.311 300.701 311.354V311.369C300.701 311.427 300.686 311.485 300.686 311.536C300.686 311.594 300.671 311.652 300.671 311.717C300.671 311.776 300.671 311.834 300.671 311.899C300.657 312.059 300.657 312.219 300.657 312.378C300.657 319.132 305.581 324.702 311.972 325.552C312.531 325.632 313.097 325.668 313.678 325.668H359.728L359.655 319.735L359.75 319.713Z" fill="#264FDA"/>
</g>
<defs>
<clipPath id="clip0_366_1702">
<rect width="630" height="630" fill="white"/>
</clipPath>
</defs>
</svg>
