<svg width="438" height="437" viewBox="0 0 438 437" fill="none" xmlns="http://www.w3.org/2000/svg">
<g clip-path="url(#clip0_366_1732)">
<path d="M218.995 430.328C339.07 430.328 436.411 335.487 436.411 218.495C436.411 101.502 339.07 6.66138 218.995 6.66138C98.919 6.66138 1.57837 101.502 1.57837 218.495C1.57837 335.487 98.919 430.328 218.995 430.328Z" stroke="#D4DCF8" stroke-width="2" stroke-miterlimit="10" stroke-dasharray="6 6"/>
<path d="M131.59 318.291L305.892 118.762" stroke="#D4DCF8" stroke-width="4" stroke-miterlimit="10"/>
<path d="M132.669 318.27L132.733 318.333C134.135 319.657 135.462 321.023 136.723 322.431C160.804 349.182 160.157 389.928 134.319 415.954C131.267 419.022 127.999 421.754 124.559 424.16C97.254 443.199 59.0571 441.129 34.0706 417.572C5.93512 391.042 5.19102 347.312 32.4206 319.899C59.6502 292.486 102.872 291.803 131.083 316.841C131.623 317.314 132.151 317.797 132.669 318.291V318.27Z" fill="#D4DCF8"/>
<path d="M130.124 320.834L130.188 320.897C131.515 322.158 132.777 323.45 133.974 324.785C156.814 350.159 156.199 388.794 131.687 413.475C128.797 416.385 125.691 418.981 122.435 421.25C96.5315 439.301 60.3081 437.336 36.6156 414.998C9.92525 389.834 9.22428 348.362 35.052 322.357C60.3944 296.846 101.87 295.711 128.625 319.457C129.132 319.909 129.638 320.361 130.134 320.834H130.124Z" fill="white"/>
<path d="M403.94 19.4382L404.005 19.5013C405.407 20.8252 406.733 22.1911 407.995 23.599C432.076 50.3501 431.429 91.0965 405.59 117.123C402.538 120.191 399.271 122.922 395.831 125.329C368.526 144.367 330.329 142.298 305.342 118.741C277.207 92.2103 276.463 48.4798 303.692 21.0668C330.415 -5.84182 374.144 -7.02912 402.355 18.0093C402.894 18.4821 403.423 18.9654 403.94 19.4592V19.4382Z" fill="#D4DCF8"/>
<path d="M401.395 21.9914L401.46 22.0544C402.786 23.3153 404.048 24.6076 405.245 25.942C428.086 51.3166 427.471 89.9511 402.959 114.632C400.069 117.543 396.963 120.138 393.706 122.408C367.803 140.459 331.58 138.494 307.887 116.156C281.197 90.9913 280.496 49.5199 306.323 23.5149C331.666 -1.99629 373.141 -3.13105 399.896 20.6149C400.403 21.0667 400.91 21.5186 401.406 21.9914H401.395Z" fill="white"/>
<path d="M230.264 110.335L230.35 110.419C232.14 112.163 233.833 113.96 235.44 115.819C266.088 151.018 264.363 203.848 230.264 237.061C226.241 240.98 221.939 244.458 217.431 247.494C181.596 271.618 132.097 268.13 100.209 237.061C64.2981 202.072 64.2981 145.334 100.209 110.335C135.451 75.9976 192.196 75.3567 228.236 108.412C228.916 109.032 229.595 109.673 230.264 110.335Z" fill="#D4DCF8"/>
<path d="M272.764 352.901C323.555 352.901 364.729 312.784 364.729 263.297C364.729 213.81 323.555 173.692 272.764 173.692C221.972 173.692 180.798 213.81 180.798 263.297C180.798 312.784 221.972 352.901 272.764 352.901Z" fill="#D4DCF8"/>
<path d="M221.723 118.656L221.798 118.73C223.351 120.243 224.829 121.809 226.22 123.416C252.835 153.992 251.336 199.876 221.723 228.729C218.229 232.133 214.498 235.148 210.572 237.796C179.45 258.747 136.454 255.721 108.75 228.729C77.5517 198.332 77.5517 149.053 108.75 118.656C139.366 88.8268 188.648 88.27 219.954 116.986C220.547 117.532 221.141 118.079 221.723 118.656Z" fill="white"/>
<path d="M328.075 209.416L328.15 209.49C329.703 211.003 331.18 212.569 332.572 214.176C359.186 244.752 357.687 290.636 328.075 319.489C324.581 322.893 320.849 325.908 316.924 328.556C285.801 349.507 242.806 346.481 215.101 319.489C183.903 289.092 183.903 239.813 215.101 209.416C245.717 179.587 295 179.03 326.306 207.746C326.899 208.292 327.492 208.839 328.075 209.416Z" fill="white"/>
<path d="M271.588 314.288C299.023 314.288 321.281 291.96 321.281 264.442C321.281 236.924 299.023 214.597 271.588 214.597C244.154 214.597 221.895 236.924 221.895 264.442C221.895 291.96 244.154 314.288 271.588 314.288Z" fill="#2CA01C"/>
<path d="M235.71 264.453C235.71 275.117 244.358 283.796 254.992 283.796H257.774V276.62H254.992C248.23 276.714 242.762 271.24 242.762 264.558C242.665 257.781 248.133 252.296 254.787 252.296H261.645V289.974C261.645 293.957 264.827 297.151 268.806 297.151V245.12H254.992C244.358 245.12 235.71 253.788 235.71 264.463V264.453ZM288.185 245.109H285.402V252.285H288.185C294.838 252.38 300.306 257.865 300.209 264.642C300.112 271.219 294.838 276.599 288.185 276.704H281.531V238.92C281.531 234.938 278.35 231.744 274.37 231.744V283.775H288.185C298.818 283.775 307.466 275.107 307.466 264.432C307.466 253.756 298.818 245.088 288.185 245.088V245.109Z" fill="white"/>
<path fill-rule="evenodd" clip-rule="evenodd" d="M155.099 141.457C159.003 137.506 164.428 135.058 170.423 135.058C178.414 135.058 185.349 139.387 189.069 145.828C192.38 144.388 195.971 143.642 199.594 143.642C213.98 143.642 225.659 155.105 225.659 169.258C225.659 183.411 213.98 194.875 199.594 194.875C197.836 194.875 196.122 194.707 194.439 194.381C191.172 200.044 184.939 203.9 177.832 203.9C174.942 203.9 172.084 203.27 169.485 202.03C166.175 209.606 158.475 214.922 149.502 214.922C140.53 214.922 132.183 209.164 129.121 201.074C127.762 201.358 126.371 201.494 124.969 201.494C113.818 201.494 104.814 192.584 104.814 181.636C104.814 174.281 108.868 167.882 114.897 164.415C113.624 161.546 112.966 158.457 112.966 155.326C112.966 142.697 123.491 132.484 136.454 132.484C144.046 132.484 150.84 136.014 155.099 141.478" fill="#00A1E0"/>
<path fill-rule="evenodd" clip-rule="evenodd" d="M122.413 175.206C122.338 175.395 122.445 175.437 122.467 175.468C122.693 175.626 122.92 175.741 123.157 175.878C124.387 176.519 125.551 176.698 126.77 176.698C129.25 176.698 130.792 175.416 130.792 173.346V173.304C130.792 171.391 129.056 170.698 127.428 170.194L127.212 170.131C125.983 169.742 124.926 169.406 124.926 168.618V168.576C124.926 167.903 125.551 167.399 126.511 167.399C127.579 167.399 128.851 167.746 129.66 168.187C129.66 168.187 129.897 168.334 129.983 168.113C130.027 167.987 130.447 166.915 130.49 166.789C130.533 166.663 130.458 166.569 130.372 166.516C129.444 165.959 128.15 165.581 126.824 165.581H126.576C124.311 165.581 122.726 166.915 122.726 168.828V168.87C122.726 170.887 124.473 171.539 126.112 172.001L126.371 172.085C127.557 172.442 128.592 172.747 128.592 173.566V173.608C128.592 174.354 127.924 174.911 126.845 174.911C126.425 174.911 125.098 174.911 123.653 174.018C123.481 173.924 123.384 173.85 123.243 173.766C123.168 173.724 122.995 173.65 122.92 173.871L122.435 175.195M158.712 175.195C158.637 175.384 158.744 175.426 158.766 175.458C158.992 175.615 159.219 175.731 159.456 175.867C160.685 176.508 161.85 176.687 163.069 176.687C165.549 176.687 167.091 175.405 167.091 173.335V173.293C167.091 171.381 165.355 170.688 163.727 170.183L163.511 170.12C162.282 169.731 161.225 169.395 161.225 168.607V168.565C161.225 167.893 161.85 167.388 162.81 167.388C163.878 167.388 165.139 167.735 165.959 168.176C165.959 168.176 166.196 168.323 166.282 168.103C166.326 167.977 166.746 166.905 166.789 166.779C166.832 166.653 166.757 166.558 166.671 166.506C165.743 165.949 164.449 165.571 163.123 165.571H162.875C160.61 165.571 159.025 166.905 159.025 168.817V168.859C159.025 170.877 160.772 171.528 162.411 171.99L162.67 172.074C163.867 172.432 164.891 172.736 164.891 173.556V173.598C164.891 174.344 164.223 174.901 163.144 174.901C162.724 174.901 161.386 174.901 159.952 174.008C159.78 173.913 159.672 173.84 159.542 173.756C159.499 173.724 159.284 173.65 159.219 173.861L158.734 175.185M183.515 171.139C183.515 172.306 183.289 173.23 182.857 173.882C182.415 174.523 181.757 174.838 180.841 174.838C179.924 174.838 179.266 174.523 178.835 173.882C178.404 173.23 178.177 172.306 178.177 171.139C178.177 169.973 178.393 169.059 178.835 168.407C179.266 167.767 179.913 167.462 180.841 167.462C181.768 167.462 182.426 167.777 182.857 168.407C183.3 169.048 183.515 169.973 183.515 171.139ZM185.586 168.975C185.381 168.302 185.068 167.714 184.648 167.22C184.227 166.726 183.688 166.327 183.062 166.043C182.437 165.76 181.682 165.613 180.841 165.613C180 165.613 179.256 165.76 178.619 166.043C177.994 166.327 177.455 166.726 177.034 167.22C176.613 167.714 176.301 168.302 176.096 168.975C175.891 169.637 175.794 170.372 175.794 171.139C175.794 171.906 175.902 172.642 176.096 173.304C176.301 173.976 176.613 174.565 177.034 175.058C177.455 175.552 177.994 175.941 178.619 176.225C179.256 176.508 180 176.645 180.841 176.645C181.682 176.645 182.426 176.498 183.052 176.225C183.677 175.941 184.216 175.552 184.637 175.058C185.057 174.565 185.37 173.976 185.575 173.304C185.78 172.642 185.877 171.906 185.877 171.139C185.877 170.372 185.769 169.637 185.575 168.975M202.581 174.512C202.517 174.312 202.312 174.386 202.312 174.386C202.01 174.502 201.686 174.607 201.352 174.649C201.007 174.701 200.619 174.733 200.22 174.733C199.217 174.733 198.419 174.439 197.858 173.871C197.286 173.293 196.963 172.369 196.974 171.118C196.974 169.973 197.265 169.122 197.772 168.46C198.279 167.809 199.044 167.472 200.069 167.472C200.921 167.472 201.578 167.567 202.258 167.777C202.258 167.777 202.42 167.851 202.495 167.64C202.678 167.147 202.808 166.8 203.002 166.264C203.056 166.106 202.926 166.043 202.873 166.022C202.603 165.917 201.967 165.749 201.492 165.686C201.039 165.623 200.522 165.581 199.939 165.581C199.066 165.581 198.3 165.728 197.631 166.012C196.974 166.296 196.413 166.695 195.971 167.189C195.529 167.682 195.194 168.271 194.968 168.943C194.741 169.605 194.634 170.341 194.634 171.118C194.634 172.789 195.097 174.144 196.014 175.132C196.931 176.13 198.3 176.624 200.101 176.624C201.158 176.624 202.247 176.414 203.034 176.109C203.034 176.109 203.185 176.036 203.121 175.867L202.614 174.502M206.237 170.005C206.334 169.353 206.517 168.817 206.809 168.397C207.24 167.756 207.887 167.409 208.814 167.409C209.742 167.409 210.346 167.767 210.777 168.397C211.068 168.817 211.187 169.374 211.241 170.005H206.226H206.248H206.237ZM213.204 168.576C213.031 167.935 212.589 167.273 212.309 166.979C211.856 166.506 211.413 166.169 210.971 165.991C210.335 165.728 209.656 165.592 208.965 165.592C208.092 165.592 207.294 165.739 206.647 166.033C206 166.327 205.461 166.726 205.04 167.231C204.62 167.735 204.296 168.323 204.091 169.006C203.886 169.679 203.789 170.414 203.789 171.181C203.789 171.948 203.897 172.705 204.102 173.367C204.318 174.029 204.652 174.617 205.116 175.1C205.579 175.594 206.172 175.973 206.873 176.235C207.574 176.498 208.437 176.635 209.418 176.635C211.446 176.635 212.513 176.193 212.945 175.952C213.02 175.91 213.096 175.836 213.009 175.626L212.557 174.375C212.481 174.186 212.298 174.26 212.298 174.26C211.791 174.439 211.09 174.775 209.418 174.764C208.329 174.764 207.531 174.449 207.024 173.955C206.507 173.451 206.248 172.726 206.216 171.686H213.236C213.236 171.686 213.419 171.686 213.441 171.518C213.441 171.444 213.678 170.12 213.236 168.576H213.204ZM150.15 170.005C150.247 169.353 150.43 168.817 150.721 168.397C151.152 167.756 151.799 167.409 152.727 167.409C153.654 167.409 154.258 167.767 154.69 168.397C154.981 168.817 155.099 169.374 155.153 170.005H150.139H150.16H150.15ZM157.116 168.576C156.943 167.935 156.501 167.273 156.221 166.979C155.768 166.506 155.326 166.169 154.884 165.991C154.247 165.728 153.568 165.592 152.878 165.592C152.004 165.592 151.206 165.739 150.559 166.033C149.912 166.327 149.373 166.726 148.952 167.231C148.532 167.735 148.208 168.323 148.003 169.006C147.799 169.679 147.702 170.414 147.702 171.181C147.702 171.948 147.809 172.705 148.014 173.367C148.23 174.029 148.564 174.617 149.028 175.1C149.492 175.594 150.085 175.973 150.786 176.235C151.487 176.498 152.349 176.635 153.331 176.635C155.358 176.635 156.426 176.193 156.857 175.952C156.933 175.91 157.008 175.836 156.911 175.626L156.458 174.375C156.383 174.186 156.189 174.26 156.189 174.26C155.682 174.439 154.981 174.775 153.309 174.764C152.231 174.764 151.422 174.449 150.915 173.955C150.398 173.451 150.139 172.726 150.106 171.686H157.127C157.127 171.686 157.31 171.686 157.332 171.518C157.332 171.444 157.569 170.12 157.127 168.576H157.116ZM134.998 174.46C134.728 174.249 134.685 174.197 134.599 174.05C134.459 173.84 134.394 173.545 134.394 173.167C134.394 172.568 134.599 172.137 135.02 171.843C135.02 171.843 135.623 171.328 137.058 171.349C137.694 171.36 138.33 171.412 138.956 171.507V174.607C138.956 174.607 138.071 174.796 137.069 174.848C135.645 174.932 135.009 174.449 135.02 174.449L134.998 174.46ZM137.791 169.658C137.511 169.637 137.133 169.626 136.702 169.626C136.098 169.626 135.516 169.7 134.976 169.847C134.426 169.994 133.941 170.215 133.521 170.509C133.1 170.803 132.755 171.192 132.507 171.633C132.259 172.085 132.129 172.61 132.129 173.209C132.129 173.808 132.237 174.333 132.453 174.764C132.658 175.185 132.981 175.552 133.37 175.836C133.758 176.109 134.243 176.319 134.793 176.435C135.343 176.561 135.969 176.624 136.648 176.624C137.37 176.624 138.082 176.561 138.772 176.456C139.366 176.361 139.948 176.246 140.53 176.12C140.767 176.067 141.026 175.994 141.026 175.994C141.199 175.952 141.188 175.773 141.188 175.773V169.542C141.188 168.176 140.811 167.157 140.066 166.527C139.333 165.896 138.255 165.581 136.853 165.581C136.324 165.581 135.483 165.655 134.976 165.749C134.976 165.749 133.445 166.043 132.82 166.516C132.82 166.516 132.679 166.6 132.755 166.789L133.251 168.092C133.316 168.26 133.477 168.208 133.477 168.208C133.477 168.208 133.531 168.187 133.596 168.155C134.944 167.441 136.648 167.462 136.648 167.462C137.403 167.462 137.985 167.609 138.384 167.903C138.762 168.187 138.966 168.618 138.966 169.532V169.815C138.363 169.731 137.813 169.679 137.813 169.679V169.658H137.791ZM194.181 166.138C194.224 166.043 194.181 165.938 194.084 165.896C193.965 165.854 193.372 165.728 192.908 165.707C192.024 165.655 191.539 165.802 191.096 165.991C190.665 166.18 190.18 166.485 189.91 166.842V166.012C189.91 165.896 189.824 165.802 189.705 165.802H187.915C187.796 165.802 187.71 165.896 187.71 166.012V176.183C187.71 176.298 187.807 176.393 187.926 176.393H189.759C189.878 176.393 189.975 176.298 189.975 176.183V171.076C189.975 170.393 190.05 169.71 190.201 169.29C190.352 168.87 190.557 168.534 190.816 168.281C191.064 168.05 191.355 167.872 191.679 167.777C191.981 167.693 192.304 167.651 192.617 167.651C192.984 167.651 193.383 167.746 193.383 167.746C193.523 167.756 193.587 167.682 193.641 167.556C193.76 167.241 194.105 166.306 194.17 166.127" fill="#FFFFFE"/>
<path fill-rule="evenodd" clip-rule="evenodd" d="M176.937 161.462C176.711 161.399 176.473 161.347 176.247 161.305C175.934 161.252 175.611 161.231 175.298 161.231C174.036 161.231 173.033 161.578 172.332 162.271C171.631 162.954 171.157 163.994 170.92 165.371L170.833 165.833H169.248C169.248 165.833 169.054 165.833 169.011 166.033L168.752 167.451C168.73 167.588 168.795 167.672 168.978 167.672H170.531L168.957 176.214C168.838 176.897 168.698 177.464 168.536 177.895C168.385 178.315 168.234 178.631 168.051 178.862C167.868 179.082 167.706 179.251 167.415 179.345C167.177 179.429 166.897 179.461 166.595 179.461C166.423 179.461 166.196 179.429 166.034 179.398C165.873 179.366 165.786 179.324 165.657 179.282C165.657 179.282 165.474 179.219 165.409 179.387C165.355 179.534 164.934 180.638 164.891 180.774C164.837 180.911 164.913 181.016 164.999 181.047C165.204 181.121 165.355 181.163 165.635 181.226C166.024 181.32 166.358 181.321 166.66 181.321C167.307 181.321 167.889 181.236 168.375 181.058C168.86 180.89 169.291 180.585 169.669 180.175C170.078 179.734 170.337 179.272 170.574 178.652C170.822 178.032 171.027 177.254 171.189 176.361L172.764 167.661H175.071C175.071 167.661 175.265 167.661 175.309 167.462L175.567 166.043C175.589 165.907 175.524 165.823 175.341 165.823H173.098C173.098 165.823 173.206 165.003 173.465 164.278C173.572 163.973 173.777 163.721 173.961 163.553C174.122 163.395 174.327 163.269 174.543 163.196C174.791 163.122 175.039 163.091 175.298 163.091C175.514 163.091 175.718 163.112 175.869 163.143C176.085 163.185 176.171 163.217 176.225 163.227C176.452 163.29 176.484 163.227 176.527 163.122L177.066 161.693C177.12 161.536 176.991 161.473 176.937 161.452M145.642 176.214C145.642 176.33 145.556 176.424 145.437 176.424H143.582C143.463 176.424 143.377 176.33 143.377 176.214V161.651C143.377 161.536 143.463 161.441 143.582 161.441H145.437C145.556 161.441 145.642 161.536 145.642 161.651V176.214Z" fill="#FFFFFE"/>
<path d="M89.263 331.835C88.8748 331.53 88.368 331.414 87.8827 331.519L45.6094 341.028C44.8653 341.196 44.3369 341.848 44.3477 342.583V396.443C44.3477 397.22 44.93 397.893 45.728 398.008L88.0013 404.344C88.8856 404.481 89.716 403.882 89.8562 403.02C89.8669 402.936 89.8777 402.863 89.8777 402.778V333.085C89.8777 332.602 89.6513 332.15 89.263 331.845V331.835Z" fill="#4CAF50"/>
<path d="M120.763 398.019H88.2494C87.3543 398.019 86.621 397.315 86.621 396.432C86.621 395.55 87.3435 394.846 88.2494 394.846H119.135V340.986H88.2494C87.3543 340.986 86.621 340.282 86.621 339.4C86.621 338.517 87.3435 337.813 88.2494 337.813H120.763C121.658 337.813 122.391 338.517 122.391 339.4V396.422C122.391 397.294 121.669 398.008 120.763 398.008V398.019Z" fill="#4CAF50"/>
<path d="M75.2331 382.186C74.6723 382.186 74.1547 381.902 73.8527 381.44L57.5905 356.097C57.0944 355.372 57.2885 354.384 58.0326 353.901C58.7767 353.417 59.7904 353.606 60.2865 354.331C60.308 354.363 60.3296 354.384 60.3404 354.415L76.6027 379.758C77.0771 380.504 76.8399 381.482 76.085 381.944C75.8262 382.102 75.535 382.186 75.2331 382.186Z" fill="#FAFAFA"/>
<path d="M58.9819 382.185C58.0868 382.185 57.3535 381.47 57.3643 380.598C57.3643 380.304 57.4505 380.01 57.6123 379.757L73.8746 354.414C74.3275 353.658 75.3196 353.395 76.0961 353.837C76.8725 354.278 77.1421 355.244 76.6892 356.001C76.6676 356.033 76.6568 356.064 76.6353 356.085L60.373 381.428C60.071 381.89 59.5534 382.174 58.9926 382.174L58.9819 382.185Z" fill="#FAFAFA"/>
<path d="M101.255 398.019C100.36 398.019 99.6266 397.315 99.6266 396.432V339.41C99.6266 338.538 100.349 337.823 101.255 337.823C102.161 337.823 102.883 338.527 102.883 339.41V396.432C102.883 397.304 102.161 398.019 101.255 398.019Z" fill="#4CAF50"/>
<path d="M120.763 388.52H88.2495C87.3544 388.52 86.6211 387.816 86.6211 386.934C86.6211 386.051 87.3436 385.347 88.2495 385.347H120.763C121.658 385.347 122.392 386.051 122.392 386.934C122.392 387.816 121.669 388.52 120.763 388.52Z" fill="#4CAF50"/>
<path d="M120.763 379.011H88.2495C87.3544 379.011 86.6211 378.307 86.6211 377.425C86.6211 376.542 87.3436 375.838 88.2495 375.838H120.763C121.658 375.838 122.392 376.542 122.392 377.425C122.392 378.307 121.669 379.011 120.763 379.011Z" fill="#4CAF50"/>
<path d="M120.763 369.513H88.2495C87.3544 369.513 86.6211 368.809 86.6211 367.926C86.6211 367.044 87.3436 366.34 88.2495 366.34H120.763C121.658 366.34 122.392 367.044 122.392 367.926C122.392 368.809 121.669 369.513 120.763 369.513Z" fill="#4CAF50"/>
<path d="M120.763 360.004H88.2495C87.3544 360.004 86.6211 359.3 86.6211 358.417C86.6211 357.535 87.3436 356.831 88.2495 356.831H120.763C121.658 356.831 122.392 357.535 122.392 358.417C122.392 359.3 121.669 360.004 120.763 360.004Z" fill="#4CAF50"/>
<path d="M120.763 350.506H88.2495C87.3544 350.506 86.6211 349.802 86.6211 348.919C86.6211 348.036 87.3436 347.333 88.2495 347.333H120.763C121.658 347.333 122.392 348.036 122.392 348.919C122.392 349.802 121.669 350.506 120.763 350.506Z" fill="#4CAF50"/>
<path d="M386.297 65.6586H382.534V32.078C382.534 31.374 381.941 30.7961 381.218 30.7961H328.053C327.331 30.7961 326.737 31.374 326.737 32.078V65.6691H322.974C322.241 65.6691 321.658 66.2365 321.658 66.951V91.5586C321.658 92.2731 322.241 92.8405 322.974 92.8405H326.737V100.847C326.737 101.551 327.331 102.129 328.053 102.129H381.218C381.941 102.129 382.534 101.551 382.534 100.847V92.8405H386.297C387.031 92.8405 387.613 92.2731 387.613 91.5586V66.951C387.613 66.2365 387.031 65.6691 386.297 65.6691V65.6586ZM379.903 99.5545H329.358V92.8299H379.903V99.5545ZM339.473 82.5015C340.056 83.1844 340.789 83.4997 341.716 83.4997C342.396 83.4997 342.967 83.3 343.453 82.8692C343.938 82.4384 344.305 81.766 344.531 80.8309C344.542 80.7363 344.607 80.6627 344.693 80.6312C344.768 80.5787 344.865 80.5682 344.952 80.5892L347.712 81.4508C347.885 81.5033 347.971 81.6819 347.917 81.8501C347.486 83.4156 346.731 84.5924 345.696 85.3594C344.65 86.1264 343.323 86.5047 341.749 86.5047C339.797 86.5047 338.169 85.8532 336.896 84.5399C335.645 83.2475 335.009 81.4403 335.009 79.2233C335.009 76.8592 335.656 74.9889 336.918 73.6755C338.19 72.3622 339.883 71.6792 341.932 71.6792C343.744 71.6792 345.232 72.2151 346.364 73.2553C347.044 73.8857 347.561 74.7788 347.885 75.9346C347.906 76.0186 347.896 76.1132 347.863 76.1867C347.809 76.2603 347.745 76.3128 347.658 76.3233L344.844 76.9853C344.747 76.9958 344.66 76.9853 344.596 76.9432C344.52 76.8907 344.466 76.8277 344.434 76.7436C344.294 76.1027 343.992 75.6088 343.517 75.2306C343.043 74.8523 342.482 74.6842 341.781 74.6842C340.832 74.6842 340.088 74.9994 339.495 75.6719C338.891 76.3548 338.589 77.4581 338.589 79.0236C338.589 80.6733 338.891 81.85 339.484 82.512L339.473 82.5015ZM357.396 81.3352C357.235 81.1566 356.933 80.9885 356.512 80.8414C356.199 80.7363 355.434 80.5367 354.269 80.253C352.662 79.8642 351.573 79.3914 350.904 78.824C349.977 78.0045 349.502 76.9958 349.502 75.8295C349.502 75.0625 349.729 74.348 350.171 73.6755C350.602 73.0241 351.249 72.5093 352.08 72.1625C352.878 71.8263 353.848 71.6687 354.981 71.6687C356.814 71.6687 358.238 72.0785 359.197 72.8875C360.157 73.6966 360.664 74.7893 360.718 76.1342C360.718 76.3128 360.578 76.4704 360.405 76.4704L357.558 76.5965C357.386 76.5965 357.245 76.4809 357.213 76.3233C357.105 75.6929 356.89 75.2516 356.555 74.9889C356.21 74.7368 355.671 74.5897 354.948 74.5897C354.226 74.5897 353.611 74.7473 353.201 75.0205C352.975 75.1781 352.878 75.3672 352.878 75.6194C352.878 75.8505 352.986 76.0396 353.191 76.2077C353.395 76.3864 353.999 76.6806 355.671 77.0693C357.073 77.3845 358.13 77.7208 358.82 78.078C359.532 78.4458 360.092 78.9501 360.502 79.591C360.912 80.232 361.106 81.02 361.106 81.9446C361.106 82.7852 360.869 83.5942 360.384 84.3402C359.898 85.0652 359.219 85.6326 358.335 85.9898C357.472 86.3366 356.404 86.5152 355.132 86.5152C353.277 86.5152 351.821 86.0739 350.807 85.2333C349.794 84.3718 349.179 83.1319 348.996 81.5243C348.985 81.4298 349.006 81.3457 349.06 81.2827C349.114 81.2196 349.19 81.1671 349.287 81.1671L352.058 80.8939C352.242 80.8834 352.382 80.999 352.414 81.1671C352.554 81.9866 352.878 82.5961 353.32 82.9743C353.762 83.3526 354.388 83.5417 355.175 83.5417C356.005 83.5417 356.631 83.3736 357.03 83.0373C357.429 82.7326 357.623 82.3754 357.623 81.9656C357.623 81.7135 357.547 81.5243 357.396 81.3352ZM361.43 72.3306C361.408 72.2256 361.419 72.131 361.473 72.0364C361.537 71.9419 361.645 71.8998 361.753 71.8998H364.837C364.978 71.8998 365.096 71.9944 365.15 72.1205L368.396 81.3772L371.545 72.1205C371.588 71.9944 371.718 71.8998 371.858 71.8998H374.877C374.985 71.8998 375.071 71.9524 375.136 72.0364C375.201 72.1205 375.212 72.2256 375.179 72.3306L370.143 86.0529C370.089 86.179 369.971 86.2735 369.83 86.2735H366.8C366.66 86.2735 366.541 86.179 366.487 86.0529L361.451 72.3306H361.43ZM379.913 65.6586H329.369V33.3494H379.913V65.6586Z" fill="#4CAF50"/>
<path d="M373.993 42.6377H335.268C334.545 42.6377 333.952 42.0703 333.952 41.3558C333.952 40.6414 334.534 40.074 335.268 40.074H373.993C374.715 40.074 375.309 40.6414 375.309 41.3558C375.309 42.0703 374.726 42.6377 373.993 42.6377Z" fill="#4CAF50"/>
<path d="M373.993 51.5896H335.268C334.545 51.5896 333.952 51.0222 333.952 50.3077C333.952 49.5933 334.534 49.0259 335.268 49.0259H373.993C374.715 49.0259 375.309 49.5933 375.309 50.3077C375.309 51.0222 374.726 51.5896 373.993 51.5896Z" fill="#4CAF50"/>
<path d="M373.993 60.5418H335.268C334.545 60.5418 333.952 59.9744 333.952 59.2599C333.952 58.5454 334.534 57.978 335.268 57.978H373.993C374.715 57.978 375.309 58.5454 375.309 59.2599C375.309 59.9744 374.726 60.5418 373.993 60.5418Z" fill="#4CAF50"/>
</g>
<defs>
<clipPath id="clip0_366_1732">
<rect width="437" height="437" fill="white" transform="translate(0.5)"/>
</clipPath>
</defs>
</svg>
