<svg width="601" height="302" viewBox="0 0 601 302" fill="none" xmlns="http://www.w3.org/2000/svg">
<path d="M424.535 50.152C404.379 50.152 384.453 56.267 367.791 67.6364C345.759 82.6799 327.093 105.753 308.915 125.1C293.884 141.081 279.239 157.435 264.992 174.11C251.785 189.564 238.926 205.52 221.75 216.825C208.068 226.01 193.127 231.74 176.452 231.74C131.874 231.74 95.7366 195.602 95.7366 151.024C95.7366 106.446 131.874 70.3085 176.452 70.3085C196.134 70.3085 214.145 77.3742 228.16 89.0775L210.997 105.521L256.757 107.808V61.7012L242.806 75.0618C225.064 59.5558 201.876 50.1392 176.465 50.1392C120.749 50.1392 75.5801 95.3082 75.5801 151.024C75.5801 206.74 120.749 251.909 176.465 251.909C197.264 251.909 217.78 245.396 234.738 233.359C256.025 218.251 273.432 198.223 291.019 179.133C306.397 162.445 321.466 145.475 336.24 128.247C349.433 112.857 362.203 96.5928 379.25 85.2235C392.932 76.0381 407.873 70.3085 424.548 70.3085C469.126 70.3085 505.264 106.446 505.264 151.024C505.264 195.602 469.126 231.74 424.548 231.74C404.867 231.74 386.856 224.674 372.84 212.971L390.003 196.527L344.243 194.241V240.347L358.195 226.987C375.936 242.493 399.124 251.909 424.535 251.909C480.251 251.909 525.42 206.74 525.42 151.024C525.42 95.3082 480.251 50.1392 424.535 50.1392V50.152Z" fill="#D9E6FF"/>
<path d="M425.563 195.268C448.314 195.268 466.775 176.808 466.775 154.056C466.775 131.305 448.314 112.844 425.563 112.844C402.811 112.844 384.351 131.305 384.351 154.056C384.351 176.808 402.811 195.268 425.563 195.268Z" fill="#2CA01C"/>
<path d="M395.823 154.056C395.823 162.869 402.991 170.05 411.817 170.05H414.129V164.115H411.817C406.216 164.192 401.681 159.67 401.681 154.146C401.604 148.545 406.126 144.01 411.65 144.01H417.341V175.163C417.341 178.465 419.975 181.099 423.276 181.099V138.075H411.817C403.004 138.075 395.823 145.243 395.823 154.069V154.056ZM439.335 138.062H437.022V143.997H439.335C444.859 144.074 449.393 148.609 449.304 154.223C449.226 159.657 444.859 164.115 439.335 164.192H433.81V132.962C433.81 129.66 431.177 127.027 427.875 127.027V170.05H439.335C448.147 170.05 455.329 162.882 455.329 154.056C455.329 145.231 448.16 138.062 439.335 138.062Z" fill="white"/>
<path fill-rule="evenodd" clip-rule="evenodd" d="M172.881 121.824C176.684 117.867 181.964 115.426 187.809 115.426C195.594 115.426 202.338 119.756 205.974 126.192C209.199 124.753 212.693 124.008 216.226 124.008C230.241 124.008 241.624 135.467 241.624 149.611C241.624 163.755 230.241 175.215 216.226 175.215C214.517 175.215 212.847 175.048 211.203 174.714C208.03 180.379 201.94 184.233 195.029 184.233C192.215 184.233 189.428 183.604 186.897 182.37C183.672 189.937 176.17 195.256 167.434 195.256C158.698 195.256 150.566 189.5 147.573 181.42C146.25 181.702 144.888 181.844 143.539 181.844C132.684 181.844 123.896 172.928 123.896 161.983C123.896 154.634 127.853 148.224 133.711 144.768C132.465 141.903 131.823 138.807 131.836 135.685C131.836 123.057 142.087 112.844 154.716 112.844C162.115 112.844 168.731 116.364 172.881 121.837" fill="#00A1E0"/>
<path fill-rule="evenodd" clip-rule="evenodd" d="M141.034 155.572C140.957 155.765 141.06 155.804 141.085 155.842C141.304 155.996 141.535 156.112 141.753 156.253C142.961 156.883 144.092 157.075 145.273 157.075C147.689 157.075 149.192 155.791 149.192 153.722V153.684C149.192 151.77 147.496 151.076 145.916 150.575L145.71 150.511C144.515 150.125 143.475 149.778 143.475 148.995V148.956C143.475 148.275 144.079 147.787 145.017 147.787C146.057 147.787 147.29 148.134 148.087 148.571C148.087 148.571 148.318 148.725 148.408 148.494C148.459 148.365 148.858 147.286 148.896 147.171C148.948 147.042 148.858 146.952 148.781 146.901C147.868 146.348 146.622 145.976 145.325 145.976H145.081C142.871 145.976 141.329 147.312 141.329 149.226V149.265C141.329 151.282 143.038 151.937 144.631 152.386L144.888 152.463C146.044 152.823 147.046 153.131 147.046 153.941V153.979C147.046 154.724 146.391 155.29 145.351 155.29C144.939 155.29 143.642 155.29 142.242 154.39C142.075 154.288 141.972 154.223 141.843 154.146C141.779 154.108 141.599 154.031 141.522 154.249L141.047 155.572M176.388 155.572C176.311 155.765 176.414 155.804 176.44 155.842C176.658 155.996 176.889 156.112 177.108 156.253C178.315 156.883 179.446 157.075 180.628 157.075C183.043 157.075 184.546 155.791 184.546 153.722V153.684C184.546 151.77 182.85 151.076 181.27 150.575L181.064 150.511C179.87 150.125 178.829 149.778 178.829 148.995V148.956C178.829 148.275 179.433 147.787 180.371 147.787C181.411 147.787 182.644 148.134 183.441 148.571C183.441 148.571 183.672 148.725 183.762 148.494C183.814 148.365 184.212 147.286 184.25 147.171C184.302 147.042 184.212 146.952 184.135 146.901C183.223 146.348 181.976 145.976 180.679 145.976H180.435C178.225 145.976 176.684 147.312 176.684 149.226V149.265C176.684 151.282 178.392 151.937 179.985 152.386L180.242 152.463C181.411 152.823 182.4 153.131 182.4 153.941V153.979C182.4 154.724 181.745 155.29 180.705 155.29C180.294 155.29 178.996 155.29 177.596 154.39C177.429 154.288 177.326 154.223 177.197 154.146C177.159 154.121 176.953 154.044 176.876 154.249L176.401 155.572M200.54 151.526C200.54 152.695 200.322 153.62 199.898 154.262C199.474 154.904 198.831 155.225 197.932 155.225C197.033 155.225 196.39 154.917 195.979 154.275C195.555 153.62 195.35 152.695 195.35 151.538C195.35 150.382 195.568 149.457 195.979 148.815C196.403 148.173 197.033 147.864 197.932 147.864C198.831 147.864 199.474 148.173 199.898 148.815C200.322 149.457 200.54 150.382 200.54 151.538M202.557 149.367C202.364 148.699 202.056 148.108 201.645 147.62C201.234 147.132 200.72 146.734 200.09 146.438C199.474 146.156 198.754 146.002 197.932 146.002C197.11 146.002 196.39 146.143 195.774 146.438C195.157 146.721 194.63 147.119 194.219 147.62C193.808 148.108 193.5 148.699 193.307 149.367C193.115 150.035 193.012 150.755 193.012 151.538C193.012 152.322 193.115 153.042 193.307 153.71C193.5 154.378 193.808 154.969 194.219 155.457C194.63 155.945 195.157 156.343 195.774 156.626C196.39 156.908 197.123 157.05 197.932 157.05C198.741 157.05 199.474 156.908 200.09 156.626C200.707 156.343 201.234 155.945 201.645 155.457C202.056 154.969 202.364 154.378 202.557 153.71C202.75 153.042 202.852 152.322 202.852 151.538C202.852 150.755 202.75 150.035 202.557 149.367ZM219.129 154.904C219.065 154.712 218.872 154.789 218.872 154.789C218.577 154.904 218.268 155.007 217.934 155.058C217.6 155.11 217.228 155.136 216.83 155.136C215.853 155.136 215.082 154.84 214.53 154.275C213.978 153.697 213.656 152.772 213.669 151.526C213.669 150.382 213.952 149.522 214.44 148.866C214.928 148.211 215.686 147.877 216.675 147.877C217.51 147.877 218.14 147.98 218.808 148.185C218.808 148.185 218.962 148.25 219.039 148.044C219.219 147.556 219.348 147.209 219.54 146.67C219.592 146.515 219.463 146.451 219.412 146.438C219.155 146.336 218.538 146.169 218.063 146.104C217.626 146.04 217.125 146.002 216.547 146.002C215.699 146.002 214.941 146.143 214.299 146.438C213.656 146.721 213.104 147.119 212.68 147.62C212.256 148.121 211.922 148.699 211.704 149.367C211.485 150.035 211.37 150.768 211.37 151.538C211.37 153.209 211.819 154.557 212.706 155.547C213.592 156.536 214.941 157.05 216.688 157.05C217.716 157.05 218.782 156.844 219.54 156.536C219.54 156.536 219.682 156.472 219.617 156.292L219.116 154.93M222.636 150.434C222.739 149.778 222.906 149.239 223.189 148.828C223.613 148.185 224.242 147.839 225.141 147.839C226.041 147.839 226.632 148.185 227.056 148.828C227.338 149.252 227.454 149.804 227.505 150.434H222.623H222.649H222.636ZM229.432 149.008C229.265 148.365 228.841 147.71 228.559 147.415C228.122 146.939 227.685 146.605 227.261 146.425C226.644 146.169 225.976 146.027 225.308 146.027C224.46 146.027 223.677 146.169 223.06 146.464C222.431 146.759 221.904 147.158 221.493 147.659C221.082 148.16 220.761 148.751 220.568 149.432C220.375 150.1 220.272 150.832 220.272 151.603C220.272 152.373 220.375 153.119 220.581 153.787C220.786 154.455 221.12 155.033 221.57 155.521C222.02 156.009 222.598 156.395 223.291 156.664C223.985 156.934 224.82 157.063 225.771 157.063C227.749 157.063 228.777 156.613 229.201 156.382C229.278 156.343 229.342 156.266 229.265 156.06L228.816 154.814C228.751 154.622 228.559 154.699 228.559 154.699C228.07 154.879 227.377 155.213 225.758 155.2C224.705 155.2 223.921 154.891 223.42 154.39C222.919 153.889 222.662 153.157 222.623 152.117H229.458C229.458 152.117 229.638 152.117 229.651 151.95C229.651 151.872 229.882 150.549 229.445 149.008H229.432ZM168.012 150.434C168.115 149.778 168.282 149.239 168.565 148.828C168.988 148.185 169.618 147.839 170.517 147.839C171.416 147.839 172.007 148.185 172.431 148.828C172.714 149.252 172.83 149.804 172.881 150.434H167.999H168.025H168.012ZM174.808 149.008C174.641 148.365 174.217 147.71 173.934 147.415C173.498 146.939 173.061 146.605 172.637 146.425C172.02 146.169 171.352 146.027 170.684 146.027C169.836 146.027 169.053 146.169 168.436 146.464C167.807 146.759 167.28 147.158 166.869 147.659C166.458 148.16 166.136 148.751 165.944 149.432C165.751 150.1 165.648 150.832 165.648 151.603C165.648 152.373 165.751 153.119 165.957 153.787C166.162 154.455 166.496 155.033 166.946 155.521C167.395 156.009 167.974 156.395 168.667 156.664C169.361 156.934 170.183 157.063 171.147 157.063C173.125 157.063 174.153 156.613 174.577 156.382C174.654 156.343 174.718 156.266 174.628 156.06L174.179 154.814C174.114 154.622 173.922 154.699 173.922 154.699C173.433 154.879 172.74 155.213 171.121 155.2C170.068 155.2 169.284 154.891 168.783 154.39C168.282 153.889 168.025 153.157 167.986 152.117H174.821C174.821 152.117 175.001 152.117 175.014 151.95C175.014 151.872 175.245 150.549 174.808 149.008ZM153.264 154.891C152.994 154.673 152.956 154.622 152.866 154.48C152.725 154.275 152.66 153.979 152.66 153.594C152.66 153.003 152.853 152.566 153.264 152.271C153.264 152.271 153.855 151.757 155.242 151.783C155.859 151.783 156.476 151.847 157.092 151.937V155.033C157.092 155.033 156.232 155.225 155.255 155.277C153.868 155.354 153.251 154.879 153.251 154.879L153.264 154.891ZM155.975 150.087C155.692 150.061 155.345 150.061 154.908 150.061C154.33 150.061 153.752 150.138 153.226 150.279C152.699 150.421 152.211 150.639 151.8 150.947C151.388 151.243 151.054 151.628 150.81 152.078C150.566 152.528 150.451 153.054 150.451 153.658C150.451 154.262 150.553 154.789 150.759 155.213C150.965 155.637 151.273 156.009 151.645 156.279C152.031 156.549 152.493 156.754 153.033 156.883C153.572 157.011 154.176 157.063 154.844 157.063C155.551 157.063 156.245 156.998 156.913 156.896C157.491 156.793 158.056 156.69 158.634 156.562C158.865 156.51 159.109 156.446 159.109 156.446C159.276 156.407 159.263 156.227 159.263 156.227V149.997C159.263 148.635 158.891 147.607 158.172 146.991C157.452 146.361 156.399 146.053 155.037 146.053C154.523 146.053 153.701 146.117 153.213 146.22C153.213 146.22 151.722 146.503 151.106 146.991C151.106 146.991 150.965 147.068 151.042 147.261L151.53 148.558C151.594 148.725 151.748 148.674 151.748 148.674C151.748 148.674 151.8 148.648 151.864 148.622C153.174 147.903 154.831 147.929 154.831 147.929C155.564 147.929 156.142 148.083 156.514 148.365C156.887 148.648 157.08 149.085 157.08 149.997V150.279C156.501 150.19 155.949 150.151 155.949 150.151L155.975 150.087ZM210.907 146.554C210.946 146.464 210.907 146.348 210.804 146.31C210.689 146.271 210.111 146.143 209.661 146.117C208.8 146.066 208.325 146.207 207.901 146.4C207.477 146.592 207.015 146.901 206.745 147.248V146.413C206.745 146.297 206.668 146.207 206.552 146.207H204.805C204.689 146.207 204.612 146.297 204.612 146.413V156.574C204.612 156.69 204.702 156.78 204.818 156.78H206.604C206.719 156.78 206.809 156.69 206.809 156.574V151.474C206.809 150.793 206.886 150.112 207.04 149.689C207.195 149.265 207.387 148.931 207.631 148.686C207.863 148.455 208.158 148.275 208.479 148.185C208.775 148.096 209.083 148.057 209.391 148.057C209.751 148.057 210.136 148.147 210.136 148.147C210.265 148.16 210.342 148.083 210.381 147.967C210.496 147.659 210.83 146.721 210.894 146.541" fill="#FFFFFE"/>
<path fill-rule="evenodd" clip-rule="evenodd" d="M194.155 141.839C193.937 141.775 193.706 141.724 193.487 141.685C193.179 141.634 192.87 141.608 192.562 141.608C191.329 141.608 190.353 141.955 189.672 142.648C188.991 143.329 188.528 144.37 188.297 145.745L188.22 146.207H186.666C186.666 146.207 186.473 146.207 186.434 146.4L186.177 147.813C186.164 147.954 186.216 148.031 186.396 148.031H187.899L186.37 156.574C186.254 157.268 186.113 157.833 185.959 158.257C185.805 158.681 185.663 159.002 185.484 159.234C185.304 159.452 185.15 159.619 184.854 159.722C184.623 159.799 184.353 159.837 184.058 159.837C183.891 159.837 183.672 159.812 183.505 159.773C183.338 159.747 183.261 159.709 183.133 159.658C183.133 159.658 182.953 159.593 182.889 159.773C182.837 159.914 182.426 161.019 182.388 161.161C182.336 161.302 182.413 161.405 182.49 161.43C182.696 161.507 182.837 161.546 183.12 161.61C183.505 161.7 183.814 161.7 184.122 161.7C184.751 161.7 185.317 161.61 185.792 161.443C186.267 161.276 186.691 160.968 187.051 160.557C187.449 160.12 187.693 159.658 187.937 159.028C188.169 158.411 188.374 157.641 188.541 156.741L190.083 148.044H192.331C192.331 148.044 192.524 148.044 192.562 147.851L192.819 146.438C192.832 146.297 192.781 146.22 192.601 146.22H190.417C190.417 146.22 190.532 145.398 190.776 144.678C190.879 144.37 191.085 144.126 191.252 143.946C191.406 143.779 191.611 143.663 191.817 143.586C192.048 143.509 192.305 143.484 192.549 143.484C192.755 143.484 192.96 143.509 193.115 143.535C193.32 143.586 193.41 143.599 193.461 143.625C193.68 143.689 193.718 143.625 193.757 143.522L194.284 142.083C194.335 141.929 194.207 141.865 194.155 141.839ZM163.67 156.6C163.67 156.716 163.593 156.806 163.477 156.806H161.666C161.55 156.806 161.473 156.716 161.473 156.6V142.032C161.473 141.916 161.55 141.826 161.666 141.826H163.477C163.593 141.826 163.67 141.916 163.67 142.032V156.6Z" fill="#FFFFFE"/>
</svg>
