<svg width="400" height="299" viewBox="0 0 400 299" fill="none" xmlns="http://www.w3.org/2000/svg">
<g clip-path="url(#clip0_366_2484)">
<path d="M400 262.011H0V262.211H400V262.011Z" fill="#EBEBEB"/>
<path d="M359.92 274.883H333.424V275.083H359.92V274.883Z" fill="#EBEBEB"/>
<path d="M264.976 277.059H258.024V277.259H264.976V277.059Z" fill="#EBEBEB"/>
<path d="M332.624 267.459H317.272V267.659H332.624V267.459Z" fill="#EBEBEB"/>
<path d="M76.52 268.803H41.968V269.003H76.52V268.803Z" fill="#EBEBEB"/>
<path d="M88.712 268.803H83.6479V269.003H88.712V268.803Z" fill="#EBEBEB"/>
<path d="M180.12 272.179H105.176V272.379H180.12V272.179Z" fill="#EBEBEB"/>
<path d="M189.608 226.331H35.1281C32.6081 226.331 30.5601 224.283 30.5601 221.763V4.61927C30.5601 2.09927 32.6081 0.0512695 35.1281 0.0512695H189.608C192.128 0.0512695 194.176 2.09927 194.176 4.61927V221.763C194.176 224.283 192.128 226.331 189.608 226.331ZM35.1281 0.251269C32.7201 0.251269 30.7601 2.21127 30.7601 4.61927V221.763C30.7601 224.171 32.7201 226.131 35.1281 226.131H189.608C192.016 226.131 193.976 224.171 193.976 221.763V4.61927C193.976 2.21127 192.016 0.251269 189.608 0.251269H35.1281Z" fill="#EBEBEB"/>
<path d="M362.648 226.331H208.168C205.648 226.331 203.6 224.283 203.6 221.763V4.61927C203.6 2.09927 205.648 0.0512695 208.168 0.0512695H362.648C365.168 0.0512695 367.216 2.09927 367.216 4.61927V221.763C367.216 224.283 365.168 226.331 362.648 226.331ZM208.168 0.251269C205.76 0.251269 203.8 2.21127 203.8 4.61927V221.763C203.8 224.171 205.76 226.131 208.168 226.131H362.648C365.056 226.131 367.016 224.171 367.016 221.763V4.61927C367.016 2.21127 365.056 0.251269 362.648 0.251269H208.168Z" fill="#EBEBEB"/>
<path d="M168.504 42.2592H45.9041V143.315H168.504V42.2592Z" fill="#EBEBEB"/>
<path d="M70.0722 52.1552H54.1602V68.0672H70.0722V52.1552Z" fill="#F5F5F5"/>
<path d="M161.704 93.0992H145.792V109.011H161.704V93.0992Z" fill="#F5F5F5"/>
<path d="M89.776 60.5472H73.864V76.4592H89.776V60.5472Z" fill="#F5F5F5"/>
<path d="M143.76 98.1072H127.848V114.019H143.76V98.1072Z" fill="#F5F5F5"/>
<path d="M81.8161 98.4752H58.9121V128.907H81.8161V98.4752Z" fill="#F5F5F5"/>
<path d="M107.968 98.6992H85.064V129.131H107.968V98.6992Z" fill="#F5F5F5"/>
<path d="M153.744 53.2913H130.84V83.7232H153.744V53.2913Z" fill="#F5F5F5"/>
<path d="M359.272 20.4513H277.896V191.067H359.272V20.4513Z" fill="#EBEBEB"/>
<path d="M361.152 18.2353H276.016V26.2673H361.152V18.2353Z" fill="#E0E0E0"/>
<path d="M361.152 29.5553H276.016V33.5713H361.152V29.5553Z" fill="#E0E0E0"/>
<path d="M361.152 35.5153H276.016V39.5313H361.152V35.5153Z" fill="#E0E0E0"/>
<path d="M361.152 41.4673H276.016V45.4833H361.152V41.4673Z" fill="#E0E0E0"/>
<path d="M361.152 47.4273H276.016V51.4433H361.152V47.4273Z" fill="#E0E0E0"/>
<path d="M361.152 53.3873H276.016V57.4033H361.152V53.3873Z" fill="#E0E0E0"/>
<path d="M361.152 59.3473H276.016V63.3633H361.152V59.3473Z" fill="#E0E0E0"/>
<path d="M361.152 65.3073H276.016V69.3232H361.152V65.3073Z" fill="#E0E0E0"/>
<path d="M361.152 71.2672H276.016V75.2832H361.152V71.2672Z" fill="#E0E0E0"/>
<path d="M361.152 77.2192H276.016V81.2352H361.152V77.2192Z" fill="#E0E0E0"/>
<path d="M361.152 83.1793H276.016V87.1953H361.152V83.1793Z" fill="#E0E0E0"/>
<path d="M361.152 89.1393H276.016V93.1552H361.152V89.1393Z" fill="#E0E0E0"/>
<path d="M361.152 95.0992H276.016V99.1152H361.152V95.0992Z" fill="#E0E0E0"/>
<path d="M361.152 101.059H276.016V105.075H361.152V101.059Z" fill="#E0E0E0"/>
<path d="M361.152 107.011H276.016V111.027H361.152V107.011Z" fill="#E0E0E0"/>
<path d="M361.152 112.971H276.016V116.987H361.152V112.971Z" fill="#E0E0E0"/>
<path d="M361.152 118.931H276.016V122.947H361.152V118.931Z" fill="#E0E0E0"/>
<path d="M361.152 124.891H276.016V128.907H361.152V124.891Z" fill="#E0E0E0"/>
<path d="M361.152 130.851H276.016V134.867H361.152V130.851Z" fill="#E0E0E0"/>
<path d="M361.152 136.811H276.016V140.827H361.152V136.811Z" fill="#E0E0E0"/>
<path d="M361.152 142.763H276.016V146.779H361.152V142.763Z" fill="#E0E0E0"/>
<path d="M361.152 148.723H276.016V152.739H361.152V148.723Z" fill="#E0E0E0"/>
<path d="M361.152 154.683H276.016V158.699H361.152V154.683Z" fill="#E0E0E0"/>
<path d="M361.152 160.643H276.016V164.659H361.152V160.643Z" fill="#E0E0E0"/>
<path d="M361.152 166.603H276.016V170.619H361.152V166.603Z" fill="#E0E0E0"/>
<path d="M361.152 172.563H276.016V176.579H361.152V172.563Z" fill="#E0E0E0"/>
<path d="M361.152 178.515H276.016V182.531H361.152V178.515Z" fill="#E0E0E0"/>
<path d="M361.152 184.475H276.016V188.491H361.152V184.475Z" fill="#E0E0E0"/>
<path d="M58.2158 236.315C58.0958 235.499 55.2958 216.179 60.9038 209.507C62.1438 208.027 63.7118 207.259 65.5598 207.211C76.8798 206.947 78.4318 216.043 78.4478 216.131L77.1118 216.339C77.0638 216.011 75.7198 208.315 65.5918 208.563C64.1278 208.595 62.9278 209.195 61.9358 210.379C56.7118 216.587 59.5198 235.923 59.5518 236.115L58.2158 236.315Z" fill="#EBEBEB"/>
<path d="M57.528 235.435L56.176 235.395C56.176 235.219 56.624 217.595 47.944 213.955C39.432 210.387 35.608 217.723 35.448 218.035L34.24 217.427C34.288 217.339 38.776 208.643 48.464 212.707C58 216.707 57.552 234.675 57.528 235.435Z" fill="#EBEBEB"/>
<path d="M57.5679 236.819C57.5679 236.539 57.4879 208.667 52.0559 200.515C46.8399 192.691 38.4239 196.371 38.0639 196.531L37.5039 195.299C37.5999 195.251 47.3119 190.971 53.1759 199.763C58.8319 208.251 58.9199 235.651 58.9199 236.819H57.5679Z" fill="#EBEBEB"/>
<path d="M67.184 207.883C67.184 207.883 62.24 209.707 63.712 214.011C65.184 218.315 80.816 225.395 80.816 225.395C80.816 225.395 87.36 219.395 81.352 209.635C75.336 199.875 67.32 204.803 67.192 207.883H67.184Z" fill="#E0E0E0"/>
<path d="M51.8079 199.043C51.8079 199.043 55.3199 198.667 55.0319 196.531C54.7439 194.395 41.3919 188.891 33.5039 197.787C33.5039 197.787 38.5519 206.459 45.8479 206.571C53.1439 206.683 51.7999 199.043 51.7999 199.043H51.8079Z" fill="#E0E0E0"/>
<path d="M48.2079 213.331C48.2079 213.331 50.6319 211.379 48.0159 210.419C45.3999 209.467 32.5759 209.739 32.4399 222.443C32.4399 222.443 47.3759 224.923 49.2239 220.083C51.0719 215.243 48.1999 213.331 48.1999 213.331H48.2079Z" fill="#E0E0E0"/>
<path d="M69.8399 262.195H46.6559L44.1519 236.819H72.3359L69.8399 262.195Z" fill="#EBEBEB"/>
<path d="M73.5759 234.019H42.9199V239.619H73.5759V234.019Z" fill="#E0E0E0"/>
<path d="M347.36 239.219C347.36 239.219 342.84 229.355 348.008 219.635C353.168 209.915 354.672 207.627 351.376 205.635C348.088 203.643 346.576 213.411 346.576 213.411C346.576 213.411 343.8 206.691 346.096 199.659C348.384 192.627 349.824 181.171 346.696 179.947C343.568 178.715 346.096 194.235 343.384 199.523C343.384 199.523 341.104 193.635 340.728 187.987C340.352 182.339 340.936 173.323 338.472 171.003C336 168.691 334.416 170.291 336.848 182.755C339.28 195.219 339.256 205.355 339.256 205.355C339.256 205.355 333.896 189.003 330.296 188.523C326.696 188.043 326.704 193.339 329.784 197.931C332.864 202.523 338.808 210.755 339.784 214.987C339.784 214.987 333.896 202.683 328.6 206.451C323.304 210.219 333.208 217.651 337.624 220.339C342.04 223.027 345.104 239.859 345.104 239.859L347.376 239.211L347.36 239.219Z" fill="#E0E0E0"/>
<path d="M343.792 243.259C343.792 243.259 348.192 233.331 342.912 223.691C337.632 214.051 336.112 211.779 339.376 209.739C342.64 207.699 344.272 217.443 344.272 217.443C344.272 217.443 346.968 210.683 344.592 203.683C342.216 196.683 340.64 185.251 343.76 183.979C346.872 182.707 344.528 198.259 347.304 203.507C347.304 203.507 349.512 197.587 349.824 191.931C350.128 186.275 349.44 177.267 351.88 174.915C354.32 172.563 355.928 174.139 353.648 186.643C351.368 199.147 351.512 209.275 351.512 209.275C351.512 209.275 356.68 192.843 360.272 192.315C363.864 191.787 363.928 197.083 360.896 201.715C357.872 206.355 352.032 214.667 351.104 218.915C351.104 218.915 356.84 206.523 362.184 210.219C367.528 213.915 357.712 221.491 353.328 224.243C348.944 226.995 346.08 243.875 346.08 243.875L343.8 243.259H343.792Z" fill="#EBEBEB"/>
<path d="M364.088 236.187H327.736L330.672 262.195H361.144L364.088 236.187Z" fill="#EBEBEB"/>
<path d="M267.92 235.995L265.544 235.651C265.968 232.659 268.472 227.003 274.872 227.003C282.456 227.003 286.224 231.379 286.6 235.715L284.208 235.923C283.928 232.675 280.928 229.403 274.864 229.403C268.8 229.403 267.952 235.723 267.912 235.995H267.92Z" fill="#E0E0E0"/>
<path d="M296 233.875H257.016C254.882 233.875 253.152 235.605 253.152 237.739V257.899C253.152 260.033 254.882 261.763 257.016 261.763H296C298.134 261.763 299.864 260.033 299.864 257.899V237.739C299.864 235.605 298.134 233.875 296 233.875Z" fill="#EBEBEB"/>
<path d="M286.608 262.195C253.608 262.195 251.968 239.547 251.96 239.323L253.304 236.699C253.352 237.539 255.96 259.795 286.608 259.795C299.224 259.795 310.112 259.795 311.216 257.379C312.184 255.251 307.456 249.811 299.872 241.083V237.739C309.536 248.859 315.008 254.843 313.4 258.371C311.728 262.043 304.424 262.195 286.608 262.195Z" fill="#E0E0E0"/>
<path d="M200 298.139C285.666 298.139 355.112 294.085 355.112 289.083C355.112 284.082 285.666 280.027 200 280.027C114.334 280.027 44.8879 284.082 44.8879 289.083C44.8879 294.085 114.334 298.139 200 298.139Z" fill="#F5F5F5"/>
<path d="M266.176 29.7552C268.368 29.7552 270.144 31.5392 270.144 33.7232V164.339C270.144 166.531 268.36 168.307 266.176 168.307H90.8401C88.6481 168.307 86.8721 166.523 86.8721 164.339V33.7232C86.8721 31.5312 88.6561 29.7552 90.8401 29.7552H266.176ZM266.176 28.7552H90.8401C88.0961 28.7552 85.8721 30.9792 85.8721 33.7232V164.339C85.8721 167.083 88.0961 169.307 90.8401 169.307H266.176C268.92 169.307 271.144 167.083 271.144 164.339V33.7232C271.144 30.9792 268.92 28.7552 266.176 28.7552Z" fill="#407BFF"/>
<path opacity="0.7" d="M266.176 28.7552H90.8401C88.0963 28.7552 85.8721 30.9795 85.8721 33.7232V164.339C85.8721 167.083 88.0963 169.307 90.8401 169.307H266.176C268.92 169.307 271.144 167.083 271.144 164.339V33.7232C271.144 30.9795 268.92 28.7552 266.176 28.7552Z" fill="white"/>
<path d="M250.472 43.3232H248.176V45.2352H250.472V43.3232Z" fill="#407BFF"/>
<path d="M250.464 150.451H248.168V146.691H250.464V150.451ZM250.464 142.939H248.168V139.179H250.464V142.939ZM250.464 135.427H248.168V131.667H250.464V135.427ZM250.464 127.915H248.168V124.155H250.464V127.915ZM250.464 120.403H248.168V116.643H250.464V120.403ZM250.464 112.891H248.168V109.131H250.464V112.891ZM250.464 105.379H248.168V101.619H250.464V105.379ZM250.464 97.8672H248.168V94.1072H250.464V97.8672ZM250.464 90.3552H248.168V86.5952H250.464V90.3552ZM250.464 82.8432H248.168V79.0832H250.464V82.8432ZM250.464 75.3312H248.168V71.5712H250.464V75.3312ZM250.464 67.8192H248.168V64.0592H250.464V67.8192ZM250.464 60.3072H248.168V56.5472H250.464V60.3072ZM250.464 52.7952H248.168V49.0352H250.464V52.7952Z" fill="#407BFF"/>
<path d="M250.472 154.211H248.176V156.123H250.472V154.211Z" fill="#407BFF"/>
<path d="M111.792 150.451H109.496V146.691H111.792V150.451Z" fill="#407BFF"/>
<path d="M111.792 154.211H109.496V156.123H111.792V154.211Z" fill="#407BFF"/>
<path d="M139.528 150.451H137.232V146.691H139.528V150.451ZM139.528 142.939H137.232V139.179H139.528V142.939ZM139.528 135.427H137.232V131.667H139.528V135.427ZM139.528 127.915H137.232V124.155H139.528V127.915Z" fill="#407BFF"/>
<path d="M139.528 154.211H137.232V156.123H139.528V154.211Z" fill="#407BFF"/>
<path d="M167.264 150.451H164.968V146.691H167.264V150.451ZM167.264 142.939H164.968V139.179H167.264V142.939ZM167.264 135.427H164.968V131.667H167.264V135.427ZM167.264 127.915H164.968V124.155H167.264V127.915ZM167.264 120.403H164.968V116.643H167.264V120.403Z" fill="#407BFF"/>
<path d="M167.264 154.211H164.968V156.123H167.264V154.211Z" fill="#407BFF"/>
<path d="M195 150.451H192.704V146.691H195V150.451ZM195 142.939H192.704V139.179H195V142.939ZM195 135.427H192.704V131.667H195V135.427ZM195 127.915H192.704V124.155H195V127.915ZM195 120.403H192.704V116.643H195V120.403ZM195 112.891H192.704V109.131H195V112.891ZM195 105.379H192.704V101.619H195V105.379ZM195 97.8672H192.704V94.1072H195V97.8672Z" fill="#407BFF"/>
<path d="M195 154.211H192.704V156.123H195V154.211Z" fill="#407BFF"/>
<path d="M222.736 150.451H220.44V146.691H222.736V150.451ZM222.736 142.939H220.44V139.179H222.736V142.939ZM222.736 135.427H220.44V131.667H222.736V135.427ZM222.736 127.915H220.44V124.155H222.736V127.915ZM222.736 120.403H220.44V116.643H222.736V120.403ZM222.736 112.891H220.44V109.131H222.736V112.891ZM222.736 105.379H220.44V101.619H222.736V105.379ZM222.736 97.8672H220.44V94.1072H222.736V97.8672ZM222.736 90.3552H220.44V86.5952H222.736V90.3552ZM222.736 82.8432H220.44V79.0832H222.736V82.8432Z" fill="#407BFF"/>
<path d="M222.736 154.211H220.44V156.123H222.736V154.211Z" fill="#407BFF"/>
<g opacity="0.7">
<path d="M250.472 43.3232H248.176V45.2352H250.472V43.3232Z" fill="white"/>
<path d="M250.464 150.451H248.168V146.691H250.464V150.451ZM250.464 142.939H248.168V139.179H250.464V142.939ZM250.464 135.427H248.168V131.667H250.464V135.427ZM250.464 127.915H248.168V124.155H250.464V127.915ZM250.464 120.403H248.168V116.643H250.464V120.403ZM250.464 112.891H248.168V109.131H250.464V112.891ZM250.464 105.379H248.168V101.619H250.464V105.379ZM250.464 97.8672H248.168V94.1072H250.464V97.8672ZM250.464 90.3552H248.168V86.5952H250.464V90.3552ZM250.464 82.8432H248.168V79.0832H250.464V82.8432ZM250.464 75.3312H248.168V71.5712H250.464V75.3312ZM250.464 67.8192H248.168V64.0592H250.464V67.8192ZM250.464 60.3072H248.168V56.5472H250.464V60.3072ZM250.464 52.7952H248.168V49.0352H250.464V52.7952Z" fill="white"/>
<path d="M250.472 154.211H248.176V156.123H250.472V154.211Z" fill="white"/>
<path d="M111.792 150.451H109.496V146.691H111.792V150.451Z" fill="white"/>
<path d="M111.792 154.211H109.496V156.123H111.792V154.211Z" fill="white"/>
<path d="M139.528 150.451H137.232V146.691H139.528V150.451ZM139.528 142.939H137.232V139.179H139.528V142.939ZM139.528 135.427H137.232V131.667H139.528V135.427ZM139.528 127.915H137.232V124.155H139.528V127.915Z" fill="white"/>
<path d="M139.528 154.211H137.232V156.123H139.528V154.211Z" fill="white"/>
<path d="M167.264 150.451H164.968V146.691H167.264V150.451ZM167.264 142.939H164.968V139.179H167.264V142.939ZM167.264 135.427H164.968V131.667H167.264V135.427ZM167.264 127.915H164.968V124.155H167.264V127.915ZM167.264 120.403H164.968V116.643H167.264V120.403Z" fill="white"/>
<path d="M167.264 154.211H164.968V156.123H167.264V154.211Z" fill="white"/>
<path d="M195 150.451H192.704V146.691H195V150.451ZM195 142.939H192.704V139.179H195V142.939ZM195 135.427H192.704V131.667H195V135.427ZM195 127.915H192.704V124.155H195V127.915ZM195 120.403H192.704V116.643H195V120.403ZM195 112.891H192.704V109.131H195V112.891ZM195 105.379H192.704V101.619H195V105.379ZM195 97.8672H192.704V94.1072H195V97.8672Z" fill="white"/>
<path d="M195 154.211H192.704V156.123H195V154.211Z" fill="white"/>
<path d="M222.736 150.451H220.44V146.691H222.736V150.451ZM222.736 142.939H220.44V139.179H222.736V142.939ZM222.736 135.427H220.44V131.667H222.736V135.427ZM222.736 127.915H220.44V124.155H222.736V127.915ZM222.736 120.403H220.44V116.643H222.736V120.403ZM222.736 112.891H220.44V109.131H222.736V112.891ZM222.736 105.379H220.44V101.619H222.736V105.379ZM222.736 97.8672H220.44V94.1072H222.736V97.8672ZM222.736 90.3552H220.44V86.5952H222.736V90.3552ZM222.736 82.8432H220.44V79.0832H222.736V82.8432Z" fill="white"/>
<path d="M222.736 154.211H220.44V156.123H222.736V154.211Z" fill="white"/>
</g>
<path d="M249.32 39.4912C247.208 39.4912 245.488 41.2112 245.488 43.3232C245.488 43.8832 245.616 44.4192 245.84 44.8992L222.944 69.1152C222.512 68.9472 222.056 68.8512 221.568 68.8512C219.456 68.8512 217.736 70.5712 217.736 72.6832C217.736 72.8192 217.76 72.9392 217.776 73.0672L196.24 84.6032C195.576 84.0592 194.736 83.7152 193.816 83.7152C191.704 83.7152 189.984 85.4352 189.984 87.5472C189.984 87.9232 190.056 88.2752 190.152 88.6112L167.912 106.323C167.36 106.011 166.728 105.819 166.056 105.819C164.104 105.819 162.504 107.299 162.272 109.187L141.32 114.939C140.616 114.035 139.528 113.435 138.296 113.435C136.184 113.435 134.464 115.155 134.464 117.267C134.464 117.643 134.536 117.995 134.632 118.331L112.392 136.043C111.84 135.731 111.208 135.539 110.536 135.539C108.424 135.539 106.704 137.259 106.704 139.371C106.704 141.483 108.424 143.203 110.536 143.203C112.648 143.203 114.368 141.483 114.368 139.371C114.368 138.995 114.296 138.643 114.2 138.307L136.44 120.595C136.992 120.907 137.624 121.099 138.296 121.099C140.248 121.099 141.848 119.619 142.08 117.731L163.032 111.979C163.736 112.883 164.824 113.483 166.056 113.483C168.168 113.483 169.888 111.763 169.888 109.651C169.888 109.275 169.816 108.923 169.72 108.587L191.96 90.8752C192.512 91.1872 193.144 91.3792 193.816 91.3792C195.928 91.3792 197.648 89.6592 197.648 87.5472C197.648 87.4112 197.624 87.2912 197.608 87.1632L219.144 75.6272C219.808 76.1712 220.648 76.5152 221.568 76.5152C223.68 76.5152 225.4 74.7952 225.4 72.6832C225.4 72.1232 225.272 71.5872 225.048 71.1072L247.944 46.8912C248.376 47.0592 248.832 47.1552 249.32 47.1552C251.432 47.1552 253.152 45.4352 253.152 43.3232C253.152 41.2112 251.432 39.4912 249.32 39.4912Z" fill="#407BFF"/>
<path opacity="0.2" d="M138.288 120.011C139.804 120.011 141.032 118.783 141.032 117.267C141.032 115.752 139.804 114.523 138.288 114.523C136.773 114.523 135.544 115.752 135.544 117.267C135.544 118.783 136.773 120.011 138.288 120.011Z" fill="white"/>
<path opacity="0.4" d="M166.048 112.395C167.564 112.395 168.792 111.167 168.792 109.651C168.792 108.136 167.564 106.907 166.048 106.907C164.533 106.907 163.304 108.136 163.304 109.651C163.304 111.167 164.533 112.395 166.048 112.395Z" fill="white"/>
<path opacity="0.6" d="M193.8 90.2912C195.316 90.2912 196.544 89.0627 196.544 87.5472C196.544 86.0318 195.316 84.8032 193.8 84.8032C192.285 84.8032 191.056 86.0318 191.056 87.5472C191.056 89.0627 192.285 90.2912 193.8 90.2912Z" fill="white"/>
<path opacity="0.8" d="M221.56 75.4272C223.076 75.4272 224.304 74.1987 224.304 72.6832C224.304 71.1678 223.076 69.9392 221.56 69.9392C220.045 69.9392 218.816 71.1678 218.816 72.6832C218.816 74.1987 220.045 75.4272 221.56 75.4272Z" fill="white"/>
<path d="M249.32 46.0673C250.836 46.0673 252.064 44.8387 252.064 43.3233C252.064 41.8078 250.836 40.5793 249.32 40.5793C247.805 40.5793 246.576 41.8078 246.576 43.3233C246.576 44.8387 247.805 46.0673 249.32 46.0673Z" fill="white"/>
<path d="M161.48 101.523C161.032 101.523 160.64 101.787 160.464 102.171H137.776C136.952 102.171 136.28 101.499 136.28 100.675V76.8752H135.32V100.675C135.32 102.027 136.416 103.123 137.768 103.123H160.456C160.64 103.507 161.024 103.771 161.472 103.771C162.096 103.771 162.6 103.267 162.6 102.643C162.6 102.019 162.096 101.515 161.472 101.515L161.48 101.523Z" fill="#407BFF"/>
<path d="M149.112 70.2512H122.48C121.336 70.2512 120.408 71.1789 120.408 72.3232V79.8512C120.408 80.9955 121.336 81.9232 122.48 81.9232H149.112C150.256 81.9232 151.184 80.9955 151.184 79.8512V72.3232C151.184 71.1789 150.256 70.2512 149.112 70.2512Z" fill="#407BFF"/>
<g opacity="0.4">
<path d="M161.48 101.523C161.032 101.523 160.64 101.787 160.464 102.171H137.776C136.952 102.171 136.28 101.499 136.28 100.675V76.8752H135.32V100.675C135.32 102.027 136.416 103.123 137.768 103.123H160.456C160.64 103.507 161.024 103.771 161.472 103.771C162.096 103.771 162.6 103.267 162.6 102.643C162.6 102.019 162.096 101.515 161.472 101.515L161.48 101.523Z" fill="white"/>
<path d="M149.112 70.2512H122.48C121.336 70.2512 120.408 71.1789 120.408 72.3232V79.8512C120.408 80.9955 121.336 81.9232 122.48 81.9232H149.112C150.256 81.9232 151.184 80.9955 151.184 79.8512V72.3232C151.184 71.1789 150.256 70.2512 149.112 70.2512Z" fill="white"/>
</g>
<path d="M194.28 77.3472V43.0512H193.32V77.3552C192.936 77.5392 192.672 77.9232 192.672 78.3712C192.672 78.9952 193.176 79.4992 193.8 79.4992C194.424 79.4992 194.928 78.9952 194.928 78.3712C194.928 77.9232 194.664 77.5312 194.28 77.3552V77.3472Z" fill="#407BFF"/>
<path d="M207.12 37.2112H180.488C179.344 37.2112 178.416 38.1389 178.416 39.2832V46.8112C178.416 47.9556 179.344 48.8832 180.488 48.8832H207.12C208.264 48.8832 209.192 47.9556 209.192 46.8112V39.2832C209.192 38.1389 208.264 37.2112 207.12 37.2112Z" fill="#407BFF"/>
<g opacity="0.4">
<path d="M194.28 77.3472V43.0512H193.32V77.3552C192.936 77.5392 192.672 77.9232 192.672 78.3712C192.672 78.9952 193.176 79.4992 193.8 79.4992C194.424 79.4992 194.928 78.9952 194.928 78.3712C194.928 77.9232 194.664 77.5312 194.28 77.3552V77.3472Z" fill="white"/>
<path d="M207.12 37.2112H180.488C179.344 37.2112 178.416 38.1389 178.416 39.2832V46.8112C178.416 47.9556 179.344 48.8832 180.488 48.8832H207.12C208.264 48.8832 209.192 47.9556 209.192 46.8112V39.2832C209.192 38.1389 208.264 37.2112 207.12 37.2112Z" fill="white"/>
</g>
<path d="M258.008 161.139H99.7522C99.7522 159.467 101.104 158.115 102.776 158.115H254.984C256.656 158.115 258.008 159.467 258.008 161.139Z" fill="#407BFF"/>
<path opacity="0.4" d="M258.008 161.139H99.7522C99.7522 159.467 101.104 158.115 102.776 158.115H254.984C256.656 158.115 258.008 159.467 258.008 161.139Z" fill="white"/>
<path d="M346.288 158.499L349.696 167.459C349.696 167.459 353.592 169.659 353.896 170.283C354.2 170.907 355.056 178.539 354.44 179.347C353.824 180.155 345.872 178.043 345.848 177.219C345.832 176.387 345.464 169.571 345.464 169.571L340.888 159.779L346.288 158.499Z" fill="#E4897B"/>
<path d="M329.8 87.7952C335.728 91.3472 336.36 123.611 337.312 126.627C338.264 129.643 349.992 162.875 349.992 162.875L341.744 166.035C341.744 166.035 330.032 141.363 327.504 134.371C324.976 127.387 323.28 111.563 323.28 111.563L329.808 87.7872L329.8 87.7952Z" fill="#407BFF"/>
<path opacity="0.2" d="M329.8 87.7952C335.728 91.3472 336.36 123.611 337.312 126.627C338.264 129.643 349.992 162.875 349.992 162.875L341.744 166.035C341.744 166.035 330.032 141.363 327.504 134.371C324.976 127.387 323.28 111.563 323.28 111.563L329.808 87.7872L329.8 87.7952Z" fill="black"/>
<path d="M321.736 83.5872C312.808 78.6832 301.272 79.7072 301.272 79.7072L290.984 94.2512L276.464 146.163L278.6 148.099L279.512 143.987L318.992 147.979L319.656 153.363L321.928 152.251L323.272 88.4352L321.736 83.5872Z" fill="#407BFF"/>
<path opacity="0.4" d="M321.736 83.5872C312.808 78.6832 301.272 79.7072 301.272 79.7072L290.984 94.2512L276.464 146.163L278.6 148.099L279.512 143.987L318.992 147.979L319.656 153.363L321.928 152.251L323.272 88.4352L321.736 83.5872Z" fill="black"/>
<path d="M265.776 45.7472L262.928 36.0993C262.928 36.0993 263.608 31.6913 263.44 29.9393C263.272 28.1873 259.136 24.8113 257.872 23.6273C256.624 22.4593 251.216 26.2833 251.472 27.1153C251.728 27.9473 254.856 34.4593 255.856 35.2193L257.456 36.1233L259.928 48.2832L265.784 45.7472H265.776Z" fill="#E4897B"/>
<path d="M293.352 80.5072C284.304 75.8672 277.392 68.6992 274.864 64.4992C272.336 60.3072 264.856 38.3872 264.856 38.3872L256.976 39.5872C256.976 39.5872 261.72 66.5232 264.256 72.4192C266.784 78.3152 290.072 99.5632 290.072 99.5632L293.352 80.5152V80.5072Z" fill="#407BFF"/>
<path opacity="0.2" d="M293.352 80.5072C284.304 75.8672 277.392 68.6992 274.864 64.4992C272.336 60.3072 264.856 38.3872 264.856 38.3872L256.976 39.5872C256.976 39.5872 261.72 66.5232 264.256 72.4192C266.784 78.3152 290.072 99.5632 290.072 99.5632L293.352 80.5152V80.5072Z" fill="black"/>
<path d="M287.464 282.931L280.976 283.619L279.752 269.619L286.248 268.931L287.464 282.931Z" fill="#E4897B"/>
<path d="M319.848 282.459H313.56L313.04 267.891H319.336L319.848 282.459Z" fill="#E4897B"/>
<path d="M312.688 281.731H320.328C320.584 281.731 320.808 281.915 320.864 282.163L322.104 287.763C322.208 288.267 321.888 288.755 321.392 288.859C321.328 288.875 321.256 288.883 321.184 288.883C318.712 288.843 316.912 288.691 313.808 288.691C311.896 288.691 306.128 288.891 303.488 288.891C300.848 288.891 300.504 286.283 301.584 286.043C306.432 284.987 310.08 283.523 311.632 282.131C311.92 281.867 312.296 281.723 312.688 281.731Z" fill="#263238"/>
<path d="M310.608 282.835C310.184 282.867 309.752 282.755 309.4 282.515C309.168 282.323 309.048 282.019 309.088 281.715C309.088 281.539 309.184 281.371 309.344 281.299C310.04 280.939 312.072 282.187 312.296 282.331C312.352 282.355 312.376 282.419 312.368 282.475C312.368 282.539 312.312 282.587 312.256 282.603C311.72 282.739 311.168 282.819 310.608 282.835ZM309.672 281.531C309.608 281.531 309.536 281.539 309.48 281.571C309.44 281.571 309.392 281.627 309.384 281.747C309.36 281.947 309.432 282.147 309.584 282.283C310.288 282.603 311.088 282.643 311.824 282.395C311.168 281.971 310.44 281.675 309.672 281.531Z" fill="#407BFF"/>
<path d="M312.216 282.611H312.144C311.496 282.259 310.24 280.875 310.368 280.211C310.416 279.979 310.616 279.819 310.848 279.819C311.08 279.787 311.304 279.859 311.48 280.011C312.208 280.603 312.36 282.411 312.368 282.499C312.368 282.555 312.344 282.603 312.296 282.635C312.264 282.635 312.24 282.635 312.216 282.611ZM310.952 280.059H310.88C310.688 280.059 310.672 280.171 310.664 280.211C310.584 280.619 311.384 281.667 312.032 282.155C311.992 281.435 311.728 280.755 311.288 280.187C311.192 280.107 311.072 280.059 310.952 280.059Z" fill="#407BFF"/>
<path d="M280.288 281.531H287.928C288.184 281.531 288.408 281.715 288.464 281.963L289.704 287.563C289.808 288.067 289.488 288.555 288.992 288.659C288.928 288.675 288.856 288.683 288.784 288.683C286.312 288.643 284.512 288.491 281.408 288.491C279.496 288.491 273.728 288.691 271.088 288.691C268.448 288.691 268.104 286.083 269.184 285.843C274.032 284.787 277.68 283.323 279.232 281.931C279.52 281.667 279.896 281.523 280.288 281.531Z" fill="#263238"/>
<path d="M278.208 282.635C277.784 282.667 277.352 282.555 277 282.315C276.768 282.123 276.648 281.819 276.688 281.515C276.688 281.339 276.784 281.171 276.944 281.099C277.64 280.739 279.672 281.987 279.896 282.131C279.952 282.155 279.976 282.219 279.968 282.275C279.968 282.339 279.912 282.387 279.856 282.403C279.32 282.539 278.768 282.619 278.208 282.635ZM277.272 281.331C277.208 281.331 277.136 281.339 277.08 281.371C277.04 281.371 276.992 281.427 276.984 281.547C276.96 281.747 277.032 281.947 277.184 282.083C277.888 282.403 278.688 282.443 279.424 282.195C278.768 281.771 278.04 281.475 277.272 281.331Z" fill="#407BFF"/>
<path d="M279.816 282.411H279.744C279.096 282.059 277.84 280.675 277.968 280.011C278.016 279.779 278.216 279.619 278.448 279.619C278.68 279.587 278.904 279.659 279.08 279.811C279.808 280.403 279.96 282.211 279.968 282.299C279.968 282.355 279.944 282.403 279.896 282.435C279.864 282.435 279.84 282.435 279.816 282.411ZM278.552 279.859H278.48C278.288 279.859 278.272 279.971 278.264 280.011C278.184 280.419 278.984 281.467 279.632 281.955C279.592 281.235 279.328 280.555 278.888 279.987C278.792 279.907 278.672 279.859 278.552 279.859Z" fill="#407BFF"/>
<path opacity="0.2" d="M286.248 268.931L279.752 269.619L280.392 276.835L286.88 276.155L286.248 268.931Z" fill="black"/>
<path opacity="0.2" d="M319.336 267.899H313.04L313.312 275.411H319.608L319.336 267.899Z" fill="black"/>
<path d="M316.736 140.107H283.36C280.184 157.435 270.248 218.763 277.376 273.411L288.672 272.011C288.672 272.011 287.624 199.467 297.6 172.651C298.744 187.003 300.112 202.275 301.296 210.403C304.2 230.403 310.416 274.115 310.416 274.115H321.92C321.92 274.115 319.568 232.275 318.48 212.619C317.288 191.283 316.776 144.491 316.728 140.115L316.736 140.107Z" fill="#263238"/>
<path opacity="0.2" d="M297.608 172.651C296.136 176.603 294.912 181.539 293.88 187.091C292.944 174.323 296.68 160.771 296.68 160.771L297.608 172.651Z" fill="black"/>
<path d="M276.088 276.043L290.072 273.963L289.648 270.091L275.096 271.995L276.088 276.043Z" fill="#407BFF"/>
<path opacity="0.6" d="M276.088 276.043L290.072 273.963L289.648 270.091L275.096 271.995L276.088 276.043Z" fill="white"/>
<path d="M309.04 274.203H322.608V270.147L308.528 269.883L309.04 274.203Z" fill="#407BFF"/>
<path opacity="0.6" d="M309.04 274.203H322.608V270.147L308.528 269.883L309.04 274.203Z" fill="white"/>
<path d="M283.08 140.507H316.68V144.507L282.648 144.091L283.08 140.507Z" fill="#263238"/>
<path opacity="0.2" d="M283.08 140.507H316.68V144.507L282.648 144.091L283.08 140.507Z" fill="white"/>
<path d="M305.88 138.707H304.68V145.811H305.88V138.707Z" fill="#263238"/>
<path d="M288.88 138.707H287.68V145.811H288.88V138.707Z" fill="#263238"/>
<path d="M293.352 80.5072C293.352 80.5072 314.56 81.9872 329.8 87.7952C329.8 87.7952 318.768 121.899 316.704 141.795L283.08 140.507C283.08 140.507 285.472 100.363 293.352 80.5072Z" fill="#407BFF"/>
<path opacity="0.7" d="M329.8 87.7953C329.8 87.7953 327.6 94.5953 324.984 103.891C324.016 107.347 322.984 111.147 321.984 115.075C319.664 124.243 317.504 134.091 316.704 141.803L283.08 140.515C283.08 140.515 285.472 100.371 293.352 80.5154C293.352 80.5154 314.552 81.9953 329.8 87.8033V87.7953Z" fill="white"/>
<path d="M318.072 84.1633C314.704 86.5713 307.368 84.6753 307.368 84.6753C307.368 84.6753 302.864 82.8593 304.008 81.5153C306.8 81.3873 308.28 80.2593 309.016 78.6913C309.448 77.7713 309.616 76.7073 309.664 75.5953C309.696 75.0113 309.672 74.4113 309.64 73.8193L319.656 68.0753C317.92 72.4353 315.472 80.5553 318.064 84.1713L318.072 84.1633Z" fill="#E4897B"/>
<path opacity="0.2" d="M317.016 72.1552C316 77.6432 311.28 78.6352 309.016 78.6832C309.448 77.7632 309.616 76.6992 309.664 75.5872L317.016 72.1552Z" fill="black"/>
<path d="M311.84 50.3473C311.84 50.3473 306.072 56.9473 308.16 62.2273C310.248 67.5073 318.92 53.9073 318.92 53.9073L311.84 50.3473Z" fill="#263238"/>
<path d="M315.72 75.2112C312.112 76.7152 308.592 75.4672 306.464 72.9312C305.096 71.2992 304.304 69.1312 304.432 66.8112C304.448 66.5072 304.48 66.1952 304.528 65.8832C305.464 60.2033 309.832 52.0033 316.424 52.0833C321.12 52.1073 324.92 55.9393 324.896 60.6512C324.896 61.9872 324.568 63.3072 323.96 64.5072C321.216 70.0992 319.864 73.5152 315.72 75.2192V75.2112Z" fill="#E4897B"/>
<path d="M314.568 62.4432C314.408 62.9232 313.968 63.1872 313.656 63.0512C313.344 62.9232 313.264 62.4352 313.456 61.9712C313.648 61.5072 314.064 61.2352 314.368 61.3632C314.672 61.4912 314.76 61.9712 314.568 62.4432Z" fill="#263238"/>
<path d="M309.288 60.2192C309.128 60.6992 308.68 60.9552 308.376 60.8272C308.072 60.6992 307.984 60.2112 308.176 59.7472C308.368 59.2832 308.784 59.0112 309.088 59.1392C309.392 59.2672 309.472 59.7792 309.288 60.2192Z" fill="#263238"/>
<path d="M310.864 61.1552C309.704 62.3472 308.392 63.3792 306.944 64.2192C307.4 64.9552 308.16 65.4592 309.016 65.5872L310.864 61.1632V61.1552Z" fill="#DE5753"/>
<path d="M316.928 61.4192C316.824 61.3872 316.736 61.3073 316.704 61.2033C316.536 60.4673 316.024 59.8513 315.336 59.5473C315.184 59.4913 315.096 59.3233 315.152 59.1713C315.208 59.0193 315.376 58.9313 315.528 58.9873C316.416 59.3553 317.064 60.1233 317.28 61.0593C317.328 61.2193 317.232 61.3793 317.08 61.4273C317.032 61.4353 316.984 61.4353 316.936 61.4273L316.928 61.4192Z" fill="#263238"/>
<path d="M308.76 68.3152C310.032 69.0912 311.6 69.2032 312.968 68.6032C313.048 68.5632 313.072 68.4672 313.04 68.3872C313.008 68.3072 312.912 68.2752 312.84 68.3152C312.84 68.3152 312.84 68.3152 312.832 68.3152C311.56 68.8432 310.112 68.7312 308.928 68.0272C308.856 67.9792 308.76 68.0032 308.72 68.0752C308.72 68.0752 308.72 68.0832 308.712 68.0912C308.664 68.1632 308.688 68.2592 308.76 68.2992C308.76 68.2992 308.768 68.2992 308.776 68.3072L308.76 68.3152Z" fill="#263238"/>
<path d="M307.784 57.4352C307.72 57.4352 307.664 57.4112 307.616 57.3792C307.504 57.2592 307.512 57.0672 307.64 56.9632C308.344 56.3152 309.328 56.0512 310.264 56.2512C310.424 56.2992 310.512 56.4592 310.472 56.6192C310.424 56.7712 310.264 56.8672 310.104 56.8272C309.36 56.6912 308.592 56.9072 308.032 57.4192C307.952 57.4672 307.864 57.4752 307.776 57.4432L307.784 57.4352Z" fill="#263238"/>
<path d="M322.76 55.5632L321.272 57.8992C321.88 58.7232 321.928 59.8752 321.088 60.6672C319.296 62.3712 318.928 66.1632 319.912 68.2192C319.912 68.2192 320.392 67.3392 321.056 67.9152C321.712 68.4912 319.256 73.0912 316.704 74.6272C316.704 74.6272 319.92 73.6752 323.552 69.3472C326.904 65.3472 328.872 61.6112 328.776 59.3952L322.768 55.5632H322.76Z" fill="#263238"/>
<path d="M324.488 70.2593C323.304 71.2913 321.76 71.8112 320.192 71.7072C318.12 71.5552 317.784 69.5232 318.952 67.9313C320 66.5233 322.352 64.8593 324.144 65.8193C325.936 66.7793 325.928 68.9793 324.488 70.2593Z" fill="#E4897B"/>
<path d="M318.92 55.0192C318.92 55.0192 319.92 54.0912 319.992 56.1792C320.064 58.2672 321.328 59.6832 324.176 61.1552C327.024 62.6272 327.928 62.7232 327.928 62.7232C327.928 62.7232 332.568 58.3472 327.72 53.3632C327.72 53.3632 327.952 50.7952 324.904 49.1152C319.664 46.2432 312.472 47.4272 309.944 50.3392C308.048 52.5232 309.032 54.6992 309.032 54.6992C309.032 54.6992 317.304 50.3392 318.928 55.0112L318.92 55.0192Z" fill="#263238"/>
<path d="M317.12 80.4912L307.848 83.4272L307.704 80.1792L304.328 80.9392C303.12 81.2112 302.256 82.2832 302.24 83.5232L302.192 87.0592L305.872 85.5712C305.872 85.5712 300.384 98.4672 299.656 116.763C299.656 116.763 301.752 97.0352 307.448 86.0672L308.8 88.5552L319.984 84.6992L317.12 80.4912Z" fill="#407BFF"/>
<path opacity="0.6" d="M317.12 80.4912L307.848 83.4272L307.704 80.1792L304.328 80.9392C303.12 81.2112 302.256 82.2832 302.24 83.5232L302.192 87.0592L305.872 85.5712C305.872 85.5712 300.384 98.4672 299.656 116.763C299.656 116.763 301.752 97.0352 307.448 86.0672L308.8 88.5552L319.984 84.6992L317.12 80.4912Z" fill="white"/>
<path d="M298.392 139.811H292.176V144.291H298.392V139.811Z" fill="#407BFF"/>
<path opacity="0.4" d="M298.392 139.811H292.176V144.291H298.392V139.811Z" fill="white"/>
<path d="M299.664 81.1312C299.664 81.1312 283.088 124.947 279.288 145.859L276.76 144.507C276.76 144.507 286.32 96.5712 293.352 80.5072L299.664 81.1392V81.1312Z" fill="#407BFF"/>
<path d="M322.736 85.5072C322.736 85.5072 315.712 120.771 318.912 149.675L322.736 148.835C322.736 148.835 327.352 102.699 329.8 87.7872L322.736 85.5072Z" fill="#407BFF"/>
<path d="M297.584 86.7552L298.232 80.9952L301.272 79.7152C301.272 79.7152 301.696 83.9072 297.584 86.7552Z" fill="#407BFF"/>
<path opacity="0.2" d="M297.584 86.7552L298.232 80.9952L301.272 79.7152C301.272 79.7152 301.696 83.9072 297.584 86.7552Z" fill="black"/>
<path d="M321.736 91.1872C321.736 91.1872 320.168 87.7792 321.736 83.5872L324.576 86.1072L321.736 91.1872Z" fill="#407BFF"/>
<path opacity="0.2" d="M321.736 91.1872C321.736 91.1872 320.168 87.7792 321.736 83.5872L324.576 86.1072L321.736 91.1872Z" fill="black"/>
<path d="M367.245 188.52L363.055 169.758C362.94 169.245 362.431 168.922 361.918 169.037L333.452 175.395C332.939 175.509 332.615 176.018 332.73 176.531L336.92 195.293C337.035 195.806 337.544 196.129 338.057 196.015L366.524 189.657C367.037 189.542 367.36 189.033 367.245 188.52Z" fill="#263238"/>
<path opacity="0.2" d="M367.245 188.52L363.055 169.758C362.94 169.245 362.431 168.922 361.918 169.037L333.452 175.395C332.939 175.509 332.615 176.018 332.73 176.531L336.92 195.293C337.035 195.806 337.544 196.129 338.057 196.015L366.524 189.657C367.037 189.542 367.36 189.033 367.245 188.52Z" fill="white"/>
<path d="M354.192 203.483L342.376 192.619C343.96 175.987 360.896 170.659 360.896 170.659L364.912 188.619C364.912 188.619 351.136 189.867 354.192 203.475V203.483Z" fill="#407BFF"/>
<path opacity="0.7" d="M354.192 203.483L342.376 192.619C343.96 175.987 360.896 170.659 360.896 170.659L364.912 188.619C364.912 188.619 351.136 189.867 354.192 203.475V203.483Z" fill="white"/>
<path d="M361.728 183.235L360.312 176.891C360.192 176.339 360.536 175.787 361.096 175.659L362.848 175.267C363.4 175.147 363.952 175.491 364.08 176.051L365.496 182.395C365.616 182.947 365.272 183.499 364.712 183.627L362.96 184.019C362.408 184.139 361.856 183.795 361.728 183.235ZM363.352 176.211C363.32 176.059 363.16 175.955 363.008 175.995L361.256 176.387C361.104 176.419 361 176.579 361.04 176.731L362.456 183.075C362.488 183.227 362.648 183.331 362.8 183.291L364.552 182.899C364.704 182.867 364.808 182.707 364.768 182.555L363.352 176.211Z" fill="#407BFF"/>
<g opacity="0.4">
<path d="M361.728 183.235L360.312 176.891C360.192 176.339 360.536 175.787 361.096 175.659L362.848 175.267C363.4 175.147 363.952 175.491 364.08 176.051L365.496 182.395C365.616 182.947 365.272 183.499 364.712 183.627L362.96 184.019C362.408 184.139 361.856 183.795 361.728 183.235ZM363.352 176.211C363.32 176.059 363.16 175.955 363.008 175.995L361.256 176.387C361.104 176.419 361 176.579 361.04 176.731L362.456 183.075C362.488 183.227 362.648 183.331 362.8 183.291L364.552 182.899C364.704 182.867 364.808 182.707 364.768 182.555L363.352 176.211Z" fill="white"/>
</g>
<path d="M95.6399 142.411H99.6879C99.6879 142.411 102.032 143.467 103.232 143.251C104.432 143.035 112.032 138.539 111.608 137.779C111.184 137.019 94.9919 138.635 94.9919 138.635L95.6399 142.411Z" fill="#EBB376"/>
<path d="M100.376 187.147C100.376 187.147 99.9759 193.107 99.1519 202.379C98.8559 205.755 98.5039 209.563 98.0879 213.691C96.2959 231.547 93.4159 255.219 89.3439 274.347L85.3359 274.283C85.3359 274.283 82.3679 245.403 87.3359 226.131L86.8319 212.443L86.4799 203.011L85.8959 187.147H100.376Z" fill="#EBB376"/>
<path d="M82.504 189.947C82.504 189.947 81.24 195.171 79.072 203.379C78.432 205.795 77.72 208.467 76.936 211.339C72.112 228.995 64.696 254.267 56.8 274.003L52.856 273.259C52.856 273.259 54.848 244.291 63.024 226.147L65.192 210.035L66 204.027L68.232 187.483L82.504 189.947Z" fill="#EBB376"/>
<path opacity="0.2" d="M65.9999 204.027L79.0719 203.379C78.4319 205.795 77.7199 208.467 76.9359 211.339L65.1919 210.035L65.9999 204.027Z" fill="black"/>
<path opacity="0.2" d="M99.152 202.379C98.856 205.755 98.504 209.563 98.088 213.691L86.832 212.443L86.48 203.011L99.152 202.379Z" fill="black"/>
<path d="M63.888 116.163C61.28 117.187 62.192 141.435 66.768 147.995C71.344 154.555 98.096 144.507 98.096 144.507L97.448 138.635L73.6 138.707L63.88 116.163H63.888Z" fill="#263238"/>
<path d="M125.888 135.467L97.4558 137.171L100.84 116.347C100.912 115.883 101.296 115.539 101.768 115.515L128.72 113.899C129.072 113.875 129.352 114.187 129.296 114.539L125.896 135.475L125.888 135.467Z" fill="#263238"/>
<path opacity="0.2" d="M125.888 135.467L97.4558 137.171L100.84 116.347C100.912 115.883 101.296 115.539 101.768 115.515L128.72 113.899C129.072 113.875 129.352 114.187 129.296 114.539L125.896 135.475L125.888 135.467Z" fill="white"/>
<path d="M125.52 135.491L97.0879 137.195L100.472 116.371C100.544 115.907 100.928 115.563 101.4 115.539L128.352 113.923C128.704 113.899 128.984 114.211 128.928 114.563L125.528 135.499L125.52 135.491Z" fill="#263238"/>
<path d="M124.728 134.859L98.0959 136.451L101.384 116.211L128.016 114.619L124.728 134.859Z" fill="#407BFF"/>
<path opacity="0.4" d="M124.728 134.859L98.0959 136.451L101.384 116.211L128.016 114.619L124.728 134.859Z" fill="white"/>
<path d="M125.52 135.491L125.584 136.515C125.616 137.083 125.184 137.571 124.616 137.603L83.5519 140.067C82.9839 140.099 82.4959 139.667 82.4639 139.099L82.3999 138.075L125.52 135.491Z" fill="#263238"/>
<path opacity="0.2" d="M125.52 135.491L125.584 136.515C125.616 137.083 125.184 137.571 124.616 137.603L83.5519 140.067C82.9839 140.099 82.4959 139.667 82.4639 139.099L82.3999 138.075L125.52 135.491Z" fill="white"/>
<path opacity="0.2" d="M125.52 135.491L125.584 136.515C125.616 137.083 125.184 137.571 124.616 137.603L107.512 138.627C106.944 138.659 106.456 138.227 106.424 137.659L106.36 136.635L125.528 135.483L125.52 135.491Z" fill="white"/>
<g opacity="0.4">
<path d="M102.608 132.283L101.52 132.347L101.976 129.739L103.064 129.675L102.608 132.283Z" fill="white"/>
<path d="M104.68 132.155L103.584 132.219L104.32 127.995L105.416 127.931L104.68 132.155Z" fill="white"/>
<path d="M106.744 132.027L105.656 132.091L106.672 126.251L107.76 126.179L106.744 132.027Z" fill="white"/>
<path d="M108.816 131.899L107.72 131.963L108.88 125.315L109.976 125.243L108.816 131.899Z" fill="white"/>
<path d="M110.88 131.771L109.792 131.835L111.088 124.379L112.184 124.307L110.88 131.771Z" fill="white"/>
<path d="M112.952 131.643L111.856 131.707L113.44 122.627L114.528 122.563L112.952 131.643Z" fill="white"/>
<path d="M115.016 131.515L113.928 131.579L115.368 123.315L116.456 123.243L115.016 131.515Z" fill="white"/>
<path d="M117.088 131.379L115.992 131.451L117.288 123.995L118.384 123.923L117.088 131.379Z" fill="white"/>
<path d="M119.152 131.251L118.064 131.323L119.64 122.243L120.736 122.179L119.152 131.251Z" fill="white"/>
<path d="M121.216 131.123L120.128 131.195L122.128 119.691L123.224 119.627L121.216 131.123Z" fill="white"/>
</g>
<path d="M101.153 209.419C106.017 165.291 97.6089 150.283 97.6089 150.283L73.8809 146.227C72.9769 149.771 72.2969 155.507 71.8969 159.507C71.8969 159.507 69.6169 167.667 68.8889 169.931C62.3449 190.219 63.6489 209.419 63.6489 209.419H101.161H101.153Z" fill="#407BFF"/>
<g opacity="0.2">
<path d="M101.152 209.419H63.6401C63.6401 209.419 63.4481 206.595 63.5841 201.963C63.7921 194.523 64.8481 182.443 68.8801 169.939C69.6081 167.675 71.8881 159.515 71.8881 159.515C71.9441 159.003 72.0001 158.467 72.0561 157.907C72.4721 154.091 73.0881 149.323 73.8801 146.235L97.6081 150.291C97.6081 150.291 106.016 165.299 101.152 209.419Z" fill="black"/>
</g>
<path opacity="0.2" d="M86.232 185.339C86.232 185.339 76.632 197.531 63.584 201.963C63.792 194.523 64.848 182.443 68.88 169.939C69.608 167.675 71.888 159.515 71.888 159.515C71.944 159.003 72 158.467 72.056 157.907L96.52 156.091C96.52 156.091 87.656 164.979 78.16 167.299C78.16 167.299 78.552 180.483 86.232 185.339Z" fill="black"/>
<path d="M86.504 95.3072C86.472 95.8112 86.776 96.2192 87.112 96.2192C87.448 96.2192 87.704 95.8032 87.704 95.2912C87.704 94.7872 87.424 94.3792 87.096 94.3792C86.768 94.3792 86.504 94.7872 86.504 95.3072Z" fill="#263238"/>
<path d="M85.4561 94.0832C85.5681 94.0992 85.6721 94.0512 85.7441 93.9632C86.1841 93.3472 86.8881 92.9712 87.6401 92.9552C87.8001 92.9632 87.9441 92.8432 87.9521 92.6752C87.9601 92.5152 87.8401 92.3712 87.6801 92.3632C86.7201 92.3632 85.8241 92.8272 85.2721 93.6032C85.1681 93.7312 85.1921 93.9152 85.3201 94.0192C85.3601 94.0432 85.4081 94.0672 85.4561 94.0752V94.0832Z" fill="#263238"/>
<path d="M86.8961 96.5552C87.2481 97.6512 87.7441 98.6992 88.3761 99.6592C87.8641 99.9792 87.2401 100.051 86.6721 99.8672L86.8961 96.5552Z" fill="#DE726F"/>
<path d="M74.8001 105.427C74.8561 105.475 74.9281 105.531 74.9921 105.563C75.8801 106.195 76.8961 106.795 78.0561 107.059C81.2961 107.811 83.5121 107.363 84.9601 105.899C86.9841 103.699 87.4881 99.8032 87.2081 95.0992C87.0801 92.9392 86.7761 91.0672 86.1841 89.6112C86.1841 89.5952 86.1841 89.5392 86.1681 89.5312C86.1361 89.4752 86.1201 89.3872 86.0881 89.3312C85.2001 87.2912 83.7281 85.9712 81.3761 85.4112C80.5601 85.2192 79.6401 85.1152 78.6001 85.0992C69.4321 85.0032 67.7841 100.187 74.8081 105.419L74.8001 105.427Z" fill="#EBB376"/>
<path opacity="0.2" d="M75.1282 105.947C76.0322 106.555 77.0642 107.003 78.2242 107.235C81.4802 107.899 83.6802 107.291 85.0882 105.763C83.5042 106.155 81.3682 106.347 79.2642 105.435C77.9362 104.867 76.4882 105.211 75.1282 105.939V105.947Z" fill="black"/>
<path d="M74.0641 113.843C73.4961 116.451 76.8801 117.515 76.8801 117.515C82.4081 115.155 83.4321 112.211 83.4321 112.211C78.8161 109.803 80.1521 103.003 80.1521 103.003L79.2161 103.467L72.6321 104.755C72.6321 104.755 74.4561 108.259 74.7041 109.059C74.7041 109.059 74.7041 109.075 74.7041 109.083C75.9441 113.267 74.0561 113.843 74.0561 113.843H74.0641Z" fill="#EBB376"/>
<path d="M86.1841 89.5552C86.1841 89.5552 86.6881 95.9872 80.6001 98.7472C80.6001 98.7472 77.9841 105.427 74.1361 105.523C68.8881 105.651 64.2561 98.1792 66.0801 90.5712C68.4401 80.7072 83.3841 79.8992 86.1921 89.5632L86.1841 89.5552Z" fill="#263238"/>
<path d="M83.6882 96.8992C83.6882 95.8992 82.8802 94.2112 81.3202 94.4432C79.7042 94.6832 78.8162 98.6592 82.7762 99.5472C83.3442 99.6752 83.6882 98.9952 83.6882 96.9072V96.8992Z" fill="#EBB376"/>
<path d="M74.9921 82.7232C74.9921 82.7232 81.1281 81.1712 84.5121 83.6352C88.4721 86.5152 89.9681 89.4912 85.2881 94.1152C85.2881 94.1152 74.9921 90.7792 71.5681 91.4832C68.1441 92.1872 65.6961 93.1872 65.6961 93.1872C64.9761 86.3872 71.5681 81.3232 74.9921 82.7152V82.7232Z" fill="#263238"/>
<path d="M87.2802 86.8272C87.2802 86.8272 90.1202 88.7632 88.8082 91.7472C87.5042 94.7312 83.6802 94.8032 83.6802 94.8032" stroke="#263238" stroke-width="0.5" stroke-linecap="round" stroke-linejoin="round"/>
<path d="M83.6881 95.3472C83.6881 95.3472 82.0481 102.763 84.6001 109.075C84.6001 109.075 70.0401 114.123 64.9761 111.387C59.9121 108.651 64.5521 99.4352 64.7681 94.1232C64.9761 88.8112 67.2881 80.9632 74.9921 82.7232C82.6961 84.4832 83.6881 95.3472 83.6881 95.3472Z" fill="#263238"/>
<path d="M97.168 287.579C96.424 286.979 95.576 286.515 94.656 286.219C94.656 286.219 91.928 283.515 90.616 275.363L87.048 274.435C85.808 274.131 84.512 274.643 83.8 275.707C83.704 275.851 83.624 276.011 83.576 276.179C83.392 277.051 83.264 277.939 83.192 278.827C82.832 281.587 83.144 287.771 83.144 287.771H83.792L84.048 282.155C84.144 280.251 85.6 282.483 86.024 284.539C86.448 286.595 87.328 288.779 91.512 288.883C96.392 288.979 98.416 288.787 97.184 287.595L97.168 287.579Z" fill="#263238"/>
<path d="M83.6721 275.763C83.4401 273.859 83.3601 270.539 83.3601 270.539L91.2961 271.419C91.2961 271.419 90.3361 275.187 91.1281 278.019C87.1281 276.971 83.6721 275.763 83.6721 275.763Z" fill="#263238"/>
<path d="M64.88 287.579C64.136 286.979 63.288 286.515 62.376 286.219C62.376 286.219 59.648 283.515 58.336 275.363L54.768 274.435C53.528 274.131 52.232 274.643 51.52 275.707C51.424 275.851 51.344 276.011 51.296 276.179C51.112 277.051 50.984 277.939 50.912 278.827C50.552 281.587 50.864 287.771 50.864 287.771H51.512L51.768 282.155C51.864 280.251 53.32 282.483 53.744 284.539C54.168 286.595 55.048 288.779 59.232 288.883C64.112 288.979 66.136 288.787 64.904 287.595L64.88 287.579Z" fill="#263238"/>
<path d="M51.3921 275.763C51.1601 273.859 51.0801 270.539 51.0801 270.539L59.0161 271.419C59.0161 271.419 58.0561 275.187 58.8481 278.019C54.8481 276.971 51.3921 275.763 51.3921 275.763Z" fill="#263238"/>
<path d="M63.8881 116.163C63.8881 116.163 68.9521 114.179 73.4881 112.923C77.0321 112.051 80.6321 111.419 84.2561 111.051C87.6801 110.667 91.1281 110.531 94.5841 110.643C94.4801 112.299 94.4081 113.875 94.3521 115.347C94.2641 117.291 94.2001 119.091 94.1601 120.771C94.0801 123.907 94.0881 126.595 94.1601 128.979C94.3441 135.363 95.0321 139.603 96.0401 144.435L101.144 156.875L70.4481 160.787L72.1921 148.563C67.0961 133.731 64.9201 125.923 64.0961 121.491C63.2001 116.555 63.8881 116.171 63.8881 116.171V116.163Z" fill="#263238"/>
<path opacity="0.1" d="M63.8881 116.163C63.8881 116.163 68.9521 114.179 73.4881 112.923C77.0321 112.051 80.6321 111.419 84.2561 111.051C87.6801 110.667 91.1281 110.531 94.5841 110.643C94.4801 112.299 94.4081 113.875 94.3521 115.347C94.2641 117.291 94.2001 119.091 94.1601 120.771C94.0801 123.907 94.0881 126.595 94.1601 128.979C94.3441 135.363 95.0321 139.603 96.0401 144.435L101.144 156.875L70.4481 160.787L72.1921 148.563C67.0961 133.731 64.9201 125.923 64.0961 121.491C63.2001 116.555 63.8881 116.171 63.8881 116.171V116.163Z" fill="white"/>
<path d="M124.792 143.283L131.752 145.355C131.752 145.355 133.544 144.827 134.28 144.827C135.016 144.827 141.352 147.251 142.192 147.995C143.032 148.731 138.208 153.059 137.936 153.267C137.656 153.475 131.12 150.843 130.8 150.739C130.48 150.635 130.376 149.627 130.376 149.627L122.672 147.675L124.784 143.275L124.792 143.283Z" fill="#EBB376"/>
<path d="M94.5839 110.651C98.4159 113.179 108.04 137.147 109.312 137.779C110.584 138.411 129.296 143.787 129.296 143.787L126.968 149.627C126.968 149.627 106.456 145.971 104.4 144.539C102.344 143.107 94.1519 128.219 94.1519 128.219C94.1519 128.219 92.4399 122.995 92.4239 118.243C92.4079 113.499 94.5919 110.651 94.5919 110.651H94.5839Z" fill="#263238"/>
<path d="M214.848 258.539H209.152V288.891H214.848V258.539Z" fill="#407BFF"/>
<path d="M214.848 258.539H211.552V288.891H214.848V258.539Z" fill="#407BFF"/>
<path opacity="0.2" d="M214.848 258.539H211.552V288.891H214.848V258.539Z" fill="black"/>
<path opacity="0.2" d="M214.848 258.539V271.043L211.552 269.923L209.152 269.107V258.539H214.848Z" fill="black"/>
<path d="M238.848 258.539H233.152V288.891H238.848V258.539Z" fill="#407BFF"/>
<path d="M165.248 258.539H159.552V288.891H165.248V258.539Z" fill="#407BFF"/>
<path opacity="0.2" d="M165.248 258.539H159.552V288.891H165.248V258.539Z" fill="black"/>
<path d="M239.76 244.155V288.891H235.504V261.283H182.76V288.891H174.952V261.283H162.08V288.891H159.552V244.155H239.76Z" fill="#407BFF"/>
<path d="M177 244.155H175.584V237.123H178.416L177 244.155Z" fill="#263238"/>
<path opacity="0.2" d="M239.76 244.155V288.891H235.504V261.283H182.76V288.891H178.416V244.155H239.76Z" fill="black"/>
<path d="M223.24 230.819L223.288 230.803L209.496 227.467C209.192 227.379 208.88 227.315 208.544 227.315H177.48C175.704 227.315 174.216 228.667 174.056 230.435L173.432 237.059C173.28 238.699 174.304 240.139 175.776 240.627H175.736L175.96 240.691C176.048 240.715 176.136 240.739 176.224 240.755L189.696 244.051C189.976 244.115 190.256 244.163 190.56 244.163H221.624C223.4 244.163 224.888 242.811 225.048 241.043L225.672 234.419C225.832 232.755 224.768 231.291 223.256 230.827L223.24 230.819Z" fill="#263238"/>
<path opacity="0.2" d="M223.24 230.819L223.288 230.803L209.496 227.467C209.192 227.379 208.88 227.315 208.544 227.315H177.48C175.704 227.315 174.216 228.667 174.056 230.435L173.432 237.059C173.28 238.699 174.304 240.139 175.776 240.627H175.736L175.96 240.691C176.048 240.715 176.136 240.739 176.224 240.755L189.696 244.051C189.976 244.115 190.256 244.163 190.56 244.163H221.624C223.4 244.163 224.888 242.811 225.048 241.043L225.672 234.419C225.832 232.755 224.768 231.291 223.256 230.827L223.24 230.819Z" fill="white"/>
<path opacity="0.1" d="M221.616 244.155H190.552C188.528 244.155 186.936 242.411 187.128 240.395L187.752 233.771C187.92 232.003 189.4 230.651 191.176 230.651H222.24C224.264 230.651 225.856 232.395 225.664 234.411L225.04 241.035C224.872 242.803 223.392 244.155 221.616 244.155Z" fill="white"/>
<g opacity="0.1">
<path d="M213.072 237.947C212.872 239.819 211.152 241.339 209.224 241.339C207.296 241.339 205.896 239.819 206.096 237.947C206.296 236.075 208.016 234.555 209.944 234.555C211.872 234.555 213.272 236.075 213.072 237.947Z" fill="white"/>
<path d="M222.096 239.171H217.032C216.744 239.171 216.528 238.939 216.56 238.659L216.712 237.219C216.744 236.939 217 236.707 217.296 236.707H222.36C222.648 236.707 222.864 236.939 222.832 237.219L222.68 238.659C222.648 238.939 222.392 239.171 222.096 239.171Z" fill="white"/>
<path d="M194.896 242.043H193.096L193.28 240.299H195.08L194.896 242.043Z" fill="white"/>
<path d="M197.368 242.043H195.576L195.76 240.299H197.552L197.368 242.043Z" fill="white"/>
</g>
<path d="M127.544 191.475C127.36 191.475 127.176 191.411 127.032 191.283L125.072 189.627C124.736 189.339 124.688 188.835 124.976 188.499C125.264 188.163 125.768 188.115 126.104 188.403L128.064 190.059C128.4 190.347 128.448 190.851 128.16 191.187C128 191.371 127.776 191.475 127.552 191.475H127.544Z" fill="#407BFF"/>
<path d="M137.576 199.907C137.392 199.907 137.208 199.843 137.064 199.715C134.936 197.923 132.808 196.131 130.672 194.355C130.336 194.075 130.288 193.571 130.568 193.227C130.848 192.883 131.352 192.843 131.696 193.123C133.832 194.907 135.968 196.699 138.096 198.491C138.432 198.779 138.48 199.283 138.192 199.619C138.032 199.803 137.808 199.907 137.576 199.907Z" fill="#407BFF"/>
<path d="M145.584 206.691C145.4 206.691 145.216 206.627 145.064 206.499L141.272 203.275C140.936 202.987 140.896 202.483 141.176 202.147C141.464 201.811 141.968 201.771 142.304 202.051L146.104 205.275C146.44 205.563 146.48 206.067 146.192 206.403C146.032 206.587 145.808 206.683 145.584 206.683V206.691Z" fill="#407BFF"/>
<path d="M162.872 221.379C162.688 221.379 162.504 221.315 162.36 221.187C157.912 217.443 153.48 213.667 149.048 209.891L148.856 209.723C148.52 209.435 148.48 208.931 148.768 208.595C149.056 208.259 149.56 208.219 149.896 208.507L150.088 208.675C154.512 212.443 158.944 216.219 163.392 219.963C163.728 220.251 163.776 220.755 163.488 221.091C163.328 221.283 163.104 221.379 162.872 221.379Z" fill="#407BFF"/>
<path d="M170.944 228.115C170.768 228.115 170.584 228.051 170.432 227.931C169.152 226.875 167.872 225.811 166.6 224.747C166.264 224.467 166.216 223.963 166.496 223.619C166.776 223.283 167.28 223.235 167.624 223.515C168.896 224.579 170.176 225.635 171.456 226.691C171.8 226.971 171.848 227.475 171.56 227.819C171.4 228.011 171.176 228.107 170.944 228.107V228.115Z" fill="#407BFF"/>
<path d="M160.632 178.611C160.328 178.611 160.04 178.435 159.904 178.147L158.824 175.779C158.64 175.379 158.824 174.899 159.216 174.715C159.616 174.531 160.096 174.715 160.28 175.107L161.36 177.475C161.544 177.875 161.36 178.355 160.968 178.539C160.864 178.587 160.744 178.611 160.632 178.611Z" fill="#407BFF"/>
<path d="M167.776 193.891C167.472 193.891 167.184 193.715 167.048 193.419C165.36 189.699 163.832 186.467 162.384 183.547C162.184 183.155 162.352 182.675 162.744 182.475C163.144 182.275 163.624 182.443 163.816 182.835C165.272 185.771 166.808 189.019 168.504 192.755C168.688 193.155 168.504 193.635 168.104 193.811C168 193.859 167.888 193.883 167.776 193.883V193.891Z" fill="#407BFF"/>
<path d="M172.112 203.643C171.808 203.643 171.512 203.467 171.376 203.163C170.792 201.835 170.208 200.499 169.616 199.171C169.44 198.771 169.616 198.291 170.024 198.115C170.424 197.939 170.904 198.115 171.08 198.523C171.672 199.851 172.256 201.187 172.84 202.523C173.016 202.931 172.84 203.403 172.432 203.579C172.328 203.627 172.216 203.643 172.112 203.643Z" fill="#407BFF"/>
<path d="M181.392 224.003C181.096 224.003 180.816 223.843 180.672 223.555C178.048 218.251 175.6 212.787 173.352 207.667C173.176 207.267 173.352 206.795 173.76 206.611C174.16 206.435 174.64 206.611 174.816 207.019C177.064 212.123 179.496 217.571 182.112 222.843C182.304 223.243 182.144 223.715 181.752 223.915C181.64 223.971 181.52 223.995 181.4 223.995L181.392 224.003Z" fill="#407BFF"/>
<path d="M191.056 182.067C190.616 182.067 190.256 181.707 190.256 181.267V172.875C190.256 172.435 190.616 172.075 191.056 172.075C191.496 172.075 191.856 172.435 191.856 172.875V181.267C191.856 181.707 191.496 182.067 191.056 182.067Z" fill="#407BFF"/>
<path d="M191.104 191.683C190.664 191.683 190.304 191.331 190.304 190.891C190.288 189.491 190.28 188.091 190.264 186.683C190.264 186.243 190.616 185.883 191.056 185.875C191.496 185.899 191.864 186.219 191.864 186.667C191.88 188.067 191.896 189.475 191.904 190.875C191.904 191.315 191.552 191.675 191.112 191.683H191.104Z" fill="#407BFF"/>
<path d="M191.144 213.539C190.704 213.539 190.344 213.179 190.344 212.739C190.368 207.179 190.368 201.435 190.336 195.683C190.336 195.243 190.688 194.883 191.128 194.875C191.568 194.875 191.928 195.227 191.928 195.667C191.96 201.427 191.968 207.171 191.936 212.747C191.936 213.187 191.576 213.547 191.136 213.547L191.144 213.539Z" fill="#407BFF"/>
<path d="M191.056 224.003H191.048C190.608 224.003 190.256 223.635 190.256 223.195C190.272 221.547 190.296 219.891 190.304 218.243C190.304 217.803 190.688 217.435 191.112 217.451C191.552 217.451 191.912 217.819 191.904 218.259C191.888 219.915 191.872 221.563 191.856 223.219C191.856 223.659 191.496 224.011 191.056 224.011V224.003Z" fill="#407BFF"/>
<path d="M220.448 190.611C220.304 190.611 220.168 190.571 220.032 190.499C219.656 190.267 219.528 189.779 219.76 189.403L222.144 185.451C222.376 185.075 222.864 184.947 223.24 185.179C223.616 185.411 223.736 185.899 223.512 186.275L221.128 190.227C220.976 190.475 220.712 190.611 220.44 190.611H220.448Z" fill="#407BFF"/>
<path d="M209.44 208.603C209.304 208.603 209.16 208.571 209.032 208.491C208.648 208.267 208.528 207.779 208.752 207.395C211.04 203.507 214.088 198.403 217.328 193.435C217.568 193.067 218.064 192.963 218.432 193.203C218.8 193.443 218.904 193.939 218.664 194.307C215.44 199.243 212.408 204.331 210.128 208.203C209.976 208.459 209.712 208.595 209.44 208.595V208.603Z" fill="#407BFF"/>
<path d="M204.288 217.379C204.152 217.379 204.008 217.347 203.88 217.267C203.496 217.043 203.376 216.555 203.6 216.171C204.424 214.771 205.24 213.371 206.064 211.971C206.288 211.587 206.776 211.459 207.16 211.683C207.544 211.907 207.672 212.395 207.448 212.779C206.632 214.179 205.808 215.579 204.984 216.979C204.832 217.235 204.568 217.371 204.296 217.371L204.288 217.379Z" fill="#407BFF"/>
<path d="M199.544 225.267C199.4 225.267 199.256 225.227 199.12 225.147C198.744 224.915 198.632 224.419 198.864 224.043C199.528 222.971 200.184 221.899 200.832 220.819C201.064 220.443 201.552 220.315 201.928 220.547C202.304 220.779 202.424 221.267 202.2 221.643C201.544 222.723 200.888 223.811 200.224 224.883C200.072 225.131 199.808 225.259 199.544 225.259V225.267Z" fill="#407BFF"/>
<g opacity="0.7">
<path d="M127.544 191.475C127.36 191.475 127.176 191.411 127.032 191.283L125.072 189.627C124.736 189.339 124.688 188.835 124.976 188.499C125.264 188.163 125.768 188.115 126.104 188.403L128.064 190.059C128.4 190.347 128.448 190.851 128.16 191.187C128 191.371 127.776 191.475 127.552 191.475H127.544Z" fill="white"/>
<path d="M137.576 199.907C137.392 199.907 137.208 199.843 137.064 199.715C134.936 197.923 132.808 196.131 130.672 194.355C130.336 194.075 130.288 193.571 130.568 193.227C130.848 192.883 131.352 192.843 131.696 193.123C133.832 194.907 135.968 196.699 138.096 198.491C138.432 198.779 138.48 199.283 138.192 199.619C138.032 199.803 137.808 199.907 137.576 199.907Z" fill="white"/>
<path d="M145.584 206.691C145.4 206.691 145.216 206.627 145.064 206.499L141.272 203.275C140.936 202.987 140.896 202.483 141.176 202.147C141.464 201.811 141.968 201.771 142.304 202.051L146.104 205.275C146.44 205.563 146.48 206.067 146.192 206.403C146.032 206.587 145.808 206.683 145.584 206.683V206.691Z" fill="white"/>
<path d="M162.872 221.379C162.688 221.379 162.504 221.315 162.36 221.187C157.912 217.443 153.48 213.667 149.048 209.891L148.856 209.723C148.52 209.435 148.48 208.931 148.768 208.595C149.056 208.259 149.56 208.219 149.896 208.507L150.088 208.675C154.512 212.443 158.944 216.219 163.392 219.963C163.728 220.251 163.776 220.755 163.488 221.091C163.328 221.283 163.104 221.379 162.872 221.379Z" fill="white"/>
<path d="M170.944 228.115C170.768 228.115 170.584 228.051 170.432 227.931C169.152 226.875 167.872 225.811 166.6 224.747C166.264 224.467 166.216 223.963 166.496 223.619C166.776 223.283 167.28 223.235 167.624 223.515C168.896 224.579 170.176 225.635 171.456 226.691C171.8 226.971 171.848 227.475 171.56 227.819C171.4 228.011 171.176 228.107 170.944 228.107V228.115Z" fill="white"/>
<path d="M160.632 178.611C160.328 178.611 160.04 178.435 159.904 178.147L158.824 175.779C158.64 175.379 158.824 174.899 159.216 174.715C159.616 174.531 160.096 174.715 160.28 175.107L161.36 177.475C161.544 177.875 161.36 178.355 160.968 178.539C160.864 178.587 160.744 178.611 160.632 178.611Z" fill="white"/>
<path d="M167.776 193.891C167.472 193.891 167.184 193.715 167.048 193.419C165.36 189.699 163.832 186.467 162.384 183.547C162.184 183.155 162.352 182.675 162.744 182.475C163.144 182.275 163.624 182.443 163.816 182.835C165.272 185.771 166.808 189.019 168.504 192.755C168.688 193.155 168.504 193.635 168.104 193.811C168 193.859 167.888 193.883 167.776 193.883V193.891Z" fill="white"/>
<path d="M172.112 203.643C171.808 203.643 171.512 203.467 171.376 203.163C170.792 201.835 170.208 200.499 169.616 199.171C169.44 198.771 169.616 198.291 170.024 198.115C170.424 197.939 170.904 198.115 171.08 198.523C171.672 199.851 172.256 201.187 172.84 202.523C173.016 202.931 172.84 203.403 172.432 203.579C172.328 203.627 172.216 203.643 172.112 203.643Z" fill="white"/>
<path d="M181.392 224.003C181.096 224.003 180.816 223.843 180.672 223.555C178.048 218.251 175.6 212.787 173.352 207.667C173.176 207.267 173.352 206.795 173.76 206.611C174.16 206.435 174.64 206.611 174.816 207.019C177.064 212.123 179.496 217.571 182.112 222.843C182.304 223.243 182.144 223.715 181.752 223.915C181.64 223.971 181.52 223.995 181.4 223.995L181.392 224.003Z" fill="white"/>
<path d="M191.056 182.067C190.616 182.067 190.256 181.707 190.256 181.267V172.875C190.256 172.435 190.616 172.075 191.056 172.075C191.496 172.075 191.856 172.435 191.856 172.875V181.267C191.856 181.707 191.496 182.067 191.056 182.067Z" fill="white"/>
<path d="M191.104 191.683C190.664 191.683 190.304 191.331 190.304 190.891C190.288 189.491 190.28 188.091 190.264 186.683C190.264 186.243 190.616 185.883 191.056 185.875C191.496 185.899 191.864 186.219 191.864 186.667C191.88 188.067 191.896 189.475 191.904 190.875C191.904 191.315 191.552 191.675 191.112 191.683H191.104Z" fill="white"/>
<path d="M191.144 213.539C190.704 213.539 190.344 213.179 190.344 212.739C190.368 207.179 190.368 201.435 190.336 195.683C190.336 195.243 190.688 194.883 191.128 194.875C191.568 194.875 191.928 195.227 191.928 195.667C191.96 201.427 191.968 207.171 191.936 212.747C191.936 213.187 191.576 213.547 191.136 213.547L191.144 213.539Z" fill="white"/>
<path d="M191.056 224.003H191.048C190.608 224.003 190.256 223.635 190.256 223.195C190.272 221.547 190.296 219.891 190.304 218.243C190.304 217.803 190.688 217.435 191.112 217.451C191.552 217.451 191.912 217.819 191.904 218.259C191.888 219.915 191.872 221.563 191.856 223.219C191.856 223.659 191.496 224.011 191.056 224.011V224.003Z" fill="white"/>
<path d="M220.448 190.611C220.304 190.611 220.168 190.571 220.032 190.499C219.656 190.267 219.528 189.779 219.76 189.403L222.144 185.451C222.376 185.075 222.864 184.947 223.24 185.179C223.616 185.411 223.736 185.899 223.512 186.275L221.128 190.227C220.976 190.475 220.712 190.611 220.44 190.611H220.448Z" fill="white"/>
<path d="M209.44 208.603C209.304 208.603 209.16 208.571 209.032 208.491C208.648 208.267 208.528 207.779 208.752 207.395C211.04 203.507 214.088 198.403 217.328 193.435C217.568 193.067 218.064 192.963 218.432 193.203C218.8 193.443 218.904 193.939 218.664 194.307C215.44 199.243 212.408 204.331 210.128 208.203C209.976 208.459 209.712 208.595 209.44 208.595V208.603Z" fill="white"/>
<path d="M204.288 217.379C204.152 217.379 204.008 217.347 203.88 217.267C203.496 217.043 203.376 216.555 203.6 216.171C204.424 214.771 205.24 213.371 206.064 211.971C206.288 211.587 206.776 211.459 207.16 211.683C207.544 211.907 207.672 212.395 207.448 212.779C206.632 214.179 205.808 215.579 204.984 216.979C204.832 217.235 204.568 217.371 204.296 217.371L204.288 217.379Z" fill="white"/>
<path d="M199.544 225.267C199.4 225.267 199.256 225.227 199.12 225.147C198.744 224.915 198.632 224.419 198.864 224.043C199.528 222.971 200.184 221.899 200.832 220.819C201.064 220.443 201.552 220.315 201.928 220.547C202.304 220.779 202.424 221.267 202.2 221.643C201.544 222.723 200.888 223.811 200.224 224.883C200.072 225.131 199.808 225.259 199.544 225.259V225.267Z" fill="white"/>
</g>
</g>
<defs>
<clipPath id="clip0_366_2484">
<rect width="400" height="298.088" fill="white" transform="translate(0 0.0512695)"/>
</clipPath>
</defs>
</svg>
