<?xml version="1.0" encoding="utf-8"?>
<!-- Generator: Adobe Illustrator 27.0.0, SVG Export Plug-In . SVG Version: 6.00 Build 0)  -->
<svg version="1.1" id="Layer_1" xmlns="http://www.w3.org/2000/svg" xmlns:xlink="http://www.w3.org/1999/xlink" x="0px" y="0px"
	 viewBox="0 0 500 500" style="enable-background:new 0 0 500 500;" xml:space="preserve">
<style type="text/css">
	.st0{display:none;}
	.st1{display:inline;}
	.st2{fill:#407BFF;}
	.st3{opacity:0.9;fill:#FFFFFF;enable-background:new    ;}
	.st4{fill:#EBEBEB;}
	.st5{fill:#F0F0F0;}
	.st6{fill:#FAFAFA;}
	.st7{fill:#E0E0E0;}
	.st8{fill:#F5F5F5;}
	.st9{fill:#FFFFFF;}
	.st10{fill:#E6E6E6;}
	.st11{fill:#263238;}
	.st12{fill:#FFC3BD;}
	.st13{opacity:0.2;enable-background:new    ;}
	.st14{fill:#ED847E;}
	.st15{opacity:0.3;fill:#FFFFFF;enable-background:new    ;}
	.st16{opacity:0.6;fill:#FFFFFF;enable-background:new    ;}
	.st17{opacity:0.4;fill:#FFFFFF;enable-background:new    ;}
	.st18{opacity:0.2;fill:#FFFFFF;enable-background:new    ;}
	.st19{opacity:0.8;fill:#FFFFFF;enable-background:new    ;}
	.st20{fill:#7F3E3B;}
	.st21{opacity:0.3;enable-background:new    ;}
	.st22{fill:#630F0F;}
</style>
<g id="Background_Complete">
</g>
<g id="Background_Simple" class="st0">
	<g class="st1">
		<path class="st2" d="M355.9,209.1c-23.7-50.2-66.9-4.3-96.1-40.5c-17.6-21.8-16.7-41.9-41.7-53c-17.4-7.7-36.8-5.2-55.4-14.5
			c-31.8-15.9-72-23.5-84.1,29.6c-5.1,22.1-4,52.5,15.5,78c16.6,21.7,39.5,11.7,57.1,28.5c33.8,32.1,6.9,102,56.3,121.4
			c43.4,17,62.8-43.3,106.9-24.5c33.1,14.1,87.2,51.5,107-15.8c8.4-28.7-4.8-50.5-21.8-64.2C376,235.4,371.5,241.9,355.9,209.1z"/>
		<path class="st3" d="M355.9,209.1c-23.7-50.2-66.9-4.3-96.1-40.5c-17.6-21.8-16.7-41.9-41.7-53c-17.4-7.7-36.8-5.2-55.4-14.5
			c-31.8-15.9-72-23.5-84.1,29.6c-5.1,22.1-4,52.5,15.5,78c16.6,21.7,39.5,11.7,57.1,28.5c33.8,32.1,6.9,102,56.3,121.4
			c43.4,17,62.8-43.3,106.9-24.5c33.1,14.1,87.2,51.5,107-15.8c8.4-28.7-4.8-50.5-21.8-64.2C376,235.4,371.5,241.9,355.9,209.1z"/>
	</g>
</g>
<g id="Shadow_1_">
</g>
<g id="Character_2">
</g>
<g id="Product_iteration">
</g>
<g id="Character_1">
	<g>
		<g>
			<rect y="393.9" class="st4" width="500" height="0.2"/>
			<rect x="131.5" y="409.2" class="st4" width="33.1" height="0.2"/>
			<rect x="250.2" y="406.5" class="st4" width="8.7" height="0.2"/>
			<rect x="52.5" y="402.4" class="st4" width="19.2" height="0.2"/>
			<rect x="389.7" y="400.6" class="st4" width="26.1" height="0.2"/>
			<rect x="357.3" y="400.6" class="st4" width="23.4" height="0.2"/>
			<rect x="356.2" y="412.6" class="st4" width="93.7" height="0.2"/>
			<path class="st4" d="M237,349.2H43.9c-3.1,0-5.7-2.6-5.7-5.7V72.1c0-3.1,2.6-5.7,5.7-5.7H237c3.1,0,5.7,2.6,5.7,5.7v271.4
				C242.7,346.6,240.2,349.2,237,349.2z M43.9,66.7c-3,0-5.5,2.4-5.5,5.5v271.4c0,3,2.4,5.5,5.5,5.5H237c3,0,5.5-2.4,5.5-5.5V72.1
				c0-3-2.4-5.5-5.5-5.5L43.9,66.7L43.9,66.7z"/>
			<path class="st4" d="M453.3,349.2H260.2c-3.1,0-5.7-2.6-5.7-5.7V72.1c0-3.1,2.6-5.7,5.7-5.7h193.1c3.1,0,5.7,2.6,5.7,5.7v271.4
				C459,346.6,456.5,349.2,453.3,349.2z M260.2,66.7c-3,0-5.5,2.4-5.5,5.5v271.4c0,3,2.4,5.5,5.5,5.5h193.1c3,0,5.5-2.4,5.5-5.5
				V72.1c0-3-2.4-5.5-5.5-5.5L260.2,66.7L260.2,66.7z"/>
		</g>
		<g>
			<g>
				<g>
					<rect x="84.2" y="235.4" class="st5" width="10.5" height="50"/>
					<rect x="85.9" y="239.1" class="st6" width="7.1" height="33.9"/>
					<rect x="94.7" y="235.4" class="st7" width="22.5" height="50"/>
				</g>
				<g>
					<rect x="96.9" y="235.4" class="st5" width="10.5" height="50"/>
					<rect x="98.6" y="239.1" class="st6" width="7.1" height="33.9"/>
					<rect x="107.4" y="235.4" class="st7" width="22.5" height="50"/>
				</g>
				<rect x="118.4" y="215.9" class="st4" width="3.8" height="178"/>
				<rect x="54.5" y="215.9" class="st4" width="3.8" height="178"/>
				<rect x="134.8" y="215.9" class="st4" width="3.8" height="178"/>
				<rect x="70.9" y="215.9" class="st4" width="3.8" height="178"/>
				<g>
					<rect x="66.6" y="309.8" class="st5" width="10.5" height="50"/>
					<rect x="68.2" y="313.5" class="st6" width="7.1" height="33.9"/>
					<rect x="77.1" y="309.8" class="st7" width="22.5" height="50"/>
				</g>
				<g>
					<rect x="79.3" y="309.8" class="st5" width="10.5" height="50"/>
					<rect x="81" y="313.5" class="st6" width="7.1" height="33.9"/>
					<rect x="89.8" y="309.8" class="st7" width="22.5" height="50"/>
				</g>
				<rect x="52.5" y="210.9" class="st5" width="86.1" height="5"/>
				<rect x="52.5" y="285.2" class="st5" width="86.1" height="5"/>
				<rect x="52.5" y="359.6" class="st5" width="86.1" height="5"/>
			</g>
			<g>
				<rect x="81" y="98.6" class="st5" width="58.8" height="74"/>
				<rect x="68" y="98.6" class="st8" width="69.6" height="74"/>
				<rect x="73.8" y="104.3" class="st9" width="57.9" height="62.3"/>
				<path class="st5" d="M115.8,135.4c-0.1,17.1-26.1,17.1-26.2,0C89.8,118.3,115.8,118.3,115.8,135.4z"/>
			</g>
			<g>
				<rect x="216.7" y="87.4" class="st5" width="222.8" height="129.6"/>
				<rect x="184.4" y="87.4" class="st8" width="248.9" height="129.6"/>
				<rect x="198.9" y="97.7" class="st9" width="219.9" height="109.2"/>
				<rect x="198.9" y="97.7" class="st6" width="219.9" height="34.8"/>
				<rect x="198.9" y="160.9" class="st5" width="219.9" height="46.1"/>
			</g>
			<g>
				<rect x="431.6" y="294.8" class="st10" width="6.6" height="99.1"/>
				<rect x="435.7" y="294.8" class="st5" width="4.6" height="99.1"/>
				<rect x="268.3" y="294.8" class="st5" width="173.3" height="11.2"/>
				<rect x="258.8" y="306" class="st10" width="6.6" height="87.9"/>
				<rect x="262.9" y="306" class="st5" width="4.6" height="87.9"/>
				<rect x="217.2" y="306" class="st10" width="6.6" height="87.9"/>
				<rect x="221.3" y="306" class="st10" width="4.6" height="87.9"/>
				<rect x="390" y="306" class="st10" width="6.6" height="87.9"/>
				<rect x="394.1" y="306" class="st10" width="4.6" height="87.9"/>
				<rect x="217.2" y="294.8" class="st10" width="51.1" height="11.2"/>
			</g>
			<g>
				<g>
					<path class="st10" d="M398.8,272c-5.6,6.2-25.6,12.8-31.6-6.9c-4.3-14.3,19.8-24.8,34.2-25.4c15.5-0.7,24.7,4.8,24.7,4.8
						S413.8,255.4,398.8,272z"/>
					<path class="st10" d="M367.3,276.2c33.6,0.4,16-59.9-34.7-35.4C332.6,240.9,359.4,275.5,367.3,276.2z"/>
					<path class="st10" d="M387.8,246.1c-9.9,4.5-18.2,6-13.5-8c7.5-28.3,31.2-27.8,45.6-19.4C420,218.6,397.8,241.6,387.8,246.1z"
						/>
					<path class="st10" d="M374.4,245.1c7.6,2.2,13.5,1.8,7.9-11.7c-7.2-22.9-29.7-21.8-37.8-14
						C344.4,219.4,366.8,242.9,374.4,245.1z"/>
					<path class="st10" d="M390.9,222.9c-26.2,24.2-14.7-21.2-0.5-25.2c6.1-3.1,19.6-1.7,19.6-1.7S399.1,215.6,390.9,222.9z"/>
					<path class="st10" d="M369.7,220.9c5.4,4.3,10,6.5,8.3-2.5c-0.9-13.5-16.9-19.5-23.6-16.9C354.4,201.6,364.3,216.6,369.7,220.9
						z"/>
				</g>
				<g>
					<polygon class="st5" points="406.7,271.9 352.7,271.9 359.8,294.8 399.6,294.8 					"/>
				</g>
			</g>
		</g>
		<path id="_x3C_Path_x3E__347_" class="st8" d="M443.9,427.6C454,442,46,442,56.1,427.6C46,413.2,454.1,413.2,443.9,427.6z"/>
		<g>
			<g>
				<path class="st11" d="M287.6,196.6c-7.5,8.9-19.1,23.6-32.3,20c-7.5-0.4-32.2-38.9-13.7-31.2l5.2,5.9c4,4.1,8.1,9.6,13.2,11.9
					c0-0.3-1.9-0.1-2.2,0c6.6-3.6,12.2-10.9,17.3-16.6C281.5,178.8,293.8,188.6,287.6,196.6z"/>
				<path class="st12" d="M236.5,187.1c-5.6-0.1-7.8-7-10.4-9.1c-2.2-2.4,1.1-5.2,2.5-6.9c1.1-1.3,3.1-1.5,4.4-0.3
					C237.8,173.9,243.1,183.1,236.5,187.1z"/>
				<path class="st11" d="M330.6,330.2c-4.9-36.2-6.8-57.7-10-75.7l-30.8-0.5c0,0,13.8,57.8,20.4,81.3c6.6,23.6,43.8,82.2,43.8,82.2
					l8.2-4.9C362.2,412.6,339.4,357.6,330.6,330.2z"/>
				<path class="st11" d="M348.5,426.6c0,0,6.2-7.5,6.1-10.1l6.8-4l3.7,7.5l-3.3,1.9l-1-0.3l-0.7,1.3c-3.4,2-8.8,5.1-11.4,5.5
					C348.1,427.5,348.5,426.6,348.5,426.6z"/>
				<path class="st11" d="M319.3,181.6c-13-0.2-44.3-6.1-47.2,11.2c-2.2,15.8-0.3,43.3,1.1,71c23.8,8.2,49-0.1,49-0.1
					c0.9-5.6-1.1-23.9-2.4-33.7C319.8,219.6,339.8,184.6,319.3,181.6z"/>
				<path class="st2" d="M291.2,181.1c-5.9,9.2-2.6,19.3,0.9,33.6c4-11.1,12.7-25.5,18-33.9C303.4,179.4,297.5,179.6,291.2,181.1z"
					/>
				<g>
					<path class="st12" d="M308.5,160.9L296.1,171c1.6,4.3,2.1,8.7-4.9,10.4c-1.8,2.3,1.3,5,4.2,6.2c4.7-0.6,11.3-2.1,14.1-6.1
						C308.6,178.4,307.3,167.1,308.5,160.9z"/>
					<path class="st9" d="M292.5,185.1c0,0,0.6,2.1,2.6,3.9c1.9,0,4.7-2.1,4.7-2.1s-1.1-3-2.6-3.6
						C293.3,184.1,292.5,185.1,292.5,185.1z"/>
					<path class="st9" d="M296.8,187.6c-1.1-0.8-2.1-0.5-2.1-0.5c-4.9,6.9-6.8,18.5-2.6,27.7c1.2-3.4,2.9-7.2,4.8-11
						C296.3,199.2,296,193.4,296.8,187.6z"/>
					<path class="st13" d="M303.3,165.1l-7.2,5.9c0.4,1,0.7,2.1,0.9,3.1C301.7,174.2,305.4,168.9,303.3,165.1z"/>
				</g>
				<path class="st11" d="M289.9,143.9c-4,2.3-1.9,4.6-1.9,4.6s-1.7,4.6,0.6,7.8C299.2,143.6,289.9,143.9,289.9,143.9z"/>
				<path class="st12" d="M310.3,153.9c-1.1,7.8-1.4,12.4-5.7,16.1c-6.5,5.5-15.8,1-17-7C283.6,138.8,310,133.6,310.3,153.9z"/>
				<path class="st11" d="M310.1,158.8c-5,0.5-4.1-7.7-2.4-9.3c-4.9,0.1-3.9-3.2-3.3-4.4c-8.1,1.7-13.9,2.1-17.6-2
					c-2.7-3-5.6,0.4-6.5-2.8c2,1.1,5.6-4.3,8.1-2.1c2.4,2.2,4.9-5.5,8.6-2.2c5,4.5,18.1-7.7,16.9,5.7c6.9,5.8-2.4,9.4-1.8,15.5
					C310.2,160.1,310.1,158.8,310.1,158.8z"/>
				<path class="st11" d="M311.3,143.4c-2.5-0.9,5.9-2.1,4.4-6.6c-0.1-0.3,0.1-0.5,0.3-0.6C319.1,138.2,313.4,143.4,311.3,143.4z"/>
				<path class="st12" d="M312.9,159.9c-0.8,1.8-2.3,3-3.8,3.6c-5.6,1.4-2.9-8.5,1.2-8.1C312.7,155.6,313.8,157.9,312.9,159.9z"/>
				<path class="st11" d="M298.6,154.1c-0.1,1.5-1.6,1.4-1.5-0.1S298.7,152.6,298.6,154.1z"/>
				<path class="st11" d="M291,153.9c-0.1,1.5-1.6,1.4-1.5-0.1S291.1,152.4,291,153.9z"/>
				<path class="st14" d="M293.3,154.9c0,0-1.8,3.5-3.5,5.2c1,1.2,3,0.9,3,0.9L293.3,154.9z"/>
				<path class="st11" d="M301.2,152.2c0.3,0,0.5-0.3,0.4-0.5c-0.8-1.9-2.5-2.3-2.5-2.3c-0.5-0.1-0.6,0.6-0.1,0.7
					c0.1,0,1.4,0.3,2,1.9C300.9,152.1,301.1,152.2,301.2,152.2z"/>
				<path class="st11" d="M288.2,151.6c1.2-0.6,2.8-0.9,3-0.6c1.7-0.5-1.2-1.6-3.1-0.1C287.8,151.1,287.9,151.4,288.2,151.6z"/>
				<g>
					<path class="st2" d="M310.1,180.9c-1,2.2-5.5,9.2-10.8,9.5c0.4-1.3-0.8-5.9-2.1-7.2C300.3,183.4,304.6,182.8,310.1,180.9z"/>
					<path class="st15" d="M310.1,180.9c-1,2.2-5.5,9.2-10.8,9.5c0.4-1.3-0.8-5.9-2.1-7.2C300.3,183.4,304.6,182.8,310.1,180.9z"/>
				</g>
				<g>
					<path class="st2" d="M297.1,183.1c-2.7,1-5.4,3.9-6.2,6.6c-4.3-1.8-1.3-6.8,0.3-8.6C291.9,182.1,293.9,182.9,297.1,183.1z"/>
					<path class="st15" d="M297.1,183.1c-2.7,1-5.4,3.9-6.2,6.6c-4.3-1.8-1.3-6.8,0.3-8.6C291.9,182.1,293.9,182.9,297.1,183.1z"/>
				</g>
				<path class="st11" d="M326.8,186.2c7.9,9.7,15.9,19.7,18.4,32.3c-0.3,7.4-6.2,12.7-11.1,17.3c-4.5,2.8-14.3,13.5-18.8,6.9
					c-0.7-1.5-0.4-3.3,0.7-4.4c5.6-6.2,12.8-13.1,15.1-21.2l-0.2,3.4c-3.7-8.7-10.8-16.6-16.4-24.2
					C308.2,188.6,320.4,178.6,326.8,186.2z"/>
				<path class="st12" d="M320,243.1c-0.1-1.2-2.9-5.5-4.4-4.9c-4.4,0.6-8.8,1.9-12.3,4.7c-3.1,2.1,0.1,5.5,1.6,7.5
					c1.9,2.9,5.8-0.2,7.9-1.1C312.9,249.2,319.8,247.1,320,243.1z"/>
				<path class="st2" d="M318.3,237.1c0,0-2.7-0.4-4.4,0.1c-0.9,2.3,2.9,9.2,4.8,10.4c1.2-0.3,4.1-2.7,4.1-2.7
					C321.2,242.6,319.4,238.9,318.3,237.1z"/>
				<path class="st2" d="M241.8,185.4c0,0,0-2.8-0.6-4.3c-2.4-0.6-8.8,3.9-9.8,5.9c0.4,1.2,3.1,3.7,3.1,3.7
					C236.6,188.9,240.2,186.8,241.8,185.4z"/>
				<polygon class="st2" points="353.6,418 362.9,413 360.8,407.2 350.5,414.1 				"/>
				<path class="st11" d="M300.3,333.5c2.2-36.5,6.4-61,4.7-79l-30.8-0.5c-1.1,17.6,11.5,149.4,17.3,165.9h9.5
					C301.1,420,303.7,361.8,300.3,333.5z"/>
				<path class="st11" d="M276.1,425c0,0,15.5-3.3,16.5-5.6h7.9l0.3,8.3h-6.4l-0.8-0.8l-1.2,0.8c-3.9,0-14.2-0.2-16.7-1
					C275.4,425.5,276.1,425,276.1,425z"/>
				<polygon class="st2" points="291,420.2 301.6,420.5 302.1,414.5 289.8,415.2 				"/>
				<path class="st11" d="M295.7,163.1c-0.3,0.1-2,0-1.1-0.5c3.1,0.4,5.1-1.6,5.1-1.6C300.8,161.1,298.4,163.1,295.7,163.1z"/>
			</g>
		</g>
		<g>
			<rect x="348.5" y="322.1" class="st2" width="8.3" height="1"/>
			<rect x="362.9" y="322.1" class="st2" width="18.6" height="1"/>
			<path class="st2" d="M387.5,281.6h-116l-18.7,34.6c-0.8,1.5,0.3,3.4,2,3.4h132.7l9.5-19L387.5,281.6z"/>
			<g>
				<path class="st2" d="M257.5,114.2c41.2,3.7,73.9,37.3,76.2,78.9c0.1,1.7,1.8,2.7,3.3,1.9c18.7-9.3,12.6-9.5,31.3-0.1
					c1.6,0.8,3.4-0.4,3.3-2.2c-2.5-62.5-52.3-113-114.4-116.6l-9.4,18.7L257.5,114.2z"/>
				<path class="st16" d="M257.5,114.2c41.2,3.7,73.9,37.3,76.2,78.9c0.1,1.7,1.8,2.7,3.3,1.9c18.7-9.3,12.6-9.5,31.3-0.1
					c1.6,0.8,3.4-0.4,3.3-2.2c-2.5-62.5-52.3-113-114.4-116.6l-9.4,18.7L257.5,114.2z"/>
			</g>
			<g>
				<path class="st2" d="M166.3,190.2c3.7-41.2,37.3-73.9,78.9-76.2c1.7-0.1,2.7-1.8,1.9-3.3c-9.3-18.7-9.5-12.6-0.1-31.3
					c0.8-1.6-0.4-3.4-2.2-3.3c-62.5,2.5-113,52.3-116.6,114.4l18.7,9.4L166.3,190.2z"/>
				<path class="st17" d="M166.3,190.2c3.7-41.2,37.3-73.9,78.9-76.2c1.7-0.1,2.7-1.8,1.9-3.3c-9.3-18.7-9.5-12.6-0.1-31.3
					c0.8-1.6-0.4-3.4-2.2-3.3c-62.5,2.5-113,52.3-116.6,114.4l18.7,9.4L166.3,190.2z"/>
			</g>
			<g>
				<path class="st2" d="M242.3,281.4c-41.2-3.7-73.9-37.3-76.2-78.9c-0.1-1.7-1.8-2.7-3.3-1.9c-2.4,0.7-15,9-17.5,7l-13.8-6.9
					c-1.6-0.8-3.4,0.4-3.3,2.2c1.2,30.5,13.7,58.2,33.5,78.9H103l9.6,19.2l-9.3,18.5h139.3l9.4-18.7L242.3,281.4z"/>
				<path class="st18" d="M242.3,281.4c-41.2-3.7-73.9-37.3-76.2-78.9c-0.1-1.7-1.8-2.7-3.3-1.9c-2.4,0.7-15,9-17.5,7l-13.8-6.9
					c-1.6-0.8-3.4,0.4-3.3,2.2c1.2,30.5,13.7,58.2,33.5,78.9H103l9.6,19.2l-9.3,18.5h139.3l9.4-18.7L242.3,281.4z"/>
			</g>
			<g>
				<path class="st2" d="M333.4,205.4c-3.7,41.2-37.3,73.9-78.9,76.2c-1.7,0.1-2.7,1.8-1.9,3.3c9.3,18.7,9.5,12.6,0.1,31.3
					c-0.8,1.6,0.4,3.4,2.2,3.3c62.5-2.5,113-52.3,116.6-114.4l-18.7-9.4L333.4,205.4z"/>
				<path class="st19" d="M333.4,205.4c-3.7,41.2-37.3,73.9-78.9,76.2c-1.7,0.1-2.7,1.8-1.9,3.3c9.3,18.7,9.5,12.6,0.1,31.3
					c-0.8,1.6,0.4,3.4,2.2,3.3c62.5-2.5,113-52.3,116.6-114.4l-18.7-9.4L333.4,205.4z"/>
			</g>
		</g>
		<g>
			<path class="st2" d="M249,195.8l-5.5-15.7l-8.3,0.8c-2-3-4.4-5.6-7-7.9l1.7-8.2l-14.9-7.2l-5.3,6.4c-3.4-0.7-7-0.9-10.5-0.6
				l-4.6-7l-15.7,5.5l0.8,8.3c-3,2-5.6,4.4-7.9,7l-8.2-1.7l-7.2,14.9l6.4,5.3c-0.7,3.4-0.9,7-0.6,10.5l-7,4.6l5.5,15.7l8.3-0.8
				c2,3,4.4,5.6,7,7.9l-1.7,8.2l14.9,7.2l5.3-6.4c3.4,0.7,7,0.9,10.5,0.6l4.6,7l15.7-5.5l-0.8-8.3c3-2,5.6-4.4,7.9-7l8.2,1.7
				l7.2-14.9l-6.4-5.3c0.7-3.4,0.9-7,0.6-10.5L249,195.8z M208.2,220.6c-22.8,7.5-34.6-26.2-12.1-34.5
				C218.9,178.6,230.7,212.4,208.2,220.6z"/>
			<g>
				<path class="st20" d="M148.1,205.6c-4.5,7.1-8.2,14.8-11.1,22.7c-0.6,1.6,0,0.6-0.7-0.4c-0.3-0.4-0.6-0.4-0.4-0.3
					c4.4,2.7,21.4-3.8,21.8,0.7c-0.4,5-20.3,8.4-24.7,6.5c-11.1-3.8,4-27.9,7.8-34.3C144,195.8,151.5,200.9,148.1,205.6z"/>
				<path class="st20" d="M165.1,231.1c-1.3,1-3,3-4.9,2.4c-3.5-0.8-8.3-1.7-9-5.9c3.3-3.1,9.1-4.1,9.1-4.1c1.8-0.7,4.3-1,4.9,1.3
					C165.6,226.6,167.2,229.6,165.1,231.1z"/>
				<path class="st20" d="M153.9,172.4c1.4,5.3,3.2,15-0.3,18.6c0,0-2.6,5,13,4.2c11-0.6,3.5-4.2,3.5-4.2c-6-1.4-6.2-5.8-5.5-9.9
					L153.9,172.4z"/>
				<g>
					<path class="st20" d="M130.8,394.5l-10.2-3.7c-0.9,7.8-4.1,19.8-4.1,19.8l7.1,3.1C123.7,413.6,128.4,399.4,130.8,394.5z"/>
					<path class="st11" d="M125.4,425.5c-7-5.2-7.7-6.2-13.4-9.8c-3.1-1.4,3.9-8.5,5.9-7c0.8,1,7.4,4.6,7.1,6.1
						c0,2.8,1.2,5.8,3.7,8.2C131.3,425.5,127.5,427,125.4,425.5z"/>
					<path class="st2" d="M174.8,247.4c-1,23-33.1,126.8-46.2,155.2c-1.8,0.2-6.9-1.9-9.4-4c0,0,3.8-46,16.8-69.8
						c-1.3-69.4,11.9-81.4,11.9-81.4H174.8z"/>
					<path class="st21" d="M174.8,247.4c-1,23-33.1,126.8-46.2,155.2c-1.8,0.2-6.9-1.9-9.4-4c0,0,3.8-46,16.8-69.8
						c-1.3-69.4,11.9-81.4,11.9-81.4H174.8z"/>
					<path class="st13" d="M154.9,268l11,21c-2.5,11-5.3,22.5-8,31.8C149.9,298.5,154.9,268,154.9,268z"/>
					<path class="st11" d="M130.8,399.2c-0.6,0.8,0,4.3-1.6,4.3c-3.9-1-9-4-10.7-5c-1-0.4,0.1-3.7,0-4.4c0.1-0.5,0.6-0.7,1-0.5
						C119.9,394.1,131.7,398,130.8,399.2z"/>
				</g>
				<g>
					<path class="st20" d="M183.7,399.2L174,400c1.6,7.8,3.3,20.1,3.3,20.1h7.7C184.9,420,183.5,404.6,183.7,399.2z"/>
					<path class="st11" d="M193.1,427.8c-6.7,0-6.2-0.1-10-0.2c-8,0.3-10.2,1.4-7-7.6c0.2-0.8,0.9-1.3,1.7-1.3
						c1.2,0.3,8.7-0.7,9.3,0.8c1.5,2.3,4.1,3.9,7.5,4.4C198.2,424.2,195.8,427.8,193.1,427.8z"/>
					<path class="st2" d="M183.1,247.4c1.1,10.6,3.7,150.8,1.1,160.5c-0.2,1.4-7.8,0.9-9.1,0c0,0-14.5-42.8-9-79.8
						c-19.5-48-13.9-79.5-13.9-79.5L183.1,247.4z"/>
					<path class="st21" d="M183.1,247.4c1.1,10.6,3.7,150.8,1.1,160.5c-0.2,1.4-7.8,0.9-9.1,0c0,0-14.5-42.8-9-79.8
						c-19.5-48-13.9-79.5-13.9-79.5L183.1,247.4z"/>
					<path class="st11" d="M185.2,403.9c-0.3,1.1,1,4.3-0.5,4.9c-3.2,0.4-8.4,0-10.1-0.1c-1,0.1-1-3.6-1.3-4.1
						c-0.1-0.5,0.3-0.9,0.8-1C174.5,403.9,185.6,402.4,185.2,403.9z"/>
				</g>
				<path class="st20" d="M149.8,238.9c0,2.6-1,8.4-1,8.4h33.9l0.4-8.6C183.1,238.8,156.9,237.2,149.8,238.9z"/>
				<path class="st11" d="M186.3,203.8c-0.2,10.3,0.3,20.7-0.3,35.2c-3.7,2.2-28.2,2.1-40.2,0.5c4.8-22.1-14.7-45.8,2.4-48.2
					C161,191.2,184.2,186.4,186.3,203.8z"/>
				<path class="st20" d="M235.8,229.1c-0.9-1.4-1.8-3.9-3.8-3.9c-3.5-0.4-8.4-1.3-10.5,2.5c2,4,7.1,7,7.1,7
					c1.4,1.3,3.7,2.4,5.1,0.5C234.8,233.4,237.3,231.1,235.8,229.1z"/>
				<path class="st20" d="M189.4,206.1c3.2,5.2,8,9.3,13,12.8l-0.8-0.4c7.5,2.6,16.2,4.1,24,6.2c7.5,6.6-10.5,3.9-13.4,3.7
					c-12.7-0.1-24.8-7.1-30.9-18.5C178.7,204.8,186.9,200.9,189.4,206.1z"/>
				<path class="st11" d="M176.2,192.1c6.6,1.7,12.3,7.4,20,18.6c-1.1,4.6-11,9.8-11,9.8S164.5,199.9,176.2,192.1z"/>
				<path class="st11" d="M171.1,162.6c0.5,1.6,2.2,1.2,1.6-0.5C172.2,160.6,170.6,160.9,171.1,162.6z"/>
				<path class="st11" d="M171.3,161.2l1.5-0.9C172.8,160.2,172.4,161.9,171.3,161.2z"/>
				<path class="st22" d="M171.7,163.9c0,0,2.2,2.6,4,3.7c-0.6,1.1-2.3,1.2-2.3,1.2L171.7,163.9z"/>
				<path class="st11" d="M170.1,156.9c0.4-0.1,0.4-0.6,0.1-0.8c-2.1-1.2-3.9-0.5-3.9-0.4c-0.5,0.2-0.1,1,0.4,0.8
					C166.7,156.2,168.7,156.1,170.1,156.9z"/>
				<path class="st20" d="M147.5,166.6c3.3,8.1,4.5,11.6,10.1,14.6c8.4,4.6,17.7-0.6,16.9-9.4C172.2,144.9,142.2,145.1,147.5,166.6z
					"/>
				<path class="st11" d="M166.2,166.4c10.3,30.8-36.2,17.5-22.8-2.4c-8.2-7.3,2.4-13.2,12.1-15.8
					C165.4,145.4,173.9,147.9,166.2,166.4z"/>
				<path class="st2" d="M151.4,165.9c1.8,8.2-11.1,10.8-12.7,2.6C136.9,160.2,149.9,157.6,151.4,165.9z"/>
				<path class="st11" d="M146.7,176.2c8.5-19.4-24.8-33.4-21.7-12.4c4,10.8-17.1,21.8-4.8,28.2c12,6.2,32-4.8,26.4-15.6
					C146.6,176.4,146.6,176.4,146.7,176.2z"/>
				<path class="st20" d="M162.9,166.8c2.1,3.8,7.7,3.9,5.7-1.4C166.7,159.6,160,160.6,162.9,166.8z"/>
				<path class="st11" d="M147.8,191.4c-5.9,0.9-8.3,2.7-13.1,14.6c2.2,4.4,12.5,8.7,12.5,8.7S154,199.4,147.8,191.4z"/>
				<path class="st11" d="M183.1,249.9c-12,1.4-24.5,1.3-36.5-0.1c-1.6-0.5,0-2.3,0.3-3.3c11.3-0.3,24.2,1.4,35.9-0.5
					C184,246.1,184.3,249.9,183.1,249.9z"/>
			</g>
		</g>
	</g>
</g>
</svg>
