<svg width="523" height="365" fill="none" xmlns="http://www.w3.org/2000/svg"><path d="M522.265 320.007h-522v.246h522v-.246zM469.961 335.732h-34.577v.245h34.577v-.245zM346.059 338.39h-9.073v.245h9.073v-.245zM434.34 326.662h-20.035v.246h20.035v-.246zM100.124 328.304h-45.09v.246h45.09v-.246zM116.034 328.304h-6.608v.246h6.608v-.246zM235.322 332.428H137.52v.246h97.802v-.246zM247.703 276.421H46.118c-3.29 0-5.962-2.502-5.962-5.58V5.581C40.156 2.5 42.83 0 46.118 0h201.596c3.288 0 5.961 2.502 5.961 5.58v265.261c-.01 3.078-2.683 5.58-5.972 5.58zM46.118.244c-3.143 0-5.7 2.395-5.7 5.336v265.261c0 2.941 2.557 5.336 5.7 5.336h201.596c3.142 0 5.7-2.395 5.7-5.336V5.581c0-2.942-2.558-5.337-5.7-5.337H46.118zM473.521 276.421H271.924c-3.288 0-5.961-2.502-5.961-5.58V5.581c0-3.08 2.673-5.581 5.961-5.581h201.597c3.288 0 5.961 2.502 5.961 5.58v265.261c0 3.078-2.673 5.58-5.961 5.58zM271.924.244c-3.142 0-5.7 2.395-5.7 5.336v265.261c0 2.941 2.558 5.336 5.7 5.336h201.597c3.142 0 5.7-2.395 5.7-5.336V5.581c0-2.942-2.558-5.337-5.7-5.337H271.924z" fill="#EBEBEB"/><g opacity=".5"><path d="M216.373 71.067c0-6.118-5.293-11.072-11.828-11.072-1.18 0-2.318.166-3.393.469.177-1.114.261-2.248.261-3.401 0-12.949-11.223-23.455-25.056-23.455-1.577 0-3.122.147-4.615.401-3.852-5.903-10.774-9.85-18.698-9.85-11.995 0-21.725 9.02-21.903 20.21-.125 0-.24-.02-.365-.02-11.15 0-20.181 8.463-20.181 18.89 0 10.437 9.041 18.89 20.181 18.89H204.9l-.011-.019c6.369-.156 11.484-5.033 11.484-11.043zM297.805 120.615c0-3.04-2.631-5.502-5.877-5.502-.585 0-1.149.078-1.692.234a11.15 11.15 0 0 0 .136-1.69c0-6.431-5.575-11.65-12.445-11.65-.783 0-1.545.069-2.296.206-1.911-2.932-5.356-4.896-9.292-4.896-5.961 0-10.795 4.485-10.878 10.036-.063 0-.126-.01-.178-.01-5.533 0-10.022 4.203-10.022 9.382 0 5.18 4.489 9.382 10.022 9.382h36.822l-.01-.01c3.163-.068 5.71-2.492 5.71-5.482zM427.783 67.04c0-1.856-1.607-3.37-3.601-3.37-.355 0-.71.048-1.034.146a6.85 6.85 0 0 0 .084-1.036c0-3.939-3.414-7.134-7.622-7.134-.48 0-.95.039-1.409.127-1.169-1.798-3.278-3-5.69-3-3.654 0-6.608 2.746-6.671 6.147-.042 0-.073-.01-.115-.01-3.393 0-6.139 2.57-6.139 5.746 0 3.176 2.746 5.746 6.139 5.746h22.551c1.952-.048 3.507-1.534 3.507-3.361z" fill="#F0F0F0"/><path d="M143.521 51.782v5.09h-.617v-4.444h-.029l-1.243.825v-.626l1.272-.846h.617zm3.125 5.16a1.52 1.52 0 0 1-.958-.306c-.263-.205-.464-.503-.604-.892-.139-.391-.208-.864-.208-1.417 0-.55.069-1.02.208-1.41.141-.39.343-.689.607-.894.265-.208.583-.311.955-.311.371 0 .688.103.952.31.265.206.467.504.606.895.141.39.211.86.211 1.41 0 .553-.069 1.026-.208 1.417-.14.39-.341.687-.604.892a1.52 1.52 0 0 1-.957.306zm0-.547c.371 0 .659-.179.865-.537.205-.358.308-.868.308-1.531 0-.44-.047-.816-.142-1.126-.093-.31-.227-.546-.403-.709a.887.887 0 0 0-.628-.243c-.368 0-.656.181-.863.544-.207.361-.311.873-.311 1.534 0 .44.047.815.139 1.124.093.308.227.542.401.703.175.16.387.241.634.241zm4.504-4.614v5.091h-.617v-4.444h-.03l-1.242.825v-.626l1.272-.846h.617zm3.124 5.161a1.52 1.52 0 0 1-.957-.306c-.263-.205-.464-.503-.604-.892-.139-.391-.208-.864-.208-1.417 0-.55.069-1.02.208-1.41.141-.39.343-.689.607-.894.265-.208.583-.311.954-.311.372 0 .689.103.952.31.266.206.468.504.607.895.141.39.211.86.211 1.41 0 .553-.069 1.026-.209 1.417-.139.39-.34.687-.604.892-.263.204-.582.306-.957.306zm0-.547c.372 0 .66-.179.865-.537.206-.358.309-.868.309-1.531 0-.44-.048-.816-.142-1.126-.093-.31-.227-.546-.403-.709a.888.888 0 0 0-.629-.243c-.367 0-.655.181-.862.544-.207.361-.311.873-.311 1.534 0 .44.047.815.139 1.124.093.308.227.542.401.703.175.16.386.241.633.241zm4.505-4.614v5.091h-.617v-4.444h-.03l-1.243.825v-.626l1.273-.846h.617zm3.124 5.161a1.52 1.52 0 0 1-.957-.306c-.263-.205-.465-.503-.604-.892-.139-.391-.209-.864-.209-1.417 0-.55.07-1.02.209-1.41.141-.39.343-.689.607-.894.265-.208.583-.311.954-.311.372 0 .689.103.952.31.266.206.468.504.607.895.141.39.211.86.211 1.41 0 .553-.069 1.026-.209 1.417-.139.39-.34.687-.604.892-.263.204-.582.306-.957.306zm0-.547c.372 0 .66-.179.865-.537.206-.358.309-.868.309-1.531 0-.44-.048-.816-.142-1.126-.093-.31-.227-.546-.403-.709a.888.888 0 0 0-.629-.243c-.368 0-.655.181-.862.544-.207.361-.311.873-.311 1.534 0 .44.046.815.139 1.124.093.308.226.542.4.703.176.16.387.241.634.241zm4.375.547a1.52 1.52 0 0 1-.957-.306c-.263-.205-.465-.503-.604-.892-.139-.391-.209-.864-.209-1.417 0-.55.07-1.02.209-1.41.141-.39.343-.689.607-.894.265-.208.583-.311.954-.311.372 0 .689.103.952.31.266.206.468.504.607.895.141.39.211.86.211 1.41 0 .553-.069 1.026-.209 1.417-.139.39-.34.687-.604.892-.263.204-.582.306-.957.306zm0-.547c.372 0 .66-.179.865-.537.206-.358.309-.868.309-1.531 0-.44-.048-.816-.142-1.126-.093-.31-.227-.546-.403-.709a.888.888 0 0 0-.629-.243c-.368 0-.655.181-.862.544-.207.361-.311.873-.311 1.534 0 .44.046.815.139 1.124.093.308.226.542.4.703.176.16.387.241.634.241zm4.375.547a1.52 1.52 0 0 1-.957-.306c-.263-.205-.465-.503-.604-.892-.139-.391-.209-.864-.209-1.417 0-.55.07-1.02.209-1.41.141-.39.343-.689.607-.894.265-.208.583-.311.954-.311.372 0 .689.103.952.31.266.206.468.504.607.895.141.39.211.86.211 1.41 0 .553-.069 1.026-.209 1.417-.139.39-.34.687-.604.892-.263.204-.582.306-.957.306zm0-.547c.372 0 .66-.179.865-.537.206-.358.309-.868.309-1.531 0-.44-.048-.816-.142-1.126-.093-.31-.227-.546-.403-.709a.888.888 0 0 0-.629-.243c-.368 0-.655.181-.862.544-.207.361-.311.873-.311 1.534 0 .44.046.815.139 1.124.093.308.226.542.4.703.176.16.387.241.634.241zm4.375.547a1.52 1.52 0 0 1-.957-.306c-.263-.205-.465-.503-.604-.892-.139-.391-.209-.864-.209-1.417 0-.55.07-1.02.209-1.41.141-.39.343-.689.607-.894.265-.208.583-.311.954-.311.372 0 .689.103.952.31.266.206.468.504.607.895.141.39.211.86.211 1.41 0 .553-.069 1.026-.209 1.417-.139.39-.34.687-.604.892-.263.204-.582.306-.957.306zm0-.547c.372 0 .66-.179.865-.537.206-.358.309-.868.309-1.531 0-.44-.048-.816-.142-1.126-.093-.31-.227-.546-.403-.709a.888.888 0 0 0-.629-.243c-.368 0-.655.181-.862.544-.207.361-.311.873-.311 1.534 0 .44.046.815.139 1.124.093.308.226.542.4.703.176.16.387.241.634.241zm4.505-4.614v5.091h-.617v-4.444h-.03l-1.243.825v-.626l1.273-.846h.617zm3.253 0v5.091h-.616v-4.444h-.03l-1.243.825v-.626l1.273-.846h.616zm3.254 0v5.091h-.616v-4.444h-.03l-1.243.825v-.626l1.273-.846h.616zm3.254 0v5.091h-.616v-4.444h-.03l-1.243.825v-.626l1.273-.846h.616zm3.254 0v5.091h-.616v-4.444h-.03l-1.243.825v-.626l1.273-.846h.616zm3.125 5.161c-.375 0-.694-.102-.957-.306-.264-.205-.465-.503-.604-.892-.139-.391-.209-.864-.209-1.417 0-.55.07-1.02.209-1.41.141-.39.343-.689.606-.894.265-.208.584-.311.955-.311s.688.103.952.31c.265.206.467.504.606.895.141.39.212.86.212 1.41 0 .553-.07 1.026-.209 1.417-.139.39-.341.687-.604.892a1.52 1.52 0 0 1-.957.306zm0-.547c.371 0 .659-.179.865-.537.205-.358.308-.868.308-1.531 0-.44-.047-.816-.142-1.126-.092-.31-.227-.546-.402-.709a.89.89 0 0 0-.629-.243c-.368 0-.656.181-.863.544-.207.361-.31.873-.31 1.534 0 .44.046.815.139 1.124.093.308.226.542.4.703.176.16.387.241.634.241zm4.504-4.614v5.091h-.616v-4.444h-.03l-1.243.825v-.626l1.273-.846h.616zm3.125 5.161c-.375 0-.694-.102-.957-.306-.264-.205-.465-.503-.604-.892-.14-.391-.209-.864-.209-1.417 0-.55.069-1.02.209-1.41.141-.39.343-.689.606-.894.265-.208.584-.311.955-.311s.688.103.952.31c.265.206.467.504.606.895.141.39.212.86.212 1.41 0 .553-.07 1.026-.209 1.417-.139.39-.341.687-.604.892a1.52 1.52 0 0 1-.957.306zm0-.547c.371 0 .659-.179.865-.537.205-.358.308-.868.308-1.531 0-.44-.047-.816-.142-1.126-.092-.31-.227-.546-.402-.709a.89.89 0 0 0-.629-.243c-.368 0-.656.181-.863.544-.207.361-.311.873-.311 1.534 0 .44.047.815.14 1.124.092.308.226.542.4.703.176.16.387.241.634.241zm4.504-4.614v5.091h-.616v-4.444h-.03l-1.243.825v-.626l1.273-.846h.616zm3.125 5.161c-.375 0-.694-.102-.957-.306-.264-.205-.465-.503-.604-.892-.14-.391-.209-.864-.209-1.417 0-.55.069-1.02.209-1.41.14-.39.343-.689.606-.894.265-.208.583-.311.955-.311.371 0 .688.103.952.31.265.206.467.504.606.895.141.39.212.86.212 1.41 0 .553-.07 1.026-.209 1.417-.139.39-.341.687-.604.892a1.52 1.52 0 0 1-.957.306zm0-.547c.371 0 .659-.179.865-.537.205-.358.308-.868.308-1.531 0-.44-.047-.816-.142-1.126-.093-.31-.227-.546-.402-.709a.89.89 0 0 0-.629-.243c-.368 0-.656.181-.863.544-.207.361-.311.873-.311 1.534 0 .44.047.815.14 1.124.092.308.226.542.4.703.175.16.387.241.634.241zm4.504-4.614v5.091h-.617v-4.444h-.029l-1.243.825v-.626l1.272-.846h.617zm3.125 5.161c-.375 0-.694-.102-.957-.306-.264-.205-.465-.503-.605-.892-.139-.391-.208-.864-.208-1.417 0-.55.069-1.02.208-1.41.141-.39.344-.689.607-.894.265-.208.583-.311.955-.311.371 0 .688.103.952.31.265.206.467.504.606.895.141.39.211.86.211 1.41 0 .553-.069 1.026-.208 1.417-.14.39-.341.687-.604.892a1.52 1.52 0 0 1-.957.306zm0-.547c.371 0 .659-.179.865-.537.205-.358.308-.868.308-1.531 0-.44-.047-.816-.142-1.126-.093-.31-.227-.546-.403-.709a.887.887 0 0 0-.628-.243c-.368 0-.656.181-.863.544-.207.361-.311.873-.311 1.534 0 .44.047.815.139 1.124.093.308.227.542.401.703.175.16.387.241.634.241zm4.504-4.614v5.091h-.617v-4.444h-.029l-1.243.825v-.626l1.272-.846h.617zm3.124 5.161a1.52 1.52 0 0 1-.957-.306c-.263-.205-.464-.503-.604-.892-.139-.391-.208-.864-.208-1.417 0-.55.069-1.02.208-1.41.141-.39.343-.689.607-.894.265-.208.583-.311.954-.311.372 0 .689.103.953.31.265.206.467.504.606.895.141.39.211.86.211 1.41 0 .553-.069 1.026-.208 1.417-.14.39-.341.687-.604.892a1.52 1.52 0 0 1-.958.306zm0-.547c.372 0 .66-.179.866-.537.205-.358.308-.868.308-1.531 0-.44-.047-.816-.142-1.126-.093-.31-.227-.546-.403-.709a.888.888 0 0 0-.629-.243c-.367 0-.655.181-.862.544-.207.361-.311.873-.311 1.534 0 .44.047.815.139 1.124.093.308.227.542.401.703.175.16.387.241.633.241zm4.505-4.614v5.091h-.617v-4.444h-.03l-1.242.825v-.626l1.272-.846h.617z" fill="#EBEBEB"/><path d="M151.221 56.942c-.375 0-.694-.102-.957-.306-.264-.205-.465-.503-.604-.892-.14-.391-.209-.864-.209-1.417 0-.55.069-1.02.209-1.41.14-.39.343-.689.606-.894.265-.208.583-.311.955-.311.371 0 .688.103.952.31.265.206.467.504.606.895.141.39.212.86.212 1.41 0 .553-.07 1.026-.209 1.417-.139.39-.341.687-.604.892a1.52 1.52 0 0 1-.957.306zm0-.547c.371 0 .659-.179.865-.537.205-.358.308-.868.308-1.531 0-.44-.047-.816-.142-1.126-.092-.31-.227-.546-.402-.709a.89.89 0 0 0-.629-.243c-.368 0-.656.181-.863.544-.207.361-.311.873-.311 1.534 0 .44.047.815.14 1.124.092.308.226.542.4.703.175.16.387.241.634.241zm4.375.547c-.375 0-.694-.102-.957-.306-.264-.205-.465-.503-.604-.892-.14-.391-.209-.864-.209-1.417 0-.55.069-1.02.209-1.41.14-.39.343-.689.606-.894.265-.208.583-.311.955-.311.371 0 .688.103.952.31.265.206.467.504.606.895.141.39.212.86.212 1.41 0 .553-.07 1.026-.209 1.417-.139.39-.341.687-.604.892a1.52 1.52 0 0 1-.957.306zm0-.547c.371 0 .659-.179.865-.537.205-.358.308-.868.308-1.531 0-.44-.047-.816-.142-1.126-.092-.31-.227-.546-.402-.709a.89.89 0 0 0-.629-.243c-.368 0-.656.181-.863.544-.207.361-.311.873-.311 1.534 0 .44.047.815.14 1.124.092.308.226.542.4.703.175.16.387.241.634.241zm4.504-4.614v5.091h-.617v-4.444h-.029l-1.243.825v-.626l1.272-.846h.617zm3.254 0v5.091h-.617v-4.444h-.029l-1.243.825v-.626l1.272-.846h.617zm3.125 5.161a1.52 1.52 0 0 1-.958-.306c-.263-.205-.464-.503-.604-.892-.139-.391-.208-.864-.208-1.417 0-.55.069-1.02.208-1.41.141-.39.343-.689.607-.894.265-.208.583-.311.955-.311.371 0 .688.103.952.31.265.206.467.504.606.895.141.39.211.86.211 1.41 0 .553-.069 1.026-.208 1.417-.14.39-.341.687-.604.892a1.52 1.52 0 0 1-.957.306zm0-.547c.371 0 .659-.179.865-.537.205-.358.308-.868.308-1.531 0-.44-.047-.816-.142-1.126-.093-.31-.227-.546-.403-.709a.887.887 0 0 0-.628-.243c-.368 0-.656.181-.863.544-.207.361-.311.873-.311 1.534 0 .44.047.815.139 1.124.093.308.227.542.401.703.175.16.387.241.634.241zm4.504-4.614v5.091h-.617v-4.444h-.03l-1.242.825v-.626l1.272-.846h.617zm3.254 0v5.091h-.617v-4.444h-.03l-1.243.825v-.626l1.273-.846h.617zm3.124 5.161a1.52 1.52 0 0 1-.957-.306c-.263-.205-.465-.503-.604-.892-.139-.391-.209-.864-.209-1.417 0-.55.07-1.02.209-1.41.141-.39.343-.689.607-.894.265-.208.583-.311.954-.311.372 0 .689.103.952.31.266.206.468.504.607.895.141.39.211.86.211 1.41 0 .553-.069 1.026-.209 1.417-.139.39-.34.687-.604.892-.263.204-.582.306-.957.306zm0-.547c.372 0 .66-.179.865-.537.206-.358.309-.868.309-1.531 0-.44-.048-.816-.142-1.126-.093-.31-.227-.546-.403-.709a.888.888 0 0 0-.629-.243c-.368 0-.655.181-.862.544-.207.361-.311.873-.311 1.534 0 .44.046.815.139 1.124.093.308.226.542.4.703.176.16.387.241.634.241zm4.375.547a1.52 1.52 0 0 1-.957-.306c-.263-.205-.465-.503-.604-.892-.139-.391-.209-.864-.209-1.417 0-.55.07-1.02.209-1.41.141-.39.343-.689.607-.894.265-.208.583-.311.954-.311.372 0 .689.103.952.31.266.206.468.504.607.895.141.39.211.86.211 1.41 0 .553-.069 1.026-.209 1.417-.139.39-.34.687-.604.892-.263.204-.582.306-.957.306zm0-.547c.372 0 .66-.179.865-.537.206-.358.309-.868.309-1.531 0-.44-.048-.816-.142-1.126-.093-.31-.227-.546-.403-.709a.888.888 0 0 0-.629-.243c-.368 0-.655.181-.862.544-.207.361-.311.873-.311 1.534 0 .44.046.815.139 1.124.093.308.226.542.4.703.176.16.387.241.634.241zm4.505-4.614v5.091h-.617v-4.444h-.03l-1.243.825v-.626l1.273-.846h.617zm3.253 0v5.091h-.616v-4.444h-.03l-1.243.825v-.626l1.273-.846h.616zm3.125 5.161a1.52 1.52 0 0 1-.957-.306c-.263-.205-.465-.503-.604-.892-.139-.391-.209-.864-.209-1.417 0-.55.07-1.02.209-1.41.141-.39.343-.689.607-.894.265-.208.583-.311.954-.311s.689.103.952.31c.265.206.468.504.607.895.141.39.211.86.211 1.41 0 .553-.07 1.026-.209 1.417-.139.39-.34.687-.604.892-.263.204-.582.306-.957.306zm0-.547c.371 0 .66-.179.865-.537.206-.358.308-.868.308-1.531 0-.44-.047-.816-.141-1.126-.093-.31-.227-.546-.403-.709a.89.89 0 0 0-.629-.243c-.368 0-.655.181-.862.544-.208.361-.311.873-.311 1.534 0 .44.046.815.139 1.124.093.308.226.542.4.703.176.16.387.241.634.241zm4.375.547a1.52 1.52 0 0 1-.957-.306c-.263-.205-.465-.503-.604-.892-.139-.391-.209-.864-.209-1.417 0-.55.07-1.02.209-1.41.141-.39.343-.689.607-.894.265-.208.583-.311.954-.311s.689.103.952.31c.265.206.468.504.607.895.141.39.211.86.211 1.41 0 .553-.07 1.026-.209 1.417-.139.39-.34.687-.604.892-.263.204-.582.306-.957.306zm0-.547c.371 0 .66-.179.865-.537.206-.358.308-.868.308-1.531 0-.44-.047-.816-.141-1.126-.093-.31-.227-.546-.403-.709a.89.89 0 0 0-.629-.243c-.368 0-.655.181-.862.544-.208.361-.311.873-.311 1.534 0 .44.046.815.139 1.124.093.308.226.542.4.703.176.16.387.241.634.241zm4.375.547a1.52 1.52 0 0 1-.957-.306c-.263-.205-.465-.503-.604-.892-.139-.391-.209-.864-.209-1.417 0-.55.07-1.02.209-1.41.141-.39.343-.689.607-.894.265-.208.583-.311.954-.311s.689.103.952.31c.265.206.468.504.607.895.141.39.211.86.211 1.41 0 .553-.07 1.026-.209 1.417-.139.39-.34.687-.604.892-.263.204-.582.306-.957.306zm0-.547c.371 0 .66-.179.865-.537.206-.358.308-.868.308-1.531 0-.44-.047-.816-.141-1.126-.093-.31-.227-.546-.403-.709a.89.89 0 0 0-.629-.243c-.368 0-.655.181-.862.544-.208.361-.311.873-.311 1.534 0 .44.046.815.139 1.124.093.308.226.542.4.703.176.16.387.241.634.241zm4.504-4.614v5.091h-.616v-4.444h-.03l-1.243.825v-.626l1.273-.846h.616zm3.254 0v5.091h-.616v-4.444h-.03l-1.243.825v-.626l1.273-.846h.616zm3.125 5.161c-.375 0-.694-.102-.957-.306-.264-.205-.465-.503-.604-.892-.139-.391-.209-.864-.209-1.417 0-.55.07-1.02.209-1.41.141-.39.343-.689.606-.894.266-.208.584-.311.955-.311s.689.103.952.31c.265.206.467.504.607.895.14.39.211.86.211 1.41 0 .553-.07 1.026-.209 1.417-.139.39-.341.687-.604.892a1.52 1.52 0 0 1-.957.306zm0-.547c.371 0 .66-.179.865-.537.206-.358.308-.868.308-1.531 0-.44-.047-.816-.141-1.126-.093-.31-.227-.546-.403-.709a.89.89 0 0 0-.629-.243c-.368 0-.655.181-.863.544-.207.361-.31.873-.31 1.534 0 .44.046.815.139 1.124.093.308.226.542.4.703.176.16.387.241.634.241zm4.504-4.614v5.091h-.616v-4.444h-.03l-1.243.825v-.626l1.273-.846h.616zm3.125 5.161c-.375 0-.694-.102-.957-.306-.264-.205-.465-.503-.604-.892-.139-.391-.209-.864-.209-1.417 0-.55.07-1.02.209-1.41.141-.39.343-.689.606-.894.265-.208.584-.311.955-.311s.688.103.952.31c.265.206.467.504.606.895.141.39.212.86.212 1.41 0 .553-.07 1.026-.209 1.417-.139.39-.341.687-.604.892a1.52 1.52 0 0 1-.957.306zm0-.547c.371 0 .659-.179.865-.537.205-.358.308-.868.308-1.531 0-.44-.047-.816-.142-1.126-.092-.31-.227-.546-.402-.709a.89.89 0 0 0-.629-.243c-.368 0-.656.181-.863.544-.207.361-.31.873-.31 1.534 0 .44.046.815.139 1.124.093.308.226.542.4.703.176.16.387.241.634.241zm4.504-4.614v5.091h-.616v-4.444h-.03l-1.243.825v-.626l1.273-.846h.616zm3.254 0v5.091h-.616v-4.444h-.03l-1.243.825v-.626l1.273-.846h.616zm3.254 0v5.091h-.617v-4.444h-.029l-1.243.825v-.626l1.272-.846h.617zm3.254 0v5.091h-.617v-4.444h-.029l-1.243.825v-.626l1.272-.846h.617zm3.254 0v5.091h-.617v-4.444h-.03l-1.242.825v-.626l1.272-.846h.617z" fill="#EBEBEB"/><path d="M159.181 51.782v5.09h-.617v-4.444h-.03l-1.243.825v-.626l1.273-.846h.617zm3.253 0v5.09h-.616v-4.444h-.03l-1.243.825v-.626l1.273-.846h.616zm3.254 0v5.09h-.616v-4.444h-.03l-1.243.825v-.626l1.273-.846h.616zm3.254 0v5.09h-.616v-4.444h-.03l-1.243.825v-.626l1.273-.846h.616zm3.254 0v5.09h-.616v-4.444h-.03l-1.243.825v-.626l1.273-.846h.616zm3.125 5.16c-.375 0-.694-.102-.957-.306-.264-.205-.465-.503-.604-.892-.139-.391-.209-.864-.209-1.417 0-.55.07-1.02.209-1.41.141-.39.343-.689.606-.894.265-.208.584-.311.955-.311s.688.103.952.31c.265.206.467.504.606.895.141.39.212.86.212 1.41 0 .553-.07 1.026-.209 1.417-.139.39-.341.687-.604.892a1.52 1.52 0 0 1-.957.306zm0-.547c.371 0 .659-.179.865-.537.205-.358.308-.868.308-1.531 0-.44-.047-.816-.142-1.126-.092-.31-.227-.546-.402-.709a.89.89 0 0 0-.629-.243c-.368 0-.656.181-.863.544-.207.361-.31.873-.31 1.534 0 .44.046.815.139 1.124.093.308.226.542.4.703.176.16.387.241.634.241zm4.504-4.614v5.091h-.616v-4.444h-.03l-1.243.825v-.626l1.273-.846h.616zm3.125 5.161c-.375 0-.694-.102-.957-.306-.264-.205-.465-.503-.604-.892-.14-.391-.209-.864-.209-1.417 0-.55.069-1.02.209-1.41.14-.39.343-.689.606-.894.265-.208.583-.311.955-.311.371 0 .688.103.952.31.265.206.467.504.606.895.141.39.212.86.212 1.41 0 .553-.07 1.026-.209 1.417-.139.39-.341.687-.604.892a1.52 1.52 0 0 1-.957.306zm0-.547c.371 0 .659-.179.865-.537.205-.358.308-.868.308-1.531 0-.44-.047-.816-.142-1.126-.092-.31-.227-.546-.402-.709a.89.89 0 0 0-.629-.243c-.368 0-.656.181-.863.544-.207.361-.311.873-.311 1.534 0 .44.047.815.14 1.124.092.308.226.542.4.703.175.16.387.241.634.241zm4.504-4.614v5.091h-.617v-4.444h-.029l-1.243.825v-.626l1.272-.846h.617zm3.125 5.161c-.375 0-.694-.102-.957-.306-.264-.205-.465-.503-.604-.892-.14-.391-.209-.864-.209-1.417 0-.55.069-1.02.209-1.41.14-.39.343-.689.606-.894.265-.208.583-.311.955-.311.371 0 .688.103.952.31.265.206.467.504.606.895.141.39.211.86.211 1.41 0 .553-.069 1.026-.208 1.417-.14.39-.341.687-.604.892a1.52 1.52 0 0 1-.957.306zm0-.547c.371 0 .659-.179.865-.537.205-.358.308-.868.308-1.531 0-.44-.047-.816-.142-1.126-.093-.31-.227-.546-.402-.709a.89.89 0 0 0-.629-.243c-.368 0-.656.181-.863.544-.207.361-.311.873-.311 1.534 0 .44.047.815.14 1.124.092.308.226.542.4.703.175.16.387.241.634.241zm4.504-4.614v5.091h-.617v-4.444h-.029l-1.243.825v-.626l1.272-.846h.617zm3.125 5.161a1.52 1.52 0 0 1-.958-.306c-.263-.205-.464-.503-.604-.892-.139-.391-.208-.864-.208-1.417 0-.55.069-1.02.208-1.41.141-.39.343-.689.607-.894.265-.208.583-.311.955-.311.371 0 .688.103.952.31.265.206.467.504.606.895.141.39.211.86.211 1.41 0 .553-.069 1.026-.208 1.417-.14.39-.341.687-.604.892a1.52 1.52 0 0 1-.957.306zm0-.547c.371 0 .659-.179.865-.537.205-.358.308-.868.308-1.531 0-.44-.047-.816-.142-1.126-.093-.31-.227-.546-.403-.709a.887.887 0 0 0-.628-.243c-.368 0-.656.181-.863.544-.207.361-.311.873-.311 1.534 0 .44.047.815.139 1.124.093.308.227.542.401.703.175.16.387.241.634.241zm4.504-4.614v5.091h-.617v-4.444h-.03l-1.242.825v-.626l1.272-.846h.617zm3.124 5.161a1.52 1.52 0 0 1-.957-.306c-.263-.205-.464-.503-.604-.892-.139-.391-.208-.864-.208-1.417 0-.55.069-1.02.208-1.41.141-.39.343-.689.607-.894.265-.208.583-.311.954-.311.372 0 .689.103.952.31.266.206.468.504.607.895.141.39.211.86.211 1.41 0 .553-.069 1.026-.208 1.417-.14.39-.341.687-.605.892-.263.204-.582.306-.957.306zm0-.547c.372 0 .66-.179.865-.537.206-.358.309-.868.309-1.531 0-.44-.048-.816-.142-1.126-.093-.31-.227-.546-.403-.709a.888.888 0 0 0-.629-.243c-.367 0-.655.181-.862.544-.207.361-.311.873-.311 1.534 0 .44.047.815.139 1.124.093.308.227.542.401.703.175.16.387.241.633.241zm4.505-4.614v5.091h-.617v-4.444h-.03l-1.243.825v-.626l1.273-.846h.617zm3.124 5.161a1.52 1.52 0 0 1-.957-.306c-.263-.205-.465-.503-.604-.892-.139-.391-.209-.864-.209-1.417 0-.55.07-1.02.209-1.41.141-.39.343-.689.607-.894.265-.208.583-.311.954-.311.372 0 .689.103.952.31.266.206.468.504.607.895.141.39.211.86.211 1.41 0 .553-.069 1.026-.209 1.417-.139.39-.34.687-.604.892-.263.204-.582.306-.957.306zm0-.547c.372 0 .66-.179.865-.537.206-.358.309-.868.309-1.531 0-.44-.048-.816-.142-1.126-.093-.31-.227-.546-.403-.709a.888.888 0 0 0-.629-.243c-.368 0-.655.181-.862.544-.207.361-.311.873-.311 1.534 0 .44.046.815.139 1.124.093.308.226.542.4.703.176.16.387.241.634.241zm4.505-4.614v5.091h-.617v-4.444h-.03l-1.243.825v-.626l1.273-.846h.617zm3.253 0v5.091h-.616v-4.444h-.03l-1.243.825v-.626l1.273-.846h.616zm3.254 0v5.091h-.616v-4.444h-.03l-1.243.825v-.626l1.273-.846h.616zm3.254 0v5.091h-.616v-4.444h-.03l-1.243.825v-.626l1.273-.846h.616zm3.125 5.161c-.375 0-.694-.102-.957-.306-.264-.205-.465-.503-.604-.892-.139-.391-.209-.864-.209-1.417 0-.55.07-1.02.209-1.41.141-.39.343-.689.606-.894.266-.208.584-.311.955-.311s.689.103.952.31c.265.206.467.504.607.895.14.39.211.86.211 1.41 0 .553-.07 1.026-.209 1.417-.139.39-.341.687-.604.892a1.52 1.52 0 0 1-.957.306zm0-.547c.371 0 .66-.179.865-.537.206-.358.308-.868.308-1.531 0-.44-.047-.816-.141-1.126-.093-.31-.227-.546-.403-.709a.89.89 0 0 0-.629-.243c-.368 0-.655.181-.863.544-.207.361-.31.873-.31 1.534 0 .44.046.815.139 1.124.093.308.226.542.4.703.176.16.387.241.634.241zm4.375.547c-.375 0-.694-.102-.957-.306-.264-.205-.465-.503-.604-.892-.139-.391-.209-.864-.209-1.417 0-.55.07-1.02.209-1.41.141-.39.343-.689.606-.894.266-.208.584-.311.955-.311s.689.103.952.31c.265.206.467.504.607.895.14.39.211.86.211 1.41 0 .553-.07 1.026-.209 1.417-.139.39-.341.687-.604.892a1.52 1.52 0 0 1-.957.306zm0-.547c.371 0 .66-.179.865-.537.206-.358.308-.868.308-1.531 0-.44-.047-.816-.141-1.126-.093-.31-.227-.546-.403-.709a.89.89 0 0 0-.629-.243c-.368 0-.655.181-.863.544-.207.361-.31.873-.31 1.534 0 .44.046.815.139 1.124.093.308.226.542.4.703.176.16.387.241.634.241zm4.375.547c-.375 0-.694-.102-.957-.306-.264-.205-.465-.503-.604-.892-.139-.391-.209-.864-.209-1.417 0-.55.07-1.02.209-1.41.141-.39.343-.689.606-.894.266-.208.584-.311.955-.311s.689.103.952.31c.265.206.467.504.607.895.14.39.211.86.211 1.41 0 .553-.07 1.026-.209 1.417-.139.39-.341.687-.604.892a1.52 1.52 0 0 1-.957.306zm0-.547c.371 0 .66-.179.865-.537.206-.358.308-.868.308-1.531 0-.44-.047-.816-.141-1.126-.093-.31-.227-.546-.403-.709a.89.89 0 0 0-.629-.243c-.368 0-.655.181-.863.544-.207.361-.31.873-.31 1.534 0 .44.046.815.139 1.124.093.308.226.542.4.703.176.16.387.241.634.241zm4.375.547c-.375 0-.694-.102-.957-.306-.264-.205-.465-.503-.604-.892-.139-.391-.209-.864-.209-1.417 0-.55.07-1.02.209-1.41.141-.39.343-.689.606-.894.266-.208.584-.311.955-.311s.689.103.952.31c.265.206.467.504.607.895.14.39.211.86.211 1.41 0 .553-.07 1.026-.209 1.417-.139.39-.341.687-.604.892a1.52 1.52 0 0 1-.957.306zm0-.547c.371 0 .66-.179.865-.537.206-.358.308-.868.308-1.531 0-.44-.047-.816-.141-1.126-.093-.31-.227-.546-.403-.709a.89.89 0 0 0-.629-.243c-.368 0-.655.181-.863.544-.207.361-.31.873-.31 1.534 0 .44.046.815.139 1.124.093.308.226.542.4.703.176.16.387.241.634.241z" fill="#EBEBEB"/><path d="M167.01 51.782v5.09h-.616v-4.444h-.03l-1.243.825v-.626l1.273-.846h.616zm3.125 5.16c-.375 0-.694-.102-.957-.306-.264-.205-.465-.503-.604-.892-.14-.391-.209-.864-.209-1.417 0-.55.069-1.02.209-1.41.141-.39.343-.689.606-.894.265-.208.584-.311.955-.311s.688.103.952.31c.265.206.467.504.606.895.141.39.212.86.212 1.41 0 .553-.07 1.026-.209 1.417-.139.39-.341.687-.604.892a1.52 1.52 0 0 1-.957.306zm0-.547c.371 0 .659-.179.865-.537.205-.358.308-.868.308-1.531 0-.44-.047-.816-.142-1.126-.092-.31-.227-.546-.402-.709a.89.89 0 0 0-.629-.243c-.368 0-.656.181-.863.544-.207.361-.311.873-.311 1.534 0 .44.047.815.14 1.124.092.308.226.542.4.703.176.16.387.241.634.241zm4.504-4.614v5.091h-.616v-4.444h-.03l-1.243.825v-.626l1.273-.846h.616zm3.125 5.161c-.375 0-.694-.102-.957-.306-.264-.205-.465-.503-.604-.892-.14-.391-.209-.864-.209-1.417 0-.55.069-1.02.209-1.41.14-.39.343-.689.606-.894.265-.208.583-.311.955-.311.371 0 .688.103.952.31.265.206.467.504.606.895.141.39.212.86.212 1.41 0 .553-.07 1.026-.209 1.417-.139.39-.341.687-.604.892a1.52 1.52 0 0 1-.957.306zm0-.547c.371 0 .659-.179.865-.537.205-.358.308-.868.308-1.531 0-.44-.047-.816-.142-1.126-.093-.31-.227-.546-.402-.709a.89.89 0 0 0-.629-.243c-.368 0-.656.181-.863.544-.207.361-.311.873-.311 1.534 0 .44.047.815.14 1.124.092.308.226.542.4.703.175.16.387.241.634.241zm4.504-4.614v5.091h-.617v-4.444h-.029l-1.243.825v-.626l1.272-.846h.617zm3.125 5.161c-.375 0-.694-.102-.957-.306-.264-.205-.465-.503-.605-.892-.139-.391-.208-.864-.208-1.417 0-.55.069-1.02.208-1.41.141-.39.344-.689.607-.894.265-.208.583-.311.955-.311.371 0 .688.103.952.31.265.206.467.504.606.895.141.39.211.86.211 1.41 0 .553-.069 1.026-.208 1.417-.14.39-.341.687-.604.892a1.52 1.52 0 0 1-.957.306zm0-.547c.371 0 .659-.179.865-.537.205-.358.308-.868.308-1.531 0-.44-.047-.816-.142-1.126-.093-.31-.227-.546-.403-.709a.887.887 0 0 0-.628-.243c-.368 0-.656.181-.863.544-.207.361-.311.873-.311 1.534 0 .44.047.815.139 1.124.093.308.227.542.401.703.175.16.387.241.634.241zm4.375.547c-.375 0-.694-.102-.957-.306-.264-.205-.465-.503-.605-.892-.139-.391-.208-.864-.208-1.417 0-.55.069-1.02.208-1.41.141-.39.344-.689.607-.894.265-.208.583-.311.955-.311.371 0 .688.103.952.31.265.206.467.504.606.895.141.39.211.86.211 1.41 0 .553-.069 1.026-.208 1.417-.14.39-.341.687-.604.892a1.52 1.52 0 0 1-.957.306zm0-.547c.371 0 .659-.179.865-.537.205-.358.308-.868.308-1.531 0-.44-.047-.816-.142-1.126-.093-.31-.227-.546-.403-.709a.887.887 0 0 0-.628-.243c-.368 0-.656.181-.863.544-.207.361-.311.873-.311 1.534 0 .44.047.815.139 1.124.093.308.227.542.401.703.175.16.387.241.634.241zm4.375.547c-.375 0-.694-.102-.957-.306-.264-.205-.465-.503-.605-.892-.139-.391-.208-.864-.208-1.417 0-.55.069-1.02.208-1.41.141-.39.344-.689.607-.894.265-.208.583-.311.955-.311.371 0 .688.103.952.31.265.206.467.504.606.895.141.39.211.86.211 1.41 0 .553-.069 1.026-.208 1.417-.14.39-.341.687-.604.892a1.52 1.52 0 0 1-.957.306zm0-.547c.371 0 .659-.179.865-.537.205-.358.308-.868.308-1.531 0-.44-.047-.816-.142-1.126-.093-.31-.227-.546-.403-.709a.887.887 0 0 0-.628-.243c-.368 0-.656.181-.863.544-.207.361-.311.873-.311 1.534 0 .44.047.815.139 1.124.093.308.227.542.401.703.175.16.387.241.634.241zm4.375.547c-.375 0-.694-.102-.957-.306-.264-.205-.465-.503-.605-.892-.139-.391-.208-.864-.208-1.417 0-.55.069-1.02.208-1.41.141-.39.344-.689.607-.894.265-.208.583-.311.955-.311.371 0 .688.103.952.31.265.206.467.504.606.895.141.39.211.86.211 1.41 0 .553-.069 1.026-.208 1.417-.14.39-.341.687-.604.892a1.52 1.52 0 0 1-.957.306zm0-.547c.371 0 .659-.179.865-.537.205-.358.308-.868.308-1.531 0-.44-.047-.816-.142-1.126-.093-.31-.227-.546-.403-.709a.887.887 0 0 0-.628-.243c-.368 0-.656.181-.863.544-.207.361-.311.873-.311 1.534 0 .44.047.815.139 1.124.093.308.227.542.401.703.175.16.387.241.634.241zm4.504-4.614v5.091h-.617v-4.444h-.029l-1.243.825v-.626l1.272-.846h.617zm3.254 0v5.091h-.617v-4.444h-.03l-1.242.825v-.626l1.272-.846h.617zm3.254 0v5.091h-.617v-4.444h-.03l-1.243.825v-.626l1.273-.846h.617zm3.254 0v5.091h-.617v-4.444h-.03l-1.243.825v-.626l1.273-.846h.617zm3.253 0v5.091h-.616v-4.444h-.03l-1.243.825v-.626l1.273-.846h.616zm3.125 5.161a1.52 1.52 0 0 1-.957-.306c-.263-.205-.465-.503-.604-.892-.139-.391-.209-.864-.209-1.417 0-.55.07-1.02.209-1.41.141-.39.343-.689.607-.894.265-.208.583-.311.954-.311s.689.103.952.31c.265.206.467.504.607.895.141.39.211.86.211 1.41 0 .553-.07 1.026-.209 1.417-.139.39-.34.687-.604.892-.263.204-.582.306-.957.306zm0-.547c.371 0 .66-.179.865-.537.206-.358.308-.868.308-1.531 0-.44-.047-.816-.141-1.126-.093-.31-.227-.546-.403-.709a.89.89 0 0 0-.629-.243c-.368 0-.655.181-.862.544-.208.361-.311.873-.311 1.534 0 .44.046.815.139 1.124.093.308.226.542.4.703.176.16.387.241.634.241zm4.504-4.614v5.091h-.616v-4.444h-.03l-1.243.825v-.626l1.273-.846h.616zm3.125 5.161c-.375 0-.694-.102-.957-.306-.264-.205-.465-.503-.604-.892-.139-.391-.209-.864-.209-1.417 0-.55.07-1.02.209-1.41.141-.39.343-.689.606-.894.266-.208.584-.311.955-.311s.689.103.952.31c.265.206.467.504.607.895.14.39.211.86.211 1.41 0 .553-.07 1.026-.209 1.417-.139.39-.34.687-.604.892-.263.204-.582.306-.957.306zm0-.547c.371 0 .66-.179.865-.537.206-.358.308-.868.308-1.531 0-.44-.047-.816-.141-1.126-.093-.31-.227-.546-.403-.709a.89.89 0 0 0-.629-.243c-.368 0-.655.181-.863.544-.207.361-.31.873-.31 1.534 0 .44.046.815.139 1.124.093.308.226.542.4.703.176.16.387.241.634.241zm4.504-4.614v5.091h-.616v-4.444h-.03l-1.243.825v-.626l1.273-.846h.616zm3.125 5.161c-.375 0-.694-.102-.957-.306-.264-.205-.465-.503-.604-.892-.139-.391-.209-.864-.209-1.417 0-.55.07-1.02.209-1.41.141-.39.343-.689.606-.894.266-.208.584-.311.955-.311s.688.103.952.31c.265.206.467.504.607.895.14.39.211.86.211 1.41 0 .553-.07 1.026-.209 1.417-.139.39-.341.687-.604.892a1.52 1.52 0 0 1-.957.306zm0-.547c.371 0 .659-.179.865-.537.205-.358.308-.868.308-1.531 0-.44-.047-.816-.141-1.126-.093-.31-.228-.546-.403-.709a.89.89 0 0 0-.629-.243c-.368 0-.655.181-.863.544-.207.361-.31.873-.31 1.534 0 .44.046.815.139 1.124.093.308.226.542.4.703.176.16.387.241.634.241zm4.504-4.614v5.091h-.616v-4.444h-.03l-1.243.825v-.626l1.273-.846h.616zm3.125 5.161c-.375 0-.694-.102-.957-.306-.264-.205-.465-.503-.604-.892-.139-.391-.209-.864-.209-1.417 0-.55.07-1.02.209-1.41.141-.39.343-.689.606-.894.265-.208.584-.311.955-.311s.688.103.952.31c.265.206.467.504.606.895.141.39.212.86.212 1.41 0 .553-.07 1.026-.209 1.417-.139.39-.341.687-.604.892a1.52 1.52 0 0 1-.957.306zm0-.547c.371 0 .659-.179.865-.537.205-.358.308-.868.308-1.531 0-.44-.047-.816-.142-1.126-.092-.31-.227-.546-.402-.709a.89.89 0 0 0-.629-.243c-.368 0-.656.181-.863.544-.207.361-.31.873-.31 1.534 0 .44.046.815.139 1.124.093.308.226.542.4.703.176.16.387.241.634.241zm4.504-4.614v5.091h-.616v-4.444h-.03l-1.243.825v-.626l1.273-.846h.616zm3.125 5.161c-.375 0-.694-.102-.957-.306-.264-.205-.465-.503-.604-.892-.14-.391-.209-.864-.209-1.417 0-.55.069-1.02.209-1.41.141-.39.343-.689.606-.894.265-.208.584-.311.955-.311s.688.103.952.31c.265.206.467.504.606.895.141.39.212.86.212 1.41 0 .553-.07 1.026-.209 1.417-.139.39-.341.687-.604.892a1.52 1.52 0 0 1-.957.306zm0-.547c.371 0 .659-.179.865-.537.205-.358.308-.868.308-1.531 0-.44-.047-.816-.142-1.126-.092-.31-.227-.546-.402-.709a.89.89 0 0 0-.629-.243c-.368 0-.656.181-.863.544-.207.361-.311.873-.311 1.534 0 .44.047.815.14 1.124.092.308.226.542.4.703.176.16.387.241.634.241zm4.504-4.614v5.091h-.616v-4.444h-.03l-1.243.825v-.626l1.273-.846h.616z" fill="#EBEBEB"/><path d="M174.711 56.942a1.52 1.52 0 0 1-.957-.306c-.263-.205-.464-.503-.604-.892-.139-.391-.208-.864-.208-1.417 0-.55.069-1.02.208-1.41.141-.39.343-.689.607-.894.265-.208.583-.311.954-.311.372 0 .689.103.952.31.266.206.468.504.607.895.141.39.211.86.211 1.41 0 .553-.069 1.026-.208 1.417-.14.39-.341.687-.605.892-.263.204-.582.306-.957.306zm0-.547c.372 0 .66-.179.865-.537.206-.358.309-.868.309-1.531 0-.44-.048-.816-.142-1.126-.093-.31-.227-.546-.403-.709a.888.888 0 0 0-.629-.243c-.367 0-.655.181-.862.544-.207.361-.311.873-.311 1.534 0 .44.047.815.139 1.124.093.308.227.542.401.703.175.16.387.241.633.241zm4.375.547a1.52 1.52 0 0 1-.957-.306c-.263-.205-.464-.503-.604-.892-.139-.391-.208-.864-.208-1.417 0-.55.069-1.02.208-1.41.141-.39.343-.689.607-.894.265-.208.583-.311.954-.311.372 0 .689.103.952.31.266.206.468.504.607.895.141.39.211.86.211 1.41 0 .553-.069 1.026-.208 1.417-.14.39-.341.687-.605.892-.263.204-.582.306-.957.306zm0-.547c.372 0 .66-.179.865-.537.206-.358.309-.868.309-1.531 0-.44-.048-.816-.142-1.126-.093-.31-.227-.546-.403-.709a.888.888 0 0 0-.629-.243c-.367 0-.655.181-.862.544-.207.361-.311.873-.311 1.534 0 .44.047.815.139 1.124.093.308.227.542.401.703.175.16.387.241.633.241zm4.375.547a1.52 1.52 0 0 1-.957-.306c-.263-.205-.464-.503-.604-.892-.139-.391-.208-.864-.208-1.417 0-.55.069-1.02.208-1.41.141-.39.343-.689.607-.894.265-.208.583-.311.954-.311.372 0 .689.103.952.31.266.206.468.504.607.895.141.39.211.86.211 1.41 0 .553-.069 1.026-.208 1.417-.14.39-.341.687-.605.892-.263.204-.582.306-.957.306zm0-.547c.372 0 .66-.179.865-.537.206-.358.309-.868.309-1.531 0-.44-.048-.816-.142-1.126-.093-.31-.227-.546-.403-.709a.888.888 0 0 0-.629-.243c-.367 0-.655.181-.862.544-.207.361-.311.873-.311 1.534 0 .44.047.815.139 1.124.093.308.227.542.401.703.175.16.387.241.633.241zm4.505-4.614v5.091h-.617v-4.444h-.03l-1.243.825v-.626l1.273-.846h.617zm3.124 5.161a1.52 1.52 0 0 1-.957-.306c-.263-.205-.465-.503-.604-.892-.139-.391-.209-.864-.209-1.417 0-.55.07-1.02.209-1.41.141-.39.343-.689.607-.894.265-.208.583-.311.954-.311.372 0 .689.103.952.31.266.206.468.504.607.895.141.39.211.86.211 1.41 0 .553-.069 1.026-.209 1.417-.139.39-.34.687-.604.892-.263.204-.582.306-.957.306zm0-.547c.372 0 .66-.179.865-.537.206-.358.309-.868.309-1.531 0-.44-.048-.816-.142-1.126-.093-.31-.227-.546-.403-.709a.888.888 0 0 0-.629-.243c-.368 0-.655.181-.862.544-.207.361-.311.873-.311 1.534 0 .44.046.815.139 1.124.093.308.226.542.4.703.176.16.387.241.634.241zm4.505-4.614v5.091h-.617v-4.444h-.03l-1.243.825v-.626l1.273-.846h.617zm3.124 5.161a1.52 1.52 0 0 1-.957-.306c-.263-.205-.465-.503-.604-.892-.139-.391-.209-.864-.209-1.417 0-.55.07-1.02.209-1.41.141-.39.343-.689.607-.894.265-.208.583-.311.954-.311s.689.103.952.31c.265.206.468.504.607.895.141.39.211.86.211 1.41 0 .553-.069 1.026-.209 1.417-.139.39-.34.687-.604.892-.263.204-.582.306-.957.306zm0-.547c.371 0 .66-.179.865-.537.206-.358.309-.868.309-1.531 0-.44-.048-.816-.142-1.126-.093-.31-.227-.546-.403-.709a.888.888 0 0 0-.629-.243c-.368 0-.655.181-.862.544-.207.361-.311.873-.311 1.534 0 .44.046.815.139 1.124.093.308.226.542.4.703.176.16.387.241.634.241zm4.504-4.614v5.091h-.616v-4.444h-.03l-1.243.825v-.626l1.273-.846h.616zm3.254 0v5.091h-.616v-4.444h-.03l-1.243.825v-.626l1.273-.846h.616zm3.254 0v5.091h-.616v-4.444h-.03l-1.243.825v-.626l1.273-.846h.616zm3.254 0v5.091h-.616v-4.444h-.03l-1.243.825v-.626l1.273-.846h.616zm3.254 0v5.091h-.616v-4.444h-.03l-1.243.825v-.626l1.273-.846h.616zm3.125 5.161c-.375 0-.694-.102-.957-.306-.264-.205-.465-.503-.604-.892-.14-.391-.209-.864-.209-1.417 0-.55.069-1.02.209-1.41.141-.39.343-.689.606-.894.265-.208.584-.311.955-.311s.688.103.952.31c.265.206.467.504.606.895.141.39.212.86.212 1.41 0 .553-.07 1.026-.209 1.417-.139.39-.341.687-.604.892a1.52 1.52 0 0 1-.957.306zm0-.547c.371 0 .659-.179.865-.537.205-.358.308-.868.308-1.531 0-.44-.047-.816-.142-1.126-.092-.31-.227-.546-.402-.709a.89.89 0 0 0-.629-.243c-.368 0-.656.181-.863.544-.207.361-.311.873-.311 1.534 0 .44.047.815.14 1.124.092.308.226.542.4.703.176.16.387.241.634.241zm4.375.547c-.375 0-.694-.102-.957-.306-.264-.205-.465-.503-.604-.892-.14-.391-.209-.864-.209-1.417 0-.55.069-1.02.209-1.41.141-.39.343-.689.606-.894.265-.208.584-.311.955-.311s.688.103.952.31c.265.206.467.504.606.895.141.39.212.86.212 1.41 0 .553-.07 1.026-.209 1.417-.139.39-.341.687-.604.892a1.52 1.52 0 0 1-.957.306zm0-.547c.371 0 .659-.179.865-.537.205-.358.308-.868.308-1.531 0-.44-.047-.816-.142-1.126-.092-.31-.227-.546-.402-.709a.89.89 0 0 0-.629-.243c-.368 0-.656.181-.863.544-.207.361-.311.873-.311 1.534 0 .44.047.815.14 1.124.092.308.226.542.4.703.176.16.387.241.634.241zm4.375.547c-.375 0-.694-.102-.957-.306-.264-.205-.465-.503-.604-.892-.14-.391-.209-.864-.209-1.417 0-.55.069-1.02.209-1.41.141-.39.343-.689.606-.894.265-.208.584-.311.955-.311s.688.103.952.31c.265.206.467.504.606.895.141.39.212.86.212 1.41 0 .553-.07 1.026-.209 1.417-.139.39-.341.687-.604.892a1.52 1.52 0 0 1-.957.306zm0-.547c.371 0 .659-.179.865-.537.205-.358.308-.868.308-1.531 0-.44-.047-.816-.142-1.126-.092-.31-.227-.546-.402-.709a.89.89 0 0 0-.629-.243c-.368 0-.656.181-.863.544-.207.361-.311.873-.311 1.534 0 .44.047.815.14 1.124.092.308.226.542.4.703.176.16.387.241.634.241zm4.375.547c-.375 0-.694-.102-.957-.306-.264-.205-.465-.503-.604-.892-.14-.391-.209-.864-.209-1.417 0-.55.069-1.02.209-1.41.141-.39.343-.689.606-.894.265-.208.584-.311.955-.311s.688.103.952.31c.265.206.467.504.606.895.141.39.212.86.212 1.41 0 .553-.07 1.026-.209 1.417-.139.39-.341.687-.604.892a1.52 1.52 0 0 1-.957.306zm0-.547c.371 0 .659-.179.865-.537.205-.358.308-.868.308-1.531 0-.44-.047-.816-.142-1.126-.092-.31-.227-.546-.402-.709a.89.89 0 0 0-.629-.243c-.368 0-.656.181-.863.544-.207.361-.311.873-.311 1.534 0 .44.047.815.14 1.124.092.308.226.542.4.703.176.16.387.241.634.241zm4.375.547c-.375 0-.694-.102-.957-.306-.264-.205-.465-.503-.604-.892-.14-.391-.209-.864-.209-1.417 0-.55.069-1.02.209-1.41.141-.39.343-.689.606-.894.265-.208.584-.311.955-.311s.688.103.952.31c.265.206.467.504.606.895.141.39.212.86.212 1.41 0 .553-.07 1.026-.209 1.417-.139.39-.341.687-.604.892a1.52 1.52 0 0 1-.957.306zm0-.547c.371 0 .659-.179.865-.537.205-.358.308-.868.308-1.531 0-.44-.047-.816-.142-1.126-.092-.31-.227-.546-.402-.709a.89.89 0 0 0-.629-.243c-.368 0-.656.181-.863.544-.207.361-.311.873-.311 1.534 0 .44.047.815.14 1.124.092.308.226.542.4.703.176.16.387.241.634.241zm4.375.547c-.375 0-.694-.102-.957-.306-.264-.205-.465-.503-.604-.892-.14-.391-.209-.864-.209-1.417 0-.55.069-1.02.209-1.41.141-.39.343-.689.606-.894.265-.208.584-.311.955-.311s.688.103.952.31c.265.206.467.504.606.895.141.39.212.86.212 1.41 0 .553-.07 1.026-.209 1.417-.139.39-.341.687-.604.892a1.52 1.52 0 0 1-.957.306zm0-.547c.371 0 .659-.179.865-.537.205-.358.308-.868.308-1.531 0-.44-.047-.816-.142-1.126-.092-.31-.227-.546-.402-.709a.89.89 0 0 0-.629-.243c-.368 0-.656.181-.863.544-.207.361-.311.873-.311 1.534 0 .44.047.815.14 1.124.092.308.226.542.4.703.176.16.387.241.634.241zm4.504-4.614v5.091h-.616v-4.444h-.03l-1.243.825v-.626l1.273-.846h.616zm3.254 0v5.091h-.617v-4.444h-.029l-1.243.825v-.626l1.272-.846h.617zm3.125 5.161c-.375 0-.694-.102-.957-.306-.264-.205-.465-.503-.604-.892-.14-.391-.209-.864-.209-1.417 0-.55.069-1.02.209-1.41.14-.39.343-.689.606-.894.265-.208.583-.311.955-.311.371 0 .688.103.952.31.265.206.467.504.606.895.141.39.211.86.211 1.41 0 .553-.069 1.026-.208 1.417-.14.39-.341.687-.604.892a1.52 1.52 0 0 1-.957.306zm0-.547c.371 0 .659-.179.865-.537.205-.358.308-.868.308-1.531 0-.44-.047-.816-.142-1.126-.093-.31-.227-.546-.403-.709a.887.887 0 0 0-.628-.243c-.368 0-.656.181-.863.544-.207.361-.311.873-.311 1.534 0 .44.047.815.139 1.124.093.308.227.542.401.703.175.16.387.241.634.241zm4.504-4.614v5.091h-.617v-4.444h-.029l-1.243.825v-.626l1.272-.846h.617zm3.124 5.161a1.52 1.52 0 0 1-.957-.306c-.263-.205-.464-.503-.604-.892-.139-.391-.208-.864-.208-1.417 0-.55.069-1.02.208-1.41.141-.39.343-.689.607-.894.265-.208.583-.311.954-.311.372 0 .689.103.953.31.265.206.467.504.606.895.141.39.211.86.211 1.41 0 .553-.069 1.026-.208 1.417-.14.39-.341.687-.604.892a1.52 1.52 0 0 1-.958.306zm0-.547c.372 0 .66-.179.866-.537.205-.358.308-.868.308-1.531 0-.44-.047-.816-.142-1.126-.093-.31-.227-.546-.403-.709a.888.888 0 0 0-.629-.243c-.367 0-.655.181-.862.544-.207.361-.311.873-.311 1.534 0 .44.047.815.139 1.124.093.308.227.542.401.703.175.16.387.241.633.241zm4.505-4.614v5.091h-.617v-4.444h-.03l-1.242.825v-.626l1.272-.846h.617z" fill="#EBEBEB"/><path d="M182.67 51.782v5.09h-.616v-4.444h-.03l-1.243.825v-.626l1.273-.846h.616zm3.254 0v5.09h-.616v-4.444h-.03l-1.243.825v-.626l1.273-.846h.616zm3.125 5.16c-.375 0-.694-.102-.957-.306-.264-.205-.465-.503-.604-.892-.139-.391-.209-.864-.209-1.417 0-.55.07-1.02.209-1.41.141-.39.343-.689.606-.894.265-.208.584-.311.955-.311s.688.103.952.31c.265.206.467.504.606.895.141.39.212.86.212 1.41 0 .553-.07 1.026-.209 1.417-.139.39-.341.687-.604.892a1.52 1.52 0 0 1-.957.306zm0-.547c.371 0 .659-.179.865-.537.205-.358.308-.868.308-1.531 0-.44-.047-.816-.142-1.126-.092-.31-.227-.546-.402-.709a.89.89 0 0 0-.629-.243c-.368 0-.656.181-.863.544-.207.361-.31.873-.31 1.534 0 .44.046.815.139 1.124.093.308.226.542.4.703.176.16.387.241.634.241zm4.375.547c-.375 0-.694-.102-.957-.306-.264-.205-.465-.503-.604-.892-.139-.391-.209-.864-.209-1.417 0-.55.07-1.02.209-1.41.141-.39.343-.689.606-.894.265-.208.584-.311.955-.311s.688.103.952.31c.265.206.467.504.606.895.141.39.212.86.212 1.41 0 .553-.07 1.026-.209 1.417-.139.39-.341.687-.604.892a1.52 1.52 0 0 1-.957.306zm0-.547c.371 0 .659-.179.865-.537.205-.358.308-.868.308-1.531 0-.44-.047-.816-.142-1.126-.092-.31-.227-.546-.402-.709a.89.89 0 0 0-.629-.243c-.368 0-.656.181-.863.544-.207.361-.31.873-.31 1.534 0 .44.046.815.139 1.124.093.308.226.542.4.703.176.16.387.241.634.241zm4.504-4.614v5.091h-.616v-4.444h-.03l-1.243.825v-.626l1.273-.846h.616zm3.254 0v5.091h-.616v-4.444h-.03l-1.243.825v-.626l1.273-.846h.616zm3.125 5.161c-.375 0-.694-.102-.957-.306-.264-.205-.465-.503-.604-.892-.14-.391-.209-.864-.209-1.417 0-.55.069-1.02.209-1.41.14-.39.343-.689.606-.894.265-.208.583-.311.955-.311.371 0 .688.103.952.31.265.206.467.504.606.895.141.39.212.86.212 1.41 0 .553-.07 1.026-.209 1.417-.139.39-.341.687-.604.892a1.52 1.52 0 0 1-.957.306zm0-.547c.371 0 .659-.179.865-.537.205-.358.308-.868.308-1.531 0-.44-.047-.816-.142-1.126-.093-.31-.227-.546-.402-.709a.89.89 0 0 0-.629-.243c-.368 0-.656.181-.863.544-.207.361-.311.873-.311 1.534 0 .44.047.815.14 1.124.092.308.226.542.4.703.175.16.387.241.634.241zm4.375.547c-.375 0-.694-.102-.957-.306-.264-.205-.465-.503-.604-.892-.14-.391-.209-.864-.209-1.417 0-.55.069-1.02.209-1.41.14-.39.343-.689.606-.894.265-.208.583-.311.955-.311.371 0 .688.103.952.31.265.206.467.504.606.895.141.39.212.86.212 1.41 0 .553-.07 1.026-.209 1.417-.139.39-.341.687-.604.892a1.52 1.52 0 0 1-.957.306zm0-.547c.371 0 .659-.179.865-.537.205-.358.308-.868.308-1.531 0-.44-.047-.816-.142-1.126-.093-.31-.227-.546-.402-.709a.89.89 0 0 0-.629-.243c-.368 0-.656.181-.863.544-.207.361-.311.873-.311 1.534 0 .44.047.815.14 1.124.092.308.226.542.4.703.175.16.387.241.634.241zm4.504-4.614v5.091h-.617v-4.444h-.029l-1.243.825v-.626l1.272-.846h.617zm3.254 0v5.091h-.617v-4.444h-.029l-1.243.825v-.626l1.272-.846h.617zm3.124 5.161a1.52 1.52 0 0 1-.957-.306c-.263-.205-.464-.503-.604-.892-.139-.391-.208-.864-.208-1.417 0-.55.069-1.02.208-1.41.141-.39.343-.689.607-.894.265-.208.583-.311.954-.311.372 0 .689.103.953.31.265.206.467.504.606.895.141.39.211.86.211 1.41 0 .553-.069 1.026-.208 1.417-.14.39-.341.687-.605.892-.263.204-.582.306-.957.306zm0-.547c.372 0 .66-.179.866-.537.205-.358.308-.868.308-1.531 0-.44-.047-.816-.142-1.126-.093-.31-.227-.546-.403-.709a.888.888 0 0 0-.629-.243c-.367 0-.655.181-.862.544-.207.361-.311.873-.311 1.534 0 .44.047.815.139 1.124.093.308.227.542.401.703.175.16.387.241.633.241zm4.505-4.614v5.091h-.617v-4.444h-.03l-1.242.825v-.626l1.272-.846h.617zm3.124 5.161a1.52 1.52 0 0 1-.957-.306c-.263-.205-.465-.503-.604-.892-.139-.391-.209-.864-.209-1.417 0-.55.07-1.02.209-1.41.141-.39.343-.689.607-.894.265-.208.583-.311.954-.311.372 0 .689.103.952.31.266.206.468.504.607.895.141.39.211.86.211 1.41 0 .553-.069 1.026-.209 1.417-.139.39-.34.687-.604.892-.263.204-.582.306-.957.306zm0-.547c.372 0 .66-.179.865-.537.206-.358.309-.868.309-1.531 0-.44-.048-.816-.142-1.126-.093-.31-.227-.546-.403-.709a.888.888 0 0 0-.629-.243c-.368 0-.655.181-.862.544-.207.361-.311.873-.311 1.534 0 .44.046.815.139 1.124.093.308.226.542.4.703.176.16.387.241.634.241zm4.505-4.614v5.091h-.617v-4.444h-.03l-1.243.825v-.626l1.273-.846h.617zm3.124 5.161a1.52 1.52 0 0 1-.957-.306c-.263-.205-.465-.503-.604-.892-.139-.391-.209-.864-.209-1.417 0-.55.07-1.02.209-1.41.141-.39.343-.689.607-.894.265-.208.583-.311.954-.311s.689.103.952.31c.265.206.468.504.607.895.141.39.211.86.211 1.41 0 .553-.069 1.026-.209 1.417-.139.39-.34.687-.604.892-.263.204-.582.306-.957.306zm0-.547c.371 0 .66-.179.865-.537.206-.358.309-.868.309-1.531 0-.44-.048-.816-.142-1.126-.093-.31-.227-.546-.403-.709a.888.888 0 0 0-.629-.243c-.368 0-.655.181-.862.544-.207.361-.311.873-.311 1.534 0 .44.046.815.139 1.124.093.308.226.542.4.703.176.16.387.241.634.241zm4.505-4.614v5.091h-.617v-4.444h-.03l-1.243.825v-.626l1.273-.846h.617zm3.124 5.161a1.52 1.52 0 0 1-.957-.306c-.263-.205-.465-.503-.604-.892-.139-.391-.209-.864-.209-1.417 0-.55.07-1.02.209-1.41.141-.39.343-.689.607-.894.265-.208.583-.311.954-.311s.689.103.952.31c.265.206.468.504.607.895.141.39.211.86.211 1.41 0 .553-.07 1.026-.209 1.417-.139.39-.34.687-.604.892-.263.204-.582.306-.957.306zm0-.547c.371 0 .66-.179.865-.537.206-.358.308-.868.308-1.531 0-.44-.047-.816-.141-1.126-.093-.31-.227-.546-.403-.709a.89.89 0 0 0-.629-.243c-.368 0-.655.181-.862.544-.208.361-.311.873-.311 1.534 0 .44.046.815.139 1.124.093.308.226.542.4.703.176.16.387.241.634.241zm4.504-4.614v5.091h-.616v-4.444h-.03l-1.243.825v-.626l1.273-.846h.616zm3.125 5.161a1.52 1.52 0 0 1-.957-.306c-.263-.205-.465-.503-.604-.892-.139-.391-.209-.864-.209-1.417 0-.55.07-1.02.209-1.41.141-.39.343-.689.607-.894.265-.208.583-.311.954-.311s.689.103.952.31c.265.206.467.504.607.895.141.39.211.86.211 1.41 0 .553-.07 1.026-.209 1.417-.139.39-.34.687-.604.892-.263.204-.582.306-.957.306zm0-.547c.371 0 .66-.179.865-.537.206-.358.308-.868.308-1.531 0-.44-.047-.816-.141-1.126-.093-.31-.227-.546-.403-.709a.89.89 0 0 0-.629-.243c-.368 0-.655.181-.862.544-.208.361-.311.873-.311 1.534 0 .44.046.815.139 1.124.093.308.226.542.4.703.176.16.387.241.634.241zm4.375.547a1.52 1.52 0 0 1-.957-.306c-.263-.205-.465-.503-.604-.892-.139-.391-.209-.864-.209-1.417 0-.55.07-1.02.209-1.41.141-.39.343-.689.607-.894.265-.208.583-.311.954-.311s.689.103.952.31c.265.206.467.504.607.895.141.39.211.86.211 1.41 0 .553-.07 1.026-.209 1.417-.139.39-.34.687-.604.892-.263.204-.582.306-.957.306zm0-.547c.371 0 .66-.179.865-.537.206-.358.308-.868.308-1.531 0-.44-.047-.816-.141-1.126-.093-.31-.227-.546-.403-.709a.89.89 0 0 0-.629-.243c-.368 0-.655.181-.862.544-.208.361-.311.873-.311 1.534 0 .44.046.815.139 1.124.093.308.226.542.4.703.176.16.387.241.634.241zm4.504-4.614v5.091h-.616v-4.444h-.03l-1.243.825v-.626l1.273-.846h.616zm3.254 0v5.091h-.616v-4.444h-.03l-1.243.825v-.626l1.273-.846h.616zm3.125 5.161c-.375 0-.694-.102-.957-.306-.264-.205-.465-.503-.604-.892-.139-.391-.209-.864-.209-1.417 0-.55.07-1.02.209-1.41.141-.39.343-.689.606-.894.265-.208.584-.311.955-.311s.688.103.952.31c.265.206.467.504.606.895.141.39.212.86.212 1.41 0 .553-.07 1.026-.209 1.417-.139.39-.341.687-.604.892a1.52 1.52 0 0 1-.957.306zm0-.547c.371 0 .659-.179.865-.537.205-.358.308-.868.308-1.531 0-.44-.047-.816-.142-1.126-.092-.31-.227-.546-.402-.709a.89.89 0 0 0-.629-.243c-.368 0-.656.181-.863.544-.207.361-.31.873-.31 1.534 0 .44.046.815.139 1.124.093.308.226.542.4.703.176.16.387.241.634.241zm4.375.547c-.375 0-.694-.102-.957-.306-.264-.205-.465-.503-.604-.892-.139-.391-.209-.864-.209-1.417 0-.55.07-1.02.209-1.41.141-.39.343-.689.606-.894.265-.208.584-.311.955-.311s.688.103.952.31c.265.206.467.504.606.895.141.39.212.86.212 1.41 0 .553-.07 1.026-.209 1.417-.139.39-.341.687-.604.892a1.52 1.52 0 0 1-.957.306zm0-.547c.371 0 .659-.179.865-.537.205-.358.308-.868.308-1.531 0-.44-.047-.816-.142-1.126-.092-.31-.227-.546-.402-.709a.89.89 0 0 0-.629-.243c-.368 0-.656.181-.863.544-.207.361-.31.873-.31 1.534 0 .44.046.815.139 1.124.093.308.226.542.4.703.176.16.387.241.634.241z" fill="#EBEBEB"/><path d="M284.244 179.525H47.768V320.33h236.476V179.525z" fill="#F5F5F5"/><path d="M284.244 179.525H47.768v9.538h236.476v-9.538z" fill="#E0E0E0"/><path d="M280.726 184.294c0 1.583-1.378 2.873-3.07 2.873-1.691 0-3.069-1.29-3.069-2.873 0-1.583 1.378-2.873 3.069-2.873 1.702 0 3.07 1.29 3.07 2.873zM270.526 184.294c0 1.583-1.378 2.873-3.069 2.873-1.692 0-3.07-1.29-3.07-2.873 0-1.583 1.378-2.873 3.07-2.873 1.691 0 3.069 1.29 3.069 2.873zM260.315 184.294c0 1.583-1.378 2.873-3.069 2.873s-3.069-1.29-3.069-2.873c0-1.583 1.378-2.873 3.069-2.873s3.069 1.29 3.069 2.873z" fill="#FAFAFA"/><path d="m90.53 205.608-1.452-1.896a2.887 2.887 0 0 0-2.266-1.114H76.55c-.887 0-1.68.42-2.13 1.114l-1.221 1.896c-.45.694-1.243 1.114-2.13 1.114h-6.118c-1.461 0-2.578 1.114-2.484 2.492l1.983 32.064c.084 1.378 1.336 2.492 2.798 2.492h48.515c1.461 0 2.578-1.114 2.484-2.492l-1.983-32.064c-.084-1.378-1.337-2.492-2.798-2.492H92.795c-.877 0-1.733-.42-2.266-1.114z" fill="#E0E0E0"/><path d="M118.31 209.771H73.867c-1.848 0-3.487 1.398-3.654 3.118l-2.673 27.764c-.167 1.72 1.2 3.117 3.06 3.117h44.442c1.848 0 3.487-1.397 3.654-3.117l2.673-27.764c.167-1.72-1.211-3.118-3.059-3.118z" fill="#E6E6E6"/><path d="m164.539 205.608-1.451-1.896a2.889 2.889 0 0 0-2.266-1.114H150.56c-.888 0-1.681.42-2.13 1.114l-1.222 1.896c-.448.694-1.242 1.114-2.129 1.114h-6.118c-1.462 0-2.568 1.114-2.485 2.492l1.984 32.064c.083 1.378 1.336 2.492 2.798 2.492h48.514c1.462 0 2.579-1.114 2.485-2.492l-1.984-32.064c-.083-1.378-1.336-2.492-2.797-2.492h-20.661c-.888 0-1.733-.42-2.276-1.114z" fill="#E0E0E0"/><path d="M192.32 209.771h-44.443c-1.848 0-3.487 1.398-3.654 3.118l-2.673 27.764c-.167 1.72 1.201 3.117 3.059 3.117h44.443c1.859 0 3.487-1.397 3.654-3.117l2.673-27.764c.167-1.72-1.201-3.118-3.059-3.118z" fill="#E6E6E6"/><path d="m238.559 205.608-1.451-1.896a2.889 2.889 0 0 0-2.266-1.114H224.58c-.888 0-1.681.42-2.13 1.114l-1.222 1.896c-.448.694-1.242 1.114-2.129 1.114h-6.118c-1.462 0-2.568 1.114-2.485 2.492l1.984 32.064c.083 1.378 1.336 2.492 2.798 2.492h48.514c1.462 0 2.579-1.114 2.485-2.492l-1.984-32.064c-.083-1.378-1.336-2.492-2.797-2.492h-20.661c-.898 0-1.744-.42-2.276-1.114z" fill="#E0E0E0"/><path d="M266.329 209.771h-44.443c-1.848 0-3.487 1.398-3.654 3.118l-2.672 27.764c-.167 1.72 1.2 3.117 3.059 3.117h44.443c1.848 0 3.487-1.397 3.654-3.117l2.672-27.764c.167-1.72-1.2-3.118-3.059-3.118z" fill="#E6E6E6"/><path d="m90.53 264.283-1.452-1.896a2.887 2.887 0 0 0-2.266-1.114H76.55c-.887 0-1.68.42-2.13 1.114l-1.221 1.896c-.45.694-1.243 1.114-2.13 1.114h-6.118c-1.461 0-2.578 1.114-2.484 2.492l1.983 32.065c.084 1.378 1.336 2.492 2.798 2.492h48.515c1.461 0 2.578-1.114 2.484-2.492l-1.983-32.065c-.084-1.378-1.337-2.492-2.798-2.492H92.795c-.877 0-1.733-.42-2.266-1.114z" fill="#E0E0E0"/><path d="M118.31 268.447H73.867c-1.848 0-3.487 1.397-3.654 3.117l-2.673 27.764c-.167 1.72 1.2 3.118 3.06 3.118h44.442c1.848 0 3.487-1.398 3.654-3.118l2.673-27.764c.167-1.72-1.211-3.117-3.059-3.117z" fill="#E6E6E6"/><path d="m164.539 264.283-1.451-1.896a2.889 2.889 0 0 0-2.266-1.114H150.56c-.888 0-1.681.42-2.13 1.114l-1.222 1.896c-.448.694-1.242 1.114-2.129 1.114h-6.118c-1.462 0-2.568 1.114-2.485 2.492l1.984 32.065c.083 1.378 1.336 2.492 2.798 2.492h48.514c1.462 0 2.579-1.114 2.485-2.492l-1.984-32.065c-.083-1.378-1.336-2.492-2.797-2.492h-20.661c-.888 0-1.733-.42-2.276-1.114z" fill="#E0E0E0"/><path d="M192.32 268.447h-44.443c-1.848 0-3.487 1.397-3.654 3.117l-2.673 27.764c-.167 1.72 1.201 3.118 3.059 3.118h44.443c1.859 0 3.487-1.398 3.654-3.118l2.673-27.764c.167-1.72-1.201-3.117-3.059-3.117z" fill="#E6E6E6"/><path d="m238.559 264.283-1.451-1.896a2.889 2.889 0 0 0-2.266-1.114H224.58c-.888 0-1.681.42-2.13 1.114l-1.222 1.896c-.448.694-1.242 1.114-2.129 1.114h-6.118c-1.462 0-2.568 1.114-2.485 2.492l1.984 32.065c.083 1.378 1.336 2.492 2.798 2.492h48.514c1.462 0 2.579-1.114 2.485-2.492l-1.984-32.065c-.083-1.378-1.336-2.492-2.797-2.492h-20.661c-.898 0-1.744-.42-2.276-1.114z" fill="#E0E0E0"/><path d="M266.329 268.447h-44.443c-1.848 0-3.487 1.397-3.654 3.117l-2.672 27.764c-.167 1.72 1.2 3.118 3.059 3.118h44.443c1.848 0 3.487-1.398 3.654-3.118l2.672-27.764c.167-1.72-1.2-3.117-3.059-3.117zM470.086 297.296h-76.212c-1.534 0-2.787 1.162-2.787 2.609v17.268c0 1.437 1.242 2.61 2.787 2.61h76.212c1.535 0 2.788-1.163 2.788-2.61v-17.268c0-1.437-1.242-2.609-2.788-2.609z" fill="#E6E6E6"/><path d="M464.803 308.534c0 2.609-2.255 4.72-5.042 4.72-2.788 0-5.043-2.111-5.043-4.72 0-2.609 2.255-4.72 5.043-4.72 2.787 0 5.042 2.111 5.042 4.72z" fill="#F5F5F5"/><path d="M462.329 308.534c0 1.329-1.148 2.404-2.568 2.404-1.42 0-2.568-1.075-2.568-2.404s1.148-2.404 2.568-2.404c1.42 0 2.568 1.085 2.568 2.404z" fill="#E6E6E6"/><path d="M448.945 305.847h-5.742v5.375h5.742v-5.375z" fill="#F5F5F5"/><path d="M470.086 273.841h-76.212c-1.534 0-2.787 1.163-2.787 2.609v17.269c0 1.436 1.242 2.609 2.787 2.609h76.212c1.535 0 2.788-1.163 2.788-2.609V276.45c0-1.436-1.242-2.609-2.788-2.609z" fill="#E6E6E6"/><path d="M464.803 285.08c0 2.609-2.255 4.72-5.042 4.72-2.788 0-5.043-2.111-5.043-4.72 0-2.61 2.255-4.721 5.043-4.721 2.787 0 5.042 2.111 5.042 4.721z" fill="#F5F5F5"/><path d="M462.329 285.08c0 1.329-1.148 2.404-2.568 2.404-1.42 0-2.568-1.075-2.568-2.404s1.148-2.404 2.568-2.404c1.42 0 2.568 1.084 2.568 2.404z" fill="#E6E6E6"/><path d="M448.945 282.392h-5.742v5.375h5.742v-5.375z" fill="#F5F5F5"/><path d="M470.086 250.387h-76.212c-1.534 0-2.787 1.162-2.787 2.609v17.268c0 1.437 1.242 2.61 2.787 2.61h76.212c1.535 0 2.788-1.163 2.788-2.61v-17.268c0-1.437-1.242-2.609-2.788-2.609z" fill="#E6E6E6"/><path d="M464.803 261.625c0 2.609-2.255 4.72-5.042 4.72-2.788 0-5.043-2.111-5.043-4.72 0-2.609 2.255-4.72 5.043-4.72 2.787 0 5.042 2.111 5.042 4.72z" fill="#F5F5F5"/><path d="M462.329 261.625c0 1.329-1.148 2.404-2.568 2.404-1.42 0-2.568-1.075-2.568-2.404s1.148-2.404 2.568-2.404c1.42 0 2.568 1.085 2.568 2.404z" fill="#E6E6E6"/><path d="M448.945 258.938h-5.742v5.375h5.742v-5.375z" fill="#F5F5F5"/><path d="M470.086 226.932h-76.212c-1.534 0-2.787 1.163-2.787 2.609v17.269c0 1.436 1.242 2.609 2.787 2.609h76.212c1.535 0 2.788-1.163 2.788-2.609v-17.269c0-1.436-1.242-2.609-2.788-2.609z" fill="#E6E6E6"/><path d="M464.803 238.171c0 2.609-2.255 4.72-5.042 4.72-2.788 0-5.043-2.111-5.043-4.72 0-2.61 2.255-4.721 5.043-4.721 2.787 0 5.042 2.111 5.042 4.721z" fill="#F5F5F5"/><path d="M462.329 238.171c0 1.329-1.148 2.404-2.568 2.404-1.42 0-2.568-1.075-2.568-2.404s1.148-2.404 2.568-2.404c1.42 0 2.568 1.084 2.568 2.404z" fill="#E6E6E6"/><path d="M448.945 235.483h-5.742v5.375h5.742v-5.375z" fill="#F5F5F5"/><path d="M470.086 203.478h-76.212c-1.534 0-2.787 1.162-2.787 2.609v17.268c0 1.437 1.242 2.61 2.787 2.61h76.212c1.535 0 2.788-1.163 2.788-2.61v-17.268c0-1.437-1.242-2.609-2.788-2.609z" fill="#E6E6E6"/><path d="M464.803 214.716c0 2.61-2.255 4.72-5.042 4.72-2.788 0-5.043-2.11-5.043-4.72 0-2.609 2.255-4.72 5.043-4.72 2.787 0 5.042 2.111 5.042 4.72z" fill="#F5F5F5"/><path d="M462.329 214.716c0 1.329-1.148 2.404-2.568 2.404-1.42 0-2.568-1.075-2.568-2.404s1.148-2.404 2.568-2.404c1.42 0 2.568 1.085 2.568 2.404z" fill="#E6E6E6"/><path d="M448.945 212.029h-5.742v5.375h5.742v-5.375z" fill="#F5F5F5"/><path d="M470.086 180.023h-76.212c-1.534 0-2.787 1.163-2.787 2.609v17.269c0 1.436 1.242 2.609 2.787 2.609h76.212c1.535 0 2.788-1.163 2.788-2.609v-17.269c0-1.436-1.242-2.609-2.788-2.609z" fill="#E6E6E6"/><path d="M464.803 191.262c0 2.609-2.255 4.72-5.042 4.72-2.788 0-5.043-2.111-5.043-4.72 0-2.61 2.255-4.721 5.043-4.721 2.787 0 5.042 2.111 5.042 4.721z" fill="#F5F5F5"/><path d="M462.329 191.262c0 1.329-1.148 2.404-2.568 2.404-1.42 0-2.568-1.075-2.568-2.404s1.148-2.404 2.568-2.404c1.42 0 2.568 1.084 2.568 2.404z" fill="#E6E6E6"/><path d="M448.945 188.574h-5.742v5.375h5.742v-5.375z" fill="#F5F5F5"/></g><path d="M261.265 364.141c111.795 0 202.422-4.953 202.422-11.063s-90.627-11.063-202.422-11.063c-111.794 0-202.42 4.953-202.42 11.063s90.626 11.063 202.42 11.063z" fill="#F5F5F5"/><path d="M108.361 295.36c-1.618-2.501-4.301-.322-4.301-.322.386-4.798-4.332-8.072-4.332-8.072s5.481 0 6.243-4.896c.762-4.897-1.911-2.619-4.416-2.649-2.506-.029-5.127 6.822-1.827 10.682 3.309 3.86 2.422 10.447-5.22 16.78-1.859 1.544-3.132 3.606-3.989 5.824.575-5.815.898-14.014-.929-19.487-3.11-9.294 2.809-11.795 4.531-16.447 1.723-4.652-4.53-8.581-4.53-8.581s5.867-2.501 3.006-5.365c-2.86-2.863-8.78-2.472-8.78 1.271s4.009 5.169 4.009 5.169 4.583 4.466 4.583 6.792c0 2.326-4.583 7.33-4.583 7.33s2.098-4.281-2.098-4.466c-4.197-.186-5.534 5.003-3.822 7.329 1.723 2.326 4.584.362 4.584.362s.334 5.004 1.315 8.043c.428 1.339.23 6.577-.136 12.04-.845-1.974-2.046-3.772-3.716-5.17-7.642-6.333-8.53-12.919-5.22-16.78 3.31-3.86.689-10.72-1.827-10.681-2.506.029-5.178-2.238-4.416 2.648.762 4.887 6.243 4.896 6.243 4.896s-4.709 3.284-4.333 8.073c0 0-2.672-2.18-4.301.322-2.903 4.466 3.82 7.242 4.948 5.043 0 0 14.24 9.44 10.806 23.024l.793 1.105-.167 1.759 1.117-.45 1.263 1.749c-.062 3.401.324 5.903.324 5.903l3.404-4.71c-3.435-13.584 10.805-23.025 10.805-23.025 1.148 2.189 7.872-.576 4.969-5.043z" fill="#407BFF"/><path opacity=".2" d="M108.361 295.36c-1.618-2.501-4.301-.322-4.301-.322.386-4.798-4.332-8.072-4.332-8.072s5.481 0 6.243-4.896c.762-4.897-1.911-2.619-4.416-2.649-2.506-.029-5.127 6.822-1.827 10.682 3.309 3.86 2.422 10.447-5.22 16.78-1.859 1.544-3.132 3.606-3.989 5.824.575-5.815.898-14.014-.929-19.487-3.11-9.294 2.809-11.795 4.531-16.447 1.723-4.652-4.53-8.581-4.53-8.581s5.867-2.501 3.006-5.365c-2.86-2.863-8.78-2.472-8.78 1.271s4.009 5.169 4.009 5.169 4.583 4.466 4.583 6.792c0 2.326-4.583 7.33-4.583 7.33s2.098-4.281-2.098-4.466c-4.197-.186-5.534 5.003-3.822 7.329 1.723 2.326 4.584.362 4.584.362s.334 5.004 1.315 8.043c.428 1.339.23 6.577-.136 12.04-.845-1.974-2.046-3.772-3.716-5.17-7.642-6.333-8.53-12.919-5.22-16.78 3.31-3.86.689-10.72-1.827-10.681-2.506.029-5.178-2.238-4.416 2.648.762 4.887 6.243 4.896 6.243 4.896s-4.709 3.284-4.333 8.073c0 0-2.672-2.18-4.301.322-2.903 4.466 3.82 7.242 4.948 5.043 0 0 14.24 9.44 10.806 23.024l.793 1.105-.167 1.759 1.117-.45 1.263 1.749c-.062 3.401.324 5.903.324 5.903l3.404-4.71c-3.435-13.584 10.805-23.025 10.805-23.025 1.148 2.189 7.872-.576 4.969-5.043z" fill="#407BFF"/><g opacity=".3" fill="#fff"><path d="M108.361 295.36c-1.618-2.501-4.301-.322-4.301-.322.386-4.798-4.332-8.072-4.332-8.072s5.481 0 6.243-4.896c.762-4.897-1.911-2.619-4.416-2.649-2.506-.029-5.127 6.822-1.827 10.682 3.309 3.86 2.422 10.447-5.22 16.78-1.859 1.544-3.132 3.606-3.989 5.824.575-5.815.898-14.014-.929-19.487-3.11-9.294 2.809-11.795 4.531-16.447 1.723-4.652-4.53-8.581-4.53-8.581s5.867-2.501 3.006-5.365c-2.86-2.863-8.78-2.472-8.78 1.271s4.009 5.169 4.009 5.169 4.583 4.466 4.583 6.792c0 2.326-4.583 7.33-4.583 7.33s2.098-4.281-2.098-4.466c-4.197-.186-5.534 5.003-3.822 7.329 1.723 2.326 4.584.362 4.584.362s.334 5.004 1.315 8.043c.428 1.339.23 6.577-.136 12.04-.845-1.974-2.046-3.772-3.716-5.17-7.642-6.333-8.53-12.919-5.22-16.78 3.31-3.86.689-10.72-1.827-10.681-2.506.029-5.178-2.238-4.416 2.648.762 4.887 6.243 4.896 6.243 4.896s-4.709 3.284-4.333 8.073c0 0-2.672-2.18-4.301.322-2.903 4.466 3.82 7.242 4.948 5.043 0 0 14.24 9.44 10.806 23.024l.793 1.105-.167 1.759 1.117-.45 1.263 1.749c-.062 3.401.324 5.903.324 5.903l3.404-4.71c-3.435-13.584 10.805-23.025 10.805-23.025 1.148 2.189 7.872-.576 4.969-5.043z"/><path opacity=".2" d="M108.361 295.36c-1.618-2.501-4.301-.322-4.301-.322.386-4.798-4.332-8.072-4.332-8.072s5.481 0 6.243-4.896c.762-4.897-1.911-2.619-4.416-2.649-2.506-.029-5.127 6.822-1.827 10.682 3.309 3.86 2.422 10.447-5.22 16.78-1.859 1.544-3.132 3.606-3.989 5.824.575-5.815.898-14.014-.929-19.487-3.11-9.294 2.809-11.795 4.531-16.447 1.723-4.652-4.53-8.581-4.53-8.581s5.867-2.501 3.006-5.365c-2.86-2.863-8.78-2.472-8.78 1.271s4.009 5.169 4.009 5.169 4.583 4.466 4.583 6.792c0 2.326-4.583 7.33-4.583 7.33s2.098-4.281-2.098-4.466c-4.197-.186-5.534 5.003-3.822 7.329 1.723 2.326 4.584.362 4.584.362s.334 5.004 1.315 8.043c.428 1.339.23 6.577-.136 12.04-.845-1.974-2.046-3.772-3.716-5.17-7.642-6.333-8.53-12.919-5.22-16.78 3.31-3.86.689-10.72-1.827-10.681-2.506.029-5.178-2.238-4.416 2.648.762 4.887 6.243 4.896 6.243 4.896s-4.709 3.284-4.333 8.073c0 0-2.672-2.18-4.301.322-2.903 4.466 3.82 7.242 4.948 5.043 0 0 14.24 9.44 10.806 23.024l.793 1.105-.167 1.759 1.117-.45 1.263 1.749c-.062 3.401.324 5.903.324 5.903l3.404-4.71c-3.435-13.584 10.805-23.025 10.805-23.025 1.148 2.189 7.872-.576 4.969-5.043z"/></g><path d="M105.573 353.313H72.949L69.43 319.87h39.662l-3.519 33.443z" fill="#407BFF"/><path opacity=".5" d="M105.573 353.313H72.949L69.43 319.87h39.662l-3.519 33.443z" fill="#fff"/><path d="M110.836 316.176H67.687v7.379h43.149v-7.379z" fill="#407BFF"/><path opacity=".6" d="M110.836 316.176H67.687v7.379h43.149v-7.379z" fill="#fff"/><path d="m405.201 315.141-1.451-1.896a2.887 2.887 0 0 0-2.265-1.115h-10.263c-.887 0-1.681.421-2.129 1.115l-1.222 1.896c-.449.693-1.242 1.114-2.13 1.114h-6.118c-1.461 0-2.568 1.114-2.484 2.492l1.983 32.064c.084 1.378 1.337 2.492 2.798 2.492h48.515c1.462 0 2.579-1.114 2.485-2.492l-1.984-32.064c-.083-1.378-1.336-2.492-2.798-2.492h-20.661a2.882 2.882 0 0 1-2.276-1.114z" fill="#407BFF"/><path opacity=".5" d="m405.201 315.141-1.451-1.896a2.887 2.887 0 0 0-2.265-1.115h-10.263c-.887 0-1.681.421-2.129 1.115l-1.222 1.896c-.449.693-1.242 1.114-2.13 1.114h-6.118c-1.461 0-2.568 1.114-2.484 2.492l1.983 32.064c.084 1.378 1.337 2.492 2.798 2.492h48.515c1.462 0 2.579-1.114 2.485-2.492l-1.984-32.064c-.083-1.378-1.336-2.492-2.798-2.492h-20.661a2.882 2.882 0 0 1-2.276-1.114z" fill="#fff"/><path d="M432.972 319.313h-44.443c-1.848 0-3.487 1.398-3.654 3.118l-2.673 27.764c-.167 1.72 1.201 3.118 3.059 3.118h44.443c1.848 0 3.487-1.398 3.654-3.118l2.673-27.764c.167-1.73-1.201-3.118-3.059-3.118z" fill="#407BFF"/><path opacity=".7" d="M432.972 319.313h-44.443c-1.848 0-3.487 1.398-3.654 3.118l-2.673 27.764c-.167 1.72 1.201 3.118 3.059 3.118h44.443c1.848 0 3.487-1.398 3.654-3.118l2.673-27.764c.167-1.73-1.201-3.118-3.059-3.118z" fill="#fff"/><path d="M303.944 304.635h-63.433V346.1h63.433v-41.465z" fill="#263238"/><path d="M304.644 339.416h-47.095c-.95 0-1.723.723-1.723 1.612V351.7c0 .89.773 1.613 1.723 1.613h47.095c.95 0 1.722-.723 1.722-1.613v-10.672c0-.889-.772-1.612-1.722-1.612z" fill="#407BFF"/><path opacity=".2" d="M304.644 339.416h-47.095c-.95 0-1.723.723-1.723 1.612V351.7c0 .89.773 1.613 1.723 1.613h47.095c.95 0 1.722-.723 1.722-1.613v-10.672c0-.889-.772-1.612-1.722-1.612z" fill="#000"/><path d="M287.428 339.416h-47.095c-.95 0-1.723.723-1.723 1.613V351.7c0 .89.773 1.613 1.723 1.613h47.095c.95 0 1.722-.723 1.722-1.613v-10.671c0-.89-.772-1.613-1.722-1.613z" fill="#407BFF"/><path opacity=".3" d="M284.16 346.364c0 1.613-1.399 2.922-3.121 2.922-1.723 0-3.122-1.309-3.122-2.922 0-1.612 1.399-2.922 3.122-2.922 1.722 0 3.121 1.31 3.121 2.922z" fill="#F5F5F5"/><path d="M281.049 347.85c.876 0 1.587-.665 1.587-1.486 0-.82-.711-1.485-1.587-1.485-.877 0-1.587.665-1.587 1.485 0 .821.71 1.486 1.587 1.486z" fill="#407BFF"/><path opacity=".3" d="M274.367 344.703h-3.549v3.323h3.549v-3.323z" fill="#F5F5F5"/><path d="M304.644 324.923h-47.095c-.95 0-1.723.723-1.723 1.613v10.671c0 .89.773 1.613 1.723 1.613h47.095c.95 0 1.722-.723 1.722-1.613v-10.671c0-.9-.772-1.613-1.722-1.613z" fill="#407BFF"/><path opacity=".2" d="M304.644 324.923h-47.095c-.95 0-1.723.723-1.723 1.613v10.671c0 .89.773 1.613 1.723 1.613h47.095c.95 0 1.722-.723 1.722-1.613v-10.671c0-.9-.772-1.613-1.722-1.613z" fill="#000"/><path d="M287.428 324.923h-47.095c-.95 0-1.723.723-1.723 1.613v10.671c0 .89.773 1.613 1.723 1.613h47.095c.95 0 1.722-.723 1.722-1.613v-10.671c0-.9-.772-1.613-1.722-1.613z" fill="#407BFF"/><path opacity=".3" d="M284.16 331.862c0 1.612-1.399 2.922-3.121 2.922-1.723 0-3.122-1.31-3.122-2.922 0-1.613 1.399-2.922 3.122-2.922 1.722 0 3.121 1.309 3.121 2.922z" fill="#F5F5F5"/><path d="M282.625 331.862c0 .821-.71 1.485-1.586 1.485-.877 0-1.587-.664-1.587-1.485 0-.821.71-1.486 1.587-1.486.876 0 1.586.665 1.586 1.486z" fill="#407BFF"/><path opacity=".3" d="M274.367 330.2h-3.549v3.323h3.549V330.2z" fill="#F5F5F5"/><path d="M304.644 310.42h-47.095c-.95 0-1.723.723-1.723 1.613v10.672c0 .889.773 1.612 1.723 1.612h47.095c.95 0 1.722-.723 1.722-1.612v-10.672c0-.899-.772-1.613-1.722-1.613z" fill="#407BFF"/><path opacity=".2" d="M304.644 310.42h-47.095c-.95 0-1.723.723-1.723 1.613v10.672c0 .889.773 1.612 1.723 1.612h47.095c.95 0 1.722-.723 1.722-1.612v-10.672c0-.899-.772-1.613-1.722-1.613z" fill="#000"/><path d="M287.428 310.42h-47.095c-.95 0-1.723.723-1.723 1.613v10.672c0 .889.773 1.612 1.723 1.612h47.095c.95 0 1.722-.723 1.722-1.612v-10.672c0-.899-.772-1.613-1.722-1.613z" fill="#407BFF"/><path opacity=".3" d="M284.16 317.359c0 1.612-1.399 2.922-3.121 2.922-1.723 0-3.122-1.31-3.122-2.922 0-1.613 1.399-2.922 3.122-2.922 1.722 0 3.121 1.309 3.121 2.922z" fill="#F5F5F5"/><path d="M282.625 317.359c0 .821-.71 1.485-1.586 1.485-.877 0-1.587-.664-1.587-1.485 0-.821.71-1.485 1.587-1.485.876 0 1.586.664 1.586 1.485z" fill="#407BFF"/><path opacity=".3" d="M274.367 315.698h-3.549v3.322h3.549v-3.322z" fill="#F5F5F5"/><path d="M304.644 295.918h-47.095c-.95 0-1.723.723-1.723 1.612v10.672c0 .889.773 1.612 1.723 1.612h47.095c.95 0 1.722-.723 1.722-1.612V297.53c0-.899-.772-1.612-1.722-1.612z" fill="#407BFF"/><path opacity=".2" d="M304.644 295.918h-47.095c-.95 0-1.723.723-1.723 1.612v10.672c0 .889.773 1.612 1.723 1.612h47.095c.95 0 1.722-.723 1.722-1.612V297.53c0-.899-.772-1.612-1.722-1.612z" fill="#000"/><path d="M287.428 295.918h-47.095c-.95 0-1.723.723-1.723 1.612v10.672c0 .889.773 1.612 1.723 1.612h47.095c.95 0 1.722-.723 1.722-1.612V297.53c0-.899-.772-1.612-1.722-1.612z" fill="#407BFF"/><path opacity=".3" d="M284.16 302.856c0 1.613-1.399 2.922-3.121 2.922-1.723 0-3.122-1.309-3.122-2.922 0-1.612 1.399-2.922 3.122-2.922 1.722 0 3.121 1.31 3.121 2.922z" fill="#F5F5F5"/><path d="M282.625 302.856c0 .821-.71 1.486-1.586 1.486-.877 0-1.587-.665-1.587-1.486s.71-1.485 1.587-1.485c.876 0 1.586.664 1.586 1.485z" fill="#407BFF"/><path opacity=".3" d="M274.367 301.195h-3.549v3.323h3.549v-3.323z" fill="#F5F5F5"/><path d="M360.758 326.77h-63.434v19.321h63.434V326.77z" fill="#263238"/><path d="M361.447 339.416h-47.095c-.95 0-1.723.723-1.723 1.612V351.7c0 .89.773 1.613 1.723 1.613h47.095c.95 0 1.722-.723 1.722-1.613v-10.672c0-.889-.772-1.612-1.722-1.612z" fill="#407BFF"/><path opacity=".2" d="M361.447 339.416h-47.095c-.95 0-1.723.723-1.723 1.612V351.7c0 .89.773 1.613 1.723 1.613h47.095c.95 0 1.722-.723 1.722-1.613v-10.672c0-.889-.772-1.612-1.722-1.612z" fill="#000"/><path d="M344.232 339.416h-47.095c-.95 0-1.723.723-1.723 1.613V351.7c0 .89.773 1.613 1.723 1.613h47.095c.95 0 1.722-.723 1.722-1.613v-10.671c0-.89-.772-1.613-1.722-1.613z" fill="#407BFF"/><path opacity=".3" d="M340.963 346.364c0 1.613-1.399 2.922-3.121 2.922-1.723 0-3.122-1.309-3.122-2.922 0-1.612 1.399-2.922 3.122-2.922 1.733 0 3.121 1.31 3.121 2.922z" fill="#F5F5F5"/><path d="M339.439 346.364c0 .821-.71 1.486-1.587 1.486-.876 0-1.586-.665-1.586-1.486s.71-1.485 1.586-1.485c.877 0 1.587.664 1.587 1.485z" fill="#407BFF"/><path opacity=".3" d="M331.171 344.703h-3.55v3.323h3.55v-3.323z" fill="#F5F5F5"/><path d="M361.447 324.923h-47.095c-.95 0-1.723.723-1.723 1.613v10.671c0 .89.773 1.613 1.723 1.613h47.095c.95 0 1.722-.723 1.722-1.613v-10.671c0-.9-.772-1.613-1.722-1.613z" fill="#407BFF"/><path opacity=".2" d="M361.447 324.923h-47.095c-.95 0-1.723.723-1.723 1.613v10.671c0 .89.773 1.613 1.723 1.613h47.095c.95 0 1.722-.723 1.722-1.613v-10.671c0-.9-.772-1.613-1.722-1.613z" fill="#000"/><path d="M344.232 324.923h-47.095c-.95 0-1.723.723-1.723 1.613v10.671c0 .89.773 1.613 1.723 1.613h47.095c.95 0 1.722-.723 1.722-1.613v-10.671c0-.9-.772-1.613-1.722-1.613z" fill="#407BFF"/><path opacity=".3" d="M340.963 331.862c0 1.612-1.399 2.922-3.121 2.922-1.723 0-3.122-1.31-3.122-2.922 0-1.613 1.399-2.922 3.122-2.922 1.733 0 3.121 1.309 3.121 2.922z" fill="#F5F5F5"/><path d="M339.439 331.862c0 .821-.71 1.485-1.587 1.485-.876 0-1.586-.664-1.586-1.485 0-.821.71-1.486 1.586-1.486.877 0 1.587.665 1.587 1.486z" fill="#407BFF"/><path opacity=".3" d="M331.171 330.2h-3.55v3.323h3.55V330.2z" fill="#F5F5F5"/><path d="m177.056 336.318-6.577 1.095-2.704-8.405-2.464-7.72 7.59-2.483 2.203 9.275 1.952 8.238z" fill="#E4897B"/><path opacity=".2" d="m175.146 328.265-7.34.909-2.484-7.798 7.59-2.522 2.234 9.411z" fill="#000"/><path d="M133.093 339.162h-6.681l-1.096-8.815-.992-8.053 7.934-1.231.449 9.577.386 8.522z" fill="#E4897B"/><path opacity=".2" d="m132.707 330.718-7.391-.303-.992-8.082 7.934-1.251.449 9.636z" fill="#000"/><path d="M142.166 351.563a11.677 11.677 0 0 0-3.571-1.817s-3.883-3.606-5.752-14.464l-5.085-1.241c-1.764-.401-3.612.274-4.624 1.691-.147.195-.251.4-.324.625a26.9 26.9 0 0 0-.543 3.528c-.512 3.675-.073 11.923-.073 11.923h.919l.365-7.486c.136-2.541 2.213.44 2.808 3.176.596 2.736 1.859 5.649 7.81 5.785 6.942.128 9.824-.127 8.07-1.72zM186.536 350.83a11.677 11.677 0 0 0-3.571-1.817s-3.883-3.606-5.752-14.464l-5.084-1.241c-1.765-.401-3.613.274-4.625 1.691-.146.195-.251.4-.324.625a27.069 27.069 0 0 0-.543 3.528c-.511 3.675-.073 11.923-.073 11.923h.919l.365-7.486c.136-2.541 2.213.44 2.809 3.176.595 2.736 1.858 5.649 7.809 5.785 6.942.127 9.824-.127 8.07-1.72z" fill="#263238"/><path d="m175.761 323.379-10.826 1.788c-10.92-25.477-18.698-46.743-24.179-64.392-2.954-9.519-5.418-17.992-7.193-25.507l.334 27.735v62.477h-10.67c-26.737-119.227-7.788-146.395-7.788-146.395l31.988-4.984c1.211 4.466 2.14 11.786 2.683 16.828l1.441 9.939 12.507 60.464 11.703 62.047z" fill="#407BFF"/><path d="m175.761 323.379-10.826 1.788c-10.92-25.477-18.698-46.743-24.179-64.392-2.954-9.519-5.418-17.992-7.193-25.507l.334 27.735v62.477h-10.67c-26.737-119.227-7.788-146.395-7.788-146.395l31.988-4.984c1.211 4.466 2.14 11.786 2.683 16.828l1.441 9.939 12.507 60.464 11.703 62.047z" fill="#000" opacity=".2"/><path d="m185.314 144.656 10.795-9.988s.376-2.678 1.42-3.42c1.044-.743 8.456-3.265 9.364-2.708.909.558 2.172 6.167.898 7.193-1.263 1.026-8.007 2.336-8.696 2.228l-11.683 12.979-2.098-6.284z" fill="#EEC1BB"/><path d="M146.634 126.459c4.656 2.316 21.193 23.943 23.626 25.018 2.432 1.075 21.047-13.056 21.047-13.056l3.142 5.013s-15.273 20.2-23.907 19.223c-8.634-.977-25.161-18.08-25.161-18.08l1.253-18.118z" fill="#263238"/><path opacity=".1" d="M146.634 126.459c4.656 2.316 21.193 23.943 23.626 25.018 2.432 1.075 21.047-13.056 21.047-13.056l3.142 5.013s-15.273 20.2-23.907 19.223c-8.634-.977-25.161-18.08-25.161-18.08l1.253-18.118z" fill="#fff"/><path d="m190.284 138.948 1.294-1.143 3.393 5.375-1.221 2.199-3.466-6.431z" fill="#407BFF"/><path opacity=".2" d="M152.021 150.881c-3.863-3.45-6.64-6.313-6.64-6.313l.293-4.3 1.451-4.173s6.514 5.619 4.896 14.786zM140.756 260.775c-2.954-9.519-5.262-17.992-7.026-25.507 0 0 .177-14.6 2.067-26.601 0 0 4.688 34.312 4.959 52.108z" fill="#000"/><path d="M148.2 172.244c1.305-21.519.72-33.344.125-39.257-.658-6.303-1.691-6.538-1.691-6.538s-7.298-.664-13.645-.616c-4.917.157-9.814.636-14.648 1.447a103.008 103.008 0 0 0-13.54 3.059c.741 1.984 1.409 3.86 2.036 5.629a280.754 280.754 0 0 1 2.244 6.518c1.253 3.772 2.234 7.046 3.017 9.968 2.443 9.05 2.955 14.845 3.466 22.429 0 0-8.028 19.643-9.594 34.058l26.622 2.687 3.654-14.415 3.654 14.904 14.877-4.887-6.577-34.986z" fill="#263238"/><path opacity=".1" d="M148.2 172.244c1.305-21.519.72-33.344.125-39.257-.658-6.303-1.691-6.538-1.691-6.538s-7.298-.664-13.645-.616c-4.917.157-9.814.636-14.648 1.447a103.008 103.008 0 0 0-13.54 3.059c.741 1.984 1.409 3.86 2.036 5.629a280.754 280.754 0 0 1 2.244 6.518c1.253 3.772 2.234 7.046 3.017 9.968 2.443 9.05 2.955 14.845 3.466 22.429 0 0-8.028 19.643-9.594 34.058l26.622 2.687 3.654-14.415 3.654 14.904 14.877-4.887-6.577-34.986z" fill="#fff"/><path opacity=".2" d="M113.382 157.712a100.764 100.764 0 0 0-1.284-5.267 151.21 151.21 0 0 0-1.075-3.773c1.013-3.332 2.057-.723 2.057-.723s1.044 4.026.302 9.763z" fill="#000"/><path d="m122.235 133.28 13.228 22.155 3.132-23.777-6.003 7.046-10.357-5.424z" fill="#407BFF"/><path d="M121.891 125.384c-5.909 1.3-7.704 5.746-7.047 9.773l4.302-1.349s7.955 2.56 13.833 7.085c0 0 3.257-5.619 6.389-7.447l4.437.489c.01 0-6.901-11.845-21.914-8.551z" fill="#407BFF"/><path opacity=".1" d="M121.891 125.384c-5.909 1.3-7.704 5.746-7.047 9.773l4.302-1.349s7.955 2.56 13.833 7.085c0 0 3.257-5.619 6.389-7.447l4.437.489c.01 0-6.901-11.845-21.914-8.551z" fill="#fff"/><path d="M132.623 127.143a8.29 8.29 0 0 0-.991-.401c-.752-.557-1.671-1.896-1.619-5.16.011-1.065.126-2.316.376-3.811l-9.678-1.691s3.299 6.098.543 10.623c-.95.391-1.514.948-1.409 1.691.72 5.238 12.747 10.3 12.747 10.3s5.878-8.551.031-11.551z" fill="#EEC1BB"/><path opacity=".2" d="M130.389 117.781c-.25 1.495-.365 2.756-.376 3.811-6.535 0-9.302-5.502-9.302-5.502l9.678 1.691z" fill="#000"/><path d="M126.067 87.886s11.359-1.349 13.447 7.212c2.088 8.561-4.959 13.311-4.959 13.311l-8.488-20.523z" fill="#263238"/><path d="M125.033 92.44c8.415-.43 11.369 3.645 12.466 11.737 1.367 10.105-.616 17.435-11.265 15.812-14.46-2.218-15.17-26.836-1.201-27.549z" fill="#EEC1BB"/><path d="M132.028 104.011s1.284 1.994 2.642 3.137c0 0-.658 1.104-2.161 1.007l-.481-4.144z" fill="#D4827D"/><path d="M126.84 103.63c.052.645-.272 1.202-.731 1.231-.459.03-.877-.459-.929-1.104-.052-.645.271-1.202.731-1.231.459-.04.877.459.929 1.104z" fill="#263238"/><path d="m125.723 102.565 1.451-.665c.01.01-.647 1.241-1.451.665zM135.411 102.868c.052.645-.272 1.202-.731 1.231-.46.029-.877-.459-.929-1.104-.053-.645.271-1.202.73-1.232.46-.039.877.46.93 1.105z" fill="#263238"/><path d="m134.293 101.802 1.452-.664c0 .01-.648 1.241-1.452.664z" fill="#263238"/><path d="M126.443 98.196s-2.38-.166-3.581 1.378M132.54 97.551s1.451-.596 3.393.48" stroke="#263238" stroke-width=".686" stroke-miterlimit="10" stroke-linecap="round" stroke-linejoin="round"/><path d="M116.619 106.19s3.56-6.674 2.662-11.639c0 0 16.297-7.232 18.051 8.571 0 0 .804-14.151-13.677-13.721-14.459.43-13.258 20.239-5.449 25.751.01 0-3.79-4.789-1.587-8.962z" fill="#263238"/><path d="M127.508 87.27s6.911-1.583 8.874.118c1.962 1.7-12.006 13.799-19.314 15.03 0 0-2.485 7.574-.522 11.121 0 0-8.227-2.687-8.613-14.414-.387-11.728 12.789-16.125 19.575-11.855z" fill="#263238"/><path d="M118.091 107.783c-.125-1.26-1.649-3.342-4.155-2.951-2.589.401-3.539 5.473 3.017 6.342.929.127 1.41-.752 1.138-3.391z" fill="#EEC1BB"/><path d="M114.458 91.912s-2.871-6.84-10.565-6.352c-7.695.489-8.874 11.727-4.824 20.034 4.051 8.307 1.305 10.994 1.305 10.994s4.302-.488 4.302-7.935c0 0 .396 2.443.261 4.769 0 0 2.871-3.792.125-10.994-2.746-7.203 6.003-3.91 6.003-3.91l3.393-6.606z" fill="#263238"/><path d="M135.724 88.003s-3.654 10.995-13.447 14.288M125.942 110.969s1.963 1.955 4.823 1.837" stroke="#263238" stroke-width=".686" stroke-miterlimit="10" stroke-linecap="round" stroke-linejoin="round"/><path d="M131.162 104.734c0 1.046-.835 1.896-1.858 1.896-1.023 0-1.859-.85-1.859-1.896 0-1.046.836-1.896 1.859-1.896 1.023.01 1.858.85 1.858 1.896zM137.749 104.431c0 1.046-.835 1.896-1.858 1.896-1.023 0-1.858-.85-1.858-1.896 0-1.045.835-1.896 1.858-1.896a1.887 1.887 0 0 1 1.858 1.896z" stroke="#263238" stroke-width=".5" stroke-miterlimit="10" stroke-linecap="round" stroke-linejoin="round"/><path d="M131.162 104.734s.981-1.954 2.871-.303M127.435 104.735s-10.44-.304-11.683-.245" stroke="#263238" stroke-width=".5" stroke-miterlimit="10" stroke-linecap="round" stroke-linejoin="round"/><path d="m116.912 150.382-.481 24.95c-.01.596.533 1.075 1.17 1.026l17.56-1.309c.553-.039.971-.46.991-.977l.846-24.735c.021-.596-.511-1.075-1.148-1.046l-17.915 1.085c-.575.049-1.013.479-1.023 1.006z" fill="#407BFF"/><path opacity=".6" d="m116.912 150.382-.481 24.95c-.01.596.533 1.075 1.17 1.026l17.56-1.309c.553-.039.971-.46.991-.977l.846-24.735c.021-.596-.511-1.075-1.148-1.046l-17.915 1.085c-.575.049-1.013.479-1.023 1.006z" fill="#fff"/><path d="m117.434 150.949-.481 24.95c-.01.596.533 1.075 1.17 1.026l17.56-1.309c.553-.039.971-.46.991-.978l.846-24.734c.021-.597-.511-1.075-1.148-1.046l-17.915 1.085c-.575.049-1.013.479-1.023 1.006z" fill="#407BFF"/><path opacity=".7" d="m117.434 150.949-.481 24.95c-.01.596.533 1.075 1.17 1.026l17.56-1.309c.553-.039.971-.46.991-.978l.846-24.734c.021-.597-.511-1.075-1.148-1.046l-17.915 1.085c-.575.049-1.013.479-1.023 1.006z" fill="#fff"/><path opacity=".2" d="M129.544 162.843c0 1.348-1.17 2.443-2.61 2.443-1.441 0-2.61-1.095-2.61-2.443 0-1.349 1.169-2.443 2.61-2.443.031 0 .062 0 .104.009.198 1.134 1.222 2.004 2.474 2.043.021.127.032.264.032.391z" fill="#000"/><path d="m101.669 170.671 12.841-7.574s.982-2.541 2.172-3.059c1.19-.518 9.009-1.486 9.761-.753.752.733.7 6.46-.772 7.203-1.473.743-8.352.674-9 .42l-14.397 10.32-.605-6.557z" fill="#EEC1BB"/><path d="M104.801 130.339s8.394 11.414 7.172 21.187l-11.139 17.268 7.485-3.586 3.393 5.981s-8.613 12.421-19.575 9.489c-10.962-2.932 12.664-50.339 12.664-50.339z" fill="#263238"/><path opacity=".1" d="M104.801 130.339s8.394 11.414 7.172 21.187l-11.139 17.268 7.485-3.586 3.393 5.981s-8.613 12.421-19.575 9.489c-10.962-2.932 12.664-50.339 12.664-50.339z" fill="#fff"/><path d="m107.536 164.885 4.26 7.408.96-2.121-3.393-6.02-1.827.733zM204.91 134.56c-2.662 0-4.823-2.023-4.823-4.515 0-2.492 2.161-4.515 4.823-4.515 2.662 0 4.823 2.023 4.823 4.515-.01 2.492-2.171 4.515-4.823 4.515zM207.092 154.458h-.094c-4.51 0-8.958-1.29-12.852-3.391l2.621-4.31c3.1 1.681 6.64 2.697 10.231 2.697l.094 5.004zm12.841-3.616-2.631-4.222c3.101-1.701 5.69-4.134 7.475-7.046l4.521 2.433c-2.234 3.655-5.481 6.714-9.365 8.835zm-35.193-8.747c-2.255-3.645-3.456-7.798-3.456-12.02l5.22-.01c0 3.362.961 6.675 2.756 9.577l-4.52 2.453zm42.752-12.108a18.188 18.188 0 0 0-2.777-9.568l4.51-2.462c2.265 3.635 3.476 7.788 3.487 12.02l-5.22.01zm-38.263-9.499-4.521-2.443c2.256-3.646 5.502-6.695 9.386-8.815l2.62 4.221c-3.09 1.691-5.679 4.124-7.485 7.037zm27.958-7.076c-3.09-1.671-6.619-2.736-10.2-2.736l-.052-5.082h.052c4.49 0 8.927 1.3 12.8 3.391l-2.6 4.427z" fill="#407BFF"/><path d="M207.092 154.458h-.094c-4.51 0-8.958-1.29-12.852-3.391l2.621-4.31c3.1 1.681 6.64 2.697 10.231 2.697l.094 5.004zm12.841-3.616-2.631-4.222c3.101-1.701 5.69-4.134 7.475-7.046l4.521 2.433c-2.234 3.655-5.481 6.714-9.365 8.835zm-35.193-8.747c-2.255-3.645-3.456-7.798-3.456-12.02l5.22-.01c0 3.362.961 6.675 2.756 9.577l-4.52 2.453zm42.752-12.108a18.188 18.188 0 0 0-2.777-9.568l4.51-2.462c2.265 3.635 3.476 7.788 3.487 12.02l-5.22.01zm-38.263-9.499-4.521-2.443c2.256-3.646 5.502-6.695 9.386-8.815l2.62 4.221c-3.09 1.691-5.679 4.124-7.485 7.037zm27.958-7.076c-3.09-1.671-6.619-2.736-10.2-2.736l-.052-5.082h.052c4.49 0 8.927 1.3 12.8 3.391l-2.6 4.427z" fill="#fff" opacity=".6"/><path d="M212.218 136.065c-3.539 0-6.431-2.697-6.431-6.02 0-3.313 2.881-6.02 6.431-6.02 3.539 0 6.431 2.698 6.431 6.02-.011 3.323-2.892 6.02-6.431 6.02z" fill="#407BFF"/><path opacity=".5" d="M212.218 136.065c-3.539 0-6.431-2.697-6.431-6.02 0-3.313 2.881-6.02 6.431-6.02 3.539 0 6.431 2.698 6.431 6.02-.011 3.323-2.892 6.02-6.431 6.02z" fill="#fff"/><path d="M224.593 132.339c1.342-5.321-2.178-10.653-7.862-11.909-5.685-1.257-11.381 2.038-12.723 7.359-1.342 5.321 2.178 10.653 7.862 11.909 5.684 1.257 11.38-2.038 12.723-7.359z" stroke="#407BFF" stroke-width="3" stroke-miterlimit="10"/><path d="M399.073 129.049H223.681v1.954h175.392v-1.954zM215.329 121.231h-2.088v-11.728a.98.98 0 0 1 .302-.694l63.862-59.613a1.07 1.07 0 0 1 .741-.283h58.287v1.954h-57.859l-63.245 59.037v11.327zM366.709 219.935h-78.3a1.12 1.12 0 0 1-.742-.284l-74.124-69.386a.936.936 0 0 1-.302-.694v-9.772h2.088v9.372l73.508 68.809h77.872v1.955z" fill="#407BFF"/><path d="M314.508 157.389h-41.937c-.272 0-.543-.097-.741-.283l-28.188-26.22 1.472-1.388 27.895 25.937h41.499v1.954zM285.496 130.798l-1.483-1.378 28.094-26.464c.199-.186.46-.284.741-.284h42.376v1.955h-41.937l-27.791 26.171zM445.009 81.162H279.253c-.282 0-.543-.107-.741-.293l-16.641-15.734 1.482-1.378 16.339 15.45h165.317v1.955zM297.147 50.584l-1.472-1.378 27.144-25.41c.199-.185.46-.283.742-.283h86.996v1.955h-86.568l-26.842 25.116zM314.123 267.86l-42.105-39.413a.939.939 0 0 1-.303-.694v-23.455h2.088v23.054l41.802 39.13-1.482 1.378zM304.632 219.339l-1.482-1.378 27.687-26.084c.198-.185.459-.283.741-.283h105.079v1.955H332.016l-27.384 25.79zM402.205 247.298h-46.803c-.282 0-.543-.107-.741-.283l-29.41-27.53 1.473-1.378 29.106 27.237h46.375v1.954z" fill="#407BFF"/><path d="M410.556 28.957c2.641 0 4.782-2.004 4.782-4.476s-2.141-4.476-4.782-4.476c-2.64 0-4.781 2.004-4.781 4.476s2.141 4.476 4.781 4.476zM345.829 60.23c-6.097 0-11.046-4.643-11.046-10.34 0-5.698 4.959-10.34 11.046-10.34 6.086 0 11.045 4.642 11.045 10.34 0 5.697-4.948 10.34-11.045 10.34zm0-18.725c-4.938 0-8.958 3.762-8.958 8.385 0 4.622 4.02 8.385 8.958 8.385 4.938 0 8.957-3.763 8.957-8.385 0-4.623-4.019-8.385-8.957-8.385z" fill="#407BFF"/><path d="M345.828 54.366c2.641 0 4.782-2.004 4.782-4.476s-2.141-4.476-4.782-4.476c-2.64 0-4.781 2.004-4.781 4.476s2.141 4.476 4.781 4.476zM449.79 80.351c0 2.473-2.14 4.476-4.781 4.476-2.642 0-4.782-2.003-4.782-4.476 0-2.472 2.14-4.476 4.782-4.476 2.641 0 4.781 1.994 4.781 4.476zM355.224 108.116c2.641 0 4.782-2.004 4.782-4.476s-2.141-4.476-4.782-4.476c-2.64 0-4.781 2.004-4.781 4.476s2.141 4.476 4.781 4.476zM408.469 140.365c-6.097 0-11.046-4.642-11.046-10.339 0-5.698 4.959-10.34 11.046-10.34 6.086 0 11.045 4.642 11.045 10.34 0 5.697-4.948 10.339-11.045 10.339zm0-18.724c-4.938 0-8.958 3.762-8.958 8.385 0 4.622 4.02 8.385 8.958 8.385 4.938 0 8.957-3.763 8.957-8.385 0-4.623-4.019-8.385-8.957-8.385z" fill="#407BFF"/><path d="M408.469 134.502c2.64 0 4.781-2.004 4.781-4.476s-2.141-4.476-4.781-4.476c-2.641 0-4.782 2.004-4.782 4.476s2.141 4.476 4.782 4.476zM314.509 160.888c2.64 0 4.781-2.004 4.781-4.476s-2.141-4.476-4.781-4.476c-2.641 0-4.782 2.004-4.782 4.476s2.141 4.476 4.782 4.476zM436.657 197.047c2.64 0 4.781-2.004 4.781-4.476s-2.141-4.476-4.781-4.476c-2.641 0-4.782 2.004-4.782 4.476s2.141 4.476 4.782 4.476zM376.105 229.141c-6.097 0-11.046-4.642-11.046-10.34 0-5.697 4.959-10.339 11.046-10.339 6.086 0 11.045 4.642 11.045 10.339 0 5.698-4.948 10.34-11.045 10.34zm0-18.735c-4.939 0-8.958 3.763-8.958 8.385 0 4.623 4.019 8.385 8.958 8.385 4.938 0 8.957-3.762 8.957-8.385 0-4.622-4.019-8.385-8.957-8.385z" fill="#407BFF"/><path d="M380.886 218.791c0 2.473-2.14 4.476-4.781 4.476-2.642 0-4.782-2.003-4.782-4.476 0-2.472 2.14-4.475 4.782-4.475 2.641 0 4.781 2.003 4.781 4.475zM402.205 250.797c2.641 0 4.781-2.004 4.781-4.476s-2.14-4.476-4.781-4.476c-2.641 0-4.782 2.004-4.782 4.476s2.141 4.476 4.782 4.476zM319.645 267.166c0 2.473-2.14 4.476-4.781 4.476-2.642 0-4.782-2.003-4.782-4.476 0-2.472 2.14-4.476 4.782-4.476 2.63 0 4.781 2.004 4.781 4.476zM440.593 37.674h-17.435c-.867 0-1.576-.665-1.576-1.476V13.985c0-.811.709-1.476 1.576-1.476h17.435c.866 0 1.576.665 1.576 1.476v22.213c0 .821-.71 1.476-1.576 1.476z" fill="#407BFF"/><path opacity=".6" d="M440.593 37.674h-17.435c-.867 0-1.576-.665-1.576-1.476V13.985c0-.811.709-1.476 1.576-1.476h17.435c.866 0 1.576.665 1.576 1.476v22.213c0 .821-.71 1.476-1.576 1.476z" fill="#fff"/><path d="M439.09 16.086h-14.439v1.358h14.439v-1.358zM439.09 18.46h-14.439v1.36h14.439v-1.36zM439.09 20.845h-14.439v1.359h14.439v-1.359zM439.09 23.22h-14.439v1.358h14.439V23.22zM439.09 25.605h-14.439v1.358h14.439v-1.358zM439.09 27.99h-14.439v1.358h14.439v-1.359zM439.09 30.364h-14.439v1.358h14.439v-1.358zM434.006 32.748h-9.355v1.359h9.355v-1.359zM343.584 171.11H326.15c-.867 0-1.577-.664-1.577-1.475v-22.214c0-.811.71-1.475 1.577-1.475h17.434c.867 0 1.577.664 1.577 1.475v22.214c0 .811-.71 1.475-1.577 1.475z" fill="#407BFF"/><path opacity=".6" d="M343.584 171.11H326.15c-.867 0-1.577-.664-1.577-1.475v-22.214c0-.811.71-1.475 1.577-1.475h17.434c.867 0 1.577.664 1.577 1.475v22.214c0 .811-.71 1.475-1.577 1.475z" fill="#fff"/><path d="M342.081 149.513h-14.438v1.358h14.438v-1.358zM342.081 151.897h-14.438v1.359h14.438v-1.359zM342.081 154.272h-14.438v1.358h14.438v-1.358zM342.081 156.657h-14.438v1.358h14.438v-1.358zM342.081 159.031h-14.438v1.359h14.438v-1.359zM342.081 161.416h-14.438v1.358h14.438v-1.358zM342.081 163.8h-14.438v1.359h14.438V163.8zM336.997 166.175h-9.354v1.359h9.354v-1.359zM464.02 198.191h-17.435c-.866 0-1.576-.665-1.576-1.476v-22.214c0-.811.71-1.475 1.576-1.475h17.435c.867 0 1.576.664 1.576 1.475v22.214c0 .821-.709 1.476-1.576 1.476z" fill="#407BFF"/><path opacity=".6" d="M464.02 198.191h-17.435c-.866 0-1.576-.665-1.576-1.476v-22.214c0-.811.71-1.475 1.576-1.475h17.435c.867 0 1.576.664 1.576 1.475v22.214c0 .821-.709 1.476-1.576 1.476z" fill="#fff"/><path d="M462.517 176.603h-14.439v1.358h14.439v-1.358zM462.517 178.977h-14.439v1.359h14.439v-1.359zM462.517 181.362h-14.439v1.358h14.439v-1.358zM462.517 183.747h-14.439v1.358h14.439v-1.358zM462.517 186.121h-14.439v1.359h14.439v-1.359zM462.517 188.506h-14.439v1.358h14.439v-1.358zM462.517 190.881h-14.439v1.358h14.439v-1.358zM457.432 193.265h-9.354v1.359h9.354v-1.359zM472.184 85.931h-17.435c-.866 0-1.576-.664-1.576-1.475V62.242c0-.81.71-1.475 1.576-1.475h17.435c.867 0 1.577.664 1.577 1.475v22.214c0 .81-.71 1.475-1.577 1.475z" fill="#407BFF"/><path opacity=".6" d="M472.184 85.931h-17.435c-.866 0-1.576-.664-1.576-1.475V62.242c0-.81.71-1.475 1.576-1.475h17.435c.867 0 1.577.664 1.577 1.475v22.214c0 .81-.71 1.475-1.577 1.475z" fill="#fff"/><path d="M470.68 64.334h-14.438v1.358h14.438v-1.358zM470.68 66.709h-14.438v1.358h14.438v-1.358zM470.68 69.093h-14.438v1.358h14.438v-1.358zM470.68 71.478h-14.438v1.358h14.438v-1.358zM470.68 73.852h-14.438v1.359h14.438v-1.359zM470.68 76.237h-14.438v1.358h14.438v-1.358zM470.68 78.612h-14.438v1.358h14.438v-1.358zM465.596 80.996h-9.354v1.359h9.354v-1.359zM343.97 287.327h-17.435c-.866 0-1.576-.664-1.576-1.475v-22.214c0-.811.71-1.475 1.576-1.475h17.435c.867 0 1.577.664 1.577 1.475v22.214c0 .821-.7 1.475-1.577 1.475z" fill="#407BFF"/><path opacity=".6" d="M343.97 287.327h-17.435c-.866 0-1.576-.664-1.576-1.475v-22.214c0-.811.71-1.475 1.576-1.475h17.435c.867 0 1.577.664 1.577 1.475v22.214c0 .821-.7 1.475-1.577 1.475z" fill="#fff"/><path d="M342.467 265.74h-14.439v1.358h14.439v-1.358zM342.467 268.114h-14.439v1.359h14.439v-1.359zM342.467 270.499h-14.439v1.358h14.439v-1.358zM342.467 272.874h-14.439v1.358h14.439v-1.358zM342.467 275.258h-14.439v1.359h14.439v-1.359zM342.467 277.643h-14.439v1.358h14.439v-1.358zM342.467 280.017h-14.439v1.359h14.439v-1.359zM337.383 282.402h-9.355v1.358h9.355v-1.358zM470.492 151.966h-44.808c-.887 0-1.608-.675-1.608-1.505v-41.945c0-.831.721-1.505 1.608-1.505h44.808c.888 0 1.608.674 1.608 1.505v41.945c-.01.83-.731 1.505-1.608 1.505z" fill="#407BFF"/><path opacity=".5" d="M448.078 144.636c8.937 0 16.182-6.782 16.182-15.148 0-8.365-7.245-15.147-16.182-15.147-8.937 0-16.182 6.782-16.182 15.147 0 8.366 7.245 15.148 16.182 15.148z" fill="#fff"/><path opacity=".7" d="M448.078 129.488h16.182c0 8.307-7.308 15.148-16.182 15.148-8.874 0-16.182-6.841-16.182-15.148 0-8.306 7.308-15.147 16.182-15.147 2.84 0 5.627.703 8.091 2.023l-8.091 13.124z" fill="#fff"/><path d="M448.078 141.216c6.919 0 12.528-5.251 12.528-11.728 0-6.476-5.609-11.727-12.528-11.727-6.919 0-12.528 5.251-12.528 11.727 0 6.477 5.609 11.728 12.528 11.728z" fill="#407BFF"/><path opacity=".3" d="M448.078 141.216c6.919 0 12.528-5.251 12.528-11.728 0-6.476-5.609-11.727-12.528-11.727-6.919 0-12.528 5.251-12.528 11.727 0 6.477 5.609 11.728 12.528 11.728z" fill="#fff"/><path d="M444.43 132.083c-.287 0-.541-.051-.761-.153a1.237 1.237 0 0 1-.512-.424 1.06 1.06 0 0 1-.182-.619 1.123 1.123 0 0 1 .107-.502c.072-.155.171-.284.296-.387a.908.908 0 0 1 .425-.198v-.026a.817.817 0 0 1-.489-.345 1.034 1.034 0 0 1-.18-.608 1.024 1.024 0 0 1 .165-.583c.111-.172.265-.307.46-.406.197-.099.42-.148.671-.148.248 0 .47.049.665.148.195.099.349.234.46.406.113.171.17.366.172.583-.002.227-.064.43-.187.608a.816.816 0 0 1-.483.345v.026a.88.88 0 0 1 .419.198 1.169 1.169 0 0 1 .409.889 1.08 1.08 0 0 1-.188.619c-.122.18-.293.321-.512.424a1.758 1.758 0 0 1-.755.153zm0-.46c.194 0 .361-.031.502-.094a.74.74 0 0 0 .326-.266.709.709 0 0 0 .117-.401.77.77 0 0 0-.125-.429.86.86 0 0 0-.337-.293 1.06 1.06 0 0 0-.483-.106c-.182 0-.346.035-.489.106a.86.86 0 0 0-.337.293.757.757 0 0 0-.119.429.705.705 0 0 0 .111.401.745.745 0 0 0 .328.266c.142.063.311.094.506.094zm0-2.033c.154 0 .289-.03.408-.092a.694.694 0 0 0 .387-.644.719.719 0 0 0-.103-.378.663.663 0 0 0-.278-.251.902.902 0 0 0-.414-.09c-.16 0-.3.03-.42.09a.646.646 0 0 0-.278.251.69.69 0 0 0-.096.378.71.71 0 0 0 .098.387c.068.11.162.196.282.257.12.062.258.092.414.092zm3.654 2.493c-.315 0-.584-.086-.805-.257-.222-.173-.391-.423-.509-.751-.117-.329-.175-.726-.175-1.192 0-.463.058-.858.175-1.185.119-.329.289-.58.511-.753.223-.174.49-.261.803-.261.312 0 .579.087.8.261.223.173.394.424.511.753.118.327.177.722.177 1.185 0 .466-.058.863-.175 1.192-.117.328-.287.578-.508.751a1.28 1.28 0 0 1-.805.257zm0-.46c.312 0 .554-.151.727-.452.173-.301.26-.73.26-1.288 0-.371-.04-.686-.12-.947-.078-.261-.191-.459-.338-.596a.752.752 0 0 0-.529-.205c-.31 0-.552.153-.726.458-.174.304-.261.734-.261 1.29 0 .371.039.686.117.945.078.26.19.457.336.592a.765.765 0 0 0 .534.203zm4.466-.402v-.225c0-.157.032-.299.096-.429a.775.775 0 0 1 .74-.433c.181 0 .333.04.456.119a.747.747 0 0 1 .278.314c.063.13.094.272.094.429v.225c0 .157-.032.3-.096.431a.763.763 0 0 1-.28.314.826.826 0 0 1-.452.117.845.845 0 0 1-.458-.117.775.775 0 0 1-.282-.314.966.966 0 0 1-.096-.431zm.426-.225v.225c0 .13.031.246.092.35.062.101.168.152.318.152.147 0 .25-.051.31-.152a.677.677 0 0 0 .092-.35v-.225c0-.13-.03-.246-.088-.347-.059-.104-.163-.155-.314-.155-.146 0-.251.051-.316.155a.651.651 0 0 0-.094.347zm-2.559-2.225v-.226c0-.156.032-.299.096-.429a.775.775 0 0 1 .285-.313.827.827 0 0 1 .455-.119c.182 0 .334.039.456.119a.738.738 0 0 1 .278.313.97.97 0 0 1 .094.429v.226a.97.97 0 0 1-.096.431.754.754 0 0 1-.28.313.826.826 0 0 1-.452.117.768.768 0 0 1-.74-.43.97.97 0 0 1-.096-.431zm.427-.226v.226c0 .129.03.246.092.349.061.102.167.153.317.153.147 0 .25-.051.31-.153a.674.674 0 0 0 .092-.349v-.226a.678.678 0 0 0-.088-.347c-.058-.103-.163-.155-.314-.155-.146 0-.251.052-.315.155a.645.645 0 0 0-.094.347zm-.268 3.479 2.944-4.282h.477l-2.944 4.282h-.477z" fill="#fff"/><path d="M425.883 236.06h-34.097c-.679 0-1.222-.508-1.222-1.144v-31.917c0-.636.543-1.144 1.222-1.144h34.097c.679 0 1.221.508 1.221 1.144v31.917c0 .636-.542 1.144-1.221 1.144z" fill="#407BFF"/><path opacity=".5" d="M420.475 230.323h-4.698v2.238h4.698v-2.238z" fill="#fff"/><path d="M420.475 207.993h-4.698v2.238h4.698v-2.238zM420.475 211.716h-4.698v2.238h4.698v-2.238z" fill="#fff"/><path opacity=".75" d="M420.475 215.439h-4.698v2.238h4.698v-2.238z" fill="#fff"/><path opacity=".5" d="M420.475 219.153h-4.698v2.238h4.698v-2.238zM420.475 222.876h-4.698v2.238h4.698v-2.238zM420.475 226.6h-4.698v2.238h4.698V226.6zM414.086 230.323h-4.698v2.238h4.698v-2.238z" fill="#fff"/><path d="M414.086 219.153h-4.698v2.238h4.698v-2.238z" fill="#fff"/><path opacity=".75" d="M414.086 222.876h-4.698v2.238h4.698v-2.238z" fill="#fff"/><path opacity=".5" d="M414.086 226.6h-4.698v2.238h4.698V226.6zM407.686 230.323h-4.698v2.238h4.698v-2.238z" fill="#fff"/><path d="M407.686 215.439h-4.698v2.238h4.698v-2.238z" fill="#fff"/><path opacity=".75" d="M407.686 219.153h-4.698v2.238h4.698v-2.238z" fill="#fff"/><path opacity=".5" d="M407.686 222.876h-4.698v2.238h4.698v-2.238zM407.686 226.6h-4.698v2.238h4.698V226.6zM401.286 230.323h-4.698v2.238h4.698v-2.238z" fill="#fff"/><path d="M401.286 222.876h-4.698v2.238h4.698v-2.238z" fill="#fff"/><path opacity=".75" d="M401.286 226.6h-4.698v2.238h4.698V226.6z" fill="#fff"/><path d="M397.935 71.468h-34.097c-.678 0-1.221-.508-1.221-1.144V38.407c0-.635.543-1.144 1.221-1.144h34.097c.679 0 1.222.509 1.222 1.144v31.917c0 .636-.543 1.144-1.222 1.144z" fill="#407BFF"/><path opacity=".9" d="M383.528 50.652v-2.14l-1.18-.108a5.399 5.399 0 0 0-.877-1.974l.752-.85-1.618-1.515-.908.704a6.304 6.304 0 0 0-2.109-.821l-.115-1.104h-2.286l-.115 1.104a6.214 6.214 0 0 0-2.109.82l-.908-.703-1.619 1.515.752.85a5.49 5.49 0 0 0-.877 1.974l-1.18.108v2.14l1.18.108c.157.713.459 1.387.877 1.974l-.752.85 1.619 1.515.908-.704c.637.39 1.347.674 2.109.82l.115 1.105h2.286l.115-1.104a6.22 6.22 0 0 0 2.109-.821l.908.704 1.618-1.515-.752-.85c.418-.597.721-1.261.877-1.974l1.18-.108zm-7.193 1.828c-1.712 0-3.09-1.3-3.09-2.893 0-1.603 1.388-2.893 3.09-2.893 1.712 0 3.09 1.3 3.09 2.893 0 1.602-1.388 2.892-3.09 2.892z" fill="#fff"/><path opacity=".6" d="M392.788 56.701v-1.68l-.918-.079a4.302 4.302 0 0 0-.689-1.544l.595-.674-1.263-1.183-.721.557a4.99 4.99 0 0 0-1.649-.645l-.084-.86h-1.796l-.083.86a4.91 4.91 0 0 0-1.65.645l-.72-.557-1.263 1.183.595.674a4.42 4.42 0 0 0-.689 1.544l-.919.078v1.681l.919.078c.125.567.365 1.085.689 1.544l-.595.675 1.263 1.182.72-.557a5.097 5.097 0 0 0 1.65.645l.083.86h1.796l.084-.86a5.055 5.055 0 0 0 1.66-.645l.72.557 1.263-1.182-.595-.674c.324-.46.564-.987.689-1.545l.908-.078zm-5.637 1.427c-1.336 0-2.422-1.016-2.422-2.267s1.086-2.267 2.422-2.267 2.422 1.016 2.422 2.267c.01 1.25-1.075 2.267-2.422 2.267z" fill="#fff"/><path opacity=".4" d="M383.528 61.46v-1.407l-.773-.068a3.667 3.667 0 0 0-.574-1.3l.501-.567-1.065-.997-.605.47a4.23 4.23 0 0 0-1.389-.538l-.073-.723h-1.503l-.073.723a4.238 4.238 0 0 0-1.389.538l-.605-.47-1.065.997.501.567c-.271.391-.47.83-.574 1.3l-.773.068v1.408l.773.068c.104.47.303.909.574 1.3l-.501.567 1.065.996.605-.469c.418.254.888.44 1.389.538l.073.723h1.503l.073-.723a4.23 4.23 0 0 0 1.389-.538l.605.47 1.065-.997-.501-.567c.272-.391.47-.83.574-1.3l.773-.068zm-4.74 1.203c-1.127 0-2.036-.85-2.036-1.906 0-1.055.909-1.906 2.036-1.906 1.128 0 2.036.85 2.036 1.906 0 1.046-.908 1.906-2.036 1.906z" fill="#fff"/><path d="M395.617 93.623h-32.103v19.545h32.103V93.623z" fill="#407BFF"/><path opacity=".6" d="M395.617 93.623h-32.103v19.545h32.103V93.623z" fill="#fff"/><path d="M394.438 97.287h-29.754v14.904h29.754V97.287z" fill="#407BFF"/><path d="M389.113 99.516h-22.008v.645h22.008v-.645zM377.671 101.48h-10.566v.645h10.566v-.645zM380.406 103.444h-13.301v.645h13.301v-.645zM371.793 105.409h-4.688v.645h4.688v-.645zM370.144 107.373h-3.039v.645h3.039v-.645z" fill="#fff"/><path d="M446.773 242.656H414.67v19.546h32.103v-19.546z" fill="#407BFF"/><path opacity=".6" d="M446.773 242.656H414.67v19.546h32.103v-19.546z" fill="#fff"/><path d="M445.594 246.321H415.84v14.903h29.754v-14.903z" fill="#407BFF"/><path d="M440.269 248.549h-22.007v.645h22.007v-.645zM428.827 250.514h-10.565v.645h10.565v-.645zM431.562 252.478h-13.3v.645h13.3v-.645zM422.949 254.442h-4.687v.645h4.687v-.645zM421.3 256.406h-3.038v.645h3.038v-.645z" fill="#fff"/><g opacity=".4" fill="#fff"><path d="M399.073 129.049h-177.48v1.954h177.48v-1.954zM215.329 121.231h-2.088v-11.728c0-.264.115-.508.303-.694l63.861-59.613c.199-.186.46-.283.742-.283h58.286v1.954h-57.858l-63.246 59.037v11.327zM366.709 219.935h-78.3c-.282 0-.543-.108-.741-.284l-74.124-69.386a.937.937 0 0 1-.303-.694v-9.772h2.088v9.372l73.508 68.809h77.872v1.955z"/><path d="M314.509 157.389h-41.938c-.271 0-.543-.097-.741-.283l-28.188-26.22 1.472-1.388 27.896 25.937h41.499v1.954zM285.496 130.798l-1.482-1.378 28.094-26.464c.198-.186.459-.284.741-.284h42.376v1.955h-41.938l-27.791 26.171zM445.009 81.162H279.253c-.282 0-.543-.107-.741-.293l-16.641-15.734 1.482-1.378 16.339 15.45h165.317v1.955zM297.147 50.584l-1.472-1.378 27.144-25.41c.199-.185.46-.283.742-.283h86.996v1.955h-86.568l-26.842 25.116zM314.123 267.86l-42.104-39.413a.935.935 0 0 1-.303-.694v-23.455h2.088v23.054l41.802 39.13-1.483 1.378zM304.633 219.339l-1.483-1.378 27.687-26.084c.199-.185.46-.283.742-.283h105.078v1.955h-104.64l-27.384 25.79zM402.205 247.298h-46.803c-.282 0-.543-.107-.741-.283l-29.41-27.53 1.473-1.378 29.106 27.237h46.375v1.954z"/><path d="M410.557 28.957c2.641 0 4.781-2.004 4.781-4.476s-2.14-4.476-4.781-4.476c-2.641 0-4.782 2.004-4.782 4.476s2.141 4.476 4.782 4.476zM345.829 60.23c-6.097 0-11.046-4.643-11.046-10.34 0-5.698 4.959-10.34 11.046-10.34 6.086 0 11.045 4.642 11.045 10.34 0 5.697-4.948 10.34-11.045 10.34zm0-18.725c-4.938 0-8.958 3.762-8.958 8.385 0 4.622 4.02 8.385 8.958 8.385 4.938 0 8.957-3.763 8.957-8.385 0-4.623-4.019-8.385-8.957-8.385zM449.791 80.351c0 2.473-2.141 4.476-4.782 4.476s-4.781-2.003-4.781-4.476c0-2.472 2.14-4.476 4.781-4.476 2.641 0 4.782 1.994 4.782 4.476zM355.225 108.116c2.641 0 4.781-2.004 4.781-4.476s-2.14-4.476-4.781-4.476c-2.641 0-4.782 2.004-4.782 4.476s2.141 4.476 4.782 4.476zM408.469 140.365c-6.097 0-11.045-4.642-11.045-10.339 0-5.698 4.959-10.34 11.045-10.34 6.087 0 11.046 4.642 11.046 10.34 0 5.697-4.949 10.339-11.046 10.339zm0-18.724c-4.938 0-8.957 3.762-8.957 8.385 0 4.622 4.019 8.385 8.957 8.385 4.938 0 8.958-3.763 8.958-8.385 0-4.623-4.02-8.385-8.958-8.385zM314.509 160.888c2.641 0 4.782-2.004 4.782-4.476s-2.141-4.476-4.782-4.476-4.781 2.004-4.781 4.476 2.14 4.476 4.781 4.476zM436.657 197.047c2.641 0 4.782-2.004 4.782-4.476s-2.141-4.476-4.782-4.476-4.782 2.004-4.782 4.476 2.141 4.476 4.782 4.476zM376.105 229.141c-6.097 0-11.046-4.642-11.046-10.34 0-5.697 4.959-10.339 11.046-10.339 6.086 0 11.045 4.642 11.045 10.339 0 5.698-4.948 10.34-11.045 10.34zm0-18.735c-4.939 0-8.958 3.763-8.958 8.385 0 4.623 4.019 8.385 8.958 8.385 4.938 0 8.957-3.762 8.957-8.385 0-4.622-4.019-8.385-8.957-8.385zM402.205 250.797c2.641 0 4.782-2.004 4.782-4.476s-2.141-4.476-4.782-4.476c-2.64 0-4.781 2.004-4.781 4.476s2.141 4.476 4.781 4.476zM319.646 267.166c0 2.473-2.141 4.476-4.782 4.476s-4.781-2.003-4.781-4.476c0-2.472 2.14-4.476 4.781-4.476 2.631 0 4.782 2.004 4.782 4.476zM214.306 141.411c-6.692 0-12.142-5.101-12.142-11.366 0-6.264 5.45-11.365 12.142-11.365 6.692 0 12.141 5.101 12.141 11.365 0 6.275-5.449 11.366-12.141 11.366zm0-19.799c-4.97 0-9.01 3.782-9.01 8.433 0 4.652 4.04 8.434 9.01 8.434 4.969 0 9.009-3.782 9.009-8.434 0-4.642-4.04-8.433-9.009-8.433z"/></g></svg>