<?xml version="1.0" encoding="utf-8"?>
<!-- Generator: Adobe Illustrator 27.0.0, SVG Export Plug-In . SVG Version: 6.00 Build 0)  -->
<svg version="1.1" id="Layer_1" xmlns="http://www.w3.org/2000/svg" xmlns:xlink="http://www.w3.org/1999/xlink" x="0px" y="0px"
	 viewBox="0 0 504 453.3" style="enable-background:new 0 0 504 453.3;" xml:space="preserve">
<style type="text/css">
	.st0{fill:#F5F5F5;}
	.st1{fill:#E0E0E0;}
	.st2{fill:#EBEBEB;}
	.st3{fill:#FAFAFA;}
	.st4{fill:#FFBE9D;}
	.st5{fill:#EB996E;}
	.st6{fill:#263238;}
	.st7{fill:#455A64;}
	.st8{fill:#264FDA;}
	.st9{opacity:0.3;enable-background:new    ;}
	.st10{opacity:0.6;fill:#FFFFFF;enable-background:new    ;}
	.st11{opacity:0.4;enable-background:new    ;}
	.st12{fill:#FFFFFF;}
</style>
<g>
	<path class="st0" d="M415,240.3c0,0-5.1,3.8-5.1,8.9V275h37.7v-27c0,0-0.5-6.6-5-7.7H415z"/>
	<path class="st1" d="M412.8,273.6c-0.2-2.4-0.6-5.4-0.6-7.9c0.1-2.6,1.9-5.2,4.4-5.8c2-0.5,4.1,0.2,6.1,0.5c3.3,0.5,6.8,0,9.7-1.4
		c2.5-1.3,4.9-3.2,7.7-3.5c1.8-0.2,4,0.7,4.5,2.5c0.2,0.9,0.1,1.8,0,2.6c-0.6,4,0.2,8.9,0.2,12.7
		C434.3,273.7,423.4,273.3,412.8,273.6z M407.6,278.6l5.7-3.6h34.4l5.5,3.6H407.6L407.6,278.6z"/>
	<path class="st0" d="M406.5,194.6V233h46.6v45.6h-45.6v10.9h78.6v-94.9c0-4.5-3.7-8.2-8.2-8.2c0,0,0,0,0,0h-63.3
		C410.2,186.4,406.5,190.1,406.5,194.6L406.5,194.6z"/>
	<path class="st1" d="M486.2,195.5c0,0.2-17.8,0.3-39.8,0.3c-22,0-39.8-0.1-39.8-0.3s17.8-0.3,39.8-0.3
		C468.3,195.1,486.2,195.3,486.2,195.5z"/>
	<path class="st1" d="M464.1,289.5c-0.2,0-0.3-23-0.3-51.4c0-28.4,0.1-51.4,0.3-51.4s0.3,23,0.3,51.4
		C464.4,266.5,464.2,289.5,464.1,289.5z M402.3,262.5l-0.5-11.6c-0.1-3.4,0.6-6.7,2.5-9.5c1.5-2.2,3.7-4.2,6.9-4.2h31.5v3.1h-30.9
		c0,0-5.6,0.6-6.3,8.2c-0.7,7.6,0,14,0,14L402.3,262.5L402.3,262.5L402.3,262.5z M434.5,425.4h-12.5V448h12.5L434.5,425.4
		L434.5,425.4z M489.9,425.4h-12.5V448h12.5V425.4z M498.2,289.9H394.4v135.5h103.9L498.2,289.9L498.2,289.9z"/>
	<path class="st0" d="M476.5,289.9H375.4v135.5h101.2L476.5,289.9L476.5,289.9z M396.8,425.4h-12.5V448h12.5V425.4z M468.9,425.4
		h-12.5V448h12.5V425.4z"/>
	<path class="st1" d="M468.5,409.9c0,0,0-0.2,0-0.6c0-0.4,0-1,0-1.7c0-1.5,0-3.8,0-6.6c0-5.8,0-14.1-0.1-24.5l0.1,0.1
		c-21.7,0-52.6,0-86.8,0.1h0l0.2-0.2c0,11.7,0,23,0,33.5l-0.2-0.2c25.1,0,46.8,0.1,62.2,0.1c7.7,0,13.9,0,18.1,0.1
		c2.1,0,3.7,0,4.9,0c0.5,0,1,0,1.3,0C468.3,409.9,468.5,409.9,468.5,409.9c0,0-0.1,0-0.4,0c-0.3,0-0.7,0-1.2,0c-1.1,0-2.7,0-4.8,0
		c-4.2,0-10.3,0-18,0.1c-15.4,0-37.2,0.1-62.3,0.1h-0.2v-0.2c0-10.5,0-21.8,0-33.5v-0.2h0.2c34.2,0,65.1,0.1,86.8,0.1h0.1v0.1
		c0,10.4-0.1,18.8-0.1,24.6c0,2.9,0,5.1,0,6.6c0,0.7,0,1.3,0,1.7L468.5,409.9L468.5,409.9z"/>
	<path class="st1" d="M427.7,393.2c0,0,0-0.2-0.2-0.6c-0.2-0.5-0.5-1-1-1.3c-0.6-0.4-1.5-0.6-2.3-0.3c-0.9,0.3-1.6,1.2-1.6,2.3
		c0,1.1,0.7,2,1.6,2.3c0.8,0.3,1.7,0.2,2.3-0.3c0.6-0.4,0.9-1,1-1.3C427.6,393.4,427.6,393.2,427.7,393.2c0,0,0.1,0.2,0,0.7
		c-0.1,0.4-0.3,1-0.9,1.5c-0.6,0.5-1.6,0.8-2.6,0.4c-1-0.3-1.9-1.4-1.9-2.6c0-1.2,0.9-2.3,1.9-2.6c1-0.4,2-0.1,2.6,0.4
		c0.6,0.5,0.9,1.1,0.9,1.5C427.7,392.9,427.7,393.2,427.7,393.2L427.7,393.2z M468.5,369.8c0,0,0-0.2,0-0.6c0-0.4,0-1,0-1.7
		c0-1.5,0-3.8,0-6.6c0-5.8,0-14.1-0.1-24.5l0.1,0.1c-21.7,0-52.6,0-86.8,0.1h0l0.2-0.2c0,11.7,0,23,0,33.5l-0.2-0.2
		c25.1,0,46.8,0.1,62.2,0.1c7.7,0,13.9,0,18.1,0.1c2.1,0,3.7,0,4.9,0c0.5,0,1,0,1.3,0C468.3,369.8,468.5,369.8,468.5,369.8
		c0,0-0.1,0-0.4,0c-0.3,0-0.7,0-1.2,0c-1.1,0-2.7,0-4.8,0c-4.2,0-10.3,0-18,0.1c-15.4,0-37.2,0.1-62.3,0.1h-0.2v-0.2
		c0-10.5,0-21.8,0-33.5v-0.2h0.2c34.2,0,65.1,0.1,86.8,0.1h0.1v0.1c0,10.4-0.1,18.8-0.1,24.6c0,2.9,0,5.1,0,6.6c0,0.7,0,1.3,0,1.7
		L468.5,369.8L468.5,369.8z"/>
	<path class="st1" d="M427.7,353.1c0,0,0-0.2-0.2-0.6c-0.2-0.5-0.5-1-1-1.3c-0.6-0.4-1.5-0.6-2.3-0.3c-0.9,0.3-1.6,1.2-1.6,2.3
		c0,1.1,0.7,2,1.6,2.3c0.8,0.3,1.7,0.2,2.3-0.3c0.6-0.4,0.9-1,1-1.3C427.6,353.3,427.6,353.1,427.7,353.1c0,0,0.1,0.2,0,0.7
		c-0.1,0.4-0.3,1-0.9,1.5c-0.6,0.5-1.6,0.8-2.6,0.4c-1-0.3-1.9-1.4-1.9-2.6c0-1.2,0.9-2.3,1.9-2.6c1-0.4,2-0.1,2.6,0.4
		c0.6,0.5,0.9,1.1,0.9,1.5C427.7,352.9,427.7,353.1,427.7,353.1L427.7,353.1z M468.5,330.3c0,0,0-0.2,0-0.6c0-0.4,0-1,0-1.7
		c0-1.5,0-3.8,0-6.6c0-5.8,0-14.1-0.1-24.5l0.1,0.1c-21.7,0-52.6,0-86.8,0.1h0l0.2-0.2c0,11.7,0,23,0,33.5l-0.2-0.2
		c25.1,0,46.8,0.1,62.2,0.1c7.7,0,13.9,0,18.1,0.1c2.1,0,3.7,0,4.9,0c0.5,0,1,0,1.3,0L468.5,330.3c0,0-0.1,0-0.4,0
		c-0.3,0-0.7,0-1.2,0c-1.1,0-2.7,0-4.8,0c-4.2,0-10.3,0-18,0.1c-15.4,0-37.2,0.1-62.3,0.1h-0.2v-0.2c0-10.5,0-21.8,0-33.5v-0.2h0.2
		c34.2,0,65.1,0.1,86.8,0.1h0.1v0.1c0,10.4-0.1,18.8-0.1,24.6c0,2.9,0,5.1,0,6.6c0,0.7,0,1.3,0,1.7L468.5,330.3L468.5,330.3z"/>
	<path class="st1" d="M427.7,313.6c0,0,0-0.2-0.2-0.6c-0.2-0.5-0.5-1-1-1.3c-0.6-0.4-1.5-0.6-2.3-0.3c-0.9,0.3-1.6,1.2-1.6,2.3
		c0,1.1,0.7,2,1.6,2.3c0.8,0.3,1.7,0.2,2.3-0.3c0.6-0.4,0.9-1,1-1.3C427.6,313.8,427.6,313.6,427.7,313.6c0,0,0.1,0.2,0,0.7
		c-0.1,0.4-0.3,1-0.9,1.5c-0.6,0.5-1.6,0.8-2.6,0.4c-1-0.3-1.9-1.4-1.9-2.6c0-1.2,0.9-2.3,1.9-2.6c1-0.4,2-0.1,2.6,0.4
		c0.6,0.5,0.9,1.1,0.9,1.5C427.7,313.4,427.7,313.6,427.7,313.6L427.7,313.6z M478.1,289.5c0,0.2-18.9,0.4-42.3,0.4
		c-23.4,0-42.3-0.2-42.3-0.4c0-0.2,18.9-0.4,42.3-0.4C459.2,289.2,478.1,289.3,478.1,289.5z"/>
	<path class="st2" d="M100.2,387.3H21.2v6.1h78.9C100.2,393.5,100.2,387.3,100.2,387.3z"/>
	<path class="st1" d="M100.2,387.3H78.5v6.1h21.7V387.3z"/>
	<path class="st0" d="M11.2,393.5v27.6H6.9v3h4.3v18.5H92v-16.8h-6v-3.7h6v-5.5h2.7v-2.5h-3.2v-20.6L11.2,393.5L11.2,393.5z"/>
	<path class="st1" d="M70.6,393.6v48.6H92v-16.8h-6v-3.4h6v-5.5h2.7v-2.8h-3.2v-20.3L70.6,393.6L70.6,393.6z"/>
	<path class="st1" d="M72.1,423.7c0,0.2-14.6,0.3-32.7,0.3c-18,0-32.7-0.1-32.7-0.3s14.6-0.3,32.7-0.3S72.1,423.5,72.1,423.7z
		 M72.1,420.9c0,0.2-14.6,0.3-32.7,0.3c-18,0-32.7-0.1-32.7-0.3s14.6-0.3,32.7-0.3S72.1,420.7,72.1,420.9z M76.3,413.3
		c0,0.2-14.6,0.3-32.7,0.3c-18,0-32.7-0.1-32.7-0.3s14.6-0.3,32.7-0.3C61.7,413,76.3,413.1,76.3,413.3z M76.7,433.9
		c0,0.2-14.6,0.3-32.7,0.3c-18,0-32.7-0.1-32.7-0.3s14.6-0.3,32.7-0.3S76.7,433.7,76.7,433.9z"/>
	<path class="st0" d="M19.2,338.3v27.6h-4.3v3h4.3v18.5H100v-16.8h-6v-3.7h6v-5.5h2.7v-2.5h-3.2v-20.6L19.2,338.3L19.2,338.3
		L19.2,338.3z"/>
	<path class="st1" d="M78.6,338.4V387H100v-16.8h-6v-3.4l6,0.1v-5.5l2.7,0l-0.1-2.8l-3.2-0.1v-20.3L78.6,338.4L78.6,338.4z"/>
	<path class="st1" d="M80.1,368.5c0,0.2-14.6,0.3-32.7,0.3c-18,0-32.7-0.1-32.7-0.3s14.6-0.3,32.7-0.3S80.1,368.3,80.1,368.5z
		 M80.1,365.7c0,0.2-14.6,0.3-32.7,0.3c-18,0-32.7-0.1-32.7-0.3s14.6-0.3,32.7-0.3C65.5,365.4,80.1,365.5,80.1,365.7z M84.3,358.1
		c0,0.2-14.6,0.3-32.7,0.3S19,358.3,19,358.1s14.6-0.3,32.7-0.3C69.7,357.8,84.3,358,84.3,358.1L84.3,358.1z M84.7,378.7
		c0,0.2-14.6,0.3-32.7,0.3c-18,0-32.7-0.1-32.7-0.3s14.6-0.3,32.7-0.3S84.7,378.5,84.7,378.7z"/>
	<path class="st2" d="M94.9,442.2H15.9v6.1h78.9V442.2z"/>
	<path class="st1" d="M94.9,442.2H73.2v6.1h21.7C94.9,448.4,94.9,442.2,94.9,442.2z"/>
	<path class="st0" d="M42,212.5v25.2h-4v2.7h4v16.9H116V242h-5.5v-3.3h5.5v-5h2.4v-2.3h-2.9v-18.8L42,212.5L42,212.5L42,212.5z"/>
	<path class="st1" d="M96.3,212.6v44.5H116v-15.4h-5.5v-3.1l5.5,0.1v-5h2.5l0-2.6l-2.9-0.1v-18.6C115.5,212.5,96.3,212.6,96.3,212.6
		z"/>
	<path class="st1" d="M97.7,240.1c0,0.2-13.4,0.3-29.9,0.3S38,240.3,38,240.1c0-0.2,13.4-0.3,29.9-0.3
		C84.4,239.8,97.7,240,97.7,240.1z M97.7,237.5c0,0.2-13.4,0.3-29.9,0.3S38,237.7,38,237.5c0-0.2,13.4-0.3,29.9-0.3
		C84.4,237.3,97.7,237.4,97.7,237.5z M101.6,230.6c0,0.2-13.4,0.3-29.9,0.3s-29.9-0.1-29.9-0.3c0-0.2,13.4-0.3,29.9-0.3
		C88.2,230.4,101.6,230.5,101.6,230.6z M102,249.4c0,0.2-13.4,0.3-29.9,0.3s-29.9-0.1-29.9-0.3c0-0.2,13.4-0.3,29.9-0.3
		C88.6,249.2,102,249.3,102,249.4z"/>
	<path class="st3" d="M269.6,48.9H162.4v95.9h107.1L269.6,48.9L269.6,48.9z"/>
	<path class="st1" d="M269.6,144.8c0,0,0-0.6,0-1.8c0-1.2,0-2.9,0-5.1c0-4.5,0-11.1-0.1-19.5c0-16.7-0.1-40.7-0.1-69.5l0.2,0.2
		c-30.9,0-67.7,0-107.1,0h0l0.3-0.3c0,34.9,0,67.7,0,95.9l-0.3-0.3c32,0.1,58.7,0.1,77.5,0.1c9.4,0,16.8,0.1,21.9,0.1
		c2.5,0,4.5,0,5.8,0c0.7,0,1.1,0,1.5,0C269.4,144.7,269.6,144.8,269.6,144.8s-0.2,0-0.5,0c-0.3,0-0.8,0-1.5,0c-1.3,0-3.2,0-5.7,0
		c-5.1,0-12.4,0-21.8,0.1c-18.8,0-45.6,0.1-77.7,0.1h-0.3v-0.3c0-28.2,0-61,0-95.9v-0.3h0.3c39.5,0,76.3,0,107.1,0h0.2v0.2
		l-0.1,69.6c0,8.4-0.1,14.9-0.1,19.4c0,2.2,0,3.9,0,5.1C269.6,144.2,269.6,144.8,269.6,144.8L269.6,144.8z"/>
	<path class="st1" d="M203.5,65.9c0,0.2-5.6,0.3-12.6,0.3c-7,0-12.6-0.1-12.6-0.3c0-0.2,5.6-0.3,12.6-0.3
		C197.9,65.6,203.5,65.8,203.5,65.9z M248.9,73.1c0,0.2-15.5,0.3-34.6,0.3c-19.1,0-34.6-0.1-34.6-0.3c0-0.2,15.5-0.3,34.6-0.3
		C233.4,72.8,248.9,73,248.9,73.1z M183,85.3h-4.5v4.5h4.5V85.3z M194.1,85.3h-4.5v4.5h4.5V85.3z M205.5,85.1h-4.5v4.5h4.5V85.1z
		 M216.4,85.3h-4.5v4.5h4.5V85.3z M227.5,85.3H223v4.5h4.5V85.3z M238.6,85.3h-4.5v4.5h4.5V85.3z"/>
	<path class="st2" d="M249.7,85.3h-4.5v4.5h4.5V85.3z M183,94.9h-4.5v4.5h4.5V94.9z"/>
	<path class="st1" d="M194.1,94.9h-4.5v4.5h4.5V94.9z"/>
	<path class="st2" d="M205.3,94.9h-4.5v4.5h4.5V94.9z"/>
	<path class="st1" d="M216.4,94.9h-4.5v4.5h4.5V94.9z M227.5,94.9H223v4.5h4.5V94.9z M238.8,94.7h-4.5v4.5h4.5V94.7z M249.7,94.9
		h-4.5v4.5h4.5V94.9z M183,104.5h-4.5v4.5h4.5V104.5z M194.4,104.3h-4.5v4.5h4.5V104.3z M205.3,104.5h-4.5v4.5h4.5V104.5z"/>
	<path class="st2" d="M216.4,104.5h-4.5v4.5h4.5V104.5z"/>
	<path class="st1" d="M227.5,104.5H223v4.5h4.5V104.5z M238.6,104.5h-4.5v4.5h4.5V104.5z M249.7,104.5h-4.5v4.5h4.5V104.5z
		 M183,114.1h-4.5v4.5h4.5V114.1z M194.1,114.1h-4.5v4.5h4.5V114.1z M205.3,114.1h-4.5v4.5h4.5V114.1z M216.6,113.9h-4.5v4.5h4.5
		V113.9z M227.5,114.1H223v4.5h4.5V114.1z"/>
	<path class="st2" d="M238.6,114.1h-4.5v4.5h4.5V114.1z"/>
	<path class="st1" d="M249.7,114.1h-4.5v4.5h4.5V114.1z M183,123.7h-4.5v4.5h4.5V123.7z"/>
	<path class="st2" d="M194.1,123.7h-4.5v4.5h4.5V123.7z"/>
	<path class="st1" d="M205.3,123.7h-4.5v4.5h4.5V123.7z M216.4,123.7h-4.5v4.5h4.5V123.7z M227.5,123.7H223v4.5h4.5V123.7z
		 M238.8,123.5h-4.5v4.5h4.5V123.5z M249.7,123.7h-4.5v4.5h4.5V123.7z"/>
	<path class="st2" d="M413.1,70H432V37.5h-18.9C413.1,37.5,413.1,70,413.1,70z M360.5,70.6h14.9V30h-14.9
		C360.5,30,360.5,70.6,360.5,70.6z"/>
	<path class="st3" d="M360.3,32.9c0-0.1,3.4-0.2,7.6-0.2s7.6,0.1,7.6,0.2c0,0.1-3.4,0.2-7.6,0.2C363.7,33.1,360.3,33,360.3,32.9z
		 M361.1,34.8c0-0.1,3.2-0.2,7.2-0.2c4,0,7.2,0.1,7.2,0.2s-3.2,0.2-7.2,0.2S361.1,34.9,361.1,34.8z M367.5,62.6
		c-0.1,0-0.2-5.4-0.2-12c0-6.6,0.1-12,0.2-12s0.2,5.4,0.2,12C367.7,57.2,367.6,62.6,367.5,62.6z M360.5,66.3c0-0.1,3.3-0.2,7.3-0.2
		c4,0,7.3,0.1,7.3,0.2s-3.3,0.2-7.3,0.2C363.7,66.5,360.5,66.4,360.5,66.3z M360.5,68c0-0.1,3.4-0.2,7.5-0.2c4.1,0,7.5,0.1,7.5,0.2
		s-3.3,0.2-7.5,0.2C363.8,68.2,360.5,68.1,360.5,68z"/>
	<path class="st1" d="M375.4,70.6h12v-45h-12C375.4,25.6,375.4,70.6,375.4,70.6z"/>
	<path class="st3" d="M375.3,46.2c0-0.1,0.7,0.5,1.8,1.3c1.2,0.9,2.7,2,4.3,3.3c1.6,1.2,3.1,2.4,4.3,3.3c1.1,0.9,1.8,1.4,1.7,1.4
		c0,0.1-0.8-0.4-1.9-1.2c-1.1-0.8-2.7-1.9-4.4-3.2c-1.4-1.1-2.9-2.2-4.2-3.4C375.9,46.9,375.3,46.3,375.3,46.2L375.3,46.2z
		 M375.2,39.2c0.1-0.1,2.8,2.1,6.1,4.9s5.9,5.2,5.8,5.3c-0.1,0.1-2.8-2.1-6.1-4.9C377.8,41.7,375.2,39.3,375.2,39.2L375.2,39.2z"/>
	<path class="st2" d="M323.4,70.6h5.7V27.7h-5.7V70.6z"/>
	<path class="st3" d="M323.6,33.6c0,0.1,1.2,0.3,2.7,0.3c1.5,0,2.7-0.1,2.7-0.3s-1.2-0.3-2.7-0.3C324.8,33.3,323.6,33.4,323.6,33.6z
		 M326.2,32.9c1.5,0,2.7-0.1,2.7-0.3c0-0.2-1.2-0.3-2.7-0.3s-2.7,0.1-2.7,0.3C323.5,32.8,324.7,32.9,326.2,32.9z M323.6,67.3
		c0,0.1,1.2,0.3,2.7,0.3c1.5,0,2.7-0.1,2.7-0.3c0-0.1-1.2-0.3-2.7-0.3C324.8,67,323.6,67.1,323.6,67.3z M323.5,66.3
		c0,0.1,1.2,0.3,2.7,0.3c1.5,0,2.7-0.1,2.7-0.3c0-0.1-1.2-0.3-2.7-0.3C324.7,66.1,323.5,66.2,323.5,66.3z M326.4,60.7
		c0.1,0,0.3-4.9,0.3-11c0-6.1-0.1-11-0.3-11s-0.3,4.9-0.3,11C326.1,55.8,326.2,60.7,326.4,60.7z"/>
	<path class="st1" d="M349,70.3h11.4V27.5H349C349,27.5,349,70.3,349,70.3z"/>
	<path class="st3" d="M357.2,70.9c0,0,0.1-0.1,0.1-0.2c0.1-0.2,0.2-0.4,0.3-0.7c0.3-0.6,0.6-1.6,0.8-2.9c0.2-1.3,0.2-3-0.7-4.7
		c-0.5-0.9-1.2-1.7-2-2.2c-0.9-0.6-2.1-1-3.3-0.8c-0.6,0.1-1.2,0.4-1.7,0.8c-0.5,0.4-0.9,1.1-0.8,1.8c0,0.7,0.4,1.4,1,1.8
		c0.6,0.5,1.2,0.8,2,0.8c1.4,0.2,3-0.4,4.1-1.5c1.1-1,1.8-2.5,2-4.1c0.2-1.6-0.1-3.2-0.6-4.8c-0.5-1.6-1.4-3.1-2.8-4.2
		c-0.7-0.5-1.6-0.9-2.5-1c-0.9-0.1-1.9,0.2-2.6,0.9c-0.3,0.3-0.6,0.8-0.6,1.3c0,0.5,0.1,1,0.4,1.4c0.5,0.8,1.4,1.4,2.3,1.6
		c1.9,0.4,3.8-0.3,5-1.7c1.2-1.4,1.8-3.1,2-4.8c0.2-1.7,0-3.4-0.5-5c-0.5-1.6-1.6-3-3-3.8c-1.4-0.8-3.1-1.1-4.5-0.5
		c-0.7,0.3-1.4,1-1.5,1.7c-0.1,0.8,0.1,1.5,0.5,2.2c1,1.2,2.6,1.4,3.9,1c1.3-0.4,2.3-1.3,3-2.2c1.4-1.7,2.2-3.7,2.3-5.9
		c0.1-1.6-0.3-3.2-1.1-4.7c-0.5-0.9-1.1-1.7-1.8-2.4c-0.2-0.2-0.4-0.4-0.6-0.5c-0.1-0.1-0.2-0.2-0.2-0.1c-0.1,0.1,1.2,0.9,2.4,3.2
		c0.6,1.2,1,2.7,0.9,4.5c-0.1,2.1-0.9,4.1-2.3,5.6c-0.7,0.9-1.7,1.7-2.9,2c-1.1,0.3-2.6,0.1-3.4-0.9c-0.4-0.5-0.5-1.2-0.4-1.8
		c0.1-0.6,0.6-1.1,1.2-1.4c1.3-0.5,2.8-0.3,4.1,0.5c1.3,0.8,2.2,2.1,2.7,3.5c0.5,1.5,0.6,3.1,0.5,4.8c-0.2,1.6-0.7,3.3-1.8,4.5
		c-1.1,1.2-2.9,1.9-4.5,1.5c-0.8-0.2-1.6-0.7-2-1.3c-0.4-0.7-0.4-1.5,0.1-2.1c0.5-0.6,1.4-0.8,2.1-0.7c0.8,0.1,1.6,0.4,2.2,0.9
		c1.3,1,2.1,2.4,2.6,3.9c0.5,1.5,0.8,3.1,0.6,4.6s-0.8,2.9-1.8,3.8c-1,1-2.4,1.5-3.7,1.4c-1.3-0.1-2.5-1.1-2.6-2.2
		c0-0.6,0.2-1.1,0.7-1.5c0.4-0.4,1-0.6,1.5-0.7c1.1-0.2,2.2,0.1,3,0.7c0.8,0.5,1.5,1.3,2,2.1c0.9,1.6,0.9,3.3,0.7,4.5
		c-0.1,1-0.4,2-0.7,2.9C357.4,70.5,357.2,70.8,357.2,70.9L357.2,70.9z M329,70.3h19.9v-39H329C329,31.3,329,70.3,329,70.3z"/>
	<path class="st1" d="M329.7,37.8c0,0.1,4.3,0.3,9.6,0.3c5.3,0,9.6-0.1,9.6-0.3c0-0.1-4.3-0.3-9.6-0.3
		C334,37.5,329.7,37.6,329.7,37.8L329.7,37.8z M329.4,40.8c0,0.1,4.3,0.3,9.5,0.3c5.2,0,9.5-0.1,9.5-0.3c0-0.1-4.3-0.3-9.5-0.3
		C333.7,40.5,329.4,40.6,329.4,40.8z M328.8,65.9c0,0.1,4.5,0.3,10,0.3s10-0.1,10-0.3c0-0.2-4.5-0.3-10-0.3
		C333.3,65.6,328.8,65.8,328.8,65.9z M329.1,62.4c0,0.1,4.4,0.3,9.7,0.3s9.7-0.1,9.7-0.3s-4.4-0.3-9.7-0.3S329.1,62.3,329.1,62.4z"
		/>
	<path class="st2" d="M387.3,70h11.4V27.2h-11.4V70z"/>
	<path class="st3" d="M395.6,70.6c0,0,0.1-0.1,0.1-0.2c0.1-0.2,0.2-0.4,0.3-0.7c0.3-0.6,0.6-1.6,0.8-2.9c0.2-1.3,0.2-3-0.7-4.7
		c-0.5-0.9-1.2-1.7-2-2.2c-0.9-0.6-2.1-1-3.3-0.8c-0.6,0.1-1.2,0.4-1.7,0.8c-0.5,0.4-0.9,1.1-0.8,1.8c0,0.7,0.4,1.4,1,1.8
		c0.6,0.5,1.2,0.8,2,0.8c1.4,0.2,3-0.4,4.1-1.5c1.1-1,1.8-2.5,2-4.1c0.2-1.6-0.1-3.2-0.6-4.8c-0.5-1.6-1.4-3.1-2.8-4.2
		c-0.7-0.5-1.6-0.9-2.5-1c-0.9-0.1-1.9,0.2-2.6,0.9c-0.3,0.3-0.6,0.8-0.6,1.3c0,0.5,0.1,1,0.4,1.4c0.5,0.8,1.4,1.4,2.3,1.6
		c1.9,0.4,3.8-0.3,5-1.7c1.2-1.4,1.8-3.1,2-4.8c0.2-1.7,0-3.4-0.5-5c-0.5-1.6-1.6-3-3-3.8c-1.4-0.8-3.1-1.1-4.5-0.5
		c-0.7,0.3-1.4,1-1.5,1.7c-0.1,0.8,0.1,1.5,0.5,2.2c1,1.2,2.6,1.4,3.9,1c1.3-0.4,2.3-1.3,3-2.2c1.4-1.7,2.2-3.7,2.3-5.9
		c0.1-1.6-0.3-3.2-1.1-4.7c-0.5-0.9-1.1-1.7-1.8-2.4c-0.2-0.2-0.4-0.4-0.6-0.5c-0.1-0.1-0.2-0.2-0.2-0.1c-0.1,0.1,1.2,0.9,2.4,3.2
		c0.6,1.2,1,2.7,0.9,4.5c-0.1,2.1-0.9,4.1-2.3,5.6c-0.7,0.9-1.7,1.7-2.9,2c-1.1,0.3-2.6,0.1-3.4-0.9c-0.4-0.5-0.5-1.2-0.4-1.8
		c0.1-0.6,0.6-1.1,1.2-1.4c1.3-0.5,2.8-0.3,4.1,0.5c1.3,0.8,2.2,2.1,2.7,3.5c0.5,1.5,0.6,3.1,0.5,4.8c-0.2,1.6-0.7,3.3-1.8,4.5
		c-1.1,1.2-2.9,1.9-4.5,1.5c-0.8-0.2-1.6-0.7-2-1.3c-0.4-0.7-0.4-1.5,0.1-2.1c0.5-0.6,1.4-0.8,2.1-0.7c0.8,0.1,1.6,0.4,2.2,0.9
		c1.3,1,2.1,2.4,2.6,3.9c0.5,1.5,0.8,3.1,0.6,4.6s-0.8,2.9-1.8,3.8c-1,1-2.4,1.5-3.7,1.4c-1.3-0.1-2.5-1.1-2.6-2.2
		c0-0.6,0.2-1.1,0.7-1.5c0.4-0.4,1-0.6,1.5-0.7c1.1-0.2,2.2,0.1,3,0.7c0.8,0.5,1.5,1.3,2,2.1c0.9,1.6,0.9,3.3,0.7,4.5
		c-0.1,1-0.4,2-0.7,2.9C395.7,70.2,395.5,70.6,395.6,70.6L395.6,70.6z"/>
	<path class="st1" d="M307.5,70h15.9V25h-15.9V70z M398.8,70h14.9V30h-14.9V70z"/>
	<path class="st3" d="M414,50c0.1-0.1,0.8,0.9,2.4,1.7c0.9,0.5,2,0.7,3,0.8c1.3,0.1,2.5-0.1,3.7-0.6c1.3-0.5,2.4-1.2,3.6-1.6
		c1.2-0.4,2.3-0.5,3.2-0.3c0.9,0.2,1.6,0.7,1.9,1.1c0.3,0.4,0.4,0.7,0.4,0.7c0,0-0.1-0.3-0.5-0.6c-0.5-0.5-1.1-0.8-1.8-0.9
		c-0.9-0.2-1.9,0-3,0.4c-1.1,0.4-2.2,1.1-3.5,1.6c-1.2,0.5-2.6,0.8-3.9,0.6c-1.1-0.1-2.1-0.4-3.1-1c-0.6-0.3-1.2-0.8-1.7-1.3
		C414.1,50.2,414,50,414,50L414,50z M413.7,53.9c0.1-0.1,0.8,0.9,2.4,1.7c0.9,0.5,2,0.7,3,0.8c1.3,0.1,2.6-0.1,3.7-0.7
		c1.3-0.5,2.4-1.2,3.6-1.6c1.2-0.4,2.3-0.5,3.2-0.3c0.9,0.2,1.6,0.7,1.9,1.1c0.3,0.4,0.4,0.7,0.4,0.7c0,0-0.1-0.3-0.5-0.6
		c-0.5-0.5-1.1-0.8-1.8-0.9c-0.9-0.2-1.9,0-3,0.4c-1.1,0.4-2.2,1.1-3.5,1.6c-1.2,0.5-2.6,0.8-3.9,0.6c-1.1-0.1-2.1-0.4-3.1-1
		c-0.6-0.3-1.2-0.8-1.7-1.3C413.8,54.2,413.7,53.9,413.7,53.9L413.7,53.9z M413.9,41.1c0-0.1,4.1-0.2,9.1-0.2c5,0,9.1,0.1,9.1,0.2
		s-4.1,0.2-9.1,0.2C418,41.3,413.9,41.2,413.9,41.1L413.9,41.1z M407.2,36.4c0,0.1-0.5-0.3-1.3-0.1c-0.4,0.1-0.8,0.4-1,0.8
		c-0.2,0.4,0,1.1,0.4,1.4c0.4,0.4,1,0.5,1.5,0.3c0.4-0.2,0.7-0.7,0.8-1c0.2-0.8-0.2-1.2-0.2-1.3c0,0,0.1,0.1,0.3,0.3
		c0.1,0.2,0.3,0.6,0.2,1.1c-0.1,0.5-0.3,1-0.9,1.4c-0.6,0.3-1.4,0.1-2-0.4c-0.5-0.5-0.8-1.3-0.5-2c0.3-0.6,0.9-0.9,1.3-1
		c0.5-0.1,0.9,0,1.1,0.1C407.1,36.3,407.2,36.4,407.2,36.4L407.2,36.4z M406.2,66c-0.1,0-0.2-5.6-0.2-12.5s0.1-12.5,0.2-12.5
		s0.2,5.6,0.2,12.5S406.4,66,406.2,66z"/>
	<path class="st2" d="M447.5,69.8h-154v8.8h154V69.8z"/>
	<path class="st1" d="M447.5,69.8h-13.4v8.8h13.4V69.8z"/>
	<path class="st4" d="M397.2,212.7c7.4-8.8,11.6-11.2,16.9-17.1c4.5-5,9.1-10.2,11.7-16.4c2.6-6.2,3-13.8-0.7-19.4
		c0,0-11.8-2.4-20.6-2.9c-8.8-0.5-12.9-0.4-12.9-0.4l-4.9,14.7l8.8,3.6l-18,16.3l-14.2,16.5l7.1,20.5l9.6,0.9L397.2,212.7
		L397.2,212.7z"/>
	<path class="st5" d="M409.8,161.2c0.1,0.1-0.9,1-2.3,2.4c-1.9,1.9-3.9,3.8-5.8,5.7c-2.3,2.2-4.3,4.2-5.9,5.6
		c-1.5,1.4-2.6,2.2-2.6,2.1c-0.1-0.1,0.9-1,2.3-2.4c1.6-1.6,3.6-3.5,5.8-5.7c2.3-2.2,4.3-4.2,5.9-5.6
		C408.7,162,409.7,161.1,409.8,161.2z M422.8,165.1c-0.1,0.1-0.5-0.4-1.3-0.9c-0.8-0.5-2.1-1-3.6-0.8c-1.5,0.1-2.7,0.8-3.4,1.5
		c-0.7,0.6-1.1,1.2-1.1,1.1c-0.1,0,0.2-0.7,0.9-1.4c0.7-0.7,2-1.6,3.6-1.7c1.6-0.1,3,0.5,3.9,1.1
		C422.5,164.5,422.9,165.1,422.8,165.1L422.8,165.1z"/>
	<path class="st6" d="M390.8,163.4c3.1-0.9,5-4.8,3.7-7.8c-0.6-1.4-1.7-2.5-2.6-3.7c-0.5-0.7-0.9-1.5-1.2-2.3l-1.4-4.5
		c-1-3.7-1.8-7.5-4.7-9.9c-2.6-2.1-6.3-2.5-9.3-4c-2.2-1.1-4.1-2.8-6.2-4c-2.2-1.2-5-1.8-7.1-0.5c-1.2,0.8-2.1,2.1-3.3,2.8
		c-2.6,1.6-6.2,0.4-8.6,2.3c-1.9,1.5-2.1,4.3-3.5,6.4c-1.5,2.2-2.4,4.2-4.8,5.4c-2.4,1.2-3.7,3.5-3.8,6.1c0,2.3-0.3,3.4-0.4,5.7
		c-0.1,1.7-0.9,3.4-1.6,5c-0.7,1.6-2,7.6-0.6,8.6l15.8,7.1c5,4.9,10.2,9.9,16.7,12.6l1.2,1.7c-1.5,0.2,15.8-1.6,18.7-12
		c0.4-1.4,0.8-2.9,1.8-4s2.1-2.2,2.7-3.6C393.5,168.4,392.9,165.2,390.8,163.4L390.8,163.4z"/>
	<path class="st6" d="M374,180.9c3.3-3.8,6.5-7.7,9.1-12c2.6-4.3,4.4-9.2,4.6-14.2c0-0.8-0.2-6.1-1-6.3c-0.5-0.2-0.9,4.5-1.4,4.8
		c-4.1,3.2-6.8,7.9-8.4,12.9C375.3,171,374.5,175.8,374,180.9L374,180.9z"/>
	<path class="st4" d="M342.7,213.3c7.3,2.8,21.9-9.6,21.9-9.6l17.1-40.3c5.2-11.5,2.8-24.1-8.9-29l-1.1-0.4
		c-11.1-3.9-23.3,1.4-28.1,12.1c-4.4,10-9.2,21.1-11.1,26.6c-3.9,11.5,7,17.3,7,17.3c0,0-1,2.6-2.3,5.9
		C334.4,203.4,339.7,212.3,342.7,213.3z"/>
	<path class="st5" d="M339.7,190.1c0,0,7.1,2.9,16.4,0.8c0,0-6.5,7-17.6,2L339.7,190.1L339.7,190.1z"/>
	<path class="st6" d="M342.4,156.3c0.1,0.3,1.7-0.2,3.4,0.4c1.8,0.6,2.7,1.9,3,1.8c0.1-0.1,0.1-0.5-0.4-1.1
		c-0.4-0.6-1.2-1.3-2.3-1.7c-1.1-0.4-2.2-0.3-2.8-0.1C342.6,155.9,342.3,156.2,342.4,156.3L342.4,156.3z M359.6,161.6
		c0.1,0.3,1.7-0.2,3.4,0.4c1.8,0.6,2.7,2,3,1.8c0.1-0.1,0.1-0.5-0.4-1.1c-0.4-0.6-1.2-1.3-2.3-1.7c-1.1-0.4-2.2-0.3-2.8-0.1
		C359.9,161.1,359.6,161.5,359.6,161.6L359.6,161.6z M350.5,169.8c0-0.1-1-0.7-2.7-1.5c-0.4-0.2-0.8-0.4-0.8-0.8
		c0-0.4,0.4-0.8,0.8-1.2c0.8-0.9,1.6-1.9,2.5-3c3.5-4.2,6.3-7.7,6.1-7.9c-0.2-0.1-3.2,3.2-6.7,7.4c-0.9,1-1.7,2-2.5,3
		c-0.3,0.5-0.8,0.9-0.9,1.7c0,0.4,0.3,0.7,0.5,0.9c0.3,0.2,0.5,0.3,0.7,0.4C349.3,169.5,350.4,169.9,350.5,169.8L350.5,169.8z
		 M355.2,172.8c-0.3-0.1-1,1.8-3.1,2.6c-2.1,0.8-4.1-0.1-4.2,0.1c-0.1,0.1,0.3,0.5,1.2,0.9c0.8,0.3,2.2,0.5,3.4,0
		c1.3-0.5,2.1-1.4,2.4-2.2C355.4,173.4,355.4,172.9,355.2,172.8L355.2,172.8z M364.1,151.4c0,0.5,1.8,0.9,3.8,1.9
		c2,0.9,3.4,2.1,3.9,1.8c0.2-0.2,0.1-0.7-0.5-1.4c-0.5-0.7-1.4-1.5-2.6-2.1c-1.2-0.6-2.4-0.8-3.2-0.7
		C364.6,150.9,364.1,151.2,364.1,151.4L364.1,151.4z M347.3,146.2c0.2,0.5,1.5,0.5,3,1c1.5,0.4,2.6,1.2,3,0.9
		c0.2-0.2,0.1-0.6-0.3-1.2c-0.4-0.6-1.2-1.2-2.2-1.5c-1-0.3-2-0.3-2.7,0C347.6,145.6,347.2,145.9,347.3,146.2L347.3,146.2z"/>
	<path class="st4" d="M377.9,171.5c0.2,0,8.7,0.4,5.7,8.1s-10.1,3.1-10,2.9C373.6,182.3,377.9,171.5,377.9,171.5L377.9,171.5z"/>
	<path class="st5" d="M377,180.6c0,0,0.1,0.1,0.3,0.3c0.2,0.2,0.5,0.4,1,0.4c0.9,0,2.1-1,2.7-2.4c0.3-0.7,0.4-1.4,0.4-2.1
		c0-0.7-0.2-1.2-0.6-1.4c-0.3-0.2-0.7-0.2-0.9,0.1c-0.2,0.2-0.2,0.3-0.2,0.3c0,0-0.1-0.2,0.1-0.5c0.1-0.2,0.3-0.3,0.5-0.4
		c0.2-0.1,0.5-0.1,0.8,0.1c0.6,0.3,0.9,1,0.9,1.7c0.1,0.8-0.1,1.6-0.4,2.3c-0.7,1.5-2,2.7-3.3,2.6c-0.6-0.1-1-0.4-1.2-0.7
		C377,180.8,377,180.6,377,180.6L377,180.6z"/>
	<path class="st6" d="M353.8,135.4c-1-1.2,4.4-3.7,8-3.9c5.5-0.3,13,1.2,16.8,4.1c4.6,3.5,7.8,7.7,8.5,13.4
		c0.7,5.7-0.5,11.5-2.7,16.8c-0.7,1.6-1.5,3.2-3,4.3c-1.8,1.3-4.2,1.5-5.1,3.9c-0.3,0.9-0.9,1.6-1.7,2c-2,0.9-3.2-1.2-3.4-2.9
		c-0.5-3.7,0.7-7.4,2-10.9c0.9-2.5,1.8-5.1,3.4-7.1c0.9-1.1,2-2.1,2.8-3.3c0.8-1.2,1.4-2.7,1-4.1c-0.1-0.2-0.2-0.5-0.4-0.9
		c-1.4-2.8-4.2-4.6-7.4-4.7c-4.9-0.2-13.3-0.8-14.6-3.1c-1.9-3.2-2.1-4.9-2.1-4.9L353.8,135.4L353.8,135.4z"/>
	<path class="st6" d="M378.6,134.4c-3.7-3.1-8.5-4.9-13.3-4.4c-2.5,0.3-5.1,1.2-6.7,3.3c-1.5,2-1.7,5.2,0.2,7l0.1,0.2
		c2.8,2.4,5.2,2.8,8.9,3c3.1,0.1,6.3-0.6,9.4-0.4c3.4,0.2,6.6,1.3,9.3,3.4C384.9,141.8,382.3,137.5,378.6,134.4L378.6,134.4z"/>
	<path class="st7" d="M389.7,151c0.1,0-0.4,0.8-1.5,1.9c-1,1.1-2.7,2.4-4.8,3.5c-2.1,1-4.2,1.5-5.7,1.6c-1.5,0.1-2.4,0-2.4,0
		c0-0.2,3.8-0.1,7.9-2.1C387.3,154,389.6,150.9,389.7,151L389.7,151z M392.3,153.5c0,0-0.1,0.3-0.3,0.9c-0.3,0.5-0.7,1.3-1.3,2.2
		c-1.2,1.8-3.4,4-6.4,5.5c-3,1.5-6.1,1.9-8.2,1.8c-0.9,0-1.7-0.1-2.6-0.3c-0.6-0.1-0.9-0.2-0.9-0.3c0-0.1,1.3,0.2,3.5,0.2
		c2.1,0,5.1-0.5,8-1.9c2.9-1.4,5-3.6,6.3-5.2C391.7,154.7,392.2,153.5,392.3,153.5L392.3,153.5z"/>
	<path class="st4" d="M290.4,238.9l-37.2-38.8l-8,12.6l9.9,18.8c0,0,10.8,17.6,16.3,23.8c5.5,6.2,5.9,4.9,5.9,4.9L290.4,238.9
		L290.4,238.9z"/>
	<path class="st4" d="M239.5,188.9c-0.1-0.1-6.6-1-9.2-1.4c-0.7-0.1-1.4,0.1-1.9,0.4l-3.9,2.6l-3.2,6.8l1,0.6l-1,6.1
		c0,0,1.5,1.7,3.1-0.2c1.6-1.9,2.8-4.6,2.8-4.6l4.2-0.1l-0.2,0.4l-4.3,1.1l-1.4,3.7l1.3,3.8l2.9,2.7l1.3-0.1l2.4,1.4
		c0,0,2.4-2.1,0.4-4.1c0,0,2,1.9,3,1.2l8.8,4l6.9-6.7l1.9-5.3c0,0-11.1-10.8-11.7-11.4C241.9,189.3,239.5,188.9,239.5,188.9
		L239.5,188.9z"/>
	<path class="st5" d="M233.7,207.9c-0.1,0,0-0.5-0.1-1.3c-0.1-0.8-0.5-1.9-1.5-2.6c-0.1,0-0.1-0.1-0.2-0.1l-0.2-0.1l0.1-0.2
		c0.3-1,0.3-2,0.1-3c-0.2-0.8-0.4-1.2-0.3-1.2c0.1,0,0.4,0.3,0.7,1.1c0.3,0.8,0.4,2,0.1,3.2l-0.1-0.3c0.1,0,0.1,0.1,0.2,0.1
		c1.1,0.9,1.5,2.2,1.5,3C234,207.4,233.7,207.9,233.7,207.9L233.7,207.9z M230.5,210.7c-0.1-0.1,0.5-0.4,0.8-1.3
		c0.3-0.9,0-2.2-0.9-3.3c-0.2-0.3-0.5-0.6-0.7-0.9l-0.1-0.1l0.1-0.1c0.4-1,0-2.1-0.5-2.6c-0.5-0.5-0.9-0.7-0.9-0.8
		c0-0.1,0.5,0,1.1,0.5c0.6,0.5,1.2,1.7,0.7,3l0-0.3c0.2,0.3,0.5,0.6,0.8,0.9c0.5,0.6,0.8,1.3,1,2c0.2,0.7,0.1,1.3-0.1,1.8
		C231.3,210.6,230.5,210.8,230.5,210.7L230.5,210.7z"/>
	<path class="st5" d="M231.8,203.7c0.1,0.1-0.3,0.5-0.9,0.9c-0.6,0.3-1.1,0.5-1.2,0.4c-0.1-0.1,0.3-0.5,0.9-0.9
		C231.2,203.8,231.7,203.6,231.8,203.7z M233.2,208.5c-0.2,0-0.4-0.8-1-1.5c-0.6-0.8-1.3-1.1-1.3-1.3c0-0.1,1,0.1,1.7,0.9
		C233.3,207.6,233.3,208.5,233.2,208.5z M235.9,208.6c-0.2-0.1,0.7-2,1-4.6c0.3-2.6,0-4.7,0.1-4.7c0.1,0,0.7,2.1,0.4,4.8
		C237.1,206.7,236,208.6,235.9,208.6L235.9,208.6z M226.9,193.5c0.1,0,0,0.4-0.2,1c-0.2,0.6-0.6,1.4-1.2,2.2
		c-0.7,0.8-1.5,1.2-2.2,1.2c-0.7,0.1-1.1-0.1-1-0.2c0-0.1,0.4,0,1-0.2c0.6-0.2,1.3-0.6,1.9-1.2c0.6-0.7,1-1.4,1.3-2
		C226.7,193.8,226.9,193.5,226.9,193.5L226.9,193.5z M231.6,198.4c-0.1-0.1,0.1-0.4,0.4-0.8c0.2-0.4,0.4-0.7,0.6-0.7
		c0.1,0,0.2,0.5-0.1,1C232.1,198.3,231.6,198.5,231.6,198.4L231.6,198.4z"/>
	<path class="st7" d="M204.4,187.5l0.1,15.9c0,5.3,21.5,5.2,21.3-0.1c0-0.3-0.1-15.9-0.1-15.9L204.4,187.5z"/>
	<path class="st7" d="M225.1,190.1c1.3-0.2,2.6-0.2,3.8,0c0.9,0.2,1.9,0.5,2.4,1.2c0.4,0.6,0.5,1.3,0.6,2.1c0.1,1.4,0.2,2.9-0.4,4.1
		c-0.5,1.2-1.6,2.1-2.8,2.6c-1.2,0.5-2.5,0.6-3.8,0.5c0-0.8,0-1.6,0-2.4c0.8,0,1.5,0,2.3-0.1c0.7-0.2,1.5-0.5,2-1.1
		c0.8-0.9,0.9-2.3,0.8-3.6c0-0.5-0.1-1-0.4-1.4c-0.4-0.5-1.2-0.7-1.8-0.7c-0.9,0-1.8,0.2-2.6,0.5"/>
	<path class="st6" d="M217.8,155c0,0-0.1,0.1-0.5,0.2c-0.3,0-0.9-0.1-1.3-0.6c-0.2-0.3-0.4-0.6-0.4-1c-0.1-0.4,0.1-0.9,0.4-1.2
		c0.6-0.7,1.9-0.8,2.9-0.3c1,0.6,1.5,2,1.3,3.3c-0.2,1.3-1,2.5-1.9,3.6c-0.9,1.1-1.9,2.2-2.4,3.6c-0.5,1.4-0.3,3,0.8,4.2
		c1,1.2,2.5,2,3.6,3.1c0.6,0.6,1,1.3,1.1,2.1c0.2,0.8,0,1.6-0.4,2.3c-0.7,1.3-1.9,2.2-2.9,2.9c-1,0.7-2,1.4-2.6,2.2
		c-1.3,1.6-1.7,3.4-1.7,4.6c0,1.2,0.2,1.8,0.1,1.8c0,0-0.1-0.1-0.2-0.5c-0.1-0.3-0.2-0.8-0.2-1.4c0-1.7,0.6-3.4,1.6-4.8
		c0.7-0.9,1.7-1.6,2.7-2.3c1-0.7,2.1-1.5,2.7-2.8c0.3-0.6,0.5-1.3,0.3-1.9c-0.1-0.7-0.5-1.3-1-1.8c-1-1.1-2.5-1.9-3.6-3.1
		c-1.2-1.3-1.5-3.2-0.9-4.7c0.6-1.5,1.7-2.6,2.5-3.7c0.9-1.1,1.7-2.2,1.8-3.4c0.2-1.2-0.2-2.4-1-2.9c-0.8-0.5-1.9-0.4-2.5,0.1
		c-0.6,0.6-0.3,1.4,0,1.8c0.3,0.5,0.8,0.6,1.1,0.6C217.6,155.1,217.7,155,217.8,155L217.8,155z"/>
	<path class="st4" d="M226.7,191.5l8.4-0.4l9.5,2.7l11.9,10.2c0,0-9.1,6.7-12,3.8c-3-2.9-6.4-9.5-6.4-9.5l-3.4-1.4
		C234.7,196.9,223.6,196.9,226.7,191.5L226.7,191.5z"/>
	<path class="st5" d="M251,199.3c0,0-0.2-0.1-0.5-0.3c-0.3-0.3-0.8-0.6-1.3-1.1c-1.2-1-2.8-2.3-4.7-3.9l0.1,0
		c-2.7-0.7-6-1.6-9.6-2.6l0.1,0c-2.6,0.1-5.4,0.3-8.4,0.4l0.2-0.1l-0.1,0.1c-0.5,0.9-0.6,1.9,0,2.6c0.6,0.7,1.5,1.1,2.4,1.4
		c1.8,0.6,3.7,0.7,5.5,0.8h0.1l0,0c1.2,0.5,2.3,1,3.4,1.4l0.1,0l0,0.1c1.6,3.1,3.1,5.5,4.3,7.1c0.6,0.8,1.1,1.4,1.4,1.8
		c0.3,0.4,0.5,0.6,0.5,0.6s-0.2-0.2-0.6-0.5c-0.5-0.6-1-1.2-1.5-1.8c-1.2-1.6-2.8-4-4.5-7l0.1,0.1c-1.1-0.4-2.2-0.9-3.4-1.4l0.1,0
		c-1.8,0-3.7-0.2-5.6-0.8c-0.9-0.3-2-0.7-2.7-1.6c-0.4-0.5-0.6-1-0.5-1.6c0-0.6,0.2-1.1,0.5-1.6c0-0.1,0.1-0.1,0.1-0.1l0.1-0.1
		l0.2,0c3-0.1,5.8-0.3,8.4-0.4h0l0,0c3.6,1,6.8,2,9.5,2.8l0,0l0,0l4.6,4.1c0.5,0.5,0.9,0.8,1.2,1.1C250.9,199.1,251,199.3,251,199.3
		L251,199.3z"/>
	<path class="st6" d="M225.5,203.9c0,0-0.2,0.2-0.7,0.5c-0.3,0.2-0.6,0.3-0.9,0.5c-0.4,0.2-0.8,0.3-1.2,0.5
		c-1.9,0.7-4.6,1.3-7.6,1.2c-3,0-5.7-0.7-7.6-1.3c-0.9-0.3-1.7-0.7-2.2-0.9c-0.5-0.3-0.8-0.4-0.7-0.5c0-0.1,1.1,0.4,3,1
		c2.4,0.7,5,1.1,7.5,1.1c3,0,5.6-0.5,7.5-1C224.4,204.4,225.5,203.8,225.5,203.9L225.5,203.9z M225.7,203.7c-0.1,0-0.3-3.7-0.3-8.2
		c0-4.5,0.1-8.2,0.2-8.2s0.3,3.7,0.3,8.2C226,200.1,225.9,203.7,225.7,203.7L225.7,203.7z M215.2,186.3c0,0-0.1-0.1-0.2-0.3
		c-0.1-0.3-0.2-0.6-0.3-0.9c-0.2-0.8,0-2,0.6-3.3c0.6-1.3,1.9-2.5,3.3-3.6c1.4-1.2,3-2.5,3.7-4.4c0.4-0.9,0.4-2,0.1-2.8
		c-0.3-0.9-0.9-1.6-1.6-2.2c-1.3-1.2-2.7-2.3-3.3-3.7c-0.6-1.3-0.3-2.6,0.1-3.3c0.2-0.3,0.5-0.5,0.7-0.6c0.2-0.1,0.3-0.1,0.3-0.1
		c0,0.1-0.4,0.2-0.8,0.9c-0.4,0.6-0.6,1.8,0,3c0.6,1.2,1.9,2.2,3.3,3.5c0.7,0.7,1.4,1.4,1.7,2.4c0.4,1,0.3,2.2-0.1,3.2
		c-0.8,2.1-2.5,3.5-3.9,4.6c-1.4,1.1-2.7,2.2-3.3,3.4c-0.7,1.2-0.8,2.3-0.8,3.1C215,185.9,215.2,186.3,215.2,186.3L215.2,186.3z"/>
	<path class="st8" d="M77,197.2l-20.5-15.5c0,0,8.9-26,5.3-29.2l-31.4,38.6l30.9,25.4L77,197.2L77,197.2z"/>
	<path class="st9" d="M77,197.2l-20.5-15.5c0,0,8.9-26,5.3-29.2l-31.4,38.6l30.9,25.4L77,197.2L77,197.2z"/>
	<path class="st1" d="M48.5,195c-0.8,0.6-2.1,0.4-2.7-0.4c-0.6-0.8-0.5-2.1,0.3-2.7c0.8-0.6,2.3-0.4,2.8,0.4
		c0.5,0.9,0.3,2.4-0.7,2.7"/>
	<path class="st10" d="M30.5,191.1l3.2,2.4l28.9-37.9c0,0,0.7-2.3-0.7-3.1L30.5,191.1z"/>
	<path class="st6" d="M57.3,181.2c-0.2-0.1-1.1,0.7-2.4,1.2c-1.4,0.5-2.6,0.3-2.6,0.5c-0.1,0.2,1.2,0.8,2.9,0.3
		C56.8,182.7,57.5,181.3,57.3,181.2L57.3,181.2z M58.9,175.8c-0.1-0.2-1.1,0.4-2.4,0.4c-1.3,0-2.3-0.5-2.5-0.3
		c-0.2,0.2,0.8,1.2,2.5,1.2C58.1,177,59.1,176,58.9,175.8z M55.9,169.6c-0.2,0.1,0.5,1.2,2,1.5c1.4,0.4,2.6-0.2,2.5-0.4
		c-0.1-0.2-1.1-0.1-2.3-0.4C56.9,170,56.1,169.4,55.9,169.6z M61.5,185.3c-0.2-0.1-0.7,1-1.6,2c-0.9,1-2,1.6-1.9,1.8
		c0.1,0.2,1.4,0,2.5-1.2C61.6,186.7,61.8,185.3,61.5,185.3z"/>
	<path class="st8" d="M87.1,182.2l-18.4-17.9c0,0,12-24.7,8.9-28.3l-35.9,34.4l27.5,29L87.1,182.2L87.1,182.2z"/>
	<path class="st1" d="M59,176.5c-0.9,0.5-2.1,0.2-2.6-0.7c-0.5-0.9-0.2-2.1,0.7-2.6c0.9-0.5,2.4-0.1,2.8,0.8c0.4,0.9,0,2.4-1,2.6"/>
	<path class="st10" d="M41.6,170.4l2.9,2.8l33.4-34.1c0,0,0.9-2.2-0.3-3.2L41.6,170.4L41.6,170.4z"/>
	<path class="st6" d="M69.4,163.9c-0.2-0.2-1.1,0.6-2.5,0.9c-1.4,0.3-2.6,0-2.7,0.2c-0.1,0.2,1.1,1,2.8,0.6
		C68.7,165.3,69.6,164.1,69.4,163.9z M71.7,158.8c-0.1-0.2-1.2,0.2-2.5,0.1c-1.3-0.1-2.2-0.8-2.4-0.6c-0.2,0.1,0.7,1.3,2.3,1.5
		C70.7,159.8,71.8,158.9,71.7,158.8z M69.5,152.2c-0.2,0.1,0.4,1.2,1.8,1.8c1.4,0.5,2.6,0.1,2.5-0.1c0-0.2-1.1-0.2-2.2-0.7
		C70.5,152.7,69.7,152.1,69.5,152.2L69.5,152.2z M73.2,168.5c-0.2-0.1-0.8,0.9-1.9,1.8c-1,0.9-2.1,1.3-2.1,1.6
		c0,0.2,1.4,0.1,2.6-0.9C73.1,169.9,73.4,168.5,73.2,168.5z M79,173.1c0,0,55.2,43.6,65.6,44.9l11.8,1.9l23.6,10.2l73,38.4l22.9,16
		l11.7,22.2l1,13.3c0,0-52.8,6.4-60.6,1.7c-7.8-4.7-74.4-54.5-77.8-58.4C146.8,259.5,84,233.1,59,190L79,173.1L79,173.1z"/>
	<path class="st6" d="M50.6,214.9c0,0,40.1,37.2,68.1,48c28.1,10.8,50.5,24.6,50.5,24.6l47.1,25.6l60.5-27.3l-11.9-21.4l-98.2-23.1
		l-99.7-50.5C66.9,190.8,51,207.2,50.6,214.9z"/>
	<path class="st6" d="M249.6,297.2c4.5-8.2,14-13.4,23.4-12.6L249.6,297.2z M255,275.4c1.7,5.2-0.1,11.4-4.4,14.8L255,275.4z"/>
	<path class="st7" d="M220.3,250.7c0,0,0.4,0.1,1.1,0.5c0.7,0.3,1.7,0.9,3,1.5c2.5,1.3,5.8,3.2,9.5,5.4c3.6,2.2,6.9,4.4,9.2,6
		c1.1,0.8,2.1,1.5,2.7,1.9c0.6,0.5,1,0.7,0.9,0.8c0,0-0.4-0.2-1.1-0.6c-0.8-0.5-1.7-1.1-2.8-1.8c-3.1-2-6.1-3.9-9.2-5.8
		c-3.1-1.9-6.2-3.8-9.4-5.6c-1.1-0.7-2.1-1.2-2.9-1.7C220.6,251,220.2,250.8,220.3,250.7L220.3,250.7z M230.8,320.5
		c0,0-0.2-0.1-0.5-0.3l-1.4-0.9c-1.2-0.8-3-2-5.2-3.6c-4.5-3.2-11-7.7-19.1-13.3c-8-5.6-17.6-12.3-28.2-19.8
		c-5.3-3.7-10.9-7.6-16.7-11.7c-2.9-2.1-5.9-4.1-8.8-6.2c-3-2.2-6.1-4.2-9.2-6.2c-6.4-4-12.7-7.6-18.7-11.4
		c-6-3.8-11.6-7.7-16.9-11.4c-5.3-3.8-10.3-7.3-15-10.8c-4.6-3.5-8.8-6.9-12.3-10.3c-7.2-6.7-12.1-13-15.3-17.5
		c-0.8-1.1-1.5-2.1-2.1-3c-0.5-0.7-1-1.5-1.5-2.2c-0.4-0.6-0.7-1.1-0.9-1.4c-0.2-0.3-0.3-0.5-0.3-0.5s0.1,0.1,0.3,0.5
		c0.2,0.3,0.5,0.8,0.9,1.4c0.4,0.6,0.9,1.3,1.5,2.2c0.7,1,1.4,2,2.1,3c3.2,4.4,8.2,10.7,15.4,17.3c3.6,3.3,7.7,6.8,12.3,10.2
		c4.6,3.4,9.7,7,15,10.7c5.3,3.7,10.9,7.6,16.9,11.4c5.9,3.8,12.3,7.4,18.7,11.4c3.1,2,6.2,4,9.2,6.2c3,2.1,5.9,4.2,8.8,6.2
		c5.8,4.1,11.3,8,16.7,11.7c10.6,7.5,20.1,14.2,28.2,19.9c8,5.7,14.5,10.3,19,13.5c2.2,1.6,3.9,2.8,5.1,3.7c0.6,0.4,1,0.7,1.3,1
		C230.7,320.4,230.8,320.5,230.8,320.5L230.8,320.5z"/>
	<path class="st8" d="M337.1,196c0,0-19.2,10.4-22.8,14.7c-3.3,4-40.6,41.3-40.6,41.3s-24.1,7.2-23.1,9.2
		c1.7,3.7,8.5,10.2,12.1,13.6c1.6,1.5,3,3.1,4.3,4.9c4.7,6.4,9.3,12.8,13.9,19.3c6.9,9.7,7.7,21.1,7.7,21.1l17-9.3
		c8.7-3.5,13.4-13,22.9-17.9l28.6-30.8l8.7-17.8l2.9-43.8l-4.1,0.3l-16,2.1C348.6,202.8,334.7,201.4,337.1,196L337.1,196z"/>
	<path class="st8" d="M352.5,207.6l13.2-5.8c0,0,5.5-5.4,10.5-9c0,0-16.4,20.4-2,27.2s26-11.2,26-11.2s-2.9,4.4-4.6,7.9
		c-1.7,3.5-10.2,14.6-10.2,14.6s-0.2,5.5-5.2,11.1s-10.4,14.9-14.8,17.3c-4.4,2.4-14.2,6.8-14.2,6.8s-3.2-15.4-1.8-32.2
		C350.9,217.5,352.5,207.6,352.5,207.6L352.5,207.6z"/>
	<path class="st6" d="M372.9,224c0,0-0.4-0.3-1.1-0.8c-1-0.8-1.9-1.7-2.7-2.6c-1-1.2-2.1-2.9-2.5-5s-0.1-4.5,0.4-6.8
		c1.1-4.8,3.4-8.6,5.1-11.3c0.7-1,1.4-2.1,2.2-3c0.5-0.7,0.9-1.1,0.9-1c0,0-0.2,0.4-0.7,1.2c-0.5,0.7-1.2,1.8-2,3.1
		c-1.6,2.7-3.8,6.5-4.9,11.2c-0.5,2.3-0.8,4.6-0.4,6.6c0.3,2,1.3,3.7,2.3,4.9C371.4,222.8,373,223.9,372.9,224L372.9,224z"/>
	<path class="st6" d="M371,239.9c0,0-0.2,0.1-0.5,0.2c-0.3,0.1-0.8,0.4-1.5,0.6c-1.3,0.4-3.3,1.1-5.8,1.1c-1.3,0-2.7-0.2-4-0.9
		c-1.3-0.7-2.5-1.9-3.3-3.5c-1.5-3.1-1.6-6.9-1.3-10.7c0.4-3.8,1.1-7.4,2.2-10.6c1.2-3.1,2.8-5.7,4.2-7.8c1.4-2.1,2.9-4.1,4.6-6
		c0.2-0.3,0.4-0.4,0.4-0.4c0,0-0.1,0.2-0.3,0.5c-0.3,0.3-0.6,0.8-0.9,1.3c-0.8,1.1-2,2.8-3.4,4.8c-1.3,2.1-2.9,4.7-4,7.7
		c-1.1,3.1-1.8,6.7-2.2,10.4c-0.3,3.7-0.1,7.5,1.2,10.4c0.7,1.5,1.8,2.6,3,3.3c1.2,0.7,2.6,0.9,3.8,0.9c2.5,0,4.4-0.6,5.8-0.9
		c0.6-0.2,1.1-0.4,1.5-0.5C370.8,240,371,239.9,371,239.9L371,239.9z M365.6,201.2c0.1,0.1-0.9,0.7-2.3,1.9
		c-1.9,1.5-3.6,3.2-5.2,4.9c-1.6,1.8-3,3.7-4.3,5.7c-1,1.6-1.5,2.6-1.6,2.5c-0.1,0,0.4-1.1,1.3-2.7c0.9-1.6,2.3-3.8,4.2-5.9
		c1.9-2.1,3.9-3.8,5.4-4.9C364.6,201.7,365.6,201.2,365.6,201.2L365.6,201.2z"/>
	<path class="st9" d="M366.5,201.2c-8.4,7.9-13.9,20.4-14.3,31.9c0,1,0.3,2.4,1.3,2.5c0.6,0,1.2-0.6,1.3-1.2
		c0.1-0.6-0.1-1.3-0.2-1.9c-0.4-5,0.7-11,2.5-16.4C358.9,210.8,363.1,205.7,366.5,201.2L366.5,201.2z M373.9,194.6
		c-3.6,4-6.9,8.3-8.7,13.4c-1.8,5-1.9,10.9,0.9,15.5c0.8,1.3,2.3,2.6,3.6,1.8c0.9-0.5,1.1-1.8,0.7-2.7c-0.3-1-1-1.7-1.6-2.6
		c-2.5-3.6-2.6-8.5-1.3-12.7c1.3-4.2,3.8-7.9,6.3-11.5 M260.8,273.1c6.2,3.7,12.9,6.7,20.1,7.9c6,0.9,12.2-0.1,18.3-1.1
		c15.8-2.5,31.8-4.8,47.7-6.8h-43.1C288.9,273.1,275.1,273,260.8,273.1z"/>
	<path class="st6" d="M318.1,320c0,0,0.3-0.1,0.9-0.3c0.6-0.1,1.5-0.2,2.6-0.1c2.2,0.2,5.2,1.3,7.7,3.6c1.2,1.2,2.2,2.5,2.8,3.8
		c0.6,1.2,0.9,2.5,1,3.8c0,1.1-0.1,2-0.3,2.6c-0.2,0.6-0.3,0.9-0.3,0.9c-0.1,0,0.4-1.3,0.2-3.5c-0.1-1.2-0.4-2.5-1-3.6
		c-0.6-1.3-1.6-2.5-2.8-3.6c-2.3-2.3-5.2-3.4-7.3-3.6C319.4,319.8,318.1,320.2,318.1,320L318.1,320z"/>
	<path class="st7" d="M321.9,343.6H222c-6,0-10.8-4.9-10.8-10.8v-1.8c0-6,4.9-10.8,10.8-10.8h99.9c6,0,10.8,4.9,10.8,10.8v1.8
		C332.7,338.7,327.9,343.6,321.9,343.6z"/>
	<path class="st7" d="M314.8,341.1l1.2,0.8c4,2.6,9.3,1.5,11.9-2.4L399.2,232c2.6-4,1.5-9.3-2.4-11.9l-1.2-0.8
		c-4-2.6-9.3-1.5-11.9,2.4l-71.3,107.5C309.8,333.1,310.8,338.5,314.8,341.1L314.8,341.1z"/>
	<path class="st6" d="M261.1,295.7c0.2,0,7.4,7,9,11.7c1.7,4.7,3.9,16.3,4.9,20.7c1.4,6,3.6,11.8,11.8,12.2l31.1,0.1
		c1.9,0,3.7-1,4.7-2.6l27.2-42.1h-8.5l-23.8,35.4h-27c-1.9,0-3.7-0.8-4.9-2.3c-0.4-0.5-0.7-1-0.8-1.6c-0.6-2.4-2.7-15.1-5.3-20.5
		c-2.6-5.5-6.2-11-6.2-11L261.1,295.7L261.1,295.7L261.1,295.7z"/>
	<path class="st7" d="M289.5,335.7c0,1.1-0.9,1.9-1.9,1.9c-1.1,0-1.9-0.9-1.9-1.9c0-1.1,0.9-1.9,1.9-1.9
		C288.7,333.8,289.5,334.7,289.5,335.7z M319.6,335.7c0,1.1-0.9,1.9-1.9,1.9c-1.1,0-1.9-0.9-1.9-1.9s0.9-1.9,1.9-1.9
		C318.8,333.8,319.6,334.7,319.6,335.7z"/>
	<path class="st6" d="M355.6,295.7H254.1c-1.5,0-2.7-1.2-2.7-2.7v-0.5c0-1.5,1.2-2.7,2.7-2.7h101.5c1.5,0,2.7,1.2,2.7,2.7v0.5
		C358.3,294.5,357.1,295.7,355.6,295.7C355.6,295.7,355.6,295.7,355.6,295.7z"/>
	<path class="st7" d="M295.8,289.9c0,0-0.1,0-0.3,0c-0.2,0-0.5,0-0.8,0c-0.7,0-1.7,0-3,0.1c-2.7,0-6.6,0.1-11.4,0.1
		c-4.9,0-10.7,0.1-17.3,0.1c-1.6,0-3.4,0-5.1,0c-1.7,0-3.6-0.4-5.1,0.5c-0.7,0.4-1.2,1.3-0.9,2.1c0.1,0.9,0.9,1.5,1.7,1.8
		c1.7,0.7,3.7,0.8,5.6,0.7h0c6.5,0,13.4,0,20.6,0l53.2,0.1c6.8,0,12.3,0.1,16.1,0.1c1.9,0,3.4,0,4.4,0.1c0.5,0,0.9,0,1.1,0
		c0.3,0,0.4,0,0.4,0c0,0-0.1,0-0.4,0c-0.3,0-0.7,0-1.1,0c-1,0-2.5,0-4.4,0.1c-3.8,0-9.3,0.1-16.1,0.1c-13.6,0-32.5,0.1-53.2,0.1
		c-7.2,0-14.2,0-20.6,0h0c-2,0.1-4,0-5.8-0.8c-0.9-0.4-1.8-1.1-2-2.2c0-0.3-0.1-0.5-0.1-0.8c0-0.3,0.1-0.5,0.2-0.7
		c0.2-0.5,0.6-0.8,1-1.1c0.9-0.5,1.8-0.7,2.7-0.7c0.9,0,1.8,0.1,2.7,0.1l5.1,0.1c6.6,0,12.4,0,17.3,0c4.8,0,8.7,0,11.4,0
		c1.3,0,2.3,0,3,0c0.3,0,0.6,0,0.8,0C295.7,289.9,295.8,289.9,295.8,289.9L295.8,289.9z"/>
	<path class="st7" d="M273.7,321.9c0,0-0.2-0.4-0.4-1.1c-0.2-0.8-0.5-1.9-0.8-3.1c-0.7-2.6-1.5-6.2-2.9-9.9
		c-0.7-1.8-1.5-3.5-2.4-5.1c-0.9-1.5-1.8-2.8-2.7-3.8c-1.7-2-3-3-2.9-3.1c0,0,0.4,0.2,0.9,0.7c0.6,0.5,1.4,1.2,2.3,2.2
		c0.9,1,1.9,2.3,2.8,3.8c0.9,1.5,1.8,3.3,2.5,5.2c1.4,3.8,2.2,7.5,2.8,10c0.3,1.3,0.5,2.4,0.6,3.1
		C273.7,321.5,273.8,321.9,273.7,321.9L273.7,321.9z"/>
	<path class="st6" d="M277.4,343.6h-6.8v85.4h6.8V343.6z"/>
	<path class="st6" d="M276,415.2l70.4,13.8v7.4L276,425.8V415.2z"/>
	<path class="st6" d="M340.1,448c3.4,0,6.2-2.8,6.2-6.2c0-3.4-2.8-6.2-6.2-6.2c0,0,0,0,0,0c-3.4,0-6.2,2.8-6.2,6.2
		C333.9,445.2,336.7,448,340.1,448z M274.2,415.2l-56.9,13.9v7.4l56.9-11.3V415.2z"/>
	<path class="st6" d="M223.5,448c3.4,0,6.2-2.8,6.2-6.2s-2.8-6.2-6.2-6.2c0,0,0,0,0,0c-3.4,0-6.2,2.8-6.2,6.2
		C217.2,445.2,220,448,223.5,448z M274,448c3.4,0,6.2-2.8,6.2-6.2s-2.8-6.2-6.2-6.2c-3.4,0-6.2,2.8-6.2,6.3
		C267.8,445.2,270.6,448,274,448z"/>
	<path class="st6" d="M281.1,435.5H267l0.1-53.4h14.1L281.1,435.5z"/>
	<path class="st7" d="M280.7,382.2c0,0.1-3,0.3-6.7,0.3s-6.7-0.1-6.7-0.3s3-0.3,6.7-0.3C277.7,382,280.7,382.1,280.7,382.2z
		 M280.3,426.5c0,0.1-3,0.3-6.7,0.3s-6.7-0.1-6.7-0.3s3-0.3,6.7-0.3C277.3,426.2,280.3,426.3,280.3,426.5z M371.1,258.4H36.6v14.6
		h334.5V258.4z"/>
	<path class="st6" d="M107.5,258.6c0,0,0,0.1-0.1,0.2c-0.1,0.1-0.2,0.3-0.3,0.4c-0.5,0.5-1.1,1-1.7,1.3c-0.8,0.5-1.9,0.9-3.2,1.1
		c-1.3,0.2-2.8,0.3-4.5,0.2c-1.7-0.1-3.5-0.3-5.4-0.6c-1.9-0.3-4-0.7-6.2-0.7c-4.4-0.2-9.1,1-13.9,2.7c-4.8,1.7-9.2,3.6-13.5,4.8
		c-2.1,0.6-4.2,1-6.2,1.2c-1.8,0.2-3.7,0.2-5.5,0c-3.3-0.4-5.9-1.4-7.5-2.4c-1.6-1-2.3-1.7-2.3-1.7c0,0,0.1,0,0.2,0.1
		c0.1,0.1,0.3,0.2,0.4,0.3c0.4,0.3,1,0.7,1.8,1.2c1.6,0.9,4.1,1.9,7.5,2.2c1.6,0.2,3.5,0.2,5.4,0c1.9-0.2,4-0.6,6.1-1.2
		c4.2-1.2,8.7-3.1,13.5-4.9c4.8-1.7,9.6-2.9,14.1-2.7c2.2,0.1,4.3,0.5,6.2,0.8c1.9,0.3,3.7,0.6,5.4,0.7c1.7,0.1,3.2,0.1,4.5-0.1
		c1.1-0.1,2.2-0.5,3.2-1C106.9,259.5,107.4,258.6,107.5,258.6L107.5,258.6z"/>
	<path class="st6" d="M70.9,258.9c0,0-0.3,0.3-1,0.9c-0.7,0.5-1.7,1.2-3.1,2c-1.6,0.8-3.3,1.5-5,2c-2.1,0.6-4.3,0.9-6.5,1
		c-4.7,0.2-8.9-1-11.7-2.4c-1.4-0.7-2.3-1.6-2.8-2.3c-0.2-0.3-0.3-0.6-0.5-0.9c-0.1-0.2-0.1-0.3-0.1-0.3c0,0,0.2,0.5,0.7,1.1
		c0.5,0.7,1.5,1.5,2.8,2.1c2.7,1.3,6.9,2.4,11.5,2.3c2.2-0.1,4.3-0.4,6.4-1c1.9-0.5,3.6-1.3,5-1.9c1.1-0.5,2.1-1.2,3.1-1.8
		C70.5,259.1,70.9,258.8,70.9,258.9L70.9,258.9z M149.4,268.1c0,0,0.2,0.1,0.5,0.2c0.3,0.1,0.9,0.3,1.5,0.4c1.4,0.2,3.5,0.3,5.8-0.9
		l0,0.2c-2.1-1.6-4.6-2.6-7.3-2.8c-3-0.3-6.5,0.3-9.4,2.5c-0.4,0.3-0.7,0.6-0.7,0.9c-0.1,0.4,0.2,0.7,0.6,0.9
		c0.4,0.2,0.8,0.4,1.3,0.5c0.5,0.1,0.9,0.2,1.4,0.3c1.9,0.4,3.9,0.9,5.9,1.1c2,0.3,4.2,0.5,6.3,0.4c1.6,0,3.3-0.3,4.9-0.7
		c0.5-0.1,1.1-0.3,1.6-0.5c0.8-0.3,1.5-0.8,2-1.5c0.5-0.6,0.7-1.5,0.4-2.2c-0.3-0.8-0.9-1.3-1.6-1.8c-0.7-0.5-1.5-0.8-2.2-1.1
		c-3.1-1.2-6.3-1.7-9.3-1.9c-6.1-0.4-11.6,0.8-15.9,2.5c-4.3,1.6-7.5,3.7-9.5,5.2c-1,0.8-1.8,1.4-2.3,1.9c-0.2,0.2-0.4,0.4-0.6,0.5
		c-0.1,0.1-0.2,0.2-0.2,0.2c0,0,0.1-0.1,0.2-0.2c0.1-0.1,0.3-0.3,0.6-0.5c0.5-0.5,1.3-1.1,2.3-1.9c2-1.6,5.2-3.7,9.5-5.4
		c5.1-2,10.5-2.9,16-2.6c3.1,0.2,6.3,0.7,9.4,1.9c0.8,0.3,1.6,0.6,2.3,1.1c0.7,0.5,1.4,1.1,1.8,2c0.3,0.9,0.1,1.9-0.5,2.6
		c-0.6,0.7-1.4,1.2-2.2,1.6c-0.5,0.2-1.1,0.4-1.6,0.5c-0.5,0.1-1.1,0.3-1.6,0.3c-1.1,0.2-2.2,0.3-3.3,0.3c-2.2,0.1-4.3-0.1-6.4-0.4
		c-2.1-0.3-4-0.7-6-1.2c-0.5-0.1-1-0.2-1.4-0.3c-0.5-0.1-1-0.2-1.4-0.5c-0.2-0.1-0.4-0.3-0.6-0.5c-0.2-0.2-0.3-0.5-0.2-0.8
		c0.1-0.6,0.5-0.9,0.9-1.2c3.1-2.2,6.7-2.8,9.7-2.5c3.1,0.3,5.6,1.5,7.4,3l0.1,0.1l-0.2,0.1c-1.8,1-4,1.2-6,0.8
		C150,268.6,149.4,268.1,149.4,268.1L149.4,268.1z M192.4,259c0,0,0.2,0.2,0.3,0.7c0.2,0.5,0.3,1.3,0.2,2.2
		c-0.1,1.9-1.3,4.4-3.3,6.4c-0.9,1-1.9,1.9-3,2.6c-0.9,0.6-1.9,1.1-2.9,1.4c-0.9,0.3-1.6,0.4-2.1,0.5c-0.5,0.1-0.8,0.1-0.8,0.1
		c0-0.1,1.1-0.2,2.8-0.9c0.9-0.3,1.8-0.8,2.8-1.5c1.1-0.7,2.1-1.6,3-2.6c2-2,3.1-4.3,3.3-6.1C192.9,260.1,192.3,259,192.4,259
		L192.4,259z M252.5,272.3c0,0-0.5-0.6-1.5-1.5c-1.5-1.2-3.3-2.1-5.2-2.4c-1.2-0.2-2.6-0.1-4,0.1c-1.4,0.2-3,0.6-4.7,0.4
		c-1.7-0.2-3.3-1.2-4.7-2.3c-1.4-1.1-2.9-2.2-4.7-2.8c-3.5-1.3-7.3-1-10.4-0.2c-3.1,0.9-5.7,2.4-7.7,3.9c-2,1.5-3.5,2.8-4.5,3.8
		c-0.5,0.5-0.9,0.8-1.1,1.1c-0.3,0.3-0.4,0.4-0.4,0.4c0,0,0.1-0.2,0.3-0.4c1.6-1.9,3.5-3.6,5.5-5.1c2-1.5,4.6-3.1,7.7-4
		c3.2-0.9,7-1.2,10.6,0.1c1.8,0.6,3.4,1.7,4.8,2.8c1.4,1.1,2.8,2.1,4.4,2.2c1.6,0.2,3.1-0.2,4.6-0.4c1.4-0.2,2.8-0.3,4.1-0.1
		c2,0.3,3.8,1.2,5.3,2.5C252.1,271.6,252.5,272.3,252.5,272.3L252.5,272.3z M306.1,258.6c0,0-0.1,0.2-0.4,0.5
		c-0.3,0.3-0.6,0.8-1.1,1.4c-1,1.2-2.7,2.7-4.9,4.3s-5.1,3.3-8.5,4.7c-1.7,0.7-3.5,1.3-5.5,1.7c-1.9,0.4-4,0.8-6.1,0.8
		c-4.3,0-8.2-1-11.6-2.4c-3.4-1.4-6.2-3.1-8.4-4.8s-3.8-3.2-4.9-4.4c-0.5-0.6-0.9-1-1.1-1.4c-0.3-0.3-0.4-0.5-0.4-0.5
		c0,0,0.2,0.1,0.4,0.4c0.3,0.3,0.6,0.8,1.2,1.3c1,1.1,2.7,2.6,4.9,4.3c2.2,1.6,5,3.3,8.4,4.7c3.4,1.4,7.3,2.4,11.4,2.4
		c2.1,0,4.1-0.3,6-0.8c1.8-0.4,3.7-1,5.4-1.7c3.4-1.3,6.2-3,8.4-4.6s3.9-3.1,4.9-4.2c0.6-0.5,0.9-1,1.2-1.3
		C306,258.7,306.1,258.6,306.1,258.6L306.1,258.6z"/>
	<path class="st6" d="M298.5,258.4c0,0-0.1,0.1-0.3,0.2c-0.2,0.1-0.5,0.3-0.9,0.6c-0.8,0.5-1.9,1.2-3.3,1.9
		c-1.5,0.7-3.2,1.5-5.3,2.2c-2,0.6-4.4,1.2-6.9,1.2c-5,0-9.4-1.7-12.3-3.1c-1.5-0.7-2.6-1.4-3.3-2c-0.4-0.3-0.7-0.5-0.8-0.6
		s-0.3-0.2-0.3-0.2c0,0,0.4,0.3,1.2,0.7c1.1,0.7,2.2,1.3,3.4,1.8c2.9,1.4,7.2,2.9,12.1,3c2.4,0,4.8-0.5,6.8-1.1
		c1.8-0.6,3.6-1.2,5.3-2.1c1.2-0.5,2.3-1.1,3.4-1.8C298,258.7,298.4,258.4,298.5,258.4z M357,259.9c0,0-0.2,0-0.7,0
		c-0.5,0-1.1,0-1.9-0.1c-0.4,0-0.9,0-1.4-0.1c-0.5,0-1,0-1.6,0c-1.2,0-2.5,0-3.9,0c-0.7,0-1.5,0-2.3,0.1c-0.8,0.1-1.6,0.1-2.5,0.2
		c-1.7,0.1-3.5,0.3-5.4,0.5c-4,0.5-8.1,1.2-12,2.1c-3.8,0.9-7.6,2-11.3,3.2c-1.6,0.6-3.2,1.1-4.6,1.8c-0.7,0.3-1.4,0.6-2,0.8
		c-0.6,0.3-1.2,0.6-1.8,0.8c-1.2,0.5-2.1,1-3,1.5c-0.4,0.2-0.8,0.4-1.2,0.6c-0.3,0.2-0.7,0.4-1,0.6c-0.5,0.3-1,0.6-1.3,0.8
		c-0.3,0.2-0.5,0.3-0.5,0.3c0,0,0.1-0.1,0.4-0.3c0.4-0.3,0.8-0.6,1.2-0.8c0.3-0.2,0.6-0.4,0.9-0.6c0.4-0.2,0.8-0.4,1.2-0.7
		c0.8-0.5,1.8-1,2.9-1.6c0.6-0.3,1.2-0.6,1.8-0.9c0.7-0.3,1.3-0.6,2-0.9c1.4-0.6,3-1.2,4.6-1.8c3.7-1.3,7.5-2.4,11.4-3.3
		c4.2-0.9,8.4-1.6,12.2-2.1c1.9-0.2,3.7-0.4,5.5-0.5c0.9-0.1,1.7-0.1,2.5-0.1c0.8,0,1.6,0,2.3,0c1.5-0.1,2.8,0,4,0
		c0.6,0,1.1,0,1.6,0c0.5,0,0.9,0.1,1.4,0.1c0.7,0.1,1.4,0.1,1.9,0.1C356.7,259.9,357,259.9,357,259.9L357,259.9z M258.5,272
		c0,0-0.5-0.9-1.8-2.2c-1.3-1.3-3.6-2.8-6.7-3.8c-1.6-0.5-3.3-0.9-5.3-1.2c-1.9-0.3-4-0.5-6.2-0.9c-2.2-0.4-4.4-1-6.7-1.7
		c-2.3-0.7-4.6-1.4-7.1-1.7c-5-0.6-9.8,0.4-13.9,1.9c-2,0.7-3.9,1.6-5.6,2.5c-1.6,0.8-3.2,1.7-4.8,2.6c-2.3,1.3-4.5,2.6-6.8,4
		c-0.8,0.5-1.4,0.8-1.8,1.1c-0.2,0.1-0.3,0.2-0.5,0.3c-0.1,0.1-0.2,0.1-0.2,0.1c0,0,0,0,0.1-0.1c0.1-0.1,0.3-0.2,0.5-0.3
		c0.4-0.3,1-0.7,1.8-1.2c2.2-1.4,4.4-2.8,6.7-4.1c1.4-0.8,3-1.7,4.7-2.6c1.7-0.9,3.6-1.8,5.7-2.6c4.1-1.5,9-2.6,14.1-2
		c2.5,0.3,4.9,1.1,7.2,1.7c2.3,0.7,4.5,1.3,6.6,1.7c2.2,0.4,4.2,0.6,6.1,1c1.9,0.3,3.7,0.7,5.3,1.2c3.2,1,5.5,2.6,6.8,3.9
		C258.1,271,258.5,272,258.5,272L258.5,272z M183.2,258.6c0,0,0,0.3-0.1,0.9c-0.1,0.6-0.3,1.5-0.7,2.5c-0.8,2-2.4,4.7-5.1,6.6
		c-2.8,1.8-5.6,2.8-7.6,3.5c-0.8,0.3-1.6,0.5-2.4,0.7c-0.6,0.1-0.9,0.2-0.9,0.2c0,0,0.3-0.1,0.9-0.3c0.6-0.2,1.4-0.5,2.4-0.9
		c2-0.8,4.8-1.8,7.5-3.6c2.7-1.8,4.3-4.4,5.1-6.3C183,260,183.1,258.6,183.2,258.6L183.2,258.6z M105.5,273.1c0,0,0.3-0.3,0.8-0.8
		c0.5-0.5,1.4-1.2,2.4-2c2.1-1.6,5.1-3.6,8.5-5.5c3.5-1.9,6.7-3.4,9.1-4.5c0.9-0.4,1.9-0.8,2.8-1.2c0.7-0.3,1-0.4,1-0.4
		c0,0-0.3,0.2-1,0.6l-2.8,1.4c-2.3,1.2-5.5,2.7-9,4.6c-3.5,1.9-6.5,3.9-8.6,5.4c-0.8,0.6-1.7,1.2-2.5,1.8
		C105.9,272.8,105.5,273.1,105.5,273.1z M121.3,259.2c0,0.1-0.8-0.1-2.2,0c-1.4,0.1-3.4,0.6-5.6,1.7c-2.2,1.1-4.6,2.9-7.2,4.9
		c-1.3,1-2.8,2-4.4,2.8c-1.6,0.9-3.4,1.5-5.2,2c-3.7,1-7.4,1.2-10.7,1.3c-3.3,0.1-6.3,0-8.8,0.1c-2.5,0.1-4.5,0.3-5.9,0.6
		c-0.7,0.1-1.2,0.2-1.6,0.3c-0.4,0.1-0.5,0.1-0.6,0.1c0,0,0.2-0.1,0.5-0.2c0.3-0.1,0.9-0.2,1.6-0.4c1.4-0.3,3.4-0.6,5.9-0.7
		c2.5-0.1,5.5-0.1,8.8-0.2c3.3-0.1,6.9-0.4,10.6-1.3c1.8-0.5,3.6-1.1,5.1-2c1.6-0.8,3-1.8,4.3-2.8c2.7-1.9,5.1-3.7,7.3-4.8
		c2.3-1.1,4.3-1.5,5.7-1.6c0.7,0,1.2,0,1.6,0.1C121.1,259.2,121.3,259.2,121.3,259.2L121.3,259.2z"/>
	<path class="st7" d="M67.4,448.4h-4.8L60,271.9h10.2C70.1,271.9,67.4,448.4,67.4,448.4z"/>
	<path class="st6" d="M373.8,448h-4.7l2.4-175.6h10.2L373.8,448z"/>
	<path class="st6" d="M397.6,258.4h-42.4V273h42.4V258.4z"/>
	<path class="st8" d="M91.9,233.3l3.8,25.3h22.3l5.2-24.9L91.9,233.3z"/>
	<path class="st3" d="M120.2,249.5c0,0.1-5.7,0.1-12.8,0.1s-12.8-0.1-12.8-0.1c0-0.1,5.7-0.1,12.8-0.1S120.2,249.5,120.2,249.5z
		 M120.3,248.3c0,0.1-5.8,0.1-12.9,0.1c-7.1,0-12.9-0.1-12.9-0.1c0-0.1,5.8-0.1,12.9-0.1C114.5,248.2,120.3,248.2,120.3,248.3z
		 M120.2,246.9c0,0.1-5.8,0.1-12.9,0.1c-7.1,0-12.9-0.1-12.9-0.1c0-0.1,5.8-0.1,12.9-0.1C114.5,246.8,120.2,246.8,120.2,246.9z
		 M98.3,257.2c-0.1,0-0.4-1.4-0.7-3.2c-0.3-1.8-0.5-3.2-0.4-3.2c0.1,0,0.4,1.4,0.7,3.2C98.2,255.7,98.4,257.1,98.3,257.2z
		 M99.9,256.9c-0.1,0-0.2-1.4-0.3-3.1c-0.1-1.7-0.2-3.1-0.1-3.1c0.1,0,0.3,1.4,0.4,3.1C100,255.5,99.9,256.9,99.9,256.9z
		 M102.6,256.9c-0.1,0-0.4-1.4-0.6-3.2c-0.2-1.8-0.2-3.2-0.2-3.2c0.1,0,0.2,1.4,0.4,3.2C102.5,255.4,102.7,256.9,102.6,256.9z
		 M104.6,257c-0.1,0-0.3-1.4-0.3-3.2c-0.1-1.8,0-3.2,0.1-3.2c0.1,0,0.1,1.4,0.2,3.2C104.6,255.6,104.6,257,104.6,257z M108,256.9
		c-0.1,0-0.2-1.4-0.2-3.1c-0.1-1.7,0-3.1,0-3.1c0.1,0,0.2,1.4,0.2,3.1C108.1,255.5,108.1,256.9,108,256.9z M110.5,257
		c-0.1,0-0.1-1.4-0.1-3.2c0-1.8,0.1-3.2,0.2-3.2c0.1,0,0.1,1.4,0.1,3.2C110.7,255.6,110.6,257,110.5,257z M112.9,256.7
		c-0.1,0,0-1.5,0.2-3.3c0.2-1.8,0.4-3.3,0.5-3.3c0.1,0,0,1.5-0.2,3.3C113.2,255.2,113,256.7,112.9,256.7z M115.9,256.4
		c-0.1,0,0-1.3,0.4-2.8c0.3-1.5,0.8-2.7,0.8-2.7c0.1,0-0.2,1.2-0.6,2.8C116.2,255.1,116,256.4,115.9,256.4L115.9,256.4z"/>
	<path class="st8" d="M89.4,228.3v4.7c0,1,0.8,1.9,1.9,1.9h32.3c1,0,1.9-0.8,1.9-1.9c0,0,0,0,0,0v-4.7H89.4z"/>
	<path class="st11" d="M92.2,234.9l0.3,1.5l29.8,2.1l0.8-3.6L92.2,234.9L92.2,234.9z"/>
	<path class="st7" d="M101.1,228.3c-4.7-2.8-7.3-9.2-7.5-14.4c-0.2-5.2,2-10.7,6.3-13.7c4.5-3.2,11-3.1,15.6-0.1
		c4.7,3,7.4,8.6,7.2,14.1s-3.2,10.8-7.7,14.1"/>
	<path class="st6" d="M108.7,228.8c0,0-0.1-0.4-0.1-1.2c0-0.9-0.1-2-0.1-3.3c-0.1-3.6-0.2-7.2-0.4-10.8c-0.2-3.6-0.4-7.2-0.6-10.8
		c-0.1-1.3-0.1-2.4-0.2-3.3c0-0.8-0.1-1.2,0-1.2c0,0,0.1,0.4,0.2,1.2c0.1,0.8,0.2,1.9,0.3,3.3c0.3,2.8,0.5,6.6,0.7,10.8
		c0.2,4.2,0.2,8,0.2,10.8c0,1.4,0,2.5-0.1,3.3C108.7,228.4,108.7,228.8,108.7,228.8z M95,212.7c0,0.1-0.8,0.2-1.7,0.1
		c-0.9-0.1-1.7-0.2-1.7-0.4c0-0.1,0.8-0.2,1.7-0.1C94.3,212.5,95,212.6,95,212.7z M95.3,208c-0.1,0.1-0.7-0.1-1.5-0.4
		c-0.8-0.3-1.3-0.7-1.3-0.8c0.1-0.1,0.7,0.1,1.5,0.4C94.8,207.6,95.3,207.9,95.3,208z M97.7,204.5c-0.1,0.1-0.8-0.2-1.6-0.9
		c-0.8-0.6-1.2-1.3-1.2-1.4c0.1-0.1,0.7,0.4,1.4,1C97.2,203.9,97.8,204.4,97.7,204.5z M100.1,201.2c-0.1,0.1-0.5-0.5-0.8-1.2
		c-0.3-0.7-0.5-1.4-0.4-1.4c0.1-0.1,0.5,0.5,0.8,1.2C100.1,200.6,100.3,201.2,100.1,201.2z M104,198.9c-0.1,0.1-0.5-0.5-0.7-1.3
		c-0.3-0.8-0.3-1.5-0.2-1.5c0.1,0,0.3,0.6,0.6,1.4C103.9,198.2,104.1,198.9,104,198.9z M110.3,196.3c0.1,0,0,0.5-0.2,1.1
		c-0.2,0.6-0.5,1-0.6,1c-0.1,0,0-0.5,0.2-1.1C110,196.7,110.2,196.2,110.3,196.3z M115.1,198.3c0.1,0.1-0.2,0.5-0.7,0.9
		c-0.5,0.4-0.9,0.7-1,0.6c-0.1-0.1,0.2-0.5,0.7-0.9C114.5,198.5,115,198.2,115.1,198.3z M119.2,201c0.1,0.1-0.3,0.5-0.8,0.8
		c-0.5,0.4-1,0.6-1.1,0.5c-0.1-0.1,0.3-0.5,0.8-0.8C118.7,201.1,119.2,200.9,119.2,201z M122.2,205c0.1,0.1-0.5,0.5-1.3,0.8
		c-0.8,0.3-1.4,0.5-1.5,0.4c-0.1-0.1,0.5-0.5,1.3-0.8C121.5,205.1,122.1,204.9,122.2,205z M123.4,209.4c0,0.1-0.6,0.3-1.3,0.4
		c-0.7,0.1-1.4,0.1-1.4-0.1c0-0.1,0.6-0.3,1.3-0.4C122.7,209.2,123.3,209.2,123.4,209.4L123.4,209.4z M123.9,214.7
		c-0.1,0.1-0.7-0.1-1.4-0.4c-0.7-0.3-1.3-0.7-1.2-0.8c0.1-0.1,0.7,0.1,1.4,0.4C123.5,214.3,124,214.6,123.9,214.7z M123.4,219.4
		c0,0.1-0.8-0.1-1.7-0.6c-0.8-0.5-1.3-1.2-1.2-1.3c0.1-0.1,0.7,0.4,1.5,0.9C122.8,218.9,123.5,219.2,123.4,219.4L123.4,219.4z
		 M121,223.6c-0.1,0.1-0.7-0.3-1.3-0.9c-0.6-0.7-0.9-1.3-0.8-1.4c0.1-0.1,0.6,0.5,1.2,1.1S121.1,223.5,121,223.6L121,223.6z
		 M98.2,224.1c0.1,0.1-0.6,0.6-1.5,1c-0.9,0.5-1.6,0.7-1.7,0.6c-0.1-0.1,0.6-0.6,1.5-1C97.4,224.2,98.1,223.9,98.2,224.1z
		 M96.1,220.3c0.1,0.1-0.5,0.5-1.2,0.8c-0.7,0.3-1.3,0.5-1.4,0.4c-0.1-0.1,0.5-0.5,1.2-0.8C95.4,220.3,96.1,220.1,96.1,220.3z
		 M94.6,216.9c0,0.1-0.6,0.3-1.5,0.4c-0.8,0.1-1.5,0.1-1.5,0c0-0.1,0.6-0.3,1.5-0.4C93.9,216.8,94.6,216.8,94.6,216.9L94.6,216.9z
		 M99.6,215c0,0.1-0.6,0.4-1.5,0.5c-0.9,0.1-1.6-0.1-1.5-0.2c0-0.1,0.7-0.2,1.5-0.3C98.9,215,99.6,214.9,99.6,215z M103.8,210.9
		c0,0.1-0.5,0.4-1.2,0.4c-0.7,0.1-1.2-0.1-1.2-0.2c0-0.1,0.5-0.2,1.2-0.2C103.2,210.8,103.7,210.8,103.8,210.9L103.8,210.9z
		 M104.6,207.6c0,0.1-0.6,0-1.2-0.2c-0.6-0.2-1.1-0.5-1.1-0.6c0-0.1,0.6,0,1.2,0.2C104.1,207.2,104.6,207.4,104.6,207.6z
		 M106.1,204.2c-0.1,0.1-0.5-0.2-0.7-0.6c-0.3-0.5-0.3-0.9-0.2-1c0.1,0,0.3,0.3,0.6,0.7C106,203.7,106.2,204.1,106.1,204.2z
		 M104.3,218c0,0.1-0.5,0.3-1.1,0.5c-0.4,0.1-0.7,0.1-0.9,0.1l-0.1-0.3c0.2,0,0.3,0,0.3,0c0,0.1,0,0.1-0.2,0.2l-0.1-0.3
		c0.2-0.1,0.5-0.2,0.9-0.3C103.7,217.9,104.2,217.8,104.3,218z M105.1,223.9c0,0.1-0.6,0.5-1.4,0.8s-1.5,0.5-1.5,0.4
		c0-0.1,0.6-0.5,1.4-0.8C104.4,223.9,105.1,223.8,105.1,223.9z M100.4,221.2c0,0.1-0.4,0.4-0.9,0.5c-0.5,0.2-1,0.2-1.1,0.1
		c0-0.1,0.4-0.4,0.9-0.5C99.9,221.2,100.4,221.1,100.4,221.2z M100.8,209.2c0,0.1-0.7,0.1-1.6-0.2s-1.4-0.7-1.4-0.8
		c0.1-0.1,0.7,0.1,1.5,0.4C100.2,208.9,100.8,209.1,100.8,209.2z M112.2,207.9c0.1,0.1-0.3,0.5-0.9,0.9c-0.6,0.4-1.1,0.6-1.1,0.5
		c-0.1-0.1,0.3-0.5,0.9-0.9C111.6,208.1,112.1,207.8,112.2,207.9z M112.8,213.9c0,0.1-0.4,0.3-0.9,0.4c-0.5,0.1-1,0.1-1,0
		c0-0.1,0.4-0.3,0.9-0.4C112.3,213.7,112.8,213.7,112.8,213.9z M113.5,220.5c-0.1,0.1-0.7-0.1-1.4-0.4c-0.7-0.3-1.2-0.7-1.2-0.8
		c0.1-0.1,0.7,0.1,1.4,0.4C113,220.1,113.6,220.4,113.5,220.5z M112,227c-0.1,0.1-0.5-0.2-0.9-0.7c-0.4-0.5-0.6-0.9-0.5-1
		c0.1-0.1,0.5,0.2,0.9,0.7C111.9,226.5,112.1,226.9,112,227z M111.7,203.6c0.1,0.1-0.2,0.4-0.6,0.6c-0.4,0.2-0.9,0.2-0.9,0.1
		c0-0.1,0.3-0.3,0.7-0.5C111.3,203.6,111.6,203.5,111.7,203.6z M117.3,209.5c0,0.1-0.5,0.4-1.2,0.5c-0.7,0.1-1.3,0-1.3-0.2
		c0-0.1,0.6-0.2,1.2-0.3C116.7,209.5,117.2,209.4,117.3,209.5z M116.2,204.2c0.1,0.1-0.5,0.5-1.2,0.7c-0.7,0.2-1.4,0.2-1.4,0.1
		c0-0.1,0.5-0.3,1.2-0.5C115.5,204.2,116.1,204.1,116.2,204.2z M118.5,217.9c0,0.1-0.9,0.2-1.9,0c-1.1-0.2-1.9-0.6-1.8-0.7
		c0-0.1,0.9,0.1,1.9,0.2C117.7,217.6,118.5,217.7,118.5,217.9L118.5,217.9z M116.4,225.6c-0.1,0.1-0.7-0.3-1.4-0.9
		c-0.7-0.7-1-1.3-0.9-1.4c0.1-0.1,0.6,0.4,1.2,1.1C116,225,116.5,225.6,116.4,225.6z"/>
	<path class="st6" d="M107.3,197.8c0.1,0.1-1.8,0.8-3.9,3.1c-2.1,2.2-4.3,6.1-4.9,10.7c-0.3,2.3,0,4.6,0.3,6.6
		c0.3,2,0.8,3.8,1.2,5.3c0.4,1.5,0.8,2.7,1.1,3.5c0.3,0.8,0.4,1.3,0.4,1.3c0,0-0.2-0.4-0.5-1.2c-0.4-1.1-0.9-2.3-1.2-3.5
		c-0.5-1.5-1-3.3-1.3-5.3c-0.4-2-0.6-4.3-0.3-6.7c0.6-4.8,2.8-8.7,5.1-10.9c1.1-1.1,2.2-1.8,2.9-2.3c0.4-0.2,0.7-0.4,0.9-0.5
		C107.2,197.9,107.3,197.8,107.3,197.8L107.3,197.8z"/>
	<path class="st6" d="M113.4,228.6c-0.1-0.1,1-1.7,2-4.8c1-3,1.9-7.5,1.2-12.3c-0.3-2.3-0.9-4.5-1.9-6.6c-0.9-1.9-2.1-3.4-3.2-4.5
		c-0.9-0.8-2-1.5-3.2-2c-0.8-0.3-1.3-0.4-1.3-0.5c0,0,0.1,0,0.4,0c0.2,0,0.6,0.1,1,0.3c0.8,0.3,2.1,0.9,3.3,1.9
		c1.2,1.1,2.4,2.6,3.4,4.6c1,2.1,1.7,4.4,2,6.7c0.7,4.9-0.2,9.5-1.3,12.5c-0.3,0.8-0.6,1.4-0.8,2c-0.2,0.5-0.5,1-0.7,1.5
		C113.6,228.2,113.4,228.6,113.4,228.6L113.4,228.6z"/>
	<path class="st8" d="M399.5,378.5c-7.8,2.7-18,0.3-24.7-4.6c-6.7-4.9-11.5-11.9-15.8-19c-1.8-3-3.6-6.2-4.2-9.7
		c-0.6-3.5,0.3-7.4,3-9.7c4.2-3.5,10.6-1.7,15.4,1C388.2,345,398.4,361.3,399.5,378.5z M391.1,397.2c-4.7,6.2-12.8,9-20.5,9.3
		c-7.8,0.4-15.5-1.8-22.7-4.6c-2.6-1-5.5-2.4-6.4-5.1c-0.7-2,0-4.3,1.4-6c1.4-1.6,3.3-2.7,5.2-3.6c7.2-3,15.3-3.2,22.9-1.2
		C378.4,388.1,385,392.4,391.1,397.2L391.1,397.2z M399.6,345c-6.5,0.1-11.4-5.5-14.3-11.3c-4.1-8-5.4-17.3-3.9-26.2
		c0.6-3.3,1.8-6.9,4.8-8.5c3-1.6,6.9-0.6,9.5,1.8c2.5,2.3,3.9,5.6,4.9,8.9C404.1,320.9,403.4,333.8,399.6,345z M420.9,380.8
		c-11-18.8-12.9-41.8-6.4-62.6c1.1-3.4,3.1-7.2,6.6-7.5c3.9-0.3,6.4,4.1,7.4,7.9c3.8,13.2,3,27.2,2.1,41
		C430.2,368,427.3,375.3,420.9,380.8L420.9,380.8z M432.4,388.5c4-12.9,14.2-23.7,26.8-28.4c2.9-1.1,6.7-1.7,8.9,0.5
		c2.1,2.2,1.5,5.9,0.1,8.6c-2.2,4.4-5.8,8-9.4,11.4c-3.3,3.1-6.7,6.2-10.8,8.1C443.8,390.5,436.2,391,432.4,388.5L432.4,388.5z"/>
	<path class="st6" d="M363.9,340.2c0,0,0.1,0.1,0.2,0.2c0.2,0.1,0.4,0.3,0.6,0.5c0.6,0.4,1.3,1,2.3,1.7c0.5,0.4,1.1,0.8,1.7,1.2
		c0.6,0.5,1.2,1,1.9,1.6c1.4,1.1,3,2.4,4.6,3.9c0.8,0.8,1.7,1.5,2.6,2.4c0.9,0.8,1.8,1.8,2.7,2.7c1.9,1.8,3.7,4,5.7,6.2
		c3.8,4.5,7.8,9.7,11.4,15.5c3.6,5.8,6.5,11.7,8.8,17.1c1.1,2.8,2.2,5.4,3,7.9c0.4,1.2,0.9,2.4,1.2,3.6s0.7,2.3,1,3.4
		c0.7,2.1,1,4.1,1.4,5.9c0.2,0.9,0.4,1.7,0.5,2.4c0.1,0.7,0.3,1.4,0.4,2.1c0.2,1.2,0.4,2.2,0.5,2.8c0.1,0.3,0.1,0.5,0.1,0.7
		c0,0.2,0.1,0.3,0.1,0.3c0,0,0-0.1,0-0.3c0-0.2-0.1-0.5-0.1-0.7c-0.1-0.7-0.2-1.6-0.4-2.9c-0.1-0.6-0.2-1.3-0.3-2.1
		c-0.1-0.8-0.3-1.6-0.5-2.4c-0.4-1.7-0.7-3.7-1.4-5.9c-0.3-1.1-0.6-2.2-0.9-3.4c-0.3-1.2-0.8-2.4-1.2-3.6c-0.8-2.5-1.8-5.1-2.9-7.9
		c-2.3-5.5-5.2-11.4-8.8-17.2c-3.6-5.8-7.6-11-11.5-15.6c-2-2.2-3.9-4.3-5.8-6.2c-0.9-0.9-1.8-1.8-2.7-2.7c-0.9-0.8-1.8-1.6-2.6-2.4
		c-1.6-1.5-3.3-2.8-4.7-3.9c-0.7-0.6-1.3-1.1-2-1.5c-0.6-0.4-1.2-0.8-1.7-1.2c-0.8-0.6-1.6-1.1-2.4-1.6c-0.3-0.2-0.5-0.3-0.6-0.4
		C364,340.3,363.9,340.2,363.9,340.2L363.9,340.2z"/>
	<path class="st6" d="M349.3,392.3c0,0,0.3,0,0.8-0.1c0.5-0.1,1.2-0.3,2.2-0.4c1.9-0.4,4.6-0.8,8-1c6.8-0.4,16.4,0.4,26,4.4
		c9.6,4,16.9,10.2,21.4,15.4c2.2,2.6,3.9,4.8,4.9,6.4c0.6,0.8,0.9,1.4,1.2,1.8c0.3,0.4,0.4,0.6,0.4,0.6c0,0-0.1-0.2-0.4-0.7
		c-0.3-0.4-0.6-1.1-1.1-1.9c-1-1.6-2.6-3.9-4.8-6.5c-4.4-5.2-11.8-11.5-21.5-15.6c-9.7-4-19.4-4.8-26.2-4.3c-3.4,0.3-6.2,0.7-8,1.1
		c-0.9,0.2-1.6,0.4-2.1,0.5C349.6,392.3,349.3,392.3,349.3,392.3L349.3,392.3z M390.1,306.5c0,0,0,0.1,0,0.3c0,0.2,0.1,0.5,0.2,0.8
		c0.2,0.8,0.4,1.9,0.7,3.2c0.9,4,1.9,7.9,2.8,11.9c2.4,10,6,23.8,9.6,39.1c1.7,7.2,3.4,14.4,4.9,21.6c1.4,6.7,2.6,12.7,3.5,17.7
		c0.5,2.5,0.8,4.8,1.2,6.8c0.3,2,0.6,3.8,0.8,5.2c0.2,1.4,0.4,2.5,0.5,3.3c0.1,0.3,0.1,0.6,0.1,0.9c0,0.2,0.1,0.3,0.1,0.3
		c0,0,0-0.1,0-0.3c0-0.2-0.1-0.5-0.1-0.9c-0.1-0.8-0.2-1.9-0.4-3.3c-0.2-1.4-0.4-3.2-0.7-5.2c-0.3-2-0.7-4.3-1.1-6.9
		c-0.8-5.1-2-11.1-3.4-17.8c-1.5-7.2-3.2-14.4-4.9-21.6c-3.7-15.3-7.3-29-9.8-39c-1.2-5-2.3-9-3-11.8c-0.3-1.4-0.6-2.4-0.8-3.2
		c-0.1-0.3-0.2-0.6-0.2-0.8C390.1,306.6,390.1,306.5,390.1,306.5z M415.5,416.1c0,0,0-0.1,0.1-0.2l0.2-0.7c0.1-0.6,0.3-1.5,0.5-2.6
		c0.5-2.3,1.1-5.6,1.8-9.7c1.4-8.2,3.1-19.5,4.1-32.2c0.5-6.3,0.8-12.3,0.9-17.8c0.1-5.5,0-10.4-0.1-14.6c-0.1-2.1-0.2-3.9-0.3-5.6
		c-0.1-1.6-0.2-3.1-0.3-4.2c-0.1-1.1-0.2-2-0.2-2.7c0-0.3-0.1-0.5-0.1-0.7c0-0.2,0-0.2,0-0.2c0,0,0,0.1,0,0.2c0,0.2,0,0.4,0,0.7
		c0,0.7,0.1,1.5,0.1,2.7c0.1,1.2,0.2,2.6,0.2,4.2c0.1,1.6,0.2,3.5,0.2,5.6c0.1,4.1,0.1,9.1,0,14.6c-0.2,5.9-0.5,11.9-0.9,17.8
		c-1,12.6-2.6,24-4,32.2c-0.5,3.2-1.1,6.5-1.6,9.7c-0.2,1.1-0.3,2-0.5,2.6c0,0.3-0.1,0.5-0.1,0.7C415.4,416,415.4,416.1,415.5,416.1
		L415.5,416.1z"/>
	<path class="st6" d="M414.6,418.5c0,0,0.1-0.2,0.3-0.7c0.2-0.5,0.4-1.1,0.7-1.9c0.2-0.4,0.3-0.9,0.5-1.4c0.2-0.5,0.5-1,0.7-1.6
		c0.3-0.6,0.5-1.2,0.8-1.8c0.3-0.7,0.7-1.3,1-2c0.4-0.7,0.7-1.4,1.1-2.2c0.4-0.7,0.9-1.5,1.3-2.3c0.9-1.6,2-3.2,3.1-5
		c2.6-3.7,5.3-7.2,8.3-10.6c3.2-3.6,6.5-6.8,9.5-9.6c1.6-1.3,3-2.7,4.5-3.8c0.7-0.6,1.4-1.1,2.1-1.7c0.7-0.5,1.4-1,2-1.5
		c1.2-1,2.4-1.7,3.5-2.4c0.9-0.6,1.8-1.2,2.7-1.8c0.7-0.5,1.3-0.8,1.7-1.1c0.4-0.3,0.6-0.4,0.6-0.4c0,0-0.2,0.1-0.6,0.3
		c-0.5,0.3-1,0.6-1.8,1c-0.9,0.5-1.8,1.1-2.7,1.7c-1.2,0.8-2.4,1.5-3.5,2.4c-0.6,0.5-1.3,0.9-2,1.4c-0.7,0.5-1.4,1.1-2.1,1.6
		c-1.5,1.1-3,2.4-4.6,3.8c-3.1,2.8-6.4,6-9.6,9.6c-3,3.4-5.8,7-8.3,10.7c-1.1,1.8-2.2,3.4-3.1,5c-0.5,0.8-0.9,1.6-1.3,2.3
		c-0.4,0.8-0.8,1.5-1.1,2.2c-0.3,0.7-0.7,1.4-1,2s-0.5,1.3-0.8,1.8c-0.2,0.6-0.5,1.1-0.7,1.6c-0.2,0.5-0.3,1-0.5,1.4
		c-0.3,0.8-0.5,1.4-0.6,1.9C414.7,418.2,414.6,418.4,414.6,418.5L414.6,418.5z M368,362c0,0.1,1.3,0.1,3.5,0.2
		c2.2,0.1,5.1,0.4,8.3,1c2.8,0.5,5.5,1.2,8.1,2.1c2,0.7,3.3,1.2,3.3,1.1c0,0-0.3-0.2-0.8-0.5c-0.5-0.3-1.4-0.6-2.4-1
		c-2-0.8-4.9-1.7-8.2-2.3c-3.3-0.6-6.3-0.8-8.4-0.9c-0.9,0-1.7,0-2.6,0.1C368.4,362,368,362,368,362L368,362z M359.7,402.7
		c0.2,0.1,1.4-3.5,4.5-6.9c3.1-3.4,6.6-4.9,6.5-5c0-0.1-0.9,0.2-2.2,1c-1.3,0.7-3.1,2-4.6,3.7c-1.6,1.7-2.7,3.5-3.3,4.9
		C359.9,401.8,359.6,402.7,359.7,402.7L359.7,402.7z M388.1,321.8c-0.1,0.1,1.9,2.1,4.1,4.9c2.2,2.7,3.8,5.1,3.9,5
		c0.1-0.1-1.3-2.6-3.5-5.4C390.4,323.5,388.2,321.7,388.1,321.8z M394.8,310.2c-0.1,0-0.6,1.9-1,4.4c-0.4,2.4-0.6,4.4-0.5,4.5
		c0.1,0,0.6-1.9,1-4.4C394.7,312.3,394.9,310.3,394.8,310.2z M415.4,346.4c-0.1,0.1,1.3,3.1,3.2,6.8s3.6,6.6,3.7,6.6
		c0.1-0.1-1.3-3.1-3.2-6.8S415.6,346.3,415.4,346.4z M427.7,334.1c-0.1-0.1-1.4,2.1-2.7,4.9c-1.4,2.8-2.4,5.1-2.3,5.2
		c0.1,0.1,1.4-2.1,2.7-4.9C426.9,336.5,427.9,334.2,427.7,334.1L427.7,334.1z"/>
	<path class="st6" d="M445.8,376.1c0,0.1,2.2-0.3,5-0.5c2.7-0.2,5-0.1,5-0.2c0-0.1-2.2-0.5-5-0.3C448,375.3,445.8,376,445.8,376.1z
		 M433.5,413.3l-6.2,32.3c-0.4,2.1-2.3,3.7-4.5,3.7h-18.2c-2.2,0-4.1-1.6-4.5-3.8l-5.3-32.2L433.5,413.3L433.5,413.3z"/>
	<path class="st7" d="M431.5,423.8h-34.7l-1.8-10.5h38.6L431.5,423.8z"/>
	<path class="st3" d="M431.5,423.8l-0.7,3.8h-33.5l-0.5-3.8H431.5z"/>
	<path class="st8" d="M124.7,71.8c16.4-16.4,16.4-43.1,0-59.5c-16.4-16.4-43.1-16.4-59.5,0c-16.4,16.4-16.4,43.1,0,59.5
		S108.3,88.3,124.7,71.8z"/>
	<path class="st3" d="M128,63.7c12.1-18.3,7-42.9-11.3-55c-18.3-12.1-42.9-7-55,11.3c-12.1,18.3-7,42.9,11.3,55
		C91.3,87.1,115.9,82,128,63.7L128,63.7z"/>
	<path class="st6" d="M55.2,39.3c0,0,0,0.2,0,0.6v1.9c0,0.4,0,0.9,0,1.4c0,0.5,0.1,1.1,0.1,1.7c0.1,0.6,0.1,1.2,0.2,2
		c0,0.7,0.3,1.4,0.4,2.2c0.5,3.1,1.7,6.8,3.7,10.8c2.3,4.5,5.5,8.5,9.3,11.9c0.5,0.5,1.1,0.9,1.6,1.4c0.6,0.4,1.2,0.8,1.8,1.3
		c0.6,0.4,1.2,0.9,1.8,1.2c0.7,0.4,1.3,0.7,2,1.1l1,0.6l1.1,0.5c0.7,0.3,1.4,0.6,2.2,1c0.7,0.3,1.5,0.5,2.3,0.8
		c0.8,0.2,1.5,0.6,2.4,0.7c1.6,0.3,3.2,0.8,4.9,0.9c0.8,0.1,1.7,0.2,2.6,0.3l2.6,0c0.4,0,0.9,0,1.3,0l1.3-0.1
		c0.9-0.1,1.8-0.1,2.7-0.3c1.8-0.4,3.6-0.6,5.4-1.2c1.8-0.5,3.5-1.2,5.3-1.9c0.9-0.4,1.7-0.9,2.6-1.3c0.4-0.2,0.9-0.4,1.3-0.7
		l1.2-0.8c1.7-1,3.2-2.3,4.7-3.5c1.4-1.4,2.9-2.7,4.2-4.3l1-1.2l0.9-1.2l0.9-1.2c0.3-0.4,0.6-0.8,0.8-1.3c0.5-0.9,1-1.8,1.5-2.7
		c0.4-0.9,0.8-1.9,1.3-2.8c1.6-3.9,2.5-8.1,2.8-12.3c0.2-4.3-0.2-8.5-1.2-12.6c-0.3-1-0.6-2-0.9-3c-0.4-1-0.8-1.9-1.2-2.9
		c-0.2-0.5-0.4-0.9-0.6-1.4l-0.7-1.4l-0.7-1.3l-0.8-1.3c-1-1.7-2.3-3.3-3.6-4.8c-1.4-1.4-2.7-2.9-4.2-4.1l-1.1-0.9
		c-0.4-0.3-0.8-0.6-1.2-0.8c-0.8-0.5-1.6-1.1-2.4-1.6c-1.7-0.9-3.3-1.9-5-2.6c-1.7-0.8-3.4-1.3-5.2-1.9c-0.9-0.2-1.8-0.4-2.6-0.6
		L101.6,3c-0.4-0.1-0.9-0.1-1.3-0.2c-0.9-0.1-1.7-0.2-2.6-0.3c-0.9-0.1-1.7,0-2.6-0.1c-1.7-0.1-3.4,0.1-5,0.3
		c-0.8,0-1.6,0.3-2.4,0.4c-0.8,0.2-1.6,0.3-2.4,0.5c-0.8,0.2-1.5,0.4-2.3,0.7c-0.4,0.1-0.7,0.2-1.1,0.3c-0.4,0.1-0.7,0.3-1.1,0.4
		c-0.7,0.3-1.4,0.6-2.1,0.8c-0.7,0.3-1.3,0.7-2,1c-0.7,0.3-1.3,0.7-1.9,1C74.2,8.2,73.6,8.6,73,9c-4.2,2.8-7.9,6.4-10.8,10.5
		c-2.5,3.7-4.2,7.2-5.1,10.2c-0.2,0.8-0.5,1.4-0.7,2.1c-0.2,0.7-0.3,1.3-0.4,1.9c-0.1,0.6-0.3,1.1-0.4,1.6c-0.1,0.5-0.1,1-0.2,1.4
		c-0.1,0.8-0.2,1.4-0.2,1.9C55.2,39,55.2,39.3,55.2,39.3c0,0,0-0.2,0-0.6c0-0.4,0.1-1.1,0.2-1.9c0-0.4,0.1-0.9,0.1-1.4
		c0.1-0.5,0.2-1.1,0.3-1.6c0.1-0.6,0.3-1.2,0.4-1.9c0.1-0.7,0.4-1.4,0.6-2.1c0.9-3,2.5-6.6,5-10.3c2.9-4.2,6.6-7.9,10.8-10.7
		c0.6-0.4,1.2-0.8,1.8-1.2c0.6-0.4,1.3-0.7,1.9-1c0.7-0.3,1.3-0.7,2-1c0.7-0.3,1.4-0.6,2.1-0.9c0.4-0.1,0.7-0.3,1.1-0.4
		c0.4-0.1,0.8-0.2,1.1-0.3c0.8-0.2,1.5-0.5,2.3-0.7c0.8-0.2,1.6-0.3,2.4-0.5c0.8-0.1,1.6-0.4,2.4-0.4c1.7-0.1,3.3-0.4,5.1-0.3
		C96,2,96.9,2,97.7,2c0.9,0.1,1.7,0.2,2.6,0.3c0.4,0.1,0.9,0.1,1.3,0.2l1.3,0.3c0.9,0.2,1.8,0.4,2.7,0.6c1.7,0.6,3.5,1.1,5.2,1.9
		c1.8,0.7,3.4,1.7,5.1,2.6c0.8,0.5,1.6,1.1,2.4,1.6c0.4,0.3,0.8,0.5,1.2,0.9l1.1,1c1.6,1.2,2.9,2.7,4.3,4.1c1.2,1.6,2.6,3.1,3.6,4.9
		l0.8,1.3l0.7,1.4l0.7,1.4c0.3,0.5,0.5,0.9,0.7,1.4c0.4,1,0.8,1.9,1.2,2.9c0.3,1,0.6,2,0.9,3c1,4.2,1.5,8.4,1.2,12.7
		c-0.3,4.3-1.3,8.5-2.9,12.5c-0.4,1-0.9,1.9-1.3,2.9c-0.5,0.9-1,1.8-1.5,2.7c-0.2,0.5-0.5,0.9-0.8,1.3l-0.9,1.3l-0.9,1.3l-1,1.2
		c-1.3,1.6-2.8,3-4.2,4.4c-1.6,1.2-3.1,2.5-4.8,3.5l-1.2,0.8c-0.4,0.3-0.9,0.5-1.3,0.7c-0.9,0.4-1.7,0.9-2.6,1.3
		c-1.8,0.7-3.5,1.5-5.4,1.9c-1.8,0.6-3.6,0.8-5.4,1.2c-0.9,0.1-1.8,0.2-2.7,0.3l-1.3,0.1c-0.5,0-0.9,0-1.3,0c-0.9,0-1.8,0-2.6,0
		c-0.9,0-1.7-0.2-2.6-0.3c-1.7-0.1-3.4-0.6-5-0.9c-0.8-0.1-1.6-0.5-2.4-0.7c-0.8-0.3-1.6-0.5-2.3-0.8c-0.7-0.3-1.5-0.7-2.2-1
		c-0.4-0.2-0.7-0.3-1.1-0.5L76,77c-0.7-0.4-1.3-0.8-2-1.1c-0.7-0.4-1.2-0.9-1.9-1.3c-0.6-0.4-1.2-0.8-1.8-1.3L68.7,72
		c-3.9-3.4-7-7.4-9.3-12c-2-4-3.2-7.8-3.6-10.9c-0.1-0.8-0.3-1.5-0.4-2.2c-0.1-0.7-0.1-1.4-0.2-2c0-0.6-0.1-1.2-0.1-1.7
		c0-0.5,0-1,0-1.4c0-0.8,0-1.4,0.1-1.9C55.2,39.5,55.2,39.3,55.2,39.3L55.2,39.3z"/>
	<path class="st6" d="M94.7,8.7c0.1,0,0.3,1.5,0.3,3.3c0,1.8-0.1,3.3-0.3,3.3c-0.1,0-0.3-1.5-0.3-3.3C94.5,10.2,94.6,8.7,94.7,8.7z
		 M112.8,14c0.1,0.1-0.9,1.2-2.1,2.5c-1.3,1.3-2.4,2.2-2.5,2.1c-0.1-0.1,0.9-1.2,2.1-2.5C111.6,14.9,112.7,13.9,112.8,14z
		 M123.4,25.6c0.1,0.1-1.2,0.9-2.7,1.8c-1.5,0.9-2.8,1.7-2.9,1.6c-0.1-0.1,1.1-1.1,2.6-2C122,26,123.4,25.5,123.4,25.6z M129.6,42.7
		c0,0.1-2,0.3-4.5,0.3c-2.5,0-4.5-0.1-4.5-0.3c0-0.1,2-0.3,4.5-0.3C127.6,42.5,129.6,42.6,129.6,42.7z M66.5,42.1
		c0,0.1-1.9,0.3-4.3,0.3s-4.3-0.1-4.3-0.3c0-0.1,1.9-0.3,4.3-0.3S66.5,42,66.5,42.1z M71,54.9c0.1,0.1-1.4,1.4-3.2,2.9
		c-1.9,1.5-3.5,2.7-3.6,2.5c-0.1-0.1,1.4-1.4,3.2-2.9C69.3,55.9,70.9,54.8,71,54.9z M82,64.8c0.1,0.1-1,1.7-2.2,3.8
		c-1.3,2.1-2.2,3.8-2.3,3.7c-0.1-0.1,0.6-1.9,1.9-4C80.6,66.2,81.9,64.7,82,64.8z M94.7,77.5c-0.1,0-0.3-2-0.3-4.5
		c0-2.5,0.1-4.5,0.3-4.5c0.1,0,0.3,2,0.3,4.5C95,75.5,94.9,77.5,94.7,77.5z M114.3,71.5c-0.1,0.1-1.8-0.9-3.7-2.6
		c-1.9-1.7-3.2-3.3-3.1-3.4c0.1-0.1,1.5,1.4,3.4,3C112.8,70.1,114.4,71.3,114.3,71.5z M123.5,61.5c-0.1,0.1-1.4-1.1-3-2.6
		c-1.6-1.6-2.8-2.9-2.6-3c0.1-0.1,1.4,1.1,3,2.6C122.5,60.1,123.6,61.4,123.5,61.5z M70.6,29.9c-0.1,0.1-1.3-0.9-2.7-2.3
		c-1.4-1.4-2.4-2.6-2.3-2.7c0.1-0.1,1.3,0.9,2.7,2.3C69.6,28.6,70.7,29.8,70.6,29.9z M81.9,17.9c-0.1,0.1-1.3-0.9-2.6-2.2
		c-1.3-1.3-2.4-2.5-2.2-2.6c0.1-0.1,1.3,0.9,2.6,2.2C81,16.7,82,17.8,81.9,17.9z M94.8,21c0,0,0.1,0.5,0.1,1.4c0,1,0.1,2.3,0.1,3.9
		c0.1,3.3,0.1,7.8,0.1,12.8v3.3l-0.4-0.2c-3.2-1.6-6.5-3.3-9.7-5c-1.1-0.6-2.1-1.1-2.8-1.5c-0.7-0.4-1-0.6-1-0.6
		c0,0,0.4,0.1,1.1,0.4c0.8,0.4,1.8,0.8,2.9,1.4c3.3,1.6,6.5,3.2,9.8,4.8l-0.4,0.2v-2.8c0-5,0-9.5,0.1-12.8c0-1.6,0.1-2.9,0.1-3.9
		C94.8,21.5,94.8,21,94.8,21z"/>
	<path class="st1" d="M151.7,213.1l19.2,42.5c0.8,1.8,3.2,3.2,5.1,3.2l88.7-0.1c-0.2-1.9-1.8-3.3-3.7-3.3l-33.7-0.7l-17.2-41.3
		c-0.5-1.3-1.8-2.2-3.3-2.2l-53.7-0.4c-0.9,0-1.7,0.7-1.7,1.7C151.6,212.7,151.6,212.9,151.7,213.1L151.7,213.1z"/>
	<path class="st6" d="M151.7,213.1c0,0-0.1-0.1-0.2-0.5c-0.1-0.5,0.1-1.1,0.5-1.4c0.3-0.3,0.6-0.5,1-0.5c0.4,0,0.9,0,1.4,0h3.4
		c5.2,0,12.7,0.1,22.1,0.1c4.7,0,9.9,0.1,15.5,0.1c2.8,0,5.7,0,8.7,0.1c0.8,0,1.5,0,2.3,0c0.7,0,1.6,0.1,2.3,0.5
		c0.7,0.4,1.3,1.1,1.6,1.8c0.3,0.7,0.6,1.5,0.9,2.2c5.4,13,10.9,26.1,16.3,39.1l-0.2-0.2c5.9,0.1,11.9,0.3,18.2,0.4
		c3.1,0.1,6.3,0.1,9.5,0.2c1.6,0,3.2,0.1,4.8,0.1l1.2,0c0.4,0,0.9,0.1,1.3,0.3c0.8,0.3,1.5,0.9,2,1.6c0.3,0.5,0.5,1.1,0.6,1.7l0,0.3
		h-0.3c-19.6,0-38.3,0-55.2,0.1c-8.5,0-16.5,0-24.1,0h-8.3c-0.5,0-0.9,0-1.3,0c-0.5,0-0.9-0.1-1.3-0.3c-1.7-0.6-3.2-1.7-3.9-3.4
		c-0.7-1.5-1.4-3-2-4.5c-5.2-11.7-9.5-21.1-12.4-27.7c-1.4-3.3-2.6-5.8-3.3-7.5c-0.4-0.9-0.7-1.5-0.9-2
		C151.8,213.4,151.7,213.1,151.7,213.1c0,0,0.1,0.2,0.3,0.7c0.2,0.5,0.5,1.1,0.9,1.9c1.1,2.5,2.3,5,3.4,7.5c3,6.5,7.3,16,12.6,27.6
		c0.7,1.5,1.3,3,2,4.5c0.6,1.5,2.1,2.6,3.7,3.1c0.8,0.3,1.6,0.3,2.6,0.2c0.9,0,1.8,0,2.7,0c1.8,0,3.7,0,5.6,0c7.5,0,15.6,0,24.1-0.1
		c17,0,35.6-0.1,55.2-0.1l-0.3,0.3c-0.1-0.5-0.2-1-0.5-1.5c-0.4-0.6-1-1.1-1.7-1.4c-0.4-0.1-0.7-0.2-1.1-0.2l-1.2,0
		c-1.6,0-3.2-0.1-4.8-0.1c-3.2-0.1-6.4-0.1-9.5-0.2c-6.2-0.1-12.3-0.3-18.2-0.4h-0.2l-0.1-0.2c-5.9-14.1-11.4-27.3-16.3-39.1
		l-0.9-2.2c-0.3-0.7-0.8-1.3-1.4-1.6c-0.7-0.4-1.3-0.5-2.1-0.5c-0.8,0-1.5,0-2.3,0c-3,0-5.9-0.1-8.7-0.1c-5.6-0.1-10.8-0.1-15.5-0.1
		c-9.4-0.1-16.9-0.2-22.1-0.2c-1.3,0-2.4,0-3.4-0.1c-0.5,0-1,0-1.4,0c-0.9,0.1-1.6,0.9-1.5,1.8c0,0,0,0,0,0
		C151.7,213,151.7,213.1,151.7,213.1L151.7,213.1z"/>
	<path class="st7" d="M225.8,259.2c0,0-0.1-0.2-0.3-0.5c-0.2-0.4-0.4-0.8-0.6-1.4c-0.6-1.3-1.3-3-2.2-5.1
		c-1.9-4.3-4.4-10.3-7.2-16.9c-2.7-6.6-5.2-12.7-6.8-17.1c-0.8-2.2-1.5-4-1.9-5.2c-0.2-0.5-0.3-1-0.5-1.4c-0.1-0.3-0.2-0.5-0.1-0.5
		c0,0,0.1,0.2,0.2,0.5c0.2,0.4,0.3,0.8,0.6,1.4c0.5,1.3,1.2,3,2.1,5.2c1.8,4.4,4.3,10.4,7,17c2.7,6.6,5.2,12.6,7,17
		c0.9,2.1,1.6,3.9,2.1,5.2c0.2,0.6,0.4,1,0.5,1.4C225.8,259.1,225.9,259.2,225.8,259.2L225.8,259.2z"/>
	<path class="st12" d="M191.1,233.8c0,1.5-1.2,2.7-2.7,2.8c0,0,0,0,0,0c-1.5,0-2.7-1.2-2.8-2.7c0,0,0,0,0,0c0-1.5,1.2-2.7,2.7-2.8
		c0,0,0,0,0,0C189.8,231,191.1,232.2,191.1,233.8C191.1,233.8,191.1,233.8,191.1,233.8z"/>
	<path class="st3" d="M316.1,167.9l-7-12.4c3.2-5.2,4.9-11.3,4.9-17.4c0-18.4-14.9-33.2-33.2-33.2c-18.4,0-33.2,14.9-33.2,33.2
		c0,18.4,14.9,33.2,33.2,33.2c7.7,0,14.7-2.6,20.3-7l0,0L316.1,167.9L316.1,167.9z"/>
	<path class="st6" d="M316.1,167.9c-0.9-0.2-5.6-1.3-15.1-3.4c-0.1,0-0.1-0.1-0.1-0.2c0,0,0,0,0-0.1l0,0l0.2,0.2
		c-4.6,3.6-10.1,5.9-16,6.7c-1.7,0.2-3.5,0.4-5.3,0.3c-0.9-0.1-1.8-0.1-2.8-0.1c-0.9-0.1-1.9-0.3-2.8-0.4c-4-0.8-7.8-2.3-11.2-4.4
		c-3.7-2.3-7-5.4-9.6-8.9c-2.7-3.7-4.7-8.1-5.6-12.9c-1-4.9-0.8-10,0.4-14.8c1.3-4.9,3.6-9.7,7.1-13.7c3.6-4,8-7.3,12.8-9.2
		c4.7-1.9,9.8-2.7,14.9-2.3c4.9,0.4,9.6,1.8,13.7,4.1c3.9,2.2,7.4,5.1,10.1,8.7c2.5,3.2,4.4,6.9,5.7,10.8c1.1,3.7,1.5,7.4,1.4,10.8
		c-0.2,6.9-2.5,12.5-5,16.5v-0.1C313.6,163.3,315.7,167.1,316.1,167.9l-7.2-12.4c0,0,0-0.1,0-0.1c2.4-4,4.7-9.6,4.8-16.4
		c0-3.4-0.3-7-1.5-10.7c-2.6-8.1-8.2-15-15.6-19.1c-4-2.2-8.6-3.6-13.5-4c-5-0.4-10,0.4-14.7,2.3c-4.8,1.8-9.1,5-12.6,9
		c-3.5,3.9-5.8,8.6-7,13.5c-1.2,4.9-1.3,9.9-0.4,14.6c0.9,4.7,2.9,9,5.5,12.7c2.5,3.5,5.7,6.5,9.4,8.8c3.4,2.1,7.1,3.6,11.1,4.4
		c0.9,0.1,1.9,0.3,2.8,0.4c0.9,0.1,1.8,0.1,2.7,0.2c1.8,0.1,3.5,0,5.2-0.2c5.8-0.8,11.2-3,15.8-6.6c0.1,0,0.1,0,0.2,0
		c0,0,0,0.1,0,0.2l0,0l-0.1-0.2C310.6,166.6,315.2,167.7,316.1,167.9L316.1,167.9z"/>
	<path class="st6" d="M273.2,139.4v3.2h-1.6v-3c0-0.9-0.4-1.3-1.1-1.3c-0.7,0-1.2,0.5-1.2,1.5v2.8h-1.6v-3c0-0.9-0.4-1.3-1.1-1.3
		c-0.7,0-1.2,0.5-1.2,1.5v2.8h-1.6V137h1.5v0.6c0.4-0.5,1-0.7,1.8-0.7c0.8,0,1.4,0.3,1.8,0.9c0.4-0.6,1.2-0.9,2-0.9
		C272.2,137,273.2,137.7,273.2,139.4L273.2,139.4z M284.1,139.4v3.2h-1.6v-3c0-0.9-0.4-1.3-1.1-1.3c-0.7,0-1.2,0.5-1.2,1.5v2.8h-1.6
		v-3c0-0.9-0.4-1.3-1.1-1.3c-0.7,0-1.2,0.5-1.2,1.5v2.8h-1.6V137h1.5v0.6c0.4-0.5,1-0.7,1.8-0.7c0.8,0,1.4,0.3,1.8,0.9
		c0.4-0.6,1.2-0.9,2-0.9C283.1,137,284.1,137.7,284.1,139.4L284.1,139.4z M295,139.4v3.2h-1.6v-3c0-0.9-0.4-1.3-1.1-1.3
		c-0.7,0-1.2,0.5-1.2,1.5v2.8h-1.6v-3c0-0.9-0.4-1.3-1.1-1.3c-0.7,0-1.2,0.5-1.2,1.5v2.8h-1.6V137h1.5v0.6c0.4-0.5,1-0.7,1.8-0.7
		c0.8,0,1.4,0.3,1.8,0.9c0.4-0.6,1.2-0.9,2-0.9C294,137,295,137.7,295,139.4L295,139.4z M296,141.7c0-0.6,0.5-1,1-1c0.6,0,1,0.4,1,1
		c0,0.5-0.4,1-1,1c0,0,0,0,0,0C296.5,142.7,296,142.3,296,141.7C296,141.7,296,141.7,296,141.7z M298.7,141.7c0-0.6,0.5-1,1-1
		c0.6,0,1,0.4,1,1c0,0.5-0.4,1-1,1c0,0,0,0,0,0C299.2,142.7,298.7,142.3,298.7,141.7C298.7,141.7,298.7,141.7,298.7,141.7z
		 M301.5,141.7c0-0.6,0.5-1,1-1c0.6,0,1,0.4,1,1c0,0.5-0.4,1-1,1c0,0,0,0,0,0C301.9,142.7,301.5,142.3,301.5,141.7
		C301.5,141.7,301.5,141.7,301.5,141.7z M480.7,448.4c0,0.1-104.1,0.3-232.6,0.3c-128.5,0-232.6-0.1-232.6-0.3s104.1-0.3,232.6-0.3
		C376.6,448.1,480.7,448.2,480.7,448.4z"/>
</g>
</svg>
