<svg width="658" height="946" viewBox="0 0 658 946" fill="none" xmlns="http://www.w3.org/2000/svg">
<path d="M551.11 78.0423C551.11 100.656 541.475 121.019 526.086 135.25C509.219 150.847 492.047 169.779 492.047 192.752V244.967C492.047 270.668 511.936 291.487 536.103 300.234C606.623 325.756 657.015 393.314 657.015 472.641C657.015 552.239 606.278 619.987 535.379 645.308C511.075 653.988 491.029 674.859 491.029 700.666V751.736C491.029 774.961 508.566 794.035 525.718 809.694C541.321 823.94 551.11 844.447 551.11 867.24C551.11 910.263 516.232 945.141 473.209 945.141C430.185 945.141 395.307 910.263 395.307 867.24C395.307 844.626 404.942 824.263 420.332 810.032C437.198 794.435 454.37 775.502 454.37 752.53V699.958C454.37 674.364 434.644 653.598 410.614 644.787C405.394 642.873 400.285 640.728 395.3 638.365C372.005 627.323 343.117 627.935 324.887 646.164L288.46 682.592C272.037 699.015 270.951 724.902 272.006 748.104C272.965 769.21 265.387 790.632 249.27 806.749C218.847 837.171 169.523 837.171 139.101 806.749C108.678 776.327 108.678 727.002 139.101 696.58C155.091 680.589 176.303 673.004 197.247 673.823C220.202 674.72 245.732 673.475 261.976 657.231L299.393 619.814C317.494 601.713 318.232 573.078 307.435 549.868C305.13 544.914 303.04 539.84 301.177 534.658C292.465 510.422 271.622 490.461 245.867 490.461H194.113C170.888 490.461 151.815 507.999 136.155 525.15C121.909 540.753 101.403 550.542 78.6099 550.542C35.5862 550.542 0.708496 515.665 0.708496 472.641C0.708496 429.617 35.5862 394.739 78.6099 394.739C101.223 394.739 121.586 404.375 135.818 419.764C151.414 436.63 170.347 453.802 193.319 453.802H246.221C271.869 453.802 292.661 433.998 301.44 409.9C303.324 404.725 305.436 399.66 307.762 394.716C318.702 371.456 318.037 342.672 299.861 324.496L263.257 287.892C246.835 271.469 220.947 270.383 197.746 271.438C176.639 272.398 155.217 264.819 139.1 248.702C108.678 218.28 108.678 168.955 139.1 138.533C169.523 108.111 218.847 108.111 249.27 138.533C265.26 154.523 272.845 175.735 272.027 196.68C271.129 219.634 272.374 245.164 288.618 261.408L325.857 298.647C344.011 316.801 372.751 317.488 395.996 306.589C400.991 304.247 406.11 302.123 411.338 300.231C435.506 291.485 455.388 270.668 455.388 244.967V193.546C455.388 170.321 437.851 151.247 420.699 135.588C405.096 121.342 395.307 100.835 395.307 78.0423C395.307 35.0185 430.185 0.140869 473.209 0.140869C516.232 0.140869 551.11 35.0185 551.11 78.0423Z" fill="#E1E5F4"/>
<path d="M549.61 78.0423C549.61 100.22 540.162 120.19 525.067 134.149C508.236 149.713 490.547 169.054 490.547 192.752V244.967C490.547 271.499 511.044 292.759 535.593 301.644C605.537 326.958 655.515 393.965 655.515 472.641C655.515 551.585 605.195 618.781 534.875 643.896C510.188 652.712 489.529 674.024 489.529 700.666V751.736C489.529 775.694 507.592 795.177 524.706 810.802C540.011 824.775 549.61 844.885 549.61 867.24C549.61 909.435 515.404 943.641 473.209 943.641C431.013 943.641 396.807 909.435 396.807 867.24C396.807 845.061 406.255 825.092 421.35 811.133C438.181 795.568 455.87 776.228 455.87 752.53V699.958C455.87 673.536 435.541 652.329 411.131 643.379C405.954 641.48 400.887 639.353 395.943 637.009C372.278 625.792 342.645 626.285 323.827 645.104L287.399 681.531C270.458 698.473 269.454 725.022 270.507 748.172C271.449 768.875 264.016 789.882 248.209 805.688C218.372 835.525 169.998 835.525 140.161 805.688C110.325 775.852 110.325 727.477 140.161 697.64C155.844 681.958 176.644 674.518 197.189 675.322C220.096 676.217 246.279 675.049 263.037 658.292L300.454 620.875C319.14 602.189 319.764 572.814 308.795 549.235C306.509 544.322 304.437 539.29 302.589 534.151C293.739 509.532 272.454 488.961 245.867 488.961H194.113C170.155 488.961 150.673 507.025 135.047 524.139C121.074 539.444 100.964 549.042 78.6099 549.042C36.4146 549.042 2.2085 514.836 2.2085 472.641C2.2085 430.445 36.4146 396.239 78.6099 396.239C100.788 396.239 120.757 405.687 134.716 420.782C150.281 437.614 169.621 455.302 193.319 455.302H246.221C272.698 455.302 293.932 434.893 302.849 410.413C304.718 405.282 306.812 400.258 309.119 395.354C320.233 371.725 319.685 342.199 300.922 323.435L264.318 286.831C247.377 269.89 220.828 268.887 197.678 269.94C176.975 270.881 155.968 263.448 140.161 247.642C110.324 217.805 110.324 169.43 140.161 139.593C169.998 109.757 218.372 109.757 248.209 139.593C263.891 155.276 271.331 176.077 270.528 196.621C269.632 219.529 270.8 245.712 287.557 262.469L324.796 299.708C343.537 318.448 373.018 319.019 396.633 307.947C401.587 305.624 406.663 303.518 411.849 301.642C436.398 292.758 456.888 271.499 456.888 244.967V193.546C456.888 169.588 438.824 150.105 421.71 134.48C406.406 120.506 396.807 100.396 396.807 78.0423C396.807 35.847 431.013 1.64087 473.209 1.64087C515.404 1.64087 549.61 35.847 549.61 78.0423Z" stroke="#264FDA" stroke-opacity="0.1" stroke-width="3"/>
<circle cx="473.718" cy="868.767" r="66.1907" fill="#D4DBF4"/>
<circle cx="473.719" cy="868.767" r="54.1561" fill="#92A7F2"/>
<circle cx="473.718" cy="868.768" r="44.1272" fill="#264FDA"/>
<mask id="mask0_260_1626" style="mask-type:alpha" maskUnits="userSpaceOnUse" x="449" y="844" width="49" height="49">
<rect x="449.649" y="844.698" width="48.1387" height="48.1387" fill="#D9D9D9"/>
</mask>
<g mask="url(#mask0_260_1626)">
<path d="M461.684 890.831C460.012 890.831 458.591 890.246 457.421 889.076C456.251 887.906 455.666 886.485 455.666 884.813C455.666 883.142 456.251 881.721 457.421 880.551C458.591 879.381 460.012 878.796 461.684 878.796C462.152 878.796 462.586 878.846 462.987 878.946C463.389 879.047 463.773 879.18 464.141 879.348L466.999 875.787C466.063 874.751 465.411 873.581 465.043 872.277C464.676 870.973 464.592 869.67 464.793 868.366L460.731 867.012C460.163 867.848 459.444 868.516 458.575 869.018C457.705 869.519 456.736 869.77 455.666 869.77C453.995 869.77 452.574 869.185 451.404 868.015C450.234 866.845 449.649 865.424 449.649 863.753C449.649 862.081 450.234 860.66 451.404 859.49C452.574 858.32 453.995 857.735 455.666 857.735C457.338 857.735 458.759 858.32 459.929 859.49C461.099 860.66 461.684 862.081 461.684 863.753V864.154L465.745 865.558C466.414 864.354 467.308 863.335 468.429 862.499C469.548 861.663 470.81 861.128 472.214 860.894V856.532C470.91 856.164 469.832 855.453 468.979 854.4C468.127 853.347 467.701 852.119 467.701 850.715C467.701 849.044 468.286 847.623 469.456 846.453C470.626 845.283 472.047 844.698 473.718 844.698C475.39 844.698 476.811 845.283 477.981 846.453C479.151 847.623 479.736 849.044 479.736 850.715C479.736 852.119 479.301 853.347 478.432 854.4C477.563 855.453 476.493 856.164 475.223 856.532V860.894C476.627 861.128 477.889 861.663 479.01 862.499C480.129 863.335 481.023 864.354 481.691 865.558L485.753 864.154V863.753C485.753 862.081 486.338 860.66 487.508 859.49C488.678 858.32 490.099 857.735 491.77 857.735C493.442 857.735 494.863 858.32 496.033 859.49C497.203 860.66 497.788 862.081 497.788 863.753C497.788 865.424 497.203 866.845 496.033 868.015C494.863 869.185 493.442 869.77 491.77 869.77C490.701 869.77 489.723 869.519 488.838 869.018C487.951 868.516 487.241 867.848 486.706 867.012L482.644 868.366C482.845 869.67 482.761 870.965 482.393 872.251C482.026 873.539 481.374 874.718 480.438 875.787L483.296 879.297C483.664 879.13 484.048 879.005 484.449 878.92C484.85 878.837 485.285 878.796 485.753 878.796C487.424 878.796 488.845 879.381 490.015 880.551C491.185 881.721 491.77 883.142 491.77 884.813C491.77 886.485 491.185 887.906 490.015 889.076C488.845 890.246 487.424 890.831 485.753 890.831C484.081 890.831 482.661 890.246 481.491 889.076C480.321 887.906 479.736 886.485 479.736 884.813C479.736 884.145 479.845 883.502 480.063 882.884C480.279 882.265 480.571 881.704 480.939 881.203L478.081 877.643C476.71 878.412 475.248 878.796 473.694 878.796C472.139 878.796 470.676 878.412 469.306 877.643L466.497 881.203C466.865 881.704 467.158 882.265 467.376 882.884C467.593 883.502 467.701 884.145 467.701 884.813C467.701 886.485 467.116 887.906 465.946 889.076C464.776 890.246 463.355 890.831 461.684 890.831ZM455.666 865.758C456.235 865.758 456.711 865.566 457.096 865.181C457.48 864.797 457.672 864.321 457.672 863.753C457.672 863.184 457.48 862.708 457.096 862.323C456.711 861.939 456.235 861.747 455.666 861.747C455.098 861.747 454.622 861.939 454.238 862.323C453.853 862.708 453.66 863.184 453.66 863.753C453.66 864.321 453.853 864.797 454.238 865.181C454.622 865.566 455.098 865.758 455.666 865.758ZM461.684 886.819C462.252 886.819 462.729 886.627 463.114 886.241C463.497 885.858 463.689 885.382 463.689 884.813C463.689 884.245 463.497 883.769 463.114 883.385C462.729 883 462.252 882.808 461.684 882.808C461.115 882.808 460.639 883 460.253 883.385C459.87 883.769 459.678 884.245 459.678 884.813C459.678 885.382 459.87 885.858 460.253 886.241C460.639 886.627 461.115 886.819 461.684 886.819ZM473.718 852.721C474.287 852.721 474.763 852.528 475.148 852.143C475.532 851.759 475.724 851.283 475.724 850.715C475.724 850.147 475.532 849.67 475.148 849.285C474.763 848.901 474.287 848.709 473.718 848.709C473.15 848.709 472.674 848.901 472.29 849.285C471.905 849.67 471.713 850.147 471.713 850.715C471.713 851.283 471.905 851.759 472.29 852.143C472.674 852.528 473.15 852.721 473.718 852.721ZM473.718 874.784C475.122 874.784 476.309 874.3 477.279 873.33C478.248 872.361 478.733 871.174 478.733 869.77C478.733 868.366 478.248 867.179 477.279 866.21C476.309 865.24 475.122 864.756 473.718 864.756C472.314 864.756 471.127 865.24 470.158 866.21C469.189 867.179 468.704 868.366 468.704 869.77C468.704 871.174 469.189 872.361 470.158 873.33C471.127 874.3 472.314 874.784 473.718 874.784ZM485.753 886.819C486.321 886.819 486.797 886.627 487.181 886.241C487.566 885.858 487.759 885.382 487.759 884.813C487.759 884.245 487.566 883.769 487.181 883.385C486.797 883 486.321 882.808 485.753 882.808C485.185 882.808 484.709 883 484.325 883.385C483.94 883.769 483.747 884.245 483.747 884.813C483.747 885.382 483.94 885.858 484.325 886.241C484.709 886.627 485.185 886.819 485.753 886.819ZM491.77 865.758C492.339 865.758 492.815 865.566 493.198 865.181C493.584 864.797 493.776 864.321 493.776 863.753C493.776 863.184 493.584 862.708 493.198 862.323C492.815 861.939 492.339 861.747 491.77 861.747C491.202 861.747 490.726 861.939 490.342 862.323C489.957 862.708 489.765 863.184 489.765 863.753C489.765 864.321 489.957 864.797 490.342 865.181C490.726 865.566 491.202 865.758 491.77 865.758Z" fill="white"/>
</g>
<circle cx="195.717" cy="752.679" r="66.1907" fill="#D4DBF4"/>
<circle cx="195.717" cy="752.679" r="54.1561" fill="#92A7F2"/>
<circle cx="195.717" cy="752.678" r="44.1272" fill="#264FDA"/>
<circle cx="78.6102" cy="472.641" r="66.1907" fill="#D4DBF4"/>
<circle cx="78.6106" cy="472.641" r="54.1561" fill="#92A7F2"/>
<circle cx="78.6101" cy="472.641" r="44.1272" fill="#264FDA"/>
<mask id="mask1_260_1626" style="mask-type:alpha" maskUnits="userSpaceOnUse" x="170" y="729" width="49" height="49">
<rect x="170" y="729" width="48.1387" height="48.1387" fill="#D9D9D9"/>
</mask>
<g mask="url(#mask1_260_1626)">
<path d="M184.041 763.098H188.052V753.07H184.041V763.098ZM200.087 763.098H204.098V743.041H200.087V763.098ZM192.064 763.098H196.075V757.081H192.064V763.098ZM192.064 753.07H196.075V749.058H192.064V753.07ZM180.029 771.122C178.926 771.122 177.981 770.729 177.195 769.944C176.41 769.158 176.018 768.213 176.018 767.11V739.029C176.018 737.926 176.41 736.981 177.195 736.195C177.981 735.41 178.926 735.018 180.029 735.018H208.11C209.213 735.018 210.158 735.41 210.944 736.195C211.729 736.981 212.122 737.926 212.122 739.029V767.11C212.122 768.213 211.729 769.158 210.944 769.944C210.158 770.729 209.213 771.122 208.11 771.122H180.029ZM180.029 767.11H208.11V739.029H180.029V767.11Z" fill="white"/>
</g>
<circle cx="191.643" cy="191.585" r="66.1907" fill="#D4DBF4"/>
<circle cx="191.642" cy="191.585" r="54.1561" fill="#92A7F2"/>
<circle cx="191.643" cy="191.585" r="44.1272" fill="#264FDA"/>
<mask id="mask2_260_1626" style="mask-type:alpha" maskUnits="userSpaceOnUse" x="55" y="449" width="49" height="49">
<rect x="55" y="449" width="48.1387" height="48.1387" fill="#D9D9D9"/>
</mask>
<g mask="url(#mask2_260_1626)">
<path d="M85.6896 482.496L88.4977 479.688L81.0763 472.267V463.04H77.0647V473.872L85.6896 482.496ZM79.0705 493.127C76.2958 493.127 73.6883 492.6 71.248 491.547C68.8076 490.494 66.6848 489.065 64.8796 487.26C63.0744 485.455 61.6456 483.332 60.5932 480.892C59.5395 478.451 59.0127 475.844 59.0127 473.069C59.0127 470.295 59.5395 467.687 60.5932 465.247C61.6456 462.806 63.0744 460.684 64.8796 458.878C66.6848 457.073 68.8076 455.644 71.248 454.59C73.6883 453.538 76.2958 453.011 79.0705 453.011C81.8452 453.011 84.4527 453.538 86.893 454.59C89.3334 455.644 91.4562 457.073 93.2614 458.878C95.0666 460.684 96.4954 462.806 97.5477 465.247C98.6014 467.687 99.1283 470.295 99.1283 473.069C99.1283 475.844 98.6014 478.451 97.5477 480.892C96.4954 483.332 95.0666 485.455 93.2614 487.26C91.4562 489.065 89.3334 490.494 86.893 491.547C84.4527 492.6 81.8452 493.127 79.0705 493.127ZM79.0705 489.116C83.5166 489.116 87.3029 487.553 90.4292 484.428C93.5542 481.302 95.1167 477.515 95.1167 473.069C95.1167 468.623 93.5542 464.837 90.4292 461.711C87.3029 458.586 83.5166 457.023 79.0705 457.023C74.6243 457.023 70.8388 458.586 67.7138 461.711C64.5874 464.837 63.0243 468.623 63.0243 473.069C63.0243 477.515 64.5874 481.302 67.7138 484.428C70.8388 487.553 74.6243 489.116 79.0705 489.116Z" fill="white"/>
</g>
<circle cx="472.699" cy="75.4964" r="66.1907" fill="#D4DBF4"/>
<circle cx="472.699" cy="75.4964" r="54.1561" fill="#92A7F2"/>
<circle cx="472.699" cy="75.4965" r="44.1272" fill="#264FDA"/>
<mask id="mask3_260_1626" style="mask-type:alpha" maskUnits="userSpaceOnUse" x="449" y="51" width="49" height="49">
<rect x="449" y="51" width="48.1387" height="48.1387" fill="#D9D9D9"/>
</mask>
<g mask="url(#mask3_260_1626)">
<path d="M455.018 79.0807V75.0691C457.491 75.0691 459.823 74.5924 462.014 73.639C464.203 72.6869 466.116 71.3918 467.754 69.7538C469.392 68.1157 470.688 66.2016 471.641 64.0112C472.594 61.8223 473.07 59.4909 473.07 57.0171H477.081C477.081 60.0592 476.504 62.9174 475.35 65.5918C474.198 68.2662 472.618 70.6062 470.613 72.612C468.607 74.6178 466.267 76.197 463.592 77.3497C460.918 78.5037 458.06 79.0807 455.018 79.0807ZM455.018 71.0575V67.046C457.792 67.046 460.157 66.0678 462.112 64.1115C464.068 62.1566 465.046 59.7918 465.046 57.0171H469.058C469.058 60.8949 467.687 64.2045 464.946 66.9457C462.205 69.6869 458.895 71.0575 455.018 71.0575ZM455.018 63.0344V57.0171H461.035C461.035 58.6886 460.45 60.1093 459.28 61.2794C458.11 62.4494 456.689 63.0344 455.018 63.0344ZM469.058 93.1211C469.058 90.079 469.635 87.2208 470.789 84.5464C471.942 81.872 473.521 79.532 475.527 77.5262C477.532 75.5204 479.873 73.9412 482.547 72.7885C485.221 71.6345 488.08 71.0575 491.122 71.0575V75.0691C488.648 75.0691 486.316 75.5451 484.127 76.4972C481.937 77.4506 480.023 78.7464 478.385 80.3844C476.747 82.0225 475.452 83.936 474.5 86.125C473.546 88.3153 473.07 90.6473 473.07 93.1211H469.058ZM477.081 93.1211C477.081 89.2433 478.452 85.9337 481.193 83.1925C483.934 80.4513 487.244 79.0807 491.122 79.0807V83.0922C488.347 83.0922 485.981 84.0697 484.025 86.0247C482.07 87.981 481.093 90.3465 481.093 93.1211H477.081ZM485.104 93.1211C485.104 91.4496 485.689 90.0289 486.859 88.8588C488.029 87.6888 489.45 87.1038 491.122 87.1038V93.1211H485.104Z" fill="white"/>
</g>
<mask id="mask4_260_1626" style="mask-type:alpha" maskUnits="userSpaceOnUse" x="168" y="168" width="49" height="49">
<rect x="168" y="168" width="48.1387" height="48.1387" fill="#D9D9D9"/>
</mask>
<g mask="url(#mask4_260_1626)">
<path d="M197.904 210.121C192.814 210.121 188.502 208.373 184.969 204.875C181.436 201.377 179.67 197.109 179.67 192.069C179.67 187.067 181.436 182.808 184.969 179.291C188.502 175.775 192.814 174.017 197.904 174.017C202.957 174.017 207.259 175.775 210.812 179.291C214.363 182.808 216.139 187.067 216.139 192.069C216.139 197.109 214.363 201.377 210.812 204.875C207.259 208.373 202.957 210.121 197.904 210.121ZM197.904 205.608C201.703 205.608 204.932 204.292 207.591 201.659C210.25 199.027 211.58 195.83 211.58 192.069C211.58 188.309 210.25 185.112 207.591 182.479C204.932 179.847 201.703 178.53 197.904 178.53C194.105 178.53 190.876 179.847 188.217 182.479C185.558 185.112 184.229 188.309 184.229 192.069C184.229 195.83 185.558 199.027 188.217 201.659C190.876 204.292 194.105 205.608 197.904 205.608ZM203.09 200.475L206.338 197.259L200.184 191.167V183.043H195.625V193.028L203.09 200.475ZM168.273 185.3V180.787H177.391V185.3H168.273ZM165.994 194.326V189.813H177.391V194.326H165.994ZM168.273 203.352V198.839H177.391V203.352H168.273Z" fill="white"/>
</g>
<circle cx="470.663" cy="472.641" r="149.693" fill="white" fill-opacity="0.5"/>
<circle cx="470.663" cy="472.641" r="126.272" fill="white" fill-opacity="0.5"/>
<circle cx="470.663" cy="472.641" r="99.7953" fill="white" fill-opacity="0.5"/>
<path fill-rule="evenodd" clip-rule="evenodd" d="M438.983 434.266C450.107 411.314 473.552 402.93 493.098 407.771C512.566 412.591 530.018 431.426 529.565 456.436C530.822 456.747 532.087 457.017 533.348 457.286C536.048 457.861 538.728 458.433 541.27 459.391C555.529 464.764 564.297 479.467 562.847 494.673C561.24 511.521 549.535 524.022 533.832 526.217C532.077 526.461 530.287 526.59 528.517 526.59C491.202 526.612 453.879 526.619 416.563 526.604C394.626 526.597 377.606 508.551 379.106 486.281C380.147 470.817 388.044 459.786 402.099 453.481L402.23 453.423C403.168 453.007 403.938 452.666 404.229 451.33C407.597 436.009 423.711 427.244 438.261 434.008C438.392 434.075 438.531 434.119 438.724 434.181C438.8 434.206 438.886 434.234 438.983 434.266ZM451.628 503.337H409.189V490.664H440.093C442.796 495.835 446.788 500.203 451.628 503.337ZM495.518 486.052C496.954 482.623 497.747 478.85 497.747 474.884C497.747 474.835 497.747 474.785 497.746 474.735L497.746 474.712C497.745 474.539 497.743 474.363 497.754 474.174C497.747 474.102 497.747 474.031 497.747 473.959C497.74 473.809 497.733 473.658 497.726 473.5C497.726 473.413 497.72 473.333 497.713 473.247L497.712 473.227C497.705 473.069 497.698 472.919 497.683 472.761C497.683 472.711 497.676 472.661 497.669 472.611C497.669 472.6 497.667 472.589 497.666 472.578C497.665 472.572 497.664 472.566 497.663 472.56C497.662 472.555 497.662 472.551 497.662 472.546C497.648 472.36 497.634 472.173 497.613 471.986C497.613 471.978 497.612 471.971 497.611 471.963C497.611 471.958 497.61 471.952 497.609 471.947C497.607 471.934 497.606 471.922 497.606 471.908L497.6 471.854C497.581 471.663 497.561 471.467 497.535 471.276V471.262C497.535 471.252 497.533 471.242 497.532 471.231C497.53 471.219 497.528 471.206 497.528 471.19C497.499 470.968 497.471 470.746 497.436 470.523C497.436 470.493 497.431 470.467 497.425 470.438L497.422 470.423C497.418 470.412 497.416 470.401 497.414 470.391C497.413 470.38 497.411 470.369 497.407 470.358C497.386 470.208 497.365 470.064 497.337 469.921C497.337 469.892 497.33 469.863 497.322 469.835C497.322 469.806 497.315 469.77 497.308 469.741C497.289 469.634 497.267 469.526 497.245 469.42L497.245 469.418C497.228 469.334 497.211 469.25 497.195 469.168C497.195 469.162 497.195 469.157 497.194 469.152C497.192 469.139 497.188 469.128 497.188 469.117C497.188 469.096 497.181 469.074 497.174 469.053C497.173 469.051 497.172 469.048 497.171 469.046C497.169 469.04 497.168 469.034 497.167 469.028L497.165 469.02C497.164 469.014 497.162 469.008 497.16 469.003C497.144 468.907 497.12 468.804 497.098 468.704C497.09 468.669 497.082 468.635 497.075 468.601C497.061 468.565 497.054 468.529 497.046 468.493C497.032 468.436 497.018 468.371 497.004 468.307C496.962 468.106 496.912 467.905 496.862 467.712C496.859 467.705 496.856 467.699 496.854 467.693C496.851 467.685 496.848 467.677 496.848 467.669L496.847 467.665C496.791 467.451 496.735 467.237 496.678 467.03C496.66 466.967 496.642 466.905 496.623 466.843C496.613 466.81 496.603 466.777 496.594 466.743C496.565 466.648 496.537 466.553 496.509 466.456C496.466 466.32 496.424 466.184 496.381 466.055C496.367 466.005 496.353 465.954 496.332 465.904C496.296 465.783 496.254 465.661 496.212 465.54L496.211 465.538L496.126 465.302C496.112 465.266 496.1 465.23 496.088 465.194C496.075 465.158 496.063 465.122 496.049 465.087C496.027 465.015 495.999 464.943 495.971 464.871C495.907 464.685 495.836 464.498 495.766 464.319C495.718 464.19 495.665 464.061 495.611 463.932L495.572 463.836C495.558 463.803 495.545 463.771 495.532 463.738C495.44 463.523 495.348 463.308 495.256 463.1C495.178 462.913 495.093 462.72 495.001 462.533L494.938 462.404C494.899 462.322 494.858 462.241 494.817 462.16C494.777 462.079 494.736 461.999 494.697 461.916C494.695 461.911 494.693 461.906 494.691 461.901C494.687 461.892 494.682 461.883 494.676 461.873L494.671 461.863C494.668 461.857 494.665 461.851 494.662 461.845C494.57 461.665 494.478 461.486 494.386 461.314C494.365 461.266 494.34 461.223 494.315 461.178L494.314 461.177L494.314 461.176C494.305 461.16 494.296 461.144 494.287 461.127C494.216 460.998 494.145 460.869 494.067 460.74C493.919 460.475 493.763 460.209 493.607 459.951C493.515 459.8 493.423 459.65 493.324 459.499C493.31 459.47 493.296 459.442 493.275 459.413C493.197 459.283 493.112 459.156 493.028 459.03C493.01 459.002 492.991 458.974 492.972 458.946C492.96 458.927 492.947 458.908 492.935 458.89C492.829 458.732 492.723 458.574 492.616 458.423C492.585 458.38 492.554 458.337 492.524 458.294C492.494 458.251 492.464 458.208 492.432 458.165C492.362 458.065 492.291 457.964 492.213 457.864C492.171 457.799 492.128 457.742 492.079 457.677C492.022 457.602 491.964 457.527 491.905 457.451C491.847 457.376 491.788 457.301 491.732 457.225C491.633 457.096 491.534 456.974 491.428 456.845L491.215 456.587C491.215 456.58 491.208 456.573 491.201 456.566L491.155 456.51C491.059 456.394 490.966 456.282 490.868 456.171C490.741 456.021 490.614 455.877 490.486 455.734L490.472 455.719C490.316 455.54 490.154 455.361 489.991 455.189L489.956 455.153L489.945 455.142C489.786 454.974 489.634 454.812 489.474 454.658C489.305 454.486 489.129 454.314 488.952 454.143L488.951 454.141C488.831 454.025 488.708 453.911 488.586 453.799L488.55 453.766C488.504 453.724 488.458 453.682 488.413 453.639C488.314 453.546 488.201 453.446 488.094 453.352C488.024 453.285 487.953 453.225 487.882 453.164C487.847 453.134 487.811 453.104 487.776 453.073C487.663 452.972 487.557 452.879 487.443 452.786C487.139 452.535 486.828 452.284 486.509 452.047C486.424 451.979 486.336 451.914 486.247 451.847C486.196 451.809 486.143 451.771 486.092 451.731C485.957 451.631 485.823 451.531 485.688 451.437L485.285 451.158C485.24 451.128 485.195 451.097 485.149 451.067C485.074 451.015 484.996 450.963 484.917 450.914C484.91 450.907 484.901 450.901 484.892 450.896C484.883 450.89 484.874 450.885 484.867 450.878C484.79 450.821 484.705 450.763 484.62 450.713C484.485 450.62 484.344 450.534 484.202 450.448C484.082 450.369 483.962 450.297 483.834 450.225C483.778 450.189 483.728 450.161 483.679 450.132C483.53 450.039 483.375 449.953 483.219 449.867C483.155 449.831 483.089 449.795 483.024 449.759L482.945 449.716C482.906 449.694 482.867 449.673 482.829 449.651C482.808 449.64 482.786 449.628 482.764 449.616C482.746 449.606 482.728 449.597 482.709 449.587C482.668 449.565 482.628 449.544 482.589 449.522L482.207 449.329C481.86 449.157 481.513 448.984 481.166 448.827C481.131 448.812 481.088 448.791 481.053 448.776L480.522 448.54H480.515L479.942 448.303L479.454 448.109C479.44 448.109 479.418 448.102 479.404 448.095L479.064 447.966V462.225C479.192 462.318 479.319 462.418 479.447 462.526C479.534 462.595 479.618 462.667 479.703 462.74C479.742 462.773 479.782 462.808 479.822 462.842C479.829 462.856 479.836 462.863 479.85 462.87L479.888 462.904C479.994 462.999 480.095 463.09 480.197 463.186L480.275 463.265C480.395 463.372 480.508 463.487 480.621 463.602C480.749 463.724 480.869 463.853 480.989 463.982L480.996 463.989C481.11 464.111 481.23 464.247 481.343 464.376C481.534 464.599 481.725 464.821 481.902 465.058C481.923 465.087 481.945 465.108 481.966 465.137C482.001 465.187 482.037 465.237 482.072 465.28V465.287C482.132 465.36 482.188 465.44 482.244 465.52C482.26 465.543 482.276 465.566 482.291 465.589C482.302 465.599 482.311 465.61 482.319 465.621C482.325 465.629 482.33 465.638 482.335 465.646C482.342 465.655 482.348 465.665 482.355 465.675C482.413 465.755 482.467 465.839 482.523 465.923C482.556 465.974 482.589 466.025 482.624 466.076C482.667 466.141 482.716 466.213 482.759 466.284C482.808 466.356 482.851 466.428 482.893 466.499L482.894 466.501C482.964 466.615 483.035 466.729 483.098 466.844C483.122 466.885 483.146 466.927 483.17 466.969L483.171 466.97C483.233 467.079 483.297 467.189 483.353 467.303C483.417 467.41 483.473 467.525 483.53 467.64C483.629 467.834 483.721 468.02 483.806 468.214C483.806 468.217 483.808 468.221 483.809 468.224L483.811 468.227C483.812 468.23 483.813 468.232 483.813 468.235C483.831 468.275 483.848 468.316 483.866 468.357C483.874 468.375 483.882 468.394 483.89 468.412C483.899 468.435 483.909 468.457 483.919 468.479C483.93 468.49 483.937 468.505 483.942 468.518C483.944 468.522 483.946 468.526 483.947 468.529C483.947 468.544 483.954 468.558 483.962 468.572C483.997 468.651 484.032 468.737 484.061 468.816C484.103 468.924 484.146 469.031 484.188 469.146C484.337 469.519 484.464 469.899 484.577 470.287C484.588 470.326 484.6 470.367 484.613 470.408C484.625 470.45 484.637 470.491 484.648 470.53C484.698 470.703 484.74 470.875 484.782 471.054L484.803 471.141C484.839 471.289 484.873 471.435 484.903 471.585C484.91 471.624 484.919 471.665 484.927 471.706C484.936 471.748 484.945 471.789 484.952 471.829C484.971 471.897 484.984 471.971 484.996 472.041L485.002 472.072V472.08L485.002 472.081C485.016 472.167 485.03 472.253 485.044 472.345C485.051 472.427 485.062 472.504 485.075 472.585L485.08 472.618C485.094 472.696 485.108 472.783 485.115 472.861L485.158 473.206C485.172 473.306 485.179 473.414 485.186 473.521C485.193 473.564 485.2 473.607 485.2 473.658L485.202 473.677C485.208 473.748 485.214 473.814 485.214 473.88C485.221 473.952 485.228 474.023 485.228 474.095C485.235 474.167 485.235 474.238 485.235 474.31C485.25 474.503 485.25 474.69 485.25 474.884C485.25 479.238 483.53 483.175 480.742 486.052H495.518ZM474.67 438.419V461.048C474.67 463.925 472.371 466.256 469.533 466.256C466.695 466.256 464.395 463.925 464.395 461.048V438.419C464.395 435.543 466.695 433.212 469.533 433.212C470.948 433.212 472.236 433.793 473.163 434.733C474.09 435.679 474.67 436.985 474.67 438.419ZM525 483.699L547.32 496.609L525.346 510.108L525.254 503.33H466.772C458.096 502.476 450.574 497.642 446.002 490.656C443.044 486.13 441.317 480.708 441.317 474.87C441.317 474.64 441.317 474.411 441.324 474.181C441.324 474.144 441.326 474.108 441.328 474.072C441.33 474.038 441.331 474.005 441.331 473.973C441.335 473.895 441.338 473.815 441.342 473.734C441.345 473.653 441.349 473.572 441.353 473.493C441.36 473.45 441.36 473.414 441.36 473.371C441.36 473.328 441.36 473.285 441.367 473.242V473.184C441.374 473.034 441.381 472.89 441.395 472.747V472.74C441.398 472.719 441.4 472.696 441.402 472.675C441.404 472.651 441.405 472.629 441.409 472.61C441.416 472.582 441.416 472.56 441.416 472.532L441.419 472.494C441.432 472.326 441.446 472.153 441.466 471.986C441.466 471.972 441.468 471.96 441.469 471.947C441.471 471.934 441.473 471.922 441.473 471.908L441.478 471.854C441.498 471.663 441.518 471.467 441.544 471.276V471.262C441.544 471.252 441.545 471.242 441.547 471.231C441.549 471.219 441.551 471.206 441.551 471.19C441.579 470.968 441.607 470.745 441.643 470.523C441.643 470.493 441.648 470.467 441.654 470.438C441.655 470.433 441.656 470.428 441.657 470.423C441.66 470.412 441.662 470.401 441.664 470.391C441.666 470.38 441.667 470.369 441.671 470.358C441.692 470.208 441.713 470.064 441.742 469.921C441.742 469.892 441.749 469.863 441.756 469.835C441.756 469.806 441.763 469.77 441.77 469.741C441.805 469.548 441.841 469.354 441.883 469.168C441.883 469.156 441.885 469.146 441.887 469.137C441.889 469.13 441.89 469.124 441.89 469.117C441.89 469.096 441.897 469.074 441.905 469.053C441.908 469.046 441.91 469.037 441.912 469.028C441.913 469.019 441.915 469.01 441.919 469.003C441.932 468.92 441.952 468.835 441.971 468.748C441.982 468.699 441.993 468.65 442.004 468.601C442.018 468.565 442.025 468.529 442.032 468.494C442.046 468.436 442.06 468.371 442.074 468.307C442.117 468.106 442.166 467.905 442.216 467.712C442.223 467.697 442.23 467.683 442.23 467.669C442.287 467.453 442.343 467.238 442.4 467.03C442.41 466.994 442.42 466.957 442.431 466.92C442.477 466.754 442.525 466.585 442.577 466.421C442.595 466.36 442.614 466.299 442.633 466.238C442.653 466.177 442.672 466.116 442.69 466.055C442.708 466.005 442.724 465.954 442.74 465.904C442.755 465.854 442.771 465.804 442.789 465.754C442.799 465.724 442.809 465.693 442.819 465.663C442.859 465.54 442.899 465.415 442.945 465.295C442.959 465.259 442.971 465.223 442.984 465.187C442.996 465.151 443.008 465.115 443.023 465.079C443.044 465.008 443.072 464.936 443.1 464.864C443.178 464.642 443.263 464.427 443.348 464.212C443.352 464.208 443.353 464.203 443.355 464.197C443.357 464.192 443.359 464.186 443.362 464.183C443.447 463.968 443.532 463.752 443.624 463.544C443.688 463.394 443.752 463.243 443.822 463.093C443.843 463.048 443.863 463.003 443.883 462.958C443.948 462.814 444.014 462.668 444.084 462.526L444.127 462.44C444.204 462.261 444.289 462.081 444.381 461.909C444.388 461.898 444.394 461.888 444.399 461.877C444.404 461.866 444.41 461.855 444.417 461.845C444.459 461.765 444.5 461.685 444.541 461.606C444.603 461.486 444.664 461.366 444.728 461.249C444.735 461.221 444.749 461.199 444.764 461.178L445.018 460.726C445.167 460.46 445.323 460.195 445.478 459.937C445.57 459.786 445.662 459.635 445.761 459.485C445.771 459.468 445.783 459.449 445.795 459.431C445.808 459.41 445.821 459.389 445.832 459.37C445.906 459.249 445.989 459.124 446.07 459.001C446.09 458.971 446.11 458.941 446.129 458.911C446.151 458.882 446.165 458.861 446.179 458.839C446.202 458.804 446.226 458.769 446.249 458.735C446.344 458.592 446.437 458.453 446.54 458.309C446.614 458.198 446.692 458.091 446.771 457.982C446.805 457.936 446.839 457.889 446.872 457.842C446.915 457.778 446.957 457.72 447.007 457.663C447.063 457.588 447.122 457.512 447.18 457.437C447.239 457.362 447.297 457.286 447.354 457.211L447.383 457.173C447.471 457.058 447.555 456.948 447.651 456.838L447.658 456.831C447.729 456.738 447.806 456.645 447.884 456.552C447.898 456.545 447.906 456.537 447.913 456.523C447.983 456.444 448.047 456.365 448.111 456.286C448.111 456.279 448.118 456.272 448.125 456.264C448.196 456.185 448.266 456.107 448.33 456.028C448.353 455.995 448.38 455.965 448.405 455.936C448.418 455.921 448.431 455.906 448.443 455.891C448.458 455.87 448.472 455.856 448.486 455.841C448.532 455.791 448.576 455.741 448.62 455.691C448.665 455.64 448.709 455.59 448.755 455.54C448.918 455.361 449.087 455.174 449.264 454.995C449.307 454.945 449.349 454.894 449.399 454.851C449.576 454.665 449.759 454.486 449.943 454.307C450.078 454.17 450.213 454.041 450.354 453.912C450.418 453.854 450.48 453.797 450.542 453.74C450.604 453.682 450.665 453.625 450.729 453.568L450.75 453.546L450.751 453.545C450.928 453.388 451.105 453.23 451.288 453.073C451.295 453.069 451.301 453.064 451.306 453.058C451.311 453.053 451.317 453.048 451.324 453.044C451.444 452.936 451.564 452.836 451.684 452.736C451.812 452.628 451.946 452.52 452.081 452.413L452.123 452.379C452.252 452.274 452.386 452.165 452.527 452.061C452.661 451.954 452.803 451.846 452.944 451.746C452.952 451.741 452.959 451.735 452.967 451.728C452.982 451.717 452.997 451.705 453.015 451.696C453.029 451.688 453.036 451.681 453.043 451.674C453.113 451.629 453.179 451.58 453.247 451.53C453.275 451.509 453.304 451.487 453.333 451.466C453.341 451.466 453.346 451.464 453.351 451.461C453.355 451.459 453.358 451.455 453.362 451.452C453.394 451.43 453.426 451.407 453.459 451.384C453.563 451.311 453.671 451.236 453.779 451.165C453.831 451.128 453.882 451.095 453.937 451.061C453.957 451.048 453.978 451.035 453.999 451.021C454.057 450.979 454.115 450.94 454.176 450.899C454.196 450.885 454.218 450.871 454.239 450.856C454.28 450.836 454.317 450.812 454.355 450.786C454.371 450.776 454.386 450.766 454.402 450.756L454.805 450.498C454.94 450.412 455.074 450.326 455.216 450.247C455.428 450.11 455.647 449.989 455.867 449.867C456.015 449.781 456.171 449.694 456.32 449.616C456.323 449.616 456.325 449.614 456.327 449.612C456.329 449.61 456.33 449.608 456.334 449.608C456.352 449.601 456.368 449.592 456.384 449.583C456.399 449.574 456.415 449.565 456.433 449.558L456.436 449.557C456.569 449.486 456.703 449.414 456.844 449.343C456.844 449.343 456.846 449.34 456.85 449.338C456.852 449.337 456.855 449.336 456.858 449.336C456.871 449.331 456.885 449.324 456.901 449.315C456.909 449.31 456.918 449.305 456.928 449.3C456.95 449.293 456.964 449.286 456.985 449.271C457.039 449.245 457.093 449.218 457.147 449.191C457.228 449.15 457.311 449.109 457.396 449.07C457.484 449.031 457.571 448.99 457.657 448.948C457.744 448.907 457.831 448.866 457.919 448.827C457.997 448.784 458.082 448.748 458.167 448.712C458.187 448.7 458.211 448.69 458.236 448.68C458.256 448.672 458.276 448.664 458.294 448.654C458.542 448.547 458.79 448.439 459.044 448.339C459.094 448.321 459.143 448.301 459.193 448.281C459.243 448.262 459.292 448.242 459.342 448.224C459.363 448.21 459.377 448.203 459.398 448.195C459.43 448.185 459.462 448.172 459.494 448.16C459.526 448.147 459.557 448.134 459.589 448.124C459.731 448.066 459.865 448.016 460.007 447.966V462.225C459.879 462.318 459.752 462.418 459.625 462.526C459.537 462.595 459.453 462.667 459.368 462.74C459.329 462.774 459.29 462.808 459.25 462.842C459.244 462.852 459.239 462.859 459.231 462.864C459.228 462.866 459.225 462.868 459.221 462.87L459.184 462.904C459.077 462.999 458.976 463.09 458.875 463.186L458.797 463.265C458.676 463.372 458.563 463.487 458.45 463.602C458.323 463.724 458.202 463.853 458.082 463.982L458.075 463.989C457.962 464.111 457.841 464.247 457.728 464.376C457.537 464.599 457.346 464.828 457.169 465.058C457.158 465.072 457.148 465.085 457.137 465.097C457.127 465.11 457.116 465.122 457.105 465.137C457.07 465.187 457.035 465.237 456.999 465.28V465.287C456.921 465.388 456.851 465.488 456.78 465.589C456.767 465.602 456.757 465.615 456.748 465.628C456.737 465.644 456.728 465.659 456.716 465.675C456.659 465.755 456.604 465.839 456.549 465.923C456.515 465.974 456.482 466.025 456.447 466.076C456.437 466.092 456.426 466.109 456.415 466.125C456.381 466.176 456.345 466.23 456.313 466.284C456.263 466.356 456.221 466.428 456.178 466.499C456.108 466.614 456.037 466.729 455.973 466.844C455.949 466.886 455.925 466.928 455.901 466.97C455.838 467.079 455.774 467.189 455.718 467.303C455.655 467.41 455.598 467.525 455.541 467.64C455.442 467.834 455.35 468.02 455.265 468.214C455.265 468.217 455.264 468.221 455.262 468.224C455.26 468.228 455.258 468.232 455.258 468.235C455.241 468.275 455.223 468.316 455.205 468.357C455.188 468.398 455.17 468.44 455.152 468.479C455.138 468.493 455.131 468.515 455.124 468.529C455.124 468.537 455.122 468.546 455.118 468.554C455.116 468.56 455.113 468.566 455.11 468.572C455.074 468.651 455.039 468.737 455.011 468.816C454.968 468.924 454.926 469.031 454.883 469.146C454.735 469.519 454.607 469.899 454.494 470.287C454.483 470.326 454.471 470.367 454.459 470.408C454.446 470.45 454.434 470.491 454.423 470.53C454.382 470.674 454.346 470.822 454.31 470.968C454.303 470.997 454.296 471.025 454.289 471.054C454.282 471.083 454.275 471.112 454.268 471.141C454.233 471.29 454.198 471.435 454.169 471.585C454.15 471.653 454.137 471.727 454.125 471.797C454.123 471.808 454.121 471.818 454.119 471.829C454.098 471.908 454.084 471.994 454.069 472.072V472.08C454.055 472.166 454.041 472.252 454.027 472.345C454.021 472.427 454.009 472.504 453.997 472.585C453.995 472.596 453.993 472.607 453.992 472.618C453.977 472.696 453.963 472.783 453.956 472.861L453.914 473.206C453.9 473.306 453.893 473.413 453.885 473.521C453.878 473.564 453.871 473.607 453.871 473.658L453.87 473.677C453.863 473.748 453.857 473.814 453.857 473.88C453.85 473.951 453.843 474.024 453.843 474.095C453.836 474.167 453.836 474.239 453.836 474.31C453.822 474.504 453.822 474.69 453.822 474.884C453.822 482.974 459.766 489.652 467.473 490.671C468.145 490.764 468.832 490.807 469.532 490.807H525.092L525 483.699Z" fill="#264FDA"/>
</svg>
