<?xml version="1.0" encoding="utf-8"?>
<!-- Generator: Adobe Illustrator 27.0.0, SVG Export Plug-In . SVG Version: 6.00 Build 0)  -->
<svg version="1.1" id="Layer_1" xmlns="http://www.w3.org/2000/svg" xmlns:xlink="http://www.w3.org/1999/xlink" x="0px" y="0px"
	 viewBox="0 0 732 427.1" style="enable-background:new 0 0 732 427.1;" xml:space="preserve">
<style type="text/css">
	.st0{fill:#EDF5FC;}
	.st1{fill:#9BB2E1;}
	.st2{fill:#C2D1F2;}
	.st3{fill:#0039B2;}
	.st4{opacity:0.1;}
	.st5{fill:#FFFFFF;}
	.st6{opacity:8.000000e-02;}
	.st7{fill:#5388F2;}
	.st8{fill:#719BFF;}
	.st9{opacity:5.000000e-02;}
	.st10{fill:#1258FF;}
	.st11{fill:#0A48D8;}
	.st12{fill:#FFC837;}
	.st13{opacity:0.15;}
	.st14{fill:#FF5252;}
	.st15{fill:#ECEAFF;}
	.st16{fill:#3CD278;}
	.st17{fill:#FF5D5D;}
	.st18{fill:#FFC6B2;}
	.st19{fill:#0DF3FF;}
	.st20{fill:#253066;}
	.st21{fill:#2A0054;}
	.st22{fill:#6385D2;}
	.st23{fill:#F0E6FF;}
	.st24{fill:#D250DC;}
	.st25{fill:#829ED9;}
	.st26{fill:#E8EDF7;}
	.st27{opacity:0.6;}
	.st28{fill:#B05EFA;}
	.st29{fill:#E4F0FD;}
	.st30{fill:#FF784B;}
	.st31{fill:#DAE3F7;}
	.st32{opacity:0.2;}
</style>
<g>
	<path class="st0" d="M675.3,394.1l0.9-0.2c25.7-48.9,43.4-102.1,52.1-156.7c7.5-47.4,6.3-101.4-26.6-136.3
		c-26.3-27.9-67.8-37-106-33.4c-38.2,3.6-74.4,18.1-110.5,31.1c-36.1,13.1-73.7,24.9-112,22.9c-58.4-3.1-110.7-38-168.4-47.1
		c-57.7-9.1-119.8,10.1-160,52.3C4.4,169-11.6,233.9,7.4,289.1c21.5,62.5,83.1,97.4,145.8,105H675.3z"/>
	<path class="st1" d="M206.9,252.5c-0.2,0-0.3-0.2-0.4-0.3c0-0.2,0.1-0.4,0.3-0.4c1.4-0.1,2.8-0.2,4.1-0.5c0.2,0,0.4,0.1,0.4,0.3
		c0,0.2-0.1,0.4-0.3,0.4C209.7,252.3,208.3,252.5,206.9,252.5z M202.7,252.4C202.7,252.4,202.6,252.4,202.7,252.4
		c-1.4-0.2-2.8-0.5-4.2-0.8c-0.2-0.1-0.3-0.2-0.2-0.4c0.1-0.2,0.2-0.3,0.4-0.2c1.4,0.4,2.7,0.6,4.1,0.8c0.2,0,0.3,0.2,0.3,0.4
		C203,252.2,202.8,252.4,202.7,252.4z M194.6,250.1c-0.1,0-0.1,0-0.1,0c-1.3-0.5-2.6-1.2-3.8-1.9c-0.2-0.1-0.2-0.3-0.1-0.5
		c0.1-0.2,0.3-0.2,0.5-0.1c1.2,0.7,2.5,1.3,3.7,1.9c0.2,0.1,0.3,0.3,0.2,0.5C194.8,250.1,194.7,250.1,194.6,250.1z M187.3,245.9
		c-0.1,0-0.2,0-0.2-0.1c-1.1-0.8-2.2-1.8-3.3-2.7c-0.1-0.1-0.2-0.4,0-0.5s0.4-0.2,0.5,0c1,1,2.1,1.8,3.2,2.7
		c0.2,0.1,0.2,0.3,0.1,0.5C187.5,245.9,187.4,245.9,187.3,245.9z M181.1,240.2c-0.1,0-0.2,0-0.3-0.1c-0.1-0.2-0.3-0.3-0.4-0.5
		c-0.8-0.9-1.5-1.9-2.3-2.9c-0.1-0.2-0.1-0.4,0.1-0.5c0.2-0.1,0.4-0.1,0.5,0.1c0.7,1,1.5,1.9,2.2,2.8c0.1,0.2,0.3,0.3,0.4,0.4
		c0.1,0.2,0.1,0.4,0,0.5C181.2,240.2,181.2,240.2,181.1,240.2z M176.1,233.4c-0.1,0-0.2-0.1-0.3-0.2c-0.7-1.2-1.4-2.4-2.1-3.7
		c-0.1-0.2,0-0.4,0.1-0.5c0.2-0.1,0.4,0,0.5,0.1c0.7,1.3,1.4,2.5,2.1,3.6c0.1,0.2,0.1,0.4-0.1,0.5
		C176.2,233.4,176.1,233.4,176.1,233.4z M172,226c-0.1,0-0.3-0.1-0.3-0.2c-0.6-1.2-1.2-2.5-1.7-3.9c-0.1-0.2,0-0.4,0.2-0.5
		c0.2-0.1,0.4,0,0.5,0.2c0.6,1.3,1.1,2.6,1.7,3.8c0.1,0.2,0,0.4-0.2,0.5C172.1,226,172.1,226,172,226z M168.8,218.2
		c-0.1,0-0.3-0.1-0.3-0.2c-0.5-1.3-1-2.6-1.5-4c-0.1-0.2,0-0.4,0.2-0.4c0.2-0.1,0.4,0,0.4,0.2c0.5,1.3,1,2.6,1.5,4
		c0.1,0.2,0,0.4-0.2,0.5C168.8,218.2,168.8,218.2,168.8,218.2z M165.9,210.3c-0.2,0-0.3-0.1-0.3-0.2l-0.4-1.2
		c-0.3-0.9-0.6-1.9-1-2.8c-0.1-0.2,0-0.4,0.2-0.4c0.2-0.1,0.4,0,0.4,0.2c0.3,0.9,0.6,1.9,1,2.8l0.4,1.2c0.1,0.2,0,0.4-0.2,0.4
		C165.9,210.3,165.9,210.3,165.9,210.3z M163.1,202.3c-0.2,0-0.3-0.1-0.3-0.2c-0.4-1.3-0.9-2.7-1.3-4c-0.1-0.2,0-0.4,0.2-0.4
		c0.2-0.1,0.4,0,0.4,0.2c0.4,1.3,0.9,2.7,1.3,4c0.1,0.2,0,0.4-0.2,0.4C163.2,202.3,163.1,202.3,163.1,202.3z M160.5,194.3
		c-0.2,0-0.3-0.1-0.3-0.3c-0.4-1.3-0.8-2.7-1.2-4c-0.1-0.2,0.1-0.4,0.2-0.4c0.2-0.1,0.4,0.1,0.4,0.2c0.4,1.3,0.8,2.7,1.2,4
		c0.1,0.2-0.1,0.4-0.2,0.4C160.6,194.3,160.5,194.3,160.5,194.3z M158.1,186.2c-0.2,0-0.3-0.1-0.3-0.3c-0.4-1.4-0.7-2.7-1.1-4.1
		c-0.1-0.2,0.1-0.4,0.3-0.4c0.2-0.1,0.4,0.1,0.4,0.3c0.3,1.4,0.7,2.7,1.1,4.1c0.1,0.2-0.1,0.4-0.2,0.4
		C158.2,186.2,158.2,186.2,158.1,186.2z M156,178c-0.2,0-0.3-0.1-0.3-0.3c-0.3-1.4-0.6-2.8-0.9-4.1c0-0.2,0.1-0.4,0.3-0.4
		c0.2,0,0.4,0.1,0.4,0.3c0.3,1.4,0.6,2.7,0.9,4.1C156.4,177.8,156.3,178,156,178C156.1,178,156.1,178,156,178z M154.3,169.8
		c-0.2,0-0.3-0.1-0.3-0.3c-0.3-1.4-0.5-2.8-0.7-4.2c0-0.2,0.1-0.4,0.3-0.4c0.2,0,0.4,0.1,0.4,0.3c0.2,1.4,0.4,2.8,0.7,4.2
		C154.7,169.5,154.6,169.7,154.3,169.8C154.4,169.8,154.3,169.8,154.3,169.8z M153.1,161.4c-0.2,0-0.3-0.1-0.3-0.3
		c-0.2-1.4-0.3-2.8-0.4-4.2c0-0.2,0.1-0.4,0.3-0.4c0.2,0,0.4,0.1,0.4,0.3c0.1,1.4,0.2,2.8,0.4,4.2
		C153.5,161.2,153.3,161.4,153.1,161.4C153.1,161.4,153.1,161.4,153.1,161.4z M541.7,155.4c-0.9,0-1.8,0-2.7,0c-0.4,0-0.7,0-1.1,0
		c-0.2,0-0.3-0.2-0.3-0.4c0-0.2,0.2-0.4,0.4-0.3c0.4,0,0.7,0,1.1,0c0.9,0,1.8,0,2.7,0h0.4v0.7H541.7z M546.3,155.3
		c-0.2,0-0.3-0.2-0.4-0.3c0-0.2,0.1-0.4,0.3-0.4c1.4-0.1,2.8-0.2,4.2-0.3c0.2,0,0.4,0.1,0.4,0.3c0,0.2-0.1,0.4-0.3,0.4
		C549.2,155.2,547.8,155.3,546.3,155.3C546.4,155.3,546.4,155.3,546.3,155.3z M533.7,155.1L533.7,155.1c-1.4-0.1-2.8-0.2-4.2-0.4
		c-0.2,0-0.3-0.2-0.3-0.4c0-0.2,0.2-0.3,0.4-0.3c1.4,0.2,2.8,0.3,4.2,0.4c0.2,0,0.3,0.2,0.3,0.4C534,155,533.9,155.1,533.7,155.1z
		 M554.8,154.6c-0.2,0-0.3-0.1-0.3-0.3c0-0.2,0.1-0.4,0.3-0.4c1.4-0.2,2.8-0.4,4.2-0.6c0.2,0,0.4,0.1,0.4,0.3c0,0.2-0.1,0.4-0.3,0.4
		C557.6,154.2,556.2,154.5,554.8,154.6C554.8,154.6,554.8,154.6,554.8,154.6z M525.3,154.3C525.3,154.3,525.3,154.3,525.3,154.3
		c-1.4-0.2-2.8-0.4-4.2-0.6c-0.2,0-0.3-0.2-0.3-0.4c0-0.2,0.2-0.3,0.4-0.3c1.4,0.2,2.8,0.4,4.2,0.6c0.2,0,0.3,0.2,0.3,0.4
		C525.6,154.1,525.5,154.3,525.3,154.3z M563.1,153.2c-0.2,0-0.3-0.1-0.3-0.3c0-0.2,0.1-0.4,0.3-0.4c1.4-0.3,2.8-0.6,4.1-1
		c0.2-0.1,0.4,0.1,0.4,0.3c0.1,0.2-0.1,0.4-0.3,0.4C565.9,152.6,564.5,152.9,563.1,153.2C563.1,153.2,563.1,153.2,563.1,153.2z
		 M152.4,153c-0.2,0-0.3-0.2-0.4-0.3c-0.1-1.3-0.1-2.5-0.1-3.8v-0.4c0-0.2,0.2-0.4,0.4-0.4c0.2,0,0.4,0.2,0.4,0.4v0.4
		c0,1.2,0,2.5,0.1,3.8C152.8,152.8,152.6,153,152.4,153C152.4,153,152.4,153,152.4,153z M517,152.9C517,152.9,516.9,152.9,517,152.9
		c-1.4-0.3-2.8-0.6-4.2-0.9c-0.2-0.1-0.3-0.2-0.3-0.4c0.1-0.2,0.2-0.3,0.4-0.3c1.4,0.3,2.8,0.6,4.1,0.9c0.2,0,0.3,0.2,0.3,0.4
		C517.3,152.7,517.1,152.9,517,152.9z M571.3,151.1c-0.2,0-0.3-0.1-0.3-0.3c-0.1-0.2,0.1-0.4,0.2-0.4c1.3-0.4,2.7-0.9,4-1.3
		c0.2-0.1,0.4,0,0.4,0.2c0.1,0.2,0,0.4-0.2,0.4c-1.3,0.5-2.7,0.9-4,1.3C571.3,151.1,571.3,151.1,571.3,151.1z M508.8,151
		C508.7,151,508.7,151,508.8,151c-1.4-0.4-2.8-0.7-4.2-1.1c-0.2-0.1-0.3-0.3-0.2-0.4c0.1-0.2,0.2-0.3,0.4-0.2
		c1.4,0.4,2.7,0.8,4.1,1.1c0.2,0.1,0.3,0.2,0.3,0.4C509.1,150.9,508.9,151,508.8,151z M500.6,148.7c0,0-0.1,0-0.1,0
		c-1.3-0.4-2.7-0.9-4-1.3c-0.2-0.1-0.3-0.3-0.2-0.4c0.1-0.2,0.3-0.3,0.4-0.2c1.3,0.4,2.7,0.9,4,1.3c0.2,0.1,0.3,0.3,0.2,0.4
		C500.9,148.6,500.8,148.7,500.6,148.7z M579.2,148.3c-0.1,0-0.3-0.1-0.3-0.2c-0.1-0.2,0-0.4,0.2-0.5c1.3-0.5,2.6-1.1,3.9-1.7
		c0.2-0.1,0.4,0,0.5,0.2c0.1,0.2,0,0.4-0.2,0.5c-1.3,0.6-2.6,1.2-3.9,1.7C579.3,148.3,579.3,148.3,579.2,148.3z M492.6,146
		c0,0-0.1,0-0.1,0c-1.3-0.5-2.6-1-4-1.5c-0.2-0.1-0.3-0.3-0.2-0.5c0.1-0.2,0.3-0.3,0.5-0.2c1.3,0.5,2.6,1,4,1.5
		c0.2,0.1,0.3,0.3,0.2,0.4C492.9,145.9,492.8,146,492.6,146z M586.9,144.8c-0.1,0-0.3-0.1-0.3-0.2c-0.1-0.2,0-0.4,0.2-0.5
		c1.2-0.6,2.5-1.3,3.7-2c0.2-0.1,0.4-0.1,0.5,0.1c0.1,0.2,0.1,0.4-0.1,0.5c-1.2,0.7-2.4,1.4-3.7,2.1
		C587,144.8,586.9,144.8,586.9,144.8z M152.5,144.5L152.5,144.5c-0.2,0-0.4-0.2-0.4-0.4c0.1-1.4,0.2-2.8,0.3-4.2
		c0-0.2,0.2-0.3,0.4-0.3c0.2,0,0.3,0.2,0.3,0.4c-0.1,1.4-0.3,2.8-0.3,4.2C152.8,144.4,152.7,144.5,152.5,144.5z M484.7,143
		c-0.1,0-0.1,0-0.1,0c-1.3-0.5-2.6-1.1-3.9-1.6c-0.2-0.1-0.3-0.3-0.2-0.5c0.1-0.2,0.3-0.3,0.5-0.2c1.3,0.5,2.6,1.1,3.9,1.6
		c0.2,0.1,0.3,0.3,0.2,0.5C485,142.9,484.9,143,484.7,143z M594.2,140.5c-0.1,0-0.2-0.1-0.3-0.2c-0.1-0.2-0.1-0.4,0.1-0.5
		c1.2-0.8,2.3-1.6,3.4-2.4c0.2-0.1,0.4-0.1,0.5,0.1c0.1,0.2,0.1,0.4-0.1,0.5c-1.1,0.8-2.3,1.7-3.5,2.5
		C594.3,140.5,594.2,140.5,594.2,140.5z M477,139.7c-0.1,0-0.1,0-0.1,0c-1.3-0.6-2.6-1.1-3.9-1.7c-0.2-0.1-0.3-0.3-0.2-0.5
		c0.1-0.2,0.3-0.3,0.5-0.2c1.3,0.6,2.6,1.2,3.9,1.7c0.2,0.1,0.3,0.3,0.2,0.5C477.2,139.7,477.1,139.7,477,139.7z M469.3,136.2
		c-0.1,0-0.1,0-0.2,0c-1.3-0.6-2.5-1.2-3.8-1.8c-0.2-0.1-0.2-0.3-0.2-0.5c0.1-0.2,0.3-0.2,0.5-0.2c1.3,0.6,2.5,1.2,3.8,1.8
		c0.2,0.1,0.3,0.3,0.2,0.5C469.5,136.2,469.4,136.2,469.3,136.2z M153.4,136.2C153.3,136.2,153.3,136.2,153.4,136.2
		c-0.2,0-0.4-0.2-0.3-0.4c0.2-1.4,0.5-2.8,0.8-4.2c0-0.2,0.2-0.3,0.4-0.3c0.2,0,0.3,0.2,0.3,0.4c-0.3,1.3-0.6,2.7-0.8,4.1
		C153.7,136,153.5,136.2,153.4,136.2z M600.9,135.4c-0.1,0-0.2,0-0.3-0.1c-0.1-0.2-0.1-0.4,0-0.5c1.1-0.9,2.1-1.8,3.1-2.8
		c0.1-0.1,0.4-0.1,0.5,0c0.1,0.1,0.1,0.4,0,0.5c-1,1-2.1,1.9-3.2,2.8C601.1,135.4,601,135.4,600.9,135.4z M461.7,132.5
		c-0.1,0-0.1,0-0.2,0c-1.3-0.6-2.5-1.3-3.8-1.9c-0.2-0.1-0.2-0.3-0.2-0.5c0.1-0.2,0.3-0.2,0.5-0.2c1.2,0.6,2.5,1.3,3.8,1.9
		c0.2,0.1,0.2,0.3,0.2,0.5C462,132.5,461.8,132.5,461.7,132.5z M607,129.6c-0.1,0-0.2,0-0.2-0.1c-0.1-0.1-0.2-0.4,0-0.5
		c0.9-0.9,1.7-1.9,2.5-2.8c0.1-0.2,0.3-0.2,0.5-0.1c0.2,0.1,0.2,0.3,0.1,0.5c-0.8,1-1.7,1.9-2.5,2.8
		C607.2,129.6,607.1,129.6,607,129.6z M454.2,128.7c-0.1,0-0.1,0-0.2,0c-1.2-0.6-2.5-1.3-3.7-2c-0.2-0.1-0.2-0.3-0.2-0.5
		c0.1-0.2,0.3-0.2,0.5-0.2c1.2,0.7,2.5,1.3,3.7,2c0.2,0.1,0.2,0.3,0.2,0.5C454.4,128.6,454.3,128.7,454.2,128.7z M155.2,127.9
		c0,0-0.1,0-0.1,0c-0.2-0.1-0.3-0.3-0.2-0.4c0.4-1.4,0.8-2.7,1.3-4c0.1-0.2,0.3-0.3,0.4-0.2c0.2,0.1,0.3,0.3,0.2,0.4
		c-0.5,1.3-0.9,2.6-1.3,4C155.5,127.8,155.3,127.9,155.2,127.9z M446.7,124.7c-0.1,0-0.1,0-0.2,0c-1.2-0.7-2.5-1.3-3.7-2
		c-0.2-0.1-0.2-0.3-0.1-0.5c0.1-0.2,0.3-0.2,0.5-0.1c1.2,0.7,2.5,1.3,3.7,2c0.2,0.1,0.2,0.3,0.1,0.5
		C447,124.6,446.9,124.7,446.7,124.7z M439.3,120.7c-0.1,0-0.1,0-0.2-0.1l-3.7-2c-0.2-0.1-0.2-0.3-0.1-0.5c0.1-0.2,0.3-0.2,0.5-0.1
		l3.7,2c0.2,0.1,0.2,0.3,0.1,0.5C439.6,120.6,439.5,120.7,439.3,120.7z M158.1,120c-0.1,0-0.1,0-0.1,0c-0.2-0.1-0.3-0.3-0.2-0.5
		c0.5-1.2,1.1-2.5,1.8-3.7l0.1-0.2c0.1-0.2,0.3-0.2,0.5-0.2c0.2,0.1,0.2,0.3,0.2,0.5l-0.1,0.2c-0.6,1.2-1.2,2.4-1.7,3.6
		C158.3,119.9,158.2,120,158.1,120z M431.9,116.6c-0.1,0-0.1,0-0.2-0.1l-3.7-2c-0.2-0.1-0.2-0.3-0.1-0.5c0.1-0.2,0.3-0.2,0.5-0.1
		l3.7,2c0.2,0.1,0.2,0.3,0.1,0.5C432.2,116.5,432.1,116.6,431.9,116.6z M424.5,112.5c-0.1,0-0.1,0-0.2,0c-1.2-0.7-2.5-1.3-3.7-2
		c-0.2-0.1-0.2-0.3-0.1-0.5c0.1-0.2,0.3-0.2,0.5-0.1c1.2,0.7,2.5,1.3,3.7,2c0.2,0.1,0.2,0.3,0.1,0.5
		C424.8,112.5,424.7,112.5,424.5,112.5z M162,112.5c-0.1,0-0.1,0-0.2-0.1c-0.2-0.1-0.2-0.3-0.1-0.5c0.7-1.2,1.5-2.4,2.4-3.5
		c0.1-0.2,0.3-0.2,0.5-0.1c0.2,0.1,0.2,0.3,0.1,0.5c-0.8,1.1-1.6,2.3-2.3,3.5C162.2,112.5,162.1,112.5,162,112.5z M417.1,108.5
		c-0.1,0-0.1,0-0.2,0c-1.2-0.7-2.5-1.3-3.7-2c-0.2-0.1-0.2-0.3-0.2-0.5c0.1-0.2,0.3-0.2,0.5-0.2c1.2,0.6,2.5,1.3,3.7,2
		c0.2,0.1,0.2,0.3,0.2,0.5C417.4,108.5,417.2,108.5,417.1,108.5z M166.9,105.6c-0.1,0-0.2,0-0.2-0.1c-0.2-0.1-0.2-0.3-0.1-0.5
		c0.9-1.1,1.8-2.2,2.8-3.2c0.1-0.1,0.4-0.2,0.5,0c0.1,0.1,0.2,0.4,0,0.5c-1,1-1.9,2.1-2.8,3.2C167.1,105.6,167,105.6,166.9,105.6z
		 M409.6,104.6c-0.1,0-0.1,0-0.2,0c-1.2-0.6-2.5-1.3-3.8-1.9c-0.2-0.1-0.2-0.3-0.2-0.5c0.1-0.2,0.3-0.2,0.5-0.2
		c1.3,0.6,2.5,1.3,3.8,1.9c0.2,0.1,0.2,0.3,0.2,0.5C409.9,104.6,409.7,104.6,409.6,104.6z M402.1,100.9c-0.1,0-0.1,0-0.2,0
		c-1.3-0.6-2.5-1.2-3.8-1.8c-0.2-0.1-0.3-0.3-0.2-0.5c0.1-0.2,0.3-0.3,0.5-0.2c1.3,0.6,2.5,1.2,3.8,1.8c0.2,0.1,0.3,0.3,0.2,0.5
		C402.3,100.8,402.2,100.9,402.1,100.9z M172.6,99.4c-0.1,0-0.2,0-0.3-0.1c-0.1-0.1-0.1-0.4,0-0.5c1-1,2.1-1.9,3.1-2.8
		c0.2-0.1,0.4-0.1,0.5,0c0.1,0.2,0.1,0.4,0,0.5c-1.1,0.9-2.1,1.9-3.1,2.8C172.8,99.4,172.7,99.4,172.6,99.4z M394.4,97.3
		c-0.1,0-0.1,0-0.1,0l-0.2-0.1c-1.2-0.6-2.5-1.1-3.7-1.6c-0.2-0.1-0.3-0.3-0.2-0.5c0.1-0.2,0.3-0.3,0.5-0.2c1.2,0.5,2.5,1.1,3.7,1.7
		l0.2,0.1c0.2,0.1,0.3,0.3,0.2,0.5C394.7,97.2,394.6,97.3,394.4,97.3z M179,94c-0.1,0-0.2-0.1-0.3-0.1c-0.1-0.2-0.1-0.4,0.1-0.5
		c1.1-0.9,2.3-1.7,3.4-2.5c0.2-0.1,0.4-0.1,0.5,0.1c0.1,0.2,0.1,0.4-0.1,0.5c-1.2,0.8-2.3,1.6-3.4,2.5C179.1,93.9,179.1,94,179,94z
		 M386.7,93.9c-0.1,0-0.1,0-0.1,0c-1.3-0.5-2.6-1.1-3.9-1.6c-0.2-0.1-0.3-0.3-0.2-0.5c0.1-0.2,0.3-0.3,0.5-0.2
		c1.3,0.5,2.6,1.1,3.9,1.6c0.2,0.1,0.3,0.3,0.2,0.5C387,93.8,386.8,93.9,386.7,93.9z M378.9,90.7c0,0-0.1,0-0.1,0
		c-1.3-0.5-2.6-1-4-1.5c-0.2-0.1-0.3-0.3-0.2-0.5c0.1-0.2,0.3-0.3,0.4-0.2c1.3,0.5,2.6,1,4,1.5c0.2,0.1,0.3,0.3,0.2,0.5
		C379.1,90.6,379,90.7,378.9,90.7z M185.9,89.2c-0.1,0-0.2-0.1-0.3-0.2c-0.1-0.2-0.1-0.4,0.1-0.5c1.2-0.7,2.4-1.5,3.6-2.1
		c0.2-0.1,0.4,0,0.5,0.1c0.1,0.2,0,0.4-0.1,0.5c-1.2,0.7-2.5,1.4-3.6,2.1C186.1,89.1,186,89.2,185.9,89.2z M370.9,87.8
		c0,0-0.1,0-0.1,0c-1.3-0.5-2.7-0.9-4-1.4c-0.2-0.1-0.3-0.3-0.2-0.4c0.1-0.2,0.3-0.3,0.4-0.2c1.3,0.4,2.7,0.9,4,1.4
		c0.2,0.1,0.3,0.3,0.2,0.4C371.2,87.7,371.1,87.8,370.9,87.8z M363,85.1c0,0-0.1,0-0.1,0c-1.3-0.4-2.7-0.9-4-1.3
		c-0.2-0.1-0.3-0.3-0.2-0.4c0.1-0.2,0.3-0.3,0.4-0.2c1.3,0.4,2.7,0.8,4,1.3c0.2,0.1,0.3,0.3,0.2,0.4C363.2,85,363.1,85.1,363,85.1z
		 M193.3,85c-0.1,0-0.3-0.1-0.3-0.2c-0.1-0.2,0-0.4,0.2-0.5c0.9-0.4,1.7-0.9,2.6-1.2c0.4-0.2,0.8-0.4,1.2-0.5c0.2-0.1,0.4,0,0.5,0.2
		c0.1,0.2,0,0.4-0.2,0.5c-0.4,0.2-0.8,0.4-1.2,0.5c-0.9,0.4-1.7,0.8-2.6,1.2C193.4,85,193.4,85,193.3,85z M354.9,82.6
		c0,0-0.1,0-0.1,0c-1.3-0.4-2.7-0.8-4.1-1.1c-0.2-0.1-0.3-0.2-0.2-0.4c0.1-0.2,0.2-0.3,0.4-0.2c1.4,0.4,2.7,0.7,4.1,1.1
		c0.2,0.1,0.3,0.3,0.2,0.4C355.2,82.5,355,82.6,354.9,82.6z M201,81.6c-0.1,0-0.3-0.1-0.3-0.2c-0.1-0.2,0-0.4,0.2-0.5
		c1.3-0.5,2.6-1,4-1.5c0.2-0.1,0.4,0,0.4,0.2c0.1,0.2,0,0.4-0.2,0.4c-1.3,0.5-2.7,1-3.9,1.5C201.1,81.6,201.1,81.6,201,81.6z
		 M346.7,80.4C346.7,80.4,346.7,80.4,346.7,80.4c-1.4-0.4-2.8-0.7-4.2-1c-0.2-0.1-0.3-0.2-0.3-0.4c0.1-0.2,0.2-0.3,0.4-0.3
		c1.4,0.3,2.7,0.7,4.1,1c0.2,0.1,0.3,0.2,0.3,0.4C347,80.3,346.9,80.4,346.7,80.4z M209,78.8c-0.2,0-0.3-0.1-0.3-0.2
		c-0.1-0.2,0.1-0.4,0.2-0.4c1.3-0.4,2.7-0.8,4.1-1.2c0.2-0.1,0.4,0.1,0.4,0.2c0.1,0.2-0.1,0.4-0.2,0.4c-1.4,0.4-2.7,0.8-4,1.2
		C209,78.8,209,78.8,209,78.8z M338.5,78.4C338.5,78.4,338.5,78.4,338.5,78.4c-1.4-0.3-2.8-0.6-4.2-0.9c-0.2,0-0.3-0.2-0.3-0.4
		c0-0.2,0.2-0.3,0.4-0.3c1.4,0.3,2.8,0.6,4.1,0.9c0.2,0.1,0.3,0.2,0.3,0.4C338.8,78.3,338.7,78.4,338.5,78.4z M330.3,76.6
		C330.3,76.6,330.2,76.6,330.3,76.6c-1.4-0.3-2.8-0.5-4.2-0.8c-0.2,0-0.3-0.2-0.3-0.4c0-0.2,0.2-0.3,0.4-0.3
		c1.4,0.3,2.8,0.5,4.2,0.8c0.2,0,0.3,0.2,0.3,0.4C330.6,76.5,330.4,76.6,330.3,76.6z M217.1,76.6c-0.2,0-0.3-0.1-0.3-0.3
		c-0.1-0.2,0.1-0.4,0.3-0.4c1.3-0.3,2.7-0.6,4.1-0.9c0.2,0,0.4,0.1,0.4,0.3c0,0.2-0.1,0.4-0.3,0.4C219.9,75.9,218.5,76.2,217.1,76.6
		C217.2,76.6,217.1,76.6,217.1,76.6z M322,75.1C322,75.1,321.9,75.1,322,75.1c-1.4-0.2-2.8-0.5-4.2-0.7c-0.2,0-0.3-0.2-0.3-0.4
		c0-0.2,0.2-0.3,0.4-0.3c1.4,0.2,2.8,0.4,4.2,0.7c0.2,0,0.3,0.2,0.3,0.4C322.3,75,322.1,75.1,322,75.1z M225.4,74.8
		c-0.2,0-0.3-0.1-0.3-0.3c0-0.2,0.1-0.4,0.3-0.4c1.4-0.3,2.8-0.5,4.2-0.7c0.2,0,0.4,0.1,0.4,0.3c0,0.2-0.1,0.4-0.3,0.4
		C228.2,74.3,226.8,74.6,225.4,74.8C225.4,74.8,225.4,74.8,225.4,74.8z M313.6,73.8C313.6,73.8,313.6,73.8,313.6,73.8
		c-1.4-0.2-2.8-0.4-4.2-0.6c-0.2,0-0.3-0.2-0.3-0.4c0-0.2,0.2-0.3,0.4-0.3c1.4,0.2,2.8,0.4,4.2,0.6c0.2,0,0.3,0.2,0.3,0.4
		C314,73.7,313.8,73.8,313.6,73.8z M233.7,73.4c-0.2,0-0.3-0.1-0.3-0.3c0-0.2,0.1-0.4,0.3-0.4c1.4-0.2,2.8-0.4,4.2-0.5
		c0.2,0,0.4,0.1,0.4,0.3c0,0.2-0.1,0.4-0.3,0.4C236.5,73.1,235.1,73.3,233.7,73.4C233.7,73.4,233.7,73.4,233.7,73.4z M305.3,72.7
		C305.3,72.7,305.2,72.7,305.3,72.7c-1.4-0.2-2.8-0.3-4.2-0.4c-0.2,0-0.3-0.2-0.3-0.4c0-0.2,0.2-0.3,0.4-0.3
		c1.4,0.1,2.8,0.3,4.2,0.4c0.2,0,0.3,0.2,0.3,0.4C305.6,72.6,305.4,72.7,305.3,72.7z M242.1,72.4c-0.2,0-0.3-0.1-0.3-0.3
		c0-0.2,0.1-0.4,0.3-0.4c0.6-0.1,1.2-0.1,1.8-0.2c0.8-0.1,1.6-0.2,2.5-0.2c0.2,0,0.4,0.1,0.4,0.3c0,0.2-0.1,0.4-0.3,0.4
		c-0.8,0.1-1.6,0.2-2.4,0.2C243.3,72.3,242.7,72.4,242.1,72.4C242.1,72.4,242.1,72.4,242.1,72.4z M296.9,71.9
		C296.9,71.9,296.9,71.9,296.9,71.9c-1.4-0.1-2.8-0.2-4.2-0.3c-0.2,0-0.3-0.2-0.3-0.4c0-0.2,0.2-0.3,0.4-0.3
		c1.4,0.1,2.8,0.2,4.2,0.3c0.2,0,0.3,0.2,0.3,0.4C297.2,71.8,297,71.9,296.9,71.9z M250.5,71.7c-0.2,0-0.3-0.1-0.4-0.3
		c0-0.2,0.1-0.4,0.3-0.4c1.4-0.1,2.8-0.2,4.2-0.3c0.2,0,0.4,0.1,0.4,0.3c0,0.2-0.1,0.4-0.3,0.4C253.3,71.5,251.9,71.6,250.5,71.7
		C250.5,71.7,250.5,71.7,250.5,71.7z M288.4,71.3L288.4,71.3c-1.4-0.1-2.8-0.2-4.2-0.2c-0.2,0-0.3-0.2-0.3-0.4
		c0-0.2,0.2-0.4,0.4-0.3c1.4,0.1,2.8,0.1,4.2,0.2c0.2,0,0.3,0.2,0.3,0.4C288.8,71.2,288.6,71.3,288.4,71.3z M258.9,71.2
		c-0.2,0-0.3-0.2-0.4-0.3c0-0.2,0.1-0.4,0.3-0.4c1.4-0.1,2.8-0.1,4.2-0.2c0,0,0,0,0,0c0.2,0,0.3,0.2,0.4,0.3c0,0.2-0.2,0.4-0.3,0.4
		C261.7,71,260.3,71.1,258.9,71.2z M280,71c-1.4,0-2.8-0.1-4.2-0.1c-0.2,0-0.4-0.2-0.3-0.4c0-0.2,0.2-0.3,0.4-0.3
		c1.4,0,2.8,0.1,4.2,0.1c0.2,0,0.3,0.2,0.3,0.4S280.2,71,280,71z M267.3,70.9c-0.2,0-0.3-0.2-0.4-0.3c0-0.2,0.2-0.4,0.3-0.4
		c1.4,0,2.8,0,4.2,0c0.2,0,0.4,0.2,0.4,0.4c0,0.2-0.2,0.4-0.4,0.4C270.2,70.9,268.8,70.9,267.3,70.9z"/>
	<path class="st2" d="M514.2,203.3c-0.2,0-0.3-0.2-0.3-0.3v-39c0-0.2,0.2-0.3,0.3-0.3c0.2,0,0.3,0.2,0.3,0.3v39
		C514.5,203.2,514.4,203.3,514.2,203.3z"/>
	<path class="st2" d="M514.2,286.8c-0.2,0-0.3-0.2-0.3-0.3v-78c0-0.2,0.2-0.3,0.3-0.3c0.2,0,0.3,0.2,0.3,0.3v78
		C514.5,286.7,514.4,286.8,514.2,286.8z"/>
	<path class="st2" d="M505.9,361H501c-0.2,0-0.3-0.2-0.3-0.3c0-0.2,0.2-0.3,0.3-0.3h4.9c4.4,0,8-4.1,8-9.2v-55.9
		c0-0.2,0.2-0.3,0.3-0.3c0.2,0,0.3,0.2,0.3,0.3v55.9C514.5,356.6,510.7,361,505.9,361z"/>
	<path class="st2" d="M406.9,396.6h-9.2c-0.2,0-0.3-0.2-0.3-0.3c0-0.2,0.2-0.3,0.3-0.3h8.9c-0.2-6-4.6-10.9-10.1-10.9H390
		c-0.2,0-0.3-0.2-0.3-0.3v-16.5c0-0.2,0.2-0.3,0.3-0.3c0.2,0,0.3,0.2,0.3,0.3v16.2h6.2c5.9,0,10.8,5.3,10.8,11.9
		C407.3,396.5,407.1,396.6,406.9,396.6z"/>
	<path class="st3" d="M381.7,353.5h-51.9v33.1h51.9V353.5z"/>
	<g class="st4">
		<path d="M381.8,354.8v33.1h-3.3v-1.3h-48.6v-4.5h48.6v-12c0-3.8-3.1-6.8-6.9-6.8h-41.7v-8.5H381.8z"/>
	</g>
	<path class="st3" d="M506.3,149.7v201.1c0,5.5-4.4,9.9-9.9,9.9H215.2c-2.2,0-4.3-0.8-6-2c-2.4-1.8-3.9-4.7-3.9-7.9V149.7
		c0-5.5,4.4-9.9,9.9-9.9h281.2C501.9,139.8,506.3,144.2,506.3,149.7z"/>
	<path class="st5" d="M215.2,340.2c-4,0-7.3-3.3-7.3-7.3V149.7c0-4,3.3-7.3,7.3-7.3h281.2c4,0,7.3,3.3,7.3,7.3v183.2
		c0,4-3.3,7.3-7.3,7.3H215.2z"/>
	<g class="st6">
		<path d="M506.3,226.2v1.4H419c-2.1,0-3.7-1.7-3.7-3.7v-34.3h-6.3c-1.2,0-2.2-1-2.2-2.2v-11.1h-34.4v11.1c0,1.2-1,2.2-2.2,2.2h-7.3
			v57.5c2.7,0.3,4.9,2.5,5.2,5.2h21.9c1.8,0,3.2,1.4,3.2,3.2v21.9c3,0.3,5.3,2.9,5.3,5.9c0,3.3-2.7,6-6,6c-3.3,0-6-2.7-6-6
			c0-3.1,2.3-5.6,5.3-5.9v-21.9c0-1-0.8-1.8-1.8-1.8H368c-0.4,3-2.9,5.3-5.9,5.3c-3.1,0-5.6-2.3-5.9-5.3h-21.9c-1,0-1.8,0.8-1.8,1.8
			v21.9c3,0.3,5.3,2.9,5.3,5.9c0,3.3-2.7,6-6,6c-3.3,0-6-2.7-6-6c0-3.1,2.3-5.6,5.3-5.9v-21.9c0-1.8,1.4-3.2,3.2-3.2h21.9
			c0.3-2.7,2.5-4.9,5.2-5.2v-57.5h-6.9c-1.2,0-2.2-1-2.2-2.2v-11.1H308v11.1c0,1.2-1,2.2-2.2,2.2h-6.3v34.3c0,2.1-1.7,3.7-3.7,3.7
			h-90.4v-1.4h90.4c1.3,0,2.4-1.1,2.4-2.4v-34.3h-7.9c-1.2,0-2.2-1-2.2-2.2v-11.1h-15.1c-20.8,0-37.8-16.1-39.2-36.5h240.8
			c-6.5,20.5-25.2,35.5-47.6,36.4v11.1c0,1.2-1,2.2-2.2,2.2h-7.9v34.3c0,1.3,1.1,2.4,2.4,2.4L506.3,226.2L506.3,226.2z"/>
	</g>
	<path class="st3" d="M398.7,396.7h-85.8c0-3.2,1.2-6.1,3.1-8.2c1.9-2.1,4.5-3.4,7.4-3.4h64.9C394,385.1,398.7,390.3,398.7,396.7z"
		/>
	<path class="st5" d="M359.4,351.1c0.3-2-1-3.8-3-4.2c-2-0.3-3.8,1-4.2,3c-0.3,2,1,3.8,3,4.2C357.2,354.5,359.1,353.1,359.4,351.1z"
		/>
	<path class="st7" d="M237.6,134.1c0,21.7,17.6,39.3,39.3,39.3c21.7,0,123.4,0,151.7,0c28.9,0,52.3-23.4,52.3-52.3
		c0-28.8-23.4-52.3-52.3-52.3c-1.7,0-3.4,0.1-5.1,0.3c0.3-2.2,0.4-4.5,0.4-6.8C423.9,27.9,396,0,361.6,0
		c-29.6,0-54.4,20.6-60.7,48.3h-0.4c-21.7,0-39.3,17.6-39.3,39.3c0,3.5,0.4,6.8,1.3,10C247.9,103.3,237.6,117.5,237.6,134.1z"/>
	<path class="st3" d="M421.7,186.7h-15.6c-1.2,0-2.2-1-2.2-2.2V172c0-1.2,1-2.2,2.2-2.2h15.6c1.2,0,2.2,1,2.2,2.2v12.5
		C424,185.7,423,186.7,421.7,186.7z"/>
	<path class="st3" d="M367.2,186.7h-15.6c-1.2,0-2.2-1-2.2-2.2V172c0-1.2,1-2.2,2.2-2.2h15.6c1.2,0,2.2,1,2.2,2.2v12.5
		C369.5,185.7,368.5,186.7,367.2,186.7z"/>
	<path class="st3" d="M287.4,186.7H303c1.2,0,2.2-1,2.2-2.2V172c0-1.2-1-2.2-2.2-2.2h-15.6c-1.2,0-2.2,1-2.2,2.2v12.5
		C285.1,185.7,286.1,186.7,287.4,186.7z"/>
	<path class="st3" d="M133.7,274.8h-1.4v-47.7c0-2.1,1.7-3.8,3.7-3.8h156.9c1.3,0,2.4-1.1,2.4-2.4v-37.5h1.4V221
		c0,2.1-1.7,3.8-3.7,3.8H136c-1.3,0-2.4,1.1-2.4,2.4V274.8z"/>
	<path class="st8" d="M230.7,134.1c0,21.7,17.6,39.3,39.3,39.3c21.7,0,123.4,0,151.7,0c28.9,0,52.3-23.4,52.3-52.3
		c0-28.8-23.4-52.3-52.3-52.3c-1.7,0-3.4,0.1-5.1,0.3c0.3-2.2,0.4-4.5,0.4-6.8C417,27.9,389.2,0,354.7,0
		c-29.6,0-54.4,20.6-60.7,48.3h-0.4c-21.7,0-39.3,17.6-39.3,39.3c0,3.5,0.4,6.8,1.3,10C241.1,103.3,230.7,117.5,230.7,134.1z"/>
	<g class="st9">
		<path d="M506.3,253.6v97.2c0,5.5-4.4,9.9-9.9,9.9h-39.6v-99.3c0-4.3,3.5-7.8,7.8-7.8H506.3z"/>
	</g>
	<path class="st3" d="M533.3,274.8h-1.4v-47.7c0-1.3-1.1-2.4-2.4-2.4H416.2c-2.1,0-3.7-1.7-3.7-3.8v-37.5h1.4V221
		c0,1.3,1.1,2.4,2.4,2.4h113.4c2.1,0,3.8,1.7,3.8,3.8L533.3,274.8L533.3,274.8z"/>
	<path class="st10" d="M527.6,258.9v-5.7c0-0.3,0.2-0.5,0.5-0.5h9c0.3,0,0.5,0.2,0.5,0.5v7.5c0,0.3-0.2,0.5-0.5,0.5h-7.3
		C528.6,261.1,527.6,260.1,527.6,258.9z"/>
	<path class="st10" d="M554.2,265.6v138.9c0,4.3-3.5,7.8-7.8,7.8h-77.5c-4.3,0-7.8-3.5-7.8-7.8V265.6c0-4.3,3.5-7.8,7.8-7.8h77.5
		C550.6,257.8,554.2,261.3,554.2,265.6z"/>
	<path class="st5" d="M468.9,409.5c-2.7,0-5-2.2-5-5V265.6c0-2.7,2.2-5,5-5h77.5c2.7,0,5,2.2,5,5v138.9c0,2.7-2.2,5-5,5H468.9z"/>
	<path class="st10" d="M524.8,260l-1.9,2.5c-0.7,0.9-1.8,1.5-3,1.5h-22.7c-1.2,0-2.3-0.5-3-1.5l-1.9-2.5H524.8z"/>
	<path class="st5" d="M500.4,261.1c0,0.6-0.5,1.1-1.1,1.1c-0.6,0-1.1-0.5-1.1-1.1c0-0.6,0.5-1.1,1.1-1.1
		C499.9,260,500.4,260.5,500.4,261.1z"/>
	<path class="st5" d="M519,261.1c0,0.3-0.2,0.5-0.5,0.5h-16.2c-0.3,0-0.5-0.2-0.5-0.5c0-0.3,0.2-0.5,0.5-0.5h16.2
		C518.8,260.6,519,260.8,519,261.1z"/>
	<path class="st11" d="M187.2,298.8v35.1H81.7V297h103.6C186.3,297,187.2,297.8,187.2,298.8z"/>
	<path class="st3" d="M127.9,280.3v-5.7c0-0.3,0.2-0.5,0.5-0.5h9c0.3,0,0.5,0.2,0.5,0.5v7.5c0,0.3-0.2,0.5-0.5,0.5h-7.3
		C128.9,282.5,127.9,281.5,127.9,280.3z"/>
	<path class="st12" d="M180.7,283.1v50.8H57.6v-50.8c0-2.1,1.7-3.7,3.7-3.7H177C179.1,279.4,180.7,281.1,180.7,283.1z"/>
	<g class="st6">
		<path d="M172.5,286.8v8.1c0,0.8-0.7,1.5-1.5,1.5h-30c-0.8,0-1.5-0.7-1.5-1.5v-8.1c0-0.8,0.6-1.5,1.5-1.5h30
			C171.8,285.4,172.5,286,172.5,286.8z"/>
	</g>
	<g class="st6">
		<path d="M187.2,309.2v24.7H57.6v-41h44.6c1.2,0,2.2,1,2.2,2.2v9.5c0,1.2,1,2.2,2.2,2.2h78.2C186.1,307,187.2,308,187.2,309.2z"/>
	</g>
	<path class="st10" d="M187.2,312.7v81.7c0,1.2-1,2.2-2.2,2.2H54.8c-1.2,0-2.2-1-2.2-2.2v-95.8c0-1.2,1-2.2,2.2-2.2h47.5
		c1.2,0,2.2,1,2.2,2.2v9.5c0,1.2,1,2.2,2.2,2.2h78.2C186.1,310.4,187.2,311.4,187.2,312.7z"/>
	<g class="st13">
		<path d="M151.7,357.7l-8-10.3c-0.3-0.4-1-0.4-1.4,0l-8,10.3c-0.4,0.6,0,1.4,0.7,1.4h4.9c-1.6,9-9.5,15.8-18.9,15.8
			c-1.6,0-2.8,1.3-2.8,2.8c0,1.6,1.3,2.8,2.8,2.8c12.6,0,23-9.4,24.6-21.5h5.5C151.8,359.1,152.2,358.2,151.7,357.7z"/>
		<path d="M107.3,352.7H102c1.5-9.2,9.4-16.2,19-16.2c1.6,0,2.8-1.3,2.8-2.8c0-1.6-1.3-2.8-2.8-2.8c-12.7,0-23.2,9.5-24.7,21.8h-5.1
			c-0.7,0-1.1,0.8-0.7,1.4l8,10.3c0.3,0.4,1,0.4,1.4,0l8-10.3C108.4,353.5,108,352.7,107.3,352.7z"/>
	</g>
	<path class="st14" d="M171.3,285.3v8.1c0,0.8-0.7,1.5-1.5,1.5h-30c-0.8,0-1.5-0.7-1.5-1.5v-8.1c0-0.8,0.6-1.5,1.5-1.5h30
		C170.7,283.9,171.3,284.5,171.3,285.3z"/>
	<path class="st5" d="M97.8,357.6c-1.6,0-2.8-1.3-2.8-2.8c0-13.7,11.1-24.8,24.8-24.8c1.6,0,2.8,1.3,2.8,2.8c0,1.6-1.3,2.8-2.8,2.8
		c-10.6,0-19.2,8.6-19.2,19.2C100.6,356.4,99.4,357.6,97.8,357.6z"/>
	<path class="st5" d="M119.8,379.6c-1.6,0-2.8-1.3-2.8-2.8c0-1.6,1.3-2.8,2.8-2.8c10.6,0,19.2-8.6,19.2-19.2c0-1.6,1.3-2.8,2.8-2.8
		c1.6,0,2.8,1.3,2.8,2.8C144.7,368.5,133.5,379.6,119.8,379.6z"/>
	<path class="st5" d="M149.9,358.2h-16.1c-0.7,0-1.1-0.8-0.7-1.4l8-10.3c0.3-0.4,1-0.4,1.4,0l8,10.3
		C151,357.3,150.6,358.2,149.9,358.2z"/>
	<path class="st5" d="M90.1,351.8h16.1c0.7,0,1.1,0.8,0.7,1.4l-8,10.3c-0.3,0.4-1,0.4-1.4,0l-8-10.3
		C88.9,352.6,89.3,351.8,90.1,351.8z"/>
	<g class="st13">
		<path d="M540.7,337.5l-8.1-10.4c-0.4-0.4-1-0.4-1.4,0l-8.1,10.4c-0.4,0.6,0,1.4,0.7,1.4h5c-1.6,9.1-9.6,16-19.1,16
			c-1.6,0-2.8,1.3-2.8,2.8c0,1.6,1.3,2.8,2.8,2.8c12.7,0,23.2-9.5,24.9-21.7h5.5C540.7,339,541.2,338.1,540.7,337.5z"/>
		<path d="M495.7,332.5h-5.3c1.5-9.3,9.5-16.4,19.2-16.4c1.6,0,2.8-1.3,2.8-2.8c0-1.6-1.3-2.8-2.8-2.8c-12.8,0-23.4,9.7-25,22.1
			h-5.2c-0.7,0-1.1,0.9-0.7,1.4l8.1,10.4c0.4,0.4,1,0.4,1.4,0l8.1-10.4C496.8,333.3,496.4,332.5,495.7,332.5z"/>
	</g>
	<path class="st14" d="M486.1,337.5c-1.6,0-2.8-1.3-2.8-2.8c0-13.9,11.3-25.1,25.1-25.1c1.6,0,2.8,1.3,2.8,2.8
		c0,1.6-1.3,2.8-2.8,2.8c-10.7,0-19.5,8.7-19.5,19.5C489,336.2,487.7,337.5,486.1,337.5z"/>
	<path class="st12" d="M508.4,359.8c-1.6,0-2.8-1.3-2.8-2.8c0-1.6,1.3-2.8,2.8-2.8c10.7,0,19.5-8.7,19.5-19.5c0-1.6,1.3-2.8,2.8-2.8
		s2.8,1.3,2.8,2.8C533.6,348.5,522.3,359.8,508.4,359.8z"/>
	<path class="st12" d="M538.9,338.1h-16.3c-0.7,0-1.1-0.9-0.7-1.4l8.1-10.4c0.4-0.4,1-0.4,1.4,0l8.1,10.4
		C540,337.2,539.6,338.1,538.9,338.1z"/>
	<path class="st14" d="M478.3,331.6h16.3c0.7,0,1.1,0.9,0.7,1.4l-8.1,10.4c-0.4,0.4-1,0.4-1.4,0l-8.1-10.4
		C477.1,332.4,477.5,331.6,478.3,331.6z"/>
	<g class="st4">
		<path d="M290.6,122.3l0.3,9.2c0.1,1.5,1.1,2.8,2.6,3.1l2.9,0.6c1,0.2,1.9,0.9,2.3,1.8c0.2,0.3,0.3,0.7,0.5,1
			c0.4,0.9,0.4,2-0.2,2.9l-1.5,2.6c-0.8,1.3-0.5,3,0.6,4l6.8,6.3c1.1,1,2.8,1.2,4,0.3l2.5-1.7c0.9-0.6,2-0.7,2.9-0.3
			c0.4,0.1,0.7,0.3,1.1,0.4c1,0.3,1.7,1.2,2,2.2l0.8,2.9c0.4,1.5,1.7,2.5,3.2,2.4l9.2-0.3c1.5-0.1,2.8-1.1,3.1-2.6l0.6-2.9
			c0.2-1,0.9-1.9,1.8-2.3c0.4-0.2,0.7-0.3,1-0.5c0.9-0.5,2.1-0.4,3,0.1l2.6,1.5c1.3,0.8,3,0.5,4-0.6l6.3-6.8c1-1.1,1.2-2.8,0.3-4
			l-1.7-2.5c-0.6-0.9-0.7-2-0.3-2.9c0.1-0.4,0.3-0.7,0.4-1c0.3-1,1.2-1.7,2.2-2l2.9-0.8c1.5-0.4,2.5-1.7,2.4-3.2l-0.3-9.3
			c-0.1-1.5-1.1-2.8-2.6-3l-2.9-0.6c-1-0.2-1.9-0.9-2.3-1.8c-0.1-0.3-0.3-0.7-0.5-1c-0.4-1-0.4-2.1,0.1-3l1.5-2.6
			c0.8-1.3,0.5-3-0.6-4l-6.7-6.3c-1.1-1-2.8-1.2-4-0.3l-2.5,1.7c-0.9,0.6-2,0.7-2.9,0.3c-0.4-0.1-0.7-0.3-1.1-0.4
			c-1-0.3-1.7-1.2-2-2.2l-0.8-2.9c-0.4-1.5-1.7-2.5-3.2-2.4l-9.2,0.3c-1.5,0.1-2.8,1.1-3,2.6l-0.6,2.9c-0.2,1-0.9,1.9-1.8,2.3
			c-0.4,0.2-0.7,0.3-1,0.5c-0.9,0.4-2,0.4-2.9-0.1l-2.6-1.5c-1.3-0.8-3-0.5-4,0.6l-6.3,6.7c-1,1.1-1.2,2.8-0.3,4l1.7,2.5
			c0.6,0.9,0.7,2,0.3,2.9c-0.1,0.4-0.3,0.7-0.4,1.1c-0.3,1-1.2,1.7-2.2,2l-2.9,0.8C291.6,119.5,290.6,120.8,290.6,122.3z"/>
	</g>
	<path class="st5" d="M288.5,120l0.3,9.2c0.1,1.5,1.1,2.8,2.6,3.1l2.9,0.6c1,0.2,1.9,0.9,2.3,1.8c0.2,0.3,0.3,0.7,0.5,1
		c0.4,0.9,0.4,2-0.2,2.9l-1.5,2.6c-0.7,1.3-0.5,3,0.6,4l6.8,6.3c1.1,1,2.8,1.2,4,0.3l2.5-1.7c0.9-0.6,2-0.7,2.9-0.3
		c0.4,0.1,0.7,0.3,1.1,0.4c1,0.3,1.7,1.2,2,2.2l0.8,2.9c0.4,1.5,1.7,2.5,3.2,2.4l9.2-0.3c1.5-0.1,2.8-1.1,3-2.6l0.6-2.9
		c0.2-1,0.9-1.9,1.8-2.3c0.4-0.2,0.7-0.3,1-0.5c0.9-0.5,2.1-0.4,3,0.1l2.6,1.5c1.3,0.7,3,0.5,4-0.6l6.3-6.8c1-1.1,1.2-2.8,0.3-4
		l-1.7-2.5c-0.6-0.9-0.7-2-0.3-2.9c0.1-0.4,0.3-0.7,0.4-1c0.3-1,1.2-1.7,2.2-2l2.9-0.8c1.5-0.4,2.5-1.7,2.4-3.2l-0.3-9.3
		c-0.1-1.5-1.1-2.8-2.6-3l-2.9-0.6c-1-0.2-1.9-0.9-2.3-1.8c-0.1-0.3-0.3-0.7-0.5-1c-0.4-1-0.4-2.1,0.1-3l1.5-2.6
		c0.7-1.3,0.5-3-0.6-4l-6.7-6.3c-1.1-1-2.8-1.2-4-0.3l-2.5,1.7c-0.9,0.6-2,0.7-2.9,0.3c-0.4-0.1-0.7-0.3-1.1-0.4
		c-1-0.3-1.7-1.2-2-2.2l-0.8-2.9c-0.4-1.5-1.7-2.5-3.2-2.4l-9.2,0.3c-1.5,0.1-2.8,1.1-3.1,2.6l-0.6,2.9c-0.2,1-0.9,1.9-1.8,2.3
		c-0.4,0.2-0.7,0.3-1,0.5c-0.9,0.4-2,0.4-2.9-0.1l-2.6-1.5c-1.3-0.8-3-0.5-4,0.6l-6.3,6.7c-1,1.1-1.2,2.8-0.3,4l1.7,2.5
		c0.6,0.9,0.7,2,0.3,2.9c-0.1,0.4-0.3,0.7-0.4,1.1c-0.3,1-1.2,1.7-2.2,2l-2.9,0.8C289.4,117.1,288.5,118.5,288.5,120z"/>
	<path class="st15" d="M325,142.2c10.4,0,18.8-8.4,18.8-18.8c0-10.4-8.4-18.8-18.8-18.8c-10.4,0-18.8,8.4-18.8,18.8
		C306.3,133.8,314.7,142.2,325,142.2z"/>
	<path class="st8" d="M335.7,134c5.9-5.9,5.9-15.4,0-21.3c-5.9-5.9-15.4-5.9-21.3,0c-5.9,5.9-5.9,15.4,0,21.3
		C320.3,139.9,329.8,139.9,335.7,134z"/>
	<g class="st4">
		<path d="M362.7,95l0.3,9.2c0.1,1.5,1.1,2.8,2.6,3.1l2.9,0.6c1,0.2,1.9,0.9,2.3,1.8c0.2,0.3,0.3,0.7,0.5,1c0.4,0.9,0.4,2-0.2,2.9
			l-1.5,2.6c-0.7,1.3-0.5,3,0.6,4l6.8,6.3c1.1,1,2.8,1.2,4,0.3l2.5-1.7c0.9-0.6,2-0.7,2.9-0.3c0.4,0.1,0.7,0.3,1.1,0.4
			c1,0.3,1.7,1.2,2,2.2l0.8,2.9c0.4,1.5,1.7,2.5,3.2,2.4l9.2-0.3c1.5-0.1,2.8-1.1,3.1-2.6l0.6-2.9c0.2-1,0.9-1.9,1.8-2.3
			c0.4-0.2,0.7-0.3,1-0.5c0.9-0.5,2.1-0.4,3,0.1l2.6,1.5c1.3,0.8,3,0.5,4-0.6l6.3-6.8c1-1.1,1.2-2.8,0.3-4l-1.7-2.5
			c-0.6-0.9-0.7-2-0.3-2.9c0.1-0.4,0.3-0.7,0.4-1c0.3-1,1.2-1.7,2.2-2l2.9-0.8c1.5-0.4,2.5-1.7,2.4-3.2l-0.3-9.3
			c-0.1-1.5-1.1-2.8-2.6-3l-2.9-0.6c-1-0.2-1.9-0.9-2.3-1.8c-0.1-0.3-0.3-0.7-0.5-1c-0.4-1-0.4-2.1,0.1-3l1.5-2.6
			c0.8-1.3,0.5-3-0.6-4l-6.7-6.3c-1.1-1-2.8-1.2-4-0.3l-2.5,1.7c-0.9,0.6-2,0.7-2.9,0.3c-0.4-0.1-0.7-0.3-1.1-0.4
			c-1-0.3-1.7-1.2-2-2.2l-0.8-2.9c-0.4-1.5-1.7-2.5-3.2-2.4l-9.2,0.3c-1.5,0.1-2.8,1.1-3,2.6l-0.6,2.9c-0.2,1-0.9,1.9-1.8,2.3
			c-0.4,0.2-0.7,0.3-1,0.5c-0.9,0.4-2,0.4-2.9-0.1l-2.6-1.5c-1.3-0.8-3-0.5-4,0.6l-6.3,6.7c-1,1.1-1.2,2.8-0.3,4l1.7,2.5
			c0.6,0.9,0.7,2,0.3,2.9c-0.1,0.4-0.3,0.7-0.4,1.1c-0.3,1-1.2,1.7-2.2,2l-2.9,0.8C363.6,92.2,362.6,93.5,362.7,95z"/>
	</g>
	<path class="st5" d="M360.5,92.7l0.3,9.2c0.1,1.5,1.1,2.8,2.6,3.1l2.9,0.6c1,0.2,1.9,0.9,2.3,1.8c0.2,0.3,0.3,0.7,0.5,1
		c0.4,0.9,0.4,2-0.2,2.9l-1.5,2.6c-0.7,1.3-0.5,3,0.6,4l6.8,6.3c1.1,1,2.8,1.2,4,0.3l2.5-1.7c0.9-0.6,2-0.7,2.9-0.3
		c0.4,0.1,0.7,0.3,1.1,0.4c1,0.3,1.7,1.2,2,2.2l0.7,2.9c0.4,1.5,1.7,2.5,3.2,2.4l9.2-0.3c1.5-0.1,2.8-1.1,3-2.6l0.6-2.9
		c0.2-1,0.9-1.9,1.8-2.3c0.4-0.2,0.7-0.3,1-0.5c0.9-0.5,2.1-0.4,3,0.1l2.6,1.5c1.3,0.8,3,0.5,4-0.6l6.3-6.8c1-1.1,1.2-2.8,0.3-4
		l-1.7-2.5c-0.6-0.9-0.7-2-0.3-2.9c0.1-0.4,0.3-0.7,0.4-1c0.3-1,1.2-1.7,2.2-2l2.9-0.8c1.5-0.4,2.5-1.7,2.4-3.2l-0.3-9.3
		c-0.1-1.5-1.1-2.8-2.6-3l-2.9-0.6c-1-0.2-1.9-0.9-2.3-1.8c-0.1-0.3-0.3-0.7-0.5-1c-0.4-1-0.4-2.1,0.1-3l1.5-2.6
		c0.7-1.3,0.5-3-0.6-4l-6.7-6.3c-1.1-1-2.8-1.2-4-0.3l-2.5,1.7c-0.9,0.6-2,0.7-2.9,0.3c-0.4-0.1-0.7-0.3-1.1-0.4
		c-1-0.3-1.7-1.2-2-2.2l-0.8-2.9c-0.4-1.5-1.7-2.5-3.2-2.4l-9.2,0.3c-1.5,0.1-2.8,1.1-3.1,2.6l-0.6,2.9c-0.2,1-0.9,1.9-1.8,2.3
		c-0.4,0.2-0.7,0.3-1,0.5c-0.9,0.4-2,0.4-2.9-0.1l-2.6-1.5c-1.3-0.7-3-0.5-4,0.6l-6.3,6.7c-1,1.1-1.2,2.8-0.3,4l1.7,2.5
		c0.6,0.9,0.7,2,0.3,2.9c-0.1,0.4-0.3,0.7-0.4,1.1c-0.3,1-1.2,1.7-2.2,2l-2.9,0.8C361.5,89.8,360.5,91.2,360.5,92.7z"/>
	<path class="st15" d="M397.1,114.9c10.4,0,18.8-8.4,18.8-18.8c0-10.4-8.4-18.8-18.8-18.8c-10.4,0-18.8,8.4-18.8,18.8
		C378.3,106.5,386.7,114.9,397.1,114.9z"/>
	<path class="st8" d="M407.7,106.7c5.9-5.9,5.9-15.4,0-21.3c-5.9-5.9-15.4-5.9-21.3,0c-5.9,5.9-5.9,15.4,0,21.3
		C392.3,112.6,401.8,112.6,407.7,106.7z"/>
	<path class="st3" d="M390.3,281.6h-1.4v-28.9c0-1-0.8-1.8-1.8-1.8h-28.6V182h1.4v67.5h27.2c1.8,0,3.2,1.4,3.2,3.2L390.3,281.6
		L390.3,281.6z"/>
	<path class="st3" d="M329.5,281.6h-1.4v-28.9c0-1.8,1.4-3.2,3.2-3.2h27.9v1.4h-27.9c-1,0-1.8,0.8-1.8,1.8V281.6z"/>
	<path class="st12" d="M395.6,281.5c0.5-3.3-1.7-6.3-5-6.9c-3.3-0.5-6.4,1.7-6.9,5c-0.5,3.3,1.7,6.3,5,6.9
		C392,287,395,284.8,395.6,281.5z"/>
	<path class="st14" d="M334.8,281.5c0.5-3.3-1.7-6.3-5-6.9c-3.3-0.5-6.4,1.7-6.9,5c-0.5,3.3,1.7,6.4,5,6.9
		C331.2,287,334.2,284.8,334.8,281.5z"/>
	<path class="st16" d="M359.2,256.2c3.3,0,6-2.7,6-6c0-3.3-2.7-6-6-6c-3.3,0-6,2.7-6,6C353.2,253.5,355.9,256.2,359.2,256.2z"/>
	<path class="st17" d="M641.5,417.2c0,0.2-0.1,0.3-0.3,0.3h-2.1c-0.1,0-0.3-0.1-0.3-0.2l-0.3-2h-1.1l-0.2,0.4l-0.2,0.3l-0.6,1.3
		c0,0.1-0.1,0.2-0.2,0.2h-10.7c-0.2,0-0.3-0.1-0.3-0.3v-1.5c0-0.5,0.2-1,0.4-1.5c0.1-0.1,0.2-0.2,0.3-0.3c0.2-0.3,0.5-0.5,0.8-0.6
		l4.7-2.5c0,0,0.5-1.8,0.6-1.9c0.1-0.1,8.6,0,8.6,0l0.4,4l0,0.3L641.5,417.2z"/>
	<path class="st5" d="M641.1,413.2h-5.2v-0.3h5.2L641.1,413.2z"/>
	<path class="st5" d="M637.4,415.6l-0.2,0.3h-7.5c-0.1,0-0.2-0.1-0.2-0.2v-1.6h-3.7c0.1-0.1,0.2-0.2,0.3-0.3h3.6
		c0.1,0,0.2,0.1,0.2,0.2v1.6H637.4z"/>
	<path d="M666.4,417.6l-24.6-41.7l-24.6,41.7h-1.8l26.4-44.8l26.4,44.8H666.4z"/>
	<path class="st18" d="M615.4,328.5c0,0-4.3,23.9-4.1,23.8c0.2-0.1,15.8,0.2,16,0c0.1-0.2-1.7-31.6-1.7-31.6l-3.1,1.1L615.4,328.5z"
		/>
	<path class="st2" d="M591.9,378.5c0,1.6,0.6,2.9,1.6,4c1,1,2.4,1.6,4,1.6h63.4c6.2,0,11.2-5,11.2-11.2h-74.6
		C594.4,372.9,591.9,375.4,591.9,378.5z"/>
	<path class="st2" d="M622.1,372.8h50l0.2-0.7l12.9-51c1.8-7-3.5-13.7-10.6-13.7h-35.8L622.1,372.8z"/>
	<path d="M613.5,319.4c0.2,1.1,1.1,1.9,2.1,2.4c1,0.5,2.1,0.7,3.2,0.8c4.7,0.6,9.5,0.5,13.9-1.1c4.4-1.7,8.3-5.1,9.6-9.6
		c1.3-4.4,0.1-9.4-2.6-13.1c-2.7-3.8-6.6-6.5-10.8-8.5l0.8-1.8c-2,0.7-1.6,2.1-2.5,4c-0.9,1.9-3.1,4.3-2.4,6.2
		c0.9,2.7,3.3,5,3.1,7.8c-0.2,2.6-2.6,4.5-5,5.6c-2.4,1-5.1,1.6-7.3,3.1C614.3,316.1,613.1,317.7,613.5,319.4z"/>
	<path class="st16" d="M614.9,328.8c0.1-0.4,0.2-0.8,0.3-1.2c2.4-10.5,7.7-16,8.8-16.6l6.6,8.3l2.2,9.5
		C632.8,329.4,614.9,329.4,614.9,328.8z"/>
	<path class="st10" d="M610.7,350.1l8.3-0.6c0,0,11.4-6.3,11.9-6.2c0.4,0.2,4.2,10.4,4.1,10.6c-0.2,0.2-9.5,10.3-9.5,10.3L643,410
		c0,1.5-12.4,1.2-12.4-0.3l-28-43C598,360,602.5,350.7,610.7,350.1z"/>
	<path class="st5" d="M644.7,372.2v0.7h27.4l0.2-0.7"/>
	<path class="st17" d="M604.7,417.2c0,0.2-0.1,0.3-0.3,0.3h-2.1c-0.1,0-0.3-0.1-0.3-0.2l-0.3-2h-1.1l-0.2,0.4l-0.2,0.3l-0.6,1.3
		c0,0.1-0.1,0.2-0.2,0.2h-10.7c-0.2,0-0.3-0.1-0.3-0.3v-1.5c0-0.5,0.2-1,0.4-1.5c0.1-0.1,0.2-0.2,0.3-0.3c0.2-0.3,0.5-0.5,0.8-0.6
		l4.7-2.5c0,0,0.5-1.8,0.6-1.9c0.1-0.1,8.6,0,8.6,0l0.4,4l0,0.3L604.7,417.2z"/>
	<path class="st5" d="M604.4,413.2h-5.3v-0.3h5.2L604.4,413.2z"/>
	<path class="st5" d="M600.6,415.6l-0.2,0.3H593c-0.1,0-0.2-0.1-0.2-0.2v-1.6h-3.7c0.1-0.1,0.2-0.2,0.3-0.3h3.6
		c0.1,0,0.2,0.1,0.2,0.2v1.6H600.6z"/>
	<path class="st10" d="M627.3,372.8l-22.1,37l-11.5-0.2c0,0,9.1-38.1,14.8-49.3c1.7-3.3,4.6-5.7,8.1-6.6l18.5-3.7l17.9,0.8
		c0.2,0.6,2.4,20.4-6.7,22.1L627.3,372.8L627.3,372.8z"/>
	<path class="st5" d="M595.4,405.1c0-0.1,0.9-0.1,2.6,0.2l4.3,0.7c1.7,0.3,2.5,0.5,2.5,0.6c0,0.1-0.9,0.1-2.6-0.2l-4.3-0.7
		C596.2,405.4,595.3,405.2,595.4,405.1z"/>
	<path d="M648.1,285.7c3.1,1.6,4,6.5,4.7,9.9c0.7,3.4,1.4,7.1,4.1,9.3c3.5,2.9,9.4,2.1,12.2,5.7c0.9,1.2,1.4,2.7,1.8,4.1
		c0.7,2.4,1.4,4.8,2.1,7.3c0.2,0.6,0.3,1.2,0.3,1.8c-0.1,1-0.8,1.8-1.6,2.3c-0.8,0.5-1.8,0.8-2.7,1c-4.1,0.9-8.5,1.4-12.6,0.5
		c-4.1-0.9-8.1-3.2-10.3-6.8c-1-1.8-1.6-3.7-2.6-5.5c-1-1.8-2.5-3.5-4.5-3.9c-1.1-0.2-2.4-0.1-3.4-0.7c-1-0.6-1.4-1.7-1.6-2.8
		c-1-4.3-0.1-9.1,2.4-12.8c2.5-3.7,6.5-6.3,10.9-7.1"/>
	<path class="st16" d="M619,349.6c0.6,2.6,32.8,3.7,35.7,1.2c1.9-1.7,5.9-37.2,3.2-41c-0.4-0.6-4.4-1.1-9.4-1.3
		c-4.2-0.2-9.2-0.1-13.6,0.2c-5.5,0.4-9.9,1.3-11,2.5c-2.8,2.9-1.9,12.8-2.5,21.6C620.7,341.1,618.8,348.8,619,349.6z"/>
	<path class="st5" d="M634.5,321.2l14-12.7c-4.2-0.2-9.2-0.1-13.6,0.2C634.8,308.7,634.5,321.2,634.5,321.2z"/>
	<path class="st18" d="M651.6,329.6c0.1,0.1,0,6.9,0,6.9l-21.2,1.7c-0.9,0.3,0,7.3,0.7,7.2c0.2,0,30.1,10.4,34.5,4.8
		c3.5-4.5,0.6-21.1,0.6-21.1L651.6,329.6z"/>
	<path class="st16" d="M649.4,330c0.1,2.5,17.8,1.5,18,0.8c0,0-1.4-13.9-1.9-15c-2.2-5.6-7.9-6.2-7.9-6.2s-6.5,1.1-8.3,6.2
		C648.2,319.3,649.4,328.8,649.4,330z"/>
	<path class="st19" d="M649.5,295.3C649.5,295.3,649.5,295.3,649.5,295.3C649.5,295.3,649.5,295.3,649.5,295.3
		C649.5,295.3,649.5,295.3,649.5,295.3z"/>
	<path class="st18" d="M628.8,301c0.3,4.2,7.6,3.6,7.6,3.6l0.1,4c0,0,0.4,5.2,1.8,5.6c2.3,0.8,7.9-5.8,7.9-5.8v-8.7
		c0,0,4-1.8,3.5-4.4c0,0,0,0,0,0s0,0,0,0c0,0,0,0,0,0c-0.1-0.2-0.1-0.4-0.2-0.6c-1.5-2.8-5.5,0-5.5,0v-4.5c0,0-2.8-2.4-3.1-2.5
		s-6.8-2.2-7.2-2.2c-0.4,0-4.5,3.5-4.5,3.5s-0.1,1.9-0.2,4.3C628.8,295.5,628.6,298.9,628.8,301z"/>
	<path d="M627,292.5c0.4,0.7,1.1,0.9,1.9,0.7c2.8-0.6,7.1-5.1,7.1-5.1c0.1,2.7,6.4,7.2,6.8,7.4c0.4,0.3,1-0.8,1-0.8s4-2.8,5.5,0
		c0.1,0.2,0.2,0.4,0.2,0.6c0-0.5,0.2-5.3-0.7-8.1c-1-3.1-3.9-4.6-10.9-5.4C631.3,280.9,625.3,289.4,627,292.5z"/>
	<path class="st5" d="M679,317.7l-14.7,55l0.7,0.2l14.7-55L679,317.7z"/>
	<path class="st5" d="M620.7,352.8c0,0.1-0.5,0.2-1.5,0.4c-0.5,0.1-1.1,0.3-1.9,0.4c-0.2,0-0.4,0.1-0.6,0.1
		c-0.2,0.1-0.4,0.1-0.6,0.2c-0.4,0.2-0.9,0.3-1.3,0.5c-1.6,0.7-3,1.8-4.1,3c-0.6,0.6-1.1,1.3-1.5,2.1c-0.4,0.7-0.8,1.6-1.2,2.3
		c-0.9,1.9-1.6,3.2-2,4.1c-0.5,0.9-0.7,1.3-0.8,1.3c-0.1,0,0.1-0.5,0.5-1.4c0.4-1,1-2.4,1.9-4.2c0.4-0.8,0.7-1.6,1.2-2.4
		c0.5-0.8,1-1.5,1.6-2.1c1.2-1.3,2.7-2.4,4.3-3.1c0.5-0.2,0.9-0.4,1.4-0.5c0.2-0.1,0.4-0.1,0.6-0.2c0.2,0,0.4-0.1,0.6-0.1
		c0.8-0.1,1.4-0.2,1.9-0.3C620.2,352.8,620.7,352.8,620.7,352.8z"/>
	<path class="st5" d="M621.1,382.2c-0.1-0.1,0.5-1.1,1.8-3.1l3.3-5c0.4-0.6,0.7-1.1,1-1.5c0.2,0,0.4,0,0.5,0c0.1,0,0.3,0,0.4,0
		c0.2,0,0.4,0,0.6,0.1c0.3,0,0.5,0.1,0.5,0.1s-0.2,0.1-0.5,0.1c-0.2,0-0.3,0-0.6,0.1c-0.2,0-0.4,0-0.7,0c0,0-0.1,0.1-0.1,0.2
		c-0.1,0.1-0.1,0.2-0.2,0.3c-0.2,0.2-0.3,0.5-0.5,0.8l-3.3,5C622,381.4,621.2,382.3,621.1,382.2z"/>
	<path class="st5" d="M649.4,365.3c0,0-0.3,0-1-0.2c-0.6-0.2-1.6-0.7-2.5-1.7c-0.8-0.9-1.3-1.9-1.5-3c-0.3-1.1-0.3-2.3-0.2-3.4
		c0.2-1.3,0.4-2.3,0.6-2.9c0.2-0.6,0.3-0.9,0.4-0.9c0.1,0,0,0.3-0.1,1c-0.1,0.6-0.3,1.6-0.4,2.9c-0.1,1.1-0.1,2.2,0.2,3.2
		c0.2,1.1,0.7,2,1.4,2.8c0.8,1,1.7,1.5,2.2,1.8C649.1,365.1,649.4,365.2,649.4,365.3z"/>
	<path class="st5" d="M627.5,405.5c0-0.1,1-0.3,3.1-0.5l5.3-0.4c2.1-0.1,3.1-0.1,3.1,0c0,0.1-1,0.3-3.1,0.5l-5.3,0.4
		C628.5,405.6,627.5,405.6,627.5,405.5z"/>
	<path class="st5" d="M627,400.6c-0.1,0.1-0.8-1-2.2-3.3l-3.4-5.8c-1.3-2.3-1.9-3.5-1.8-3.5c0.1-0.1,0.8,1,2.2,3.3l3.4,5.8
		C626.5,399.4,627.1,400.5,627,400.6z"/>
	<path class="st5" d="M597.7,404.1c-0.1,0,0.2-0.7,0.7-2.2c0.5-1.4,1.2-3.6,2.2-6.4c1.7-4.8,3.4-9.7,4.9-14.6c0.9-2.9,1.6-5,2.1-6.5
		c0.5-1.4,0.7-2.1,0.8-2.1c0.1,0-0.1,0.8-0.5,2.2c-0.4,1.4-1,3.6-1.9,6.5c-1.6,4.9-3.2,9.8-4.9,14.6c-1,2.8-1.9,5-2.4,6.4
		C598,403.4,597.7,404.1,597.7,404.1z"/>
	<path class="st20" d="M636.4,304.8l0-0.4c0,0,1.6-0.1,3.3-1l0.2,0.3C638,304.7,636.4,304.8,636.4,304.8z"/>
	<path class="st20" d="M646.3,297.4c0-0.1,0.3-0.2,0.7-0.6c0.3-0.3,0.4-0.9,0-1.2c-0.4-0.4-0.7-0.2-0.8-0.3c0,0,0-0.1,0.2-0.2
		c0.2-0.1,0.5-0.1,0.9,0.2c0.6,0.5,0.5,1.4,0,1.9c-0.3,0.3-0.6,0.4-0.8,0.4C646.5,297.5,646.4,297.5,646.3,297.4z"/>
	<path class="st5" d="M633,330.1c0,0-0.2,0.2-0.6,0.4c-0.4,0.2-1.1,0.4-2.1,0.4c-1.6,0-3.3-0.5-4.6-1.4c-0.8-0.6-1.2-1.1-1.5-1.5
		c-0.3-0.4-0.3-0.6-0.3-0.6c0.1-0.1,0.6,0.8,2.1,1.8c1.3,0.9,2.8,1.4,4.3,1.3C632.1,330.4,633,330,633,330.1z"/>
	<path class="st5" d="M645,331.1c0,0-0.2,0.2-0.7,0.5c-0.5,0.3-1.3,0.7-2.5,1c-2,0.4-4.1,0.3-5.9-0.4c-1.1-0.4-1.9-0.9-2.3-1.3
		c-0.5-0.4-0.6-0.6-0.6-0.6c0-0.1,0.3,0.1,0.8,0.4c0.5,0.3,1.2,0.7,2.3,1.1c1.8,0.7,3.8,0.8,5.7,0.4c1.1-0.2,1.9-0.5,2.4-0.8
		C644.7,331.2,645,331.1,645,331.1z"/>
	<path class="st5" d="M621.8,329.5c-0.1,0-0.2-0.7-0.3-2.1l0-3.5c0-1.4,0.1-2.1,0.2-2.1c0.1,0,0.2,0.7,0.3,2.1l0,3.5
		C622,328.8,621.9,329.5,621.8,329.5z"/>
	<path class="st5" d="M651.2,318.6c-0.1,0-0.1-0.8,0.2-2.4c0.3-1.3,0.8-2.6,1.8-3.6c0.6-0.6,1.2-0.8,1.6-0.9c0.4-0.1,0.6-0.1,0.6,0
		c0.1,0.1-0.8,0.2-1.9,1.3c-0.9,0.9-1.4,2.1-1.7,3.4C651.4,317.8,651.3,318.6,651.2,318.6z"/>
	<path class="st5" d="M651.5,328.4c0.1,0,0.2,0.2,0.3,0.8l0.1,1.3c0,0.5-0.1,0.8-0.2,0.8c-0.1,0-0.2-0.2-0.3-0.7l-0.1-1.3
		C651.3,328.7,651.4,328.4,651.5,328.4z"/>
	<path class="st8" d="M600.8,324.1l8.8,24.1c0.1,0.3,0.4,0.5,0.6,0.5h17.9l-9.4-25.5h-17.3C601,323.2,600.6,323.7,600.8,324.1z"/>
	<path class="st18" d="M630.5,338.2l-3.6-0.6c-0.1-0.2-1.4-1.5-1.1-2.4C626.1,334.2,630.5,338.2,630.5,338.2z"/>
	<path class="st21" d="M618.8,323.2l9.4,25.5h1.6c0.5,0,0.8-0.5,0.6-0.9l-8.8-24.1c-0.1-0.3-0.4-0.5-0.6-0.5H618.8z"/>
	<path class="st22" d="M618.8,323.2l9.4,25.5h1.6c0.5,0,0.8-0.5,0.6-0.9l-8.8-24.1c-0.1-0.3-0.4-0.5-0.6-0.5H618.8z"/>
	<path class="st18" d="M631.1,345.4c0,0-8.8,2.2-10.1-4.2c-1.2-6.3,5.4-3.8,5.8-3.7l3.6,0.6L631.1,345.4z"/>
	<path class="st23" d="M612,335.3c0.1,0,0.1,0.3,0.3,0.9c0.1,0.5,0.4,1.4,1.2,2.1c0.3,0.3,0.7,0.6,1.1,0.6c0.4,0.1,0.7,0,0.9-0.2
		c0.2-0.2,0.1-0.7,0-1.1c-0.1-0.5-0.3-0.9-0.5-1.3c-0.5-1-1.1-1.7-1.5-2.1c-0.4-0.4-0.6-0.6-0.6-0.7c0.1-0.1,0.4,0,0.9,0.3
		c0.5,0.3,1.3,1,2,2.1c0.3,0.5,0.5,1,0.6,1.6c0.1,0.5,0.2,1.2-0.1,1.9c-0.2,0.3-0.5,0.6-0.9,0.7c-0.4,0.1-0.7,0.1-1,0
		c-0.6-0.1-1.1-0.5-1.6-0.9c-1-1-1.1-2.1-1.1-2.7C611.8,335.5,611.9,335.2,612,335.3z"/>
	<path d="M88.3,325.6c0,0.2-0.1,0.3-0.3,0.3h-2.2c-0.2,0-0.3-0.1-0.3-0.3l-0.3-2.2h-1.2l-0.2,0.5l-0.2,0.4l-0.6,1.4
		c-0.1,0.1-0.2,0.2-0.3,0.2H71.3c-0.2,0-0.3-0.1-0.3-0.3V324c0-0.6,0.2-1.1,0.5-1.6c0.1-0.1,0.2-0.3,0.3-0.4
		c0.2-0.3,0.5-0.5,0.8-0.7l5.1-2.7c0,0,0.5-1.9,0.6-2.1c0.1-0.1,9.2,0,9.2,0l0.4,4.2l0,0.4L88.3,325.6z"/>
	<path class="st5" d="M87.9,321.3h-5.6v-0.4h5.6L87.9,321.3z"/>
	<path class="st5" d="M83.9,323.9l-0.2,0.4h-8c-0.1,0-0.2-0.1-0.2-0.2v-1.7h-4c0.1-0.1,0.2-0.3,0.3-0.4h3.9c0.1,0,0.2,0.1,0.2,0.2
		v1.7H83.9z"/>
	<path class="st18" d="M60.2,230.4c0,0-4.7,25.7-4.4,25.6c0.2-0.1,17,0.2,17.2,0c0.2-0.2-1.8-33.9-1.8-33.9l-3.3,1.2L60.2,230.4z"/>
	<path class="st24" d="M59.8,230.7c0.1-0.4,0.2-0.8,0.3-1.3c2.6-11.3,8.3-17.2,9.4-17.8l7.1,8.9l2.4,10.2
		C78.9,231.4,59.8,231.4,59.8,230.7z"/>
	<path class="st3" d="M55.2,253.6l9-0.6c0,0,12.3-6.8,12.7-6.6c0.5,0.2,4.5,11.2,4.4,11.4c-0.2,0.2-10.2,11-10.2,11l18.8,49.1
		c0,1.6-13.3,1.2-13.3-0.3l-30-46.2C41.5,264.2,46.4,254.2,55.2,253.6z"/>
	<path d="M48.8,325.6c0,0.2-0.1,0.3-0.3,0.3h-2.2c-0.2,0-0.3-0.1-0.3-0.3l-0.3-2.2h-1.2l-0.2,0.5l-0.2,0.4l-0.6,1.4
		c-0.1,0.1-0.2,0.2-0.3,0.2H31.8c-0.2,0-0.3-0.1-0.3-0.3V324c0-0.6,0.2-1.1,0.5-1.6c0.1-0.1,0.2-0.3,0.3-0.4
		c0.2-0.3,0.5-0.5,0.8-0.7l5.1-2.7c0,0,0.5-1.9,0.6-2.1c0.1-0.1,9.2,0,9.2,0l0.4,4.2l0,0.4L48.8,325.6z"/>
	<path class="st5" d="M48.4,321.3h-5.6v-0.4h5.6L48.4,321.3z"/>
	<path class="st5" d="M44.4,323.9l-0.2,0.4h-8c-0.1,0-0.2-0.1-0.2-0.2v-1.7h-4c0.1-0.1,0.2-0.3,0.3-0.4h3.9c0.1,0,0.2,0.1,0.2,0.2
		v1.7H44.4z"/>
	<path class="st3" d="M73.1,279.3l-23.8,38.4L37,317.4c0,0,9.7-40.9,15.9-53c1.8-3.5,4.9-6.1,8.7-7.1l19.9-3.9l19.2,0.9
		c0.2,0.6,4.8,16.4-7.2,23.7C87.9,281.4,73.1,279.3,73.1,279.3z"/>
	<path class="st5" d="M38.8,312.6c0-0.1,0.9-0.1,2.7,0.2l4.6,0.7c1.8,0.3,2.7,0.6,2.7,0.7c0,0.1-0.9,0.1-2.7-0.2l-4.6-0.8
		C39.6,312.9,38.7,312.7,38.8,312.6z"/>
	<path class="st24" d="M64.2,253c0.6,2.8,35.2,4,38.3,1.2c2.1-1.8,8.2-36.5,5.4-40.6c-0.5-0.7-3.7-4-12-4.8l-2.2-0.1
		c-4.5-0.2-7.7-0.1-12.5,0.3c-5.9,0.4-10.6,1.4-11.9,2.7c-3,3.1-2,13.8-2.7,23.2C66,243.8,64,252.2,64.2,253z"/>
	<path class="st18" d="M96.6,230.1c0.1,0.1,0,7.4,0,7.4l-22.7,1.8c-1,0.3,0,7.9,0.7,7.8c0.2,0,29.9,7.8,34.7,1.8
		c3.8-4.8,3.1-19.2,3.1-19.2L96.6,230.1z"/>
	<path class="st24" d="M94.2,231.2c0.1,2.7,19.2,1.6,19.3,0.9c0,0-2-10.7-3.4-14.7c-2.3-6.4-8.4-6.2-8.4-6.2s-5.7-0.7-7.5,4.8
		C92.9,219.8,94.2,230,94.2,231.2z"/>
	<path class="st5" d="M66,256.5c0,0.1-0.5,0.2-1.6,0.5c-0.5,0.1-1.2,0.3-2,0.5c-0.2,0.1-0.4,0.1-0.6,0.1c-0.2,0.1-0.4,0.1-0.6,0.2
		c-0.4,0.2-0.9,0.3-1.4,0.6c-1.7,0.8-3.2,1.9-4.4,3.2c-0.6,0.7-1.2,1.4-1.7,2.2c-0.5,0.8-0.8,1.7-1.2,2.5c-1,2-1.7,3.5-2.2,4.5
		c-0.5,1-0.8,1.4-0.8,1.4c-0.1,0,0.1-0.5,0.6-1.6c0.4-1,1.1-2.5,2-4.5c0.4-0.9,0.8-1.7,1.3-2.5c0.5-0.8,1.1-1.6,1.7-2.3
		c1.3-1.4,2.9-2.6,4.6-3.4c0.5-0.2,1-0.4,1.5-0.6c0.2-0.1,0.4-0.1,0.7-0.2c0.2,0,0.4-0.1,0.6-0.1c0.8-0.1,1.5-0.3,2-0.3
		C65.4,256.5,66,256.4,66,256.5z"/>
	<path class="st5" d="M66.4,288.1c-0.1-0.1,0.5-1.2,1.9-3.3l3.6-5.4c0.4-0.6,0.8-1.1,1.1-1.6c0.2,0,0.4,0,0.6,0c0.1,0,0.3,0,0.4,0
		c0.2,0,0.5,0,0.6,0.1c0.3,0,0.5,0.1,0.5,0.1c0,0-0.2,0.1-0.5,0.1c-0.2,0-0.4,0-0.6,0.1c-0.2,0-0.5,0-0.8,0c0,0-0.1,0.2-0.2,0.3
		c-0.1,0.1-0.2,0.2-0.2,0.4c-0.2,0.3-0.3,0.5-0.5,0.8l-3.6,5.4C67.3,287.1,66.5,288.1,66.4,288.1z"/>
	<path class="st5" d="M96.8,269.9c0,0-0.4,0-1-0.2c-0.7-0.3-1.7-0.8-2.6-1.9c-0.8-0.9-1.4-2.1-1.7-3.3c-0.3-1.2-0.3-2.4-0.2-3.6
		c0.2-1.4,0.5-2.4,0.6-3.1c0.2-0.7,0.3-1,0.4-1c0.1,0,0,0.4-0.1,1.1c-0.1,0.7-0.3,1.7-0.4,3.1c-0.1,1.2-0.1,2.4,0.2,3.5
		c0.3,1.1,0.8,2.2,1.5,3.1c0.9,1,1.8,1.6,2.4,1.9C96.5,269.7,96.8,269.8,96.8,269.9z"/>
	<path class="st5" d="M73.2,313c0-0.1,1.1-0.3,3.3-0.5l5.7-0.4c2.2-0.1,3.3-0.1,3.4,0c0,0.1-1.1,0.3-3.3,0.5l-5.7,0.4
		C74.3,313.1,73.2,313.1,73.2,313z"/>
	<path class="st5" d="M72.7,307.8c-0.1,0.1-0.9-1.1-2.4-3.5l-3.6-6.2c-1.4-2.5-2-3.7-1.9-3.7c0.1-0.1,0.9,1.1,2.4,3.5l3.6,6.2
		C72.1,306.5,72.8,307.7,72.7,307.8z"/>
	<path class="st5" d="M41.2,311.5c-0.1,0,0.2-0.8,0.7-2.3c0.5-1.5,1.3-3.8,2.4-6.9c1.9-5.2,3.6-10.4,5.3-15.7c1-3.1,1.7-5.4,2.2-7
		c0.5-1.5,0.8-2.3,0.8-2.3c0.1,0-0.1,0.8-0.6,2.4c-0.4,1.6-1.1,3.9-2.1,7c-1.7,5.3-3.4,10.5-5.3,15.7c-1.1,3.1-2,5.3-2.6,6.8
		C41.6,310.8,41.3,311.5,41.2,311.5z"/>
	<path class="st5" d="M67.1,231.4c-0.1,0-0.2-0.7-0.3-2.2l0-3.8c0-1.5,0.1-2.2,0.2-2.2c0.1,0,0.2,0.7,0.3,2.2l0,3.8
		C67.3,230.7,67.2,231.4,67.1,231.4z"/>
	<path class="st8" d="M44.6,225.7l9.5,25.8c0.1,0.3,0.4,0.5,0.7,0.5h19.2l-10.1-27.3H45.3C44.8,224.7,44.4,225.2,44.6,225.7z"/>
	<path class="st18" d="M76.4,240.8l-3.8-0.7c-0.2-0.2-1.6-1.6-1.2-2.6C71.8,236.5,76.4,240.8,76.4,240.8z"/>
	<path class="st21" d="M63.9,224.7L73.9,252h1.7c0.5,0,0.9-0.5,0.7-1l-9.5-25.8c-0.1-0.3-0.4-0.5-0.7-0.5H63.9z"/>
	<path class="st22" d="M63.9,224.7L73.9,252h1.7c0.5,0,0.9-0.5,0.7-1l-9.5-25.8c-0.1-0.3-0.4-0.5-0.7-0.5H63.9z"/>
	<path class="st18" d="M77.2,248.6c0,0-9.5,2.4-10.8-4.5c-1.3-6.7,5.8-4.1,6.3-4l3.8,0.7L77.2,248.6z"/>
	<path class="st18" d="M83.2,203c0.9,1,0.6,3.1,0.6,5c-0.5,2.6,8.5,3.2,9.6,0c-0.8-2.8-0.8-6.6-0.2-9.6
		C93.9,195.4,83.2,203,83.2,203z"/>
	<path class="st18" d="M82.8,203.5c4.3,2,8.5-2.5,10.1-4.6c0.4-0.5,0.7-0.9,0.7-0.9c0.1-0.1,3.6-1.3,2.5-4.3
		c-0.6-1.6-3.6,0.2-3.6,0.2s-1.8-5.9-4.4-6c-2.7-0.1-7,3.7-7,3.7s-0.1,0.4-0.2,1C80.5,195.2,79.8,202.1,82.8,203.5z"/>
	<path d="M78.2,191.4c0.4,0.9,1.4,1.2,2.7,1.2c2.9,0,7-1.8,8.1-1.9c1.5-0.2,1.9,3.4,2.2,3.6c0.4,0.3,1.3-0.4,1.3-0.4s3-1.7,3.6-0.2
		c1.1,3-2.4,4.1-2.5,4.3c0,0-0.3,0.4-0.7,0.9l0.1,1.9c0,0,4.3-5.1,4.9-7.1c0.6-2-1.9-4.5-2.7-4.7c-0.8-0.2-0.1-6-0.9-7.2
		c-0.8-1.2-6.3,0.6-8.3,1.2c-2,0.6-4.8-0.4-7.2,1.2C76.4,185.8,76.8,188.4,78.2,191.4z"/>
	<path class="st5" d="M93.2,220.3c-0.1,0-0.3-1,0.3-3.1c0.5-1.7,1.3-3.3,2.4-4.7c1.4-1.6,2.3-2,2.4-2c0.1,0.1-0.8,0.7-2,2.3
		c-1.1,1.3-1.9,2.8-2.3,4.5C93.3,219.3,93.3,220.4,93.2,220.3z"/>
	<path class="st5" d="M93.8,228.3c0.1,0,0.1,0.1,0.1,0.4c0,0.2,0,0.6,0.1,1c0,0.4,0.1,0.7,0.3,0.9c0.2,0.2,0.5,0.4,0.9,0.5
		c0.4,0.1,0.8,0.1,1,0.2c0.2,0,0.3,0.1,0.4,0.1c0,0.1-0.1,0.1-0.3,0.2c-0.2,0.1-0.6,0.1-1.1,0c-0.4-0.1-0.8-0.3-1.1-0.6
		c-0.3-0.3-0.4-0.8-0.5-1.2c0-0.5,0.1-0.8,0.1-1.1C93.7,228.5,93.8,228.3,93.8,228.3z"/>
	<path class="st5" d="M93.1,205.9l2.1,2l-7.1,5.2l-1.5-3L93.1,205.9z"/>
	<path class="st5" d="M86.6,210l-3.2,2l-1.5-4l2-1.9L86.6,210z"/>
	<path class="st25" d="M634.4,214.3v46.8c0,1.3-1.1,2.4-2.4,2.4h-66.7c-1.3,0-2.4-1.1-2.4-2.4v-46.8c0-1.3,1.1-2.4,2.4-2.4H632
		C633.3,211.9,634.4,213,634.4,214.3z"/>
	<path class="st5" d="M565.8,262.2c-0.9,0-1.6-0.7-1.6-1.6v-45.6c0-0.9,0.7-1.6,1.6-1.6h65.5c0.9,0,1.6,0.7,1.6,1.6v45.6
		c0,0.9-0.7,1.6-1.6,1.6H565.8z"/>
	<path class="st25" d="M634.4,216v0.6h-71.6V216c0-2.3,1.9-4.1,4.1-4.1h63.3C632.6,211.9,634.4,213.7,634.4,216z"/>
	<path class="st5" d="M566.7,214.8c0,0.4-0.3,0.7-0.7,0.7c-0.4,0-0.7-0.3-0.7-0.7c0-0.4,0.3-0.7,0.7-0.7
		C566.4,214.2,566.7,214.5,566.7,214.8z"/>
	<path class="st5" d="M568.5,214.8c0,0.4-0.3,0.7-0.7,0.7c-0.4,0-0.7-0.3-0.7-0.7c0-0.4,0.3-0.7,0.7-0.7
		C568.2,214.2,568.5,214.5,568.5,214.8z"/>
	<path class="st5" d="M570.3,214.8c0,0.4-0.3,0.7-0.7,0.7c-0.4,0-0.7-0.3-0.7-0.7c0-0.4,0.3-0.7,0.7-0.7
		C570,214.2,570.3,214.5,570.3,214.8z"/>
	<path class="st26" d="M574.4,237.4h8.1c0.3,0,0.5,0.2,0.5,0.5c0,0.3-0.2,0.5-0.5,0.5h-8.1c-0.3,0-0.5-0.2-0.5-0.5
		C574,237.6,574.2,237.4,574.4,237.4z"/>
	<g class="st27">
		<path class="st28" d="M567,224.9c0-0.3,0.2-0.5,0.5-0.5h21.3c0.3,0,0.5,0.2,0.5,0.5c0,0.3-0.2,0.5-0.5,0.5h-21.3
			C567.3,225.4,567,225.2,567,224.9z"/>
	</g>
	<g class="st27">
		<path class="st28" d="M567,247.7c0-0.3,0.2-0.5,0.5-0.5h0.9c0.3,0,0.5,0.2,0.5,0.5c0,0.3-0.2,0.5-0.5,0.5h-0.9
			C567.3,248.1,567,247.9,567,247.7z"/>
	</g>
	<path class="st26" d="M567,237.9c0-0.3,0.2-0.5,0.5-0.5h2.3c0.3,0,0.5,0.2,0.5,0.5c0,0.3-0.2,0.5-0.5,0.5h-2.3
		C567.3,238.4,567,238.2,567,237.9z"/>
	<path class="st29" d="M567,228.1c0-0.3,0.2-0.5,0.5-0.5h4.7c0.3,0,0.5,0.2,0.5,0.5c0,0.3-0.2,0.5-0.5,0.5h-4.7
		C567.3,228.6,567,228.4,567,228.1z"/>
	<g class="st27">
		<path class="st28" d="M567,234.6c0-0.3,0.2-0.5,0.5-0.5H579c0.3,0,0.5,0.2,0.5,0.5c0,0.3-0.2,0.5-0.5,0.5h-11.5
			C567.3,235.1,567,234.9,567,234.6z"/>
	</g>
	<path class="st26" d="M588.2,257.4c0,0.3-0.2,0.5-0.5,0.5h-20.2c-0.3,0-0.5-0.2-0.5-0.5c0-0.3,0.2-0.5,0.5-0.5h20.2
		C588,256.9,588.2,257.1,588.2,257.4z"/>
	<path class="st29" d="M567,221.6c0-0.3,0.2-0.5,0.5-0.5h8.8c0.3,0,0.5,0.2,0.5,0.5c0,0.3-0.2,0.5-0.5,0.5h-8.8
		C567.3,222.1,567,221.9,567,221.6z"/>
	<path class="st26" d="M567,250.9c0-0.3,0.2-0.5,0.5-0.5h15.2c0.3,0,0.5,0.2,0.5,0.5c0,0.3-0.2,0.5-0.5,0.5h-15.2
		C567.3,251.4,567,251.2,567,250.9z"/>
	<path class="st26" d="M571.1,247.2h19.1c0.3,0,0.5,0.2,0.5,0.5c0,0.3-0.2,0.5-0.5,0.5h-19.1c-0.3,0-0.5-0.2-0.5-0.5
		C570.6,247.4,570.8,247.2,571.1,247.2z"/>
	<path class="st26" d="M590.1,244.4c0-0.3,0.2-0.5,0.5-0.5h4.8c0.3,0,0.5,0.2,0.5,0.5c0,0.3-0.2,0.5-0.5,0.5h-4.8
		C590.3,244.9,590.1,244.7,590.1,244.4z"/>
	<path class="st26" d="M567,244.4c0-0.3,0.2-0.5,0.5-0.5h18c0.3,0,0.5,0.2,0.5,0.5c0,0.3-0.2,0.5-0.5,0.5h-18
		C567.3,244.9,567,244.7,567,244.4z"/>
	<path class="st30" d="M567,254.2c0-0.3,0.2-0.5,0.5-0.5h8c0.3,0,0.5,0.2,0.5,0.5c0,0.3-0.2,0.5-0.5,0.5h-8
		C567.3,254.6,567,254.4,567,254.2z"/>
	<path class="st29" d="M585.8,227.7c0.3,0,0.5,0.2,0.5,0.5c0,0.3-0.2,0.5-0.5,0.5h-8.9c-0.3,0-0.5-0.2-0.5-0.5
		c0-0.3,0.2-0.5,0.5-0.5H585.8z"/>
	<path class="st29" d="M597.8,234.6c0,0.3-0.2,0.5-0.5,0.5h-16.4c-0.3,0-0.5-0.2-0.5-0.5c0-0.3,0.2-0.5,0.5-0.5h16.4
		C597.6,234.2,597.8,234.4,597.8,234.6z"/>
	<path class="st12" d="M598.9,257.4c0,0.3-0.2,0.5-0.5,0.5h-6.3c-0.3,0-0.5-0.2-0.5-0.5c0-0.3,0.2-0.5,0.5-0.5h6.3
		C598.7,256.9,598.9,257.1,598.9,257.4z"/>
	<path class="st26" d="M584.9,250.9c0-0.3,0.2-0.5,0.5-0.5h17.7c0.3,0,0.5,0.2,0.5,0.5c0,0.3-0.2,0.5-0.5,0.5h-17.7
		C585.1,251.4,584.9,251.2,584.9,250.9z"/>
	<path class="st29" d="M579,221.6c0-0.3,0.2-0.5,0.5-0.5h21.4c0.3,0,0.5,0.2,0.5,0.5c0,0.3-0.2,0.5-0.5,0.5h-21.4
		C579.2,222.1,579,221.9,579,221.6z"/>
	<path class="st30" d="M574.1,241.2c0-0.3,0.2-0.5,0.5-0.5h25.1c0.3,0,0.5,0.2,0.5,0.5c0,0.3-0.2,0.5-0.5,0.5h-25.1
		C574.3,241.6,574.1,241.4,574.1,241.2z"/>
	<path class="st29" d="M567,231.4c0-0.3,0.2-0.5,0.5-0.5H604c0.3,0,0.5,0.2,0.5,0.5c0,0.3-0.2,0.5-0.5,0.5h-36.5
		C567.3,231.9,567,231.7,567,231.4z"/>
	<path class="st30" d="M605.7,225.4h-13.5c-0.3,0-0.5-0.2-0.5-0.5c0-0.3,0.2-0.5,0.5-0.5h13.5c0.3,0,0.5,0.2,0.5,0.5
		C606.2,225.2,606,225.4,605.7,225.4z"/>
	<path class="st29" d="M596,227.7c0.3,0,0.5,0.2,0.5,0.5c0,0.3-0.2,0.5-0.5,0.5h-7.5c-0.3,0-0.5-0.2-0.5-0.5c0-0.3,0.2-0.5,0.5-0.5
		H596z"/>
	<path class="st29" d="M630.2,231.4c0,0.3-0.2,0.5-0.5,0.5h-20.1c-0.3,0-0.5-0.2-0.5-0.5c0-0.3,0.2-0.5,0.5-0.5h20.1
		C630,230.9,630.2,231.1,630.2,231.4z"/>
	<path class="st26" d="M630.2,244.4c0,0.3-0.2,0.5-0.5,0.5h-10.1c-0.3,0-0.5-0.2-0.5-0.5c0-0.3,0.2-0.5,0.5-0.5h10.1
		C630,243.9,630.2,244.1,630.2,244.4z"/>
	<path class="st26" d="M597.6,243.9h9.8c0.3,0,0.5,0.2,0.5,0.5c0,0.3-0.2,0.5-0.5,0.5h-9.8c-0.3,0-0.5-0.2-0.5-0.5
		C597.2,244.1,597.4,243.9,597.6,243.9z"/>
	<path class="st26" d="M610.2,254.1c0,0.3-0.2,0.5-0.5,0.5h-30.8c-0.3,0-0.5-0.2-0.5-0.5c0-0.3,0.2-0.5,0.5-0.5h30.8
		C610,253.7,610.2,253.9,610.2,254.1z"/>
	<path class="st31" d="M606.9,250.4h12.6c0.3,0,0.5,0.2,0.5,0.5c0,0.3-0.2,0.5-0.5,0.5h-12.6c-0.3,0-0.5-0.2-0.5-0.5
		C606.4,250.6,606.7,250.4,606.9,250.4z"/>
	<path class="st30" d="M612.4,247.7c0,0.3-0.2,0.5-0.5,0.5h-19c-0.3,0-0.5-0.2-0.5-0.5c0-0.3,0.2-0.5,0.5-0.5h19
		C612.2,247.2,612.4,247.4,612.4,247.7z"/>
	<g class="st27">
		<path class="st28" d="M620.9,237.9c0,0.3-0.2,0.5-0.5,0.5h-10.6c-0.3,0-0.5-0.2-0.5-0.5c0-0.3,0.2-0.5,0.5-0.5h10.6
			C620.6,237.4,620.9,237.6,620.9,237.9z"/>
	</g>
	<g class="st27">
		<path class="st28" d="M630.2,247.7c0,0.3-0.2,0.5-0.5,0.5h-6.9c-0.3,0-0.5-0.2-0.5-0.5c0-0.3,0.2-0.5,0.5-0.5h6.9
			C630,247.2,630.2,247.4,630.2,247.7z"/>
	</g>
	<path class="st29" d="M630.2,234.6c0,0.3-0.2,0.5-0.5,0.5h-13.6c-0.3,0-0.5-0.2-0.5-0.5c0-0.3,0.2-0.5,0.5-0.5h13.6
		C630,234.2,630.2,234.4,630.2,234.6z"/>
	<path class="st30" d="M613.2,234.6c0,0.3-0.2,0.5-0.5,0.5h-12.6c-0.3,0-0.5-0.2-0.5-0.5c0-0.3,0.2-0.5,0.5-0.5h12.6
		C612.9,234.2,613.2,234.4,613.2,234.6z"/>
	<path class="st29" d="M603.5,221.6c0-0.3,0.2-0.5,0.5-0.5h13c0.3,0,0.5,0.2,0.5,0.5c0,0.3-0.2,0.5-0.5,0.5h-13
		C603.7,222.1,603.5,221.9,603.5,221.6z"/>
	<path class="st30" d="M619.8,221.6c0-0.3,0.2-0.5,0.5-0.5h9.4c0.3,0,0.5,0.2,0.5,0.5c0,0.3-0.2,0.5-0.5,0.5h-9.4
		C620,222.1,619.8,221.9,619.8,221.6z"/>
	<path class="st29" d="M621,225.4h-12.6c-0.3,0-0.5-0.2-0.5-0.5c0-0.3,0.2-0.5,0.5-0.5H621c0.3,0,0.5,0.2,0.5,0.5
		C621.5,225.2,621.3,225.4,621,225.4z"/>
	<path class="st26" d="M630.2,250.9c0,0.3-0.2,0.5-0.5,0.5h-6.8c-0.3,0-0.5-0.2-0.5-0.5c0-0.3,0.2-0.5,0.5-0.5h6.8
		C630,250.4,630.2,250.6,630.2,250.9z"/>
	<path class="st29" d="M630.2,224.9c0,0.3-0.2,0.5-0.5,0.5h-5.3c-0.3,0-0.5-0.2-0.5-0.5c0-0.3,0.2-0.5,0.5-0.5h5.3
		C630,224.4,630.2,224.6,630.2,224.9z"/>
	<path class="st29" d="M598.1,228.1c0-0.3,0.2-0.5,0.5-0.5h12.8c0.3,0,0.5,0.2,0.5,0.5c0,0.3-0.2,0.5-0.5,0.5h-12.8
		C598.3,228.6,598.1,228.4,598.1,228.1z"/>
	<path class="st26" d="M630.2,241.2c0,0.3-0.2,0.5-0.5,0.5h-4.9c-0.3,0-0.5-0.2-0.5-0.5c0-0.3,0.2-0.5,0.5-0.5h4.9
		C630,240.7,630.2,240.9,630.2,241.2z"/>
	<path class="st26" d="M584.7,237.4h21.6c0.3,0,0.5,0.2,0.5,0.5c0,0.3-0.2,0.5-0.5,0.5h-21.6c-0.3,0-0.5-0.2-0.5-0.5
		C584.2,237.6,584.5,237.4,584.7,237.4z"/>
	<path class="st26" d="M621.1,241.6h-17c-0.3,0-0.5-0.2-0.5-0.5c0-0.3,0.2-0.5,0.5-0.5h17c0.3,0,0.5,0.2,0.5,0.5
		C621.6,241.4,621.4,241.6,621.1,241.6z"/>
	<path class="st29" d="M574.4,237.4h8.1c0.3,0,0.5,0.2,0.5,0.5c0,0.3-0.2,0.5-0.5,0.5h-8.1c-0.3,0-0.5-0.2-0.5-0.5
		C574,237.6,574.2,237.4,574.4,237.4z"/>
	<path class="st29" d="M567,237.9c0-0.3,0.2-0.5,0.5-0.5h2.3c0.3,0,0.5,0.2,0.5,0.5c0,0.3-0.2,0.5-0.5,0.5h-2.3
		C567.3,238.3,567,238.1,567,237.9z"/>
	<path class="st29" d="M588.2,257.4c0,0.3-0.2,0.5-0.5,0.5h-20.2c-0.3,0-0.5-0.2-0.5-0.5c0-0.3,0.2-0.5,0.5-0.5h20.2
		C588,256.9,588.2,257.1,588.2,257.4z"/>
	<path class="st29" d="M567,250.9c0-0.3,0.2-0.5,0.5-0.5h15.2c0.3,0,0.5,0.2,0.5,0.5c0,0.3-0.2,0.5-0.5,0.5h-15.2
		C567.3,251.4,567,251.1,567,250.9z"/>
	<path class="st29" d="M571.1,247.1h19.1c0.3,0,0.5,0.2,0.5,0.5c0,0.3-0.2,0.5-0.5,0.5h-19.1c-0.3,0-0.5-0.2-0.5-0.5
		C570.6,247.4,570.8,247.1,571.1,247.1z"/>
	<path class="st29" d="M590.1,244.4c0-0.3,0.2-0.5,0.5-0.5h4.8c0.3,0,0.5,0.2,0.5,0.5c0,0.3-0.2,0.5-0.5,0.5h-4.8
		C590.3,244.8,590.1,244.6,590.1,244.4z"/>
	<path class="st29" d="M584.9,250.9c0-0.3,0.2-0.5,0.5-0.5h17.7c0.3,0,0.5,0.2,0.5,0.5c0,0.3-0.2,0.5-0.5,0.5h-17.7
		C585.1,251.4,584.9,251.1,584.9,250.9z"/>
	<path class="st29" d="M630.2,244.4c0,0.3-0.2,0.5-0.5,0.5h-10.1c-0.3,0-0.5-0.2-0.5-0.5c0-0.3,0.2-0.5,0.5-0.5h10.1
		C630,243.9,630.2,244.1,630.2,244.4z"/>
	<path class="st29" d="M597.6,243.9h9.8c0.3,0,0.5,0.2,0.5,0.5c0,0.3-0.2,0.5-0.5,0.5h-9.8c-0.3,0-0.5-0.2-0.5-0.5
		C597.2,244.1,597.4,243.9,597.6,243.9z"/>
	<path class="st29" d="M610.2,254.1c0,0.3-0.2,0.5-0.5,0.5h-30.8c-0.3,0-0.5-0.2-0.5-0.5c0-0.3,0.2-0.5,0.5-0.5h30.8
		C610,253.7,610.2,253.9,610.2,254.1z"/>
	<path class="st29" d="M606.9,250.4h12.6c0.3,0,0.5,0.2,0.5,0.5c0,0.3-0.2,0.5-0.5,0.5h-12.6c-0.3,0-0.5-0.2-0.5-0.5
		C606.4,250.6,606.7,250.4,606.9,250.4z"/>
	<path class="st29" d="M630.2,250.9c0,0.3-0.2,0.5-0.5,0.5h-6.8c-0.3,0-0.5-0.2-0.5-0.5c0-0.3,0.2-0.5,0.5-0.5h6.8
		C630,250.4,630.2,250.6,630.2,250.9z"/>
	<path class="st29" d="M630.2,241.1c0,0.3-0.2,0.5-0.5,0.5h-4.9c-0.3,0-0.5-0.2-0.5-0.5c0-0.3,0.2-0.5,0.5-0.5h4.9
		C630,240.6,630.2,240.9,630.2,241.1z"/>
	<path class="st29" d="M584.7,237.4h21.6c0.3,0,0.5,0.2,0.5,0.5c0,0.3-0.2,0.5-0.5,0.5h-21.6c-0.3,0-0.5-0.2-0.5-0.5
		C584.2,237.6,584.5,237.4,584.7,237.4z"/>
	<path class="st29" d="M621.1,241.6h-17c-0.3,0-0.5-0.2-0.5-0.5c0-0.3,0.2-0.5,0.5-0.5h17c0.3,0,0.5,0.2,0.5,0.5
		C621.6,241.4,621.4,241.6,621.1,241.6z"/>
	<g class="st27">
		<path class="st28" d="M630.2,254.1c0,0.3-0.2,0.5-0.5,0.5H613c-0.3,0-0.5-0.2-0.5-0.5c0-0.3,0.2-0.5,0.5-0.5h16.7
			C630,253.7,630.2,253.9,630.2,254.1z"/>
	</g>
	<g class="st27">
		<path class="st28" d="M630.2,228.1c0,0.3-0.2,0.5-0.5,0.5h-15.6c-0.3,0-0.5-0.2-0.5-0.5c0-0.3,0.2-0.5,0.5-0.5h15.6
			C630,227.7,630.2,227.9,630.2,228.1z"/>
	</g>
	<path class="st12" d="M567.4,247.2c0-0.3,0.2-0.5,0.5-0.5h0.9c0.3,0,0.5,0.2,0.5,0.5c0,0.3-0.2,0.5-0.5,0.5h-0.9
		C567.6,247.7,567.4,247.5,567.4,247.2z"/>
	<path class="st18" d="M266.7,317.6l8.5,23c0,0,0.6,7.8,5.4,7.5c4.8-0.3,2.3-5.4,2.4-5.7c0.1-0.3,1.4,0.7,1.9,0c0.9-1.3-2-3.2-2-3.2
		l-3.7-24.7L266.7,317.6z"/>
	<path d="M267.7,423l-0.1,3.8l22.6,0.3l0.1-3.8L267.7,423z"/>
	<path d="M278.2,413.5l12.1,9.8l-22.6-0.3l0.1-9.7L278.2,413.5z"/>
	<path class="st5" d="M290.3,423.5l-11.2-0.2V423l11.2,0.2L290.3,423.5z"/>
	<path class="st5" d="M272.4,425.8c0,0.4-0.1,0.7-0.1,1h-0.4c0,0,0,0,0-0.1c0.1-0.3,0.1-0.6,0.1-1c0-1-0.3-1.9-0.9-2.6
		c0-0.1-0.1-0.1-0.1-0.1c-0.8-1-2-1.6-3.3-1.6V421c1.5,0,2.9,0.7,3.7,1.9c0,0.1,0.1,0.1,0.1,0.1
		C272.1,423.8,272.4,424.8,272.4,425.8z"/>
	<path d="M233.1,422.5l-0.1,3.8l22.6,0.3l0.1-3.8L233.1,422.5z"/>
	<path d="M243.6,413l12.1,9.8l-22.6-0.3l0.1-9.7L243.6,413z"/>
	<path class="st5" d="M255.7,423l-11.2-0.2v-0.3l11.2,0.2V423z"/>
	<path class="st5" d="M237.8,425.3c0,0.4-0.1,0.7-0.1,1h-0.4c0,0,0,0,0-0.1c0.1-0.3,0.1-0.6,0.1-1c0-1-0.3-1.9-0.9-2.6
		c0-0.1-0.1-0.1-0.1-0.1c-0.8-1-2-1.6-3.3-1.6v-0.4c1.5,0,2.9,0.7,3.7,1.9c0,0.1,0.1,0.1,0.1,0.1
		C237.5,423.4,237.8,424.3,237.8,425.3z"/>
	<path class="st12" d="M270.5,289.5c0.1,0.1,4.1,2.6,6.2,8.6c2.2,6,1.1,9.5,0.7,9.8c-0.4,0.3-9.4,1.9-10.6,1.9
		c-1.2-0.1-5.7-5.6-5.7-5.6L270.5,289.5z"/>
	<path class="st5" d="M273.9,306.1c-0.1,0-0.1-1.1-0.2-3.4c-0.1-1.9-0.4-3.9-0.9-5.7c-0.5-2.2-0.9-3.3-0.8-3.4c0.1,0,0.6,1,1.2,3.2
		c0.5,1.9,0.8,3.9,0.9,5.8C274.2,305,274,306.1,273.9,306.1z"/>
	<path class="st10" d="M230.8,405.8c0,0.6,0,1.2,0,1.8c0,3.8,0.1,6.2,0.4,6.7c2.3,3.6,18.7,2.2,19.8,0.5c0.2-0.2,0.5-3.3,0.9-7.9
		c0.1-0.7,0.1-1.4,0.2-2.1c1.3-16.3,3.4-46.7,3.4-46.7s4.5,30.4,7.4,46.6c0.1,0.7,0.2,1.3,0.4,1.9c0.9,4.7,1.6,7.7,1.9,7.9
		c4.2,2.6,15.1,1.5,17.2,0.5c0.3-0.2,0.3-2.2,0.1-5.5c0-0.5-0.1-1.1-0.1-1.7c-1.8-19.4-9.9-71.2-9.9-71.2s-35.3-3.6-36.8,0
		C234.4,339.6,231.1,386.1,230.8,405.8z"/>
	<path class="st5" d="M235.8,399c-0.1,0-0.2-3.3-0.1-10l0.2-17c0.1-6.7,0.3-10,0.4-10c0.1,0,0.2,3.3,0.1,10l-0.2,17
		C236,395.7,235.9,399,235.8,399z"/>
	<path class="st5" d="M234.1,349.5c0-0.1,0.3-0.2,0.8-0.5c0.6-0.3,1.4-0.9,2.3-1.8c1.6-1.6,2.5-3.7,2.5-6c0.1-1.3-0.1-2.3-0.3-2.9
		c-0.2-0.6-0.2-1-0.2-1c0,0,0.2,0.3,0.5,0.9c0.2,0.6,0.5,1.6,0.5,3c0,1.2-0.3,2.3-0.7,3.4c-0.5,1.1-1.1,2.1-1.9,2.9
		c-1,1-1.9,1.5-2.5,1.8C234.5,349.5,234.1,349.6,234.1,349.5z"/>
	<path class="st5" d="M275.8,348.4c0,0-0.3,0-0.9-0.2c-0.6-0.2-1.5-0.6-2.5-1.5c-1.7-1.4-2.9-3.4-3.3-5.5c-0.3-1.3-0.2-2.2-0.1-2.9
		c0.1-0.6,0.2-0.9,0.2-0.9c0.1,0,0,0.3,0,0.9c0,0.6,0,1.6,0.3,2.7c0.4,2,1.6,3.9,3.2,5.2c0.9,0.8,1.7,1.3,2.3,1.6
		C275.6,348.2,275.9,348.3,275.8,348.4z"/>
	<path class="st12" d="M271.1,290.2c-1.8-4.3-29.4-6.3-35.8-0.1c-2.7,2.6-1.3,45.9-0.6,47.8c1.2,3.2,36.4,3.3,38.8,0.1
		C273.9,337.5,275.8,301.3,271.1,290.2z"/>
	<path class="st18" d="M244,311.3c-0.1,0.2,0,5.1,0,5.1c0.9,0.5,14.7,2.4,14.7,2.4s-0.3,6.8-0.8,7.6c-0.5,0.8-25.3,2.8-28.4-1.7
		c-1.7-2.6,0.7-13.9,0.7-13.9L244,311.3z"/>
	<path class="st12" d="M245.5,311.3c0,0,1.8-12.4,1.2-14.6c-1.7-7-7.9-8.7-10.9-7.1c-2.4,1.2-6.3,13.6-6.7,19.3
		C228.6,312.3,245,314.7,245.5,311.3z"/>
	<path class="st8" d="M290.1,304.5l-9.6,25.1c-0.1,0.3-0.4,0.5-0.7,0.5l-18.7-0.3l10.2-26.6l18.2,0.2
		C289.9,303.5,290.2,304,290.1,304.5z"/>
	<path class="st18" d="M258.7,318.8l3.7-0.6c0.2-0.2,1.5-1.5,1.2-2.5C263.3,314.7,258.7,318.8,258.7,318.8z"/>
	<path class="st22" d="M271.2,303.2L261,329.8l-1.7,0c-0.5,0-0.9-0.5-0.7-1l9.6-25.1c0.1-0.3,0.4-0.5,0.7-0.5L271.2,303.2z"/>
	<path class="st18" d="M258.1,281c-0.9,1-0.5,3.1-0.5,5c0.6,2.6-8.4,3.4-9.6,0.3c0.7-2.8,0.6-6.6-0.1-9.6
		C247.2,273.8,258.1,281,258.1,281z"/>
	<path class="st18" d="M258.5,281.5c-4.2,2.1-8.5-2.3-10.2-4.3c-0.4-0.5-0.7-0.9-0.7-0.9c-0.1-0.1-3.6-1.2-2.6-4.2
		c0.5-1.6,3.6,0.1,3.6,0.1s1.6-5.9,4.3-6.1c2.7-0.2,7.1,3.4,7.1,3.4s0.1,0.4,0.2,1C260.6,273.1,261.4,280,258.5,281.5z"/>
	<path class="st21" d="M262.8,269.2c-0.4,0.9-1.4,1.3-2.7,1.3c-2.9,0.1-7-1.6-8.1-1.6c-1.5-0.2-1.8,3.4-2.1,3.7
		c-0.4,0.3-1.3-0.4-1.3-0.4s-3-1.6-3.6-0.1c-1,3,2.5,4,2.6,4.2c0,0,0.3,0.4,0.7,0.9l0,1.9c0,0-4.5-5-5.1-6.9
		c-0.7-1.9,1.8-4.5,2.6-4.8c0.8-0.2-0.1-5.9,0.7-7.3c0.8-1.3,6.3,0.5,8.3,0.9c2,0.5,4.8-0.5,7.2,1
		C264.4,263.7,264.1,266.2,262.8,269.2z"/>
	<path class="st18" d="M257.9,326.4c0,0,9.2,2.5,10.6-4.3c1.4-6.5-5.7-4.1-6.1-4l-3.7,0.6L257.9,326.4z"/>
	<path class="st5" d="M246.5,298.3c0.1,0,0.1,0.3,0.2,1c0.1,0.7,0.2,1.7,0.2,3.1c0,2.3-0.3,4.7-0.7,7c-0.1,0.7-0.3,1.3-0.4,1.8
		c-0.2,0.5-0.5,0.9-0.8,1.1c-0.6,0.5-1,0.3-1,0.3c0-0.1,0.4-0.1,0.8-0.5c0.2-0.2,0.4-0.6,0.6-1c0.1-0.5,0.2-1.1,0.3-1.7
		c0.4-2.3,0.6-4.6,0.7-6.9C246.5,299.7,246.4,298.3,246.5,298.3z"/>
	<path class="st21" d="M256.2,282.1c-1,0-2.1-0.3-3-0.8l0.1-0.2c1.3,0.7,2.8,0.9,4.3,0.6l0,0.2C257.2,282.1,256.7,282.1,256.2,282.1
		z"/>
	<path class="st5" d="M256.6,344c0.1,0,0.2,0.3,0.6,0.9c0.3,0.6,0.8,1.5,1.2,2.8c0.3,1.1,0.5,2.3,0.4,3.5c-0.1,1.2-0.6,2.4-1.2,3.3
		c-0.4,0.6-0.9,1-1.2,1.4c-0.3,0.4-0.6,0.7-0.7,1c-0.2,0.6-0.1,0.9-0.2,1c0,0-0.3-0.3-0.1-1c0.1-0.4,0.3-0.8,0.6-1.2
		c0.3-0.4,0.7-0.8,1.1-1.4c0.6-0.9,1-2,1.2-3.1c0.1-1.1,0-2.2-0.4-3.3c-0.4-1.3-0.8-2.2-1-2.9C256.6,344.3,256.5,344,256.6,344z"/>
	<path class="st5" d="M246.6,286.5c0,0,5.2,5.2,5.3,5.2c0-0.1,2.4-3.6,2.4-3.6l-6-3.9C248.3,284.3,246.6,286.5,246.6,286.5z"/>
	<path class="st5" d="M254.3,288.2c0,0,2.5,2.4,2.6,2.4c0.1,0,2.6-4.1,2.6-4.1l-2-1.9l-3.2,3.4"/>
	<path class="st5" d="M230.8,405.8c0,0.6,0,1.2,0,1.8c2.6,0.9,5.2,1.5,8,1.8c0.8,0.1,1.6,0.1,2.4,0.1c4,0.1,7.7-0.9,10.7-2.6
		c0.1-0.7,0.1-1.4,0.2-2.1c-3.4,2.4-8.1,3.4-13.2,2.9C236.1,407.4,233.4,406.7,230.8,405.8z"/>
	<path class="st5" d="M262.8,404.7c0.1,0.7,0.2,1.3,0.4,1.9c3.8,1.5,7.7,2.8,11.8,3.2c0.8,0.1,1.6,0.1,2.4,0.1
		c1.7,0,3.4-0.1,4.9-0.4c0-0.5-0.1-1.1-0.1-1.7c-2.2,0.5-4.6,0.6-7.1,0.3C270.9,407.7,266.8,406.3,262.8,404.7z"/>
	<path class="st21" d="M238.7,318.4l-0.1-0.2c0.7-0.2,1.4-0.6,2-0.9c0.2-0.1,0.4-0.2,0.6-0.3c0.7-0.4,1.8-0.9,2.8-0.7l0,0.2
		c-1-0.1-2,0.3-2.7,0.7c-0.2,0.1-0.4,0.2-0.6,0.3C240.1,317.9,239.5,318.2,238.7,318.4z"/>
	<path class="st5" d="M278.1,397.3c-0.1,0-0.8-3.5-2-10.6l-3-18.2c-1.1-7.2-1.6-10.7-1.5-10.7c0.1,0,0.8,3.5,2,10.6l3,18.2
		C277.7,393.8,278.2,397.3,278.1,397.3z"/>
	<path class="st8" d="M40.2,202.1c13.1,0,23.8-10.7,23.8-23.8c0-13.1-10.7-23.8-23.8-23.8c-13.1,0-23.8,10.7-23.8,23.8
		C16.4,191.4,27,202.1,40.2,202.1z"/>
	<path class="st5" d="M25,170.9v14.8c0,2.1,1.7,3.9,3.9,3.9h23.8c2.1,0,3.9-1.7,3.9-3.9v-14.8c0-2.1-1.7-3.9-3.9-3.9H28.9
		C26.8,167,25,168.7,25,170.9z"/>
	<path class="st8" d="M40.8,180.8c0.2,0,0.3-0.1,0.4-0.2l11.8-10.2c0.3-0.2,0.3-0.6,0.1-0.9c-0.2-0.3-0.6-0.3-0.9-0.1l-11.4,9.8
		l-11.4-9.8c-0.3-0.2-0.7-0.2-0.9,0.1c-0.2,0.3-0.2,0.7,0.1,0.9l11.8,10.2C40.5,180.7,40.7,180.8,40.8,180.8z"/>
	<path class="st8" d="M29,186.1c0.2,0,0.3-0.1,0.4-0.2l9-7.8c0.3-0.2,0.3-0.6,0.1-0.9c-0.2-0.3-0.6-0.3-0.9-0.1l-9,7.8
		c-0.3,0.2-0.3,0.6-0.1,0.9C28.6,186,28.8,186.1,29,186.1z"/>
	<path class="st8" d="M52.7,186.1c0.2,0,0.4-0.1,0.5-0.2c0.2-0.3,0.2-0.7-0.1-0.9l-9-7.8c-0.3-0.2-0.7-0.2-0.9,0.1
		c-0.2,0.3-0.2,0.7,0.1,0.9l9,7.8C52.3,186,52.5,186.1,52.7,186.1z"/>
	<path class="st8" d="M604.9,146.3l24.1-31l-41.2,5.9c0,0,0,0,0,0.1L604.9,146.3C604.8,146.3,604.8,146.3,604.9,146.3z"/>
	<path class="st7" d="M630.5,114.7l-32.3,21.9l-4.6,4.5c0,0-0.1,0-0.1,0l0.2-11c0,0,0,0,1.6-0.7L630.5,114.7z"/>
	<path class="st7" d="M593.6,141.2l6.4-1.7c0,0,0,0,0-0.1l-1.9-2.7c0,0,0,0-0.1,0L593.6,141.2C593.5,141.1,593.6,141.2,593.6,141.2z
		"/>
	<path class="st16" d="M178.5,153.5h-45.3c-2.5,0-4.6-2-4.6-4.6v-32.1c0-2.5,2-4.6,4.6-4.6h45.3c2.5,0,4.6,2,4.6,4.6v32.1
		C183,151.5,181,153.5,178.5,153.5z"/>
	<g class="st32">
		<path d="M167.4,122.2L167.4,122.2l-0.4-0.4c-2.9-2.8-6.8-4.3-10.8-4.3c0,0,0,0-0.1,0c0,0,0,0-0.1,0c-0.5,0-1,0-1.5,0.1
			c-3.5,0.3-6.8,1.8-9.4,4.3l-0.4,0.4l0,0c-2.9,2.9-4.5,6.8-4.5,11c0,4.4,1.7,8.4,4.9,11.4c2.9,2.8,6.8,4.3,10.9,4.3
			c4.1,0,7.9-1.5,10.9-4.3c3.2-3,4.9-7.1,4.9-11.4C171.9,129,170.3,125.1,167.4,122.2z M146.9,121.9c0.2-0.1,0.3-0.3,0.5-0.4
			c0.2-0.2,0.4-0.3,0.6-0.4c0.2-0.1,0.3-0.2,0.5-0.3c0.2-0.1,0.4-0.3,0.6-0.4c0.2-0.1,0.4-0.2,0.5-0.3c0.2-0.1,0.4-0.2,0.7-0.3
			c0.2-0.1,0.4-0.2,0.5-0.2c0.2-0.1,0.5-0.2,0.7-0.3c0.1-0.1,0.3-0.1,0.4-0.1c-1.2,1.1-2.3,2.7-3.1,4.6c-0.8-0.5-1.6-1-2.3-1.6
			C146.6,122.1,146.7,122,146.9,121.9z M161.4,119.5c0.2,0.1,0.4,0.2,0.5,0.2c0.2,0.1,0.5,0.2,0.7,0.3c0.2,0.1,0.4,0.2,0.5,0.3
			c0.2,0.1,0.4,0.2,0.6,0.4c0.2,0.1,0.3,0.2,0.5,0.3c0.2,0.1,0.4,0.3,0.6,0.4c0.2,0.1,0.3,0.3,0.5,0.4c0.1,0.1,0.2,0.2,0.3,0.3
			c-0.7,0.6-1.5,1.2-2.3,1.6c-0.8-1.9-1.9-3.5-3.1-4.6c0.1,0,0.3,0.1,0.4,0.1C160.9,119.4,161.2,119.4,161.4,119.5z M156.7,118.6
			c2.3,0.3,4.4,2.5,5.7,5.7c-1.8,0.9-3.7,1.3-5.7,1.4V118.6z M155.6,125.7c-2-0.1-3.9-0.5-5.7-1.4c1.3-3.2,3.4-5.4,5.7-5.7V125.7z
			 M149.4,125.4c1.9,0.9,4,1.4,6.1,1.5v5.7h-7.3C148.3,130,148.7,127.5,149.4,125.4z M155.6,133.8v5.7c-2.1,0.1-4.2,0.6-6.1,1.5
			c-0.7-2.1-1.2-4.6-1.2-7.2H155.6z M155.6,140.6v7.1c-2.3-0.3-4.4-2.5-5.7-5.7C151.6,141.2,153.6,140.7,155.6,140.6z M156.7,147.8
			v-7.1c2,0.1,3.9,0.5,5.7,1.4C161.1,145.3,159,147.4,156.7,147.8z M162.8,141c-1.9-0.9-4-1.4-6.1-1.5v-5.7h7.3
			C164,136.4,163.6,138.8,162.8,141z M156.7,132.6v-5.7c2.1-0.1,4.2-0.6,6.1-1.5c0.7,2.1,1.2,4.6,1.2,7.2H156.7z M148.4,124.9
			c-0.8,2.3-1.3,4.9-1.4,7.7h-5.5c0.1-3.7,1.6-7,4.2-9.6C146.5,123.7,147.4,124.3,148.4,124.9z M147,133.8c0.1,2.8,0.5,5.5,1.4,7.7
			c-1,0.5-1.9,1.2-2.7,1.9c-2.6-2.6-4-6-4.2-9.6H147z M148.8,142.6c0.8,1.9,1.9,3.5,3.2,4.7c-2-0.6-3.9-1.6-5.5-3
			C147.3,143.6,148,143,148.8,142.6z M163.4,142.6c0.8,0.5,1.6,1,2.3,1.6c-1.6,1.4-3.4,2.4-5.5,3
			C161.5,146.1,162.6,144.5,163.4,142.6z M163.9,141.5c0.8-2.3,1.3-4.9,1.4-7.7h5.5c-0.1,3.6-1.6,7-4.2,9.6
			C165.7,142.7,164.8,142,163.9,141.5z M165.2,132.6c-0.1-2.8-0.5-5.5-1.4-7.7c1-0.5,1.9-1.2,2.7-1.9c2.6,2.6,4,6,4.2,9.6H165.2z"/>
	</g>
	<path class="st5" d="M166.8,121.6L166.8,121.6l-0.4-0.4c-2.9-2.8-6.8-4.3-10.8-4.3c0,0,0,0-0.1,0c0,0,0,0-0.1,0c-0.5,0-1,0-1.5,0.1
		c-3.5,0.3-6.8,1.8-9.4,4.3l-0.4,0.4l0,0c-2.9,2.9-4.5,6.8-4.5,11c0,4.4,1.7,8.4,4.9,11.4c2.9,2.8,6.8,4.3,10.9,4.3
		s7.9-1.5,10.9-4.3c3.2-3,4.9-7.1,4.9-11.4C171.3,128.4,169.7,124.6,166.8,121.6z M146.3,121.3c0.2-0.1,0.3-0.3,0.5-0.4
		c0.2-0.2,0.4-0.3,0.6-0.4c0.2-0.1,0.3-0.2,0.5-0.3c0.2-0.1,0.4-0.3,0.6-0.4c0.2-0.1,0.4-0.2,0.5-0.3c0.2-0.1,0.4-0.2,0.7-0.3
		c0.2-0.1,0.4-0.2,0.5-0.2c0.2-0.1,0.5-0.2,0.7-0.3c0.1-0.1,0.3-0.1,0.4-0.1c-1.2,1.1-2.3,2.7-3.1,4.6c-0.8-0.5-1.6-1-2.3-1.6
		C146.1,121.5,146.2,121.4,146.3,121.3z M160.8,119c0.2,0.1,0.4,0.2,0.5,0.2c0.2,0.1,0.5,0.2,0.7,0.3c0.2,0.1,0.4,0.2,0.5,0.3
		c0.2,0.1,0.4,0.2,0.6,0.4c0.2,0.1,0.3,0.2,0.5,0.3c0.2,0.1,0.4,0.3,0.6,0.4c0.2,0.1,0.3,0.3,0.5,0.4c0.1,0.1,0.2,0.2,0.3,0.3
		c-0.7,0.6-1.5,1.2-2.3,1.6c-0.8-1.9-1.9-3.5-3.1-4.6c0.1,0,0.3,0.1,0.4,0.1C160.4,118.8,160.6,118.9,160.8,119z M156.1,118
		c2.3,0.3,4.4,2.5,5.7,5.7c-1.8,0.9-3.7,1.3-5.7,1.4V118z M155,125.1c-2-0.1-3.9-0.5-5.7-1.4c1.3-3.2,3.4-5.4,5.7-5.7V125.1z
		 M148.8,124.8c1.9,0.9,4,1.4,6.1,1.5v5.7h-7.3C147.7,129.4,148.1,126.9,148.8,124.8z M155,133.2v5.7c-2.1,0.1-4.2,0.6-6.1,1.5
		c-0.7-2.1-1.2-4.6-1.2-7.2H155z M155,140v7.1c-2.3-0.3-4.4-2.5-5.7-5.7C151.1,140.6,153,140.1,155,140z M156.1,147.2v-7.1
		c2,0.1,3.9,0.5,5.7,1.4C160.5,144.7,158.5,146.9,156.1,147.2z M162.3,140.4c-1.9-0.9-4-1.4-6.1-1.5v-5.7h7.3
		C163.4,135.8,163,138.3,162.3,140.4z M156.1,132v-5.7c2.1-0.1,4.2-0.6,6.1-1.5c0.7,2.1,1.2,4.6,1.2,7.2H156.1z M147.8,124.3
		c-0.8,2.3-1.3,4.9-1.4,7.7H141c0.1-3.7,1.6-7,4.2-9.6C146,123.1,146.9,123.8,147.8,124.3z M146.5,133.2c0.1,2.8,0.5,5.5,1.4,7.7
		c-1,0.5-1.9,1.2-2.7,1.9c-2.6-2.6-4-6-4.2-9.6H146.5z M148.3,142c0.8,1.9,1.9,3.5,3.2,4.7c-2-0.6-3.9-1.6-5.5-3
		C146.7,143,147.4,142.5,148.3,142z M162.9,142c0.8,0.5,1.6,1,2.3,1.6c-1.6,1.4-3.4,2.4-5.5,3C161,145.5,162,143.9,162.9,142z
		 M163.3,140.9c0.8-2.3,1.3-4.9,1.4-7.7h5.5c-0.1,3.6-1.6,7-4.2,9.6C165.2,142.1,164.3,141.4,163.3,140.9z M164.6,132
		c-0.1-2.8-0.5-5.5-1.4-7.7c1-0.5,1.9-1.2,2.7-1.9c2.6,2.6,4,6,4.2,9.6H164.6z"/>
</g>
</svg>
