<?xml version="1.0" encoding="utf-8"?>
<!-- Generator: Adobe Illustrator 27.0.0, SVG Export Plug-In . SVG Version: 6.00 Build 0)  -->
<svg version="1.1" id="Layer_1" xmlns="http://www.w3.org/2000/svg" xmlns:xlink="http://www.w3.org/1999/xlink" x="0px" y="0px"
	 viewBox="0 0 708.9 424.3" style="enable-background:new 0 0 708.9 424.3;" xml:space="preserve">
<style type="text/css">
	.st0{opacity:0.53;}
	.st1{fill:#8AA4BE;}
	.st2{opacity:0.7;fill:#76B0F7;}
	.st3{fill:#0046AF;}
	.st4{opacity:0.31;}
	.st5{fill:#006BF3;}
	.st6{fill:#FFFFFF;}
	.st7{fill:#C3DCEE;}
	.st8{opacity:0.7;fill:#FFFFFF;}
	.st9{fill:#70B2F8;}
	.st10{fill:#76B0F7;}
	.st11{opacity:0.7;}
	.st12{opacity:0.6;}
	.st13{opacity:0.7;fill:#BBDDFF;}
	.st14{opacity:0.5;fill:#FFFFFF;}
	.st15{fill:#007EFF;}
	.st16{fill:#E5EEFF;}
	.st17{fill:url(#SVGID_1_);}
	.st18{fill:url(#SVGID_00000016058453136095322570000015789861904365709991_);}
	.st19{fill:url(#SVGID_00000176723392953184366310000011732115503103738260_);}
	.st20{opacity:0.4;}
	.st21{fill:url(#SVGID_00000038413133669885697440000013839446732773440670_);}
	.st22{fill:url(#SVGID_00000012462960090632696240000014946908875465679797_);}
	.st23{fill:#E6F5FF;}
	.st24{fill:url(#SVGID_00000009562676996926945020000008641858403018436031_);}
	.st25{fill:url(#SVGID_00000037653041354386899560000003601993774051265441_);}
</style>
<g>
	<g class="st0">
		<path class="st1" d="M158,44.2l19.4,25.3v-2.1L161,46.1C160,45.4,159,44.8,158,44.2z"/>
		<path class="st1" d="M142.1,38l35.3,46v-2.1L144,38.5C143.4,38.3,142.7,38.1,142.1,38z"/>
		<path class="st1" d="M129.8,36.5l47.6,61.9v-2.1l-45.9-59.8C130.9,36.5,130.4,36.5,129.8,36.5z"/>
		<path class="st1" d="M119.3,37.3l58,75.5v-2.1l-56.6-73.7C120.3,37.2,119.8,37.3,119.3,37.3z"/>
		<path class="st1" d="M110.1,39.7l66.9,87c0.1-0.2,0.3-0.4,0.4-0.6v-0.9l-66.1-85.9C110.9,39.5,110.5,39.6,110.1,39.7z"/>
		<path class="st1" d="M101.8,43.4l69.5,90.5c0.3-0.3,0.6-0.6,0.9-0.9l-69.3-90.1C102.5,43,102.1,43.2,101.8,43.4z"/>
		<path class="st1" d="M94.3,48.2l70.4,91.6c0.3-0.3,0.7-0.5,1-0.8L95.3,47.5C95,47.7,94.6,47.9,94.3,48.2z"/>
		<path class="st1" d="M87.7,54l69.7,90.7c0.4-0.2,0.7-0.4,1.1-0.6l-69.9-91C88.3,53.4,88,53.7,87.7,54z"/>
		<path class="st1" d="M81.9,61l67.3,87.6c0.4-0.2,0.8-0.3,1.2-0.5L82.7,59.9C82.4,60.3,82.2,60.6,81.9,61z"/>
		<path class="st1" d="M77.1,69.2l62.9,81.9c0.5-0.1,0.9-0.2,1.4-0.3L77.7,67.9C77.5,68.4,77.3,68.8,77.1,69.2z"/>
		<path class="st1" d="M73.4,78.9l56.3,73.2c0.5,0,1,0,1.6,0L73.9,77.4C73.7,77.9,73.6,78.4,73.4,78.9z"/>
		<path class="st1" d="M71.5,90.8l46.2,60.1c0.6,0.1,1.2,0.2,1.9,0.3L71.6,88.9C71.6,89.6,71.5,90.2,71.5,90.8z"/>
		<path class="st1" d="M72.8,107l29.7,38.6c0.8,0.4,1.7,0.9,2.5,1.2l-32.8-42.6C72.4,105.1,72.5,106,72.8,107z"/>
	</g>
	<path class="st2" d="M295,369.9c-117.2,0-212.3,4.7-212.3,10.5c0,5.8,95,10.5,212.3,10.5s212.3-4.7,212.3-10.5
		C507.2,374.6,412.2,369.9,295,369.9z"/>
	<g>
		<path class="st3" d="M625.4,327.5H386.9v-0.7h238.5c12.3,0,22.3-10.1,22.3-22.5v-64.8h0.7v64.8C648.3,317.1,638,327.5,625.4,327.5
			z"/>
	</g>
	<g class="st4">
		<path class="st5" d="M550.1,75.8c-0.9,0-1.7,1-1.7,2.3c0,1.3,0.7,2.3,1.7,2.3c0.6,0,1.2-0.5,1.4-1.2L550.1,75.8
			C550.1,75.8,550.1,75.8,550.1,75.8z"/>
		<path class="st5" d="M550.1,108.2c0.3,0,0.5-0.1,0.8-0.3c-0.4-0.3-1.3-0.8-2.4-1.5C548.6,107.5,549.3,108.2,550.1,108.2z"/>
		<path class="st5" d="M548.4,115.2c0,0.4,0.1,0.8,0.2,1.2l1.4-3.5C549.2,112.9,548.4,113.9,548.4,115.2z"/>
		<path class="st5" d="M545.8,66.1c0.1,0.1,0.3,0.2,0.4,0.3C546.1,66.3,546,66.2,545.8,66.1z"/>
		<path class="st5" d="M535,67.3c-0.3,0.4-0.4,0.9-0.4,1.5c0,1.3,0.7,2.3,1.7,2.3c0.9,0,1.7-1,1.7-2.3c0-0.6-0.2-1.1-0.4-1.5
			C536.7,67.4,535.8,67.4,535,67.3z"/>
		<path class="st5" d="M543.3,66.5c-0.2,0-0.3,0.1-0.5,0.1c-0.7,0.3-1.2,1.2-1.2,2.2c0,1.3,0.7,2.3,1.7,2.3c0.9,0,1.7-1,1.7-2.3
			C544.9,67.6,544.2,66.6,543.3,66.5z"/>
		<path class="st5" d="M539.7,71.2c-0.9,0-1.7,1-1.7,2.3s0.7,2.3,1.7,2.3c0.9,0,1.7-1,1.7-2.3S540.7,71.2,539.7,71.2z"/>
		<path class="st5" d="M546.8,71.2c-0.9,0-1.7,1-1.7,2.3s0.7,2.3,1.7,2.3c0.9,0,1.7-1,1.7-2.3S547.7,71.2,546.8,71.2z"/>
		<path class="st5" d="M536.2,75.8c-0.9,0-1.7,1-1.7,2.3c0,1.3,0.7,2.3,1.7,2.3c0.9,0,1.7-1,1.7-2.3
			C537.9,76.8,537.2,75.8,536.2,75.8z"/>
		<path class="st5" d="M543.3,75.8c-0.9,0-1.7,1-1.7,2.3c0,1.3,0.7,2.3,1.7,2.3c0.9,0,1.7-1,1.7-2.3
			C544.9,76.8,544.2,75.8,543.3,75.8z"/>
		<path class="st5" d="M539.7,80.4c-0.9,0-1.7,1-1.7,2.3s0.7,2.3,1.7,2.3c0.9,0,1.7-1,1.7-2.3S540.7,80.4,539.7,80.4z"/>
		<path class="st5" d="M546.8,80.4c-0.9,0-1.7,1-1.7,2.3c0,0.7,0.2,1.3,0.5,1.7c1-0.8,1.9-1.5,2.8-2.1
			C548.3,81.2,547.6,80.4,546.8,80.4z"/>
		<path class="st5" d="M536.2,85.1c-0.9,0-1.7,1-1.7,2.3c0,1.3,0.7,2.3,1.7,2.3c0.9,0,1.7-1,1.7-2.3
			C537.9,86.1,537.2,85.1,536.2,85.1z"/>
		<path class="st5" d="M541.6,87.4c0,0.4,0.1,0.7,0.2,1c0.8-1,1.6-2,2.5-2.8c-0.3-0.3-0.7-0.5-1.1-0.5
			C542.3,85.1,541.6,86.1,541.6,87.4z"/>
		<path class="st5" d="M538.1,92c0,1.1,0.6,2.1,1.4,2.3c0-1.4,0.5-2.9,1.2-4.2c-0.3-0.2-0.6-0.4-0.9-0.4
			C538.8,89.7,538.1,90.7,538.1,92z"/>
		<path class="st5" d="M536.2,94.3c-0.9,0-1.7,1-1.7,2.3c0,1.3,0.7,2.3,1.7,2.3c0.9,0,1.7-1,1.7-2.3
			C537.9,95.4,537.2,94.3,536.2,94.3z"/>
		<path class="st5" d="M539.7,99c-0.9,0-1.7,1-1.7,2.3c0,1.3,0.7,2.3,1.7,2.3c0.9,0,1.7-1,1.7-2.3C541.4,100,540.7,99,539.7,99z"/>
		<path class="st5" d="M536.2,103.6c-0.9,0-1.7,1-1.7,2.3c0,1.3,0.7,2.3,1.7,2.3c0.9,0,1.7-1,1.7-2.3
			C537.9,104.6,537.2,103.6,536.2,103.6z"/>
		<path class="st5" d="M543.3,103.6c-0.9,0-1.7,1-1.7,2.3c0,1.3,0.7,2.3,1.7,2.3c0.9,0,1.7-1,1.7-2.3
			C544.9,104.6,544.2,103.6,543.3,103.6z"/>
		<path class="st5" d="M539.7,108.2c-0.9,0-1.7,1-1.7,2.3c0,1.3,0.7,2.3,1.7,2.3c0.9,0,1.7-1,1.7-2.3
			C541.4,109.3,540.7,108.2,539.7,108.2z"/>
		<path class="st5" d="M546.8,108.2c-0.9,0-1.7,1-1.7,2.3c0,1.3,0.7,2.3,1.7,2.3c0.9,0,1.7-1,1.7-2.3
			C548.4,109.3,547.7,108.2,546.8,108.2z"/>
		<path class="st5" d="M536.2,112.9c-0.9,0-1.7,1-1.7,2.3c0,1.3,0.7,2.3,1.7,2.3c0.9,0,1.7-1,1.7-2.3
			C537.9,113.9,537.2,112.9,536.2,112.9z"/>
		<path class="st5" d="M543.3,112.9c-0.9,0-1.7,1-1.7,2.3c0,1.3,0.7,2.3,1.7,2.3c0.9,0,1.7-1,1.7-2.3
			C544.9,113.9,544.2,112.9,543.3,112.9z"/>
		<path class="st5" d="M539.7,117.5c-0.9,0-1.7,1-1.7,2.3c0,0.6,0.2,1.2,0.5,1.6c0.8,0.1,1.5,0.2,2.2,0.3c0.4-0.4,0.7-1.1,0.7-1.9
			C541.4,118.5,540.7,117.5,539.7,117.5z"/>
		<path class="st5" d="M546.8,117.5c-0.9,0-1.7,1-1.7,2.3c0,1.1,0.5,2,1.2,2.2l1.6-3.9C547.6,117.8,547.2,117.5,546.8,117.5z"/>
		<path class="st5" d="M543.2,122.1c0.2,0,0.3,0.1,0.5,0.1C543.6,122.2,543.4,122.1,543.2,122.1
			C543.3,122.1,543.2,122.1,543.2,122.1z"/>
		<path class="st5" d="M525.4,45.5l-1.1-0.5c0,0.2-0.1,0.4-0.1,0.7c0,1.1,0.5,2,1.3,2.2c0.2-0.9,0.4-1.4,0.4-1.4
			C526,46.1,525.8,45.6,525.4,45.5z"/>
		<path class="st5" d="M522.4,48c-0.9,0-1.7,1-1.7,2.3c0,1.3,0.7,2.3,1.7,2.3c0.9,0,1.7-1,1.7-2.3C524,49,523.3,48,522.4,48z"/>
		<path class="st5" d="M524.5,56.3c0-1,0-1.9,0.1-2.9c-0.3,0.4-0.4,0.9-0.4,1.5C524.2,55.5,524.3,55.9,524.5,56.3z"/>
		<path class="st5" d="M522.4,131.4c-0.9,0-1.7,1-1.7,2.3c0,1.3,0.7,2.3,1.7,2.3c0.9,0,1.7-1,1.7-2.3
			C524,132.4,523.3,131.4,522.4,131.4z"/>
		<path class="st5" d="M524.2,138.4c0,1,0.5,1.9,1.2,2.2c-0.2-1-0.5-2.3-0.7-3.9C524.4,137.1,524.2,137.7,524.2,138.4z"/>
		<path class="st5" d="M522.4,140.7c-0.9,0-1.7,1-1.7,2.3c0,0.8,0.3,1.5,0.7,1.9l2.5-1.1c0.1-0.3,0.1-0.5,0.1-0.8
			C524,141.7,523.3,140.7,522.4,140.7z"/>
		<path class="st5" d="M513.9,41.1c0,1.3,0.7,2.3,1.7,2.3c0.7,0,1.3-0.6,1.5-1.4l-3.2-1.3C513.9,40.8,513.9,40.9,513.9,41.1z"/>
		<path class="st5" d="M512,43.4c-0.9,0-1.7,1-1.7,2.3c0,1.3,0.7,2.3,1.7,2.3c0.9,0,1.7-1,1.7-2.3C513.7,44.4,513,43.4,512,43.4z"/>
		<path class="st5" d="M519.1,43.4c-0.9,0-1.7,1-1.7,2.3c0,1.3,0.7,2.3,1.7,2.3c0.9,0,1.7-1,1.7-2.3C520.7,44.4,520,43.4,519.1,43.4
			z"/>
		<path class="st5" d="M508.5,48c-0.9,0-1.7,1-1.7,2.3c0,1.3,0.7,2.3,1.7,2.3c0.9,0,1.7-1,1.7-2.3C510.2,49,509.4,48,508.5,48z"/>
		<path class="st5" d="M515.5,48c-0.9,0-1.7,1-1.7,2.3c0,1.3,0.7,2.3,1.7,2.3c0.9,0,1.7-1,1.7-2.3C517.2,49,516.5,48,515.5,48z"/>
		<path class="st5" d="M512,52.6c-0.9,0-1.7,1-1.7,2.3c0,1.3,0.7,2.3,1.7,2.3c0.9,0,1.7-1,1.7-2.3C513.7,53.7,513,52.6,512,52.6z"/>
		<path class="st5" d="M519.1,52.6c-0.9,0-1.7,1-1.7,2.3c0,1.3,0.7,2.3,1.7,2.3c0.9,0,1.7-1,1.7-2.3C520.7,53.7,520,52.6,519.1,52.6
			z"/>
		<path class="st5" d="M508.5,131.4c-0.9,0-1.7,1-1.7,2.3c0,1.3,0.7,2.3,1.7,2.3c0.9,0,1.7-1,1.7-2.3
			C510.2,132.4,509.4,131.4,508.5,131.4z"/>
		<path class="st5" d="M515.5,131.4c-0.9,0-1.7,1-1.7,2.3c0,1.3,0.7,2.3,1.7,2.3c0.9,0,1.7-1,1.7-2.3
			C517.2,132.4,516.5,131.4,515.5,131.4z"/>
		<path class="st5" d="M512,136c-0.9,0-1.7,1-1.7,2.3s0.7,2.3,1.7,2.3c0.9,0,1.7-1,1.7-2.3S513,136,512,136z"/>
		<path class="st5" d="M519.1,136c-0.9,0-1.7,1-1.7,2.3s0.7,2.3,1.7,2.3c0.9,0,1.7-1,1.7-2.3S520,136,519.1,136z"/>
		<path class="st5" d="M508.5,140.7c-0.7,0-1.2,0.5-1.5,1.3c0.9,1,1.7,2.1,2.4,3c0.5-0.4,0.8-1.1,0.8-2
			C510.2,141.7,509.4,140.7,508.5,140.7z"/>
		<path class="st5" d="M515.5,140.7c-0.9,0-1.7,1-1.7,2.3c0,1.3,0.7,2.3,1.7,2.3c0.9,0,1.7-1,1.7-2.3
			C517.2,141.7,516.5,140.7,515.5,140.7z"/>
		<path class="st5" d="M512,145.3c-0.7,0-1.2,0.6-1.5,1.3c0.6,0.9,0.9,1.5,0.9,1.5c0.2,0.4,0.7,0.5,1,0.4l1.2-0.5c0-0.2,0-0.3,0-0.5
			C513.7,146.3,513,145.3,512,145.3z"/>
		<path class="st5" d="M517.6,146.4l2.1-0.9c-0.2-0.1-0.5-0.2-0.7-0.2C518.4,145.3,517.9,145.8,517.6,146.4z"/>
		<path class="st5" d="M494.7,52.6c0.4,0,0.8-0.2,1.1-0.6c-0.9-0.3-1.9-0.7-2.8-1.2C493.2,51.8,493.9,52.6,494.7,52.6z"/>
		<path class="st5" d="M500.4,51.8c0.3,0.5,0.8,0.8,1.3,0.8c0.9,0,1.7-1,1.7-2.3c0,0,0-0.1,0-0.1C502.4,50.9,501.4,51.4,500.4,51.8z
			"/>
		<ellipse class="st5" cx="498.2" cy="55" rx="1.7" ry="2.3"/>
		<path class="st5" d="M505.2,52.6c-0.9,0-1.7,1-1.7,2.3c0,1.3,0.7,2.3,1.7,2.3c0.9,0,1.7-1,1.7-2.3
			C506.9,53.7,506.1,52.6,505.2,52.6z"/>
		<path class="st5" d="M494.7,131.4c-0.9,0-1.7,1-1.7,2.3c0,1.3,0.7,2.3,1.7,2.3c0.9,0,1.7-1,1.7-2.3
			C496.3,132.4,495.6,131.4,494.7,131.4z"/>
		<path class="st5" d="M501.7,131.4c-0.9,0-1.7,1-1.7,2.3c0,1.3,0.7,2.3,1.7,2.3c0.9,0,1.7-1,1.7-2.3
			C503.3,132.4,502.6,131.4,501.7,131.4z"/>
		<path class="st5" d="M497.4,136.3c0.1,0,0.2,0,0.3,0c0.6,0,1,0.1,1.5,0.2c-0.3-0.3-0.6-0.4-1-0.4
			C497.9,136,497.6,136.2,497.4,136.3z"/>
		<path class="st5" d="M505.2,136c-0.9,0-1.7,1-1.7,2.3c0,0.1,0,0.2,0,0.3c0.8,0.6,1.5,1.2,2.2,1.9c0.7-0.3,1.1-1.2,1.1-2.2
			C506.9,137.1,506.1,136,505.2,136z"/>
		<path class="st5" d="M479.2,41.6c0.2,1,0.8,1.7,1.6,1.7c0.9,0,1.7-1,1.7-2.3c0-0.3,0-0.5-0.1-0.8L479.2,41.6z"/>
		<path class="st5" d="M484.3,43.4c-0.9,0-1.7,1-1.7,2.3c0,1.3,0.7,2.3,1.7,2.3c0.9,0,1.7-1,1.7-2.3C486,44.4,485.2,43.4,484.3,43.4
			z"/>
		<path class="st5" d="M480.8,48c-0.9,0-1.7,1-1.7,2.3c0,1.3,0.7,2.3,1.7,2.3c0.9,0,1.7-1,1.7-2.3C482.5,49,481.7,48,480.8,48z"/>
		<path class="st5" d="M487.8,48c-0.9,0-1.7,1-1.7,2.3c0,1.3,0.7,2.3,1.7,2.3c0.9,0,1.7-1,1.7-2.3C489.5,49,488.7,48,487.8,48z"/>
		<path class="st5" d="M484.3,52.6c-0.9,0-1.7,1-1.7,2.3c0,1.3,0.7,2.3,1.7,2.3c0.9,0,1.7-1,1.7-2.3C486,53.7,485.2,52.6,484.3,52.6
			z"/>
		<ellipse class="st5" cx="491.3" cy="55" rx="1.7" ry="2.3"/>
		<path class="st5" d="M480.8,131.4c-0.9,0-1.7,1-1.7,2.3c0,1.3,0.7,2.3,1.7,2.3c0.9,0,1.7-1,1.7-2.3
			C482.5,132.4,481.7,131.4,480.8,131.4z"/>
		<path class="st5" d="M487.8,131.4c-0.9,0-1.7,1-1.7,2.3c0,1.3,0.7,2.3,1.7,2.3c0.9,0,1.7-1,1.7-2.3
			C489.5,132.4,488.7,131.4,487.8,131.4z"/>
		<path class="st5" d="M484.3,136c-0.9,0-1.7,1-1.7,2.3s0.7,2.3,1.7,2.3c0.9,0,1.7-1,1.7-2.3S485.2,136,484.3,136z"/>
		<path class="st5" d="M491.3,136c-0.9,0-1.7,1-1.7,2.3c0,0.6,0.2,1.2,0.5,1.6c0.9-0.8,1.8-1.5,2.8-2.2
			C492.8,136.8,492.1,136,491.3,136z"/>
		<path class="st5" d="M480.8,140.7c-0.9,0-1.7,1-1.7,2.3c0,1.3,0.7,2.3,1.7,2.3c0.9,0,1.7-1,1.7-2.3
			C482.5,141.7,481.7,140.7,480.8,140.7z"/>
		<path class="st5" d="M487.8,140.7c-0.9,0-1.7,1-1.7,2.3c0,0.5,0.1,0.9,0.3,1.3c0.7-1,1.5-2,2.5-3
			C488.6,140.9,488.2,140.7,487.8,140.7z"/>
		<path class="st5" d="M482.7,147.6c0,0.3,0,0.6,0.1,0.9c0.4,0.1,0.9,0,1.1-0.4c0,0,0.5-1,1.5-2.3c-0.3-0.3-0.6-0.5-1-0.5
			C483.4,145.3,482.7,146.3,482.7,147.6z"/>
		<path class="st5" d="M470.1,45.4c-0.4,0.2-0.5,0.6-0.3,1c0,0,0.3,0.6,0.8,1.6c0.9-0.1,1.6-1.1,1.6-2.3c0-0.4-0.1-0.7-0.2-1
			L470.1,45.4z"/>
		<path class="st5" d="M477.5,43.4c-0.9,0-1.7,1-1.7,2.3c0,1.3,0.7,2.3,1.7,2.3c0.9,0,1.7-1,1.7-2.3
			C479.1,44.4,478.4,43.4,477.5,43.4z"/>
		<path class="st5" d="M474,48c-0.9,0-1.7,1-1.7,2.3c0,1.3,0.7,2.3,1.7,2.3c0.9,0,1.7-1,1.7-2.3C475.6,49,474.9,48,474,48z"/>
		<path class="st5" d="M477.5,52.6c-0.9,0-1.7,1-1.7,2.3c0,1.3,0.7,2.3,1.7,2.3c0.9,0,1.7-1,1.7-2.3
			C479.1,53.7,478.4,52.6,477.5,52.6z"/>
		<path class="st5" d="M474,131.4c-0.9,0-1.7,1-1.7,2.3c0,1.3,0.7,2.3,1.7,2.3c0.9,0,1.7-1,1.7-2.3
			C475.6,132.4,474.9,131.4,474,131.4z"/>
		<path class="st5" d="M470.4,140.7C470.4,140.7,470.4,140.7,470.4,140.7c1,0,1.7-1,1.7-2.3c0-0.5-0.1-1-0.3-1.4
			C471.4,138.3,470.8,139.7,470.4,140.7z"/>
		<path class="st5" d="M477.5,136c-0.9,0-1.7,1-1.7,2.3s0.7,2.3,1.7,2.3c0.9,0,1.7-1,1.7-2.3S478.4,136,477.5,136z"/>
		<path class="st5" d="M474,140.7c-0.9,0-1.7,1-1.7,2.3c0,0.5,0.1,0.9,0.3,1.3l2,0.9c0.6-0.4,1-1.2,1-2.1
			C475.6,141.7,474.9,140.7,474,140.7z"/>
		<path class="st5" d="M477.5,145.3c-0.4,0-0.8,0.2-1.1,0.6l2.7,1.1C478.9,146,478.2,145.3,477.5,145.3z"/>
		<path class="st5" d="M453.8,66.8c-0.4-0.1-0.7-0.1-1-0.2c-0.8,0.2-1.4,1.1-1.4,2.3c0,1.3,0.7,2.3,1.7,2.3c0.9,0,1.7-1,1.7-2.3
			C454.8,67.9,454.4,67.1,453.8,66.8z"/>
		<path class="st5" d="M458.9,67.3c-0.3,0.4-0.4,1-0.4,1.6c0,1.3,0.7,2.3,1.7,2.3c0.9,0,1.7-1,1.7-2.3c0-0.6-0.2-1.2-0.5-1.6
			C460.5,67.3,459.7,67.3,458.9,67.3z"/>
		<path class="st5" d="M456.6,71.2c-0.9,0-1.7,1-1.7,2.3s0.7,2.3,1.7,2.3c0.9,0,1.7-1,1.7-2.3S457.5,71.2,456.6,71.2z"/>
		<path class="st5" d="M463.6,71.2c-0.9,0-1.7,1-1.7,2.3s0.7,2.3,1.7,2.3c0.9,0,1.7-1,1.7-2.3S464.5,71.2,463.6,71.2z"/>
		<path class="st5" d="M453.1,75.8c-0.9,0-1.7,1-1.7,2.3c0,1.3,0.7,2.3,1.7,2.3c0.9,0,1.7-1,1.7-2.3C454.8,76.8,454,75.8,453.1,75.8
			z"/>
		<path class="st5" d="M460.1,75.8c-0.9,0-1.7,1-1.7,2.3c0,1.3,0.7,2.3,1.7,2.3c0.9,0,1.7-1,1.7-2.3C461.8,76.8,461,75.8,460.1,75.8
			z"/>
		<path class="st5" d="M456.6,80.4c-0.9,0-1.7,1-1.7,2.3s0.7,2.3,1.7,2.3c0.9,0,1.7-1,1.7-2.3S457.5,80.4,456.6,80.4z"/>
		<path class="st5" d="M463.6,80.4c-0.9,0-1.7,1-1.7,2.3s0.7,2.3,1.7,2.3c0.9,0,1.7-1,1.7-2.3S464.5,80.4,463.6,80.4z"/>
		<path class="st5" d="M453.1,85.1c-0.6,0-1.1,0.4-1.4,1c0.9,0.9,1.8,1.9,2.5,3c0.3-0.4,0.6-1,0.6-1.7
			C454.8,86.1,454,85.1,453.1,85.1z"/>
		<path class="st5" d="M460.1,85.1c-0.9,0-1.7,1-1.7,2.3c0,1.3,0.7,2.3,1.7,2.3c0.9,0,1.7-1,1.7-2.3C461.8,86.1,461,85.1,460.1,85.1
			z"/>
		<path class="st5" d="M456.6,89.7c-0.6,0-1.2,0.5-1.4,1.2c0.5,1.1,0.8,2.2,0.8,3.3c0.2,0.1,0.4,0.2,0.6,0.2c0.9,0,1.7-1,1.7-2.3
			C458.3,90.7,457.5,89.7,456.6,89.7z"/>
		<path class="st5" d="M463.6,89.7c-0.9,0-1.7,1-1.7,2.3c0,1.3,0.7,2.3,1.7,2.3c0.9,0,1.7-1,1.7-2.3
			C465.3,90.7,464.5,89.7,463.6,89.7z"/>
		<path class="st5" d="M460.1,94.3c-0.9,0-1.7,1-1.7,2.3c0,1.3,0.7,2.3,1.7,2.3c0.9,0,1.7-1,1.7-2.3C461.8,95.4,461,94.3,460.1,94.3
			z"/>
		<path class="st5" d="M456.6,99c-0.9,0-1.7,1-1.7,2.3c0,1.3,0.7,2.3,1.7,2.3c0.9,0,1.7-1,1.7-2.3C458.3,100,457.5,99,456.6,99z"/>
		<path class="st5" d="M463.6,99c-0.9,0-1.7,1-1.7,2.3c0,1.3,0.7,2.3,1.7,2.3c0.9,0,1.7-1,1.7-2.3C465.3,100,464.5,99,463.6,99z"/>
		<path class="st5" d="M453.1,103.6c-0.9,0-1.7,1-1.7,2.3c0,1.3,0.7,2.3,1.7,2.3c0.9,0,1.7-1,1.7-2.3
			C454.8,104.6,454,103.6,453.1,103.6z"/>
		<path class="st5" d="M460.1,103.6c-0.9,0-1.7,1-1.7,2.3c0,1.3,0.7,2.3,1.7,2.3c0.9,0,1.7-1,1.7-2.3
			C461.8,104.6,461,103.6,460.1,103.6z"/>
		<path class="st5" d="M456.6,108.2c-0.9,0-1.7,1-1.7,2.3c0,1.3,0.7,2.3,1.7,2.3c0.9,0,1.7-1,1.7-2.3
			C458.3,109.3,457.5,108.2,456.6,108.2z"/>
		<path class="st5" d="M463.6,108.2c-0.9,0-1.7,1-1.7,2.3c0,1.3,0.7,2.3,1.7,2.3c0.9,0,1.7-1,1.7-2.3
			C465.3,109.3,464.5,108.2,463.6,108.2z"/>
		<path class="st5" d="M453.1,112.9c-0.9,0-1.7,1-1.7,2.3c0,1.3,0.7,2.3,1.7,2.3c0.9,0,1.7-1,1.7-2.3
			C454.8,113.9,454,112.9,453.1,112.9z"/>
		<path class="st5" d="M460.1,112.9c-0.9,0-1.7,1-1.7,2.3c0,1.3,0.7,2.3,1.7,2.3c0.9,0,1.7-1,1.7-2.3
			C461.8,113.9,461,112.9,460.1,112.9z"/>
		<path class="st5" d="M456.6,117.5c-0.9,0-1.7,1-1.7,2.3c0,0.7,0.2,1.3,0.5,1.7c0.8-0.1,1.6-0.2,2.4-0.2c0.2-0.4,0.4-0.9,0.4-1.5
			C458.3,118.5,457.5,117.5,456.6,117.5z"/>
		<path class="st5" d="M463.6,117.5c-0.9,0-1.7,1-1.7,2.3c0,0.6,0.2,1.2,0.5,1.6c0.7,0.1,1.3,0.2,1.9,0.4c0.5-0.4,0.9-1.2,0.9-2
			C465.3,118.5,464.5,117.5,463.6,117.5z"/>
		<path class="st5" d="M449.2,66.4c0.2,0.1,0.4,0.1,0.6,0.1c0.4,0,0.7-0.2,1-0.4c-0.3-0.1-0.5-0.1-0.5-0.1
			C449.8,65.9,449.4,66.1,449.2,66.4z"/>
		<path class="st5" d="M447.6,70.2c0-0.1,0.1-0.2,0.1-0.3L447.6,70.2z"/>
		<path class="st5" d="M449.8,71.2c-0.9,0-1.7,1-1.7,2.3s0.7,2.3,1.7,2.3c0.9,0,1.7-1,1.7-2.3S450.7,71.2,449.8,71.2z"/>
		<path class="st5" d="M446.2,75.8c-0.9,0-1.7,1-1.7,2.3c0,1.3,0.7,2.3,1.7,2.3c0.9,0,1.7-1,1.7-2.3
			C447.9,76.8,447.2,75.8,446.2,75.8z"/>
		<path class="st5" d="M449.8,80.4c-0.9,0-1.7,1-1.7,2.3c0,0.1,0,0.2,0,0.3c0.7,0.6,1.5,1.2,2.3,1.9c0.6-0.4,1-1.2,1-2.1
			C451.4,81.5,450.7,80.4,449.8,80.4z"/>
		<path class="st5" d="M445.1,107.6c0.3,0.4,0.7,0.7,1.2,0.7c0.9,0,1.7-1,1.7-2.3c0-0.1,0-0.2,0-0.3
			C446.7,106.5,445.7,107.1,445.1,107.6z"/>
		<path class="st5" d="M443.8,109.1l0.6,1.5c0,0,0-0.1,0-0.1c0-0.7-0.3-1.4-0.6-1.8C443.7,108.9,443.7,109,443.8,109.1z"/>
		<path class="st5" d="M449.8,108.2c-0.9,0-1.7,1-1.7,2.3c0,1.3,0.7,2.3,1.7,2.3c0.9,0,1.7-1,1.7-2.3
			C451.4,109.3,450.7,108.2,449.8,108.2z"/>
		<path class="st5" d="M446.2,112.9c-0.3,0-0.6,0.1-0.8,0.3l1.6,4c0.5-0.4,0.8-1.1,0.8-2C447.9,113.9,447.2,112.9,446.2,112.9z"/>
		<path class="st5" d="M449.8,117.5c-0.9,0-1.6,1-1.7,2.2l0.9,2.2c0.2,0.2,0.5,0.3,0.8,0.3c0.9,0,1.7-1,1.7-2.3
			C451.4,118.5,450.7,117.5,449.8,117.5z"/>
		<path class="st5" d="M522.4,57.3c-0.9,0-1.7,1-1.7,2.3c0,1.3,0.7,2.3,1.7,2.3c0.9,0,1.7-1,1.7-2.3C524,58.3,523.3,57.3,522.4,57.3
			z"/>
		<path class="st5" d="M525.5,62c-0.8,0.2-1.3,1.2-1.3,2.3c0,1.3,0.7,2.3,1.7,2.3c0.8,0,1.4-0.7,1.6-1.7c-0.1-0.1-0.2-0.1-0.3-0.2
			C526.5,63.9,525.9,63,525.5,62z"/>
		<path class="st5" d="M522.4,66.5c-0.9,0-1.7,1-1.7,2.3c0,1.3,0.7,2.3,1.7,2.3c0.9,0,1.7-1,1.7-2.3C524,67.6,523.3,66.5,522.4,66.5
			z"/>
		<path class="st5" d="M529.4,66.5c-0.9,0-1.7,1-1.7,2.3c0,1.3,0.7,2.3,1.7,2.3c0.9,0,1.7-1,1.7-2.3
			C531.1,67.6,530.3,66.5,529.4,66.5z"/>
		<path class="st5" d="M525.9,71.2c-0.9,0-1.7,1-1.7,2.3s0.7,2.3,1.7,2.3c0.9,0,1.7-1,1.7-2.3S526.8,71.2,525.9,71.2z"/>
		<path class="st5" d="M532.9,71.2c-0.9,0-1.7,1-1.7,2.3s0.7,2.3,1.7,2.3c0.9,0,1.7-1,1.7-2.3S533.8,71.2,532.9,71.2z"/>
		<path class="st5" d="M529.4,75.8c-0.9,0-1.7,1-1.7,2.3c0,1.3,0.7,2.3,1.7,2.3c0.9,0,1.7-1,1.7-2.3
			C531.1,76.8,530.3,75.8,529.4,75.8z"/>
		<path class="st5" d="M526.4,80.5c0.4,0.9,0.8,1.8,1.1,2.7c0-0.2,0-0.3,0-0.5C527.6,81.7,527.1,80.8,526.4,80.5z"/>
		<path class="st5" d="M532.9,80.4c-0.9,0-1.7,1-1.7,2.3s0.7,2.3,1.7,2.3c0.9,0,1.7-1,1.7-2.3S533.8,80.4,532.9,80.4z"/>
		<path class="st5" d="M529.4,85.1c-0.4,0-0.8,0.2-1.1,0.6c0.4,1.3,0.6,2.6,0.8,4c0.1,0,0.2,0,0.3,0c0.9,0,1.7-1,1.7-2.3
			C531.1,86.1,530.3,85.1,529.4,85.1z"/>
		<path class="st5" d="M532.9,89.7c-0.9,0-1.7,1-1.7,2.3c0,1.3,0.7,2.3,1.7,2.3c0.9,0,1.7-1,1.7-2.3
			C534.6,90.7,533.8,89.7,532.9,89.7z"/>
		<path class="st5" d="M529.5,94.3c0,1.6-0.1,3.1-0.3,4.6c0.1,0,0.2,0,0.3,0c0.9,0,1.7-1,1.7-2.3C531.1,95.4,530.4,94.4,529.5,94.3z
			"/>
		<path class="st5" d="M532.9,99c-0.9,0-1.7,1-1.7,2.3c0,1.3,0.7,2.3,1.7,2.3c0.9,0,1.7-1,1.7-2.3C534.6,100,533.8,99,532.9,99z"/>
		<path class="st5" d="M529.4,103.6c-0.9,0-1.7,1-1.7,2.3c0,1.3,0.7,2.3,1.7,2.3c0.9,0,1.7-1,1.7-2.3
			C531.1,104.6,530.3,103.6,529.4,103.6z"/>
		<path class="st5" d="M526.3,108.3c-0.6,1.1-1.2,2.2-1.9,3.3c0.3,0.7,0.8,1.3,1.5,1.3c0.9,0,1.7-1,1.7-2.3
			C527.6,109.5,527,108.5,526.3,108.3z"/>
		<path class="st5" d="M532.9,108.2c-0.9,0-1.7,1-1.7,2.3c0,1.3,0.7,2.3,1.7,2.3c0.9,0,1.7-1,1.7-2.3
			C534.6,109.3,533.8,108.2,532.9,108.2z"/>
		<path class="st5" d="M520.9,116.2c0.3,0.8,0.8,1.3,1.5,1.3c0.9,0,1.7-1,1.7-2.3c0-0.8-0.3-1.5-0.8-1.9
			C522.5,114.3,521.7,115.2,520.9,116.2z"/>
		<path class="st5" d="M529.4,112.9c-0.9,0-1.7,1-1.7,2.3c0,1.3,0.7,2.3,1.7,2.3c0.9,0,1.7-1,1.7-2.3
			C531.1,113.9,530.3,112.9,529.4,112.9z"/>
		<path class="st5" d="M525.9,117.5c-0.9,0-1.7,1-1.7,2.3c0,1.3,0.7,2.3,1.7,2.3c0.9,0,1.7-1,1.7-2.3
			C527.6,118.5,526.8,117.5,525.9,117.5z"/>
		<path class="st5" d="M532.9,117.5c-0.9,0-1.7,1-1.7,2.3c0,0.8,0.3,1.4,0.7,1.9c0.7-0.2,1.4-0.2,2.2-0.3c0.3-0.4,0.4-1,0.4-1.6
			C534.6,118.5,533.8,117.5,532.9,117.5z"/>
		<path class="st5" d="M522.4,122.1c-0.9,0-1.7,1-1.7,2.3c0,1.3,0.7,2.3,1.7,2.3c0.9,0,1.7-1,1.7-2.3
			C524,123.2,523.3,122.1,522.4,122.1z"/>
		<path class="st5" d="M527.9,123.4c0.6-0.5,1.3-0.9,2.1-1.1c-0.2-0.1-0.4-0.1-0.6-0.1C528.7,122.1,528.2,122.7,527.9,123.4z"/>
		<path class="st5" d="M524.2,129.1c0,0.6,0.1,1.1,0.4,1.5c0.1-1.3,0.4-2.5,0.8-3.7C524.7,127.1,524.2,128,524.2,129.1z"/>
		<path class="st5" d="M508.5,57.3c-0.9,0-1.7,1-1.7,2.3c0,1.3,0.7,2.3,1.7,2.3c0.9,0,1.7-1,1.7-2.3
			C510.2,58.3,509.4,57.3,508.5,57.3z"/>
		<path class="st5" d="M515.5,57.3c-0.9,0-1.7,1-1.7,2.3c0,1.3,0.7,2.3,1.7,2.3c0.9,0,1.7-1,1.7-2.3
			C517.2,58.3,516.5,57.3,515.5,57.3z"/>
		<path class="st5" d="M512,61.9c-0.9,0-1.7,1-1.7,2.3c0,0.3,0,0.6,0.1,0.8c0.8,0.4,1.6,0.7,2.4,1.2c0.5-0.4,0.8-1.1,0.8-2
			C513.7,62.9,513,61.9,512,61.9z"/>
		<path class="st5" d="M519.1,61.9c-0.9,0-1.7,1-1.7,2.3s0.7,2.3,1.7,2.3c0.9,0,1.7-1,1.7-2.3S520,61.9,519.1,61.9z"/>
		<path class="st5" d="M515.5,66.5c-0.4,0-0.8,0.2-1.1,0.6c1,0.6,1.9,1.2,2.8,1.9c0-0.1,0-0.2,0-0.2
			C517.2,67.6,516.5,66.5,515.5,66.5z"/>
		<path class="st5" d="M519.5,117.6c-0.7,0.6-1.3,1.2-2.1,1.8c0,0.1,0,0.3,0,0.4c0,1.3,0.7,2.3,1.7,2.3c0.9,0,1.7-1,1.7-2.3
			C520.7,118.7,520.2,117.8,519.5,117.6z"/>
		<path class="st5" d="M506.9,124.9c0.2,1.1,0.8,1.8,1.6,1.8c0.9,0,1.7-1,1.7-2.3c0-0.2,0-0.5-0.1-0.7
			C509.1,124.2,508,124.6,506.9,124.9z"/>
		<path class="st5" d="M515.5,122.1c-0.9,0-1.7,1-1.7,2.3c0,1.3,0.7,2.3,1.7,2.3c0.9,0,1.7-1,1.7-2.3
			C517.2,123.2,516.5,122.1,515.5,122.1z"/>
		<path class="st5" d="M512,126.8c-0.9,0-1.7,1-1.7,2.3c0,1.3,0.7,2.3,1.7,2.3c0.9,0,1.7-1,1.7-2.3C513.7,127.8,513,126.8,512,126.8
			z"/>
		<path class="st5" d="M519.1,126.8c-0.9,0-1.7,1-1.7,2.3c0,1.3,0.7,2.3,1.7,2.3c0.9,0,1.7-1,1.7-2.3
			C520.7,127.8,520,126.8,519.1,126.8z"/>
		<path class="st5" d="M494.7,57.3c-0.9,0-1.7,1-1.7,2.3c0,1.3,0.7,2.3,1.7,2.3c0.9,0,1.7-1,1.7-2.3
			C496.3,58.3,495.6,57.3,494.7,57.3z"/>
		<path class="st5" d="M501.7,57.3c-0.9,0-1.7,1-1.7,2.3c0,1.3,0.7,2.3,1.7,2.3c0.9,0,1.7-1,1.7-2.3
			C503.3,58.3,502.6,57.3,501.7,57.3z"/>
		<path class="st5" d="M497.2,62.4c0.2,0,0.3,0,0.5,0c0.5,0,1,0,1.5,0c-0.3-0.3-0.6-0.5-1-0.5C497.8,61.9,497.5,62.1,497.2,62.4z"/>
		<path class="st5" d="M505.2,61.9c-0.6,0-1.1,0.4-1.4,1c1,0.2,2,0.4,3,0.7C506.6,62.7,506,61.9,505.2,61.9z"/>
		<path class="st5" d="M494.7,126.8c0.4,0,0.8-0.2,1.1-0.6c-0.8,0-1.5-0.1-2.3-0.2C493.7,126.5,494.2,126.8,494.7,126.8z"/>
		<path class="st5" d="M501.7,126.8c0.5,0,1-0.4,1.3-0.9c-0.8,0.1-1.6,0.2-2.5,0.3C500.9,126.5,501.2,126.8,501.7,126.8z"/>
		<ellipse class="st5" cx="498.2" cy="129.1" rx="1.7" ry="2.3"/>
		<path class="st5" d="M505.2,126.8c-0.9,0-1.7,1-1.7,2.3c0,1.3,0.7,2.3,1.7,2.3c0.9,0,1.7-1,1.7-2.3
			C506.9,127.8,506.1,126.8,505.2,126.8z"/>
		<path class="st5" d="M480.8,57.3c-0.9,0-1.7,1-1.7,2.3c0,1.3,0.7,2.3,1.7,2.3c0.9,0,1.7-1,1.7-2.3
			C482.5,58.3,481.7,57.3,480.8,57.3z"/>
		<path class="st5" d="M487.8,57.3c-0.9,0-1.7,1-1.7,2.3c0,1.3,0.7,2.3,1.7,2.3c0.9,0,1.7-1,1.7-2.3
			C489.5,58.3,488.7,57.3,487.8,57.3z"/>
		<path class="st5" d="M484.3,61.9c-0.9,0-1.7,1-1.7,2.3c0,0.7,0.2,1.3,0.5,1.7c0.9-0.5,1.8-0.9,2.8-1.3c0-0.1,0-0.3,0-0.4
			C486,62.9,485.2,61.9,484.3,61.9z"/>
		<path class="st5" d="M491.3,61.9c-0.7,0-1.3,0.6-1.5,1.5c0.9-0.2,1.9-0.4,2.8-0.6C492.3,62.2,491.9,61.9,491.3,61.9z"/>
		<path class="st5" d="M479.2,68.4c0.8-0.6,1.6-1.1,2.4-1.6c-0.2-0.2-0.5-0.3-0.8-0.3C480,66.5,479.3,67.3,479.2,68.4z"/>
		<path class="st5" d="M480.8,122.1c-0.9,0-1.7,1-1.7,2.3c0,1.3,0.7,2.3,1.7,2.3c0.9,0,1.7-1,1.7-2.3
			C482.5,123.2,481.7,122.1,480.8,122.1z"/>
		<path class="st5" d="M486.2,124.5c0,1.3,0.7,2.3,1.7,2.3c0.7,0,1.4-0.7,1.6-1.6c-1.1-0.3-2.2-0.7-3.2-1.1
			C486.2,124.2,486.2,124.3,486.2,124.5z"/>
		<path class="st5" d="M484.3,126.8c-0.9,0-1.7,1-1.7,2.3c0,1.3,0.7,2.3,1.7,2.3c0.9,0,1.7-1,1.7-2.3
			C486,127.8,485.2,126.8,484.3,126.8z"/>
		<ellipse class="st5" cx="491.3" cy="129.1" rx="1.7" ry="2.3"/>
		<path class="st5" d="M474,57.3c-0.9,0-1.7,1-1.7,2.3c0,1.3,0.7,2.3,1.7,2.3c0.9,0,1.7-1,1.7-2.3C475.6,58.3,474.9,57.3,474,57.3z"
			/>
		<path class="st5" d="M470.5,61.9c-0.1,0-0.1,0-0.1,0c-0.4,0.7-0.9,1.4-1.5,2c0,0.1,0,0.2,0,0.3c0,1.3,0.7,2.3,1.7,2.3
			c0.9,0,1.7-1,1.7-2.3S471.4,61.9,470.5,61.9z"/>
		<path class="st5" d="M477.5,61.9c-0.9,0-1.7,1-1.7,2.3s0.7,2.3,1.7,2.3c0.9,0,1.7-1,1.7-2.3S478.4,61.9,477.5,61.9z"/>
		<path class="st5" d="M466.9,66.5c-0.9,0-1.7,1-1.7,2.3c0,1.3,0.7,2.3,1.7,2.3c0.9,0,1.7-1,1.7-2.3
			C468.6,67.6,467.9,66.5,466.9,66.5z"/>
		<path class="st5" d="M474,66.5c-0.9,0-1.7,1-1.7,2.3c0,1.3,0.7,2.3,1.7,2.3c0.9,0,1.7-1,1.7-2.3C475.6,67.6,474.9,66.5,474,66.5z"
			/>
		<path class="st5" d="M470.5,71.2c-0.9,0-1.7,1-1.7,2.3s0.7,2.3,1.7,2.3c0.9,0,1.7-1,1.7-2.3S471.4,71.2,470.5,71.2z"/>
		<path class="st5" d="M466.9,75.8c-0.9,0-1.7,1-1.7,2.3c0,1.3,0.7,2.3,1.7,2.3c0.9,0,1.7-1,1.7-2.3
			C468.6,76.8,467.9,75.8,466.9,75.8z"/>
		<path class="st5" d="M465.3,87.4c0,1,0.4,1.8,1,2.1c0.2-1.5,0.6-3,1-4.4c-0.1,0-0.2,0-0.3,0C466,85.1,465.3,86.1,465.3,87.4z"/>
		<path class="st5" d="M465.3,96.7c0,0.9,0.4,1.7,1,2.1c-0.2-1.3-0.3-2.6-0.3-3.9C465.5,95.2,465.3,95.9,465.3,96.7z"/>
		<path class="st5" d="M466.9,103.6c-0.9,0-1.7,1-1.7,2.3c0,1.3,0.7,2.3,1.7,2.3c0.7,0,1.3-0.6,1.5-1.4c-0.4-1-0.8-2.1-1.1-3.2
			C467.2,103.6,467.1,103.6,466.9,103.6z"/>
		<path class="st5" d="M468.8,110.6c0,1.3,0.7,2.3,1.7,2.3c0.4,0,0.7-0.2,1-0.5c-0.8-1.1-1.5-2.3-2.1-3.6
			C469,109.2,468.8,109.8,468.8,110.6z"/>
		<path class="st5" d="M466.9,112.9c-0.9,0-1.7,1-1.7,2.3c0,1.3,0.7,2.3,1.7,2.3c0.9,0,1.7-1,1.7-2.3
			C468.6,113.9,467.9,112.9,466.9,112.9z"/>
		<path class="st5" d="M472.3,115.2c0,1.3,0.7,2.3,1.7,2.3c0.5,0,0.9-0.3,1.2-0.7c-0.9-0.9-1.8-1.9-2.6-2.9
			C472.4,114.3,472.3,114.7,472.3,115.2z"/>
		<path class="st5" d="M470.5,117.5c-0.9,0-1.7,1-1.7,2.3c0,1.3,0.7,2.3,1.7,2.3c0.9,0,1.7-1,1.7-2.3
			C472.1,118.5,471.4,117.5,470.5,117.5z"/>
		<path class="st5" d="M475.8,119.8c0,1.3,0.7,2.3,1.7,2.3c0.8,0,1.5-0.8,1.6-1.9c-0.9-0.7-1.8-1.4-2.7-2.2
			C476.1,118.5,475.8,119.1,475.8,119.8z"/>
		<path class="st5" d="M466.9,122.1c-0.3,0-0.6,0.1-0.9,0.4c0.8,0.4,1.5,0.9,2.1,1.5c0.2,0.2,0.3,0.3,0.5,0.5
			C468.6,123.2,467.9,122.1,466.9,122.1z"/>
		<path class="st5" d="M474,122.1c-0.9,0-1.7,1-1.7,2.3c0,1.3,0.7,2.3,1.7,2.3c0.9,0,1.7-1,1.7-2.3
			C475.6,123.2,474.9,122.1,474,122.1z"/>
		<path class="st5" d="M470.5,126.8c-0.1,0-0.1,0-0.1,0c0.7,1.1,1.2,2.4,1.5,3.6c0.2-0.4,0.3-0.8,0.3-1.3
			C472.1,127.8,471.4,126.8,470.5,126.8z"/>
		<path class="st5" d="M477.5,126.8c-0.9,0-1.7,1-1.7,2.3c0,1.3,0.7,2.3,1.7,2.3c0.9,0,1.7-1,1.7-2.3
			C479.1,127.8,478.4,126.8,477.5,126.8z"/>
	</g>
	<g>
		<g>
			<path class="st6" d="M499.4,89.2H91.1c-2.6,0-4.8,2.1-4.8,4.6v259.8c0,2.5,2.1,4.6,4.8,4.6h193.7v19.7h23v-19.7h191.6
				c2.6,0,4.8-2.1,4.8-4.6V93.8C504.2,91.2,502,89.2,499.4,89.2z"/>
			<g>
				<path class="st5" d="M308.5,378.5h-24.3v-19.7h-193c-3,0-5.4-2.4-5.4-5.3V93.8c0-2.9,2.4-5.3,5.4-5.3h408.3c3,0,5.4,2.4,5.4,5.3
					v259.8c0,2.9-2.4,5.3-5.4,5.3h-191V378.5z M285.5,377.2h21.6v-19.7h192.3c2.2,0,4.1-1.7,4.1-3.9V93.8c0-2.2-1.8-3.9-4.1-3.9
					H91.1c-2.2,0-4.1,1.7-4.1,3.9v259.8c0,2.2,1.8,3.9,4.1,3.9h194.3V377.2z"/>
			</g>
		</g>
		<rect x="99.1" y="100.6" class="st7" width="389.9" height="244.7"/>
		<g>
			<path class="st6" d="M407.2,368.7H185.4c-2.4,0-4.4,2.2-4.4,5c0,2.8,2,5,4.4,5h221.8c2.4,0,4.4-2.2,4.4-5
				C411.5,371,409.6,368.7,407.2,368.7z"/>
			<g>
				<path class="st5" d="M407.2,379.4H185.4c-2.8,0-5-2.6-5-5.7c0-3.1,2.3-5.7,5-5.7h221.8c2.8,0,5,2.6,5,5.7
					C412.2,376.9,409.9,379.4,407.2,379.4z M185.4,369.4c-2,0-3.7,1.9-3.7,4.3c0,2.4,1.6,4.3,3.7,4.3h221.8c2,0,3.7-1.9,3.7-4.3
					c0-2.4-1.6-4.3-3.7-4.3H185.4z"/>
			</g>
		</g>
	</g>
	<g>
		<g>
			<g>
				<g>
					<path class="st8" d="M408.6,0H184.9c-3.6,0-6.9,1.2-9.6,3.3c-2,2.6-3.2,5.9-3.2,9.5l-0.5,149.5c0,8.7,7,15.7,15.6,15.7l223.7,0
						c3.6,0,6.9-1.2,9.5-3.3c2-2.6,3.2-5.9,3.2-9.5l0.5-149.5C424.2,7,417.2,0,408.6,0z"/>
				</g>
			</g>
		</g>
		<g>
			<g>
				<rect x="184.6" y="149.9" class="st7" width="69.2" height="2.8"/>
			</g>
			<g>
				<rect x="184.6" y="156.3" class="st7" width="67" height="2.8"/>
			</g>
			<g>
				<rect x="184.6" y="162.7" class="st7" width="61.2" height="2.8"/>
			</g>
		</g>
		<g>
			<g>
				<rect x="330.2" y="75.8" class="st7" width="69.2" height="2.8"/>
			</g>
			<g>
				<rect x="330.2" y="82.2" class="st7" width="67" height="2.8"/>
			</g>
			<g>
				<rect x="330.2" y="88.7" class="st7" width="61.2" height="2.8"/>
			</g>
		</g>
		<g>
			<g>
				<rect x="351.1" y="132.1" class="st7" width="55.9" height="2.2"/>
			</g>
			<g>
				<rect x="351.1" y="137.3" class="st7" width="54.1" height="2.2"/>
			</g>
			<g>
				<rect x="351.1" y="142.5" class="st7" width="49.4" height="2.2"/>
			</g>
			<g>
				<rect x="351.1" y="147.7" class="st7" width="46.3" height="2.2"/>
			</g>
			<g>
				<rect x="351.1" y="152.8" class="st7" width="43.5" height="2.2"/>
			</g>
			<g>
				<rect x="351.1" y="158" class="st7" width="40" height="2.2"/>
			</g>
		</g>
		<g>
			<g>
				<g>
					<path class="st7" d="M337.6,117.6h-37.7c-2.6,0-4.8,2.5-4.8,5.5V157c0,3.1,2.1,5.5,4.8,5.5h37.7c2.6,0,4.8-2.5,4.8-5.5v-33.9
						C342.4,120.1,340.2,117.6,337.6,117.6z"/>
				</g>
			</g>
			<g>
				<g>
					<path class="st5" d="M338.2,117.6h-38.8c-2.3,0-4.2,1.9-4.2,4.2v7h47.2v-7C342.4,119.5,340.5,117.6,338.2,117.6z"/>
				</g>
			</g>
			<g>
				<g>
					<g>
						<path class="st3" d="M302.1,114.6c-0.6,0-1.1,0.5-1.1,1.1v7.5c0,0.6,0.5,1.1,1.1,1.1c0.6,0,1.1-0.5,1.1-1.1v-7.5
							C303.2,115.1,302.7,114.6,302.1,114.6z"/>
					</g>
				</g>
				<g>
					<g>
						<path class="st3" d="M335.4,114.6c-0.6,0-1.1,0.5-1.1,1.1v7.5c0,0.6,0.5,1.1,1.1,1.1s1.1-0.5,1.1-1.1v-7.5
							C336.5,115.1,336,114.6,335.4,114.6z"/>
					</g>
				</g>
			</g>
			<g>
				<g>
					<g>
						<path class="st3" d="M302.8,135.7c-1.4,0-2.5,1.1-2.5,2.5c0,1.4,1.1,2.5,2.5,2.5c1.4,0,2.5-1.1,2.5-2.5
							C305.3,136.8,304.2,135.7,302.8,135.7z"/>
					</g>
				</g>
				<g>
					<g>
						<path class="st9" d="M310.4,135.7c-1.4,0-2.5,1.1-2.5,2.5c0,1.4,1.1,2.5,2.5,2.5c1.4,0,2.5-1.1,2.5-2.5
							C312.9,136.8,311.8,135.7,310.4,135.7z"/>
					</g>
				</g>
				<g>
					<g>
						<path class="st9" d="M317.9,135.7c-1.4,0-2.5,1.1-2.5,2.5c0,1.4,1.1,2.5,2.5,2.5c1.4,0,2.5-1.1,2.5-2.5
							C320.5,136.8,319.4,135.7,317.9,135.7z"/>
					</g>
				</g>
				<g>
					<g>
						<path class="st9" d="M325.5,135.7c-1.4,0-2.5,1.1-2.5,2.5c0,1.4,1.1,2.5,2.5,2.5c1.4,0,2.5-1.1,2.5-2.5
							C328.1,136.8,326.9,135.7,325.5,135.7z"/>
					</g>
				</g>
				<g>
					<g>
						<path class="st9" d="M333.1,135.7c-1.4,0-2.5,1.1-2.5,2.5c0,1.4,1.1,2.5,2.5,2.5c1.4,0,2.5-1.1,2.5-2.5
							C335.7,136.8,334.5,135.7,333.1,135.7z"/>
					</g>
				</g>
			</g>
			<g>
				<g>
					<g>
						<path class="st9" d="M302.8,143.2c-1.4,0-2.5,1.1-2.5,2.5c0,1.4,1.1,2.5,2.5,2.5c1.4,0,2.5-1.1,2.5-2.5
							C305.3,144.3,304.2,143.2,302.8,143.2z"/>
					</g>
				</g>
				<g>
					<g>
						<path class="st3" d="M310.4,143.2c-1.4,0-2.5,1.1-2.5,2.5c0,1.4,1.1,2.5,2.5,2.5c1.4,0,2.5-1.1,2.5-2.5
							C312.9,144.3,311.8,143.2,310.4,143.2z"/>
					</g>
				</g>
				<g>
					<g>
						<path class="st9" d="M317.9,143.2c-1.4,0-2.5,1.1-2.5,2.5c0,1.4,1.1,2.5,2.5,2.5c1.4,0,2.5-1.1,2.5-2.5
							C320.5,144.3,319.4,143.2,317.9,143.2z"/>
					</g>
				</g>
				<g>
					<g>
						<path class="st9" d="M325.5,143.2c-1.4,0-2.5,1.1-2.5,2.5c0,1.4,1.1,2.5,2.5,2.5c1.4,0,2.5-1.1,2.5-2.5
							C328.1,144.3,326.9,143.2,325.5,143.2z"/>
					</g>
				</g>
				<g>
					<g>
						<path class="st9" d="M333.1,143.2c-1.4,0-2.5,1.1-2.5,2.5c0,1.4,1.1,2.5,2.5,2.5c1.4,0,2.5-1.1,2.5-2.5
							C335.7,144.3,334.5,143.2,333.1,143.2z"/>
					</g>
				</g>
			</g>
			<g>
				<g>
					<g>
						<path class="st9" d="M302.8,150.6c-1.4,0-2.5,1.1-2.5,2.5c0,1.4,1.1,2.5,2.5,2.5c1.4,0,2.5-1.1,2.5-2.5
							C305.3,151.8,304.2,150.6,302.8,150.6z"/>
					</g>
				</g>
				<g>
					<g>
						<path class="st9" d="M310.4,150.6c-1.4,0-2.5,1.1-2.5,2.5c0,1.4,1.1,2.5,2.5,2.5c1.4,0,2.5-1.1,2.5-2.5
							C312.9,151.8,311.8,150.6,310.4,150.6z"/>
					</g>
				</g>
				<g>
					<g>
						<path class="st9" d="M317.9,150.6c-1.4,0-2.5,1.1-2.5,2.5c0,1.4,1.1,2.5,2.5,2.5c1.4,0,2.5-1.1,2.5-2.5
							C320.5,151.8,319.4,150.6,317.9,150.6z"/>
					</g>
				</g>
				<g>
					<g>
						<path class="st9" d="M325.5,150.6c-1.4,0-2.5,1.1-2.5,2.5c0,1.4,1.1,2.5,2.5,2.5c1.4,0,2.5-1.1,2.5-2.5
							C328.1,151.8,326.9,150.6,325.5,150.6z"/>
					</g>
				</g>
				<g>
					<g>
						<path class="st3" d="M333.1,150.6c-1.4,0-2.5,1.1-2.5,2.5c0,1.4,1.1,2.5,2.5,2.5c1.4,0,2.5-1.1,2.5-2.5
							C335.7,151.8,334.5,150.6,333.1,150.6z"/>
					</g>
				</g>
			</g>
		</g>
		<g>
			<g>
				<g>
					<path class="st10" d="M291.3,70.6c-4.6,0-8.5,3-10,7.1l-20.6-2.3l-9.3,0.7l0.9-8.5l15.9-25.4c0.9,0.3,1.9,0.4,3,0.4
						c5.8,0,10.6-4.7,10.6-10.6c0-5.8-4.7-10.6-10.6-10.6c-5.8,0-10.6,4.7-10.6,10.6c0,2.7,1,5.2,2.7,7.1l-16.6,26.5l-1.2,10.9
						l-13.4,1.1l-27.9,9.6c-1.9-2.9-5.1-4.8-8.8-4.8c-5.8,0-10.6,4.7-10.6,10.6s4.7,10.6,10.6,10.6c5.8,0,10.6-4.7,10.6-10.6
						c0-0.1,0-0.2,0-0.3l27.4-9.4l11.6-0.9l-0.9,7.8l5.1,24.3c-3,1.9-5,5.2-5,8.9c0,5.8,4.7,10.6,10.6,10.6
						c5.8,0,10.6-4.7,10.6-10.6c0-5.8-4.7-10.6-10.6-10.6c-0.1,0-4.9-23-4.9-23l0.9-7.9l9.9-0.8l20.4,2.2c1,4.8,5.3,8.3,10.3,8.3
						c5.8,0,10.6-4.7,10.6-10.6S297.1,70.6,291.3,70.6z"/>
				</g>
				<g>
					<path class="st10" d="M222.9,46.3c0-5.8-4.7-10.6-10.6-10.6c-5.8,0-10.6,4.7-10.6,10.6c0,5.8,4.7,10.6,10.6,10.6
						c2,0,3.8-0.5,5.4-1.5l15.2,14.5l4-4.1l-15.1-14.5C222.5,49.8,222.9,48.1,222.9,46.3z"/>
				</g>
			</g>
			<g>
				<g>
					<path class="st3" d="M244.2,58.7c-9.8,0-17.8,8-17.8,17.8c0,9.8,8,17.8,17.8,17.8c9.8,0,17.8-8,17.8-17.8
						C262,66.7,254,58.7,244.2,58.7z"/>
				</g>
			</g>
		</g>
		<g>
			<g>
				<g>
					<path class="st5" d="M393.1,43.4c-2.8-3.4-5.4-6.6-10.5-5.4c-4.5,1.1-6.8,4.5-8.9,7.7c-2.8,4.1-5.4,8-12.7,7.9
						c-6.8-0.1-11.7-2.9-16.3-5.6c-4.4-2.5-8.6-5-14.1-5v1c5.2,0,9.3,2.3,13.6,4.8c4.8,2.8,9.8,5.6,16.8,5.7c0.1,0,0.2,0,0.3,0
						c7.5,0,10.3-4.2,13.1-8.3c2.2-3.2,4.2-6.2,8.4-7.3c4.5-1.1,6.7,1.6,9.5,5.1c3.1,3.8,6.7,8.1,14.3,8.3l0-1
						C399.5,51.2,396.1,47.1,393.1,43.4z"/>
				</g>
			</g>
			<g>
				<g>
					<path class="st3" d="M394.7,49.3c-2.5,2.7-5,5.3-10.6,5.3c-5.3,0-7.9-5.8-10.6-11.9c-3.2-7.1-6.5-14.5-14.4-14.5
						c-8.2,0-13.2,7.1-17.6,13.4c-3.5,5-6.8,9.7-11,9.7v1c4.7,0,8.2-4.9,11.8-10.1c4.2-6.1,9.1-13,16.8-13c7.3,0,10.5,7.1,13.5,13.9
						c2.8,6.4,5.5,12.4,11.4,12.4c6,0,8.7-2.8,11.3-5.6c2.7-2.8,5.2-5.5,11.3-5.5v-1C400.1,43.4,397.3,46.4,394.7,49.3z"/>
				</g>
			</g>
			<g>
				<g>
					<rect x="330" y="24" class="st1" width="0.6" height="38.9"/>
				</g>
			</g>
			<g>
				<g>
					<rect x="406.4" y="24" class="st1" width="0.6" height="38.9"/>
				</g>
			</g>
			<g>
				<g>
					<rect x="330" y="62.6" class="st1" width="77" height="0.6"/>
				</g>
			</g>
		</g>
	</g>
	<path class="st10" d="M408.6,0H184.9c-3.6,0-6.9,1.2-9.6,3.3c-2,2.6-3.2,5.9-3.2,9.5l-0.5,149.5c0,8.7,7,15.7,15.6,15.7h223.7
		c3.6,0,6.9-1.2,9.5-3.3c2-2.6,3.2-5.9,3.2-9.5l0.5-149.5C424.2,7,417.2,0,408.6,0z M422.4,165.2c0,3.1-1,6.1-2.9,8.6
		c-2.5,1.9-5.5,2.9-8.7,2.9H187.2c-3.9,0-7.5-1.5-10.2-4.2c-2.7-2.7-4.2-6.4-4.2-10.2l0.5-149.5c0-3.1,1-6.1,2.9-8.6
		c2.5-1.9,5.5-2.9,8.7-2.9h223.7c3.8,0,7.4,1.5,10.2,4.2c2.7,2.7,4.2,6.4,4.2,10.2L422.4,165.2z"/>
	<path class="st2" d="M570.6,365.4c-21.5,0-38.9,2.2-38.9,5s17.4,5,38.9,5c21.5,0,38.9-2.2,38.9-5S592.1,365.4,570.6,365.4z"/>
	<g>
		<g class="st11">
			<g>
				<g>
					<g class="st12">
						<path class="st6" d="M537,151.5l-201.4,0c-3.2,0-6.2,1.2-8.6,3.1c-1.8,2.5-2.9,5.6-2.9,9l-0.4,141.5c0,8.2,6.3,14.9,14.1,14.9
							h201.4c3.2,0,6.2-1.2,8.6-3.1c1.8-2.5,2.9-5.6,2.9-9l0.4-141.5C551.1,158.2,544.8,151.5,537,151.5z"/>
					</g>
				</g>
			</g>
		</g>
		<g>
			<g>
				<g>
					<g>
						<path class="st5" d="M454.3,264.8c-17.5,0.3-23.8-9.6-30.5-20.1c-5.2-8.2-10.6-16.6-21.6-19.4c-12.2-3.2-18.6,5-25.3,13.6
							c-7.2,9.3-15.5,19.8-32.7,20.1l0,29.4c0,0,171-0.3,183.6-0.3l0-50c-13.2,0-23.3,6.1-34,12.6
							C482.4,257.5,470.7,264.5,454.3,264.8z"/>
					</g>
				</g>
			</g>
			<g>
				<g>
					<g>
						<path class="st3" d="M501.2,234.4c-10.6-16-22.5-34.1-42.3-34.1c-19.2,0-27.1,18.7-34.8,36.7c-6.6,15.5-12.8,30.1-25.5,30.1
							c-13.5,0-19.3-6.5-25.5-13.4c-6.5-7.3-13.2-14.8-28.9-14.8v2.4c14.8,0,20.8,6.8,27.3,14c6.2,7,12.6,14.2,27.2,14.2
							c14.2,0,20.7-15.3,27.6-31.5c7.4-17.3,15-35.3,32.7-35.3c18.6,0,30.2,17.5,40.5,33c8.7,13.2,17,25.7,28.4,25.7v-2.4
							C517.5,259.1,509.6,247.1,501.2,234.4z"/>
					</g>
				</g>
			</g>
			<g>
				<g>
					<g>
						<rect x="527.7" y="189.7" class="st1" width="1.4" height="98.5"/>
					</g>
				</g>
			</g>
			<g>
				<g>
					<g>
						<rect x="343.4" y="189.7" class="st1" width="1.4" height="98.5"/>
					</g>
				</g>
			</g>
			<g>
				<g>
					<g>
						<rect x="343.4" y="287.4" class="st1" width="185.6" height="1.4"/>
					</g>
				</g>
			</g>
		</g>
		<g>
			<path class="st10" d="M537.4,151h-203c-6.2,0-11.2,5.3-11.2,11.8v142.4c0,8.4,6.5,15.2,14.4,15.2h202.7c6.2,0,11.2-5.3,11.2-11.8
				V165.9C551.5,157.7,545.2,151,537.4,151z M550.6,308.6c0,5.9-4.6,10.8-10.3,10.8H337.6c-7.4,0-13.5-6.3-13.5-14.2V162.8
				c0-5.9,4.6-10.8,10.3-10.8h203c7.3,0,13.2,6.2,13.2,13.9V308.6z"/>
		</g>
	</g>
	<g>
		<g>
			<g>
				<g>
					<g>
						<path class="st13" d="M686.9,120.7l-83.8-0.5c-5.1,0-9.8,1.7-13.5,4.7c-2.8,3.7-4.5,8.4-4.6,13.5l-0.7,78.4
							c0,12.3,9.8,22.3,22,22.3l83.8,0.5c5.1,0,9.7-1.7,13.5-4.6c2.8-3.7,4.5-8.4,4.6-13.5l0.7-78.4
							C709,130.7,699.1,120.7,686.9,120.7z"/>
					</g>
				</g>
			</g>
			<g>
				<g>
					<path class="st5" d="M658.1,156.8c0-3.7,5.9-7,5.9-7c0.2-0.1,0.3-0.3,0.2-0.5l-2.7-6.5c-0.1-0.2-0.3-0.3-0.5-0.2
						c0,0-2.5,1.3-4,1.3c-1.8,0-3.6-0.7-5-2.1c-2.6-2.6-0.7-9.1-0.7-9.1c0.1-0.2,0-0.4-0.2-0.5l-6.5-2.7c-0.2-0.1-0.4,0-0.5,0.2
						c0,0-3.3,6-6.9,6c-3.6,0-6.9-5.9-6.9-5.9c-0.1-0.2-0.3-0.3-0.5-0.2l-6.4,2.7c-0.2,0.1-0.3,0.3-0.2,0.5c0,0,1.9,6.5-0.7,9.1
						c-1.4,1.4-3.2,2.1-5,2.1c-1.5,0-4-1.3-4-1.3c-0.2-0.1-0.4,0-0.5,0.2l-2.7,6.5c-0.1,0.2,0,0.4,0.2,0.5c0,0,5.9,3.3,5.9,6.9
						c0,3.7-5.9,6.9-5.9,6.9c-0.2,0.1-0.3,0.3-0.2,0.5l2.7,6.5c0.1,0.2,0.3,0.3,0.5,0.2c0,0,6.5-1.9,9,0.7c2.6,2.6,0.7,9.1,0.7,9.1
						c-0.1,0.2,0,0.4,0.2,0.5l6.5,2.7c0.2,0.1,0.4,0,0.5-0.2c0,0,3.3-6,6.9-6c3.6,0,6.9,5.9,6.9,5.9c0.1,0.2,0.3,0.3,0.5,0.2
						l6.5-2.7c0.2-0.1,0.3-0.3,0.2-0.5c0,0-1.9-6.5,0.7-9.1c2.6-2.6,9-0.7,9-0.7c0.2,0.1,0.4,0,0.5-0.2l2.7-6.5
						c0.1-0.2,0-0.4-0.2-0.5C664,163.8,658.1,160.5,658.1,156.8z M637.2,172.9c-8.8,0-15.9-7.2-15.9-16c0-8.9,7.1-16,15.9-16
						c8.8,0,15.9,7.2,15.9,16C653.1,165.7,646,172.9,637.2,172.9z"/>
				</g>
				<g>
					<path class="st5" d="M684.2,207.5c0-2.7,4.3-5.1,4.3-5.1c0.1-0.1,0.2-0.2,0.1-0.4l-2-4.7c-0.1-0.1-0.2-0.2-0.4-0.1
						c0,0-1.8,1-2.9,1c-1.3,0-2.6-0.5-3.7-1.5c-1.9-1.9-0.5-6.6-0.5-6.6c0-0.1,0-0.3-0.2-0.4l-4.7-2c-0.1,0-0.3,0-0.4,0.1
						c0,0-2.4,4.3-5,4.3c-2.6,0-5-4.3-5-4.3c-0.1-0.1-0.2-0.2-0.4-0.1l-4.7,2c-0.1,0.1-0.2,0.2-0.2,0.4c0,0,1.4,4.7-0.5,6.6
						c-1,1-2.3,1.5-3.7,1.5c-1.1,0-2.9-1-2.9-1c-0.1-0.1-0.3,0-0.4,0.1l-1.9,4.7c0,0.1,0,0.3,0.1,0.4c0,0,4.3,2.4,4.3,5
						c0,2.7-4.3,5.1-4.3,5.1c-0.1,0.1-0.2,0.2-0.1,0.4l1.9,4.7c0.1,0.1,0.2,0.2,0.4,0.2c0,0,4.7-1.4,6.6,0.5
						c1.9,1.9,0.5,6.6,0.5,6.6c0,0.1,0,0.3,0.2,0.4l4.7,2c0.1,0,0.3,0,0.4-0.1c0,0,2.4-4.3,5-4.3c2.6,0,5,4.3,5,4.3
						c0.1,0.1,0.2,0.2,0.4,0.1l4.7-2c0.1-0.1,0.2-0.2,0.2-0.4c0,0-1.4-4.7,0.5-6.6c1.9-1.9,6.6-0.5,6.6-0.5c0.1,0,0.3,0,0.4-0.2
						l1.9-4.7c0-0.1,0-0.3-0.1-0.4C688.5,212.5,684.2,210.1,684.2,207.5z M669,216.2c-4.8,0-8.7-3.9-8.7-8.7c0-4.8,3.9-8.7,8.7-8.7
						c4.8,0,8.7,3.9,8.7,8.7C677.6,212.3,673.8,216.2,669,216.2z"/>
				</g>
				<g>
					<path class="st5" d="M627.8,213.8c0-1.8,2.9-3.4,2.9-3.4c0.1,0,0.1-0.2,0.1-0.3l-1.3-3.2c0-0.1-0.2-0.1-0.2-0.1
						c0,0-1.2,0.7-2,0.7c-0.9,0-1.8-0.3-2.5-1c-1.3-1.3-0.3-4.5-0.3-4.5c0-0.1,0-0.2-0.1-0.3l-3.2-1.3c-0.1,0-0.2,0-0.3,0.1
						c0,0-1.6,2.9-3.4,2.9c-1.8,0-3.4-2.9-3.4-2.9c0-0.1-0.2-0.1-0.3-0.1l-3.2,1.3c-0.1,0-0.1,0.2-0.1,0.3c0,0,0.9,3.2-0.3,4.5
						c-0.7,0.7-1.6,1-2.5,1c-0.8,0-2-0.6-2-0.6c-0.1,0-0.2,0-0.2,0.1l-1.3,3.2c0,0.1,0,0.2,0.1,0.3c0,0,2.9,1.6,2.9,3.4
						c0,1.8-2.9,3.4-2.9,3.4c-0.1,0-0.1,0.2-0.1,0.3l1.3,3.2c0,0.1,0.2,0.1,0.3,0.1c0,0,3.2-0.9,4.4,0.3c1.3,1.3,0.3,4.5,0.3,4.5
						c0,0.1,0,0.2,0.1,0.3l3.2,1.3c0.1,0,0.2,0,0.3-0.1c0,0,1.6-2.9,3.4-2.9c1.8,0,3.4,2.9,3.4,2.9c0,0.1,0.2,0.1,0.3,0.1l3.2-1.3
						c0.1,0,0.1-0.2,0.1-0.3c0,0-0.9-3.2,0.3-4.5c1.3-1.3,4.4-0.3,4.4-0.3c0.1,0,0.2,0,0.3-0.1l1.3-3.2c0-0.1,0-0.2-0.1-0.3
						C630.7,217.2,627.8,215.6,627.8,213.8z M617.5,215.9c-1.2,0-2.1-1-2.1-2.1c0-1.2,0.9-2.1,2.1-2.1c1.2,0,2.1,1,2.1,2.1
						C619.6,215,618.7,215.9,617.5,215.9z"/>
				</g>
			</g>
		</g>
		<path class="st6" d="M686.9,120.7l-83.8-0.5c-5.1,0-9.8,1.7-13.5,4.7c-2.8,3.7-4.5,8.4-4.6,13.5l-0.7,78.4
			c0,12.3,9.8,22.3,22.1,22.3l83.8,0.5c5.1,0,9.7-1.7,13.5-4.6c2.8-3.7,4.5-8.4,4.6-13.5l0.7-78.4
			C709,130.7,699.1,120.7,686.9,120.7z M707.4,221.4c0,4.7-1.5,9.1-4.3,12.9c-3.7,2.9-8.2,4.4-12.8,4.4l-83.8-0.5
			c-5.7,0-11-2.2-15-6.3c-4-4-6.2-9.4-6.2-15.2l0.7-78.4c0-4.7,1.5-9.1,4.3-12.9c3.7-2.9,8.2-4.4,12.9-4.4l83.8,0.5
			c5.7,0,11,2.2,15,6.3c4,4.1,6.2,9.4,6.2,15.2L707.4,221.4z"/>
	</g>
	<g>
		<g>
			<g>
				<g>
					<path class="st14" d="M254.3,144.3l-240,0c-3.9,0-7.4,1.3-10.3,3.6c-2.2,2.9-3.5,6.5-3.5,10.4L0,322.4
						c0,9.5,7.5,17.2,16.8,17.2l240,0c3.9,0,7.4-1.3,10.2-3.6c2.2-2.9,3.5-6.5,3.5-10.4l0.5-164.1C271,152,263.6,144.3,254.3,144.3z
						"/>
				</g>
			</g>
		</g>
		<g>
			<g>
				<g>
					<path class="st10" d="M88.5,171.1c-35,0-63.5,29.2-63.5,65c0,35.8,28.5,65,63.5,65s63.5-29.2,63.5-65
						C152.1,200.3,123.6,171.1,88.5,171.1z M88.5,277c-22,0-40-18.3-40-40.9c0-22.5,17.9-40.9,40-40.9c22,0,40,18.3,40,40.9
						C128.5,258.7,110.6,277,88.5,277z"/>
				</g>
				<g>
					<path class="st5" d="M88.5,171.1v24.1c22,0,40,18.3,40,40.9c0,22.5-17.9,40.9-40,40.9c-22,0-40-18.3-40-40.9
						c0-4,0.6-8,1.7-11.8l-22.6-6.9c-1.8,6.1-2.7,12.3-2.7,18.7c0,35.8,28.5,65,63.5,65s63.5-29.2,63.5-65
						C152.1,200.3,123.6,171.1,88.5,171.1z"/>
				</g>
				<g>
					<path class="st3" d="M120,179.6l-11.7,20.9c12.4,7.3,20.2,20.9,20.2,35.5c0,22.5-17.9,40.9-40,40.9c-10.8,0-20.9-4.3-28.4-12.2
						c-7.4-7.7-11.5-17.9-11.5-28.7H25c0,17.2,6.5,33.4,18.3,45.7c12,12.5,28.1,19.3,45.2,19.3c35,0,63.5-29.2,63.5-65
						C152.1,212.8,139.8,191.2,120,179.6z"/>
				</g>
			</g>
			<g>
				<g>
					<g>
						<rect x="181.9" y="191" class="st10" width="61.3" height="2.5"/>
					</g>
					<g>
						<rect x="181.9" y="196.8" class="st10" width="59.3" height="2.5"/>
					</g>
					<g>
						<rect x="181.9" y="202.6" class="st10" width="54.2" height="2.5"/>
					</g>
					<g>
						<rect x="181.9" y="208.4" class="st10" width="50.7" height="2.5"/>
					</g>
					<g>
						<rect x="181.9" y="214.2" class="st10" width="47.6" height="2.5"/>
					</g>
					<g>
						<rect x="181.9" y="220" class="st10" width="43.9" height="2.5"/>
					</g>
				</g>
				<g>
					<g>
						<rect x="181.9" y="263.4" class="st10" width="61.3" height="2.5"/>
					</g>
					<g>
						<rect x="181.9" y="269.2" class="st10" width="59.3" height="2.5"/>
					</g>
					<g>
						<rect x="181.9" y="275" class="st10" width="54.2" height="2.5"/>
					</g>
					<g>
						<rect x="181.9" y="280.9" class="st10" width="50.7" height="2.5"/>
					</g>
					<g>
						<rect x="181.9" y="286.7" class="st10" width="47.6" height="2.5"/>
					</g>
					<g>
						<rect x="181.9" y="292.5" class="st10" width="43.9" height="2.5"/>
					</g>
				</g>
			</g>
		</g>
		<path class="st10" d="M254.3,144.3h-240c-3.9,0-7.4,1.3-10.3,3.6c-2.2,2.9-3.5,6.5-3.5,10.4L0,322.4c0,9.5,7.5,17.2,16.8,17.2h240
			c3.9,0,7.4-1.3,10.2-3.6c2.2-2.9,3.5-6.5,3.5-10.4l0.5-164.1C271,152,263.6,144.3,254.3,144.3z M268.4,325.6c0,3.2-1,6.3-2.9,8.9
			c-2.6,1.9-5.6,3-8.7,3h-240c-3.9,0-7.6-1.6-10.4-4.4c-2.8-2.8-4.3-6.6-4.3-10.7l0.5-164.1c0-3.2,1-6.3,2.9-8.9
			c2.6-1.9,5.6-3,8.7-3h240c3.9,0,7.6,1.6,10.3,4.4c2.8,2.8,4.3,6.6,4.3,10.7L268.4,325.6z"/>
	</g>
	<path class="st2" d="M519.8,414.3c-15.7,0-28.4,2.2-28.4,5c0,2.8,12.7,5,28.4,5c15.7,0,28.4-2.2,28.4-5
		C548.2,416.5,535.5,414.3,519.8,414.3z"/>
	<ellipse class="st2" cx="61.3" cy="407" rx="40.2" ry="4.8"/>
	<g>
		<g>
			<path class="st10" d="M85.2,279.8c-2.2-1.3-2.6-1.8-2.6-1.8s2.1,0.2,2.3-0.9c0.2-1.1,0-1.1-4.2-2.2c-4.2-1.1-6.6-1.5-6.6-1.5
				l-6.6,3.1c0,0,1.4,3.1,6.6,6.4c5.2,3.3,7.7,3.9,11.1,2.3C88.6,283.7,87.4,281.1,85.2,279.8z"/>
			<path class="st3" d="M62.1,265.2c-2.2-1.4-3.5-2.4-3.5-2.4s-11.4,5.4-7,10.5c0,0,12.3,7.2,21.9,9.2c1.5,0.3,6.5-4.8,5.9-8.3
				C78.3,273.3,67.9,268.7,62.1,265.2z"/>
		</g>
		<g>
			<g>
				<path class="st5" d="M74.7,395.9c-4.4,0.4-7.3,1.4-7.3,1.4s-2.6,1.8-2.6,5.3c0,5.3,7,4.3,13.6,4.3c3.8,0,8.1,0.4,10.6-1.3
					C95.6,400.6,79.2,395.6,74.7,395.9z"/>
				<path class="st5" d="M40.8,395.9c-4.4,0.4-7.3,1.4-7.3,1.4s-2.6,1.8-2.6,5.3c0,5.3,7,4.3,13.6,4.3c3.8,0,8.1,0.4,10.6-1.3
					C61.6,400.6,45.2,395.6,40.8,395.9z"/>
				<path class="st10" d="M30.4,307.1c0,0,3,89,3,92.8c0,3.8,9.4,3.6,9.6-1c0.3-4.6,5.4-41.2,5.4-41.2l1.9-30l17.8,34.5
					c0,0-1,34.1-0.7,36.5c0.4,2.4,5.4,5.7,7.8,0.6c2.5-5.1,7.5-45.5,7.5-45.5l-11.1-44.9L30.4,307.1z"/>
				<path class="st5" d="M68.8,243.8c0,0-26.6-9.4-33.4-5.1c-6.8,4.3-6.6,8.5-6.9,25c-0.4,16.5,1.9,44.4,1.9,44.4s13.7,8,25.7,6.2
					c12-1.8,15.4-5.5,15.4-5.5S79,247,68.8,243.8z"/>
				<g>
					<path class="st15" d="M81.8,249.9c-10.2-7.6-17.1-7.2-20.5-2.7c-3.5,4.5,6.1,11.5,11.3,15.2c6.9,4.9,17.6,8,20.5,4.2
						c1.3-1.8,2.3-4.8-0.9-8.5C88.4,253.7,87.3,254,81.8,249.9z"/>
					<path class="st10" d="M106.5,230.1c-2,2.2-2.6,2.6-2.6,2.6s0.9-2.1-0.2-2.3c-1.1-0.2-1.2,0-3.5,4.2c-2.4,4.1-3.4,6.4-3.4,6.4
						l1.3,6.4c0,0,3.6-1.4,8.6-6.5c5-5.1,6.3-7.5,5.7-10.8C111.5,226.7,108.5,227.9,106.5,230.1z"/>
					<path class="st15" d="M97,239.1c-1.1,1.4-6.7,12.6-10.8,19.1c-1.6,2.5-2.8,4-2.8,4s4.6,10,10.3,4.4c0,0,8.5-13.7,11.4-23.6
						C105.6,241.4,100.7,237.7,97,239.1z"/>
				</g>
				<path class="st10" d="M44.9,226.5l0,12.2c0,0,4.5,4.8,11.2,1.4c1.2-2.4,1.5-9.8,0.7-12.9C56.1,224.1,44.9,226.5,44.9,226.5z"/>
				<path class="st10" d="M41.9,221.3c0.4,9.8,6,18.1,17.4,14.4c11.4-3.7,9.3-23.2,9.3-23.2C64.9,193.3,40.8,208.9,41.9,221.3z"/>
			</g>
			<path class="st3" d="M57.3,202.1c-20,0-18.7,14.2-18.1,18.1c0.6,3.9,5.3,17.2,11.1,16.3c5.8-0.9,9.9-8.2,9.9-8.2
				c-2.4-6.8,5.6-10.4,8.5-14.9C71.6,209,72.1,202.1,57.3,202.1z"/>
			<path class="st10" d="M58.4,221c-2,3.5,0.4,5.8,2,7.1c1.6,1.3,4.3-2.7,2-5.9C62.4,222.3,60.4,217.5,58.4,221z"/>
		</g>
	</g>
	<g>
		<path class="st10" d="M505.3,219.9c0,9.6,1,16.7,5.1,18.5c4.1,1.8-0.5-29.9-0.5-29.9S505.3,210.2,505.3,219.9z"/>
		<path class="st10" d="M519.5,315.6c0.2,1.3,0.4,2.5,0.5,3.8c0.2-1.4,0.3-2.2,0.3-2.2l2.8,37.4l0.7,18.8c0,0,1.5,25.2,1.3,34.2
			c0,0-6.8,7-7.3,7.5c-9.5,10.6,15.7,0.3,15.5-2.6c-0.2-2.8-1.2-20.2-0.2-24.9c1-4.7,2.3-13.3,2.1-20.3c-0.1-7-2.4-13.1-2.4-21.4
			c0-8.3,0.9-24.8,3.9-31.7c0.9-2.1,1.3-4.8,1.2-7.9l-21.7-2.1C517.8,308,518.9,311.8,519.5,315.6z"/>
		<path class="st10" d="M534.7,240.9c-10.7-2.6-26.1,5.6-26.1,5.6s-7,7.8-5.9,15.2c1.1,7.4,5.6,12.1,4.6,18.7
			c-1,6.6-13.2,32.4-0.7,73.2c1.2,4.7,2,20.4,2,20.4l1.7,31.9c0,0-3.8,7.6-5.3,8.2c-1.5,0.6-3.4,3.5-1.9,3.8
			c1.5,0.3,3.1,2.2,3.1,2.2l4.9,0.5c0,0,3-5.2,3.2-6.3c0.3-1.1,4.4,0.2,4.4,0.2l-0.6-11.1c0,0,0.4-7.5,0.6-11.8
			c0.1-4.2,1.6-12,1.6-18.4c0-6.5-2.1-18.3-2.2-22.6c-0.1-4.3,2.1-33.5,2.1-33.5l1.4,18.8l1.2,0.1v-1.4l10.3,1
			c0.5-7.9,1.5-16.9,3.6-21.5c3.1-6.8,0-20.9-5.5-27.9c-1.3-6.6,1.5-15.9,3.7-20.1C536.9,262,545.4,243.5,534.7,240.9z"/>
		<path class="st10" d="M535.1,241.9c-3.9,0.4-7.1,5.5-7.1,16c0,10.4,0.8,20.6,1.3,21.5c0.5,0.8,6.1,11.2,7.6,1.3
			c1.6-9.9,4.2-26.9,2.3-35.1C539.3,245.6,539,241.4,535.1,241.9z"/>
		<path class="st7" d="M528.3,302.7c0,0-0.9,1.2-2.4,3.5c-1.5,2.3-1.6,2.4-1.1,3c0.5,0.6,1.4-0.4,1.4-0.4s0,0.4-0.5,2.1
			c-0.5,1.7,0,3.6,2.2,3.1c2.2-0.5,3.1-1.8,4.2-5.8c1.1-4,0.5-6.3,0.5-6.3L528.3,302.7z"/>
		<path class="st10" d="M528.6,280.3l-1.7,25c0,0,1,3,4.7,0.7c3.7-2.3,5.5-27.1,5.5-27.1S530.4,271,528.6,280.3z"/>
		<path class="st16" d="M534.7,240.9c-10.7-2.6-26.1,5.6-26.1,5.6s-7,7.8-5.9,15.2c1.1,7.4,5.6,12.1,4.6,18.7c-0.4,2.6-2.4,8-4.1,16
			l33.7,3.3c-1.1-5-3.2-10-5.8-13.4c-1.3-6.6,1.5-15.9,3.7-20.1C536.9,262,545.4,243.5,534.7,240.9z"/>
		<linearGradient id="SVGID_1_" gradientUnits="userSpaceOnUse" x1="518.0701" y1="292.0051" x2="520.4747" y2="355.0049">
			<stop  offset="0" style="stop-color:#006BF3"/>
			<stop  offset="1" style="stop-color:#0046AF"/>
		</linearGradient>
		<path class="st17" d="M531.2,286.3c0,0-8.6,6.4-16.3,6.1c-7.7-0.3-9.2-5.4-9.2-5.4c-1,3.5-5.3,6.8-6.4,24.1
			c-1.1,17.4,3.9,38.5,3.9,38.5s4.1,6.2,11.1,6.6c7,0.4,15.4-2.9,19.6-8c-1.9-13.4,4.8-33.6,4.8-42.2
			C538.7,294.2,531.2,286.3,531.2,286.3z"/>
		<g>
			<path class="st3" d="M517.6,410.3c-3.7,0.5-3.2,5.1-4.2,5.5c-2.9,1.1-13.2,3.4-8.5-1.6c0,0-8.1,2.1-6,4.8
				c2.2,2.7,6.5,2.5,10.2,2.5c4.7,0,7-1.6,9.7-2.7c2.6-1.1,3.9-2.1,3.5-4.2S521.3,409.8,517.6,410.3z"/>
			<path class="st3" d="M517.2,421.8h3.1v-1.5c0.4-3.1,1.7-3.6,1.7-3.6l-4.8,0.2V421.8z"/>
		</g>
		<g>
			<path class="st3" d="M529.5,410.3c-3.7,0.5-3.2,5.1-4.2,5.5c-2.9,1.1-13.2,3.4-8.5-1.6c0,0-8.1,2.1-6,4.8
				c2.2,2.7,6.5,2.5,10.2,2.5c4.7,0,7-1.6,9.7-2.7c2.6-1.1,3.9-2.1,3.5-4.2S533.2,409.8,529.5,410.3z"/>
			<path class="st3" d="M529.1,421.8h3.1v-1.5c0.4-3.1,1.7-3.6,1.7-3.6l-4.8,0.2V421.8z"/>
		</g>
		<path class="st3" d="M519.8,206.8c-7.3-0.9-12.8,3.3-12.8,3.3c3,8.3-0.9,31.3-0.9,31.3s4,3.7,10.2,5.4c6.2,1.7,17.3-3.4,17.3-3.4
			s3.1-4.6,2.4-18.1C535.2,211.9,527.1,207.7,519.8,206.8z"/>
		<g>
			<g>
				
					<linearGradient id="SVGID_00000108311452008790487080000008504357838344961667_" gradientUnits="userSpaceOnUse" x1="712.1644" y1="256.3788" x2="674.7543" y2="257.9215">
					<stop  offset="0" style="stop-color:#C3DBEF"/>
					<stop  offset="1" style="stop-color:#9EC5F3"/>
				</linearGradient>
				<path style="fill:url(#SVGID_00000108311452008790487080000008504357838344961667_);" d="M510.7,246.5c-3.9-1-8.9,2.5-12.6,11.9
					c-3.7,9.4-6.7,18.9-6.5,19.8c0.2,0.9,0,8.9,6.9,3.8c8-5.7,13.8-22.8,14.9-30.8C513.4,251.3,514.6,247.5,510.7,246.5z"/>
				<path class="st10" d="M483.1,249.1c-0.8-0.3-1,1.1-1,1.1s-0.3-0.4-0.7-2.3c-0.4-1.9-1.8-3.6-3.5-2c-1.7,1.6-1.8,3.3-0.7,7.8
					c1.1,4.5,2.8,6.4,2.8,6.4l3.3-3c0,0,0.2-1.6,0.4-4.7C483.9,249.5,483.9,249.4,483.1,249.1z"/>
				
					<linearGradient id="SVGID_00000139272494612212435330000005627607380107920308_" gradientUnits="userSpaceOnUse" x1="718.9243" y1="259.5973" x2="680.3786" y2="261.1868">
					<stop  offset="0" style="stop-color:#C3DBEF"/>
					<stop  offset="1" style="stop-color:#9EC5F3"/>
				</linearGradient>
				<path style="fill:url(#SVGID_00000139272494612212435330000005627607380107920308_);" d="M483.1,256c0,0-2.7-1.8-3.8,2.5
					c-1,4.3,13.4,24.3,13.4,24.3s7.1-2.1,5.9-5L483.1,256z"/>
			</g>
		</g>
	</g>
	<g class="st20">
		<path class="st5" d="M361.8,148.3c-8.6,0-15.5-7-15.5-15.5c0-8.6,7-15.5,15.5-15.5c8.6,0,15.5,7,15.5,15.5
			C377.3,141.4,370.3,148.3,361.8,148.3z M361.8,118.7c-7.8,0-14.2,6.3-14.2,14.2c0,7.8,6.3,14.2,14.2,14.2
			c7.8,0,14.2-6.3,14.2-14.2C375.9,125,369.6,118.7,361.8,118.7z"/>
	</g>
	<g>
		<path class="st10" d="M582.2,24.2c0,0-2.5,0.9-3.9,0.7c-1.7-0.2-3.3-1.1-4.4-2.5c-2.1-2.7,0.4-8.4,0.4-8.4c0.1-0.2,0-0.4-0.1-0.5
			l-5.6-3.2c-0.2-0.1-0.4,0-0.5,0.1c0,0-3.7,5.1-7.1,4.6c-3.4-0.4-5.6-6.3-5.6-6.3c-0.1-0.2-0.3-0.3-0.5-0.3l-6.3,1.7
			c-0.2,0.1-0.3,0.3-0.3,0.4c0,0,0.9,6.2-1.7,8.3c-1.5,1.1-3.2,1.5-4.9,1.3c-1.4-0.2-3.6-1.7-3.6-1.7c-0.2-0.1-0.4-0.1-0.5,0.1
			l-3.2,5.6c-0.1,0.2,0,0.4,0.1,0.5c0,0,5.1,3.7,4.6,7.1c-0.4,3.4-6.3,5.6-6.3,5.6c-0.2,0.1-0.3,0.3-0.3,0.5l1.7,6.3
			c0.1,0.2,0.3,0.3,0.4,0.3c0,0,6.2-0.9,8.3,1.7c2.1,2.7-0.5,8.4-0.5,8.4c-0.1,0.2,0,0.4,0.1,0.5l5.6,3.2c0.2,0.1,0.4,0,0.5-0.1
			c0,0,3.7-5.1,7.1-4.6c3.4,0.4,5.6,6.3,5.6,6.3c0.1,0.2,0.3,0.3,0.5,0.3l6.3-1.7c0.2-0.1,0.3-0.3,0.3-0.4c0,0-0.9-6.2,1.7-8.3
			c2.7-2.1,8.4,0.5,8.4,0.5c0.2,0.1,0.4,0,0.5-0.1l3.3-5.6c0.1-0.2,0-0.4-0.1-0.5c0,0-5.1-3.7-4.6-7.1c0.4-3.4,6.3-5.7,6.3-5.7
			c0.2-0.1,0.3-0.3,0.3-0.5l-1.7-6.3C582.6,24.2,582.4,24.1,582.2,24.2z M565.3,35.1c-0.5,3.7-3.9,6.4-7.7,5.9
			c-3.7-0.5-6.4-3.9-5.9-7.7c0.5-3.7,3.9-6.4,7.7-5.9C563.2,28,565.8,31.4,565.3,35.1z"/>
	</g>
	<g>
		<g>
			<path class="st5" d="M588.5,118.4c-0.5,0-0.9-0.3-1-0.7c-0.6-1.5-2.7-5.5-5.1-5.9c-2.4-0.3-5.5,3-6.4,4.3
				c-0.3,0.4-0.9,0.6-1.4,0.3l-5.7-3.3c-0.5-0.3-0.6-0.9-0.4-1.4c0.7-1.5,2-5.8,0.5-7.7c-1.5-1.9-6-1.7-7.6-1.5
				c-0.5,0.1-1-0.2-1.2-0.7l-1.7-6.3c-0.1-0.6,0.2-1.1,0.7-1.3c1.5-0.6,5.5-2.7,5.9-5.1c0.3-2.4-3-5.5-4.3-6.4
				c-0.4-0.3-0.6-0.9-0.3-1.4l3.3-5.7c0.2-0.3,0.4-0.4,0.7-0.5c0.3-0.1,0.5,0,0.8,0.2c0.6,0.4,2.2,1.4,3.3,1.6
				c1.6,0.2,3.1-0.2,4.4-1.2c1.9-1.5,1.7-6,1.5-7.6c-0.1-0.5,0.2-1,0.7-1.2l6.3-1.7c0.6-0.1,1.1,0.2,1.3,0.7
				c0.6,1.5,2.7,5.5,5.1,5.9c2.4,0.3,5.5-3,6.4-4.3c0.3-0.4,0.9-0.6,1.4-0.3l5.7,3.3c0.5,0.3,0.6,0.9,0.4,1.4
				c-0.6,1.5-2,5.8-0.5,7.7c1,1.3,2.4,2.1,3.9,2.3c1,0.1,2.9-0.5,3.6-0.7c0.3-0.1,0.5-0.1,0.8,0c0.2,0.1,0.4,0.3,0.5,0.6l1.7,6.3
				c0.1,0.6-0.2,1.1-0.7,1.3c-1.5,0.6-5.5,2.7-5.8,5.1l0,0.1c-0.3,2.3,3,5.4,4.4,6.3c0.4,0.3,0.6,0.9,0.3,1.4l-3.3,5.7
				c-0.3,0.5-0.9,0.6-1.4,0.4c-1.5-0.7-5.8-2-7.7-0.5c-1.9,1.5-1.7,6-1.5,7.6c0.1,0.5-0.2,1-0.7,1.2l-6.3,1.7
				C588.7,118.4,588.6,118.4,588.5,118.4z M582.1,110.5c0.2,0,0.3,0,0.5,0c3.3,0.4,5.6,5.3,6.1,6.5l5.8-1.5c-0.2-1.2-0.6-6.6,2-8.7
				c2.7-2.1,7.8-0.2,8.9,0.3l3-5.2c-1-0.8-5.1-4.2-4.7-7.6c0.4-3.4,5.3-5.7,6.5-6.1l-1.5-5.6c-0.8,0.3-2.6,0.8-3.9,0.6
				c-1.9-0.3-3.7-1.2-4.8-2.8c-2.1-2.7-0.2-7.7,0.3-8.9l-5.2-3c-0.8,1-4.2,5.1-7.6,4.7c-3.3-0.4-5.6-5.3-6.1-6.5l-5.8,1.5
				c0.2,1.2,0.6,6.6-2,8.7c-1.6,1.2-3.5,1.7-5.4,1.5c-1.2-0.2-2.9-1.2-3.5-1.6l-2.9,5c1,0.8,5.1,4.2,4.7,7.6
				c-0.4,3.3-5.3,5.6-6.5,6.1l1.5,5.8c1.2-0.2,6.6-0.6,8.7,2c2.1,2.7,0.2,7.7-0.3,8.9l5.2,3C575.7,114.3,578.9,110.5,582.1,110.5z
				 M585,99.4c-0.3,0-0.7,0-1-0.1c-2-0.3-3.8-1.3-5-2.9c-1.2-1.6-1.7-3.6-1.5-5.5c0.3-2,1.3-3.8,2.9-5c1.6-1.2,3.6-1.7,5.5-1.5
				c4.1,0.5,7,4.3,6.5,8.4C592,96.7,588.7,99.4,585,99.4z M585,85.8c-1.3,0-2.6,0.4-3.7,1.3c-1.3,1-2.1,2.4-2.3,4.1
				c-0.2,1.6,0.2,3.2,1.2,4.5c1,1.3,2.4,2.1,4.1,2.3c3.4,0.4,6.4-1.9,6.9-5.3c0.4-3.4-1.9-6.4-5.3-6.9
				C585.5,85.8,585.3,85.8,585,85.8z"/>
		</g>
	</g>
	<g>
		<g>
			<path class="st10" d="M63,91.4c-0.3,0-0.7-0.2-0.8-0.5c-0.4-1.1-1.8-4.1-3.5-4.4c-1.7-0.3-4,2-4.8,2.9c-0.2,0.3-0.7,0.4-1,0.2
				l-4-2.5c-0.3-0.2-0.4-0.7-0.3-1c0.5-1.1,1.6-4.1,0.6-5.6c-1-1.4-4.3-1.4-5.4-1.3c-0.4,0-0.7-0.2-0.8-0.6l-1-4.6
				c-0.1-0.4,0.2-0.8,0.5-0.9c1.1-0.4,4.1-1.8,4.4-3.5c0.3-1.7-2-4-2.9-4.8c-0.3-0.2-0.4-0.7-0.2-1l2.5-4c0.2-0.3,0.7-0.4,1-0.3
				c1.1,0.5,4.1,1.6,5.6,0.6c1.4-1,1.4-4.3,1.3-5.4c0-0.4,0.2-0.7,0.6-0.8l4.6-1c0.4-0.1,0.8,0.2,0.9,0.5c0.4,1.1,1.8,4.1,3.5,4.4
				c1.7,0.3,4-2,4.8-2.9c0.2-0.3,0.7-0.4,1-0.2l4,2.5c0.2,0.1,0.3,0.3,0.3,0.5c0,0.2,0,0.4-0.1,0.5c-0.3,0.4-1.1,1.6-1.2,2.3
				c-0.2,1.1,0.1,2.3,0.7,3.2c1,1.4,4.3,1.4,5.4,1.3c0.4,0,0.7,0.2,0.8,0.6l1,4.6c0.1,0.4-0.2,0.8-0.5,0.9c-1.1,0.4-4.1,1.8-4.4,3.5
				c-0.3,1.7,2,4,2.9,4.8c0.3,0.2,0.4,0.7,0.2,1l-2.5,4c-0.2,0.3-0.7,0.4-1,0.3c-1.1-0.5-4.1-1.6-5.6-0.6c-0.9,0.7-1.6,1.6-1.7,2.8
				c-0.1,0.7,0.2,2.1,0.4,2.6c0.1,0.2,0,0.4,0,0.6c-0.1,0.2-0.3,0.3-0.4,0.4l-4.6,1C63.1,91.4,63.1,91.4,63,91.4z M58.4,85.5
				c0.2,0,0.3,0,0.5,0c2.4,0.4,3.9,4,4.2,4.8l4.1-0.9c-0.2-0.6-0.5-1.9-0.3-2.8c0.2-1.4,1-2.6,2.2-3.4c2-1.4,5.6,0.1,6.4,0.5
				l2.3-3.6c-0.7-0.6-3.6-3.2-3.2-5.6c0.4-2.4,4-3.9,4.8-4.2l-0.9-4.2c-0.9,0.1-4.8,0.3-6.2-1.7c-0.8-1.2-1.1-2.5-0.9-3.9
				c0.2-0.9,0.9-2,1.3-2.5l-3.5-2.2c-0.6,0.7-3.2,3.6-5.6,3.2c-2.4-0.4-3.9-4-4.2-4.8L55.1,55c0.1,0.9,0.3,4.8-1.7,6.2
				c-2,1.4-5.6-0.1-6.4-0.5l-2.3,3.6c0.7,0.6,3.6,3.2,3.1,5.6c-0.4,2.4-4,3.9-4.8,4.2l0.9,4.2c0.9-0.1,4.8-0.3,6.2,1.7
				c1.4,2-0.1,5.6-0.5,6.4l3.6,2.3C53.9,88.1,56.2,85.5,58.4,85.5z M61.2,77.6c-0.3,0-0.6,0-0.9-0.1c-1.4-0.2-2.7-1-3.5-2.2
				c-0.8-1.2-1.2-2.6-0.9-4c0.2-1.4,1-2.7,2.2-3.5c1.2-0.8,2.6-1.2,4-0.9c1.4,0.2,2.7,1,3.5,2.2c0.8,1.2,1.2,2.6,0.9,4
				C66.1,75.8,63.8,77.6,61.2,77.6z M61.2,67.8c-0.9,0-1.8,0.3-2.5,0.8c-1,0.7-1.6,1.7-1.8,2.9c-0.2,1.2,0.1,2.3,0.7,3.3
				c0.7,1,1.7,1.6,2.9,1.8c2.4,0.4,4.7-1.2,5.1-3.6c0.2-1.2-0.1-2.3-0.7-3.3c-0.7-1-1.7-1.6-2.9-1.8C61.7,67.8,61.5,67.8,61.2,67.8z
				"/>
		</g>
	</g>
	<g>
		<path class="st10" d="M41.3,51.5c0,0-4.5,0.5-5.9-1.5c-0.8-1.1-1-2.4-0.8-3.6c0.2-1,1.3-2.5,1.3-2.5c0.1-0.1,0.1-0.3,0-0.3l-4-2.5
			c-0.1-0.1-0.3,0-0.4,0.1c0,0-2.8,3.5-5.2,3.1c-2.4-0.4-3.9-4.7-3.9-4.7c0-0.1-0.2-0.2-0.3-0.2l-4.6,1c-0.1,0-0.2,0.2-0.2,0.3
			c0,0,0.5,4.5-1.5,5.9c-2,1.4-6.1-0.6-6.1-0.6c-0.1-0.1-0.3,0-0.4,0.1l-2.5,4c-0.1,0.1,0,0.3,0.1,0.4c0,0,3.5,2.8,3.1,5.2
			c-0.4,2.4-4.7,3.9-4.7,3.9c-0.1,0-0.2,0.2-0.2,0.3l1,4.6c0,0.1,0.2,0.2,0.3,0.2c0,0,4.5-0.5,5.9,1.5c1.4,2-0.6,6.1-0.6,6.1
			c-0.1,0.1,0,0.3,0.1,0.4l4,2.5c0.1,0.1,0.3,0,0.4-0.1c0,0,2.8-3.5,5.2-3.1c2.4,0.4,3.9,4.7,3.9,4.7c0,0.1,0.2,0.2,0.3,0.2l4.6-1
			c0.1,0,0.2-0.2,0.2-0.3c0,0-0.6-1.8-0.4-2.8c0.2-1.2,0.9-2.3,1.9-3.1c2-1.4,6.1,0.6,6.1,0.6c0.1,0.1,0.3,0,0.4-0.1l2.5-4
			c0.1-0.1,0-0.3-0.1-0.4c0,0-3.5-2.8-3.1-5.2c0.4-2.4,4.7-3.9,4.7-3.9c0.1,0,0.2-0.2,0.2-0.3l-1-4.6C41.5,51.6,41.4,51.5,41.3,51.5
			z M28.7,58.9c-0.5,2.7-3,4.5-5.7,4c-2.7-0.5-4.5-3-4-5.7c0.5-2.7,3-4.5,5.7-4C27.4,53.7,29.2,56.3,28.7,58.9z"/>
	</g>
	<g>
		<g>
			
				<linearGradient id="SVGID_00000180330227713130582840000002572393697421467314_" gradientUnits="userSpaceOnUse" x1="595.85" y1="197.4259" x2="572.8501" y2="213.064">
				<stop  offset="0" style="stop-color:#006BF3"/>
				<stop  offset="1" style="stop-color:#0046AF"/>
			</linearGradient>
			<path style="fill:url(#SVGID_00000180330227713130582840000002572393697421467314_);" d="M590.3,193.1c-10.9-7.3-14.5-3-17.3,1.5
				c-2.7,4.5,5.4,4.9,10.9,8.3c7.3,4.6,19.9,11.3,22.2,7.4c1-1.8,2.8-3.6-0.8-7.2C601.2,199,596.2,197.1,590.3,193.1z"/>
			<path class="st7" d="M616.3,180.3c-0.9,2.1-1.4,2.6-1.4,2.6s-0.1-1.7-1.2-1.4c-1.1,0.3-1.1,0.4-1.4,3.9c-0.4,3.5-0.4,5.4-0.4,5.4
				l4.1,3.9c0,0,2.8-2.1,5.1-7.2c2.4-5.1,2.6-7.1,0.5-9.1C619.5,176.3,617.2,178.1,616.3,180.3z"/>
			
				<linearGradient id="SVGID_00000023990686997681859310000007943450738375708288_" gradientUnits="userSpaceOnUse" x1="642.8053" y1="176.5093" x2="597.7536" y2="207.141">
				<stop  offset="0" style="stop-color:#006BF3"/>
				<stop  offset="1" style="stop-color:#0046AF"/>
			</linearGradient>
			<path style="fill:url(#SVGID_00000023990686997681859310000007943450738375708288_);" d="M612,187.7c-1,1.3-13.2,17.8-13.2,17.8
				l0,4.7c0,0,5.4,3.9,11-1.7c0,0,8.4-10.3,10.4-19.2C620.6,187.9,615.9,185.9,612,187.7z"/>
		</g>
		<g>
			<g>
				<path class="st23" d="M550.1,317.8c0,0-3,40.1-3,42.6c0,5.7,10.2,4.2,10.5,1.8c0.4-2.4,8.7-47.5,8.7-47.5l4.9-36.2l3.3,29
					c0,0,3.7,48.7,4,53.2c0.3,4.4,9.8,4.3,9.8,0.5c0-3.7,2.9-104.3,2.9-104.3l-41.4,4.9L550.1,317.8z"/>
				<path class="st5" d="M583,189.8c-6.9-3.4-33.1,9.1-33.1,9.1c-10,4.3-0.1,63.4-0.1,63.4s3.9,3.6,16,3.9
					c12.1,0.3,25.4-9.2,25.4-9.2s1-27.5-0.2-43.6S589.9,193.1,583,189.8z"/>
				<path class="st7" d="M561,182.7l0.6,11.9c0,0,2.4,4.4,7.7,3.6c5.3-0.9,6-6.7,5.1-9.9C573.5,185.1,561,182.7,561,182.7z"/>
				<path class="st7" d="M554.3,176.8c3.3,9.1,11.4,16.3,22,11.8c10.6-4.5,2.6-22.6,2.6-22.6C569.5,148.5,549.4,165.4,554.3,176.8z"
					/>
				<path class="st3" d="M561.9,156.4c-4.5,1.1-14.3,7.5-10.6,19.4c1.9,8.1,9.9,13.2,9.9,13.2s-1.4-11.2,0.1-14.7
					c1.6-3.5,1.3-4.4,1.3-4.4s7.5,2.8,12.8,0.2c5.3-2.6,6.1-6.4,4-9.7C577.4,157.2,566.4,155.3,561.9,156.4z"/>
				<path class="st7" d="M561.6,178c0,0-3.5-4.2-4.5-0.8c-1.1,3.5,2.2,5.4,4.2,6.4C563.2,184.7,564.8,180.7,561.6,178z"/>
				<path class="st5" d="M585.6,359.2c-4.5,0.4-7.4,1.4-7.4,1.4s-2.6,1.9-2.7,5.4c0,5.4,7,4.4,13.7,4.3c3.8,0,8.2,0.5,10.7-1.4
					C606.7,364,590.1,358.8,585.6,359.2z"/>
				<path class="st5" d="M553.2,359.2c-4.5,0.4-7.4,1.4-7.4,1.4s-2.6,1.9-2.7,5.4c0,5.4,7,4.4,13.7,4.3c3.8,0,8.2,0.5,10.7-1.4
					C574.3,364,557.7,358.8,553.2,359.2z"/>
			</g>
		</g>
		<g>
			
				<linearGradient id="SVGID_00000137132619688536347730000014706523553266277795_" gradientUnits="userSpaceOnUse" x1="561.0676" y1="219.0025" x2="483.8833" y2="241.9251">
				<stop  offset="0" style="stop-color:#006BF3"/>
				<stop  offset="1" style="stop-color:#0046AF"/>
			</linearGradient>
			<path style="fill:url(#SVGID_00000137132619688536347730000014706523553266277795_);" d="M552.8,198.6
				c-5.2-0.8-9.3,10.7-9.8,17.4c-0.7,8.9,1.9,28.6,6.3,29.3c2,0.3,4.7-0.8,6.3-5.6c1.8-5.7,0.9-14.4,1.7-21.7
				C558.7,204.6,558,199.4,552.8,198.6z"/>
			<path class="st10" d="M574.2,269.8c0,0,1.9,1.3,2.3,0.3c0.4-1,0.2-1.1-3.3-4.1c-3.5-3-5.6-4.5-5.6-4.5l-6.7-0.1
				c0,0,0.5,3.6,4.4,9.3c3.9,5.7,6,7.4,9.4,7.5c3.5,0.1,3-3,1.3-5.3C574.5,270.5,574.2,269.8,574.2,269.8z"/>
			
				<linearGradient id="SVGID_00000055691093772246301670000016328717246855426239_" gradientUnits="userSpaceOnUse" x1="576.5229" y1="244.1068" x2="515.8289" y2="262.1319">
				<stop  offset="0" style="stop-color:#006BF3"/>
				<stop  offset="1" style="stop-color:#0046AF"/>
			</linearGradient>
			<path style="fill:url(#SVGID_00000055691093772246301670000016328717246855426239_);" d="M547,243.6c0,0,8.9,18.2,16.7,25.1
				c1.3,1.1,7.1-1.1,7.6-4.8c-0.8-1.5-9.7-18.7-16.3-29.3C548.5,224,544.5,236.5,547,243.6z"/>
		</g>
	</g>
</g>
</svg>
