<?xml version="1.0" encoding="utf-8"?>
<!-- Generator: Adobe Illustrator 27.0.0, SVG Export Plug-In . SVG Version: 6.00 Build 0)  -->
<svg version="1.1" id="_x2014_ÎÓÈ_x5F_1" xmlns="http://www.w3.org/2000/svg" xmlns:xlink="http://www.w3.org/1999/xlink"
	 x="0px" y="0px" viewBox="0 0 450 311.4" style="enable-background:new 0 0 450 311.4;" xml:space="preserve">
<style type="text/css">
	.st0{fill:url(#SVGID_1_);}
	.st1{fill:url(#SVGID_00000150783708557689001170000010693491105927375500_);}
	.st2{fill:#FFFFFF;}
	.st3{fill:url(#SVGID_00000085222222452423693030000001426725244774997136_);}
	.st4{fill:url(#SVGID_00000177454400888862012490000004194455579200551830_);}
	.st5{fill:none;stroke:#757575;stroke-width:5.1822;stroke-miterlimit:10;}
	.st6{fill:url(#SVGID_00000179629853565548719980000015205734152110988730_);}
	.st7{fill:#AAADAD;}
	.st8{fill:url(#SVGID_00000002376566460788485200000013945871581519119488_);}
	.st9{fill:url(#SVGID_00000052801620144407985030000001890827949160086659_);}
	.st10{fill:url(#SVGID_00000065076582191360593430000013109327095096504733_);}
	.st11{fill:url(#SVGID_00000000185798829087402920000001450163493974075817_);}
	.st12{fill:url(#SVGID_00000108297577984954213500000001937850451964343471_);}
	.st13{fill:url(#SVGID_00000163754802991233521120000004270408223601191098_);}
	.st14{fill:url(#SVGID_00000130625253657671003640000001976669063707175583_);}
	.st15{fill:url(#SVGID_00000052795013526260337640000013680938562626536603_);}
	.st16{fill:url(#SVGID_00000031177310091520947900000008144224532292096940_);}
	.st17{fill:url(#SVGID_00000111185809514374458270000014563298303668018590_);}
	.st18{fill:#FFD4D4;}
	.st19{fill:url(#SVGID_00000009571181837272180930000004346083211739707577_);}
	.st20{fill:url(#SVGID_00000058591426293673923360000011013874795079797165_);}
	.st21{fill:url(#SVGID_00000078005305804169810780000016252050341176622980_);}
	.st22{fill:#3C3C68;}
	.st23{opacity:0.4;fill:#2D2D4F;enable-background:new    ;}
	.st24{fill:#F8AF92;}
	.st25{fill:url(#SVGID_00000052793613580551925730000018018235049656280450_);}
	.st26{fill:#F6F6F6;}
	.st27{opacity:0.2;fill:url(#SVGID_00000039852410430155688420000008424754307161766575_);enable-background:new    ;}
	.st28{opacity:0.2;fill:url(#SVGID_00000067958402837606974170000005353872194247374266_);enable-background:new    ;}
	.st29{fill:url(#SVGID_00000018235031944876321770000009276259558395975851_);}
	.st30{fill:url(#SVGID_00000081627972691833572330000017947530533239585212_);}
	.st31{fill:url(#SVGID_00000147909000894006465390000002767141060216033936_);}
	.st32{fill:url(#SVGID_00000134242115680715387120000005782324548503053987_);}
	.st33{fill:url(#SVGID_00000063609908963945360270000015256569400336557213_);}
	.st34{fill:url(#SVGID_00000171721316794465807650000017352983632692152224_);}
	.st35{fill:url(#SVGID_00000147910564918138645840000017629583538004638090_);}
	.st36{opacity:0.2;fill:url(#SVGID_00000079452503559868783800000008751394069309759648_);enable-background:new    ;}
	.st37{opacity:0.2;fill:url(#SVGID_00000097498920300485554900000018177504492024490898_);enable-background:new    ;}
	.st38{fill:#EFEEED;}
	.st39{fill:url(#SVGID_00000028317561294348602020000015811389789291512458_);}
	.st40{fill:#DEE0E2;}
	.st41{fill:none;stroke:#FFFFFF;stroke-width:2.111;stroke-miterlimit:10;}
	.st42{opacity:0.6;}
	.st43{fill:url(#SVGID_00000147903934384703409970000016051853090212642980_);}
	.st44{fill:none;stroke:#FFFFFF;stroke-width:6.333;stroke-miterlimit:10;}
	.st45{fill:url(#SVGID_00000061456882678242194440000012795905458632343709_);}
	.st46{fill:url(#SVGID_00000016054101391242498230000009964668005845168550_);}
	.st47{fill:url(#SVGID_00000023249846797560065760000008596004255271008189_);}
</style>
<g>
	
		<linearGradient id="SVGID_1_" gradientUnits="userSpaceOnUse" x1="116.5319" y1="-1238.5872" x2="374.4358" y2="-1238.5872" gradientTransform="matrix(1 0 0 -1 0 -1068.5674)">
		<stop  offset="0" style="stop-color:#727070"/>
		<stop  offset="1" style="stop-color:#000000"/>
	</linearGradient>
	<path class="st0" d="M171.4,91.9h194c0.7,0-3-2-2.3-1.8c2.6,0.7,13.1,5.2,11,12.7c0,0.2-0.1,0.3-0.1,0.6L346,239.5
		c0,0.1-0.1,0.3-0.1,0.4c-0.1,0.9-0.7,3.9-2.2,6.3c-1.4,2.2-3.9,3.4-6.4,3.4H130.4c0,0-13.9,3.1-13.9-10c0-0.6,6.2,0.9,6.3,0.3
		l36.3-138.7c0-0.1,0.1-0.2,0.1-0.3c0.2-1.2,2.4-9.8,11.7-9.1C171,91.9,171.2,91.9,171.4,91.9z"/>
	
		<linearGradient id="SVGID_00000077307052738726067570000001490478345259711908_" gradientUnits="userSpaceOnUse" x1="329.0322" y1="-1205.8396" x2="87.1509" y2="-1294.0555" gradientTransform="matrix(1 0 0 -1 0 -1068.5674)">
		<stop  offset="0" style="stop-color:#727070"/>
		<stop  offset="1" style="stop-color:#000000"/>
	</linearGradient>
	<path style="fill:url(#SVGID_00000077307052738726067570000001490478345259711908_);" d="M165.3,88.4h194c0.7,0,1.2,0.1,1.9,0.2
		c2.6,0.7,8.8,3.1,6.7,10.7c0,0.2-0.1,0.3-0.1,0.6l-28.1,136.1c0,0.1-0.1,0.3-0.1,0.4c-0.1,0.9-0.7,3.9-2.2,6.3
		c-1.4,2.2-3.9,3.4-6.4,3.4H124.4c0,0-8.2,0.2-7.8-8c0-0.6,0.1-1.1,0.2-1.5L153,97.7c0-0.1,0.1-0.2,0.1-0.3
		c0.2-1.2,2.4-9.8,11.7-9.1C164.9,88.4,165.1,88.4,165.3,88.4z"/>
	<path class="st2" d="M157.5,102.6h203.7l-28.2,136.3H124.2L157.5,102.6z"/>
	
		<linearGradient id="SVGID_00000035493103323038085330000011531987838388541625_" gradientUnits="userSpaceOnUse" x1="328.2962" y1="-1243.9921" x2="418.2153" y2="-1243.9921" gradientTransform="matrix(1 0 0 -1 0 -1068.5674)">
		<stop  offset="0" style="stop-color:#FFAC06"/>
		<stop  offset="0.9952" style="stop-color:#FA8A13"/>
	</linearGradient>
	<path style="fill:url(#SVGID_00000035493103323038085330000011531987838388541625_);" d="M345.6,147.3h69.6c0,0,3.9,0.6,2.8,4
		L408,200c0,0-0.3,3.3-2.6,3.5h-74.3c0,0-3.1,0.1-2.8-3.2l13-49.8C341.3,150.6,342,147,345.6,147.3z"/>
	
		<linearGradient id="SVGID_00000165925307952082412550000005776851103602096287_" gradientUnits="userSpaceOnUse" x1="345.1432" y1="-1180.514" x2="435.0623" y2="-1180.514" gradientTransform="matrix(1 0 0 -1 0 -1068.5674)">
		<stop  offset="0" style="stop-color:#1D7ECE"/>
		<stop  offset="1" style="stop-color:#185D9B"/>
	</linearGradient>
	<path style="fill:url(#SVGID_00000165925307952082412550000005776851103602096287_);" d="M362.5,83.9H432c0,0,3.9,0.6,2.8,4
		l-10,48.7c0,0-0.3,3.3-2.6,3.5h-74.3c0,0-3.1,0.1-2.8-3.2l13-49.8C358.2,87.2,358.8,83.4,362.5,83.9z"/>
	<path class="st5" d="M258.6,178.5l-8.4,33.9"/>
	
		<linearGradient id="SVGID_00000073719093394397518490000017114698999614346683_" gradientUnits="userSpaceOnUse" x1="222.2895" y1="-1187.5" x2="263.7276" y2="-1197.7606" gradientTransform="matrix(1 0 0 -1 0 -1068.5674)">
		<stop  offset="0" style="stop-color:#1D7ECE"/>
		<stop  offset="1" style="stop-color:#185D9B"/>
	</linearGradient>
	<path style="fill:url(#SVGID_00000073719093394397518490000017114698999614346683_);" d="M258.6,130.8h-34.4
		c-2.6,0-4.3-2.1-3.6-4.5l1.1-4.4c0.7-2.5,3.3-4.5,6-4.5H262c2.6,0,4.3,2,3.6,4.5l-1.1,4.4C263.9,128.8,261.2,130.8,258.6,130.8z"/>
	<path class="st7" d="M200.1,163.4h-34.4c-2.6,0-4.3-2.1-3.6-4.5l1.1-4.4c0.7-2.5,3.3-4.5,6-4.5h34.4c2.6,0,4.3,2.1,3.6,4.5
		l-1.1,4.4C205.3,161.4,202.7,163.4,200.1,163.4z"/>
	
		<linearGradient id="SVGID_00000113312496892648700250000014427181818776326027_" gradientUnits="userSpaceOnUse" x1="239.484" y1="-1235.2174" x2="280.9229" y2="-1245.4783" gradientTransform="matrix(1 0 0 -1 0 -1068.5674)">
		<stop  offset="0" style="stop-color:#FFAC06"/>
		<stop  offset="0.9952" style="stop-color:#FA8A13"/>
	</linearGradient>
	<path style="fill:url(#SVGID_00000113312496892648700250000014427181818776326027_);" d="M275.8,178.5h-34.4
		c-2.6,0-4.3-2.1-3.6-4.5l1.1-4.4c0.7-2.5,3.3-4.5,6-4.5h34.4c2.6,0,4.3,2.1,3.6,4.5l-1.1,4.4C281,176.5,278.4,178.5,275.8,178.5z"
		/>
	<path class="st7" d="M264.6,223.4h-34.4c-2.6,0-4.3-2.1-3.6-4.5l1.1-4.4c0.7-2.5,3.3-4.5,6-4.5H268c2.6,0,4.3,2.1,3.6,4.5l-1.1,4.4
		C269.9,221.3,267.3,223.4,264.6,223.4z"/>
	
		<linearGradient id="SVGID_00000012447465100221063770000010064169486721650309_" gradientUnits="userSpaceOnUse" x1="293.478" y1="-1235.2173" x2="334.9169" y2="-1245.4781" gradientTransform="matrix(1 0 0 -1 0 -1068.5674)">
		<stop  offset="0" style="stop-color:#1D7ECE"/>
		<stop  offset="1" style="stop-color:#185D9B"/>
	</linearGradient>
	<path style="fill:url(#SVGID_00000012447465100221063770000010064169486721650309_);" d="M329.8,178.5h-34.4
		c-2.6,0-4.3-2.1-3.6-4.5l1.1-4.4c0.7-2.5,3.3-4.5,6-4.5h34.4c2.6,0,4.3,2.1,3.6,4.5l-1.1,4.4C335,176.5,332.4,178.5,329.8,178.5z"
		/>
	
		<linearGradient id="SVGID_00000071555217432431891850000005719641557721881780_" gradientUnits="userSpaceOnUse" x1="156.2528" y1="-1250.7728" x2="197.6917" y2="-1261.0336" gradientTransform="matrix(1 0 0 -1 0 -1068.5674)">
		<stop  offset="0" style="stop-color:#1D7ECE"/>
		<stop  offset="1" style="stop-color:#185D9B"/>
	</linearGradient>
	<path style="fill:url(#SVGID_00000071555217432431891850000005719641557721881780_);" d="M192.5,194.1h-34.4
		c-2.6,0-4.3-2.1-3.6-4.5l1.1-4.4c0.7-2.5,3.3-4.5,6-4.5h34.4c2.6,0,4.3,2.1,3.6,4.5l-1.1,4.4C197.7,192.1,195.1,194.1,192.5,194.1z
		"/>
	<path class="st5" d="M239.4,130.8l-3.5,14.3c-0.7,2.6,0.8,4.8,3.2,4.8h13.1c2.4,0,3.9,2.2,3.2,4.8l-2.5,10.1"/>
	<path class="st5" d="M237.6,172.6h-8.4c-2.4,0-5,2.2-5.6,4.8l-8.5,34.3c-0.7,2.6,0.8,4.8,3.2,4.8h8.8"/>
	<path class="st5" d="M312.6,178.5l-7.8,31.4c-0.7,2.6-3.2,4.8-5.6,4.8h-27.5"/>
	<path class="st5" d="M182.3,150l1.1-4.6c0.7-2.6,3.2-4.8,5.6-4.8h36.4c2.4,0,5-2.2,5.6-4.8l1.2-4.7"/>
	<path class="st5" d="M206.6,156.7h3.6c2.4,0,3.9,2.2,3.2,4.8l-5.2,20.8c-0.7,2.6-3.2,4.8-5.6,4.8h-3.3"/>
	<path class="st5" d="M209.8,95.7l-2.4,9.7c-0.4,1.9,1,3.7,2.9,3.7h28c2.1,0,3.6,2.1,3.1,4.1l-1.2,4.1"/>
	<path class="st5" d="M315.1,165.1l11.7-45c1.2-4.5,5.2-7.6,9.9-7.6h14.9"/>
	<path class="st5" d="M90.5,195.9l-4.3,17.3c-0.6,2.3,1.2,4.6,3.6,4.6l45.1-0.1c2.2,0,4.1-1.5,4.5-3.7l11.3-54.7
		c0.4-2,2.2-3.4,4.2-3.4h7.6"/>
	
		<linearGradient id="SVGID_00000121959747508234882600000012849522273116459654_" gradientUnits="userSpaceOnUse" x1="15.6626" y1="-1221.0636" x2="154.3669" y2="-1221.0636" gradientTransform="matrix(1 0 0 -1 0 -1068.5674)">
		<stop  offset="0" style="stop-color:#1D7ECE"/>
		<stop  offset="1" style="stop-color:#185D9B"/>
	</linearGradient>
	<path style="fill:url(#SVGID_00000121959747508234882600000012849522273116459654_);" d="M42.5,109.1h107.3c0,0,5.8,0.8,4.3,6.2
		l-15.5,75.2c0,0-0.6,5.1-4,5.5H20c0,0-4.8,0.1-4.3-5l20.1-76.8C35.9,114.2,36.9,108.5,42.5,109.1z"/>
	<path class="st2" d="M141.7,122.2c0.1,1.2-0.9,2.2-2.1,2.2H48c-1.2,0-2.3-1-2.3-2.2v-0.1c0-1.2,1-2.1,2.1-2.1h91.6
		C140.6,120,141.7,121,141.7,122.2z"/>
	<path class="st2" d="M138.6,133.6c0.1,1.2-0.9,2.2-2.1,2.2H44.9c-1.2,0-2.3-1-2.3-2.2v-0.1c0-1.2,0.9-2.1,2.1-2.1h91.6
		C137.5,131.2,138.6,132.2,138.6,133.6z"/>
	<path class="st2" d="M135.6,144.8c0.1,1.2-0.9,2.2-2.1,2.2H41.9c-1.2,0-2.3-1-2.3-2.2v-0.1c0-1.2,1-2.1,2.1-2.1h91.6
		C134.4,142.6,135.5,143.6,135.6,144.8z"/>
	<path class="st2" d="M132.4,156c0.1,1.2-0.9,2.2-2.1,2.2H38.7c-1.2,0-2.3-1-2.3-2.2v-0.1c0-1.2,1-2.1,2.1-2.1h91.6
		C131.3,153.8,132.4,154.8,132.4,156z"/>
	<path class="st2" d="M129.3,167.3c0.1,1.2-0.9,2.2-2.1,2.2H35.7c-1.2,0-2.3-1-2.3-2.2v-0.1c0-1.2,1-2.1,2.1-2.1H127
		C128.2,165.1,129.3,166.1,129.3,167.3z"/>
	<path class="st2" d="M126.2,178.6c0.1,1.2-0.9,2.2-2.1,2.2H32.6c-1.2,0-2.3-1-2.3-2.2v-0.1c0-1.2,1-2.1,2.1-2.1h91.6
		C125.1,176.3,126.2,177.3,126.2,178.6z"/>
	
		<linearGradient id="SVGID_00000086664850675995759910000001761030258432622236_" gradientUnits="userSpaceOnUse" x1="45.6784" y1="-1190.8348" x2="126.5594" y2="-1190.8348" gradientTransform="matrix(1 0 0 -1 0 -1068.5674)">
		<stop  offset="0" style="stop-color:#FFAC06"/>
		<stop  offset="0.9952" style="stop-color:#FA8A13"/>
	</linearGradient>
	<path style="fill:url(#SVGID_00000086664850675995759910000001761030258432622236_);" d="M126.6,120v4.5H48c-1.2,0-2.3-1-2.3-2.2
		v-0.1c0-1.2,1-2.1,2.1-2.1h78.8V120z"/>
	
		<linearGradient id="SVGID_00000104678217704063380180000010793279970308692098_" gradientUnits="userSpaceOnUse" x1="42.5931" y1="-1202.0743" x2="101.7662" y2="-1202.0743" gradientTransform="matrix(1 0 0 -1 0 -1068.5674)">
		<stop  offset="0" style="stop-color:#FFAC06"/>
		<stop  offset="0.9952" style="stop-color:#FA8A13"/>
	</linearGradient>
	<path style="fill:url(#SVGID_00000104678217704063380180000010793279970308692098_);" d="M44.7,131.2h57.1v4.5H44.9
		c-1.2,0-2.3-1-2.3-2.2v-0.1C42.6,132.2,43.5,131.2,44.7,131.2z"/>
	
		<linearGradient id="SVGID_00000067922309049086092740000000647218597814471568_" gradientUnits="userSpaceOnUse" x1="39.5077" y1="-1213.4242" x2="90.6368" y2="-1213.4242" gradientTransform="matrix(1 0 0 -1 0 -1068.5674)">
		<stop  offset="0" style="stop-color:#FFAC06"/>
		<stop  offset="0.9952" style="stop-color:#FA8A13"/>
	</linearGradient>
	<path style="fill:url(#SVGID_00000067922309049086092740000000647218597814471568_);" d="M41.6,142.6h49v4.5H41.8
		c-1.2,0-2.3-1-2.3-2.2v-0.1C39.5,143.5,40.4,142.6,41.6,142.6z"/>
	
		<linearGradient id="SVGID_00000054257419974638964220000013084665157425141670_" gradientUnits="userSpaceOnUse" x1="36.3782" y1="-1224.6638" x2="73.9537" y2="-1224.6638" gradientTransform="matrix(1 0 0 -1 0 -1068.5674)">
		<stop  offset="0" style="stop-color:#FFAC06"/>
		<stop  offset="0.9952" style="stop-color:#FA8A13"/>
	</linearGradient>
	<path style="fill:url(#SVGID_00000054257419974638964220000013084665157425141670_);" d="M38.5,153.8H74v4.5H38.7
		c-1.2,0-2.3-1-2.3-2.2V156C36.4,154.7,37.3,153.8,38.5,153.8z"/>
	
		<linearGradient id="SVGID_00000080178253777325448900000001079950030903844255_" gradientUnits="userSpaceOnUse" x1="33.2929" y1="-1235.9033" x2="73.9537" y2="-1235.9033" gradientTransform="matrix(1 0 0 -1 0 -1068.5674)">
		<stop  offset="0" style="stop-color:#FFAC06"/>
		<stop  offset="0.9952" style="stop-color:#FA8A13"/>
	</linearGradient>
	<path style="fill:url(#SVGID_00000080178253777325448900000001079950030903844255_);" d="M35.4,165.1h38.5v4.5H35.5
		c-1.2,0-2.3-1-2.3-2.2v-0.1C33.3,166.1,34.2,165.1,35.4,165.1z"/>
	
		<linearGradient id="SVGID_00000056424401503024334330000001421199986769657988_" gradientUnits="userSpaceOnUse" x1="30.2515" y1="-1247.1429" x2="93.7222" y2="-1247.1429" gradientTransform="matrix(1 0 0 -1 0 -1068.5674)">
		<stop  offset="0" style="stop-color:#FFAC06"/>
		<stop  offset="0.9952" style="stop-color:#FA8A13"/>
	</linearGradient>
	<path style="fill:url(#SVGID_00000056424401503024334330000001421199986769657988_);" d="M32.3,176.3h61.4v4.5H32.6
		c-1.2,0-2.3-1-2.3-2.2v-0.1C30.3,177.3,31.1,176.3,32.3,176.3z"/>
	<path class="st18" d="M37.3,284.9c0,0,0.6,2.1,0.6,2.9s-1.5,3.7-3.1,3.6c-1.4-0.1-2.9-0.6-2.9-0.6l-0.2-4.8L37.3,284.9z"/>
	<path class="st18" d="M23.1,272.6l-0.4,3c0,0,4.1,2.5,4.4,3.4c0.3,0.8,0.9,1.7,1.3,1.3s2.2-5.3,2.2-5.3L23.1,272.6z"/>
	
		<linearGradient id="SVGID_00000076568111574153013080000008608168998878471582_" gradientUnits="userSpaceOnUse" x1="21.8453" y1="-1312.3326" x2="58.8782" y2="-1311.3177" gradientTransform="matrix(1 0 0 -1 0 -1068.5674)">
		<stop  offset="0" style="stop-color:#727070"/>
		<stop  offset="1" style="stop-color:#000000"/>
	</linearGradient>
	<path style="fill:url(#SVGID_00000076568111574153013080000008608168998878471582_);" d="M55.3,202.1l-30.7-2.3c0,0-3.5,7.2-2.8,15
		c0.8,7.7,4,15.9,4,15.9s-0.7,4.1-2,13.3c-1.1,7.8,0.9,13.1,1.4,14.7c0.1,0.3,0.2,0.4,0.2,0.4s-0.4,1.7-1.3,5
		c-0.1,0.2-0.1,0.6-0.2,0.9c0,0.1,0,0.2-0.1,0.3c-0.1,0.4-0.2,0.9-0.2,1.2c-0.1,0.4-0.1,0.8-0.1,0.9l0,0c-0.4,2.9-0.8,5.7-0.8,5.7
		s2.2,0.8,4.7,1.9s2.6,1.8,2.6,1.8l2,10.7c0,0,4,0,6.1-2.3c2.1-2.3-0.4-17-0.4-17s3.9-7.6,9.3-13.2c5.4-5.6,11.3-11.9,11.8-16.6
		C59.1,233.3,55.3,202.1,55.3,202.1z M36.2,246c0,0-0.2-5.7,1-8.6c1.2-2.9,0.6-3.2,0.4-9.1l-0.2-9.1c0-0.2,0-0.3,0-0.3
		s1.2,1.8,3,2.6c1.7,1,1.7,1,1.7,1s3.3,14.2,2.5,15.1c-0.6,0.7-5.1,5.2-7.2,7.3C36.6,245.5,36.2,246,36.2,246z"/>
	
		<linearGradient id="SVGID_00000092446095095049074430000015220627271241192064_" gradientUnits="userSpaceOnUse" x1="29.9249" y1="-1360.0494" x2="50.7254" y2="-1359.4785" gradientTransform="matrix(1 0 0 -1 0 -1068.5674)">
		<stop  offset="0" style="stop-color:#4A31BB"/>
		<stop  offset="1" style="stop-color:#1E183D"/>
	</linearGradient>
	<path style="fill:url(#SVGID_00000092446095095049074430000015220627271241192064_);" d="M32.1,290.6c0,0,3.1-0.1,4.4-1.8
		c1.3-1.7,1.1-2.9,2.8-2.2s3.5,2.8,5.7,2.2c2.2-0.6,4.7-0.2,5.1,0.9c0.3,1.1,0.6,2.1,0.6,2.1s-13.4,4.5-17.9,4.4
		C28.5,296.1,29.8,292.1,32.1,290.6z"/>
	
		<linearGradient id="SVGID_00000122707417947481625950000003045969291253502094_" gradientUnits="userSpaceOnUse" x1="19.1092" y1="-1355.7726" x2="35.5732" y2="-1355.3209" gradientTransform="matrix(1 0 0 -1 0 -1068.5674)">
		<stop  offset="0" style="stop-color:#4A31BB"/>
		<stop  offset="1" style="stop-color:#1E183D"/>
	</linearGradient>
	<path style="fill:url(#SVGID_00000122707417947481625950000003045969291253502094_);" d="M22.6,275.2c0,0,6,1.3,6.9,5.5
		s2.2,13.8,3.9,14.4c1.7,0.7,3.2,2.9,1.9,3.4c-1.4,0.6-4.5,0.6-6.7-5.8c-2.2-6.4-4.2-11.9-6.9-12.2c-2.9-0.3-2.8,0.3-2.8,0.3
		S19.1,276,22.6,275.2z"/>
	<path class="st22" d="M19.2,279.2c0,0,4.2-1.3,6.5,4.3c2.3,5.6,4.5,12.7,5.7,14.1c1.2,1.5,2.1,1.2,2.1,1.2s-7.7,3.3-10.8-3.1
		C19.8,289.3,17.6,281,19.2,279.2z"/>
	<path class="st23" d="M37.2,237.4c-1.2,2.8-1,8.6-1,8.6s-4.4,5.2-7.2,10.4c-2.8,5.1-5.4,10.6-5.6,10.9l0,0c0-0.1,0.1-0.4,0.1-0.9
		c0.1-0.3,0.1-0.7,0.2-1.2c0-0.1,0-0.2,0.1-0.3c0.3-1.5,0.8-3.9,1.3-6.3c1.2-5,2.9-10.8,4.6-13.9c3.6-6.1,6.1-8,4.3-10.6
		c-1.8-2.4-4-3.6-4-3.6s6.6-1.3,6.1-3.5s-1.7-18.5-1.7-18.5s1.3,6.4,2.8,10.9l0.2,8.9C37.7,234.2,38.4,234.5,37.2,237.4z"/>
	<path class="st23" d="M37.3,267.7l-7.4,9l1.8,8.3c0,0,0.6-6.7,2.1-9.3c1.4-2.5,3-2.8,3.7-4.3C38.2,270.1,37.3,267.7,37.3,267.7z"/>
	<path class="st23" d="M49.9,238.8c0,0-7.3,3.9-10.5,5.1c-1,0.3-1.7,0.7-2.1,1c2.1-2.1,6.6-6.6,7.2-7.3c0.8-0.9-2.5-15.1-2.5-15.1
		s0,0-1.7-1c-1.7-1-3-2.6-3-2.6s0,0.1,0,0.3l-0.4-1.3c0,0,5.2,3.4,6.7,3.5c1.5,0.1,3.5,0.4,3.5,0.4s-2.6,0.4-2.9,1.2
		c-0.2,0.9,1.7,13.7,3.3,14.3C49.1,238,49.9,238.8,49.9,238.8z"/>
	<path class="st24" d="M48.5,126.6c0,0,0.6,3.4,0,4.5c-0.6,1.1-0.3,2,0,3.1c0.3,1.1,1.1,2.9-0.3,6.2c-1.4,3.3-1.7,4.3-3.4,4.6
		c-1.9,0.3-2.3,0-2.3,0v2.6c0,0-0.9,1.3-4.5,1.3c-3.7,0.1-5.1-1.3-5.1-1.3s0.2-7.5-0.4-9.9c-0.7-2.4,0.9-9.7,6-10.4
		C43.5,126.8,48.5,126.6,48.5,126.6z"/>
	
		<linearGradient id="SVGID_00000147194581385735149310000009024387294766045367_" gradientUnits="userSpaceOnUse" x1="28.8566" y1="-1199.1559" x2="51.0028" y2="-1199.1559" gradientTransform="matrix(1 0 0 -1 0 -1068.5674)">
		<stop  offset="0" style="stop-color:#161632"/>
		<stop  offset="0.9951" style="stop-color:#2D2D4F"/>
	</linearGradient>
	<path style="fill:url(#SVGID_00000147194581385735149310000009024387294766045367_);" d="M51,123.9c-0.2,2.4-1.2,4.3-3.6,4.5
		c-2.3,0.2-3.2,0.9-3.2,2.9s-0.1,3.3-0.7,3.4s-0.9-2.3-2.3-2.3s-1.2,2-0.8,3.6c0.6,1.7-0.1,4.8-3,5.3c-2.9,0.6-4.5,0.3-6.7-3.9
		c-2.1-4.3-3-9.4,0-13.4s10.7-4.8,15-4C50,120.8,51.1,123.3,51,123.9z"/>
	<path class="st26" d="M82.2,154.2c0,0-12.3,15-14.3,16.1c-2.1,1.2-11.5-4.2-11.5-4.2s0.4,31.8-1,35.9c-0.4,1.1-2.3,2-4.8,2.5
		c-6.5,1.4-17.6,1.3-21.4,0.8c-5.3-0.8-5.8-2.9-5.6-5.5c0.1-0.7-0.4-10-1.2-11.3c-2.3-4.1-7.2-10.2-7.3-11.9
		c-0.2-2.2,3.4-23.5,5.2-25.8c1.8-2.3,12.9-4,12.9-4c1.9,0.9,9.6,0,9.6,0s8.6,1.2,11.1,1.3c2.5,0.2,10.8,13.1,12,13
		c1.1-0.1,9.8-10.9,9.8-10.9s0.8,0,3.4,0.8C81.4,151.9,82.2,154.2,82.2,154.2z"/>
	<path class="st24" d="M75.9,151.1c0,0,1.7-2.6,1.5-4.6s2-4.8,2.4-4.6c0.4,0.1-1.1,3.2,0,3.1s2.5-8.7,3.7-8.7c1.2,0-0.2,5.8,0,6.5
		c0.2,0.7,3.1,3.6,2.4,5.1c-0.7,1.5-4.4,6.7-4.4,6.7L75.9,151.1z"/>
	
		<linearGradient id="SVGID_00000178193046145711780500000010775258984444404633_" gradientUnits="userSpaceOnUse" x1="50.3768" y1="-1249.0713" x2="56.3772" y2="-1249.0713" gradientTransform="matrix(1 0 0 -1 0 -1068.5674)">
		<stop  offset="0" style="stop-color:#161632"/>
		<stop  offset="0.9951" style="stop-color:#2D2D4F"/>
	</linearGradient>
	<path style="opacity:0.2;fill:url(#SVGID_00000178193046145711780500000010775258984444404633_);enable-background:new    ;" d="
		M55.3,202c-0.4,1.1-2.3,2-4.8,2.5c0.7-1.4,1.4-3,2.3-4.3c1.8-2.9,1-19.3,0.1-27.3c-0.8-7.9,2.1-16.4,2.1-16.4s0,0,0,2.9
		s1.4,6.7,1.4,6.7S56.8,198,55.3,202z"/>
	
		<linearGradient id="SVGID_00000096756076338986314480000005714687385917494670_" gradientUnits="userSpaceOnUse" x1="17.1987" y1="-1241.468" x2="22.1279" y2="-1241.468" gradientTransform="matrix(1 0 0 -1 0 -1068.5674)">
		<stop  offset="0" style="stop-color:#161632"/>
		<stop  offset="0.9951" style="stop-color:#2D2D4F"/>
	</linearGradient>
	<path style="opacity:0.2;fill:url(#SVGID_00000096756076338986314480000005714687385917494670_);enable-background:new    ;" d="
		M22.1,188.4c0,0,0-21.4,0-25.5s0-5.6,0-5.6s-1.5,15.2-2.2,17s-2.8,3.2-2.8,3.2s4,0.1,4,1.5C21.2,180.6,22.1,188.4,22.1,188.4z"/>
	
		<linearGradient id="SVGID_00000142876245317890252690000010581117456712983185_" gradientUnits="userSpaceOnUse" x1="249.1604" y1="-1332.4133" x2="392.9588" y2="-1332.4133" gradientTransform="matrix(1 0 0 -1 0 -1068.5674)">
		<stop  offset="0" style="stop-color:#1D7ECE"/>
		<stop  offset="1" style="stop-color:#185D9B"/>
	</linearGradient>
	<path style="fill:url(#SVGID_00000142876245317890252690000010581117456712983185_);" d="M276.9,218.9h111.4c0,0,6.1,0.9,4.4,6.4
		l-16.1,78c0,0-0.6,5.3-4.2,5.6H253.6c0,0-5,0.1-4.4-5.1l20.8-79.7C270,224.1,271,218.3,276.9,218.9z"/>
	
		<linearGradient id="SVGID_00000110431690332787839110000003311760825784372882_" gradientUnits="userSpaceOnUse" x1="293.0926" y1="-1192.6233" x2="271.2799" y2="-1192.6233" gradientTransform="matrix(1 0 0 -1 0 -1068.5674)">
		<stop  offset="0" style="stop-color:#727070"/>
		<stop  offset="1" style="stop-color:#000000"/>
	</linearGradient>
	<path style="fill:url(#SVGID_00000110431690332787839110000003311760825784372882_);" d="M281.2,117.8c0,0-2.4,5.1-6.7,6.9
		c-4.3,2-4.3,6.1,1.2,5.5c5.5-0.6,17.4-8.8,17.4-8.8L281.2,117.8z"/>
	
		<linearGradient id="SVGID_00000080168137858517304330000015596376587465358217_" gradientUnits="userSpaceOnUse" x1="277.9699" y1="-1143.985" x2="291.8678" y2="-1156.8539" gradientTransform="matrix(1 0 0 -1 0 -1068.5674)">
		<stop  offset="0" style="stop-color:#727070"/>
		<stop  offset="1" style="stop-color:#000000"/>
	</linearGradient>
	<path style="fill:url(#SVGID_00000080168137858517304330000015596376587465358217_);" d="M286.2,69.9c0,0-12.8,4.1-10.4,12.9
		c2.4,8.9,3.2,16.3,4.2,21c1,4.7,1,14,1,14s1.8,2.5,4.4,2.6s4-1,4-1l2-32.4c0,0,22.4-19.1,22.4-18.2
		C313.9,69.9,286.2,69.9,286.2,69.9z"/>
	
		<linearGradient id="SVGID_00000115477727717342329380000000134208471234287515_" gradientUnits="userSpaceOnUse" x1="294.3311" y1="-1144.4583" x2="317.2375" y2="-1170.4534" gradientTransform="matrix(1 0 0 -1 0 -1068.5674)">
		<stop  offset="0" style="stop-color:#727070"/>
		<stop  offset="1" style="stop-color:#000000"/>
	</linearGradient>
	<path style="fill:url(#SVGID_00000115477727717342329380000000134208471234287515_);" d="M336.8,72.1c0,0,4.4,10.5-7.3,15.9
		c-11.6,5.5-28.5,3.2-29.5,5c-1,1.8,1.4,4.3,0.3,13.8s-1.3,14.1-1.7,14.5c-0.4,0.4-2.2,0.4-4.6,1.1c-2.4,0.7-6.7-2.2-6.7-2.2
		s-0.2-20.5-1.7-27.8c-1.4-7.3,1.9-10.9,11.1-15.8s16-3.5,16-3.5S336.5,69.1,336.8,72.1z"/>
	
		<linearGradient id="SVGID_00000076574460535308484490000008435628854678727343_" gradientUnits="userSpaceOnUse" x1="318.2609" y1="-1090.2075" x2="302.4726" y2="-1090.2075" gradientTransform="matrix(1 0 0 -1 0 -1068.5674)">
		<stop  offset="0" style="stop-color:#161632"/>
		<stop  offset="0.9951" style="stop-color:#2D2D4F"/>
	</linearGradient>
	<path style="fill:url(#SVGID_00000076574460535308484490000008435628854678727343_);" d="M304.4,13c0,0,2,2.2,0,4.2
		c-2,2-3.3,6.7,0.4,10.9s13.4,2.1,13.3,0C318.2,26,308.3,10.6,304.4,13z"/>
	<path class="st24" d="M305.6,13c-0.3,0.6,1.9,2.3,2,4.5s-0.6,3.2,1.1,5.4s2.8,4.4,3.7,4.5s2.4-0.4,2.4-0.4s0.2,3.9,0.6,4.1
		c0.3,0.2,5.8,0.7,7.1-2c1.2-2.6-0.9-14-5.7-17.5c-4.8-3.4-4.8-3.9-7.5-3.5C306.6,8.3,305.6,13,305.6,13z"/>
	
		<linearGradient id="SVGID_00000013895485318221981070000001419928164198026660_" gradientUnits="userSpaceOnUse" x1="340.0987" y1="-1091.4308" x2="302.8184" y2="-1091.4308" gradientTransform="matrix(1 0 0 -1 0 -1068.5674)">
		<stop  offset="0" style="stop-color:#161632"/>
		<stop  offset="0.9951" style="stop-color:#2D2D4F"/>
	</linearGradient>
	<path style="fill:url(#SVGID_00000013895485318221981070000001419928164198026660_);" d="M302.9,8.6c-0.2,3.4,1.8,5.8,6.3,6
		c4.5,0.1,6.7-1,7.2,1.5c0.4,2.5,1.4,4.2,3.1,5c1.7,0.8-1.8,7.4,2.2,9c4.1,1.7,10.7,0.1,13,5.5s2.6,7.6,2.6,7.6s4.4-2.9,2.6-7.3
		c-1.8-4.4-4.2-6.4-3.1-10s1-8.5-3.1-9.6c-4.2-1.1-7.8-3.4-8.5-6.1c-0.6-2.6-5.5-7.5-11.6-7.7C307.4,2.2,303,5.7,302.9,8.6z"/>
	
		<linearGradient id="SVGID_00000091002115283830388920000017873753442286745761_" gradientUnits="userSpaceOnUse" x1="344.0785" y1="-1120.9268" x2="295.8584" y2="-1120.9268" gradientTransform="matrix(1 0 0 -1 0 -1068.5674)">
		<stop  offset="0" style="stop-color:#F37521"/>
		<stop  offset="1" style="stop-color:#F89C1C"/>
	</linearGradient>
	<path style="fill:url(#SVGID_00000091002115283830388920000017873753442286745761_);" d="M321.9,29.7c0,0,10.4,1.3,12.1,3.2
		c1.8,1.9,10,24.7,10,26.9c0,2.2-9.3,2.5-9.3,2.5s3.9,7.4,2,9.8c-4.3,5.4-29.4,2.3-30.4-0.1c-1-2.4,1.3-6.9,1.1-9.3
		c-0.2-2.3-4-14.1-4-14.1h-7.6c0,0,9.1-16.9,10.6-17.5c1.4-0.7,9.1-0.8,9.1-0.8S319.9,30.8,321.9,29.7z"/>
	<path class="st24" d="M342.4,53.7c0,0-1.9,0.1-4.4,0.4c-2.5,0.3-3.9,1.1-3.9,1.1s2.3,2.4-1,3.4c-3.2,1.1-9.6,4.7-11.7,5.1
		c-2.2,0.2-5.4-0.1-7.3,1.1c-1.9,1.2-3.9,3.3-3.4,4.4c0.4,1.1,6.7,0.8,10.1,0s17.5-5.8,20.7-6.7C345,61.7,344.6,59.4,342.4,53.7z"/>
	
		<linearGradient id="SVGID_00000029757527060035400000000011271766075612567473_" gradientUnits="userSpaceOnUse" x1="334.9638" y1="-1117.0061" x2="328.7888" y2="-1117.0061" gradientTransform="matrix(1 0 0 -1 0 -1068.5674)">
		<stop  offset="0" style="stop-color:#161632"/>
		<stop  offset="0.9951" style="stop-color:#2D2D4F"/>
	</linearGradient>
	<path style="opacity:0.2;fill:url(#SVGID_00000029757527060035400000000011271766075612567473_);enable-background:new    ;" d="
		M334.2,55.2c0,0-3.7-10.1-4.3-13.7s-0.6-3.5-0.6-3.5s-1.1,4.5,0,9.1s3.3,11.7,3.3,11.7S336.6,58.3,334.2,55.2z"/>
	
		<linearGradient id="SVGID_00000070810695097639360630000006102338985791943082_" gradientUnits="userSpaceOnUse" x1="303.5168" y1="-1111.9374" x2="299.2854" y2="-1111.9374" gradientTransform="matrix(1 0 0 -1 0 -1068.5674)">
		<stop  offset="0" style="stop-color:#161632"/>
		<stop  offset="0.9951" style="stop-color:#2D2D4F"/>
	</linearGradient>
	<path style="opacity:0.2;fill:url(#SVGID_00000070810695097639360630000006102338985791943082_);enable-background:new    ;" d="
		M303.5,48.6c0,0-1.7-3.7-1.1-6.5c0.6-2.8,1.1-4,1.1-4s-2.6,3.4-3,5.2c-0.3,1.8-1.2,5.2-1.2,5.2L303.5,48.6z"/>
	<path class="st38" d="M280.9,73.2l-7.6-24.8h32l7.6,24.8H280.9z"/>
	<path class="st38" d="M312.9,73.2h22.5v-2.1h-23L312.9,73.2z"/>
	
		<linearGradient id="SVGID_00000083080052913547045660000011000100666054200228_" gradientUnits="userSpaceOnUse" x1="299.4752" y1="-1195.042" x2="274.3765" y2="-1195.042" gradientTransform="matrix(1 0 0 -1 0 -1068.5674)">
		<stop  offset="0" style="stop-color:#727070"/>
		<stop  offset="1" style="stop-color:#000000"/>
	</linearGradient>
	<path style="fill:url(#SVGID_00000083080052913547045660000011000100666054200228_);" d="M298.8,121.3c0,0,1.5,6,0,7.4
		c-1.5,1.4-9,1.2-13.2,2.9c-4.3,1.7-12.5,1.5-10.9-2c1.5-3.5,12.9-9.3,12.9-9.3S295.2,122.7,298.8,121.3z"/>
	<path class="st40" d="M287.8,283.8h-7.7c-0.7,0-1.2-0.6-1.2-1.2s0.6-1.2,1.2-1.2h7.7c0.7,0,1.2,0.6,1.2,1.2
		S288.4,283.8,287.8,283.8z"/>
	<path class="st40" d="M303.5,283.8h-7.7c-0.7,0-1.2-0.6-1.2-1.2s0.6-1.2,1.2-1.2h7.7c0.7,0,1.2,0.6,1.2,1.2
		C304.9,283.2,304.3,283.8,303.5,283.8z"/>
	<path class="st40" d="M319.3,283.8h-7.7c-0.7,0-1.2-0.6-1.2-1.2s0.6-1.2,1.2-1.2h7.7c0.7,0,1.2,0.6,1.2,1.2
		S320.1,283.8,319.3,283.8z"/>
	<path class="st40" d="M335.2,283.8h-7.7c-0.7,0-1.2-0.6-1.2-1.2s0.6-1.2,1.2-1.2h7.7c0.7,0,1.2,0.6,1.2,1.2
		S335.8,283.8,335.2,283.8z"/>
	<path class="st40" d="M350.9,283.8h-7.7c-0.7,0-1.2-0.6-1.2-1.2s0.6-1.2,1.2-1.2h7.7c0.7,0,1.2,0.6,1.2,1.2
		S351.6,283.8,350.9,283.8z"/>
	<path class="st40" d="M366.7,283.8H359c-0.7,0-1.2-0.6-1.2-1.2s0.6-1.2,1.2-1.2h7.7c0.7,0,1.2,0.6,1.2,1.2S367.3,283.8,366.7,283.8
		z"/>
	<path class="st41" d="M262.4,299.2h103"/>
	<path class="st41" d="M264.4,291h103"/>
	<path class="st41" d="M266.4,282.8h103"/>
	<path class="st41" d="M268.5,274.6h103"/>
	<path class="st41" d="M270.5,266.5h103"/>
	<path class="st41" d="M272.5,258.2h103"/>
	<path class="st41" d="M274.4,250h103"/>
	<path class="st41" d="M276.5,241.9h103"/>
	<path class="st41" d="M278.5,233.6h103"/>
	<path class="st41" d="M280.5,225.5h103"/>
	<path class="st41" d="M281,225.5l-17.4,73.7"/>
	<path class="st41" d="M291.3,225.5l-17.4,73.7"/>
	<path class="st41" d="M301.7,225.5l-17.4,73.7"/>
	<path class="st41" d="M311.9,225.5l-17.4,73.7"/>
	<path class="st41" d="M322.3,225.5l-17.4,73.7"/>
	<path class="st41" d="M332.5,225.5l-17.4,73.7"/>
	<path class="st41" d="M342.9,225.5l-17.4,73.7"/>
	<path class="st41" d="M353.2,225.5l-17.4,73.7"/>
	<path class="st41" d="M363.5,225.5l-17.4,73.7"/>
	<path class="st41" d="M373.8,225.5l-17.4,73.7"/>
	<path class="st41" d="M384.1,225.5l-17.4,73.7"/>
	<g class="st42">
		<path class="st2" d="M291.8,274.3h-6.6l4.1-18.6h6.6L291.8,274.3z"/>
		<path class="st2" d="M305.3,274.3h-6.6l7.4-33.9h6.6L305.3,274.3z"/>
		<path class="st2" d="M318.7,274.3h-6.6l9.5-43.5h6.6L318.7,274.3z"/>
		<path class="st2" d="M332.3,274.3h-6.6l6.2-28.5h6.6L332.3,274.3z"/>
		<path class="st2" d="M345.7,274.3h-6.6l8.6-39.3h6.6L345.7,274.3z"/>
		<path class="st2" d="M359.2,274.3h-6.6l6.2-28.5h6.6L359.2,274.3z"/>
	</g>
	<path class="st2" d="M388.3,112.4l12,12.6c-4.8,4.1-11,6.7-17.2,6.7c-11.2,0-18-8.6-15-19.3c2.9-10.7,14.3-19.3,25.6-19.3
		c5.1,0,9.4,1.8,12.1,4.7L388.3,112.4z"/>
	
		<linearGradient id="SVGID_00000107549724407312613320000006482515369534059689_" gradientUnits="userSpaceOnUse" x1="392.1222" y1="-1180.036" x2="413.0608" y2="-1180.036" gradientTransform="matrix(1 0 0 -1 0 -1068.5674)">
		<stop  offset="0" style="stop-color:#FFAC06"/>
		<stop  offset="0.9952" style="stop-color:#FA8A13"/>
	</linearGradient>
	<path style="fill:url(#SVGID_00000107549724407312613320000006482515369534059689_);" d="M412.4,112.4c-1.3,4.7-4.3,9.1-8.3,12.6
		l-12-12.6L409.4,98C412.7,101.4,413.9,106.6,412.4,112.4z"/>
	<path class="st44" d="M335.8,196.7l19-19.6l8.7,5.5l9.7-7.2l9.5,4.4l17.4-22.4l11.3-4.6"/>
	
		<linearGradient id="SVGID_00000000911731454059527010000009719821684426863281_" gradientUnits="userSpaceOnUse" x1="113.9727" y1="-1323.9364" x2="203.8918" y2="-1323.9364" gradientTransform="matrix(1 0 0 -1 0 -1068.5674)">
		<stop  offset="0" style="stop-color:#1D7ECE"/>
		<stop  offset="1" style="stop-color:#185D9B"/>
	</linearGradient>
	<path style="fill:url(#SVGID_00000000911731454059527010000009719821684426863281_);" d="M131.3,227.2h69.6c0,0,3.9,0.6,2.8,4
		L190.8,280c0,0-0.3,3.3-2.6,3.5h-71.4c0,0-3.1,0.1-2.8-3.2l13-49.8C127,230.5,127.8,226.9,131.3,227.2z"/>
	<path class="st2" d="M189.1,238.9h-50.7c-0.8,0-1.5-0.7-1.5-1.5c0-0.9,0.7-1.5,1.5-1.5h50.7c0.8,0,1.5,0.7,1.5,1.5
		C190.7,238.2,190,238.9,189.1,238.9z"/>
	<path class="st2" d="M187.5,247.3h-50.7c-0.8,0-1.5-0.7-1.5-1.5c0-0.9,0.7-1.5,1.5-1.5h50.7c0.8,0,1.5,0.7,1.5,1.5
		C189,246.6,188.4,247.3,187.5,247.3z"/>
	<path class="st2" d="M185.8,255.5h-50.7c-0.8,0-1.5-0.7-1.5-1.5c0-0.9,0.7-1.5,1.5-1.5h50.7c0.8,0,1.5,0.7,1.5,1.5
		C187.4,254.9,186.7,255.5,185.8,255.5z"/>
	<path class="st2" d="M184.2,263.8h-50.7c-0.8,0-1.5-0.7-1.5-1.5c0-0.9,0.7-1.5,1.5-1.5h50.7c0.8,0,1.5,0.7,1.5,1.5
		C185.7,263.1,185.1,263.8,184.2,263.8z"/>
	<path class="st2" d="M182.5,272.1h-50.7c-0.8,0-1.5-0.7-1.5-1.5c0-0.8,0.7-1.5,1.5-1.5h50.7c0.8,0,1.5,0.7,1.5,1.5
		C184.1,271.4,183.4,272.1,182.5,272.1z"/>
	
		<linearGradient id="SVGID_00000156558649967939163300000002162289104139994006_" gradientUnits="userSpaceOnUse" x1="177.223" y1="-1136.059" x2="267.0319" y2="-1136.059" gradientTransform="matrix(1 0 0 -1 0 -1068.5674)">
		<stop  offset="0" style="stop-color:#1D7ECE"/>
		<stop  offset="1" style="stop-color:#185D9B"/>
	</linearGradient>
	<path style="fill:url(#SVGID_00000156558649967939163300000002162289104139994006_);" d="M194.5,39.3h69.5c0,0,3.9,0.6,2.8,4
		l-12.8,48.8c0,0-0.3,3.3-2.6,3.5H180c0,0-3.1,0.1-2.8-3.2l13-49.8C190.3,42.7,190.9,39,194.5,39.3z"/>
	<path class="st2" d="M224.4,50.8c-10.4,0-20.5,7.9-22.8,17.9s4.2,17.9,14.5,17.9c10.4,0,20.5-7.9,22.8-17.9S234.8,50.8,224.4,50.8z
		 M217,82.3c-7.9,0-12.9-6.2-11.1-13.7c1.8-7.6,9.7-13.7,17.6-13.7s12.9,6.2,11.1,13.7C232.8,76.2,225,82.3,217,82.3z"/>
	
		<linearGradient id="SVGID_00000096764251491247068700000011682700434946333338_" gradientUnits="userSpaceOnUse" x1="220.2304" y1="-1136.8562" x2="239.4202" y2="-1141.3572" gradientTransform="matrix(1 0 0 -1 0 -1068.5674)">
		<stop  offset="0" style="stop-color:#F37521"/>
		<stop  offset="1" style="stop-color:#F89C1C"/>
	</linearGradient>
	<path style="fill:url(#SVGID_00000096764251491247068700000011682700434946333338_);" d="M224.7,49.4L224.7,49.4l-1.8,6.9
		c0,0,0,0,0.1,0c7.1,0,11.6,5.5,10,12.2s-8.7,12.2-15.8,12.2c0,0,0,0-0.1,0l-1.7,6.9c0,0,0,0,0.1,0c11.1,0,22.1-8.6,24.7-19.2
		C242.9,58,235.9,49.4,224.7,49.4z"/>
</g>
</svg>
