<?xml version="1.0" encoding="utf-8"?>
<!-- Generator: Adobe Illustrator 27.0.0, SVG Export Plug-In . SVG Version: 6.00 Build 0)  -->
<svg version="1.1" id="Layer_1" xmlns="http://www.w3.org/2000/svg" xmlns:xlink="http://www.w3.org/1999/xlink" x="0px" y="0px"
	 viewBox="0 0 556 500" style="enable-background:new 0 0 556 500;" xml:space="preserve">
<style type="text/css">
	.st0{opacity:0.7;}
	.st1{fill:url(#SVGID_1_);}
	.st2{opacity:0.5;fill:url(#SVGID_00000168083325763018146630000005155935943751464355_);}
	.st3{fill:#DEF7FF;}
	.st4{fill:#FFFFFF;}
	.st5{fill:#C7DDE5;}
	.st6{fill:#494949;}
	.st7{fill:#4A71DD;}
	.st8{fill:#1A120E;}
	.st9{fill:#FFD48F;}
	.st10{fill:#F4B89D;}
	.st11{fill:url(#SVGID_00000054263276552409827960000006046329066811197583_);}
	.st12{fill:url(#SVGID_00000022518781375711313950000005275509412472101770_);}
	.st13{fill:url(#SVGID_00000035507809128628606700000002709373245990594457_);}
	.st14{fill:#D9FFFE;}
	.st15{fill:#547AC7;}
	.st16{fill:url(#SVGID_00000147933617435161535560000017318622931184617126_);}
	.st17{fill:url(#SVGID_00000100381224962721656310000011347552985354832791_);}
	.st18{fill:url(#SVGID_00000024002779307481270720000008568912682224780417_);}
	.st19{fill:url(#SVGID_00000057117387198934404450000008226252676617550256_);}
	.st20{fill:url(#SVGID_00000008142073284125245020000014429292265965978804_);}
	.st21{fill:url(#SVGID_00000082357895239089640900000011198301451856917174_);}
	.st22{fill:url(#SVGID_00000162323344429078378910000001338626270984389264_);}
	.st23{fill:url(#SVGID_00000119833373157290600520000017163049213981162422_);}
	.st24{fill:#707070;}
	.st25{fill:#FDAE97;}
	.st26{fill:url(#SVGID_00000144324697955099175060000004561344357159712641_);}
	.st27{fill:url(#SVGID_00000142168518843981424340000015834642964604422549_);}
	.st28{fill:#E6E6E6;}
	.st29{fill:url(#SVGID_00000020398159941884972550000013457410743836409531_);}
	.st30{fill:#27A4AD;}
	.st31{fill:#45BCBF;}
	.st32{fill:#D18ADD;}
	.st33{fill:#DEA4EA;}
	.st34{fill:url(#SVGID_00000062885478849410115660000015889573757716911787_);}
	.st35{fill:url(#SVGID_00000172422323091420366590000014489249871752126857_);}
	.st36{fill:#EFCCBF;}
	.st37{fill:url(#SVGID_00000126304407574912321820000003996466326558810273_);}
	.st38{fill:#EAEAEA;}
</style>
<g>
	<g>
		<g class="st0">
			
				<radialGradient id="SVGID_1_" cx="-610.4399" cy="-172.4871" r="1.1132" gradientTransform="matrix(55.3641 0 0 55.3641 34190.7422 9975.5889)" gradientUnits="userSpaceOnUse">
				<stop  offset="0" style="stop-color:#A1D4FD"/>
				<stop  offset="1" style="stop-color:#DFEFFD"/>
			</radialGradient>
			<path class="st1" d="M411.8,367.1c-37.6,10.4-108.5,82.9-64.5,117C391.2,518.1,522.6,336.5,411.8,367.1z"/>
		</g>
		<g class="st0">
			
				<radialGradient id="SVGID_00000045620758974535627230000007514450870389015481_" cx="-618.9149" cy="-178.0326" r="1.1135" gradientTransform="matrix(203.563 0 0 203.563 126265.1953 36515.0352)" gradientUnits="userSpaceOnUse">
				<stop  offset="0" style="stop-color:#A1D4FD"/>
				<stop  offset="1" style="stop-color:#DFEFFD"/>
			</radialGradient>
			<path style="opacity:0.5;fill:url(#SVGID_00000045620758974535627230000007514450870389015481_);" d="M421.9,356.1
				c-159.2,32.5-111.4,115.3-217.6,134.8C61,517.2-6.2,302.3,83.6,169.8c71.8-106,195.7-139.5,305.4-96
				C544,135.2,547.5,330.6,421.9,356.1z"/>
		</g>
		<g>
			<path class="st3" d="M0,296.6c0,78.2,59.6,151.6,181.7,175c161.2,30.9,368.3,32.9,368.3-121c0-57.7,5.8-215.6-27.1-236.9h-84.3
				v194.9l-46.2,75.5V229h-31.3v-63.5l-87.9-66.8v88.4h-74.4V72.5c-22.4,2.9-43.8,13-62.7,29.1v165.5h-33.7v-37.5L2.5,178.9
				C-0.2,194.8,0,279.2,0,296.6z M186.4,344.7h58v37.6h-58V344.7z M222.3,207.7h26.8v108.5h-26.8V207.7z M183.2,129.7h-30.5v-23.1
				h30.5V129.7z M183.2,159.1h-30.5V136h30.5V159.1z M183.2,188.4h-30.5v-23.1h30.5V188.4z M183.2,217.6h-30.5v-23.1h30.5V217.6z
				 M489.1,179.7h-37.8v-55.1h37.8V179.7z M489.1,249.6h-37.8v-55.1h37.8V249.6z M489.1,319.4h-37.8v-55.1h37.8V319.4z M489.1,389.2
				h-37.8v-55.1h37.8V389.2z M151,263h43.7v50H151L151,263L151,263z"/>
			<path class="st4" d="M446,110.7h-1v339h1V110.7z"/>
			<path class="st4" d="M347.8,33.5h-1v416.2h1V33.5z"/>
			<path class="st4" d="M249.4,33.5h-1v416.2h1V33.5z"/>
			<path class="st4" d="M151.1,33.5h-1v416.2h1V33.5z"/>
			<path class="st4" d="M50.7,110.6h-1v339.1h1V110.6z"/>
			<path class="st5" d="M489.3,450.2H12.5v43.2h476.8V450.2z"/>
			<path class="st4" d="M489.3,445H12.5v5.1h476.8V445z"/>
			<path class="st4" d="M489.3,380.5H12.5v1h476.8V380.5z"/>
			<path class="st4" d="M489.3,311.7H12.5v1h476.8V311.7z"/>
			<path class="st4" d="M489.3,243H12.5v1h476.8V243z"/>
			<path class="st4" d="M489.3,172H12.5v1h476.8V172z"/>
			<path class="st4" d="M489.3,101H12.5v1h476.8V101z"/>
		</g>
		<path class="st6" d="M501.2,344.8h-2V333h2V344.8z M501.2,321.1h-2v-11.9h2V321.1z M501.2,297.3h-2v-11.9h2V297.3z M501.2,273.3
			h-2v-11.9h2V273.3z M490.8,260h-11.9v-2h11.9V260z M467,260h-11.9v-2H467V260z M443.1,260h-11.9v-2h11.9V260z"/>
		<path class="st6" d="M297.1,136.9h-2V125h2V136.9z M297.1,112.9h-2v-3.5h10.5v2h-8.5V112.9z M329.5,111.5h-11.9v-2h11.9V111.5z
			 M335.7,103.8h-2V91.9h2V103.8z"/>
		<path class="st6" d="M502.4,210.6h-11.9v-2h11.9V210.6z M478.5,210.6h-11.9v-2h11.9V210.6z M454.7,210.6h-11.9v-2h11.9V210.6z
			 M505.3,199.6h-2v-11.9h2V199.6z M505.3,175.7h-2v-11.9h2V175.7z M505.3,151.8h-2v-11.9h2V151.8z"/>
		<path class="st7" d="M350,401.8l2.5-13.3l-8.2-2.3c-0.1-4.1-0.9-7.9-2.3-11.6l6.7-5.4l-7.5-11.2l-7.5,4.2c-2.9-2.7-6.2-5-9.9-6.6
			l0.9-8.6l-13.3-2.5l-2.3,8.2c-4.1,0.1-7.9,0.9-11.6,2.3l-5.4-6.7l-11.2,7.5l4.2,7.5c-2.7,2.9-5,6.2-6.6,9.9l-8.6-0.9l-2.5,13.3
			l8.2,2.3c0.1,4.1,0.9,7.9,2.3,11.6l-6.7,5.4l7.5,11.2l7.5-4.2c2.9,2.7,6.2,5,9.9,6.6l-0.9,8.6l13.3,2.5l2.3-8.2
			c4.1-0.1,7.9-0.9,11.6-2.3l5.4,6.7l11.2-7.5l-4.2-7.5c2.7-2.9,5-6.2,6.5-9.9L350,401.8z M305.2,411.1
			c-13.2-2.5-21.9-15.4-19.3-28.7c2.5-13.2,15.4-21.9,28.7-19.3c13.2,2.5,21.9,15.4,19.3,28.7C331.3,405,318.4,413.6,305.2,411.1z"
			/>
		<path class="st8" d="M272.7,387.6l-5.9-1.6l1.9-10.1l0.6,0.1l-1.8,9.5l5.3,1.5L272.7,387.6z"/>
		<path class="st8" d="M295.4,427.3l-0.6-0.1l0.9-8.4c-4.2-1.6-7.6-4.7-7.7-4.7l0.4-0.4c0,0,3.5,3.2,7.7,4.7l0.2,0.1L295.4,427.3z"
			/>
		<path class="st8" d="M325.7,406.1l-0.4-0.4c14.5-12.6,6.5-28.7,6.4-28.9l0.5-0.3C332.3,376.7,340.5,393.2,325.7,406.1z"/>
		<path class="st8" d="M343.6,381c-0.8-3.5-1.8-6.3-1.9-6.3l-0.1-0.2l2.4-1.9l0.4,0.5l-2.1,1.7c0.3,0.7,1.1,3.3,1.8,6.2H343.6z"/>
		<path class="st8" d="M312,428.8l-13.8-2.6l0.9-8.6c-1.1-0.4-6-2.7-9.7-6.4l-7.5,4.2l-7.8-11.7l6.7-5.4c-0.4-1-2.1-5.6-2.3-11.3
			l-8.4-2.3l2.6-13.8l8.6,0.9c0.5-1.1,3.1-6.7,6.4-9.7l-4.2-7.5l11.7-7.8l5.4,6.7c1-0.5,5.1-2.2,11.3-2.3l2.3-8.2l13.8,2.6l-0.9,8.6
			c1.1,0.4,6.2,2.7,9.7,6.4l7.5-4.2l7.8,11.7l-6.7,5.4c0.4,1,2.2,5.5,2.3,11.3l8.2,2.3l-2.6,13.8l-8.6-0.9c-0.4,1-2.4,5.6-6.4,9.7
			l4.2,7.5L331,425l-5.4-6.7c-1,0.5-5.4,2.4-11.3,2.3L312,428.8z M298.9,425.7l12.7,2.4l2.3-8.2h0.2c6.7,0.2,11.4-2.3,11.5-2.3
			l0.2-0.1l5.4,6.6l10.8-7.2l-4.2-7.4l0.2-0.2c4.6-4.5,6.5-9.8,6.5-9.8l0.1-0.2l8.5,0.9l2.4-12.7l-8.2-2.3v-0.2
			c0-6.5-2.3-11.5-2.3-11.5l-0.1-0.2l6.6-5.4l-7.2-10.8l-7.4,4.2l-0.2-0.2c-3.8-4.1-9.8-6.5-9.8-6.5l-0.2-0.1l0.9-8.5l-12.7-2.4
			l-2.3,8.2h-0.2c-7,0-11.5,2.3-11.5,2.3l-0.2,0.1l-5.4-6.6l-10.8,7.2l4.2,7.4l-0.2,0.2c-3.6,3.1-6.4,9.8-6.5,9.8l-0.1,0.2l-8.5-0.9
			l-2.4,12.7l8.1,2.3v0.2c0.1,6.4,2.3,11.5,2.3,11.5l0.1,0.2l-6.6,5.4l7.2,10.8l7.4-4.2l0.2,0.2c4,4.2,9.8,6.5,9.8,6.5l0.2,0.1
			L298.9,425.7z"/>
		<path class="st8" d="M315.9,410.4c-13.5,1.4-25.8-8.5-27.2-22.1c-1.4-13.5,8.5-25.8,22.1-27.2c13.5-1.4,25.8,8.5,27.2,22.1
			C339.3,396.7,329.4,409,315.9,410.4z M310.8,361.7c-13.2,1.4-22.9,13.3-21.5,26.6c1.4,13.2,13.3,22.9,26.6,21.5
			c13.2-1.4,22.9-13.3,21.5-26.6C335.9,370,324,360.3,310.8,361.7z"/>
		<path class="st9" d="M394.5,330.6l1.9-10l-6.2-1.7c-0.1-3.1-0.7-6-1.7-8.8l5-4.1l-5.7-8.4l-5.6,3.2c-2.1-2-4.6-3.7-7.4-4.9
			l0.7-6.4l-10-1.9l-1.7,6.2c-3.1,0.1-6,0.7-8.8,1.7l-4.1-5l-8.4,5.7l3.2,5.6c-2,2.1-3.7,4.6-4.9,7.4l-6.4-0.7l-1.9,10l6.2,1.7
			c0.1,3.1,0.7,6,1.7,8.8l-5,4.1l5.7,8.4l5.6-3.2c2.1,2,4.6,3.7,7.4,4.9l-0.7,6.4l10,1.9l1.7-6.2c3.1-0.1,6-0.7,8.8-1.7l4.1,5
			l8.4-5.7l-3.2-5.6c2-2.1,3.7-4.6,4.9-7.4L394.5,330.6z M361,337.5c-9.9-1.9-16.4-11.5-14.5-21.5c1.9-9.9,11.5-16.4,21.5-14.5
			c9.9,1.9,16.4,11.5,14.5,21.5C380.5,332.9,370.9,339.4,361,337.5z"/>
		<path class="st8" d="M336.7,319.9l-4.4-1.2l1.4-7.5l0.4,0.1l-1.4,7.1l4,1.1V319.9z"/>
		<path class="st8" d="M353.7,349.6h-0.4l0.6-6.2c-3.2-1.2-5.7-3.5-5.8-3.6l0.3-0.3c0,0,2.6,2.3,5.8,3.5l0.2,0.1L353.7,349.6z"/>
		<path class="st8" d="M376.4,333.7l-0.3-0.3c10.9-9.5,4.9-21.5,4.8-21.6l0.4-0.2C381.3,311.7,387.5,324,376.4,333.7z"/>
		<path class="st8" d="M389.7,315c-0.6-2.5-1.4-4.7-1.4-4.7l-0.1-0.1l1.8-1.5l0.3,0.3l-1.6,1.2c0.2,0.5,0.8,2.4,1.3,4.6L389.7,315z"
			/>
		<path class="st8" d="M366.1,350.7l-10.4-2l0.7-6.4c-0.8-0.3-4.5-2-7.2-4.8l-5.6,3.2l-5.9-8.8l5-4.1c-0.3-0.8-1.6-4.2-1.7-8.5
			l-6.2-1.7l2-10.4l6.4,0.7c0.4-0.8,2.3-5,4.8-7.2l-3.2-5.6l8.8-5.9l4.1,5c0.7-0.3,3.9-1.6,8.5-1.7l1.7-6.2l10.4,2l-0.7,6.4
			c0.8,0.3,4.6,2,7.2,4.8l5.6-3.2l5.9,8.8l-5,4.1c0.3,0.8,1.7,4.2,1.7,8.5l6.2,1.7l-2,10.4l-6.4-0.7c-0.3,0.8-1.8,4.2-4.8,7.2
			l3.2,5.6l-8.8,5.9l-4.1-5c-0.7,0.4-4.1,1.8-8.5,1.7L366.1,350.7z M356.2,348.4l9.6,1.8l1.7-6.1h0.2c5,0.1,8.6-1.7,8.6-1.7l0.2-0.1
			l4,5l8-5.4l-3.1-5.6l0.1-0.1c3.4-3.4,4.9-7.3,4.9-7.3l0.1-0.2l6.3,0.7l1.8-9.6l-6.1-1.7v-0.2c0-4.9-1.7-8.6-1.7-8.7l-0.1-0.2l5-4
			l-5.4-8l-5.6,3.1l-0.1-0.1c-2.9-3.1-7.3-4.9-7.3-4.9l-0.2-0.1l0.7-6.3l-9.6-1.8l-1.7,6.1h-0.2c-5.2,0-8.6,1.7-8.7,1.7l-0.2,0.1
			l-4-5l-8,5.4l3.1,5.6l-0.1,0.1c-2.6,2.2-4.8,7.2-4.9,7.3l-0.1,0.1l-6.3-0.7l-1.8,9.6l6.1,1.7v0.2c0.1,4.8,1.7,8.6,1.7,8.7l0.1,0.2
			l-5,4l5.4,8l5.6-3.1l0.1,0.1c3,3.1,7.3,4.9,7.3,4.9l0.2,0.1L356.2,348.4z"/>
		<path class="st8" d="M368.9,337c-10.2,1-19.2-6.3-20.4-16.5c-1-10.2,6.3-19.2,16.5-20.4c10.2-1,19.2,6.3,20.4,16.5
			C386.6,326.8,379.1,335.8,368.9,337z M365.2,300.5c-9.9,1-17.1,10-16.1,19.9s10,17.1,19.9,16.1c9.9-1,17.1-10,16.1-19.9
			C384,306.7,375,299.5,365.2,300.5z"/>
		<path class="st10" d="M432.7,432.9l2.3-12l-7.4-2.1c-0.1-3.7-0.8-7.2-2.1-10.6l6-4.9l-6.8-10.2l-6.8,3.8c-2.5-2.4-5.6-4.5-9-5.9
			l0.8-7.7l-12-2.3l-2.1,7.4c-3.7,0.1-7.2,0.8-10.6,2.1l-4.9-6l-10.2,6.8l3.8,6.8c-2.4,2.5-4.5,5.6-5.9,9l-7.7-0.8l-2.3,12l7.4,2.1
			c0.1,3.7,0.8,7.2,2.1,10.6l-6,4.9L368,446l6.8-3.8c2.5,2.4,5.6,4.5,9,5.9l-0.8,7.7l12,2.3l2.1-7.4c3.7-0.1,7.2-0.8,10.6-2.1l4.9,6
			l10.2-6.8L419,441c2.4-2.5,4.5-5.6,5.9-9L432.7,432.9z M392.1,441.3c-12-2.3-19.9-14-17.5-26c2.3-12,14-19.9,26-17.5
			c12,2.3,19.9,14,17.5,26C415.7,435.8,404.1,443.7,392.1,441.3z"/>
		<path class="st8" d="M362.5,420l-5.3-1.5l1.7-9.1l0.5,0.1l-1.6,8.6l4.9,1.4L362.5,420z"/>
		<path class="st8" d="M383.2,456l-0.5-0.1l0.8-7.5c-3.9-1.4-6.9-4.3-7-4.3l0.4-0.4c0,0,3.2,2.9,7,4.3l0.2,0.1L383.2,456z"/>
		<path class="st8" d="M410.7,436.9l-0.4-0.4c13.1-11.4,5.9-26.1,5.8-26.2l0.5-0.2C416.7,410.1,424.1,425.1,410.7,436.9z"/>
		<path class="st8" d="M426.9,414c-0.7-3.2-1.7-5.7-1.7-5.7L425,408l2.2-1.8l0.3,0.4l-1.9,1.5c0.2,0.6,1,3,1.6,5.6L426.9,414z"/>
		<path class="st8" d="M398.3,457.4l-12.5-2.4l0.8-7.7c-1-0.4-5.5-2.4-8.8-5.8l-6.8,3.8l-7.1-10.6l6.1-4.9
			c-0.4-0.9-1.9-5.1-2.1-10.3l-7.5-2.1l2.4-12.5l7.7,0.8c0.5-1,2.9-6.1,5.8-8.8l-3.8-6.8l10.6-7.1l4.9,6.1c0.9-0.4,4.7-2,10.3-2
			l2.1-7.5l12.5,2.4l-0.8,7.7c1,0.4,5.6,2.4,8.8,5.8l6.8-3.8l7.1,10.6l-6.1,4.9c0.4,0.9,2,5,2.1,10.3l7.5,2.1l-2.4,12.5l-7.7-0.8
			c-0.4,0.9-2.1,5.1-5.8,8.8l3.8,6.8l-10.6,7.1l-4.9-6.1c-0.9,0.4-4.9,2.1-10.3,2.1L398.3,457.4z M386.3,454.6l11.6,2.2l2.1-7.4h0.2
			c6.1,0.1,10.4-2.1,10.4-2.1l0.2-0.1l4.9,6l9.8-6.6l-3.8-6.7l0.1-0.1c4.1-4.1,5.9-8.9,5.9-8.9l0.1-0.2l7.7,0.8l2.2-11.6l-7.4-2.1
			v-0.2c0-5.9-2.1-10.4-2.1-10.5l-0.1-0.2l6-4.9l-6.6-9.8l-6.7,3.8l-0.1-0.1c-3.5-3.7-8.9-5.9-8.9-5.9l-0.2-0.1l0.8-7.7l-11.6-2.2
			l-2.1,7.4h-0.2c-6.3,0-10.4,2.1-10.5,2.1l-0.1,0.1l-4.9-6l-9.8,6.6l3.8,6.8l-0.2,0.1c-3.3,2.7-5.9,8.9-5.9,8.9l-0.1,0.2l-7.7-0.8
			l-2.2,11.6l7.4,2.1v0.2c0.1,5.8,2.1,10.4,2.1,10.5l0.1,0.2l-6,4.9l6.6,9.8l6.7-3.8l0.1,0.1c3.6,3.8,8.9,5.9,8.9,5.9l0.2,0.1
			L386.3,454.6z"/>
		<path class="st8" d="M401.7,440.7c-12.3,1.3-23.4-7.6-24.6-20c-1.3-12.3,7.6-23.4,20-24.6c12.3-1.3,23.4,7.6,24.6,20
			C423,428.3,414,439.4,401.7,440.7z M397.1,396.5c-12,1.2-20.8,12-19.6,24.1c1.2,12,12,20.8,24.1,19.6c12-1.2,20.8-12,19.6-24.1
			C420,404.1,409.2,395.3,397.1,396.5z"/>
		<path class="st8" d="M487.3,493.2H66.8v1h420.5V493.2z"/>
		<path class="st4" d="M549.4,424.6h-108c-2.6,0-4.8-2.1-4.8-4.8v-91.4c0-1.8,1.5-3.4,3.4-3.4h111c1.8,0,3.4,1.5,3.4,3.4v91.4
			C554.2,422.5,552,424.6,549.4,424.6z"/>
		<path class="st10" d="M549.4,425.2h-108c-3,0-5.3-2.4-5.3-5.3v-91.4c0-2.1,1.7-3.8,3.8-3.8h111c2.1,0,3.8,1.7,3.8,3.8v91.4
			C554.7,422.7,552.3,425.2,549.4,425.2z M439.8,325.5c-1.5,0-2.9,1.2-2.9,2.9v91.4c0,2.4,1.9,4.4,4.4,4.4h108
			c2.4,0,4.4-1.9,4.4-4.4v-91.4c0-1.5-1.2-2.9-2.9-2.9L439.8,325.5L439.8,325.5z"/>
		<path class="st4" d="M550.8,325H440c-1.8,0-3.4,1.5-3.4,3.4v4h117.6v-3.9C554.2,326.5,552.6,325,550.8,325z"/>
		<path class="st10" d="M554.7,332.8H436.1v-4.4c0-2.1,1.7-3.9,3.9-3.9h110.9c2.1,0,3.9,1.7,3.9,3.9v4.4H554.7z M437.1,331.8h116.6
			v-3.4c0-1.6-1.3-2.9-2.9-2.9H440c-1.6,0-2.9,1.3-2.9,2.9v3.4H437.1z"/>
		<path d="M542.2,328c-0.4,0-0.8,0.4-0.8,0.8s0.4,0.8,0.8,0.8s0.8-0.4,0.8-0.8S542.6,328,542.2,328z"/>
		
			<linearGradient id="SVGID_00000096018073990205782000000016258353514415604143_" gradientUnits="userSpaceOnUse" x1="544.7587" y1="546.8221" x2="546.3698" y2="546.8221" gradientTransform="matrix(1 0 0 1 0 -218)">
			<stop  offset="0" style="stop-color:#FF4428"/>
			<stop  offset="1" style="stop-color:#FF7E3B"/>
		</linearGradient>
		<path style="fill:url(#SVGID_00000096018073990205782000000016258353514415604143_);" d="M545.5,328c-0.4,0-0.8,0.4-0.8,0.8
			s0.4,0.8,0.8,0.8c0.4,0,0.8-0.4,0.8-0.8S546,328,545.5,328z"/>
		
			<linearGradient id="SVGID_00000031185831396910078700000011744393330927536561_" gradientUnits="userSpaceOnUse" x1="548.1558" y1="546.8221" x2="549.7659" y2="546.8221" gradientTransform="matrix(1 0 0 1 0 -218)">
			<stop  offset="0" style="stop-color:#001B8D"/>
			<stop  offset="1" style="stop-color:#0073D5"/>
		</linearGradient>
		<path style="fill:url(#SVGID_00000031185831396910078700000011744393330927536561_);" d="M549,328c-0.4,0-0.8,0.4-0.8,0.8
			s0.4,0.8,0.8,0.8c0.4,0,0.8-0.4,0.8-0.8C549.8,328.4,549.4,328,549,328z"/>
		<path class="st7" d="M465.4,418h-2.9c-3,0-5.3-2.3-5.3-5.3v-12c0-3,2.3-5.3,5.3-5.3h2.9c3,0,5.3,2.3,5.3,5.3v12
			C470.7,415.6,468.2,418,465.4,418z"/>
		<path class="st10" d="M485,418h-2.9c-3,0-5.3-2.3-5.3-5.3v-28c0-3,2.3-5.3,5.3-5.3h2.9c3,0,5.3,2.3,5.3,5.3v28
			C490.3,415.6,488,418,485,418z"/>
		<path class="st7" d="M506.9,418h-2.9c-3,0-5.3-2.3-5.3-5.3v-39.8c0-3,2.3-5.3,5.3-5.3h2.9c3,0,5.3,2.3,5.3,5.3v39.8
			C512.1,415.6,509.8,418,506.9,418z"/>
		<path class="st10" d="M528.3,418h-2.9c-3,0-5.3-2.3-5.3-5.3V359c0-3,2.3-5.3,5.3-5.3h2.9c3,0,5.3,2.3,5.3,5.3v53.7
			C533.5,415.6,531.2,418,528.3,418z"/>
		<path class="st7" d="M511.4,343l7.2,4.1l0.5-8.9L511.4,343z"/>
		<path class="st7" d="M458.8,381.1c-0.4,0-0.7-0.2-0.8-0.5c-0.1-0.4,0.1-0.8,0.6-0.9c0.4-0.1,37.3-8.6,56.9-37
			c0.2-0.3,0.8-0.4,1.2-0.3c0.4,0.2,0.6,0.6,0.4,1c-20.1,28.9-57.6,37.5-58,37.6C459,381.1,458.9,381.1,458.8,381.1z"/>
		<path class="st6" d="M178.9,303.9c-31.9,0-57.8-26-57.8-57.8s26-57.8,57.8-57.8c0.4,0,0.7,0,1.1,0c2.5,0,5,0.3,7.4,0.6
			c2.3-17.5,10.7-33.6,23.8-45.7c14.2-13,32.5-20.3,51.7-20.3c1.6,0,3.2,0,4.7,0.1h0.1c23.7,1.4,44.9,13.6,57.9,32.8
			c5.5-2.7,11.4-4.5,17.5-5.3c2.3-0.3,4.8-0.5,7.2-0.5c4.6,0,9.1,0.5,13.3,1.6h0.1l1.6,0.4c21.5,6,37.3,24.3,40.4,46
			c28.6,0.6,51.6,24.1,51.6,52.9c0,27.3-20.5,49.9-47.7,52.5l-1.2,0.1L178.9,303.9z M178.9,213.1c-18.2,0-33,14.8-33,33
			s14.8,33,33,33l229.2-0.2c14.2-1.6,24.7-13.5,24.7-27.8c0-15.5-12.5-28-28-28c-2.5,0-5.1,0.4-7.6,1.1c-8.7,2.4-16.9-4.7-15.7-13.6
			c0.2-1.7,0.3-3.1,0.3-4.3c0-13.8-9.3-26.2-22.5-30l-0.3-0.1c-4-1.1-8.4-1.4-12.4-0.9c-6.2,0.8-12,3.5-16.7,7.6
			c-6.3,5.6-16.3,3.5-19.7-4.3c-7.7-17.6-24.3-29.3-43.5-30.7h-0.4c-1-0.1-2.1-0.1-3.2-0.1c-26.6,0-49.1,20.7-51.2,47.1
			c-0.1,1.4-0.2,2.9-0.2,4.3c0,1.7,0.1,3.5,0.3,5.3c1,9.8-9.3,16.8-18,12.3c-4.5-2.3-9.3-3.6-14.3-3.7L178.9,213.1z"/>
		<path class="st6" d="M186.7,218.1h13.6v-5.7l-11-2.7l-2.3,6.2L186.7,218.1z"/>
		<path class="st6" d="M307.3,186.1h14.8l1.3-4.9l-11.8-7.5l-5,6.2L307.3,186.1z"/>
		<path class="st8" d="M379.6,224.6h14.6l2.1-8.9l-20-0.8L379.6,224.6z"/>
		<path class="st7" d="M165.3,303.9c-31.9,0-57.8-26-57.8-57.8s26-57.8,57.8-57.8c0.4,0,0.7,0,1.1,0c2.5,0,5,0.3,7.4,0.6
			c2.3-17.5,10.7-33.6,23.8-45.7c14.2-13,32.5-20.3,51.7-20.3c1.6,0,3.2,0,4.7,0.1h0.1c23.7,1.4,44.9,13.6,57.9,32.8
			c5.5-2.7,11.4-4.5,17.5-5.3c2.3-0.3,4.8-0.5,7.2-0.5c4.6,0,9.1,0.5,13.3,1.6h0.1l1.6,0.4c21.5,6,37.3,24.3,40.4,46
			c28.6,0.6,51.6,24.1,51.6,52.9c0,27.3-20.5,49.9-47.7,52.5l-1.2,0.1L165.3,303.9z M165.3,213.1c-18.2,0-33,14.8-33,33
			s14.8,33,33,33l229.2-0.2c14.2-1.6,24.7-13.5,24.7-27.8c0-15.5-12.5-28-28-28c-2.5,0-5.1,0.4-7.6,1.1c-8.7,2.4-16.9-4.7-15.7-13.6
			c0.2-1.7,0.3-3.1,0.3-4.3c0-13.8-9.3-26.2-22.5-30l-0.3-0.1c-4-1.1-8.4-1.4-12.4-0.9c-6.2,0.8-12,3.5-16.7,7.6
			c-6.3,5.6-16.3,3.5-19.7-4.3c-7.7-17.6-24.3-29.3-43.5-30.7h-0.4c-1-0.1-2.1-0.1-3.2-0.1c-26.6,0-49.1,20.7-51.2,47.1
			c-0.1,1.4-0.2,2.9-0.2,4.3c0,1.7,0.1,3.5,0.3,5.3c1,9.8-9.3,16.8-18,12.3c-4.5-2.3-9.3-3.6-14.3-3.7L165.3,213.1z"/>
		<path class="st6" d="M307.5,279.3H226c-2.4,0-4.1-1.9-3.8-4.4l7.8-59.7c0.3-2.4,2.5-4.4,5-4.4h81.6c2.4,0,4.1,1.9,3.8,4.4
			l-7.8,59.7C312.1,277.4,309.9,279.3,307.5,279.3z"/>
		
			<linearGradient id="SVGID_00000176028577209915197640000004322015967592691082_" gradientUnits="userSpaceOnUse" x1="219.4102" y1="461.131" x2="317.6492" y2="461.131" gradientTransform="matrix(1 0 0 1 0 -218)">
			<stop  offset="0" style="stop-color:#E9E8E3"/>
			<stop  offset="1" style="stop-color:#A8AEB7"/>
		</linearGradient>
		<path style="fill:url(#SVGID_00000176028577209915197640000004322015967592691082_);" d="M304.8,275.3h-81.6
			c-2.4,0-4.1-1.9-3.8-4.4l7.8-55.5c0.3-2.4,2.5-4.4,5-4.4h81.6c2.4,0,4.1,1.9,3.8,4.4l-7.9,56.1
			C309.4,273.9,307.2,275.3,304.8,275.3z"/>
		<path class="st14" d="M301.9,272.9h-75.2c-2.2,0-3.8-1.8-3.5-4.1l7.2-51.5c0.3-2.2,2.3-4.1,4.6-4.1h75.2c2.2,0,3.8,1.8,3.5,4.1
			l-7.2,51.5C306.2,271.1,304.2,272.9,301.9,272.9z"/>
		<path class="st15" d="M301.9,273h-75.2c-1.1,0-2.1-0.4-2.7-1.2c-0.7-0.8-1-1.8-0.8-3l7.2-51.5c0.3-2.2,2.4-4.2,4.7-4.2h75.2
			c1.1,0,2.1,0.4,2.7,1.2c0.7,0.8,1,1.8,0.8,3l-7.2,51.5C306.3,271.1,304.2,273,301.9,273z M235.1,213.4c-2.1,0-4.2,1.7-4.5,4
			l-7.2,51.5c-0.1,1,0.1,2,0.8,2.7c0.6,0.7,1.5,1.1,2.5,1.1h75.2c2.1,0,4.2-1.7,4.5-4l7.2-51.5c0.1-1-0.1-2-0.8-2.7
			c-0.6-0.7-1.5-1.1-2.5-1.1L235.1,213.4L235.1,213.4z"/>
		
			<linearGradient id="SVGID_00000072995539735257441970000015876848281029180325_" gradientUnits="userSpaceOnUse" x1="194.4798" y1="489.7456" x2="203.7258" y2="489.7456" gradientTransform="matrix(1 0 0 1 0 -218)">
			<stop  offset="0" style="stop-color:#001B8D"/>
			<stop  offset="1" style="stop-color:#0073D5"/>
		</linearGradient>
		<path style="fill:url(#SVGID_00000072995539735257441970000015876848281029180325_);" d="M203.8,271h-9.3v1.5h9.3V271z"/>
		
			<linearGradient id="SVGID_00000140722462539119109100000013346339216837961896_" gradientUnits="userSpaceOnUse" x1="205.3558" y1="489.7456" x2="214.6018" y2="489.7456" gradientTransform="matrix(1 0 0 1 0 -218)">
			<stop  offset="0" style="stop-color:#001B8D"/>
			<stop  offset="1" style="stop-color:#0073D5"/>
		</linearGradient>
		<path style="fill:url(#SVGID_00000140722462539119109100000013346339216837961896_);" d="M214.6,271h-9.3v1.5h9.3V271z"/>
		
			<linearGradient id="SVGID_00000051362228838930000090000002828743779413940146_" gradientUnits="userSpaceOnUse" x1="216.2319" y1="489.7456" x2="225.4768" y2="489.7456" gradientTransform="matrix(1 0 0 1 0 -218)">
			<stop  offset="0" style="stop-color:#001B8D"/>
			<stop  offset="1" style="stop-color:#0073D5"/>
		</linearGradient>
		<path style="fill:url(#SVGID_00000051362228838930000090000002828743779413940146_);" d="M225.5,271h-9.3v1.5h9.3V271z"/>
		
			<linearGradient id="SVGID_00000170260152302370352520000016328308410011751356_" gradientUnits="userSpaceOnUse" x1="227.0843" y1="489.7456" x2="257.7356" y2="489.7456" gradientTransform="matrix(1 0 0 1 0 -218)">
			<stop  offset="0" style="stop-color:#001B8D"/>
			<stop  offset="1" style="stop-color:#0073D5"/>
		</linearGradient>
		<path style="fill:url(#SVGID_00000170260152302370352520000016328308410011751356_);" d="M257.7,271h-30.7v1.5h30.7V271z"/>
		
			<linearGradient id="SVGID_00000013872863735497983670000014947568543327536008_" gradientUnits="userSpaceOnUse" x1="259.735" y1="489.7456" x2="268.981" y2="489.7456" gradientTransform="matrix(1 0 0 1 0 -218)">
			<stop  offset="0" style="stop-color:#001B8D"/>
			<stop  offset="1" style="stop-color:#0073D5"/>
		</linearGradient>
		<path style="fill:url(#SVGID_00000013872863735497983670000014947568543327536008_);" d="M268.9,271h-9.3v1.5h9.3V271z"/>
		
			<linearGradient id="SVGID_00000154418249690184977120000005575529556732492930_" gradientUnits="userSpaceOnUse" x1="270.6111" y1="489.7456" x2="279.8571" y2="489.7456" gradientTransform="matrix(1 0 0 1 0 -218)">
			<stop  offset="0" style="stop-color:#001B8D"/>
			<stop  offset="1" style="stop-color:#0073D5"/>
		</linearGradient>
		<path style="fill:url(#SVGID_00000154418249690184977120000005575529556732492930_);" d="M279.8,271h-9.3v1.5h9.3V271z"/>
		
			<linearGradient id="SVGID_00000138538070629474922630000009396038752138152868_" gradientUnits="userSpaceOnUse" x1="281.4872" y1="489.7456" x2="290.7332" y2="489.7456" gradientTransform="matrix(1 0 0 1 0 -218)">
			<stop  offset="0" style="stop-color:#001B8D"/>
			<stop  offset="1" style="stop-color:#0073D5"/>
		</linearGradient>
		<path style="fill:url(#SVGID_00000138538070629474922630000009396038752138152868_);" d="M290.7,271h-9.3v1.5h9.3V271z"/>
		
			<linearGradient id="SVGID_00000023272633619688547070000006025949810047533729_" gradientUnits="userSpaceOnUse" x1="292.3583" y1="489.7456" x2="301.6031" y2="489.7456" gradientTransform="matrix(1 0 0 1 0 -218)">
			<stop  offset="0" style="stop-color:#001B8D"/>
			<stop  offset="1" style="stop-color:#0073D5"/>
		</linearGradient>
		<path style="fill:url(#SVGID_00000023272633619688547070000006025949810047533729_);" d="M301.6,271h-9.3v1.5h9.3V271z"/>
		<path class="st6" d="M304.7,279.3H193.9c-3.1,0-5.5-0.4-5.5-3.5v-3.4h121.8v3.4C310.2,279,307.7,279.3,304.7,279.3z"/>
		<path class="st24" d="M305.9,276H188.6v-3.5h120.9C309.4,274.4,307.8,276,305.9,276z"/>
		<path class="st25" d="M112.3,362.7l-44.8-6.6c0,0-0.7,19.7-0.2,36.4c-2.3,1.3-4.7,3.2-7,5.4c-4.5,4.4-11.4,15.7-16.3,27.5
			c-3,7-6.6,8.1-6.6,8.1s6.9,13.3,9,20.5c0,0,47.2-38,53.7-48.1c0.1-0.2,0.2-0.3,0.3-0.5c0.2-0.4,0.5-0.7,0.6-1.1
			C105.9,393.5,112.3,362.7,112.3,362.7z"/>
		<path class="st25" d="M150.3,359.4l-45.2,1.2c0,0,3.6,25.7,7.5,42.7c0,0.1,0,0.1,0,0.2c-1,6.2,1.1,35.3,5.3,47.5
			c2.5,7.2,5.3,21,5.3,21s11.2-7.5,17.5-3.6c0,0,6-49.2,5.7-67c0.1-0.3,0.1-0.6,0.1-1C147,389.5,150.3,359.4,150.3,359.4z"/>
		
			<linearGradient id="SVGID_00000109730334280637643170000010697207967547486646_" gradientUnits="userSpaceOnUse" x1="118.9183" y1="697.0632" x2="183.5971" y2="697.0632" gradientTransform="matrix(1 0 0 1 0 -218)">
			<stop  offset="0" style="stop-color:#001B8D"/>
			<stop  offset="1" style="stop-color:#0073D5"/>
		</linearGradient>
		<path style="fill:url(#SVGID_00000109730334280637643170000010697207967547486646_);" d="M143.4,464.2h-22.8c0,0,1.9,9.1-0.1,15.9
			c-2.1,6.8-2.5,12.9,1.9,12.9c4.6,0,23.1,0.4,31.7,0.8c8.7,0.4,29.4,0,29.4,0s-3.9-9.2-14.8-9.2
			C159.6,484.6,148.2,476.5,143.4,464.2z"/>
		<path class="st8" d="M133.2,490.8h-0.8c0-11.3-10.9-12.5-11.4-12.5l0.1-0.8C121.2,477.4,133.2,478.7,133.2,490.8z"/>
		<path class="st8" d="M131,483.6l-0.7-0.4c0.1-0.1,6.4-10,18.7-10.1v0.8C137.1,474,131.1,483.5,131,483.6z"/>
		<path class="st8" d="M132.9,487.1l-0.7-0.4c0.1-0.1,6.7-10.7,19.7-10.8v0.8C139.4,476.8,133,487,132.9,487.1z"/>
		<path class="st8" d="M163.1,490.4h-0.8c0-6.1,5.5-6.6,5.6-6.6l0.1,0.8C167.6,484.6,163.1,485.1,163.1,490.4z"/>
		<path class="st4" d="M118.9,489.9c0.4,2.2,1.7,3,3.5,3c4.6,0,23.1,0.4,31.7,0.8c8.7,0.4,29.4,0,29.4,0s-0.6-1.4-2-3.2L118.9,489.9
			z"/>
		<path class="st8" d="M165.6,494.2c-4.4,0-8.6,0-11.5-0.2c-8.6-0.4-27.2-0.8-31.7-0.8c-2.1,0-3.4-1.1-3.8-3.3l-0.1-0.4l63.1,0.7
			l0.1,0.1c1.4,1.7,2,3.2,2,3.3l0.2,0.4h-0.5C183.4,494.1,174.2,494.2,165.6,494.2z M119.3,490.2c0.4,1.6,1.3,2.3,3.1,2.3
			c4.6,0,23.1,0.4,31.8,0.8c7.7,0.4,25.8,0.1,28.9,0c-0.3-0.5-0.8-1.4-1.6-2.5L119.3,490.2z"/>
		
			<linearGradient id="SVGID_00000030488270029098570890000001310322361679012228_" gradientUnits="userSpaceOnUse" x1="15.7404" y1="680.2214" x2="52.3732" y2="680.2214" gradientTransform="matrix(1 0 0 1 0 -218)">
			<stop  offset="0" style="stop-color:#001B8D"/>
			<stop  offset="1" style="stop-color:#0073D5"/>
		</linearGradient>
		<path style="fill:url(#SVGID_00000030488270029098570890000001310322361679012228_);" d="M52.1,450.9c-5.6,4.2-9,8.6-13,20.1
			c-1.4,4-3.2,7.8-2.2,12.3c0.8,3.9,3.9,7.2,6.6,9.1c0.9,0.6,0.9,1.5-0.2,1.5c-3.9,0-9.6-0.1-13.3-0.1c-6.3,0-13.7-3.6-11.6-12.6
			c2-9.1,0.6-15.9-1.8-25.8c-2.4-9.9,0.9-16.7,11.8-18.4c3.9-0.6,7-2.1,9.4-3.7c1.4-0.9,2.5-1.9,3.5-2.7
			C41.1,430.6,54.3,437.9,52.1,450.9z"/>
		<path class="st4" d="M34.1,480.6c-1.4-7.8-0.4-16.1,0-19.9c0.5-4.4,2.7-10.6,0.5-16.6c-2.6-7.2-6.9-7-7.3-6.9
			c-9.9,1.6-13.2,8.8-10.8,18.3c2.4,9.9,3.9,16.7,1.8,25.8c-2,9.1,5.4,12.6,11.6,12.6c2.9,0,7.4,0,10.9,0c1.1,0,1.6-1.4,0.7-2
			C38.9,489.8,35.1,486.4,34.1,480.6z"/>
		<path class="st8" d="M40.8,494.3c-3.5,0-8,0-10.9,0c-4.4,0-8.2-1.6-10.4-4.3c-1.8-2.3-2.3-5.2-1.5-8.8c2-8.9,0.7-15.6-1.8-25.7
			c-1.3-5.3-0.9-9.8,1.2-13c1.9-3,5.3-4.9,9.9-5.6c0,0,4.8-0.7,7.6,7.1c1.7,4.6,0.8,9.5,0.1,13.3c-0.2,1.2-0.4,2.4-0.6,3.5v0.4
			c-0.4,3.9-1.3,11.8,0,19.3c0.7,4.3,3.2,7.9,7.2,11.1c0.5,0.4,0.7,1,0.5,1.6C42,493.9,41.4,494.3,40.8,494.3z M27.6,437.5
			c-0.1,0-0.2,0-0.2,0c-4.4,0.7-7.5,2.5-9.4,5.4c-2,3.1-2.4,7.4-1.1,12.5c2.5,10.1,3.9,16.9,1.8,26c-0.7,3.4-0.3,6.1,1.4,8.2
			c2,2.5,5.7,4.1,9.9,4.1c2.9,0,7.4,0,10.9,0l0,0c0.4,0,0.7-0.3,0.8-0.6c0.1-0.3,0.1-0.6-0.3-0.9c-4.3-3.3-6.7-7-7.5-11.5
			c-1.3-7.6-0.5-15.7,0-19.6v-0.4c0.1-1,0.3-2.2,0.6-3.5c0.7-3.8,1.6-8.6-0.1-12.9C32,437.9,28.4,437.5,27.6,437.5z"/>
		<path class="st28" d="M31.7,480.6c-1.4-7.8-0.4-16.1,0-19.9c0.5-4.4,2.7-10.6,0.5-16.6c-2.6-7.2-6.9-7-7.3-6.9
			c-9.9,1.6-13.2,8.8-10.8,18.3c2.4,9.9,3.9,16.7,1.8,25.8c-2,9.1,5.4,12.6,11.6,12.6c3.2,0,8.5,0,12,0c0.8,0,1.1-1,0.5-1.4
			C37.3,490.5,32.8,487,31.7,480.6z"/>
		<path class="st8" d="M39.4,494.2c-3.6,0-8.8,0-12,0c-4.4,0-8.2-1.6-10.4-4.3c-1.8-2.3-2.3-5.2-1.5-8.8c2-8.9,0.7-15.6-1.8-25.7
			c-1.3-5.3-0.9-9.8,1.2-13c1.9-3,5.3-4.9,9.9-5.6c0,0,4.8-0.7,7.6,7.1c1.7,4.6,0.8,9.5,0.1,13.3c-0.2,1.2-0.4,2.4-0.6,3.5v0.4
			c-0.4,3.9-1.3,11.8,0,19.3c1,6,5.1,9.6,8,11.7c0.4,0.3,0.5,0.8,0.4,1.2C40.3,493.9,39.9,494.2,39.4,494.2z M25.1,437.5
			c-0.1,0-0.2,0-0.2,0c-4.4,0.7-7.5,2.5-9.4,5.4c-2,3.1-2.4,7.4-1.1,12.5c2.5,10.1,3.9,16.9,1.8,26c-0.7,3.4-0.3,6.1,1.4,8.2
			c2,2.5,5.7,4.1,9.9,4.1c3.2,0,8.5,0,12,0c0.3,0,0.4-0.2,0.4-0.3c0-0.2,0-0.4-0.2-0.5c-3.1-2.2-7.2-5.9-8.4-12.1
			c-1.3-7.6-0.5-15.7,0-19.6v-0.4c0.1-1,0.3-2.2,0.6-3.5c0.7-3.8,1.6-8.6,0-12.9C29.5,437.9,26,437.5,25.1,437.5z"/>
		<path class="st4" d="M16,449.1c0,5.1,3.3,9.3,7.2,9.3s7.2-4.2,7.2-9.3s-3.3-9.3-7.2-9.3S16,444,16,449.1z"/>
		<path class="st8" d="M35.4,457.3l-0.6-0.5c6.7-8.2,4.9-14.7,3.8-17c-1.2-2.6-3.3-4.2-4.6-4.2v-0.8c1.8,0,4.1,1.9,5.4,4.6
			C40.4,442,42.5,448.8,35.4,457.3z"/>
		<path class="st8" d="M41.6,465.6l-0.8-0.3c2.3-7.1-3.8-10-4.1-10.1l0.3-0.8C37.2,454.5,44.2,457.6,41.6,465.6z"/>
		<path class="st8" d="M44.2,460.4l-0.8-0.3c2.3-7.1-3.8-10-4.1-10.1l0.3-0.8C39.7,449.3,46.8,452.4,44.2,460.4z"/>
		<path class="st25" d="M145.7,164.4L145.7,164.4c-0.6-1.7,2.7-22.5,8-24c2.2-0.6,11.6,0,13.6,0c8,0,5.9,10.1,5.6,16.8
			c-0.4,7.5-3.8,18.8-9.7,19c-0.7,0-1.8-0.3-3.3-0.8l-2.9,8.7c0,0-12.5,3.2-17.8-5.3L145.7,164.4z"/>
		<path class="st8" d="M217.2,224.3c0,0,8.8,5.2,7.5,9.1c-1.2,3.9-5.3-1.7-5.3-1.7s2.5,4.1,1.2,4.8c-1.3,0.8-4.4-0.4-5.9-2.9
			c-1.5-2.4-6.3-6.3-5.2-7.2C210.7,225.5,212.3,222.4,217.2,224.3z"/>
		<path class="st25" d="M154.6,216.5c0,0,8.4,19.6,12.6,30.3c6.2-2,16.7-6.9,22.8-9l0,0c0,0,1.6-0.4,8.8-9.2
			c7-8.8,15.7-9.6,24.2-6.8c8.6,2.7,4.4,4.1,2.1,4.2c-2.2,0.1-13.6-2-14.7,0.8c0,0,0.3,2.7,4.1,2c3.8-0.6,7-1.7,9.2-0.1
			c2.1,1.6-0.4,2.2-1.9,3c-1.5,0.7-5.9,1.8-7.7,3.1c-1.7,1.2-5.4,6.4-9.7,6.9c0,0-5.6,3.7-6.9,5c0,0-0.1,0.1-0.2,0.1l-31.8,29.3
			c-2.5,2-13.4,1.4-16.4,0.1l0,0c-0.5-0.2-0.9-0.3-1.4-0.6c-10-5.8-27-27.3-33.2-46.5C108.2,209.9,143,194.7,154.6,216.5z"/>
		
			<linearGradient id="SVGID_00000085235296904763711660000011486104110163853208_" gradientUnits="userSpaceOnUse" x1="104.0648" y1="436.5519" x2="160.1046" y2="436.5519" gradientTransform="matrix(1 0 0 1 0 -218)">
			<stop  offset="0" style="stop-color:#FF4428"/>
			<stop  offset="1" style="stop-color:#FF7E3B"/>
		</linearGradient>
		<path style="fill:url(#SVGID_00000085235296904763711660000011486104110163853208_);" d="M117.5,182.3c-6.3,1.6-13.1,6-13.4,22
			c-0.2,16,4,30.8,16,51.1c0,0,35.4-5,40.1-27.1c0,0-10.3-23.7-17.7-34.7C134.9,182.6,124.4,180.5,117.5,182.3z"/>
		<path class="st8" d="M121.2,229.5c-4.8-1.6-12.3-5.8-15-16.6l0.9-0.2c3.7,15.6,18,16.8,18.1,16.8l-0.1,1
			C125.3,230.5,123.5,230.2,121.2,229.5z"/>
		<path class="st8" d="M148.5,243.9l0.6,0.8c10.1-7.1,11.5-16,11.5-16.4v-0.1l-4.3-9.8l-0.9,0.4l4.2,9.5
			C159.4,229.4,157.5,237.5,148.5,243.9z"/>
		<path class="st30" d="M46.3,297.9c-1.1,10.1,6,75.2,12.3,84.8c4.6,6.9,48.7,5,48.7-0.9c0.2-18.5,3.3-80,1-90.6
			C106.3,280.9,49.6,267.6,46.3,297.9z"/>
		<path d="M67.4,380l-0.6-0.6c9.1-8.9,21.9-2.2,22-2.1l-0.4,0.8C88.2,378,76.1,371.7,67.4,380z"/>
		<path d="M112.3,276c-0.5-6.9-24.6-18.5-43-16.8l-5.3,64.5c1.6,1.8,6.7,9.6,7.6,11.6c7.2,16,13.8,27.1,30.3,31.5
			C106.6,335,112.8,284.2,112.3,276z"/>
		<path class="st31" d="M66.9,288.2c1.5,10,33.4,92.6,42.1,100.4c6.1,5.5,26.1-10.3,45.9-10.2c6.9,0-24.7-102.6-29.5-112.4
			C120.7,256.5,62.4,258,66.9,288.2z"/>
		<path class="st32" d="M170.7,196.6c9.2,13.3,5.6,34.4-7.9,67.4c-13.6,33-9.6,41.6-16.9,48.6c0,0-60.5,32.6-105.5-13.6
			c0,0,5.8-8.6,27.5-47.2s26.5-49.7,38.9-63c12.4-13.3,39-14.9,47-8.9C160.8,185.1,163.5,186.4,170.7,196.6z"/>
		<path class="st25" d="M179.1,264.9c5.2-3.8,12.8-7.5,20.3-11.3c5-2.9,21.1-11.6,21.1-11.7c0,0,4.1-3.1,11.8-10.3
			c7.1-6.6,9.8-5.1,11.7-4.6c2.3,0.7,10.2,6.6,15.6,11.4c0.8,0.8-0.5,2.4-1.6,2.1c-4.4-1-11.4-6.6-11.4-6.6s5.3,6.5,4.6,7.7
			c-0.4,0.7-3.5,3.1-5.9,5c-1.8,1.3-3,0.9-4.7-0.5c-2.1-1.8-3.4-3-3.7-3.1c-1.7-0.9-3.5,0.8-4.3,4c-1.3,5.3-6.3,5.4-7.4,5.4l0,0
			c-6.4,8.1-19.8,28.1-29.3,35.9C176.9,303.8,167.9,273,179.1,264.9z"/>
		<path class="st8" d="M246,246l-7-8.1C239,237.9,243.8,242.8,246,246z"/>
		<path class="st8" d="M248.7,244l-7.5-10.3C241.1,233.7,246.7,240.5,248.7,244z"/>
		<path class="st25" d="M189.5,237.9c0,0,7.4,24.3,7.9,29.2c1,10.7-9.6,29.6-17.6,23.3c-8-6.2-23.8-28.5-27-46
			C149.7,226.8,181.9,217.4,189.5,237.9z"/>
		<path class="st33" d="M157.3,190.7c-5.8,0.7-12.2,3.8-14.3,17.7c-2,14,3.6,40.3,11.7,59.5c0,0,31.9,0,41.4-20.3
			c0,0-13.1-33.7-18.4-44.2C172.6,193,163.6,189.9,157.3,190.7z"/>
		<path class="st8" d="M162.3,246.7c-0.1,0-13.1-3-14.7-17.6l0.8-0.1c1.4,14.1,13.8,16.8,14,16.8L162.3,246.7z"/>
		<path class="st25" d="M179.7,289.7c0,0,3.5,3.5,7.6,2.4c4.2-1,12-12.9,12-12.9l2.6-11.4l-6.4,0.7l-9.3-0.1l-7.3,8.4L179.7,289.7z"
			/>
		<path d="M122.6,382.9c-5.4-6-14.5-3.6-14.6-3.6l-0.4,0.1l-15.6-35.2l0.8-0.4l15.3,34.5c1.8-0.4,10-1.8,15.1,4L122.6,382.9z"/>
		<path class="st8" d="M89,284.7c-9.6-4.3-13.2-12.1-13.2-12.3l0.8-0.3c0.1,0.2,8.1,17.7,32.4,14l0.1,0.8
			C100.5,288.2,93.9,287,89,284.7z"/>
		<path class="st8" d="M83.6,223.9l-0.6-0.3c9.8-20.9,24.1-35.9,24.2-36l0.5,0.5C107.5,188.2,93.3,203.3,83.6,223.9z"/>
		<path class="st8" d="M131.4,152.8c2-19.9,13.7-26.5,29.2-19.4c7,3.2,7.1,1.2,12,5.2c4.6,3.7-9.1,21.8-9.1,21.8l-2.7-8.1
			c0,0-5.4,2.9-6.8,10.6c-1.5,7.9-1,29.9-1,29.9s-20.5,1.9-31.2-6.1C121.8,186.7,130.5,161.2,131.4,152.8z"/>
		<path class="st25" d="M153,154.5c-0.9,3.1,0.4,6.2,3.1,7c2.6,0.8,5.5-1,6.4-4.1c0.9-3.1-0.4-6.2-3.1-7
			C156.8,149.6,153.9,151.4,153,154.5z"/>
		<path class="st8" d="M157.5,160.3c0.8,0,1.5-0.5,1.6-0.6l-0.6-0.8c-0.3,0.2-0.9,0.5-1.2,0.4c-0.1,0-0.1,0-0.2-0.2
			c-0.1-0.2-0.1-0.3,0.2-0.7s0.8-1,0.7-2.1c-0.1-0.8-0.4-1.4-0.7-1.8c-0.4-0.7-0.5-0.8,0.1-1.3c0.2-0.2,0.4-0.2,0.6-0.2
			c0.9,0.1,1.9,1.2,2.2,1.6l0.8-0.6c-0.1-0.2-1.5-1.8-3-1.9c-0.5,0-1,0.1-1.4,0.4c-1.2,1-0.7,1.8-0.3,2.5c0.2,0.4,0.5,0.8,0.5,1.4
			c0.1,0.7-0.2,1-0.5,1.4s-0.7,0.9-0.4,1.7c0.2,0.4,0.4,0.6,0.8,0.7C157.3,160.2,157.4,160.3,157.5,160.3z"/>
		<path class="st8" d="M160.1,175.7l0.2-0.7c0,0-2.9-1-4.6-2.1l-0.4,0.6C157.1,174.6,159.9,175.6,160.1,175.7z"/>
		<path class="st4" d="M388.9,93.8H274.9c-2.9,0-5.1-2.2-5.1-5.1V9.3c0-1.9,1.5-3.5,3.5-3.5h117.2c1.9,0,3.5,1.5,3.5,3.5v79.4
			C394.1,91.6,391.7,93.8,388.9,93.8z"/>
		<path class="st10" d="M388.9,94.3H274.9c-3.1,0-5.6-2.5-5.6-5.6V9.3c0-2.2,1.8-4,4-4h117.2c2.2,0,4,1.8,4,4v79.4
			C394.5,91.9,392.1,94.3,388.9,94.3z M273.3,6.3c-1.6,0-3.1,1.3-3.1,3.1v79.4c0,2.5,2,4.6,4.6,4.6h114.1c2.5,0,4.6-2,4.6-4.6V9.4
			c0-1.6-1.3-3.1-3.1-3.1C390.4,6.3,273.3,6.3,273.3,6.3z"/>
		<path class="st4" d="M390.5,5.8H273.4c-1.9,0-3.6,1.6-3.6,3.6v4.2H394V9.4C394.1,7.3,392.5,5.8,390.5,5.8z"/>
		<path class="st10" d="M394.5,14h-125V9.3c0-2.2,1.8-4.1,4.1-4.1h117c2.2,0,4.1,1.8,4.1,4.1V14H394.5z M270.4,13h123.1V9.4
			c0-1.7-1.3-3.1-3.1-3.1h-117c-1.7,0-3.1,1.3-3.1,3.1V13z"/>
		<path d="M381.4,9c-0.5,0-0.8,0.4-0.8,0.8c0,0.5,0.4,0.8,0.8,0.8c0.5,0,0.8-0.4,0.8-0.8S381.8,9,381.4,9z"/>
		
			<linearGradient id="SVGID_00000102504767548889636420000005685900747725706652_" gradientUnits="userSpaceOnUse" x1="384.085" y1="227.7841" x2="385.7841" y2="227.7841" gradientTransform="matrix(1 0 0 1 0 -218)">
			<stop  offset="0" style="stop-color:#FF4428"/>
			<stop  offset="1" style="stop-color:#FF7E3B"/>
		</linearGradient>
		<path style="fill:url(#SVGID_00000102504767548889636420000005685900747725706652_);" d="M384.9,9c-0.5,0-0.8,0.4-0.8,0.8
			c0,0.5,0.4,0.8,0.8,0.8c0.5,0,0.8-0.4,0.8-0.8S385.4,9,384.9,9z"/>
		
			<linearGradient id="SVGID_00000056388752164356468990000012146401881529760430_" gradientUnits="userSpaceOnUse" x1="387.6725" y1="227.7841" x2="389.3727" y2="227.7841" gradientTransform="matrix(1 0 0 1 0 -218)">
			<stop  offset="0" style="stop-color:#001B8D"/>
			<stop  offset="1" style="stop-color:#0073D5"/>
		</linearGradient>
		<path style="fill:url(#SVGID_00000056388752164356468990000012146401881529760430_);" d="M388.5,9c-0.5,0-0.8,0.4-0.8,0.8
			c0,0.5,0.4,0.8,0.8,0.8c0.5,0,0.8-0.4,0.8-0.8C389.4,9.4,389,9,388.5,9z"/>
		<path class="st6" d="M383.1,79.7H281c-0.5,0-1-0.4-1-1s0.4-1,1-1h102.1c0.5,0,1,0.4,1,1C384.1,79.2,383.6,79.7,383.1,79.7z"/>
		<path class="st36" d="M354.1,79.7h-73.2c-0.5,0-1-0.4-1-1s0.4-1,1-1h73.2c0.5,0,1,0.4,1,1C355.1,79.2,354.7,79.7,354.1,79.7z"/>
		<path class="st10" d="M358.1,78.7c0,1.6-1.3,3.1-3.1,3.1s-3.1-1.3-3.1-3.1c0-1.6,1.3-3.1,3.1-3.1S358.1,77,358.1,78.7z"/>
		<path class="st8" d="M330.4,45.2L330.4,45.2L330.4,45.2L330.4,45.2z"/>
		<path class="st10" d="M354,43.7c0,12.1-9.9,22-22,22c-12.1,0-22-9.9-22-22s9.9-22,22-22C344.1,21.7,354,31.6,354,43.7z"/>
		<path class="st4" d="M341.8,43.6l-14.2-9.2c-0.5-0.3-1.2,0-1.2,0.7v18.2c0,0.6,0.7,1,1.2,0.7l14.2-9.2
			C342.4,44.6,342.4,43.9,341.8,43.6z"/>
		<path class="st6" d="M505.3,63.2l-1.9-6.7c-0.4-1.4-1.7-2.4-3.2-2.4h-39.6c-1.8,0-3.4,1.5-3.4,3.4v8.1v4.6v55.9
			c0,1.8,1.5,3.4,3.4,3.4h92.1c1.8,0,3.4-1.5,3.4-3.4V68.9c0-1.8-1.5-3.4-3.4-3.4h-44.2C507,65.6,505.7,64.7,505.3,63.2z"/>
		<path class="st4" d="M542.5,27.9L467.8,28l0.1,90.7l74.6-0.1L542.5,27.9z"/>
		<path class="st8" d="M467.5,119v-0.3l-0.1-91.1h0.3l74.9-0.1v0.3l0.1,91h-0.3L467.5,119z M468.1,28.3l0.1,90.1l74-0.1l-0.1-90.1
			L468.1,28.3z"/>
		<path class="st6" d="M509.5,45.5h-30.7v2.3h30.7V45.5z"/>
		<path class="st8" d="M494.2,52.1h-15.4v2.3h15.4V52.1z"/>
		<path class="st6" d="M513.8,52.1h-15.4v2.3h15.4V52.1z"/>
		<path class="st8" d="M533.8,52.1h-15.4v2.3h15.4V52.1z"/>
		<path class="st6" d="M533.8,45.5h-21.4v2.3h21.4V45.5z"/>
		<path class="st6" d="M533.8,58.5h-30.7v2.3h30.7V58.5z"/>
		<path class="st8" d="M500.2,58.6h-21.4v2.3h21.4V58.6z"/>
		<path class="st6" d="M509.5,64.9h-30.7v2.3h30.7V64.9z"/>
		<path class="st8" d="M494.2,71.5h-15.4v2.3h15.4V71.5z"/>
		<path class="st8" d="M513.9,71.4h-15.4v2.3h15.4V71.4z"/>
		<path class="st8" d="M533.8,71.4h-15.4v2.3h15.4V71.4z"/>
		<path class="st8" d="M533.8,64.8h-21.4v2.3h21.4V64.8z"/>
		<path class="st8" d="M533.8,77.8h-30.7v2.3h30.7V77.8z"/>
		<path class="st8" d="M500.2,77.8h-21.4v2.3h21.4V77.8z"/>
		
			<linearGradient id="SVGID_00000036233947000848098010000011961024084372085156_" gradientUnits="userSpaceOnUse" x1="452.641" y1="318.0577" x2="551.4176" y2="318.0577" gradientTransform="matrix(1 0 0 1 0 -218)">
			<stop  offset="0" style="stop-color:#001B8D"/>
			<stop  offset="1" style="stop-color:#0073D5"/>
		</linearGradient>
		<path style="fill:url(#SVGID_00000036233947000848098010000011961024084372085156_);" d="M457.2,68.1c-2.5,0-4.6,2-4.6,4.6v55.9
			c0,1.8,1.5,3.4,3.4,3.4h92.1c1.8,0,3.4-1.5,3.4-3.4V71.5c0-1.8-1.5-3.4-3.4-3.4h-44.2L457.2,68.1L457.2,68.1z"/>
		<path class="st9" d="M500.7,65.5l-1.9-6.7c-0.4-1.4-1.7-2.4-3.2-2.4H456c-1.8,0-3.4,1.5-3.4,3.4v8.1v4.6v55.9
			c0,1.8,1.5,3.4,3.4,3.4h92.1c1.8,0,3.4-1.5,3.4-3.4V71.2c0-1.8-1.5-3.4-3.4-3.4h-44.2C502.3,67.8,501.1,66.9,500.7,65.5z"/>
		<path class="st30" d="M184.1,354c21.1-22.8,48.7,36.5,46,59.8h-10.5C209.4,407.8,167,372.4,184.1,354z"/>
		<path class="st8" d="M224.6,413.9l0.8-0.4c-15.6-34-40.7-59.6-41-59.9l-0.6,0.6C184,354.5,209.2,380,224.6,413.9z"/>
		<path class="st8" d="M190.5,386.6c6.7,2.1,21.2,4,21.8,4.1l0.1-0.9c-0.2,0-18.2-2.3-23.4-4.7l-0.4,0.8
			C189.1,386.2,189.8,386.4,190.5,386.6z"/>
		<path class="st8" d="M199.6,370.8c2.5-7.3,3.1-19.1,3.1-19.2h-0.9c0,0.1-0.5,11.8-3,19L199.6,370.8z"/>
		<path class="st8" d="M220.9,375.5c6.4,13.4,10.3,28.7,9.2,38.2C215.5,398.5,218.5,378,220.9,375.5z"/>
		<path class="st31" d="M238.1,338.2c18.7-9.2,12.9,46-3.6,75.6h-7.6C223,406.3,222.9,345.5,238.1,338.2z"/>
		<path class="st8" d="M229.6,413.6l0.9,0.2c3-16.4,11.1-69.2,11.2-69.8l-0.9-0.1C240.7,344.5,232.6,397.3,229.6,413.6z"/>
		<path class="st8" d="M241.4,385.5l-8.1,9.7l0.7,0.6l8.1-9.7L241.4,385.5z"/>
		<path class="st8" d="M227.4,365.7l-0.6,0.7l9.3,7.7l0.6-0.7L227.4,365.7z"/>
		<path class="st38" d="M198.9,413.6v4.5c0,5.1,1.5,10.2,4.4,14.7l1.1,1.7l9.2,57.7l22,0.1l6.8-57.7l1.1-1.7c3-4.5,4.5-9.6,4.5-14.7
			v-4.5L198.9,413.6z"/>
		<path class="st8" d="M199.1,424.6v0.9l36.6,0.1v-0.9L199.1,424.6z"/>
		<path class="st8" d="M229.4,434.2v0.9h13v-0.9H229.4z"/>
		<path class="st8" d="M213.1,492.9h1.2V492h-0.5l-9.1-57.5l-1.2-1.8c-2.9-4.4-4.4-9.4-4.3-14.5v-4.1l48.6,0.1v-0.9l-49.5-0.1v5
			c0,5.2,1.5,10.4,4.5,15l1.1,1.7L213.1,492.9z"/>
	</g>
	<path class="st10" d="M287,79.7"/>
</g>
</svg>
