<?xml version="1.0" encoding="utf-8"?>
<!-- Generator: Adobe Illustrator 27.0.0, SVG Export Plug-In . SVG Version: 6.00 Build 0)  -->
<svg version="1.1" id="_x2014_ÎÓÈ_x5F_1" xmlns="http://www.w3.org/2000/svg" xmlns:xlink="http://www.w3.org/1999/xlink"
	 x="0px" y="0px" viewBox="0 0 466 311.4" style="enable-background:new 0 0 466 311.4;" xml:space="preserve">
<style type="text/css">
	.st0{fill:url(#SVGID_1_);}
	.st1{fill:url(#SVGID_00000138551765145698555330000018026247102415011473_);}
	.st2{fill:url(#SVGID_00000051377881211229736240000003764788290124737933_);}
	.st3{fill:url(#SVGID_00000028317693234893260610000013481846578059346561_);}
	.st4{fill:url(#SVGID_00000147182096341847160160000018286312006595685505_);}
	.st5{fill:#FFFFFF;}
	.st6{fill:#443091;}
	.st7{fill:url(#SVGID_00000026857373595133476440000013934581046523655819_);}
	.st8{fill:url(#SVGID_00000147921541006624264710000000729002982556097433_);}
	.st9{fill:url(#SVGID_00000085222900046528996090000005434551361874450598_);}
	.st10{fill:url(#SVGID_00000136405777311296611740000001666218961753451926_);}
	.st11{fill:url(#SVGID_00000126287738002371165610000012410405999117519546_);}
	.st12{fill:url(#SVGID_00000105396090248027509330000008482762600023023501_);}
	.st13{fill:#707BEF;}
	.st14{fill:url(#SVGID_00000127028054307153489160000010602174914349853081_);}
	.st15{fill:url(#SVGID_00000152978306616906000970000008656435543222289815_);}
	.st16{fill:url(#SVGID_00000161610073216220302420000010242303408471290773_);}
	.st17{fill:#A3B1D4;}
	.st18{fill:url(#SVGID_00000080200148082303756970000010679423538214126749_);}
	.st19{fill:#FFF4FF;}
	.st20{fill:url(#SVGID_00000104670236020921271400000001169821549696221356_);}
	.st21{fill:url(#SVGID_00000121270597240680753320000005832654752881617541_);}
	.st22{fill:url(#SVGID_00000008150013217931963020000009837601162954321834_);}
	.st23{fill:url(#SVGID_00000166657838658273666400000000498225678441981848_);}
	.st24{fill:url(#SVGID_00000075867479144668884770000015543332767100991377_);}
	.st25{fill:url(#SVGID_00000030446752852804164550000007163666651828347810_);}
	.st26{fill:url(#SVGID_00000026143460891076896930000011678565174045086126_);}
	.st27{fill:#F1CCCD;}
	.st28{fill:url(#SVGID_00000147206232900556979420000017431748344158937747_);}
	.st29{fill:url(#SVGID_00000022550635119330825310000008567742935898713252_);}
	.st30{fill:#202F87;}
	.st31{fill:#FFCBC7;}
	.st32{fill:url(#SVGID_00000030459912232569618390000016287547161451523242_);}
	.st33{fill:url(#SVGID_00000075141240552088614740000002852085887998379434_);}
	.st34{fill:#2C3773;}
	.st35{fill:#F0B4B4;}
	.st36{fill:url(#SVGID_00000097485034607412500080000008743882189486268316_);}
	.st37{fill:url(#SVGID_00000106826395153597996820000006419023521828385153_);}
	.st38{fill:url(#SVGID_00000083809923047451395430000009396282690406998451_);}
	.st39{fill:url(#SVGID_00000162321700861279247190000017555726770015658114_);}
	.st40{fill:#263182;}
	.st41{fill:url(#SVGID_00000003790105531649615380000001492754848291784083_);}
	.st42{fill:#1F1C80;}
	.st43{fill:url(#SVGID_00000023265953115915271560000017707820519062220425_);}
	.st44{fill:url(#SVGID_00000150096797742727086430000001504541782005517481_);}
	.st45{fill:#FABAB4;}
	.st46{fill:url(#SVGID_00000176761067389200211820000004833400420184668852_);}
	.st47{fill:url(#SVGID_00000047752141166079103940000015860270160413411467_);}
	.st48{fill:url(#SVGID_00000158717835724898886820000013640194969765888441_);}
	.st49{fill:#A7A9AC;}
	.st50{fill:url(#SVGID_00000109751427920836470140000010492529896678507675_);}
	.st51{fill:url(#SVGID_00000036214914839317129580000017701543238994780590_);}
	.st52{fill:url(#SVGID_00000165915861377961015420000017216506621470475443_);}
	.st53{fill:url(#SVGID_00000017484951769023058810000010570960396985106332_);}
	.st54{fill:url(#SVGID_00000050637651991612832060000009438797574589926530_);}
	.st55{fill:url(#SVGID_00000025429736991921717370000015312196932003721108_);}
	.st56{fill:url(#SVGID_00000163037546358263970920000017714108869344155828_);}
	.st57{fill:url(#SVGID_00000052085048304797356850000016340833981061154954_);}
	.st58{fill:url(#SVGID_00000026162162354537736180000014278574902509919638_);}
	.st59{fill:url(#SVGID_00000170996038311855379670000004445716857658376068_);}
	.st60{fill:url(#SVGID_00000167371741126252734250000011181960977559644850_);}
	.st61{fill:url(#SVGID_00000174594303251305445150000002715391064620346272_);}
	.st62{fill:url(#SVGID_00000078013488605307240600000017684094262155162543_);}
	.st63{fill:url(#SVGID_00000014635586318907781000000002475561564086259334_);}
	.st64{fill:#E6E7E8;}
	.st65{fill:url(#SVGID_00000056428509622377355700000011188969340705803693_);}
	.st66{fill:url(#SVGID_00000026121214225822170310000007150498850584889992_);}
	.st67{fill:url(#SVGID_00000041297420927545809500000009277001092606322870_);}
	.st68{fill:url(#SVGID_00000106113355137076351690000011623158080733024405_);}
	.st69{fill:url(#SVGID_00000073713001340846464280000017353544264311535792_);}
	.st70{fill:url(#SVGID_00000137126215688948888720000015649126633963085449_);}
	.st71{fill:url(#SVGID_00000183938609758516732270000001162551156281226664_);}
	.st72{fill:url(#SVGID_00000121260668614604189010000006260141524908266121_);}
	.st73{fill:url(#SVGID_00000130627781407684343390000004883869430565348234_);}
</style>
<g>
	
		<linearGradient id="SVGID_1_" gradientUnits="userSpaceOnUse" x1="399.6732" y1="-1386.7384" x2="-50.0245" y2="-1079.2761" gradientTransform="matrix(1 0 0 -1 0 -1068.5674)">
		<stop  offset="0" style="stop-color:#C1EEF7"/>
		<stop  offset="1" style="stop-color:#F5D6FF"/>
	</linearGradient>
	<path class="st0" d="M414.8,178.3c-9.4-23.9-60.1-27.2-73.1-61.1c-10.6-27.4,6.3-49.1-4.7-61c-23-24.9-58.2,21.5-103.3-5
		c-20.6-12.1-15.9-27.5-38.6-40.7C162.1-9,110.4-0.7,91.6,30.8c-18.9,31.7,11.5,59.6-4.7,103c-18.2,48.7-68.8,46.8-75.3,83.7
		c-1.3,7.6-1.4,19.3,2.9,33.6c10.6,35.2,39.9,58.7,72.6,58.7h269.6C392.1,309.8,432.9,224,414.8,178.3z"/>
	
		<linearGradient id="SVGID_00000122696601278333163230000002443931286835272334_" gradientUnits="userSpaceOnUse" x1="21.6363" y1="-1335.1436" x2="100.6801" y2="-1364.6017" gradientTransform="matrix(1 0 0 -1 0 -1068.5674)">
		<stop  offset="0" style="stop-color:#AD88FF"/>
		<stop  offset="1" style="stop-color:#6038BA"/>
	</linearGradient>
	<path style="fill:url(#SVGID_00000122696601278333163230000002443931286835272334_);" d="M87.9,284.5c-1-0.7-2.4-0.2-3.1,0.8
		c-0.7,1-0.8,2.3-0.7,3.5c0.2,2,0.8,3.7,1.5,5.5c-1.3-1.3-2.7-2.6-4.1-3.7c-0.9-0.8-1.9-1.5-2.8-2.3c1.6-2.2,2.4-5,2.6-7.7
		c0-1-0.1-2.2-1-2.8c-1-0.7-2.4-0.2-3.1,0.8c-0.7,1-0.8,2.3-0.7,3.5c0.2,2.1,0.8,3.8,1.5,5.7c-3-2.2-6.1-4.3-9.4-6.1
		c1.2-2.4,1.6-5.2,1.3-7.9c-0.1-1-0.5-2.2-1.4-2.7c-1-0.6-2.4,0.1-3,1.3c-0.6,1-0.5,2.4-0.1,3.6c0.5,1.9,1.4,3.5,2.3,5.2
		c-3.5-1.7-7.2-3.4-11.2-3.7c-0.1,0-0.1,0-0.2,0c0.8-2.6,0.9-5.5,0.1-8c-0.2-1-0.8-2.1-1.7-2.4c-1.2-0.3-2.4,0.6-2.8,1.6
		c-0.3,1.2-0.1,2.4,0.5,3.6c0.8,2,2.1,3.6,3.4,5.2c-4.5-0.3-9.2,0.1-13.7-0.3c0.9-2.7,0.9-5.6,0.2-8.3c-0.2-1-0.8-2.1-1.7-2.4
		c-1.2-0.3-2.4,0.6-2.8,1.6c-0.3,1.2-0.1,2.4,0.5,3.6c0.8,2,2.1,3.6,3.5,5.4c-1.2-0.1-2.2-0.3-3.4-0.7c-2.2-0.6-4.3-1.7-6.2-3.1
		c1.6-2.3,2.4-5.2,2.4-8c0-1-0.2-2.2-1-2.8c-1-0.7-2.4-0.1-3.1,0.9c-0.7,1-0.7,2.3-0.5,3.5c0.3,2.2,1.2,4.1,2,6.2
		c-3-2.3-5.4-5.6-6.9-9c1.2-2.3,1.7-4.9,1.5-7.5c-0.1-1-0.3-2.2-1.3-2.7c-1-0.6-2.4,0-3.1,1c-0.7,1-0.6,2.3-0.3,3.6
		c0.3,1.9,1.2,3.6,2,5.2c0,0.1,0,0.1,0,0.2c1.3,2.9,3,5.6,5.2,7.8c0.5,0.5,1,0.9,1.5,1.4c-2.3-0.8-5-0.9-7.5-0.5
		c-1,0.2-2.1,0.7-2.6,1.6c-0.5,1.2,0.3,2.4,1.5,2.9c1.2,0.5,2.4,0.2,3.6-0.1c2.1-0.7,3.8-2,5.7-3.3c1.2,0.9,2.4,1.7,3.7,2.3
		c2,0.9,4.1,1.4,6.3,1.7c-2.6,0.3-5,1.4-7.1,3c-0.8,0.7-1.6,1.5-1.5,2.6c0.1,1.2,1.5,2,2.7,1.9s2.2-0.9,3.1-1.7
		c1.6-1.7,2.6-3.6,3.7-5.7c3.6,0.3,7.2,0.1,10.8,0.2c1.2,0,2.2,0.1,3.4,0.1c-2.8,0.2-5.6,1.3-7.7,3c-0.8,0.7-1.6,1.5-1.5,2.6
		c0.1,1.2,1.4,2,2.7,1.9c1.2-0.1,2.2-0.9,3.1-1.7c1.6-1.7,2.7-3.7,3.7-5.8c1.2,0.1,2.3,0.3,3.5,0.7c2.1,0.6,4.2,1.4,6.1,2.3
		c0.5,0.2,1,0.5,1.5,0.8c-2.6,0-5.1,0.6-7.3,1.9c-0.9,0.6-1.9,1.3-1.9,2.3c-0.1,1.2,1.2,2.2,2.3,2.3s2.3-0.6,3.4-1.3
		c1.7-1.4,3-3,4.4-4.8c3.3,1.7,6.3,3.7,9.2,5.9c-2.6-0.7-5.4-0.7-7.9,0.1c-1,0.3-2.1,0.8-2.3,1.9c-0.3,1.2,0.6,2.4,1.7,2.8
		c1.2,0.3,2.4,0,3.5-0.5c2.1-0.9,3.7-2.3,5.5-3.8c0.3,0.2,0.7,0.6,1.2,0.9c2.1,1.6,4.1,3.4,5.9,5.2c-2.6-0.7-5.2-0.6-7.7,0.2
		c-1,0.3-2.1,0.8-2.3,1.9c-0.3,1.2,0.6,2.4,1.7,2.8c1.2,0.3,2.4,0,3.5-0.5c2.1-0.9,3.6-2.3,5.4-3.7c2.1,2.2,4.1,4.4,5.9,6.9
		c0.3,0.5,1.2-0.1,0.7-0.6c-1.9-2.4-3.8-4.8-5.9-7c1.6-2.2,2.4-5,2.6-7.8C89,286.2,88.8,285,87.9,284.5z"/>
	
		<linearGradient id="SVGID_00000182511511782851663870000008870020122201524138_" gradientUnits="userSpaceOnUse" x1="279.9751" y1="-1092.9423" x2="243.1817" y2="-1168.8495" gradientTransform="matrix(1 0 0 -1 0 -1068.5674)">
		<stop  offset="0" style="stop-color:#AD88FF"/>
		<stop  offset="1" style="stop-color:#6038BA"/>
	</linearGradient>
	<path style="fill:url(#SVGID_00000182511511782851663870000008870020122201524138_);" d="M255.7,88.7c0.8-0.9,0.5-2.4-0.5-3.3
		c-0.9-0.8-2.2-1-3.5-1c-2,0-3.7,0.5-5.6,0.9c1.4-1.2,2.8-2.4,4.1-3.7c0.9-0.8,1.7-1.7,2.6-2.6c2.1,1.9,4.7,2.9,7.5,3.3
		c1,0.1,2.2,0.1,2.9-0.7c0.8-0.9,0.5-2.4-0.5-3.3c-0.9-0.8-2.2-1-3.4-1c-2.1,0-3.8,0.5-5.8,1c2.6-2.8,4.9-5.7,7-8.7
		c2.3,1.4,5,2.1,7.7,2c1,0,2.2-0.2,2.8-1.2c0.6-1,0-2.4-0.9-3.1c-1-0.7-2.3-0.7-3.5-0.5c-2,0.3-3.6,1-5.4,1.9
		c2.1-3.3,4.1-6.9,4.8-10.8c0-0.1,0-0.1,0-0.2c2.4,1,5.4,1.4,8,0.9c1-0.2,2.1-0.6,2.6-1.5c0.5-1-0.3-2.4-1.4-2.9s-2.4-0.3-3.6,0.1
		c-2.1,0.7-3.7,1.7-5.5,2.9c0.8-4.5,0.7-9.2,1.6-13.6c2.6,1.2,5.5,1.5,8.1,0.9c1-0.2,2.1-0.6,2.6-1.5c0.5-1.2-0.3-2.4-1.4-2.9
		c-1.2-0.5-2.4-0.3-3.6,0.1c-2.1,0.7-3.8,1.7-5.6,2.9c0.2-1.2,0.6-2.2,0.9-3.3c0.8-2.2,2.1-4.2,3.7-5.9c2.2,1.9,4.9,2.9,7.8,3.1
		c1,0.1,2.2,0,2.9-0.8c0.7-0.9,0.3-2.4-0.6-3.3c-0.9-0.8-2.2-0.9-3.5-0.8c-2.2,0.1-4.2,0.7-6.3,1.4c2.7-2.8,6.1-4.9,9.5-6.1
		c2.2,1.4,4.8,2.2,7.3,2.2c1,0,2.2-0.1,2.8-1c0.7-1,0.2-2.4-0.8-3.1c-1-0.7-2.3-0.8-3.5-0.6c-2,0.2-3.6,0.8-5.4,1.5
		c-0.1,0-0.1,0-0.2,0c-3,0.9-5.8,2.6-8.3,4.5c-0.6,0.5-1,0.9-1.6,1.4c1-2.3,1.4-4.9,1.2-7.3c-0.1-1-0.5-2.2-1.4-2.7
		c-1-0.6-2.4,0.1-3,1.2c-0.6,1-0.5,2.3-0.1,3.6c0.6,2.2,1.5,4.1,2.7,6.1c-1,1-2,2.2-2.7,3.5c-1.2,1.9-1.9,4-2.3,6.1
		c-0.1-2.6-0.9-5.1-2.3-7.3c-0.6-0.8-1.4-1.7-2.4-1.7c-1.2,0-2.2,1.3-2.2,2.4s0.7,2.3,1.5,3.3c1.5,1.7,3.4,2.9,5.2,4.2
		c-0.7,3.5-0.8,7.2-1.2,10.7c-0.1,1-0.2,2.2-0.5,3.3c0-2.8-0.8-5.6-2.3-7.9c-0.6-0.8-1.4-1.7-2.4-1.7c-1.2,0-2.2,1.3-2.2,2.4
		c0,1.3,0.7,2.3,1.5,3.3c1.5,1.9,3.4,3,5.4,4.3c-0.2,1.2-0.6,2.3-0.9,3.4c-0.8,2.1-1.7,4-2.9,5.8c-0.3,0.5-0.6,0.9-0.9,1.5
		c0.2-2.6-0.1-5.1-1.2-7.5c-0.5-0.9-1.2-2-2.1-2.1c-1.2-0.2-2.3,0.9-2.4,2.1c-0.2,1.2,0.3,2.4,0.9,3.4c1.2,1.9,2.7,3.4,4.4,4.8
		c-2,3-4.3,5.9-6.9,8.5c0.9-2.4,1.2-5.2,0.6-7.9c-0.2-1-0.7-2.1-1.6-2.6c-1.2-0.5-2.4,0.3-2.9,1.5s-0.2,2.4,0.1,3.6
		c0.7,2.2,2,4,3.4,5.8c-0.3,0.3-0.7,0.7-1,1c-1.9,1.9-3.7,3.7-5.8,5.5c0.9-2.4,1-5.1,0.5-7.7c-0.2-1-0.7-2.1-1.6-2.6
		c-1.2-0.5-2.4,0.3-2.9,1.5c-0.5,1.2-0.2,2.4,0.1,3.6c0.7,2.1,1.9,3.8,3.3,5.7c-2.3,2-4.8,3.7-7.5,5.2c-0.6,0.3,0,1.2,0.6,0.8
		c2.6-1.5,5.1-3.4,7.5-5.4c2.1,1.9,4.8,3,7.5,3.3C253.8,89.5,255,89.4,255.7,88.7z"/>
	
		<linearGradient id="SVGID_00000048500210356983794430000018043724201453911694_" gradientUnits="userSpaceOnUse" x1="245.0632" y1="-1076.7339" x2="239.7689" y2="-1145.3564" gradientTransform="matrix(1 0 0 -1 0 -1068.5674)">
		<stop  offset="0" style="stop-color:#FFB8F5"/>
		<stop  offset="1" style="stop-color:#85F1FF"/>
	</linearGradient>
	<path style="fill:url(#SVGID_00000048500210356983794430000018043724201453911694_);" d="M245,73.9l-14.2,7.7
		c0.3-1.9,0.5-3.7,0.6-5.6s0.3-3.6,0.9-5.4c0.5-1.7,1.3-3.4,2.3-4.9c1-1.5,2.1-2.9,2.8-4.7c0.6-1.3,0.7-2.7,0.8-4.2
		c0.1-2.9-0.5-5.8-0.5-8.7c0-1.5,0.2-2.9,0.7-4.3c0.6-1.7,1.6-3.1,2.7-4.7c1-1.4,2.1-2.9,2.9-4.4c0.7-1.4,1.2-2.8,1.5-4.3
		c0.6-3,0.5-6.1-0.3-9c-1.7-7.2-6.8-12.9-11.8-18.2c-0.2-0.3-0.6-0.6-0.9-0.9c3.5-2.3,9.2,1.6,11.5,4.8c1.6,2.1,2,4.9,3.3,7.2
		c6.4,11.9,14.3,17.7,3.3,30.3c-1.3,1.4-2.6,2.8-3.3,4.5C245.3,56.6,255.2,68.5,245,73.9z"/>
	
		<linearGradient id="SVGID_00000067949526674688815940000011653346030081682343_" gradientUnits="userSpaceOnUse" x1="229.1175" y1="-1075.5033" x2="223.8223" y2="-1144.1256" gradientTransform="matrix(1 0 0 -1 0 -1068.5674)">
		<stop  offset="0" style="stop-color:#FFB8F5"/>
		<stop  offset="1" style="stop-color:#85F1FF"/>
	</linearGradient>
	<path style="fill:url(#SVGID_00000067949526674688815940000011653346030081682343_);" d="M210.9,79.1c-8.4-8-4.9-22.1,9.3-21.3
		c7.8,1.6,8.5-5.8,7.2-11.5c-0.6-2.8-2-6.1-0.5-8.5c4-4.9,13.7-1.4,10.9-13.6c-1.6-6.9-12.7-15.7-5.7-21.7c0,0,0.1,0,0.1-0.1
		c4.8,4.9,9.7,10.2,11.9,16.8c1,2.9,1.5,6.1,1.3,9.1c-0.1,1.5-0.5,3-0.9,4.4c-0.6,1.5-1.5,3-2.4,4.4c-1,1.4-2.1,2.9-2.9,4.4
		c-0.8,1.4-1.3,2.8-1.5,4.3c-0.5,2.8,0,5.6,0.2,8.4c0.1,1.4,0.1,2.9-0.1,4.3c-0.2,1.6-0.9,3.1-1.7,4.4c-0.9,1.5-2.1,2.9-2.9,4.5
		c-0.8,1.5-1.3,3.3-1.5,4.9c-0.6,3-0.6,6.2-1,9.3C230.4,81.8,220.3,88.2,210.9,79.1z"/>
	<path class="st5" d="M230.8,81.6l-0.3,0.2c0.6-3,0.6-6.2,1-9.3c0.3-1.7,0.8-3.4,1.5-4.9c0.8-1.6,2-3,2.9-4.5
		c0.8-1.4,1.5-2.9,1.7-4.4c0.2-1.4,0.2-2.9,0.1-4.3c-0.1-2.8-0.6-5.6-0.2-8.4c0.2-1.5,0.8-3,1.5-4.3c0.9-1.5,2-2.9,2.9-4.4
		c0.9-1.4,1.9-2.8,2.4-4.4c0.6-1.4,0.8-2.9,0.9-4.4c0.2-3-0.2-6.2-1.3-9.1c-2.3-6.6-7.1-11.9-11.9-16.8c0.1-0.1,0.1-0.1,0.2-0.2
		c0.3,0.3,0.6,0.6,0.9,0.9c5,5.2,10,10.9,11.8,18.2c0.7,2.9,0.9,6.1,0.3,9c-0.3,1.5-0.8,2.9-1.5,4.3c-0.8,1.5-1.9,3-2.9,4.4
		c-1,1.4-2,2.9-2.7,4.7c-0.5,1.4-0.7,2.9-0.7,4.3c0,2.9,0.6,5.8,0.5,8.8c0,1.4-0.2,2.8-0.8,4.2c-0.7,1.6-1.7,3.1-2.8,4.7
		c-1,1.5-1.9,3.1-2.3,4.9c-0.5,1.7-0.7,3.6-0.9,5.4C231.2,77.8,231.1,79.7,230.8,81.6z"/>
	<path class="st6" d="M253,155.9c0,0-0.1,0-0.1-0.1c-0.6-0.5-1.2-0.9-1.6-1.4c-0.1-0.1-0.1-0.2,0-0.3c0.1-0.1,0.2-0.1,0.3,0
		c0.6,0.5,1.2,0.9,1.6,1.4c0.1,0.1,0.1,0.2,0,0.3C253.2,155.8,253.1,155.9,253,155.9z"/>
	<path class="st6" d="M305.4,175.7c-0.5,0-0.8,0-1.3,0c-0.1,0-0.2-0.1-0.2-0.2c0-0.1,0.1-0.2,0.2-0.2c1.4,0,2.9,0,4.3,0
		c0.1,0,0.2,0.1,0.2,0.2c0,0.1-0.1,0.2-0.2,0.2C307.4,175.7,306.3,175.7,305.4,175.7z M299.8,175.5L299.8,175.5
		c-1.4-0.1-2.9-0.2-4.3-0.5c-0.1,0-0.2-0.1-0.2-0.2c0-0.1,0.1-0.2,0.2-0.2c1.4,0.2,2.8,0.3,4.2,0.5c0.1,0,0.2,0.1,0.2,0.2
		C300,175.4,299.9,175.5,299.8,175.5z M312.6,175.4c-0.1,0-0.2-0.1-0.2-0.2c0-0.1,0.1-0.2,0.2-0.2c1.4-0.1,2.8-0.3,4.2-0.6
		c0.1,0,0.2,0.1,0.2,0.2c0,0.1-0.1,0.2-0.2,0.2C315.5,175,314.1,175.3,312.6,175.4L312.6,175.4z M291.3,174.3
		C291.3,174.3,291.2,174.3,291.3,174.3c-1.4-0.2-2.9-0.6-4.2-0.9c-0.1,0-0.2-0.1-0.1-0.2c0-0.1,0.1-0.2,0.2-0.1
		c1.4,0.3,2.8,0.7,4.2,0.9c0.1,0,0.2,0.1,0.2,0.2C291.5,174.3,291.4,174.3,291.3,174.3z M321.1,174c-0.1,0-0.2-0.1-0.2-0.2
		s0-0.2,0.1-0.2c1.4-0.3,2.8-0.7,4.1-1c0.1,0,0.2,0,0.2,0.1c0,0.1,0,0.2-0.1,0.2C323.9,173.3,322.5,173.6,321.1,174L321.1,174z
		 M282.9,172.2L282.9,172.2c-1.4-0.5-2.8-0.9-4.1-1.4c-0.1,0-0.2-0.2-0.1-0.3c0-0.1,0.2-0.2,0.3-0.1c1.3,0.5,2.7,0.9,4.1,1.4
		c0.1,0,0.2,0.1,0.1,0.3C283.2,172.2,283,172.2,282.9,172.2z M329.3,171.5c-0.1,0-0.2-0.1-0.2-0.1c0-0.1,0-0.2,0.1-0.3
		c1.3-0.5,2.7-1,4-1.6c0.1-0.1,0.2,0,0.3,0.1c0.1,0.1,0,0.2-0.1,0.3C332.1,170.5,330.7,171,329.3,171.5
		C329.4,171.5,329.4,171.5,329.3,171.5z M274.9,169.3L274.9,169.3c-1.4-0.6-2.7-1.2-4-1.9c-0.1-0.1-0.1-0.2-0.1-0.3s0.2-0.1,0.3-0.1
		c1.3,0.6,2.6,1.3,3.8,1.7c0.1,0.1,0.1,0.2,0.1,0.3C275.1,169.2,275,169.3,274.9,169.3z M337.1,167.9c-0.1,0-0.1,0-0.2-0.1
		c-0.1-0.1,0-0.2,0.1-0.3c1.3-0.7,2.4-1.4,3.6-2.2c0.1-0.1,0.2,0,0.3,0.1c0.1,0.1,0,0.2-0.1,0.3
		C339.7,166.4,338.5,167.2,337.1,167.9C337.2,167.9,337.2,167.9,337.1,167.9z M267.2,165.5h-0.1c-1.3-0.7-2.4-1.4-3.7-2.2
		c-0.1-0.1-0.1-0.2-0.1-0.3c0.1-0.1,0.2-0.1,0.3-0.1c1.2,0.7,2.4,1.5,3.7,2.2c0.1,0.1,0.1,0.2,0.1,0.3
		C267.4,165.5,267.3,165.5,267.2,165.5z M344.2,163.2c-0.1,0-0.1,0-0.2-0.1s-0.1-0.2,0-0.3c1.2-0.9,2.2-1.9,3.1-2.9
		c0.1-0.1,0.2-0.1,0.3,0c0.1,0.1,0.1,0.2,0,0.3c-0.9,1-2,2-3.1,2.9C344.3,163.2,344.3,163.2,344.2,163.2z M260,161h-0.1
		c-1.2-0.8-2.3-1.6-3.5-2.4c-0.1-0.1-0.1-0.2,0-0.3c0.1-0.1,0.2-0.1,0.3,0c1.2,0.8,2.3,1.6,3.5,2.4c0.1,0.1,0.1,0.2,0.1,0.3
		C260.1,161,260,161,260,161z M350.1,157H350c-0.1-0.1-0.1-0.2-0.1-0.3c0.8-1.3,1.5-2.6,2-3.7c0-0.1,0.1-0.2,0.3-0.1
		c0.1,0,0.2,0.1,0.1,0.3c-0.5,1.3-1.2,2.6-2,3.8C350.2,157,350.1,157,350.1,157z M341.4,155.9L341.4,155.9c-1.5-0.2-2.9-0.7-4.1-1.5
		c-0.1-0.1-0.1-0.2-0.1-0.3c0.1-0.1,0.2-0.1,0.3-0.1c1.2,0.7,2.4,1.2,4,1.4c0.1,0,0.2,0.1,0.2,0.2
		C341.6,155.8,341.5,155.9,341.4,155.9z M345.7,155.8c-0.1,0-0.2-0.1-0.2-0.2c0-0.1,0-0.2,0.2-0.2c1.3-0.2,2.7-0.7,4-1.4
		c0.1-0.1,0.2,0,0.3,0.1c0,0.1,0,0.2-0.1,0.3C348.5,155,347.1,155.5,345.7,155.8L345.7,155.8z M353.2,152.1c-0.1,0-0.1,0-0.2-0.1
		s-0.1-0.2,0-0.3c1-0.9,2.1-1.9,3-3c0.1-0.1,0.2-0.1,0.3,0c0.1,0.1,0.1,0.2,0,0.3c-0.9,1.2-2,2.2-3,3
		C353.4,152,353.4,152.1,353.2,152.1z M334.2,151.6c-0.1,0-0.1,0-0.1-0.1c-1-1.2-1.7-2.4-2.3-3.7c0-0.1,0-0.2,0.1-0.3
		c0.1,0,0.2,0,0.3,0.1c0.5,1.2,1.2,2.4,2.2,3.6c0.1,0.1,0.1,0.2,0,0.3C334.3,151.6,334.3,151.6,334.2,151.6z M352.5,149
		c-0.1,0-0.2-0.1-0.2-0.2c-0.1-0.6-0.2-1.2-0.5-1.6c-0.3-0.8-0.6-1.5-1-2.2c0-0.1,0-0.2,0.1-0.3c0.1-0.1,0.2,0,0.3,0.1
		c0.3,0.7,0.7,1.5,1,2.3c0.2,0.6,0.3,1.2,0.5,1.7C352.9,148.8,352.8,149,352.5,149L352.5,149z M358.7,145.5h-0.1
		c-0.1-0.1-0.1-0.2-0.1-0.3c0.7-1.3,1.3-2.6,1.7-3.8c0-0.1,0.1-0.2,0.3-0.1c0.1,0,0.2,0.1,0.1,0.3c-0.5,1.4-1,2.7-1.7,4
		C358.9,145.5,358.8,145.5,358.7,145.5z M331.6,143.8L331.6,143.8c-0.1,0-0.2-0.1-0.2-0.2c0.2-1.4,1-2.8,2.1-3.8
		c0.1-0.1,0.2-0.1,0.3,0c0.1,0.1,0.1,0.2,0,0.3c-1,1-1.6,2.3-2,3.6C331.8,143.7,331.7,143.8,331.6,143.8z M348.8,141.4
		c-0.1,0-0.1,0-0.1-0.1c-0.9-1-2.1-2-3.3-2.7c-0.1-0.1-0.1-0.2-0.1-0.3c0.1-0.1,0.2-0.1,0.3-0.1c1.2,0.7,2.3,1.6,3.4,2.8
		c0.1,0.1,0.1,0.2,0,0.3C348.8,141.4,348.8,141.4,348.8,141.4z M337.2,137.9c-0.1,0-0.2-0.1-0.2-0.1c0-0.1,0-0.2,0.1-0.3
		c1.4-0.5,2.9-0.7,4.3-0.5c0.1,0,0.2,0.1,0.2,0.2c0,0.1-0.1,0.2-0.2,0.2C340,137.2,338.6,137.3,337.2,137.9
		C337.3,137.9,337.2,137.9,337.2,137.9z M361.5,137.4L361.5,137.4c-0.1,0-0.2-0.1-0.2-0.2c0.2-1.4,0.3-2.8,0.3-4.2l0,0
		c0-0.1,0.1-0.2,0.2-0.2s0.2,0.1,0.2,0.2l0,0c0,1.4-0.1,2.9-0.3,4.3C361.7,137.3,361.6,137.4,361.5,137.4z M361.5,128.9
		c-0.1,0-0.2-0.1-0.2-0.2c-0.2-1.4-0.5-2.8-0.9-4.2c0-0.1,0-0.2,0.1-0.2c0.1,0,0.2,0,0.2,0.1c0.5,1.4,0.7,2.8,0.9,4.2
		C361.7,128.7,361.6,128.8,361.5,128.9L361.5,128.9z M359.2,120.7c-0.1,0-0.1-0.1-0.2-0.1c-0.6-1.3-1.2-2.6-1.9-3.8
		c0-0.1,0-0.2,0.1-0.3c0.1-0.1,0.2,0,0.3,0.1c0.7,1.3,1.3,2.6,1.9,3.8C359.4,120.4,359.4,120.6,359.2,120.7L359.2,120.7z
		 M355.1,113.1c-0.1,0-0.1,0-0.2-0.1c-0.8-1.2-1.6-2.3-2.4-3.5c-0.1-0.1,0-0.2,0-0.3s0.2-0.1,0.3,0c0.9,1.2,1.7,2.3,2.6,3.5
		c0.1,0.1,0,0.2-0.1,0.3C355.2,113.1,355.1,113.1,355.1,113.1z M349.9,106.4c-0.1,0-0.1,0-0.1-0.1c-0.9-1-1.9-2.1-2.9-3.1
		c-0.1-0.1-0.1-0.2,0-0.3s0.2-0.1,0.3,0c1,1,2,2.1,2.9,3.1c0.1,0.1,0.1,0.2,0,0.3C350,106.4,349.9,106.4,349.9,106.4z M343.8,100.3
		c0,0-0.1,0-0.1-0.1c-1-0.9-2.1-1.9-3.3-2.8c-0.1-0.1-0.1-0.2,0-0.3c0.1-0.1,0.2-0.1,0.3,0c1.2,0.9,2.2,1.9,3.3,2.8
		c0.1,0.1,0.1,0.2,0,0.3C343.9,100.3,343.9,100.3,343.8,100.3z M337.2,94.8h-0.1c-0.7-0.5-1.4-1-2.1-1.5c-0.5-0.3-0.9-0.7-1.4-0.9
		c-0.1-0.1-0.1-0.2-0.1-0.3c0-0.1,0.2-0.1,0.3-0.1c0.5,0.3,0.9,0.7,1.4,0.9c0.7,0.5,1.4,1,2.1,1.5c0.1,0.1,0.1,0.2,0,0.3
		C337.4,94.7,337.3,94.8,337.2,94.8z M88.1,92.9c-0.1,0-0.2-0.1-0.2-0.2c0-0.1,0.1-0.2,0.2-0.2c1.4,0,2.8,0,4.3,0
		c0.1,0,0.2,0.1,0.2,0.2c0,0.1-0.1,0.2-0.2,0.2C90.9,92.7,89.5,92.9,88.1,92.9z M83.8,92.7L83.8,92.7c-1.5,0-2.9-0.1-4.3-0.2
		c-0.1,0-0.2-0.1-0.2-0.2s0.1-0.2,0.2-0.2c1.4,0.1,2.8,0.1,4.3,0.2c0.1,0,0.2,0.1,0.2,0.2S83.9,92.7,83.8,92.7z M96.7,92.6
		c-0.1,0-0.2-0.1-0.2-0.2s0.1-0.2,0.2-0.2c1.4-0.1,2.8-0.1,4.3-0.2c0.1,0,0.2,0.1,0.2,0.2s-0.1,0.2-0.2,0.2
		C99.5,92.5,98.1,92.5,96.7,92.6L96.7,92.6z M75.3,92.3L75.3,92.3c-1.5-0.1-2.9-0.3-4.3-0.6c-0.1,0-0.2-0.1-0.2-0.2
		c0-0.1,0.1-0.2,0.2-0.2c1.3,0.2,2.8,0.3,4.2,0.6c0.1,0,0.2,0.1,0.2,0.2C75.4,92.2,75.4,92.3,75.3,92.3z M105.2,92.2
		c-0.1,0-0.2-0.1-0.2-0.2s0.1-0.2,0.2-0.2c1.4-0.1,2.8-0.2,4.3-0.2c0.1,0,0.2,0.1,0.2,0.2s-0.1,0.2-0.2,0.2
		C108.1,92,106.6,92,105.2,92.2L105.2,92.2z M113.8,91.6c-0.1,0-0.2-0.1-0.2-0.2s0.1-0.2,0.2-0.2c1.4-0.1,2.8-0.2,4.3-0.3
		c0.1,0,0.2,0.1,0.2,0.2c0,0.1-0.1,0.2-0.2,0.2C116.6,91.3,115.2,91.5,113.8,91.6L113.8,91.6z M66.8,90.9L66.8,90.9
		c-1.5-0.3-2.9-0.8-4.2-1.3c-0.1,0-0.2-0.2-0.1-0.3c0.1-0.1,0.2-0.2,0.3-0.1c1.2,0.5,2.6,0.9,4.1,1.3c0.1,0,0.2,0.1,0.1,0.2
		C67,90.8,66.9,90.9,66.8,90.9z M122.3,90.8c-0.1,0-0.2-0.1-0.2-0.2s0.1-0.2,0.2-0.2c1.4-0.1,2.8-0.2,4.3-0.5c0.1,0,0.2,0.1,0.2,0.2
		s-0.1,0.2-0.2,0.2C125.2,90.5,123.7,90.6,122.3,90.8L122.3,90.8z M330.2,89.9h-0.1c-1.2-0.7-2.4-1.3-3.8-2
		c-0.1-0.1-0.1-0.2-0.1-0.3c0-0.1,0.2-0.2,0.3-0.1c1.3,0.6,2.6,1.3,3.8,2c0.1,0.1,0.1,0.2,0.1,0.3C330.3,89.9,330.2,89.9,330.2,89.9
		z M130.8,89.9c-0.1,0-0.2-0.1-0.2-0.2c0-0.1,0.1-0.2,0.2-0.2c1.4-0.1,2.8-0.2,4.3-0.5c0.1,0,0.2,0.1,0.2,0.2c0,0.1-0.1,0.2-0.2,0.2
		C133.7,89.7,132.3,89.8,130.8,89.9C130.9,89.9,130.9,89.9,130.8,89.9z M139.4,89c-0.1,0-0.2-0.1-0.2-0.2s0.1-0.2,0.2-0.2
		c1.4-0.1,2.8-0.3,4.3-0.5c0.1,0,0.2,0.1,0.2,0.2s-0.1,0.2-0.2,0.2C142.2,88.7,140.8,88.9,139.4,89L139.4,89z M147.9,88.1
		c-0.1,0-0.2-0.1-0.2-0.2s0.1-0.2,0.2-0.2c1.4-0.1,2.8-0.3,4.3-0.5c0.1,0,0.2,0.1,0.2,0.2c0,0.1-0.1,0.2-0.2,0.2
		C150.8,87.7,149.3,88,147.9,88.1L147.9,88.1z M58.8,87.6h-0.1c-1.3-0.9-2.3-1.9-3.1-3c-0.1-0.1,0-0.2,0.1-0.3
		c0.1-0.1,0.2,0,0.3,0.1c0.7,1,1.7,2.1,3,2.9c0.1,0.1,0.1,0.2,0.1,0.3C59.1,87.6,59,87.6,58.8,87.6z M156.4,87.1
		c-0.1,0-0.2-0.1-0.2-0.2s0.1-0.2,0.2-0.2l4.3-0.5c0.1,0,0.2,0.1,0.2,0.2s-0.1,0.2-0.2,0.2L156.4,87.1L156.4,87.1z M322.4,86.3
		C322.4,86.3,322.3,86.3,322.4,86.3c-1.4-0.5-2.7-1-4.1-1.5c-0.1,0-0.2-0.2-0.1-0.3c0.1-0.1,0.1-0.2,0.3-0.1
		c1.4,0.5,2.8,0.9,4.1,1.5c0.1,0,0.2,0.2,0.1,0.3C322.6,86.3,322.5,86.3,322.4,86.3z M165,86.1c-0.1,0-0.2-0.1-0.2-0.2
		s0.1-0.2,0.2-0.2l4.3-0.5c0.1,0,0.2,0.1,0.2,0.2s-0.1,0.2-0.2,0.2L165,86.1L165,86.1z M173.5,85.2c-0.1,0-0.2-0.1-0.2-0.2
		s0.1-0.2,0.2-0.2c1.4-0.1,2.8-0.3,4.3-0.5c0.1,0,0.2,0.1,0.2,0.2c0,0.1-0.1,0.2-0.2,0.2C176.3,84.8,174.9,84.9,173.5,85.2
		L173.5,85.2z M182,84.1c-0.1,0-0.2-0.1-0.2-0.2c0-0.1,0.1-0.2,0.2-0.2c1.4-0.1,2.8-0.3,4.3-0.5c0.1,0,0.2,0.1,0.2,0.2
		c0,0.1-0.1,0.2-0.2,0.2C184.9,83.8,183.4,84,182,84.1L182,84.1z M314.2,83.7L314.2,83.7c-1.4-0.3-2.8-0.7-4.2-1
		c-0.1,0-0.2-0.1-0.1-0.2c0-0.1,0.1-0.2,0.2-0.2c1.4,0.3,2.8,0.7,4.2,1c0.1,0,0.2,0.1,0.1,0.2C314.5,83.5,314.4,83.7,314.2,83.7z
		 M190.5,83.2c-0.1,0-0.2-0.1-0.2-0.2s0.1-0.2,0.2-0.2c1.4-0.1,2.9-0.3,4.3-0.5c0.1,0,0.2,0.1,0.2,0.2s-0.1,0.2-0.2,0.2
		C193.4,82.8,192,83.1,190.5,83.2L190.5,83.2z M199.1,82.3c-0.1,0-0.2-0.1-0.2-0.2s0.1-0.2,0.2-0.2c1.4-0.1,2.9-0.2,4.3-0.5
		c0.1,0,0.2,0.1,0.2,0.2s-0.1,0.2-0.2,0.2C201.9,82,200.5,82.1,199.1,82.3L199.1,82.3z M305.9,81.7L305.9,81.7
		c-1.4-0.2-2.8-0.6-4.3-0.8c-0.1,0-0.2-0.1-0.2-0.2s0.1-0.2,0.2-0.2c1.4,0.2,2.9,0.5,4.2,0.8c0.1,0,0.2,0.1,0.2,0.2
		C306.1,81.6,306,81.7,305.9,81.7z M207.6,81.4c-0.1,0-0.2-0.1-0.2-0.2s0.1-0.2,0.2-0.2c1.4-0.1,2.8-0.2,4.3-0.3
		c0.1,0,0.2,0.1,0.2,0.2s-0.1,0.2-0.2,0.2C210.5,81.2,209.1,81.3,207.6,81.4L207.6,81.4z M54.2,80.7c-0.1,0-0.2-0.1-0.2-0.2
		c-0.3-1.4-0.5-2.7-0.5-4.1v-0.2c0-0.1,0.1-0.2,0.2-0.2c0.1,0,0.2,0.1,0.2,0.2v0.2c0,1.3,0.1,2.7,0.5,4
		C54.5,80.5,54.4,80.6,54.2,80.7C54.3,80.7,54.2,80.7,54.2,80.7z M216.1,80.6c-0.1,0-0.2-0.1-0.2-0.2s0.1-0.2,0.2-0.2
		c1.4-0.1,2.8-0.2,4.3-0.3c0.1,0,0.2,0.1,0.2,0.2c0,0.1-0.1,0.2-0.2,0.2C219,80.4,217.6,80.5,216.1,80.6L216.1,80.6z M297.5,80.3
		L297.5,80.3c-1.4-0.2-2.8-0.3-4.3-0.6c-0.1,0-0.2-0.1-0.2-0.2s0.1-0.2,0.2-0.2c1.4,0.1,2.9,0.3,4.3,0.6c0.1,0,0.2,0.1,0.2,0.2
		S297.6,80.3,297.5,80.3z M224.7,79.9c-0.1,0-0.2-0.1-0.2-0.2s0.1-0.2,0.2-0.2c1.4-0.1,2.9-0.2,4.3-0.3c0.1,0,0.2,0.1,0.2,0.2
		c0,0.1-0.1,0.2-0.2,0.2C227.5,79.7,226.1,79.8,224.7,79.9L224.7,79.9z M233.2,79.3c-0.1,0-0.2-0.1-0.2-0.2s0.1-0.2,0.2-0.2
		c1.4-0.1,2.9-0.2,4.3-0.2c0.1,0,0.2,0.1,0.2,0.2s-0.1,0.2-0.2,0.2C236.1,79.1,234.6,79.2,233.2,79.3L233.2,79.3z M288.9,79.2
		L288.9,79.2c-1.4-0.1-2.8-0.2-4.3-0.3c-0.1,0-0.2-0.1-0.2-0.2s0.1-0.2,0.2-0.2c1.4,0.1,2.9,0.2,4.3,0.3c0.1,0,0.2,0.1,0.2,0.2
		S289.1,79.2,288.9,79.2z M241.8,78.9c-0.1,0-0.2-0.1-0.2-0.2s0.1-0.2,0.2-0.2c1.4-0.1,2.9-0.1,4.3-0.2c0.1,0,0.2,0.1,0.2,0.2
		s-0.1,0.2-0.2,0.2C244.6,78.8,243.2,78.8,241.8,78.9L241.8,78.9z M280.4,78.6L280.4,78.6c-1.4-0.1-2.9-0.1-4.3-0.2
		c-0.1,0-0.2-0.1-0.2-0.2c0-0.1,0.1-0.2,0.2-0.2c1.4,0.1,2.9,0.1,4.3,0.2c0.1,0,0.2,0.1,0.2,0.2C280.6,78.5,280.5,78.6,280.4,78.6z
		 M250.3,78.5c-0.1,0-0.2-0.1-0.2-0.2s0.1-0.2,0.2-0.2c1.4,0,2.9-0.1,4.3-0.1c0.1,0,0.2,0.1,0.2,0.2c0,0.1-0.1,0.2-0.2,0.2
		C253.2,78.4,251.9,78.4,250.3,78.5L250.3,78.5z M271.8,78.3L271.8,78.3c-1.4,0-2.9-0.1-4.3-0.1c-0.1,0-0.2-0.1-0.2-0.2
		s0.1-0.2,0.2-0.2l0,0c1.4,0,2.9,0,4.3,0.1c0.1,0,0.2,0.1,0.2,0.2S272,78.3,271.8,78.3z M259,78.3c-0.1,0-0.2-0.1-0.2-0.2
		s0.1-0.2,0.2-0.2c1.4,0,2.9,0,4.3,0c0.1,0,0.2,0.1,0.2,0.2s-0.1,0.2-0.2,0.2C261.9,78.3,260.3,78.3,259,78.3z M54.4,72.2
		C54.3,72.2,54.3,72.2,54.4,72.2c-0.2,0-0.2-0.2-0.2-0.3c0.3-1.3,0.9-2.7,1.6-4c0.1-0.1,0.2-0.1,0.3-0.1c0.1,0.1,0.1,0.2,0.1,0.3
		c-0.7,1.3-1.3,2.6-1.6,3.8C54.5,72.2,54.4,72.2,54.4,72.2z M58.5,64.9c-0.1,0-0.1,0-0.1-0.1c-0.1-0.1-0.1-0.2,0-0.3
		c0.9-1,1.9-2.1,3-3.1c0.1-0.1,0.2-0.1,0.3,0c0.1,0.1,0.1,0.2,0,0.3c-1,1-2.1,2-2.9,3C58.6,64.9,58.5,64.9,58.5,64.9z M64.8,59.1
		c-0.1,0-0.1,0-0.2-0.1c-0.1-0.1-0.1-0.2,0-0.3c1-0.8,2.3-1.6,3.6-2.4c0.1-0.1,0.2,0,0.3,0.1c0.1,0.1,0,0.2-0.1,0.3
		c-1.3,0.8-2.4,1.6-3.5,2.4C64.9,59.1,64.9,59.1,64.8,59.1z M72.1,54.6c-0.1,0-0.1,0-0.2-0.1c-0.1-0.1,0-0.2,0.1-0.3
		c1.3-0.7,2.4-1.3,3.8-2c0.1-0.1,0.2,0,0.3,0.1c0.1,0.1,0,0.2-0.1,0.3C74.7,53.3,73.4,53.9,72.1,54.6L72.1,54.6z M79.8,50.8
		c-0.1,0-0.1-0.1-0.2-0.1c-0.1-0.1,0-0.2,0.1-0.3c1.3-0.6,2.6-1,4-1.6c0.1,0,0.2,0,0.3,0.1c0,0.1,0,0.2-0.1,0.3
		C82.5,49.8,81.2,50.2,79.8,50.8L79.8,50.8z M87.8,47.7c-0.1,0-0.2,0-0.2-0.1c0-0.1,0-0.2,0.1-0.3c1.3-0.5,2.7-0.9,4.1-1.4
		c0.1,0,0.2,0,0.3,0.1c0.1,0.1,0,0.2-0.1,0.3C90.5,46.8,89.2,47.2,87.8,47.7L87.8,47.7z M96,45.1c-0.1,0-0.2-0.1-0.2-0.1
		c0-0.1,0-0.2,0.1-0.3c1.4-0.3,2.8-0.8,4.2-1.2c0.1,0,0.2,0,0.2,0.1c0,0.1,0,0.2-0.1,0.2C98.8,44.3,97.4,44.7,96,45.1L96,45.1z
		 M104.2,42.8c-0.1,0-0.2-0.1-0.2-0.2c0-0.1,0-0.2,0.1-0.2c1.4-0.3,2.8-0.7,4.2-1c0.1,0,0.2,0,0.2,0.2c0,0.2,0,0.2-0.1,0.2
		C107,42.1,105.6,42.4,104.2,42.8L104.2,42.8z M112.6,40.8c-0.1,0-0.2-0.1-0.2-0.2c0-0.1,0.1-0.2,0.1-0.2c1.4-0.3,2.8-0.6,4.2-0.9
		c0.1,0,0.2,0,0.2,0.2s-0.1,0.2-0.2,0.2C115.4,40.2,114,40.5,112.6,40.8L112.6,40.8z M121,39.1c-0.1,0-0.2-0.1-0.2-0.2
		c0-0.1,0.1-0.2,0.2-0.2c1.4-0.2,2.8-0.6,4.2-0.8c0.1,0,0.2,0.1,0.2,0.2s-0.1,0.2-0.2,0.2C123.8,38.6,122.4,38.8,121,39.1L121,39.1z
		 M129.5,37.6c-0.1,0-0.2-0.1-0.2-0.2c0-0.1,0.1-0.2,0.2-0.2c1.4-0.2,2.8-0.5,4.2-0.7c0.1,0,0.2,0.1,0.2,0.2c0,0.1-0.1,0.2-0.2,0.2
		C132.3,37.2,130.9,37.3,129.5,37.6L129.5,37.6z M138,36.4c-0.1,0-0.2-0.1-0.2-0.2c0-0.1,0.1-0.2,0.2-0.2c1.4-0.2,2.8-0.3,4.3-0.6
		c0.1,0,0.2,0.1,0.2,0.2c0,0.1-0.1,0.2-0.2,0.2C140.8,36,139.4,36.2,138,36.4L138,36.4z M146.5,35.3c-0.1,0-0.2-0.1-0.2-0.2
		c0-0.1,0.1-0.2,0.2-0.2c1.4-0.1,2.9-0.2,4.3-0.5c0.1,0,0.2,0.1,0.2,0.2c0,0.1-0.1,0.2-0.2,0.2C149.3,35.1,147.9,35.2,146.5,35.3
		L146.5,35.3z M155,34.6c-0.1,0-0.2-0.1-0.2-0.2c0-0.1,0.1-0.2,0.2-0.2c1.4-0.1,2.9-0.2,4.3-0.2c0.1,0,0.2,0.1,0.2,0.2
		c0,0.1-0.1,0.2-0.2,0.2C157.9,34.4,156.5,34.5,155,34.6L155,34.6z M163.6,34.1c-0.1,0-0.2-0.1-0.2-0.2c0-0.1,0.1-0.2,0.2-0.2
		c1.5,0,2.9-0.1,4.3-0.1c0.1,0,0.2,0.1,0.2,0.2c0,0.1-0.1,0.2-0.2,0.2C166.5,33.9,165,34.1,163.6,34.1L163.6,34.1z"/>
	<path class="st6" d="M174.3,33.9L174.3,33.9c-0.7,0-1.4,0-2.2,0c-0.1,0-0.2-0.1-0.2-0.2c0-0.1,0.1-0.2,0.2-0.2c0.7,0,1.4,0,2.2,0
		c0.1,0,0.2,0.1,0.2,0.2C174.6,33.8,174.6,33.9,174.3,33.9z"/>
	
		<linearGradient id="SVGID_00000029034207767470001720000002703407010381108366_" gradientUnits="userSpaceOnUse" x1="69.1294" y1="-1219.9603" x2="73.7535" y2="-1218.5348" gradientTransform="matrix(1 0 0 -1 0 -1068.5674)">
		<stop  offset="0" style="stop-color:#565FD6"/>
		<stop  offset="1" style="stop-color:#3F0BA1"/>
	</linearGradient>
	<path style="fill:url(#SVGID_00000029034207767470001720000002703407010381108366_);" d="M74,150.8l-2.8,2.4l-2.4-2.7l2.8-2.4
		L74,150.8z"/>
	
		<linearGradient id="SVGID_00000072240918317276628800000010710373670723068860_" gradientUnits="userSpaceOnUse" x1="73.8866" y1="-1232.4088" x2="88.6851" y2="-1227.8472" gradientTransform="matrix(1 0 0 -1 0 -1068.5674)">
		<stop  offset="0" style="stop-color:#565FD6"/>
		<stop  offset="1" style="stop-color:#3F0BA1"/>
	</linearGradient>
	<path style="fill:url(#SVGID_00000072240918317276628800000010710373670723068860_);" d="M91,167.2c1,1,0.6,3-1,4.3
		c-1.5,1.4-3.5,1.5-4.4,0.5l-12-14.9l-0.7-0.8l-0.5-0.6l-0.7-0.8l-0.8-1l3.8-3.4l0.9,0.9l0.7,0.8l0.6,0.6l0.7,0.8L91,167.2z"/>
	
		<linearGradient id="SVGID_00000103976760243430989560000007542634695371926168_" gradientUnits="userSpaceOnUse" x1="71.4721" y1="-1222.0687" x2="76.408" y2="-1222.0687" gradientTransform="matrix(1 0 0 -1 0 -1068.5674)">
		<stop  offset="0" style="stop-color:#FFDB45"/>
		<stop  offset="1" style="stop-color:#FFA35C"/>
	</linearGradient>
	<path style="fill:url(#SVGID_00000103976760243430989560000007542634695371926168_);" d="M76.4,152.3l-4,3.5l-0.9-1.2l3.8-3.5
		L76.4,152.3z"/>
	
		<linearGradient id="SVGID_00000119119139813700851600000000049992019359008435_" gradientUnits="userSpaceOnUse" x1="73.1925" y1="-1224.1058" x2="78.2625" y2="-1224.1058" gradientTransform="matrix(1 0 0 -1 0 -1068.5674)">
		<stop  offset="0" style="stop-color:#FFDB45"/>
		<stop  offset="1" style="stop-color:#FFA35C"/>
	</linearGradient>
	<path style="fill:url(#SVGID_00000119119139813700851600000000049992019359008435_);" d="M78.3,154.3l-4.1,3.6l-0.9-1.2l4-3.6
		L78.3,154.3z"/>
	
		<linearGradient id="SVGID_00000126309410231171452400000015358483903653369224_" gradientUnits="userSpaceOnUse" x1="33.5803" y1="-1201.5525" x2="76.5753" y2="-1199.7402" gradientTransform="matrix(1 0 0 -1 0 -1068.5674)">
		<stop  offset="0" style="stop-color:#FFB8F5"/>
		<stop  offset="1" style="stop-color:#85F1FF"/>
	</linearGradient>
	<path style="fill:url(#SVGID_00000126309410231171452400000015358483903653369224_);" d="M34.4,138c-3.3-11.4,3.4-23.4,14.8-26.7
		c11.4-3.3,23.4,3.3,26.7,14.8c3.3,11.4-3.4,23.4-14.8,26.7C49.5,156.1,37.7,149.4,34.4,138z"/>
	
		<linearGradient id="SVGID_00000087388160402900274560000009815586108608774543_" gradientUnits="userSpaceOnUse" x1="62.1792" y1="-1222.5072" x2="47.858" y2="-1178.804" gradientTransform="matrix(1 0 0 -1 0 -1068.5674)">
		<stop  offset="0" style="stop-color:#565FD6"/>
		<stop  offset="1" style="stop-color:#3F0BA1"/>
	</linearGradient>
	<path style="fill:url(#SVGID_00000087388160402900274560000009815586108608774543_);" d="M39.7,114.9c-9.5,8.5-10.5,23-2.1,32.5
		c8.4,9.5,23,10.4,32.6,1.9c9.5-8.5,10.5-23,2.1-32.5C63.8,107.3,49.3,106.4,39.7,114.9z M69.1,148c-8.8,7.8-22.4,7.1-30.2-1.7
		c-7.8-8.8-7-22.4,1.9-30.2c8.8-7.8,22.4-7.1,30.2,1.7S77.9,140.2,69.1,148z"/>
	<path class="st5" d="M40.8,129.1c-0.8,6.1,2.2,10.5,1.7,10.6c-0.6,0.2-5.7-5.5-4.7-11.8c1-6.3,7.6-10,8.1-9.5
		C46.5,118.7,41.6,122.4,40.8,129.1z"/>
	<path class="st5" d="M44.8,141.3c0.9,0.1,1.6,0.8,1.5,1.7c-0.1,0.9-0.8,1.6-1.7,1.5c-0.9-0.1-1.6-0.8-1.5-1.7
		C43.1,142,43.8,141.3,44.8,141.3z"/>
	<path class="st13" d="M256.2,64.1H92.6c-5.9,0-10.7,4.8-10.7,10.6v9.8h3v216.2c0,4.2,3.4,7.6,7.6,7.6H256c4.2,0,7.6-3.4,7.6-7.6
		V84.6h3.1v-9.8C266.9,68.9,262.1,64.1,256.2,64.1z M97.6,216.8c-0.3,0-0.8,0-1.2-0.1c-2.1-0.3-3.8-1.4-5-3
		c-0.9-1.3-1.4-2.8-1.4-4.4c0-1.4,0.5-2.8,1-4c1-1.7,2.7-2.9,4.8-3.4c0.6-0.1,1.2-0.2,1.7-0.2c4.2,0,7.6,3.4,7.6,7.6
		C105.1,213.5,101.7,216.8,97.6,216.8z"/>
	
		<linearGradient id="SVGID_00000017497643196682035460000003403826062268685445_" gradientUnits="userSpaceOnUse" x1="174.3782" y1="-1151.8102" x2="174.3782" y2="-1378.8386" gradientTransform="matrix(1 0 0 -1 0 -1068.5674)">
		<stop  offset="0" style="stop-color:#6ED1FF"/>
		<stop  offset="1" style="stop-color:#1C57ED"/>
	</linearGradient>
	<path style="fill:url(#SVGID_00000017497643196682035460000003403826062268685445_);" d="M256.2,67.2H92.6c-4.2,0-7.6,3.4-7.6,7.6
		v226c0,4.2,3.4,7.6,7.6,7.6h163.6c4.2,0,7.6-3.4,7.6-7.6v-226C263.7,70.6,260.3,67.2,256.2,67.2z M97.6,216.8c-0.3,0-0.8,0-1.2-0.1
		c-2.1-0.3-3.8-1.4-5-3c-0.9-1.3-1.4-2.8-1.4-4.4c0-1.4,0.5-2.8,1-4c1-1.7,2.7-2.9,4.8-3.4c0.6-0.1,1.2-0.2,1.7-0.2
		c4.2,0,7.6,3.4,7.6,7.6C105.1,213.5,101.7,216.8,97.6,216.8z"/>
	<path class="st5" d="M256.2,64.1H92.6c-5.9,0-10.7,4.8-10.7,10.6v226c0,5.8,4.8,10.6,10.7,10.6h163.6c5.9,0,10.7-4.8,10.7-10.6
		V74.8C266.9,68.9,262.1,64.1,256.2,64.1z M263.7,300.8c0,4.2-3.4,7.6-7.6,7.6H92.6c-4.2,0-7.6-3.4-7.6-7.6V96.3
		c0-6.5,5.2-11.8,11.8-11.8H252c6.5,0,11.8,5.2,11.8,11.8V300.8L263.7,300.8z"/>
	
		<linearGradient id="SVGID_00000140723675245679117990000005061948508626483119_" gradientUnits="userSpaceOnUse" x1="288.3948" y1="-1144.8873" x2="46.8384" y2="-1144.8873" gradientTransform="matrix(1 0 0 -1 0 -1068.5674)">
		<stop  offset="0" style="stop-color:#6ED1FF"/>
		<stop  offset="1" style="stop-color:#1C57ED"/>
	</linearGradient>
	<path style="fill:url(#SVGID_00000140723675245679117990000005061948508626483119_);" d="M111,78.2c-1,0-2-0.8-2-1.9s0.8-1.9,2-1.9
		c1,0,1.9,0.8,1.9,1.9C113,77.4,112,78.2,111,78.2z M103.2,76.3c0-1-0.8-1.9-2-1.9c-1,0-1.9,0.8-1.9,1.9s0.8,1.9,1.9,1.9
		C102.3,78.2,103.2,77.4,103.2,76.3z M93.4,76.3c0-1-0.8-1.9-1.9-1.9c-1,0-1.9,0.8-1.9,1.9s0.8,1.9,1.9,1.9S93.4,77.4,93.4,76.3z"/>
	
		<linearGradient id="SVGID_00000052825398441522558840000008197796186096873858_" gradientUnits="userSpaceOnUse" x1="288.3948" y1="-1144.8873" x2="46.8393" y2="-1144.8873" gradientTransform="matrix(1 0 0 -1 0 -1068.5674)">
		<stop  offset="0" style="stop-color:#6ED1FF"/>
		<stop  offset="1" style="stop-color:#1C57ED"/>
	</linearGradient>
	<path style="fill:url(#SVGID_00000052825398441522558840000008197796186096873858_);" d="M219.5,78.2h40.4c1,0,1.9-0.8,1.9-1.9
		s-0.8-1.9-1.9-1.9h-40.4c-1,0-1.9,0.8-1.9,1.9S218.4,78.2,219.5,78.2z"/>
	<path class="st17" d="M204.1,161.1h-34.6v30.3h34.6V161.1z"/>
	<path class="st17" d="M245.7,161.1H212v30.3h33.6V161.1z"/>
	
		<linearGradient id="SVGID_00000104672870812060441330000006208026204571831738_" gradientUnits="userSpaceOnUse" x1="206.0423" y1="-1228.3236" x2="206.0423" y2="-1268.3452" gradientTransform="matrix(1 0 0 -1 0 -1068.5674)">
		<stop  offset="0" style="stop-color:#52F4FF"/>
		<stop  offset="1" style="stop-color:#42BDFF"/>
	</linearGradient>
	<path style="fill:url(#SVGID_00000104672870812060441330000006208026204571831738_);" d="M167.9,159.2h34.6v30.3h-34.6L167.9,159.2
		L167.9,159.2z M210.5,189.5h33.6v-30.3h-33.6V189.5z"/>
	<path class="st17" d="M130.2,147.8c3.1,0,6.3-0.8,9.1-2.4c2.3-1.4,4.4-3.3,5.9-5.5l-14.8-8.8l-11.9,12.5
		C121.8,146.3,125.9,147.8,130.2,147.8z"/>
	<path class="st17" d="M149.6,138.7c1.2-2.2,1.9-4.7,2-7.2h-14.1L149.6,138.7z"/>
	<path class="st17" d="M129,129.4v-17.6c-9.4,0.6-17,8.4-17,18c0,4.7,1.7,9,4.9,12.3L129,129.4z"/>
	<path class="st17" d="M131.2,111.8v16.9h17C147.7,119.6,140.3,112.3,131.2,111.8z"/>
	<path class="st17" d="M111,166.3h39.9c0.5,0,0.7-0.3,0.7-0.7v-4.8c0-0.5-0.3-0.7-0.7-0.7H111c-0.5,0-0.7,0.3-0.7,0.7v4.8
		C110.3,166,110.6,166.3,111,166.3z"/>
	<path class="st17" d="M111,178.3h39.9c0.5,0,0.7-0.3,0.7-0.7v-4.8c0-0.5-0.3-0.7-0.7-0.7H111c-0.5,0-0.7,0.3-0.7,0.7v4.8
		C110.3,178.1,110.6,178.3,111,178.3z"/>
	<path class="st17" d="M111,190.4h39.9c0.5,0,0.7-0.3,0.7-0.7v-4.8c0-0.5-0.3-0.7-0.7-0.7H111c-0.5,0-0.7,0.3-0.7,0.7v4.8
		C110.3,190.1,110.6,190.4,111,190.4z"/>
	<path class="st17" d="M184.1,230.4h-71.8c-2.2,0-4.1,2.1-4.1,4.7V283c0,2.6,1.9,4.7,4.1,4.7h71.8c2.2,0,4.1-2.1,4.1-4.7v-47.8
		C188.2,232.5,186.4,230.4,184.1,230.4z"/>
	<path class="st17" d="M198.1,242.9c0,0.3,0.2,0.7,0.6,0.7h8.7c0.3,0,0.6-0.2,0.6-0.7v-1.3c0-0.3-0.2-0.7-0.6-0.7h-8.7
		c-0.3,0-0.6,0.2-0.6,0.7V242.9z"/>
	<path class="st17" d="M242.4,284h-43.8c-0.3,0-0.6,0.2-0.6,0.6v1.3c0,0.3,0.2,0.6,0.6,0.6h43.8c0.3,0,0.6-0.2,0.6-0.6v-1.3
		C243.1,284.2,242.8,284,242.4,284z"/>
	<path class="st17" d="M198.1,275.2c0,0.3,0.2,0.6,0.6,0.6h8.7c0.3,0,0.6-0.2,0.6-0.6v-1.3c0-0.3-0.2-0.6-0.6-0.6h-8.7
		c-0.3,0-0.6,0.2-0.6,0.6V275.2z"/>
	<path class="st17" d="M242.7,240.9h-27.4c-0.3,0-0.6,0.2-0.6,0.7v1.3c0,0.3,0.2,0.7,0.6,0.7h27.4c0.3,0,0.6-0.2,0.6-0.7v-1.3
		C243.2,241.3,243,240.9,242.7,240.9z"/>
	<path class="st17" d="M242.7,273.3h-27.4c-0.3,0-0.6,0.2-0.6,0.6v1.3c0,0.3,0.2,0.6,0.6,0.6h27.4c0.3,0,0.6-0.2,0.6-0.6v-1.3
		C243.2,273.6,243,273.3,242.7,273.3z"/>
	<path class="st17" d="M198.8,234.2h43.8c0.3,0,0.6-0.2,0.6-0.7v-1.3c0-0.3-0.2-0.7-0.6-0.7h-43.8c-0.3,0-0.6,0.2-0.6,0.7v1.3
		C198.1,233.8,198.4,234.2,198.8,234.2z"/>
	<path class="st17" d="M198.1,253.5c0,0.3,0.2,0.7,0.6,0.7h43.8c0.3,0,0.6-0.2,0.6-0.7v-1.3c0-0.3-0.2-0.7-0.6-0.7h-43.8
		c-0.3,0-0.6,0.2-0.6,0.7V253.5L198.1,253.5z"/>
	<path class="st17" d="M198.1,265.8c0,0.3,0.2,0.7,0.6,0.7h43.8c0.3,0,0.6-0.2,0.6-0.7v-1.3c0-0.3-0.2-0.7-0.6-0.7h-43.8
		c-0.3,0-0.6,0.2-0.6,0.7V265.8L198.1,265.8z"/>
	<path class="st17" d="M207,132.4h-37c-0.5,0-0.9,0.5-0.9,0.9c0,0.5,0.3,0.9,0.9,0.9h37c0.5,0,0.9-0.5,0.9-0.9
		C208,132.9,207.5,132.4,207,132.4z"/>
	<path class="st17" d="M170,143.6h22.2c0.5,0,0.9-0.5,0.9-0.9c0-0.5-0.3-0.9-0.9-0.9H170c-0.5,0-0.9,0.5-0.9,0.9
		C169.1,143.1,169.4,143.6,170,143.6z"/>
	<path class="st17" d="M196.2,142.7c0,0.5,0.3,0.9,0.9,0.9h34.6c0.5,0,0.9-0.5,0.9-0.9c0-0.5-0.3-0.9-0.9-0.9h-34.6
		C196.6,141.7,196.2,142.2,196.2,142.7z"/>
	<path class="st17" d="M197,116.5h34.6c0.5,0,0.9-0.3,0.9-0.9s-0.3-0.9-0.9-0.9H197c-0.5,0-0.9,0.3-0.9,0.9S196.6,116.5,197,116.5z"
		/>
	<path class="st17" d="M170,116.5h22.2c0.5,0,0.9-0.3,0.9-0.9s-0.3-0.9-0.9-0.9H170c-0.5,0-0.9,0.3-0.9,0.9
		C169.1,116,169.4,116.5,170,116.5z"/>
	<path class="st17" d="M237.3,116.5h7.2c0.5,0,0.7-0.3,0.7-0.8c0-0.5-0.3-0.8-0.7-0.8h-7.2c-0.5,0-0.7,0.3-0.7,0.8
		C236.5,116.1,236.8,116.5,237.3,116.5z"/>
	<path class="st17" d="M244.5,142h-7.2c-0.5,0-0.7,0.3-0.7,0.8c0,0.5,0.3,0.8,0.7,0.8h7.2c0.5,0,0.7-0.3,0.7-0.8
		C245.3,142.3,245,142,244.5,142z"/>
	<path class="st17" d="M244.4,124h-74.5c-0.5,0-0.9,0.5-0.9,0.9s0.3,0.9,0.9,0.9h74.5c0.5,0,0.9-0.5,0.9-0.9
		C245.3,124.4,244.9,124,244.4,124z"/>
	<path class="st17" d="M244.4,132.4h-28.5c-0.5,0-0.9,0.5-0.9,0.9c0,0.5,0.3,0.9,0.9,0.9h28.5c0.5,0,0.9-0.5,0.9-0.9
		C245.3,132.9,244.9,132.4,244.4,132.4z"/>
	<path class="st17" d="M111.7,207.1h39.5c0.8,0,1.5-0.6,1.5-1.4s-0.7-1.4-1.5-1.4h-39.5c-0.8,0-1.5,0.6-1.5,1.4
		S110.9,207.1,111.7,207.1z"/>
	<path class="st17" d="M159.8,207.1H221c0.8,0,1.5-0.6,1.5-1.4s-0.7-1.4-1.5-1.4h-61.2c-0.8,0-1.5,0.6-1.5,1.4
		C158.3,206.4,159,207.1,159.8,207.1z"/>
	<path class="st17" d="M243.7,214.2h-132c-0.8,0-1.5,0.6-1.5,1.4s0.7,1.4,1.5,1.4h132c0.8,0,1.5-0.6,1.5-1.4
		S244.6,214.2,243.7,214.2z"/>
	<path class="st17" d="M243.9,204.6h-12.8c-0.7,0-1.4,0.6-1.4,1.3s0.6,1.3,1.4,1.3h12.8c0.7,0,1.4-0.6,1.4-1.3
		S244.6,204.6,243.9,204.6z"/>
	<path class="st19" d="M128.9,147c-4.3,0-8.4-1.5-11.6-4.2l11.9-12.5l14.8,8.8c-1.5,2.2-3.6,4.1-5.9,5.5
		C135.3,146.2,132.2,147,128.9,147z M147.1,127.9c-0.6-9.1-7.9-16.4-17-16.9v16.9H147.1z M148.5,137.8c1.2-2.2,1.9-4.7,2-7.2h-14.1
		L148.5,137.8z M127.9,128.5v-17.6c-9.4,0.6-17,8.4-17,18c0,4.7,1.7,9,4.9,12.3L127.9,128.5z"/>
	
		<linearGradient id="SVGID_00000098903587683178101790000018380377377598897572_" gradientUnits="userSpaceOnUse" x1="109.0592" y1="-1230.9742" x2="150.4082" y2="-1230.9742" gradientTransform="matrix(1 0 0 -1 0 -1068.5674)">
		<stop  offset="0" style="stop-color:#FFDB45"/>
		<stop  offset="1" style="stop-color:#FFA35C"/>
	</linearGradient>
	<path style="fill:url(#SVGID_00000098903587683178101790000018380377377598897572_);" d="M149.6,165.5h-39.9
		c-0.5,0-0.7-0.3-0.7-0.7V160c0-0.5,0.3-0.7,0.7-0.7h39.9c0.5,0,0.7,0.3,0.7,0.7v4.8C150.5,165.1,150.1,165.5,149.6,165.5z"/>
	
		<linearGradient id="SVGID_00000181785239507119816290000009109032150999357080_" gradientUnits="userSpaceOnUse" x1="109.0592" y1="-1242.9647" x2="150.4082" y2="-1242.9647" gradientTransform="matrix(1 0 0 -1 0 -1068.5674)">
		<stop  offset="0" style="stop-color:#FFBAFE"/>
		<stop  offset="1" style="stop-color:#FF7AC6"/>
	</linearGradient>
	<path style="fill:url(#SVGID_00000181785239507119816290000009109032150999357080_);" d="M149.6,177.5h-39.9
		c-0.5,0-0.7-0.3-0.7-0.7V172c0-0.5,0.3-0.7,0.7-0.7h39.9c0.5,0,0.7,0.3,0.7,0.7v4.8C150.5,177.1,150.1,177.5,149.6,177.5z"/>
	
		<linearGradient id="SVGID_00000123429194947430933300000003372761829832166035_" gradientUnits="userSpaceOnUse" x1="109.0592" y1="-1254.9552" x2="150.4082" y2="-1254.9552" gradientTransform="matrix(1 0 0 -1 0 -1068.5674)">
		<stop  offset="0" style="stop-color:#FFBAFE"/>
		<stop  offset="1" style="stop-color:#FF7AC6"/>
	</linearGradient>
	<path style="fill:url(#SVGID_00000123429194947430933300000003372761829832166035_);" d="M149.6,189.5h-39.9
		c-0.5,0-0.7-0.3-0.7-0.7V184c0-0.5,0.3-0.7,0.7-0.7h39.9c0.5,0,0.7,0.3,0.7,0.7v4.8C150.5,189.1,150.1,189.5,149.6,189.5z"/>
	
		<linearGradient id="SVGID_00000085218383297269565020000001210534074385486259_" gradientUnits="userSpaceOnUse" x1="107.9649" y1="-1326.6652" x2="186.0776" y2="-1326.6652" gradientTransform="matrix(1 0 0 -1 0 -1068.5674)">
		<stop  offset="0" style="stop-color:#52F4FF"/>
		<stop  offset="1" style="stop-color:#42BDFF"/>
	</linearGradient>
	<path style="fill:url(#SVGID_00000085218383297269565020000001210534074385486259_);" d="M182.8,285.6h-71.6
		c-1.7,0-3.3-1.4-3.3-3.3v-48.5c0-1.7,1.4-3.3,3.3-3.3h71.6c1.7,0,3.3,1.4,3.3,3.3v48.5C186.1,284.2,184.7,285.6,182.8,285.6z"/>
	<path class="st5" d="M182.9,286.7h-71.8c-2.2,0-4.1-2.1-4.1-4.7v-47.8c0-2.6,1.9-4.7,4.1-4.7h71.8c2.2,0,4.1,2.1,4.1,4.7V282
		C187,284.6,185.3,286.7,182.9,286.7z M111.1,231.7c-1.3,0-2.2,1.2-2.2,2.6v47.8c0,1.4,1,2.6,2.2,2.6h71.8c1.2,0,2.2-1.2,2.2-2.6
		v-47.8c0-1.4-1-2.6-2.2-2.6L111.1,231.7L111.1,231.7z"/>
	<path class="st5" d="M117.2,272.7l13.6-19.1c0.7-1,2.2-0.9,2.9,0.1l11.6,18c0.7,1.2,2.3,1,3-0.1l2.6-4.8c0.7-1.3,2.4-1.3,3,0l2.2,4
		c0.7,1.3,2.7,1.2,3.1-0.2l6.2-15.6c0.6-1.5,2.8-1.5,3.4,0.1l6.1,18.2c0.3,1.2-0.5,2.3-1.6,2.3h-54.5
		C117.2,275.6,116.3,273.9,117.2,272.7z"/>
	<path class="st5" d="M143.7,247.3c0-2.9,2.3-5.2,5.1-5.2s5.1,2.3,5.1,5.2s-2.3,5.2-5.1,5.2S143.7,250.2,143.7,247.3z"/>
	<path class="st5" d="M132.9,245.1c-0.1,0-0.2,0-0.2,0c0-0.1,0-0.1,0-0.2c0-1.2-0.9-2.1-2.1-2.1c-0.9,0-1.7,0.7-2,1.6
		c-0.2-0.2-0.5-0.3-0.8-0.3c-0.5,0-0.8,0.2-1,0.6c-0.2-0.1-0.5-0.1-0.7-0.1c-0.9,0-1.6,0.8-1.6,1.7s0.7,1.7,1.6,1.7
		c0.3,0,0.7-0.1,1-0.3c0.6,0.5,1.5,0.8,2.4,0.8c0.9,0,1.9-0.2,2.4-0.7c0.2,0.2,0.6,0.3,0.9,0.3c0.8,0,1.4-0.7,1.4-1.5
		C134.3,245.7,133.6,245.1,132.9,245.1z"/>
	<path class="st5" d="M168.5,245.1c-0.1,0-0.2,0-0.2,0c0-0.1,0-0.1,0-0.2c0-1.2-0.9-2.1-2.1-2.1c-0.9,0-1.7,0.7-2,1.6
		c-0.2-0.2-0.5-0.3-0.8-0.3c-0.5,0-0.8,0.2-1,0.6c-0.2-0.1-0.5-0.1-0.7-0.1c-0.9,0-1.6,0.8-1.6,1.7s0.7,1.7,1.6,1.7
		c0.3,0,0.7-0.1,1-0.3c0.6,0.5,1.5,0.8,2.4,0.8s1.9-0.2,2.4-0.7c0.2,0.2,0.6,0.3,0.9,0.3c0.8,0,1.4-0.7,1.4-1.5
		C170,245.7,169.3,245.1,168.5,245.1z"/>
	
		<linearGradient id="SVGID_00000101097341947324508940000000188737636292377735_" gradientUnits="userSpaceOnUse" x1="196.904" y1="-1326.7234" x2="242.1185" y2="-1326.7234" gradientTransform="matrix(1 0 0 -1 0 -1068.5674)">
		<stop  offset="0" style="stop-color:#FFDB45"/>
		<stop  offset="1" style="stop-color:#FFA35C"/>
	</linearGradient>
	<path style="fill:url(#SVGID_00000101097341947324508940000000188737636292377735_);" d="M241.3,233.4h-43.8
		c-0.3,0-0.6-0.2-0.6-0.7v-1.3c0-0.3,0.2-0.7,0.6-0.7h43.8c0.3,0,0.6,0.2,0.6,0.7v1.3C242,233,241.6,233.4,241.3,233.4z M242,252.7
		v-1.3c0-0.3-0.2-0.7-0.6-0.7h-43.8c-0.3,0-0.6,0.2-0.6,0.7v1.3c0,0.3,0.2,0.7,0.6,0.7h43.8C241.6,253.3,242,253,242,252.7z
		 M242.1,242v-1.3c0-0.3-0.2-0.7-0.6-0.7h-27.4c-0.3,0-0.6,0.2-0.6,0.7v1.3c0,0.3,0.2,0.7,0.6,0.7h27.4
		C241.8,242.7,242.1,242.3,242.1,242z M206.9,242v-1.3c0-0.3-0.2-0.7-0.6-0.7h-8.7c-0.3,0-0.6,0.2-0.6,0.7v1.3
		c0,0.3,0.2,0.7,0.6,0.7h8.7C206.6,242.7,206.9,242.3,206.9,242z M242,265v-1.3c0-0.3-0.2-0.7-0.6-0.7h-43.8c-0.3,0-0.6,0.2-0.6,0.7
		v1.3c0,0.3,0.2,0.7,0.6,0.7h43.8C241.6,265.6,242,265.4,242,265z M242,285v-1.3c0-0.3-0.2-0.6-0.6-0.6h-43.8
		c-0.3,0-0.6,0.2-0.6,0.6v1.3c0,0.3,0.2,0.6,0.6,0.6h43.8C241.6,285.6,242,285.4,242,285z M242.1,274.3v-1.3c0-0.3-0.2-0.7-0.6-0.7
		h-27.4c-0.3,0-0.6,0.2-0.6,0.7v1.3c0,0.3,0.2,0.6,0.6,0.6h27.4C241.8,274.9,242.1,274.7,242.1,274.3z M206.9,274.3v-1.3
		c0-0.3-0.2-0.7-0.6-0.7h-8.7c-0.3,0-0.6,0.2-0.6,0.7v1.3c0,0.3,0.2,0.6,0.6,0.6h8.7C206.6,274.9,206.9,274.7,206.9,274.3z"/>
	
		<linearGradient id="SVGID_00000138551526126251632920000016185620117229413807_" gradientUnits="userSpaceOnUse" x1="205.8677" y1="-1182.8043" x2="205.8677" y2="-1219.6589" gradientTransform="matrix(1 0 0 -1 0 -1068.5674)">
		<stop  offset="0" style="stop-color:#52F4FF"/>
		<stop  offset="1" style="stop-color:#42BDFF"/>
	</linearGradient>
	<path style="fill:url(#SVGID_00000138551526126251632920000016185620117229413807_);" d="M191.1,115.7h-22.2
		c-0.5,0-0.9-0.3-0.9-0.9s0.3-0.9,0.9-0.9h22.2c0.5,0,0.9,0.3,0.9,0.9S191.5,115.7,191.1,115.7z M231.2,114.7c0-0.5-0.3-0.9-0.9-0.9
		h-34.6c-0.5,0-0.9,0.3-0.9,0.9s0.3,0.9,0.9,0.9h34.6C230.9,115.7,231.2,115.2,231.2,114.7z M244.1,114.9c0-0.5-0.3-0.8-0.7-0.8
		h-7.2c-0.5,0-0.7,0.3-0.7,0.8c0,0.5,0.3,0.8,0.7,0.8h7.2C243.7,115.7,244.1,115.2,244.1,114.9z M244.1,124c0-0.5-0.3-0.9-0.9-0.9
		h-74.5c-0.5,0-0.9,0.5-0.9,0.9s0.3,0.9,0.9,0.9h74.5C243.7,125,244.1,124.6,244.1,124z M191.9,141.9c0-0.5-0.3-0.9-0.9-0.9h-22.2
		c-0.5,0-0.9,0.5-0.9,0.9c0,0.5,0.3,0.9,0.9,0.9h22.4C191.5,142.7,191.9,142.3,191.9,141.9z M231.2,141.9c0-0.5-0.3-0.9-0.9-0.9
		h-34.6c-0.5,0-0.9,0.5-0.9,0.9c0,0.5,0.3,0.9,0.9,0.9h34.6C230.9,142.7,231.2,142.3,231.2,141.9z M206.7,132.4
		c0-0.5-0.3-0.9-0.9-0.9h-37c-0.5,0-0.9,0.5-0.9,0.9c0,0.5,0.3,0.9,0.9,0.9h37C206.3,133.4,206.7,132.9,206.7,132.4z M244.1,132.4
		c0-0.5-0.3-0.9-0.9-0.9h-28.5c-0.5,0-0.9,0.5-0.9,0.9c0,0.5,0.3,0.9,0.9,0.9h28.5C243.7,133.4,244.1,132.9,244.1,132.4z M244.1,142
		c0-0.5-0.3-0.8-0.7-0.8h-7.2c-0.5,0-0.7,0.3-0.7,0.8c0,0.5,0.3,0.8,0.7,0.8h7.2C243.7,142.7,244.1,142.3,244.1,142z"/>
	
		<linearGradient id="SVGID_00000021095108727792092170000010689712061146380970_" gradientUnits="userSpaceOnUse" x1="110.3573" y1="-1278.2959" x2="242.8584" y2="-1278.2959" gradientTransform="matrix(1 0 0 -1 0 -1068.5674)">
		<stop  offset="0" style="stop-color:#FFBAFE"/>
		<stop  offset="1" style="stop-color:#FF7AC6"/>
	</linearGradient>
	<path style="fill:url(#SVGID_00000021095108727792092170000010689712061146380970_);" d="M150,206.2h-39.5c-0.8,0-1.5-0.6-1.5-1.4
		c0-0.8,0.7-1.4,1.5-1.4H150c0.8,0,1.5,0.6,1.5,1.4C151.6,205.5,150.9,206.2,150,206.2z M221.4,204.7c0-0.8-0.7-1.4-1.5-1.4h-61.2
		c-0.8,0-1.5,0.6-1.5,1.4s0.7,1.4,1.5,1.4h61.2C220.7,206.2,221.4,205.5,221.4,204.7z M244.1,205c0-0.7-0.6-1.3-1.4-1.3h-12.8
		c-0.7,0-1.4,0.6-1.4,1.3s0.6,1.3,1.4,1.3h12.8C243.5,206.2,244.1,205.7,244.1,205z M244.1,214.7c0-0.8-0.7-1.4-1.5-1.4h-132
		c-0.8,0-1.5,0.6-1.5,1.4c0,0.8,0.7,1.4,1.5,1.4h132C243.4,216.1,244.1,215.5,244.1,214.7z"/>
	<path class="st27" d="M377.5,269c0.7,3.5,1,6.8,1.2,9.7c0.3,7.6-0.3,19.1-1.9,26.3l-3.4-0.6c0,0-4-19.9-5.7-30.2
		c-0.5-2.6-0.8-4.9-0.9-6.6c-0.9-9.9,5.4-37.5,5.8-39.3v-0.1l0,0l13.7-1.5C392.6,246.6,383.7,251.2,377.5,269z"/>
	
		<linearGradient id="SVGID_00000131331819787823563580000001174456467374105535_" gradientUnits="userSpaceOnUse" x1="388.4186" y1="-1333.105" x2="366.499" y2="-1333.105" gradientTransform="matrix(1 0 0 -1 0 -1068.5674)">
		<stop  offset="0" style="stop-color:#565FD6"/>
		<stop  offset="1" style="stop-color:#3F0BA1"/>
	</linearGradient>
	<path style="fill:url(#SVGID_00000131331819787823563580000001174456467374105535_);" d="M384.6,253.3c-2.1,4.4-4.2,9.2-6.5,15.8
		c1.5,4.2,1.6,26.4,0.2,32.8c-2.4,0.5-4.9,0.3-7.2,0c-0.5-2.6-4.3-30.4-4.4-32.1c-0.9-9.9,5.5-39.5,5.8-41.3v-0.1l0,0l13.7-1.5
		C390.3,239.3,388.2,245.7,384.6,253.3z"/>
	<path class="st27" d="M395.6,307.6l5.9-9.4c0,0-6.1-10.8-11.1-18c-1.2-1.7-2.3-3.3-3.3-4.3c-6.8-7.9-10.4-48-10.4-48h11.2
		c8.7,9.2,6.5,21.7,6.9,34.1c0.1,4.3,1.3,8.5,3.4,12.1c0.5,0.7,0.8,1.5,1.2,2.2c2.6,5.2,4.1,11.5,5.5,21.7l2.8,3.8L395.6,307.6z"/>
	
		<linearGradient id="SVGID_00000022545022435407855150000013906179509801387689_" gradientUnits="userSpaceOnUse" x1="406.3298" y1="-1331.0306" x2="376.0626" y2="-1331.0306" gradientTransform="matrix(1 0 0 -1 0 -1068.5674)">
		<stop  offset="0" style="stop-color:#565FD6"/>
		<stop  offset="1" style="stop-color:#3F0BA1"/>
	</linearGradient>
	<path style="fill:url(#SVGID_00000022545022435407855150000013906179509801387689_);" d="M406.3,294.1c-2.2,1.6-4.8,2.4-7.5,3
		c-1.2-1.7-13-23.2-14.2-25.1c-5.6-8.8-8.6-44.2-8.6-44.2l11.5,0.1h0.5c8.5,8.8,6.8,20.8,6.8,32.9c0,4.9,2,7.9,4.1,12.1
		C404.9,284.8,406,293.5,406.3,294.1z"/>
	<path class="st30" d="M373.2,303.9c-5.2,2.2-11.1,1.9-11.5,7.2l16.4-0.5c0.2-2.2-0.1-4.5-0.9-6.8L373.2,303.9z"/>
	<path class="st30" d="M401.2,298.2c-4,4.4-9.5,7.1-8,12.2l15.1-8.3c-0.6-2.6-1.7-4.3-3.5-5.2L401.2,298.2z"/>
	<path class="st31" d="M353.2,197c0,0,2.9,16.5,7.2,17.7c2,0.5,4.4,0.1,6.9-0.7c4.1-1.4,7.7-3.7,7.8-4.4l4.1-12.3
		c-2.3,1-15.7,8.6-16.8,9.4c-1.7-2.7-5.6-9.5-5.7-10c0,0,0.8-3.7,0.1-4.8c-0.7-0.9-0.9,2.1-1.2,1.7c-0.3-0.5-2.1-4.8-3.3-3.5
		C349.6,192.7,353.2,197,353.2,197z"/>
	
		<linearGradient id="SVGID_00000052062493022276839710000018289412324866892419_" gradientUnits="userSpaceOnUse" x1="379.1591" y1="-1274.3378" x2="364.5959" y2="-1274.3378" gradientTransform="matrix(1 0 0 -1 0 -1068.5674)">
		<stop  offset="0" style="stop-color:#FFDB45"/>
		<stop  offset="1" style="stop-color:#FFA35C"/>
	</linearGradient>
	<path style="fill:url(#SVGID_00000052062493022276839710000018289412324866892419_);" d="M364.5,204.7c0.3,3.3,2.2,7.6,2.3,9.7
		c4.1-1.4,8.8-1.9,9-2.4l3.1-14.8C376.8,198.1,369.3,201.9,364.5,204.7z"/>
	
		<linearGradient id="SVGID_00000003065524945037581550000001979862819678186942_" gradientUnits="userSpaceOnUse" x1="395.3464" y1="-1283.7672" x2="371.4935" y2="-1283.7672" gradientTransform="matrix(1 0 0 -1 0 -1068.5674)">
		<stop  offset="0" style="stop-color:#FFDB45"/>
		<stop  offset="1" style="stop-color:#FFA35C"/>
	</linearGradient>
	<path style="fill:url(#SVGID_00000003065524945037581550000001979862819678186942_);" d="M395.4,208c-0.1,7.1-1.9,19.6-2.6,24
		c-0.1,0.7-0.5,1.2-0.9,1.5c-0.2,0.2-0.6,0.3-0.9,0.3c-3.3,0.5-6.3,0.7-9.4,0.7c-2.8,0-5.5-0.2-8-0.7c-1-0.1-1.7-1-1.9-2
		c-0.3-3.4,0.7-10.7,0.6-17.9c-0.1-4.5,1.3-16.2,9.8-18h5c5.6,1.4,7.9,5.7,8.3,8.7C395.3,205.4,395.4,206.6,395.4,208z"/>
	<path class="st34" d="M383.4,190.9c1.7,0.6,2.6,1.4,4.8,0.5c3.5-1.6,6.5-7.7,1.9-10.4c-0.3-0.9-0.7-1.3-1.9-1.6
		c-1.2-0.2-2.4,0.2-4.2,0.2s-4.1-1.7-5.6,0.7c-1.5,2.4,2.2,4.4,4.1,5.6C384.3,187,383.7,189.1,383.4,190.9z"/>
	<path class="st31" d="M387,195.9c-1.9,1.9-3.5,2.2-5,0l0.5-3.5l0.1-1.5h4.1l0.1,0.9L387,195.9z"/>
	<path class="st35" d="M386.7,192.5c-1,1.2-3.7,1.5-4.4,1l0.3-2.6l4.1-1.6V192.5z"/>
	<path class="st31" d="M380.1,182.5c-0.8,2.3-1.6,7.5,0.3,9.3c1.3,1.2,5.7,0.7,6.6-2.6c1-0.8,1.9-2.7,0.9-3.6
		c-0.7-0.6-1.6,1-2.9,0.7c-0.5-0.1,0.9-3.3-0.5-3.8C383.2,182,381.5,183.2,380.1,182.5z"/>
	
		<linearGradient id="SVGID_00000006672592036194903330000000741825397017428666_" gradientUnits="userSpaceOnUse" x1="332.4476" y1="-1272.2485" x2="366.4876" y2="-1283.1825" gradientTransform="matrix(1 0 0 -1 0 -1068.5674)">
		<stop  offset="0" style="stop-color:#565FD6"/>
		<stop  offset="1" style="stop-color:#3F0BA1"/>
	</linearGradient>
	<path style="fill:url(#SVGID_00000006672592036194903330000000741825397017428666_);" d="M360,220.2h-21.1c-3.6,0-6.5-2.9-6.5-6.5
		v-9.1c0-3.6,2.9-6.5,6.5-6.5H360c3.6,0,6.5,2.9,6.5,6.5v9.1C366.4,217.3,363.6,220.2,360,220.2z M338.9,203.1
		c-0.8,0-1.5,0.7-1.5,1.5v9.1c0,0.8,0.7,1.5,1.5,1.5H360c0.8,0,1.5-0.7,1.5-1.5v-9.1c0-0.8-0.7-1.5-1.5-1.5H338.9z"/>
	
		<linearGradient id="SVGID_00000154384070660855743710000010727251471483858609_" gradientUnits="userSpaceOnUse" x1="290.5577" y1="-1277.7137" x2="324.5385" y2="-1277.7137" gradientTransform="matrix(1 0 0 -1 0 -1068.5674)">
		<stop  offset="0" style="stop-color:#565FD6"/>
		<stop  offset="1" style="stop-color:#3F0BA1"/>
	</linearGradient>
	<path style="fill:url(#SVGID_00000154384070660855743710000010727251471483858609_);" d="M318.1,220.2H297c-3.6,0-6.5-2.9-6.5-6.5
		v-9.1c0-3.6,2.9-6.5,6.5-6.5h21.1c3.6,0,6.5,2.9,6.5,6.5v9.1C324.5,217.3,321.6,220.2,318.1,220.2z M297,203.1
		c-0.8,0-1.5,0.7-1.5,1.5v9.1c0,0.8,0.7,1.5,1.5,1.5h21.1c0.8,0,1.5-0.7,1.5-1.5v-9.1c0-0.8-0.7-1.5-1.5-1.5H297z"/>
	
		<linearGradient id="SVGID_00000078751415790098414170000007732467336701789061_" gradientUnits="userSpaceOnUse" x1="316.5759" y1="-1277.7137" x2="340.3822" y2="-1277.7137" gradientTransform="matrix(1 0 0 -1 0 -1068.5674)">
		<stop  offset="0" style="stop-color:#565FD6"/>
		<stop  offset="1" style="stop-color:#3F0BA1"/>
	</linearGradient>
	<path style="fill:url(#SVGID_00000078751415790098414170000007732467336701789061_);" d="M337.9,211.6H319c-1.4,0-2.4-1.2-2.4-2.4
		c0-1.4,1.2-2.4,2.4-2.4h18.9c1.4,0,2.4,1.2,2.4,2.4C340.3,210.4,339.3,211.6,337.9,211.6z"/>
	<path class="st31" d="M392.1,211.5c0,0-4.8,5.1-9,7.8c-1,0.7-2,1.2-2.9,1.4c-6.1,1.9-19.4,0.2-19.4,0.2c-4.4,1.9-5.1,0.1-5.9-1.6
		c-2.1-4.3,2.4-0.9,3.3-2.7c0,0-2.7-1-1.7-2.2c0.9-1.2,5.8,2.1,5.8,2.1c6.4-0.8,9.9-2.4,15-3c0.5-0.6,0.9-1.2,1.4-1.7
		c3.5-4.1,7.6-7.8,12.8-10C393.8,205,393.5,208.2,392.1,211.5z"/>
	
		<linearGradient id="SVGID_00000070087621818275904400000014560227467248747912_" gradientUnits="userSpaceOnUse" x1="391.1552" y1="-1268.7218" x2="381.9765" y2="-1285.2047" gradientTransform="matrix(1 0 0 -1 0 -1068.5674)">
		<stop  offset="0" style="stop-color:#FFDB45"/>
		<stop  offset="1" style="stop-color:#FFA35C"/>
	</linearGradient>
	<path style="fill:url(#SVGID_00000070087621818275904400000014560227467248747912_);" d="M384.3,219.4l-6.5-8.3
		c3.5-4.1,10.4-13.2,14.4-9.1C397.7,207.4,388.5,216.7,384.3,219.4z"/>
	<path class="st31" d="M275,301.5c0.1,1.4-1.4,2.8-1.5,4.2c5.7,1.3,11.5,2.2,17.3,3.3c-1-4.7-6.8-4.4-10.6-5.9
		c0-23.3,9.8-50.4,4.4-73.5c-1.7,0-2,0.5-4.1,0.5c-2.1-0.1-5.7-0.3-8.1-0.5C271.6,250.7,274.9,299.6,275,301.5z"/>
	<path class="st31" d="M241.4,280c-1.3-0.5-2.8,0.9-4.1,0.6c1.2,5.4,2.9,8.6,5.4,13.5c1.5-3,1-6.1,1.5-9.3c3.8-0.9,24.3-7.9,27-14.1
		c5.1-11.4,12.2-24.3,9.5-40.9c-3.4-0.1-6.9-0.5-10.2-0.6c-6.4,9.2-8,33.8-9.5,36.4C257.9,271.1,242.8,278.2,241.4,280z"/>
	<path class="st40" d="M287,304.6c1.4,0.7,6.1,1.7,4.9,4.4s-15,0-17.5-1.4c-2.4-1.4-0.1-4.2,0.6-5.8c2.2,4.4,8.6,6.8,12.8,4.9
		C289.6,305.9,287.2,304.8,287,304.6z"/>
	<path class="st40" d="M243.5,290.4c-0.1,0.9,0.8,6.2-1.5,5.7c-2.4-0.5-6.6-13.5-5.6-15.9c1.2-2.8,4-0.6,4.9-0.2
		c-3.5,2.4-1.6,9.8,1,11.6C243.4,292.3,243.6,290.9,243.5,290.4z"/>
	
		<linearGradient id="SVGID_00000015349070597568258420000014756085169426237827_" gradientUnits="userSpaceOnUse" x1="253.5269" y1="-1318.3271" x2="295.5169" y2="-1318.3271" gradientTransform="matrix(1 0 0 -1 0 -1068.5674)">
		<stop  offset="0" style="stop-color:#565FD6"/>
		<stop  offset="1" style="stop-color:#3F0BA1"/>
	</linearGradient>
	<path style="fill:url(#SVGID_00000015349070597568258420000014756085169426237827_);" d="M253.5,264.2c0,0,3.3,3.6,6.3,2.8
		c0,0,3.4,5.1,8.7,1.6c4.1,2.4,8,2.4,12.1,0c5.2,3.5,8.7-1.6,8.7-1.6c3,0.7,6.3-2.8,6.3-2.8c-2.9-13.7-9.2-25.4-10.7-35.2l-14.6,0.5
		C265.7,234.1,262.8,252.8,253.5,264.2z"/>
	<path class="st40" d="M278,184.7c1.7,1.9,2.6,5.2,1,7.6c-1.2,2.3-1.2,5.1-0.9,7.8c-0.6-2.6-0.6-5.5,0.6-7.9
		C280.3,189.9,279.6,186.7,278,184.7z"/>
	<path class="st31" d="M293.1,178.9c0,0,0.5-0.2,0.5-1.6c0-0.5-0.8-2.7,0-3c0.6-0.3,1.2,1.7,1.3,1.6c1.3-0.5,1.7-4.7,3.3-4.2
		c0.8,0.2,0.1,4.3-1.3,6.3c-0.1,0.2-0.1,2.1-0.1,2.1L293.1,178.9z"/>
	<path class="st42" d="M278.6,192c1.2-2.6,1.6-7-2.4-8.5c-3-1-5.6-1.2-8.3,0.9c-2.8,2.1-3.7,6.6-3.3,9.8c0.7,3.8-4,7.2-2.1,10.4
		c2.4,4.2,14.6,0.6,18.6,0C278.4,200.3,275.8,198,278.6,192z"/>
	
		<linearGradient id="SVGID_00000118362877889640461000000010482338635484001698_" gradientUnits="userSpaceOnUse" x1="270.2979" y1="-1263.2098" x2="296.9319" y2="-1263.2098" gradientTransform="matrix(1 0 0 -1 0 -1068.5674)">
		<stop  offset="0" style="stop-color:#FFDB45"/>
		<stop  offset="1" style="stop-color:#FFA35C"/>
	</linearGradient>
	<path style="fill:url(#SVGID_00000118362877889640461000000010482338635484001698_);" d="M276.9,210.7c4.5-1.6,12.9-9.1,15-12.7
		c0.9-2.3,4.2-14.7,5-17.9c0.1-0.5-0.1-0.9-0.6-1c-0.9-0.3-1.9-0.6-2.9-0.8c-0.5-0.1-0.8,0.1-0.9,0.6l-5.5,15.4
		c-2.1,1.4-15.2,7.1-16.5,11.5C269.5,209.5,272.3,212.3,276.9,210.7z"/>
	
		<linearGradient id="SVGID_00000104685189035126306890000011983886069853082249_" gradientUnits="userSpaceOnUse" x1="266.7262" y1="-1284.8392" x2="285.552" y2="-1284.8392" gradientTransform="matrix(1 0 0 -1 0 -1068.5674)">
		<stop  offset="0" style="stop-color:#FFDB45"/>
		<stop  offset="1" style="stop-color:#FFA35C"/>
	</linearGradient>
	<path style="fill:url(#SVGID_00000104685189035126306890000011983886069853082249_);" d="M285.5,230.4c0,0.1-0.1,0.2-0.2,0.2
		c-3.4,2.6-10.9,0.2-15.7-0.1c-0.5,0-0.7-0.5-0.7-0.8c0.7-10.2-7-21,2.8-28.9c1.5,0,3-0.5,4.4,0c7.3,2.3,8.6,9.7,8.8,16.8
		c0.1,4.3-0.1,8.6,0.5,11.6l0,0c0,0.1,0,0.1,0,0.2c0,0.2,0.1,0.5,0.1,0.7C285.5,230.3,285.5,230.3,285.5,230.4z"/>
	<path class="st31" d="M271.5,201.9c-0.2-0.1-0.3-0.2-0.6-0.3c0.2-1.4,0.5-4.3,0.6-6.1c0-0.5,0-0.8,0-1c0.8,0.7,2.3,1,2.9,1.9
		c0.6,0.9,1,4.2,1,4.4C276.2,204,273.2,202.9,271.5,201.9z"/>
	<path class="st45" d="M275,198.4c0,0-1.6-0.1-2.4-0.2c-1,0-1,2.9-1,3.7c-0.2-0.1-0.3-0.2-0.6-0.3c0.2-1.4,0.5-4.3,0.6-6.1
		C272.8,196.7,275,198.4,275,198.4z"/>
	<path class="st31" d="M277.8,198.1c2.1-0.9,1.6-8-0.1-10.2c-1.7,2.3-5,2.2-7.6,1.4c0.2,0.6,0.1,2.4,0.6,3.3
		c-0.5-0.7-1.9-0.6-1.6,0.7c0.2,1.3,1,1.5,2.1,1.9C272.1,197.7,275,199.4,277.8,198.1z"/>
	<path class="st31" d="M294.8,214.2c0,0,1.3-0.9,1.5-1.4c0.2-0.5,0.7-2.1,1.6-2.4c1.6-0.5,3.8,1.9,3.3,3s-2,1.6-2.8,1.9
		c-0.6,0.1-1.9,1.5-1.9,1.5L294.8,214.2z"/>
	
		<linearGradient id="SVGID_00000067198572325346319520000011908269950902373274_" gradientUnits="userSpaceOnUse" x1="271.7971" y1="-1276.0551" x2="290.7458" y2="-1293.0808" gradientTransform="matrix(1 0 0 -1 0 -1068.5674)">
		<stop  offset="0" style="stop-color:#FFDB45"/>
		<stop  offset="1" style="stop-color:#FFA35C"/>
	</linearGradient>
	<path style="fill:url(#SVGID_00000067198572325346319520000011908269950902373274_);" d="M270.9,210.9c0.2,4,4.2,15.4,8.6,17.6
		c5,2.4,14.6-8.5,17.2-10.7c0.3-0.2,0.3-0.7,0.1-1l-2-2.7c-0.2-0.3-0.7-0.5-1-0.2l-10.2,6.1c0,0-2-9.8-4.1-13.7
		C277.9,203.1,270.7,205.3,270.9,210.9z"/>
	<path class="st45" d="M277.3,188.2c0,0,0.1,2.4-2.3,3.3c0,0,0.5-0.9-0.6-1.9c0,0,0.1,1.5-0.7,2.3c-0.8,0.8-2.2,2.2-1.3,4.3
		l-0.7-0.7l-0.3-5.2l3.5-2.2L277.3,188.2z"/>
	<path class="st40" d="M279,191c0,0-0.2-2-1.6-2.8c0,0-0.6,2.2-2.3,2.9c0,0,0-1-0.6-1.4c0,0-0.3,1.6-1.9,2.8
		c-1.4,1.2-0.1,3.7,0.5,4.3c0,0-2.7-1.6-2.4-4.5c0,0-2.2-1.9-2.2-2c0-0.1,0.1-2.2,0.1-2.2s5.1-1.3,5.1-1.4c0-0.1,2.1-0.7,2.1-0.7
		l1.6,0.1l1.2,0.5L279,191z"/>
	<path class="st40" d="M273.4,183.5c-0.9-0.9-2.6-0.5-3.7,0c-4.1,1.5-6.4,6.2-4.8,10.2c0.3,1.4,1.3,1.3,0.3,2.8
		c-1.2,1.6-2.7,2.9-3.3,4.9c-0.6,1.9,0,4.3,2.2,4.7c-2.2-0.2-3-2.8-2.4-4.7c0.3-1.6,1.5-3,2.6-4.2c0.5-0.5,0.8-1.2,0.9-1.9
		c-0.1-0.2-0.2-0.3-0.3-0.6c-1.9-3.6-0.7-8.5,2.9-10.6C269.4,183.4,271.9,182.1,273.4,183.5z"/>
	<path class="st17" d="M129.5,199.6c-0.2-0.1-0.5-0.1-0.7-0.1h-90c-1.2,0-2.1,0.9-2.1,2v56c0,1,0.9,2,2.1,2h90c1.2,0,2.1-0.9,2.1-2
		v-56C130.8,200.6,130.3,199.9,129.5,199.6z"/>
	
		<linearGradient id="SVGID_00000169538114013417671010000009778143538459828610_" gradientUnits="userSpaceOnUse" x1="31.482" y1="-1292.3235" x2="125.1939" y2="-1292.3235" gradientTransform="matrix(1 0 0 -1 0 -1068.5674)">
		<stop  offset="0" style="stop-color:#FFDB45"/>
		<stop  offset="1" style="stop-color:#FFA35C"/>
	</linearGradient>
	<path style="fill:url(#SVGID_00000169538114013417671010000009778143538459828610_);" d="M125.2,195.8v56c0,0.9-0.8,1.7-1.9,1.7
		h-90c-1,0-1.9-0.8-1.9-1.7v-56c0-0.9,0.8-1.7,1.9-1.7h90c0.2,0,0.5,0,0.7,0.1C124.7,194.4,125.2,195.1,125.2,195.8z"/>
	
		<linearGradient id="SVGID_00000083776315528219031460000013915425503138115515_" gradientUnits="userSpaceOnUse" x1="31.5984" y1="-1265.2577" x2="125.1939" y2="-1265.2577" gradientTransform="matrix(1 0 0 -1 0 -1068.5674)">
		<stop  offset="0" style="stop-color:#565FD6"/>
		<stop  offset="1" style="stop-color:#3F0BA1"/>
	</linearGradient>
	<path style="fill:url(#SVGID_00000083776315528219031460000013915425503138115515_);" d="M125.2,195.8v3.6H31.6v-3.6
		c0-0.9,0.8-1.7,1.9-1.7h90c0.2,0,0.5,0,0.7,0.1C124.7,194.4,125.2,195.1,125.2,195.8z"/>
	<path class="st5" d="M123.4,253.7h-90c-1.2,0-2.1-0.9-2.1-2v-56c0-1,0.9-2,2.1-2h90c0.2,0,0.5,0,0.7,0.1c0.8,0.2,1.3,1,1.3,1.9v56
		C125.4,252.9,124.5,253.7,123.4,253.7z M33.3,194.2c-0.8,0-1.5,0.7-1.5,1.5v56c0,0.8,0.7,1.5,1.5,1.5h90c0.8,0,1.5-0.7,1.5-1.5v-56
		c0-0.6-0.5-1.2-1-1.4c-0.1-0.1-0.3-0.1-0.6-0.1H33.3L33.3,194.2z"/>
	<path class="st5" d="M34.2,196.7c0-0.5,0.5-0.9,0.9-0.9c0.5,0,0.9,0.5,0.9,0.9s-0.5,0.9-0.9,0.9C34.6,197.6,34.2,197.3,34.2,196.7z
		"/>
	<path class="st5" d="M37.8,196.7c0-0.5,0.5-0.9,0.9-0.9s0.9,0.5,0.9,0.9s-0.5,0.9-0.9,0.9S37.8,197.3,37.8,196.7z"/>
	<path class="st5" d="M42.3,197.6c0.5,0,0.9-0.5,0.9-0.9c0-0.5-0.5-0.9-0.9-0.9c-0.5,0-0.9,0.5-0.9,0.9
		C41.4,197.2,41.8,197.6,42.3,197.6z"/>
	<path class="st5" d="M122.9,197.4h-9c-0.2,0-0.5-0.2-0.5-0.5v-0.1c0-0.2,0.2-0.5,0.5-0.5h9c0.2,0,0.5,0.2,0.5,0.5v0.2
		C123.3,197.3,123.1,197.4,122.9,197.4z"/>
	<path class="st49" d="M82.8,206.2H44.8c-0.7,0-1.3,0.6-1.3,1.3v24.9c0,0.7,0.6,1.3,1.3,1.3h38.1c0.7,0,1.3-0.6,1.3-1.3v-24.9
		C84.1,206.8,83.5,206.2,82.8,206.2z"/>
	
		<linearGradient id="SVGID_00000045603567520847260870000001396879046174754437_" gradientUnits="userSpaceOnUse" x1="58.35" y1="-1288.3655" x2="70.7101" y2="-1288.3655" gradientTransform="matrix(1 0 0 -1 0 -1068.5674)">
		<stop  offset="0" style="stop-color:#FFDB45"/>
		<stop  offset="1" style="stop-color:#FFA35C"/>
	</linearGradient>
	<path style="fill:url(#SVGID_00000045603567520847260870000001396879046174754437_);" d="M70.4,219.3L59.4,214
		c-0.5-0.2-1,0.1-1,0.6V225c0,0.5,0.5,0.8,1,0.6l10.9-5.2C70.8,220.3,70.8,219.5,70.4,219.3z"/>
	<path class="st49" d="M85.8,240.7H39.2c-0.2,0-0.5-0.2-0.5-0.5v-0.3c0-0.2,0.2-0.5,0.5-0.5h46.7c0.2,0,0.5,0.2,0.5,0.5v0.3
		C86.3,240.5,86.1,240.7,85.8,240.7z"/>
	<path class="st49" d="M36,240c0-0.5,0.3-0.8,0.8-0.8s0.8,0.3,0.8,0.8s-0.3,0.8-0.8,0.8S36,240.5,36,240z"/>
	<path class="st49" d="M48.6,238.8h-0.9v2.6h0.9V238.8z"/>
	<path class="st49" d="M104.5,206.2H90.4v7.8h14.1V206.2z"/>
	<path class="st49" d="M104.5,218H90.4v7.8h14.1V218z"/>
	<path class="st49" d="M104.5,229.8H90.4v7.8h14.1V229.8z"/>
	<path class="st49" d="M121.7,206.2h-13.6v0.6h13.6V206.2z"/>
	<path class="st49" d="M121.7,209.6h-13.6v0.6h13.6V209.6z"/>
	<path class="st49" d="M121.7,213h-13.6v0.6h13.6V213z"/>
	<path class="st49" d="M121.7,218h-13.6v0.6h13.6V218z"/>
	<path class="st49" d="M121.7,221.4h-13.6v0.6h13.6V221.4z"/>
	<path class="st49" d="M121.7,224.7h-13.6v0.6h13.6V224.7z"/>
	<path class="st49" d="M121.7,229.8h-13.6v0.6h13.6V229.8z"/>
	<path class="st49" d="M121.7,233.1h-13.6v0.6h13.6V233.1z"/>
	<path class="st49" d="M121.7,236.5h-13.6v0.6h13.6V236.5z"/>
	<path class="st17" d="M302.3,65.5c-0.2-0.1-0.5-0.1-0.7-0.1h-90c-1.2,0-2.1,0.9-2.1,2v56c0,1,0.9,2,2.1,2h90c1.2,0,2.1-0.9,2.1-2
		v-56C303.5,66.5,303.1,65.8,302.3,65.5z"/>
	
		<linearGradient id="SVGID_00000168100310931891508690000010731994205885200781_" gradientUnits="userSpaceOnUse" x1="207.1757" y1="-1132.7584" x2="301.1031" y2="-1187.3311" gradientTransform="matrix(1 0 0 -1 0 -1068.5674)">
		<stop  offset="0" style="stop-color:#FFBAFE"/>
		<stop  offset="1" style="stop-color:#FF7AC6"/>
	</linearGradient>
	<path style="fill:url(#SVGID_00000168100310931891508690000010731994205885200781_);" d="M297.9,61.8v56c0,0.9-0.8,1.7-1.7,1.7h-90
		c-1,0-1.7-0.8-1.7-1.7v-56c0-0.9,0.8-1.7,1.7-1.7h90c0.2,0,0.5,0,0.6,0.1C297.5,60.4,297.9,61,297.9,61.8z"/>
	
		<linearGradient id="SVGID_00000112622987678560618970000013831160459903186844_" gradientUnits="userSpaceOnUse" x1="204.3543" y1="-1131.2671" x2="297.9499" y2="-1131.2671" gradientTransform="matrix(1 0 0 -1 0 -1068.5674)">
		<stop  offset="0" style="stop-color:#565FD6"/>
		<stop  offset="1" style="stop-color:#3F0BA1"/>
	</linearGradient>
	<path style="fill:url(#SVGID_00000112622987678560618970000013831160459903186844_);" d="M297.9,61.8v3.6h-93.6v-3.6
		c0-0.9,0.8-1.7,1.7-1.7h90c0.2,0,0.5,0,0.6,0.1C297.5,60.4,297.9,61,297.9,61.8z"/>
	<path class="st5" d="M296.2,119.7h-90c-1.2,0-2.1-0.9-2.1-2v-56c0-1,0.9-2,2.1-2h90c0.2,0,0.5,0,0.7,0.1c0.8,0.2,1.3,1,1.3,1.9v56
		C298.2,118.8,297.3,119.7,296.2,119.7z M206.2,60.3c-0.8,0-1.5,0.7-1.5,1.5v56c0,0.8,0.7,1.5,1.5,1.5h90c0.8,0,1.5-0.7,1.5-1.5v-56
		c0-0.6-0.5-1.2-1-1.4c-0.1-0.1-0.3-0.1-0.6-0.1C296.2,60.3,206.2,60.3,206.2,60.3z"/>
	<path class="st5" d="M206.9,62.7c0-0.5,0.5-0.9,0.9-0.9c0.5,0,0.9,0.5,0.9,0.9c0,0.5-0.5,0.9-0.9,0.9
		C207.4,63.6,206.9,63.2,206.9,62.7z"/>
	<path class="st5" d="M210.5,62.7c0-0.5,0.5-0.9,0.9-0.9c0.5,0,0.9,0.5,0.9,0.9c0,0.5-0.5,0.9-0.9,0.9
		C211,63.6,210.5,63.2,210.5,62.7z"/>
	<path class="st5" d="M215.2,63.6c0.5,0,0.9-0.3,0.9-0.9s-0.5-0.9-0.9-0.9c-0.5,0-0.9,0.3-0.9,0.9C214.2,63.2,214.6,63.6,215.2,63.6
		z"/>
	<path class="st5" d="M295.7,63.3h-9c-0.2,0-0.5-0.2-0.5-0.5v-0.2c0-0.2,0.2-0.5,0.5-0.5h9c0.2,0,0.5,0.2,0.5,0.5v0.3
		C296.1,63.2,296,63.3,295.7,63.3z"/>
	<path class="st49" d="M269.3,74.1h-54.8c-1,0-1.9-0.8-1.9-1.9v-0.9c0-1,0.8-1.9,1.9-1.9h54.8c1,0,1.9,0.8,1.9,1.9v0.9
		C271.2,73.3,270.4,74.1,269.3,74.1z"/>
	<path class="st49" d="M287.9,74.1h-7.1c-1,0-1.9-0.8-1.9-1.9v-0.9c0-1,0.8-1.9,1.9-1.9h7.1c1,0,1.9,0.8,1.9,1.9v0.9
		C289.8,73.3,289,74.1,287.9,74.1z"/>
	<path class="st49" d="M242.7,97.9h-26.5c-1,0-1.9-0.8-1.9-1.9V84.2c0-1,0.8-1.9,1.9-1.9h26.5c1,0,1.9,0.8,1.9,1.9V96
		C244.5,97,243.7,97.9,242.7,97.9z"/>
	<path class="st49" d="M215.2,103.1h9.7c0.6,0,1,0.5,1,1v8c0,0.6-0.5,1-1,1h-9.7c-0.6,0-1-0.5-1-1v-8
		C214.1,103.6,214.6,103.1,215.2,103.1z"/>
	<path class="st49" d="M233.9,103.1h9.7c0.6,0,1,0.5,1,1v8c0,0.6-0.5,1-1,1h-9.7c-0.6,0-1-0.5-1-1v-8
		C232.9,103.6,233.3,103.1,233.9,103.1z"/>
	<path class="st49" d="M262.8,83.3h-11.5c-0.2,0-0.5-0.2-0.5-0.5s0.2-0.5,0.5-0.5h11.5c0.2,0,0.5,0.2,0.5,0.5
		C263.3,83.1,263,83.3,262.8,83.3z"/>
	<path class="st49" d="M283,83.3h-17.8c-0.2,0-0.5-0.2-0.5-0.5s0.2-0.5,0.5-0.5H283c0.2,0,0.5,0.2,0.5,0.5
		C283.5,83.1,283.3,83.3,283,83.3z"/>
	<path class="st49" d="M289.7,83.3H286c-0.2,0-0.3-0.2-0.3-0.5s0.1-0.5,0.3-0.5h3.7c0.2,0,0.3,0.2,0.3,0.5
		C290.2,83.2,289.9,83.3,289.7,83.3z"/>
	<path class="st49" d="M289.7,88.4h-38.3c-0.2,0-0.5-0.2-0.5-0.5c0-0.2,0.2-0.5,0.5-0.5h38.3c0.2,0,0.5,0.2,0.5,0.5
		S289.9,88.4,289.7,88.4z"/>
	<path class="st49" d="M262.8,98.1h-11.5c-0.2,0-0.5-0.2-0.5-0.5c0-0.2,0.2-0.5,0.5-0.5h11.5c0.2,0,0.5,0.2,0.5,0.5
		C263.3,97.9,263,98.1,262.8,98.1z"/>
	<path class="st49" d="M283,98.1h-17.8c-0.2,0-0.5-0.2-0.5-0.5c0-0.2,0.2-0.5,0.5-0.5H283c0.2,0,0.5,0.2,0.5,0.5
		C283.5,97.9,283.3,98.1,283,98.1z"/>
	<path class="st49" d="M270.4,93h-19.1c-0.2,0-0.5-0.2-0.5-0.5c0-0.2,0.2-0.5,0.5-0.5h19.1c0.2,0,0.5,0.2,0.5,0.5S270.7,93,270.4,93
		z"/>
	<path class="st49" d="M289.7,93H275c-0.2,0-0.5-0.2-0.5-0.5c0-0.2,0.2-0.5,0.5-0.5h14.7c0.2,0,0.5,0.2,0.5,0.5S289.9,93,289.7,93z"
		/>
	<path class="st49" d="M289.7,98.1H286c-0.2,0-0.3-0.2-0.3-0.5c0-0.2,0.1-0.5,0.3-0.5h3.7c0.2,0,0.3,0.2,0.3,0.5
		C290.2,97.9,289.9,98.1,289.7,98.1z"/>
	<path class="st49" d="M288.3,103.3c-0.5,0-0.8,0.5-0.8,0.8l0,0l-4.5,2.6c-0.1-0.1-0.3-0.1-0.6-0.1c-0.3,0-0.6,0.2-0.7,0.5l-2.2-0.3
		c-0.1-0.3-0.5-0.6-0.9-0.5c-0.5,0-0.8,0.5-0.8,0.8c0,0,0,0,0,0.1l-5.9,3.4c-0.1-0.1-0.3-0.1-0.6-0.1c-0.1,0-0.2,0-0.3,0.1l-2.4-3.1
		l0,0c0.1-0.3-0.2-0.8-0.7-0.9c-0.5-0.1-0.9,0.2-1,0.6c0,0.1,0,0.2,0,0.2l-5.9,3.4c-0.1,0-0.1-0.1-0.2-0.1s-0.2,0-0.3,0l-1.6-2.1
		c0-0.1,0.1-0.1,0.1-0.1c0.1-0.3-0.2-0.8-0.7-0.9c-0.5-0.1-0.9,0.2-1,0.6l-4,0.7c-0.1-0.1-0.3-0.2-0.6-0.2c-0.5-0.1-0.9,0.2-1,0.6
		c-0.1,0.3,0.2,0.8,0.7,0.9c0.5,0.1,0.9-0.2,1-0.6c0,0,0,0,0-0.1l4-0.7c0.1,0.2,0.3,0.3,0.6,0.3c0.1,0,0.3,0,0.5,0l1.6,2
		c0,0.1-0.1,0.1-0.1,0.2c-0.1,0.3,0.2,0.8,0.7,0.9c0.5,0.1,0.9-0.2,1-0.6c0-0.1,0-0.2,0-0.3l5.8-3.4c0.1,0.1,0.2,0.1,0.3,0.1
		c0.2,0,0.5,0,0.6-0.1l2.4,3.1c0,0.1,0,0.2,0,0.2c0,0.5,0.5,0.7,1,0.7s0.8-0.5,0.8-0.8v-0.1l5.8-3.4c0.1,0.1,0.3,0.1,0.6,0.1
		c0.3,0,0.6-0.2,0.7-0.5l2.2,0.3c0.1,0.3,0.5,0.5,0.9,0.5s0.8-0.5,0.8-0.8v-0.1l4.5-2.6c0.1,0.1,0.3,0.2,0.6,0.1
		c0.5,0,0.8-0.5,0.8-0.8C289.1,103.6,288.8,103.3,288.3,103.3z"/>
	
		<linearGradient id="SVGID_00000066477284952219689390000005544208725879090088_" gradientUnits="userSpaceOnUse" x1="189.8449" y1="-1101.8757" x2="180.58" y2="-1100.6323" gradientTransform="matrix(1 0 0 -1 0 -1068.5674)">
		<stop  offset="0" style="stop-color:#565FD6"/>
		<stop  offset="1" style="stop-color:#3F0BA1"/>
	</linearGradient>
	<path style="fill:url(#SVGID_00000066477284952219689390000005544208725879090088_);" d="M180.4,33.8l9.2,1.9l-2.1-5.1L180.4,33.8z
		"/>
	
		<linearGradient id="SVGID_00000119806457421666375040000013219480712252465328_" gradientUnits="userSpaceOnUse" x1="200.9471" y1="-1105.1942" x2="185.9951" y2="-1103.1877" gradientTransform="matrix(1 0 0 -1 0 -1068.5674)">
		<stop  offset="0" style="stop-color:#565FD6"/>
		<stop  offset="1" style="stop-color:#3F0BA1"/>
	</linearGradient>
	<path style="fill:url(#SVGID_00000119806457421666375040000013219480712252465328_);" d="M188.6,37.1l12.6-1.9l-14.9-2.7
		L188.6,37.1z"/>
	
		<linearGradient id="SVGID_00000012457905815308185950000015278076551315925128_" gradientUnits="userSpaceOnUse" x1="201.741" y1="-1099.4408" x2="183.1804" y2="-1096.9502" gradientTransform="matrix(1 0 0 -1 0 -1068.5674)">
		<stop  offset="0" style="stop-color:#565FD6"/>
		<stop  offset="1" style="stop-color:#3F0BA1"/>
	</linearGradient>
	<path style="fill:url(#SVGID_00000012457905815308185950000015278076551315925128_);" d="M201.2,35.2l-17.3-11.2l2.1,4.7
		L201.2,35.2z"/>
	
		<linearGradient id="SVGID_00000035512201865383984120000013386707818379136931_" gradientUnits="userSpaceOnUse" x1="201.3397" y1="-1102.3558" x2="180.7016" y2="-1099.5864" gradientTransform="matrix(1 0 0 -1 0 -1068.5674)">
		<stop  offset="0" style="stop-color:#565FD6"/>
		<stop  offset="1" style="stop-color:#3F0BA1"/>
	</linearGradient>
	<path style="fill:url(#SVGID_00000035512201865383984120000013386707818379136931_);" d="M201.1,35.2l-14.9-2.7l-5.9,1.4l5.5-5.2
		L201.1,35.2z"/>
	<path class="st30" d="M439.2,311H0.9c-0.2,0-0.5-0.2-0.5-0.5l0,0c0-0.2,0.2-0.5,0.5-0.5h438.3c0.2,0,0.5,0.2,0.5,0.5l0,0
		C439.6,310.8,439.4,311,439.2,311z"/>
	<path class="st30" d="M465.2,311h-16.9c-0.2,0-0.5-0.2-0.5-0.5l0,0c0-0.2,0.2-0.5,0.5-0.5h16.9c0.2,0,0.5,0.2,0.5,0.5l0,0
		C465.7,310.8,465.5,311,465.2,311z"/>
	
		<linearGradient id="SVGID_00000032618813414937757130000012195194142152815034_" gradientUnits="userSpaceOnUse" x1="426.8431" y1="-1348.9581" x2="430.7348" y2="-1348.9581" gradientTransform="matrix(1 0 0 -1 0 -1068.5674)">
		<stop  offset="0" style="stop-color:#565FD6"/>
		<stop  offset="1" style="stop-color:#3F0BA1"/>
	</linearGradient>
	<path style="fill:url(#SVGID_00000032618813414937757130000012195194142152815034_);" d="M428.1,304.6c-1.3-5.7-2.2-22.1,0.8-33.1
		c2.7-9.5,0-15.1,0-15.1l0.6-0.2c0.1,0.2,2.8,5.8,0,15.6c-3,10.9-2.2,27.1-0.8,32.8H428.1z"/>
	
		<linearGradient id="SVGID_00000031191198265831801570000004761651541029174920_" gradientUnits="userSpaceOnUse" x1="422.0688" y1="-1355.4773" x2="431.4514" y2="-1355.4773" gradientTransform="matrix(1 0 0 -1 0 -1068.5674)">
		<stop  offset="0" style="stop-color:#565FD6"/>
		<stop  offset="1" style="stop-color:#3F0BA1"/>
	</linearGradient>
	<path style="fill:url(#SVGID_00000031191198265831801570000004761651541029174920_);" d="M431.2,305.1c-0.5-0.1-2.6-1.7-1.6-17.3
		c0.8-15.8-7.3-18.4-7.5-18.4l0.1-0.6c0.3,0.1,8.7,2.7,7.9,19.1c-0.8,15.4,1.3,16.8,1.3,16.8L431.2,305.1z"/>
	
		<linearGradient id="SVGID_00000149355056825730935940000010390489824224095379_" gradientUnits="userSpaceOnUse" x1="429.9823" y1="-1353.0479" x2="439.751" y2="-1353.0479" gradientTransform="matrix(1 0 0 -1 0 -1068.5674)">
		<stop  offset="0" style="stop-color:#565FD6"/>
		<stop  offset="1" style="stop-color:#3F0BA1"/>
	</linearGradient>
	<path style="fill:url(#SVGID_00000149355056825730935940000010390489824224095379_);" d="M430.1,304.3c-0.5-2,0.3-6.4,1.3-10.9
		c0.6-3.1,1.3-6.3,1.4-8.5c0.1-2.2-0.2-4.9-0.6-7.5c-0.5-3.6-0.9-7-0.1-9.4c0.5-1.5,1.6-2.7,3-3c1.5-0.5,3.3-0.1,4.7,0.9l-0.3,0.5
		c-1.2-0.9-2.8-1.3-4.1-0.8c-1.3,0.3-2.2,1.3-2.6,2.7c-0.7,2.2-0.2,5.6,0.2,9.1c0.3,2.6,0.7,5.2,0.6,7.6c-0.1,2.2-0.7,5.5-1.4,8.6
		c-0.8,4.3-1.7,8.8-1.3,10.7L430.1,304.3z"/>
	
		<linearGradient id="SVGID_00000164481236675388845160000012189692341364427167_" gradientUnits="userSpaceOnUse" x1="401.1176" y1="-1333.7476" x2="425.7062" y2="-1333.7476" gradientTransform="matrix(1 0 0 -1 0 -1068.5674)">
		<stop  offset="0" style="stop-color:#AD88FF"/>
		<stop  offset="1" style="stop-color:#6038BA"/>
	</linearGradient>
	<path style="fill:url(#SVGID_00000164481236675388845160000012189692341364427167_);" d="M412,276.4c1.9-0.7,4-4.3,5.9-4.2
		c0.5,2.2-2.9,2.3-4.2,3.7c-1,1.4,3.8,2.1,6.1,0.7c1.7-1,1-3.6,2.9-7.5c1.6-3.3,2.8-3.4,2.9-5.4c0.2-3.6-3.5-6.9-4-6.6
		c-0.1,0.1,0.3,0.7,0.5,2.3c0.1,0.1,0.1,6.5-1.5,4.4c-1.2-2.7,1.9-4.7-0.1-7.7c-1.5-2.2-5.5-2.2-5.5-1.9c2,0.5,3.3,5.6,2.4,7.6
		c-0.6,1.2-1.2,0.2-1.3-1c-1.2-3.8-1.4-5.9-4.3-7.5c-3.5-1.9-6.2,1.4-10.6,2.2c0,0-1,5.4,1.2,8.4c2.1,2.8,5,0.1,7.3,0.8
		c1,0.2,1.3,1.5,0.7,2.1c-0.9,1.3-2.9,1.4-4.4,1.5c-2.4,0.1-3.4-0.3-3.6,0.1c-0.8,1.2,3.1,4.4,5.2,3.7c2.7,0.1,5.6-4.3,8.3-3.1
		c0.1,2.1-5.1,4.5-7.5,4.7c-1.2,0-2-0.6-2.1-0.3C406.8,274.5,410.4,277,412,276.4z"/>
	<path class="st5" d="M416.5,276c0.6-0.1,1.2-0.3,1.7-0.7c0.5-0.3,0.8-0.8,1.2-1.3c0.3-0.6,0.6-1.2,0.8-1.7c0.2-0.7,0.6-1.3,0.9-1.9
		c0.1-0.2,0.3-0.6,0.5-0.8c0.1-0.2,0.3-0.5,0.6-0.5l0,0c0,0,0.1,0,0.1,0.1c0.1,0.1,0.2,0.1,0.5,0.2c0,0,0,0,0-0.1
		c-0.2-0.1-0.5-0.3-0.8-0.5l0,0c-0.1-0.1-0.1-0.2-0.2-0.3c0-0.1-0.1-0.2-0.1-0.3c0-0.2,0.1-0.3,0.1-0.6s0.1-0.3,0.2-0.5
		c0.6-1.2,1.3-2.3,1.6-3.5c0.3-1,0.5-2.1,0-3.1c0,0-0.1,0,0,0c0.2,0.6,0.2,1.3,0.2,1.9c-0.1,1.3-0.7,2.3-1.3,3.4
		c-0.3,0.6-0.6,1.2-0.9,1.9c-0.1,0.2-0.2,0.5-0.1,0.7c0,0.1,0.1,0.2,0.2,0.3c-0.7-0.3-1.5-0.6-2.3-0.8h-0.1c-0.5-0.5-0.7-1-0.8-1.6
		c-0.2-1.2,0-2.4,0.3-3.6c0.1-0.3,0.1-0.7,0.2-0.9c0.1-0.3,0.1-0.6,0.2-0.9c0-0.6,0-1.2-0.5-1.5c0,0-0.1,0,0,0
		c0.5,0.5,0.5,1.3,0.3,1.9c-0.2,1.3-0.7,2.4-0.8,3.8c0,1,0.2,2.1,0.9,2.8c-0.7-0.2-1.5-0.5-2.2-0.8c-0.3-0.2-0.7-0.5-1-0.7l0,0l0,0
		c-0.3-0.2-0.6-0.5-0.9-0.7c-0.5-0.5-0.9-0.9-1.4-1.4c-0.2-0.6-0.3-1.3-0.5-2c-0.1-1.2,0-2.4-0.5-3.6c-0.3-1-1.2-2-2.3-2.1v0.1
		c0.7,0,1.2,0.3,1.6,0.8c0.8,0.9,0.9,2.2,1,3.4c0,1,0.1,2.2,0.5,3.3c0-0.1-0.1-0.1-0.1-0.1c-0.6-0.6-1.3-1-2-1.5
		c-1.5-0.8-3-1.4-4.7-2c0,0-0.1,0,0,0.1c0.2,0.1,0.3,0.1,0.6,0.2c1.5,0.5,3,1,4.4,2c-0.5-0.1-0.9,0-1.3,0.1
		c-0.6,0.1-1.2,0.2-1.6-0.1c0,0-0.1,0,0,0.1c0.5,0.3,1,0.2,1.5,0.1c0.6-0.1,1-0.2,1.6-0.1l0,0c0.7,0.5,1.3,1,1.9,1.6
		s1.2,1.2,1.7,1.6l0.1,0.1c-0.6-0.2-1.3-0.1-1.9,0.1c-0.7,0.2-1.2,0.8-1.7,1.3c-0.6,0.5-1,0.9-1.7,1.3c-1.2,0.7-2.6,1-3.8,1.2v0.1
		c0.7,0,1.5-0.2,2.2-0.5c0.6-0.2,1.3-0.5,1.9-0.8s1.2-0.8,1.6-1.3c0.6-0.5,1-0.9,1.7-1.3c0.6-0.2,1.4-0.3,2,0c0.5,0.3,1,0.7,1.6,0.9
		c0.8,0.3,1.6,0.6,2.4,0.8c0.1,0,0.1,0,0.2,0.1c-0.5,0.1-0.9,0.2-1.3,0.6c-0.5,0.2-0.7,0.7-1,1c-0.3,0.3-0.7,0.8-1,1.2
		c-0.7,0.7-1.6,1.3-2.4,1.7c0,0,0,0.1,0,0c0.5-0.2,0.9-0.6,1.4-0.9c0.5-0.2,0.8-0.6,1.2-0.9c0.3-0.3,0.7-0.7,1-1.2
		c0.3-0.3,0.7-0.8,1.2-1c0.3-0.2,0.8-0.5,1.3-0.5l0,0c0.6,0.2,1.2,0.5,1.7,0.7c-0.2,0.1-0.5,0.2-0.6,0.5c-0.2,0.2-0.3,0.6-0.6,0.9
		c-0.3,0.6-0.6,1.3-0.8,1.9c-0.2,0.6-0.5,1.3-0.8,1.9s-0.7,0.9-1.2,1.3C417.6,275.7,417,276,416.5,276L416.5,276z"/>
	
		<linearGradient id="SVGID_00000132781477540702657420000014960180744717297543_" gradientUnits="userSpaceOnUse" x1="435.0832" y1="-1341.0123" x2="459.3097" y2="-1341.0123" gradientTransform="matrix(1 0 0 -1 0 -1068.5674)">
		<stop  offset="0" style="stop-color:#AD88FF"/>
		<stop  offset="1" style="stop-color:#6038BA"/>
	</linearGradient>
	<path style="fill:url(#SVGID_00000132781477540702657420000014960180744717297543_);" d="M451.6,261.8c-2,0.2-4.8,3.3-6.8,2.7
		c0.1-2.3,3.4-1.6,4.9-2.6c1.3-1-3.3-3-5.7-2.1c-2,0.6-1.9,3.3-4.7,6.5c-2.3,2.8-3.5,2.7-4.1,4.5c-1,3.5,1.7,7.6,2.2,7.3
		c0.1,0-0.1-0.7,0.1-2.3c-0.1-0.1,1.4-6.4,2.6-4c0.5,2.8-2.9,4.1-1.6,7.5c0.9,2.6,4.8,3.4,4.9,3.1c-1.9-0.9-1.9-6.2-0.6-7.9
		c0.9-1,1.2,0.1,1,1.3c0.1,4,0,6.2,2.3,8.3c2.9,2.7,6.4,0.1,10.8,0.3c0,0,2.2-5,0.8-8.4c-1.4-3.3-4.8-1.3-6.9-2.6
		c-0.9-0.5-0.9-1.7-0.1-2.2c1.2-1,3.3-0.7,4.7-0.5c2.4,0.5,3.1,1.2,3.5,0.8c1-0.9-2-5.1-4.2-4.8c-2.6-0.8-6.4,2.9-8.7,1.2
		c0.5-2.1,6.1-3.1,8.3-2.8c1.2,0.3,1.9,1,2,0.9C456.2,264.9,453.4,261.5,451.6,261.8z"/>
	<path class="st5" d="M447.2,261.1c-0.6-0.1-1.2,0-1.7,0.2s-1,0.6-1.4,1c-0.5,0.5-0.8,1-1.2,1.5c-0.5,0.6-0.8,1.2-1.3,1.6
		c-0.2,0.2-0.5,0.5-0.7,0.7c-0.2,0.1-0.5,0.3-0.7,0.2l0,0l-0.1-0.1c-0.1-0.1-0.2-0.2-0.3-0.3c0,0,0,0,0,0.1c0.2,0.2,0.5,0.5,0.6,0.6
		l0,0c0.1,0.1,0.1,0.2,0.1,0.3s0.1,0.2,0,0.3c0,0.1-0.1,0.3-0.2,0.5c-0.1,0.1-0.2,0.2-0.3,0.5c-0.8,1-1.7,1.9-2.4,3
		c-0.6,0.9-0.9,2-0.8,3h0.1c-0.1-0.6,0-1.3,0.2-1.9c0.5-1.2,1.2-2.1,2-3c0.5-0.5,0.9-1,1.3-1.6c0.1-0.2,0.3-0.5,0.2-0.7
		c0-0.1,0-0.3-0.1-0.5c0.6,0.6,1.4,0.9,2.1,1.4c0,0,0.1,0,0.1,0.1c0.3,0.6,0.5,1.2,0.5,1.7c0,1.3-0.6,2.3-1.2,3.4
		c-0.1,0.2-0.3,0.6-0.5,0.9c-0.1,0.2-0.2,0.6-0.5,0.8c-0.1,0.5-0.2,1,0,1.6c0,0,0.1,0,0,0c-0.3-0.6-0.1-1.3,0.1-1.9
		c0.6-1.2,1.3-2.2,1.7-3.5c0.2-0.9,0.2-2.1-0.1-3c0.7,0.5,1.3,0.8,2,1.3c0.3,0.2,0.6,0.6,0.9,0.9l0,0l0,0c0.2,0.3,0.5,0.6,0.7,0.9
		c0.3,0.6,0.7,1,1,1.6c0.1,0.7,0.1,1.4,0,2c-0.1,1.2-0.6,2.4-0.5,3.6c0.1,1,0.7,2.2,1.9,2.6c0,0,0.1,0,0-0.1
		c-0.6-0.1-1.2-0.7-1.4-1.2c-0.6-1-0.3-2.3-0.1-3.5c0.2-1,0.5-2.2,0.3-3.3c0,0.1,0.1,0.1,0.1,0.2c0.5,0.7,0.9,1.3,1.6,1.9
		c1.2,1.2,2.7,2.1,4.1,3c0,0,0.1,0,0,0c-0.1-0.1-0.3-0.2-0.6-0.3c-1.4-0.9-2.8-1.7-3.8-3c0.3,0.2,0.9,0.2,1.3,0.2
		c0.6,0,1.2,0,1.5,0.5c0,0,0.1,0,0,0c-0.3-0.5-0.9-0.5-1.4-0.5c-0.6,0-1.2,0-1.6-0.3l0,0c-0.6-0.6-1-1.3-1.4-2
		c-0.5-0.7-0.8-1.3-1.3-2c0-0.1-0.1-0.1-0.1-0.1c0.6,0.3,1.2,0.5,1.9,0.3c0.7-0.1,1.4-0.5,2-0.8s1.3-0.6,2-0.8
		c1.3-0.3,2.7-0.5,4.1-0.2v-0.1c-0.7-0.1-1.5-0.1-2.2-0.1c-0.7,0-1.3,0.1-2,0.3s-1.3,0.5-1.9,0.8c-0.6,0.3-1.3,0.7-2,0.7
		c-0.7,0.1-1.4,0-1.9-0.5c-0.3-0.5-0.8-0.9-1.3-1.3c-0.7-0.5-1.4-0.9-2.2-1.4c-0.1,0-0.1-0.1-0.2-0.1c0.5,0,0.9-0.1,1.4-0.2
		c0.5-0.2,0.9-0.5,1.3-0.8c0.5-0.3,0.8-0.6,1.3-0.8c0.9-0.5,1.9-0.8,2.8-1v-0.1c-0.6,0.1-1,0.3-1.6,0.5c-0.5,0.2-0.9,0.5-1.4,0.7
		c-0.5,0.2-0.9,0.6-1.3,0.8c-0.3,0.2-0.8,0.6-1.3,0.7s-0.9,0.2-1.4,0.2l0,0c-0.6-0.3-1-0.7-1.5-1.2c0.2,0,0.5-0.1,0.7-0.2
		c0.2-0.2,0.5-0.5,0.7-0.8c0.5-0.5,0.9-1,1.3-1.6s0.7-1,1.2-1.6c0.5-0.5,0.9-0.8,1.5-0.9C446,261.1,446.6,261.1,447.2,261.1
		C447.2,261.2,447.2,261.1,447.2,261.1z"/>
	
		<linearGradient id="SVGID_00000056414289563004733400000016526453584229012609_" gradientUnits="userSpaceOnUse" x1="415.6221" y1="-1314.1597" x2="438.3781" y2="-1314.1597" gradientTransform="matrix(1 0 0 -1 0 -1068.5674)">
		<stop  offset="0" style="stop-color:#AD88FF"/>
		<stop  offset="1" style="stop-color:#6038BA"/>
	</linearGradient>
	<path style="fill:url(#SVGID_00000056414289563004733400000016526453584229012609_);" d="M417.2,253.2c1.7,0.9,5.8,0.3,7,1.9
		c-1.4,1.7-3.6-0.7-5.5-0.8c-1.7,0.1,0.8,4.4,3.3,5.1c2,0.7,3.5-1.5,7.7-2.4c3.6-0.9,4.4,0,6.1-1.2c2.9-2.1,3-7.1,2.7-7.2
		c-0.1-0.1-0.3,0.7-1.5,1.9c0,0.2-4.9,4.2-4.4,1.6c1.3-2.6,4.8-1.5,5.8-5c0.8-2.6-1.7-5.6-2.1-5.5c0.9,1.9-2.2,6.1-4.3,6.6
		c-1.3,0.2-0.8-0.7,0-1.6c2.3-3.3,3.7-4.9,3-8c-0.8-3.8-5.1-3.8-8.5-6.8c0,0-4.8,2.7-5.7,6.2c-0.8,3.4,3,4,4.1,6.2
		c0.5,0.9-0.3,2-1.3,1.9c-1.6,0.1-3-1.4-4-2.4c-1.6-1.9-1.9-2.8-2.3-2.8c-1.4,0.1-1.5,5.2,0.5,6.4c1.5,2.2,6.9,1.5,7.7,4.3
		c-1.6,1.4-6.8-1.2-8.3-2.8c-0.7-0.9-0.8-1.9-1-1.9C415.3,247.9,415.6,252.2,417.2,253.2z"/>
	<path class="st5" d="M420.3,256.3c0.5,0.5,1,0.7,1.6,0.9c0.6,0.1,1.2,0.1,1.7,0.1c0.6-0.1,1.3-0.3,1.9-0.5c0.7-0.2,1.4-0.3,2-0.5
		c0.3-0.1,0.6-0.1,0.9-0.1c0.2,0,0.6,0,0.7,0.2l0,0v0.1c0,0.1,0,0.3,0,0.5c0,0,0,0,0.1,0c0-0.2-0.1-0.6-0.1-0.9l0,0
		c0-0.1,0-0.2,0.1-0.3c0-0.1,0.1-0.2,0.2-0.3s0.3-0.1,0.5-0.2c0.1-0.1,0.3-0.1,0.6-0.1c1.3-0.3,2.6-0.5,3.7-0.9c1-0.5,2-1,2.4-2
		c0,0,0-0.1,0,0c-0.3,0.6-0.8,1-1.3,1.4c-1,0.7-2.2,0.9-3.5,1.3c-0.7,0.1-1.3,0.2-2,0.5c-0.2,0.1-0.5,0.1-0.7,0.3
		c-0.1,0.1-0.1,0.2-0.1,0.5c-0.2-0.8-0.5-1.6-0.8-2.3v-0.1c0.1-0.6,0.3-1.2,0.7-1.6c0.7-1,1.9-1.5,3-2.1c0.3-0.1,0.6-0.2,0.9-0.5
		c0.2-0.1,0.6-0.2,0.8-0.5c0.5-0.2,0.8-0.7,0.9-1.3c0,0-0.1-0.1-0.1,0c0,0.7-0.7,1.2-1.2,1.4c-1.2,0.6-2.4,1-3.5,1.7
		c-0.8,0.6-1.5,1.5-1.6,2.4c-0.3-0.7-0.6-1.4-0.7-2.2c-0.1-0.5-0.1-0.8-0.1-1.3l0,0l0,0c0-0.3,0-0.8,0-1.2c0-0.7,0.1-1.3,0.1-2
		c0.3-0.6,0.7-1.2,1.3-1.6c0.8-0.8,1.9-1.6,2.6-2.7c0.6-0.9,0.8-2.2,0.1-3.1c0,0-0.1,0,0,0c0.3,0.5,0.5,1.2,0.3,1.9
		c-0.2,1.3-1,2.1-2,2.9c-0.8,0.7-1.6,1.5-2.2,2.4c0-0.1,0-0.1,0-0.2c0-0.8,0-1.6-0.1-2.4c-0.2-1.6-0.9-3.3-1.5-4.9H426
		c0.1,0.2,0.1,0.3,0.2,0.6c0.6,1.5,1.2,3,1.3,4.7c-0.2-0.3-0.6-0.7-0.9-0.9c-0.5-0.3-0.9-0.7-0.9-1.3h-0.1c0,0.6,0.5,0.9,0.8,1.3
		c0.5,0.3,0.9,0.7,1.2,1.2l0,0c0.1,0.8,0,1.6,0,2.4c-0.1,0.8-0.1,1.5-0.1,2.3c0,0.1,0,0.1,0,0.2c-0.2-0.6-0.7-1-1.3-1.3
		c-0.6-0.3-1.4-0.5-2.1-0.6s-1.4-0.2-2.1-0.5c-1.3-0.5-2.4-1.3-3.4-2.2c0,0-0.1,0,0,0.1c0.5,0.6,1,1,1.7,1.4
		c0.6,0.3,1.2,0.7,1.7,0.9c0.7,0.2,1.3,0.3,2,0.5c0.7,0.1,1.4,0.2,2.1,0.6c0.6,0.3,1.2,0.8,1.3,1.5c0,0.6,0.1,1.3,0.2,1.9
		c0.2,0.8,0.6,1.6,0.9,2.4c0,0.1,0,0.1,0.1,0.2c-0.3-0.3-0.8-0.5-1.3-0.7c-0.5-0.1-1-0.1-1.5-0.1c-0.6,0-1,0-1.6-0.1
		c-1-0.1-2-0.5-2.9-0.8c0,0-0.1,0,0,0.1c0.5,0.2,1,0.5,1.6,0.6c0.5,0.1,0.9,0.2,1.5,0.2c0.5,0.1,1,0.1,1.5,0.1s1,0,1.5,0.2
		c0.5,0.1,0.9,0.3,1.3,0.7l0,0c0.2,0.6,0.5,1.2,0.6,1.9c-0.2-0.1-0.5-0.1-0.7-0.1c-0.3,0-0.7,0.1-1,0.1c-0.7,0.1-1.3,0.3-2,0.5
		c-0.6,0.2-1.3,0.5-1.9,0.6c-0.6,0.1-1.2,0.1-1.7-0.1C421.2,257,420.8,256.6,420.3,256.3L420.3,256.3z"/>
	
		<linearGradient id="SVGID_00000077315766739620093840000014884714189281021593_" gradientUnits="userSpaceOnUse" x1="421.9756" y1="-1373.1136" x2="436.9928" y2="-1373.1136" gradientTransform="matrix(1 0 0 -1 0 -1068.5674)">
		<stop  offset="0" style="stop-color:#FFBAFE"/>
		<stop  offset="1" style="stop-color:#FF7AC6"/>
	</linearGradient>
	<path style="fill:url(#SVGID_00000077315766739620093840000014884714189281021593_);" d="M436.9,299.1c-0.1,1-1.4,9.2-1.5,10.8
		h-11.8c-0.1-1.6-1.6-9.8-1.7-10.8H436.9z"/>
	<path class="st64" d="M421.9,299.1c0,0.1,0,0.6,0.1,1.4h4.5c4.1,0,7.1,3.5,7.1,7.7c0,0.9-0.3,1.4-0.8,1.9h2.6
		c0.1-1.6,1.5-9.8,1.5-10.8h-15V299.1z"/>
	
		<linearGradient id="SVGID_00000141448243099843842150000002930887588498752439_" gradientUnits="userSpaceOnUse" x1="420.5088" y1="-1366.3036" x2="438.4713" y2="-1366.3036" gradientTransform="matrix(1 0 0 -1 0 -1068.5674)">
		<stop  offset="0" style="stop-color:#FFBAFE"/>
		<stop  offset="1" style="stop-color:#FF7AC6"/>
	</linearGradient>
	<path style="fill:url(#SVGID_00000141448243099843842150000002930887588498752439_);" d="M436.7,299.1h-14.4
		c-0.9,0-1.7-0.6-1.7-1.4c0-0.8,0.8-1.4,1.7-1.4h14.4c0.9,0,1.7,0.6,1.7,1.4C438.5,298.6,437.6,299.1,436.7,299.1z"/>
	
		<linearGradient id="SVGID_00000107567115247569611160000003536745144299799187_" gradientUnits="userSpaceOnUse" x1="393.1512" y1="-1212.8536" x2="419.7638" y2="-1237.9083" gradientTransform="matrix(1 0 0 -1 0 -1068.5674)">
		<stop  offset="0" style="stop-color:#FFBAFE"/>
		<stop  offset="1" style="stop-color:#FF7AC6"/>
	</linearGradient>
	<path style="fill:url(#SVGID_00000107567115247569611160000003536745144299799187_);" d="M424.1,142.7h-32.7
		c-3.4,0-6.1,2.7-6.1,6.1v16.2c0,3.4,2.7,6.1,6.1,6.1v4.8l5.9-4.8h26.8c3.4,0,6.1-2.7,6.1-6.1v-16.2
		C430.2,145.4,427.5,142.7,424.1,142.7z"/>
	<path class="st5" d="M389.7,156.1c0-1.4,1-2.4,2.4-2.4s2.4,1,2.4,2.4s-1,2.4-2.4,2.4S389.7,157.5,389.7,156.1z"/>
	<path class="st5" d="M397.5,156.1c0-1.4,1-2.4,2.4-2.4c1.4,0,2.4,1,2.4,2.4s-1,2.4-2.4,2.4C398.5,158.5,397.5,157.5,397.5,156.1z"
		/>
	<path class="st5" d="M405.4,156.1c0-1.4,1-2.4,2.4-2.4s2.4,1,2.4,2.4s-1,2.4-2.4,2.4S405.4,157.5,405.4,156.1z"/>
	<path class="st5" d="M415.6,158.5c1.4,0,2.4-1,2.4-2.4c0-1.4-1-2.4-2.4-2.4c-1.4,0-2.4,1-2.4,2.4
		C413.2,157.3,414.4,158.5,415.6,158.5z"/>
	<path class="st5" d="M421,155.9c0-1.4,1-2.4,2.4-2.4c1.4,0,2.4,1,2.4,2.4c0,1.4-1,2.4-2.4,2.4C422.2,158.5,421,157.3,421,155.9z"/>
	
		<linearGradient id="SVGID_00000089538346163402350430000013753677795387683752_" gradientUnits="userSpaceOnUse" x1="20.0639" y1="-1237.3187" x2="26.4421" y2="-1237.3187" gradientTransform="matrix(1 0 0 -1 0 -1068.5674)">
		<stop  offset="0" style="stop-color:#FFBAFE"/>
		<stop  offset="1" style="stop-color:#FF7AC6"/>
	</linearGradient>
	<path style="fill:url(#SVGID_00000089538346163402350430000013753677795387683752_);" d="M26.2,169c0.1,0.2,0.2,0.6,0.1,0.9
		c-0.1,0.5-0.3,0.7-0.8,0.8l-4,1.2c-0.5,0.1-0.8,0-1.2-0.2c-0.3-0.3-0.5-0.7-0.3-1.2l0.9-4.1c0.1-0.5,0.3-0.7,0.8-0.8
		c0.5-0.1,0.8,0,1.2,0.2l3,2.9C26.1,168.8,26.2,168.9,26.2,169z M21,170.8C21,170.8,21.1,171,21,170.8c0.1,0.1,0.1,0.1,0.2,0.1
		l4-1.2c0.1,0,0.1-0.1,0.2-0.2c0,0,0-0.1-0.1-0.2l-3-2.9c-0.1-0.1-0.2-0.1-0.2-0.1s-0.1,0.1-0.2,0.2l-0.9,4.1
		C21,170.7,21,170.8,21,170.8z"/>
	
		<linearGradient id="SVGID_00000117665200637468938210000015342472202132752261_" gradientUnits="userSpaceOnUse" x1="267.6282" y1="-1079.9292" x2="274.0063" y2="-1079.9292" gradientTransform="matrix(1 0 0 -1 0 -1068.5674)">
		<stop  offset="0" style="stop-color:#FFBAFE"/>
		<stop  offset="1" style="stop-color:#FF7AC6"/>
	</linearGradient>
	<path style="fill:url(#SVGID_00000117665200637468938210000015342472202132752261_);" d="M273.9,11.6c0.1,0.2,0.2,0.6,0.1,0.9
		c-0.1,0.5-0.5,0.7-0.8,0.8l-4,1.2c-0.5,0.1-0.8,0-1.2-0.2c-0.3-0.3-0.5-0.7-0.3-1.2l1-4.1c0.1-0.5,0.5-0.7,0.8-0.8
		c0.5-0.1,0.8,0,1.2,0.2l3,2.9C273.7,11.5,273.7,11.5,273.9,11.6z M268.6,13.5C268.6,13.6,268.6,13.6,268.6,13.5
		c0.1,0.1,0.1,0.1,0.2,0.1l4-1.2c0.1,0,0.1-0.1,0.1-0.2c0,0,0-0.1-0.1-0.2l-3-2.9c-0.1-0.1-0.2-0.1-0.2,0c0,0-0.1,0-0.1,0.2l-1,4.1
		C268.5,13.5,268.6,13.5,268.6,13.5z"/>
	
		<linearGradient id="SVGID_00000027578225437141239050000011660193614336400266_" gradientUnits="userSpaceOnUse" x1="69.3922" y1="-1102.8916" x2="74.5687" y2="-1108.651" gradientTransform="matrix(1 0 0 -1 0 -1068.5674)">
		<stop  offset="0" style="stop-color:#FFDB45"/>
		<stop  offset="1" style="stop-color:#FFA35C"/>
	</linearGradient>
	<path style="fill:url(#SVGID_00000027578225437141239050000011660193614336400266_);" d="M73,37.1l1.5-1.5c0.3-0.3,0.3-0.9,0-1.2
		c-0.3-0.2-0.9-0.3-1.2,0l-1.5,1.5l-1.5-1.5c-0.3-0.3-0.9-0.3-1.2,0s-0.3,0.9,0,1.2l1.5,1.5l-1.5,1.5c-0.3,0.3-0.3,0.9,0,1.2
		c0.1,0.1,0.3,0.2,0.6,0.2s0.5-0.1,0.6-0.2l1.5-1.5l1.5,1.5c0.1,0.1,0.3,0.2,0.6,0.2c0.2,0,0.5-0.1,0.6-0.2c0.3-0.3,0.3-0.9,0-1.2
		L73,37.1z"/>
	
		<linearGradient id="SVGID_00000047036409074216289310000009128315596723276701_" gradientUnits="userSpaceOnUse" x1="376.3066" y1="-1196.9091" x2="382.1524" y2="-1196.9091" gradientTransform="matrix(1 0 0 -1 0 -1068.5674)">
		<stop  offset="0" style="stop-color:#FFDB45"/>
		<stop  offset="1" style="stop-color:#FFA35C"/>
	</linearGradient>
	<path style="fill:url(#SVGID_00000047036409074216289310000009128315596723276701_);" d="M380.5,128.4l1.5-1.5
		c0.3-0.3,0.3-0.9,0-1.2c-0.3-0.2-0.9-0.3-1.2,0l-1.5,1.5l-1.5-1.5c-0.3-0.3-0.9-0.3-1.2,0c-0.2,0.3-0.3,0.9,0,1.2l1.5,1.5l-1.5,1.5
		c-0.3,0.3-0.3,0.9,0,1.2c0.1,0.1,0.3,0.2,0.6,0.2c0.2,0,0.5-0.1,0.6-0.2l1.5-1.5l1.5,1.5c0.1,0.1,0.3,0.2,0.6,0.2
		c0.2,0,0.5-0.1,0.6-0.2c0.3-0.3,0.3-0.9,0-1.2L380.5,128.4z"/>
	
		<linearGradient id="SVGID_00000183948432526107399040000005873916995102205611_" gradientUnits="userSpaceOnUse" x1="174.611" y1="-1122.0704" x2="181.3163" y2="-1122.0704" gradientTransform="matrix(1 0 0 -1 0 -1068.5674)">
		<stop  offset="0" style="stop-color:#565FD6"/>
		<stop  offset="1" style="stop-color:#3F0BA1"/>
	</linearGradient>
	<path style="fill:url(#SVGID_00000183948432526107399040000005873916995102205611_);" d="M177.9,56.9c-1.9,0-3.4-1.5-3.4-3.4
		s1.5-3.4,3.4-3.4c1.9,0,3.4,1.5,3.4,3.4S179.8,56.9,177.9,56.9z M177.9,51.2c-1.3,0-2.3,1-2.3,2.3s1,2.3,2.3,2.3
		c1.3,0,2.3-1,2.3-2.3S179.2,51.2,177.9,51.2z"/>
	
		<linearGradient id="SVGID_00000073001838851344603400000001728330909846350224_" gradientUnits="userSpaceOnUse" x1="321.2556" y1="-1191.2194" x2="327.961" y2="-1191.2194" gradientTransform="matrix(1 0 0 -1 0 -1068.5674)">
		<stop  offset="0" style="stop-color:#565FD6"/>
		<stop  offset="1" style="stop-color:#3F0BA1"/>
	</linearGradient>
	<path style="fill:url(#SVGID_00000073001838851344603400000001728330909846350224_);" d="M324.6,126c-1.9,0-3.4-1.5-3.4-3.4
		s1.5-3.4,3.4-3.4s3.4,1.5,3.4,3.4C328,124.6,326.5,126,324.6,126z M324.6,120.4c-1.3,0-2.3,1-2.3,2.3c0,1.3,1,2.3,2.3,2.3
		s2.3-1,2.3-2.3C326.9,121.5,325.9,120.4,324.6,120.4z"/>
	
		<linearGradient id="SVGID_00000106850759895752792930000002435913553323949472_" gradientUnits="userSpaceOnUse" x1="318.9507" y1="-1351.6356" x2="325.656" y2="-1351.6356" gradientTransform="matrix(1 0 0 -1 0 -1068.5674)">
		<stop  offset="0" style="stop-color:#565FD6"/>
		<stop  offset="1" style="stop-color:#3F0BA1"/>
	</linearGradient>
	<path style="fill:url(#SVGID_00000106850759895752792930000002435913553323949472_);" d="M322.3,286.4c-1.9,0-3.4-1.5-3.4-3.4
		c0-1.9,1.5-3.4,3.4-3.4s3.4,1.5,3.4,3.4C325.7,284.9,324.1,286.4,322.3,286.4z M322.3,280.9c-1.3,0-2.3,1-2.3,2.3
		c0,1.3,1,2.3,2.3,2.3s2.3-1,2.3-2.3C324.6,281.9,323.6,280.9,322.3,280.9z"/>
</g>
</svg>
