<svg width="577" height="345" viewBox="0 0 577 345" fill="none" xmlns="http://www.w3.org/2000/svg">
<path d="M20.4048 64.4904L24.0552 61.308L22.6512 57.8448C22.932 57.3768 23.1192 56.8152 23.3064 56.3472C23.4936 55.7856 23.5872 55.3176 23.6808 54.756L26.8632 52.7904L25.8336 48.0168L22.0896 47.5488C21.528 46.6128 20.7792 45.7704 19.9368 45.1152L19.8432 41.3712L15.2568 39.8736L12.9168 42.8688C11.7936 42.9624 10.6704 43.1496 9.7344 43.524L6.4584 41.7456L2.808 44.928L4.212 48.3912C3.9312 48.8592 3.744 49.4208 3.5568 49.8888C3.3696 50.4504 3.276 50.9184 3.1824 51.48L0 53.4456L1.0296 58.2192L4.7736 58.6872C5.3352 59.6232 6.084 60.4656 6.9264 61.1208L7.02 64.8648L11.6064 66.3624L13.9464 63.3672C15.0696 63.2736 16.1928 63.0864 17.1288 62.712L20.4048 64.4904ZM16.2864 54.0072C15.7248 55.5984 14.04 56.4408 12.4488 55.9728C10.8576 55.4112 10.0152 53.7264 10.4832 52.1352C11.0448 50.544 12.7296 49.7016 14.3208 50.1696C15.912 50.6376 16.7544 52.416 16.2864 54.0072Z" fill="white"/>
<path d="M38.1888 72.3528L40.9968 69.8256L39.8736 67.1112C40.0608 66.7368 40.248 66.3624 40.3416 65.8944C40.4352 65.52 40.6224 65.052 40.6224 64.6776L43.1496 63.18L42.4008 59.5296L39.4992 59.1552C39.0312 58.4064 38.4696 57.7512 37.8144 57.2832L37.7208 54.3816L34.164 53.1648L32.3856 55.5048C31.5432 55.5048 30.7008 55.692 29.8584 56.0664L27.3312 54.6624L24.5232 57.1896L25.6464 59.904C25.4592 60.2784 25.272 60.6528 25.1784 61.1208C25.0848 61.4952 24.8976 61.9632 24.8976 62.3376L22.3704 63.8352L23.1192 67.4856L26.0208 67.86C26.4888 68.6088 27.0504 69.264 27.7056 69.732L27.7992 72.6336L31.356 73.7568L33.1344 71.4168C33.9768 71.4168 34.8192 71.2296 35.6616 70.8552L38.1888 72.3528ZM34.9128 64.2096C34.5384 65.4264 33.1344 66.0816 31.9176 65.7072C30.7008 65.3328 30.0456 63.9288 30.42 62.712C30.7944 61.4952 32.1984 60.84 33.4152 61.2144C34.632 61.5888 35.3808 62.8992 34.9128 64.2096Z" fill="white"/>
<path d="M523.224 223.33H512.46C511.992 223.33 511.618 222.955 511.618 222.487C511.618 222.019 511.992 221.645 512.46 221.645H523.224C523.692 221.645 524.066 222.019 524.066 222.487C524.066 222.955 523.692 223.33 523.224 223.33ZM501.696 223.33H490.932C490.464 223.33 490.09 222.955 490.09 222.487C490.09 222.019 490.464 221.645 490.932 221.645H501.696C502.164 221.645 502.538 222.019 502.538 222.487C502.632 222.955 502.258 223.33 501.696 223.33ZM480.262 223.33H469.498C469.03 223.33 468.655 222.955 468.655 222.487C468.655 222.019 469.03 221.645 469.498 221.645H480.262C480.73 221.645 481.104 222.019 481.104 222.487C481.198 222.955 480.73 223.33 480.262 223.33ZM458.827 223.33H448.063C447.595 223.33 447.221 222.955 447.221 222.487C447.221 222.019 447.595 221.645 448.063 221.645H458.827C459.295 221.645 459.67 222.019 459.67 222.487C459.763 222.955 459.295 223.33 458.827 223.33ZM437.393 223.33H426.629C426.161 223.33 425.786 222.955 425.786 222.487C425.786 222.019 426.161 221.645 426.629 221.645H437.393C437.861 221.645 438.235 222.019 438.235 222.487C438.235 222.955 437.861 223.33 437.393 223.33ZM415.958 223.33H405.194C404.726 223.33 404.352 222.955 404.352 222.487C404.352 222.019 404.726 221.645 405.194 221.645H415.958C416.426 221.645 416.801 222.019 416.801 222.487C416.801 222.955 416.426 223.33 415.958 223.33ZM394.524 223.33H383.76C383.292 223.33 382.918 222.955 382.918 222.487C382.918 222.019 383.292 221.645 383.76 221.645H394.524C394.992 221.645 395.366 222.019 395.366 222.487C395.366 222.955 394.992 223.33 394.524 223.33ZM372.996 223.33H362.232C361.764 223.33 361.39 222.955 361.39 222.487C361.39 222.019 361.764 221.645 362.232 221.645H372.996C373.464 221.645 373.838 222.019 373.838 222.487C373.932 222.955 373.558 223.33 372.996 223.33ZM351.562 223.33H340.798C340.33 223.33 339.955 222.955 339.955 222.487C339.955 222.019 340.33 221.645 340.798 221.645H351.562C352.03 221.645 352.404 222.019 352.404 222.487C352.498 222.955 352.03 223.33 351.562 223.33ZM330.127 223.33H319.363C318.895 223.33 318.521 222.955 318.521 222.487C318.521 222.019 318.895 221.645 319.363 221.645H330.127C330.595 221.645 330.97 222.019 330.97 222.487C330.97 222.955 330.595 223.33 330.127 223.33ZM308.693 223.33H301.205C299.988 223.33 298.865 223.142 297.742 222.674C297.274 222.487 297.086 222.019 297.274 221.551C297.461 221.083 297.929 220.896 298.397 221.083C299.333 221.458 300.269 221.645 301.298 221.645H308.786C309.254 221.645 309.629 222.019 309.629 222.487C309.535 222.955 309.161 223.33 308.693 223.33ZM533.801 222.768C533.426 222.768 533.146 222.581 532.958 222.206C532.771 221.738 533.052 221.27 533.426 221.083C536.515 219.866 538.574 216.871 538.574 213.595C538.574 213.127 538.949 212.659 539.417 212.659C539.885 212.659 540.259 213.034 540.259 213.502C540.259 217.526 537.732 221.177 533.988 222.674C534.082 222.768 533.988 222.768 533.801 222.768ZM292.313 214.438C291.845 214.438 291.47 214.063 291.47 213.595V202.831C291.47 202.363 291.845 201.989 292.313 201.989C292.781 201.989 293.155 202.363 293.155 202.831V213.595C293.249 214.063 292.781 214.438 292.313 214.438ZM539.604 203.767C539.136 203.767 538.762 203.393 538.762 202.925V192.161C538.762 191.693 539.136 191.318 539.604 191.318C540.072 191.318 540.446 191.693 540.446 192.161V202.925C540.446 203.299 540.072 203.767 539.604 203.767ZM292.313 193.003C291.845 193.003 291.47 192.629 291.47 192.161V181.397C291.47 180.929 291.845 180.554 292.313 180.554C292.781 180.554 293.155 180.929 293.155 181.397V192.161C293.249 192.629 292.781 193.003 292.313 193.003ZM539.604 182.239C539.136 182.239 538.762 181.865 538.762 181.397V170.633C538.762 170.165 539.136 169.79 539.604 169.79C540.072 169.79 540.446 170.165 540.446 170.633V181.397C540.446 181.865 540.072 182.239 539.604 182.239ZM292.313 171.569C291.845 171.569 291.47 171.194 291.47 170.726V159.962C291.47 159.494 291.845 159.12 292.313 159.12C292.781 159.12 293.155 159.494 293.155 159.962V170.633C293.249 171.194 292.781 171.569 292.313 171.569ZM539.604 160.805C539.136 160.805 538.762 160.43 538.762 159.962V149.198C538.762 148.73 539.136 148.356 539.604 148.356C540.072 148.356 540.446 148.73 540.446 149.198V159.962C540.446 160.43 540.072 160.805 539.604 160.805ZM292.313 150.134C291.845 150.134 291.47 149.76 291.47 149.292V138.528C291.47 138.06 291.845 137.686 292.313 137.686C292.781 137.686 293.155 138.06 293.155 138.528V149.292C293.249 149.666 292.781 150.134 292.313 150.134ZM539.604 139.37C539.136 139.37 538.762 138.996 538.762 138.528V127.764C538.762 127.296 539.136 126.922 539.604 126.922C540.072 126.922 540.446 127.296 540.446 127.764V138.528C540.446 138.996 540.072 139.37 539.604 139.37ZM292.313 128.606C291.845 128.606 291.47 128.232 291.47 127.764V117C291.47 116.532 291.845 116.158 292.313 116.158C292.781 116.158 293.155 116.532 293.155 117V127.764C293.249 128.232 292.781 128.606 292.313 128.606ZM539.604 117.936C539.136 117.936 538.762 117.562 538.762 117.094V106.33C538.762 105.862 539.136 105.487 539.604 105.487C540.072 105.487 540.446 105.862 540.446 106.33V117.094C540.446 117.562 540.072 117.936 539.604 117.936ZM292.313 107.172C291.845 107.172 291.47 106.798 291.47 106.33V95.5656C291.47 95.0976 291.845 94.7232 292.313 94.7232C292.781 94.7232 293.155 95.0976 293.155 95.5656V106.33C293.249 106.798 292.781 107.172 292.313 107.172ZM539.604 96.5016C539.136 96.5016 538.762 96.1272 538.762 95.6592V84.8952C538.762 84.4272 539.136 84.0528 539.604 84.0528C540.072 84.0528 540.446 84.4272 540.446 84.8952V95.6592C540.446 96.0336 540.072 96.5016 539.604 96.5016ZM292.313 85.7376C291.845 85.7376 291.47 85.3632 291.47 84.8952V74.1312C291.47 73.6632 291.845 73.2888 292.313 73.2888C292.781 73.2888 293.155 73.6632 293.155 74.1312V84.8952C293.249 85.3632 292.781 85.7376 292.313 85.7376ZM539.604 74.9736C539.136 74.9736 538.762 74.5992 538.762 74.1312V63.3672C538.762 62.8992 539.136 62.5248 539.604 62.5248C540.072 62.5248 540.446 62.8992 540.446 63.3672V74.1312C540.446 74.5992 540.072 74.9736 539.604 74.9736ZM292.313 64.3032C291.845 64.3032 291.47 63.9288 291.47 63.4608V52.6968C291.47 52.2288 291.845 51.8544 292.313 51.8544C292.781 51.8544 293.155 52.2288 293.155 52.6968V63.4608C293.249 63.9288 292.781 64.3032 292.313 64.3032ZM539.604 53.5392C539.136 53.5392 538.762 53.1648 538.762 52.6968V41.9328C538.762 41.4648 539.136 41.0904 539.604 41.0904C540.072 41.0904 540.446 41.4648 540.446 41.9328V52.6968C540.446 53.1648 540.072 53.5392 539.604 53.5392ZM292.313 42.8688C291.845 42.8688 291.47 42.4944 291.47 42.0264V31.2624C291.47 30.7944 291.845 30.42 292.313 30.42C292.781 30.42 293.155 30.7944 293.155 31.2624V42.0264C293.249 42.4008 292.781 42.8688 292.313 42.8688ZM539.604 32.1048C539.136 32.1048 538.762 31.7304 538.762 31.2624V20.4984C538.762 20.0304 539.136 19.656 539.604 19.656C540.072 19.656 540.446 20.0304 540.446 20.4984V31.2624C540.446 31.7304 540.072 32.1048 539.604 32.1048ZM292.313 21.4344C291.845 21.4344 291.47 21.06 291.47 20.592V9.7344C291.47 9.2664 291.845 8.892 292.313 8.892C292.781 8.892 293.155 9.2664 293.155 9.7344V20.4984C293.249 20.9664 292.781 21.4344 292.313 21.4344ZM539.604 10.6704C539.136 10.6704 538.762 10.296 538.762 9.828C538.762 6.552 536.702 3.5568 533.614 2.34C533.146 2.1528 532.958 1.6848 533.146 1.2168C533.333 0.748799 533.801 0.561599 534.269 0.748799C538.013 2.1528 540.54 5.8968 540.54 9.828C540.446 10.2024 540.072 10.6704 539.604 10.6704ZM298.022 2.34C297.648 2.34 297.367 2.1528 297.18 1.7784C296.993 1.3104 297.274 0.842401 297.648 0.655201C298.771 0.187201 299.894 0 301.111 0H308.599C309.067 0 309.442 0.374398 309.442 0.842398C309.442 1.3104 309.067 1.6848 308.599 1.6848H301.111C300.175 1.6848 299.146 1.872 298.303 2.2464C298.21 2.34 298.116 2.34 298.022 2.34ZM523.224 1.7784H512.46C511.992 1.7784 511.618 1.404 511.618 0.936C511.618 0.468 511.992 0.0935986 512.46 0.0935986H523.224C523.692 0.0935986 524.066 0.468 524.066 0.936C524.066 1.404 523.692 1.7784 523.224 1.7784ZM501.79 1.7784H491.026C490.558 1.7784 490.183 1.404 490.183 0.936C490.183 0.468 490.558 0.0935986 491.026 0.0935986H501.79C502.258 0.0935986 502.632 0.468 502.632 0.936C502.632 1.404 502.258 1.7784 501.79 1.7784ZM480.262 1.7784H469.498C469.03 1.7784 468.655 1.404 468.655 0.936C468.655 0.468 469.03 0.0935986 469.498 0.0935986H480.262C480.73 0.0935986 481.104 0.468 481.104 0.936C481.198 1.404 480.823 1.7784 480.262 1.7784ZM458.827 1.7784H448.063C447.595 1.7784 447.221 1.404 447.221 0.936C447.221 0.468 447.595 0.0935986 448.063 0.0935986H458.827C459.295 0.0935986 459.67 0.468 459.67 0.936C459.763 1.404 459.295 1.7784 458.827 1.7784ZM437.393 1.7784H426.629C426.161 1.7784 425.786 1.404 425.786 0.936C425.786 0.468 426.161 0.0935986 426.629 0.0935986H437.393C437.861 0.0935986 438.235 0.468 438.235 0.936C438.235 1.404 437.861 1.7784 437.393 1.7784ZM415.958 1.7784H405.194C404.726 1.7784 404.352 1.404 404.352 0.936C404.352 0.468 404.726 0.0935986 405.194 0.0935986H415.958C416.426 0.0935986 416.801 0.468 416.801 0.936C416.801 1.404 416.426 1.7784 415.958 1.7784ZM394.524 1.7784H383.76C383.292 1.7784 382.918 1.404 382.918 0.936C382.918 0.468 383.292 0.0935986 383.76 0.0935986H394.524C394.992 0.0935986 395.366 0.468 395.366 0.936C395.366 1.404 394.992 1.7784 394.524 1.7784ZM372.996 1.7784H362.232C361.764 1.7784 361.39 1.404 361.39 0.936C361.39 0.468 361.764 0.0935986 362.232 0.0935986H372.996C373.464 0.0935986 373.838 0.468 373.838 0.936C373.932 1.404 373.558 1.7784 372.996 1.7784ZM351.562 1.7784H340.798C340.33 1.7784 339.955 1.404 339.955 0.936C339.955 0.468 340.33 0.0935986 340.798 0.0935986H351.562C352.03 0.0935986 352.404 0.468 352.404 0.936C352.498 1.404 352.123 1.7784 351.562 1.7784ZM330.127 1.7784H319.363C318.895 1.7784 318.521 1.404 318.521 0.936C318.521 0.468 318.895 0.0935986 319.363 0.0935986H330.127C330.595 0.0935986 330.97 0.468 330.97 0.936C331.063 1.404 330.595 1.7784 330.127 1.7784Z" fill="#0831BE"/>
<path d="M196.466 321.89H185.89C185.422 321.89 185.047 321.516 185.047 321.048C185.047 320.58 185.422 320.206 185.89 320.206H196.466C196.934 320.206 197.309 320.58 197.309 321.048C197.309 321.516 196.934 321.89 196.466 321.89ZM175.219 321.89H164.642C164.174 321.89 163.8 321.516 163.8 321.048C163.8 320.58 164.174 320.206 164.642 320.206H175.219C175.687 320.206 176.062 320.58 176.062 321.048C176.155 321.516 175.687 321.89 175.219 321.89ZM154.066 321.89H143.489C143.021 321.89 142.646 321.516 142.646 321.048C142.646 320.58 143.021 320.206 143.489 320.206H154.066C154.534 320.206 154.908 320.58 154.908 321.048C154.908 321.516 154.534 321.89 154.066 321.89ZM132.818 321.89H122.242C121.774 321.89 121.399 321.516 121.399 321.048C121.399 320.58 121.774 320.206 122.242 320.206H132.818C133.286 320.206 133.661 320.58 133.661 321.048C133.754 321.516 133.286 321.89 132.818 321.89ZM111.665 321.89H101.088C100.62 321.89 100.246 321.516 100.246 321.048C100.246 320.58 100.62 320.206 101.088 320.206H111.665C112.133 320.206 112.507 320.58 112.507 321.048C112.507 321.516 112.133 321.89 111.665 321.89ZM90.4176 321.89H79.8408C79.3728 321.89 78.9984 321.516 78.9984 321.048C78.9984 320.58 79.3728 320.206 79.8408 320.206H90.4176C90.8856 320.206 91.26 320.58 91.26 321.048C91.3536 321.516 90.8856 321.89 90.4176 321.89ZM69.264 321.89H58.6872C58.2192 321.89 57.8448 321.516 57.8448 321.048C57.8448 320.58 58.2192 320.206 58.6872 320.206H69.264C69.732 320.206 70.1064 320.58 70.1064 321.048C70.1064 321.516 69.732 321.89 69.264 321.89ZM48.0168 321.89H38.7504C38.1888 321.89 37.7208 321.797 37.1592 321.703C36.6912 321.61 36.4104 321.142 36.504 320.674C36.5976 320.206 37.0656 319.925 37.5336 320.018C37.908 320.112 38.2824 320.112 38.6568 320.112H47.9232C48.3912 320.112 48.7656 320.486 48.7656 320.954C48.9528 321.516 48.5784 321.89 48.0168 321.89ZM207.043 321.89C206.575 321.89 206.201 321.516 206.201 321.048C206.201 320.58 206.575 320.112 207.043 320.112C210.038 319.925 212.378 317.023 212.378 313.56C212.378 313.092 212.753 312.624 213.221 312.624C213.689 312.624 214.063 312.998 214.063 313.466V313.56C214.063 318.053 210.974 321.703 207.043 321.89ZM32.292 313.466C31.824 313.466 31.4496 313.092 31.4496 312.624V302.047C31.4496 301.579 31.824 301.205 32.292 301.205C32.76 301.205 33.1344 301.579 33.1344 302.047V312.624C33.228 313.092 32.76 313.466 32.292 313.466ZM213.127 303.826C212.659 303.826 212.285 303.451 212.285 302.983V292.313C212.285 291.845 212.659 291.47 213.127 291.47C213.595 291.47 213.97 291.845 213.97 292.313V302.89C214.063 303.451 213.689 303.826 213.127 303.826ZM32.292 292.313C31.824 292.313 31.4496 291.938 31.4496 291.47V280.894C31.4496 280.426 31.824 280.051 32.292 280.051C32.76 280.051 33.1344 280.426 33.1344 280.894V291.377C33.228 291.845 32.76 292.313 32.292 292.313ZM213.127 282.672C212.659 282.672 212.285 282.298 212.285 281.83V271.253C212.285 270.785 212.659 270.41 213.127 270.41C213.595 270.41 213.97 270.785 213.97 271.253V281.83C214.063 282.204 213.689 282.672 213.127 282.672ZM32.292 271.066C31.824 271.066 31.4496 270.691 31.4496 270.223V259.646C31.4496 259.178 31.824 258.804 32.292 258.804C32.76 258.804 33.1344 259.178 33.1344 259.646V270.223C33.228 270.691 32.76 271.066 32.292 271.066ZM213.127 261.425C212.659 261.425 212.285 261.05 212.285 260.582V250.006C212.285 249.538 212.659 249.163 213.127 249.163C213.595 249.163 213.97 249.538 213.97 250.006V260.582C214.063 261.05 213.689 261.425 213.127 261.425ZM32.292 249.912C31.824 249.912 31.4496 249.538 31.4496 249.07V238.493C31.4496 238.025 31.824 237.65 32.292 237.65C32.76 237.65 33.1344 238.025 33.1344 238.493V249.07C33.228 249.538 32.76 249.912 32.292 249.912ZM213.127 240.271C212.659 240.271 212.285 239.897 212.285 239.429V228.852C212.285 228.384 212.659 228.01 213.127 228.01C213.595 228.01 213.97 228.384 213.97 228.852V239.429C214.063 239.803 213.689 240.271 213.127 240.271ZM32.292 228.665C31.824 228.665 31.4496 228.29 31.4496 227.822V217.246C31.4496 216.778 31.824 216.403 32.292 216.403C32.76 216.403 33.1344 216.778 33.1344 217.246V227.822C33.228 228.29 32.76 228.665 32.292 228.665ZM213.127 219.024C212.659 219.024 212.285 218.65 212.285 218.182V207.605C212.285 207.137 212.659 206.762 213.127 206.762C213.595 206.762 213.97 207.137 213.97 207.605V218.182C214.063 218.65 213.689 219.024 213.127 219.024ZM32.292 207.511C31.824 207.511 31.4496 207.137 31.4496 206.669V196.092C31.4496 195.624 31.824 195.25 32.292 195.25C32.76 195.25 33.1344 195.624 33.1344 196.092V206.669C33.228 207.137 32.76 207.511 32.292 207.511ZM213.127 197.87C212.659 197.87 212.285 197.496 212.285 197.028V186.451C212.285 185.983 212.659 185.609 213.127 185.609C213.595 185.609 213.97 185.983 213.97 186.451V197.028C214.063 197.496 213.689 197.87 213.127 197.87ZM32.292 186.264C31.824 186.264 31.4496 185.89 31.4496 185.422V174.845C31.4496 174.377 31.824 174.002 32.292 174.002C32.76 174.002 33.1344 174.377 33.1344 174.845V185.422C33.228 185.89 32.76 186.264 32.292 186.264ZM213.127 176.623C212.659 176.623 212.285 176.249 212.285 175.781V165.204C212.285 164.736 212.659 164.362 213.127 164.362C213.595 164.362 213.97 164.736 213.97 165.204V175.781C214.063 176.249 213.689 176.623 213.127 176.623ZM32.292 165.11C31.824 165.11 31.4496 164.736 31.4496 164.268V153.691C31.4496 153.223 31.824 152.849 32.292 152.849C32.76 152.849 33.1344 153.223 33.1344 153.691V164.268C33.228 164.736 32.76 165.11 32.292 165.11ZM213.127 155.47C212.659 155.47 212.285 155.095 212.285 154.627V144.05C212.285 143.582 212.659 143.208 213.127 143.208C213.595 143.208 213.97 143.582 213.97 144.05V154.627C214.063 155.095 213.689 155.47 213.127 155.47ZM32.292 143.863C31.824 143.863 31.4496 143.489 31.4496 143.021C31.4496 138.622 34.5384 134.971 38.376 134.69C38.844 134.69 39.312 135.065 39.312 135.533C39.312 136.001 38.9376 136.469 38.4696 136.469C35.4744 136.656 33.228 139.558 33.228 143.021C33.228 143.489 32.76 143.863 32.292 143.863ZM207.979 136.562C207.886 136.562 207.886 136.562 207.792 136.562C207.418 136.469 207.043 136.469 206.669 136.469H197.402C196.934 136.469 196.56 136.094 196.56 135.626C196.56 135.158 196.934 134.784 197.402 134.784H206.669C207.137 134.784 207.698 134.878 208.166 134.971C208.634 135.065 208.915 135.533 208.822 136.001C208.728 136.282 208.354 136.562 207.979 136.562ZM186.826 136.469H176.249C175.781 136.469 175.406 136.094 175.406 135.626C175.406 135.158 175.781 134.784 176.249 134.784H186.826C187.294 134.784 187.668 135.158 187.668 135.626C187.668 136.094 187.294 136.469 186.826 136.469ZM165.578 136.469H155.002C154.534 136.469 154.159 136.094 154.159 135.626C154.159 135.158 154.534 134.784 155.002 134.784H165.578C166.046 134.784 166.421 135.158 166.421 135.626C166.514 136.094 166.14 136.469 165.578 136.469ZM144.425 136.469H133.848C133.38 136.469 133.006 136.094 133.006 135.626C133.006 135.158 133.38 134.784 133.848 134.784H144.425C144.893 134.784 145.267 135.158 145.267 135.626C145.267 136.094 144.893 136.469 144.425 136.469ZM123.178 136.469H112.601C112.133 136.469 111.758 136.094 111.758 135.626C111.758 135.158 112.133 134.784 112.601 134.784H123.178C123.646 134.784 124.02 135.158 124.02 135.626C124.114 136.094 123.739 136.469 123.178 136.469ZM102.024 136.469H91.4472C90.9792 136.469 90.6048 136.094 90.6048 135.626C90.6048 135.158 90.9792 134.784 91.4472 134.784H102.024C102.492 134.784 102.866 135.158 102.866 135.626C102.866 136.094 102.492 136.469 102.024 136.469ZM80.7768 136.469H70.2C69.732 136.469 69.3576 136.094 69.3576 135.626C69.3576 135.158 69.732 134.784 70.2 134.784H80.7768C81.2448 134.784 81.6192 135.158 81.6192 135.626C81.7128 136.094 81.3384 136.469 80.7768 136.469ZM59.6232 136.469H49.0464C48.5784 136.469 48.204 136.094 48.204 135.626C48.204 135.158 48.5784 134.784 49.0464 134.784H59.6232C60.0912 134.784 60.4656 135.158 60.4656 135.626C60.4656 136.094 60.0912 136.469 59.6232 136.469Z" fill="#0831BE"/>
<path opacity="0.3" d="M224.734 253.001C224.734 255.247 222.955 257.026 220.709 257.026H80.028C77.7816 257.026 76.0032 255.247 76.0032 253.001V168.48C76.0032 166.234 77.7816 164.455 80.028 164.455H220.709C222.955 164.455 224.734 166.234 224.734 168.48V253.001Z" fill="#809DFF"/>
<path opacity="0.3" d="M424.757 115.877C424.757 118.123 422.978 119.902 420.732 119.902H280.051C277.805 119.902 276.026 118.123 276.026 115.877V31.356C276.026 29.1096 277.805 27.3312 280.051 27.3312H420.732C422.978 27.3312 424.757 29.1096 424.757 31.356V115.877Z" fill="#809DFF"/>
<path d="M532.865 277.056C532.865 279.302 531.086 281.081 528.84 281.081H388.159C385.913 281.081 384.134 279.302 384.134 277.056V192.535C384.134 190.289 385.913 188.51 388.159 188.51H528.84C531.086 188.51 532.865 190.289 532.865 192.535V277.056Z" fill="#CAD6FE"/>
<path d="M234 88.8264C234 90.6984 232.502 92.196 230.63 92.196H113.443C111.571 92.196 110.074 90.6984 110.074 88.8264V18.3456C110.074 16.4736 111.571 14.976 113.443 14.976H230.724C232.596 14.976 234.094 16.4736 234.094 18.3456V88.8264H234Z" fill="#CAD6FE"/>
<path d="M312.811 297.648H261.706L253.562 318.614H320.954L312.811 297.648Z" fill="#0831BE"/>
<path d="M346.414 317.959H228.197V336.398H346.414V317.959Z" fill="#809DFF"/>
<path d="M459.482 295.87C459.482 301.298 455.083 305.698 449.654 305.698H121.68C116.251 305.698 111.852 301.298 111.852 295.87V106.142C111.852 100.714 116.251 96.3144 121.68 96.3144H449.561C454.99 96.3144 459.389 100.714 459.389 106.142V295.87H459.482Z" fill="#0831BE"/>
<path d="M111.852 225.95V295.87C111.852 301.298 116.251 305.698 121.68 305.698H449.561C454.99 305.698 459.389 301.298 459.389 295.87V225.95H111.852Z" fill="#809DFF"/>
<path d="M117.936 265.262V105.862C117.936 103.99 119.621 102.492 121.586 102.492H449.467C451.526 102.492 453.118 103.99 453.118 105.862V265.262H117.936Z" fill="#CFD1D2"/>
<path d="M396.583 102.492H174.658V265.262H396.583V102.492Z" fill="white"/>
<path d="M453.305 132.35V105.862C453.305 103.99 451.62 102.492 449.654 102.492H121.68C119.621 102.492 118.03 103.99 118.03 105.862V132.35H453.305Z" fill="#809DFF"/>
<path d="M453.305 272.002H445.442V279.864H453.305V272.002Z" fill="#264FDA"/>
<path opacity="0.7" d="M438.89 272.002H431.028V279.864H438.89V272.002Z" fill="white"/>
<path opacity="0.4" d="M424.476 272.002H416.614V279.864H424.476V272.002Z" fill="white"/>
<path opacity="0.2" d="M409.968 272.002H402.106V279.864H409.968V272.002Z" fill="white"/>
<path opacity="0.2" d="M553.55 177.372C553.55 180.18 551.304 182.426 548.496 182.426H369.533C366.725 182.426 364.478 180.18 364.478 177.372V69.8256C364.478 67.0176 366.725 64.7712 369.533 64.7712H548.402C551.21 64.7712 553.457 67.0176 553.457 69.8256V177.372H553.55Z" fill="#0831BE"/>
<path d="M558.792 171.194C558.792 174.002 556.546 176.249 553.738 176.249H374.774C371.966 176.249 369.72 174.002 369.72 171.194V63.648C369.72 60.84 371.966 58.5936 374.774 58.5936H553.644C556.452 58.5936 558.698 60.84 558.698 63.648V171.194H558.792Z" fill="white"/>
<path d="M553.644 58.5936H374.774C371.966 58.5936 369.72 60.84 369.72 63.648V82.0872H558.792V63.648C558.792 60.84 556.546 58.5936 553.644 58.5936Z" fill="#0831BE"/>
<path d="M551.304 69.1704H545.969V74.5056H551.304V69.1704Z" fill="#CAD6FE"/>
<path opacity="0.7" d="M544.378 69.1704H539.042V74.5056H544.378V69.1704Z" fill="#CAD6FE"/>
<path opacity="0.2" d="M537.451 69.1704H532.116V74.5056H537.451V69.1704Z" fill="#CAD6FE"/>
<path d="M420.17 121.867C420.17 127.764 415.397 132.444 409.594 132.444C403.697 132.444 399.017 127.67 399.017 121.867C399.017 115.97 403.79 111.29 409.594 111.29C415.49 111.29 420.17 115.97 420.17 121.867Z" fill="white"/>
<path d="M458.546 142.553C458.546 148.45 453.773 153.13 447.97 153.13C442.166 153.13 437.393 148.356 437.393 142.553C437.393 136.656 442.166 131.976 447.97 131.976C453.773 131.976 458.546 136.656 458.546 142.553Z" fill="white"/>
<path opacity="0.2" d="M461.482 135.659C465.664 117.95 454.698 100.205 436.989 96.0235C419.281 91.842 401.535 102.808 397.354 120.516C393.172 138.225 404.138 155.97 421.847 160.152C439.555 164.333 457.301 153.368 461.482 135.659Z" fill="#809DFF"/>
<path d="M423.259 141.055L430.373 134.69L427.565 127.764C428.033 126.828 428.501 125.798 428.875 124.769C429.25 123.739 429.437 122.616 429.624 121.586L435.989 117.655L434.023 108.295L426.629 107.266C425.506 105.394 424.008 103.802 422.323 102.398L422.136 95.004L413.057 92.0088L408.47 97.9056C406.224 97.9992 404.071 98.4672 402.106 99.216L395.554 95.6592L388.44 102.024L391.248 108.95C390.78 109.886 390.312 110.916 389.938 111.946C389.563 112.975 389.376 114.098 389.189 115.128L382.824 119.059L384.79 128.419L392.184 129.449C393.307 131.321 394.805 132.912 396.49 134.316L396.677 141.71L405.756 144.706L410.342 138.809C412.589 138.715 414.742 138.247 416.707 137.498L423.259 141.055ZM415.116 120.182C414.086 123.365 410.717 125.05 407.534 124.02C404.352 122.99 402.667 119.621 403.697 116.438C404.726 113.256 408.096 111.571 411.278 112.601C414.367 113.63 416.146 117 415.116 120.182Z" fill="#CAD6FE"/>
<path d="M414.367 103.147C405.943 100.433 396.864 104.926 394.15 113.35C391.435 121.774 395.928 130.853 404.352 133.567C412.776 136.282 421.855 131.789 424.57 123.365C427.284 114.941 422.791 105.862 414.367 103.147ZM407.441 124.02C404.258 122.99 402.574 119.621 403.603 116.438C404.633 113.256 408.002 111.571 411.185 112.601C414.367 113.63 416.052 117 415.022 120.182C413.993 123.365 410.623 125.05 407.441 124.02Z" fill="#0831BE"/>
<path d="M458.453 156.593L463.975 151.632L461.822 146.297C462.197 145.548 462.571 144.799 462.758 143.957C463.039 143.114 463.226 142.272 463.32 141.523L468.281 138.528L466.783 131.227L461.074 130.478C460.138 129.074 459.014 127.764 457.704 126.734L457.517 120.931L450.403 118.591L446.846 123.178C445.162 123.271 443.477 123.646 441.886 124.207L436.831 121.493L431.309 126.454L433.462 131.789C433.087 132.538 432.713 133.286 432.526 134.129C432.245 134.971 432.058 135.814 431.964 136.562L427.003 139.558L428.501 146.858L434.21 147.607C435.146 149.011 436.27 150.322 437.58 151.351L437.767 157.154L444.881 159.494L448.438 154.908C450.122 154.814 451.807 154.44 453.398 153.878L458.453 156.593ZM452.088 140.4C451.246 142.834 448.625 144.238 446.191 143.395C443.758 142.553 442.354 139.932 443.196 137.498C444.038 135.065 446.659 133.661 449.093 134.503C451.526 135.346 452.93 137.966 452.088 140.4Z" fill="#CAD6FE"/>
<path d="M451.526 127.202C444.974 125.05 437.954 128.606 435.802 135.158C433.649 141.71 437.206 148.73 443.758 150.883C450.31 153.036 457.33 149.479 459.482 142.927C461.635 136.282 458.078 129.262 451.526 127.202ZM446.191 143.395C443.758 142.553 442.354 139.932 443.196 137.498C444.038 135.065 446.659 133.661 449.093 134.503C451.526 135.346 452.93 137.966 452.088 140.4C451.339 142.927 448.625 144.238 446.191 143.395Z" fill="#0831BE"/>
<path d="M482.04 153.036C482.04 157.903 485.971 161.928 490.932 161.928H537.826C542.693 161.928 546.718 157.997 546.718 153.036V106.142C546.718 101.275 542.786 97.2504 537.826 97.2504H490.932C486.065 97.2504 482.04 101.182 482.04 106.142V153.036Z" fill="#0831BE"/>
<path d="M539.698 107.453C539.698 109.044 538.387 110.354 536.796 110.354H491.681C490.09 110.354 488.779 109.044 488.779 107.453C488.779 105.862 490.09 104.551 491.681 104.551H536.796C538.387 104.551 539.698 105.862 539.698 107.453Z" fill="#CAD6FE"/>
<path d="M524.254 133.099C524.254 134.69 522.943 136.001 521.352 136.001H491.681C490.09 136.001 488.779 134.69 488.779 133.099C488.779 131.508 490.09 130.198 491.681 130.198H521.352C523.037 130.198 524.254 131.508 524.254 133.099Z" fill="#CAD6FE"/>
<path d="M534.737 142.553C534.737 144.144 533.426 145.454 531.835 145.454H491.774C490.183 145.454 488.873 144.144 488.873 142.553C488.873 140.962 490.183 139.651 491.774 139.651H531.835C533.426 139.651 534.737 140.962 534.737 142.553Z" fill="white"/>
<path d="M507.593 116.906C507.593 118.498 506.282 119.808 504.691 119.808H491.774C490.183 119.808 488.873 118.498 488.873 116.906C488.873 115.315 490.183 114.005 491.774 114.005H504.691C506.282 114.005 507.593 115.315 507.593 116.906Z" fill="white"/>
<path d="M498.794 152.006C498.794 153.598 497.484 154.908 495.893 154.908H491.681C490.09 154.908 488.779 153.598 488.779 152.006C488.779 150.415 490.09 149.105 491.681 149.105H495.893C497.484 149.105 498.794 150.415 498.794 152.006Z" fill="white"/>
<path d="M511.524 152.006C511.524 153.598 510.214 154.908 508.622 154.908H504.504C502.913 154.908 501.602 153.598 501.602 152.006C501.602 150.415 502.913 149.105 504.504 149.105H508.716C510.307 149.105 511.524 150.415 511.524 152.006Z" fill="white"/>
<path d="M524.254 152.006C524.254 153.598 522.943 154.908 521.352 154.908H517.14C515.549 154.908 514.238 153.598 514.238 152.006C514.238 150.415 515.549 149.105 517.14 149.105H521.352C523.037 149.105 524.254 150.415 524.254 152.006Z" fill="white"/>
<path d="M529.308 116.906C529.308 118.498 527.998 119.808 526.406 119.808H513.49C511.898 119.808 510.588 118.498 510.588 116.906C510.588 115.315 511.898 114.005 513.49 114.005H526.406C527.998 114.005 529.308 115.315 529.308 116.906Z" fill="white"/>
<path opacity="0.2" d="M117 305.978C117 307.57 115.69 308.974 114.005 308.974H10.2024C8.61122 308.974 7.20721 307.663 7.20721 305.978V243.641C7.20721 242.05 8.51762 240.646 10.2024 240.646H114.005C115.596 240.646 117 241.956 117 243.641V305.978Z" fill="#0831BE"/>
<path d="M122.71 299.801C122.71 301.392 121.399 302.796 119.714 302.796H16.0056C14.4144 302.796 13.0104 301.486 13.0104 299.801V237.463C13.0104 235.872 14.3208 234.468 16.0056 234.468H119.808C121.399 234.468 122.803 235.778 122.803 237.463V299.801H122.71Z" fill="white"/>
<path d="M119.808 234.468H16.0056C14.4144 234.468 13.0104 235.778 13.0104 237.463V248.134H122.71V237.463C122.71 235.778 121.399 234.468 119.808 234.468Z" fill="#CAD6FE"/>
<path d="M118.404 240.646H115.315V243.734H118.404V240.646Z" fill="white"/>
<path opacity="0.7" d="M114.379 240.646H111.29V243.734H114.379V240.646Z" fill="white"/>
<path opacity="0.2" d="M110.354 240.646H107.266V243.734H110.354V240.646Z" fill="white"/>
<path d="M71.604 257.681H21.528V288.943H71.604V257.681Z" fill="#CAD6FE"/>
<path d="M55.692 273.312C55.692 278.366 51.5736 282.391 46.6128 282.391C41.5584 282.391 37.5336 278.273 37.5336 273.312C37.5336 268.258 41.652 264.233 46.6128 264.233C51.5736 264.233 55.692 268.351 55.692 273.312Z" fill="#0831BE"/>
<path d="M43.8048 268.819L51.6672 273.312L43.8048 277.898V268.819Z" fill="white"/>
<path d="M118.404 257.681H79.56V261.706H118.404V257.681Z" fill="#CAD6FE"/>
<path d="M112.694 257.681H79.56V261.706H112.694V257.681Z" fill="#809DFF"/>
<path d="M91.6344 257.681H79.56V261.706H91.6344V257.681Z" fill="#0831BE"/>
<path d="M118.404 264.233H79.56V268.258H118.404V264.233Z" fill="#CAD6FE"/>
<path d="M112.694 264.233H79.56V268.258H112.694V264.233Z" fill="#809DFF"/>
<path d="M104.645 264.233H79.56V268.258H104.645V264.233Z" fill="#0831BE"/>
<path d="M118.404 270.785H79.56V274.81H118.404V270.785Z" fill="#CAD6FE"/>
<path d="M106.33 270.785H79.56V274.81H106.33V270.785Z" fill="#809DFF"/>
<path d="M88.1712 270.785H79.56V274.81H88.1712V270.785Z" fill="#0831BE"/>
<path d="M118.404 277.337H79.56V281.362H118.404V277.337Z" fill="#CAD6FE"/>
<path d="M112.694 277.337H79.56V281.362H112.694V277.337Z" fill="#809DFF"/>
<path d="M104.645 277.337H79.56V281.362H104.645V277.337Z" fill="#0831BE"/>
<path d="M118.404 284.357H86.6736V286.697H118.404V284.357Z" fill="#CAD6FE"/>
<path d="M118.404 289.037H79.56V291.377H118.404V289.037Z" fill="#CAD6FE"/>
<path d="M118.404 293.717H79.56V296.057H118.404V293.717Z" fill="#CAD6FE"/>
<path opacity="0.2" d="M344.822 248.602H215.374V73.6632H328.723L344.822 89.7624V248.602Z" fill="#0831BE"/>
<path d="M350.345 242.424H220.896V67.392H334.246L350.345 83.5848V242.424Z" fill="white"/>
<path d="M293.81 79.092H242.986V84.9888H293.81V79.092Z" fill="#CAD6FE"/>
<path d="M293.904 89.4816H228.29V95.3784H293.904V89.4816Z" fill="#CAD6FE"/>
<path d="M293.904 99.8712H228.29V105.768H293.904V99.8712Z" fill="#CAD6FE"/>
<path d="M293.904 110.261H228.29V116.158H293.904V110.261Z" fill="#CAD6FE"/>
<path d="M293.904 120.65H228.29V126.547H293.904V120.65Z" fill="#CAD6FE"/>
<path d="M293.904 131.04H228.29V136.937H293.904V131.04Z" fill="#CAD6FE"/>
<path opacity="0.3" d="M342.95 79.092H299.614V136.937H342.95V79.092Z" fill="#CAD6FE"/>
<path d="M342.95 144.893H228.29V195.624H342.95V144.893Z" fill="#CAD6FE"/>
<path d="M335.182 108.014C335.182 115.69 329.004 121.867 321.329 121.867C313.654 121.867 307.476 115.69 307.476 108.014C307.476 100.339 313.654 94.1616 321.329 94.1616C328.91 94.1616 335.182 100.433 335.182 108.014Z" fill="#0831BE"/>
<path d="M317.21 101.182L329.098 108.014L317.21 114.941V101.182Z" fill="white"/>
<path d="M271.534 203.674H228.29V222.487H271.534V203.674Z" fill="#0831BE"/>
<path d="M342.95 203.674H277.337V222.487H342.95V203.674Z" fill="#CAD6FE"/>
<path d="M334.246 67.392V83.5848H350.345L334.246 67.392Z" fill="#CAD6FE"/>
<path opacity="0.2" d="M452.462 225.295H442.822V209.102L434.023 200.304H372.154V234.374H365.695C362.419 234.374 359.798 236.995 359.798 240.271V291.658C359.798 294.934 362.419 297.554 365.695 297.554H449.28C452.556 297.554 455.177 294.934 455.177 291.658V253.282V240.271V228.103C455.27 226.512 453.96 225.295 452.462 225.295Z" fill="#0831BE"/>
<path d="M447.876 290.441H377.114V194.875H439.078L447.876 203.674V290.441Z" fill="white"/>
<path d="M439.078 194.875V203.674H447.876L439.078 194.875Z" fill="#CAD6FE"/>
<path opacity="0.2" d="M439.078 210.319H396.302V214.906H439.078V210.319Z" fill="#809DFF"/>
<path opacity="0.2" d="M439.078 220.334H386.006V224.921H439.078V220.334Z" fill="#809DFF"/>
<path opacity="0.2" d="M439.078 230.256H386.006V234.842H439.078V230.256Z" fill="#809DFF"/>
<path opacity="0.2" d="M439.078 240.178H386.006V244.764H439.078V240.178Z" fill="#809DFF"/>
<path opacity="0.2" d="M439.078 250.193H386.006V254.779H439.078V250.193Z" fill="#809DFF"/>
<path d="M460.231 286.229C460.231 289.505 457.61 292.126 454.334 292.126H370.75C367.474 292.126 364.853 289.505 364.853 286.229V234.842C364.853 231.566 367.474 228.946 370.75 228.946H454.334C457.61 228.946 460.231 231.566 460.231 234.842V286.229Z" fill="#CAD6FE"/>
<path d="M460.231 247.853C460.231 249.35 459.014 250.567 457.517 250.567H418.766C417.269 250.567 416.052 249.35 416.052 247.853V222.674C416.052 221.177 417.269 219.96 418.766 219.96H457.517C459.014 219.96 460.231 221.177 460.231 222.674V247.853Z" fill="#CAD6FE"/>
<path d="M428.782 271.346C428.782 274.903 425.88 277.805 422.323 277.805H402.761C399.204 277.805 396.302 274.903 396.302 271.346V251.784C396.302 248.227 399.204 245.326 402.761 245.326H422.323C425.88 245.326 428.782 248.227 428.782 251.784V271.346Z" fill="white"/>
<path d="M419.141 258.804C419.141 255.154 416.146 252.252 412.589 252.252C408.938 252.252 406.037 255.247 406.037 258.804C406.037 261.425 407.628 263.671 409.781 264.794V267.322C409.781 268.913 411.091 270.13 412.589 270.13C414.18 270.13 415.397 268.819 415.397 267.322V264.794C417.55 263.671 419.141 261.425 419.141 258.804Z" fill="#0831BE"/>
<path opacity="0.2" d="M556.265 202.082H474.178V258.71H556.265V202.082Z" fill="#0831BE"/>
<path d="M560.945 197.028H478.858V253.656H560.945V197.028Z" fill="white"/>
<path d="M556.452 201.427H483.257V249.257H556.452V201.427Z" fill="#CAD6FE"/>
<path d="M527.623 229.975C527.623 239.335 520.042 246.823 510.775 246.823C501.415 246.823 493.927 239.242 493.927 229.975C493.927 220.709 501.509 213.127 510.775 213.127C520.135 213.127 527.623 220.709 527.623 229.975Z" fill="white"/>
<path d="M496.922 249.257H556.546V231.847L535.392 210.694L496.922 249.257Z" fill="#0831BE"/>
<path d="M501.041 223.891L483.257 241.582V249.257H526.406L501.041 223.891Z" fill="#CAD6FE"/>
<path opacity="0.2" d="M184.673 122.616C184.673 124.488 183.175 125.986 181.303 125.986H62.712C60.84 125.986 59.3424 124.488 59.3424 122.616V51.2928C59.3424 49.4208 60.84 47.9232 62.712 47.9232H181.303C183.175 47.9232 184.673 49.4208 184.673 51.2928V122.616Z" fill="#0831BE"/>
<path d="M190.476 115.783C190.476 117.655 188.978 119.153 187.106 119.153H68.4216C66.5496 119.153 65.052 117.655 65.052 115.783V44.46C65.052 42.588 66.5496 41.0904 68.4216 41.0904H187.013C188.885 41.0904 190.382 42.588 190.382 44.46V115.783H190.476Z" fill="#CAD6FE"/>
<path d="M187.013 41.0904H68.4216C66.5496 41.0904 65.052 42.588 65.052 44.46V56.7216H190.476V44.46C190.476 42.6816 188.885 41.0904 187.013 41.0904Z" fill="#0831BE"/>
<path d="M185.515 48.1104H181.958V51.6672H185.515V48.1104Z" fill="white"/>
<path d="M180.929 48.1104H177.372V51.6672H180.929V48.1104Z" fill="white"/>
<path d="M176.249 48.1104H172.692V51.6672H176.249V48.1104Z" fill="white"/>
<path d="M117.842 80.2152L103.054 86.2992L117.842 92.3832V96.5952L99.4032 88.7328V83.8656L117.842 75.9096V80.2152Z" fill="white"/>
<path d="M136.562 65.4264L122.99 105.019H118.217L131.789 65.4264H136.562Z" fill="white"/>
<path d="M135.158 92.1024L149.947 86.0184L135.158 79.9344V75.7224L153.504 83.5848V88.452L135.065 96.408V92.1024H135.158Z" fill="white"/>
<path opacity="0.2" d="M195.343 206.575C195.343 210.6 192.067 213.876 188.042 213.876H107.453C103.428 213.876 100.152 210.6 100.152 206.575V157.342C100.152 153.317 103.428 150.041 107.453 150.041H188.136C192.161 150.041 195.437 153.317 195.437 157.342V206.575H195.343Z" fill="#0831BE"/>
<path d="M201.427 200.866C201.427 204.89 198.151 208.166 194.126 208.166H113.537C109.512 208.166 106.236 204.89 106.236 200.866V151.632C106.236 147.607 109.512 144.331 113.537 144.331H194.126C198.151 144.331 201.427 147.607 201.427 151.632V200.866Z" fill="#CAD6FE"/>
<path d="M106.33 195.624V200.866C106.33 204.89 109.606 208.166 113.63 208.166H194.22C198.245 208.166 201.521 204.89 201.521 200.866V195.624H106.33Z" fill="white"/>
<path d="M188.978 153.598H116.813V161.086H188.978V153.598Z" fill="white"/>
<path d="M128.232 153.598H116.813V161.086H128.232V153.598Z" fill="#0831BE"/>
<path d="M150.322 162.958H116.813V167.45H150.322V162.958Z" fill="white"/>
<path d="M163.613 162.958H154.159V167.45H163.613V162.958Z" fill="white"/>
<path d="M176.717 162.958H167.263V167.45H176.717V162.958Z" fill="white"/>
<path d="M188.978 174.47H116.813V181.958H188.978V174.47Z" fill="white"/>
<path d="M141.991 174.47H116.813V181.958H141.991V174.47Z" fill="#0831BE"/>
<path d="M132.818 183.924H116.813V188.417H132.818V183.924Z" fill="white"/>
<path d="M150.977 183.924H136.375V188.417H150.977V183.924Z" fill="white"/>
<path d="M163.332 183.924H153.878V188.417H163.332V183.924Z" fill="white"/>
<path opacity="0.2" d="M136.843 242.705C136.843 238.68 140.119 235.404 144.144 235.404H224.64C228.665 235.404 231.941 238.68 231.941 242.705V291.938C231.941 295.963 228.665 299.239 224.64 299.239H144.144C140.119 299.239 136.843 295.963 136.843 291.938V242.705Z" fill="#0831BE"/>
<path d="M141.523 237.65C141.523 233.626 144.799 230.35 148.824 230.35H229.32C233.345 230.35 236.621 233.626 236.621 237.65V286.884C236.621 290.909 233.345 294.185 229.32 294.185H148.73C144.706 294.185 141.43 290.909 141.43 286.884V237.65H141.523Z" fill="white"/>
<path d="M236.621 242.986V237.744C236.621 233.719 233.345 230.443 229.32 230.443H148.73C144.706 230.443 141.43 233.719 141.43 237.744V242.986H236.621Z" fill="#0831BE"/>
<path opacity="0.4" d="M192.816 257.213C192.816 257.026 192.816 256.932 192.816 256.745C192.816 253.001 195.905 249.912 199.649 249.912C200.678 249.912 201.614 250.099 202.457 250.567C204.142 248.789 206.482 247.666 209.102 247.666C214.157 247.666 218.182 251.69 218.182 256.745C218.182 257.026 218.182 257.213 218.182 257.4C220.615 258.804 222.206 261.425 222.206 264.326C222.206 268.819 218.556 272.376 214.157 272.376C212.566 272.376 210.974 271.908 209.758 271.066C208.447 271.908 206.95 272.376 205.358 272.376C203.767 272.376 202.176 271.908 200.959 271.066C199.649 271.908 198.151 272.376 196.56 272.376C192.067 272.376 188.51 268.726 188.51 264.326C188.323 261.238 190.102 258.523 192.816 257.213Z" fill="#CAD6FE"/>
<path d="M208.541 264.139C208.541 263.858 208.541 263.671 208.541 263.39C208.541 257.494 203.767 252.72 197.87 252.72C196.279 252.72 194.782 253.094 193.471 253.656C190.85 250.848 187.2 249.163 183.082 249.163C175.219 249.163 168.854 255.528 168.854 263.39C168.854 263.765 168.854 264.139 168.854 264.514C165.11 266.666 162.583 270.785 162.583 275.465C162.583 282.485 168.199 288.101 175.219 288.101C177.746 288.101 180.18 287.352 182.146 286.042C184.111 287.352 186.545 288.101 189.072 288.101C191.599 288.101 194.033 287.352 195.998 286.042C197.964 287.352 200.398 288.101 202.925 288.101C209.945 288.101 215.561 282.485 215.561 275.465C215.561 270.504 212.659 266.198 208.541 264.139Z" fill="#CAD6FE"/>
<path d="M189.072 261.331L179.431 270.972H184.298V277.711H193.752V270.972H198.619L189.072 261.331Z" fill="#0831BE"/>
<path d="M229.882 236.621H225.576V240.926H229.882V236.621Z" fill="#CAD6FE"/>
<path opacity="0.7" d="M224.266 236.621H219.96V240.926H224.266V236.621Z" fill="#CAD6FE"/>
<path opacity="0.2" d="M218.556 236.621H214.25V240.926H218.556V236.621Z" fill="#CAD6FE"/>
<path d="M495.518 278.273V295.495L499.918 291.19L506.002 297.274L514.519 288.756L508.435 282.672L512.741 278.273H495.518Z" fill="white"/>
<path d="M453.305 340.423C459.353 340.423 464.256 335.52 464.256 329.472C464.256 323.424 459.353 318.521 453.305 318.521C447.257 318.521 442.354 323.424 442.354 329.472C442.354 335.52 447.257 340.423 453.305 340.423Z" fill="#0831BE"/>
<path d="M450.029 324.043L459.482 329.472L450.029 334.994V324.043Z" fill="white"/>
<path d="M74.7864 186.17C74.7864 194.314 68.2344 200.866 60.0912 200.866C51.948 200.866 45.396 194.314 45.396 186.17C45.396 178.027 51.948 171.475 60.0912 171.475C68.2344 171.475 74.7864 178.027 74.7864 186.17Z" fill="white"/>
<path d="M67.2984 190.008L65.052 187.762C66.456 185.141 66.1752 181.865 63.9288 179.618C61.308 176.998 57.0024 176.998 54.288 179.618C51.6672 182.239 51.6672 186.545 54.288 189.259C56.5344 191.506 59.8104 191.786 62.4312 190.382L64.6776 192.629C65.4264 193.378 66.5496 193.378 67.2984 192.629C68.0472 191.88 68.0472 190.663 67.2984 190.008ZM62.0568 187.294C60.4656 188.885 57.9384 188.885 56.3472 187.294C54.756 185.702 54.756 183.175 56.3472 181.584C57.9384 179.993 60.4656 179.993 62.0568 181.584C63.5544 183.175 63.5544 185.702 62.0568 187.294Z" fill="#CAD6FE"/>
<path d="M251.316 38.844C251.316 46.9872 244.764 53.5392 236.621 53.5392C228.478 53.5392 221.926 46.9872 221.926 38.844C221.926 30.7008 228.478 24.1488 236.621 24.1488C244.764 24.1488 251.316 30.7008 251.316 38.844Z" fill="white"/>
<path d="M230.256 38.5632C230.256 36.6912 231.754 35.1936 233.626 35.1936H243.734V34.0704C243.734 32.5728 242.518 31.4496 241.114 31.4496H230.256C228.758 31.4496 227.635 32.6664 227.635 34.0704V38.0952C227.635 39.5928 228.852 40.716 230.256 40.716V38.5632Z" fill="#264FDA"/>
<path d="M244.764 36.2232H234C232.502 36.2232 231.379 37.44 231.379 38.844V42.8688C231.379 42.8688 231.379 42.8688 231.379 42.9624V47.6424L234.749 45.5832H244.858C246.355 45.5832 247.478 44.3664 247.478 42.9624V38.9376C247.385 37.44 246.262 36.2232 244.764 36.2232ZM235.966 41.9328C235.404 41.9328 234.842 41.4648 234.842 40.8096C234.842 40.248 235.31 39.6864 235.966 39.6864C236.527 39.6864 237.089 40.1544 237.089 40.8096C237.089 41.4648 236.621 41.9328 235.966 41.9328ZM239.522 41.9328C238.961 41.9328 238.399 41.4648 238.399 40.8096C238.399 40.248 238.867 39.6864 239.522 39.6864C240.084 39.6864 240.646 40.1544 240.646 40.8096C240.646 41.4648 240.178 41.9328 239.522 41.9328ZM243.173 41.9328C242.611 41.9328 242.05 41.4648 242.05 40.8096C242.05 40.248 242.518 39.6864 243.173 39.6864C243.734 39.6864 244.296 40.1544 244.296 40.8096C244.202 41.4648 243.734 41.9328 243.173 41.9328Z" fill="#264FDA"/>
<path d="M354.838 43.8984H351.936V41.0904H351.655H348.941H348.754V43.8984H345.852V47.1744H348.754V49.9824H348.941H351.655H351.936V47.1744H354.838V43.8984Z" fill="white"/>
<path d="M169.042 338.083H166.234V335.275H165.953H163.238H162.958V338.083H160.15V341.359H162.958V344.167H163.238H165.953H166.234V341.359H169.042V338.083Z" fill="white"/>
<path d="M576.95 287.446H574.049V284.544H573.862H571.147H570.866V287.446H568.058V290.628H570.866V293.53H571.147H573.862H574.049V290.628H576.95V287.446Z" fill="white"/>
<path d="M40.6224 115.222H37.8144V112.414H37.5336H34.8192H34.5384V115.222H31.7304V118.498H34.5384V121.306H34.8192H37.5336H37.8144V118.498H40.6224V115.222Z" fill="white"/>
</svg>
