<svg width="527" height="303" viewBox="0 0 527 303" fill="none" xmlns="http://www.w3.org/2000/svg">
<g clip-path="url(#clip0_145_2)">
<path d="M343.9 287.7V282.7L340.5 282.2C340.2 281.1 339.8 280 339.2 279.1L341.3 276.4L337.8 272.9L335 275C334 274.4 333 274 331.9 273.7L331.4 270.3H326.4L325.9 273.7C324.8 274 323.7 274.4 322.8 275L320.1 272.9L316.6 276.4L318.7 279.1C318.1 280.1 317.7 281.1 317.4 282.2L314 282.7V287.7L317.4 288.2C317.7 289.3 318.1 290.4 318.7 291.3L316.6 294L320.1 297.5L322.8 295.4C323.8 296 324.8 296.4 325.9 296.7L326.4 300.1H331.4L331.9 296.7C333 296.4 334.1 296 335 295.4L337.7 297.5L341.2 294L339.1 291.3C339.7 290.3 340.1 289.3 340.4 288.2L343.9 287.7ZM329 291.4C325.6 291.4 322.8 288.6 322.8 285.2C322.8 281.8 325.6 279 329 279C332.4 279 335.2 281.8 335.2 285.2C335.1 288.7 332.4 291.4 329 291.4Z" fill="#E4EFF7"/>
<path d="M103.9 94.2C105.7 77.3 119.9 64.2 137.3 64.2C143.7 64.2 149.6 66 154.6 69.1C159.7 65.5 165.9 63.4 172.6 63.4C188.4 63.4 201.4 75 203.6 90.2C218.4 93.6 229.4 106.8 229.4 122.6C229.4 141 214.5 155.9 196.1 155.9H116C98.3 155.9 84 141.6 84 123.9C84 110.5 92.2 99 103.9 94.2Z" fill="#A5B9FF"/>
<path opacity="0.6" d="M185.5 119.7C185.9 117.8 186.1 115.9 186.1 113.9C186.1 111.9 185.9 110 185.5 108.1L181 107.5C180.5 105.6 179.7 103.8 178.8 102.2L181.5 98.5C179.4 95.2 176.6 92.4 173.3 90.3L169.6 93C167.9 92 166.2 91.3 164.3 90.8L163.7 86.3C161.8 85.9 159.9 85.7 157.9 85.7C155.9 85.7 154 85.9 152.1 86.3L151.5 90.8C149.6 91.3 147.8 92.1 146.2 93L142.5 90.3C139.2 92.4 136.5 95.2 134.3 98.5L137 102.2C136.1 103.9 135.3 105.6 134.8 107.5L130.3 108.1C129.9 110 129.7 111.9 129.7 113.9C129.7 115.9 129.9 117.8 130.3 119.7L134.8 120.4C135.3 122.3 136.1 124.1 137 125.7L134.2 129.4C136.3 132.7 139.1 135.4 142.4 137.6L146.1 134.8C147.8 135.7 149.5 136.5 151.4 137L152 141.5C153.9 141.9 155.8 142.1 157.8 142.1C159.8 142.1 161.7 141.9 163.6 141.5L164.2 137C166.1 136.5 167.9 135.7 169.5 134.8L173.2 137.6C176.5 135.5 179.3 132.7 181.4 129.4L178.6 125.7C179.6 124 180.3 122.3 180.8 120.4L185.5 119.7ZM157.9 127.5C150.4 127.5 144.3 121.4 144.3 113.9C144.3 106.4 150.4 100.3 157.9 100.3C165.4 100.3 171.5 106.4 171.5 113.9C171.5 121.4 165.4 127.5 157.9 127.5Z" fill="white"/>
<path d="M286.5 62.7C288.3 45.8 302.5 32.7 319.9 32.7C326.3 32.7 332.2 34.5 337.2 37.6C342.3 34 348.5 31.9 355.2 31.9C371 31.9 384 43.5 386.2 58.7C401 62.1 412 75.3 412 91.1C412 109.5 397.1 124.4 378.7 124.4H298.6C280.9 124.4 266.6 110.1 266.6 92.4C266.5 79 274.8 67.5 286.5 62.7Z" fill="#A5B9FF"/>
<path d="M158.8 223.3C158.8 207.4 148.3 193.9 133.9 189.3C131.8 172.8 117.7 160 100.6 160C93.7002 160 87.3002 162.1 82.0002 165.6C76.7002 162 70.3002 160 63.4002 160C46.3002 160 32.2002 172.8 30.1002 189.3C15.7002 193.8 5.2002 207.3 5.2002 223.3C5.2002 243 21.1002 258.9 40.8002 258.9H124C143.3 258.4 158.8 242.7 158.8 223.3Z" fill="#A5B9FF"/>
<path d="M168.7 241.5H77.9004V248.3H168.7V241.5Z" fill="#3D4959"/>
<path d="M168.7 208.7H77.9004V215.5H168.7V208.7Z" fill="#3D4959"/>
<path d="M172.8 276.9H73.5003C70.9003 276.9 68.8003 274.8 68.8003 272.2V251.2C68.8003 248.6 70.9003 246.5 73.5003 246.5H172.8C175.4 246.5 177.5 248.6 177.5 251.2V272.2C177.5 274.8 175.4 276.9 172.8 276.9Z" fill="#D6E0EA"/>
<path d="M113.9 246.6L108.9 277H73.5003C70.9003 277 68.8003 274.9 68.8003 272.3V251.3C68.8003 248.7 70.9003 246.6 73.5003 246.6H113.9Z" fill="#EDEDED"/>
<path d="M170.791 270.213V253.213L75.491 253.213V270.213H170.791Z" fill="#3D4959"/>
<path d="M163.3 261.8C163.3 263.4 162 264.7 160.4 264.7C158.8 264.7 157.5 263.4 157.5 261.8C157.5 260.2 158.8 258.9 160.4 258.9C162 258.8 163.3 260.1 163.3 261.8Z" fill="#A5B9FF"/>
<path d="M150.601 261.8C150.601 263.2 149.501 264.3 148.101 264.3C146.701 264.3 145.601 263.2 145.601 261.8C145.601 260.4 146.701 259.3 148.101 259.3C149.501 259.2 150.601 260.4 150.601 261.8Z" fill="#A5B9FF"/>
<path d="M138.4 261.8C138.4 263.2 137.3 264.3 135.9 264.3C134.5 264.3 133.4 263.2 133.4 261.8C133.4 260.4 134.5 259.3 135.9 259.3C137.3 259.2 138.4 260.4 138.4 261.8Z" fill="white"/>
<path d="M126.2 261.8C126.2 263.2 125.1 264.3 123.7 264.3C122.3 264.3 121.2 263.2 121.2 261.8C121.2 260.4 122.3 259.3 123.7 259.3C125 259.2 126.2 260.4 126.2 261.8Z" fill="#A5B9FF"/>
<path d="M113.9 261.8C113.9 263.2 112.8 264.3 111.4 264.3C110 264.3 108.9 263.2 108.9 261.8C108.9 260.4 110 259.3 111.4 259.3C112.8 259.2 113.9 260.4 113.9 261.8Z" fill="white"/>
<path d="M173.5 243.7H72.8003C70.6003 243.7 68.8003 241.9 68.8003 239.7V217.3C68.8003 215.1 70.6003 213.3 72.8003 213.3H173.5C175.7 213.3 177.5 215.1 177.5 217.3V239.7C177.5 241.9 175.7 243.7 173.5 243.7Z" fill="#D6E0EA"/>
<path d="M119.3 213.3L114.4 243.7H73.5003C70.9003 243.7 68.8003 241.6 68.8003 239V218C68.8003 215.4 70.9003 213.3 73.5003 213.3H119.3Z" fill="#EDEDED"/>
<path d="M170.82 236.941V219.941L75.5198 219.941V236.941L170.82 236.941Z" fill="#3D4959"/>
<path d="M173.5 210.9H72.8003C70.6003 210.9 68.8003 209.1 68.8003 206.9V184.5C68.8003 182.3 70.6003 180.5 72.8003 180.5H173.5C175.7 180.5 177.5 182.3 177.5 184.5V206.9C177.5 209.1 175.7 210.9 173.5 210.9Z" fill="#D6E0EA"/>
<path d="M124.7 180.5L119.7 210.9H73.5003C70.9003 210.9 68.8003 208.8 68.8003 206.2V185.2C68.8003 182.6 70.9003 180.5 73.5003 180.5H124.7Z" fill="#EDEDED"/>
<path d="M170.771 204.193V187.193L75.471 187.193V204.193L170.771 204.193Z" fill="#3D4959"/>
<path d="M160.3 231.4C161.902 231.4 163.2 230.102 163.2 228.5C163.2 226.898 161.902 225.6 160.3 225.6C158.699 225.6 157.4 226.898 157.4 228.5C157.4 230.102 158.699 231.4 160.3 231.4Z" fill="#A5B9FF"/>
<path d="M150.601 228.5C150.601 229.9 149.501 231 148.101 231C146.701 231 145.601 229.9 145.601 228.5C145.601 227.1 146.701 226 148.101 226C149.501 226 150.601 227.1 150.601 228.5Z" fill="#A5B9FF"/>
<path d="M138.4 228.5C138.4 229.9 137.3 231 135.9 231C134.5 231 133.4 229.9 133.4 228.5C133.4 227.1 134.5 226 135.9 226C137.3 226 138.4 227.1 138.4 228.5Z" fill="white"/>
<path d="M126.2 228.5C126.2 229.9 125.1 231 123.7 231C122.3 231 121.2 229.9 121.2 228.5C121.2 227.1 122.3 226 123.7 226C125 226 126.2 227.1 126.2 228.5Z" fill="#A5B9FF"/>
<path d="M113.9 228.5C113.9 229.9 112.8 231 111.4 231C110 231 108.9 229.9 108.9 228.5C108.9 227.1 110 226 111.4 226C112.8 226 113.9 227.1 113.9 228.5Z" fill="white"/>
<path d="M163.3 195.7C163.3 197.3 162 198.6 160.4 198.6C158.8 198.6 157.5 197.3 157.5 195.7C157.5 194.1 158.8 192.8 160.4 192.8C162 192.8 163.3 194.1 163.3 195.7Z" fill="#A5B9FF"/>
<path d="M150.601 195.7C150.601 197.1 149.501 198.2 148.101 198.2C146.701 198.2 145.601 197.1 145.601 195.7C145.601 194.3 146.701 193.2 148.101 193.2C149.501 193.2 150.601 194.3 150.601 195.7Z" fill="white"/>
<path d="M138.4 195.7C138.4 197.1 137.3 198.2 135.9 198.2C134.5 198.2 133.4 197.1 133.4 195.7C133.4 194.3 134.5 193.2 135.9 193.2C137.3 193.2 138.4 194.3 138.4 195.7Z" fill="white"/>
<path d="M126.2 195.7C126.2 197.1 125.1 198.2 123.7 198.2C122.3 198.2 121.2 197.1 121.2 195.7C121.2 194.3 122.3 193.2 123.7 193.2C125 193.2 126.2 194.3 126.2 195.7Z" fill="#A5B9FF"/>
<path d="M113.9 195.7C113.9 197.1 112.8 198.2 111.4 198.2C110 198.2 108.9 197.1 108.9 195.7C108.9 194.3 110 193.2 111.4 193.2C112.8 193.2 113.9 194.3 113.9 195.7Z" fill="#A5B9FF"/>
<path d="M324.8 207.4C324.8 194.8 316.5 184.2 305.1 180.6C303.5 167.5 292.3 157.4 278.8 157.4C273.4 157.4 268.3 159 264.1 161.8C259.9 159 254.8 157.4 249.4 157.4C235.9 157.4 224.8 167.5 223.1 180.6C211.7 184.2 203.4 194.8 203.4 207.4C203.4 222.9 216 235.5 231.5 235.5H297.1C312.6 235.2 324.8 222.7 324.8 207.4Z" fill="#A5B9FF"/>
<path d="M309.8 266.6H219V273.4H309.8V266.6Z" fill="#3D4959"/>
<path d="M309.8 233.9H219V240.7H309.8V233.9Z" fill="#3D4959"/>
<path d="M313.9 302.1H214.6C212 302.1 209.9 300 209.9 297.4V276.4C209.9 273.8 212 271.7 214.6 271.7H313.9C316.5 271.7 318.6 273.8 318.6 276.4V297.4C318.6 300 316.5 302.1 313.9 302.1Z" fill="#D6E0EA"/>
<path d="M255 271.7L250 302.1H214.5C211.9 302.1 209.8 300 209.8 297.4V276.4C209.8 273.8 211.9 271.7 214.5 271.7H255Z" fill="#EDEDED"/>
<path d="M311.897 295.366V278.366H216.597V295.366H311.897Z" fill="#3D4959"/>
<path d="M304.401 286.9C304.401 288.5 303.101 289.8 301.501 289.8C299.901 289.8 298.601 288.5 298.601 286.9C298.601 285.3 299.901 284 301.501 284C303.001 284 304.401 285.3 304.401 286.9Z" fill="#A5B9FF"/>
<path d="M291.701 286.9C291.701 288.3 290.601 289.4 289.201 289.4C287.801 289.4 286.701 288.3 286.701 286.9C286.701 285.5 287.801 284.4 289.201 284.4C290.601 284.4 291.701 285.5 291.701 286.9Z" fill="#A5B9FF"/>
<path d="M279.5 286.9C279.5 288.3 278.4 289.4 277 289.4C275.6 289.4 274.5 288.3 274.5 286.9C274.5 285.5 275.6 284.4 277 284.4C278.4 284.4 279.5 285.5 279.5 286.9Z" fill="white"/>
<path d="M267.201 286.9C267.201 288.3 266.101 289.4 264.701 289.4C263.301 289.4 262.201 288.3 262.201 286.9C262.201 285.5 263.301 284.4 264.701 284.4C266.101 284.4 267.201 285.5 267.201 286.9Z" fill="#A5B9FF"/>
<path d="M255 286.9C255 288.3 253.9 289.4 252.5 289.4C251.1 289.4 250 288.3 250 286.9C250 285.5 251.1 284.4 252.5 284.4C253.9 284.4 255 285.5 255 286.9Z" fill="white"/>
<path d="M314.6 268.8H213.9C211.7 268.8 209.9 267 209.9 264.8V242.4C209.9 240.2 211.7 238.4 213.9 238.4H314.6C316.8 238.4 318.6 240.2 318.6 242.4V264.8C318.6 267 316.8 268.8 314.6 268.8Z" fill="#D6E0EA"/>
<path d="M260.4 238.4L255.5 268.8H214.6C212 268.8 209.9 266.7 209.9 264.1V243.1C209.9 240.5 212 238.4 214.6 238.4H260.4Z" fill="#EDEDED"/>
<path d="M311.926 262.094V245.094L216.626 245.094V262.094H311.926Z" fill="#3D4959"/>
<path d="M314.6 236.1H213.9C211.7 236.1 209.9 234.3 209.9 232.1V209.7C209.9 207.5 211.7 205.7 213.9 205.7H314.6C316.8 205.7 318.6 207.5 318.6 209.7V232C318.6 234.3 316.8 236.1 314.6 236.1Z" fill="#D6E0EA"/>
<path d="M265.7 205.7L260.7 236.1H214.5C211.9 236.1 209.8 234 209.8 231.4V210.4C209.8 207.8 211.9 205.7 214.5 205.7H265.7Z" fill="#EDEDED"/>
<path d="M311.877 229.346V212.346L216.577 212.346V229.346L311.877 229.346Z" fill="#3D4959"/>
<path d="M304.401 253.6C304.401 255.2 303.101 256.5 301.501 256.5C299.901 256.5 298.601 255.2 298.601 253.6C298.601 252 299.901 250.7 301.501 250.7C303.001 250.7 304.401 252 304.401 253.6Z" fill="#A5B9FF"/>
<path d="M291.701 253.6C291.701 255 290.601 256.1 289.201 256.1C287.801 256.1 286.701 255 286.701 253.6C286.701 252.2 287.801 251.1 289.201 251.1C290.601 251.1 291.701 252.2 291.701 253.6Z" fill="#A5B9FF"/>
<path d="M279.5 253.6C279.5 255 278.4 256.1 277 256.1C275.6 256.1 274.5 255 274.5 253.6C274.5 252.2 275.6 251.1 277 251.1C278.4 251.1 279.5 252.2 279.5 253.6Z" fill="white"/>
<path d="M267.201 253.6C267.201 255 266.101 256.1 264.701 256.1C263.301 256.1 262.201 255 262.201 253.6C262.201 252.2 263.301 251.1 264.701 251.1C266.101 251.1 267.201 252.2 267.201 253.6Z" fill="#A5B9FF"/>
<path d="M255 253.6C255 255 253.9 256.1 252.5 256.1C251.1 256.1 250 255 250 253.6C250 252.2 251.1 251.1 252.5 251.1C253.9 251.1 255 252.2 255 253.6Z" fill="white"/>
<path d="M304.401 220.9C304.401 222.5 303.101 223.8 301.501 223.8C299.901 223.8 298.601 222.5 298.601 220.9C298.601 219.3 299.901 218 301.501 218C303.001 217.9 304.401 219.2 304.401 220.9Z" fill="#A5B9FF"/>
<path d="M291.701 220.9C291.701 222.3 290.601 223.4 289.201 223.4C287.801 223.4 286.701 222.3 286.701 220.9C286.701 219.5 287.801 218.4 289.201 218.4C290.601 218.4 291.701 219.5 291.701 220.9Z" fill="white"/>
<path d="M279.5 220.9C279.5 222.3 278.4 223.4 277 223.4C275.6 223.4 274.5 222.3 274.5 220.9C274.5 219.5 275.6 218.4 277 218.4C278.4 218.4 279.5 219.5 279.5 220.9Z" fill="white"/>
<path d="M267.201 220.9C267.201 222.3 266.101 223.4 264.701 223.4C263.301 223.4 262.201 222.3 262.201 220.9C262.201 219.5 263.301 218.4 264.701 218.4C266.101 218.4 267.201 219.5 267.201 220.9Z" fill="#A5B9FF"/>
<path d="M255 220.9C255 222.3 253.9 223.4 252.5 223.4C251.1 223.4 250 222.3 250 220.9C250 219.5 251.1 218.4 252.5 218.4C253.9 218.4 255 219.5 255 220.9Z" fill="#A5B9FF"/>
<path d="M520.8 223.3C520.8 207.4 510.3 193.9 495.9 189.3C493.8 172.8 479.7 160 462.6 160C455.7 160 449.3 162.1 444 165.6C438.7 162 432.3 160 425.4 160C408.3 160 394.2 172.8 392.1 189.3C377.7 193.8 367.2 207.3 367.2 223.3C367.2 243 383.1 258.9 402.8 258.9H486C505.3 258.4 520.8 242.7 520.8 223.3Z" fill="#A5B9FF"/>
<path d="M455.3 241.5H364.5V248.3H455.3V241.5Z" fill="#3D4959"/>
<path d="M455.3 208.7H364.5V215.5H455.3V208.7Z" fill="#3D4959"/>
<path d="M459.4 276.9H360.1C357.5 276.9 355.4 274.8 355.4 272.2V251.2C355.4 248.6 357.5 246.5 360.1 246.5H459.4C462 246.5 464.1 248.6 464.1 251.2V272.2C464.1 274.8 462 276.9 459.4 276.9Z" fill="#D6E0EA"/>
<path d="M400.5 246.6L395.5 277H360C357.4 277 355.3 274.9 355.3 272.3V251.3C355.3 248.7 357.4 246.6 360 246.6H400.5Z" fill="#EDEDED"/>
<path d="M457.409 270.295V253.295L362.109 253.295V270.295H457.409Z" fill="#3D4959"/>
<path d="M449.9 261.8C449.9 263.4 448.6 264.7 447 264.7C445.4 264.7 444.1 263.4 444.1 261.8C444.1 260.2 445.4 258.9 447 258.9C448.6 258.8 449.9 260.1 449.9 261.8Z" fill="#A5B9FF"/>
<path d="M434.7 264.3C436.081 264.3 437.2 263.181 437.2 261.8C437.2 260.419 436.081 259.3 434.7 259.3C433.319 259.3 432.2 260.419 432.2 261.8C432.2 263.181 433.319 264.3 434.7 264.3Z" fill="#A5B9FF"/>
<path d="M425 261.8C425 263.2 423.9 264.3 422.5 264.3C421.1 264.3 420 263.2 420 261.8C420 260.4 421.1 259.3 422.5 259.3C423.9 259.2 425 260.4 425 261.8Z" fill="white"/>
<path d="M412.8 261.8C412.8 263.2 411.7 264.3 410.3 264.3C408.9 264.3 407.8 263.2 407.8 261.8C407.8 260.4 408.9 259.3 410.3 259.3C411.7 259.2 412.8 260.4 412.8 261.8Z" fill="#A5B9FF"/>
<path d="M400.6 261.8C400.6 263.2 399.5 264.3 398.1 264.3C396.7 264.3 395.6 263.2 395.6 261.8C395.6 260.4 396.7 259.3 398.1 259.3C399.4 259.2 400.6 260.4 400.6 261.8Z" fill="white"/>
<path d="M460.1 243.7H359.4C357.2 243.7 355.4 241.9 355.4 239.7V217.3C355.4 215.1 357.2 213.3 359.4 213.3H460.1C462.3 213.3 464.1 215.1 464.1 217.3V239.7C464.1 241.9 462.3 243.7 460.1 243.7Z" fill="#D6E0EA"/>
<path d="M405.9 213.3L401 243.7H360.1C357.5 243.7 355.4 241.6 355.4 239V218C355.4 215.4 357.5 213.3 360.1 213.3H405.9Z" fill="#EDEDED"/>
<path d="M457.438 237.023V220.023L362.137 220.023V237.023L457.438 237.023Z" fill="#3D4959"/>
<path d="M460.1 210.9H359.4C357.2 210.9 355.4 209.1 355.4 206.9V184.5C355.4 182.3 357.2 180.5 359.4 180.5H460.1C462.3 180.5 464.1 182.3 464.1 184.5V206.9C464.1 209.1 462.3 210.9 460.1 210.9Z" fill="#D6E0EA"/>
<path d="M411.3 180.5L406.3 210.9H360.1C357.5 210.9 355.4 208.8 355.4 206.2V185.2C355.4 182.6 357.5 180.5 360.1 180.5H411.3Z" fill="#EDEDED"/>
<path d="M457.389 204.275V187.275L362.089 187.275V204.275L457.389 204.275Z" fill="#3D4959"/>
<path d="M449.9 228.5C449.9 230.1 448.6 231.4 447 231.4C445.4 231.4 444.1 230.1 444.1 228.5C444.1 226.9 445.4 225.6 447 225.6C448.6 225.6 449.9 226.9 449.9 228.5Z" fill="#A5B9FF"/>
<path d="M437.2 228.5C437.2 229.9 436.1 231 434.7 231C433.3 231 432.2 229.9 432.2 228.5C432.2 227.1 433.3 226 434.7 226C436.1 226 437.2 227.1 437.2 228.5Z" fill="#A5B9FF"/>
<path d="M425 228.5C425 229.9 423.9 231 422.5 231C421.1 231 420 229.9 420 228.5C420 227.1 421.1 226 422.5 226C423.9 226 425 227.1 425 228.5Z" fill="white"/>
<path d="M412.8 228.5C412.8 229.9 411.7 231 410.3 231C408.9 231 407.8 229.9 407.8 228.5C407.8 227.1 408.9 226 410.3 226C411.7 226 412.8 227.1 412.8 228.5Z" fill="#A5B9FF"/>
<path d="M400.6 228.5C400.6 229.9 399.5 231 398.1 231C396.7 231 395.6 229.9 395.6 228.5C395.6 227.1 396.7 226 398.1 226C399.4 226 400.6 227.1 400.6 228.5Z" fill="white"/>
<path d="M449.9 195.7C449.9 197.3 448.6 198.6 447 198.6C445.4 198.6 444.1 197.3 444.1 195.7C444.1 194.1 445.4 192.8 447 192.8C448.6 192.8 449.9 194.1 449.9 195.7Z" fill="#A5B9FF"/>
<path d="M437.2 195.7C437.2 197.1 436.1 198.2 434.7 198.2C433.3 198.2 432.2 197.1 432.2 195.7C432.2 194.3 433.3 193.2 434.7 193.2C436.1 193.2 437.2 194.3 437.2 195.7Z" fill="white"/>
<path d="M425 195.7C425 197.1 423.9 198.2 422.5 198.2C421.1 198.2 420 197.1 420 195.7C420 194.3 421.1 193.2 422.5 193.2C423.9 193.2 425 194.3 425 195.7Z" fill="white"/>
<path d="M412.8 195.7C412.8 197.1 411.7 198.2 410.3 198.2C408.9 198.2 407.8 197.1 407.8 195.7C407.8 194.3 408.9 193.2 410.3 193.2C411.7 193.2 412.8 194.3 412.8 195.7Z" fill="#A5B9FF"/>
<path d="M400.6 195.7C400.6 197.1 399.5 198.2 398.1 198.2C396.7 198.2 395.6 197.1 395.6 195.7C395.6 194.3 396.7 193.2 398.1 193.2C399.4 193.2 400.6 194.3 400.6 195.7Z" fill="#A5B9FF"/>
<path d="M345.5 117.5H187.4C181.6 117.5 176.9 112.8 176.9 107V8.8C176.9 3.9 180.8 0 185.7 0H347.2C352.1 0 356 3.9 356 8.8V107C356 112.8 351.3 117.5 345.5 117.5Z" fill="#A5B9FF"/>
<path opacity="0.2" d="M264.9 0H187.2C181.5 0 176.9 4.6 176.9 10.3V105.3C176.9 112.1 182.4 117.5 189.1 117.5H241.2L264.9 0Z" fill="white"/>
<path d="M347.2 136.9H185.7C180.8 136.9 176.9 133 176.9 128.1V19.4H356V128.1C356 132.9 352.1 136.9 347.2 136.9Z" fill="#D6E0EA"/>
<path d="M181.7 127.4V19.4H351.2V127.4C351.2 130 349.1 132.1 346.5 132.1H186.4C183.8 132 181.7 130 181.7 127.4Z" fill="#F3F9FF"/>
<path d="M298.3 98.3V87.8L291.1 86.8C290.5 84.4 289.6 82.2 288.4 80.2L292.8 74.4L285.4 66.9L279.6 71.3C277.6 70.1 275.3 69.1 273 68.6L272 61.4H261.5L260.5 68.6C258.1 69.2 255.9 70.1 253.9 71.3L248.1 66.9L240.6 74.4L245 80.2C243.7 82.2 242.8 84.5 242.3 86.8L235.1 87.8V98.3L242.3 99.3C242.9 101.7 243.8 103.9 245 106L240.6 111.8L248.1 119.2L253.9 114.8C255.9 116.1 258.2 117 260.5 117.6L261.5 124.8H272L273 117.6C275.4 117 277.6 116.1 279.6 114.8L285.4 119.2L292.8 111.8L288.4 106C289.6 103.9 290.6 101.7 291.1 99.4L298.3 98.3ZM266.4 109C257.6 109 250.5 101.9 250.5 93.1C250.5 84.3 257.6 77.2 266.4 77.2C275.2 77.2 282.3 84.4 282.3 93.1C282.4 101.9 275.2 109 266.4 109Z" fill="#425160"/>
<path d="M266.4 109C257.6 109 250.5 101.9 250.5 93.1C250.5 84.3 257.6 77.2 266.4 77.2V61.3H261.2L260.2 68.5C257.8 69.1 255.6 70 253.6 71.2L247.8 66.8001L240.3 74.3001L244.7 80.1C243.4 82.1 242.5 84.4 242 86.7L234.8 87.7V98.2L242 99.2C242.6 101.6 243.5 103.8 244.7 105.9L240.3 111.7L247.8 119.1L253.6 114.7C255.6 116 257.9 116.9 260.2 117.5L261.2 124.7H266.4V109Z" fill="#3D4959"/>
<path d="M337.401 55.9V48.4L332.201 47.7C331.801 46 331.101 44.4 330.201 43L333.301 38.9L328.001 33.6L323.801 36.7C322.401 35.8 320.801 35.1 319.101 34.7L318.401 29.6H310.901L310.201 34.7C308.501 35.1 306.901 35.8 305.501 36.7L301.401 33.6L296.101 38.9L299.201 43C298.301 44.4 297.601 46 297.201 47.7L292.101 48.4V55.9L297.201 56.6C297.601 58.3 298.201 59.9 299.201 61.4L296.101 65.5L301.401 70.8L305.501 67.7C306.901 68.6 308.501 69.3 310.201 69.7L310.901 74.8H318.401L319.101 69.7C320.801 69.3 322.401 68.6 323.801 67.7L328.001 70.8L333.301 65.5L330.201 61.3C331.101 59.8 331.801 58.2 332.201 56.6L337.401 55.9ZM314.701 63.5C308.401 63.5 303.401 58.4 303.401 52.2C303.401 46 308.401 40.8 314.701 40.8C321.001 40.8 326.001 45.9 326.001 52.2C326.001 58.5 321.001 63.5 314.701 63.5Z" fill="#41566D"/>
<path d="M244.4 25.3H187.8V30H244.4V25.3Z" fill="#D6E0EA"/>
<path d="M244.4 36.4H187.8V41.1H244.4V36.4Z" fill="#D6E0EA"/>
<path d="M244.4 47.5H187.8V52.2H244.4V47.5Z" fill="#D6E0EA"/>
<path d="M232.1 58.6H187.8V63.3H232.1V58.6Z" fill="#D6E0EA"/>
<path d="M232.1 69.7H187.8V74.4H232.1V69.7Z" fill="#D6E0EA"/>
<path d="M313.6 9.89995C313.6 12.0999 311.8 13.7999 309.7 13.7999C307.5 13.7999 305.8 11.9999 305.8 9.89995C305.8 7.69995 307.6 5.99995 309.7 5.99995C311.8 5.89995 313.6 7.69995 313.6 9.89995Z" fill="white"/>
<path d="M329.7 9.9C329.7 12.1 327.9 13.8 325.8 13.8C323.7 13.8 321.9 12 321.9 9.9C321.9 7.7 323.7 6 325.8 6C327.9 6 329.7 7.7 329.7 9.9Z" fill="white"/>
<path d="M345.9 9.89995C345.9 12.0999 344.1 13.7999 342 13.7999C339.8 13.7999 338.1 11.9999 338.1 9.89995C338.1 7.69995 339.9 5.99995 342 5.99995C344.1 5.89995 345.9 7.69995 345.9 9.89995Z" fill="white"/>
<path d="M304.7 120C304.7 121.7 303.3 123.2 301.5 123.2C299.8 123.2 298.3 121.8 298.3 120C298.3 118.3 299.7 116.8 301.5 116.8C303.3 116.8 304.7 118.2 304.7 120Z" fill="#A5B9FF"/>
<path d="M318.3 120C318.3 121.7 316.9 123.2 315.1 123.2C313.4 123.2 311.9 121.8 311.9 120C311.9 118.3 313.3 116.8 315.1 116.8C316.9 116.8 318.3 118.2 318.3 120Z" fill="#A5B9FF"/>
<path d="M333.3 120C333.3 122.5 331.3 124.5 328.8 124.5C326.3 124.5 324.3 122.5 324.3 120C324.3 117.5 326.3 115.5 328.8 115.5C331.3 115.5 333.3 117.5 333.3 120Z" fill="#A5B9FF"/>
<path d="M345.6 120C345.6 121.7 344.2 123.2 342.4 123.2C340.7 123.2 339.2 121.8 339.2 120C339.2 118.3 340.6 116.8 342.4 116.8C344.2 116.8 345.6 118.2 345.6 120Z" fill="#A5B9FF"/>
<path d="M193.6 120C193.6 121.7 192.2 123.2 190.4 123.2C188.7 123.2 187.2 121.8 187.2 120C187.2 118.3 188.6 116.8 190.4 116.8C192.2 116.8 193.6 118.2 193.6 120Z" fill="#A5B9FF"/>
<path d="M207.2 120C207.2 121.7 205.8 123.2 204 123.2C202.3 123.2 200.8 121.8 200.8 120C200.8 118.3 202.2 116.8 204 116.8C205.8 116.8 207.2 118.2 207.2 120Z" fill="#A5B9FF"/>
<path d="M220.9 120C220.9 121.7 219.5 123.2 217.7 123.2C216 123.2 214.5 121.8 214.5 120C214.5 118.3 215.9 116.8 217.7 116.8C219.5 116.8 220.9 118.2 220.9 120Z" fill="#A5B9FF"/>
<path d="M234.5 120C234.5 121.7 233.1 123.2 231.3 123.2C229.6 123.2 228.1 121.8 228.1 120C228.1 118.3 229.5 116.8 231.3 116.8C233.1 116.8 234.5 118.2 234.5 120Z" fill="#A5B9FF"/>
<path d="M165.5 30.5V21.9L159.6 21.1C159.1 19.1 158.4 17.3 157.4 15.7L161 10.9L154.9 4.79998L150 8.29998C148.3 7.29998 146.5 6.49998 144.6 5.99998L143.8 0.0999756H135.2L134.2 5.99998C132.2 6.49998 130.4 7.19998 128.8 8.29998L124 4.69998L117.9 10.8L121.5 15.6C120.5 17.3 119.7 19.1 119.3 21L113.4 21.8V30.4L119.3 31.2C119.8 33.2 120.5 35 121.5 36.7L117.9 41.5L124 47.6L128.8 44C130.5 45 132.3 45.8 134.2 46.3L135 52.2H143.6L144.4 46.3C146.4 45.8 148.2 45.1 149.8 44L154.6 47.6L160.7 41.5L157.1 36.7C158.1 35 158.9 33.2 159.3 31.3L165.5 30.5ZM139.4 37C133.4 37 128.6 32.2 128.6 26.2C128.6 20.2 133.4 15.4 139.4 15.4C145.4 15.4 150.2 20.3 150.2 26.2C150.2 32.2 145.4 37 139.4 37Z" fill="#E4EFF7"/>
<path d="M434.7 150V142.5L429.6 141.8C429.2 140.1 428.5 138.5 427.7 137.1L430.8 133L425.5 127.7L421.3 130.8C419.9 129.9 418.3 129.2 416.6 128.9L415.9 123.8H408.4L407.7 128.9C406 129.3 404.4 130 403 130.8L398.9 127.7L393.6 133L396.7 137.1C395.8 138.5 395.1 140.1 394.8 141.8L389.7 142.5V150L394.8 150.7C395.2 152.4 395.8 154 396.7 155.4L393.6 159.5L398.9 164.8L403 161.7C404.4 162.6 406 163.3 407.7 163.7L408.4 168.8H415.9L416.6 163.7C418.3 163.3 419.9 162.6 421.3 161.7L425.5 164.8L430.8 159.5L427.7 155.3C428.6 153.8 429.3 152.2 429.6 150.6L434.7 150ZM412.1 155.6C406.9 155.6 402.7 151.4 402.7 146.2C402.7 141 406.9 136.8 412.1 136.8C417.3 136.8 421.5 141 421.5 146.2C421.5 151.4 417.2 155.6 412.1 155.6Z" fill="#DDE9F2"/>
<path d="M369 25.3001C369 27.0001 367.6 28.5001 365.8 28.5001C364.1 28.5001 362.6 27.1001 362.6 25.3001C362.6 23.6001 364 22.1001 365.8 22.1001C367.6 22.1001 369 23.5001 369 25.3001Z" fill="#DDE9F2"/>
<path d="M382.6 25.3001C382.6 27.0001 381.2 28.5001 379.4 28.5001C377.7 28.5001 376.2 27.1001 376.2 25.3001C376.2 23.6001 377.6 22.1001 379.4 22.1001C381.2 22.1001 382.6 23.5001 382.6 25.3001Z" fill="#DDE9F2"/>
<path d="M397.6 25.3C397.6 27.8 395.6 29.8 393.1 29.8C390.6 29.8 388.6 27.8 388.6 25.3C388.6 22.8 390.6 20.8 393.1 20.8C395.6 20.8 397.6 22.8 397.6 25.3Z" fill="#DDE9F2"/>
<path d="M409.9 25.3001C409.9 27.0001 408.5 28.5001 406.7 28.5001C405 28.5001 403.5 27.1001 403.5 25.3001C403.5 23.6001 404.9 22.1001 406.7 22.1001C408.5 22.1001 409.9 23.5001 409.9 25.3001Z" fill="#DDE9F2"/>
<path d="M181.1 293.4C181.1 291.7 182.5 290.2 184.3 290.2C186 290.2 187.5 291.6 187.5 293.4C187.5 295.1 186.1 296.6 184.3 296.6C182.5 296.6 181.1 295.2 181.1 293.4Z" fill="#DDE9F2"/>
<path d="M167.5 293.4C167.5 291.7 168.9 290.2 170.7 290.2C172.4 290.2 173.9 291.6 173.9 293.4C173.9 295.1 172.5 296.6 170.7 296.6C168.9 296.6 167.5 295.2 167.5 293.4Z" fill="#DDE9F2"/>
<path d="M152.6 293.4C152.6 290.9 154.6 288.9 157.1 288.9C159.6 288.9 161.6 290.9 161.6 293.4C161.6 295.9 159.6 297.9 157.1 297.9C154.6 297.9 152.6 295.9 152.6 293.4Z" fill="#DDE9F2"/>
<path d="M140.3 293.4C140.3 291.7 141.7 290.2 143.5 290.2C145.2 290.2 146.7 291.6 146.7 293.4C146.7 295.1 145.3 296.6 143.5 296.6C141.7 296.6 140.3 295.2 140.3 293.4Z" fill="#DDE9F2"/>
<path d="M341.5 176.3H338.8V178.5H341.5V176.3Z" fill="#6D8CF5"/>
<path d="M341.5 172.2H338.8V174.4H341.5V172.2Z" fill="#6D8CF5"/>
<path d="M341.5 168.1H338.8V170.3H341.5V168.1Z" fill="#6D8CF5"/>
<path d="M341.5 164.1H338.8V166.3H341.5V164.1Z" fill="#6D8CF5"/>
<path d="M341.5 160H338.8V162.2H341.5V160Z" fill="#6D8CF5"/>
<path d="M341.5 155.9H338.8V158.1H341.5V155.9Z" fill="#6D8CF5"/>
<path d="M341.5 151.8H338.8V154H341.5V151.8Z" fill="#6D8CF5"/>
<path d="M341.5 147.8H338.8V150H341.5V147.8Z" fill="#6D8CF5"/>
<path d="M341.5 143.7H338.8V145.9H341.5V143.7Z" fill="#6D8CF5"/>
<path d="M341.5 139.6H338.8V141.8H341.5V139.6Z" fill="#6D8CF5"/>
<path d="M341.5 192.6H338.8V194.8H341.5V192.6Z" fill="#6D8CF5"/>
<path d="M341.5 188.5H338.8V190.7H341.5V188.5Z" fill="#6D8CF5"/>
<path d="M341.5 184.5H338.8V186.7H341.5V184.5Z" fill="#6D8CF5"/>
<path d="M341.5 180.4H338.8V182.6H341.5V180.4Z" fill="#6D8CF5"/>
<path d="M341.5 176.3H338.8V178.5H341.5V176.3Z" fill="#6D8CF5"/>
<path d="M341.638 195.053V192.353H338.738V195.053H341.638Z" fill="#6D8CF5"/>
<path d="M347.081 195.01V192.31H344.181V195.01H347.081Z" fill="#6D8CF5"/>
<path d="M352.525 195.066V192.366H349.625V195.066H352.525Z" fill="#6D8CF5"/>
<path d="M265.3 155.9H263.1V158.1H265.3V155.9Z" fill="#6D8CF5"/>
<path d="M265.3 151.8H263.1V154H265.3V151.8Z" fill="#6D8CF5"/>
<path d="M265.3 147.8H263.1V150H265.3V147.8Z" fill="#6D8CF5"/>
<path d="M265.3 143.7H263.1V145.9H265.3V143.7Z" fill="#6D8CF5"/>
<path d="M265.3 139.6H263.1V141.8H265.3V139.6Z" fill="#6D8CF5"/>
<path d="M189.975 178.052H192.675V175.852H189.975V178.052Z" fill="#6D8CF5"/>
<path d="M189.975 173.911H192.675V171.711H189.975V173.911Z" fill="#6D8CF5"/>
<path d="M189.975 169.87H192.675V167.67H189.975V169.87Z" fill="#6D8CF5"/>
<path d="M189.975 165.83H192.675V163.63H189.975V165.83Z" fill="#6D8CF5"/>
<path d="M189.975 161.689H192.675V159.489H189.975V161.689Z" fill="#6D8CF5"/>
<path d="M189.975 157.648H192.675V155.448H189.975V157.648Z" fill="#6D8CF5"/>
<path d="M189.975 153.607H192.675V151.407H189.975V153.607Z" fill="#6D8CF5"/>
<path d="M189.975 149.467H192.675V147.267H189.975V149.467Z" fill="#6D8CF5"/>
<path d="M189.975 145.426H192.675V143.226H189.975V145.426Z" fill="#6D8CF5"/>
<path d="M189.975 141.385H192.675V139.185H189.975V141.385Z" fill="#6D8CF5"/>
<path d="M189.975 194.333H192.675V192.133H189.975V194.333Z" fill="#6D8CF5"/>
<path d="M189.975 190.292H192.675V188.092H189.975V190.292Z" fill="#6D8CF5"/>
<path d="M189.975 186.251H192.675V184.051H189.975V186.251Z" fill="#6D8CF5"/>
<path d="M189.975 182.111H192.675V179.911H189.975V182.111Z" fill="#6D8CF5"/>
<path d="M189.975 178.07H192.675V175.87H189.975V178.07Z" fill="#6D8CF5"/>
<path d="M192.71 194.623V191.923H189.81V194.623H192.71Z" fill="#6D8CF5"/>
<path d="M187.266 194.667V191.967H184.366V194.667H187.266Z" fill="#6D8CF5"/>
<path d="M181.823 194.61V191.91H178.923V194.61H181.823Z" fill="#6D8CF5"/>
</g>
<defs>
<clipPath id="clip0_145_2">
<rect width="526.1" height="302.1" fill="white"/>
</clipPath>
</defs>
</svg>
