<?xml version="1.0" encoding="UTF-8"?>
<svg id="Layer_1" xmlns="http://www.w3.org/2000/svg" version="1.1" viewBox="0 0 450 279">
  <!-- Generator: Adobe Illustrator 30.0.0, SVG Export Plug-In . SVG Version: 2.1.1 Build 123)  -->
  <defs>
    <style>
      .st0 {
        fill: #9995d5;
      }

      .st1 {
        fill: #4870a9;
      }

      .st2 {
        stroke: #cdd3e7;
        stroke-width: 4.3px;
      }

      .st2, .st3 {
        fill: none;
        stroke-miterlimit: 10;
      }

      .st3 {
        stroke: #1c4485;
        stroke-width: 1.4px;
      }

      .st4 {
        fill: #a8b5bd;
        isolation: isolate;
        opacity: .2;
      }

      .st5 {
        fill: #e7b1a6;
      }

      .st6 {
        fill: #e7c476;
      }

      .st7 {
        fill: #fff;
      }

      .st8 {
        fill: #1c4485;
      }

      .st9 {
        fill: #a8b3e4;
      }

      .st10 {
        fill: #cdd3e7;
      }

      .st11 {
        fill: #e6a696;
      }

      .st12 {
        fill: #8a8ac8;
      }
    </style>
  </defs>
  <path class="st10" d="M396.7,33.6c-1.7-4.4-5.6-7.3-10-8-1.2-8.8-8.7-15.6-17.9-15.6s-14.7,5.1-17.2,12.3c-2-1-4.2-1.5-6.6-1.5-8.4,0-15.2,6.8-15.2,15.2s0,1,.1,1.6c0,0,67.2,0,67.6,0,0-1.4-.3-2.7-.8-4.1Z"/>
  <path class="st3" d="M276.6,60.1h32.1c2.6,0,4.7,2.1,4.7,4.7v58.1"/>
  <path class="st3" d="M272.6,47.1h64.4c2.6,0,4.7,2.5,4.7,5.6v70.2"/>
  <path class="st3" d="M286.4,47.1h64.4c2.6,0,4.7,2.5,4.7,5.6v70.2"/>
  <g>
    <path class="st2" d="M106.8,108.3c23.9-23.9,23.9-62.8,0-86.7s-62.8-23.9-86.7,0c-23.9,23.9-23.9,62.8,0,86.7,24,24,62.8,24,86.7,0Z"/>
    <path class="st2" d="M106.8,20.3c-11.1,11.1-26.4,18-43.4,18s-31.7-6.6-42.7-17.3"/>
    <path class="st2" d="M20.8,109.6c11.1-11.1,26.4-18,43.4-18s31.7,6.6,42.7,17.3"/>
    <path class="st2" d="M63.5,126.3c19,0,34.4-27.5,34.4-61.3S82.5,3.7,63.5,3.7,29,31.1,29,65s15.5,61.3,34.5,61.3Z"/>
    <path class="st2" d="M63.5,126.3V3.6"/>
    <path class="st2" d="M124.8,65H2.1"/>
  </g>
  <path class="st1" d="M299.1,193.8h108.9v-11.4h-108.9v11.4Z"/>
  <path class="st10" d="M298,182.4h111.1c2.4,0,4.3-1.9,4.3-4.3v-57c0-2.4-1.9-4.3-4.3-4.3h-111.1c-2.4,0-4.3,1.9-4.3,4.3v57c0,2.4,1.9,4.3,4.3,4.3Z"/>
  <path class="st1" d="M314.9,160.6h77.2c1.5,0,2.7-1.2,2.7-2.7v-28.2c0-1.5-1.2-2.7-2.7-2.7h-77.2c-1.5,0-2.7,1.2-2.7,2.7v28.2c0,1.5,1.2,2.7,2.7,2.7Z"/>
  <path class="st0" d="M314.6,160.6h70.1c1.3,0,2.4-1.1,2.4-2.4v-22.6c0-1.3-1.1-2.4-2.4-2.4h-70.1c-1.3,0-2.4,1.1-2.4,2.4v22.6c0,1.3,1.1,2.4,2.4,2.4Z"/>
  <path class="st1" d="M339.2,174.7h48.5c1.1,0,2-.9,2-2v-4.4c0-1.1-.9-2-2-2h-48.5c-1.1,0-2,.9-2,2v4.4c0,1.1.9,2,2,2Z"/>
  <path class="st1" d="M320.9,170.5c0,1.7,1.4,3.1,3.1,3.1s3.1-1.4,3.1-3.1-1.4-3.1-3.1-3.1-3.1,1.4-3.1,3.1Z"/>
  <path class="st7" d="M320.9,149.1c0,1.7,1.4,3.1,3.1,3.1s3.1-1.4,3.1-3.1-1.4-3.1-3.1-3.1-3.1,1.4-3.1,3.1Z"/>
  <path class="st7" d="M334.1,149.1c0,1.7,1.4,3.1,3.1,3.1s3.1-1.4,3.1-3.1-1.4-3.1-3.1-3.1-3.1,1.4-3.1,3.1Z"/>
  <path class="st7" d="M347.3,149.1c0,1.7,1.4,3.1,3.1,3.1s3.1-1.4,3.1-3.1-1.4-3.1-3.1-3.1-3.1,1.4-3.1,3.1Z"/>
  <path class="st7" d="M360.5,149.1c0,1.7,1.4,3.1,3.1,3.1s3.1-1.4,3.1-3.1-1.4-3.1-3.1-3.1-3.1,1.4-3.1,3.1Z"/>
  <g>
    <path class="st7" d="M375.2,172h1.4c.4,0,.8-.4.8-.8v-1.4c0-.4-.4-.8-.8-.8h-1.4c-.4,0-.8.4-.8.8v1.4c0,.5.3.8.8.8Z"/>
    <path class="st7" d="M347.4,172h23.9c.4,0,.8-.4.8-.8v-1.4c0-.4-.4-.8-.8-.8h-23.9c-.4,0-.8.4-.8.8v1.4c0,.5.3.8.8.8Z"/>
  </g>
  <path class="st10" d="M298,230.4h111.1c2.4,0,4.3-1.9,4.3-4.3v-27.9c0-2.4-1.9-4.3-4.3-4.3h-111.1c-2.4,0-4.3,1.9-4.3,4.3v27.9c0,2.4,1.9,4.3,4.3,4.3Z"/>
  <path class="st1" d="M339.2,222.7h48.5c1.1,0,2-.9,2-2v-16.4c0-1.1-.9-2-2-2h-48.5c-1.1,0-2,.9-2,2v16.4c0,1.1.9,2,2,2Z"/>
  <path class="st0" d="M339,222.7h41.9c1,0,1.8-.8,1.8-1.8v-14.5c0-1-.8-1.8-1.8-1.8h-41.9c-1,0-1.8.8-1.8,1.8v14.5c0,1,.8,1.8,1.8,1.8Z"/>
  <path class="st1" d="M320.9,206.5c0,1.7,1.4,3.1,3.1,3.1s3.1-1.4,3.1-3.1-1.4-3.1-3.1-3.1-3.1,1.4-3.1,3.1Z"/>
  <path class="st7" d="M374.4,212.5h1.4c.4,0,.8-.4.8-.8v-1.4c0-.4-.4-.8-.8-.8h-1.4c-.4,0-.8.4-.8.8v1.4c0,.4.3.8.8.8Z"/>
  <path class="st7" d="M346.1,212.5h24.4c.4,0,.8-.4.8-.8v-1.4c0-.4-.4-.8-.8-.8h-24.4c-.4,0-.8.4-.8.8v1.4c-.1.4.3.8.8.8Z"/>
  <path class="st7" d="M374.4,218.1h1.4c.4,0,.8-.4.8-.8v-1.4c0-.4-.4-.8-.8-.8h-1.4c-.4,0-.8.4-.8.8v1.4c0,.4.3.8.8.8Z"/>
  <path class="st7" d="M346.1,218.1h24.4c.4,0,.8-.4.8-.8v-1.4c0-.4-.4-.8-.8-.8h-24.4c-.4,0-.8.4-.8.8v1.4c-.1.4.3.8.8.8Z"/>
  <path class="st1" d="M299.1,241.8h108.9v-11.4h-108.9v11.4Z"/>
  <path class="st10" d="M298,278.3h111.1c2.4,0,4.3-1.9,4.3-4.3v-27.9c0-2.4-1.9-4.3-4.3-4.3h-111.1c-2.4,0-4.3,1.9-4.3,4.3v27.9c0,2.4,1.9,4.3,4.3,4.3Z"/>
  <path class="st1" d="M339.2,270.6h48.5c1.1,0,2-.9,2-2v-16.4c0-1.1-.9-2-2-2h-48.5c-1.1,0-2,.9-2,2v16.4c0,1.1.9,2,2,2Z"/>
  <path class="st0" d="M339,270.6h41.9c1,0,1.8-.8,1.8-1.8v-14.5c0-1-.8-1.8-1.8-1.8h-41.9c-1,0-1.8.8-1.8,1.8v14.5c0,1,.8,1.8,1.8,1.8Z"/>
  <path class="st1" d="M320.9,254.4c0,1.7,1.4,3.1,3.1,3.1s3.1-1.4,3.1-3.1-1.4-3.1-3.1-3.1c-1.7.1-3.1,1.5-3.1,3.1Z"/>
  <path class="st7" d="M374.4,260.4h1.4c.4,0,.8-.4.8-.8v-1.4c0-.4-.4-.8-.8-.8h-1.4c-.4,0-.8.4-.8.8v1.4c0,.5.3.8.8.8Z"/>
  <path class="st7" d="M346.1,260.4h24.4c.4,0,.8-.4.8-.8v-1.4c0-.4-.4-.8-.8-.8h-24.4c-.4,0-.8.4-.8.8v1.4c-.1.5.3.8.8.8Z"/>
  <path class="st7" d="M374.4,266h1.4c.4,0,.8-.4.8-.8v-1.4c0-.4-.4-.8-.8-.8h-1.4c-.4,0-.8.4-.8.8v1.4c0,.5.3.8.8.8Z"/>
  <path class="st7" d="M346.1,266h24.4c.4,0,.8-.4.8-.8v-1.4c0-.4-.4-.8-.8-.8h-24.4c-.4,0-.8.4-.8.8v1.4c-.1.5.3.8.8.8Z"/>
  <path class="st1" d="M110,252.2h56.2c1.5,13.7,16.1,21.2,25.6,24.6,1.3.4,1.3,2.2,0,2.2h-61.3c-1.9-.5-26.5-6.8-20.5-26.8Z"/>
  <path class="st9" d="M115.7,252.2h69.5c3.3,13.7,19,21.2,29,24.6,1.3.4,1.6,2.2.3,2.2h-70.9c-2-.4-33.2-6.6-27.9-26.8Z"/>
  <path class="st1" d="M192.2,264.1c-3.4-3.4-6-7.3-7.2-11.9h-70.7c-1.2,4.6-.4,8.5,1.7,11.9h76.2Z"/>
  <path class="st1" d="M40.7,256.7h219.3c3.4,0,10.3-2.8,10.3-6.2l-4.8-159c0-3.4-2.8-6.2-6.2-6.2H42.2c-3.4,0-8.4,3.7-8.4,7.1l.7,158.1c0,3.5,2.8,6.2,6.2,6.2Z"/>
  <path class="st10" d="M43.8,255.8h220.7c3.4,0,6.2-2.8,6.2-6.2l-.7-158.1c0-3.4-2.8-6.2-6.2-6.2H43.1c-3.4,0-6.2,2.8-6.2,6.2l.7,158.1c0,3.4,2.8,6.2,6.2,6.2Z"/>
  <path class="st0" d="M43.8,255.8h220.7c3.4,0,6.2-2.8,6.2-6.2v-26H37.6v26c0,3.4,2.8,6.2,6.2,6.2Z"/>
  <path class="st7" d="M262.4,216.1l-.5-122.6H45l.5,122.6h216.9Z"/>
  <path class="st4" d="M100.6,216.1l-.5-122.6h-55.1l.5,122.6h55.1Z"/>
  <path class="st1" d="M138.7,122.8l-3.3,3.5c-.2.2-.4.3-.7.3h-19.6c-.5,0-.9.4-.9.9v16.7c0,.5.4.9.9.9h31.6c.5,0,.9-.4.9-.9v-20.7c0-.5-.4-.9-.9-.9h-7.4c-.2-.1-.5,0-.6.2Z"/>
  <path class="st6" d="M117.2,124.2h26.2c.7,0,1.2.6,1.2,1.2v4.4c0,.7-.6,1.2-1.2,1.2h-26.2c-.7,0-1.2-.6-1.2-1.2v-4.4c0-.6.6-1.2,1.2-1.2Z"/>
  <path class="st5" d="M123.2,122.8l3.3,3.5c.2.2.4.3.7.3h19.6c.5,0,.9.4.9.9v16.7c0,.5-.4.9-.9.9h-31.6c-.5,0-.9-.4-.9-.9v-20.7c0-.5.4-.9.9-.9h7.4c.2-.1.5,0,.6.2Z"/>
  <path class="st1" d="M184.9,122.8l-3.3,3.5c-.2.2-.4.3-.7.3h-19.6c-.5,0-.9.4-.9.9v16.7c0,.5.4.9.9.9h31.6c.5,0,.9-.4.9-.9v-20.7c0-.5-.4-.9-.9-.9h-7.4c-.1-.1-.4,0-.6.2Z"/>
  <path class="st6" d="M163.5,124.2h26.2c.7,0,1.2.6,1.2,1.2v4.4c0,.7-.6,1.2-1.2,1.2h-26.2c-.7,0-1.2-.6-1.2-1.2v-4.4c0-.6.5-1.2,1.2-1.2Z"/>
  <path class="st5" d="M169.5,122.8l3.3,3.5c.2.2.4.3.7.3h19.6c.5,0,.9.4.9.9v16.7c0,.5-.4.9-.9.9h-31.6c-.5,0-.9-.4-.9-.9v-20.7c0-.5.4-.9.9-.9h7.4c.2-.1.4,0,.6.2Z"/>
  <path class="st0" d="M133.5,184h-10.2v19.3h10.2v-19.3Z"/>
  <path class="st0" d="M150.4,177.5h-10.2v25.8h10.2v-25.8Z"/>
  <path class="st0" d="M167.3,189.5h-10.2v13.8h10.2v-13.8Z"/>
  <path class="st0" d="M184.2,171.4h-10.2v31.8h10.2v-31.8Z"/>
  <path class="st3" d="M193.9,203.3h-80.6"/>
  <path class="st3" d="M126.5,173.2l18.8-6.5,16.9,12.9,16.9-20.1"/>
  <path class="st0" d="M164.8,179.6c0,1.5-1.2,2.6-2.6,2.6s-2.6-1.2-2.6-2.6,1.2-2.6,2.6-2.6,2.6,1.2,2.6,2.6Z"/>
  <path class="st0" d="M145.3,169.3c1.5,0,2.6-1.2,2.6-2.6s-1.2-2.6-2.6-2.6-2.6,1.2-2.6,2.6,1.1,2.6,2.6,2.6Z"/>
  <path class="st0" d="M129.1,173.2c0,1.5-1.2,2.6-2.6,2.6s-2.6-1.2-2.6-2.6,1.2-2.6,2.6-2.6c1.4,0,2.6,1.2,2.6,2.6Z"/>
  <path class="st0" d="M181.7,159.6c0,1.5-1.2,2.6-2.6,2.6s-2.6-1.2-2.6-2.6,1.2-2.6,2.6-2.6c1.5-.1,2.6,1.1,2.6,2.6Z"/>
  <path class="st9" d="M83,121.9h-16.7c-1.1,0-1.9-.9-1.9-1.9s.9-1.9,1.9-1.9h16.7c1.1,0,1.9.9,1.9,1.9s-.8,1.9-1.9,1.9Z"/>
  <path class="st9" d="M57.9,121.9h0c-1.1,0-2-.9-2-1.9s.9-1.9,1.9-1.9h0c1.1,0,1.9.9,1.9,1.9,0,1-.8,1.9-1.8,1.9Z"/>
  <path class="st9" d="M57.9,138.1h0c-1.1,0-2-.9-2-1.9s.9-1.9,1.9-1.9h0c1.1,0,1.9.9,1.9,1.9s-.8,1.9-1.8,1.9Z"/>
  <path class="st9" d="M76.6,130h-10.3c-1.1,0-1.9-.9-1.9-1.9s.9-1.9,1.9-1.9h10.2c1.1,0,1.9.9,1.9,1.9,0,1-.8,1.9-1.8,1.9Z"/>
  <path class="st9" d="M83,173.8h-16.7c-1.1,0-1.9-.9-1.9-1.9s.9-1.9,1.9-1.9h16.7c1.1,0,1.9.9,1.9,1.9s-.8,1.9-1.9,1.9Z"/>
  <path class="st9" d="M57.9,173.8h0c-1.1,0-2-.9-2-1.9s.9-1.9,1.9-1.9h0c1.1,0,1.9.9,1.9,1.9,0,1-.8,1.9-1.8,1.9Z"/>
  <path class="st9" d="M76.6,181.9h-10.3c-1.1,0-1.9-.9-1.9-1.9s.9-1.9,1.9-1.9h10.2c1.1,0,1.9.9,1.9,1.9,0,1-.8,1.9-1.8,1.9Z"/>
  <path class="st9" d="M88.2,138.1h-21.9c-1.1,0-1.9-.9-1.9-1.9s.9-1.9,1.9-1.9h21.8c1.1,0,1.9.9,1.9,1.9s-.8,1.9-1.8,1.9Z"/>
  <path class="st9" d="M57.9,158.8h0c-1.1,0-2-.9-2-1.9s.9-1.9,1.9-1.9h0c1.1,0,1.9.9,1.9,1.9,0,1-.8,1.9-1.8,1.9Z"/>
  <path class="st9" d="M88.2,158.8h-21.9c-1.1,0-1.9-.9-1.9-1.9s.9-1.9,1.9-1.9h21.8c1.1,0,1.9.9,1.9,1.9,0,1-.8,1.9-1.8,1.9Z"/>
  <path class="st9" d="M73,146.3h-6.7c-1.1,0-1.9-.9-1.9-1.9s.9-1.9,1.9-1.9h6.7c1.1,0,1.9.9,1.9,1.9,0,1-.8,1.9-1.9,1.9Z"/>
  <path class="st1" d="M223.2,274.6h-121.6c-2.4,0-4.3,1.9-4.3,4.3h0c0,.1,130.2.1,130.2.1h0c0-2.5-1.9-4.4-4.3-4.4Z"/>
  <path class="st8" d="M272.6,44.1c-.1-1.8-.5-3.5-1.1-5.3-2.3-5.9-7.5-9.8-13.3-10.7-1.6-11.7-11.7-20.8-23.9-20.8s-19.6,6.8-22.8,16.3c-2.6-1.3-5.6-2-8.7-2-11.1,0-20.2,9-20.2,20.2s0,1.4.1,2.1h-1.7c-6.8,0-12.3,5.5-12.3,12.3s5.5,12.3,12.3,12.3h90c6.8,0,12.3-5.5,12.3-12.3s-4.6-11.3-10.7-12.1Z"/>
  <path class="st10" d="M265.4,42.7c-.1-1.9-.5-3.7-1.2-5.6-2.4-6.2-7.9-10.3-14-11.3-1.7-12.4-12.3-22-25.2-22s-20.7,7.2-24.1,17.2c-2.8-1.3-5.9-2.1-9.2-2.1-11.8,0-21.3,9.6-21.3,21.3s0,1.5.1,2.2h-1.8c-7.2,0-13,5.8-13,13s5.8,13,13,13h95c7.2,0,13-5.8,13-13,0-6.4-5-11.8-11.3-12.7Z"/>
  <path class="st1" d="M246.5,70.8l-16.5-21.7c-1.1-1.5-3.4-1.5-4.6,0l-16.5,21.7c-1.4,1.9-.1,4.6,2.3,4.6h4.2c.8,0,1.4.6,1.4,1.4v31.5c0,1.6,1.3,2.9,2.9,2.9h16.1c1.6,0,2.9-1.3,2.9-2.9v-31.5c0-.8.6-1.4,1.4-1.4h4.2c2.3,0,3.6-2.7,2.2-4.6Z"/>
  <path class="st11" d="M244,101.2c-.4-.7-.1-2.4-.9-3.6-.8-1.2-2.4-4.9-3-5.8-.4-.6-.9-.7-1.6-.6-.4,0-.2,4.9,0,5.7.2.8.2,1.4.1,1.8-1.3-.7-2-1.9-2.3-1.3s.4,1.6,1.7,2.9c0,0,.7.9,1.1,1,.4,0,1.6,1,1.6,1,0,0,3.8,5.1,5.5,13.3,1.5-1.2,3.1-2.4,4.7-3.6-2.3-4.8-6.2-9.5-6.9-10.8Z"/>
  <path class="st10" d="M245.1,143.7s2.5-12.5,1.6-21.3c-1.1-10.3-4.7-15.9-4.7-15.9l5-2.4s8.5,10.6,8.9,23.1c.5,12.5.2,25.7.2,25.7l-11-9.2Z"/>
  <path class="st11" d="M211.8,101.4c-.2,1.5,1.5,3.7,1.4,4.5-.1,1.5-1,6.5-.9,12.3,1.9-.6,3.9-1.2,5.8-1.9-.6-5.6-.8-12.1-.8-12.1,0,0,.7-1.3,1-1.6.3-.3.6-1.4.6-1.4.7-2.4.7-3.2,0-3.6-.5-.3-1.3,1.7-2,2.6v-4.4c0-1.9,0-3-1.2-2.8-1.2,0-2,1.4-2.2,2.5-.3,1-1.4,4.4-1.7,5.9Z"/>
  <path class="st10" d="M226,130.5c-8.4-11.6-8.5-24.6-8.5-24.6l-5.4.7c-2.6,14.6,4.9,32.8,13.6,40.3,5.1,4.4,6.5,12,6.5,12l5.1-20.1c0,.1-6.8-2.1-11.3-8.3Z"/>
  <path class="st8" d="M257.8,272.7v5.6h-8s-1.1-2,2.7-3l.6-2.7h4.7Z"/>
  <path class="st8" d="M241.3,272.7v5.6h-7.9s.3-2,2.6-3l.8-2.7h4.5q0,.1,0,.1Z"/>
  <path class="st1" d="M255.9,182.4s1.5,18.1,1.6,32.9.9,58.6.9,58.6h-6s-6.8-42.3-9.1-51.9c-2.2-9.5-7.4-39.5-7.4-39.5h20Z"/>
  <path class="st1" d="M246.1,200.2s-1.9,24.5-2.1,29-2.4,44.8-2.4,44.8c0,0-6.8.2-6.8,0s-4-42.8-4.7-53.8c-.7-10.9-2.4-23-2.5-24.8-.2-3.7,1.8-9.9,1.8-9.9l9.9-.9,6.8,15.6Z"/>
  <path class="st11" d="M248.3,141.9l-.5-8.4s.7-3.4-.5-7.8c-1.2-4.5-9.4-7.3-9.4-7.3-.4-.2-.9-2-1.5-1.3-1,1-1.4,4.6-1.7,6.4s-1.1,4-1.2,5.3c-.1,1.3.4,4.7,1.4,5.6s3.8,1,4.2,1.9-1,5.3-1,5.3l10.2.3Z"/>
  <path class="st8" d="M235.2,118.6c.1,1.9,2.7,1,2.8,2.9.2,1.9-.8,4.2-.9,4.5-.1.3.8,1.8.8,1.8,0,0,.3-2.1,1.3-2.5,1.7-.7,2.6.7,1.5,2.6-.2.4-1,.7-1.1,1-.5,1.3-.1,2.1.7,3.6.9,1.7,1.5,3,1.5,3,1.9.1,6,.3,6,.3.7-2,1.7-4.2,2.9-5.8s3.1-5.1,2.5-7.8c-.5-2.6-2.3-3.6-2.3-3.6-1.7-3.3-6.5-4.8-9.7-4.6-4.6.3-6,4.6-6,4.6Z"/>
  <path class="st10" d="M258.5,189.9s-.1-11-1.2-24.2.4-25.7-6.5-28c-.7-.2-2.1-.6-5.8-.3s-7.6,1.5-7.6,1.5c0,0-3.7,5-4.4,11s-5.1,38.6-5.1,38.6c0,0,7,3.6,17.4,3.7,10.5,0,13.2-2.3,13.2-2.3Z"/>
  <path class="st12" d="M450,112.7v-8.7c0-2.2-1.8-4-4-4s-3.2-1.1-3.8-2.7c-.3-.9-.7-1.8-1.1-2.7-.7-1.6-.5-3.4.8-4.6,1.6-1.6,1.6-4.1,0-5.7l-6.2-6.2c-1.6-1.6-4.1-1.6-5.7,0-1.2,1.2-3.1,1.5-4.6.8-.9-.4-1.8-.8-2.7-1.1-1.6-.6-2.7-2.1-2.7-3.8s-1.8-4-4-4h-8.8c-2.2,0-4,1.8-4,4s-1.1,3.2-2.7,3.8c-.9.3-1.8.7-2.7,1.1-1.6.7-3.4.5-4.6-.8-1.6-1.6-4.1-1.6-5.7,0l-6.2,6.2c-1.6,1.6-1.6,4.1,0,5.7,1.2,1.2,1.5,3.1.8,4.6-.4.9-.8,1.8-1.1,2.7-.6,1.6-2.1,2.7-3.8,2.7s-4,1.8-4,4v8.8c0,2.2,1.8,4,4,4s3.2,1.1,3.8,2.7c.3.9.7,1.8,1.1,2.7.7,1.6.5,3.4-.8,4.6-1.6,1.6-1.6,4.1,0,5.7l6.2,6.2c1.6,1.6,4.1,1.6,5.7,0,1.2-1.2,3.1-1.5,4.6-.8.9.4,1.8.8,2.7,1.1,1.6.6,2.7,2.1,2.7,3.8s1.8,4,4,4h8.8c2.2,0,4-1.8,4-4s1.1-3.2,2.7-3.8c.9-.3,1.8-.7,2.7-1.1,1.6-.7,3.4-.5,4.6.8,1.6,1.6,4.1,1.6,5.7,0l6.2-6.2c1.6-1.6,1.6-4.1,0-5.7-1.2-1.2-1.5-3.1-.8-4.6.4-.9.8-1.8,1.1-2.7.6-1.6,2.1-2.7,3.8-2.7,2.2,0,4-1.8,4-4.1ZM424.7,121.8c-3.5,3.5-8.3,5.5-13.2,5.5s-9.7-2-13.2-5.5-5.5-8.3-5.5-13.2,2-9.7,5.5-13.2,8.3-5.5,13.2-5.5,9.7,2,13.2,5.5,5.5,8.3,5.5,13.2-2,9.6-5.5,13.2Z"/>
  <path class="st1" d="M447.1,47.1v-4.9c0-.7-.6-1.2-1.2-1.2h-.9c-.5,0-1-.4-1.2-.9-.2-.6-.5-1.2-.7-1.8-.2-.5-.2-1.1.2-1.5l.6-.6c.5-.5.5-1.3,0-1.8l-3.4-3.4c-.5-.5-1.3-.5-1.8,0l-.6.6c-.4.4-1,.5-1.5.2-.6-.3-1.2-.5-1.8-.7-.5-.2-.9-.6-.9-1.2v-.9c0-.7-.6-1.2-1.2-1.2h-4.9c-.7,0-1.2.6-1.2,1.2v.9c0,.5-.4,1-.9,1.2-.6.2-1.2.5-1.8.7-.5.2-1.1.2-1.5-.2l-.6-.6c-.5-.5-1.3-.5-1.8,0l-3.4,3.4c-.5.5-.5,1.3,0,1.8l.6.6c.4.4.5,1,.2,1.5-.3.6-.5,1.2-.7,1.8-.2.5-.6.9-1.2.9h-.9c-.7,0-1.2.6-1.2,1.2v4.9c0,.7.6,1.2,1.2,1.2h.9c.5,0,1,.4,1.2.9.2.6.5,1.2.7,1.8.2.5.2,1.1-.2,1.5l-.6.6c-.5.5-.5,1.3,0,1.8l3.4,3.4c.5.5,1.3.5,1.8,0l.6-.6c.4-.4,1-.5,1.5-.2.6.3,1.2.5,1.8.7.5.2.9.6.9,1.2v.9c0,.7.6,1.2,1.2,1.2h4.9c.7,0,1.2-.6,1.2-1.2v-.9c0-.5.4-1,.9-1.2.6-.2,1.2-.5,1.8-.7.5-.2,1.1-.2,1.5.2l.6.6c.5.5,1.3.5,1.8,0l3.4-3.4c.5-.5.5-1.3,0-1.8l-.6-.6c-.4-.4-.5-1-.2-1.5.3-.6.5-1.2.7-1.8.2-.5.6-.9,1.2-.9h.9c.6,0,1.2-.5,1.2-1.2ZM435.3,49.9c-1.4,1.4-3.2,2.1-5.1,2.1s-3.8-.8-5.1-2.1c-1.4-1.4-2.1-3.2-2.1-5.1s.8-3.8,2.1-5.1c1.4-1.4,3.2-2.1,5.1-2.1s3.8.8,5.1,2.1c1.4,1.4,2.1,3.2,2.1,5.1.1,1.8-.7,3.7-2.1,5.1Z"/>
  <path class="st1" d="M74,204.5c-1.9-4.9-6.2-8.1-11.1-8.9-1.3-9.8-9.7-17.3-19.9-17.3s-16.3,5.7-19,13.6c-2.2-1.1-4.7-1.7-7.3-1.7C7.4,190.2,0,197.7,0,207S0,208.2,0,208.7c0,0,74.4,0,74.9.1,0-1.3-.3-2.8-.9-4.3Z"/>
</svg>