<?xml version="1.0" encoding="utf-8"?>
<!-- Generator: Adobe Illustrator 27.0.0, SVG Export Plug-In . SVG Version: 6.00 Build 0)  -->
<svg version="1.1" id="Layer_1" xmlns="http://www.w3.org/2000/svg" xmlns:xlink="http://www.w3.org/1999/xlink" x="0px" y="0px"
	 viewBox="0 0 459 302" style="enable-background:new 0 0 459 302;" xml:space="preserve">
<style type="text/css">
	.st0{fill:#ECDEFF;}
	.st1{fill:#FFFFFF;}
	.st2{fill:#662D91;}
	.st3{fill:#7BB3E8;}
	.st4{fill:none;stroke:#244E80;stroke-width:0.8504;stroke-linecap:round;stroke-linejoin:round;stroke-miterlimit:10;}
	.st5{fill:#383838;}
	.st6{fill:#D7EFF9;}
	.st7{fill:#F97F40;}
	.st8{fill:#FAAF41;}
	.st9{fill:#E54C64;}
	.st10{fill:#FBB040;}
	.st11{fill:#8DC63F;}
	.st12{opacity:0.6;fill:#FFFFFF;enable-background:new    ;}
	.st13{fill:#3D2B4F;}
	.st14{fill:#171C27;}
	.st15{fill:#062538;}
	.st16{fill:#0A3759;}
	.st17{fill:#A05E47;}
	.st18{fill:#2481D3;}
	.st19{fill:#126BAD;}
	.st20{fill:#0D314C;}
	.st21{fill:#D6957B;}
	.st22{fill:#EEB399;}
	.st23{fill:#171E26;}
	.st24{fill:#99293F;}
	.st25{fill:#7298E2;}
	.st26{fill:none;stroke:#5077B5;stroke-width:0.5669;stroke-linecap:round;stroke-linejoin:round;stroke-miterlimit:10;}
	.st27{fill:none;stroke:#99293F;stroke-width:0.2835;stroke-linecap:round;stroke-linejoin:round;stroke-miterlimit:10;}
	.st28{fill:none;stroke:#FBB040;stroke-linecap:round;stroke-linejoin:round;stroke-miterlimit:10;}
	.st29{fill:#A7A9AC;}
	.st30{fill:none;stroke:#3D2B4F;stroke-linecap:round;stroke-linejoin:round;stroke-miterlimit:10;}
	.st31{fill:#987FC9;}
</style>
<path class="st0" d="M209.7,264.2c41.6,5.2,82.8,14.6,124.8,14.7c22.5,0,45.3-2.7,66-11.6c18.7-8,35.4-21.2,45.9-38.5
	c10.5-17.3,14.5-38.4,11.7-58.4c-2.4-16.8-9.4-32.7-18.2-47.2c-22.2-36.4-56.2-64.9-94.7-83.3S264,13.1,221.4,12
	C178.6,11,135,17.5,96.4,36.2C57.9,54.9,24.8,86.6,9.2,126.5c-18,46-11.7,108.1,32.2,137c14,9.3,31.8,11.5,48.5,9.7
	c18.8-2.1,36.1-11.7,54.8-11.7C166.6,261.5,187.9,261.5,209.7,264.2z"/>
<path class="st0" d="M395,43.6c4.2,0.1,8.5,0.1,12.3-1.5c4.1-1.7,7.5-5.7,7.3-10.2c-0.2-4.5-5.1-8.4-9.3-6.7
	c-2.9,1.2-4.4,4.4-4.8,7.5c-0.9-2.8-4.1-4.8-7-4.4c-3,0.4-5.4,3.1-5.6,6.1c-0.6-2.4-3.1-4.1-5.5-3.9c-2.4,0.2-4.6,2.3-4.8,4.7
	c-0.9-3.6-1.9-7.3-4.5-10c-2.5-2.7-7.2-3.8-10-1.4c-3.2,2.8-2.2,7.9-0.9,11.9c-1.4,0.2-2.8,0.6-3.9,1.6c-1.1,1-1.6,2.6-1,3.8
	c0.6,1.3,2.2,1.8,3.7,1.9C372.4,43.3,383.7,43.3,395,43.6z"/>
<path class="st0" d="M91.8,21.5c4,0,8.1-0.1,12.1-1c3.3-0.8,6.9-3,6.7-6.3c-0.2-2.5-2.8-4.4-5.3-4.3c-2.5,0.1-4.7,1.8-6,4
	c-0.6-2.8-1.8-5.7-4.4-7c-2.5-1.3-6.4,0.3-6.3,3.1c-1.4-2.9-2.8-5.9-5.3-8C79.8-0.8,74.6-1.4,70.9,1c-3.7,2.4-5.4,7.7-3.3,11.6
	c-2.3-1.1-5.2-1.3-7.5-0.1c-2.3,1.2-3.8,3.9-3.3,6.5c1.3,6,9.3,2.8,13.4,2.7C77.4,21.6,84.6,21.6,91.8,21.5z"/>
<path class="st1" d="M281.3,36.6c1.1,0,2.3,0,3.2-0.7c1-0.8,1.2-2.2,1.3-3.5c0.1-0.8,0.1-1.7-0.3-2.4c-0.5-0.8-1.4-1.2-2.2-1.5
	c-1.6-0.5-3.4-0.8-4.9-0.2c-1.6,0.6-2.9,2.1-2.7,3.8c-0.6-1.4-2-2.4-3.5-2.5c-1.5-0.1-3,0.8-3.8,2.1c-2.2-6.1-9.6-9.7-15.7-7.7
	c-1.4,0.5-2.8,1.2-3.7,2.5c-0.8,1.3-0.9,3.1,0.2,4.2c0.6,0.6,1.4,1,1.7,1.7c0.2,0.5,0.1,1,0.1,1.4c0.4,4.9,9.5,4,12.7,3.5
	C269.5,36.3,275.4,36.6,281.3,36.6z"/>
<path class="st1" d="M397.9,136.8v5.6l4.8-5.1L397.9,136.8z"/>
<path class="st1" d="M399.1,137.4l19.1-15.4l-9.1,17.9L399.1,137.4z"/>
<path class="st1" d="M418.2,122l-27,12l7.9,3.3L418.2,122z"/>
<path class="st2" d="M399.1,137.4l-1.2-0.5l20.3-14.9L399.1,137.4z"/>
<path class="st3" d="M78.3,246.4c0.2-1.7,0.3-3.7-0.8-5.1c-1.7-2.1-5.2-1.7-7.2,0.1c-2,1.8-2.8,4.6-3.5,7.2c4.2-12.8,8.1-27.6,1-39
	c-0.8-1.3-1.9-2.6-3.3-3.2c-2.2-0.8-4.8,0.3-6.3,2.2c-1.5,1.8-2.1,4.2-2.6,6.5c-1.5,7-2.2,14.2-2,21.3c0.9-6.1-1-12.6-5.2-17.2
	c-0.5,1.4-1,2.7-1.4,4.1c2.4-11.1,1.3-22.9-3-33.3c-2-4.7-5.5-9.7-10.6-9.6c-4.2,0.1-7.6,3.8-9.2,7.8c-3.7,8.9-1.4,19.1,2.1,28.1
	c3.6,9.1,8.4,17.7,14.4,25.4c-1.5-2.9-5.9-3.5-8.5-1.6c-2.7,1.9-3.7,5.6-3.1,8.8c0.6,3.2,2.5,6.1,4.8,8.5
	c4.5,4.9,10.5,8.5,16.9,10.2C66.8,271.8,76.6,261.2,78.3,246.4z"/>
<path class="st4" d="M62.5,264.5c0,0-33.6-38.4-28.7-80.1"/>
<path class="st4" d="M41.4,194.6c0,0-2.3,11.4-6.1,15.8"/>
<path class="st4" d="M38.4,221.9c0,0-3.8,1.4-7.4-3.1"/>
<path class="st4" d="M63.6,211.9c0,0,1.6,22.2-9.5,41.3"/>
<path class="st4" d="M58.1,259c0,0-12.4-0.1-24.4-12.5"/>
<path class="st4" d="M74.9,243.2c0,0-5.1,15.1-14.1,19.2"/>
<path class="st4" d="M62,231.8c0,0,5.6-2.4,7.1-12.2"/>
<path class="st4" d="M45.6,255.3c0,0-1.5,3.8-8.3,0.7"/>
<path class="st4" d="M45.9,239.3c0,0,4-6.8,3.8-14.7"/>
<path class="st5" d="M384.5,252.5H56.5c-5.6,0-10.1-4.5-10.1-10.1V61c0-5.6,4.5-10.1,10.1-10.1h327.9c5.6,0,10.1,4.5,10.1,10.1
	v181.4C394.5,248,390,252.5,384.5,252.5z"/>
<path class="st1" d="M383.2,61.5H57.8V242h325.4V61.5z"/>
<path class="st6" d="M383.2,61.5H57.8v14.2h325.4V61.5z"/>
<path class="st7" d="M259.9,90.2h-0.5v-1.4h-7.5v1.4H232c-1.5,0-2.6,1.2-2.6,2.6v14.6c0,1.5,1.2,2.6,2.6,2.6h27.8
	c1.5,0,2.6-1.2,2.6-2.6V92.8C262.5,91.3,261.3,90.2,259.9,90.2z"/>
<path class="st8" d="M259.9,110H232c-1.5,0-3.1-1.2-3.6-2.6l-5.3-14.6c-0.5-1.5,0.2-2.6,1.7-2.6h27.8c1.5,0,3.1,1.2,3.6,2.6
	l5.3,14.6C262.1,108.8,261.3,110,259.9,110z"/>
<path class="st7" d="M308.9,90.2h-0.5v-1.4h-7.5v1.4h-19.9c-1.5,0-2.6,1.2-2.6,2.6v14.6c0,1.5,1.2,2.6,2.6,2.6h27.8
	c1.5,0,2.6-1.2,2.6-2.6V92.8C311.5,91.3,310.4,90.2,308.9,90.2z"/>
<path class="st8" d="M308.9,110h-27.8c-1.5,0-3.1-1.2-3.6-2.6l-5.3-14.6c-0.5-1.5,0.2-2.6,1.7-2.6h27.8c1.5,0,3.1,1.2,3.6,2.6
	l5.3,14.6C311.1,108.8,310.4,110,308.9,110z"/>
<path class="st7" d="M357.9,90.2h-0.5v-1.4H350v1.4h-19.9c-1.5,0-2.6,1.2-2.6,2.6v14.6c0,1.5,1.2,2.6,2.6,2.6h27.8
	c1.5,0,2.6-1.2,2.6-2.6V92.8C360.6,91.3,359.4,90.2,357.9,90.2z"/>
<path class="st8" d="M357.9,110h-27.8c-1.5,0-3.1-1.2-3.6-2.6l-5.3-14.6c-0.5-1.5,0.2-2.6,1.7-2.6h27.8c1.5,0,3.1,1.2,3.6,2.6
	l5.3,14.6C360.1,108.8,359.4,110,357.9,110z"/>
<path class="st7" d="M259.9,119.1h-0.5v-1.4h-7.5v1.4H232c-1.5,0-2.6,1.2-2.6,2.6v14.6c0,1.5,1.2,2.6,2.6,2.6h27.8
	c1.5,0,2.6-1.2,2.6-2.6v-14.6C262.5,120.3,261.3,119.1,259.9,119.1z"/>
<path class="st8" d="M259.9,139H232c-1.5,0-3.1-1.2-3.6-2.6l-5.3-14.6c-0.5-1.5,0.2-2.6,1.7-2.6h27.8c1.5,0,3.1,1.2,3.6,2.6
	l5.3,14.6C262.1,137.8,261.3,139,259.9,139z"/>
<path class="st7" d="M308.9,119.1h-0.5v-1.4h-7.5v1.4h-19.9c-1.5,0-2.6,1.2-2.6,2.6v14.6c0,1.5,1.2,2.6,2.6,2.6h27.8
	c1.5,0,2.6-1.2,2.6-2.6v-14.6C311.5,120.3,310.4,119.1,308.9,119.1z"/>
<path class="st8" d="M308.9,139h-27.8c-1.5,0-3.1-1.2-3.6-2.6l-5.3-14.6c-0.5-1.5,0.2-2.6,1.7-2.6h27.8c1.5,0,3.1,1.2,3.6,2.6
	l5.3,14.6C311.1,137.8,310.4,139,308.9,139z"/>
<path class="st7" d="M357.9,119.1h-0.5v-1.4H350v1.4h-19.9c-1.5,0-2.6,1.2-2.6,2.6v14.6c0,1.5,1.2,2.6,2.6,2.6h27.8
	c1.5,0,2.6-1.2,2.6-2.6v-14.6C360.6,120.3,359.4,119.1,357.9,119.1z"/>
<path class="st8" d="M357.9,139h-27.8c-1.5,0-3.1-1.2-3.6-2.6l-5.3-14.6c-0.5-1.5,0.2-2.6,1.7-2.6h27.8c1.5,0,3.1,1.2,3.6,2.6
	l5.3,14.6C360.1,137.8,359.4,139,357.9,139z"/>
<path class="st7" d="M259.9,148h-0.5v-1.4h-7.5v1.4H232c-1.5,0-2.6,1.2-2.6,2.6v14.6c0,1.5,1.2,2.6,2.6,2.6h27.8
	c1.5,0,2.6-1.2,2.6-2.6v-14.6C262.5,149.2,261.3,148,259.9,148z"/>
<path class="st8" d="M259.9,167.9H232c-1.5,0-3.1-1.2-3.6-2.6l-5.3-14.6c-0.5-1.5,0.2-2.6,1.7-2.6h27.8c1.5,0,3.1,1.2,3.6,2.6
	l5.3,14.6C262.1,166.7,261.3,167.9,259.9,167.9z"/>
<path class="st7" d="M308.9,148h-0.5v-1.4h-7.5v1.4h-19.9c-1.5,0-2.6,1.2-2.6,2.6v14.6c0,1.5,1.2,2.6,2.6,2.6h27.8
	c1.5,0,2.6-1.2,2.6-2.6v-14.6C311.5,149.2,310.4,148,308.9,148z"/>
<path class="st8" d="M308.9,167.9h-27.8c-1.5,0-3.1-1.2-3.6-2.6l-5.3-14.6c-0.5-1.5,0.2-2.6,1.7-2.6h27.8c1.5,0,3.1,1.2,3.6,2.6
	l5.3,14.6C311.1,166.7,310.4,167.9,308.9,167.9z"/>
<path class="st7" d="M357.9,148h-0.5v-1.4H350v1.4h-19.9c-1.5,0-2.6,1.2-2.6,2.6v14.6c0,1.5,1.2,2.6,2.6,2.6h27.8
	c1.5,0,2.6-1.2,2.6-2.6v-14.6C360.6,149.2,359.4,148,357.9,148z"/>
<path class="st8" d="M357.9,167.9h-27.8c-1.5,0-3.1-1.2-3.6-2.6l-5.3-14.6c-0.5-1.5,0.2-2.6,1.7-2.6h27.8c1.5,0,3.1,1.2,3.6,2.6
	l5.3,14.6C360.1,166.7,359.4,167.9,357.9,167.9z"/>
<path class="st7" d="M259.9,177h-0.5v-1.4h-7.5v1.4H232c-1.5,0-2.6,1.2-2.6,2.6v14.6c0,1.5,1.2,2.6,2.6,2.6h27.8
	c1.5,0,2.6-1.2,2.6-2.6v-14.6C262.5,178.1,261.3,177,259.9,177z"/>
<path class="st8" d="M259.9,196.8H232c-1.5,0-3.1-1.2-3.6-2.6l-5.3-14.6c-0.5-1.5,0.2-2.6,1.7-2.6h27.8c1.5,0,3.1,1.2,3.6,2.6
	l5.3,14.6C262.1,195.6,261.3,196.8,259.9,196.8z"/>
<path class="st7" d="M308.9,177h-0.5v-1.4h-7.5v1.4h-19.9c-1.5,0-2.6,1.2-2.6,2.6v14.6c0,1.5,1.2,2.6,2.6,2.6h27.8
	c1.5,0,2.6-1.2,2.6-2.6v-14.6C311.5,178.1,310.4,177,308.9,177z"/>
<path class="st8" d="M308.9,196.8h-27.8c-1.5,0-3.1-1.2-3.6-2.6l-5.3-14.6c-0.5-1.5,0.2-2.6,1.7-2.6h27.8c1.5,0,3.1,1.2,3.6,2.6
	l5.3,14.6C311.1,195.6,310.4,196.8,308.9,196.8z"/>
<path class="st7" d="M357.9,177h-0.5v-1.4H350v1.4h-19.9c-1.5,0-2.6,1.2-2.6,2.6v14.6c0,1.5,1.2,2.6,2.6,2.6h27.8
	c1.5,0,2.6-1.2,2.6-2.6v-14.6C360.6,178.1,359.4,177,357.9,177z"/>
<path class="st8" d="M357.9,196.8h-27.8c-1.5,0-3.1-1.2-3.6-2.6l-5.3-14.6c-0.5-1.5,0.2-2.6,1.7-2.6h27.8c1.5,0,3.1,1.2,3.6,2.6
	l5.3,14.6C360.1,195.6,359.4,196.8,357.9,196.8z"/>
<path class="st7" d="M259.9,205.9h-0.5v-1.4h-7.5v1.4H232c-1.5,0-2.6,1.2-2.6,2.6v14.6c0,1.5,1.2,2.6,2.6,2.6h27.8
	c1.5,0,2.6-1.2,2.6-2.6v-14.6C262.5,207.1,261.3,205.9,259.9,205.9z"/>
<path class="st8" d="M259.9,225.8H232c-1.5,0-3.1-1.2-3.6-2.6l-5.3-14.6c-0.5-1.5,0.2-2.6,1.7-2.6h27.8c1.5,0,3.1,1.2,3.6,2.6
	l5.3,14.6C262.1,224.6,261.3,225.8,259.9,225.8z"/>
<path class="st7" d="M308.9,205.9h-0.5v-1.4h-7.5v1.4h-19.9c-1.5,0-2.6,1.2-2.6,2.6v14.6c0,1.5,1.2,2.6,2.6,2.6h27.8
	c1.5,0,2.6-1.2,2.6-2.6v-14.6C311.5,207.1,310.4,205.9,308.9,205.9z"/>
<path class="st8" d="M308.9,225.8h-27.8c-1.5,0-3.1-1.2-3.6-2.6l-5.3-14.6c-0.5-1.5,0.2-2.6,1.7-2.6h27.8c1.5,0,3.1,1.2,3.6,2.6
	l5.3,14.6C311.1,224.6,310.4,225.8,308.9,225.8z"/>
<path class="st7" d="M357.9,205.9h-0.5v-1.4H350v1.4h-19.9c-1.5,0-2.6,1.2-2.6,2.6v14.6c0,1.5,1.2,2.6,2.6,2.6h27.8
	c1.5,0,2.6-1.2,2.6-2.6v-14.6C360.6,207.1,359.4,205.9,357.9,205.9z"/>
<path class="st8" d="M357.9,225.8h-27.8c-1.5,0-3.1-1.2-3.6-2.6l-5.3-14.6c-0.5-1.5,0.2-2.6,1.7-2.6h27.8c1.5,0,3.1,1.2,3.6,2.6
	l5.3,14.6C360.1,224.6,359.4,225.8,357.9,225.8z"/>
<path class="st6" d="M125.8,77.7H59.9v161.9h65.9V77.7z"/>
<path class="st6" d="M203.8,77.7H201v161.9h2.8V77.7z"/>
<path class="st6" d="M181.1,85.5h-51.7V90h51.7V85.5z"/>
<path class="st1" d="M118.7,85.5H67V90h51.7V85.5z"/>
<path class="st1" d="M118.7,158.5H67v4.5h51.7V158.5z"/>
<path class="st1" d="M115.4,168.8H67v4.5h48.4V168.8z"/>
<path class="st1" d="M83.4,179.1H67v4.5h16.5V179.1z"/>
<path class="st1" d="M101.5,189.4H67v4.5h34.6V189.4z"/>
<path class="st6" d="M186.3,93.3h-57v4.5h57V93.3z"/>
<path class="st6" d="M181.1,101.1h-51.7v4.5h51.7V101.1z"/>
<path class="st6" d="M192.3,108.9h-62.9v4.5h62.9V108.9z"/>
<path class="st6" d="M165.8,116.7h-36.4v4.5h36.4V116.7z"/>
<path class="st6" d="M184.4,124.5h-55v4.5h55V124.5z"/>
<path class="st6" d="M186.4,132.2h-57v4.5h57V132.2z"/>
<path class="st9" d="M68.8,68.6c0,1.3-1.1,2.4-2.4,2.4c-1.3,0-2.4-1.1-2.4-2.4c0-1.3,1.1-2.4,2.4-2.4S68.8,67.2,68.8,68.6z"/>
<path class="st10" d="M77.6,68.6c0,1.3-1.1,2.4-2.4,2.4c-1.3,0-2.4-1.1-2.4-2.4c0-1.3,1.1-2.4,2.4-2.4
	C76.5,66.2,77.6,67.2,77.6,68.6z"/>
<path class="st11" d="M86.4,68.6c0,1.3-1.1,2.4-2.4,2.4c-1.3,0-2.4-1.1-2.4-2.4c0-1.3,1.1-2.4,2.4-2.4
	C85.4,66.2,86.4,67.2,86.4,68.6z"/>
<path class="st1" d="M373.3,70.9H118.6c-1.8,0-3.3-1.5-3.3-3.3c0-1.8,1.5-3.3,3.3-3.3h254.6c1.8,0,3.3,1.5,3.3,3.3
	C376.5,69.5,375,70.9,373.3,70.9z"/>
<path class="st0" d="M382.5,296c0,1.6-25.6,2.9-57.1,2.9c-31.6,0-57.1-1.3-57.1-2.9c0-1.6,25.6-2.9,57.1-2.9
	C356.9,293.1,382.5,294.4,382.5,296z"/>
<path class="st12" d="M304.1,183.1c-3.4,2.2-7.9,1.3-10.1-2c-2.2-3.3-1.3-7.9,2-10.1c3.4-2.2,7.9-1.3,10.1,2
	C308.4,176.3,307.5,180.8,304.1,183.1z"/>
<path class="st12" d="M304.1,183.1c0.4-0.2,0.7-0.5,1-0.8l-5.9-12.5c-1.1,0.1-2.2,0.5-3.2,1.2c-0.1,0-0.1,0.1-0.2,0.2l6.4,12.9
	C302.9,183.7,303.5,183.5,304.1,183.1z"/>
<path class="st12" d="M301.1,184.2l-6.4-12.1c-0.2,0.3-0.4,0.5-0.6,0.8l5.9,11.4C300.3,184.3,300.7,184.3,301.1,184.2z"/>
<path class="st13" d="M293.5,181.4c-2.4-3.6-1.4-8.6,2.2-11c3.6-2.4,8.6-1.4,11,2.2c2.4,3.6,1.4,8.6-2.2,11
	C300.8,186,295.9,185,293.5,181.4z M305.6,173.3c-2-3-6.2-3.9-9.2-1.9c-3,2-3.9,6.2-1.9,9.2c2,3,6.2,3.9,9.2,1.9
	C306.8,180.5,307.7,176.4,305.6,173.3z"/>
<path class="st13" d="M294.4,181.5l-14.5,10.3c-0.5,0.4-1.2,0.2-1.6-0.3c-0.4-0.5-0.2-1.2,0.3-1.6c0,0,0,0,0,0l15.1-9.4
	c0.3-0.2,0.7-0.1,0.9,0.2C294.7,181,294.6,181.4,294.4,181.5z"/>
<path class="st14" d="M297.1,296.2v2.8c0,0-11.2,2.2-21.3,0l4.6-2.8H297.1z"/>
<path class="st14" d="M368.1,279.4h3c0,0,2,10.9,0,15.7c0,0-1.4,2-4.3,1.7c0,0,1.7-1.2,1.2-3.4L368.1,279.4L368.1,279.4z"/>
<path class="st15" d="M336.7,251.5l0.5,26.2l30.9,1.7c0,0,2,9.7,0,14h-30.9c0,0-15.9,2.8-16.8-12.4c-0.9-15.2-1-25.4-1-25.4
	S330.3,250.2,336.7,251.5z"/>
<path class="st16" d="M337.2,247.7c0,0,3.6,11.6-3.1,14c-6.7,2.5-38.4,0-38.4,0l1.4,34.5c0,0-9,2.8-16.7,0l-1.1-40.6
	c0,0-2.5-11.6,20.1-9.7L337.2,247.7z"/>
<path class="st17" d="M289.3,181.5c-0.3-0.4-0.5-0.7-0.9-0.9c-0.4-0.2-1-0.1-1.2,0.3c-0.3,0.6,0.4,1.2,0.4,1.9c0,0.5-0.3,1-0.7,1.2
	c-0.4,0.3-0.9,0.4-1.4,0.7c-2.2,1.1-3.3,3.9-2.6,6.1c0.2,0.4,0.4,0.9,0.8,1.1c0.5,0.3,1.1,0.1,1.7-0.1c1.5-0.5,2.9-1,4.2-1.9
	c1.2-0.8,3-2.2,2.5-3.7C291.5,184.7,290.3,183,289.3,181.5z"/>
<path class="st18" d="M333.7,238.6c0.1,0,0.2,0,0.3,0c4.5-0.2,7.9-1.6,10.1-4.2c2-2.3,2.5-5.1,2.3-6.9c0-0.2,0-0.4-0.1-0.6
	c-2-9.2-9.4-21-9.7-21.5c-1.6-2.5-4.9-3.3-7.4-1.7c-2.5,1.6-3.2,4.9-1.7,7.4c1.7,2.7,6.2,10.5,7.9,16.4c-0.4,0.1-1,0.2-1.9,0.3
	c-3,0.1-5.2,2.7-5.1,5.6C328.5,236.4,330.9,238.6,333.7,238.6z"/>
<path class="st19" d="M333.5,227.9c-3,0.1-5.2,2.7-5.1,5.6c0.1,2.9,2.5,5.1,5.3,5.1c0.1,0,0.2,0,0.3,0c3.4-0.2,6.2-1,8.3-2.5
	c-4.9-7.8-6.1-22.8-6.1-22.8l-6.2,2.2c1.9,3.5,4.3,8.2,5.4,12.2C334.9,227.8,334.3,227.9,333.5,227.9z"/>
<path class="st18" d="M301,202.5l16-0.5c2.9-0.1,5.4,2.2,5.5,5.2c0.1,3-2.2,5.4-5.2,5.5l-19.3,0.6c-0.1,0-0.1,0-0.2,0
	c-2,0-3.8-1.1-4.7-2.8l-10.3-19c3.1-2,9.4-5.1,9.4-5.1L301,202.5z"/>
<path class="st17" d="M329.5,192.4l-0.5,9.4l-4.5,3.7l-4.1-2.8l0.3-5.6L329.5,192.4z"/>
<path class="st17" d="M322.4,200.6l-2.4-0.1c-3.7-0.2-6.6-3.4-6.4-7.1l0.5-9.2c0.2-3.7,3.4-6.6,7.1-6.4l2.4,0.1
	c3.7,0.2,6.6,3.4,6.4,7.1l-0.5,9.2C329.2,197.9,326.1,200.8,322.4,200.6z"/>
<path class="st14" d="M321.7,196.2c-1.1-1.3-1.6-3.1-2-4.8c-0.1-0.3-0.1-0.6-0.1-0.8c0.1-0.3,0.3-0.5,0.4-0.7
	c0.4-0.5,0.8-1.2,0.8-1.8s-0.4-1.4-1.1-1.6c-0.8-0.2-1.5,0.5-1.7,1.3c-0.2,0.8,0,1.6,0.2,2.4c-0.8,0.3-1.6-0.6-1.7-1.4
	c-0.1-0.9,0.3-1.7,0.2-2.6c-0.1-1.4-1.3-2.4-2.1-3.5c-0.8-1.1-1.3-2.9-0.2-3.8c0.5-0.4,1.1-0.5,1.6-0.7c0.9-0.5,1.4-1.4,2.2-1.9
	c0.6-0.4,1.3-0.5,1.9-0.6c4.1-0.6,8.8,0.9,10.7,4.5c1.5,2.8,1.1,6.1,0.7,9.2c-0.3,2.6-0.3,6.7-2.9,8.1
	C326.4,198.5,323.3,198.1,321.7,196.2z"/>
<path class="st18" d="M328.8,201.3c0,0,9.1,0,8.4,9.8c-0.7,9.8-2,15.6-0.8,21.9c1.2,6.3,0.8,14.7,0.8,14.7s-18.8,6.1-29-0.6
	c0,0,1.5-31.8,1.8-36.7c0.3-4.9,4.9-9.2,12.2-9.1c7.3,0,7.3,0,7.3,0"/>
<path class="st20" d="M321.6,247.3c9.1,0,15.6-3.3,15.7-3.3c0.1,0,0.1-0.2,0.1-0.2c0-0.1-0.2-0.1-0.2-0.1
	c-0.1,0.1-13.4,6.7-28.5,0.9c-0.1,0-0.2,0-0.2,0.1c0,0.1,0,0.2,0.1,0.2C313.1,246.7,317.6,247.3,321.6,247.3z"/>
<path class="st20" d="M337.1,239.4c0.1,0,0.2-0.1,0.2-0.2c-0.1-3.2-0.7-6.2-0.7-6.2c-0.8-4.5-0.4-8.7,0.2-14.5
	c0.2-2.2,0.5-4.7,0.7-7.4c0-0.1-0.1-0.2-0.2-0.2c-0.1,0-0.2,0.1-0.2,0.2c-0.2,2.7-0.4,5.2-0.7,7.4c-0.6,5.6-1,10-0.2,14.6
	c0,0,0.6,3,0.7,6.1C336.9,239.3,337,239.4,337.1,239.4z"/>
<path class="st20" d="M283.9,193.7C283.9,193.7,284,193.7,283.9,193.7c5.4-1.4,9.5-5.1,9.6-5.1c0.1-0.1,0.1-0.2,0-0.3
	c-0.1-0.1-0.2-0.1-0.3,0c0,0-4.1,3.7-9.4,5c-0.1,0-0.2,0.1-0.1,0.2C283.8,193.6,283.9,193.7,283.9,193.7z"/>
<path class="st20" d="M292.8,188.4c0,0,0.1,0,0.1,0c0.1-0.1,0.1-0.2,0-0.3l-0.8-1.2c-0.1-0.1-0.2-0.1-0.3,0c-0.1,0.1-0.1,0.2,0,0.3
	l0.8,1.2C292.7,188.4,292.8,188.4,292.8,188.4z"/>
<path class="st20" d="M292,189.1C292,189.1,292,189.1,292,189.1c0.2-0.1,0.2-0.2,0.2-0.3c-0.2-0.5-0.5-0.9-0.9-1.3
	c-0.1-0.1-0.2-0.1-0.3,0c-0.1,0.1-0.1,0.2,0,0.3c0.3,0.4,0.6,0.8,0.8,1.3C291.8,189.1,291.9,189.1,292,189.1z"/>
<path class="st20" d="M291.1,189.8C291.1,189.8,291.1,189.8,291.1,189.8c0.2-0.1,0.2-0.2,0.2-0.3c-0.2-0.4-0.5-0.8-0.7-1.2
	c-0.1-0.1-0.2-0.1-0.3,0c-0.1,0.1-0.1,0.2-0.1,0.3c0.3,0.4,0.5,0.8,0.7,1.2C290.9,189.8,291,189.8,291.1,189.8z"/>
<path class="st20" d="M290.1,190.3c0,0,0.1,0,0.1,0c0.1-0.1,0.1-0.2,0-0.3c-0.3-0.5-0.6-1-0.9-1.5c0-0.1-0.2-0.1-0.2-0.1
	c-0.1,0-0.1,0.1-0.1,0.2c0.3,0.5,0.6,1.1,0.9,1.5C290,190.2,290.1,190.3,290.1,190.3z"/>
<path class="st20" d="M289,191C289,191,289.1,191,289,191c0.2-0.1,0.2-0.2,0.2-0.3l-0.6-1.4c0-0.1-0.2-0.1-0.2-0.1
	c-0.1,0-0.1,0.2-0.1,0.2l0.6,1.4C288.9,191,288.9,191,289,191z"/>
<path class="st20" d="M287.9,191.4c0,0,0.1,0,0.1,0c0.1-0.1,0.1-0.2,0-0.3c-0.4-0.5-0.7-1-1-1.6c-0.1-0.1-0.2-0.1-0.2-0.1
	c-0.1,0-0.1,0.2-0.1,0.2c0.3,0.6,0.6,1.1,1,1.6C287.8,191.4,287.9,191.4,287.9,191.4z"/>
<path class="st20" d="M287,192C287,192,287,192,287,192c0.2-0.1,0.2-0.2,0.2-0.3l-0.7-1.4c0-0.1-0.2-0.1-0.2-0.1
	c-0.1,0-0.1,0.2-0.1,0.2l0.7,1.4C286.8,192,286.9,192,287,192z"/>
<path class="st20" d="M285.7,192.4C285.7,192.4,285.8,192.4,285.7,192.4c0.2-0.1,0.2-0.2,0.2-0.3c-0.3-0.5-0.6-1.1-0.8-1.6
	c0-0.1-0.2-0.1-0.2-0.1c-0.1,0-0.1,0.2-0.1,0.2c0.3,0.5,0.5,1.1,0.8,1.6C285.6,192.4,285.7,192.4,285.7,192.4z"/>
<path class="st20" d="M284.4,192.9c0,0,0.1,0,0.1,0c0.1-0.1,0.1-0.2,0-0.3c-0.3-0.3-0.5-0.7-0.6-1.1c0-0.1-0.1-0.1-0.2-0.1
	c-0.1,0-0.1,0.1-0.1,0.2c0.2,0.4,0.4,0.8,0.7,1.2C284.3,192.9,284.3,192.9,284.4,192.9z"/>
<path class="st20" d="M336.3,247.8c0.1,0,0.2-0.1,0.2-0.2v-2.5c0-0.1-0.1-0.2-0.2-0.2c-0.1,0-0.2,0.1-0.2,0.2v2.5
	C336.2,247.8,336.2,247.8,336.3,247.8z"/>
<path class="st20" d="M335.2,247.7c0.1,0,0.2-0.1,0.2-0.2v-1.8c0-0.1-0.1-0.2-0.2-0.2c-0.1,0-0.2,0.1-0.2,0.2v1.8
	C335,247.6,335.1,247.7,335.2,247.7z"/>
<path class="st20" d="M333.9,248.3c0.1,0,0.2-0.1,0.2-0.2v-2c0-0.1-0.1-0.2-0.2-0.2c-0.1,0-0.2,0.1-0.2,0.2v2
	C333.7,248.3,333.8,248.3,333.9,248.3z"/>
<path class="st20" d="M332.4,248.6c0.1,0,0.2-0.1,0.2-0.2v-1.6c0-0.1-0.1-0.2-0.2-0.2c-0.1,0-0.2,0.1-0.2,0.2v1.6
	C332.2,248.5,332.3,248.6,332.4,248.6z"/>
<path class="st20" d="M331.1,248.9c0.1,0,0.2-0.1,0.2-0.2v-1.8c0-0.1-0.1-0.2-0.2-0.2c-0.1,0-0.2,0.1-0.2,0.2v1.8
	C330.9,248.9,331,248.9,331.1,248.9z"/>
<path class="st20" d="M329.7,249.3c0.1,0,0.2-0.1,0.2-0.2v-1.8c0-0.1-0.1-0.2-0.2-0.2c-0.1,0-0.2,0.1-0.2,0.2v1.8
	C329.6,249.2,329.6,249.3,329.7,249.3z"/>
<path class="st20" d="M328.2,249.3c0.1,0,0.2-0.1,0.2-0.2v-1.7c0-0.1-0.1-0.2-0.2-0.2c-0.1,0-0.2,0.1-0.2,0.2v1.7
	C328,249.2,328.1,249.3,328.2,249.3z"/>
<path class="st20" d="M326.9,249.3c0.1,0,0.2-0.1,0.2-0.2v-1.5c0-0.1-0.1-0.2-0.2-0.2c-0.1,0-0.2,0.1-0.2,0.2v1.5
	C326.7,249.3,326.8,249.3,326.9,249.3z"/>
<path class="st20" d="M325.7,249.8c0.1,0,0.2-0.1,0.2-0.2v-1.8c0-0.1-0.1-0.2-0.2-0.2c-0.1,0-0.2,0.1-0.2,0.2v1.8
	C325.5,249.7,325.6,249.8,325.7,249.8z"/>
<path class="st20" d="M324.1,249.5c0.1,0,0.2-0.1,0.2-0.2v-1.1c0-0.1-0.1-0.2-0.2-0.2c-0.1,0-0.2,0.1-0.2,0.2v1.1
	C324,249.4,324,249.5,324.1,249.5z"/>
<path class="st20" d="M323,249.8c0.1,0,0.2-0.1,0.2-0.2v-1.4c0-0.1-0.1-0.2-0.2-0.2c-0.1,0-0.2,0.1-0.2,0.2v1.4
	C322.9,249.8,322.9,249.8,323,249.8z"/>
<path class="st20" d="M322,250c0.1,0,0.2-0.1,0.2-0.2V248c0-0.1-0.1-0.2-0.2-0.2c-0.1,0-0.2,0.1-0.2,0.2v1.8
	C321.8,249.9,321.9,250,322,250z"/>
<path class="st20" d="M320.9,250c0.1,0,0.2-0.1,0.2-0.2V248c0-0.1-0.1-0.2-0.2-0.2c-0.1,0-0.2,0.1-0.2,0.2v1.8
	C320.7,250,320.8,250,320.9,250z"/>
<path class="st20" d="M319.6,249.7c0.1,0,0.2-0.1,0.2-0.2V248c0-0.1-0.1-0.2-0.2-0.2c-0.1,0-0.2,0.1-0.2,0.2v1.5
	C319.5,249.6,319.5,249.7,319.6,249.7z"/>
<path class="st20" d="M318.5,249.5c0.1,0,0.2-0.1,0.2-0.2V248c0-0.1-0.1-0.2-0.2-0.2c-0.1,0-0.2,0.1-0.2,0.2v1.3
	C318.3,249.4,318.4,249.5,318.5,249.5z"/>
<path class="st20" d="M317.1,249.8c0.1,0,0.2-0.1,0.2-0.2v-1.7c0-0.1-0.1-0.2-0.2-0.2c-0.1,0-0.2,0.1-0.2,0.2v1.7
	C316.9,249.7,317,249.8,317.1,249.8z"/>
<path class="st20" d="M315.8,249.5c0.1,0,0.2-0.1,0.2-0.2v-1.9c0-0.1-0.1-0.2-0.2-0.2c-0.1,0-0.2,0.1-0.2,0.2v1.9
	C315.6,249.4,315.7,249.5,315.8,249.5z"/>
<path class="st20" d="M314.8,249.2c0.1,0,0.2-0.1,0.2-0.2v-1.7c0-0.1-0.1-0.2-0.2-0.2c-0.1,0-0.2,0.1-0.2,0.2v1.7
	C314.6,249.1,314.7,249.2,314.8,249.2z"/>
<path class="st20" d="M313.5,249c0.1,0,0.2-0.1,0.2-0.2V247c0-0.1-0.1-0.2-0.2-0.2c-0.1,0-0.2,0.1-0.2,0.2v1.9
	C313.3,248.9,313.4,249,313.5,249z"/>
<path class="st20" d="M312.4,248.8c0.1,0,0.2-0.1,0.2-0.2v-1.8c0-0.1-0.1-0.2-0.2-0.2c-0.1,0-0.2,0.1-0.2,0.2v1.8
	C312.2,248.7,312.3,248.8,312.4,248.8z"/>
<path class="st20" d="M311.1,248.4c0.1,0,0.2-0.1,0.2-0.2v-1.6c0-0.1-0.1-0.2-0.2-0.2c-0.1,0-0.2,0.1-0.2,0.2v1.6
	C311,248.3,311,248.4,311.1,248.4z"/>
<path class="st20" d="M309.9,247.7c0.1,0,0.2-0.1,0.2-0.2v-1.7c0-0.1-0.1-0.2-0.2-0.2c-0.1,0-0.2,0.1-0.2,0.2v1.7
	C309.7,247.7,309.8,247.7,309.9,247.7z"/>
<path class="st20" d="M309,247.4c0.1,0,0.2-0.1,0.2-0.2v-1.8c0-0.1-0.1-0.2-0.2-0.2c-0.1,0-0.2,0.1-0.2,0.2v1.8
	C308.8,247.4,308.9,247.4,309,247.4z"/>
<path class="st0" d="M207.1,299c0,1.6-13.7,2.9-30.5,2.9c-16.8,0-30.5-1.3-30.5-2.9c0-1.6,13.7-2.9,30.5-2.9
	C193.4,296.1,207.1,297.4,207.1,299z"/>
<path class="st21" d="M152.9,181.9c0.1-0.8,0.1-1.7-0.2-2.5c-0.4-1-1.2-1.8-2.2-2.3c-1-0.4-2.1-0.5-3.2-0.5c-0.4,0-0.9,0.1-1.3,0.3
	c-0.6,0.2-1,0.7-1.5,1.1c-0.4,0.4-0.7,0.8-0.9,1.2c-0.1,0.4-0.2,0.8-0.2,1.1c-0.1,1.4,0.2,2.9,0.8,4.1c0.3,0.5,0.6,1,1,1.4
	c0.6,0.5,1.4,0.7,2.1,0.8c0.7,0.1,1.4,0.2,2.1,0C151.4,186,152.6,183.7,152.9,181.9z"/>
<path class="st12" d="M152.4,164.6c0.8,3.9-1.7,7.8-5.6,8.6c-3.9,0.8-7.8-1.7-8.6-5.6c-0.8-3.9,1.7-7.8,5.6-8.6
	C147.7,158.2,151.5,160.7,152.4,164.6z"/>
<path class="st12" d="M152.4,164.6c-0.1-0.4-0.2-0.8-0.4-1.2l-13.8,0.9c-0.3,1.1-0.3,2.2-0.1,3.4c0,0.1,0,0.2,0.1,0.3l14.3-1.2
	C152.6,166,152.5,165.3,152.4,164.6z"/>
<path class="st12" d="M152.3,167.8l-13.6,1.5c0.2,0.3,0.3,0.6,0.5,0.9l12.8-1.3C152.1,168.6,152.2,168.2,152.3,167.8z"/>
<path class="st13" d="M146.9,173.9c-4.3,0.9-8.5-1.8-9.4-6.1c-0.9-4.3,1.8-8.5,6.1-9.4c4.3-0.9,8.5,1.8,9.4,6.1
	C153.9,168.8,151.2,173,146.9,173.9z M143.9,159.6c-3.6,0.8-5.9,4.3-5.1,7.9c0.8,3.6,4.3,5.9,7.9,5.1c3.6-0.8,5.9-4.3,5.1-7.9
	C151,161.2,147.4,158.9,143.9,159.6z"/>
<path class="st13" d="M147.4,173.1l4.2,17.3c0.2,0.6-0.2,1.2-0.8,1.4c-0.6,0.2-1.2-0.2-1.4-0.8c0,0,0,0,0-0.1l-3.2-17.5
	c-0.1-0.3,0.2-0.7,0.5-0.7C147,172.6,147.3,172.8,147.4,173.1z"/>
<path class="st22" d="M142.2,181.8c0.6-2.3,2.5-4.4,4.8-4.4c0.9,0,2,0.4,2,1.3c0,0.5-0.3,1-0.8,1.3c-0.5,0.3-1,0.4-1.5,0.5
	c1.1,0.4,1.6,1.7,1.7,2.9c0.1,1.5-0.3,3.1-1.3,4.2c-0.9,0.9-3.3,2-4.2,0.6C141.9,186.7,141.8,183.6,142.2,181.8z"/>
<path class="st23" d="M178,296.5v2.1c0,0,10.7,1,18,0l-2.6-2.1H178z"/>
<path class="st23" d="M156.7,296.5v2.1c0,0,10.7,1,18,0l-2.6-2.1H156.7z"/>
<path class="st9" d="M168.9,165.3c-2.7-1.3-5.9-0.3-7.2,2.4l-8.7,17.3l-0.5-1.1c-6,0.9-9.7,4.6-9.7,4.6l5.2,11.1
	c0.6,1.3,1.6,2.2,2.9,2.7c0.6,0.2,1.3,0.4,1.9,0.4c2.1,0,3.9-1.1,4.9-3l13.6-27.2C172.7,169.9,171.6,166.6,168.9,165.3z"/>
<path class="st24" d="M169.1,164.9c-2.7-1.3-5.6-0.1-6.9,2.6l-1.8,3.7c2.3,7,1.8,15.7,1.7,19.7l9.4-18.8
	C172.9,169.4,171.8,166.2,169.1,164.9z"/>
<path class="st22" d="M169.7,152.8l0.5,9.3l4.5,3.7l4-2.8l-0.3-5.6L169.7,152.8z"/>
<path class="st22" d="M176.5,161l3.2-0.2c3.5-0.2,6.2-3.2,6-6.7l-0.5-10c-0.2-3.5-3.2-6.2-6.7-6l-3.2,0.2c-3.5,0.2-6.2,3.2-6,6.7
	l0.5,10C170,158.5,173,161.2,176.5,161z"/>
<path class="st14" d="M177.6,156.6c1.1-1.3,1.6-3.1,2-4.7c0.1-0.3,0.1-0.6,0.1-0.8c-0.1-0.3-0.3-0.5-0.4-0.7
	c-0.4-0.5-0.8-1.2-0.8-1.8s0.4-1.4,1.1-1.5c0.8-0.2,1.5,0.5,1.7,1.3c0.2,0.8,0,1.6-0.2,2.4c0.8,0.3,1.6-0.6,1.7-1.4
	c0.1-0.9-0.3-1.7-0.2-2.6c0.1-1.4,1.3-2.4,2.1-3.5c0.8-1.1,1.3-2.9,0.2-3.8c-0.5-0.4-1.1-0.5-1.6-0.7c-0.9-0.5-1.4-1.4-2.2-1.9
	c-0.6-0.4-1.3-0.5-1.9-0.6c-4.1-0.6-8.8,0.9-10.7,4.5c-1.5,2.7-1.1,6.1-0.7,9.1c0.3,2.6,0.3,6.7,2.9,8.1
	C172.9,158.9,175.9,158.6,177.6,156.6z"/>
<path class="st23" d="M193.1,204.9l0.3,91.6c0,0-10,1.1-15.4,0l-1.6-78.3l-3.8,78.8c0,0-9.7,0.6-15.8,0l6.5-89.5L193.1,204.9z"/>
<path class="st9" d="M192.6,171c0.1,0.6,0.2,1.1,0.3,1.7c0.3,1.7,0.5,3.4,0.7,5.2c0.4,3.9,0.7,7.9,0.8,11.8
	c0.2,4.6,0.2,9.1-0.2,13.7c-0.3,4.2-2,5.3-6,6.6c-3.4,1.2-7.1,1.6-10.7,1.7c-3,0.1-13.1,0-14.4-4.2c-0.4-1.4,1.1-4.5,1.3-5.9
	c0.3-2,0.5-4,0.5-6.1c0.1-3.9-0.5-7.9-1.6-11.6c-1.6-5.3-4.7-10.2-2-15.5c2.7-5.4,9.1-7.1,14.8-7.1c2.9,0,5.9,0.2,8.7,1.1
	c1.4,0.5,2.6,1,3.7,2c1.1,1,2.1,2.1,2.9,3.4C191.9,168.7,192.3,169.8,192.6,171z"/>
<path class="st25" d="M157.8,186.4L157.8,186.4C157.8,186.4,157.8,186.4,157.8,186.4z"/>
<path class="st26" d="M167.3,213.7c0,0,6.8,7.4,18.9,4.1"/>
<path class="st9" d="M213.8,166.6l-11.5,8.3l-14-10.8c-2.3-1.8-5.7-1.4-7.5,1c-1.8,2.3-1.4,5.7,1,7.5l17.2,13.3
	c1,0.7,2.1,1.1,3.3,1.1c1.1,0,2.2-0.3,3.2-1l14.7-10.7C219.5,170.5,213.8,166.6,213.8,166.6z"/>
<path class="st27" d="M153.2,184.9c0,0-2.5,4.1-2.2,7.5"/>
<path class="st26" d="M178.2,291.8c0,0,8.2,1.4,14.7,0"/>
<path class="st26" d="M157.4,291.8c0,0,9.6,1.4,15,0"/>
<path class="st22" d="M218.4,163.3c0.4-0.2,0.8-0.5,1.3-0.5c0.5,0,1,0.3,1,0.8c0,0.7-0.9,1-1.2,1.7c-0.2,0.5-0.1,1.1,0.2,1.5
	c0.3,0.5,0.7,0.8,1,1.2c1.6,2,1.5,5.1-0.2,7c-0.3,0.4-0.7,0.7-1.2,0.7c-0.6,0-1.1-0.4-1.6-0.8c-1.2-1.1-2.4-2.2-3.3-3.6
	c-0.8-1.2-2-3.4-0.8-4.6C214.9,165.4,216.8,164.3,218.4,163.3z"/>
<path class="st14" d="M180.6,155.3c0.9,2,2.3,3.9,4.2,5c0.6,0.4,1.4,0.9,1.2,1.6c-0.1,0.3-0.3,0.6-0.6,0.7c-1.8,1.3-4.1,1.5-6.3,1.6
	c-1.7,0.1-3.4,0.2-5,0.3c-4,0.3-8.1,0.5-11.9-0.9c-0.2-0.1-0.4-0.2-0.5-0.4c-0.3-0.4,0.2-1,0.6-1.3c1.8-1.7,2.9-4.1,3.4-6.5
	c0.8-3.6,0.3-7.3,1-10.9c0.4-2,1.3-4.1,3.2-4.9c1.3-0.5,2.7-0.3,3.9,0.4c1.6,0.9,2.2,2.5,3.3,3.8c1.2,1.3,1.7,3.1,1.7,4.9
	C178.8,150.9,179.7,153.3,180.6,155.3z"/>
<path class="st24" d="M193.9,182l-7.7-5.9c0,0,6.3,7.8,8.1,12.5C194.3,188.6,194.3,185.7,193.9,182z"/>
<path class="st28" d="M168.2,203.1c0.1,0.7,0,1.4-0.3,2"/>
<path class="st28" d="M168.2,198.6c0.5,0.4,0.8,1.1,0.6,1.7"/>
<path class="st28" d="M174.8,196.6c0,0.3-0.1,0.6-0.2,0.9"/>
<path class="st28" d="M170.6,191.7c-0.3,0.4-0.6,0.8-0.9,1.2"/>
<path class="st28" d="M178.8,191.4c0.5,0.7,1,1.5,1.3,2.3"/>
<path class="st28" d="M174,201.7c-0.2,0.5-0.4,1-0.6,1.5"/>
<path class="st28" d="M155.8,196.3c-0.2,0.5-0.4,1-0.6,1.5"/>
<path class="st28" d="M148.9,189.5c-0.6,0.4-1,0.8-1.4,1.4"/>
<path class="st28" d="M150.4,195.4c0,0.8,0,1.6,0,2.5"/>
<path class="st28" d="M155.8,189.3c0.1,0.4,0.2,0.8,0.3,1.2"/>
<path class="st28" d="M158.4,182.1c0.2,0.4,0.4,0.7,0.6,1.1"/>
<path class="st28" d="M159.7,187.4c0.1,0.8,0,1.6-0.3,2.3"/>
<path class="st28" d="M163.5,171c0.6-0.5,1.2-0.9,1.8-1.3"/>
<path class="st28" d="M172.6,168.5c-0.3,0.4-0.5,0.9-0.6,1.4"/>
<path class="st28" d="M166.3,175.3c-0.1,0.5-0.2,0.9-0.3,1.4"/>
<path class="st28" d="M173.3,175.8c0.1,0.6,0.3,1.2,0.6,1.7"/>
<path class="st28" d="M182.1,181.8c-0.1,0.7-0.3,1.3-0.6,1.9"/>
<path class="st28" d="M169.1,182.6c-0.2,0.7-0.3,1.3-0.5,2"/>
<path class="st28" d="M176.2,184.3c0,0.4,0,0.8,0,1.2"/>
<path class="st28" d="M179.9,171.4c0.1,0.4,0.2,0.8,0.3,1.2"/>
<path class="st28" d="M185.6,168.5c0.3,0.4,0.6,0.7,0.9,1.1"/>
<path class="st28" d="M187.2,190.7c0.7,0.5,1.3,0.9,2,1.4"/>
<path class="st28" d="M184.4,198.9c0,0.5,0,0.9,0,1.4"/>
<path class="st28" d="M178.9,203.7c-0.1,0.5-0.2,1-0.3,1.5"/>
<path class="st28" d="M188.5,184.9c0.6,0.3,1.1,0.6,1.7,0.9"/>
<path class="st28" d="M183.7,188.8c0.6,0.4,1.1,0.7,1.7,1.1"/>
<path class="st28" d="M189.6,202.2c0,0.6-0.1,1.1-0.2,1.7"/>
<path class="st28" d="M183.8,207.6c-0.3,0.5-0.5,1-0.5,1.5"/>
<path class="st28" d="M189.3,174.2c0.4,0.5,0.9,1,1.5,1.3"/>
<path class="st28" d="M195,172.1c0,0.4,0.1,0.8,0.1,1.2"/>
<path class="st28" d="M197.8,179.3c-0.2,0.4-0.3,0.8-0.5,1.2"/>
<path class="st28" d="M203.1,180.1c0.1,0.5,0.3,0.9,0.6,1.3"/>
<path class="st28" d="M207.7,174.1c0.3,0.3,0.5,0.6,0.8,0.9"/>
<path class="st28" d="M213.9,175.6c0,0.5,0.1,0.9,0.1,1.4"/>
<path class="st28" d="M207.7,177.2c0.2,0.6,0.4,1.2,0.6,1.8"/>
<path class="st28" d="M201.1,184.9c-0.2,0.2-0.4,0.4-0.6,0.6"/>
<path class="st28" d="M198.9,175.1c0.5,0.2,0.9,0.4,1.4,0.6"/>
<path class="st28" d="M182.8,176.7c0.4,0.5,0.7,1,1.1,1.5"/>
<path class="st28" d="M172,208.5c-0.3,0.2-0.5,0.4-0.8,0.6"/>
<path class="st28" d="M186.4,195.2c0.6,0.5,1.4,0.8,2.1,0.8"/>
<path class="st28" d="M192.2,196.6c0.1,0.7,0,1.5-0.3,2.2"/>
<path class="st28" d="M164.2,166.7c0.3-0.4,0.8-0.7,1.2-0.8"/>
<path class="st28" d="M157.9,177.9c0.4-0.5,0.8-0.9,1.2-1.4"/>
<path class="st3" d="M368.1,246.4c-0.2-1.7-0.3-3.7,0.8-5.1c1.7-2.1,5.2-1.7,7.2,0.1c2,1.8,2.8,4.6,3.5,7.2c-4.2-12.8-8.1-27.6-1-39
	c0.8-1.3,1.9-2.6,3.3-3.2c2.2-0.8,4.8,0.3,6.3,2.2c1.5,1.8,2.1,4.2,2.6,6.5c1.5,7,2.2,14.2,2,21.3c-0.9-6.1,1-12.6,5.2-17.2
	c0.5,1.4,1,2.7,1.4,4.1c-2.4-11.1-1.3-22.9,3-33.3c2-4.7,5.5-9.7,10.6-9.6c4.2,0.1,7.6,3.8,9.2,7.8c3.7,8.9,1.4,19.1-2.1,28.1
	c-3.6,9.1-8.4,17.7-14.4,25.4c1.5-2.9,5.9-3.5,8.5-1.6c2.7,1.9,3.7,5.6,3.1,8.8c-0.6,3.2-2.5,6.1-4.8,8.5
	c-4.5,4.9-10.5,8.5-16.9,10.2C379.6,271.8,369.8,261.2,368.1,246.4z"/>
<path class="st4" d="M383.9,264.5c0,0,33.6-38.4,28.7-80.1"/>
<path class="st4" d="M405,194.6c0,0,2.3,11.4,6.1,15.8"/>
<path class="st4" d="M408,221.9c0,0,3.8,1.4,7.4-3.1"/>
<path class="st4" d="M382.8,211.9c0,0-1.6,22.2,9.5,41.3"/>
<path class="st4" d="M388.2,259c0,0,12.4-0.1,24.4-12.5"/>
<path class="st4" d="M371.4,243.2c0,0,5.1,15.1,14.1,19.2"/>
<path class="st4" d="M384.4,231.8c0,0-5.6-2.4-7.1-12.2"/>
<path class="st4" d="M400.8,255.3c0,0,1.5,3.8,8.3,0.7"/>
<path class="st4" d="M400.4,239.3c0,0-4-6.8-3.8-14.7"/>
<path class="st29" d="M46.4,128.6l3.9,7.2l8.8-5l4.8,5l-0.6-6.4l9.5-4l-17.1-17.3L46.4,128.6z"/>
<path class="st1" d="M65.3,120.6v8.8l-7.5-8L65.3,120.6z"/>
<path class="st1" d="M63.4,121.4L33.8,97.6l14.1,27.8L63.4,121.4z"/>
<path class="st1" d="M33.8,97.6l41.8,18.7l-12.2,5.2L33.8,97.6z"/>
<path class="st2" d="M63.4,121.4l1.9-0.8L33.8,97.6L63.4,121.4z"/>
<path class="st30" d="M67,132.4c11.4,9.9,29.5,11.4,42.3,3.3c4.4-2.7,8.3-6.7,9.4-11.8c1.1-5-1.6-11.1-6.7-12.3
	c-6.2-1.5-12.1,5.5-10.9,11.7c1.2,6.2,7.4,10.6,13.8,11.2c6.3,0.7,12.5-1.6,18.2-4.5c8-4.1,15.5-9.5,20.6-17
	c5.1-7.4,7.4-17,4.9-25.6"/>
<path class="st31" d="M108.4,248.9c-0.1-0.6-0.3-1.3-0.8-1.7c-0.6-0.4-1.4-0.3-2.1-0.1c-5.8,1.5-10.7,6.1-12.7,11.7
	c0.3-13.1-1.6-26.2-5.6-38.7c-0.8-2.5-1.7-5-3.6-7c-1.8-1.9-4.7-3-7.1-2.1c-1.8,0.7-3,2.3-4,3.9c-6.9,11.6-4.1,26.4,0.3,39.2
	c-1.8-2.6-6.1-2.9-8.2-0.6c-2.2,2.3-1.6,6.5,1.1,8.2c-0.7-2.5-3.1-4-5.4-5.1c-5.4-2.6-12.7-3.8-16.9,0.6c-4.5,4.7-2.1,12.8,2.3,17.6
	c6.2,6.6,15.4,9.8,24.4,10.4c8.7,0.6,22.1,0.8,28.9-5.8C106.5,271.9,110.2,258.9,108.4,248.9z"/>
<path class="st4" d="M78.8,213c0,0,12.4,47.1,0,68.3"/>
<path class="st4" d="M49.2,261.8c0,0,14.6,14.7,32.4,13.3"/>
<path class="st4" d="M106.9,249.8c0,0-7.5,22.4-24.5,22.5"/>
<path class="st4" d="M67.6,255.2c0,0,8.7,11.6,15.8,12.3"/>
<path class="st4" d="M73.2,223.9c0,0,4.9,13.5,10.3,15.7"/>
<path class="st4" d="M84.3,255.2c0,0,2.9,1,4.8-5.5"/>
<path class="st4" d="M48.3,270.2c0,0,5.5,1.2,12,0"/>
<path class="st4" d="M76.5,264.4c0,0-3.5,2.6-8.3,0"/>
<path class="st4" d="M89.7,270.7c0,0,2.9,3.2,10.2,1.5"/>
</svg>
