<?xml version="1.0" encoding="utf-8"?>
<!-- Generator: Adobe Illustrator 27.0.0, SVG Export Plug-In . SVG Version: 6.00 Build 0)  -->
<svg version="1.1" id="Layer_1" xmlns="http://www.w3.org/2000/svg" xmlns:xlink="http://www.w3.org/1999/xlink" x="0px" y="0px"
	 viewBox="0 0 424 301" style="enable-background:new 0 0 424 301;" xml:space="preserve">
<style type="text/css">
	.st0{fill:#F3F8FF;}
	.st1{fill:#A0A1A4;}
	.st2{fill:#85735B;}
	.st3{fill:#A39379;}
	.st4{fill:#3A332D;}
	.st5{fill:#59595B;}
	.st6{fill:#70694C;}
	.st7{fill:#504A45;}
	.st8{fill:#DBC6AA;}
	.st9{fill:#DCC7AB;}
	.st10{fill:#394760;}
	.st11{fill:#302D2E;}
	.st12{fill:#FFFFFF;}
	.st13{fill:#876749;}
	.st14{fill:#4272BD;}
	.st15{fill:#C2C4C3;}
	.st16{opacity:0.14;}
	.st17{fill:#C9D0D0;}
	.st18{fill:#313B54;}
	.st19{fill:#A7DDF4;}
	.st20{fill:#ABBEC0;}
	.st21{fill:#B5B6BC;}
	.st22{opacity:0.1;}
	.st23{fill:#232020;}
	.st24{fill:#DCDCDE;}
	.st25{fill:#86878A;}
	.st26{fill:#0C6794;}
	.st27{fill:#FDBA4E;}
	.st28{fill:#F6CE80;}
	.st29{opacity:4.000000e-02;}
	.st30{fill:#FDC859;}
</style>
<g>
	<g id="XMLID_00000176748508685190645100000014198182023311618986_">
		<g id="XMLID_00000152221815301051831710000001921771623238987411_">
			<g id="XMLID_00000088842497733215371420000001763535813793509030_">
				<path class="st0" d="M335.1,147.9c-1.6,0-3.2,0.1-4.8,0.2c-5.4-31.1-32.7-54.8-65.6-54.8c-15,0-28.9,5-40.1,13.3
					c-12-21.1-34.9-35.3-61-35.3c-38.7,0-70.1,31.2-70.1,69.6c0,2.4,0.1,4.8,0.4,7.2c-1.6-0.1-3.2-0.2-4.8-0.2
					c-38.7,0-70.1,31.2-70.1,69.6c0,38.5,31.4,69.6,70.1,69.6h246.1c38.7,0,70.1-31.2,70.1-69.6
					C405.2,179.1,373.8,147.9,335.1,147.9z"/>
			</g>
		</g>
	</g>
</g>
<g>
	<g>
		<g>
			<rect x="112.3" y="125.1" class="st1" width="2.5" height="1.2"/>
		</g>
		<g>
			<path class="st1" d="M150.8,126.3H146v-1.2h4.8V126.3z M143.6,126.3h-4.8v-1.2h4.8V126.3z M136.4,126.3h-4.8v-1.2h4.8V126.3z
				 M129.2,126.3h-4.8v-1.2h4.8V126.3z M122,126.3h-4.8v-1.2h4.8V126.3z"/>
		</g>
		<g>
			<polygon class="st1" points="156.3,128.2 155.1,128.2 155.1,126.3 153.2,126.3 153.2,125.1 156.3,125.1 			"/>
		</g>
		<g>
			<path class="st1" d="M156.3,210.7h-1.2v-5h1.2V210.7z M156.3,203.2h-1.2v-5h1.2V203.2z M156.3,195.7h-1.2v-5h1.2V195.7z
				 M156.3,188.2h-1.2v-5h1.2V188.2z M156.3,180.7h-1.2v-5h1.2V180.7z M156.3,173.2h-1.2v-5h1.2V173.2z M156.3,165.7h-1.2v-5h1.2
				V165.7z M156.3,158.2h-1.2v-5h1.2V158.2z M156.3,150.7h-1.2v-5h1.2V150.7z M156.3,143.2h-1.2v-5h1.2V143.2z M156.3,135.7h-1.2v-5
				h1.2V135.7z"/>
		</g>
		<g>
			<rect x="155.1" y="213.2" class="st1" width="1.2" height="2.5"/>
		</g>
	</g>
	<g>
		<g>
			<g>
				<polygon class="st2" points="327.7,167.1 331.3,163.1 330,157.8 327.1,158.5 326.4,162.5 324.7,163.5 324.5,167 				"/>
			</g>
			<g>
				<g>
					<g>
						<g>
							<polygon class="st3" points="278.3,211.9 278,242.3 281.2,281.4 285.6,281.4 290.9,245.3 296.9,209.1 							"/>
						</g>
						<g>
							<polygon class="st4" points="285.6,283.3 280.9,285.7 278.5,283.3 280.9,280.9 285.6,280.9 							"/>
						</g>
					</g>
					<g>
						<g>
							<polygon class="st3" points="309.6,211.7 309.2,229.3 304.8,281.1 300.4,281 294,246.3 291,208.4 							"/>
						</g>
						<g>
							<polygon class="st4" points="300.4,282.9 305.1,285.4 307.6,283.1 305.2,280.6 300.5,280.5 							"/>
						</g>
					</g>
				</g>
				<g>
					<path class="st5" d="M313.1,222.5c0.1,2.8,0,6.5-1.1,6.7c-0.2,0-0.4-0.1-0.6-0.2c-2-1-3.5-2.4-5.5-3.4c-2.1-1-4.5-1.5-6.9-1.9
						c-3.5-0.6-7.1-0.9-10.6-0.9c-3,0-6.2,1.4-9,2.1c-1.1,0.3-2,1.1-2.9,1.7c-1.4,0.9-1.9,1.3-1.8-0.6c0.3-3.1,0.6-6.2,1-9.3
						c0.8-6.2,1.8-12.3,3.5-18.3c0.7-2.3,1.4-4.5,2.2-6.8c0.9-2.7,1.9-5.5,2.8-8.2c1.2-3.4,3.1-5.8,6.6-7c3-1,6.7-1.3,9.6,0.1
						c3.2,1.6,4.8,7.1,6.3,10c1.4,2.6,3.1,9.5,3.6,12.3c0.6,3.3,1.2,6.6,1.6,9.9c0.5,3.6,0.8,7.3,1,10.9
						C313,220,313.1,221.1,313.1,222.5z"/>
				</g>
				<g>
					<g>
						<path class="st2" d="M293.6,177.2c0.1,0.1,0.2,0.1,0.2,0.1c0.2,0.1,0.4,0,0.6,0c0.8-0.1,1.6-0.2,2.4-0.3
							c-0.3-2.4,1.2-3,2.5-4.5c1.4-1.6,1-3.7,0.9-5.6c0-0.5,0-1.1-0.3-1.6c-0.4-0.9-1.3-1.3-2.2-1.6c-2.3-0.7-4.9-0.5-6.9,0.8
							c-0.5,0.3-1,0.8-1.3,1.4c-0.4,0.9-0.3,1.9-0.2,2.9c0.2,1.5,0.6,3,1.5,4.2c0.8,1.2,2.3,1.7,2.5,3.2
							C293.2,176.6,293.3,177,293.6,177.2z"/>
					</g>
					<g>
						<g>
							<path class="st6" d="M289.3,167c0.1,0.6,0.4,1.2,0.3,1.8c-1-0.3-1.6-1.3-1.9-2.3c-0.2-0.5-0.3-0.9-0.2-1.4
								c0-0.5,0.2-1,0.6-1.2c0.5-0.4,1.5-0.2,1.6,0.5C289.8,165.1,289.1,166.1,289.3,167z"/>
						</g>
						<g>
							<path class="st7" d="M284.2,161.7c0-0.7,0.3-1.4,0.9-1.8c0.6-0.4,1.2-0.7,1.5-1.3c0.3-0.5,0.3-1,0.6-1.5
								c0.5-0.8,1.5-1.1,2.4-1.4c2.2-0.7,3.4-1.5,5.8-0.6c1.7,0.7,3.9,0.7,5.4,1.7c0.7,0.4,1.2,1,1.7,1.8c1.6,2.5,2,5.9,0.9,8.5
								c-0.2,0.6-0.5,1.1-0.8,1.6c-0.6,1-1.3,2.3-2.4,2.8c-0.1-0.5-0.4-0.7-0.5-1.2c-0.1-0.3-0.1-0.7,0-1c0.1-1.4,0.5-3.5-0.9-4.2
								c-1.7-0.8-4.9-0.1-6.6,0.6c-1.5,0.6-3.9,1.5-5.5,0.8C285.3,165.8,284.1,163.3,284.2,161.7z"/>
						</g>
					</g>
				</g>
			</g>
			<g>
				<polygon class="st5" points="300.5,176.6 315.8,184.5 323.1,166.2 328.8,166.5 323.9,190.5 316.8,194.6 300.3,189.4 				"/>
			</g>
		</g>
		<g>
			<g>
				<polygon class="st5" points="289.1,177.4 282.2,180.4 270.2,191.3 254.1,191.1 254.2,196.6 273.7,201.3 288.1,187.2 				"/>
			</g>
		</g>
		<g>
			<g>
				<polygon class="st2" points="254.5,192.3 250.3,191 245.9,193.4 246.6,195.9 254.8,195.4 				"/>
			</g>
		</g>
	</g>
	<g>
		<path class="st8" d="M96.9,165.1c-0.6-1.1-1.2-3.3-2.8-3.2c-0.1,0-0.3,0-0.3,0.2c-0.1,0.2,0.2,0.6,0,0.7c-1-0.5-2.1-0.9-3.3-1
			c-0.6-0.1-1.4,0.1-1.5,0.7c-0.1,0.5,0.3,1,0.7,1.3c1.3,1,2.6,1.9,4.1,2.6l-0.2,0.2C94.6,165.8,95.8,165.7,96.9,165.1z"/>
		<g>
			<g>
				<g>
					<path class="st9" d="M163.8,192.9c0,0,2.1,0.3,2.1,0.3c0.8,0.1,4.1-1.6,4.9-2c0.4-0.2-2.7-1.8-3-1.9c-0.6-0.1-1.9,0.5-2.5,0.7
						l-0.9-0.8L163,190L163.8,192.9z"/>
				</g>
				<g>
					<g>
						<polygon class="st10" points="111.9,280.1 111.6,282.4 115.9,285.3 118.5,283.3 116.5,280.7 112.2,277.8 						"/>
					</g>
					<g>
						<g>
							<polygon class="st11" points="111.8,279.3 115.1,250.1 111.1,217.4 112,210.5 129.8,209.8 130.4,221.1 127.4,250.2 
								116.2,280.8 							"/>
						</g>
					</g>
					<g>
						<polygon class="st12" points="132.6,178.1 140.6,182.8 146.9,191.7 163.8,189.2 164.3,193.9 145.1,200.3 135.3,196.6 						
							"/>
					</g>
					<g>
						<g>
							<polygon class="st11" points="142.8,213.1 142.8,242.5 136.9,280.5 132.6,280.4 130.3,245.4 124.8,210.2 							"/>
						</g>
						<g>
							<polygon class="st10" points="132.6,282.2 137.2,284.6 139.6,282.3 137.3,280 132.7,279.9 							"/>
						</g>
					</g>
					<g>
						<g>
							<path class="st12" d="M109.3,223.1c0-1.3,0.1-2.3,0.1-2.7c0.1-3.4,0.4-6.8,0.8-10.2c0.4-3,0.9-10.6,1.4-13.6
								c0.4-2.5,1.9-8.7,3-11.1c2.7-5.8,1.9-6.3,13.7-8c5.2-0.8,6.4,2.5,10.7,6.2c0.4,0.4,0.4,2.6,0.5,3.1c0.2,1,0.4,2,0.6,3
								c0.2,0.8,0.3,1.6,0.6,2.4l0,0c0,0,3.6,16.2,5.9,19.7c2.4,3.4,7.2,8.3-0.9,11.2c-1.4,0.5-2.9,0.9-4.4,1.1
								c0,0-6.7-0.7-10.1-0.7c-3.2,0-6.3,0.3-9.4,0.9c-2.1,0.3-4.2,0.9-6,1.8c-1.8,0.9-3,2.3-4.8,3.2c-0.2,0.1-0.4,0.2-0.5,0.2
								C109.2,229.4,109.2,225.8,109.3,223.1z"/>
						</g>
					</g>
					<g>
						<g>
							<path class="st8" d="M127.3,178.9c-0.5,0.5-1.8,1-3.4,0.9c-0.3,0-0.6-0.2-0.7-0.5c-0.3-0.9-0.4-1.7-0.6-2.6
								c-1.2,0-2.6-0.2-3.1-1.3c-0.2-0.3-0.2-0.7-0.3-1.1c-0.2-1.5-0.4-3-0.6-4.5c-0.1-0.5-0.1-1.1,0-1.6c0.2-0.9,1.1-1.5,1.9-1.9
								c2.1-1.1,4.7-1.3,6.8-0.4c0.6,0.2,1.1,0.6,1.5,1.1c0.6,0.8,0.6,1.8,0.7,2.8c0,0.9,0.1,1.8,0.1,2.7c0,1,0,2.2-0.8,2.9
								c-0.4,0.3-1,0.5-1.4,0.9C127,176.8,127.4,177.9,127.3,178.9z"/>
						</g>
						<g>
							<path class="st13" d="M135.7,160.6c0.1-0.4,0.2-0.8,0.4-1.2c0.4-0.9,0.9-1.7,1.1-2.6c0.2-0.9,0.1-2-0.7-2.6
								c-0.5-0.4-1.1-0.4-1.8-0.4c-2,0-4,0.6-5.7,1.6c-1.6,1-3,2.2-5,2.1c-1.9-0.1-3,0.5-4.6,1.7c-1.7,1.3-4.2,2.2-5.6,3.7
								c-0.6,0.6-1,1.4-1.2,2.2c-0.8,2.9,0.2,6.2,2.5,8.1c0.5,0.4,1.1,0.8,1.6,1.1c1.2,0.7,2.6,1.6,4,1.5c-0.3-1.1-2.4-4.3-1.8-5.4
								c0.9-1.8,4.1-2.3,5.9-2.4c1.9-0.2,4,0.6,5.8,0.3c1.4-0.2,2.8-1.3,3.7-2.4C135.4,164.8,135.3,162.2,135.7,160.6z"/>
						</g>
					</g>
					<g>
						<polygon class="st12" points="118,179.9 108.7,182.3 97.4,164.9 92.7,166.2 100.6,191.3 118.8,193.5 						"/>
					</g>
				</g>
			</g>
		</g>
	</g>
	<g>
		<g id="XMLID_1305_">
			<g id="XMLID_1306_">
				<g id="XMLID_1307_">
					<path class="st14" d="M278.7,218.2c-0.8,0-1.6,0-2.4,0.1c-2.7-15.5-16.3-27.3-32.7-27.3c-7.5,0-14.4,2.5-20,6.6
						c-6-10.5-17.4-17.6-30.4-17.6c-19.3,0-35,15.5-35,34.7c0,1.2,0.1,2.4,0.2,3.6c-0.8-0.1-1.6-0.1-2.4-0.1
						c-19.3,0-35,15.5-35,34.7c0,19.2,15.7,34.7,35,34.7h122.7c19.3,0,35-15.5,35-34.7C313.6,233.7,298,218.2,278.7,218.2z"/>
				</g>
			</g>
		</g>
	</g>
	<g>
		<g>
			<g>
				<polygon class="st15" points="188.7,101.6 168.7,101.4 170.6,86.1 187.1,86.3 				"/>
			</g>
			<g class="st16">
				<polygon points="170.1,90.3 187.4,89.6 187.9,94.1 				"/>
			</g>
			<g>
				<path class="st17" d="M126,14.7v74.4c0,0.7,0.6,1.2,1.2,1.2h103.1c0.7,0,1.2-0.6,1.2-1.2V14.7c0-0.7-0.6-1.2-1.2-1.2H127.2
					C126.5,13.5,126,14,126,14.7z"/>
			</g>
			<g>
				<path class="st18" d="M126,15v65.9h105.6V15c0-0.9-0.7-1.6-1.6-1.6H127.6C126.7,13.4,126,14.1,126,15z"/>
			</g>
			<g>
				<rect x="128.8" y="16.4" class="st19" width="100" height="60.8"/>
			</g>
			<g>
				<rect x="162.9" y="99.5" class="st17" width="31.7" height="5.5"/>
			</g>
		</g>
	</g>
	<g>
		<g>
			<g>
				<g>
					<path class="st18" d="M381.2,168.9h-34.9c-2.4,0-4.3-1.9-4.3-4.3V97.7c0-2.4,1.9-4.3,4.3-4.3h34.9c2.4,0,4.3,1.9,4.3,4.3v66.9
						C385.6,166.9,383.6,168.9,381.2,168.9z"/>
				</g>
			</g>
			<g>
				<rect x="345.2" y="97.3" class="st19" width="37.1" height="61.2"/>
			</g>
			<g>
				<path class="st12" d="M367.2,165.8h-6.8c-0.8,0-1.5-0.7-1.5-1.5v-0.2c0-0.8,0.7-1.5,1.5-1.5h6.8c0.8,0,1.5,0.7,1.5,1.5v0.2
					C368.7,165.2,368,165.8,367.2,165.8z"/>
			</g>
		</g>
		<g>
			<g>
				<path class="st20" d="M345.9,157.7v-2.2V157.7z"/>
			</g>
		</g>
	</g>
	<g>
		<g>
			<g>
				<rect x="260.4" y="45.7" class="st21" width="57.1" height="84.4"/>
			</g>
		</g>
		<g class="st22">
			<g>
				<polygon class="st23" points="317.5,45.7 261.7,138 317.5,138 				"/>
			</g>
		</g>
		<g>
			<g>
				<g>
					<rect x="258.3" y="45.7" class="st24" width="61.3" height="16.6"/>
				</g>
			</g>
			<g>
				<g>
					<rect x="264.4" y="53.4" class="st25" width="29.8" height="1.2"/>
				</g>
			</g>
			<g>
				<g>
					<rect x="303.4" y="52.6" class="st26" width="2.9" height="2.9"/>
				</g>
			</g>
			<g>
				<g>
					<rect x="309.6" y="52.6" class="st27" width="2.9" height="2.9"/>
				</g>
			</g>
		</g>
		<g>
			<g>
				<g>
					<rect x="258.3" y="64.6" class="st24" width="61.3" height="16.6"/>
				</g>
			</g>
			<g>
				<g>
					<rect x="264.4" y="72.3" class="st25" width="29.8" height="1.2"/>
				</g>
			</g>
			<g>
				<g>
					<rect x="303.4" y="71.5" class="st26" width="2.9" height="2.9"/>
				</g>
			</g>
			<g>
				<g>
					<rect x="309.6" y="71.5" class="st27" width="2.9" height="2.9"/>
				</g>
			</g>
		</g>
		<g>
			<g>
				<g>
					<rect x="258.3" y="83.5" class="st24" width="61.3" height="16.6"/>
				</g>
			</g>
			<g>
				<g>
					<rect x="264.4" y="91.2" class="st25" width="29.8" height="1.2"/>
				</g>
			</g>
			<g>
				<g>
					<rect x="303.4" y="90.4" class="st26" width="2.9" height="2.9"/>
				</g>
			</g>
			<g>
				<g>
					<rect x="309.6" y="90.4" class="st27" width="2.9" height="2.9"/>
				</g>
			</g>
		</g>
		<g>
			<g>
				<g>
					<rect x="258.3" y="102.5" class="st24" width="61.3" height="16.6"/>
				</g>
			</g>
			<g>
				<g>
					<rect x="264.4" y="110.2" class="st25" width="29.8" height="1.2"/>
				</g>
			</g>
			<g>
				<g>
					<rect x="303.4" y="109.3" class="st26" width="2.9" height="2.9"/>
				</g>
			</g>
			<g>
				<g>
					<rect x="309.6" y="109.3" class="st27" width="2.9" height="2.9"/>
				</g>
			</g>
		</g>
		<g>
			<g>
				<g>
					<rect x="258.3" y="121.4" class="st24" width="61.3" height="16.6"/>
				</g>
			</g>
			<g>
				<g>
					<rect x="264.4" y="129.1" class="st25" width="29.8" height="1.2"/>
				</g>
			</g>
			<g>
				<g>
					<rect x="303.4" y="128.2" class="st26" width="2.9" height="2.9"/>
				</g>
			</g>
			<g>
				<g>
					<rect x="309.6" y="128.2" class="st27" width="2.9" height="2.9"/>
				</g>
			</g>
		</g>
	</g>
	<g>
		<g>
			<g>
				<g id="XMLID_1304_">
					<path class="st28" d="M74,96.3l0-0.9c0-1.5-1.3-2.8-2.8-2.8l-29.6-0.1c-1.6,0-2.8,1.2-2.9,2.8l-0.2,49.9l70.6,0.3l0.2-46.2
						c0-1.5-1.3-2.8-2.8-2.8L74,96.3z"/>
				</g>
				<g id="XMLID_1303_">
					
						<rect x="41.7" y="100.3" transform="matrix(1 4.148250e-03 -4.148250e-03 1 0.5109 -0.3066)" class="st12" width="65" height="45.5"/>
				</g>
				<g id="XMLID_1302_" class="st29">
					<path class="st23" d="M71.9,104.7l-1.1,2.8l-29.4-0.1c-1.6,0-2.8,1.2-2.9,2.8l-0.1,35.2c0,1.5,1.3,2.8,2.8,2.8l64.9,0.3
						c1.6,0,2.8-1.2,2.9-2.8l0.2-39.9c0-1.5-1.3-2.8-2.8-2.8l-31.8-0.1C73.4,102.9,72.3,103.6,71.9,104.7z"/>
				</g>
				<g id="XMLID_1301_">
					<path class="st30" d="M72.9,105.9l-1.1,2.8l-30.4-0.1c-1.6,0-2.8,1.2-2.9,2.8l-0.1,35.2c0,1.5,1.3,2.8,2.8,2.8l64.9,0.3
						c1.6,0,2.8-1.2,2.9-2.8l0.2-39.9c0-1.5-1.3-2.8-2.8-2.8l-30.8-0.1C74.4,104.1,73.3,104.8,72.9,105.9z"/>
				</g>
			</g>
		</g>
	</g>
	<g>
		<g>
			<rect x="177.9" y="108.8" class="st1" width="1.2" height="2.5"/>
		</g>
		<g>
			<path class="st1" d="M179.2,175.5h-1.2v-4.8h1.2V175.5z M179.2,168.4h-1.2v-4.8h1.2V168.4z M179.2,161.3h-1.2v-4.8h1.2V161.3z
				 M179.2,154.1h-1.2v-4.8h1.2V154.1z M179.2,147h-1.2v-4.8h1.2V147z M179.2,139.9h-1.2v-4.8h1.2V139.9z M179.2,132.7h-1.2V128h1.2
				V132.7z M179.2,125.6h-1.2v-4.8h1.2V125.6z M179.2,118.5h-1.2v-4.8h1.2V118.5z"/>
		</g>
		<g>
			<rect x="177.9" y="177.9" class="st1" width="1.2" height="2.5"/>
		</g>
	</g>
	<g>
		<g>
			<path class="st1" d="M210.3,180.5c0-0.2-0.1-0.7-0.1-2.6l1.2,0c0,1.9,0.1,2.3,0.1,2.4L210.3,180.5z"/>
		</g>
		<g>
			<path class="st1" d="M210.1,175.6c0-1.2,0-2.6,0-4.2l0-0.5l1.2,0l0,0.5c0,1.6,0,3,0,4.2L210.1,175.6z M211.4,168.5l-1.2,0
				c0-1.5,0-3.1,0-4.7l1.2,0C211.4,165.5,211.4,167,211.4,168.5z M211.4,161.5l-1.2,0c0-1.5,0-3.1,0-4.7l1.2,0
				C211.4,158.4,211.4,159.9,211.4,161.5z M211.5,154.4l-1.2,0l0-4.7l1.2,0L211.5,154.4z M211.5,147.4l-1.2,0c0-1.6,0-3.2,0.1-4.7
				l1.2,0C211.6,144.2,211.5,145.8,211.5,147.4z M211.6,140.4l-1.2,0l0.1-4.7l1.2,0L211.6,140.4z"/>
		</g>
		<g>
			<polygon class="st1" points="211.7,133.4 210.4,133.3 210.5,130.2 213.6,130.2 213.6,131.5 211.7,131.5 			"/>
		</g>
		<g>
			<path class="st1" d="M247.7,131.5h-4.5v-1.2h4.5V131.5z M240.8,131.5h-4.5v-1.2h4.5V131.5z M234,131.5h-4.5v-1.2h4.5V131.5z
				 M227.2,131.5h-4.5v-1.2h4.5V131.5z M220.4,131.5h-4.5v-1.2h4.5V131.5z"/>
		</g>
		<g>
			<rect x="249.9" y="130.2" class="st1" width="2.5" height="1.2"/>
		</g>
	</g>
	<g>
		<g>
			<rect x="239.7" y="184.2" class="st1" width="1.2" height="2.5"/>
		</g>
		<g>
			<path class="st1" d="M240.9,181.8h-1.2V177h1.2V181.8z M240.9,174.5h-1.2v-4.8h1.2V174.5z M240.9,167.3h-1.2v-4.8h1.2V167.3z
				 M240.9,160.1h-1.2v-4.8h1.2V160.1z"/>
		</g>
		<g>
			<polygon class="st1" points="240.9,152.8 239.7,152.8 239.7,149.7 242.8,149.7 242.8,151 240.9,151 			"/>
		</g>
		<g>
			<path class="st1" d="M332.7,151h-5v-1.2h5V151z M325.2,151h-5v-1.2h5V151z M317.8,151h-5v-1.2h5V151z M310.3,151h-5v-1.2h5V151z
				 M302.8,151h-5v-1.2h5V151z M295.3,151h-5v-1.2h5V151z M287.8,151h-5v-1.2h5V151z M280.3,151h-5v-1.2h5V151z M272.8,151h-5v-1.2
				h5V151z M265.3,151h-5v-1.2h5V151z M257.8,151h-5v-1.2h5V151z M250.3,151h-5v-1.2h5V151z"/>
		</g>
		<g>
			<rect x="335.2" y="149.7" class="st1" width="2.5" height="1.2"/>
		</g>
	</g>
	<g>
		<g>
			<path class="st12" d="M208.9,225.3v8.2l14.7-14.7l-14.7-14.7v8.5c-2,0.4-3.9,1-5.7,1.8c-1.5,0.6-2.9,1.4-4.2,2.3
				c-1.3,0.9-2.5,1.8-3.7,2.9c-2.3,2.1-4.1,4.6-5.6,7.2c-1.4,2.6-2.4,5.5-2.8,8.4c-0.4,2.9-0.4,5.8,0.1,8.6c0.5,2.8,1.4,5.4,2.8,7.8
				c1.3,2.4,3.1,4.5,5,6.3c2,1.8,4.2,3.2,6.6,4.2c-2.1-1.5-3.9-3.3-5.3-5.3c-1.4-2-2.5-4.2-3.2-6.5c-0.7-2.3-0.9-4.6-0.9-6.9
				c0.1-2.3,0.6-4.5,1.4-6.5c0.8-2,1.9-3.9,3.3-5.5c1.4-1.6,3-2.9,4.7-3.9c0.9-0.5,1.8-0.9,2.7-1.3c0.9-0.3,1.9-0.6,2.8-0.8
				C207.6,225.5,208.3,225.4,208.9,225.3z"/>
		</g>
		<g>
			<path class="st12" d="M241.7,237.2c-0.5-2.8-1.4-5.4-2.8-7.8c-1.3-2.4-3.1-4.5-5-6.3c-2-1.8-4.2-3.2-6.6-4.2
				c2.1,1.5,3.9,3.3,5.3,5.3c1.4,2,2.5,4.2,3.2,6.5c0.7,2.3,0.9,4.6,0.9,6.9c-0.1,2.3-0.6,4.5-1.4,6.5c-0.8,2-1.9,3.9-3.3,5.5
				c-1.4,1.6-3,2.9-4.7,3.9c-0.9,0.5-1.8,0.9-2.7,1.3c-0.9,0.3-1.9,0.6-2.8,0.8c-0.6,0.1-1.3,0.2-1.9,0.2v-8.2l-14.7,14.7l14.7,14.7
				v-8.5c2-0.4,3.9-1,5.7-1.8c1.5-0.6,2.9-1.4,4.2-2.3c1.3-0.9,2.5-1.8,3.7-2.9c2.3-2.1,4.1-4.6,5.6-7.2c1.4-2.6,2.4-5.5,2.8-8.4
				C242.2,242.9,242.2,240,241.7,237.2z"/>
		</g>
	</g>
</g>
<path class="st18" d="M388.2,292H36.8c-1.2,0-2.2-1-2.2-2.2l0,0c0-1.2,1-2.2,2.2-2.2h351.4c1.2,0,2.2,1,2.2,2.2l0,0
	C390.3,291,389.4,292,388.2,292z"/>
</svg>
