<svg width="301" height="301" viewBox="0 0 301 301" fill="none" xmlns="http://www.w3.org/2000/svg">
<g clip-path="url(#clip0_2_8054)">
<path d="M300.5 0.719482H0.5V300.719H300.5V0.719482Z" fill="white"/>
<path d="M43.8851 60.1135C24.7077 78.346 23.7972 105.301 23.3532 118.456C22.9647 129.945 28.0466 138.253 29.4941 155.344C32.9606 196.258 20.8946 199.471 24.7931 214.756C33.6566 249.508 96.9851 268.258 142.582 269.232C205.269 270.57 272.4 239.121 273.34 209.484C273.892 192.079 251.332 184.207 253.888 162.388C256.324 141.6 278.083 137.811 277.662 120.565C277.224 102.672 253.291 85.9525 231.915 81.202C207.253 75.7225 201.679 89.6575 177.883 86.122C144.34 81.139 143.01 51.61 108.001 43.9465C87.1616 39.385 60.8471 43.9855 43.8836 60.1135H43.8851Z" fill="#EBF2FF"/>
<path d="M278.178 271.209H22.843C22.6255 271.209 22.4305 271.372 22.4185 271.59C22.4065 271.822 22.591 272.013 22.8205 272.013H278.178C278.4 272.013 278.58 271.833 278.58 271.611C278.58 271.389 278.4 271.209 278.178 271.209Z" fill="#514593"/>
<path d="M45.025 222.666C44.923 222.666 44.827 222.606 44.7865 222.505C44.2105 221.107 44.563 215.767 44.9695 209.586C45.4825 201.789 46.123 192.085 44.674 190.537C44.47 190.32 44.236 190.302 44.014 190.548C41.8705 192.901 43.081 212.401 44.02 222.384C44.0335 222.526 43.9285 222.652 43.7875 222.666C43.6495 222.675 43.519 222.574 43.5055 222.433C43.3945 221.245 40.8025 193.309 43.6315 190.201C44.0515 189.739 44.6455 189.753 45.052 190.186C46.654 191.898 46.06 200.908 45.487 209.622C45.1 215.485 44.7355 221.025 45.265 222.312C45.319 222.444 45.256 222.595 45.124 222.649C45.091 222.663 45.058 222.669 45.025 222.669V222.666Z" fill="#4ED066"/>
<path d="M45.8243 222.665C45.8153 222.665 45.8063 222.665 45.7988 222.664C45.6563 222.65 45.5529 222.523 45.5679 222.382C45.5739 222.316 46.2579 215.624 48.3894 208.831C51.2739 199.64 55.2893 194.647 60.3264 193.99C62.3123 193.732 63.4704 193.984 63.8709 194.764C64.8159 196.604 60.9923 200.695 56.9453 205.027C54.1103 208.061 50.5823 211.838 51.2603 212.686C51.4163 212.882 51.5813 212.972 51.7748 212.972C52.6208 212.972 53.9258 211.337 55.1888 209.758C57.1704 207.278 59.2178 204.715 61.0193 205.915C61.3238 206.117 61.4963 206.429 61.5203 206.816C61.7438 210.421 48.2649 222.106 47.6904 222.601C47.5824 222.692 47.4189 222.682 47.3259 222.574C47.2329 222.466 47.2448 222.302 47.3513 222.209C51.2078 218.879 61.1769 209.629 61.0029 206.848C60.9879 206.618 60.9024 206.458 60.7314 206.344C59.3244 205.408 57.3398 207.889 55.5908 210.079C54.1298 211.907 52.8669 213.488 51.7734 213.488C51.4194 213.488 51.1104 213.326 50.8554 213.007C49.9434 211.867 52.4318 209.098 56.5658 204.671C59.9618 201.037 64.1889 196.513 63.4089 194.996C63.1284 194.45 62.0843 194.278 60.3908 194.5C48.8453 196.006 46.1063 222.166 46.0793 222.43C46.0658 222.563 45.9548 222.662 45.8228 222.662L45.8243 222.665Z" fill="#4ED066"/>
<path d="M42.8095 222.906C42.6745 222.906 42.5605 222.801 42.5515 222.664C41.2255 201.262 37.537 197.734 36.811 197.244C36.637 197.125 36.3805 197.001 36.1555 197.076C36.1105 197.091 36.0445 197.125 35.989 197.248C35.599 198.115 36.4735 200.88 37.222 202.878C37.4815 203.448 37.699 203.991 37.8685 204.499C37.912 204.631 37.8445 204.774 37.7155 204.823C37.5865 204.87 37.441 204.811 37.3855 204.684C37.3075 204.499 37.0465 203.884 36.739 203.07C34.249 197.638 27.835 189.618 25.045 188.746C24.733 188.649 24.496 188.656 24.343 188.77C24.0415 188.997 23.881 189.259 23.8525 189.573C23.74 190.813 25.594 192.822 27.943 195.364C28.615 196.092 29.332 196.867 30.0655 197.694C33.757 201.847 38.9785 212.727 40.1905 215.307C40.2775 215.478 40.3615 215.658 40.444 215.85C40.4995 215.98 40.441 216.13 40.312 216.187C40.1845 216.244 40.0315 216.187 39.973 216.06C39.9655 216.045 39.8755 215.848 39.7135 215.506C38.914 213.949 37.9465 213.313 37.243 213.055C36.3775 212.739 35.5975 212.86 35.155 213.081C35.0485 213.555 37.498 216.192 39.8635 218.343C39.967 218.437 39.9775 218.596 39.886 218.701C39.793 218.808 39.6355 218.821 39.5275 218.736C36.982 216.699 35.0575 216.574 34.1845 217.089C33.892 217.26 33.7345 217.504 33.7705 217.725C33.814 217.981 34.1125 218.19 34.5715 218.281C37.198 218.806 40.702 222.082 40.8505 222.222C40.954 222.319 40.96 222.483 40.861 222.588C40.762 222.693 40.6 222.696 40.495 222.598C40.459 222.565 36.9505 219.283 34.4695 218.788C33.7825 218.652 33.3415 218.295 33.2605 217.812C33.187 217.375 33.4405 216.928 33.922 216.645C34.672 216.204 35.941 216.132 37.585 216.894C36.142 215.455 34.561 213.699 34.6585 212.989C34.681 212.824 34.774 212.694 34.921 212.62C35.4595 212.352 36.397 212.197 37.4185 212.571C37.7815 212.703 38.2045 212.923 38.641 213.286C36.592 209.101 32.5915 201.316 29.677 198.037C28.9465 197.215 28.231 196.441 27.5605 195.715C25.03 192.976 23.2015 190.996 23.335 189.526C23.377 189.066 23.611 188.673 24.031 188.358C24.3235 188.139 24.7165 188.104 25.1965 188.254C27.688 189.033 32.716 194.916 35.7595 200.104C35.422 198.835 35.242 197.644 35.5135 197.04C35.6155 196.815 35.779 196.657 35.9875 196.588C36.2215 196.512 36.604 196.486 37.0945 196.818C38.164 197.539 41.755 201.534 43.0615 222.634C43.0705 222.777 42.9625 222.9 42.82 222.909C42.814 222.909 42.8095 222.909 42.8035 222.909L42.8095 222.906Z" fill="#4ED066"/>
<path d="M55.4524 260.903C55.4524 267.04 50.4784 272.012 44.3434 272.012C38.2084 272.012 33.2344 267.038 33.2344 260.903L37.8859 222.409H50.2864L53.0299 242.852L55.4524 260.903Z" fill="#5777FA"/>
<path d="M48.9931 225.508H39.6916C39.5491 225.508 39.4336 225.392 39.4336 225.25C39.4336 225.107 39.5491 224.992 39.6916 224.992H48.9931C49.1356 224.992 49.2511 225.107 49.2511 225.25C49.2511 225.392 49.1356 225.508 48.9931 225.508Z" fill="#435BDB"/>
<path d="M55.4524 260.904C55.4524 267.041 50.4784 272.013 44.3434 272.013C38.2084 272.013 33.2344 267.039 33.2344 260.904C33.2344 260.904 37.9024 269.855 44.3434 269.855C48.4909 269.855 50.9689 266.142 52.2064 263.499C52.8664 262.092 53.1934 260.553 53.1784 258.999L53.0284 242.853L55.4509 260.904H55.4524Z" fill="#435BDB"/>
<path d="M53.9153 95.6209H55.3748C56.0498 95.6209 56.5973 95.0735 56.5973 94.3984V89.8024C56.5973 89.1274 56.0498 88.5799 55.3748 88.5799H53.8763C53.3498 88.5799 52.8878 88.2409 52.7168 87.7444C52.5263 87.1924 52.2998 86.6554 52.0418 86.1379C51.8078 85.6684 51.9083 85.1014 52.2788 84.7309L53.3423 83.6674C53.8193 83.1904 53.8193 82.4149 53.3423 81.9379L50.0918 78.6874C49.6148 78.2104 48.8393 78.2104 48.3623 78.6874L47.2718 79.7779C46.9043 80.1454 46.3418 80.2474 45.8753 80.0179C45.3623 79.7674 44.8298 79.5469 44.2823 79.3624C43.7873 79.1944 43.4498 78.7369 43.4498 78.2149V76.6519C43.4498 75.9769 42.9023 75.4294 42.2273 75.4294H37.6313C36.9563 75.4294 36.4088 75.9769 36.4088 76.6519V78.2284C36.4088 78.7489 36.0728 79.2064 35.5808 79.3744C35.0363 79.5604 34.5083 79.7809 33.9983 80.0314C33.5333 80.2609 32.9723 80.1604 32.6048 79.7929L31.4978 78.6859C31.0208 78.2089 30.2453 78.2089 29.7683 78.6859L26.5178 81.9364C26.0408 82.4134 26.0408 83.1889 26.5178 83.6659L27.6113 84.7594C27.9788 85.1269 28.0793 85.6909 27.8468 86.1574C27.5918 86.6689 27.3698 87.1999 27.1808 87.7459C27.0098 88.2409 26.5508 88.5769 26.0273 88.5769H24.4823C23.8073 88.5769 23.2598 89.1244 23.2598 89.7994V94.3954C23.2598 95.0704 23.8073 95.6179 24.4823 95.6179H25.9868C26.5148 95.6179 26.9768 95.9599 27.1448 96.4609C27.4238 97.292 27.7823 98.0869 28.2098 98.8369L26.5163 100.53C26.0393 101.007 26.0393 101.783 26.5163 102.26L29.7668 105.51C30.2438 105.987 31.0193 105.987 31.4963 105.51L33.1688 103.838C33.9248 104.279 34.7288 104.648 35.5703 104.936C36.0683 105.107 36.4088 105.569 36.4088 106.097V107.546C36.4088 108.221 36.9563 108.768 37.6313 108.768H42.2273C42.9023 108.768 43.4498 108.221 43.4498 107.546V106.112C43.4498 105.584 43.7918 105.12 44.2913 104.949C45.1358 104.663 45.9443 104.294 46.7048 103.854L48.3623 105.512C48.8393 105.989 49.6148 105.989 50.0918 105.512L53.3423 102.261C53.8193 101.784 53.8193 101.009 53.3423 100.532L51.6758 98.8654C52.1093 98.1094 52.4723 97.3054 52.7543 96.4654C52.9238 95.9629 53.3873 95.6194 53.9183 95.6194L53.9153 95.6209ZM46.4558 92.1574C46.4558 92.6209 46.4078 93.0724 46.3148 93.5089C46.1543 94.2709 45.8603 94.9834 45.4583 95.6209C44.9453 96.4354 44.2568 97.1284 43.4453 97.6474C42.8153 98.0494 42.1118 98.3464 41.3573 98.5129C40.9028 98.6134 40.4288 98.6674 39.9443 98.6674C39.4598 98.6674 38.9618 98.6119 38.4968 98.5054C37.7393 98.3329 37.0328 98.0299 36.4013 97.6189C35.6078 97.1029 34.9343 96.4204 34.4318 95.6194C34.0238 94.9714 33.7268 94.2484 33.5678 93.4729C33.4808 93.0469 33.4343 92.6074 33.4343 92.1559C33.4343 91.6714 33.4883 91.1989 33.5888 90.7429C33.7628 89.9569 34.0778 89.2264 34.5068 88.5754C35.0018 87.8254 35.6483 87.1834 36.4013 86.6929C37.0598 86.2654 37.7993 85.9534 38.5928 85.7854C39.0293 85.6924 39.4808 85.6444 39.9443 85.6444C40.4078 85.6444 40.8353 85.6909 41.2613 85.7779C42.0503 85.9399 42.7883 86.2444 43.4453 86.6644C44.2178 87.1579 44.8778 87.8089 45.3833 88.5739C45.8063 89.2144 46.1183 89.9344 46.2938 90.7069C46.3988 91.1719 46.4558 91.6564 46.4558 92.1544V92.1574Z" fill="#5777FA"/>
<path d="M196.167 217.188L197.078 216.807C197.499 216.63 197.697 216.146 197.522 215.724L196.32 212.856C196.143 212.435 195.659 212.237 195.237 212.412L194.303 212.804C193.974 212.942 193.598 212.85 193.361 212.586C193.097 212.291 192.816 212.016 192.519 211.761C192.251 211.53 192.165 211.149 192.299 210.822L192.684 209.882C192.857 209.459 192.654 208.976 192.231 208.803L189.354 207.626C188.931 207.453 188.448 207.656 188.276 208.079L187.881 209.045C187.748 209.37 187.424 209.58 187.073 209.559C186.687 209.537 186.297 209.538 185.907 209.567C185.555 209.592 185.225 209.394 185.088 209.069L184.68 208.094C184.503 207.672 184.019 207.474 183.597 207.65L180.729 208.851C180.308 209.028 180.11 209.513 180.285 209.934L180.698 210.918C180.834 211.244 180.744 211.616 180.48 211.85C180.189 212.108 179.918 212.384 179.664 212.673C179.433 212.937 179.058 213.021 178.733 212.889L177.753 212.489C177.33 212.316 176.847 212.519 176.675 212.942L175.497 215.819C175.325 216.242 175.527 216.725 175.95 216.897L176.919 217.293C177.245 217.427 177.455 217.752 177.432 218.103C177.407 218.489 177.407 218.879 177.432 219.269C177.455 219.623 177.257 219.953 176.93 220.089L175.965 220.493C175.544 220.67 175.346 221.154 175.521 221.576L176.723 224.444C176.9 224.865 177.384 225.063 177.806 224.888L178.745 224.495C179.075 224.357 179.453 224.45 179.688 224.718C180.08 225.164 180.51 225.566 180.974 225.921L180.36 227.421C180.188 227.844 180.39 228.327 180.812 228.5L183.689 229.677C184.112 229.85 184.595 229.647 184.767 229.224L185.373 227.744C185.961 227.82 186.558 227.841 187.158 227.801C187.514 227.777 187.847 227.976 187.985 228.306L188.363 229.209C188.54 229.631 189.024 229.829 189.446 229.653L192.314 228.452C192.735 228.275 192.933 227.79 192.758 227.369L192.383 226.473C192.245 226.143 192.336 225.765 192.605 225.528C193.056 225.128 193.464 224.688 193.824 224.214L195.291 224.814C195.714 224.987 196.197 224.784 196.37 224.361L197.547 221.483C197.72 221.06 197.517 220.577 197.094 220.404L195.618 219.8C195.692 219.215 195.707 218.618 195.665 218.021C195.639 217.664 195.839 217.328 196.169 217.188H196.167ZM190.608 216.977C190.73 217.266 190.817 217.56 190.874 217.857C190.973 218.375 190.976 218.895 190.892 219.398C190.785 220.04 190.536 220.653 190.166 221.189C189.878 221.604 189.516 221.975 189.09 222.275C188.832 222.456 188.552 222.614 188.249 222.74C187.938 222.87 187.622 222.962 187.304 223.017C186.786 223.109 186.266 223.103 185.765 223.013C185.135 222.899 184.536 222.648 184.013 222.281C183.588 221.984 183.215 221.609 182.913 221.168C182.748 220.925 182.604 220.662 182.486 220.382C182.358 220.079 182.268 219.77 182.213 219.461C182.115 218.925 182.121 218.387 182.219 217.869C182.331 217.272 182.567 216.702 182.909 216.2C183.207 215.76 183.587 215.373 184.038 215.061C184.286 214.89 184.556 214.742 184.844 214.62C185.126 214.502 185.412 214.416 185.7 214.359C186.236 214.254 186.774 214.251 187.295 214.341C187.905 214.448 188.489 214.68 189.003 215.025C189.434 215.315 189.818 215.682 190.128 216.117C190.316 216.38 190.478 216.668 190.607 216.978L190.608 216.977Z" fill="#7A93FF"/>
<path d="M198.906 93.9961L199.963 93.9811C200.077 93.9796 200.167 93.8866 200.166 93.7726C200.164 93.6586 200.07 93.5686 199.957 93.5701L198.9 93.5851C198.786 93.5866 198.696 93.6796 198.697 93.7936C198.699 93.9076 198.792 93.9976 198.906 93.9961Z" fill="#514593"/>
<path d="M201.621 93.9552L202.678 93.9402C202.792 93.9387 202.882 93.8457 202.881 93.7317C202.879 93.6177 202.785 93.5277 202.672 93.5292L201.615 93.5442C201.501 93.5457 201.411 93.6402 201.412 93.7527C201.414 93.8667 201.507 93.9567 201.621 93.9552Z" fill="#514593"/>
<path d="M200.78 93.1392C200.894 93.1377 200.984 93.0432 200.983 92.9307L200.968 91.8732C200.966 91.7592 200.873 91.6692 200.759 91.6707C200.645 91.6722 200.555 91.7667 200.557 91.8792L200.572 92.9367C200.573 93.0507 200.666 93.1407 200.78 93.1392Z" fill="#514593"/>
<path d="M200.819 95.854C200.933 95.8525 201.023 95.7595 201.022 95.6455L201.007 94.588C201.005 94.474 200.911 94.384 200.798 94.3855C200.684 94.387 200.594 94.48 200.596 94.594L200.611 95.6515C200.612 95.7655 200.707 95.8555 200.819 95.854Z" fill="#514593"/>
<path d="M71.2279 116.304L72.2854 116.289C72.3994 116.287 72.4894 116.193 72.4879 116.08C72.4864 115.966 72.3934 115.876 72.2794 115.878L71.2219 115.893C71.1079 115.894 71.0179 115.987 71.0194 116.101C71.0209 116.215 71.1139 116.305 71.2279 116.304Z" fill="#514593"/>
<path d="M73.9429 116.263L75.0004 116.248C75.1144 116.246 75.2044 116.153 75.2029 116.039C75.2014 115.925 75.1084 115.835 74.9944 115.837L73.9369 115.852C73.8229 115.853 73.7329 115.946 73.7344 116.06C73.7359 116.174 73.8304 116.264 73.9429 116.263Z" fill="#514593"/>
<path d="M73.1023 115.447C73.2163 115.445 73.3063 115.351 73.3048 115.238L73.2898 114.181C73.2883 114.067 73.1953 113.977 73.0813 113.978C72.9673 113.98 72.8773 114.073 72.8788 114.187L72.8938 115.244C72.8953 115.358 72.9883 115.448 73.1023 115.447Z" fill="#514593"/>
<path d="M73.1413 118.162C73.2553 118.16 73.3453 118.066 73.3438 117.953L73.3288 116.896C73.3273 116.782 73.2344 116.692 73.1204 116.693C73.0064 116.695 72.9163 116.788 72.9178 116.902L72.9329 117.959C72.9344 118.073 73.0273 118.163 73.1413 118.162Z" fill="#514593"/>
<path d="M105.197 53.1162L106.254 53.1012C106.368 53.0997 106.458 53.0067 106.457 52.8927C106.455 52.7787 106.362 52.6887 106.248 52.6902L105.191 52.7052C105.077 52.7067 104.987 52.7997 104.988 52.9137C104.99 53.0277 105.083 53.1177 105.197 53.1162Z" fill="#514593"/>
<path d="M107.912 53.0753L108.969 53.0603C109.083 53.0588 109.173 52.9658 109.172 52.8518C109.17 52.7378 109.077 52.6478 108.963 52.6493L107.906 52.6643C107.792 52.6658 107.702 52.7603 107.703 52.8728C107.705 52.9868 107.798 53.0768 107.912 53.0753Z" fill="#514593"/>
<path d="M107.071 52.2593C107.185 52.2578 107.275 52.1648 107.274 52.0508L107.259 50.9933C107.257 50.8793 107.164 50.7893 107.05 50.7908C106.936 50.7923 106.846 50.8868 106.848 50.9993L106.863 52.0568C106.864 52.1708 106.959 52.2608 107.071 52.2593Z" fill="#514593"/>
<path d="M107.11 54.9741C107.224 54.9726 107.314 54.8796 107.313 54.7656L107.298 53.7081C107.296 53.5941 107.203 53.5041 107.089 53.5056C106.975 53.5071 106.885 53.6001 106.887 53.7141L106.902 54.7716C106.903 54.8856 106.996 54.9756 107.11 54.9741Z" fill="#514593"/>
<path d="M200.997 187.423L202.055 187.408C202.169 187.406 202.259 187.313 202.257 187.199C202.256 187.085 202.163 186.995 202.049 186.997L200.991 187.012C200.877 187.013 200.787 187.106 200.789 187.22C200.79 187.334 200.885 187.424 200.997 187.423Z" fill="#514593"/>
<path d="M203.712 187.382L204.77 187.367C204.884 187.365 204.974 187.272 204.972 187.158C204.971 187.044 204.878 186.954 204.764 186.956L203.706 186.971C203.592 186.972 203.502 187.067 203.504 187.179C203.505 187.293 203.6 187.383 203.712 187.382Z" fill="#514593"/>
<path d="M202.872 186.566C202.986 186.564 203.076 186.471 203.074 186.357L203.059 185.3C203.058 185.186 202.963 185.096 202.851 185.097C202.737 185.099 202.647 185.193 202.648 185.306L202.663 186.363C202.665 186.477 202.759 186.567 202.872 186.566Z" fill="#514593"/>
<path d="M202.911 189.281C203.025 189.279 203.115 189.186 203.113 189.072L203.098 188.015C203.097 187.901 203.004 187.811 202.89 187.812C202.776 187.814 202.686 187.907 202.687 188.021L202.702 189.078C202.704 189.192 202.797 189.282 202.911 189.281Z" fill="#514593"/>
<path d="M127.869 240.951L128.926 240.936C129.04 240.935 129.13 240.84 129.129 240.728C129.127 240.614 129.034 240.524 128.92 240.525L127.863 240.54C127.749 240.542 127.659 240.636 127.66 240.749C127.662 240.863 127.755 240.953 127.869 240.951Z" fill="#514593"/>
<path d="M130.584 240.91L131.641 240.895C131.755 240.894 131.845 240.799 131.844 240.687C131.842 240.573 131.749 240.483 131.635 240.484L130.578 240.499C130.464 240.501 130.374 240.594 130.375 240.708C130.377 240.822 130.47 240.912 130.584 240.91Z" fill="#514593"/>
<path d="M129.743 240.094C129.857 240.093 129.947 239.998 129.945 239.886L129.93 238.828C129.929 238.714 129.836 238.624 129.722 238.626C129.608 238.627 129.518 238.72 129.519 238.834L129.534 239.892C129.536 240.006 129.629 240.096 129.743 240.094Z" fill="#514593"/>
<path d="M129.782 242.809C129.896 242.808 129.986 242.713 129.984 242.601L129.969 241.543C129.968 241.429 129.875 241.339 129.761 241.341C129.647 241.342 129.557 241.437 129.558 241.549L129.573 242.607C129.575 242.721 129.668 242.811 129.782 242.809Z" fill="#514593"/>
<path d="M34.4213 206.283L35.4788 206.268C35.5928 206.267 35.6828 206.174 35.6813 206.06C35.6798 205.946 35.5868 205.856 35.4728 205.857L34.4153 205.872C34.3013 205.874 34.2113 205.967 34.2128 206.081C34.2143 206.195 34.3073 206.285 34.4213 206.283Z" fill="#514593"/>
<path d="M37.1363 206.242L38.1938 206.227C38.3078 206.226 38.3978 206.133 38.3963 206.019C38.3948 205.905 38.3018 205.815 38.1878 205.816L37.1303 205.831C37.0163 205.833 36.9263 205.926 36.9278 206.04C36.9293 206.154 37.0223 206.244 37.1363 206.242Z" fill="#514593"/>
<path d="M36.2956 205.426C36.4096 205.425 36.4996 205.33 36.4981 205.218L36.4831 204.16C36.4816 204.046 36.3886 203.956 36.2746 203.958C36.1606 203.959 36.0706 204.052 36.0721 204.166L36.0871 205.224C36.0886 205.338 36.1816 205.428 36.2956 205.426Z" fill="#514593"/>
<path d="M36.3347 208.14C36.4487 208.139 36.5387 208.044 36.5372 207.932L36.5222 206.874C36.5207 206.76 36.4277 206.67 36.3137 206.672C36.1997 206.673 36.1097 206.768 36.1112 206.88L36.1262 207.938C36.1277 208.052 36.2222 208.142 36.3347 208.14Z" fill="#514593"/>
<path d="M275.346 99.3806H262.191C260.866 99.3806 259.791 100.455 259.791 101.781V114.936C259.791 116.261 260.866 117.336 262.191 117.336H275.346C276.672 117.336 277.746 116.261 277.746 114.936V101.781C277.746 100.455 276.672 99.3806 275.346 99.3806Z" fill="#2E234F"/>
<path d="M268.641 103.65C268.683 103.65 268.725 103.644 268.768 103.644C271.372 103.644 273.483 105.754 273.483 108.358C273.483 108.832 273.411 109.288 273.282 109.72L275.563 110.077C275.563 110.077 275.776 109.144 275.776 108.358C275.776 104.488 272.638 101.35 268.768 101.35C268.726 101.35 268.683 101.353 268.641 101.353V103.65Z" fill="#5777FA"/>
<path d="M275.555 110.076L273.281 109.72L275.555 110.076Z" fill="#514592"/>
<path d="M272.378 111.385C271.514 112.416 270.218 113.071 268.768 113.071C266.164 113.071 264.053 110.961 264.053 108.357C264.053 106.434 265.205 104.782 266.857 104.05V101.616C263.915 102.448 261.76 105.148 261.76 108.357C261.76 112.227 264.898 115.365 268.768 115.365C271.396 115.365 273.683 113.916 274.882 111.775L272.377 111.385H272.378Z" fill="white"/>
<path d="M77.549 56.4236H61.0445C59.719 56.4236 58.6445 57.4981 58.6445 58.8236V66.6431C58.6445 67.9686 59.719 69.0431 61.0445 69.0431H77.549C78.8745 69.0431 79.949 67.9686 79.949 66.6431V58.8236C79.949 57.4981 78.8745 56.4236 77.549 56.4236Z" fill="#2E234F"/>
<path d="M66.7497 61.5348L63.3762 63.0168L66.7497 64.4988V65.6448L61.9902 63.4908V62.5668L66.7497 60.4128V61.5378V61.5348Z" fill="white"/>
<path d="M69.9021 58.8757H71.1006L68.6946 66.5887H67.4961L69.9021 58.8757Z" fill="white"/>
<path d="M71.8477 61.5454V60.4099L76.6072 62.5639V63.4879L71.8477 65.6419V64.5079L75.2107 63.0469L71.8477 61.5439V61.5454Z" fill="white"/>
<path d="M107.091 179.469C108.045 180.993 110.232 183.054 111.183 183.2C111.714 183.281 114.783 184.679 117.396 185.898C118.109 186.231 117.752 187.31 116.982 187.152C116.015 186.954 115.101 186.698 114.521 186.374C114.278 186.546 115.208 187.697 115.992 188.285C116.4 188.591 118.272 190.164 119.975 191.603C120.509 192.054 119.991 192.906 119.343 192.638L114.138 188.954L117.96 194.327C118.361 194.889 117.689 195.59 117.11 195.213L112.977 190.242L115.193 195.609C115.473 196.287 114.612 196.856 114.099 196.331L111.131 190.773L111.728 195.24C111.801 195.791 111.011 195.974 110.84 195.446C110.835 195.431 110.829 195.414 110.825 195.399C110.133 193.245 109.712 190.896 109.559 190.752C109.296 190.505 107.84 188.858 107.07 186.651C106.346 184.574 104.265 182.841 103.728 182.268C103.181 181.683 106.191 178.032 107.093 179.471L107.091 179.469Z" fill="#FFC5CD"/>
<path d="M109.708 185.033C109.708 185.033 109.717 185.029 109.721 185.026C109.795 184.991 109.882 185.023 109.916 185.096C110.338 185.993 110.903 186.562 111.598 186.787C112.601 187.111 113.54 186.599 113.549 186.593C113.62 186.554 113.71 186.58 113.749 186.65C113.788 186.721 113.761 186.812 113.692 186.85C113.648 186.874 112.631 187.429 111.506 187.066C110.732 186.815 110.107 186.196 109.649 185.221C109.616 185.152 109.642 185.071 109.706 185.033H109.708Z" fill="#D6798E"/>
<path d="M78.4081 141.56C78.8761 143.954 84.6616 164.26 85.4146 166.157C85.9006 167.384 92.6431 174.512 97.7236 179.327C100.517 181.975 102.809 183.923 103.284 183.808C103.472 183.763 103.713 183.665 103.992 183.529C105.708 182.674 108.785 180.284 108.668 179.15C108.533 177.83 95.1646 161.828 94.6561 160.831C94.1491 159.833 92.0281 144.322 91.2751 138.763C90.6151 133.889 85.6321 131.558 82.6501 130.075C79.4641 128.489 78.4171 134.131 78.2701 138.19C78.2671 138.287 78.2641 138.383 78.2611 138.479C78.2266 139.825 78.2926 140.965 78.4081 141.56Z" fill="#CDDEF7"/>
<path d="M78.4081 141.56C78.8761 143.954 84.6616 164.259 85.4146 166.157C85.9006 167.384 92.6431 174.512 97.7236 179.327C94.1341 174.909 92.5576 173.402 91.1266 168.411C89.6956 163.421 86.5426 138.189 86.5426 138.189H78.2701C78.2671 138.287 78.2641 138.383 78.2611 138.479C78.2266 139.824 78.2926 140.964 78.4081 141.56Z" fill="#A8C9EF"/>
<path d="M97.2887 164.651H112.088C113.352 164.651 114.402 163.678 114.498 162.418L116.292 138.848C116.399 137.444 115.289 136.247 113.882 136.247H99.0827C97.8182 136.247 96.7682 137.221 96.6722 138.481L94.8782 162.05C94.7717 163.454 95.8817 164.651 97.2887 164.651Z" fill="#2E234F"/>
<path d="M104.033 150.126C104.033 150.983 104.728 151.677 105.584 151.677C106.441 151.677 107.135 150.983 107.135 150.126H105.584V148.575C104.728 148.575 104.033 149.27 104.033 150.126Z" fill="#EBF2FF"/>
<path d="M85.8689 261.421L89.9924 264.103L87.0299 267.372L79.6289 264.172C79.6289 264.172 80.5499 262.704 80.5709 262.143C80.5919 261.582 85.8689 261.42 85.8689 261.42V261.421Z" fill="#FFC5CD"/>
<path d="M89.7228 248.667L87.4728 257.448L86.8578 259.848L86.3688 261.748L85.9503 263.388L80.2578 263.044L80.9343 258.576L81.2448 256.53L82.5663 247.813L89.7228 248.667Z" fill="#FFC5CD"/>
<path d="M78.1271 267.201L98.2301 269.34C97.4276 267.545 94.6346 266.669 93.2381 266.172C91.4246 265.526 89.0126 262.155 89.0126 262.155C87.6176 262.463 87.1661 264.687 87.1661 264.687C87.1661 264.687 86.7551 265.097 83.9696 264.845C81.1841 264.593 80.9531 263.106 80.0141 262.977C79.4126 262.893 78.1286 267.201 78.1286 267.201H78.1271Z" fill="#5777FA"/>
<path d="M78.1256 267.211L77.9771 268.608C77.9516 268.851 78.1286 269.07 78.3716 269.095L98.3276 271.207C98.5315 270.492 98.4701 269.874 98.2286 269.338L78.1256 267.21V267.211Z" fill="#2E234F"/>
<path d="M91.6957 267.304C91.7602 267.312 91.8277 267.291 91.8787 267.241L93.2797 265.891C93.3712 265.804 93.3727 265.659 93.2857 265.569C93.1987 265.477 93.0532 265.476 92.9632 265.563L91.5622 266.913C91.4707 267 91.4692 267.145 91.5562 267.235C91.5952 267.276 91.6447 267.298 91.6957 267.304Z" fill="#2E234F"/>
<path d="M90.1937 266.487C90.2582 266.495 90.3257 266.474 90.3767 266.424L91.7777 265.074C91.8692 264.987 91.8707 264.842 91.7837 264.752C91.6967 264.66 91.5512 264.659 91.4612 264.746L90.0602 266.096C89.9687 266.183 89.9672 266.328 90.0542 266.418C90.0932 266.459 90.1427 266.481 90.1937 266.487Z" fill="#2E234F"/>
<path d="M87.4727 257.448L86.8577 259.848C86.2532 259.819 85.3397 259.723 84.0062 259.474C82.5002 259.192 81.5327 258.852 80.9357 258.576L81.2462 256.531L87.4742 257.448H87.4727Z" fill="#D6798E"/>
<path d="M62.4555 262.788L66.8385 265.021L64.2375 268.584L56.541 266.181C56.541 266.181 57.303 264.624 57.264 264.064C57.225 263.505 62.457 262.788 62.457 262.788H62.4555Z" fill="#FFC5CD"/>
<path d="M67.5164 249.732L64.6454 258.754L63.9734 260.863L63.2354 263.185V263.187L62.7419 264.735L57.0449 264.993V264.991L58.0319 259.42L58.3994 257.358L59.8109 249.384L67.5164 249.732Z" fill="#FFC5CD"/>
<path d="M55.3652 269.349L75.5807 269.359C74.5937 267.658 71.7242 267.082 70.2827 266.734C68.4107 266.283 65.6582 263.184 65.6582 263.184C64.3037 263.635 64.0877 265.896 64.0877 265.896C64.0877 265.896 63.7217 266.346 60.9257 266.389C58.1297 266.433 57.7427 264.978 56.7962 264.949C56.1887 264.93 55.3652 269.349 55.3652 269.349Z" fill="#5777FA"/>
<path d="M55.3652 269.361V270.765C55.3652 271.009 55.5647 271.209 55.8092 271.209H75.8762C76.0037 270.475 75.8762 269.868 75.5807 269.361H55.3652Z" fill="#2E234F"/>
<path d="M68.8697 268.024C68.9342 268.024 68.9987 267.997 69.0437 267.943L70.2947 266.454C70.3757 266.358 70.3637 266.214 70.2662 266.133C70.1702 266.052 70.0262 266.064 69.9452 266.161L68.6942 267.651C68.6132 267.747 68.6252 267.891 68.7227 267.972C68.7662 268.008 68.8172 268.026 68.8697 268.026V268.024Z" fill="#2E234F"/>
<path d="M67.2896 267.37C67.3541 267.37 67.4186 267.343 67.4636 267.289L68.7146 265.799C68.7956 265.703 68.7836 265.559 68.6861 265.478C68.5901 265.397 68.4461 265.409 68.3651 265.507L67.1141 266.996C67.0331 267.092 67.0451 267.236 67.1426 267.317C67.1846 267.353 67.2371 267.371 67.2896 267.371V267.37Z" fill="#2E234F"/>
<path d="M64.6452 258.754L63.9732 260.863C63.3342 260.873 62.2377 260.806 60.7722 260.405C59.4987 260.056 58.5987 259.69 58.0332 259.42L58.3992 257.357L64.6467 258.754H64.6452Z" fill="#D6798E"/>
<path d="M98.2572 226.362C95.8557 237.012 90.9673 258.186 89.9743 258.588C88.6483 259.125 79.1622 257.701 78.8727 256.266C78.7977 255.9 78.9507 253.462 79.2177 250.038C79.9962 240.06 81.7543 221.694 81.7543 221.694L75.7032 208.759L62.2812 180.066L86.2063 175.89L97.8418 214.557C98.9953 218.391 99.1392 222.457 98.2587 226.363L98.2572 226.362Z" fill="#514593"/>
<path d="M79.2197 250.038C79.9982 240.06 81.7562 221.694 81.7562 221.694L75.7052 208.759L77.7257 207.325C77.7257 207.325 84.9002 219.751 84.8117 221.545C84.7292 223.186 82.9502 242.529 79.2197 250.039V250.038Z" fill="#413991"/>
<path d="M77.2847 225.577C77.2847 225.577 67.9367 259.105 66.5882 259.584C65.2397 260.062 55.8242 258.225 55.5977 256.779C55.3727 255.331 61.3712 224.578 61.6772 222.873C61.7567 222.43 61.2692 219.391 60.5042 215.13C60.3557 214.308 60.1967 213.439 60.0317 212.535C57.7307 200.055 53.8457 180.783 53.8457 180.783L76.1987 177.225L78.2477 218.052C78.3752 220.597 78.0497 223.144 77.2847 225.576V225.577Z" fill="#514593"/>
<path d="M76.7656 190.675C76.8031 190.672 76.8406 190.656 76.8691 190.624L77.7631 189.622C78.5821 188.704 79.0201 187.522 78.9976 186.292L78.8896 180.322C78.8896 180.238 78.8191 180.171 78.7351 180.174C78.6511 180.177 78.5836 180.244 78.5866 180.328L78.6946 186.298C78.7156 187.452 78.3046 188.56 77.5381 189.42L76.6441 190.422C76.5886 190.485 76.5931 190.581 76.6561 190.636C76.6876 190.665 76.7281 190.677 76.7671 190.674L76.7656 190.675Z" fill="#2E234F"/>
<path d="M77.8646 213.286C77.9471 213.28 78.0101 213.21 78.0056 213.127L76.6001 184.212C76.5956 184.128 76.5251 184.063 76.4411 184.068C76.3586 184.071 76.2926 184.143 76.2971 184.227L77.7026 213.142C77.7071 213.226 77.7776 213.291 77.8616 213.286C77.8616 213.286 77.8631 213.286 77.8646 213.286Z" fill="#2E234F"/>
<path d="M72.7981 128.054C65.9791 127.42 59.6176 131.195 58.0276 133.304C56.4376 135.413 53.5141 142.171 52.8421 150.173C52.2091 157.703 51.3391 180.892 52.0381 182.959C52.7371 185.026 70.6486 183.512 73.9951 183.02C77.3416 182.528 87.2851 178.616 88.9591 177.224C90.6331 175.834 83.7916 164.647 84.3496 158.909C84.9601 152.626 86.1256 136.868 84.0391 132.806C82.9891 130.763 78.9721 128.629 72.7996 128.053L72.7981 128.054Z" fill="#5777FA"/>
<path d="M63.334 119.593C64.7545 122.053 67.4665 123.145 69.3925 122.033C71.3185 120.922 71.7295 118.025 70.309 115.567C68.8885 113.107 66.1765 112.015 64.2505 113.126C62.3245 114.238 61.9135 117.134 63.334 119.593Z" fill="#2E234F"/>
<path d="M82.6218 111.489C83.6446 109.625 82.963 107.285 81.0995 106.263C79.236 105.24 76.8962 105.921 75.8734 107.785C74.8506 109.648 75.5322 111.988 77.3957 113.011C79.2592 114.034 81.599 113.352 82.6218 111.489Z" fill="#2E234F"/>
<path d="M67.6312 128.65C67.8022 130.852 72.2617 135.199 74.3287 134.465C76.3927 133.732 76.8922 131.869 76.4962 130.343C76.4662 130.226 76.4422 130.088 76.4227 129.931C76.2097 128.072 76.8352 123.793 76.8352 123.793C76.8352 123.793 75.9037 122.687 74.6497 121.321C72.2542 118.708 68.4427 114.923 67.9612 116.294C67.2262 118.384 67.4632 126.446 67.6327 128.648L67.6312 128.65Z" fill="#FFC5CD"/>
<path d="M69.664 123.467C69.664 123.467 71.4445 128.781 76.4245 129.93C76.2115 128.072 76.837 123.792 76.837 123.792C76.837 123.792 75.9055 122.687 74.6515 121.32L69.6655 123.467H69.664Z" fill="#D6798E"/>
<path d="M67.5524 121.124C68.7029 123.437 75.5039 127.952 77.5679 127.574C79.6304 127.196 81.6359 122.778 81.9554 121.76C82.2764 120.743 81.9239 114.552 81.9554 113.448C81.9554 113.436 81.9554 113.423 81.9569 113.411C81.9629 113.157 81.9629 112.911 81.9569 112.67C81.9104 110.543 81.4199 108.915 80.9249 107.801C80.4239 106.674 79.3214 105.93 78.0899 105.893C71.0879 105.681 68.5544 108.807 66.9854 111.77C65.2904 114.971 67.5524 121.122 67.5524 121.122V121.124Z" fill="#FFC5CD"/>
<path d="M74.7793 116.564C74.7793 117.297 75.0568 117.891 75.3988 117.891C75.7408 117.891 76.0183 117.297 76.0183 116.564C76.0183 115.83 75.7408 115.236 75.3988 115.236C75.0568 115.236 74.7793 115.83 74.7793 116.564Z" fill="#2E234F"/>
<path d="M81.0781 116.549C81.0781 117.191 81.3361 117.713 81.6556 117.713C81.9751 117.713 82.2331 117.192 82.2331 116.549C82.2331 115.905 81.9751 115.385 81.6556 115.385C81.3361 115.385 81.0781 115.905 81.0781 116.549Z" fill="#2E234F"/>
<path d="M73.6215 113.917C73.5675 114.004 73.659 114.109 73.752 114.065C74.1195 113.897 74.76 113.633 75.1875 113.621C75.816 113.602 76.407 113.708 76.4745 113.582C76.542 113.456 76.2225 112.789 75.1005 112.895C74.3325 112.969 73.8495 113.554 73.6215 113.917Z" fill="#2E234F"/>
<path d="M80.7418 113.633C80.8318 113.739 81.3568 113.526 81.9553 113.411C81.9613 113.157 81.9613 112.911 81.9553 112.67C81.9508 112.67 81.9448 112.671 81.9403 112.671C80.8213 112.803 80.6503 113.525 80.7418 113.633Z" fill="#2E234F"/>
<path d="M80.403 121.185C80.646 121.185 80.8575 121.122 80.9955 120.957C81.357 120.519 80.82 118.682 80.082 116.322C79.8945 115.725 79.734 115.211 79.671 114.938C79.6515 114.855 79.5705 114.806 79.488 114.824C79.4055 114.843 79.356 114.924 79.374 115.007C79.44 115.29 79.6035 115.811 79.791 116.412C80.199 117.713 81.0465 120.417 80.7615 120.762C80.475 121.109 79.314 120.627 78.7965 120.339C78.723 120.299 78.63 120.324 78.5895 120.398C78.549 120.471 78.5745 120.564 78.648 120.605C78.7845 120.681 79.716 121.185 80.403 121.185Z" fill="#D6798E"/>
<path d="M76.7967 123.75C76.0887 123.578 75.5562 123.173 75.2172 122.547C74.8422 121.854 74.8437 121.145 74.8437 121.115C74.8437 121.067 74.8662 121.023 74.9052 120.995C74.9427 120.966 74.9922 120.957 75.0372 120.971L78.8697 122.112C78.9102 122.124 78.9447 122.154 78.9627 122.192C78.9807 122.231 78.9822 122.276 78.9657 122.315C78.9657 122.315 78.9522 122.349 78.9237 122.4C78.8157 122.616 78.5097 123.153 78.0237 123.495C77.7417 123.693 77.4477 123.792 77.1447 123.792C77.0292 123.792 76.9137 123.777 76.7967 123.749V123.75ZM75.1602 121.325C75.1857 121.569 75.2622 121.994 75.4842 122.403C75.7812 122.951 76.2462 123.305 76.8687 123.455C77.2062 123.537 77.5362 123.467 77.8497 123.246C78.2277 122.981 78.4902 122.562 78.6072 122.351L75.1602 121.325Z" fill="#EA5F61"/>
<path d="M74.9961 121.116C74.9961 121.116 74.9901 121.808 75.3516 122.475C75.6096 122.951 76.0596 123.414 76.8336 123.603C77.2656 123.708 77.6376 123.584 77.9391 123.372C78.3981 123.05 78.6936 122.528 78.7911 122.334C78.8166 122.288 78.8271 122.259 78.8271 122.259L75.0216 121.127L74.9961 121.119V121.116Z" fill="#911E26"/>
<path d="M75.021 121.124C75.408 121.449 76.5 122.316 77.2905 122.523C77.9565 122.697 78.507 122.486 78.789 122.333C78.8145 122.286 78.825 122.258 78.825 122.258L75.0195 121.125L75.021 121.124Z" fill="white"/>
<path d="M75.3515 122.476C75.6095 122.951 76.0595 123.415 76.8335 123.604C77.2655 123.709 77.6375 123.584 77.939 123.373C77.648 123.124 77.1545 122.752 76.6445 122.621C76.205 122.509 75.707 122.479 75.3515 122.477V122.476Z" fill="#CB4B51"/>
<path d="M84.3221 107.624C85.2855 104.529 83.5574 101.239 80.4623 100.275C77.3671 99.3117 74.077 101.04 73.1136 104.135C72.1501 107.23 73.8782 110.52 76.9734 111.484C80.0685 112.447 83.3587 110.719 84.3221 107.624Z" fill="#2E234F"/>
<path d="M72.2772 112.514C74.7736 111.867 76.2728 109.319 75.6258 106.823C74.9788 104.326 72.4306 102.827 69.9342 103.474C67.4378 104.121 65.9385 106.669 66.5855 109.166C67.2325 111.662 69.7808 113.161 72.2772 112.514Z" fill="#2E234F"/>
<path d="M76.0087 106.789C77.3435 104.655 76.6959 101.843 74.5623 100.509C72.4286 99.1738 69.6169 99.8214 68.2821 101.955C66.9473 104.089 67.5949 106.9 69.7285 108.235C71.8622 109.57 74.6739 108.922 76.0087 106.789Z" fill="#2E234F"/>
<path d="M69.0511 107.733C69.2659 105.942 67.9884 104.316 66.1978 104.102C64.4071 103.887 62.7814 105.164 62.5666 106.955C62.3518 108.746 63.6293 110.371 65.4199 110.586C67.2106 110.801 68.8363 109.523 69.0511 107.733Z" fill="#2E234F"/>
<path d="M65.9662 105.195C66.4177 106.09 67.5097 106.452 68.4067 106C69.3022 105.549 69.6637 104.457 69.2122 103.56C68.7607 102.664 67.6687 102.303 66.7717 102.754C65.8747 103.206 65.5147 104.298 65.9662 105.195Z" fill="#2E234F"/>
<path d="M62.7712 115.21C64.6852 116.884 67.2982 117.027 68.6092 115.528C69.9202 114.03 69.4312 111.459 67.5187 109.785C65.6047 108.111 62.9917 107.968 61.6807 109.467C60.3697 110.965 60.8587 113.536 62.7712 115.21Z" fill="#2E234F"/>
<path d="M65.8113 114.538C64.5348 115.306 65.1378 118.296 66.8838 119.182C67.3878 119.439 68.7003 117.439 68.4153 116.287C68.1303 115.135 67.3218 113.631 65.8113 114.538Z" fill="#FFC5CD"/>
<path d="M69.1487 112.224C69.1487 112.224 71.8292 116.005 68.3207 117.579C68.3207 117.579 68.5067 115.612 67.7402 114.819L69.1487 112.224Z" fill="#2E234F"/>
<path d="M67.737 116.908C67.737 116.908 67.7505 116.908 67.7565 116.908C67.8405 116.897 67.899 116.821 67.8885 116.738C67.7685 115.799 67.5 115.181 67.089 114.902C66.789 114.698 66.5295 114.757 66.501 114.764C66.42 114.785 66.3705 114.868 66.3915 114.949C66.4125 115.03 66.4935 115.078 66.5745 115.058C66.585 115.057 66.7395 115.027 66.9285 115.16C67.155 115.321 67.4535 115.73 67.587 116.776C67.5975 116.852 67.662 116.909 67.737 116.909V116.908Z" fill="#D6798E"/>
<path d="M74.0312 116.74C74.0312 114.403 75.3092 112.501 76.8797 112.501C78.4502 112.501 79.7282 114.403 79.7282 116.74C79.7282 119.077 78.4502 120.979 76.8797 120.979C75.3092 120.979 74.0312 119.077 74.0312 116.74ZM74.3357 116.74C74.3357 118.909 75.4772 120.674 76.8797 120.674C78.2822 120.674 79.4237 118.909 79.4237 116.74C79.4237 114.571 78.2822 112.805 76.8797 112.805C75.4772 112.805 74.3357 114.571 74.3357 116.74Z" fill="#2E234F"/>
<path d="M80.3945 115.868C80.3945 113.819 81.413 112.151 82.664 112.151C83.915 112.151 84.9335 113.819 84.9335 115.868C84.9335 117.917 83.915 119.585 82.664 119.585C81.413 119.585 80.3945 117.917 80.3945 115.868ZM80.699 115.868C80.699 117.749 81.581 119.281 82.664 119.281C83.747 119.281 84.629 117.749 84.629 115.868C84.629 113.987 83.747 112.456 82.664 112.456C81.581 112.456 80.699 113.987 80.699 115.868Z" fill="#2E234F"/>
<path d="M79.5767 116.604C79.5992 116.604 79.6232 116.598 79.6457 116.587C79.6547 116.583 80.1122 116.358 80.5082 116.53C80.5847 116.563 80.6747 116.529 80.7077 116.451C80.7407 116.374 80.7062 116.284 80.6282 116.251C80.0957 116.02 79.5287 116.305 79.5062 116.317C79.4312 116.356 79.4027 116.448 79.4402 116.521C79.4672 116.574 79.5197 116.604 79.5752 116.604H79.5767Z" fill="#2E234F"/>
<path d="M68.4542 116.891H74.1827C74.2667 116.891 74.3342 116.823 74.3342 116.739C74.3342 116.655 74.2667 116.588 74.1827 116.588H68.4542C68.3702 116.588 68.3027 116.655 68.3027 116.739C68.3027 116.823 68.3702 116.891 68.4542 116.891Z" fill="#2E234F"/>
<path d="M53.5297 212.441C55.9882 215.065 69.0982 213.856 70.8667 211.232C71.6527 210.064 70.1467 201.256 68.7697 188.933C68.2507 184.295 67.7497 179.158 67.3957 173.743C67.2007 170.749 67.0507 167.671 66.9667 164.545C66.9307 163.22 66.8917 161.884 66.8602 160.541C66.7837 157.498 66.7417 154.418 66.8482 151.351C66.9607 148.126 67.2367 144.916 67.8157 141.773C69.2992 133.708 66.2212 132.287 67.6102 128.354C63.8872 128.227 56.1007 131.506 54.7732 133.706C53.6482 135.569 49.6792 143.425 48.9037 163.156C48.4087 175.789 51.0697 209.818 53.5297 212.441Z" fill="#CDDEF7"/>
<path d="M54.8047 142.028L56.7892 167.156C57.1042 171.158 60.5857 174.16 64.5907 173.881L67.1392 173.704L67.3957 173.743C67.2007 170.749 67.0507 167.671 66.9667 164.545C66.9307 163.22 66.8917 161.884 66.8602 160.541L54.8047 142.028Z" fill="#A8C9EF"/>
<path d="M76.3828 128.606C77.9398 132.083 79.3588 139.102 80.6578 147.569C80.9308 149.35 81.1978 151.195 81.4603 153.083C81.9688 156.745 82.4578 160.574 82.9273 164.431C83.2603 167.161 83.5843 169.903 83.8978 172.609C85.9453 190.232 87.6088 206.287 88.9858 206.902C91.7608 208.141 96.1138 207.014 97.0333 205.438C97.6228 204.427 93.9928 190.255 90.9688 177.298C89.6863 171.8 88.5133 166.522 87.8173 162.56C87.5923 161.29 87.4183 160.154 87.3058 159.19C87.0118 156.68 86.8798 154.094 86.8153 151.55C86.7943 150.692 86.7793 149.84 86.7688 148.997C86.6833 141.329 86.9443 134.453 84.8758 131.846C83.3428 129.919 79.2643 128.488 76.3828 128.606Z" fill="#CDDEF7"/>
<path d="M85.8301 154.189L87.4546 158.582C87.5911 158.507 87.8446 158.386 88.1821 158.237C88.5856 158.059 89.1091 157.841 89.6941 157.618C91.1266 157.072 92.9206 156.494 94.2046 156.392C96.5866 156.203 98.5906 155.189 98.9041 154.993C99.0871 154.88 101.519 155.071 103.827 154.946C103.844 154.946 103.86 154.946 103.877 154.943C104.442 154.91 104.466 154.081 103.902 154.012L99.3316 153.446L105.596 151.951C106.247 151.579 105.909 150.581 105.165 150.682L99.2866 151.483L105.27 148.684C105.792 148.208 105.275 147.362 104.615 147.613L98.3116 149.999L103.302 145.807C103.734 145.237 103.028 144.505 102.443 144.916C100.58 146.225 98.5381 147.668 98.1301 147.994C97.3471 148.616 95.9821 149.24 95.8741 148.955L96.0871 146.158C94.2856 148.333 92.0641 150.955 91.8601 151.429C91.6171 151.993 90.0076 152.716 88.4071 153.313C87.8656 153.514 87.3241 153.701 86.8381 153.862C86.4616 153.988 86.1166 154.099 85.8301 154.189Z" fill="#FFC5CD"/>
<path d="M86.8379 153.861L88.1819 158.237C88.5854 158.058 89.1089 157.841 89.6939 157.617C89.5994 156.56 89.3039 154.556 88.4069 153.312C87.8654 153.513 87.3239 153.701 86.8379 153.861Z" fill="#D6798E"/>
<path d="M81.4609 153.083C81.9694 156.744 82.4584 160.574 82.9279 164.43L87.8179 162.56C87.5929 161.289 87.4189 160.154 87.3064 159.189C87.0124 156.68 86.8804 154.094 86.8159 151.55L81.4609 153.083Z" fill="#A8C9EF"/>
<path d="M66.8557 137.03C68.4022 143.479 70.3147 152.188 70.5007 156.533C71.5237 157.106 86.4277 152.488 87.1042 152.824C87.7807 153.16 89.4502 159.809 89.2237 160.33C88.9957 160.85 67.7872 168.553 67.7872 168.553C65.4142 169.463 62.7652 168.181 62.0077 165.754L54.3217 140.432C53.4052 137.411 54.7927 134.168 57.6112 132.745C61.3537 130.856 65.8777 132.953 66.8557 137.029V137.03Z" fill="#CDDEF7"/>
<path d="M84.9629 116.481L113.356 260.949H187.642L216.036 116.481H84.9629Z" fill="#E9EDFB"/>
<path d="M193.894 271.208H107.104L109.981 263.946C110.698 262.137 112.445 260.951 114.391 260.951H186.61C188.555 260.951 190.303 262.139 191.02 263.946L193.896 271.208H193.894Z" fill="#2E234F"/>
<path d="M188.215 252.142C191.962 251.395 194.394 250.509 194.574 250.443C195.681 250.033 196.246 248.805 195.837 247.698C195.427 246.591 194.199 246.024 193.092 246.435C193.021 246.46 185.71 249.106 176.983 248.901C171.967 248.782 167.463 247.756 163.597 245.85C158.817 243.493 154.966 239.748 152.151 234.718C149.275 229.579 147.745 223.935 147.606 217.939C147.492 213.093 148.279 207.997 149.943 202.794C152.812 193.822 157.348 187.578 157.395 187.516C158.092 186.565 157.888 185.229 156.937 184.53C155.988 183.831 154.651 184.035 153.952 184.984C153.751 185.256 149.01 191.76 145.915 201.361C144.087 207.036 143.218 212.619 143.332 217.959C143.478 224.688 145.189 231.03 148.423 236.806C151.683 242.629 156.177 246.973 161.781 249.718C166.227 251.896 171.354 253.059 177.021 253.176C181.281 253.263 185.181 252.748 188.217 252.142H188.215Z" fill="#2E234F"/>
<path d="M148.1 214.896C148.468 214.822 148.759 214.516 148.795 214.123C148.838 213.646 148.487 213.223 148.01 213.18L143.098 212.728C142.621 212.685 142.198 213.036 142.154 213.513C142.111 213.99 142.462 214.413 142.939 214.456L147.851 214.908C147.937 214.915 148.021 214.911 148.102 214.894L148.1 214.896Z" fill="#FF6482"/>
<path d="M150.704 202.37C151.076 202.327 151.391 202.045 151.459 201.658C151.541 201.185 151.226 200.735 150.754 200.653L145.895 199.799C145.424 199.717 144.973 200.032 144.89 200.504C144.808 200.977 145.123 201.427 145.595 201.509L150.454 202.363C150.538 202.378 150.622 202.379 150.704 202.37Z" fill="#FF6482"/>
<path d="M155.02 192.352C155.395 192.352 155.741 192.108 155.852 191.731C155.988 191.272 155.726 190.789 155.267 190.653L150.538 189.249C150.079 189.112 149.596 189.373 149.46 189.834C149.323 190.293 149.586 190.776 150.045 190.912L154.773 192.316C154.855 192.34 154.938 192.352 155.02 192.352Z" fill="#FF6482"/>
<path d="M148.926 225.787C149.369 225.699 149.675 225.282 149.616 224.826C149.556 224.35 149.121 224.014 148.646 224.074L143.753 224.698C143.277 224.76 142.941 225.193 143.001 225.669C143.061 226.144 143.496 226.48 143.972 226.42L148.865 225.796C148.886 225.793 148.905 225.79 148.926 225.786V225.787Z" fill="#FF6482"/>
<path d="M148.681 238.609C148.735 238.599 148.788 238.582 148.84 238.561L153.408 236.698C153.852 236.517 154.065 236.011 153.883 235.567C153.702 235.123 153.196 234.91 152.752 235.092L148.185 236.955C147.741 237.136 147.528 237.642 147.709 238.086C147.87 238.477 148.282 238.689 148.681 238.609Z" fill="#FF6482"/>
<path d="M156.985 248.11C157.129 248.082 157.269 248.016 157.387 247.912L161.095 244.66C161.455 244.344 161.491 243.796 161.176 243.435C160.86 243.075 160.312 243.039 159.951 243.355L156.243 246.607C155.883 246.924 155.847 247.471 156.163 247.833C156.375 248.074 156.693 248.17 156.987 248.112L156.985 248.11Z" fill="#FF6482"/>
<path d="M170.526 253.599C170.727 253.506 170.893 253.336 170.976 253.111L172.681 248.484C172.848 248.034 172.617 247.534 172.167 247.369C171.717 247.203 171.217 247.434 171.052 247.884L169.345 252.511C169.179 252.961 169.41 253.461 169.86 253.626C170.085 253.708 170.322 253.693 170.524 253.599H170.526Z" fill="#FF6482"/>
<path d="M185.748 253.485C185.886 253.311 185.957 253.084 185.928 252.846L185.351 247.947C185.295 247.471 184.863 247.131 184.388 247.186C183.912 247.242 183.572 247.674 183.627 248.149L184.205 253.048C184.26 253.524 184.692 253.864 185.168 253.809C185.406 253.78 185.61 253.659 185.748 253.485Z" fill="#FF6482"/>
<path d="M262.429 171.481L204.094 244.947H232.067L271.864 179.172L262.429 171.481Z" fill="#2E234F"/>
<path d="M229.981 119.751L260.905 179.847L274.459 170.995L237.731 116.08L229.981 119.751Z" fill="#2E234F"/>
<path d="M213.864 124.092C213.189 123.904 212.643 123.352 212.499 122.619C212.296 121.585 212.971 120.582 214.005 120.379L228.901 117.463C229.936 117.261 230.938 117.936 231.141 118.969C231.343 120.003 230.668 121.006 229.635 121.209L214.738 124.125C214.438 124.183 214.14 124.168 213.864 124.092Z" fill="#2E234F"/>
<path d="M216.598 120.811L208.992 113.276C208.66 112.948 208.177 112.82 207.727 112.943L197.044 115.859C196.594 115.982 196.243 116.336 196.126 116.788L194.71 122.228C194.512 122.986 195.21 123.674 195.964 123.467C196.32 123.37 196.596 123.088 196.684 122.731L197.682 118.726C197.796 118.268 198.148 117.907 198.603 117.784L204.534 116.165C204.985 116.042 205.467 116.17 205.8 116.498L211.545 122.191C212.038 122.68 212.233 123.394 212.056 124.064L210 131.887C209.881 132.338 209.53 132.694 209.079 132.817L203.148 134.435C202.693 134.56 202.206 134.428 201.876 134.092L198.982 131.149C198.724 130.886 198.343 130.783 197.988 130.88C197.232 131.086 196.983 132.032 197.538 132.586L201.52 136.552C201.852 136.882 202.333 137.008 202.783 136.886L213.466 133.97C213.918 133.847 214.269 133.493 214.387 133.04L217.111 122.686C217.288 122.015 217.093 121.3 216.6 120.812L216.598 120.811Z" fill="#5777FA"/>
<path d="M233.867 125.184C237.874 125.184 241.121 121.936 241.121 117.93C241.121 113.923 237.874 110.676 233.867 110.676C229.861 110.676 226.613 113.923 226.613 117.93C226.613 121.936 229.861 125.184 233.867 125.184Z" fill="#514593"/>
<path d="M233.867 121.378C235.771 121.378 237.315 119.834 237.315 117.93C237.315 116.025 235.771 114.481 233.867 114.481C231.962 114.481 230.418 116.025 230.418 117.93C230.418 119.834 231.962 121.378 233.867 121.378Z" fill="#5777FA"/>
<path d="M277.384 177.299C278.695 171.746 275.256 166.182 269.703 164.872C264.15 163.561 258.586 167 257.276 172.553C255.965 178.106 259.404 183.67 264.957 184.98C270.51 186.291 276.073 182.852 277.384 177.299Z" fill="#514593"/>
<path d="M272.108 176.054C272.731 173.415 271.097 170.771 268.458 170.148C265.819 169.525 263.175 171.16 262.552 173.799C261.929 176.438 263.563 179.082 266.202 179.705C268.841 180.328 271.485 178.693 272.108 176.054Z" fill="#5777FA"/>
<path d="M245.794 256.363H185.53C181.431 256.363 178.108 259.686 178.108 263.785V263.787C178.108 267.886 181.431 271.209 185.53 271.209H245.794C249.893 271.209 253.216 267.886 253.216 263.787V263.785C253.216 259.686 249.893 256.363 245.794 256.363Z" fill="#514593"/>
<path d="M190.835 264.694C191.302 261.814 189.346 259.1 186.466 258.633C183.586 258.165 180.873 260.121 180.405 263.001C179.938 265.881 181.893 268.595 184.774 269.062C187.654 269.53 190.367 267.574 190.835 264.694Z" fill="#2E234F"/>
<path d="M205.773 265.035C206.443 262.195 204.684 259.35 201.844 258.68C199.005 258.01 196.159 259.768 195.489 262.608C194.819 265.448 196.578 268.293 199.417 268.963C202.257 269.634 205.102 267.875 205.773 265.035Z" fill="#2E234F"/>
<path d="M220.796 265.034C221.466 262.194 219.708 259.349 216.868 258.679C214.028 258.009 211.183 259.767 210.513 262.607C209.842 265.447 211.601 268.292 214.441 268.962C217.28 269.633 220.126 267.874 220.796 265.034Z" fill="#2E234F"/>
<path d="M234.422 267.57C236.485 265.507 236.485 262.162 234.422 260.099C232.359 258.036 229.014 258.036 226.951 260.099C224.888 262.162 224.888 265.507 226.951 267.57C229.014 269.633 232.359 269.633 234.422 267.57Z" fill="#2E234F"/>
<path d="M250.932 264.693C251.4 261.813 249.444 259.099 246.564 258.632C243.684 258.164 240.97 260.12 240.503 263C240.035 265.88 241.991 268.594 244.871 269.061C247.751 269.529 250.465 267.573 250.932 264.693Z" fill="#2E234F"/>
<path d="M240.088 242.503H190.435C189.821 242.503 189.322 243.001 189.322 243.616V255.25C189.322 255.864 189.821 256.363 190.435 256.363H240.088C240.703 256.363 241.201 255.864 241.201 255.25V243.616C241.201 243.001 240.703 242.503 240.088 242.503Z" fill="#435BDB"/>
<path d="M241.403 243.46H189.122C188.391 243.46 187.799 244.052 187.799 244.783V254.084C187.799 254.815 188.391 255.407 189.122 255.407H241.403C242.134 255.407 242.726 254.815 242.726 254.084V244.783C242.726 244.052 242.134 243.46 241.403 243.46Z" fill="#5777FA"/>
<path d="M195.584 246.739H193.126C192.68 246.739 192.319 246.377 192.319 245.932C192.319 245.486 192.68 245.125 193.126 245.125H195.584C196.03 245.125 196.391 245.486 196.391 245.932C196.391 246.377 196.03 246.739 195.584 246.739Z" fill="#EBF2FF"/>
<path d="M201.773 246.739H199.315C198.869 246.739 198.508 246.377 198.508 245.932C198.508 245.486 198.869 245.125 199.315 245.125H201.773C202.219 245.125 202.58 245.486 202.58 245.932C202.58 246.377 202.219 246.739 201.773 246.739Z" fill="#EBF2FF"/>
<path d="M207.963 246.739H205.504C205.059 246.739 204.697 246.377 204.697 245.932C204.697 245.486 205.059 245.125 205.504 245.125H207.963C208.408 245.125 208.77 245.486 208.77 245.932C208.77 246.377 208.408 246.739 207.963 246.739Z" fill="#EBF2FF"/>
<path d="M214.15 246.739H211.692C211.246 246.739 210.885 246.377 210.885 245.932C210.885 245.486 211.246 245.125 211.692 245.125H214.15C214.596 245.125 214.957 245.486 214.957 245.932C214.957 246.377 214.596 246.739 214.15 246.739Z" fill="#EBF2FF"/>
<path d="M195.584 250.24H193.126C192.68 250.24 192.319 249.878 192.319 249.433C192.319 248.987 192.68 248.626 193.126 248.626H195.584C196.03 248.626 196.391 248.987 196.391 249.433C196.391 249.878 196.03 250.24 195.584 250.24Z" fill="#EBF2FF"/>
<path d="M201.773 250.24H199.315C198.869 250.24 198.508 249.878 198.508 249.433C198.508 248.987 198.869 248.626 199.315 248.626H201.773C202.219 248.626 202.58 248.987 202.58 249.433C202.58 249.878 202.219 250.24 201.773 250.24Z" fill="#4ED066"/>
<path d="M207.963 250.24H205.504C205.059 250.24 204.697 249.878 204.697 249.433C204.697 248.987 205.059 248.626 205.504 248.626H207.963C208.408 248.626 208.77 248.987 208.77 249.433C208.77 249.878 208.408 250.24 207.963 250.24Z" fill="#EBF2FF"/>
<path d="M214.15 250.24H211.692C211.246 250.24 210.885 249.878 210.885 249.433C210.885 248.987 211.246 248.626 211.692 248.626H214.15C214.596 248.626 214.957 248.987 214.957 249.433C214.957 249.878 214.596 250.24 214.15 250.24Z" fill="#EBF2FF"/>
<path d="M195.584 253.741H193.126C192.68 253.741 192.319 253.379 192.319 252.934C192.319 252.488 192.68 252.127 193.126 252.127H195.584C196.03 252.127 196.391 252.488 196.391 252.934C196.391 253.379 196.03 253.741 195.584 253.741Z" fill="#EBF2FF"/>
<path d="M201.773 253.741H199.315C198.869 253.741 198.508 253.379 198.508 252.934C198.508 252.488 198.869 252.127 199.315 252.127H201.773C202.219 252.127 202.58 252.488 202.58 252.934C202.58 253.379 202.219 253.741 201.773 253.741Z" fill="#EBF2FF"/>
<path d="M207.963 253.741H205.504C205.059 253.741 204.697 253.379 204.697 252.934C204.697 252.488 205.059 252.127 205.504 252.127H207.963C208.408 252.127 208.77 252.488 208.77 252.934C208.77 253.379 208.408 253.741 207.963 253.741Z" fill="#EBF2FF"/>
<path d="M214.15 253.741H211.692C211.246 253.741 210.885 253.379 210.885 252.934C210.885 252.488 211.246 252.127 211.692 252.127H214.15C214.596 252.127 214.957 252.488 214.957 252.934C214.957 253.379 214.596 253.741 214.15 253.741Z" fill="#4ED066"/>
<path d="M225.357 247.135C224.089 247.135 223.059 248.165 223.059 249.433C223.059 250.7 224.089 251.731 225.357 251.731C226.624 251.731 227.655 250.7 227.655 249.433C227.655 248.165 226.624 247.135 225.357 247.135Z" fill="#435BDB"/>
<path d="M231.726 247.135C230.458 247.135 229.428 248.165 229.428 249.433C229.428 250.7 230.458 251.731 231.726 251.731C232.993 251.731 234.024 250.7 234.024 249.433C234.024 248.165 232.993 247.135 231.726 247.135Z" fill="#435BDB"/>
<path d="M238.093 247.135C236.826 247.135 235.795 248.165 235.795 249.433C235.795 250.7 236.826 251.731 238.093 251.731C239.361 251.731 240.391 250.7 240.391 249.433C240.391 248.165 239.361 247.135 238.093 247.135Z" fill="#EBF2FF"/>
<path d="M145.18 165.126C145.071 165.126 144.969 165.057 144.931 164.947L116.83 80.9681C116.784 80.8316 116.859 80.6831 116.995 80.6366C117.132 80.5901 117.28 80.6651 117.327 80.8016L145.428 164.781C145.474 164.919 145.399 165.066 145.263 165.112C145.236 165.121 145.207 165.126 145.18 165.126Z" fill="#2E234F"/>
<path d="M132.27 137.325C132.179 137.325 132.087 137.298 132.008 137.243C124.041 131.66 119.904 125.261 119.36 117.68C118.896 111.215 121.181 104.96 123.017 99.9333C123.356 99.0078 123.675 98.1318 123.968 97.2858C125.16 93.8388 125.196 90.9198 124.073 88.6098C122.733 85.8558 120.189 84.9528 120.164 84.9438C119.924 84.8613 119.798 84.6003 119.88 84.3603C119.963 84.1203 120.224 83.9943 120.464 84.0768C120.582 84.1173 123.395 85.1178 124.899 88.2093C126.134 90.7458 126.113 93.9003 124.836 97.5858C124.541 98.4393 124.22 99.3183 123.881 100.248C120.177 110.388 115.104 124.277 132.536 136.491C132.743 136.637 132.794 136.922 132.648 137.13C132.56 137.258 132.417 137.325 132.272 137.325H132.27Z" fill="#FF6482"/>
<path d="M156.66 165.126C156.633 165.126 156.604 165.121 156.577 165.112C156.441 165.066 156.366 164.917 156.412 164.781L184.513 80.8016C184.56 80.6651 184.707 80.5901 184.845 80.6366C184.981 80.6831 185.056 80.8316 185.01 80.9681L156.909 164.947C156.873 165.057 156.769 165.126 156.66 165.126Z" fill="#2E234F"/>
<path d="M132.711 153.006C132.711 161.358 134.035 185.863 149.428 188.217C165.168 190.626 171.082 164.968 172.524 157.056C172.666 156.271 172.617 155.481 172.398 154.75C172.047 153.567 171.258 152.527 170.138 151.885C167.658 150.459 162.943 148.833 153.997 147.822C144.477 146.745 139.153 147.381 136.218 148.269C134.889 148.672 133.827 149.602 133.236 150.786C132.898 151.459 132.711 152.215 132.711 153.006Z" fill="white"/>
<path d="M133.234 150.785C137.805 152.623 144.655 155.003 153.145 155.732C160.402 156.356 167.619 155.438 172.396 154.748C172.045 153.565 171.256 152.525 170.136 151.883C167.656 150.457 162.942 148.831 153.996 147.82C144.475 146.743 139.152 147.379 136.216 148.267C134.887 148.67 133.825 149.6 133.234 150.784V150.785Z" fill="#BECAEA"/>
<path d="M156.632 168.47C156.871 165.688 154.762 163.236 151.922 162.992C149.082 162.748 146.586 164.805 146.347 167.586C146.108 170.368 148.217 172.821 151.057 173.065C153.897 173.309 156.393 171.251 156.632 168.47Z" fill="#7A93FF"/>
<path d="M146.356 167.601C146.118 170.382 148.227 172.834 151.068 173.079C152.671 173.217 154.167 172.621 155.208 171.573C154.243 172.251 153.036 172.606 151.758 172.497C148.917 172.252 146.808 169.8 147.046 167.019C147.151 165.805 147.685 164.731 148.488 163.926C147.306 164.754 146.487 166.066 146.355 167.599L146.356 167.601Z" fill="#607FEF"/>
<path d="M149.036 111.425C149.279 111.391 149.474 111.191 149.492 110.936C149.717 107.794 147.959 103.972 147.884 103.811C147.759 103.544 147.443 103.43 147.177 103.553C146.91 103.678 146.795 103.994 146.919 104.26C146.936 104.297 148.635 107.996 148.43 110.86C148.409 111.152 148.629 111.407 148.923 111.428C148.962 111.431 149 111.428 149.036 111.424V111.425Z" fill="#2E234F"/>
<path d="M145.228 104.221C145.417 105.56 146.654 106.493 147.994 106.304C149.333 106.115 150.266 104.878 150.077 103.538C149.888 102.199 148.651 101.266 147.311 101.455C145.972 101.644 145.039 102.881 145.228 104.221Z" fill="#7A93FF"/>
<path d="M149.635 105.313C149.26 105.835 148.68 106.209 147.991 106.306C146.652 106.495 145.413 105.562 145.225 104.223C145.114 103.431 145.395 102.675 145.92 102.148C145.56 102.643 145.386 103.272 145.477 103.926C145.666 105.265 146.904 106.197 148.243 106.009C148.792 105.933 149.274 105.679 149.635 105.313Z" fill="#607FEF"/>
<path d="M177.036 131.651C180.952 131.159 183.659 127.036 183.082 122.441C182.505 117.846 178.862 114.52 174.945 115.012C171.029 115.504 168.321 119.628 168.899 124.223C169.476 128.817 173.119 132.143 177.036 131.651Z" fill="#7A93FF"/>
<path d="M128.022 138.55C131.939 138.058 134.646 133.934 134.069 129.339C133.491 124.745 129.848 121.419 125.932 121.911C122.015 122.403 119.308 126.526 119.885 131.121C120.462 135.716 124.105 139.042 128.022 138.55Z" fill="#7A93FF"/>
<path d="M124.1 135.668C124.217 136.602 123.356 137.378 122.445 137.138C120.144 136.53 118.265 134.292 117.905 131.424C117.545 128.556 118.812 125.922 120.891 124.766C121.715 124.307 122.741 124.845 122.858 125.781L124.1 135.669V135.668Z" fill="#2E234F"/>
<path d="M123.96 122.614L126.409 140.024C126.79 142.733 129.295 144.62 132.004 144.239L174.604 138.245C177.393 137.852 179.337 135.274 178.944 132.484L176.494 115.073C175.768 109.91 170.992 106.313 165.831 107.041L132.118 111.784C131.293 111.899 130.507 112.117 129.772 112.423C125.833 114.058 123.339 118.195 123.96 122.614Z" fill="white"/>
<path d="M139.214 142.333C139.172 142.339 139.129 142.339 139.085 142.332C139.054 142.326 135.844 141.781 130.553 140.851C125.083 139.891 122.489 135.879 122.381 135.708C122.258 135.513 122.315 135.253 122.512 135.13C122.707 135.007 122.966 135.064 123.089 135.259C123.113 135.298 125.605 139.131 130.699 140.026C135.986 140.955 139.195 141.501 139.226 141.505C139.454 141.544 139.607 141.76 139.57 141.988C139.538 142.173 139.391 142.308 139.216 142.333H139.214Z" fill="#2E234F"/>
<path d="M138.577 143.404L144.985 143.603C145.617 143.623 146.145 143.126 146.165 142.494L146.197 141.443C146.217 140.812 145.721 140.284 145.089 140.264L138.681 140.065C138.049 140.045 137.521 140.541 137.501 141.173L137.469 142.224C137.449 142.856 137.945 143.384 138.577 143.404Z" fill="#2E234F"/>
<path d="M166.97 131.357L137.585 135.491C135.253 135.82 133.096 134.195 132.767 131.863L132.2 127.828C131.872 125.495 133.496 123.338 135.829 123.01L165.214 118.876C167.546 118.547 169.703 120.172 170.032 122.504L170.599 126.539C170.927 128.872 169.303 131.029 166.97 131.357Z" fill="#2E234F"/>
<path d="M146.581 128.373C146.75 129.573 145.853 130.691 144.578 130.871C143.303 131.051 142.133 130.223 141.964 129.023C141.794 127.823 142.691 126.705 143.966 126.525C145.241 126.345 146.411 127.173 146.581 128.373Z" fill="#7A93FF"/>
<path d="M159.029 128.885C160.273 128.71 161.143 127.58 160.972 126.361C160.8 125.142 159.652 124.296 158.408 124.471C157.163 124.646 156.293 125.776 156.465 126.995C156.637 128.214 157.784 129.06 159.029 128.885Z" fill="#7A93FF"/>
<path d="M124.138 186.408C123.89 186.127 123.734 185.763 123.721 185.359L123.497 178.844C123.466 177.928 124.177 177.157 125.093 177.115L129.868 176.896C130.315 176.875 130.751 177.035 131.08 177.338C131.408 177.641 131.602 178.064 131.617 178.511L131.822 184.645C131.854 185.569 131.129 186.343 130.205 186.373C129.281 186.404 128.507 185.68 128.476 184.756L128.327 180.316L126.899 180.382L127.066 185.242C127.097 186.166 126.374 186.94 125.45 186.972C124.93 186.99 124.457 186.767 124.138 186.404V186.408Z" fill="#2E234F"/>
<path d="M127.309 179.587C126.388 179.507 125.641 178.76 125.588 177.809C124.847 164.353 133.09 155.134 133.441 154.748C134.143 153.977 135.337 153.922 136.108 154.623C136.877 155.323 136.934 156.516 136.235 157.287C136.16 157.371 128.707 165.767 129.358 177.602C129.415 178.643 128.618 179.533 127.577 179.59C127.487 179.594 127.397 179.593 127.309 179.585V179.587Z" fill="#2E234F"/>
<path d="M175.972 190.865C176.265 190.631 176.479 190.298 176.562 189.902L177.894 183.523C178.081 182.626 177.511 181.744 176.617 181.546L171.951 180.515C171.514 180.419 171.057 180.502 170.68 180.745C170.305 180.988 170.041 181.37 169.951 181.81L168.702 187.819C168.513 188.723 169.095 189.61 169.999 189.799C170.904 189.988 171.79 189.406 171.979 188.501L172.884 184.151L174.28 184.46L173.286 189.221C173.097 190.126 173.677 191.012 174.582 191.201C175.092 191.308 175.596 191.17 175.972 190.867V190.865Z" fill="#2E234F"/>
<path d="M174.012 183.602C174.933 183.682 175.797 183.073 176.01 182.146C179.037 169.013 172.491 158.522 172.211 158.083C171.651 157.204 170.484 156.944 169.605 157.504C168.726 158.063 168.467 159.227 169.025 160.106C169.085 160.201 174.995 169.748 172.332 181.298C172.098 182.314 172.731 183.328 173.748 183.562C173.837 183.583 173.925 183.596 174.012 183.604V183.602Z" fill="#2E234F"/>
<path d="M192.76 82.3942H108.241C106.988 82.3942 105.973 81.3787 105.973 80.1262C105.973 78.8737 106.988 77.8582 108.241 77.8582H192.76C194.012 77.8582 195.028 78.8737 195.028 80.1262C195.028 81.3787 194.012 82.3942 192.76 82.3942Z" fill="#2E234F"/>
<path d="M184.252 86.9301H116.749C115.496 86.9301 114.481 85.9146 114.481 84.6621C114.481 83.4096 115.496 82.3941 116.749 82.3941H184.252C185.504 82.3941 186.52 83.4096 186.52 84.6621C186.52 85.9146 185.504 86.9301 184.252 86.9301Z" fill="#7A93FF"/>
</g>
<defs>
<clipPath id="clip0_2_8054">
<rect width="300" height="300" fill="white" transform="translate(0.5 0.719482)"/>
</clipPath>
</defs>
</svg>
