<?xml version="1.0" encoding="UTF-8"?>
<svg id="Layer_1" xmlns="http://www.w3.org/2000/svg" xmlns:xlink="http://www.w3.org/1999/xlink" version="1.1" viewBox="0 0 450 366">
  <!-- Generator: Adobe Illustrator 29.2.1, SVG Export Plug-In . SVG Version: 2.1.0 Build 116)  -->
  <defs>
    <style>
      .st0 {
        fill: none;
      }

      .st1 {
        mask: url(#mask);
      }

      .st2 {
        fill: #9df3f9;
      }

      .st2, .st3, .st4, .st5, .st6, .st7, .st8 {
        fill-rule: evenodd;
      }

      .st3 {
        fill: #fff;
      }

      .st9 {
        fill: url(#linear-gradient1);
      }

      .st10 {
        fill: url(#linear-gradient3);
      }

      .st11, .st8 {
        fill-opacity: .3;
      }

      .st12, .st6 {
        fill-opacity: .2;
      }

      .st13 {
        fill: url(#linear-gradient);
      }

      .st14 {
        fill: #e5e5e5;
      }

      .st15 {
        fill: #e9edfb;
      }

      .st16 {
        mask: url(#mask-1);
      }

      .st17 {
        clip-path: url(#clippath-1);
      }

      .st4 {
        fill: #82ebf1;
      }

      .st18 {
        fill: #00a1e2;
      }

      .st5 {
        fill: #8df7db;
      }

      .st7 {
        fill: url(#linear-gradient2);
      }

      .st19 {
        clip-path: url(#clippath);
      }
    </style>
    <mask id="mask" x="83.5" y="58.5" width="283.2" height="248.2" maskUnits="userSpaceOnUse">
      <g id="path-3-inside-1_2_8740">
        <path class="st3" d="M196.6,224.2c-3.1,1.1-6.3,2-9.6,2.7-5.7,1.2-11.7,1.9-17.8,1.9-46.7,0-84.6-37.9-84.6-84.6s37.9-84.6,84.6-84.6,77.1,30.8,83.5,71.1c.5,3.4.9,6.9,1,10.4,8.6-2.9,17.8-4.5,27.4-4.5,46.7,0,84.6,37.9,84.6,84.6s-37.9,84.6-84.6,84.6-82.9-36.2-84.6-81.5Z"/>
      </g>
    </mask>
    <clipPath id="clippath">
      <rect class="st0" x="123.5" y="99.5" width="90" height="90"/>
    </clipPath>
    <clipPath id="clippath-1">
      <rect class="st0" x="239.5" y="181.9" width="83.7" height="83.7"/>
    </clipPath>
    <mask id="mask-1" x="239.5" y="181.9" width="83.7" height="83.7" maskUnits="userSpaceOnUse">
      <g id="mask0">
        <path class="st5" d="M239.5,223.8c0,3.7,2.6,6.8,6,7.6,3,14.1,14.1,25.2,28.2,28.2.8,3.5,3.9,6,7.6,6s6.8-2.6,7.6-6c14.1-3,25.2-14.1,28.2-28.2,3.5-.8,6-3.9,6-7.6s-2.6-6.8-6-7.6c-3-14.1-14.1-25.2-28.2-28.2-.8-3.5-3.9-6-7.6-6s-6.8,2.6-7.6,6c-14.1,3-25.2,14.1-28.2,28.2-3.5.8-6,3.9-6,7.6Z"/>
      </g>
    </mask>
    <linearGradient id="linear-gradient" x1="259.5" y1="176.3" x2="303.1" y2="112.4" gradientTransform="translate(0 368) scale(1 -1)" gradientUnits="userSpaceOnUse">
      <stop offset="0" stop-color="#009ca8"/>
      <stop offset="1" stop-color="#007d85"/>
    </linearGradient>
    <linearGradient id="linear-gradient1" x1="269.3" y1="164.4" x2="299.3" y2="114.6" gradientTransform="translate(0 368) scale(1 -1)" gradientUnits="userSpaceOnUse">
      <stop offset="0" stop-color="#36e3ee"/>
      <stop offset="1" stop-color="#00b1be"/>
    </linearGradient>
    <linearGradient id="linear-gradient2" x1="266.5" y1="164.9" x2="304.9" y2="130.4" gradientTransform="translate(0 368) scale(1 -1)" gradientUnits="userSpaceOnUse">
      <stop offset="0" stop-color="#d2f6f9"/>
      <stop offset="1" stop-color="#82ebf1"/>
      <stop offset="1" stop-color="#82ebf1"/>
    </linearGradient>
    <linearGradient id="linear-gradient3" x1="324" y1="141.2" x2="302.5" y2="148.8" gradientTransform="translate(0 368) scale(1 -1)" gradientUnits="userSpaceOnUse">
      <stop offset="0" stop-color="#9aeef3"/>
      <stop offset="1" stop-color="#82ebf1"/>
    </linearGradient>
  </defs>
  <path class="st15" d="M169.2,239.1c-25.2,0-48.8-9.8-66.6-27.6-17.8-17.8-27.6-41.4-27.6-66.6s9.8-48.8,27.6-66.6c17.8-17.8,41.4-27.6,66.6-27.6s44.4,8.1,61.5,22.9c16.9,14.6,28.1,34.7,31.5,56.6,0,.5-.3,1-.8,1.1-.5,0-1-.3-1.1-.8-7.1-45.1-45.4-77.8-91.1-77.8s-92.3,41.4-92.3,92.3,41.4,92.3,92.3,92.3,13-.7,19.3-2c.5-.1,1,.2,1.2.7.1.5-.2,1-.7,1.1-6.4,1.4-13.1,2.1-19.7,2.1Z"/>
  <path class="st15" d="M280.8,315.7c-22.6,0-44.4-8.1-61.5-22.9-16.9-14.6-28.1-34.7-31.5-56.6,0-.5.3-1,.8-1.1.5,0,1,.3,1.1.8,7.1,45.1,45.4,77.8,91.1,77.8s92.3-41.4,92.3-92.3-41.4-92.3-92.3-92.3-13,.7-19.3,2c-.5.1-1-.2-1.1-.7-.1-.5.2-1,.7-1.1,6.4-1.4,13.1-2.1,19.7-2.1,25.2,0,48.8,9.8,66.6,27.6,17.8,17.8,27.6,41.4,27.6,66.6s-9.8,48.8-27.6,66.6-41.4,27.6-66.6,27.6Z"/>
  <path class="st3" d="M196.6,224.2c-3.1,1.1-6.3,2-9.6,2.7-5.7,1.2-11.7,1.9-17.8,1.9-46.7,0-84.6-37.9-84.6-84.6s37.9-84.6,84.6-84.6,77.1,30.8,83.5,71.1c.5,3.4.9,6.9,1,10.4,8.6-2.9,17.8-4.5,27.4-4.5,46.7,0,84.6,37.9,84.6,84.6s-37.9,84.6-84.6,84.6-82.9-36.2-84.6-81.5Z"/>
  <g class="st1">
    <path class="st14" d="M196.6,224.2h1s0-1.4,0-1.4l-1.3.4.3.9ZM186.9,226.9l-.2-1h0l.2,1ZM252.7,130.7l-1,.2h0l1-.2ZM253.7,141.1h-1s0,1.4,0,1.4l1.3-.4-.3-.9ZM196.2,223.3c-3.1,1.1-6.3,1.9-9.5,2.6l.4,2c3.3-.7,6.6-1.6,9.7-2.7l-.6-1.9ZM186.7,225.9c-5.7,1.2-11.6,1.9-17.6,1.9v2c6.2,0,12.2-.7,18-1.9l-.4-2ZM169.1,227.8c-46.2,0-83.6-37.4-83.6-83.6h-2c0,47.3,38.3,85.6,85.6,85.6v-2ZM85.5,144.2c0-46.2,37.4-83.6,83.6-83.6v-2c-47.3,0-85.6,38.3-85.6,85.6h2ZM169.1,60.5c41.6,0,76.2,30.4,82.6,70.3l2-.3c-6.5-40.8-41.9-72-84.5-72v2ZM251.7,130.8c.5,3.4.9,6.8,1,10.3h2c-.1-3.6-.5-7.2-1-10.6l-2,.3ZM281.1,135.5c-9.7,0-19.1,1.6-27.8,4.6l.6,1.9c8.5-2.9,17.6-4.5,27.1-4.5v-2ZM366.7,221.2c0-47.3-38.3-85.6-85.6-85.6v2c46.2,0,83.6,37.4,83.6,83.6h2ZM281.1,306.8c47.3,0,85.6-38.3,85.6-85.6h-2c0,46.2-37.4,83.6-83.6,83.6v2ZM195.6,224.3c1.6,45.8,39.3,82.5,85.6,82.5v-2c-45.2,0-82-35.8-83.6-80.6h-2Z"/>
  </g>
  <g class="st19">
    <g>
      <path class="st18" d="M148.9,142.9c-.5,0-.9-.1-1.4-.1-1.1,0-1.5.4-1.5.4-.3.2-.5.6-.5,1s0,.5.2.7c0,.1,0,.1.3.3h0s.5.4,1.5.3c.7,0,1.4-.2,1.4-.2h0v-2.4Z"/>
      <path class="st18" d="M180.1,139.8c-.7,0-1.2.2-1.5.7-.3.5-.5,1.2-.5,2.1s.2,1.6.5,2.1c.3.5.8.7,1.5.7s1.2-.2,1.5-.7c.3-.5.5-1.2.5-2.1s-.2-1.6-.5-2.1c-.3-.5-.8-.7-1.5-.7Z"/>
      <path class="st18" d="M159.1,139.8c-.7,0-1.2.3-1.5.8-.2.3-.3.7-.4,1.2h3.7c0-.5-.1-.9-.3-1.2-.3-.5-.8-.8-1.5-.8Z"/>
      <path class="st18" d="M194.1,121.6c-2.7,0-5.4.6-7.8,1.7-2.8-4.9-7.9-8.2-13.9-8.2s-8.5,1.9-11.4,4.9h0c-3.2-4.2-8.2-6.9-13.9-6.9-9.7,0-17.5,7.8-17.5,17.5,0,2.4.5,4.8,1.4,6.9-4.5,2.6-7.5,7.5-7.5,13.2,0,8.4,6.7,15.2,15,15.2,1,0,2.1-.1,3.1-.3,2.3,6.2,8.2,10.6,15.2,10.6s12.4-4.1,14.9-9.9c1.9.9,4.1,1.4,6.2,1.4,5.3,0,9.9-2.9,12.4-7.3,1.2.2,2.5.4,3.8.4,10.7,0,19.4-8.8,19.4-19.6s-8.7-19.6-19.4-19.6ZM142.8,144.3c0,1.6-1.1,2.6-3,2.6s-1.8-.1-2.7-.6c-.2,0-.3-.2-.5-.3,0,0,0,0,0-.2h0s.4-1,.4-1c0-.2.2-.1.2,0,.1,0,.2.1.3.2,1.1.7,2.1.7,2.4.7.8,0,1.3-.4,1.3-1h0c0-.7-.8-.9-1.7-1.2h-.2c-1.2-.4-2.5-.9-2.5-2.5h0c0-1.5,1.2-2.5,2.9-2.5h.2c1,0,2,.3,2.6.7,0,0,.1.1,0,.2,0,0-.3.9-.4,1,0,.2-.2,0-.2,0-.6-.3-1.6-.6-2.3-.6s-1.2.4-1.2.9h0c0,.6.8.9,1.7,1.2h.2c1.2.4,2.5,1,2.5,2.4h0ZM150.4,146.3s-.2,0-.4,0c-.4,0-.9.2-1.3.3-.5,0-1,.1-1.6.1s-1,0-1.4-.1c-.4,0-.8-.2-1.1-.5-.3-.2-.5-.5-.7-.8-.2-.3-.2-.7-.2-1.2s0-.9.3-1.2c.2-.3.4-.6.8-.9.3-.2.7-.4,1.1-.5.4-.1.8-.2,1.3-.2s.6,0,.8,0h0s.4,0,.9.1v-.2c0-.7-.1-1-.4-1.2-.3-.2-.7-.3-1.3-.3,0,0-1.3,0-2.3.5,0,0,0,0,0,0,0,0-.1,0-.2,0l-.4-1c0-.1,0-.2,0-.2.5-.4,1.6-.6,1.6-.6.4,0,1-.1,1.4-.1,1,0,1.8.2,2.4.7.6.5.8,1.3.8,2.3v4.8s0,.1-.1.2ZM153.9,146.5c0,0,0,.2-.1.2h-1.4c0,0-.2,0-.2-.2v-11.1c0,0,0-.2.2-.2h1.4c0,0,.1,0,.1.2v11.1ZM162.6,142.9c0,.1-.2.1-.2.1h-5.2c0,.8.2,1.3.6,1.7.4.4,1,.6,1.8.6,1.2,0,1.8-.2,2.1-.4,0,0,.1,0,.2,0l.3,1c0,.2,0,.2,0,.2-.3.2-1.1.5-2.6.5-.7,0-1.4-.1-1.9-.3-.5-.2-1-.5-1.3-.9-.3-.4-.6-.8-.8-1.3-.2-.5-.2-1.1-.2-1.7s0-1.2.2-1.7c.2-.5.4-1,.7-1.4s.7-.7,1.2-.9c.5-.2,1.1-.3,1.7-.3.5,0,1,.1,1.5.3.3.1.7.4,1,.8.2.2.5.7.7,1.2h0c.3,1.2.2,2.2.2,2.2ZM166.9,146.8c-.9,0-1.8-.1-2.7-.6-.2,0-.3-.2-.5-.3,0,0,0,0,0-.2h0s.4-1,.4-1c0-.2.2-.1.2,0,0,0,.2.1.3.2,1.1.7,2.1.7,2.4.7.8,0,1.3-.4,1.3-1h0c0-.7-.8-.9-1.7-1.2h-.2c-1.2-.4-2.5-.9-2.5-2.5h0c0-1.5,1.2-2.5,2.9-2.5h.2c1,0,2,.3,2.6.7,0,0,.1.1,0,.2,0,0-.3.9-.4,1,0,.2-.2,0-.2,0-.6-.3-1.6-.6-2.3-.6s-1.2.4-1.2.9h0c0,.6.8.9,1.7,1.2h.2c1.2.4,2.5,1,2.5,2.4h0c0,1.6-1.1,2.6-3,2.6ZM176,139.8c0,.2-.2.2-.2.2h-1.7l-1.2,6.6c-.1.7-.3,1.3-.5,1.8-.2.5-.4.8-.7,1.2-.3.3-.6.5-1,.7-.4.1-.8.2-1.3.2s-.5,0-.8,0c-.2,0-.3,0-.5-.1,0,0-.1-.1,0-.2s.3-.9.4-1.1c0-.1.2,0,.2,0,0,0,.2,0,.3,0,.1,0,.3,0,.4,0,.2,0,.4,0,.6,0,.2,0,.3-.2.5-.4.1-.2.2-.4.4-.7.1-.3.2-.8.3-1.3l1.2-6.5h-1.2c-.1,0-.2,0-.2-.2l.2-1.1c0-.2.2-.2.2-.2h1.2v-.4c.2-1,.6-1.8,1.1-2.4.5-.5,1.3-.8,2.2-.8.2,0,.5,0,.7,0,.2,0,.3,0,.5.1,0,0,.1,0,0,.2l-.4,1.1c0,0,0,.1-.2,0,0,0-.1,0-.3,0-.1,0-.3,0-.4,0-.2,0-.4,0-.6,0-.2,0-.3.1-.4.3-.1.1-.3.3-.4.6-.2.6-.3,1.1-.3,1.2h1.7c.1,0,.2,0,.2.2l-.2,1.1ZM183.6,144.3c-.2.5-.4,1-.7,1.3-.3.4-.7.7-1.2.9-.5.2-1,.3-1.6.3s-1.2-.1-1.7-.3c-.5-.2-.9-.5-1.2-.9-.3-.4-.6-.8-.7-1.3-.2-.5-.2-1.1-.2-1.7s0-1.1.2-1.7c.2-.5.4-1,.7-1.3.3-.4.7-.7,1.2-.9.5-.2,1-.3,1.7-.3s1.2.1,1.7.3c.5.2.9.5,1.2.9.3.4.5.8.7,1.3h0c.1.5.2,1.1.2,1.7s0,1.1-.2,1.7ZM190,138.8h0c0,.1-.3.8-.4,1.1,0,0,0,.2-.2.1,0,0-.3,0-.6,0s-.5,0-.7,0c-.2,0-.5.2-.6.4-.2.2-.3.4-.5.8-.1.3-.2.8-.2,1.4v3.9c0,0,0,.2-.2.2h-1.4c0,0-.2,0-.2-.2v-7.8c0,0,0-.2.1-.2h1.3c0,0,.1,0,.1.2v.6c.2-.3.6-.5.9-.7.3-.1.7-.3,1.3-.2.3,0,.8.1.9.1,0,0,0,0,0,0,0,0,.1.1,0,.2ZM196.6,146.4c-.6.2-1.4.4-2.2.4-1.3,0-2.4-.4-3-1.1-.7-.8-1-1.8-1-3.1s0-1.2.3-1.7c.2-.5.4-1,.8-1.3.3-.4.7-.7,1.2-.9.5-.2,1.1-.3,1.7-.3s.8,0,1.2,0c.4,0,.8.2,1,.3,0,0,.1,0,0,.2-.1.4-.2.7-.4,1.1,0,.2-.2.1-.2.1-.5-.2-1-.2-1.6-.2s-1.3.3-1.7.8c-.4.5-.6,1.2-.6,2,0,1,.2,1.7.7,2.1.4.4,1,.7,1.8.7s.6,0,.8,0c.3,0,.5-.1.7-.2,0,0,.1,0,.2,0h0l.4,1c0,.1,0,.2,0,.2ZM204.3,142.9c0,.1-.2.1-.2.1h-5.2c0,.8.2,1.3.6,1.7.4.4,1,.6,1.8.6,1.2,0,1.8-.2,2.1-.4,0,0,.1,0,.2,0l.3,1c0,.2,0,.2,0,.2-.3.2-1.1.5-2.6.5-.7,0-1.4-.1-1.9-.3-.5-.2-1-.5-1.3-.9-.3-.4-.6-.8-.8-1.3-.2-.5-.2-1.1-.2-1.7s0-1.2.2-1.7c.2-.5.4-1,.7-1.4.3-.4.7-.7,1.2-.9.5-.2,1.1-.3,1.7-.3.5,0,1,.1,1.5.3.3.1.7.4,1,.8.2.2.5.7.7,1.2h0c.3,1.2.2,2.2.2,2.2Z"/>
      <path class="st18" d="M200.9,139.8c-.7,0-1.2.3-1.5.8-.2.3-.4.7-.4,1.2h3.7c0-.5-.1-.9-.3-1.2-.3-.5-.8-.8-1.5-.8Z"/>
    </g>
  </g>
  <g class="st17">
    <g class="st16">
      <g>
        <circle class="st13" cx="281.4" cy="223.8" r="41.9"/>
        <path class="st2" d="M284.9,196.8c2.6-1.3,4.4-4,4.4-7s-3.5-7.8-7.8-7.8-7.8,3.5-7.8,7.8,1.8,5.7,4.4,7v5.2h7v-5.2Z"/>
        <path class="st4" d="M277.9,250.8c-2.6,1.3-4.4,4-4.4,7s3.5,7.8,7.8,7.8,7.8-3.5,7.8-7.8-1.8-5.7-4.4-7v-5.2h-7v5.2Z"/>
        <path class="st2" d="M254.4,220.3c-1.3-2.6-4-4.4-7-4.4s-7.8,3.5-7.8,7.8,3.5,7.8,7.8,7.8,5.7-1.8,7-4.4h5.2v-7h-5.2Z"/>
        <g>
          <circle class="st11" cx="281.4" cy="225.5" r="22.7"/>
          <path class="st8" d="M291.3,229c-1.4,4.1-5.3,7-9.9,7s-10.5-4.7-10.5-10.5,4.7-10.5,10.5-10.5,8.4,2.9,9.9,7h18v7h-18Z"/>
          <path class="st11" d="M315.4,233.4c-4.3,0-7.8-3.5-7.8-7.8s3.5-7.8,7.8-7.8,7.8,3.5,7.8,7.8-3.5,7.8-7.8,7.8Z"/>
        </g>
        <g>
          <circle class="st12" cx="281.4" cy="224.1" r="22.7"/>
          <path class="st6" d="M291.3,227.6c-1.4,4.1-5.3,7-9.9,7s-10.5-4.7-10.5-10.5,4.7-10.5,10.5-10.5,8.4,2.9,9.9,7h18v7h-18Z"/>
          <path class="st12" d="M315.4,232c-4.3,0-7.8-3.5-7.8-7.8s3.5-7.8,7.8-7.8,7.8,3.5,7.8,7.8-3.5,7.8-7.8,7.8Z"/>
        </g>
        <circle class="st9" cx="281.4" cy="223.8" r="22.7"/>
        <path class="st7" d="M291.3,227.3c-1.4,4.1-5.3,7-9.9,7s-10.5-4.7-10.5-10.5,4.7-10.5,10.5-10.5,8.4,2.9,9.9,7h18v7h-18Z"/>
        <path class="st10" d="M315.4,231.6c-4.3,0-7.8-3.5-7.8-7.8s3.5-7.8,7.8-7.8,7.8,3.5,7.8,7.8-3.5,7.8-7.8,7.8Z"/>
      </g>
    </g>
  </g>
</svg>