<?xml version="1.0" encoding="UTF-8"?>
<svg id="Layer_1" xmlns="http://www.w3.org/2000/svg" xmlns:xlink="http://www.w3.org/1999/xlink" version="1.1" viewBox="0 0 613 292">
  <!-- Generator: Adobe Illustrator 29.2.1, SVG Export Plug-In . SVG Version: 2.1.0 Build 116)  -->
  <defs>
    <style>
      .st0 {
        fill: none;
      }

      .st1 {
        mask: url(#mask);
      }

      .st2 {
        fill: #fffffe;
      }

      .st2, .st3, .st4, .st5, .st6, .st7, .st8, .st9 {
        fill-rule: evenodd;
      }

      .st3 {
        fill: #9df3f9;
      }

      .st10 {
        fill: url(#linear-gradient1);
      }

      .st11 {
        fill: url(#linear-gradient3);
      }

      .st12 {
        fill: #becaf4;
      }

      .st13, .st9 {
        fill-opacity: .3;
      }

      .st14, .st7 {
        fill-opacity: .2;
      }

      .st4 {
        fill: #00a1e0;
      }

      .st15 {
        fill: url(#linear-gradient);
      }

      .st16 {
        fill: #e9edfb;
      }

      .st17 {
        clip-path: url(#clippath-1);
      }

      .st5 {
        fill: #82ebf1;
      }

      .st18 {
        fill: #fff;
      }

      .st6 {
        fill: #8df7db;
      }

      .st8 {
        fill: url(#linear-gradient2);
      }

      .st19 {
        clip-path: url(#clippath);
      }
    </style>
    <clipPath id="clippath">
      <rect class="st0" x="241.5" y="81" width="130" height="130"/>
    </clipPath>
    <clipPath id="clippath-1">
      <rect class="st0" x="417.5" y="98" width="96" height="96"/>
    </clipPath>
    <mask id="mask" x="417.5" y="98" width="96" height="96" maskUnits="userSpaceOnUse">
      <g id="mask0">
        <path class="st6" d="M417.5,146c0,4.3,2.9,7.8,6.9,8.8,3.4,16.2,16.2,28.9,32.3,32.3.9,4,4.5,6.9,8.8,6.9s7.8-2.9,8.8-6.9c16.2-3.4,28.9-16.2,32.3-32.3,4-.9,6.9-4.5,6.9-8.8s-2.9-7.8-6.9-8.8c-3.4-16.2-16.2-28.9-32.3-32.3-.9-4-4.5-6.9-8.8-6.9s-7.8,2.9-8.8,6.9c-16.2,3.4-28.9,16.2-32.3,32.3-4,.9-6.9,4.5-6.9,8.8Z"/>
      </g>
    </mask>
    <linearGradient id="linear-gradient" x1="440.4" y1="184.8" x2="490.4" y2="111.5" gradientTransform="translate(0 294) scale(1 -1)" gradientUnits="userSpaceOnUse">
      <stop offset="0" stop-color="#009ca8"/>
      <stop offset="1" stop-color="#007d85"/>
    </linearGradient>
    <linearGradient id="linear-gradient1" x1="451.6" y1="171.1" x2="486" y2="114" gradientTransform="translate(0 294) scale(1 -1)" gradientUnits="userSpaceOnUse">
      <stop offset="0" stop-color="#36e3ee"/>
      <stop offset="1" stop-color="#00b1be"/>
    </linearGradient>
    <linearGradient id="linear-gradient2" x1="448.3" y1="171.7" x2="492.5" y2="132.1" gradientTransform="translate(0 294) scale(1 -1)" gradientUnits="userSpaceOnUse">
      <stop offset="0" stop-color="#d2f6f9"/>
      <stop offset="1" stop-color="#82ebf1"/>
      <stop offset="1" stop-color="#82ebf1"/>
    </linearGradient>
    <linearGradient id="linear-gradient3" x1="514.3" y1="144.5" x2="489.6" y2="153.3" gradientTransform="translate(0 294) scale(1 -1)" gradientUnits="userSpaceOnUse">
      <stop offset="0" stop-color="#9aeef3"/>
      <stop offset="1" stop-color="#82ebf1"/>
    </linearGradient>
  </defs>
  <g class="st19">
    <g>
      <path class="st16" d="M312.6,211h-12.1c-4.1,0-7.6-3.1-8-7.1l-1.3-10.2c-2.6-.8-5.1-1.9-7.4-3.1l-8.1,6.3c-3.3,2.5-7.9,2.2-10.8-.7l-8.5-8.5c-2.9-2.8-3.2-7.4-.7-10.7l6.3-8.1c-1.2-2.4-2.2-4.9-3.1-7.4l-10.2-1.3c-4.1-.5-7.1-4-7.1-8.1v-12.1c0-4.1,3.1-7.6,7.1-8l10.2-1.3c.8-2.6,1.9-5.1,3.1-7.4l-6.3-8.1c-2.5-3.3-2.2-7.9.7-10.8l8.5-8.5c2.8-2.9,7.4-3.2,10.7-.7l8.1,6.3c2.4-1.2,4.9-2.2,7.4-3.1l1.3-10.2c.5-4.1,3.9-7.1,8-7.1h12.1c4.1,0,7.6,3.1,8,7.2l1.3,10.2c2.6.8,5.1,1.9,7.4,3.1l8.1-6.3c3.3-2.5,7.9-2.2,10.8.7l8.5,8.5c2.9,2.8,3.2,7.4.7,10.7l-6.3,8.1c1.2,2.4,2.2,4.9,3.1,7.4l10.2,1.3c4.1.5,7.1,4,7.1,8.1v12.1c0,4.1-3.1,7.6-7.1,8l-10.2,1.3c-.8,2.6-1.9,5.1-3.1,7.4l6.3,8.1c2.5,3.3,2.2,7.9-.7,10.8l-8.5,8.5c-2.8,2.9-7.4,3.2-10.7.7l-8.1-6.3c-2.4,1.2-4.9,2.2-7.4,3.1l-1.3,10.2c-.5,4.1-4,7.1-8.1,7.1ZM283.4,184.7c.4,0,.9.1,1.3.3,3,1.7,6.2,3,9.6,4,1,.3,1.8,1.2,1.9,2.3l1.5,11.9c.2,1.4,1.3,2.4,2.7,2.4h12.1c1.3,0,2.5-1,2.7-2.4l1.5-11.9c.1-1.1.9-2,1.9-2.3,3.4-1,6.6-2.3,9.6-4,.9-.5,2.1-.4,3,.2l9.5,7.4c1.1.8,2.6.8,3.5-.2l8.6-8.6c1-1,1.1-2.5.2-3.6l-7.4-9.5c-.7-.9-.8-2-.2-3,1.7-3,3-6.2,4-9.6.3-1,1.2-1.8,2.3-1.9l11.9-1.5c1.4-.2,2.4-1.3,2.4-2.7v-12.1c0-1.3-1-2.5-2.4-2.7l-11.9-1.5c-1.1-.1-2-.9-2.3-1.9-1-3.4-2.3-6.6-4-9.6-.5-.9-.4-2.1.2-3l7.4-9.5c.9-1.1.8-2.6-.2-3.5l-8.6-8.6c-.9-1-2.5-1.1-3.6-.2l-9.5,7.4c-.9.7-2,.8-3,.2-3-1.7-6.2-3-9.6-4-1-.3-1.8-1.2-1.9-2.3l-1.5-11.9c-.2-1.4-1.3-2.4-2.7-2.4h-12.1c-1.3,0-2.5,1-2.7,2.4l-1.5,11.9c-.1,1.1-.9,2-1.9,2.3-3.4,1-6.6,2.3-9.6,4-.9.5-2.1.4-3-.2l-9.5-7.4c-1.1-.9-2.6-.8-3.5.2l-8.6,8.6c-1,1-1.1,2.5-.2,3.6l7.4,9.5c.7.9.8,2,.2,3-1.7,3-3,6.2-4,9.6-.3,1-1.2,1.8-2.3,1.9l-11.9,1.5c-1.4.2-2.4,1.3-2.4,2.7v12.1c0,1.3,1,2.5,2.4,2.7l11.9,1.5c1.1.1,2,.9,2.3,1.9,1,3.4,2.3,6.6,4,9.6.5.9.4,2.1-.2,3l-7.4,9.5c-.9,1.1-.8,2.6.2,3.5l8.6,8.6c.9,1,2.5,1.1,3.6.2l9.5-7.4c.5-.4,1.1-.6,1.7-.6Z"/>
      <path class="st12" d="M329.2,142.1h-46.5c-1.6,0-2.6-1-2.6-2.6s1-2.6,2.6-2.6h46.5c1.5,0,2.6,1,2.6,2.6s-1,2.6-2.6,2.6Z"/>
      <path class="st12" d="M329.2,142.1c-.8,0-1.3-.3-1.8-.8l-15.5-15.5c-1-1-1-2.6,0-3.6,1-1,2.6-1,3.6,0l15.5,15.5c1,1,1,2.6,0,3.6-.5.5-1,.8-1.8.8Z"/>
      <path class="st12" d="M330.3,155h-46.5c-1.5,0-2.6-1-2.6-2.6s1-2.6,2.6-2.6h46.5c1.5,0,2.6,1,2.6,2.6s-1,2.6-2.6,2.6Z"/>
      <path class="st12" d="M299.3,170.5c-.8,0-1.3-.3-1.8-.8l-15.5-15.5c-1-1-1-2.6,0-3.6,1-1,2.6-1,3.6,0l15.5,15.5c1,1,1,2.6,0,3.6-.5.5-1,.8-1.8.8Z"/>
    </g>
  </g>
  <path class="st16" d="M466,252c58.3,0,105.5-47.2,105.5-105.5s-47.2-105.5-105.5-105.5-105.5,47.2-105.5,105.5,47.2,105.5,105.5,105.5Z"/>
  <path class="st18" d="M465.5,245c54.7,0,99-44.3,99-99s-44.3-99-99-99-99,44.3-99,99,44.3,99,99,99Z"/>
  <path class="st16" d="M148,251c58.3,0,105.5-47.2,105.5-105.5s-47.2-105.5-105.5-105.5-105.5,47.2-105.5,105.5,47.2,105.5,105.5,105.5Z"/>
  <path class="st18" d="M147.5,244c54.7,0,99-44.3,99-99s-44.3-99-99-99-99,44.3-99,99,44.3,99,99,99Z"/>
  <path class="st4" d="M138.1,113.7c3.7-3.8,8.8-6.2,14.5-6.2s14.1,4.2,17.6,10.5c3.1-1.4,6.5-2.1,10-2.1,13.6,0,24.6,11.1,24.6,24.9s-11,24.9-24.6,24.9-3.3-.2-4.9-.5c-3.1,5.5-9,9.2-15.7,9.2s-5.4-.6-7.9-1.8c-3.1,7.3-10.4,12.5-18.9,12.5s-16.4-5.6-19.3-13.4c-1.3.3-2.6.4-3.9.4-10.5,0-19.1-8.7-19.1-19.3s3.8-13.4,9.5-16.7c-1.2-2.8-1.8-5.8-1.8-8.8,0-12.3,10-22.2,22.2-22.2s13.6,3.4,17.6,8.7"/>
  <path class="st2" d="M107.1,146.5c0,.2,0,.2,0,.3.2.2.4.3.6.4,1.2.6,2.3.8,3.4.8,2.3,0,3.8-1.2,3.8-3.3h0c0-1.9-1.6-2.6-3.2-3.1h-.2c-1.2-.4-2.2-.8-2.2-1.5h0c0-.7.6-1.2,1.5-1.2s2.2.3,3,.8c0,0,.2.2.3,0,0-.1.4-1.2.5-1.3,0-.1,0-.2-.1-.3-.9-.5-2.1-.9-3.4-.9h-.2c-2.1,0-3.6,1.3-3.6,3.2h0c0,2,1.7,2.6,3.2,3.1h.2c1.1.4,2.1.7,2.1,1.5h0c0,.8-.6,1.3-1.7,1.3s-1.7,0-3-.9c-.2,0-.3-.2-.4-.2,0,0-.2-.1-.3.1l-.5,1.3M141.4,146.5c0,.2,0,.2,0,.3.2.2.4.3.6.4,1.2.6,2.3.8,3.4.8,2.3,0,3.8-1.2,3.8-3.3h0c0-1.9-1.6-2.6-3.2-3.1h-.2c-1.2-.4-2.2-.8-2.2-1.5h0c0-.7.6-1.2,1.5-1.2s2.2.3,3,.8c0,0,.2.2.3,0,0-.1.4-1.2.5-1.3,0-.1,0-.2-.1-.3-.9-.5-2.1-.9-3.4-.9h-.2c-2.1,0-3.6,1.3-3.6,3.2h0c0,2,1.7,2.6,3.2,3.1h.2c1.1.4,2.1.7,2.1,1.5h0c0,.8-.6,1.3-1.7,1.3s-1.7,0-3-.9c-.2,0-.3-.2-.4-.2,0,0-.2-.1-.3.1l-.5,1.3M164.9,142.5c0,1.1-.2,2-.6,2.7-.4.6-1,.9-1.9.9s-1.5-.3-1.9-.9c-.4-.6-.6-1.5-.6-2.7s.2-2,.6-2.6c.4-.6,1-.9,1.9-.9s1.5.3,1.9.9c.4.6.6,1.5.6,2.6M166.8,140.4c-.2-.6-.5-1.2-.9-1.7-.4-.5-.9-.9-1.5-1.1-.6-.3-1.3-.4-2.1-.4s-1.5.1-2.1.4c-.6.3-1.1.7-1.5,1.1-.4.5-.7,1.1-.9,1.7-.2.6-.3,1.4-.3,2.1s0,1.5.3,2.1c.2.6.5,1.2.9,1.7.4.5.9.9,1.5,1.1.6.3,1.3.4,2.1.4s1.5-.1,2.1-.4,1.1-.7,1.5-1.1c.4-.5.7-1.1.9-1.7.2-.6.3-1.4.3-2.1s0-1.5-.3-2.1M182.9,145.8c0-.2-.3-.1-.3-.1-.3.1-.6.2-.9.3-.3,0-.7,0-1.1,0-.9,0-1.7-.3-2.2-.8-.5-.6-.8-1.5-.8-2.7,0-1.1.3-1.9.8-2.6.5-.6,1.2-1,2.2-1s1.4,0,2.1.3c0,0,.1,0,.2-.1.2-.5.3-.8.5-1.3,0-.1,0-.2-.1-.2-.3-.1-.9-.3-1.3-.3-.4,0-.9,0-1.5,0-.8,0-1.6.1-2.2.4-.6.3-1.2.7-1.6,1.1-.4.5-.7,1.1-1,1.7-.2.6-.3,1.4-.3,2.1,0,1.6.4,2.9,1.3,3.9.9,1,2.2,1.5,3.9,1.5s2-.2,2.8-.5c0,0,.1,0,0-.2l-.5-1.3M186.3,141.4c0-.6.3-1.2.5-1.6.4-.6,1-1,1.9-1s1.4.3,1.9,1c.3.4.4,1,.4,1.6h-4.7,0ZM192.9,140.1c-.2-.6-.6-1.3-.8-1.6-.4-.5-.8-.8-1.3-1-.6-.3-1.2-.4-1.9-.4s-1.6.1-2.2.4c-.6.3-1.1.7-1.5,1.2-.4.5-.7,1.1-.9,1.7-.2.6-.3,1.4-.3,2.1s.1,1.5.3,2.1c.2.6.5,1.2,1,1.7.4.5,1,.8,1.7,1.1.7.3,1.5.4,2.4.4,1.9,0,2.9-.4,3.3-.7,0,0,.1-.1,0-.3l-.4-1.2c0-.2-.3-.1-.3-.1-.5.2-1.1.5-2.7.5-1,0-1.8-.3-2.3-.8-.5-.5-.7-1.2-.8-2.2h6.6s.2,0,.2-.2c0,0,.2-1.4-.2-2.9ZM133.3,141.4c0-.6.3-1.2.5-1.6.4-.6,1-1,1.9-1s1.4.3,1.9,1c.3.4.4,1,.4,1.6h-4.7,0ZM139.9,140.1c-.2-.6-.6-1.3-.8-1.6-.4-.5-.8-.8-1.3-1-.6-.3-1.2-.4-1.9-.4s-1.6.1-2.2.4c-.6.3-1.1.7-1.5,1.2-.4.5-.7,1.1-.9,1.7-.2.6-.3,1.4-.3,2.1s.1,1.5.3,2.1c.2.6.5,1.2,1,1.7.4.5,1,.8,1.7,1.1.7.3,1.5.4,2.4.4,1.9,0,2.9-.4,3.3-.7,0,0,.1-.1,0-.3l-.4-1.2c0-.2-.3-.1-.3-.1-.5.2-1.1.5-2.7.5-1,0-1.8-.3-2.3-.8-.5-.5-.7-1.2-.8-2.2h6.6s.2,0,.2-.2c0,0,.2-1.4-.2-2.9h0ZM119,145.8c-.3-.2-.3-.3-.4-.4-.1-.2-.2-.5-.2-.9,0-.6.2-1,.6-1.3,0,0,.6-.5,1.9-.5.6,0,1.2,0,1.8.2v3s-.8.2-1.8.2c-1.3,0-1.9-.4-1.9-.4h0ZM121.6,141.1c-.3,0-.6,0-1,0s-1.1,0-1.6.2c-.5.1-1,.4-1.4.6-.4.3-.7.7-1,1.1-.2.4-.4.9-.4,1.5s.1,1.1.3,1.5c.2.4.5.8.9,1,.4.3.8.5,1.3.6.5.1,1.1.2,1.8.2s1.4,0,2-.2c.6,0,1.1-.2,1.7-.3.2,0,.5-.1.5-.1.2,0,.1-.2.1-.2v-6.1c0-1.3-.4-2.3-1.1-2.9-.7-.6-1.7-.9-3-.9s-1.3,0-1.8.2c0,0-1.4.3-2,.8,0,0-.1,0,0,.3l.5,1.3c0,.2.2.1.2.1,0,0,0,0,.1,0,1.3-.7,2.9-.7,2.9-.7.7,0,1.3.1,1.6.4.4.3.5.7.5,1.6v.3c-.6,0-1.1-.1-1.1-.1h0s0,0,0,0ZM174.9,137.7c0,0,0-.2,0-.2-.1,0-.7-.2-1.1-.2-.8,0-1.3,0-1.7.3-.4.2-.9.5-1.1.8v-.8c0-.1,0-.2-.2-.2h-1.7c-.1,0-.2,0-.2.2v9.9c0,.1,0,.2.2.2h1.7c.1,0,.2,0,.2-.2v-5c0-.7,0-1.3.2-1.7.1-.4.3-.7.6-1,.2-.2.5-.4.8-.5.3,0,.6-.1.9-.1s.7,0,.7,0c.1,0,.2,0,.2-.2.1-.3.4-1.2.5-1.4"/>
  <path class="st2" d="M158.7,133.1c-.2,0-.4-.1-.7-.2-.3,0-.6,0-.9,0-1.2,0-2.1.3-2.8,1-.7.7-1.1,1.7-1.3,3v.5h-1.6s-.2,0-.2.2l-.2,1.4c0,.1,0,.2.2.2h1.5l-1.5,8.3c-.1.7-.3,1.2-.4,1.6-.1.4-.3.7-.5.9-.2.2-.3.4-.6.5-.2,0-.5.1-.8.1s-.4,0-.5,0c-.2,0-.2,0-.4-.1,0,0-.2,0-.2.1,0,.1-.4,1.2-.5,1.3,0,.1,0,.2.1.3.2,0,.3.1.6.2.4,0,.7,0,1,0,.6,0,1.2,0,1.6-.3.5-.2.9-.5,1.2-.9.4-.4.6-.9.9-1.5.2-.6.4-1.4.6-2.2l1.5-8.4h2.2s.2,0,.2-.2l.2-1.4c0-.1,0-.2-.2-.2h-2.1s.1-.8.3-1.5c.1-.3.3-.5.5-.7.2-.2.3-.3.6-.3.2,0,.5-.1.7-.1s.4,0,.5,0c.2,0,.3,0,.3,0,.2,0,.2,0,.3-.1l.5-1.4c0-.1,0-.2-.1-.2M129.1,147.4c0,.1,0,.2-.2.2h-1.8c-.1,0-.2,0-.2-.2v-14.1c0-.1,0-.2.2-.2h1.8c.1,0,.2,0,.2.2v14.1Z"/>
  <g class="st17">
    <g class="st1">
      <g>
        <circle class="st15" cx="465.5" cy="146" r="48"/>
        <path class="st3" d="M469.5,115.1c3-1.5,5-4.5,5-8.1s-4-9-9-9-9,4-9,9,2,6.6,5,8.1v5.9h8v-5.9Z"/>
        <path class="st5" d="M461.5,176.9c-3,1.5-5,4.5-5,8.1s4,9,9,9,9-4,9-9-2-6.6-5-8.1v-5.9h-8v5.9Z"/>
        <path class="st3" d="M434.6,142c-1.5-3-4.5-5-8.1-5s-9,4-9,9,4,9,9,9,6.6-2,8.1-5h5.9v-8h-5.9Z"/>
        <g>
          <circle class="st13" cx="465.5" cy="148" r="26"/>
          <path class="st9" d="M476.8,152c-1.6,4.7-6.1,8-11.3,8s-12-5.4-12-12,5.4-12,12-12,9.7,3.3,11.3,8h20.7v8h-20.7Z"/>
          <path class="st13" d="M504.5,157c-5,0-9-4-9-9s4-9,9-9,9,4,9,9-4,9-9,9Z"/>
        </g>
        <g>
          <circle class="st14" cx="465.5" cy="146.4" r="26"/>
          <path class="st7" d="M476.8,150.4c-1.6,4.7-6.1,8-11.3,8s-12-5.4-12-12,5.4-12,12-12,9.7,3.3,11.3,8h20.7v8h-20.7Z"/>
          <path class="st14" d="M504.5,155.4c-5,0-9-4-9-9s4-9,9-9,9,4,9,9-4,9-9,9Z"/>
        </g>
        <circle class="st10" cx="465.5" cy="146" r="26"/>
        <path class="st8" d="M476.8,150c-1.6,4.7-6.1,8-11.3,8s-12-5.4-12-12,5.4-12,12-12,9.7,3.3,11.3,8h20.7v8h-20.7Z"/>
        <path class="st11" d="M504.5,155c-5,0-9-4-9-9s4-9,9-9,9,4,9,9-4,9-9,9Z"/>
      </g>
    </g>
  </g>
</svg>