<?xml version="1.0" encoding="UTF-8"?>
<svg id="Layer_1" xmlns="http://www.w3.org/2000/svg" xmlns:xlink="http://www.w3.org/1999/xlink" version="1.1" viewBox="0 0 631 214">
  <!-- Generator: Adobe Illustrator 29.2.1, SVG Export Plug-In . SVG Version: 2.1.0 Build 116)  -->
  <defs>
    <style>
      .st0 {
        fill: none;
      }

      .st1 {
        mask: url(#mask);
      }

      .st2 {
        fill: #9df3f9;
      }

      .st2, .st3, .st4, .st5, .st6, .st7, .st8 {
        fill-rule: evenodd;
      }

      .st9 {
        fill: url(#linear-gradient1);
      }

      .st10 {
        fill: url(#linear-gradient3);
      }

      .st11 {
        fill: #becaf4;
      }

      .st12, .st8 {
        fill-opacity: .3;
      }

      .st13, .st6 {
        fill-opacity: .2;
      }

      .st14 {
        fill: url(#linear-gradient);
      }

      .st3 {
        fill: #264fda;
      }

      .st15 {
        clip-path: url(#clippath-1);
      }

      .st16 {
        clip-path: url(#clippath-2);
      }

      .st17 {
        fill: #fff;
        stroke: #c5cff5;
        stroke-width: 2px;
      }

      .st4 {
        fill: #82ebf1;
      }

      .st18 {
        fill: #00a1e2;
      }

      .st5 {
        fill: #8df7db;
      }

      .st7 {
        fill: url(#linear-gradient2);
      }

      .st19 {
        clip-path: url(#clippath);
      }
    </style>
    <clipPath id="clippath">
      <rect class="st0" x=".5" y=".9" width="630" height="212.1"/>
    </clipPath>
    <clipPath id="clippath-1">
      <rect class="st0" x="37.8" y="72" width="71.4" height="70"/>
    </clipPath>
    <clipPath id="clippath-2">
      <rect class="st0" x="523.5" y="74.8" width="64.5" height="64.5"/>
    </clipPath>
    <mask id="mask" x="523.5" y="74.8" width="64.5" height="64.5" maskUnits="userSpaceOnUse">
      <g id="mask0">
        <path class="st5" d="M523.5,107c0,2.9,2,5.3,4.6,5.9,2.3,10.9,10.9,19.4,21.7,21.7.6,2.7,3,4.6,5.9,4.6s5.3-2,5.9-4.6c10.9-2.3,19.4-10.9,21.7-21.7,2.7-.6,4.6-3,4.6-5.9s-2-5.3-4.6-5.9c-2.3-10.9-10.9-19.4-21.7-21.7-.6-2.7-3-4.6-5.9-4.6s-5.3,2-5.9,4.6c-10.9,2.3-19.4,10.9-21.7,21.7-2.7.6-4.6,3-4.6,5.9Z"/>
      </g>
    </mask>
    <linearGradient id="linear-gradient" x1="538.9" y1="133.7" x2="572.5" y2="84.5" gradientTransform="translate(0 216) scale(1 -1)" gradientUnits="userSpaceOnUse">
      <stop offset="0" stop-color="#009ca8"/>
      <stop offset="1" stop-color="#007d85"/>
    </linearGradient>
    <linearGradient id="linear-gradient1" x1="546.4" y1="124.5" x2="569.5" y2="86.2" gradientTransform="translate(0 216) scale(1 -1)" gradientUnits="userSpaceOnUse">
      <stop offset="0" stop-color="#36e3ee"/>
      <stop offset="1" stop-color="#00b1be"/>
    </linearGradient>
    <linearGradient id="linear-gradient2" x1="544.3" y1="124.9" x2="573.9" y2="98.3" gradientTransform="translate(0 216) scale(1 -1)" gradientUnits="userSpaceOnUse">
      <stop offset="0" stop-color="#d2f6f9"/>
      <stop offset="1" stop-color="#82ebf1"/>
      <stop offset="1" stop-color="#82ebf1"/>
    </linearGradient>
    <linearGradient id="linear-gradient3" x1="588.6" y1="106.7" x2="572" y2="112.6" gradientTransform="translate(0 216) scale(1 -1)" gradientUnits="userSpaceOnUse">
      <stop offset="0" stop-color="#9aeef3"/>
      <stop offset="1" stop-color="#82ebf1"/>
    </linearGradient>
  </defs>
  <g class="st19">
    <g>
      <path class="st11" d="M370.9,198.3l-2.1-3.5c12.6-7.3,23.3-16.9,31.8-28.6,13.3-18.2,34.8-29.1,57.6-29.1s17.5,1.7,25.6,5c8.2,3.3,15.5,8.1,21.7,14.2,13.4,13.1,31.2,20.2,50.1,20.2s47.9-12.6,60.8-33.7l3.6,2.1c-6.6,10.7-15.9,19.6-26.9,25.8-11.4,6.4-24.3,9.8-37.5,9.8-20,0-38.8-7.6-53-21.4-5.9-5.7-12.7-10.2-20.4-13.3-7.7-3.1-15.7-4.7-24-4.7-21.5,0-41.8,10.2-54.2,27.4-8.8,12.1-20,22.2-33,29.8h0Z"/>
      <path class="st11" d="M458.1,76.9c-11.2,0-22.4-2.6-32.3-7.7-10-5-18.6-12.4-25.1-21.3-8.4-11.6-19.4-21.5-31.8-28.7l2.1-3.5c12.9,7.5,24.4,17.8,33.1,29.9,6.1,8.4,14.3,15.3,23.6,20.1,9.4,4.7,19.9,7.2,30.4,7.2,16.7,0,32.6-6.5,44.8-18.2,13.4-12.9,31-20.4,49.8-21.1,14-.5,27.7,2.6,39.7,9,11.6,6.2,21.3,15.4,28,26.6l-3.6,2.1c-13.1-21.7-37.6-34.6-64-33.6-17.7.7-34.4,7.8-47,20-13,12.5-29.9,19.4-47.7,19.4h0Z"/>
      <path class="st11" d="M621.5,77.5c-.1,0-.3,0-.4,0-.1,0-.3,0-.4-.1-.1,0-.2-.1-.4-.2-.1,0-.2-.2-.3-.3,0,0-.2-.2-.3-.3,0-.1-.1-.2-.2-.4,0-.1,0-.2-.1-.4,0-.1,0-.3,0-.4s0-.3,0-.4c0-.1,0-.3.1-.4,0-.1.1-.2.2-.4,0-.1.2-.2.3-.3,0,0,.2-.2.3-.3.1,0,.2-.1.4-.2.1,0,.3,0,.4-.1.3,0,.5,0,.8,0,.1,0,.3,0,.4.1.1,0,.2.1.4.2.1,0,.2.2.3.3,0,0,.2.2.3.3,0,.1.1.2.2.4,0,.1,0,.2.1.4,0,.1,0,.3,0,.4s0,.3,0,.4c0,.1,0,.3-.1.4,0,.1-.1.2-.2.4,0,.1-.2.2-.3.3,0,0-.2.2-.3.3-.1,0-.2.1-.4.2-.1,0-.3,0-.4.1-.1,0-.3,0-.4,0Z"/>
      <path class="st11" d="M619.6,76.3c-.5-1,0-2.2,1-2.7,1-.5,2.3,0,2.8.9.5,1,0,2.2-1,2.7-.3.1-.6.2-.9.2-.8,0-1.5-.4-1.9-1.2h0Z"/>
      <path class="st11" d="M625.4,128.3c-.9-.3-1.5-1.1-1.5-2,0-.2,0-.4,0-.6.3-1.1,1.5-1.7,2.6-1.4.9.3,1.5,1.1,1.5,2s0,.4,0,.6c-.3.9-1.1,1.5-2,1.5s-.4,0-.6,0h0ZM628.2,115.6c-1.1,0-1.9-1-1.9-2,0,0,0-.1,0-.2.1-1.1,1.1-1.9,2.3-1.8,1.1,0,1.9,1,1.9,2s0,.1,0,.2c0,1.1-1,1.9-2.1,1.9s-.1,0-.2,0h0ZM626.4,100.7c0,0,0-.1,0-.2,0-1,.8-1.9,1.9-2,1.1,0,2.1.7,2.2,1.9,0,0,0,.1,0,.2,0,1-.8,1.9-1.9,2,0,0-.1,0-.2,0-1.1,0-2-.8-2.1-1.9h0ZM624.1,88.2c0-.2,0-.4,0-.5,0-.9.6-1.7,1.5-2,1.1-.3,2.2.3,2.5,1.4,0,.2,0,.4,0,.5,0,.9-.6,1.7-1.5,2-.2,0-.4,0-.5,0-.9,0-1.8-.6-2-1.5Z"/>
      <path class="st11" d="M621.2,140.6c-.1,0-.3,0-.4,0-.1,0-.3,0-.4-.1-.1,0-.2-.1-.4-.2-.1,0-.2-.2-.3-.3-.4-.4-.6-.9-.6-1.4s0-.3,0-.4c0-.1,0-.3.1-.4,0-.1.1-.2.2-.4,0-.1.2-.2.3-.3,0,0,.2-.2.3-.3.1,0,.2-.1.4-.2.1,0,.3,0,.4-.1.3,0,.5,0,.8,0,.1,0,.3,0,.4.1.1,0,.2.1.4.2.1,0,.2.2.3.3,0,0,.2.2.3.3,0,.1.1.2.2.4,0,.1,0,.2.1.4,0,.1,0,.3,0,.4,0,.5-.2,1.1-.6,1.4,0,0-.2.2-.3.3-.1,0-.2.1-.4.2-.1,0-.3,0-.4.1-.1,0-.3,0-.4,0Z"/>
      <path class="st11" d="M9.5,77.5c-.5,0-1.1-.2-1.5-.6,0,0-.2-.2-.3-.3,0-.1-.1-.2-.2-.4,0-.1,0-.2-.1-.4,0-.1,0-.3,0-.4s0-.3,0-.4c0-.1,0-.3.1-.4,0-.1.1-.2.2-.4,0-.1.2-.2.3-.3,0,0,.2-.2.3-.3.1,0,.2-.1.4-.2.1,0,.3,0,.4-.1.3,0,.5,0,.8,0,.1,0,.3,0,.4.1.1,0,.2.1.4.2.1,0,.2.2.3.3.4.4.6.9.6,1.4s0,.3,0,.4c0,.1,0,.3-.1.4,0,.1-.1.2-.2.4,0,.1-.2.2-.3.3,0,0-.2.2-.3.3-.1,0-.2.1-.4.2-.1,0-.3,0-.4.1-.1,0-.3,0-.4,0h0Z"/>
      <path class="st11" d="M8.6,77.3c-1-.5-1.5-1.7-1-2.7.5-1,1.7-1.4,2.8-.9,1,.5,1.5,1.7,1,2.7-.4.7-1.1,1.2-1.9,1.2s-.6,0-.9-.2h0Z"/>
      <path class="st11" d="M3,126.9c0-.2,0-.4,0-.6,0-.9.6-1.7,1.5-2,1.1-.3,2.2.3,2.6,1.4h0c0,.2,0,.4,0,.6,0,.9-.6,1.7-1.5,2-.2,0-.4,0-.6,0-.9,0-1.7-.6-2-1.5h0ZM.5,113.7c0,0,0-.1,0-.2,0-1,.8-1.9,1.9-2,1.1-.1,2.1.7,2.3,1.8,0,0,0,.1,0,.2,0,1-.8,1.9-1.9,2,0,0-.1,0-.2,0-1.1,0-2-.8-2.1-1.9h0ZM2.4,102.5c-1.1,0-1.9-1-1.9-2,0,0,0-.1,0-.2,0-1.1,1.1-2,2.2-1.9,1.1,0,1.9,1,1.9,2,0,0,0,.1,0,.2,0,1.1-1,1.9-2.1,1.9s-.1,0-.2,0h0ZM4.3,89.6c-.9-.2-1.5-1.1-1.5-2s0-.4,0-.5h0c.3-1.1,1.4-1.7,2.5-1.4.9.2,1.5,1.1,1.5,2,0,.2,0,.4,0,.5-.3.9-1.1,1.5-2,1.5s-.4,0-.5,0Z"/>
      <path class="st11" d="M9.8,140.6c-.5,0-1.1-.2-1.5-.6,0,0-.2-.2-.3-.3,0-.1-.1-.2-.2-.4,0-.1,0-.2-.1-.4,0-.1,0-.3,0-.4s0-.3,0-.4c0-.1,0-.3.1-.4,0-.1.1-.2.2-.4,0-.1.2-.2.3-.3.5-.5,1.2-.7,1.9-.6.1,0,.3,0,.4.1.1,0,.2.1.4.2.1,0,.2.2.3.3,0,0,.2.2.3.3,0,.1.1.2.2.4,0,.1,0,.2.1.4,0,.1,0,.3,0,.4,0,.5-.2,1.1-.6,1.4,0,0-.2.2-.3.3-.1,0-.2.1-.4.2-.1,0-.3,0-.4.1-.1,0-.3,0-.4,0h0Z"/>
      <path class="st11" d="M260.1,198.3c-13.1-7.6-24.2-17.6-33-29.8-6.1-8.4-14.3-15.4-23.7-20.1-9.4-4.7-19.9-7.2-30.5-7.2-16.7,0-32.5,6.4-44.4,18-14.2,13.8-33,21.4-53,21.4s-26.2-3.4-37.5-9.8c-11-6.2-20.3-15.2-26.9-25.8l3.6-2.1c13,21.1,35.7,33.7,60.8,33.7s36.7-7.2,50.1-20.2c12.7-12.4,29.5-19.2,47.3-19.2s22.4,2.7,32.4,7.7c10,5,18.7,12.4,25.2,21.4,8.5,11.7,19.2,21.3,31.8,28.6l-2.1,3.5h0Z"/>
      <path class="st11" d="M172.9,76.9c-8.9,0-17.5-1.7-25.8-5.1-8.1-3.3-15.5-8.1-21.9-14.3-12.6-12.2-29.3-19.3-47-20-26.3-1-50.8,11.9-64,33.6l-3.6-2.1c6.7-11.1,16.4-20.3,28-26.6,12-6.4,25.7-9.6,39.7-9,18.7.7,36.4,8.2,49.8,21.1,6,5.8,12.9,10.3,20.6,13.5,7.7,3.2,15.9,4.8,24.2,4.8,21.4,0,41.6-10.2,54-27.3,8.7-12,20.2-22.3,33.1-29.9l2.1,3.5c-12.4,7.2-23.5,17.2-31.8,28.7-13.2,18.1-34.6,29-57.4,29h0Z"/>
      <path class="st11" d="M267.8,202.1c-.5,0-1.1-.2-1.5-.6,0,0-.2-.2-.3-.3,0-.1-.1-.2-.2-.4,0-.1,0-.2-.1-.4,0-.1,0-.3,0-.4s0-.3,0-.4c0-.1,0-.3.1-.4,0-.1.1-.2.2-.4,0-.1.2-.2.3-.3.4-.4.9-.6,1.5-.6s1.1.2,1.5.6c0,0,.2.2.3.3,0,.1.1.2.2.4,0,.1,0,.2.1.4,0,.1,0,.3,0,.4s0,.3,0,.4c0,.1,0,.3-.1.4,0,.1-.1.2-.2.4,0,.1-.2.2-.3.3-.4.4-.9.6-1.5.6Z"/>
      <path class="st11" d="M266.8,201.9c-1-.5-1.4-1.7-.9-2.7.5-1,1.8-1.4,2.8-.9,1,.5,1.4,1.7.9,2.7-.4.7-1.1,1.1-1.9,1.1s-.6,0-.9-.2Z"/>
      <path class="st11" d="M313.4,211.1s0,0,0-.1c0-1.1.9-2,2-2,1.1,0,2.1.8,2.2,1.9,0,0,0,0,0,.1,0,1.1-.9,2-2,2,0,0,0,0-.1,0-1.1,0-2-.8-2.1-1.9ZM325.8,210.6c0,0,0-.2,0-.2,0-1,.8-1.9,1.8-2,1.1-.1,2.2.7,2.3,1.8,0,0,0,.2,0,.2,0,1-.8,1.9-1.8,2,0,0-.2,0-.2,0-1,0-1.9-.8-2.1-1.8h0ZM302.9,212.4c-1.1-.1-1.8-1-1.8-2s0-.2,0-.2c.1-1.1,1.2-1.9,2.3-1.8,1.1.1,1.8,1,1.8,2s0,.2,0,.2c-.1,1-1,1.8-2.1,1.8s-.2,0-.2,0h0ZM338,208.8c0-.2,0-.3,0-.5,0-.9.6-1.8,1.6-2,1.1-.3,2.2.4,2.5,1.5,0,.1,0,.3,0,.5,0,.9-.6,1.8-1.6,2-.2,0-.3,0-.5,0-.9,0-1.8-.6-2-1.6h0ZM290.5,210.3c-1-.2-1.6-1.1-1.6-2,0-.2,0-.3,0-.5.3-1.1,1.4-1.8,2.5-1.5,1,.2,1.6,1.1,1.6,2,0,.1,0,.3,0,.5-.2.9-1.1,1.6-2,1.6s-.3,0-.5,0ZM349.9,205.5c0-.2-.1-.5-.1-.7,0-.8.5-1.6,1.4-1.9,1.1-.4,2.3.2,2.7,1.2,0,.2.1.5.1.7,0,.8-.5,1.6-1.4,1.9-.2,0-.5.1-.7.1-.8,0-1.6-.5-1.9-1.3h0ZM278.4,206.8c-.8-.3-1.4-1.1-1.4-1.9,0-.2,0-.5.1-.7.4-1.1,1.6-1.6,2.7-1.2h0c.8.3,1.4,1.1,1.4,1.9,0,.2,0,.5-.1.7-.3.8-1.1,1.3-2,1.3s-.5,0-.7-.1Z"/>
      <path class="st11" d="M363.2,202.1c-.5,0-1.1-.2-1.5-.6,0,0-.2-.2-.3-.3,0-.1-.1-.2-.2-.4,0-.1,0-.2-.1-.4,0-.1,0-.3,0-.4s0-.3,0-.4c0-.1,0-.3.1-.4,0-.1.1-.2.2-.4,0-.1.2-.2.3-.3.4-.4.9-.6,1.5-.6s1.1.2,1.5.6c0,0,.2.2.3.3,0,.1.1.2.2.4,0,.1,0,.2.1.4,0,.1,0,.3,0,.4s0,.3,0,.4c0,.1,0,.3-.1.4,0,.1-.1.2-.2.4,0,.1-.2.2-.3.3-.4.4-.9.6-1.5.6h0Z"/>
      <path class="st11" d="M267.8,16c-.1,0-.3,0-.4,0-.1,0-.3,0-.4-.1-.1,0-.2-.1-.4-.2-.1,0-.2-.2-.3-.3-.4-.4-.6-.9-.6-1.4s0-.3,0-.4c0-.1,0-.3.1-.4,0-.1.1-.2.2-.4,0-.1.2-.2.3-.3.5-.5,1.2-.7,1.9-.6.1,0,.3,0,.4.1.1,0,.2.1.4.2.1,0,.2.2.3.3,0,0,.2.2.3.3,0,.1.1.2.2.4,0,.1,0,.2.1.4,0,.1,0,.3,0,.4,0,.5-.2,1.1-.6,1.4,0,0-.2.2-.3.3-.1,0-.2.1-.4.2-.1,0-.3,0-.4.1-.1,0-.3,0-.4,0h0Z"/>
      <path class="st11" d="M265.9,14.9c-.5-1,0-2.2.9-2.7,1-.5,2.3,0,2.8.9.5,1,0,2.2-.9,2.7-.3.1-.6.2-.9.2-.8,0-1.5-.4-1.9-1.1Z"/>
      <path class="st11" d="M277.2,9.9c0-.2-.1-.5-.1-.7,0-.8.5-1.6,1.4-1.9,1.1-.4,2.3.2,2.7,1.2,0,.2.1.5.1.7,0,.8-.5,1.6-1.4,1.9-.2,0-.5.1-.7.1-.9,0-1.6-.5-2-1.3h0ZM351.2,11.1c-.8-.3-1.4-1.1-1.4-1.9,0-.2,0-.5.1-.7.4-1.1,1.6-1.6,2.7-1.2.8.3,1.4,1.1,1.4,1.9,0,.2,0,.5-.1.7-.3.8-1.1,1.3-2,1.3s-.5,0-.7-.1ZM289,6.2c0-.2,0-.3,0-.5,0-.9.6-1.8,1.6-2,1.1-.3,2.2.4,2.5,1.5,0,.1,0,.3,0,.5,0,.9-.6,1.8-1.6,2-.2,0-.3,0-.5,0-.9,0-1.8-.6-2-1.6h0ZM339.5,7.7c-1-.2-1.6-1.1-1.6-2,0-.1,0-.3,0-.5.3-1.1,1.4-1.8,2.5-1.5,1,.2,1.6,1.1,1.6,2s0,.3,0,.5c-.2.9-1.1,1.6-2,1.6s-.3,0-.5,0ZM301.1,3.9c0,0,0-.2,0-.2,0-1,.8-1.9,1.8-2,1.1-.1,2.2.7,2.3,1.8,0,0,0,.2,0,.2,0,1-.8,1.9-1.8,2,0,0-.2,0-.2,0-1,0-1.9-.8-2.1-1.8h0ZM327.6,5.7c-1.1-.1-1.8-1-1.8-2,0,0,0-.2,0-.2.1-1.1,1.2-1.9,2.3-1.8,1.1.1,1.8,1,1.8,2,0,0,0,.2,0,.2-.1,1-1,1.8-2.1,1.8s-.2,0-.2,0h0ZM315.4,5c-1.1,0-2-1-2-2,0,0,0,0,0-.1,0-1.1,1-2,2.2-1.9h0c1.1,0,2,1,2,2h0c0,1.2-1,2-2.1,2s0,0-.1,0h0Z"/>
      <path class="st11" d="M363.2,16c-.1,0-.3,0-.4,0-.1,0-.3,0-.4-.1-.1,0-.2-.1-.4-.2-.1,0-.2-.2-.3-.3-.4-.4-.6-.9-.6-1.4s0-.3,0-.4c0-.1,0-.3.1-.4,0-.1.1-.2.2-.4,0-.1.2-.2.3-.3,0,0,.2-.2.3-.3.1,0,.2-.1.4-.2.1,0,.3,0,.4-.1.3,0,.5,0,.8,0,.1,0,.3,0,.4.1.1,0,.2.1.4.2.1,0,.2.2.3.3,0,0,.2.2.3.3,0,.1.1.2.2.4,0,.1,0,.2.1.4,0,.1,0,.3,0,.4,0,.5-.2,1.1-.6,1.4,0,0-.2.2-.3.3-.1,0-.2.1-.4.2-.1,0-.3,0-.4.1-.1,0-.3,0-.4,0h0Z"/>
      <path class="st17" d="M135,107c0,34.2-27.5,62-61.5,62s-61.5-27.8-61.5-62,27.5-62,61.5-62,61.5,27.8,61.5,62Z"/>
      <g class="st15">
        <g>
          <path class="st18" d="M57.9,105.7c-.4,0-.7,0-1.1,0-.8,0-1.2.3-1.2.3-.2.2-.4.4-.4.8s0,.4.1.5c0,0,0,.1.2.2h0s.4.3,1.2.2c.6,0,1.1-.1,1.1-.1h0v-1.8Z"/>
          <path class="st18" d="M82.7,103.3c-.5,0-.9.2-1.2.6-.3.4-.4.9-.4,1.6s.1,1.2.4,1.6c.3.4.6.6,1.2.6s.9-.2,1.2-.6c.3-.4.4-.9.4-1.6,0-.7-.1-1.2-.4-1.6-.3-.4-.6-.6-1.2-.6Z"/>
          <path class="st18" d="M66.1,103.3c-.5,0-.9.2-1.2.6-.2.2-.3.6-.3,1h2.9c0-.4-.1-.7-.3-1-.3-.4-.6-.6-1.2-.6Z"/>
          <path class="st18" d="M93.8,89.1c-2.1,0-4.3.4-6.2,1.3-2.2-3.8-6.3-6.4-11-6.4s-6.7,1.5-9,3.8h0c-2.5-3.2-6.5-5.3-11-5.3-7.7,0-13.9,6.1-13.9,13.6,0,1.9.4,3.7,1.1,5.4-3.6,2.1-6,5.9-6,10.2,0,6.5,5.3,11.8,11.9,11.8s1.6,0,2.4-.2c1.8,4.8,6.5,8.2,12,8.2s9.8-3.2,11.8-7.7c1.5.7,3.2,1.1,4.9,1.1,4.2,0,7.9-2.3,9.8-5.7,1,.2,2,.3,3,.3,8.5,0,15.4-6.8,15.4-15.2s-6.9-15.2-15.4-15.2ZM53.2,106.8c0,1.2-.9,2-2.4,2s-1.4-.1-2.1-.5c-.1,0-.3-.1-.4-.2,0,0,0,0,0-.2h0s.3-.8.3-.8c0-.1.2,0,.2,0,0,0,.1,0,.2.1.9.5,1.6.5,1.9.5.6,0,1-.3,1-.8h0c0-.5-.6-.7-1.3-.9h-.2c-1-.3-2-.7-2-1.9h0c0-1.2.9-2,2.3-2h.1c.8,0,1.5.2,2.1.6,0,0,0,0,0,.2,0,0-.3.7-.3.8,0,.1-.2,0-.2,0-.5-.3-1.2-.5-1.9-.5s-.9.3-.9.7h0c0,.5.6.7,1.4.9h.1c1,.3,2,.8,2,1.9h0ZM59.2,108.4s-.2,0-.3,0c-.3,0-.7.1-1,.2-.4,0-.8.1-1.3.1s-.8,0-1.1-.1c-.3,0-.6-.2-.8-.4-.2-.2-.4-.4-.5-.6-.1-.3-.2-.6-.2-.9s0-.7.2-.9c.1-.3.4-.5.6-.7.2-.2.5-.3.9-.4.3,0,.7-.1,1-.1s.5,0,.6,0h0s.3,0,.7,0v-.2c0-.5-.1-.8-.3-1-.2-.2-.6-.3-1-.3,0,0-1,0-1.8.4,0,0,0,0,0,0,0,0,0,0-.1,0l-.3-.8c0-.1,0-.2,0-.2.4-.3,1.3-.5,1.3-.5.3,0,.8-.1,1.1-.1.8,0,1.5.2,1.9.6.4.4.7,1,.7,1.8v3.7s0,.1,0,.1ZM61.9,108.5c0,0,0,.1-.1.1h-1.1c0,0-.1,0-.1-.1v-8.7c0,0,0-.1.1-.1h1.1c0,0,.1,0,.1.1v8.7ZM68.8,105.7c0,.1-.1.1-.1.1h-4.1c0,.6.2,1.1.5,1.3.3.3.8.5,1.4.5,1,0,1.4-.2,1.7-.3,0,0,.1,0,.2,0l.3.7c0,.1,0,.2,0,.2-.3.1-.9.4-2.1.4-.6,0-1.1,0-1.5-.2-.4-.2-.8-.4-1-.7-.3-.3-.5-.6-.6-1-.1-.4-.2-.8-.2-1.3s0-.9.2-1.3c.1-.4.3-.8.6-1.1.3-.3.6-.5,1-.7.4-.2.8-.3,1.4-.3.4,0,.8,0,1.2.2.3.1.5.3.8.6.2.2.4.6.5.9h0c.3.9.1,1.7.1,1.7ZM72.2,108.8c-.7,0-1.4-.1-2.1-.5-.1,0-.3-.1-.4-.2,0,0,0,0,0-.2h0s.3-.8.3-.8c0-.1.2,0,.2,0,0,0,.1,0,.2.1.8.5,1.6.5,1.9.5.6,0,1-.3,1-.8h0c0-.5-.6-.7-1.3-.9h-.2c-1-.3-2-.7-2-1.9h0c0-1.2.9-2,2.3-2h.1c.8,0,1.5.2,2.1.6,0,0,0,0,0,.2,0,0-.3.7-.3.8,0,.1-.2,0-.2,0-.5-.3-1.2-.5-1.9-.5s-.9.3-.9.7h0c0,.5.6.7,1.4.9h.1c1,.3,2,.7,2,1.9h0c0,1.3-.9,2-2.4,2ZM79.4,103.3c0,.1-.1.1-.1.1h-1.4l-.9,5.2c0,.5-.2,1-.4,1.4-.1.4-.3.6-.5.9-.2.2-.5.4-.8.5-.3.1-.6.2-1,.2s-.4,0-.6,0c-.2,0-.3,0-.4-.1,0,0,0,0,0-.2,0,0,.3-.7.3-.8,0-.1.1,0,.1,0,0,0,.1,0,.2,0,0,0,.2,0,.3,0,.2,0,.3,0,.5,0,.2,0,.3-.2.4-.3.1-.1.2-.3.3-.6,0-.3.2-.6.2-1l.9-5.1h-.9c-.1,0-.1,0-.1-.1l.2-.8c0-.1.1-.1.1-.1h.9v-.3c.2-.8.5-1.4.9-1.8.4-.4,1-.6,1.8-.6.2,0,.4,0,.6,0,.1,0,.3,0,.4,0,0,0,.1,0,0,.1l-.3.9c0,0,0,.1-.2,0,0,0,0,0-.2,0,0,0-.2,0-.3,0-.2,0-.3,0-.4,0-.1,0-.2.1-.3.2-.1.1-.2.2-.3.4-.2.4-.2.9-.2.9h1.3c.1,0,.1,0,.1.1l-.2.8ZM85.5,106.8c-.1.4-.3.7-.6,1-.2.3-.6.5-.9.7-.4.2-.8.3-1.3.3s-.9,0-1.3-.3c-.4-.2-.7-.4-.9-.7-.2-.3-.4-.6-.6-1-.1-.4-.2-.8-.2-1.3s0-.9.2-1.3c.1-.4.3-.7.6-1,.2-.3.6-.5.9-.7.4-.2.8-.3,1.3-.3s.9,0,1.3.3c.4.2.7.4.9.7.2.3.4.6.6,1h0c.1.4.2.8.2,1.3s0,.9-.2,1.3ZM90.6,102.5h0c0,0-.2.6-.3.8,0,0,0,.1-.2.1,0,0-.2,0-.5,0s-.4,0-.6,0c-.2,0-.4.2-.5.3-.2.1-.3.3-.4.6,0,.3-.1.7-.1,1.1v3c0,0,0,.1-.1.1h-1.1c0,0-.1,0-.1-.1v-6c0,0,0-.1.1-.1h1.1c0,0,.1,0,.1.1v.5c.2-.2.4-.4.7-.5.3-.1.5-.2,1.1-.2.3,0,.6,0,.7.1,0,0,0,0,0,0,0,0,0,0,0,.1ZM95.8,108.4c-.5.2-1.1.3-1.7.3-1.1,0-1.9-.3-2.4-.9-.5-.6-.8-1.4-.8-2.4s0-.9.2-1.3c.1-.4.3-.7.6-1,.3-.3.6-.5,1-.7.4-.2.8-.3,1.4-.3s.7,0,.9,0c.3,0,.7.1.8.2,0,0,.1,0,0,.1-.1.3-.2.5-.3.8,0,.1-.1,0-.1,0-.4-.1-.8-.2-1.3-.2s-1.1.2-1.4.6c-.3.4-.5.9-.5,1.6,0,.7.2,1.3.5,1.6.3.3.8.5,1.4.5s.5,0,.7,0c.2,0,.4,0,.6-.2,0,0,.1,0,.2,0h0l.3.8c0,.1,0,.1,0,.1ZM101.9,105.7c0,.1-.1.1-.1.1h-4.1c0,.6.2,1.1.5,1.3.3.3.8.5,1.4.5,1,0,1.4-.2,1.7-.3,0,0,.1,0,.2,0l.3.7c0,.1,0,.2,0,.2-.3.1-.9.4-2.1.4-.6,0-1.1,0-1.5-.2-.4-.2-.8-.4-1-.7-.3-.3-.5-.6-.6-1-.1-.4-.2-.8-.2-1.3s0-.9.2-1.3c.1-.4.3-.8.6-1.1.3-.3.6-.5,1-.7.4-.2.8-.3,1.4-.3.4,0,.8,0,1.2.2.3.1.5.3.8.6.2.2.4.6.5.9h0c.3.9.1,1.7.1,1.7Z"/>
          <path class="st18" d="M99.2,103.3c-.5,0-.9.2-1.2.6-.2.2-.3.6-.3,1h2.9c0-.4-.1-.7-.3-1-.3-.4-.6-.6-1.2-.6Z"/>
        </g>
      </g>
      <path class="st17" d="M605.5,107c0,27.5-22.3,49.7-49.7,49.7s-49.7-22.3-49.7-49.7,22.3-49.7,49.7-49.7,49.7,22.3,49.7,49.7Z"/>
      <path class="st17" d="M391.6,107c0,42.4-34.4,76.8-76.8,76.8s-76.8-34.4-76.8-76.8,34.4-76.8,76.8-76.8,76.8,34.4,76.8,76.8Z"/>
      <path class="st3" d="M300.3,88.7c5.1-10.5,15.7-14.3,24.6-12.1,8.9,2.2,16.8,10.8,16.6,22.3.6.1,1.1.3,1.7.4,1.2.3,2.4.5,3.6,1,6.5,2.5,10.5,9.2,9.8,16.2-.7,7.7-6.1,13.4-13.2,14.4-.8.1-1.6.2-2.4.2-17,0-33.9,0-50.9,0-10,0-17.7-8.3-17-18.5.5-7.1,4.1-12.1,10.5-15,0,0,0,0,0,0,.4-.2.8-.3.9-1,1.5-7,8.9-11,15.5-7.9,0,0,.1,0,.2,0,0,0,0,0,.1,0h0ZM306,120.3h-19.3v-5.8h14.1c1.2,2.4,3,4.4,5.2,5.8ZM326,112.4c.7-1.6,1-3.3,1-5.1h0v-.3h0c0-.2,0-.2,0-.3s0,0,0-.1h0c0,0,0-.1,0-.2,0,0,0,0,0,0h0c0-.1,0-.2,0-.3h0c0-.1,0-.2,0-.3h0c0-.1,0-.2,0-.4,0,0,0,0,0,0h0s0,0,0,0h0c0,0,0-.2,0-.2,0,0,0,0,0,0,0,0,0,0,0,0,0,0,0,0,0-.1,0,0,0,0,0-.1h0s0,0,0,0h0c0,0,0-.1,0-.2,0,0,0,0,0,0,0,0,0,0,0,0,0,0,0,0,0,0,0,0,0-.2,0-.3,0,0,0,0,0,0,0,0,0-.2,0-.3,0,0,0,0,0-.1h0s0,0,0,0c0,0,0,0,0,0,0,0,0-.1,0-.2,0,0,0,0,0,0,0,0,0-.1,0-.2h0c0-.1,0-.1,0-.1,0,0,0,0,0,0,0,0,0,0,0,0,0,0,0,0,0,0,0,0,0-.2,0-.3,0,0,0-.1,0-.2,0,0,0,0,0,0,0,0,0-.2-.1-.3,0,0,0-.2-.1-.3h0c0,0,0-.1,0-.2,0,0,0,0,0-.1,0,0,0,0,0,0h0c0,0,0-.2-.1-.3,0,0,0,0,0,0,0,0,0,0,0,0,0,0,0-.1-.1-.2,0-.1-.1-.2-.2-.4,0,0,0-.1-.1-.2,0,0,0,0,0,0,0,0,0,0,0,0,0,0,0-.1-.1-.2,0,0,0,0,0,0,0,0,0-.1-.1-.2,0,0,0,0,0,0,0,0,0,0,0,0,0,0,0,0,0-.1,0,0,0,0,0,0,0,0,0,0,0-.1,0,0,0,0,0-.1,0,0,0-.1-.1-.2h0c0-.1,0-.2,0-.2,0,0,0-.1-.1-.2,0,0-.1-.1-.2-.2h0c0,0-.1-.2-.2-.3h0s0,0,0,0h0c0,0-.1-.2-.2-.2,0,0-.2-.2-.2-.2,0,0-.1-.1-.2-.2,0,0,0,0,0,0,0,0,0,0-.1-.1,0,0,0,0,0,0,0,0,0,0,0,0,0,0,0,0-.2-.1-.1-.1-.3-.2-.4-.3,0,0,0,0-.1,0,0,0,0,0,0,0,0,0-.1,0-.2-.1h-.2c0-.1,0-.1,0-.1,0,0,0,0,0,0,0,0,0,0,0,0,0,0,0,0-.1,0,0,0,0,0,0,0,0,0,0,0,0,0,0,0,0,0-.1,0,0,0-.1,0-.2-.1,0,0-.1,0-.2-.1,0,0,0,0,0,0,0,0-.1,0-.2-.1,0,0,0,0,0,0,0,0,0,0,0,0,0,0,0,0,0,0,0,0,0,0,0,0,0,0,0,0,0,0h-.2c-.2-.2-.3-.2-.5-.3,0,0,0,0,0,0,0,0,0,0,0,0h-.2c0-.1-.3-.2-.3-.2h-.2c0,0,0,0,0,0h-.2c0,0,0,6.5,0,6.5,0,0,.1,0,.2.1,0,0,0,0,.1,0,0,0,0,0,0,0,0,0,0,0,0,0,0,0,.1,0,.2.1h0c0,0,.1.1.2.2,0,0,.1.1.2.2,0,0,.1.1.2.2,0,.1.2.2.3.3,0,0,0,0,0,0s0,0,0,0c0,0,0,0,0,0,0,0,0,0,0,.1,0,0,0,0,0,0,0,0,0,0,0,0,0,0,0,0,0,0,0,0,0,0,0,.1,0,0,0,0,0,0,0,0,0,0,0,0,0,0,0,0,0,0,0,0,0,0,0,0,0,0,0,0,0,0,0,0,0,0,0,.1,0,0,0,.1,0,.2,0,0,0,0,0,0,0,0,0,0,0,.2,0,0,0,.1,0,.2,0,0,0,.2.1.3h0s0,0,0,0,0,0,0,0c0,0,0,0,0,0h0s0,0,0,0c0,0,0,0,0,.1,0,0,0,0,0,.2,0,.2.1.3.2.5,0,0,0,0,0,0,0,0,0,0,0,0,0,0,0,.2,0,.2h0c0,.1,0,.2,0,.2,0,0,0,0,0,0,0,0,0,0,0,0,0,0,0,0,0,0h0s0,0,0,0,0,0,0,0c0,0,0,0,0,.1h0c0,0,0,0,0,.1v.2s0,0,0,.1c0,0,0,0,0,0h0s0,0,0,0,0,0,0,0h0c0,.2,0,.3,0,.4,0,2-.8,3.8-2.1,5.1h6.7,0ZM316.5,90.6v10.4c0,1.3-1,2.4-2.3,2.4s-2.3-1.1-2.3-2.4v-10.4c0-1.3,1-2.4,2.3-2.4s1.2.3,1.6.7c.4.4.7,1,.7,1.7h0ZM339.4,111.4l10.2,5.9-10,6.2v-3.1h-26.6c-3.9-.4-7.4-2.6-9.4-5.8-1.3-2.1-2.1-4.6-2.1-7.2v-.3h0c0-.1,0-.2,0-.2,0,0,0,0,0-.1h0c0-.2,0-.3,0-.3h0c0-.2,0-.3,0-.3h0c0-.2,0-.2,0-.3h0c0-.1,0-.2,0-.4,0,0,0,0,0,0h0c0,0,0-.2,0-.2,0,0,0,0,0,0,0,0,0,0,0,0,0,0,0-.2,0-.3h0s0,0,0,0h0c0,0,0,0,0-.1,0,0,0,0,0,0,0,0,0,0,0,0,0,0,0,0,0,0,0,0,0-.2,0-.3,0,0,0,0,0,0,0-.1,0-.2,0-.3,0,0,0,0,0,0,0,0,0-.2,0-.2,0,0,0,0,0,0s0,0,0,0c0,0,0,0,0,0,0,0,0,0,0,0,0,0,0,0,0,0,0,0,0-.1,0-.2,0,0,0,0,0,0,0,0,0,0,0,0,0,0,0,0,0,0,0-.1,0-.2.1-.3,0,0,0,0,0,0,0,0,0-.2.1-.3,0,0,0-.1,0-.2,0,0,0,0,0,0,0,0,0-.1,0-.2h0s0,0,0,0c0,0,0-.2.1-.2,0,0,0,0,0,0,0,0,0,0,0,0,0,0,0,0,0-.1,0,0,0-.1,0-.2,0,0,0,0,0,0v-.2c.2-.1.3-.2.3-.4,0,0,0-.1.1-.2,0,0,0,0,0,0,0,0,0,0,0,0,0,0,0-.1.1-.2,0,0,0,0,0,0,0,0,0,0,0,0,0,0,0,0,0,0,0,0,0-.1.1-.2,0,0,0,0,.1-.2,0,0,0,0,0,0,0,0,0,0,0,0,0,0,0,0,0-.1,0,0,0,0,0-.1,0,0,0,0,0,0,0,0,0-.1.1-.2,0,0,0,0,.1-.1,0,0,0,0,0,0,0,0,0,0,0-.1,0,0,0,0,0,0,0,0,0,0,0-.1,0,0,0,0,0,0,0,0,0,0,0,0,0,0,0,0,0,0,0,0,0,0,0,0,0,0,0,0,0,0,0,0,0,0,0,0,0,0,.2-.2.2-.3,0,0,0,0,0,0,0,0,.2-.2.2-.3,0,0,.1-.1.2-.2,0,0,0,0,0,0,0,0,0,0,0,0h0c0,0,.2-.2.2-.2,0,0,0,0,0,0,0,0,0,0,0,0,0,0,.1,0,.2-.1,0,0,.1,0,.2-.1h0c0,0,.1-.1.2-.2,0,0,.1,0,.2-.1,0,0,0,0,0,0,0,0,0,0,0,0,0,0,0,0,0,0,0,0,0,0,0,0,0,0,0,0,0,0t0,0s0,0,0,0c0,0,0,0,.1,0,0,0,0,0,0,0,0,0,0,0,0,0,0,0,0,0,0,0,0,0,0,0,0,0,0,0,0,0,0,0,0,0,0,0,0,0h.2c0-.2.1-.2.2-.2,0,0,.2-.1.3-.2,0,0,.1,0,.2-.1h0s0,0,0,0c0,0,0,0,0,0,0,0,.1,0,.2,0h0s0,0,0,0c0,0,0,0,0,0,0,0,0,0,0,0,0,0,0,0,.1,0,0,0,0,0,.1,0,0,0,0,0,.1,0,0,0,0,0,.1,0,0,0,0,0,0,0,0,0,0,0,0,0,.1,0,.2,0,.3-.1,0,0,0,0,0,0,0,0,0,0,0,0,0,0,0,0,0,0,0,0,0,0,0,0s0,0,0,0c0,0,.1,0,.2,0v6.5c0,0-.1,0-.2.1,0,0,0,0-.1,0,0,0,0,0,0,0,0,0,0,0,0,0h0c0,0,0,0-.1.1h0c0,0-.1.1-.2.2,0,0-.1.1-.2.2,0,0-.1.1-.2.2,0,.1-.2.2-.3.3,0,0,0,0,0,0,0,0,0,0,0,0,0,0,0,0-.1.1,0,0,0,0,0,0,0,0,0,0,0,.1,0,0,0,0,0,0,0,0,0,0,0,0,0,0,0,0,0,0,0,0,0,0,0,0,0,0,0,.1,0,.2,0,0,0,0,0,0,0,0,0,0,0,.2,0,0,0,.1,0,.2,0,0,0,.2-.1.3h0s0,0,0,0c0,0,0,0,0,0,0,0,0,0,0,0,0,0,0,0,0,0,0,0,0,0,0,.1,0,0,0,0,0,.2,0,.2-.1.3-.2.5,0,0,0,0,0,0,0,0,0,0,0,0,0,0,0,.1,0,.2,0,0,0,0,0,0s0,0,0,0c0,0,0,.1,0,.2,0,0,0,0,0,.1,0,0,0,0,0,.1,0,0,0,0,0,.1,0,0,0,0,0,.1h0c0,0,0,0,0,.1v.2s0,0,0,.1c0,0,0,0,0,0h0s0,0,0,.1,0,0,0,0h0c0,.2,0,.3,0,.4,0,3.7,2.7,6.8,6.2,7.2.3,0,.6,0,.9,0h25.3v-3.3s0,0,0,0Z"/>
      <g class="st16">
        <g class="st1">
          <g>
            <circle class="st14" cx="555.8" cy="107" r="32.2"/>
            <path class="st2" d="M558.5,86.2c2-1,3.4-3,3.4-5.4s-2.7-6-6-6-6,2.7-6,6,1.4,4.4,3.4,5.4v4h5.4v-4Z"/>
            <path class="st4" d="M553.1,127.8c-2,1-3.4,3-3.4,5.4s2.7,6,6,6,6-2.7,6-6-1.4-4.4-3.4-5.4v-4h-5.4v4Z"/>
            <path class="st2" d="M535,104.3c-1-2-3-3.4-5.4-3.4s-6,2.7-6,6c0,3.3,2.7,6,6,6s4.4-1.4,5.4-3.4h4v-5.4h-4Z"/>
            <g>
              <circle class="st12" cx="555.8" cy="108.3" r="17.5"/>
              <path class="st8" d="M563.4,111c-1.1,3.1-4.1,5.4-7.6,5.4s-8.1-3.6-8.1-8.1,3.6-8.1,8.1-8.1,6.5,2.2,7.6,5.4h13.9v5.4h-13.9Z"/>
              <path class="st12" d="M582,114.4c-3.3,0-6-2.7-6-6s2.7-6,6-6,6,2.7,6,6-2.7,6-6,6Z"/>
            </g>
            <g>
              <circle class="st13" cx="555.8" cy="107.3" r="17.5"/>
              <path class="st6" d="M563.4,109.9c-1.1,3.1-4.1,5.4-7.6,5.4s-8.1-3.6-8.1-8.1,3.6-8.1,8.1-8.1,6.5,2.2,7.6,5.4h13.9v5.4h-13.9Z"/>
              <path class="st13" d="M582,113.3c-3.3,0-6-2.7-6-6s2.7-6,6-6,6,2.7,6,6-2.7,6-6,6Z"/>
            </g>
            <circle class="st9" cx="555.8" cy="107" r="17.5"/>
            <path class="st7" d="M563.4,109.7c-1.1,3.1-4.1,5.4-7.6,5.4s-8.1-3.6-8.1-8.1,3.6-8.1,8.1-8.1,6.5,2.2,7.6,5.4h13.9v5.4h-13.9Z"/>
            <path class="st10" d="M582,113c-3.3,0-6-2.7-6-6s2.7-6,6-6,6,2.7,6,6-2.7,6-6,6Z"/>
          </g>
        </g>
      </g>
    </g>
  </g>
</svg>