<svg width="448" height="299" viewBox="0 0 448 299" fill="none" xmlns="http://www.w3.org/2000/svg">
<g clip-path="url(#clip0_2_7284)">
<path d="M447.5 0.0512695H0.5V298.051H447.5V0.0512695Z" fill="white"/>
<path d="M440.112 248.962H250.594V251.475H440.112V248.962Z" fill="#F2F2F2"/>
<path d="M172.496 248.962H13.8516V251.475H172.496V248.962Z" fill="#F2F2F2"/>
<path d="M84.3865 168.702C84.8367 166.317 85.3461 163.942 85.9181 161.582C86.0813 160.913 85.7123 160.244 85.0934 160.087C84.4744 159.93 83.8373 160.356 83.671 161.038C83.0554 163.577 82.5118 166.134 82.0352 168.702H84.3865Z" fill="#EFEFEF"/>
<path d="M98.6394 128.174C96.2352 132.687 94.0715 137.33 92.1619 142.075C92.0316 142.395 91.7937 142.636 91.5136 142.769C91.2367 142.903 90.9186 142.93 90.6209 142.813C90.324 142.697 90.104 142.459 89.9927 142.169C89.8844 141.88 89.884 141.538 90.0164 141.213C91.957 136.39 94.1559 131.672 96.5989 127.086C96.9269 126.466 97.6461 126.211 98.2099 126.519C98.7667 126.823 98.961 127.566 98.6394 128.174Z" fill="#EFEFEF"/>
<path d="M93.2358 164.988C95.3589 155.751 98.4746 146.742 102.491 138.16C102.755 137.595 103.415 137.351 103.966 137.615L104.057 137.659C104.608 137.923 104.844 138.586 104.585 139.14C100.638 147.575 97.5757 156.428 95.4891 165.506C95.3589 166.103 94.7702 166.481 94.174 166.35L94.0746 166.329C93.4785 166.198 93.1027 165.598 93.2358 164.988Z" fill="#EFEFEF"/>
<path d="M115.76 168.703C117.241 162.614 119.235 156.652 121.719 150.898C121.899 150.489 121.652 149.983 121.169 149.77L120.804 149.609C120.32 149.396 119.78 149.562 119.596 149.982C116.986 156.027 114.906 162.298 113.381 168.703L115.76 168.703Z" fill="#EFEFEF"/>
<path d="M111.372 143.31C111.75 142.511 112.112 141.705 112.502 140.912L113.681 138.539L114.918 136.194C115.332 135.414 115.776 134.649 116.203 133.876C116.35 133.613 116.595 133.439 116.873 133.372C117.154 133.307 117.466 133.348 117.742 133.508C118.019 133.667 118.207 133.916 118.29 134.187C118.376 134.461 118.359 134.759 118.214 135.016C117.795 135.775 117.36 136.526 116.953 137.291L115.739 139.592L114.582 141.922C114.199 142.7 113.844 143.492 113.474 144.275C113.349 144.543 113.117 144.731 112.846 144.821C112.577 144.913 112.265 144.905 111.974 144.774C111.683 144.643 111.468 144.414 111.356 144.148C111.247 143.883 111.245 143.583 111.372 143.31Z" fill="#EFEFEF"/>
<path d="M105.256 168.703C105.85 166.047 106.529 163.41 107.293 160.798C107.461 160.233 107.102 159.624 106.492 159.438C105.881 159.252 105.247 159.569 105.075 160.147C104.248 162.973 103.518 165.827 102.887 168.703H105.256Z" fill="#EFEFEF"/>
<path d="M121.459 96.6175C115.087 103.289 109.359 110.576 104.383 118.351C104.018 118.934 103.284 119.133 102.742 118.794C102.201 118.455 102.063 117.698 102.436 117.104C107.492 109.204 113.312 101.799 119.787 95.0205C120.276 94.5184 121.044 94.4731 121.501 94.9187C121.958 95.3645 121.939 96.1249 121.459 96.6175Z" fill="#EFEFEF"/>
<path d="M149.146 74.0589C144.812 76.77 140.624 79.7106 136.603 82.8639C136.066 83.2948 135.308 83.2409 134.908 82.7429C134.509 82.245 134.627 81.4849 135.174 81.046C139.26 77.8419 143.516 74.8537 147.92 72.0988C148.515 71.7274 149.267 71.8683 149.6 72.4131C149.933 72.9578 149.73 73.6945 149.146 74.0589Z" fill="#EFEFEF"/>
<path d="M126.1 103.241C129.33 99.7779 132.74 96.4822 136.312 93.372C139.883 90.2602 143.627 87.3488 147.507 84.6316C148.019 84.2764 148.714 84.3966 149.059 84.9001L149.117 84.984C149.462 85.4875 149.335 86.1776 148.833 86.5257C145.02 89.1965 141.339 92.0584 137.829 95.117C134.318 98.1745 130.966 101.414 127.791 104.819C127.375 105.266 126.672 105.294 126.222 104.882L126.147 104.814C125.696 104.401 125.675 103.698 126.1 103.241Z" fill="#EFEFEF"/>
<path d="M108.49 126.792C108.809 126.257 109.122 125.717 109.446 125.185L110.435 123.598C111.085 122.534 111.784 121.501 112.467 120.458C112.646 120.186 112.914 120.011 113.207 119.953C113.502 119.895 113.815 119.95 114.079 120.129C114.343 120.309 114.508 120.579 114.561 120.869C114.616 121.159 114.566 121.475 114.39 121.742C113.719 122.767 113.031 123.782 112.393 124.828L111.42 126.387C111.102 126.911 110.795 127.441 110.481 127.968C110.156 128.518 109.444 128.705 108.891 128.386C108.338 128.068 108.159 127.354 108.49 126.792Z" fill="#EFEFEF"/>
<path d="M139.92 118.417C144.92 112.895 150.459 107.857 156.43 103.406C156.801 103.136 157.354 103.263 157.667 103.689L157.903 104.011C158.215 104.437 158.175 104.996 157.813 105.259C151.961 109.621 146.534 114.558 141.633 119.97C141.336 120.305 140.776 120.292 140.381 119.94L140.084 119.675C139.689 119.323 139.616 118.76 139.92 118.417Z" fill="#EFEFEF"/>
<path d="M126.103 137.188C126.374 136.734 126.638 136.276 126.913 135.823L127.754 134.477C128.303 133.573 128.899 132.698 129.477 131.812C129.63 131.581 129.872 131.443 130.148 131.411C130.424 131.38 130.727 131.451 130.991 131.631C131.254 131.81 131.43 132.064 131.502 132.327C131.575 132.591 131.55 132.87 131.401 133.096C130.834 133.964 130.249 134.821 129.712 135.707L128.887 137.026C128.619 137.469 128.359 137.918 128.094 138.363C127.819 138.828 127.147 138.947 126.594 138.628C126.041 138.309 125.821 137.665 126.103 137.188Z" fill="#EFEFEF"/>
<path d="M152.633 93.5205C155.517 91.4763 158.486 89.5535 161.53 87.757C162.049 87.4502 162.728 87.6499 163.047 88.203C163.366 88.7562 163.213 89.448 162.706 89.7482C159.718 91.5113 156.804 93.3986 153.973 95.4049C153.496 95.7522 152.806 95.6156 152.431 95.099C152.055 94.5827 152.146 93.8755 152.633 93.5205Z" fill="#EFEFEF"/>
<path d="M140.356 106.639C135.478 111.312 130.962 116.365 126.901 121.764C126.54 122.23 125.852 122.317 125.335 121.936C124.823 121.56 124.684 120.85 125.054 120.374C129.191 114.874 133.791 109.726 138.76 104.965C139.202 104.554 139.913 104.6 140.349 105.066C140.785 105.533 140.788 106.237 140.356 106.639Z" fill="#EFEFEF"/>
<path d="M184.695 58.0953C175.828 60.6875 167.215 64.1498 159.023 68.4099C158.414 68.7308 157.677 68.5346 157.377 67.9712C157.077 67.4078 157.336 66.6853 157.957 66.3584C166.282 62.0294 175.034 58.5106 184.045 55.8763C184.719 55.6768 185.404 56.0122 185.578 56.6308C185.75 57.2413 185.355 57.8996 184.695 58.0953Z" fill="#EFEFEF"/>
<path d="M219.974 52.4432C214.873 52.6172 209.775 53.0615 204.713 53.7775C204.031 53.873 203.401 53.4392 203.305 52.8079C203.209 52.1768 203.694 51.5854 204.389 51.4881C209.533 50.7605 214.713 50.3092 219.896 50.1323C220.596 50.1061 221.175 50.6029 221.191 51.2412C221.206 51.8795 220.661 52.4174 219.974 52.4432Z" fill="#EFEFEF"/>
<path d="M185.396 66.1434C194.462 63.3775 203.821 61.5761 213.258 60.7697C213.879 60.7147 214.42 61.1636 214.466 61.7723L214.474 61.8738C214.52 62.4824 214.064 63.0194 213.456 63.0734C204.179 63.8661 194.981 65.6365 186.072 68.3545C185.485 68.5244 184.865 68.2079 184.681 67.6265L184.651 67.5295C184.466 66.9472 184.797 66.317 185.396 66.1434Z" fill="#EFEFEF"/>
<path d="M158.372 77.7686C159.461 77.1619 160.543 76.5419 161.652 75.9709L163.306 75.0985L164.98 74.2635C165.564 73.9733 166.262 74.2044 166.54 74.7792C166.818 75.3542 166.579 76.0506 166.006 76.3351L164.361 77.1556L162.736 78.0132C161.646 78.5741 160.583 79.1839 159.512 79.7801C159.233 79.9364 158.916 79.965 158.628 79.8869C158.343 79.8124 158.086 79.6287 157.926 79.3525C157.766 79.0762 157.734 78.7593 157.813 78.4698C157.894 78.1837 158.088 77.9277 158.372 77.7686Z" fill="#EFEFEF"/>
<path d="M189.779 86.2044C196.859 83.9274 204.163 82.3499 211.559 81.4935C212.014 81.4415 212.429 81.825 212.485 82.3504L212.528 82.7467C212.584 83.2721 212.27 83.7395 211.825 83.7903C204.578 84.6296 197.423 86.1749 190.487 88.4056C190.062 88.5437 189.583 88.2487 189.417 87.7472L189.292 87.3684C189.126 86.8667 189.344 86.3458 189.779 86.2044Z" fill="#EFEFEF"/>
<path d="M168.458 95.5595C169.383 95.046 170.299 94.5169 171.241 94.0346L172.644 93.2935L174.064 92.5865C174.559 92.3402 175.186 92.6062 175.463 93.1811C175.741 93.7561 175.574 94.4177 175.091 94.658L173.699 95.3506L172.325 96.0768C171.403 96.549 170.505 97.0678 169.599 97.5707C169.362 97.7027 169.084 97.709 168.825 97.6148C168.567 97.5242 168.327 97.3305 168.168 97.0541C168.008 96.7779 167.959 96.4709 168.01 96.1975C168.062 95.928 168.217 95.6942 168.458 95.5595Z" fill="#EFEFEF"/>
<path d="M213.233 71.0375L214.554 70.9203L215.214 70.8614C215.434 70.8429 215.655 70.8323 215.876 70.8174L218.522 70.6506L221.172 70.55C221.614 70.5284 222.056 70.5253 222.498 70.5202L223.824 70.5035C224.427 70.4958 224.915 71.007 224.914 71.6454C224.913 72.2839 224.434 72.8079 223.844 72.8155L222.542 72.8319C222.108 72.8368 221.674 72.8398 221.24 72.8611L218.638 72.9598L216.04 73.1237C215.824 73.1383 215.607 73.1486 215.391 73.1667L214.743 73.2245L213.447 73.3397C212.859 73.3917 212.33 72.9188 212.264 72.2838C212.199 71.6487 212.633 71.0907 213.233 71.0375Z" fill="#EFEFEF"/>
<path d="M196.04 76.2301C189.473 77.7958 183.053 79.9581 176.839 82.5918C176.299 82.8283 175.653 82.546 175.396 81.9614C175.139 81.3769 175.379 80.7071 175.931 80.4653C182.264 77.7812 188.805 75.5783 195.498 73.9825C196.083 73.8396 196.674 74.2279 196.818 74.8501C196.961 75.4725 196.613 76.0904 196.04 76.2301Z" fill="#EFEFEF"/>
<path d="M258.706 56.379C249.729 54.2026 240.542 52.909 231.332 52.5C230.645 52.4734 230.106 51.9353 230.128 51.2971C230.149 50.6589 230.734 50.163 231.434 50.19C240.791 50.6056 250.127 51.9201 259.251 54.1318C259.933 54.2981 260.358 54.9354 260.201 55.5542C260.044 56.1733 259.375 56.5422 258.706 56.379Z" fill="#EFEFEF"/>
<path d="M292.115 69.1008C287.602 66.6967 282.96 64.5329 278.214 62.6233C277.894 62.4931 277.653 62.2551 277.52 61.975C277.386 61.698 277.36 61.38 277.476 61.0823C277.592 60.7854 277.83 60.5655 278.12 60.4542C278.409 60.3458 278.751 60.3454 279.076 60.4777C283.899 62.4183 288.617 64.6172 293.203 67.0602C293.823 67.3882 294.078 68.1074 293.77 68.6712C293.466 69.2282 292.724 69.4225 292.115 69.1008Z" fill="#EFEFEF"/>
<path d="M255.3 63.6972C264.538 65.8203 273.546 68.936 282.129 72.9528C282.694 73.2167 282.938 73.8767 282.673 74.427L282.629 74.5188C282.365 75.069 281.702 75.3053 281.149 75.0468C272.713 71.0992 263.861 68.0371 254.782 65.9505C254.185 65.8203 253.807 65.2316 253.938 64.6354L253.96 64.5361C254.091 63.9399 254.691 63.5641 255.3 63.6972Z" fill="#EFEFEF"/>
<path d="M226.092 60.2789L227.96 60.3027C228.271 60.3041 228.583 60.3135 228.894 60.327L229.828 60.3623L231.695 60.4337C232.317 60.4647 232.939 60.5097 233.561 60.5474C234.212 60.5887 234.701 61.1385 234.654 61.7753C234.607 62.4121 234.053 62.8953 233.415 62.855C232.804 62.818 232.193 62.7736 231.581 62.7431L229.745 62.673L228.827 62.6383C228.521 62.6249 228.215 62.6157 227.909 62.6143L226.072 62.5909C225.433 62.5829 224.915 62.059 224.914 61.4205C224.913 60.7821 225.44 60.2707 226.092 60.2789Z" fill="#EFEFEF"/>
<path d="M249.087 83.275C256.36 84.8337 263.477 87.1079 270.306 90.0567C270.725 90.2405 270.892 90.7807 270.679 91.2641L270.518 91.629C270.305 92.1123 269.799 92.3591 269.39 92.1795C262.699 89.2907 255.728 87.0627 248.602 85.5358C248.165 85.4406 247.897 84.9432 248.004 84.4257L248.085 84.0352C248.191 83.5176 248.639 83.1774 249.087 83.275Z" fill="#EFEFEF"/>
<path d="M225.917 80.7291L227.507 80.7487C227.772 80.7492 228.037 80.7572 228.302 80.7696L229.096 80.8003L230.685 80.8598C231.214 80.8861 231.742 80.9259 232.271 80.9576C232.824 80.9927 233.234 81.5368 233.188 82.1736C233.141 82.8105 232.665 83.2995 232.125 83.2652C231.607 83.2342 231.089 83.195 230.571 83.1691L229.014 83.111L228.235 83.0807C227.976 83.0687 227.716 83.0606 227.456 83.0603L225.897 83.0413C225.355 83.0341 224.915 82.5101 224.914 81.8716C224.913 81.233 225.362 80.7218 225.917 80.7291Z" fill="#EFEFEF"/>
<path d="M276.978 81.8336C277.777 82.2111 278.583 82.5731 279.376 82.9627L281.75 84.1422L284.094 85.3789C284.875 85.7933 285.639 86.237 286.413 86.6642C286.675 86.8111 286.849 87.056 286.916 87.3338C286.981 87.6154 286.941 87.9271 286.781 88.2035C286.621 88.4797 286.373 88.6685 286.101 88.751C285.828 88.8372 285.53 88.8197 285.272 88.6755C284.513 88.2564 283.763 87.8207 282.997 87.4141L280.696 86.2003L278.366 85.0429C277.588 84.6604 276.797 84.3055 276.013 83.9348C275.746 83.8101 275.558 83.5782 275.467 83.3067C275.376 83.0384 275.384 82.7265 275.514 82.4352C275.645 82.1439 275.874 81.9288 276.141 81.8169C276.405 81.708 276.706 81.7065 276.978 81.8336Z" fill="#EFEFEF"/>
<path d="M259.491 77.7539C256.252 76.8065 252.975 75.9868 249.67 75.3018C246.361 74.6324 243.025 74.0951 239.673 73.6886C239.087 73.6219 238.669 73.0528 238.738 72.4183C238.808 71.7835 239.349 71.3246 239.948 71.393C243.364 71.8071 246.762 72.3546 250.134 73.0369C253.502 73.7347 256.841 74.5698 260.142 75.5353C260.72 75.7073 261.037 76.3416 260.851 76.9523C260.665 77.5631 260.056 77.9222 259.491 77.7539Z" fill="#EFEFEF"/>
<path d="M323.67 91.9197C316.999 85.5474 309.711 79.8196 301.937 74.8436C301.354 74.4785 301.155 73.7442 301.494 73.2029C301.832 72.6618 302.589 72.5241 303.184 72.8963C311.084 77.9526 318.489 83.7727 325.267 90.2475C325.769 90.7365 325.814 91.5042 325.369 91.9613C324.923 92.4186 324.163 92.3996 323.67 91.9197Z" fill="#EFEFEF"/>
<path d="M346.229 119.606C343.518 115.272 340.577 111.083 337.424 107.062C336.993 106.526 337.047 105.768 337.545 105.368C338.043 104.968 338.803 105.087 339.242 105.634C342.446 109.719 345.434 113.976 348.189 118.379C348.56 118.974 348.419 119.727 347.875 120.06C347.33 120.393 346.593 120.19 346.229 119.606Z" fill="#EFEFEF"/>
<path d="M317.047 96.5606C320.511 99.7907 323.806 103.201 326.917 106.772C330.029 110.343 332.94 114.088 335.657 117.967C336.012 118.48 335.892 119.175 335.389 119.52L335.305 119.578C334.801 119.923 334.111 119.796 333.763 119.294C331.092 115.48 328.23 111.799 325.172 108.289C322.114 104.778 318.875 101.427 315.47 98.2513C315.023 97.8352 314.994 97.1326 315.406 96.6822L315.475 96.6073C315.887 96.157 316.591 96.136 317.047 96.5606Z" fill="#EFEFEF"/>
<path d="M293.496 78.9512C294.031 79.2698 294.57 79.583 295.103 79.9063L296.69 80.8962C297.754 81.5459 298.787 82.2446 299.83 82.9274C300.101 83.1073 300.277 83.3747 300.335 83.6681C300.393 83.9625 300.338 84.2762 300.159 84.54C299.979 84.8041 299.709 84.9686 299.419 85.0222C299.128 85.0767 298.813 85.0271 298.546 84.8504C297.521 84.1793 296.506 83.4921 295.46 82.854L293.901 81.8808C293.377 81.563 292.847 81.2553 292.32 80.9421C291.77 80.617 291.583 79.9051 291.902 79.3519C292.22 78.7989 292.934 78.6194 293.496 78.9512Z" fill="#EFEFEF"/>
<path d="M301.87 110.38C307.392 115.381 312.429 120.92 316.881 126.891C317.15 127.262 317.024 127.815 316.597 128.127L316.276 128.364C315.85 128.676 315.291 128.636 315.028 128.274C310.666 122.422 305.729 116.994 300.317 112.094C299.982 111.797 299.995 111.237 300.347 110.842L300.612 110.545C300.964 110.15 301.526 110.076 301.87 110.38Z" fill="#EFEFEF"/>
<path d="M283.099 96.5627C283.554 96.8333 284.012 97.0979 284.464 97.3722L285.81 98.2133C286.715 98.7625 287.589 99.3588 288.476 99.9371C288.706 100.09 288.845 100.332 288.876 100.607C288.908 100.884 288.836 101.186 288.657 101.45C288.477 101.714 288.224 101.89 287.96 101.962C287.696 102.034 287.418 102.01 287.192 101.86C286.324 101.294 285.467 100.709 284.58 100.171L283.262 99.3469C282.818 99.0781 282.369 98.819 281.924 98.5539C281.459 98.2789 281.341 97.6069 281.66 97.0538C281.978 96.5006 282.623 96.2809 283.099 96.5627Z" fill="#EFEFEF"/>
<path d="M326.768 123.094C328.812 125.978 330.735 128.947 332.531 131.991C332.838 132.51 332.638 133.189 332.085 133.508C331.532 133.827 330.84 133.674 330.54 133.166C328.777 130.179 326.89 127.264 324.883 124.433C324.536 123.957 324.673 123.266 325.189 122.891C325.706 122.516 326.413 122.606 326.768 123.094Z" fill="#EFEFEF"/>
<path d="M313.65 110.816C308.976 105.939 303.923 101.423 298.525 97.3621C298.058 97.0008 297.971 96.3126 298.352 95.7952C298.728 95.2842 299.438 95.1452 299.915 95.5144C305.415 99.6512 310.563 104.252 315.323 109.221C315.734 109.663 315.689 110.374 315.222 110.809C314.756 111.245 314.051 111.248 313.65 110.816Z" fill="#EFEFEF"/>
<path d="M362.193 155.155C359.601 146.288 356.139 137.676 351.879 129.484C351.558 128.875 351.754 128.138 352.318 127.837C352.881 127.537 353.603 127.796 353.93 128.417C358.259 136.742 361.778 145.494 364.413 154.506C364.612 155.179 364.277 155.864 363.658 156.039C363.047 156.21 362.389 155.815 362.193 155.155Z" fill="#EFEFEF"/>
<path d="M355.021 168.703H357.379C356.512 164.372 355.435 160.082 354.146 155.857C353.972 155.258 353.342 154.927 352.759 155.111L352.662 155.142C352.081 155.325 351.765 155.945 351.934 156.532C353.156 160.537 354.185 164.6 355.021 168.703Z" fill="#EFEFEF"/>
<path d="M342.52 128.832C343.126 129.921 343.746 131.004 344.317 132.112L345.19 133.767L346.025 135.44C346.315 136.024 346.084 136.723 345.509 137.001C344.934 137.278 344.238 137.039 343.953 136.467L343.133 134.822L342.275 133.196C341.714 132.106 341.104 131.043 340.508 129.972C340.352 129.693 340.323 129.376 340.401 129.089C340.476 128.803 340.659 128.546 340.936 128.386C341.212 128.226 341.529 128.194 341.818 128.273C342.105 128.355 342.36 128.548 342.52 128.832Z" fill="#EFEFEF"/>
<path d="M334.068 168.702H336.445C335.767 165.852 334.98 163.028 334.083 160.239C333.941 159.804 333.42 159.585 332.919 159.751L332.54 159.876C332.039 160.042 331.743 160.522 331.882 160.947C332.704 163.504 333.433 166.092 334.068 168.702Z" fill="#EFEFEF"/>
<path d="M324.729 138.919C325.242 139.843 325.771 140.76 326.254 141.701L326.995 143.104L327.702 144.524C327.948 145.019 327.682 145.646 327.107 145.924C326.532 146.201 325.871 146.035 325.63 145.551L324.937 144.16L324.211 142.786C323.739 141.863 323.22 140.965 322.717 140.059C322.585 139.823 322.579 139.545 322.673 139.285C322.764 139.028 322.957 138.788 323.234 138.628C323.51 138.468 323.817 138.419 324.09 138.47C324.36 138.523 324.594 138.678 324.729 138.919Z" fill="#EFEFEF"/>
<path d="M344.059 166.501C342.493 159.933 340.331 153.514 337.697 147.299C337.46 146.759 337.743 146.113 338.327 145.856C338.912 145.6 339.582 145.839 339.823 146.392C342.508 152.724 344.711 159.266 346.306 165.958C346.449 166.544 346.061 167.135 345.439 167.278C344.816 167.421 344.198 167.073 344.059 166.501Z" fill="#EFEFEF"/>
<path d="M117.574 245.593C110.86 242.726 108.72 236.025 104.775 232.3L103.001 230.625H83.8595L82.0857 232.3C78.1408 236.025 76.0004 242.726 69.287 245.593L69.2402 245.613H91.7689H95.0916H117.62L117.574 245.593Z" fill="#F2F2F2"/>
<path d="M117.619 245.613H69.2402L69.2867 245.593C70.9216 244.892 72.2871 243.969 73.47 242.912H107.582C108.289 242.912 108.675 242.088 108.223 241.543C107.017 240.088 105.987 238.539 104.96 237.077C104.142 235.917 102.807 235.236 101.388 235.236H79.5872C80.378 234.156 81.1854 233.15 82.086 232.299L83.857 230.625H102.999L104.774 232.299C108.718 236.024 110.858 242.726 117.573 245.593L117.619 245.613Z" fill="#E1E1E1"/>
<path d="M120.166 249.009H66.179C64.6789 249.009 63.4629 247.793 63.4629 246.293C63.4629 244.793 64.6789 243.577 66.179 243.577H120.166C121.667 243.577 122.883 244.793 122.883 246.293C122.883 247.793 121.666 249.009 120.166 249.009Z" fill="#F2F2F2"/>
<path d="M122.881 246.293C122.881 247.044 122.575 247.725 122.087 248.217C121.595 248.709 120.914 249.011 120.166 249.011H118.764C119.511 249.011 120.192 248.709 120.684 248.217C121.173 247.725 121.478 247.044 121.478 246.293C121.478 244.795 120.262 243.579 118.764 243.579H120.166C121.665 243.578 122.881 244.795 122.881 246.293Z" fill="#E1E1E1"/>
<path d="M156.976 218.703V221.286C156.976 221.565 156.966 221.841 156.945 222.115C156.52 227.964 151.625 232.593 145.669 232.593H40.676C34.7206 232.593 29.8252 227.964 29.4004 222.115C29.3791 221.841 29.3691 221.565 29.3691 221.286V218.703H32.3894V219.095H153.956V218.703H156.976Z" fill="#F2F2F2"/>
<path d="M145.67 150.801H40.6762C34.442 150.801 29.3691 155.874 29.3691 162.108V222.116H156.977V162.108C156.977 155.874 151.904 150.801 145.67 150.801ZM153.957 219.096H32.3892V162.108C32.3892 157.54 36.1066 153.821 40.6762 153.821H145.67C150.238 153.821 153.957 157.54 153.957 162.108V219.096Z" fill="#1D1D1B"/>
<path d="M153.956 162.109V219.096H32.3887V162.109C32.3887 157.54 36.1061 153.822 40.6756 153.822H145.669C150.238 153.822 153.956 157.54 153.956 162.109Z" fill="#5777FA"/>
<path d="M114.795 211.963C125.093 211.963 133.441 203.615 133.441 193.317C133.441 183.019 125.093 174.671 114.795 174.671C114.445 174.671 114.096 174.682 113.75 174.701C110.406 166.631 102.453 160.954 93.1741 160.954C82.0271 160.954 72.7934 169.145 71.1642 179.837H68.93C60.0792 179.837 52.9043 187.012 52.9043 195.863C52.9043 204.714 60.0792 211.889 68.93 211.889L114.795 211.963Z" fill="white"/>
<path d="M85.8573 184.311C88.2421 181.635 91.6329 180.342 95.1412 180.633C96.3384 180.732 97.5553 181.081 98.7028 181.617C98.3564 181.713 98.0098 181.809 97.6634 181.905C95.8573 182.406 96.6244 185.22 98.4386 184.717C99.8478 184.326 101.257 183.936 102.666 183.545C103.072 183.432 103.347 183.202 103.51 182.92C103.663 182.692 103.751 182.424 103.737 182.139C103.663 180.678 103.589 179.218 103.515 177.757C103.475 176.971 102.873 176.299 102.057 176.299C101.298 176.299 100.559 176.967 100.599 177.757C100.625 178.285 100.652 178.813 100.679 179.34C97.3476 177.551 93.3051 177.165 89.7017 178.388C85.2458 179.901 81.7302 183.634 80.6116 188.229C79.9419 190.98 80.1198 193.921 81.1468 196.561C81.4322 197.295 82.1256 197.804 82.9405 197.58C83.6407 197.387 84.246 196.524 83.9589 195.786C82.451 191.91 83.0542 187.456 85.8573 184.311Z" fill="#5777FA"/>
<path d="M107.044 186.56C106.759 185.826 106.065 185.317 105.251 185.541C104.55 185.734 103.945 186.597 104.232 187.335C105.74 191.211 105.137 195.665 102.334 198.81C99.9492 201.486 96.5584 202.779 93.05 202.488C91.8528 202.389 90.6359 202.04 89.4885 201.504C89.8349 201.408 90.1815 201.312 90.5279 201.216C92.3339 200.715 91.5669 197.901 89.7527 198.404C88.3434 198.794 86.9343 199.185 85.5251 199.576C85.1192 199.689 84.8442 199.918 84.681 200.201C84.5283 200.428 84.4402 200.697 84.4547 200.982C84.5286 202.443 84.6023 203.903 84.6762 205.364C84.716 206.15 85.318 206.822 86.1343 206.822C86.8932 206.822 87.6324 206.154 87.5925 205.364C87.5658 204.836 87.5391 204.309 87.5125 203.781C90.8436 205.57 94.8862 205.956 98.4896 204.733C102.945 203.22 106.461 199.488 107.58 194.892C108.249 192.141 108.071 189.2 107.044 186.56Z" fill="#5777FA"/>
<path d="M395.17 159.737H295.537C288.363 159.737 282.525 165.574 282.525 172.749V241.804H408.182V172.749C408.182 165.574 402.345 159.737 395.17 159.737ZM404.707 238.329H286.001V172.749C286.001 167.491 290.279 163.212 295.538 163.212H395.17C400.428 163.212 404.707 167.491 404.707 172.749L404.707 238.329Z" fill="#1D1D1B"/>
<path d="M404.706 172.749V238.329H286V172.749C286 167.491 290.278 163.212 295.536 163.212H395.169C400.427 163.212 404.706 167.491 404.706 172.749Z" fill="#5777FA"/>
<path d="M418.632 242.127C418.632 244.029 417.74 245.751 416.297 246.998C414.854 248.244 412.86 249.014 410.659 249.014H280.048C275.645 249.014 272.076 245.931 272.076 242.127C272.076 241.92 272.173 241.734 272.331 241.598C272.488 241.462 272.703 241.378 272.943 241.378H417.764C418.243 241.379 418.632 241.714 418.632 242.127Z" fill="#F2F2F2"/>
<path d="M418.632 242.127C418.632 244.029 417.74 245.751 416.297 246.998C414.854 248.244 412.86 249.014 410.659 249.014H280.048C277.336 249.014 274.94 247.844 273.5 246.056C274.801 246.854 276.393 247.324 278.111 247.324H408.722C410.923 247.324 412.917 246.554 414.36 245.308C415.56 244.271 416.38 242.904 416.62 241.378H417.764C418.243 241.379 418.632 241.714 418.632 242.127Z" fill="#DFDFDF"/>
<path d="M362.924 241.378C362.924 242.1 362.585 242.754 362.037 243.226C361.489 243.699 360.732 243.992 359.897 243.992H330.812C329.14 243.992 327.785 242.822 327.785 241.378H362.924Z" fill="#DFDFDF"/>
<path d="M366.975 226.275C377.273 226.275 385.621 217.927 385.621 207.63C385.621 197.332 377.273 188.984 366.975 188.984C366.625 188.984 366.276 188.994 365.93 189.013C362.585 180.943 354.633 175.266 345.354 175.266C334.207 175.266 324.973 183.458 323.344 194.15H321.11C312.259 194.15 305.084 201.325 305.084 210.175C305.084 219.026 312.259 226.201 321.11 226.201L366.975 226.275Z" fill="white"/>
<path d="M338.037 198.623C340.421 195.947 343.812 194.654 347.321 194.945C348.518 195.045 349.735 195.393 350.882 195.929C350.536 196.025 350.189 196.121 349.843 196.217C348.037 196.718 348.804 199.533 350.618 199.03C352.027 198.639 353.437 198.248 354.846 197.857C355.252 197.745 355.527 197.515 355.69 197.233C355.843 197.005 355.931 196.737 355.916 196.451C355.842 194.991 355.769 193.53 355.695 192.07C355.655 191.283 355.053 190.612 354.237 190.612C353.478 190.612 352.739 191.28 352.778 192.07C352.805 192.598 352.832 193.125 352.858 193.653C349.527 191.863 345.485 191.477 341.881 192.701C337.426 194.214 333.91 197.946 332.791 202.541C332.122 205.293 332.299 208.234 333.327 210.874C333.612 211.607 334.305 212.116 335.12 211.892C335.82 211.7 336.426 210.837 336.139 210.099C334.631 206.222 335.234 201.768 338.037 198.623Z" fill="#5777FA"/>
<path d="M359.224 200.872C358.939 200.139 358.245 199.63 357.43 199.854C356.73 200.046 356.125 200.909 356.412 201.647C357.92 205.524 357.317 209.977 354.514 213.123C352.129 215.798 348.738 217.092 345.23 216.801C344.033 216.701 342.816 216.352 341.668 215.817C342.015 215.72 342.361 215.624 342.708 215.528C344.514 215.028 343.747 212.213 341.932 212.716C340.523 213.107 339.114 213.498 337.705 213.888C337.299 214.001 337.024 214.231 336.861 214.513C336.708 214.741 336.62 215.009 336.634 215.294C336.708 216.755 336.782 218.215 336.856 219.676C336.896 220.463 337.498 221.134 338.314 221.134C339.073 221.134 339.812 220.466 339.772 219.676C339.745 219.148 339.719 218.621 339.692 218.093C343.023 219.883 347.066 220.268 350.669 219.045C355.125 217.532 358.641 213.8 359.759 209.204C360.429 206.453 360.251 203.512 359.224 200.872Z" fill="#5777FA"/>
<path d="M100.103 120.541C99.9508 120.453 99.7833 120.402 99.612 120.385L99.6673 120.29L99.6354 120.298L96.3073 121.187L88.7914 123.201L88.8913 123.259C88.75 123.359 88.6296 123.488 88.5414 123.641L75.9344 145.477C75.5993 146.057 75.7982 146.799 76.3784 147.134L81.2488 149.946L86.7338 153.112L113.858 168.772C114.438 169.107 115.18 168.909 115.515 168.328L131.748 140.212C132.083 139.632 131.884 138.89 131.304 138.555L100.103 120.541Z" fill="#E1E1E1"/>
<path d="M99.2137 117.674L130.415 135.688C130.995 136.023 131.194 136.765 130.859 137.345L114.626 165.461C114.291 166.042 113.549 166.241 112.969 165.905L75.4898 144.267C74.9094 143.932 74.7106 143.19 75.0457 142.61L87.6528 120.774C87.8136 120.495 88.0785 120.292 88.3893 120.209L98.293 117.553C98.6037 117.469 98.9349 117.513 99.2137 117.674Z" fill="#F7F7F7"/>
<path d="M98.7461 117.431L98.7147 117.532L97.1702 122.802C96.9815 123.445 96.3069 123.814 95.6635 123.624L95.2651 123.507L91.4773 122.399L89.7677 121.412L95.4181 118.321L98.7461 117.431Z" fill="#CACACA"/>
<path d="M98.7783 117.422L95.4053 123.265C95.0702 123.845 94.3281 124.044 93.7479 123.709L87.9027 120.334L95.4185 118.32L98.7466 117.431L98.7783 117.422Z" fill="#E0E0E0"/>
<path d="M100.387 137.119C100.167 137.5 99.9476 137.881 99.728 138.261C99.2054 139.166 98.6829 140.071 98.1603 140.977C97.5235 142.08 96.8867 143.183 96.2499 144.286C95.7015 145.235 95.1532 146.185 94.6048 147.135C94.3384 147.596 94.0633 148.054 93.8051 148.52C93.8015 148.527 93.7975 148.533 93.7938 148.54C93.513 149.026 93.6716 149.739 94.1867 150.006C94.7034 150.274 95.3523 150.134 95.6531 149.613C95.8729 149.233 96.0927 148.852 96.3123 148.471C96.8348 147.566 97.3574 146.661 97.8799 145.756C98.5168 144.653 99.1536 143.55 99.7904 142.447C100.339 141.497 100.887 140.548 101.435 139.598C101.702 139.136 101.977 138.679 102.235 138.213C102.239 138.206 102.243 138.199 102.246 138.193C102.527 137.707 102.369 136.994 101.853 136.727C101.337 136.458 100.688 136.598 100.387 137.119Z" fill="#E0E0E0"/>
<path d="M105.788 127.765C105.399 128.438 105.011 129.111 104.622 129.784C104.004 130.856 103.385 131.927 102.766 132.999C102.625 133.243 102.484 133.487 102.343 133.732C102.062 134.218 102.221 134.931 102.736 135.198C103.252 135.467 103.901 135.327 104.202 134.806C104.591 134.132 104.979 133.459 105.368 132.787C105.986 131.715 106.605 130.643 107.224 129.572C107.365 129.327 107.506 129.083 107.647 128.839C107.928 128.352 107.769 127.639 107.254 127.372C106.738 127.104 106.089 127.244 105.788 127.765Z" fill="#E0E0E0"/>
<path d="M111.789 143.702C111.57 144.083 111.35 144.464 111.13 144.844C110.608 145.749 110.085 146.654 109.563 147.56C108.926 148.663 108.289 149.766 107.652 150.869C107.104 151.818 106.555 152.768 106.007 153.718C105.741 154.179 105.466 154.637 105.207 155.103C105.204 155.11 105.2 155.116 105.196 155.123C104.915 155.609 105.074 156.322 105.589 156.589C106.106 156.857 106.755 156.717 107.055 156.196C107.275 155.816 107.495 155.435 107.715 155.054C108.237 154.149 108.76 153.244 109.282 152.339C109.919 151.236 110.556 150.133 111.193 149.03C111.741 148.08 112.289 147.131 112.838 146.181C113.104 145.719 113.379 145.262 113.637 144.796C113.641 144.789 113.645 144.782 113.649 144.776C113.929 144.29 113.771 143.577 113.256 143.31C112.739 143.041 112.09 143.181 111.789 143.702Z" fill="#E0E0E0"/>
<path d="M117.19 134.348C116.801 135.021 116.413 135.694 116.024 136.367C115.406 137.439 114.787 138.51 114.168 139.582C114.027 139.826 113.886 140.071 113.745 140.315C113.464 140.801 113.623 141.514 114.138 141.782C114.655 142.05 115.304 141.91 115.604 141.389C115.993 140.716 116.382 140.043 116.77 139.37C117.389 138.298 118.007 137.227 118.626 136.155C118.767 135.91 118.908 135.666 119.049 135.422C119.33 134.935 119.172 134.222 118.656 133.955C118.14 133.687 117.491 133.827 117.19 134.348Z" fill="#E0E0E0"/>
<path d="M106.755 143.55C106.974 143.17 107.194 142.789 107.414 142.409C107.937 141.504 108.459 140.598 108.982 139.693C109.618 138.59 110.255 137.487 110.892 136.384C111.44 135.435 111.989 134.485 112.537 133.535C112.804 133.074 113.079 132.616 113.337 132.15C113.34 132.143 113.344 132.137 113.348 132.13C113.629 131.644 113.47 130.931 112.955 130.664C112.438 130.396 111.79 130.535 111.489 131.057C111.269 131.437 111.049 131.818 110.83 132.198C110.307 133.104 109.784 134.009 109.262 134.914C108.625 136.017 107.988 137.12 107.351 138.223C106.803 139.173 106.255 140.122 105.706 141.072C105.44 141.534 105.165 141.991 104.907 142.457C104.903 142.464 104.899 142.47 104.895 142.477C104.615 142.963 104.773 143.676 105.288 143.943C105.805 144.212 106.454 144.072 106.755 143.55Z" fill="#E0E0E0"/>
<path d="M101.354 152.905C101.743 152.232 102.132 151.559 102.52 150.886C103.139 149.814 103.757 148.743 104.376 147.671C104.517 147.427 104.658 147.182 104.799 146.938C105.08 146.451 104.922 145.739 104.406 145.471C103.89 145.203 103.241 145.343 102.94 145.864C102.551 146.537 102.163 147.21 101.774 147.883C101.156 148.955 100.537 150.026 99.9184 151.098C99.7773 151.342 99.6362 151.587 99.4951 151.831C99.2144 152.317 99.3729 153.03 99.888 153.298C100.405 153.566 101.054 153.426 101.354 152.905Z" fill="#E0E0E0"/>
<path d="M118.157 150.134C118.377 149.753 118.597 149.372 118.816 148.992C119.339 148.087 119.861 147.182 120.384 146.277C121.021 145.173 121.658 144.07 122.294 142.968C122.843 142.018 123.391 141.068 123.939 140.118C124.206 139.657 124.481 139.199 124.739 138.733C124.743 138.726 124.747 138.72 124.75 138.713C125.031 138.227 124.873 137.514 124.357 137.247C123.841 136.979 123.192 137.119 122.891 137.64C122.671 138.02 122.451 138.401 122.232 138.782C121.709 139.687 121.187 140.592 120.664 141.497C120.027 142.6 119.391 143.703 118.754 144.806C118.205 145.756 117.657 146.706 117.109 147.655C116.842 148.117 116.567 148.574 116.309 149.041C116.305 149.047 116.302 149.054 116.298 149.06C116.017 149.546 116.176 150.259 116.691 150.527C117.207 150.795 117.856 150.655 118.157 150.134Z" fill="#E0E0E0"/>
<path d="M112.756 159.488C113.145 158.815 113.534 158.142 113.922 157.469C114.541 156.397 115.159 155.326 115.778 154.254C115.919 154.01 116.06 153.765 116.202 153.521C116.482 153.035 116.324 152.322 115.809 152.054C115.292 151.786 114.643 151.926 114.342 152.447C113.954 153.12 113.565 153.793 113.177 154.466C112.558 155.538 111.939 156.609 111.321 157.681C111.179 157.926 111.038 158.17 110.897 158.414C110.617 158.901 110.775 159.614 111.29 159.881C111.807 160.149 112.456 160.009 112.756 159.488Z" fill="#E0E0E0"/>
<path d="M90.2123 130.009L80.3556 147.081L85.8404 150.247L95.6972 133.176L90.2123 130.009Z" fill="#5777FA"/>
<path d="M83.2345 145.168L84.2324 143.44L84.7568 143.743L84.1296 144.829L84.7756 145.202L85.3618 144.187L85.8819 144.487L85.2958 145.503L86.4326 146.159L86.0621 146.801L83.2345 145.168Z" fill="white"/>
<path d="M84.8824 142.316L87.71 143.948L87.3394 144.59L84.5118 142.958L84.8824 142.316Z" fill="white"/>
<path d="M85.2013 141.762L85.5719 141.12L87.8624 142.442L88.5116 141.318L89.0486 141.628L88.0289 143.394L85.2013 141.762Z" fill="white"/>
<path d="M89.0428 138.878L88.4421 139.918L89.1134 140.306L89.7843 139.144L90.3087 139.446L89.2672 141.25L86.4396 139.618L87.4473 137.873L87.9718 138.175L87.3348 139.279L87.9221 139.618L88.5228 138.577L89.0428 138.878Z" fill="white"/>
<path d="M366.838 149.679C366.99 149.592 367.119 149.472 367.218 149.332L367.274 149.428L367.282 149.396L368.176 146.069L370.19 138.553L370.09 138.611C370.074 138.439 370.022 138.27 369.934 138.117L357.327 116.281C356.992 115.701 356.25 115.502 355.67 115.837L350.8 118.649L345.315 121.816L318.191 137.476C317.61 137.811 317.412 138.553 317.747 139.133L333.98 167.249C334.315 167.83 335.057 168.028 335.637 167.693L366.838 149.679Z" fill="#E1E1E1"/>
<path d="M369.766 150.343L338.565 168.357C337.984 168.692 337.242 168.494 336.907 167.913L320.674 139.797C320.339 139.217 320.538 138.475 321.119 138.14L358.598 116.501C359.178 116.166 359.92 116.365 360.255 116.945L372.862 138.781C373.023 139.06 373.066 139.391 372.983 139.702L370.331 149.606C370.248 149.917 370.045 150.182 369.766 150.343Z" fill="#F7F7F7"/>
<path d="M370.21 150.06L370.138 149.982L366.347 146.01C365.884 145.525 365.903 144.756 366.388 144.294L366.689 144.007L369.543 141.281L371.253 140.294L371.104 146.733L370.21 150.06Z" fill="#CACACA"/>
<path d="M370.202 150.092L366.829 144.249C366.494 143.669 366.693 142.927 367.273 142.592L373.118 139.217L371.104 146.733L370.21 150.06L370.202 150.092Z" fill="#E0E0E0"/>
<path d="M352.338 141.637C352.118 141.256 351.899 140.875 351.679 140.495C351.156 139.59 350.634 138.685 350.111 137.78C349.474 136.677 348.838 135.573 348.201 134.471C347.652 133.521 347.104 132.571 346.556 131.621C346.289 131.16 346.031 130.693 345.756 130.236C345.752 130.23 345.748 130.223 345.745 130.216C345.464 129.73 344.767 129.511 344.278 129.824C343.788 130.137 343.584 130.769 343.885 131.29C344.105 131.671 344.325 132.051 344.544 132.432C345.067 133.337 345.59 134.242 346.112 135.147C346.749 136.25 347.386 137.353 348.023 138.456C348.571 139.406 349.119 140.356 349.668 141.306C349.934 141.767 350.193 142.234 350.468 142.691C350.471 142.697 350.475 142.704 350.479 142.71C350.76 143.197 351.456 143.416 351.945 143.103C352.436 142.79 352.639 142.158 352.338 141.637Z" fill="#E0E0E0"/>
<path d="M357.739 150.991C357.35 150.318 356.961 149.645 356.573 148.972C355.954 147.901 355.336 146.829 354.717 145.757C354.576 145.513 354.435 145.269 354.293 145.024C354.013 144.538 353.316 144.319 352.827 144.631C352.336 144.945 352.133 145.576 352.434 146.098C352.823 146.771 353.211 147.444 353.6 148.117C354.218 149.188 354.837 150.26 355.456 151.331C355.597 151.576 355.738 151.82 355.879 152.065C356.16 152.551 356.857 152.77 357.346 152.458C357.836 152.144 358.039 151.512 357.739 150.991Z" fill="#E0E0E0"/>
<path d="M340.936 148.22C340.716 147.839 340.496 147.458 340.276 147.078C339.754 146.173 339.231 145.268 338.709 144.363C338.072 143.26 337.435 142.156 336.798 141.054C336.25 140.104 335.702 139.154 335.153 138.204C334.887 137.743 334.628 137.276 334.354 136.819C334.35 136.813 334.346 136.806 334.342 136.799C334.061 136.313 333.365 136.094 332.876 136.407C332.385 136.72 332.182 137.352 332.483 137.873C332.703 138.254 332.922 138.634 333.142 139.015C333.665 139.92 334.187 140.825 334.71 141.73C335.347 142.833 335.984 143.936 336.62 145.039C337.169 145.989 337.717 146.939 338.265 147.889C338.532 148.35 338.791 148.817 339.065 149.274C339.069 149.28 339.073 149.287 339.077 149.293C339.357 149.78 340.054 149.999 340.543 149.686C341.033 149.373 341.237 148.741 340.936 148.22Z" fill="#E0E0E0"/>
<path d="M346.336 157.574C345.948 156.901 345.559 156.228 345.171 155.555C344.552 154.483 343.933 153.412 343.315 152.34C343.174 152.096 343.032 151.851 342.891 151.607C342.611 151.121 341.914 150.902 341.425 151.214C340.934 151.527 340.731 152.159 341.032 152.68C341.421 153.354 341.809 154.027 342.198 154.7C342.816 155.771 343.435 156.843 344.054 157.914C344.195 158.159 344.336 158.403 344.477 158.648C344.758 159.134 345.454 159.353 345.943 159.041C346.434 158.727 346.637 158.095 346.336 157.574Z" fill="#E0E0E0"/>
<path d="M343.585 143.937C343.804 144.317 344.024 144.698 344.244 145.078C344.766 145.983 345.289 146.888 345.811 147.794C346.448 148.897 347.085 150 347.722 151.103C348.27 152.052 348.818 153.002 349.367 153.952C349.633 154.413 349.892 154.88 350.167 155.337C350.17 155.344 350.174 155.35 350.178 155.357C350.459 155.843 351.155 156.062 351.644 155.75C352.135 155.436 352.338 154.804 352.037 154.283C351.818 153.903 351.598 153.522 351.378 153.141C350.855 152.236 350.333 151.331 349.81 150.426C349.174 149.323 348.537 148.22 347.9 147.117C347.352 146.167 346.803 145.218 346.255 144.268C345.988 143.806 345.73 143.339 345.455 142.882C345.451 142.876 345.447 142.869 345.444 142.863C345.163 142.377 344.466 142.158 343.977 142.47C343.487 142.783 343.284 143.415 343.585 143.937Z" fill="#E0E0E0"/>
<path d="M338.184 134.582C338.573 135.255 338.961 135.928 339.35 136.601C339.968 137.673 340.587 138.744 341.206 139.816C341.347 140.06 341.488 140.305 341.629 140.549C341.91 141.035 342.607 141.254 343.096 140.942C343.586 140.629 343.789 139.997 343.489 139.475C343.1 138.802 342.711 138.129 342.323 137.457C341.704 136.385 341.086 135.313 340.467 134.242C340.326 133.997 340.185 133.753 340.043 133.508C339.763 133.022 339.066 132.803 338.577 133.116C338.086 133.429 337.883 134.061 338.184 134.582Z" fill="#E0E0E0"/>
<path d="M332.182 150.52C332.402 150.9 332.622 151.281 332.841 151.661C333.364 152.566 333.886 153.472 334.409 154.377C335.046 155.48 335.683 156.583 336.319 157.686C336.868 158.636 337.416 159.585 337.965 160.535C338.231 160.997 338.49 161.464 338.764 161.92C338.768 161.927 338.772 161.933 338.776 161.94C339.056 162.426 339.753 162.645 340.242 162.333C340.733 162.019 340.936 161.388 340.635 160.866C340.415 160.486 340.196 160.105 339.976 159.725C339.453 158.819 338.931 157.914 338.408 157.009C337.771 155.906 337.134 154.803 336.497 153.7C335.949 152.75 335.401 151.801 334.852 150.851C334.586 150.389 334.327 149.922 334.053 149.466C334.049 149.459 334.045 149.453 334.041 149.446C333.76 148.96 333.064 148.741 332.575 149.053C332.084 149.367 331.881 149.998 332.182 150.52Z" fill="#E0E0E0"/>
<path d="M326.782 141.165C327.17 141.838 327.559 142.511 327.947 143.184C328.566 144.256 329.185 145.327 329.803 146.399C329.944 146.643 330.086 146.888 330.227 147.132C330.508 147.618 331.204 147.838 331.693 147.525C332.184 147.212 332.387 146.58 332.086 146.059C331.697 145.386 331.309 144.713 330.92 144.04C330.302 142.968 329.683 141.897 329.064 140.825C328.923 140.58 328.782 140.336 328.641 140.092C328.36 139.605 327.664 139.386 327.175 139.699C326.684 140.012 326.481 140.644 326.782 141.165Z" fill="#E0E0E0"/>
<path d="M363.587 136.376L353.731 119.304L348.246 122.471L358.102 139.543L363.587 136.376Z" fill="#5777FA"/>
<path d="M353.945 122.757L354.943 124.486L354.418 124.788L353.791 123.702L353.145 124.075L353.731 125.09L353.211 125.391L352.625 124.375L351.488 125.032L351.117 124.39L353.945 122.757Z" fill="white"/>
<path d="M355.593 125.61L352.765 127.243L352.395 126.601L355.222 124.968L355.593 125.61Z" fill="white"/>
<path d="M355.912 126.164L356.282 126.805L353.992 128.128L354.641 129.252L354.104 129.562L353.084 127.796L355.912 126.164Z" fill="white"/>
<path d="M356.489 130.933L355.889 129.892L355.217 130.28L355.888 131.442L355.364 131.744L354.322 129.941L357.15 128.308L358.157 130.053L357.633 130.356L356.996 129.253L356.409 129.592L357.009 130.632L356.489 130.933Z" fill="white"/>
<path d="M249.951 45.9824C249.951 45.7152 249.891 45.4548 249.783 45.2162H249.951L249.916 45.1806L246.205 41.4655L237.82 33.0796V33.2553C237.58 33.1451 237.318 33.0847 237.049 33.0847H198.619C197.598 33.0847 196.77 33.9125 196.77 34.9339V43.505V53.1582V100.895C196.77 101.916 197.597 102.744 198.619 102.744H248.102C249.123 102.744 249.951 101.916 249.951 100.895L249.951 45.9824Z" fill="#E1E1E1"/>
<path d="M253.059 42.625V97.5374C253.059 98.5587 252.231 99.3867 251.209 99.3867H201.726C200.705 99.3867 199.877 98.5588 199.877 97.5374V31.5763C199.877 30.5551 200.705 29.7271 201.726 29.7271H240.156C240.647 29.7271 241.117 29.9218 241.464 30.2684L252.517 41.3169C252.864 41.6639 253.059 42.1345 253.059 42.625Z" fill="#F7F7F7"/>
<path d="M253.024 41.823L252.866 41.8587L244.734 43.8356C243.741 44.077 242.74 43.4671 242.5 42.4739L242.351 41.8588L240.928 36.0141V33.0054L249.314 38.108L253.024 41.823Z" fill="#CACACA"/>
<path d="M253.059 41.8588H242.777C241.756 41.8588 240.928 41.031 240.928 40.0096V29.7222L249.314 38.108L253.024 41.8232L253.059 41.8588Z" fill="#E0E0E0"/>
<path d="M228.286 58.9922C227.616 58.9922 226.946 58.9922 226.276 58.9922C224.683 58.9922 223.09 58.9922 221.497 58.9922C219.556 58.9922 217.615 58.9922 215.673 58.9922C214.002 58.9922 212.33 58.9922 210.659 58.9922C209.847 58.9922 209.033 58.9779 208.221 58.9922C208.209 58.9923 208.198 58.9922 208.187 58.9922C207.331 58.9922 206.511 59.7448 206.55 60.6285C206.59 61.5151 207.269 62.2647 208.187 62.2647C208.856 62.2647 209.526 62.2647 210.196 62.2647C211.789 62.2647 213.382 62.2647 214.975 62.2647C216.916 62.2647 218.857 62.2647 220.799 62.2647C222.47 62.2647 224.142 62.2647 225.813 62.2647C226.626 62.2647 227.439 62.279 228.251 62.2647C228.263 62.2645 228.274 62.2647 228.286 62.2647C229.142 62.2647 229.962 61.5121 229.922 60.6284C229.882 59.742 229.203 58.9922 228.286 58.9922Z" fill="#E0E0E0"/>
<path d="M244.749 58.9927C243.564 58.9927 242.38 58.9927 241.195 58.9927C239.309 58.9927 237.424 58.9927 235.538 58.9927C235.108 58.9927 234.677 58.9927 234.247 58.9927C233.391 58.9927 232.571 59.7453 232.611 60.629C232.65 61.5155 233.33 62.2653 234.247 62.2653C235.431 62.2653 236.616 62.2653 237.8 62.2653C239.686 62.2653 241.572 62.2653 243.458 62.2653C243.888 62.2653 244.319 62.2653 244.749 62.2653C245.605 62.2653 246.425 61.5127 246.385 60.629C246.345 59.7424 245.666 58.9927 244.749 58.9927Z" fill="#E0E0E0"/>
<path d="M228.286 79.0606C227.616 79.0606 226.946 79.0606 226.276 79.0606C224.683 79.0606 223.09 79.0606 221.497 79.0606C219.556 79.0606 217.615 79.0606 215.673 79.0606C214.002 79.0606 212.33 79.0606 210.659 79.0606C209.847 79.0606 209.033 79.0463 208.221 79.0606C208.209 79.0607 208.198 79.0606 208.187 79.0606C207.331 79.0606 206.511 79.8132 206.55 80.6969C206.59 81.5834 207.269 82.3332 208.187 82.3332C208.856 82.3332 209.526 82.3332 210.196 82.3332C211.789 82.3332 213.382 82.3332 214.975 82.3332C216.916 82.3332 218.857 82.3332 220.799 82.3332C222.47 82.3332 224.142 82.3332 225.813 82.3332C226.625 82.3332 227.439 82.3475 228.251 82.3332C228.262 82.333 228.274 82.3332 228.285 82.3332C229.141 82.3332 229.961 81.5806 229.922 80.6969C229.882 79.8103 229.203 79.0606 228.286 79.0606Z" fill="#E0E0E0"/>
<path d="M244.749 79.061C243.564 79.061 242.38 79.061 241.196 79.061C239.31 79.061 237.424 79.061 235.538 79.061C235.108 79.061 234.677 79.061 234.247 79.061C233.391 79.061 232.571 79.8136 232.611 80.6974C232.651 81.5839 233.33 82.3337 234.247 82.3337C235.432 82.3337 236.616 82.3337 237.801 82.3337C239.686 82.3337 241.572 82.3337 243.458 82.3337C243.888 82.3337 244.319 82.3337 244.749 82.3337C245.605 82.3337 246.425 81.5811 246.385 80.6974C246.345 79.8108 245.666 79.061 244.749 79.061Z" fill="#E0E0E0"/>
<path d="M224.65 72.299C225.319 72.299 225.989 72.299 226.659 72.299C228.252 72.299 229.845 72.299 231.438 72.299C233.379 72.299 235.32 72.299 237.262 72.299C238.933 72.299 240.605 72.299 242.276 72.299C243.088 72.299 243.902 72.3133 244.714 72.299C244.725 72.2988 244.737 72.299 244.748 72.299C245.604 72.299 246.424 71.5464 246.385 70.6626C246.345 69.7761 245.666 69.0263 244.748 69.0263C244.079 69.0263 243.409 69.0263 242.739 69.0263C241.146 69.0263 239.553 69.0263 237.96 69.0263C236.019 69.0263 234.077 69.0263 232.136 69.0263C230.465 69.0263 228.793 69.0263 227.122 69.0263C226.31 69.0263 225.496 69.012 224.684 69.0263C224.672 69.0265 224.661 69.0263 224.649 69.0263C223.794 69.0263 222.974 69.7789 223.013 70.6626C223.053 71.5492 223.732 72.299 224.65 72.299Z" fill="#E0E0E0"/>
<path d="M208.187 72.2994C209.371 72.2994 210.555 72.2994 211.74 72.2994C213.626 72.2994 215.512 72.2994 217.398 72.2994C217.828 72.2994 218.258 72.2994 218.688 72.2994C219.544 72.2994 220.364 71.5468 220.324 70.6631C220.285 69.7766 219.605 69.0268 218.688 69.0268C217.504 69.0268 216.319 69.0268 215.135 69.0268C213.249 69.0268 211.363 69.0268 209.477 69.0268C209.047 69.0268 208.617 69.0268 208.187 69.0268C207.331 69.0268 206.511 69.7794 206.55 70.6631C206.59 71.5497 207.269 72.2994 208.187 72.2994Z" fill="#E0E0E0"/>
<path d="M224.649 92.3673C225.319 92.3673 225.989 92.3673 226.659 92.3673C228.252 92.3673 229.845 92.3673 231.438 92.3673C233.379 92.3673 235.32 92.3673 237.261 92.3673C238.933 92.3673 240.604 92.3673 242.276 92.3673C243.088 92.3673 243.902 92.3816 244.714 92.3673C244.725 92.3672 244.737 92.3673 244.748 92.3673C245.604 92.3673 246.424 91.6147 246.385 90.731C246.345 89.8444 245.666 89.0947 244.748 89.0947C244.078 89.0947 243.409 89.0947 242.739 89.0947C241.146 89.0947 239.553 89.0947 237.96 89.0947C236.019 89.0947 234.077 89.0947 232.136 89.0947C230.465 89.0947 228.793 89.0947 227.122 89.0947C226.309 89.0947 225.496 89.0804 224.684 89.0947C224.672 89.0948 224.661 89.0947 224.649 89.0947C223.793 89.0947 222.973 89.8473 223.013 90.731C223.053 91.6175 223.732 92.3673 224.649 92.3673Z" fill="#E0E0E0"/>
<path d="M208.187 92.3678C209.371 92.3678 210.555 92.3678 211.74 92.3678C213.626 92.3678 215.512 92.3678 217.398 92.3678C217.828 92.3678 218.258 92.3678 218.688 92.3678C219.544 92.3678 220.364 91.6152 220.325 90.7315C220.285 89.8449 219.606 89.0952 218.688 89.0952C217.504 89.0952 216.319 89.0952 215.135 89.0952C213.249 89.0952 211.363 89.0952 209.477 89.0952C209.047 89.0952 208.617 89.0952 208.187 89.0952C207.331 89.0952 206.511 89.8478 206.55 90.7315C206.59 91.618 207.269 92.3678 208.187 92.3678Z" fill="#E0E0E0"/>
<path d="M229.923 40.1479H199.877V49.8012H229.923V40.1479Z" fill="#5777FA"/>
<path d="M204.59 42.486H207.632V43.4089H205.72V44.5459H207.506V45.4615H205.72V47.4624H204.59V42.486Z" fill="#F2F2F2"/>
<path d="M209.61 42.4858V47.4623H208.48V42.4858H209.61Z" fill="#F2F2F2"/>
<path d="M210.586 42.4858H211.716V46.5172H213.694V47.4623H210.586V42.4858Z" fill="#F2F2F2"/>
<path d="M217.32 45.3581H215.489V46.5394H217.534V47.4623H214.359V42.4858H217.431V43.4087H215.489V44.4424H217.32V45.3581Z" fill="#F2F2F2"/>
<path d="M160.026 69.3794C159.918 69.192 159.771 69.0335 159.598 68.9102L159.716 68.842L159.677 68.8314L155.569 67.7279L146.291 65.2417L146.362 65.3649C146.149 65.3847 145.941 65.4485 145.752 65.5574L118.794 81.1215C118.078 81.5351 117.832 82.4512 118.246 83.1676L121.717 89.18L125.627 95.9516L144.96 129.438C145.374 130.154 146.29 130.4 147.006 129.986L181.718 109.946C182.434 109.532 182.679 108.616 182.266 107.9L160.026 69.3794Z" fill="#E1E1E1"/>
<path d="M160.845 65.7663L183.084 104.286C183.498 105.003 183.253 105.919 182.536 106.332L147.825 126.373C147.108 126.787 146.192 126.541 145.778 125.825L119.064 79.5545C118.651 78.8381 118.896 77.922 119.612 77.5084L146.57 61.9442C146.914 61.7455 147.323 61.6918 147.707 61.7944L159.935 65.0682C160.319 65.171 160.646 65.4221 160.845 65.7663Z" fill="#F7F7F7"/>
<path d="M160.496 65.2187L160.4 65.3075L155.496 69.9879C154.897 70.5595 153.948 70.5368 153.377 69.9374L153.023 69.5663L149.658 66.0427L148.439 63.9321L156.389 64.1153L160.496 65.2187Z" fill="#CACACA"/>
<path d="M160.535 65.2289L153.322 69.3931C152.606 69.8067 151.689 69.5613 151.276 68.8449L147.109 61.6284L156.388 64.1146L160.495 65.2181L160.535 65.2289Z" fill="#E0E0E0"/>
<path d="M150.095 87.2802C149.626 87.5515 149.156 87.8227 148.686 88.094C147.568 88.7392 146.451 89.3843 145.334 90.0294C143.972 90.8155 142.61 91.6017 141.248 92.388C140.076 93.0649 138.903 93.742 137.731 94.4189C137.161 94.7479 136.584 95.0673 136.021 95.4063C136.013 95.4111 136.005 95.4156 135.997 95.4203C135.396 95.7669 135.126 96.6269 135.511 97.2308C135.898 97.8367 136.678 98.0874 137.322 97.716C137.792 97.4446 138.262 97.1733 138.732 96.9021C139.849 96.257 140.966 95.6118 142.084 94.9668C143.445 94.1805 144.807 93.3944 146.169 92.6081C147.342 91.931 148.514 91.2541 149.687 90.5772C150.256 90.2482 150.833 89.9288 151.397 89.59C151.405 89.5852 151.413 89.5807 151.421 89.5759C152.021 89.2294 152.292 88.3693 151.906 87.7654C151.519 87.1595 150.739 86.9087 150.095 87.2802Z" fill="#E0E0E0"/>
<path d="M161.645 80.6132C160.814 81.0928 159.983 81.5726 159.152 82.0522C157.829 82.816 156.506 83.5798 155.183 84.3435C154.881 84.5177 154.58 84.692 154.278 84.8662C153.677 85.2128 153.407 86.0728 153.793 86.6767C154.18 87.2826 154.96 87.5333 155.603 87.1619C156.434 86.6822 157.265 86.2025 158.096 85.7228C159.419 84.9591 160.742 84.1953 162.065 83.4315C162.366 83.2573 162.668 83.083 162.97 82.9088C163.57 82.5622 163.841 81.7022 163.455 81.0983C163.068 80.4925 162.288 80.2417 161.645 80.6132Z" fill="#E0E0E0"/>
<path d="M158.222 101.357C157.752 101.629 157.283 101.9 156.813 102.171C155.695 102.816 154.578 103.461 153.461 104.107C152.099 104.893 150.737 105.679 149.375 106.465C148.203 107.142 147.03 107.819 145.858 108.496C145.288 108.825 144.711 109.144 144.148 109.483C144.14 109.488 144.132 109.493 144.123 109.497C143.523 109.844 143.253 110.704 143.638 111.308C144.025 111.914 144.805 112.164 145.449 111.793C145.919 111.522 146.389 111.25 146.859 110.979C147.976 110.334 149.093 109.689 150.211 109.044C151.572 108.257 152.934 107.471 154.296 106.685C155.468 106.008 156.641 105.331 157.814 104.654C158.383 104.325 158.96 104.006 159.524 103.667C159.532 103.662 159.54 103.658 159.548 103.653C160.148 103.306 160.419 102.446 160.033 101.842C159.646 101.237 158.866 100.986 158.222 101.357Z" fill="#E0E0E0"/>
<path d="M169.771 94.6903C168.941 95.1701 168.11 95.6497 167.279 96.1295C165.956 96.8933 164.633 97.6571 163.31 98.4208C163.008 98.595 162.706 98.7693 162.405 98.9435C161.804 99.2901 161.534 100.15 161.92 100.754C162.307 101.36 163.087 101.611 163.73 101.239C164.561 100.76 165.392 100.28 166.223 99.8C167.546 99.0362 168.868 98.2724 170.191 97.5087C170.493 97.3345 170.795 97.1601 171.097 96.986C171.697 96.6394 171.968 95.7794 171.582 95.1755C171.195 94.5696 170.415 94.3189 169.771 94.6903Z" fill="#E0E0E0"/>
<path d="M152.935 98.0879C153.405 97.8166 153.875 97.5454 154.345 97.2741C155.462 96.6289 156.58 95.9837 157.697 95.3387C159.059 94.5524 160.42 93.7663 161.782 92.98C162.955 92.303 164.127 91.6261 165.3 90.9492C165.87 90.6203 166.446 90.3007 167.01 89.9619C167.018 89.9571 167.026 89.9526 167.034 89.9479C167.635 89.6013 167.905 88.7413 167.519 88.1374C167.132 87.5315 166.352 87.2808 165.709 87.6522C165.239 87.9236 164.769 88.1949 164.299 88.4661C163.182 89.1112 162.064 89.7564 160.947 90.4014C159.585 91.1876 158.223 91.9738 156.862 92.7601C155.689 93.437 154.516 94.1141 153.344 94.791C152.774 95.12 152.198 95.4394 151.634 95.7784C151.626 95.7832 151.618 95.7876 151.61 95.7924C151.009 96.139 150.739 96.999 151.125 97.6029C151.512 98.2086 152.292 98.4595 152.935 98.0879Z" fill="#E0E0E0"/>
<path d="M141.386 104.756C142.217 104.276 143.048 103.796 143.879 103.317C145.202 102.553 146.525 101.789 147.848 101.025C148.149 100.851 148.451 100.677 148.753 100.503C149.354 100.156 149.624 99.296 149.238 98.6921C148.851 98.0862 148.071 97.8355 147.428 98.2069C146.597 98.6866 145.766 99.1663 144.935 99.6461C143.612 100.41 142.289 101.174 140.966 101.937C140.665 102.112 140.363 102.286 140.061 102.46C139.461 102.807 139.19 103.667 139.576 104.271C139.963 104.876 140.743 105.127 141.386 104.756Z" fill="#E0E0E0"/>
<path d="M161.062 112.165C161.532 111.894 162.002 111.623 162.472 111.351C163.589 110.706 164.707 110.061 165.824 109.416C167.186 108.63 168.547 107.844 169.909 107.057C171.082 106.38 172.254 105.703 173.427 105.027C173.997 104.698 174.573 104.378 175.137 104.039C175.145 104.034 175.153 104.03 175.161 104.025C175.761 103.679 176.032 102.818 175.646 102.215C175.259 101.609 174.479 101.358 173.836 101.729C173.366 102.001 172.896 102.272 172.426 102.543C171.309 103.188 170.191 103.834 169.074 104.479C167.712 105.265 166.35 106.051 164.989 106.837C163.816 107.514 162.644 108.191 161.471 108.868C160.901 109.197 160.325 109.517 159.761 109.855C159.753 109.86 159.745 109.865 159.737 109.869C159.137 110.216 158.866 111.076 159.252 111.68C159.639 112.286 160.419 112.537 161.062 112.165Z" fill="#E0E0E0"/>
<path d="M149.513 118.833C150.344 118.353 151.175 117.873 152.006 117.394C153.329 116.63 154.652 115.866 155.975 115.102C156.277 114.928 156.578 114.754 156.88 114.58C157.48 114.233 157.751 113.373 157.365 112.769C156.978 112.163 156.198 111.913 155.555 112.284C154.724 112.764 153.893 113.243 153.062 113.723C151.739 114.487 150.416 115.251 149.093 116.015C148.792 116.189 148.49 116.363 148.188 116.537C147.588 116.884 147.317 117.744 147.703 118.348C148.09 118.953 148.87 119.204 149.513 118.833Z" fill="#E0E0E0"/>
<path d="M143.61 73.3961L122.533 85.5649L126.443 92.3363L147.519 80.1674L143.61 73.3961Z" fill="#5777FA"/>
<path d="M126.787 85.2988L128.921 84.0669L129.295 84.7143L127.953 85.4888L128.414 86.2864L129.667 85.5627L130.038 86.2049L128.785 86.9286L129.595 88.3322L128.803 88.7898L126.787 85.2988Z" fill="white"/>
<path d="M130.31 83.2651L132.325 86.7561L131.533 87.2135L129.518 83.7226L130.31 83.2651Z" fill="white"/>
<path d="M130.992 82.8702L131.785 82.4126L133.417 85.2405L134.806 84.4391L135.188 85.102L133.008 86.361L130.992 82.8702Z" fill="white"/>
<path d="M136.881 82.1578L135.596 82.8993L136.075 83.7281L137.509 82.8998L137.883 83.5472L135.656 84.8331L133.641 81.3421L135.795 80.0981L136.169 80.7456L134.807 81.532L135.226 82.257L136.51 81.5154L136.881 82.1578Z" fill="white"/>
<path d="M326.029 90.7612C326.138 90.5737 326.201 90.3669 326.222 90.1555L326.34 90.2237L326.329 90.1844L325.231 86.0756L322.745 76.7968L322.674 76.92C322.55 76.7456 322.391 76.5971 322.202 76.4882L295.244 60.9241C294.528 60.5105 293.612 60.7559 293.198 61.4724L289.727 67.4849L285.817 74.2565L266.484 107.743C266.071 108.459 266.316 109.375 267.032 109.789L301.744 129.83C302.46 130.243 303.376 129.998 303.79 129.281L326.029 90.7612Z" fill="#E1E1E1"/>
<path d="M329.569 89.6645L307.329 128.185C306.915 128.901 305.999 129.146 305.283 128.733L270.571 108.692C269.855 108.279 269.609 107.363 270.023 106.646L296.737 60.3757C297.151 59.6593 298.067 59.4137 298.783 59.8274L325.741 75.3915C326.085 75.5901 326.336 75.9171 326.439 76.3007L329.718 88.5274C329.821 88.9113 329.767 89.3203 329.569 89.6645Z" fill="#F7F7F7"/>
<path d="M329.869 89.088L329.744 89.0491L323.239 87.1422C322.445 86.9093 321.99 86.0762 322.223 85.2821L322.368 84.7902L323.737 80.114L324.955 78.0034L328.771 84.9792L329.869 89.088Z" fill="#CACACA"/>
<path d="M329.878 89.1274L322.665 84.9631C321.949 84.5495 321.703 83.6334 322.117 82.9171L326.283 75.7007L328.77 84.9795L329.867 89.0883L329.878 89.1274Z" fill="#E0E0E0"/>
<path d="M305.562 91.1126C305.092 90.8413 304.623 90.5701 304.153 90.2988C303.035 89.6536 301.918 89.0084 300.8 88.3634C299.439 87.5773 298.077 86.791 296.715 86.0047C295.543 85.3278 294.37 84.6508 293.198 83.9739C292.628 83.6449 292.063 83.3055 291.488 82.9866C291.479 82.9821 291.471 82.9774 291.463 82.9726C290.863 82.626 289.983 82.8218 289.653 83.4577C289.322 84.0958 289.494 84.8966 290.138 85.2682C290.608 85.5396 291.078 85.8109 291.548 86.0821C292.665 86.7273 293.783 87.3724 294.9 88.0174C296.262 88.8037 297.623 89.5898 298.985 90.3761C300.158 91.053 301.33 91.7301 302.503 92.407C303.073 92.736 303.637 93.0754 304.213 93.3943C304.221 93.3987 304.229 93.4036 304.237 93.4083C304.837 93.7548 305.717 93.559 306.047 92.9231C306.379 92.2851 306.206 91.4841 305.562 91.1126Z" fill="#E0E0E0"/>
<path d="M317.111 97.7803C316.28 97.3007 315.45 96.8209 314.619 96.3413C313.296 95.5775 311.973 94.8138 310.65 94.05C310.348 93.8758 310.046 93.7015 309.745 93.5273C309.144 93.1807 308.264 93.3765 307.934 94.0124C307.603 94.6504 307.776 95.4513 308.419 95.8229C309.25 96.3027 310.081 96.7823 310.912 97.2621C312.235 98.0259 313.558 98.7897 314.881 99.5534C315.182 99.7276 315.484 99.902 315.786 100.076C316.386 100.423 317.266 100.227 317.596 99.591C317.928 98.9528 317.755 98.1518 317.111 97.7803Z" fill="#E0E0E0"/>
<path d="M297.435 105.19C296.965 104.918 296.495 104.647 296.026 104.376C294.908 103.731 293.791 103.086 292.673 102.441C291.312 101.654 289.95 100.868 288.588 100.082C287.416 99.405 286.243 98.7279 285.07 98.051C284.501 97.722 283.936 97.3826 283.36 97.0638C283.352 97.0593 283.344 97.0544 283.336 97.0497C282.736 96.7032 281.856 96.899 281.526 97.5349C281.194 98.1729 281.367 98.9739 282.011 99.3454C282.481 99.6167 282.951 99.8881 283.421 100.159C284.538 100.804 285.655 101.45 286.773 102.095C288.134 102.881 289.496 103.667 290.858 104.453C292.031 105.13 293.203 105.807 294.376 106.484C294.945 106.813 295.51 107.153 296.086 107.471C296.094 107.476 296.102 107.481 296.11 107.485C296.71 107.832 297.59 107.636 297.92 107C298.252 106.362 298.079 105.561 297.435 105.19Z" fill="#E0E0E0"/>
<path d="M308.984 111.857C308.153 111.378 307.322 110.898 306.492 110.418C305.169 109.655 303.846 108.891 302.523 108.127C302.221 107.953 301.919 107.779 301.617 107.604C301.017 107.258 300.137 107.454 299.807 108.09C299.476 108.728 299.649 109.528 300.292 109.9C301.123 110.38 301.954 110.859 302.785 111.339C304.108 112.103 305.43 112.867 306.753 113.63C307.055 113.805 307.357 113.979 307.659 114.153C308.259 114.5 309.139 114.304 309.469 113.668C309.801 113.03 309.628 112.229 308.984 111.857Z" fill="#E0E0E0"/>
<path d="M297.622 98.9743C298.092 99.2456 298.562 99.517 299.032 99.7881C300.149 100.433 301.267 101.078 302.384 101.724C303.746 102.51 305.107 103.296 306.469 104.082C307.642 104.759 308.814 105.436 309.987 106.113C310.557 106.442 311.122 106.781 311.697 107.1C311.705 107.105 311.713 107.11 311.721 107.114C312.322 107.461 313.201 107.265 313.532 106.629C313.863 105.991 313.69 105.19 313.047 104.819C312.577 104.547 312.107 104.276 311.637 104.005C310.519 103.36 309.402 102.714 308.285 102.069C306.923 101.283 305.561 100.497 304.199 99.7108C303.027 99.0339 301.854 98.3568 300.682 97.6799C300.112 97.3509 299.547 97.0115 298.972 96.6927C298.963 96.6882 298.956 96.6833 298.948 96.6787C298.347 96.3321 297.467 96.5279 297.137 97.1638C296.806 97.8018 296.979 98.6028 297.622 98.9743Z" fill="#E0E0E0"/>
<path d="M286.073 92.3073C286.904 92.7869 287.735 93.2667 288.566 93.7465C289.889 94.5103 291.212 95.274 292.535 96.0378C292.836 96.212 293.138 96.3863 293.44 96.5605C294.04 96.9071 294.92 96.7113 295.251 96.0754C295.582 95.4373 295.409 94.6363 294.765 94.2649C293.935 93.7852 293.104 93.3055 292.273 92.8257C290.95 92.0619 289.627 91.2981 288.304 90.5344C288.002 90.3602 287.7 90.1858 287.399 90.0117C286.798 89.6651 285.918 89.8609 285.588 90.4968C285.257 91.1348 285.43 91.9358 286.073 92.3073Z" fill="#E0E0E0"/>
<path d="M289.495 113.052C289.965 113.324 290.435 113.595 290.905 113.866C292.022 114.511 293.14 115.156 294.257 115.801C295.619 116.588 296.981 117.374 298.342 118.16C299.515 118.837 300.688 119.514 301.86 120.191C302.43 120.52 302.995 120.859 303.57 121.178C303.578 121.183 303.586 121.188 303.594 121.192C304.195 121.539 305.075 121.343 305.405 120.707C305.736 120.069 305.563 119.268 304.92 118.897C304.45 118.625 303.98 118.354 303.51 118.083C302.392 117.438 301.275 116.792 300.158 116.147C298.796 115.361 297.434 114.575 296.072 113.789C294.9 113.112 293.727 112.435 292.555 111.758C291.985 111.429 291.42 111.089 290.845 110.771C290.837 110.766 290.829 110.761 290.821 110.757C290.22 110.41 289.34 110.606 289.01 111.242C288.679 111.88 288.852 112.681 289.495 113.052Z" fill="#E0E0E0"/>
<path d="M277.946 106.384C278.777 106.864 279.608 107.344 280.439 107.823C281.762 108.587 283.085 109.351 284.408 110.115C284.71 110.289 285.011 110.463 285.313 110.637C285.913 110.984 286.793 110.788 287.124 110.152C287.455 109.514 287.282 108.713 286.638 108.342C285.808 107.862 284.977 107.382 284.146 106.903C282.823 106.139 281.5 105.375 280.177 104.611C279.875 104.437 279.573 104.263 279.272 104.089C278.671 103.742 277.791 103.938 277.461 104.574C277.13 105.212 277.303 106.013 277.946 106.384Z" fill="#E0E0E0"/>
<path d="M314.334 78.5551L293.258 66.3862L289.348 73.1576L310.425 85.3264L314.334 78.5551Z" fill="#5777FA"/>
<path d="M295.625 69.937L297.759 71.1689L297.385 71.8163L296.043 71.0418L295.583 71.8394L296.836 72.5631L296.465 73.2053L295.212 72.4816L294.402 73.8852L293.609 73.4278L295.625 69.937Z" fill="white"/>
<path d="M299.147 71.9706L297.132 75.4615L296.34 75.0041L298.355 71.5132L299.147 71.9706Z" fill="white"/>
<path d="M299.83 72.3657L300.622 72.8233L298.99 75.6512L300.378 76.4525L299.995 77.1154L297.814 75.8565L299.83 72.3657Z" fill="white"/>
<path d="M303.392 77.107L302.107 76.3654L301.629 77.1942L303.064 78.0224L302.69 78.6699L300.463 77.384L302.478 73.8931L304.633 75.1371L304.259 75.7845L302.897 74.998L302.478 75.7232L303.763 76.4648L303.392 77.107Z" fill="white"/>
<path d="M223.999 207.409C238.905 207.409 250.989 195.326 250.989 180.42C250.989 165.514 238.905 153.43 223.999 153.43C209.093 153.43 197.01 165.514 197.01 180.42C197.01 195.326 209.093 207.409 223.999 207.409Z" fill="#5777FA"/>
<path d="M238.705 169.029C237.981 169.69 237.257 170.351 236.533 171.012C234.804 172.591 233.075 174.171 231.345 175.75C229.244 177.669 227.143 179.588 225.042 181.507C223.225 183.166 221.408 184.825 219.592 186.484C218.712 187.288 217.817 188.079 216.95 188.897C216.937 188.909 216.924 188.921 216.911 188.933C218.726 188.933 220.542 188.933 222.357 188.933C221.102 187.752 219.847 186.571 218.591 185.39C216.6 183.515 214.608 181.641 212.616 179.767C212.154 179.333 211.692 178.898 211.23 178.463C210.497 177.774 209.526 177.336 208.508 177.336C207.563 177.336 206.435 177.755 205.785 178.463C205.111 179.197 204.611 180.161 204.657 181.186C204.702 182.189 205.034 183.202 205.785 183.909C207.04 185.09 208.295 186.271 209.55 187.452C211.542 189.326 213.534 191.2 215.526 193.074C215.988 193.509 216.449 193.943 216.911 194.378C217.612 195.037 218.645 195.55 219.634 195.506C220.681 195.459 221.576 195.091 222.357 194.378C223.081 193.717 223.804 193.056 224.528 192.395C226.258 190.815 227.987 189.236 229.716 187.657C231.817 185.738 233.918 183.819 236.019 181.9C237.836 180.241 239.653 178.581 241.469 176.922C242.349 176.119 243.246 175.329 244.111 174.509C244.124 174.497 244.137 174.486 244.15 174.474C244.859 173.827 245.278 172.693 245.278 171.751C245.278 170.807 244.858 169.679 244.15 169.029C243.416 168.355 242.453 167.855 241.427 167.901C240.38 167.948 239.486 168.315 238.705 169.029Z" fill="#F2F2F2"/>
</g>
<defs>
<clipPath id="clip0_2_7284">
<rect width="447" height="298" fill="white" transform="translate(0.5 0.0512695)"/>
</clipPath>
</defs>
</svg>
