<?xml version="1.0" encoding="utf-8"?>
<!-- Generator: Adobe Illustrator 27.0.0, SVG Export Plug-In . SVG Version: 6.00 Build 0)  -->
<svg version="1.1" id="Layer_1" xmlns="http://www.w3.org/2000/svg" xmlns:xlink="http://www.w3.org/1999/xlink" x="0px" y="0px"
	 viewBox="0 0 512 323.8" style="enable-background:new 0 0 512 323.8;" xml:space="preserve">
<style type="text/css">
	.st0{clip-path:url(#SVGID_00000105421714345544204340000016159861917958381498_);}
	.st1{fill:#EFF5FF;}
	.st2{fill:#6690C0;}
	.st3{fill:#D1EEFF;}
	.st4{opacity:9.000000e-02;enable-background:new    ;}
	.st5{fill:#FC4837;}
	.st6{fill:#2B74C1;}
	.st7{fill:#FFFFFF;}
	.st8{fill:#121345;}
	.st9{fill:#E4EEF8;}
	.st10{fill:#111244;}
	.st11{fill:#F0F9FF;}
	.st12{fill:#326091;}
	.st13{fill:#B3E2FF;}
	.st14{fill:#E56A28;}
	.st15{fill:#21A3CD;}
	.st16{fill:#68A0D4;}
	.st17{fill:#A5C8E8;}
	.st18{fill:#1B3452;}
	.st19{fill:#3E5587;}
	.st20{fill:#253C57;}
	.st21{fill:#FAB08B;}
	.st22{fill:#3568A4;}
	.st23{fill:#325073;}
	.st24{fill:#F16E24;}
	.st25{fill:#C3E0F4;}
	.st26{fill:#FEF7BE;}
	.st27{fill:#FF9D4B;}
	.st28{fill:#F5FFFF;}
	.st29{fill:#C7E4FF;}
	.st30{opacity:0.2;fill:#3E6690;enable-background:new    ;}
</style>
<g>
	<defs>
		<rect id="SVGID_1_" y="-94.1" width="512" height="512"/>
	</defs>
	<clipPath id="SVGID_00000138538944722926626620000008550724961780215684_">
		<use xlink:href="#SVGID_1_"  style="overflow:visible;"/>
	</clipPath>
	<g style="clip-path:url(#SVGID_00000138538944722926626620000008550724961780215684_);">
		<path class="st1" d="M417.8,324c71.6-21.1,109-95.3,88.7-155.8c-16.6-49.5-69.8-83.9-128.9-79.3C345.6,16,263.1-17.6,195.6,8.7
			c-58.2,22.7-95.4,86.3-86.6,153.4c-42.5-12-87.4,9-103.8,53.2c-19.3,52.2,17.1,108.6,70.5,108.6L417.8,324L417.8,324z"/>
		<path class="st2" d="M148.6,184.8c36-0.7,64.6-30.4,63.9-66.4c-0.7-36-30.4-64.6-66.4-63.9c-36,0.7-64.6,30.4-63.9,66.4
			C82.9,156.9,112.6,185.5,148.6,184.8z"/>
		<path class="st3" d="M148.3,173.5c29.7-0.5,53.4-25,52.9-54.7c-0.5-29.7-25-53.4-54.7-52.9c-29.7,0.5-53.4,25-52.9,54.7
			C94,150.3,118.5,174,148.3,173.5z"/>
		<path class="st2" d="M189.8,119.8c0-23.4-18.9-42.5-42.4-42.5s-42.5,18.9-42.5,42.4c0,23.4,18.9,42.5,42.4,42.5
			C170.7,162.2,189.8,143.2,189.8,119.8z"/>
		<path class="st3" d="M147.3,150.8c17.1,0,31.1-14,31.1-31.1c0-17.1-14-31.1-31.1-31.1s-31.1,14-31.1,31.1
			C116.3,136.8,130.2,150.8,147.3,150.8z"/>
		<path class="st2" d="M147.3,139.4c10.9,0,19.7-8.8,19.7-19.7c0-10.9-8.8-19.7-19.7-19.7c-10.9,0-19.7,8.8-19.7,19.7
			C127.6,130.5,136.5,139.4,147.3,139.4z"/>
		<path class="st3" d="M148.3,128c4.6-0.5,7.9-4.6,7.4-9.2c-0.5-4.6-4.6-7.9-9.2-7.4c-4.6,0.5-7.9,4.6-7.4,9.2
			C139.5,125.2,143.7,128.5,148.3,128z"/>
		<path class="st4" d="M84.9,119.9c0-0.8,0.5-1.4,1.1-1.5l-3.9-6.3l20.1-0.6l3.1,7l39.9,0.3c0.8,0,1.4,0.8,1.4,1.7
			c0,0.5-0.2,0.9-0.5,1.2c-0.3,0.3-0.6,0.4-1,0.4l-40.1-0.3l-2.8,6.2l-19.1-0.1l2.9-6.3C85.4,121.3,84.9,120.7,84.9,119.9z"/>
		<path class="st5" d="M96.5,74.9L96.5,74.9l0.9-9.3l17.9,14.9l-2.2,9l-8.6,3.4L87.9,78.3L96.5,74.9z"/>
		<path class="st6" d="M146.8,121.4c0.4,0,0.9-0.2,1.2-0.5c0.6-0.7,0.6-1.7-0.1-2.3l-51-45.1c-0.7-0.6-1.7-0.6-2.3,0.1
			c-0.6,0.7-0.6,1.7,0.1,2.3l51,45.1C146.1,121.2,146.5,121.4,146.8,121.4z"/>
		<path class="st7" d="M133.8,318.4l35.8-73.6l179.9-0.8l31.1,74.4H133.8z"/>
		<path class="st8" d="M377.5,316.8H136.8c-2,0-3.6,1.6-3.6,3.6s1.6,3.6,3.6,3.6h240.6c2,0,3.6-1.6,3.6-3.6
			C381.1,318.4,379.4,316.8,377.5,316.8z"/>
		<path class="st8" d="M169.6,244.8V128.3c0-4.8,3.9-8.6,8.6-8.6h156.2c7.5,0,15.4,3.5,13.7,12.7l1.3,111.7L169.6,244.8z"/>
		<path class="st9" d="M337.7,131.2h-158v106.5h158V131.2z"/>
		<path class="st8" d="M179.3,251L163,286.4c-0.4,0.9,0.2,1.9,1.2,1.9h190.3c1,0,1.6-1,1.2-1.9L340.2,251c-0.2-0.5-0.7-0.8-1.2-0.8
			H180.5C180,250.2,179.5,250.5,179.3,251z"/>
		<path class="st7" d="M182.1,254.4c0.4-0.8,1.4-1.4,2.2-1.4h11.3c0.9,0,1.3,0.6,1,1.5l-1.1,2.6c-0.3,0.8-1.3,1.5-2.2,1.5h-11.5
			c-0.9,0-1.3-0.6-0.9-1.4L182.1,254.4z"/>
		<path class="st7" d="M180.3,261.8c-0.9,0-1.9,0.6-2.2,1.5l-1.2,2.7c-0.4,0.8,0.1,1.5,0.9,1.5h17.2c0.9,0,1.8-0.7,2.1-1.5l0.9-2.5
			c0.3-0.8-0.2-1.5-1.1-1.5L180.3,261.8L180.3,261.8z"/>
		<path class="st7" d="M173.6,272.5c0.3-0.8,1.3-1.5,2.2-1.5h22.3c0.9,0,1.3,0.7,1.1,1.5l-0.9,2.5c-0.3,0.8-1.2,1.5-2.1,1.5h-22.7
			c-0.9,0-1.3-0.6-1-1.5L173.6,272.5z"/>
		<path class="st7" d="M169.9,281.3c0.4-0.8,1.4-1.5,2.2-1.5h3.8c0.9,0,1.3,0.6,1,1.5l-1.4,3.2c-0.3,0.8-1.3,1.5-2.2,1.5h-3.9
			c-0.9,0-1.3-0.6-0.9-1.5L169.9,281.3z"/>
		<path class="st7" d="M180.7,281.4c0.3-0.8,1.3-1.5,2.2-1.5h3.9c0.9,0,1.3,0.7,1.1,1.5l-1.1,3.1c-0.3,0.8-1.2,1.5-2.1,1.5h-4.2
			c-0.9,0-1.3-0.7-1-1.5L180.7,281.4z"/>
		<path class="st7" d="M191.8,281.4c0.3-0.8,1.3-1.5,2.1-1.5h4.2c0.9,0,1.4,0.7,1.1,1.5l-1,3c-0.3,0.8-1.2,1.5-2.1,1.5h-4.4
			c-0.9,0-1.3-0.7-1.1-1.5L191.8,281.4z"/>
		<path class="st7" d="M203.9,279.9c-0.9,0-1.8,0.7-2,1.5l-1,3c-0.3,0.8,0.3,1.5,1.1,1.5h114.4c0.9,0,1.4-0.7,1.2-1.5l-0.8-3.3
			c-0.2-0.8-1.1-1.3-2-1.3L203.9,279.9z"/>
		<path class="st7" d="M323,279.9c-0.9,0-1.3,0.7-1.1,1.6l0.8,3c0.2,0.8,1.1,1.5,2,1.5h7.4c0.9,0,1.4-0.7,1.1-1.5l-0.9-2.9
			c-0.3-1-1.3-1.7-2.2-1.7L323,279.9L323,279.9z"/>
		<path class="st7" d="M315.4,271c-0.9,0-1.4,0.7-1.1,1.5l0.6,2.1c0.2,0.8,1.1,1.5,2,1.6l12.7,0.3c0.9,0,1.4-0.6,1.1-1.5l-0.7-2.5
			c-0.3-0.8-1.1-1.5-2-1.5L315.4,271L315.4,271z"/>
		<path class="st7" d="M335.9,281.1c-0.3-0.8,0.3-1.2,1.1-1.2h12.1c0.9,0,1.9,0.4,2.3,1.2l1.8,3.9c0.4,0.8-0.4,1-1.2,1l-12.8,0.1
			c-0.9,0-1.8-0.7-2.1-1.5L335.9,281.1z"/>
		<path class="st7" d="M204.9,276.6c-0.9,0-1.4-0.7-1.1-1.5l0.8-2.5c0.3-0.8,1.2-1.5,2-1.5h6.4c0.9,0,1.4,0.7,1.2,1.5l-0.6,2.5
			c-0.2,0.8-1.1,1.5-2,1.5L204.9,276.6L204.9,276.6z"/>
		<path class="st7" d="M221.1,271c-0.9,0-1.8,0.7-2,1.5l-0.6,2.5c-0.2,0.8,0.4,1.5,1.2,1.5h6.3c0.9,0,1.7-0.7,1.9-1.6l0.4-2.4
			c0.2-0.9-0.4-1.6-1.3-1.6L221.1,271L221.1,271z"/>
		<path class="st7" d="M234.7,271c-0.9,0-1.7,0.7-1.8,1.6l-0.4,2.4c-0.1,0.9,0.4,1.6,1.3,1.6h6.1c0.9,0,1.7-0.7,1.8-1.6l0.3-2.4
			c0.1-0.9-0.5-1.6-1.4-1.6L234.7,271L234.7,271z"/>
		<path class="st7" d="M248.1,271c-0.9,0-1.6,0.7-1.7,1.6l-0.2,2.4c-0.1,0.9,0.6,1.6,1.4,1.6h5.8c0.9,0,1.6-0.7,1.7-1.6l0.1-2.4
			c0.1-0.9-0.6-1.6-1.5-1.6L248.1,271L248.1,271z"/>
		<path class="st7" d="M261.6,271c-0.9,0-1.6,0.7-1.6,1.6L260,275c0,0.9,0.7,1.6,1.5,1.6h6c0.9,0,1.6-0.7,1.6-1.6v-2.4
			c0-0.9-0.7-1.6-1.6-1.6H261.6z"/>
		<path class="st7" d="M274.3,271c-0.9,0-1.6,0.7-1.6,1.6v2.4c0,0.9,0.7,1.6,1.6,1.6h6c0.9,0,1.6-0.7,1.6-1.6v-2.4
			c0-0.9-0.7-1.6-1.6-1.6H274.3z"/>
		<path class="st7" d="M288.4,271c-0.9,0-1.5,0.7-1.3,1.6l0.4,2.4c0.1,0.9,1,1.6,1.8,1.6h5.8c0.9,0,1.5-0.7,1.3-1.6l-0.4-2.4
			c-0.1-0.9-1-1.6-1.8-1.6H288.4z"/>
		<path class="st7" d="M301.4,271.1c-0.9,0-1.5,0.7-1.3,1.5l0.4,2.4c0.2,0.9,1,1.6,1.9,1.6h6.2c0.9,0,1.4-0.7,1.3-1.5l-0.5-2.3
			c-0.2-0.8-1-1.6-1.9-1.6L301.4,271.1z"/>
		<path class="st7" d="M334.1,271c-0.9,0-1.3,0.7-1,1.5l1,2.6c0.3,0.8,1.3,1.5,2.2,1.5h11.6c0.9,0,1.3-0.6,1-1.5l-1.1-2.7
			c-0.4-0.8-1.3-1.5-2.2-1.5H334.1z"/>
		<path class="st7" d="M202.8,262.2c-0.1,0.2-0.3,1-0.6,1.8l-0.6,2c-0.3,0.8,0.2,1.5,1.1,1.5h6.8c0.9,0,1.8-0.7,2-1.5l0.7-2.5
			c0.3-0.8-0.3-1.5-1.1-1.5h-6.5C203.6,261.8,202.9,262,202.8,262.2z"/>
		<path class="st7" d="M218.6,261.8c-0.9,0-1.8,0.7-2,1.5l-0.6,2.5c-0.2,0.8,0.3,1.5,1.2,1.5h6c0.9,0,1.7-0.7,1.9-1.5l0.5-2.4
			c0.2-0.8-0.4-1.5-1.3-1.5L218.6,261.8L218.6,261.8z"/>
		<path class="st7" d="M231,267.4c-0.9,0-1.5-0.7-1.3-1.6l0.4-2.4c0.2-0.9,1-1.6,1.9-1.6h5.4c0.9,0,1.5,0.7,1.4,1.6l-0.3,2.4
			c-0.1,0.9-1,1.6-1.8,1.6L231,267.4L231,267.4z"/>
		<path class="st7" d="M244.2,267.4c-0.9,0-1.5-0.7-1.4-1.6l0.3-2.4c0.1-0.9,0.9-1.6,1.8-1.6h5.4c0.9,0,1.5,0.7,1.5,1.6l-0.2,2.4
			c-0.1,0.9-0.8,1.6-1.7,1.6L244.2,267.4L244.2,267.4z"/>
		<path class="st7" d="M256.9,267.4c-0.9,0-1.5-0.7-1.5-1.6l0.2-2.4c0.1-0.9,0.9-1.6,1.7-1.6h5.1c0.9,0,1.6,0.7,1.6,1.6v2.4
			c0,0.9-0.7,1.6-1.6,1.6L256.9,267.4L256.9,267.4z"/>
		<path class="st7" d="M270.5,267.4c-0.9,0-1.6-0.7-1.6-1.6l0-2.4c0-0.9,0.7-1.6,1.6-1.6h5.3c0.9,0,1.6,0.7,1.7,1.6l0.1,2.4
			c0.1,0.9-0.6,1.6-1.5,1.6H270.5z"/>
		<path class="st7" d="M282.8,267.4c-0.9,0-1.6-0.7-1.7-1.6l-0.2-2.4c-0.1-0.9,0.6-1.6,1.5-1.6h5.6c0.9,0,1.7,0.7,1.7,1.6l0.2,2.4
			c0.1,0.9-0.6,1.6-1.4,1.6L282.8,267.4L282.8,267.4z"/>
		<path class="st7" d="M296,267.4c-0.9,0-1.7-0.7-1.9-1.6l-0.5-2.4c-0.2-0.9,0.4-1.6,1.3-1.6h5.8c0.9,0,1.7,0.7,1.9,1.6l0.5,2.4
			c0.2,0.9-0.4,1.6-1.3,1.6H296z"/>
		<path class="st7" d="M201.3,258.5c-0.9,0-1.3-0.7-1.1-1.5l0.9-2.5c0.3-0.8,1.3-1.5,2.1-1.5h5.8c0.9,0,1.4,0.7,1.1,1.5l-0.7,2.5
			c-0.3,0.8-1.2,1.5-2,1.5L201.3,258.5z"/>
		<path class="st7" d="M215.1,258.5c-0.9,0-1.4-0.7-1.1-1.5l0.7-2.5c0.3-0.8,1.1-1.5,2-1.5h5.5c0.9,0,1.4,0.7,1.2,1.5l-0.6,2.5
			c-0.2,0.8-1.1,1.5-2,1.5L215.1,258.5L215.1,258.5z"/>
		<path class="st7" d="M227.7,258.5c-0.9,0-1.4-0.7-1.1-1.5l0.8-2.5c0.3-0.8,1.2-1.5,2-1.5h5.2c0.9,0,1.5,0.7,1.3,1.6l-0.4,2.4
			c-0.1,0.9-1,1.6-1.8,1.6L227.7,258.5L227.7,258.5z"/>
		<path class="st7" d="M241.1,258.5c-0.9,0-1.5-0.7-1.4-1.6l0.3-2.4c0.1-0.9,1-1.6,1.8-1.6h5c0.9,0,1.5,0.7,1.4,1.6L248,257
			c-0.1,0.9-0.9,1.6-1.8,1.6H241.1z"/>
		<path class="st7" d="M253.7,258.5c-0.9,0-1.5-0.7-1.5-1.6l0.2-2.4c0.1-0.9,0.8-1.6,1.7-1.6h4.9c0.9,0,1.6,0.7,1.5,1.6l-0.1,2.4
			c0,0.9-0.8,1.6-1.6,1.6H253.7z"/>
		<path class="st7" d="M265.7,258.5c-0.9,0-1.6-0.7-1.6-1.6l0-2.4c0-0.9,0.7-1.6,1.6-1.6h4.8c0.9,0,1.6,0.7,1.6,1.6v2.4
			c0,0.9-0.7,1.6-1.6,1.6H265.7z"/>
		<path class="st7" d="M278.6,258.5c-0.9,0-1.6-0.7-1.7-1.6l-0.1-2.4c-0.1-0.9,0.6-1.6,1.5-1.6h5c0.9,0,1.7,0.7,1.8,1.6l0.3,2.4
			c0.1,0.9-0.5,1.6-1.4,1.6L278.6,258.5L278.6,258.5z"/>
		<path class="st7" d="M290.8,258.5c-0.9,0-1.7-0.7-1.8-1.6l-0.3-2.4c-0.1-0.9,0.5-1.6,1.4-1.6h5c0.9,0,1.7,0.7,1.9,1.6l0.4,2.4
			c0.2,0.9-0.4,1.6-1.3,1.6L290.8,258.5L290.8,258.5z"/>
		<path class="st7" d="M302.2,258.5c-0.9,0-1.7-0.7-1.8-1.6l-0.3-2.4c-0.1-0.9,0.5-1.6,1.4-1.6h5c0.9,0,1.7,0.7,1.9,1.6l0.4,2.4
			c0.2,0.9-0.4,1.6-1.3,1.6L302.2,258.5L302.2,258.5z"/>
		<path class="st7" d="M313.5,258.5c-0.9,0-1.8-0.7-2-1.5l-0.6-2.5c-0.2-0.8,0.3-1.5,1.2-1.5h5.5c0.9,0,1.7,0.7,1.9,1.6l0.5,2.4
			c0.2,0.9-0.4,1.6-1.3,1.6L313.5,258.5L313.5,258.5z"/>
		<path class="st7" d="M325.4,258.5c-0.9,0-1.8-0.7-2.1-1.5l-0.8-2.5c-0.3-0.8,0.2-1.5,1.1-1.5H338c0.9,0,1.9,0.7,2.2,1.5l1.1,2.6
			c0.3,0.8-0.1,1.5-1,1.5H325.4z"/>
		<path class="st7" d="M307.4,262c-0.9,0-1.4,0.7-1.2,1.5l0.6,2.5c0.2,0.8,1.1,1.5,2,1.5h6.2c0.9,0,1.4-0.7,1.1-1.5l-0.8-2.5
			c-0.3-0.8-1.2-1.5-2-1.5H307.4z"/>
		<path class="st7" d="M321.5,261.8c-1,0-1.6,0.8-1.3,1.7l0.6,2.1c0.3,1,1.3,1.7,2.3,1.7h20.6c1,0,1.5-0.8,1.1-1.7l-0.9-2.2
			c-0.4-0.9-1.5-1.7-2.4-1.7L321.5,261.8L321.5,261.8z"/>
		<path class="st10" d="M278.9,312.7h-43.4c0,0-0.1,0-0.1,0c-3.2-0.1-5.5-3.3-4.7-6.4l3-10.9c1-3.2,2.4-4.4,5.3-4.4h36.2
			c2.9,0,4.7,0.8,5.3,4.4l3.1,10.9C284.5,309.4,282.2,312.6,278.9,312.7C278.9,312.7,278.9,312.7,278.9,312.7z"/>
		<path class="st11" d="M251.9,176.4l-0.2-7.4l-0.1-5c-2,1.1-4.4,4.1-6.6,2c-1.8-1.7-2.7-4.8-4.1-7c-1.1-1.7-1.3-1.9-3.2-2.1
			c-1.3-0.1-1.6-0.1-2.7,0.8c-1.8,1.7-4,2.7-6,4.2c-1.5,1.1-2.4,2.4-4.4,2c-2.3-0.5-5-2.1-7-3.3c-2.1-1.3-5.9-4.5-8.6-4.1
			c-2.6,0.4-4.8,3.6-7.5,2.5c-1.1-0.5-2.3-1.5-3.4-2.2c-0.8-0.5-2-1.9-3.1-1.9c-1.6,0-5,3.5-6,4.4c-1,0.8-1.8,1.9-2.7,2.7
			c-0.9,0.7-2,0.9-2.9,1.5l-0.1,7.9c0.1,0,0.1,0,0.1,0v4.4L251.9,176.4z"/>
		<path class="st6" d="M183.5,163.5c0.9-0.6,2-0.8,2.9-1.5c1-0.8,1.8-1.9,2.7-2.7c1.1-1,4.5-4.4,6-4.4c1.1,0,2.3,1.3,3.1,1.9
			c1,0.6,2.2,1.7,3.4,2.2c2.7,1.1,4.9-2.1,7.5-2.5c2.7-0.4,6.5,2.8,8.6,4.1c2,1.3,4.6,2.9,7,3.3c2,0.4,2.9-1,4.4-2
			c2-1.5,4.1-2.5,6-4.2c1-0.9,1.4-0.9,2.7-0.8c1.9,0.2,2,0.4,3.2,2.1c1.4,2.1,2.3,5.3,4.1,7c2.2,2.1,4.6-0.8,6.6-2l-0.1-9.3
			c-1.7-0.9-2.9-4.1-3-5.9c-0.1-2.1,0-4.3,0-6.3c-0.7,3-2,6.4-3.1,9.3c-1.2,2.9-1.4,5.9-1.3,9.1c0.3-3-1.9-6-2.6-8.8
			c-1-3.7-1.5-7.9-1.8-11.7c-1.4,0-3.3-0.5-4.7-0.1c-1.5,0.4-1.6,2-1.8,3.5c-0.4,2.3-1.6,4.3-2.2,6.7c-0.5,2.2-0.4,4.6-2.1,6.3
			c-2.5-1.6-3.5-4.2-5.7-5.9c-5.1,0-8.4-3-8.4-3l-3,5.6l-5.3-2.4l-3-5.9c0,0-0.6,7.1-2.7,5.6c-2.1-1.5-5.6-8.2-5.6-8.2l-2.9,5.5
			l-8.8,8.7L183.5,163.5z"/>
		<path class="st5" d="M251.8,174.7c-2.4-0.1-3.9-0.1-6.1-0.8c-3.1-1.1-5.8-2.8-8.3-4.3c-0.6-0.4-1.7-1.3-2.5-1.4
			c-1.1-0.1-3.7,1-4.7,1.3c-3.3,1-7.5,2.6-11,1.3c-3.4-1.2-6.8-6.7-11.2-4.7c-1.7,0.7-2.3,1.2-4.4,1c-2.5-0.3-4.3-0.1-6.4,0.9
			c-4,2-7.9,6.1-13.6,6.1v5h68.3L251.8,174.7z"/>
		<path class="st12" d="M251.8,179.4h-68.7v-45.7h0.5v45.2h68.2V179.4z"/>
		<path class="st12" d="M186.6,176.4h-0.4v2.7h0.4V176.4z"/>
		<path class="st12" d="M189.3,176.4h-0.4v2.7h0.4V176.4z"/>
		<path class="st12" d="M192.1,176.4h-0.4v2.7h0.4V176.4z"/>
		<path class="st12" d="M194.8,176.4h-0.4v2.7h0.4V176.4z"/>
		<path class="st12" d="M197.5,176.4h-0.4v2.7h0.4V176.4z"/>
		<path class="st12" d="M200.3,176.4h-0.4v2.7h0.4V176.4z"/>
		<path class="st12" d="M203,176.4h-0.4v2.7h0.4V176.4z"/>
		<path class="st12" d="M205.7,176.4h-0.4v2.7h0.4V176.4z"/>
		<path class="st12" d="M208.5,176.4H208v2.7h0.4V176.4z"/>
		<path class="st12" d="M211.2,176.4h-0.4v2.7h0.4V176.4z"/>
		<path class="st12" d="M213.9,176.4h-0.4v2.7h0.4V176.4z"/>
		<path class="st12" d="M216.7,176.4h-0.4v2.7h0.4V176.4z"/>
		<path class="st12" d="M219.4,176.4h-0.4v2.7h0.4V176.4z"/>
		<path class="st12" d="M222.1,176.4h-0.4v2.7h0.4V176.4z"/>
		<path class="st12" d="M224.9,176.4h-0.4v2.7h0.4V176.4z"/>
		<path class="st12" d="M227.6,176.4h-0.4v2.7h0.4V176.4z"/>
		<path class="st12" d="M230.3,176.4h-0.4v2.7h0.4V176.4z"/>
		<path class="st12" d="M233,176.4h-0.4v2.7h0.4V176.4z"/>
		<path class="st12" d="M235.8,176.4h-0.4v2.7h0.4V176.4z"/>
		<path class="st12" d="M238.5,176.4h-0.4v2.7h0.4V176.4z"/>
		<path class="st12" d="M241.2,176.4h-0.4v2.7h0.4V176.4z"/>
		<path class="st12" d="M244,176.4h-0.4v2.7h0.4V176.4z"/>
		<path class="st12" d="M246.7,176.4h-0.4v2.7h0.4V176.4z"/>
		<path class="st12" d="M249.4,176.4H249v2.7h0.4V176.4z"/>
		<path class="st12" d="M252.2,176.4h-0.4v2.7h0.4V176.4z"/>
		<path class="st13" d="M330.4,136.4h-70.5v2.8h70.5V136.4z"/>
		<path class="st6" d="M291.6,136.4h-31.7v2.8h31.7V136.4z"/>
		<path class="st13" d="M330.4,142h-70.5v2.8h70.5V142z"/>
		<path class="st14" d="M302.3,142h-42.4v2.8h42.4V142z"/>
		<path class="st13" d="M330.4,147.8h-70.5v2.8h70.5V147.8z"/>
		<path class="st15" d="M277.5,147.8h-17.5v2.8h17.5V147.8z"/>
		<path class="st13" d="M330.4,153.6h-70.5v2.8h70.5V153.6z"/>
		<path class="st5" d="M295.2,153.6h-35.2v2.8h35.2V153.6z"/>
		<path class="st15" d="M190.5,199h-6.5v16.8h6.5V199z"/>
		<path class="st14" d="M197,190.9h-6.5v25h6.5V190.9z"/>
		<path class="st13" d="M210,195.7h-6.5v20.2h6.5V195.7z"/>
		<path class="st6" d="M216.2,190.4h-6.5v25.5h6.5V190.4z"/>
		<path class="st5" d="M203.6,182.5H197v33.3h6.5V182.5z"/>
		<path class="st7" d="M224.8,219.7h-40.9v1.1h40.9V219.7z"/>
		<path class="st7" d="M224.8,222.2h-40.9v1.1h40.9V222.2z"/>
		<path class="st7" d="M224.8,224.7h-40.9v1.1h40.9V224.7z"/>
		<path class="st7" d="M224.8,227.2h-40.9v1.1h40.9V227.2z"/>
		<path class="st7" d="M224.8,229.7h-40.9v1.1h40.9V229.7z"/>
		<path class="st7" d="M224.8,232.2h-40.9v1.1h40.9V232.2z"/>
		<path class="st7" d="M331.2,166.2h-20.4v1.1h20.4V166.2z"/>
		<path class="st7" d="M331.2,168.6h-20.4v1.1h20.4V168.6z"/>
		<path class="st7" d="M331.2,171.1h-20.4v1.1h20.4V171.1z"/>
		<path class="st7" d="M331.2,173.6h-20.4v1.1h20.4V173.6z"/>
		<path class="st7" d="M331.2,176.1h-20.4v1.1h20.4V176.1z"/>
		<path class="st7" d="M331.2,178.6h-20.4v1.1h20.4V178.6z"/>
		<path class="st7" d="M331.2,181.3h-20.4v1.1h20.4V181.3z"/>
		<path class="st7" d="M331.2,183.8h-20.4v1.1h20.4V183.8z"/>
		<path class="st7" d="M331.2,186.3h-20.4v1.1h20.4V186.3z"/>
		<path class="st7" d="M331.2,188.8h-20.4v1.1h20.4V188.8z"/>
		<path class="st7" d="M331.2,191.3h-20.4v1.1h20.4V191.3z"/>
		<path class="st7" d="M331.2,193.8h-20.4v1.1h20.4V193.8z"/>
		<path class="st7" d="M251.5,204.2h-20.4v1.1h20.4V204.2z"/>
		<path class="st7" d="M251.5,206.7h-20.4v1.1h20.4V206.7z"/>
		<path class="st7" d="M251.5,209.1h-20.4v1.1h20.4V209.1z"/>
		<path class="st7" d="M251.5,211.6h-20.4v1.1h20.4V211.6z"/>
		<path class="st7" d="M251.5,214.1h-20.4v1.1h20.4V214.1z"/>
		<path class="st7" d="M251.5,216.6h-20.4v1.1h20.4V216.6z"/>
		<path class="st7" d="M251.5,218.8h-20.4v1.1h20.4V218.8z"/>
		<path class="st7" d="M251.5,221.3h-20.4v1.1h20.4V221.3z"/>
		<path class="st7" d="M251.5,223.8h-20.4v1.1h20.4V223.8z"/>
		<path class="st7" d="M251.5,226.3h-20.4v1.1h20.4V226.3z"/>
		<path class="st7" d="M251.5,228.8h-20.4v1.1h20.4V228.8z"/>
		<path class="st7" d="M251.5,231.2h-20.4v1.1h20.4V231.2z"/>
		<path class="st7" d="M251.9,189.1h-31.6v1.1h31.6V189.1z"/>
		<path class="st7" d="M251.9,191.6h-31.6v1.1h31.6V191.6z"/>
		<path class="st7" d="M251.9,194.1h-31.6v1.1h31.6V194.1z"/>
		<path class="st7" d="M251.9,196.6h-31.6v1.1h31.6V196.6z"/>
		<path class="st7" d="M251.9,199h-31.6v1.1h31.6V199z"/>
		<path class="st7" d="M251.9,201.5h-31.6v1.1h31.6V201.5z"/>
		<path class="st6" d="M286.3,161.1v18l14.3-11C297.3,163.9,292.1,161.1,286.3,161.1z"/>
		<path class="st14" d="M300.6,168.1l-14.3,11v18c10,0,18-8.1,18-18C304.3,175,302.9,171.2,300.6,168.1z"/>
		<path class="st15" d="M268.3,179.1c0,10,8.1,18,18,18v-18H268.3z"/>
		<path class="st13" d="M268.3,179.1l18,0v-18C276.4,161.1,268.3,169.1,268.3,179.1z"/>
		<path class="st7" d="M331.2,201.8h-69.7v33.6h69.7V201.8z"/>
		<path class="st6" d="M261.5,216.8h11.3l7.9-7.6h15.4l11.7,15.1l23.3-18.8v3.6l-23.2,19L296.1,213h-15.4l-7.8,7.5l-11.4,0.1V216.8z
			"/>
		<path class="st5" d="M265.3,220.6v14.8h7.4v-14.9L265.3,220.6z"/>
		<path class="st14" d="M292.6,213.3h-7.9v22.1h7.9V213.3z"/>
		<path class="st16" d="M323,215.9v19.6h8.2v-26.2L323,215.9z"/>
		<path class="st17" d="M462.9,173.3l13.2-0.2l-0.3-23.2l-13.1,0.2c-0.5-1.6-1.2-3.1-1.9-4.6l9.3-9.3l-16.4-16.4l-9.2,9.3
			c-1.6-0.8-3.3-1.5-5-2.1V114h-23.2V127c-1.9,0.6-3.7,1.4-5.5,2.3l-9.4-9.1l-16.2,16.6l9.4,9.1c-0.8,1.6-1.5,3.3-2,5l-13.1,0.2
			l0.3,23.2l13.2-0.2c0.5,1.5,1.2,3,1.9,4.5l-9.4,9.4l16.4,16.4l9.4-9.4c1.6,0.8,3.2,1.5,4.9,2v13.3h23.2V197
			c1.8-0.6,3.6-1.4,5.3-2.2l9.5,9.3l16.2-16.6l-9.5-9.2C461.7,176.6,462.3,175,462.9,173.3z M448.2,182.5
			c-5.5,5.5-12.7,8.4-20.4,8.4s-15-3-20.4-8.4c-5.5-5.5-8.4-12.7-8.4-20.4s3-15,8.4-20.4c5.5-5.5,12.7-8.4,20.4-8.4s15,3,20.4,8.4
			c5.5,5.5,8.4,12.7,8.4,20.4S453.7,177.1,448.2,182.5z"/>
		<path class="st17" d="M427.8,136.2c-14.3,0-25.9,11.6-25.9,25.9c0,14.3,11.6,25.9,25.9,25.9c14.3,0,25.9-11.6,25.9-25.9
			C453.7,147.9,442.1,136.2,427.8,136.2z M427.8,180.1c-9.9,0-17.9-8-17.9-17.9c0-9.9,8-17.9,17.9-17.9c9.9,0,17.9,8,17.9,17.9
			C445.7,172,437.7,180.1,427.8,180.1z"/>
		<path class="st18" d="M311.1,180.3c0,0,0.1,58.5,3.1,67l3.8,39.3c0,0,2,2.3,9.1,0c0,0,2.6-47,1.7-49.7l3.1-46.2
			C332,190.7,315.5,184.7,311.1,180.3z"/>
		<path class="st19" d="M315.9,183.5l10.5,12.3l12.5,51l9.7,41.2c0,0,3.7,5.6,10.1,0v-1.3l-6.3-49.7l-4.6-45.5
			C348,191.4,334.3,192.6,315.9,183.5z"/>
		<path class="st20" d="M302.6,153.6c0.3,3.9-3.1,2.5-6.3,1.7c-5.3-1.4-10.4-3.7-15.2-6.7c-3,3-4.4,6-5.7,10
			c9.3,5.5,19.4,9.2,29.9,13.7c1.3,0.6,3.8,0.8,5.1,0.2c0,0-0.2-16.4,0.2-24.2c0.2-3.9,0-8.8,1.4-14.8c1-4.2,2.2-10.2,2.2-10.2
			s-4.3,4.3-5.9,7.4C305.6,136.3,302.2,147.6,302.6,153.6z"/>
		<path class="st7" d="M291.7,168.5l-21.3-6.7L259,128.4l21.3,6.7L291.7,168.5z"/>
		<path class="st21" d="M271.6,157.2l-3.6,0.1c-0.9,0-1.7-0.5-2-1.4l-2.5-7c-0.5-1.3,0.5-2.8,1.9-2.8l3.6-0.1c0.9,0,1.7,0.5,2,1.4
			l2.5,7C274,155.7,273.1,157.1,271.6,157.2z"/>
		<path class="st20" d="M334.9,115.8c0,0,13.9,6,16.5,9.1c0,0,1,46-3,68.6c-5.2,0.1-12.4-1.5-21.4-4.7c-7-2.5-12.9-4.8-16.6-7.5
			c-1-6.6-0.7-15.4-0.9-24.1c-0.3-12.4,0.5-26.7,4.7-33.9c0,0,5.1-4.2,9.2-5.4L334.9,115.8z"/>
		<path class="st21" d="M324.4,115.5c0,0,0.1,2.4-1.6,5.1c0,0,4.7,5.6,11.3,0.6c1.3-1,1.9-2.7,1.6-4.3l-2.5-11
			C333.1,105.9,331.3,111.4,324.4,115.5z"/>
		<path class="st21" d="M316.2,110.2c1.7,4.6,4.4,8.4,10.1,4.1c3.7-2.8,6.8-6.4,8.3-10.6c1.5-4.3,1.3-9.1-1.3-12.9
			c-2.5-3.8-7.4-6.2-12.1-5.4c-6.9,1.2-8.4,7.6-7.9,13.3c0.3,3.2,1.1,6.3,2,9.4C315.7,108.8,315.9,109.5,316.2,110.2z"/>
		<path class="st8" d="M311.7,93.6c3.5,1.2,13.4-3.7,17-1.1c1.1,0.8,2,2.2,1.7,3.6c-0.2,1.1-1.1,1.9-1.4,3c-0.4,1,0.1,2.6,1.3,2.5
			c0.8-0.1,1.3-0.9,2.1-1.2c1.2-0.4,2.4,0.9,2.4,2.1c0,1.3-0.8,2.4-1.5,3.4c2.7-0.4,4.6-3,5.1-5.6c0.6-2.6,0.8-5.9,0.3-8.6
			c-0.8-3.7-2.3-7.7-5.8-9.4c-9.2-4.3-18-1.3-21.3,2.3C309.2,87.1,307.5,92.1,311.7,93.6z"/>
		<path class="st22" d="M294.7,162.4c-0.5-0.1-0.9-0.6-0.9-1.1l2.6-21.6c0.1-0.5,0.6-0.9,1.1-0.9c0.5,0.1,0.9,0.6,0.9,1.1l-2.6,21.6
			C295.7,162,295.2,162.4,294.7,162.4z"/>
		<path class="st21" d="M315.4,155.1l-10.5-3.4c-3.4-2.2-4.6-5.3-11.1-2.2c0,0-3.8,1.5-2.7,4.4c0.6,1.7,1.4,3.2,1.8,4
			c0.3,0.5,0.7,0.9,1.3,1c2.6,0.6,7.2-1.2,8.8-1.5l12.9,7.2L315.4,155.1z"/>
		<path class="st23" d="M307.7,150.6c-1.6,2.2-2,5.5-2,9.8c11.3,6.5,23.5,10.5,36.2,13.4c1.3,0.3,2.7,0.6,4,0.3
			c3.6-0.8,3.9-4.1,4.7-7.1c1.5-6,2.6-12,4-18c1.5-6.2,2.6-13.7,0.1-19.7c-0.8-2-2.4-4.1-4.3-5.3c-2.6-1.7-6-1.1-8,1.1
			c-3.5,3.9-3,10.3-3.6,15.2c-0.6,5.2-1,10.5-1.3,15.7c-0.1,1.7-0.5,3.8-2.1,4.3c-0.5,0.2-1.1,0.1-1.6,0
			C324.8,159.1,315.4,155,307.7,150.6z"/>
		<path class="st10" d="M350.3,289.5l-0.4,4.4c-0.1,1.4,0.6,2.7,1.8,3.4l14.4,7.9c0,0,5.1,1.1,2.7-3.7c0,0-11.6-9.6-10.9-12.8
			C357.9,288.6,354,291.9,350.3,289.5z"/>
		<path class="st10" d="M318.4,286.9c0,0-5.3,3.8-18.2,6.8c-1.2,0.3-2.5,0.7-3,1.8c-0.6,1.3,0.4,2.8,1.7,3.4
			c1.3,0.6,2.7,0.4,4.1,0.2c6.6-0.8,13.2-1.6,19.8-2.5c0.8-0.1,1.7-0.2,2.4-0.7c1.3-0.8,1.7-2.4,1.8-3.9c0.1-1.3-0.8-5.3-1.2-5.1
			C322.1,287.9,318.4,286.9,318.4,286.9z"/>
		<path class="st24" d="M285.2,51.1h-32.3c-10,0-18,8.1-18,18c0,10,8.1,18,18,18h29.5l12.1,7.8l-2.6-9.1c6.7-2.7,11.4-9.1,11.4-16.8
			C303.2,59.2,295.2,51.1,285.2,51.1z"/>
		<path class="st7" d="M251.9,62.9l1.8,3.6l4,0.6l-2.9,2.8l0.7,4l-3.6-1.9l-3.6,1.9l0.7-4l-2.9-2.8l4-0.6L251.9,62.9z"/>
		<path class="st7" d="M269.8,62.9l1.8,3.6l4,0.6l-2.9,2.8l0.7,4l-3.6-1.9l-3.6,1.9l0.7-4l-2.9-2.8l4-0.6L269.8,62.9z"/>
		<path class="st7" d="M286.2,62.9l1.8,3.6l4,0.6l-2.9,2.8l0.7,4l-3.6-1.9l-3.6,1.9l0.7-4l-2.9-2.8l4-0.6L286.2,62.9z"/>
		<path class="st25" d="M353.2,99.9l13.3-29.7c-1.6-4.7-2.4-9.7-2.2-14.9c1-22.3,19.8-39.6,42.2-38.7c22.3,1,39.6,19.8,38.7,42.2
			c-1,22.3-19.8,39.6-42.2,38.7c-8.4-0.4-16.1-3.3-22.4-8L353.2,99.9z"/>
		<path class="st24" d="M386.4,47.7c0.2-10.2,8.5-18.3,18.7-18.2c10.2,0.1,18.5,8.6,18.3,18.8c-0.1,6.2-3.2,11.6-8,14.9
			c-2.8,1.9-4.5,5.1-4.6,8.5l-12.7-0.2c0.1-3.4-1.5-6.6-4.2-8.6C389.3,59.5,386.3,54,386.4,47.7z"/>
		<path class="st7" d="M405,72.9l7.6-24.8l-0.7-0.2l-6.9,22.3L399,47.7l-0.7,0.2L405,72.9z"/>
		<path class="st7" d="M405.1,47.9l-0.4,23.6l0.8,0l0.4-23.6L405.1,47.9z"/>
		<path class="st7" d="M410.8,48.1c0,0.9,0.7,1.6,1.5,1.6c0.9,0,1.6-0.7,1.6-1.5c0-0.9-0.7-1.6-1.5-1.6
			C411.5,46.6,410.8,47.2,410.8,48.1z"/>
		<path class="st7" d="M404,48c0,0.9,0.7,1.6,1.5,1.6c0.9,0,1.6-0.7,1.6-1.5c0-0.9-0.7-1.6-1.5-1.6C404.7,46.4,404,47.1,404,48z"/>
		<path class="st7" d="M397.1,47.8c0,0.9,0.7,1.6,1.5,1.6c0.9,0,1.6-0.7,1.6-1.5c0-0.9-0.7-1.6-1.5-1.6
			C397.8,46.3,397.1,47,397.1,47.8z"/>
		<path class="st19" d="M411,81c-0.7,2.5-3.4,4.3-6.6,4.3c-3.2-0.1-5.9-2-6.5-4.5L411,81z"/>
		<path class="st3" d="M397.8,80.7l13.2,0.2c0.5,0,0.9-0.4,0.9-0.9c0-0.5-0.4-0.9-0.9-0.9l-13.2-0.2c-0.5,0-0.9,0.4-0.9,0.9
			C396.9,80.3,397.3,80.7,397.8,80.7z"/>
		<path class="st3" d="M398,76.9l13.2,0.2c0.5,0,0.9-0.4,0.9-0.9c0-0.5-0.4-0.9-0.9-0.9L398,75.2c-0.5,0-0.9,0.4-0.9,0.9
			C397.1,76.5,397.5,76.9,398,76.9z"/>
		<path class="st3" d="M397.9,73.3l13.2,0.2c0.5,0,0.9-0.4,0.9-0.9c0-0.5-0.4-0.9-0.9-0.9L398,71.5c-0.5,0-0.9,0.4-0.9,0.9
			C397.1,72.9,397.4,73.3,397.9,73.3z"/>
		<path class="st19" d="M397.8,78.9l13.2,0.2l0-1.9L397.9,77L397.8,78.9z"/>
		<path class="st19" d="M397.9,75.2l13.2,0.2l0-1.9l-13.2-0.2L397.9,75.2z"/>
		<path class="st26" d="M402.7,276.4h-21.5v16.5h21.5V276.4z"/>
		<path class="st27" d="M381.1,293.1h21.7v-3.6h-21.7V293.1z"/>
		<path class="st24" d="M395.4,293.1h7.4v-3.6h-7.4V293.1z"/>
		<path class="st27" d="M388.1,293h7.4v-3.6h-7.4V293z"/>
		<path class="st27" d="M381.1,288.8h21.7v-3.7h-21.7V288.8z"/>
		<path class="st24" d="M395.4,288.8h7.4v-3.7h-7.4V288.8z"/>
		<path class="st27" d="M388.1,288.8h7.4v-3.8h-7.4V288.8z"/>
		<path class="st27" d="M381.1,284.4h21.7v-3.6h-21.7V284.4z"/>
		<path class="st24" d="M395.4,284.4h7.4v-3.6h-7.4V284.4z"/>
		<path class="st27" d="M388.2,284.4h7.4v-3.7h-7.4V284.4z"/>
		<path class="st27" d="M381.3,280h21.7v-3.6h-21.7V280z"/>
		<path class="st24" d="M395.5,280h7.4v-3.6h-7.4V280z"/>
		<path class="st27" d="M388.2,280h7.4v-3.6h-7.4V280z"/>
		<path class="st26" d="M429.1,255.7h-22.3V293h22.3V255.7z"/>
		<path class="st27" d="M406.9,293h22.3v-3.5h-22.3V293z"/>
		<path class="st24" d="M421.5,293h7.6v-3.5h-7.6V293z"/>
		<path class="st27" d="M414,292.9h7.6v-3.5H414V292.9z"/>
		<path class="st27" d="M406.9,288.8h22.3v-3.6h-22.3V288.8z"/>
		<path class="st24" d="M421.5,288.8h7.6v-3.6h-7.6V288.8z"/>
		<path class="st27" d="M414,288.9h7.6v-3.7H414V288.9z"/>
		<path class="st27" d="M406.9,284.6h22.3v-3.5h-22.3V284.6z"/>
		<path class="st24" d="M421.5,284.6h7.6v-3.5h-7.6V284.6z"/>
		<path class="st27" d="M414.2,284.6h7.6v-3.6h-7.6V284.6z"/>
		<path class="st27" d="M407,280.3h22.3v-3.5H407V280.3z"/>
		<path class="st24" d="M421.7,280.3h7.6v-3.5h-7.6V280.3z"/>
		<path class="st27" d="M414.2,280.3h7.6v-3.5h-7.6V280.3z"/>
		<path class="st27" d="M407,276.2h22.3v-3.6H407V276.2z"/>
		<path class="st24" d="M421.7,276.2h7.6v-3.6h-7.6V276.2z"/>
		<path class="st27" d="M414.2,276.2h7.6v-3.7h-7.6V276.2z"/>
		<path class="st27" d="M407,271.9h22.3v-3.5H407V271.9z"/>
		<path class="st24" d="M421.7,271.9h7.6v-3.5h-7.6V271.9z"/>
		<path class="st27" d="M414.4,271.9h7.6v-3.6h-7.6V271.9z"/>
		<path class="st27" d="M406.9,267.5h22.3V264h-22.3V267.5z"/>
		<path class="st24" d="M421.6,267.5h7.6V264h-7.6V267.5z"/>
		<path class="st27" d="M414.1,267.5h7.6V264h-7.6V267.5z"/>
		<path class="st27" d="M406.9,263.4h22.3v-3.6h-22.3V263.4z"/>
		<path class="st24" d="M421.6,263.4h7.6v-3.6h-7.6V263.4z"/>
		<path class="st27" d="M414.1,263.4h7.6v-3.7h-7.6V263.4z"/>
		<path class="st27" d="M406.9,259.1h22.3v-3.5h-22.3V259.1z"/>
		<path class="st24" d="M421.6,259.1h7.6v-3.5h-7.6V259.1z"/>
		<path class="st27" d="M414.3,259.2h7.6v-3.6h-7.6V259.2z"/>
		<path class="st27" d="M433.8,268.2h22.3v3.5h-7.3v0h-7.6v0h-7.4V268.2z"/>
		<path class="st27" d="M433.7,255.5H456v3.5h-7.4v0h-7.6v0h-7.4V255.5z"/>
		<path class="st27" d="M433.6,280.9h22.3v3.5h-7.4v0.1H441v-0.1h-7.4V280.9z"/>
		<path class="st27" d="M433.6,242.4h22.3v3.6h-7.4v0H441v0h-7.4V242.4z"/>
		<path class="st27" d="M456.1,280.2h-22.3v-3.5h7.2v-0.1h7.6v0.1h7.5V280.2z"/>
		<path class="st27" d="M456.1,276h-7.5v0.1H441V276h-7.2v-3.6h7.2v-0.1h7.6v0.1h7.5V276z"/>
		<path class="st27" d="M456.1,241.7h-22.3v-3.6h7.2V238h7.6v0.1h7.5V241.7z"/>
		<path class="st27" d="M456,267.4h-22.3v-3.5h7.2v-0.1h7.6v0.1h7.5V267.4z"/>
		<path class="st27" d="M456,263.2h-7.5v0.1h-7.6v-0.1h-7.2v-3.6h7.2v-0.1h7.6v0.1h7.5V263.2z"/>
		<path class="st27" d="M455.9,292.9h-22.3v-3.6h7.2v0h7.6v0h7.5V292.9z"/>
		<path class="st27" d="M455.9,288.7h-7.5v0.1h-7.6v-0.1h-7.2v-3.6h7.2v-0.1h7.6v0.1h7.5V288.7z"/>
		<path class="st27" d="M455.9,254.7h-22.3v-3.6h7.2V251h7.6v0.1h7.5V254.7z"/>
		<path class="st27" d="M455.9,250.4h-7.5v0.1h-7.6v-0.1h-7.2v-3.6h7.2v-0.1h7.6v0.1h7.5V250.4z"/>
		<path class="st26" d="M455.9,238.1h-22.3v54.8h22.3V238.1z"/>
		<path class="st27" d="M433.7,254.7h22.3v-3.6h-22.3V254.7z"/>
		<path class="st24" d="M448.3,254.7h7.6v-3.6h-7.6V254.7z"/>
		<path class="st27" d="M440.8,254.7h7.6V251h-7.6V254.7z"/>
		<path class="st27" d="M433.7,250.4h22.3v-3.7h-22.3V250.4z"/>
		<path class="st24" d="M448.3,250.4h7.6v-3.7h-7.6V250.4z"/>
		<path class="st27" d="M440.8,250.5h7.6v-3.8h-7.6V250.5z"/>
		<path class="st27" d="M433.7,246.1h22.3v-3.6h-22.3V246.1z"/>
		<path class="st24" d="M448.3,246.1h7.6v-3.6h-7.6V246.1z"/>
		<path class="st27" d="M441,246.1h7.6v-3.7H441V246.1z"/>
		<path class="st27" d="M433.8,241.7h22.3v-3.6h-22.3V241.7z"/>
		<path class="st24" d="M448.5,241.7h7.6v-3.6h-7.6V241.7z"/>
		<path class="st27" d="M441,241.6h7.6V238H441V241.6z"/>
		<path class="st27" d="M433.7,292.9h22.3v-3.5h-22.3V292.9z"/>
		<path class="st24" d="M448.3,292.9h7.6v-3.5h-7.6V292.9z"/>
		<path class="st27" d="M440.8,292.8h7.6v-3.5h-7.6V292.8z"/>
		<path class="st27" d="M433.7,288.7h22.3v-3.6h-22.3V288.7z"/>
		<path class="st24" d="M448.3,288.7h7.6v-3.6h-7.6V288.7z"/>
		<path class="st27" d="M440.8,288.8h7.6v-3.7h-7.6V288.8z"/>
		<path class="st27" d="M433.7,284.5h22.3v-3.5h-22.3V284.5z"/>
		<path class="st24" d="M448.3,284.5h7.6v-3.5h-7.6V284.5z"/>
		<path class="st27" d="M441,284.5h7.6v-3.6H441V284.5z"/>
		<path class="st27" d="M433.8,280.2h22.3v-3.5h-22.3V280.2z"/>
		<path class="st24" d="M448.5,280.2h7.6v-3.5h-7.6V280.2z"/>
		<path class="st27" d="M441,280.1h7.6v-3.5H441V280.1z"/>
		<path class="st27" d="M433.8,276h22.3v-3.6h-22.3V276z"/>
		<path class="st24" d="M448.5,276h7.6v-3.6h-7.6V276z"/>
		<path class="st27" d="M441,276.1h7.6v-3.7H441V276.1z"/>
		<path class="st27" d="M433.8,271.8h22.3v-3.5h-22.3V271.8z"/>
		<path class="st24" d="M448.5,271.8h7.6v-3.5h-7.6V271.8z"/>
		<path class="st27" d="M441.2,271.8h7.6v-3.6h-7.6V271.8z"/>
		<path class="st27" d="M433.8,267.4H456v-3.5h-22.3V267.4z"/>
		<path class="st24" d="M448.4,267.4h7.6v-3.5h-7.6V267.4z"/>
		<path class="st27" d="M440.9,267.4h7.6v-3.5h-7.6V267.4z"/>
		<path class="st27" d="M433.8,263.3H456v-3.6h-22.3V263.3z"/>
		<path class="st24" d="M448.4,263.3h7.6v-3.6h-7.6V263.3z"/>
		<path class="st27" d="M440.9,263.3h7.6v-3.7h-7.6V263.3z"/>
		<path class="st27" d="M433.8,259H456v-3.5h-22.3V259z"/>
		<path class="st24" d="M448.4,259h7.6v-3.5h-7.6V259z"/>
		<path class="st27" d="M441.1,259h7.6v-3.6h-7.6V259z"/>
		<path class="st25" d="M444.6,218.8c-2.7,0-5,2.2-5,5c0,0.5,0.1,1,0.3,1.5l-18.1,12.9c-0.9-1-2.2-1.5-3.6-1.5c-2.7,0-5,2.2-5,5
			c0,0.8,0.2,1.5,0.5,2.1l-19.1,12.6c-0.9-1-2.2-1.6-3.7-1.6c-2.5,0-4.6,1.8-4.9,4.3l-13.2,0.2l0,1.6l13.2-0.2
			c0.4,2.3,2.4,4.1,4.9,4.1c2.7,0,5-2.2,5-5c0-0.7-0.2-1.4-0.4-2l19.1-12.6c0.9,1,2.2,1.5,3.6,1.5c2.7,0,5-2.2,5-5
			c0-0.8-0.2-1.5-0.5-2.1l18-12.8c0.9,1.2,2.3,2,4,2c2.7,0,5-2.2,5-5C449.6,221.1,447.4,218.8,444.6,218.8z"/>
		<path class="st27" d="M24.7,247.9L80.1,211v36.9H24.7z"/>
		<path class="st24" d="M24.7,211v36.9h55.4L24.7,211z"/>
		<path class="st24" d="M24.7,211l27.7-26.2L80.1,211l-27.7,18.4L24.7,211z"/>
		<path class="st28" d="M77.8,202.3v10.3l-25.4,16.9L27.6,213v-21.9h39.7L77.8,202.3z"/>
		<path class="st29" d="M77.8,202.3h-8.7c-1,0-1.8-0.8-1.8-1.8v-9.3L77.8,202.3z"/>
		<path class="st29" d="M63.8,198.4H36c-0.3,0-0.5-0.2-0.5-0.5c0-0.3,0.2-0.5,0.5-0.5h27.9c0.3,0,0.5,0.2,0.5,0.5
			C64.3,198.2,64.1,198.4,63.8,198.4z"/>
		<path class="st29" d="M63.8,202.7H33c-0.3,0-0.5-0.2-0.5-0.5c0-0.3,0.2-0.5,0.5-0.5h30.8c0.3,0,0.5,0.2,0.5,0.5
			C64.3,202.5,64.1,202.7,63.8,202.7z"/>
		<path class="st29" d="M63.8,207.1H33c-0.3,0-0.5-0.2-0.5-0.5c0-0.3,0.2-0.5,0.5-0.5h30.8c0.3,0,0.5,0.2,0.5,0.5
			C64.3,206.9,64.1,207.1,63.8,207.1z"/>
		<path class="st29" d="M69.7,209.6H32.6c0,0-0.1,0-0.1-0.1v-0.8c0,0,0-0.1,0.1-0.1h37.1c0,0,0.1,0,0.1,0.1L69.7,209.6
			C69.8,209.5,69.8,209.6,69.7,209.6z"/>
		<path class="st29" d="M69.7,212H32.6c0,0-0.1,0-0.1-0.1v-0.8c0,0,0-0.1,0.1-0.1h37.1c0,0,0.1,0,0.1,0.1L69.7,212
			C69.8,212,69.8,212,69.7,212z"/>
		<path class="st29" d="M69.7,214.5H32.6c0,0-0.1,0-0.1-0.1v-0.8c0,0,0-0.1,0.1-0.1h37.1c0,0,0.1,0,0.1,0.1L69.7,214.5
			C69.8,214.5,69.8,214.5,69.7,214.5z"/>
		<path class="st29" d="M63.8,204.9H33c-0.3,0-0.5-0.2-0.5-0.5c0-0.3,0.2-0.5,0.5-0.5h30.8c0.3,0,0.5,0.2,0.5,0.5
			C64.3,204.7,64.1,204.9,63.8,204.9z"/>
		<path class="st30" d="M132.8,239.7v61.9H75v-80.4h35.4L132.8,239.7z"/>
		<path class="st29" d="M130.1,241.3v61.9H72.4v-80.4h35.4L130.1,241.3z"/>
		<path class="st7" d="M130.1,241.3h-20.5c-1.1,0-2-0.9-2-2v-16.5L130.1,241.3z"/>
		<path class="st7" d="M125.1,246.5h-48v2.1h48V246.5z"/>
		<path class="st7" d="M125.1,250.7h-48v2.1h48V250.7z"/>
		<path class="st7" d="M125.1,254.9h-48v2.1h48V254.9z"/>
		<path class="st7" d="M125.1,259h-48v2.1h48V259z"/>
		<path class="st7" d="M125.1,263.2h-48v2.1h48V263.2z"/>
		<path class="st7" d="M125.1,267.3h-48v2.1h48V267.3z"/>
		<path class="st7" d="M125.1,271.5h-48v2.1h48V271.5z"/>
		<path class="st7" d="M125.1,275.6h-48v2.1h48V275.6z"/>
		<path class="st7" d="M125.1,279.7h-48v2.1h48V279.7z"/>
		<path class="st6" d="M221.2,17.8h-10.6c-10.2,0-18.5,7.2-18.5,15.9c0,5.1,2.8,9.7,7.2,12.6l-2.8,14l11.9-10.7
			c0.7,0.1,1.4,0.1,2.1,0.1h10.6c10.2,0,18.5-7.2,18.5-15.9C239.7,25,231.4,17.8,221.2,17.8z"/>
		<path class="st3" d="M227.7,36.5l-1.6-1.9c0.1-0.6,0.1-1.2,0-1.8l1.7-1.8c0.1-0.1,0.1-0.2,0.1-0.3l-1.1-2.7c0-0.1-0.1-0.2-0.2-0.2
			l-2.5-0.2c-0.3-0.4-0.7-0.8-1.1-1.1l-0.1-2.4c0-0.1-0.1-0.2-0.2-0.2l-2.6-1.1c-0.1,0-0.2,0-0.3,0l-1.9,1.5c-0.6-0.1-1.2-0.1-1.7,0
			l-1.8-1.7c-0.1-0.1-0.2-0.1-0.3-0.1l-2.7,1.1c-0.1,0-0.2,0.1-0.2,0.2l-0.3,2.5c-0.4,0.3-0.8,0.7-1.2,1.1l-2.4,0.1
			c-0.1,0-0.2,0.1-0.2,0.2l-1.1,2.6c0,0.1,0,0.2,0,0.3l1.6,1.9c-0.1,0.7-0.1,1.3,0,2l-1.6,1.8c-0.1,0.1-0.1,0.2-0.1,0.3l1.1,2.7
			c0,0.1,0.1,0.2,0.2,0.2l2.5,0.2c0.3,0.4,0.6,0.7,1,1l0.1,2.4c0,0.1,0.1,0.2,0.2,0.2l2.6,1.1c0.1,0,0.2,0,0.3,0l1.9-1.6
			c0.6,0.1,1.3,0.1,1.9,0l1.8,1.6c0.1,0.1,0.2,0.1,0.3,0.1l2.7-1.1c0.1,0,0.2-0.1,0.2-0.2l0.2-2.5c0.4-0.3,0.8-0.7,1.1-1.1l2.4-0.1
			c0.1,0,0.2-0.1,0.2-0.2l1.1-2.6C227.8,36.7,227.8,36.6,227.7,36.5z M214.2,39.7c-3.4-1.5-5-5.5-3.5-8.9c1.5-3.4,5.5-5,8.9-3.5
			c3.4,1.5,5,5.5,3.5,8.9C221.6,39.7,217.6,41.2,214.2,39.7z"/>
	</g>
</g>
</svg>
