<?xml version="1.0" encoding="utf-8"?>
<!-- Generator: Adobe Illustrator 27.0.0, SVG Export Plug-In . SVG Version: 6.00 Build 0)  -->
<svg version="1.1" id="Layer_1" xmlns="http://www.w3.org/2000/svg" xmlns:xlink="http://www.w3.org/1999/xlink" x="0px" y="0px"
	 viewBox="0 0 512 397.7" style="enable-background:new 0 0 512 397.7;" xml:space="preserve">
<style type="text/css">
	.st0{clip-path:url(#SVGID_00000054987002759203686890000009276337956924265393_);}
	.st1{fill:#2164A6;}
	.st2{fill:#1A5791;}
	.st3{fill:#2B71B5;}
	.st4{fill:#E1E7F2;}
	.st5{fill:#FCA76A;}
	.st6{fill:#9EC1F0;}
	.st7{fill:#326AB3;}
	.st8{fill:#2A5FA3;}
	.st9{fill:#FFB86B;}
	.st10{fill:#4E80C2;}
	.st11{fill:#FFFFFF;}
	.st12{fill:#8C92AB;}
	.st13{fill:#757D9C;}
	.st14{fill:#4D4D4D;}
	.st15{fill:#DFE2ED;}
	.st16{fill:#D1D5ED;}
	.st17{fill:#DCE9FA;}
	.st18{fill:#70BDFF;}
	.st19{fill:#0E3044;}
	.st20{fill:#202A5E;}
	.st21{fill:#BFDDFF;}
	.st22{fill:#6CC0FF;}
	.st23{fill:#56A7D8;}
	.st24{fill:#353640;}
	.st25{fill:#124180;}
	.st26{fill:#FFC0B8;}
	.st27{fill:#245BA3;}
	.st28{fill:#24252B;}
	.st29{fill:#1C5199;}
	.st30{fill:#295C9E;}
	.st31{fill:#C4626E;}
	.st32{fill:#D7E0FA;}
	.st33{fill:#CCCCCC;}
	.st34{fill:#F29D91;}
	.st35{fill:#CC6464;}
	.st36{fill:#F59595;}
	.st37{fill:#ACBCF8;}
	.st38{fill:#CDD7FB;}
	.st39{fill:#C5D9F6;}
	.st40{fill:#829CF8;}
	.st41{opacity:0.15;}
	.st42{opacity:0.1;}
	.st43{fill:#F6471E;}
	.st44{fill:#FDB606;}
	.st45{fill:#040C2B;}
	.st46{fill:#0F31AC;}
	.st47{opacity:0.5;}
	.st48{fill:#DEE4FC;}
	.st49{fill:none;stroke:#1B1464;stroke-width:1.7167;stroke-miterlimit:10;}
	.st50{fill:#1B1464;}
</style>
<g>
	<defs>
		<rect id="SVGID_1_" y="-23.6" width="512" height="444.8"/>
	</defs>
	<clipPath id="SVGID_00000095305845580551510550000004661714934320774327_">
		<use xlink:href="#SVGID_1_"  style="overflow:visible;"/>
	</clipPath>
	<g style="clip-path:url(#SVGID_00000095305845580551510550000004661714934320774327_);">
		<g>
			<g>
				<g>
					<path class="st1" d="M50.4,233.8C50.3,233.8,50.3,233.8,50.4,233.8c-1.2-0.1-2.3-0.3-3.4-0.6c-0.2-0.1-0.3-0.3-0.3-0.5
						c0-0.2,0.2-0.4,0.4-0.4c1.1,0.3,2.1,0.5,3.2,0.6c0.2,0,0.4,0.2,0.3,0.5C50.7,233.6,50.5,233.8,50.4,233.8z"/>
				</g>
				<g>
					<path class="st1" d="M40.9,230.6c-0.1,0-0.1,0-0.2,0c-2-1.2-3.8-2.7-5.6-4.5c-0.2-0.2-0.2-0.4,0-0.6c0.1-0.2,0.4-0.2,0.5-0.1
						c1.7,1.7,3.5,3.2,5.4,4.4c0.2,0.1,0.3,0.4,0.2,0.6C41.1,230.5,41,230.6,40.9,230.6z M30.9,220.3c-0.1,0-0.3,0-0.3-0.2
						c-1.3-2.2-2.5-4.5-3.5-7c-0.1-0.2,0-0.5,0.2-0.6c0.2-0.1,0.4,0,0.5,0.2c1,2.4,2.1,4.8,3.4,6.9c0.1,0.2,0.1,0.5-0.1,0.6
						C31,220.3,30.9,220.3,30.9,220.3z M25.1,205.7c-0.2,0-0.4-0.1-0.4-0.3c-0.4-1.8-0.7-3.5-0.9-5.3c-0.1-0.9-0.2-1.9-0.2-2.8
						c0-0.3,0.2-0.5,0.3-0.5c0.2,0,0.4,0.2,0.4,0.4c0,0.9,0.1,1.9,0.2,2.8c0.2,1.7,0.5,3.5,0.8,5.2
						C25.5,205.4,25.3,205.6,25.1,205.7C25.1,205.7,25.1,205.7,25.1,205.7z M39.4,188.4c-1.4,0.2-2.8,0.3-4.2,0
						c-0.2,0-0.3-0.3-0.3-0.5c0-0.2,0.2-0.4,0.4-0.4c2,0.3,4.2,0.1,6.3-0.6c0.2-0.1,0.4,0.1,0.5,0.3c0.1,0.2-0.1,0.5-0.3,0.6
						C41,188,40.2,188.2,39.4,188.4z M24.3,189.5c0,0-0.1,0-0.1,0c-0.2,0-0.3-0.3-0.3-0.5c0.3-2.6,0.9-5,1.7-7.2
						c-0.5-0.7-0.9-1.4-1.3-2.2c-0.1-0.2-0.1-0.5,0.1-0.6c0.2-0.1,0.4-0.1,0.5,0.1c0.3,0.6,0.7,1.3,1,1.8c0.1-0.1,0.3-0.1,0.4-0.1
						c0.2,0.1,0.3,0.4,0.2,0.6c0,0.1,0,0.1-0.1,0.2c0.9,1.2,1.8,2.3,2.9,3.1c0.2,0.1,0.2,0.4,0.1,0.6c-0.1,0.2-0.3,0.3-0.5,0.1
						c-1-0.8-2-1.8-2.8-3c-0.7,2.1-1.2,4.3-1.5,6.6C24.6,189.3,24.5,189.4,24.3,189.5z M47.6,184.2c-0.1,0-0.2,0-0.3-0.2
						c-0.1-0.2-0.1-0.5,0-0.6c1.7-1.8,2.6-4.2,2.6-6.8c0-0.3,0.2-0.5,0.4-0.5c0.2,0,0.4,0.2,0.4,0.5c0,2.9-1.1,5.5-2.9,7.5
						C47.7,184.1,47.6,184.1,47.6,184.2z M29.9,174.9c-0.1,0-0.2,0-0.3-0.1c-0.1-0.2-0.1-0.5,0-0.6c1.5-2,3.3-3.6,5.4-4.9
						c0.2-0.1,0.4,0,0.5,0.2c0.1,0.2,0,0.5-0.2,0.6c-2,1.2-3.7,2.8-5.2,4.7C30,174.9,30,174.9,29.9,174.9z M47.6,169.9
						c-0.1,0-0.2,0-0.3-0.1c-1.5-1.5-3.6-2.2-5.9-2c-0.2,0-0.4-0.2-0.4-0.4c0-0.3,0.1-0.5,0.3-0.5c2.5-0.2,4.7,0.5,6.4,2.2
						c0.2,0.2,0.2,0.4,0.1,0.6C47.8,169.8,47.7,169.9,47.6,169.9z M22.3,172.1c-0.2,0-0.4-0.1-0.4-0.4c-0.1-0.5-0.1-0.9-0.2-1.4
						c-0.2-2.2-0.3-4.6,0-6.9c0-0.3,0.2-0.4,0.4-0.4c0.2,0,0.3,0.3,0.3,0.5c-0.2,2.3-0.2,4.5,0,6.7c0,0.4,0.1,0.9,0.2,1.3
						C22.6,171.8,22.5,172.1,22.3,172.1C22.3,172.1,22.3,172.1,22.3,172.1z M23.7,156c-0.1,0-0.1,0-0.2,0c-0.2-0.1-0.3-0.4-0.2-0.6
						c0.8-2.5,1.8-4.9,3.1-7.3c0.1-0.2,0.3-0.3,0.5-0.1c0.2,0.1,0.2,0.4,0.1,0.6c-1.2,2.4-2.2,4.8-3,7.2
						C23.9,155.9,23.8,156,23.7,156z M30.7,142.3c-0.1,0-0.2,0-0.3-0.1c-0.2-0.2-0.2-0.5,0-0.6c1.4-2,3-3.9,4.7-5.8
						c0.2-0.2,0.4-0.1,0.5,0c0.1,0.2,0.1,0.5,0,0.6c-1.7,1.8-3.2,3.7-4.6,5.7C30.9,142.3,30.8,142.3,30.7,142.3z M273.9,96.3
						l-1.6,0.3c-0.2,0-0.4-0.1-0.4-0.4c0-0.3,0.1-0.5,0.3-0.5c0,0,0,0,0,0l1.6-0.3c1.7-0.3,3.3-0.6,4.9-0.9c0,0,0,0,0,0
						c0.2,0,0.4,0.1,0.4,0.4c0,0.3-0.1,0.5-0.3,0.5C277.2,95.7,275.5,96,273.9,96.3z M265.8,97.6C265.8,97.6,265.8,97.6,265.8,97.6
						c-2.1,0.3-4.3,0.6-6.5,0.9c-0.2,0-0.4-0.2-0.4-0.4c0-0.3,0.1-0.5,0.3-0.5c2.2-0.3,4.4-0.6,6.5-0.9c0.2,0,0.4,0.2,0.4,0.4
						C266.1,97.3,266,97.6,265.8,97.6z M285.2,94.1c-0.2,0-0.4-0.1-0.4-0.4c0-0.2,0.1-0.5,0.3-0.5c2.2-0.5,4.4-1,6.4-1.5
						c0.2-0.1,0.4,0.1,0.4,0.4c0,0.2-0.1,0.5-0.3,0.5C289.6,93.1,287.4,93.6,285.2,94.1C285.2,94.1,285.2,94.1,285.2,94.1z
						 M252.7,99.2C252.7,99.2,252.7,99.2,252.7,99.2c-2.2,0.2-4.4,0.4-6.6,0.6c-0.2,0-0.4-0.2-0.4-0.4c0-0.3,0.2-0.5,0.3-0.5
						c2.2-0.2,4.4-0.4,6.5-0.6c0.2,0,0.4,0.2,0.4,0.4C253.1,98.9,252.9,99.2,252.7,99.2z M298.1,90.8c-0.2,0-0.4-0.1-0.4-0.3
						c0-0.2,0.1-0.5,0.3-0.6c2.2-0.6,4.3-1.3,6.3-2c0.2-0.1,0.4,0.1,0.4,0.3c0.1,0.2-0.1,0.5-0.3,0.6
						C302.5,89.5,300.3,90.2,298.1,90.8C298.1,90.8,298.1,90.8,298.1,90.8z M239.7,100.3C239.7,100.3,239.7,100.3,239.7,100.3
						c-2.2,0.2-4.4,0.3-6.6,0.4c-0.2,0-0.4-0.2-0.4-0.4c0-0.3,0.2-0.5,0.3-0.5c2.2-0.1,4.4-0.3,6.5-0.4c0.2,0,0.4,0.2,0.4,0.4
						C240,100.1,239.9,100.3,239.7,100.3z M226.6,101.1C226.6,101.1,226.6,101.1,226.6,101.1c-2.2,0.1-4.4,0.2-6.6,0.2
						c-0.2,0-0.4-0.2-0.4-0.4c0-0.3,0.2-0.5,0.4-0.5c2.2-0.1,4.4-0.1,6.5-0.2c0.2,0,0.4,0.2,0.4,0.4
						C226.9,100.8,226.8,101,226.6,101.1z M310.7,86.5c-0.2,0-0.3-0.1-0.4-0.3c-0.1-0.2,0-0.5,0.2-0.6c2.2-0.9,4.2-1.8,6.2-2.7
						c0.2-0.1,0.4,0,0.5,0.3c0.1,0.2,0,0.5-0.2,0.6C315,84.7,313,85.6,310.7,86.5C310.8,86.5,310.7,86.5,310.7,86.5z M40.6,131.6
						c-0.1,0-0.3,0-0.4-0.2c-0.1-0.2-0.1-0.5,0.1-0.6c1.7-1.5,3.6-3,5.6-4.4c0.2-0.1,0.4-0.1,0.5,0.2c0.1,0.2,0,0.5-0.1,0.6
						c-1.9,1.4-3.8,2.9-5.5,4.4C40.7,131.5,40.6,131.6,40.6,131.6z M213.5,101.4C213.5,101.4,213.4,101.4,213.5,101.4
						c-2.2,0-4.4,0.1-6.6,0.1c-0.2,0-0.4-0.2-0.4-0.5c0-0.3,0.2-0.5,0.4-0.5c2.2,0,4.4,0,6.6-0.1c0.2,0,0.4,0.2,0.4,0.5
						C213.8,101.2,213.7,101.4,213.5,101.4z M322.9,80.6c-0.2,0-0.3-0.1-0.4-0.3c-0.1-0.2,0-0.5,0.2-0.6c2.1-1.2,4-2.5,5.7-3.9
						c0.2-0.1,0.4-0.1,0.5,0.1c0.1,0.2,0.1,0.5-0.1,0.6c-1.7,1.3-3.7,2.7-5.8,3.9C323,80.6,323,80.6,322.9,80.6z M200.4,101.5
						C200.3,101.5,200.3,101.5,200.4,101.5c-2.1,0-4.1,0-6.1-0.1l-0.5,0c-0.2,0-0.4-0.2-0.4-0.5c0-0.3,0.2-0.5,0.4-0.4l0.5,0
						c2,0,4,0.1,6,0.1c0.2,0,0.4,0.2,0.4,0.5C200.7,101.2,200.5,101.4,200.4,101.5z M187.3,101.2
						C187.2,101.2,187.2,101.2,187.3,101.2c-2.2,0-4.4-0.1-6.6-0.1c-0.2,0-0.4-0.2-0.4-0.5c0-0.3,0.2-0.5,0.4-0.5
						c2.2,0,4.4,0.1,6.6,0.1c0.2,0,0.4,0.2,0.4,0.5C187.6,101,187.4,101.2,187.3,101.2z M51.9,123.4c-0.2,0-0.3-0.1-0.4-0.3
						c-0.1-0.2,0-0.5,0.2-0.6c1.9-1.2,3.9-2.3,6-3.3c0.2-0.1,0.4,0,0.5,0.3c0.1,0.2,0,0.5-0.2,0.6c-2.1,1.1-4.1,2.2-6,3.3
						C52,123.3,51.9,123.4,51.9,123.4z M174.2,101.1C174.1,101.1,174.1,101.1,174.2,101.1c-2.2,0-4.4,0-6.6,0
						c-0.2,0-0.4-0.2-0.4-0.5c0-0.3,0.2-0.5,0.4-0.5c2.2,0,4.4,0,6.6,0c0.2,0,0.4,0.2,0.4,0.5C174.5,100.9,174.3,101.1,174.2,101.1z
						 M333.9,71.8c-0.1,0-0.2,0-0.3-0.1c-0.1-0.2-0.1-0.5,0-0.6c1.7-2,3.1-4,4.2-6.1c0.1-0.2,0.3-0.3,0.5-0.2
						c0.2,0.1,0.2,0.4,0.1,0.6c-1.1,2.2-2.5,4.3-4.3,6.3C334.1,71.8,334,71.8,333.9,71.8z M161.1,101.2
						C161,101.2,161,101.2,161.1,101.2c-2.2,0-4.4,0.1-6.6,0.2c-0.2,0-0.4-0.2-0.4-0.4c0-0.3,0.2-0.5,0.4-0.5
						c2.2-0.1,4.4-0.1,6.6-0.1c0.2,0,0.4,0.2,0.4,0.5C161.4,101,161.2,101.1,161.1,101.2z M64,117.1c-0.2,0-0.3-0.1-0.4-0.3
						c-0.1-0.2,0-0.5,0.2-0.6c2-0.9,4.1-1.7,6.2-2.5c0.2-0.1,0.4,0.1,0.5,0.3c0.1,0.2-0.1,0.5-0.2,0.6
						C68.2,115.4,66.1,116.3,64,117.1C64,117.1,64,117.1,64,117.1z M148,101.5C147.9,101.6,147.9,101.6,148,101.5
						c-2.2,0.1-4.4,0.2-6.6,0.3c-0.2,0-0.4-0.2-0.4-0.4c0-0.3,0.2-0.5,0.3-0.5c2.2-0.1,4.4-0.2,6.6-0.3c0.2,0,0.4,0.2,0.4,0.4
						C148.3,101.3,148.1,101.5,148,101.5z M76.5,112.4c-0.2,0-0.4-0.1-0.4-0.3c-0.1-0.2,0.1-0.5,0.3-0.6c2.1-0.7,4.2-1.3,6.4-1.9
						c0.2,0,0.4,0.1,0.4,0.3c0,0.2-0.1,0.5-0.3,0.5C80.8,111.1,78.6,111.8,76.5,112.4C76.6,112.4,76.6,112.4,76.5,112.4z
						 M134.9,102.3C134.8,102.3,134.8,102.3,134.9,102.3c-2.2,0.2-4.4,0.3-6.6,0.5c-0.2,0-0.4-0.2-0.4-0.4c0-0.3,0.1-0.5,0.3-0.5
						c2.2-0.2,4.4-0.4,6.5-0.5c0.2,0,0.4,0.2,0.4,0.4C135.2,102,135,102.2,134.9,102.3z M121.8,103.4
						C121.8,103.4,121.8,103.4,121.8,103.4c-2.2,0.2-4.4,0.5-6.5,0.8c-0.2,0-0.4-0.2-0.4-0.4c0-0.2,0.1-0.5,0.3-0.5c0,0,0,0,0,0
						c2.1-0.3,4.3-0.5,6.5-0.8c0.2,0,0.4,0.2,0.4,0.4C122.1,103.2,122,103.4,121.8,103.4z M89.3,108.9c-0.2,0-0.4-0.1-0.4-0.4
						c0-0.2,0.1-0.5,0.3-0.5c2.1-0.5,4.3-1,6.5-1.4c0.2-0.1,0.4,0.1,0.4,0.4c0,0.2-0.1,0.5-0.3,0.5
						C93.6,107.9,91.4,108.3,89.3,108.9C89.3,108.9,89.3,108.9,89.3,108.9z M108.7,105.1C108.7,105.1,108.7,105.1,108.7,105.1
						c-1.7,0.3-3.4,0.5-5.1,0.8l-1.4,0.2c0,0,0,0,0,0c-0.2,0-0.4-0.1-0.4-0.4c0-0.2,0.1-0.5,0.3-0.5l1.4-0.2
						c1.7-0.3,3.4-0.6,5.1-0.8c0.2,0,0.4,0.1,0.4,0.4C109.1,104.8,108.9,105.1,108.7,105.1z M340.3,58C340.3,58,340.3,58,340.3,58
						c-0.3,0-0.4-0.3-0.4-0.5c0.1-1.4,0.1-2.9-0.1-4.4c-0.1-1.1-0.3-2.3-0.6-3.5c-0.1-0.2,0-0.5,0.2-0.6c0.2-0.1,0.4,0.1,0.5,0.3
						c0.3,1.2,0.5,2.5,0.7,3.7c0.2,1.6,0.2,3.1,0.1,4.6C340.6,57.8,340.5,58,340.3,58z M336.7,42.6c-0.1,0-0.3,0-0.4-0.2
						c-0.6-1.1-1.3-2.3-2-3.5c-0.6-1-1.3-1.9-2-2.9c-0.1-0.2-0.1-0.5,0-0.6c0.1-0.2,0.4-0.2,0.5,0c0.7,0.9,1.4,1.9,2,2.9
						c0.8,1.2,1.5,2.4,2.1,3.6c0.1,0.2,0.1,0.5-0.1,0.6C336.8,42.5,336.8,42.6,336.7,42.6z M327.8,30.7c-0.1,0-0.2,0-0.3-0.1
						c-1.7-1.6-3.5-3.1-5.5-4.4c-0.2-0.1-0.2-0.4-0.1-0.6c0.1-0.2,0.3-0.3,0.5-0.2c2,1.4,3.8,2.9,5.5,4.5c0.2,0.2,0.2,0.4,0.1,0.6
						C328,30.6,327.9,30.7,327.8,30.7z M316.4,22.7c-0.1,0-0.1,0-0.2,0c-1.9-1-4-1.9-6.1-2.8c-0.2-0.1-0.3-0.3-0.2-0.6
						c0.1-0.2,0.3-0.4,0.5-0.3c2.2,0.8,4.2,1.8,6.2,2.8c0.2,0.1,0.3,0.4,0.2,0.6C316.6,22.6,316.5,22.7,316.4,22.7z M303.9,17.8
						c0,0-0.1,0-0.1,0c-2.1-0.6-4.2-1.1-6.4-1.6c-0.2,0-0.3-0.3-0.3-0.5c0-0.3,0.2-0.4,0.4-0.4c2.2,0.5,4.4,1,6.5,1.6
						c0.2,0.1,0.3,0.3,0.3,0.5C304.2,17.6,304,17.8,303.9,17.8z M291,15.1C290.9,15.1,290.9,15.1,291,15.1c-2.2-0.3-4.4-0.5-6.6-0.6
						c-0.2,0-0.4-0.2-0.3-0.5c0-0.3,0.2-0.4,0.4-0.4c2.2,0.1,4.4,0.4,6.6,0.6c0.2,0,0.3,0.3,0.3,0.5C291.3,14.9,291.1,15.1,291,15.1
						z"/>
				</g>
				<g>
					<path class="st1" d="M277.8,14.3C277.8,14.3,277.8,14.3,277.8,14.3c-2.1,0-3.3,0.1-3.3,0.1c-0.2,0-0.4-0.2-0.4-0.4
						c0-0.3,0.2-0.5,0.3-0.5c0,0,1.2-0.1,3.3-0.1c0.2,0,0.4,0.2,0.4,0.5C278.1,14.1,278,14.3,277.8,14.3z"/>
				</g>
			</g>
			<g>
				<polygon class="st2" points="279.8,14.7 269.9,15.5 272.9,9.2 				"/>
				<polygon class="st3" points="270.7,17.5 257.7,12.8 273.8,11.8 				"/>
				<polygon class="st3" points="257.7,12.8 277.6,1.1 274.8,6.9 				"/>
				<polygon class="st1" points="257.7,12.8 273.8,11.8 279.8,14.7 274.8,6.8 				"/>
			</g>
		</g>
		<ellipse class="st4" cx="246.2" cy="381.7" rx="238.6" ry="13.9"/>
		<g>
			<g>
				<path class="st5" d="M461.9,158.7c-5.8,0-11.4,2-15.8,5.7l16.1,16.9l20.1-12c-2.1-3-4.8-5.6-8-7.4
					C470.5,159.9,466.2,158.7,461.9,158.7z"/>
			</g>
			<g>
				<path class="st5" d="M463.3,184.8v23c12.4-0.7,22.4-10.7,23.1-23H463.3z"/>
			</g>
			<g>
				<path class="st5" d="M471.9,181h19.2c-0.2-3.4-1.1-6.8-2.7-9.8L471.9,181z"/>
			</g>
			<g>
				<path class="st5" d="M443.9,166.5c-4.3,4.6-6.7,10.5-6.7,16.8c0,13,10.3,23.7,23.2,24.5l0-23.9L443.9,166.5z"/>
			</g>
		</g>
		<g>
			<g>
				<path class="st6" d="M79.4,75.9l-2,0c-0.6-2.5-1.6-5-2.9-7.1l1.6-1.7c2.4-2.5,2.3-6.5-0.2-8.9c-2.5-2.4-6.5-2.3-8.9,0.2
					l-1.4,1.4c-2.2-1.3-4.6-2.4-7.1-3c0,0,0,0,0,0l0-2.3c-0.1-3.5-2.9-6.2-6.4-6.2c-3.5,0.1-6.2,2.9-6.2,6.4l0,2
					c-2.5,0.6-5,1.6-7.1,2.9L37.3,58c-2.5-2.4-6.5-2.3-8.9,0.2c-2.4,2.5-2.3,6.5,0.2,8.9l1.4,1.4c-1.3,2.2-2.4,4.6-3,7.1
					c0,0,0,0,0,0l-2.3,0c-3.5,0.1-6.2,2.9-6.2,6.4c0.1,3.5,2.9,6.2,6.4,6.2l2,0c0.6,2.6,1.6,5,2.9,7.1l-1.6,1.7
					c-2.4,2.5-2.3,6.5,0.2,8.9c2.5,2.4,6.5,2.3,8.9-0.2l1.4-1.4c0,0,0,0,0,0c2.2,1.3,4.6,2.4,7.1,3l0,2.3c0.1,3.5,2.9,6.2,6.4,6.2
					c3.5-0.1,6.2-2.9,6.2-6.4l0-2c2.6-0.6,5-1.6,7.1-2.9l1.7,1.6c2.5,2.4,6.5,2.3,8.9-0.2c2.4-2.5,2.3-6.5-0.2-8.9l-1.4-1.4
					c0,0,0,0,0,0c1.3-2.2,2.4-4.6,3-7.1l2.3,0c3.5-0.1,6.2-2.9,6.2-6.4C85.7,78.6,82.8,75.8,79.4,75.9z M70.8,81.6
					c0.2,10.3-8,18.8-18.3,19c-10.3,0.2-18.8-8-19-18.3c-0.2-10.3,8-18.8,18.3-19C62.1,63.1,70.6,71.3,70.8,81.6z"/>
			</g>
			<path class="st6" d="M40.3,82.2c0.1,6.5,5.5,11.7,12,11.6c6.5-0.1,11.7-5.5,11.6-12c-0.1-6.5-5.5-11.7-12-11.6
				C45.4,70.3,40.2,75.7,40.3,82.2z"/>
		</g>
		<g>
			<g>
				<path class="st6" d="M114,48.9h-1.2c-0.3-1.6-0.9-3.1-1.7-4.4l1-1c1.5-1.5,1.5-3.9,0-5.4c-1.5-1.5-3.9-1.5-5.4,0l-0.9,0.9
					c-1.3-0.8-2.8-1.5-4.3-1.9c0,0,0,0,0,0v-1.4c0-2.1-1.7-3.8-3.8-3.8c-2.1,0-3.8,1.7-3.8,3.8v1.2c-1.6,0.3-3.1,0.9-4.4,1.7l-1-1
					c-1.5-1.5-3.9-1.5-5.4,0c-1.5,1.5-1.5,3.9,0,5.4l0.9,0.9c-0.8,1.3-1.5,2.8-1.9,4.3c0,0,0,0,0,0h-1.4c-2.1,0-3.8,1.7-3.8,3.8
					c0,2.1,1.7,3.8,3.8,3.8h1.2c0.3,1.6,0.9,3.1,1.7,4.4l-1,1c-1.5,1.5-1.5,3.9,0,5.4c1.5,1.5,3.9,1.5,5.4,0l0.9-0.9c0,0,0,0,0,0
					c1.3,0.8,2.8,1.5,4.3,1.9V69c0,2.1,1.7,3.8,3.8,3.8c2.1,0,3.8-1.7,3.8-3.8v-1.2c1.6-0.3,3.1-0.9,4.4-1.7l1,1
					c1.5,1.5,3.9,1.5,5.4,0c1.5-1.5,1.5-3.9,0-5.4l-0.9-0.9c0,0,0,0,0,0c0.8-1.3,1.5-2.8,1.9-4.3h1.4c2.1,0,3.8-1.7,3.8-3.8
					C117.8,50.6,116.1,48.9,114,48.9z M108.6,52.3c0,6.3-5.1,11.4-11.4,11.4c-6.3,0-11.4-5.1-11.4-11.4c0-6.3,5.1-11.4,11.4-11.4
					C103.5,40.9,108.6,46,108.6,52.3z"/>
			</g>
			<path class="st6" d="M90,52.3c0,4,3.2,7.2,7.2,7.2c4,0,7.2-3.2,7.2-7.2s-3.2-7.2-7.2-7.2C93.2,45.1,90,48.3,90,52.3z"/>
		</g>
		<g>
			<g>
				<path class="st7" d="M408.9,61.4c-5.7-1.8-11.8-10.1-12.8-17.5c0,0-7.9,7.4-8.4,12.9c-1.1,12.5,4.9,20.4,15.3,34.8
					c0.1,0,0.2,0,0.2,0.1c17-31.4,47.8-51.3,79.3-83.6c-4.5,2.1-8.2,3.4-17,4.9c-13.4,2.3-14.4,26.4-16.7,20.3
					c-1.4-3.8,7.4-20.1,11.2-22.8c-0.4-0.1-8.7,0.6-13.1,3.2c-4.8,2.8-4.8,23.7-7.3,18.3c-2.6-5.4,6-18.8,6-18.8s-9.6,1.7-14.8,5
					c-5.3,3.3,1.4,27.3-2.9,25.2c-2.6-1.3-4.4-16.9,0.9-25c0,0-13.4,7-17.2,10.7c-3.9,3.6,15,28.2,9.3,28c-5.6-0.1-14-20.7-11.7-27
					c0,0-8.6,6.2-11.3,11.6C395.2,47.1,412.7,62.6,408.9,61.4z M435.3,35.1c-0.6,0.3-1.4-0.3-1.9-1.2c-0.5-1-0.4-2,0.2-2.3
					c0.6-0.3,1.4,0.3,1.9,1.2C436,33.8,435.9,34.9,435.3,35.1z M404.5,66.5c-1,1.1-3.4,0.5-5.4-1.3c-2-1.8-2.8-4.2-1.8-5.3
					c1-1.1,3.4-0.5,5.4,1.3C404.7,63,405.5,65.3,404.5,66.5z"/>
				<path class="st8" d="M403.3,91.7c14.7,4.2,27,4.7,37.8,3.2c7.4-1,13.1-10.2,13.1-10.2c-13.1-3-17.6-10.3-16.6-12.4
					c1-2.1,9.9,9,17.3,10.3c7.4,1.3,12.8-11.6,12.8-11.6c-4.2,5.9-30.9-4.5-31.2-8c-0.3-3.5,19.2,6.4,27,6.9
					c7.7,0.5,8.9-14.5,8.9-14.9c-1.9,5.7-23.4,1.8-23-2.4c0.4-4.2,23,1.3,25.4-1.2c3.7-3.8,3.1-15.2,3.1-15.6c-1,6-18,9.7-24.1,6.8
					c-6.2-3,22.8-0.5,24.3-12.3c0.8-6.2,2-14.9,4.5-22.2C451.1,40.4,420.3,60.3,403.3,91.7z M470.2,28.3c1.8-0.3,3.4,0.3,3.6,1.3
					c0.2,1-1.2,2.1-3,2.4c-1.8,0.3-3.4-0.3-3.6-1.3C467,29.7,468.4,28.6,470.2,28.3z M470.2,45.1c1,0,1.8,0.6,1.7,1.2
					c0,0.6-0.8,1.2-1.8,1.1c-1,0-1.8-0.6-1.7-1.2C468.4,45.6,469.2,45.1,470.2,45.1z M437,80.7c3,1.2,4.8,3.5,4.1,5.2
					c-0.7,1.7-3.6,2-6.6,0.8c-3-1.2-4.8-3.5-4.1-5.2C431.1,79.8,434.1,79.4,437,80.7z M441.5,56.2c1.8,0.5,3,1.7,2.7,2.7
					c-0.3,1-2,1.4-3.7,0.8c-1.8-0.5-3-1.7-2.7-2.7C438,56,439.7,55.6,441.5,56.2z"/>
			</g>
		</g>
		<path class="st8" d="M429.8,116.3c1.1-1,3-0.5,3.9,0.6c0.9,1.1,1.2,2.7,1.1,4.2c-0.1,2.4-0.6,4.6-1.3,6.8c1.5-1.7,3-3.3,4.6-4.9
			c1-1,2.1-2.1,3.2-3c-2.1-2.6-3.5-5.8-3.8-9.1c-0.1-1.3,0-2.7,0.9-3.5c1.1-1,3-0.5,3.9,0.6c0.9,1.1,1.2,2.7,1.1,4.2
			c-0.1,2.5-0.7,4.7-1.4,7.1c3.4-3,7-5.8,10.9-8.2c-1.7-2.9-2.5-6.2-2.3-9.5c0.1-1.3,0.4-2.7,1.5-3.3c1.3-0.8,3,0,3.8,1.3
			c0.8,1.3,0.7,2.9,0.5,4.3c-0.4,2.4-1.3,4.4-2.4,6.5c4.1-2.5,8.5-4.8,13.3-5.6c0.1,0,0.2,0,0.3,0c-1.3-3.1-1.6-6.5-0.9-9.8
			c0.3-1.2,0.8-2.6,2-3.1c1.4-0.6,3,0.4,3.6,1.8c0.6,1.4,0.3,2.9-0.2,4.3c-0.8,2.5-2.2,4.5-3.6,6.6c5.5-0.8,11.2-0.6,16.6-1.7
			c-1.3-3.1-1.7-6.6-1-10c0.3-1.2,0.8-2.6,2-3.1c1.4-0.6,3,0.4,3.6,1.8c0.6,1.4,0.3,2.9-0.2,4.3c-0.9,2.5-2.2,4.6-3.7,6.8
			c1.4-0.3,2.7-0.6,4-1.1c2.7-1,5.1-2.5,7.3-4.4c-2.2-2.7-3.5-6.1-3.7-9.6c-0.1-1.3,0.1-2.7,1.1-3.5c1.2-0.9,3-0.4,3.9,0.8
			c0.9,1.2,1.1,2.8,1,4.2c-0.2,2.7-1,5.1-1.9,7.6c3.4-3.1,6-7.2,7.6-11.5c-1.7-2.7-2.5-5.8-2.5-9c0-1.3,0.3-2.7,1.3-3.4
			c1.2-0.8,3-0.2,3.9,1.1c0.8,1.2,0.9,2.8,0.7,4.3c-0.3,2.3-1.1,4.4-2,6.5c0,0.1,0,0.2,0,0.3c-1.2,3.7-3.2,7-5.7,10
			c-0.5,0.6-1.1,1.3-1.7,1.9c2.8-1.2,6-1.6,9-1.2c1.3,0.2,2.6,0.6,3.2,1.7c0.7,1.3-0.2,3-1.6,3.7c-1.3,0.7-2.9,0.5-4.3,0.1
			c-2.7-0.7-4.9-2-7.2-3.4c-1.3,1.2-2.7,2.3-4.3,3.2c-2.4,1.3-4.9,2.1-7.5,2.7c3.2,0.2,6.3,1.2,8.8,3c1,0.7,2.1,1.7,2.1,3
			c0,1.5-1.6,2.6-3.1,2.6c-1.5,0-2.8-0.9-3.9-1.9c-2.1-1.9-3.5-4.1-5-6.5c-4.3,0.8-8.8,0.8-13.1,1.2c-1.4,0.1-2.7,0.3-4,0.5
			c3.4,0,6.9,1.1,9.7,3c1,0.7,2.1,1.7,2.1,3c0,1.5-1.6,2.6-3.1,2.6c-1.5,0-2.8-0.9-3.9-1.9c-2.2-1.9-3.6-4.2-5.1-6.7
			c-1.4,0.3-2.8,0.6-4.2,1.1c-2.5,0.9-4.9,2.1-7.2,3.4c-0.6,0.4-1.2,0.7-1.8,1.1c3.1-0.3,6.3,0.3,9.1,1.7c1.1,0.6,2.3,1.4,2.5,2.7
			c0.2,1.5-1.2,2.8-2.6,3c-1.5,0.2-2.9-0.4-4.2-1.3c-2.3-1.5-4-3.4-5.7-5.5c-3.7,2.4-7.3,5.1-10.6,8.1c3.1-1.1,6.4-1.3,9.6-0.5
			c1.2,0.3,2.6,0.9,3,2c0.5,1.4-0.5,3-1.9,3.5c-1.4,0.5-2.9,0.2-4.3-0.3c-2.6-1-4.7-2.5-7-4.2c-0.4,0.4-0.9,0.8-1.3,1.2
			c-2.4,2.2-4.6,4.5-6.8,7c3-1,6.3-1.2,9.4-0.4c1.2,0.3,2.6,0.9,3,2c0.5,1.4-0.5,3-1.9,3.5c-1.4,0.5-2.9,0.2-4.3-0.3
			c-2.6-0.9-4.6-2.4-6.8-4c-2.4,2.8-4.6,5.8-6.6,8.9c-0.4,0.7-1.4,0-1-0.7c2-3.2,4.2-6.1,6.6-9c-2.1-2.6-3.5-5.8-3.8-9.2
			C428.8,118.5,428.9,117.1,429.8,116.3z"/>
		<g>
			<rect x="139.1" y="47.8" class="st5" width="10.3" height="11.4"/>
			<rect x="157.5" y="38.7" class="st5" width="10.3" height="20.5"/>
			<rect x="175.9" y="30.2" class="st5" width="10.3" height="29"/>
			<rect x="194.3" y="23.3" class="st5" width="10.3" height="35.9"/>
		</g>
		<g>
			<path class="st9" d="M50,266l1.8-1.8c0.4-0.4,0.4-1.1,0-1.5c-0.4-0.4-1.1-0.4-1.5,0l-1.8,1.8l-1.8-1.8c-0.4-0.4-1.1-0.4-1.5,0
				c-0.4,0.4-0.4,1.1,0,1.5L47,266l-1.8,1.8c-0.4,0.4-0.4,1.1,0,1.5c0.2,0.2,0.5,0.3,0.7,0.3s0.5-0.1,0.7-0.3l1.8-1.8l1.8,1.8
				c0.2,0.2,0.5,0.3,0.7,0.3c0.3,0,0.5-0.1,0.7-0.3c0.4-0.4,0.4-1.1,0-1.5L50,266z"/>
		</g>
		<g>
			<path class="st9" d="M58,134l1.8-1.8c0.4-0.4,0.4-1.1,0-1.5c-0.4-0.4-1.1-0.4-1.5,0l-1.8,1.8l-1.8-1.8c-0.4-0.4-1.1-0.4-1.5,0
				c-0.4,0.4-0.4,1.1,0,1.5L55,134l-1.8,1.8c-0.4,0.4-0.4,1.1,0,1.5c0.2,0.2,0.5,0.3,0.7,0.3c0.3,0,0.5-0.1,0.7-0.3l1.8-1.8l1.8,1.8
				c0.2,0.2,0.5,0.3,0.7,0.3s0.5-0.1,0.7-0.3c0.4-0.4,0.4-1.1,0-1.5L58,134z"/>
		</g>
		<g>
			<path class="st9" d="M240.9,51l1.8-1.8c0.4-0.4,0.4-1.1,0-1.5c-0.4-0.4-1.1-0.4-1.5,0l-1.8,1.8l-1.8-1.8c-0.4-0.4-1.1-0.4-1.5,0
				c-0.4,0.4-0.4,1.1,0,1.5l1.8,1.8l-1.8,1.8c-0.4,0.4-0.4,1.1,0,1.5c0.2,0.2,0.5,0.3,0.7,0.3c0.3,0,0.5-0.1,0.7-0.3l1.8-1.8
				l1.8,1.8c0.2,0.2,0.5,0.3,0.7,0.3s0.5-0.1,0.7-0.3c0.4-0.4,0.4-1.1,0-1.5L240.9,51z"/>
		</g>
		<g>
			<path class="st9" d="M368.4,51.9l1.8-1.8c0.4-0.4,0.4-1.1,0-1.5c-0.4-0.4-1.1-0.4-1.5,0l-1.8,1.8l-1.8-1.8
				c-0.4-0.4-1.1-0.4-1.5,0c-0.4,0.4-0.4,1.1,0,1.5l1.8,1.8l-1.8,1.8c-0.4,0.4-0.4,1.1,0,1.5c0.2,0.2,0.5,0.3,0.7,0.3
				c0.3,0,0.5-0.1,0.7-0.3l1.8-1.8l1.8,1.8c0.2,0.2,0.5,0.3,0.7,0.3c0.3,0,0.5-0.1,0.7-0.3c0.4-0.4,0.4-1.1,0-1.5L368.4,51.9z"/>
		</g>
		<g>
			<path class="st9" d="M446,228.6l1.8-1.8c0.4-0.4,0.4-1.1,0-1.5c-0.4-0.4-1.1-0.4-1.5,0l-1.8,1.8l-1.8-1.8c-0.4-0.4-1.1-0.4-1.5,0
				c-0.4,0.4-0.4,1.1,0,1.5l1.8,1.8l-1.8,1.8c-0.4,0.4-0.4,1.1,0,1.5c0.2,0.2,0.5,0.3,0.7,0.3c0.3,0,0.5-0.1,0.7-0.3l1.8-1.8
				l1.8,1.8c0.2,0.2,0.5,0.3,0.7,0.3c0.3,0,0.5-0.1,0.7-0.3c0.4-0.4,0.4-1.1,0-1.5L446,228.6z"/>
		</g>
		<g>
			<g>
				<path class="st10" d="M4.2,193.1c-2.6,0-4.7-2.1-4.7-4.7c0-2.6,2.1-4.7,4.7-4.7c2.6,0,4.7,2.1,4.7,4.7
					C8.9,191,6.8,193.1,4.2,193.1z M4.2,185.3c-1.8,0-3.2,1.4-3.2,3.2c0,1.8,1.4,3.2,3.2,3.2c1.8,0,3.2-1.4,3.2-3.2
					C7.4,186.7,6,185.3,4.2,185.3z"/>
			</g>
		</g>
		<g>
			<g>
				<path class="st10" d="M134,28.1c-2.6,0-4.7-2.1-4.7-4.7c0-2.6,2.1-4.7,4.7-4.7s4.7,2.1,4.7,4.7C138.6,26,136.5,28.1,134,28.1z
					 M134,20.2c-1.8,0-3.2,1.4-3.2,3.2c0,1.8,1.4,3.2,3.2,3.2c1.8,0,3.2-1.4,3.2-3.2C137.2,21.6,135.7,20.2,134,20.2z"/>
			</g>
		</g>
		<g>
			<g>
				<path class="st10" d="M301.5,35c-2.6,0-4.7-2.1-4.7-4.7c0-2.6,2.1-4.7,4.7-4.7c2.6,0,4.7,2.1,4.7,4.7
					C306.1,32.9,304,35,301.5,35z M301.5,27.1c-1.8,0-3.2,1.4-3.2,3.2c0,1.8,1.4,3.2,3.2,3.2c1.8,0,3.2-1.4,3.2-3.2
					C304.7,28.5,303.2,27.1,301.5,27.1z"/>
			</g>
		</g>
		<g>
			<g>
				<path class="st10" d="M471.3,152.5c-2.6,0-4.7-2.1-4.7-4.7c0-2.6,2.1-4.7,4.7-4.7c2.6,0,4.7,2.1,4.7,4.7
					C475.9,150.4,473.9,152.5,471.3,152.5z M471.3,144.7c-1.8,0-3.2,1.4-3.2,3.2c0,1.8,1.4,3.2,3.2,3.2c1.8,0,3.2-1.4,3.2-3.2
					C474.5,146.1,473,144.7,471.3,144.7z"/>
			</g>
		</g>
		<g>
			<rect x="75.2" y="72" class="st11" width="351.1" height="224.3"/>
			<g>
				<g>
					<g>
						<rect x="218.5" y="301.6" class="st12" width="60.4" height="69.8"/>
					</g>
				</g>
			</g>
			<g>
				<g>
					<g>
						<path class="st13" d="M278.9,301.6v69.8h-8.2c0.6-7,1.2-28-9.8-44.1c-10.2-14.9-32.2-16.6-42.4-16.5v-9.2H278.9z"/>
					</g>
				</g>
			</g>
			<g>
				<g>
					<g>
						<path class="st14" d="M309.3,360.8H188.1c-10,0-18.1,8.1-18.1,18.1l0,0h157.4l0,0C327.4,368.9,319.3,360.8,309.3,360.8z"/>
					</g>
				</g>
			</g>
			<g>
				<g>
					<g>
						<path class="st12" d="M309.3,360.8H188.1c-10,0-18.1,8.1-18.1,18.1l0,0h157.4l0,0C327.4,368.9,319.3,360.8,309.3,360.8z"/>
					</g>
				</g>
			</g>
			<g>
				<g>
					<g>
						<g>
							<path class="st12" d="M423.6,65.1H73.8c-2.9,0-5.2,2.3-5.2,5.2V300c0,2.9,2.3,5.2,5.2,5.2h349.8c2.9,0,5.2-2.3,5.2-5.2V70.3
								C428.8,67.4,426.4,65.1,423.6,65.1z M420.1,280c0,3.1-2.5,5.6-5.5,5.6H80.7c-3.1,0-5.5-2.5-5.5-5.6V77.8
								c0-3.1,2.5-5.6,5.5-5.6h333.8c3.1,0,5.5,2.5,5.5,5.6V280z"/>
						</g>
					</g>
				</g>
				<g>
					<g>
						<g>
							<g>
								<path class="st11" d="M274.3,295.6h-14.1c-1.1,0-2-0.9-2-2l0,0c0-1.1,0.9-2,2-2h14.1c1.1,0,2,0.9,2,2l0,0
									C276.4,294.7,275.5,295.6,274.3,295.6z"/>
							</g>
						</g>
					</g>
					<g>
						<g>
							<g>
								<path class="st15" d="M275.3,291.8c0.2,0.3,0.3,0.6,0.3,1c0,1.1-0.9,2-2,2h-14.1c-0.4,0-0.7-0.1-1-0.3
									c0.3,0.6,1,1.1,1.8,1.1h14.1c1.1,0,2-0.9,2-2C276.4,292.8,275.9,292.2,275.3,291.8z"/>
							</g>
						</g>
					</g>
					<g>
						<g>
							<g>
								<path class="st11" d="M254.2,295.6h-8.1c-1.1,0-2-0.9-2-2l0,0c0-1.1,0.9-2,2-2h8.1c1.1,0,2,0.9,2,2l0,0
									C256.3,294.7,255.3,295.6,254.2,295.6z"/>
							</g>
						</g>
					</g>
					<g>
						<g>
							<g>
								<path class="st15" d="M254.8,291.6c0.3,0.4,0.5,0.8,0.5,1.3c0,1.1-0.9,2-2,2h-8.1c-0.2,0-0.4-0.1-0.6-0.1
									c0.4,0.5,0.9,0.8,1.6,0.8h8.1c1.1,0,2-0.9,2-2C256.3,292.6,255.6,291.9,254.8,291.6z"/>
							</g>
						</g>
					</g>
					<g>
						<g>
							<g>
								<path class="st11" d="M239.5,295.7h-8.1c-1.1,0-2-0.9-2-2l0,0c0-1.1,0.9-2,2-2h8.1c1.1,0,2,0.9,2,2l0,0
									C241.6,294.8,240.7,295.7,239.5,295.7z"/>
							</g>
						</g>
					</g>
					<g>
						<g>
							<g>
								<path class="st15" d="M239.5,291.6h-0.3c0.2,0.3,0.4,0.7,0.4,1.2c0,1.1-0.9,2-2,2h-7.8c0.4,0.5,0.9,0.9,1.6,0.9h8.1
									c1.1,0,2-0.9,2-2C241.6,292.6,240.7,291.6,239.5,291.6z"/>
							</g>
						</g>
					</g>
					<g>
						<g>
							<g>
								<path class="st11" d="M220.6,293.6c0-1.7,1.4-3.1,3.1-3.1c1.7,0,3.1,1.4,3.1,3.1c0,1.7-1.4,3.1-3.1,3.1
									C222,296.7,220.6,295.3,220.6,293.6z"/>
							</g>
						</g>
					</g>
					<g>
						<g>
							<g>
								<path class="st15" d="M225.4,290.9c0.3,0.5,0.5,1.1,0.5,1.7c0,1.7-1.4,3.1-3.1,3.1c-0.6,0-1.2-0.2-1.7-0.5
									c0.6,0.9,1.5,1.4,2.6,1.4c1.7,0,3.1-1.4,3.1-3.1C226.9,292.5,226.3,291.5,225.4,290.9z"/>
							</g>
						</g>
					</g>
				</g>
			</g>
			<g>
				<g>
					<g>
						<path class="st13" d="M309.3,360.8H188.1c-5.6,0-10.7,2.6-14,6.6c2.2-0.9,4.6-1.5,7.1-1.5h121.2c8.2,0,15.1,5.5,17.4,13h7.6
							l0,0C327.4,368.9,319.3,360.8,309.3,360.8z"/>
					</g>
				</g>
			</g>
			<rect x="89.1" y="84.6" class="st16" width="297.7" height="10.4"/>
			<g>
				<rect x="391.9" y="84.6" class="st16" width="20.5" height="2.3"/>
				<rect x="391.9" y="88.6" class="st16" width="20.5" height="2.3"/>
				<rect x="391.9" y="92.7" class="st16" width="20.5" height="2.3"/>
			</g>
			<g>
				<path class="st7" d="M185,273.1c-4.8,0-8.7-3.9-8.7-8.7s3.9-8.7,8.7-8.7h131.5c4.8,0,8.7,3.9,8.7,8.7s-3.9,8.7-8.7,8.7H185z"/>
				<path class="st11" d="M185,272.1c-4.2,0-7.7-3.4-7.7-7.7c0-4.2,3.4-7.7,7.7-7.7h131.5c4.2,0,7.7,3.4,7.7,7.7
					c0,4.2-3.4,7.7-7.7,7.7H185z"/>
				<path class="st17" d="M316.5,258.1H185c-3.5,0-6.3,2.8-6.3,6.3l0,0c0,3.5,2.8,6.3,6.3,6.3h131.5c3.5,0,6.3-2.8,6.3-6.3l0,0
					C322.8,260.9,320,258.1,316.5,258.1z"/>
				<path class="st18" d="M297.2,258.1v12.6H185c-1.7,0-3.3-0.7-4.4-1.8c-1.1-1.1-1.8-2.7-1.8-4.4c0-3.5,2.8-6.3,6.3-6.3H297.2z"/>
			</g>
			<g>
				
					<rect x="149.3" y="263.3" transform="matrix(-1 -1.224647e-16 1.224647e-16 -1 309.0077 538.0392)" class="st16" width="10.3" height="11.4"/>
				
					<rect x="130.9" y="254.2" transform="matrix(-1 -1.224647e-16 1.224647e-16 -1 272.2089 528.9124)" class="st16" width="10.3" height="20.5"/>
				
					<rect x="112.5" y="245.7" transform="matrix(-1 -1.224647e-16 1.224647e-16 -1 235.41 520.4498)" class="st16" width="10.3" height="29"/>
				
					<rect x="94.1" y="238.8" transform="matrix(-1 -1.224647e-16 1.224647e-16 -1 198.6113 513.5414)" class="st16" width="10.3" height="35.9"/>
			</g>
		</g>
		<g>
			<g>
				<ellipse class="st19" cx="402.8" cy="140.5" rx="4.3" ry="7"/>
				<ellipse class="st19" cx="355.8" cy="140.5" rx="4.3" ry="7"/>
			</g>
			<g>
				<g>
					<path class="st20" d="M395,302.3c3.9,0.3,7.6-0.9,11.5-0.5c-1.6-18,0.3-10.8-6.6-28c-4,1.6-8.5,1.7-12.4,3.6
						C393.7,294.5,393.4,283.1,395,302.3z"/>
				</g>
				<g>
					<path class="st21" d="M381.6,311.6v8.8c0,3.2,1.5,6,3.8,7.8c1.2,0.9,2.2,2,3.1,3.1c0.2,0.3,0.5,0.6,0.7,1
						c1,1.6,1.7,3.4,2.1,5.4c1.1,6.5,2.3,13,3.4,19.6h21.9v-45.7c0-5.7-4.6-10.3-10.3-10.3h-14.2c-0.1,0-0.1,0-0.2,0
						c-0.6,0-1.1,0.1-1.7,0.2C385.3,302.3,381.6,306.5,381.6,311.6z"/>
					<path class="st21" d="M397.4,350.5c-0.8-4.8-1.7-9.5-2.5-14.3l-0.4-2.5c-0.4-2.3-1.3-4.5-2.5-6.6c-0.2-0.3-0.5-0.7-0.8-1.1
						c-1.1-1.4-2.3-2.7-3.7-3.8c-1.6-1.3-2.5-3.1-2.5-5.2v-8.8c0-3.4,2.4-6.3,5.7-6.9c0.4-0.1,0.8-0.1,1.1-0.1h0.3l0.1,0h14
						c3.9,0,7,3.1,7,7v42.3H397.4z"/>
					<path class="st20" d="M388.4,331.4c0.2,0.3,0.5,0.6,0.7,1c9.1-7.7,19.8-16.7,19.8-16.7l-17.2-14.4c-0.6,0-1.1,0.1-1.7,0.2
						c5.5,4.8,11.1,9.5,16.6,14.3C400.6,320.9,394.5,326.1,388.4,331.4z"/>
				</g>
				<g>
					<path class="st21" d="M417.9,357.2c-7.8,0-15.6,0.1-23.4,0.1l0,2.1l-0.5,22.2c13.5,0.1,27,0.2,40.5,0.3
						c0.4,0.1,2.8,0.5,4.6-1.9c1.9-2.5,2.4-6.9,1.1-10.8c-1.8-2.4-4.3-5.2-7.7-7.6C426.4,357.7,421,357.2,417.9,357.2z"/>
					<path class="st20" d="M401.1,376.7l0.5-19.3c-2.4,0-4.8,0-7.2,0l0,2.1l-0.5,22.2c13.5,0.1,27,0.2,40.5,0.3
						c0.4,0.1,2.8,0.5,4.6-1.9c0.7-0.9,1.1-2,1.5-3.2C427.4,376.9,414.3,376.8,401.1,376.7z"/>
				</g>
			</g>
			<g>
				<g>
					<path class="st20" d="M366.1,302.3c-3.9,0.3-7.6-0.9-11.5-0.5c1.6-18-0.3-10.8,6.6-28c4,1.6,8.5,1.7,12.4,3.6
						C367.4,294.5,367.7,283.1,366.1,302.3z"/>
				</g>
				<g>
					<path class="st21" d="M379.5,311.6v8.8c0,3.2-1.5,6-3.8,7.8c-1.2,0.9-2.2,2-3.1,3.1c-0.2,0.3-0.5,0.6-0.7,1
						c-1,1.6-1.7,3.4-2.1,5.4c-1.1,6.5-2.3,13-3.4,19.6h-21.9v-45.7c0-5.7,4.6-10.3,10.3-10.3h14.2c0.1,0,0.1,0,0.2,0
						c0.6,0,1.1,0.1,1.7,0.2C375.9,302.3,379.5,306.5,379.5,311.6z"/>
					<path class="st21" d="M363.7,350.5c0.8-4.8,1.7-9.5,2.5-14.3l0.4-2.5c0.4-2.3,1.3-4.5,2.5-6.6c0.2-0.3,0.5-0.7,0.8-1.1
						c1.1-1.4,2.3-2.7,3.7-3.8c1.6-1.3,2.5-3.1,2.5-5.2v-8.8c0-3.4-2.4-6.3-5.7-6.9c-0.4-0.1-0.8-0.1-1.1-0.1h-0.3l-0.1,0h-14
						c-3.9,0-7,3.1-7,7v42.3H363.7z"/>
					<path class="st20" d="M372.7,331.4c-0.2,0.3-0.5,0.6-0.7,1c-9.1-7.7-19.8-16.7-19.8-16.7l17.2-14.4c0.6,0,1.1,0.1,1.7,0.2
						c-5.5,4.8-11.1,9.5-16.6,14.3C360.5,320.9,366.6,326.1,372.7,331.4z"/>
				</g>
				<g>
					<path class="st21" d="M343.3,357.2c7.8,0,15.6,0.1,23.4,0.1l0,2.1l0.5,22.2c-13.5,0.1-27,0.2-40.5,0.3
						c-0.4,0.1-2.8,0.5-4.6-1.9c-1.9-2.5-2.4-6.9-1.1-10.8c1.8-2.4,4.3-5.2,7.7-7.6C334.7,357.7,340.1,357.2,343.3,357.2z"/>
					<path class="st20" d="M360,376.7l-0.5-19.3c2.4,0,4.8,0,7.2,0l0,2.1l0.5,22.2c-13.5,0.1-27,0.2-40.5,0.3
						c-0.4,0.1-2.8,0.5-4.6-1.9c-0.7-0.9-1.1-2-1.5-3.2C333.8,376.9,346.9,376.8,360,376.7z"/>
				</g>
			</g>
			<g>
				<rect x="368.2" y="245.1" class="st19" width="25" height="9.8"/>
				<path class="st21" d="M389.4,295.1H372c-13.8,0-25-11.2-25-25v-11c0-3.8,3.1-6.9,6.9-6.9h53.6c3.8,0,6.9,3.1,6.9,6.9v11
					C414.3,283.9,403.1,295.1,389.4,295.1z"/>
				<g>
					<path class="st22" d="M355.7,267.9v-7h50v7c0,10.3-8.3,18.6-18.6,18.6h-12.9C364,286.4,355.7,278.1,355.7,267.9z"/>
				</g>
			</g>
			<g>
				<path class="st21" d="M417.7,189.7v37.9c0,7.3-4.1,13.7-10.1,16.9c-0.3,0.2-0.7,0.3-1,0.5c-0.1,0.1-0.3,0.1-0.4,0.2
					c-0.3,0.2-0.7,0.3-1.1,0.4c-2.1,0.8-4.3,1.2-6.7,1.2h-37.3c-2.1,0-4-0.3-5.9-0.9c-0.2-0.1-0.4-0.1-0.6-0.2
					c-0.1,0-0.1-0.1-0.2-0.1c-0.2-0.1-0.4-0.1-0.6-0.2c-0.2-0.1-0.4-0.2-0.6-0.3c-0.1,0-0.1-0.1-0.2-0.1
					c-6.5-3.1-11.1-9.7-11.1-17.4v-37.9c0-10.6,8.6-19.2,19.2-19.2h37.3c7.1,0,13.3,3.8,16.6,9.5c1,1.7,1.8,3.6,2.2,5.6
					C417.6,186.9,417.7,188.3,417.7,189.7z"/>
				<rect x="370.3" y="164.1" class="st19" width="19" height="7.5"/>
				<path class="st19" d="M384.1,179.3h-8.5c-4.8,0-8.7-3.9-8.7-8.7v-0.2h25.8v0.2C392.7,175.4,388.8,179.3,384.1,179.3z"/>
				<path class="st20" d="M405.4,240c-0.1-5.6-4.6-10.1-10.2-10.1h-30.8c-5.6,0-10.1,4.5-10.2,10l-1.1,5c0.2,0.1,0.4,0.2,0.6,0.3
					c0.2,0.1,0.4,0.2,0.6,0.2c0.1,0,0.1,0.1,0.2,0.1c0.2,0.1,0.4,0.2,0.6,0.2c1.9,0.6,3.8,0.9,5.9,0.9h37.3c2.4,0,4.6-0.4,6.7-1.2
					c0.4-0.1,0.7-0.3,1.1-0.4c0.1-0.1,0.3-0.1,0.4-0.2L405.4,240z"/>
				<path class="st21" d="M405.1,245.6c-2.1,0.8-4.3,1.2-6.7,1.2h-37.3c-2.1,0-4-0.3-5.9-0.9c-0.2-0.1-0.4-0.1-0.6-0.2
					c0.4-1.8,0.8-3.6,1.2-5.4c0-4.8,3.9-8.7,8.7-8.7h30.8c4.8,0,8.7,3.9,8.7,8.7C404.3,242,404.7,243.8,405.1,245.6z"/>
				<path class="st22" d="M389.2,238h-18.8c-1.2,0-2.1-0.9-2.1-2.1v-0.1c0-1.2,0.9-2.1,2.1-2.1h18.8c1.2,0,2.1,0.9,2.1,2.1v0.1
					C391.3,237.1,390.3,238,389.2,238z"/>
				<path class="st22" d="M389.2,244.7h-18.8c-1.2,0-2.1-0.9-2.1-2.1v-0.1c0-1.2,0.9-2.1,2.1-2.1h18.8c1.2,0,2.1,0.9,2.1,2.1v0.1
					C391.3,243.8,390.3,244.7,389.2,244.7z"/>
				<rect x="379.1" y="213" class="st20" width="1.5" height="17.4"/>
				<g>
					<rect x="356.2" y="194.8" class="st22" width="47.2" height="19.2"/>
					<polygon class="st23" points="358.3,211.9 358.3,194.8 356.2,194.8 356.2,213.9 403.4,213.9 403.4,211.9 					"/>
				</g>
				<g>
					
						<ellipse transform="matrix(0.1602 -0.9871 0.9871 0.1602 132.7338 533.3622)" class="st20" cx="379.8" cy="188.7" rx="5.3" ry="5.3"/>
					<path class="st22" d="M379.8,191.9c-1.8,0-3.3-1.5-3.3-3.3s1.5-3.3,3.3-3.3c1.8,0,3.3,1.5,3.3,3.3S381.6,191.9,379.8,191.9z"/>
				</g>
			</g>
			<g>
				<g>
					<path class="st20" d="M424.1,179.9v5.6h-6.9c-0.4-2-1.2-3.9-2.2-5.6H424.1z"/>
					<g>
						<path class="st20" d="M431.6,249.9c-1.8-0.3-3.6-0.4-5.4-0.7c3.1-24.6,3.6-33.9-0.1-58.5c1.8-0.3,3.6-0.5,5.4-0.8
							C435.1,214.9,434.8,224.9,431.6,249.9z"/>
					</g>
					<g>
						<path class="st21" d="M442.8,182.5c0,2.7-1.1,5.2-2.9,7c-1.5,1.5-3.4,2.5-5.5,2.8v-19.6C439.1,173.4,442.8,177.5,442.8,182.5z
							"/>
						<path class="st21" d="M434.4,172.7v19.6c-0.5,0.1-1,0.1-1.5,0.1h-11v-19.8h11C433.4,172.6,433.9,172.6,434.4,172.7z"/>
						<path class="st22" d="M436.9,174.2c0.2-0.2,1,0.4,1.5,0.8c3.1,2.3,4.1,6.5,3.6,6.7C441.3,182.1,436.3,174.8,436.9,174.2z"/>
					</g>
					<g>
						<path class="st21" d="M431.3,221.9H431c-2.9,0-5.3-2.4-5.3-5.3V209c0-2.9,2.4-5.3,5.3-5.3h0.3c2.9,0,5.3,2.4,5.3,5.3v7.6
							C436.6,219.5,434.2,221.9,431.3,221.9z"/>
						<path class="st22" d="M427.6,216.5v-7.5c0-1.9,1.6-3.5,3.5-3.5h0.2c1.9,0,3.5,1.6,3.5,3.5v7.5c0,1.9-1.6,3.5-3.5,3.5h-0.2
							C429.1,220.1,427.6,218.5,427.6,216.5z"/>
					</g>
					<g>
						<path class="st21" d="M431.5,234.6L431.5,234.6c-3.4-0.8-6.9,1.3-7.7,4.8l-2.7,11.5c-0.8,3.4,1.3,6.9,4.8,7.7l0,0
							c3.4,0.8,6.9-1.3,7.7-4.8l2.7-11.5C437.1,238.8,435,235.4,431.5,234.6z"/>
						<path class="st20" d="M427.3,255.9l-1.3-0.3c-3.1-0.7-5-3.8-4.3-6.9l2.4-10.2c0,0.1-0.1,0.2-0.1,0.3l-3,12.9
							c-0.7,3.1,1.2,6.2,4.3,6.9l1.3,0.3c3.1,0.7,6.2-1.2,6.9-4.3l0.6-2.6C433.3,254.8,430.3,256.5,427.3,255.9z"/>
					</g>
				</g>
				<g>
					<path class="st20" d="M335.5,179.9v5.6h6.9c0.4-2,1.2-3.9,2.2-5.6H335.5z"/>
					<g>
						<path class="st20" d="M328.1,249.9c1.8-0.3,3.6-0.4,5.4-0.7c-3.1-24.6-3.6-33.9,0.1-58.5c-1.8-0.3-3.6-0.5-5.4-0.8
							C324.6,214.9,324.9,224.9,328.1,249.9z"/>
					</g>
					<g>
						<path class="st21" d="M316.9,182.5c0,2.7,1.1,5.2,2.9,7c1.5,1.5,3.4,2.5,5.5,2.8v-19.6C320.5,173.4,316.9,177.5,316.9,182.5z"
							/>
						<path class="st21" d="M325.3,172.7v19.6c0.5,0.1,1,0.1,1.5,0.1h11v-19.8h-11C326.3,172.6,325.8,172.6,325.3,172.7z"/>
						<path class="st22" d="M322.7,174.2c-0.2-0.2-1,0.4-1.5,0.8c-3.1,2.3-4.1,6.5-3.6,6.7C318.4,182.1,323.3,174.8,322.7,174.2z"/>
					</g>
					<g>
						<path class="st21" d="M328.4,221.9h0.3c2.9,0,5.3-2.4,5.3-5.3V209c0-2.9-2.4-5.3-5.3-5.3h-0.3c-2.9,0-5.3,2.4-5.3,5.3v7.6
							C323.1,219.5,325.5,221.9,328.4,221.9z"/>
						<path class="st22" d="M332.1,216.5v-7.5c0-1.9-1.6-3.5-3.5-3.5h-0.2c-1.9,0-3.5,1.6-3.5,3.5v7.5c0,1.9,1.6,3.5,3.5,3.5h0.2
							C330.5,220.1,332.1,218.5,332.1,216.5z"/>
					</g>
					<g>
						<path class="st21" d="M328.1,234.6L328.1,234.6c3.4-0.8,6.9,1.3,7.7,4.8l2.7,11.5c0.8,3.4-1.3,6.9-4.8,7.7l0,0
							c-3.4,0.8-6.9-1.3-7.7-4.8l-2.7-11.5C322.5,238.8,324.7,235.4,328.1,234.6z"/>
						<path class="st20" d="M332.4,255.9l1.3-0.3c3.1-0.7,5-3.8,4.3-6.9l-2.4-10.2c0,0.1,0.1,0.2,0.1,0.3l3,12.9
							c0.7,3.1-1.2,6.2-4.3,6.9l-1.3,0.3c-3.1,0.7-6.2-1.2-6.9-4.3l-0.6-2.6C326.4,254.8,329.4,256.5,332.4,255.9z"/>
					</g>
				</g>
				<g>
					<path class="st20" d="M332.7,239.9c0,1.7-1.4,3-3,3c-1.7,0-3-1.4-3-3s1.4-3,3-3C331.4,236.9,332.7,238.2,332.7,239.9z"/>
					<path class="st22" d="M329.7,241.9c-1.1,0-2-0.9-2-2c0-1.1,0.9-2,2-2c1.1,0,2,0.9,2,2C331.7,241,330.8,241.9,329.7,241.9z"/>
				</g>
				<g>
					<path class="st20" d="M433,239.9c0,1.7-1.4,3-3,3c-1.7,0-3-1.4-3-3s1.4-3,3-3C431.7,236.9,433,238.2,433,239.9z"/>
					<circle class="st22" cx="430" cy="239.9" r="2"/>
				</g>
			</g>
			<path class="st21" d="M356.1,142.7v-9.6c0-8.6,7-15.6,15.6-15.6h16.1c8.6,0,15.6,7,15.6,15.6v9.6c0,12.7-10.3,23.1-23.1,23.1
				h-1.1C366.5,165.8,356.1,155.5,356.1,142.7z"/>
			<path class="st21" d="M382.5,162.6h-5.4c-11.5,0-20.9-9.4-20.9-20.9v3.2c0,11.5,9.4,20.9,20.9,20.9h5.4
				c11.5,0,20.9-9.4,20.9-20.9v-3.2C403.4,153.2,394,162.6,382.5,162.6z"/>
			<path class="st19" d="M380.2,159.3h-0.8c-9.2,0-16.7-7.5-16.7-16.7V133c0-4.9,3.9-8.8,8.8-8.8H388c4.9,0,8.8,3.9,8.8,8.8v9.6
				C396.8,151.8,389.4,159.3,380.2,159.3z"/>
			<g>
				<path class="st22" d="M388.3,137.6h-17.1c-1.6,0-2.9-1.3-2.9-2.9v-0.1c0-1.6,1.3-2.9,2.9-2.9h17.1c1.6,0,2.9,1.3,2.9,2.9v0.1
					C391.2,136.3,389.9,137.6,388.3,137.6z"/>
				<circle class="st11" cx="372.7" cy="134.6" r="1.6"/>
				<circle class="st11" cx="386.5" cy="134.6" r="1.6"/>
			</g>
			<path class="st22" d="M386.1,147.6c0,3.1-2.8,5.6-6.4,5.6c-3.5,0-6.4-2.5-6.4-5.6H386.1z"/>
		</g>
		<g>
			<path class="st24" d="M142,258.2c-0.6-1.2-1.6-2.1-2.9-2.6c-1.9-0.7-3.9-0.5-5.8-0.2c-0.1,0-0.1,0.1,0,0.1
				c1.6-0.2,3.3-0.3,4.9,0.1c1.3,0.3,2.7,1.3,3.2,2.6c0.4,1.1,0.6,2.4,0.4,3.6c-0.2,1.3-0.8,2.6-1.4,3.8c-0.7,1.5-2.1,2.6-3.1,3.8
				c0,0,0,0.1,0.1,0.1c0.6-0.6,1.2-1.1,1.7-1.7c0.5-0.6,1-1.2,1.6-1.8c1-1.1,1.7-2.4,1.9-3.8C142.7,260.8,142.6,259.4,142,258.2z"/>
			<g>
				<g>
					<path class="st25" d="M107.4,348.6c0.3-1.4-20.1-0.3-26.5,3.9c-0.4,0.3,46.6,21.2,46.6,21.2l45-21.1
						c-6.5-2.3-13.9-4.1-21.7-5.6L107.4,348.6z"/>
				</g>
				<g>
					<g>
						<path class="st26" d="M116.5,380.9c-0.1,0-0.2,0-0.4,0c-0.1,0-0.1,0-0.2,0c-6,0.1-10-0.1-10-0.1s-0.3,0.1-0.8,0.2
							c-5.2,1.1-33,6.4-30.6-4.1c2.1-9.2,18.8-8.1,25.4-7.2c0,0,0,0,0.1,0c1.7,0.2,2.7,0.4,2.7,0.4s3.3-1.4,8.6-3.5
							c0.2-0.1,0.4-0.2,0.7-0.3c17.3-6.7,53.6-19.4,62.9-11.8c0,0,0,0,0,0c0.1,0.1,0.2,0.2,0.3,0.3c0,0,0,0,0,0
							c0.1,0.1,0.2,0.2,0.3,0.3c0.1,0.1,0.2,0.2,0.2,0.3c0,0,0.1,0.1,0.1,0.1c0.1,0.1,0.2,0.3,0.3,0.4c0,0,0,0,0,0
							c0.1,0.2,0.2,0.3,0.3,0.5c0.1,0.2,0.2,0.3,0.2,0.5c0.2,0.3,0.3,0.7,0.4,1.1c0.1,0.4,0.2,0.8,0.2,1.2c0.1,0.7,0.1,1.3,0.1,2
							C176.6,378.1,136.2,380.7,116.5,380.9z"/>
					</g>
					<path class="st27" d="M177.8,366.4c-6.4,10.2-35.5,13.6-54.4,14.8c-6.1,0.4-11.2,0.6-14.1,0.7c-1.2,0-2.3-0.4-3.2-1.1l0,0
						c-0.5-0.5-1-1-1.3-1.7c-1.2-2.6-1.7-5.3-1.8-8c0-0.4,0-0.8,0.1-1.2c0.4-1.5,1.4-2.8,2.9-3.3c1.4-0.5,2.9-1.1,4.5-1.6
						c6.6-2.3,14.8-4.9,23.2-7.1c2.1-0.6,4.3-1.1,6.4-1.6c8-2,15.7-3.5,21.8-4.1c5.3-0.5,9.3-0.4,11.4,0.7c2.4,1.3,4.2,3.9,4.6,4.7
						C179.6,361,179.3,363.9,177.8,366.4z"/>
					<g>
						<path class="st24" d="M105.9,380.9c-0.4,0.1-3.2,0.9-7.2,1.7c-10.8,2.3-29.9,4.9-28.8-5.3c0.2-2.2,1.3-3.9,2.9-5.1
							c7.5-5.9,27.2-2.5,29.7-2.1c-1.5-0.3-9.7-1.3-10.3,5.8C91.5,383.8,105.1,381.1,105.9,380.9z"/>
					</g>
					<path class="st28" d="M98.8,382.6c-10.8,2.3-29.9,4.9-28.8-5.3c0.2-2.2,1.3-3.9,2.9-5.1c0,0-2.2,6.2,0.3,8
						c2.5,1.8,5.4-0.1,8,1.9C83.8,384.1,98.8,382.6,98.8,382.6z"/>
				</g>
				<path class="st29" d="M161.9,352.1c0,0.1,0,0.2,0,0.3c-0.1,0.3-0.2,0.6-0.6,1.1c-1.4,1.8-4.4,0.6-6.9,1.9
					c-2.5,1.3-5.3,0.6-8.9,0.9c-1.2,0.1-2.6,0.1-3.8,0c-0.6,0-1.1-0.1-1.6-0.1C148,354.3,155.8,352.8,161.9,352.1z"/>
				<path class="st29" d="M177.8,366.4c-6.4,10.2-35.5,13.6-54.4,14.8c-0.4-0.2-0.7-0.3-1.1-0.4h0c-2.8-1.1-4.6-2.1-4.9-2.6
					c-1-1.7-3.7-6.9-6-11.6c-0.3-0.6-0.5-1.1-0.8-1.6c6.6-2.3,14.8-4.9,23.2-7.1c0.4,0.1,0.9,0.2,1.3,0.4h0c1.1,0.4,2.2,1,3.3,2
					c3.6,3.2,11.1,1.4,12.4,3.5c1.3,2.2,2.3,2.7,4.4,3.1c2.1,0.3,12.1-1.9,15.7-0.6c1.5,0.6,3,0.9,4.3,0.9
					C176,367.1,176.9,366.9,177.8,366.4z"/>
				<g>
					<g>
						<path class="st26" d="M180.6,375.7c2.5,10.7-25.9,5.5-31.1,4.4c-0.5-0.1-0.8-0.2-0.8-0.2s-4.1,0.2-10.4,0.2
							c-0.1,0-0.2,0-0.4,0c-9.1,0-22.6-0.5-34.6-2.7c-14.8-2.6-27.5-7.7-27.5-17.5c0,0,0,0,0-0.1c0-0.4,0-0.8,0.1-1.2c0,0,0,0,0,0
							c0.1-0.4,0.1-0.9,0.2-1.3c0.1-0.4,0.2-0.8,0.4-1.1c0.1-0.2,0.1-0.3,0.2-0.5c0.1-0.2,0.2-0.3,0.3-0.5c0,0,0,0,0,0
							c0.1-0.1,0.2-0.3,0.3-0.4c0,0,0.1-0.1,0.1-0.1c0.1-0.1,0.2-0.2,0.2-0.3c0.1-0.1,0.2-0.2,0.3-0.3c0,0,0,0,0,0
							c1.1-1.1,2.7-1.8,4.7-2.2c13.5-3,44.2,7.5,59.8,13.4c0.2,0.1,0.5,0.2,0.7,0.3c5.4,2,8.7,3.5,8.7,3.5s1-0.2,2.7-0.4
							c0,0,0,0,0.1,0C161.4,367.7,178.4,366.4,180.6,375.7z"/>
					</g>
					<g>
						<path class="st7" d="M149.8,377.6c-0.1,0.2-0.1,0.3-0.2,0.5c-1,2.4-2.9,4.2-5.9,4.3c-9.7-0.2-27.5-1.1-37.2-2.9
							c-16-3.1-34.6-10.3-31.3-20.7c0.3-1.1,0.9-2.2,1.8-3.4c2.9-3.9,8.1-5.2,14.5-5c12.6,0.5,30,6.9,44.4,11.3
							c3.9,1.2,7.7,2.3,11,3c2.2,0.6,3.7,2.8,3.9,5.1C150.9,372.1,150.7,375.1,149.8,377.6z"/>
					</g>
					<g>
						<path class="st24" d="M181.3,376.1c-0.1,11.5-20.4,7.4-28.9,5.1c-2.3-0.6-3.7-1.1-3.7-1.1s13.5,2.7,13.2-5.6
							c-0.2-5.7-10-5.4-10-5.4c1.5-0.6,13.1-2.8,21.3-0.9c0,0,0,0,0,0C177.8,369.2,181.3,371.5,181.3,376.1z"/>
					</g>
					<path class="st30" d="M149.6,378c-1,2.4-2.9,4.2-5.9,4.3c-9.7-0.2-27.5-1.1-37.2-2.9c-16-3.1-34.6-10.3-31.3-20.7
						c0.1,0.4,2.1,8.7,7,10.1c5,1.4,7.9,2.5,12.1,5.6c4.2,3.1,11.6,2.6,15.5,3.5c3.9,0.9,26.5,3.1,29,2.5c2.4-0.5,2-2.6,1.6-4
						c0.1,0.1,1.3,2.5,1.7,4C142.7,382.3,148.7,380.1,149.6,378z"/>
					<path class="st30" d="M135.8,361.6c-2.6-0.1-5.4-0.8-7-0.6c-3.8,0.4-11.1-5.9-13-3.8c-1.9,2.2-5.9,2.5-5.9,2.5
						c1.9-1.5,3.4-3.5,0.8-3.9c-2.5-0.5-10.1-0.5-16.3-2.5c-3-0.9-3.4-2.1-2.9-3C104,350.8,121.4,357.2,135.8,361.6z"/>
					<path class="st28" d="M181.3,376.1c-0.1,11.5-20.4,7.4-28.9,5.1c5.3,0.3,14,2.5,16.9-0.1c3-2.8,9.5-1.5,10.4-5.4
						c0.9-3.9-6.4-7.3-6.6-7.5C177.8,369.2,181.3,371.5,181.3,376.1z"/>
				</g>
			</g>
			<path class="st24" d="M139.9,245.3c-3.3-4.3-9.2-7-14.2-4.9c-1.4,0.6-2.6,1.6-4.1,2c-1.1,0.3-2.2,0.3-3.3,0.5
				c-4.1,0.5-8,2.7-10.7,5.9c-2.6,3.2-4,7.5-3.7,11.6c0,0.5,0.1,1-0.1,1.5c-0.2,0.5-0.5,0.9-0.9,1.3c-3.8,4.2-8.5,8.4-9,14.1
				c-0.2,2.1,0.2,4.4-0.4,6.4c-1.3,4.2-6.1,6-9.2,9c-3.1,3.1-4.5,7.8-3.5,12c0.3,1.3,0.9,2.6,2,3.2c1.3,0.7,3,0.3,4.4,0
				c0.6-0.1,1.1-0.2,1.7-0.2c1-0.1,1.9,0,2.8,0.3c0.6,0.1,1.1,0.4,1.6,0.7c2.4,1.5,3.5,4.6,5.7,6.3c0.4,0.3,0.8,0.5,1.2,0.7
				c1.3,0.5,2.7,0.5,4,0c0.1,0,0.2-0.1,0.3-0.1c1.1-0.4,2.1-1,3.1-1.8c0.2-0.1,0.3-0.3,0.5-0.4c0.4-0.3,0.8-0.7,1.1-1
				c2.1-2.1,4-4.4,5.5-6.9c1.2-1.9,2.3-4.1,4.1-5.5c2.5-2,6-2.3,9.2-2.5c2.2-2.2,6.7-7.4,8.4-15.3c0,0,0-0.1,0-0.1v0
				c0.8-4,0.7-7.4,0.3-9.9c1-3.9,2.3-7.3,3.8-10.2c1.5-2.9,2.5-3.5,2.6-5.5C143.8,252.6,142.3,248.5,139.9,245.3z M100.5,267.6
				c4.8-5.7,4.9-5.5,5.3-6.3c2-3.7-0.1-4.8,1.7-8.7c1.9-3.9,5.5-5.9,7.1-6.7c2.9-1.6,5.7-2,5.8-1.8c0.1,0.2-5.2,1.1-9.1,5.4
				c-0.8,0.9-2.5,2.8-3.4,5.8c-0.9,3.2,0,4.6-1.4,7.2c-0.2,0.4-0.5,0.8-3.4,3.7c-2.9,2.8-5.2,5.1-5.3,4.9
				C97.7,271,99,269.4,100.5,267.6z M84,296.4c-0.6,1-1.8,3.3-1.6,6.1c0.2,2.4,1.3,4.1,1.2,4.1c-0.1,0-1.7-2.1-1.8-5
				c-0.1-3.3,1.6-5.6,2.5-6.9c2.6-3.5,6.1-4.9,6.2-4.7C90.7,290.1,86.5,291.9,84,296.4z"/>
			<path class="st26" d="M148.4,316.7c-6,8.5-0.6,31.7-0.6,31.7h-40.5c1.1-1.6,4.3-21.6-2.8-32.6c-11.5-17.8,0.9-31.6,0.9-31.6
				l16.9-3.1l1.1-5.4l0.7-3.7l0.2-0.9h7.6l0.3,1.6l0.6,3.5l0.9,5.2l15.5,3.4C148.9,284.8,162.2,297.3,148.4,316.7z"/>
			<path class="st5" d="M148.4,316.7c-6,8.5-0.6,31.7-0.6,31.7h-40.5c1-1.4,3.4-16.1-0.3-27.2c-0.6-2-1.5-3.8-2.5-5.4
				c-11.5-17.8,0.9-31.6,0.9-31.6l16.9-3.1c-1.2,8.6,10.9,10.4,11.3,0.4l15.5,3.4C148.9,284.8,162.2,297.3,148.4,316.7z"/>
			<path class="st31" d="M107.2,348.4c1-1.4,3.4-16.1-0.3-27.2c8-2.3,6.6,19.9,20,27.2H107.2z"/>
			<path class="st26" d="M170.4,334.3c-0.4,2.6-2.3,5.5-5,8.3c-7,7.2-21.3,6.9-31.1,9.5l-1-5.2c0,0,17.5-4.9,21.2-11.1
				c0.4-0.7,0.7-1.3,0.8-1.8c1.3-6.1-5.8-13.7-5.8-13.7l-0.8-35.5C148.8,284.9,172.6,321,170.4,334.3z"/>
			<path class="st5" d="M170.7,334.3c-0.5,2.5-1.9,5.6-4.4,8.3c-0.3,0.3-0.7,0.3-1,0.1l-3-1.9l-7.9-5.1c0.4-0.7,0.6-1.3,0.7-1.9
				c1.3-6.1-10.1-15.5-10.1-15.5l2.7-33.7c3.6-0.2,9.6,8.2,14.6,18.4c0,0,0,0,0,0C167.8,314.1,172,327.3,170.7,334.3z"/>
			<path class="st26" d="M121.5,347l0.2,3.5c0.3-0.1,0.3-0.6,0-0.6c-8.7-1.8-23.1,0.7-30-5.2c-4.3-3.7-6.6-8.2-7.2-11.6
				c-2.1-13.4,21-48.8,21-48.8l-0.9,35.4c0,0-7.1,7.6-5.8,13.7c0.2,1.1,1.1,2.4,2.3,3.9C106.3,343.4,121.5,347,121.5,347z"/>
			<path class="st5" d="M98.8,333.3c0.2,1.1,1.7,2,3,3.5l-7.3,6.1l-2.9,2.4c-4.3-3.7-6.8-8.3-7.8-11.7c-1.5-5.2,0.6-14.1,4.1-22.9
				c0,0,0-0.1,0-0.1c5.3-13.3,13.8-26.5,18.3-26.6l2.6,35.9C108.7,319.9,97.5,327.2,98.8,333.3z"/>
			<path class="st11" d="M155.8,317.1v33.3c0,1.8-1.5,3.2-3.2,3.2h-51c-1.8,0-3.2-1.5-3.2-3.2v-33.3c0-1.8,1.5-3.2,3.2-3.2h51
				C154.4,313.9,155.8,315.3,155.8,317.1z"/>
			<circle class="st32" cx="127.1" cy="333.7" r="5.1"/>
			<path class="st33" d="M132.6,276.3c-1,0.6-2.2,1.6-3.9,1.6c-2.4,0.1-5.5-2.2-5.5-2.2l0.7-3.7h2.6l4.6,0.3l0.8,0.5L132.6,276.3z"
				/>
			<path class="st32" d="M155.8,317.1v33.3c0,1.8-1.5,3.2-3.2,3.2h-51c-1.8,0-3.2-1.5-3.2-3.2c51.6,2.4,57.5-5.2,54.2-36.5
				C154.4,313.9,155.8,315.3,155.8,317.1z"/>
			<path class="st33" d="M94.4,342.9l-2.9,2.4c-4.3-3.7-6.8-8.3-7.8-11.7c-1.5-5.2,0.6-14.1,4.1-22.9c-0.4,1-4.9,13.8-1.7,21.6
				C89,339.2,93.4,341.9,94.4,342.9z"/>
			<path class="st33" d="M170.7,334.3c-0.5,2.5-1.9,5.6-4.4,8.3c-0.3,0.3-0.7,0.3-1,0.1l-3-1.9c1.6-2.7,3.9-4.9,5-9.1
				c2.9-11.3-4.5-27.6-4.9-28.6C167.8,314.1,172,327.3,170.7,334.3z"/>
			<path class="st26" d="M136.7,266.9c-1.3,6.6-5.1,9.4-8.8,9.2c-5-0.3-9.8-9.7-9.8-9.7s-4.5-2.2-3.6-4.2c1.2-2.5,2.1-1.5,5.2-1.5
				c4.7,0,8.5-8.5,8.5-10.6c1.9,4.7,4.7,7.9,8.9,8.8C137.3,262,137.2,264.7,136.7,266.9z"/>
			<g>
				<path class="st24" d="M126.4,262.3c0.1,0.7-0.2,1.2-0.7,1.3c-0.5,0.1-0.9-0.4-1-1.1c-0.1-0.7,0.2-1.2,0.7-1.3
					C125.9,261.2,126.4,261.6,126.4,262.3z"/>
				<path class="st24" d="M134.4,261.6c0.1,0.7-0.2,1.2-0.7,1.3c-0.5,0.1-0.9-0.4-1-1.1s0.2-1.2,0.7-1.3
					C133.8,260.4,134.3,260.9,134.4,261.6z"/>
				<path class="st11" d="M133.1,261.2c0-0.1,0.1-0.3,0.2-0.3c0.1,0,0.3,0.1,0.3,0.2s-0.1,0.3-0.2,0.3
					C133.2,261.5,133.1,261.4,133.1,261.2z"/>
				<path class="st11" d="M125.1,261.9c0-0.1,0.1-0.3,0.2-0.3c0.1,0,0.3,0.1,0.3,0.2c0,0.1-0.1,0.3-0.2,0.3S125.2,262,125.1,261.9z"
					/>
				<path class="st34" d="M130.4,264.4c-0.2-0.3-0.4-0.5-0.4-0.8c0-0.1-0.2-0.2-0.3-0.2c-0.2,0-0.2,0.2-0.2,0.3c0,0.6,0.6,1,0.8,1.6
					c0.2,0.6-0.3,1-0.8,1.2c-0.3,0.1-0.1,0.6,0.2,0.5c0.6-0.3,1.3-0.8,1.2-1.6C130.8,265,130.6,264.7,130.4,264.4z"/>
				<path class="st34" d="M132.4,264.4c-0.3,0-0.3,0.6,0.1,0.5C132.8,264.9,132.7,264.4,132.4,264.4z"/>
				<path class="st34" d="M133.9,264.1c0,0,0-0.1-0.1-0.1c0,0,0,0-0.1,0c0,0-0.1,0-0.1,0l0,0c0,0-0.1,0-0.1,0c0,0-0.1,0-0.1,0.1
					c0,0,0,0.1,0,0.1c0,0,0,0.1,0,0.1c0,0,0,0,0,0.1c0,0,0,0.1,0.1,0.1c0,0,0,0,0.1,0c0,0,0.1,0,0.1,0l0,0c0,0,0.1,0,0.1,0
					c0,0,0.1,0,0.1-0.1c0,0,0-0.1,0-0.1C133.9,264.3,133.9,264.2,133.9,264.1C133.9,264.2,133.9,264.2,133.9,264.1z"/>
				<path class="st34" d="M133.1,265.4c-0.3,0-0.3,0.6,0.1,0.5C133.5,265.9,133.4,265.4,133.1,265.4z"/>
				<path class="st34" d="M134.8,264.9C134.8,264.9,134.8,264.9,134.8,264.9c-0.1-0.1-0.1-0.1-0.2-0.1c0,0-0.1,0-0.1,0
					c0,0,0,0-0.1,0c0,0-0.1,0-0.1,0.1c0,0,0,0,0,0.1c0,0,0,0.1,0,0.1l0,0c0,0,0,0.1,0,0.1c0,0,0,0.1,0.1,0.1c0,0,0.1,0,0.1,0
					c0,0,0.1,0,0.1,0c0,0,0,0,0.1,0c0,0,0.1,0,0.1-0.1c0,0,0,0,0-0.1c0,0,0-0.1,0-0.1L134.8,264.9
					C134.9,265,134.8,264.9,134.8,264.9z"/>
				<path class="st34" d="M126.6,264.3c-0.3,0-0.3,0.6,0.1,0.5C127,264.7,126.9,264.2,126.6,264.3z"/>
				<path class="st34" d="M126.8,265.6c0,0,0-0.1-0.1-0.1c0,0,0,0,0,0c0,0-0.1,0-0.1,0c0,0-0.1,0-0.1,0c0,0-0.1,0-0.1,0
					c0,0-0.1,0-0.1,0.1c0,0,0,0,0,0.1c0,0,0,0.1,0,0.1c0,0,0,0,0,0.1c0,0,0,0.1,0.1,0.1l0,0c0,0,0.1,0,0.1,0c0,0,0.1,0,0.1,0
					c0,0,0.1,0,0.1,0c0,0,0.1,0,0.1-0.1c0,0,0,0,0-0.1C126.9,265.8,126.9,265.8,126.8,265.6C126.8,265.7,126.8,265.7,126.8,265.6z"
					/>
				<path class="st34" d="M127.9,265c0,0,0-0.1-0.1-0.1c0,0,0,0-0.1,0c0,0-0.1,0-0.1,0l0,0c0,0-0.1,0-0.1,0c0,0-0.1,0-0.1,0.1
					c0,0,0,0.1,0,0.1c0,0,0,0.1,0,0.1c0,0,0,0,0,0.1c0,0,0,0.1,0.1,0.1c0,0,0,0,0.1,0c0,0,0.1,0,0.1,0l0,0c0,0,0.1,0,0.1,0
					c0,0,0.1,0,0.1-0.1c0,0,0-0.1,0-0.1C128,265.2,128,265.1,127.9,265C127.9,265.1,127.9,265.1,127.9,265z"/>
				<path class="st34" d="M125.6,264.9c0,0,0-0.1-0.1-0.1c0,0,0,0-0.1,0c0,0-0.1,0-0.1,0l-0.1,0c0,0-0.1,0-0.1,0c0,0-0.1,0-0.1,0.1
					c0,0,0,0.1,0,0.1c0,0,0,0.1,0,0.1c0,0,0,0,0,0.1c0,0,0,0.1,0.1,0.1c0,0,0,0,0.1,0c0,0,0.1,0,0.1,0l0.1,0c0,0,0.1,0,0.1,0
					c0,0,0.1,0,0.1-0.1c0,0,0-0.1,0-0.1C125.6,265.1,125.6,265,125.6,264.9C125.6,265,125.6,265,125.6,264.9z"/>
				<path class="st24" d="M126.4,260.3c-0.3-0.4-0.7-0.6-1.2-0.6c-0.5,0-0.9,0.3-1.1,0.8c-0.1,0.1,0,0.3,0.1,0.3
					c0.1,0.1,0.3,0,0.3-0.1c0,0,0,0,0-0.1c0,0,0.1-0.1,0.1-0.1c0,0,0,0,0.1-0.1c0,0,0.1-0.1,0.1-0.1c0.1-0.1,0.3-0.1,0.4-0.1
					c0,0,0,0,0,0c0,0,0,0,0,0c0,0,0,0,0.1,0c0,0,0.1,0,0.1,0c0,0,0,0,0,0c0,0,0,0,0,0c0,0,0,0,0.1,0c0,0,0.1,0,0.1,0.1
					c0.1,0.1,0.2,0.2,0.3,0.3c0.1,0.1,0.3,0.1,0.4,0C126.5,260.5,126.5,260.4,126.4,260.3z"/>
				<path class="st24" d="M134.5,259.4c-0.3-0.4-0.7-0.6-1.2-0.5c-0.4,0.1-0.8,0.4-1,0.8c-0.1,0.1,0,0.3,0.1,0.3
					c0.1,0.1,0.3,0,0.3-0.1c0,0,0-0.1,0-0.1c0,0,0,0,0,0c0,0,0,0,0,0c0,0,0-0.1,0.1-0.1c0,0,0,0,0,0c0,0,0,0,0,0c0,0,0.1,0,0.1-0.1
					c0,0,0,0,0,0c0,0,0,0,0,0c0,0,0.1,0,0.1,0c0,0,0,0,0,0c0,0,0,0,0.1,0c0,0,0,0,0.1,0c0,0,0,0,0,0c0,0,0,0,0,0c0,0,0.1,0,0.1,0
					c0.1,0,0.1,0,0.2,0.1c0,0,0,0,0.1,0c0,0,0.1,0,0,0c0,0,0.1,0,0.1,0.1c0,0,0,0,0,0c0,0,0,0,0,0c0,0,0.1,0.1,0.1,0.1
					c0.1,0.1,0.3,0.1,0.4,0C134.6,259.7,134.6,259.5,134.5,259.4z"/>
				<g>
					<g>
						<path class="st35" d="M126,269.5c-0.1,0.7,0.1,1.3,0.4,1.8c0.4,0.6,1,1,1.8,1.1c0.8,0.2,1.6-0.1,2.2-0.5
							c0.5-0.4,0.8-0.9,0.9-1.5c0.2-1.4-1.7-0.5-2.7-0.6C127.9,269.6,126.3,268.1,126,269.5z"/>
					</g>
					<g>
						<path class="st36" d="M126.5,271.3c0.4,0.6,1,1,1.8,1.1c0.8,0.2,1.6-0.1,2.2-0.5c-0.3-0.5-1-0.9-1.8-1
							C127.8,270.7,126.9,270.9,126.5,271.3z"/>
					</g>
				</g>
			</g>
		</g>
		<g>
			<g>
				<path class="st11" d="M282.8,102.6c-6,0.6-8.1,29.2-4.8,63.9c3.4,34.7,11,62.4,17,61.8s8.1-29.2,4.8-63.9S288.8,102,282.8,102.6
					z M294.9,226.3c-1.7,0.2-4.7-4-8.1-16.3c-3.2-11.5-5.8-27-7.4-43.6s-2-32.3-1.1-44.3c0.9-12.7,3.1-17.4,4.8-17.6s4.7,4,8.1,16.3
					c3.2,11.5,5.8,27,7.4,43.6s2,32.3,1.1,44.3C298.7,221.4,296.6,226.1,294.9,226.3z"/>
				<path class="st37" d="M294.9,226.3c-1.7,0.2-4.7-4-8.1-16.3c-3.2-11.5-5.8-27-7.4-43.6s-2-32.3-1.1-44.3
					c0.9-12.7,3.1-17.4,4.8-17.6s4.7,4,8.1,16.3c3.2,11.5,5.8,27,7.4,43.6s2,32.3,1.1,44.3C298.7,221.4,296.6,226.1,294.9,226.3z"/>
				<g>
					<path class="st38" d="M278.1,166.8c-3.3-34.4-1.3-62.8,4.6-63.9l-0.1-0.7l-11.7,11.4c-16.1,15.7-34.8,28.2-55.2,36.8l-9.4,4
						c-13.6,9.3-11.5,31.2,3.7,37.7l12.6,2.1c18.6,3.1,36.5,10.3,52.5,21.1l16.9,11.4C286.7,219.8,280.9,195.8,278.1,166.8z"/>
					<path class="st39" d="M294.9,228.6L294.9,228.6L294.9,228.6C294.9,228.6,294.9,228.6,294.9,228.6z"/>
				</g>
				<path class="st40" d="M212.2,241l-4.7,0.5l-4.1,0.4l-0.4,0c-0.6,0.1-1.1-0.2-1.6-0.8c-0.3-0.3-0.5-0.8-0.7-1.2
					c-0.8-2.4-2.1-7-3.5-14c-0.8-4.1-1.7-9-2.4-14.8c-0.3-2.4-0.6-4.9-0.9-7.6l10.7-1c0,0,0.6,3.1,1.6,7.5c1.7,7.5,4.4,19,7.5,26.2
					C214.5,238.3,213.7,240.9,212.2,241z"/>
				<path class="st41" d="M206.2,210l-11.4,1.1c-0.3-2.4-0.6-4.9-0.9-7.6l10.7-1C204.6,202.5,205.2,205.6,206.2,210z"/>
				
					<rect x="189.2" y="192" transform="matrix(0.9953 -9.674212e-02 9.674212e-02 0.9953 -18.358 20.1764)" class="st40" width="19.4" height="14.7"/>
				
					<rect x="188.9" y="192.1" transform="matrix(0.9953 -9.674227e-02 9.674227e-02 0.9953 -18.0099 20.1255)" class="st41" width="19.4" height="7.5"/>
				<path class="st40" d="M293.6,182.7l-10.7,1l-3.4-35.2l10.7-1c2.4-0.2,4.5,1.5,4.7,3.9l2.6,26.6
					C297.7,180.4,296,182.5,293.6,182.7z"/>
				<path class="st40" d="M198.5,151.4c-11.7,1.1-20.6,10.2-21.4,21.1l-1.1,0.1c-0.7,0.1-1.3,0.5-1.6,1.3c-0.4,0.7-0.6,1.7-0.5,2.7
					c0.2,2.1,1.5,3.6,2.8,3.5l1.1-0.1c2.9,10.5,13.4,17.7,25.1,16.6l19.7-1.9l-4.4-45.2L198.5,151.4z"/>
				<path class="st41" d="M176.7,172.6l0.7,7.4l-0.8,0.1c-1.4,0.1-2.6-1.4-2.8-3.5c-0.1-1,0.1-2,0.5-2.7c0.4-0.7,1-1.2,1.6-1.3
					L176.7,172.6z"/>
			</g>
			<g>
				<g class="st42">
					<path d="M285.5,208.8h-23.8c-3.8,0-6.8,3-6.8,6.8v20.4c0,3.8,3,6.8,6.8,6.8h23.8c3.8,0,6.8-3,6.8-6.8v-20.4
						C292.2,211.8,289.2,208.8,285.5,208.8z"/>
				</g>
				<path class="st43" d="M274.2,242.7h-3.4c-9.4,0-17-7.6-17-17v0c0-9.4,7.6-17,17-17h3.4c9.4,0,17,7.6,17,17v0
					C291.2,235.1,283.6,242.7,274.2,242.7z"/>
				<g>
					<g>
						<polygon class="st11" points="281,225.7 264,235.5 264,216 						"/>
					</g>
				</g>
			</g>
			<g>
				<g class="st42">
					<path d="M256,228.4h-11.1c-1.3,0-2.4,1.1-2.4,2.4v9.6c0,1.3,1.1,2.4,2.4,2.4H256c1.3,0,2.4-1.1,2.4-2.4v-9.6
						C258.5,229.5,257.4,228.4,256,228.4z"/>
				</g>
				<path class="st37" d="M250.7,242.9h-1.5c-4,0-7.3-3.2-7.3-7.3v0c0-4,3.2-7.3,7.3-7.3h1.5c4,0,7.3,3.2,7.3,7.3v0
					C258,239.7,254.7,242.9,250.7,242.9z"/>
				<g>
					<g>
						<g>
							<path class="st11" d="M245.4,234.3v4.9h2.9v-4.9H245.4z M247.5,238.7c-0.2,0-0.4-0.2-0.4-0.4c0-0.2,0.2-0.4,0.4-0.4
								s0.4,0.2,0.4,0.4C247.9,238.6,247.7,238.7,247.5,238.7z"/>
							<path class="st11" d="M249,234.9v3.8c0,0,0.5-0.1,1,0.4c0,0,0,0,0,0.1c0,0.1,0.3,0.4,1.1,0.4h2.1c0,0,0,0,0.1,0
								c0.1,0,0.6-0.2,0.6-0.8c0-0.1,0.1-0.2,0.1-0.3c0.2-0.1,0.5-0.4,0.3-1.2c0-0.1,0-0.2,0-0.3c0.2-0.2,0.5-0.8,0.1-1.2
								c-0.1-0.1-0.1-0.2-0.1-0.3c0.1-0.3,0.1-0.9-0.6-1c0,0,0,0-0.1,0h-1.3c-0.2,0-0.3-0.2-0.3-0.4c0.1-0.9,0.3-3.2-0.8-2.3
								c-0.1,0-0.1,0.1-0.1,0.2C251.1,232.6,250.6,234.8,249,234.9z"/>
						</g>
					</g>
				</g>
			</g>
			<g>
				<g class="st42">
					<path d="M301,221.8h-14.8c-2.3,0-4.2,1.9-4.2,4.2v12.7c0,2.3,1.9,4.2,4.2,4.2H301c2.3,0,4.2-1.9,4.2-4.2V226
						C305.2,223.7,303.3,221.8,301,221.8z"/>
				</g>
				<path class="st40" d="M295.6,242.9h-2.1c-5.8,0-10.6-4.7-10.6-10.6v0c0-5.8,4.7-10.6,10.6-10.6h2.1c5.8,0,10.6,4.7,10.6,10.6v0
					C306.1,238.2,301.4,242.9,295.6,242.9z"/>
				<g>
					<g>
						<g>
							<path class="st11" d="M301.7,227.9v8.9c0,0.2-0.1,0.3-0.2,0.5c-0.1,0.1-0.2,0.2-0.3,0.3c-0.1,0-0.2,0.1-0.3,0.1h-12.8
								c-0.1,0-0.2,0-0.3-0.1c-0.1-0.1-0.3-0.2-0.3-0.3c-0.1-0.1-0.2-0.3-0.2-0.5v-8.9c0-0.1,0-0.3,0.1-0.4c0.1-0.1,0.2-0.2,0.3-0.3
								c0.1-0.1,0.3-0.1,0.4-0.1h12.8c0.2,0,0.3,0,0.4,0.1c0.1,0.1,0.2,0.2,0.3,0.3C301.7,227.6,301.7,227.8,301.7,227.9z"/>
						</g>
						<g>
							<path class="st40" d="M301.6,227.5l-6.1,5.3l-0.3,0.3l-0.1,0.1c-0.1,0.1-0.3,0.2-0.5,0.2s-0.4-0.1-0.5-0.2l-0.1-0.1l-0.3-0.3
								l-6.1-5.3c0.1-0.1,0.2-0.2,0.3-0.3l6.2,5.4l0.3,0.3l0.1,0.1c0.1,0.1,0.3,0.1,0.5,0l0.1-0.1l0.3-0.3l6.2-5.4
								C301.5,227.3,301.6,227.4,301.6,227.5z"/>
						</g>
						<g>
							<path class="st40" d="M294.2,232.9l-0.4,0.3l-6,4.4c-0.1-0.1-0.3-0.2-0.3-0.3l6.1-4.4l0.4-0.3L294.2,232.9z"/>
							<path class="st40" d="M301.6,237.3c-0.1,0.1-0.2,0.2-0.3,0.3l-6-4.4l-0.4-0.3l0.3-0.3l0.4,0.3L301.6,237.3z"/>
						</g>
					</g>
				</g>
			</g>
			<path class="st42" d="M210.3,234.9C210.3,234.9,210.3,234.9,210.3,234.9c0,0.1,0,0.1,0,0.1c0,0,0,0,0,0.1c0,0,0,0,0,0.1
				c0,0,0,0,0,0.1c0,0,0,0.1,0,0.1c0,0,0,0,0,0.1c0,0,0,0.1,0,0.1c0,0,0,0,0,0.1c0,0,0,0.1,0,0.1c0,0,0,0,0,0.1c0,0,0,0.1,0,0.1
				c0,0,0,0,0,0c0,0,0,0.1,0,0.1l-1,3.8c0,0,0,0.1,0,0.1c0,0,0,0,0,0c0,0,0,0.1,0,0.1c0,0,0,0,0,0.1c0,0,0,0.1,0,0.1c0,0,0,0,0,0.1
				c0,0,0,0,0,0.1c0,0,0,0,0,0.1c0,0,0,0,0,0.1c0,0,0,0,0,0.1c0,0,0,0,0,0.1c0,0,0,0,0,0.1c0,0,0,0,0,0.1c0,0,0,0,0,0.1
				c0,0,0,0,0,0.1c0,0,0,0,0,0c0,0,0,0,0,0.1c0,0,0,0,0,0c0,0,0,0,0,0c0,0,0,0,0,0c0,0,0,0,0,0c0,0,0,0-0.1,0.1c0,0,0,0,0,0
				c0,0,0,0-0.1,0.1c0,0,0,0,0,0c0,0-0.1,0.1-0.1,0.1c0,0,0,0,0,0c0,0-0.1,0-0.1,0.1c0,0,0,0,0,0c0,0,0,0-0.1,0.1c0,0,0,0,0,0
				c0,0,0,0-0.1,0c0,0,0,0,0,0c0,0,0,0,0,0c-0.1,0-0.1,0.1-0.2,0.1c0,0,0,0,0,0c-0.1,0-0.1,0.1-0.2,0.1c0,0,0,0,0,0
				c-0.1,0-0.1,0.1-0.2,0.1c0,0,0,0,0,0c-0.1,0-0.1,0-0.2,0.1c0,0,0,0,0,0c-0.1,0-0.1,0-0.2,0c0,0,0,0,0,0c-0.1,0-0.1,0-0.2,0l0,0
				c-0.1,0-0.1,0-0.2,0c0,0,0,0,0,0c-0.1,0-0.2,0-0.2,0c0,0-0.1,0-0.1,0c-0.1,0-0.3,0-0.4-0.1l-0.9-0.2l-2-0.6
				c-0.3-0.3-0.6-0.7-0.8-1.2c-1-2.3-2.6-6.8-4.6-13.7c1.7,1.3,3.3,2.8,4.6,4.4l0,0l0.8,0.2l0.6,0.2l4.9,1.3
				c0.2,0.1,0.4,0.1,0.6,0.2c0.6,0.3,1,0.8,1.3,1.3c0,0,0,0,0,0c0,0,0,0,0,0.1c0,0,0,0,0,0c0,0,0,0.1,0,0.1c0,0,0,0,0,0
				c0,0,0,0.1,0,0.1c0,0,0,0,0,0c0,0,0,0.1,0,0.1c0,0,0,0,0,0c0,0,0,0.1,0,0.1c0,0,0,0,0,0.1c0,0,0,0,0,0.1c0,0,0,0,0,0.1
				c0,0,0,0,0,0.1c0,0,0,0,0,0.1c0,0,0,0,0,0.1C210.3,234.8,210.3,234.8,210.3,234.9C210.3,234.8,210.3,234.9,210.3,234.9z"/>
			<g>
				<g>
					<path class="st44" d="M189.3,223.1c4,1.1,11.2,6.6,12.9,11.1c0.4,1.2-0.8,1.4-1.1,2.5c-0.2,1.1-1,2.5-2.2,3.2
						c-4.1,2.4-10.8,3-14.7,2c-5-1.3-7.9-6.6-6.5-11.8C179.1,224.9,184.3,221.8,189.3,223.1z"/>
					<path class="st11" d="M184.8,240.5c-0.3,0-0.5-0.1-0.8-0.2c-0.3-0.1-0.5-0.2-0.8-0.3c0,0-0.1,0-0.1,0l-0.1,0
						c-0.1,0-0.1-0.1-0.2-0.1c-0.1,0-0.1-0.1-0.2-0.1c-0.1,0-0.1-0.1-0.2-0.1c-0.2-0.1-0.5-0.3-0.7-0.5c-0.5-0.3-0.9-0.7-1.2-1.1
						c-0.4-0.4-0.7-0.9-1-1.4c-0.5-1-0.9-2.1-0.9-3.2c0-0.3,0-0.6,0-0.8l0-0.1l0-0.1l0-0.1c0,0,0-0.1,0-0.1l0-0.1c0,0,0-0.1,0-0.1
						l0-0.1c0,0,0-0.1,0-0.1c0-0.1,0-0.1,0-0.2c0-0.1,0-0.1,0-0.2c0-0.1,0-0.1,0-0.2c0,0,0-0.1,0-0.1l0-0.1l0,0
						c0.1-0.3,0.2-0.5,0.3-0.8c0,0.3-0.1,0.5-0.1,0.8c0,0.1,0,0.3,0,0.4c0,0.1,0,0.1,0,0.2c0,0.1,0,0.1,0,0.2c0,0,0,0.1,0,0.1l0,0.1
						c0,0,0,0.1,0,0.1l0,0.1l0,0.1l0,0.1l0,0.1l0,0.1c0,0.3,0.1,0.5,0.1,0.8c0.1,0.5,0.2,1,0.4,1.5c0.2,0.5,0.4,1,0.6,1.4
						c0.2,0.5,0.5,0.9,0.9,1.3c0.3,0.4,0.7,0.8,1.1,1.1c0.2,0.2,0.4,0.3,0.6,0.5c0.1,0,0.1,0.1,0.2,0.1l0.2,0.1
						c0.1,0,0.1,0.1,0.2,0.1l0.2,0.1c0.2,0.1,0.5,0.3,0.7,0.4C184.3,240.3,184.5,240.4,184.8,240.5z"/>
				</g>
				<g>
					<path class="st45" d="M201.8,234.6l-0.1,0.2l-7.3-2c0.3,1.6-0.1,3-0.2,3c-0.1,0.2-0.1,0.4-0.2,0.6l6.3,1.7l-0.1,0.2l-6.3-1.7
						c-0.2,0.5-0.5,0.8-0.8,0.9c-0.2,0.1-0.4,0.1-0.6,0c-0.5-0.2-0.6-0.6-0.5-0.9c0.1-0.3,0.5-0.6,1-0.5l0.8,0.2
						c0.1-0.2,0.1-0.4,0.2-0.6c0,0,0.4-1.4,0.1-3l-3.3-0.9c-0.5-0.1-0.8-0.4-1-0.8c-0.1-0.3-0.1-0.7,0.1-1c0.2-0.3,0.5-0.6,0.9-0.7
						c0.4-0.1,0.9-0.1,1.3,0.2c1.3,0.8,2,1.9,2.2,3L201.8,234.6z M192.3,236.8c-0.1,0.2,0,0.5,0.3,0.6c0.2,0.1,0.3,0.1,0.4,0
						c0.2-0.1,0.4-0.3,0.6-0.7l-0.7-0.2C192.6,236.3,192.4,236.5,192.3,236.8C192.3,236.8,192.3,236.8,192.3,236.8z M190.1,230.5
						c0,0.2,0,0.4,0,0.5c0.1,0.3,0.4,0.6,0.8,0.7l3.1,0.8c-0.3-1-0.8-2-2-2.7c-0.3-0.2-0.7-0.3-1.1-0.2c-0.3,0.1-0.6,0.3-0.7,0.6
						C190.1,230.3,190.1,230.4,190.1,230.5z"/>
				</g>
				<g>
					<path class="st46" d="M200.2,231l6.4,1.7c0.2,0.1,0.4,0.1,0.6,0.2c1.3,0.6,2,2.1,1.6,3.5l-1,3.8c-0.2,0.8-0.7,1.4-1.3,1.8
						c-0.5,0.3-1.2,0.5-1.8,0.5c-0.2,0-0.4,0-0.6-0.1l-6.4-1.7L200.2,231z"/>
					<g class="st47">
						
							<rect x="195.1" y="235.7" transform="matrix(0.2601 -0.9656 0.9656 0.2601 -79.9528 367.905)" class="st11" width="10" height="0.8"/>
						
							<rect x="196.9" y="236.2" transform="matrix(0.2601 -0.9656 0.9656 0.2601 -79.0966 369.9839)" class="st11" width="10" height="0.8"/>
						
							<rect x="198.7" y="236.7" transform="matrix(0.2601 -0.9656 0.9656 0.2601 -78.2404 372.0627)" class="st11" width="10" height="0.8"/>
						<path class="st11" d="M206.4,232.6l0.2,0c0.2,0.1,0.4,0.1,0.6,0.2l-2.6,9.5c-0.2,0-0.4,0-0.6-0.1l-0.2,0L206.4,232.6z"/>
					</g>
					<path class="st42" d="M197.6,240.6l6.4,1.7c0.2,0.1,0.4,0.1,0.6,0.1c1.4,0.1,2.7-0.8,3.1-2.2l1-3.8c0.2-0.8,0.1-1.5-0.2-2.2
						c0,1.5-0.4,2.8-0.9,3.7c-0.9,1.6-2.6,2.6-4.5,2.3c-1.8-0.2-3.7-0.9-5-1.4L197.6,240.6z"/>
				</g>
			</g>
		</g>
		<g>
			<path class="st48" d="M132,164.6h-6.1c-16.9,0-30.5-13.7-30.5-30.5v0c0-16.9,13.7-30.5,30.5-30.5h6.1c16.9,0,30.5,13.7,30.5,30.5
				v0C162.5,150.9,148.9,164.6,132,164.6z"/>
			<g>
				<g>
					<g>
						<g>
							<circle class="st37" cx="128.5" cy="134" r="24"/>
							<path class="st11" d="M128.5,154.9c-5.6,0-10.8-2.2-14.8-6.1c-3.9-3.9-6.1-9.2-6.1-14.8c0-5.6,2.2-10.8,6.1-14.8
								c3.9-3.9,9.2-6.1,14.8-6.1c5.6,0,10.8,2.2,14.8,6.1c3.9,3.9,6.1,9.2,6.1,14.8c0,5.6-2.2,10.8-6.1,14.8
								C139.3,152.7,134.1,154.9,128.5,154.9z"/>
							<path class="st37" d="M128.5,151.8c-4.7,0-9.2-1.8-12.5-5.2c-3.3-3.3-5.2-7.8-5.2-12.5c0-4.7,1.8-9.2,5.2-12.5
								c3.3-3.3,7.8-5.2,12.5-5.2c4.7,0,9.2,1.8,12.5,5.2c3.3,3.3,5.2,7.8,5.2,12.5c0,4.7-1.8,9.2-5.2,12.5
								C137.7,149.9,133.2,151.8,128.5,151.8z"/>
							<path class="st11" d="M128.5,148.7c-3.9,0-7.6-1.5-10.3-4.3c-2.8-2.8-4.3-6.4-4.3-10.3c0-3.9,1.5-7.6,4.3-10.3
								c2.8-2.8,6.4-4.3,10.3-4.3c3.9,0,7.6,1.5,10.3,4.3s4.3,6.4,4.3,10.3c0,3.9-1.5,7.6-4.3,10.3
								C136.1,147.1,132.4,148.7,128.5,148.7z"/>
							<path class="st37" d="M128.5,145.5c-3.1,0-5.9-1.2-8.1-3.4c-2.2-2.2-3.4-5.1-3.4-8.1s1.2-5.9,3.4-8.1
								c2.2-2.2,5.1-3.4,8.1-3.4c3.1,0,5.9,1.2,8.1,3.4c2.2,2.2,3.4,5.1,3.4,8.1s-1.2,5.9-3.4,8.1
								C134.5,144.3,131.6,145.5,128.5,145.5z"/>
							<path class="st11" d="M128.5,142.4c-2.2,0-4.3-0.9-5.9-2.4c-1.6-1.6-2.4-3.7-2.4-5.9c0-2.2,0.9-4.3,2.4-5.9
								c1.6-1.6,3.7-2.4,5.9-2.4c2.2,0,4.3,0.9,5.9,2.4c1.6,1.6,2.4,3.7,2.4,5.9c0,2.2-0.9,4.3-2.4,5.9
								C132.8,141.5,130.7,142.4,128.5,142.4z"/>
							<path class="st37" d="M128.5,139.3c-1.4,0-2.7-0.5-3.7-1.5c-1-1-1.5-2.3-1.5-3.7c0-1.4,0.5-2.7,1.5-3.7c1-1,2.3-1.5,3.7-1.5
								c1.4,0,2.7,0.5,3.7,1.5c1,1,1.5,2.3,1.5,3.7c0,1.4-0.5,2.7-1.5,3.7C131.2,138.7,129.9,139.3,128.5,139.3z"/>
							<path class="st11" d="M128.5,136.1c-0.6,0-1.1-0.2-1.5-0.6c-0.4-0.4-0.6-0.9-0.6-1.5c0-0.6,0.2-1.1,0.6-1.5
								c0.4-0.4,0.9-0.6,1.5-0.6c0.6,0,1.1,0.2,1.5,0.6c0.4,0.4,0.6,0.9,0.6,1.5c0,0.6-0.2,1.1-0.6,1.5
								C129.6,135.9,129.1,136.1,128.5,136.1z"/>
						</g>
					</g>
					<g>
						<g>
							<line class="st49" x1="129.1" y1="133.5" x2="149.5" y2="120"/>
							<g>
								<path class="st50" d="M129.2,133.4c0.1-0.6-0.2-1.4-0.5-1.9c-0.1,1-0.3,2-0.9,2.8c1-0.2,2,0,2.9,0.3
									C130.4,134.1,129.8,133.6,129.2,133.4z"/>
							</g>
							<g>
								<g>
									<polygon class="st50" points="151.2,120.7 151.1,120.7 149.4,120.3 152.4,118.4 154.2,118.7 									"/>
									<path class="st50" d="M152.6,116.3l-0.4,1.7l-3,2c0.2-0.5,0.3-1.1,0.4-1.7L152.6,116.3z"/>
								</g>
							</g>
						</g>
					</g>
				</g>
			</g>
		</g>
		<g>
			<path class="st48" d="M132.5,230.3l-5.9,0.1c-16.4,0.3-29.9-12.7-30.3-29.1v0C96,185,109,171.4,125.4,171.1l5.9-0.1
				c16.4-0.3,29.9,12.7,30.3,29.1v0C161.9,216.4,148.9,230,132.5,230.3z"/>
			<g>
				<path class="st40" d="M126.6,202l16.7-16.7c2.1,2.2,3.8,4.7,5,7.5c1.2,2.9,1.9,6,1.9,9.2H126.6z"/>
				<path class="st37" d="M126.1,181c2.8,0,5.4,0.6,7.9,1.7c2.4,1,4.6,2.5,6.5,4.3l-14.5,14.5V181z"/>
				<g>
					<path class="st11" d="M125.8,220.4c-4.8,0-9.4-1.9-12.8-5.3c-3.4-3.4-5.3-8-5.3-12.8s1.9-9.4,5.3-12.8
						c3.3-3.3,7.8-5.2,12.5-5.3v18.4h18.4c-0.1,4.7-2,9.1-5.3,12.5C135.2,218.5,130.7,220.4,125.8,220.4z"/>
				</g>
			</g>
		</g>
	</g>
</g>
</svg>
