<?xml version="1.0" encoding="UTF-8"?>
<svg id="Layer_1" xmlns="http://www.w3.org/2000/svg" xmlns:xlink="http://www.w3.org/1999/xlink" version="1.1" viewBox="0 0 96 96">
  <!-- Generator: Adobe Illustrator 29.2.1, SVG Export Plug-In . SVG Version: 2.1.0 Build 116)  -->
  <defs>
    <style>
      .st0 {
        fill: none;
      }

      .st1 {
        mask: url(#mask);
      }

      .st2 {
        fill: #9df3f9;
      }

      .st2, .st3, .st4, .st5, .st6, .st7 {
        fill-rule: evenodd;
      }

      .st8 {
        fill: url(#linear-gradient1);
      }

      .st9 {
        fill: url(#linear-gradient3);
      }

      .st10, .st7 {
        fill-opacity: .3;
      }

      .st11, .st5 {
        fill-opacity: .2;
      }

      .st12 {
        fill: url(#linear-gradient);
      }

      .st3 {
        fill: #82ebf1;
      }

      .st4 {
        fill: #8df7db;
      }

      .st6 {
        fill: url(#linear-gradient2);
      }

      .st13 {
        clip-path: url(#clippath);
      }
    </style>
    <clipPath id="clippath">
      <rect class="st0" width="96" height="96"/>
    </clipPath>
    <mask id="mask" x="0" y="0" width="96" height="96" maskUnits="userSpaceOnUse">
      <g id="mask0">
        <path class="st4" d="M0,48c0,4.3,2.9,7.8,6.9,8.8,3.4,16.2,16.2,28.9,32.3,32.3.9,4,4.5,6.9,8.8,6.9s7.8-2.9,8.8-6.9c16.2-3.4,28.9-16.2,32.3-32.3,4-.9,6.9-4.5,6.9-8.8s-2.9-7.8-6.9-8.8c-3.4-16.2-16.2-28.9-32.3-32.3-.9-4-4.5-6.9-8.8-6.9s-7.8,2.9-8.8,6.9C23.1,10.3,10.3,23.1,6.9,39.2c-4,.9-6.9,4.5-6.9,8.8Z"/>
      </g>
    </mask>
    <linearGradient id="linear-gradient" x1="22.9" y1="86.8" x2="72.9" y2="13.5" gradientTransform="translate(0 98) scale(1 -1)" gradientUnits="userSpaceOnUse">
      <stop offset="0" stop-color="#009ca8"/>
      <stop offset="1" stop-color="#007d85"/>
    </linearGradient>
    <linearGradient id="linear-gradient1" x1="34.1" y1="73.1" x2="68.5" y2="16" gradientTransform="translate(0 98) scale(1 -1)" gradientUnits="userSpaceOnUse">
      <stop offset="0" stop-color="#36e3ee"/>
      <stop offset="1" stop-color="#00b1be"/>
    </linearGradient>
    <linearGradient id="linear-gradient2" x1="30.8" y1="73.7" x2="75" y2="34.1" gradientTransform="translate(0 98) scale(1 -1)" gradientUnits="userSpaceOnUse">
      <stop offset="0" stop-color="#d2f6f9"/>
      <stop offset="1" stop-color="#82ebf1"/>
      <stop offset="1" stop-color="#82ebf1"/>
    </linearGradient>
    <linearGradient id="linear-gradient3" x1="96.8" y1="46.5" x2="72.1" y2="55.3" gradientTransform="translate(0 98) scale(1 -1)" gradientUnits="userSpaceOnUse">
      <stop offset="0" stop-color="#9aeef3"/>
      <stop offset="1" stop-color="#82ebf1"/>
    </linearGradient>
  </defs>
  <g class="st13">
    <g class="st1">
      <g>
        <circle class="st12" cx="48" cy="48" r="48"/>
        <path class="st2" d="M52,17.1c3-1.5,5-4.5,5-8.1S53,0,48,0s-9,4-9,9,2,6.6,5,8.1v5.9h8v-5.9Z"/>
        <path class="st3" d="M44,78.9c-3,1.5-5,4.5-5,8.1s4,9,9,9,9-4,9-9-2-6.6-5-8.1v-5.9h-8v5.9Z"/>
        <path class="st2" d="M17.1,44c-1.5-3-4.5-5-8.1-5S0,43,0,48s4,9,9,9,6.6-2,8.1-5h5.9v-8h-5.9Z"/>
        <g>
          <circle class="st10" cx="48" cy="50" r="26"/>
          <path class="st7" d="M59.3,54c-1.6,4.7-6.1,8-11.3,8s-12-5.4-12-12,5.4-12,12-12,9.7,3.3,11.3,8h20.7v8h-20.7Z"/>
          <path class="st10" d="M87,59c-5,0-9-4-9-9s4-9,9-9,9,4,9,9-4,9-9,9Z"/>
        </g>
        <g>
          <circle class="st11" cx="48" cy="48.4" r="26"/>
          <path class="st5" d="M59.3,52.4c-1.6,4.7-6.1,8-11.3,8s-12-5.4-12-12,5.4-12,12-12,9.7,3.3,11.3,8h20.7v8h-20.7Z"/>
          <path class="st11" d="M87,57.4c-5,0-9-4-9-9s4-9,9-9,9,4,9,9-4,9-9,9Z"/>
        </g>
        <circle class="st8" cx="48" cy="48" r="26"/>
        <path class="st6" d="M59.3,52c-1.6,4.7-6.1,8-11.3,8s-12-5.4-12-12,5.4-12,12-12,9.7,3.3,11.3,8h20.7v8h-20.7Z"/>
        <path class="st9" d="M87,57c-5,0-9-4-9-9s4-9,9-9,9,4,9,9-4,9-9,9Z"/>
      </g>
    </g>
  </g>
</svg>