<svg width="24" height="33" viewBox="0 0 24 33" fill="none" xmlns="http://www.w3.org/2000/svg">
<path d="M14.9999 0H2.25021C1.0125 0 0.00012207 1.01247 0.00012207 2.25007V30.7499C0.00012207 31.9879 1.0126 33 2.25021 33H21.7499C22.9879 33 24 31.9878 24 30.7499V9.0002L18.7502 5.25007L14.9999 0Z" fill="#0F9C57"/>
<path d="M6.00006 16.125V27.0005H18.0005V16.125H6.00006ZM11.2503 25.5001H7.50002V23.6252H11.2503V25.5001ZM11.2503 22.5003H7.50002V20.6247H11.2503V22.5003ZM11.2503 19.4996H7.50002V17.625H11.2503V19.4996ZM16.5003 25.5001H12.7497V23.6252H16.5003V25.5001ZM16.5003 22.5003H12.7497V20.6247H16.5003V22.5003ZM16.5003 19.4996H12.7497V17.625H16.5003V19.4996Z" fill="#F0F0F0"/>
<mask id="mask0_139_3116" style="mask-type:luminance" maskUnits="userSpaceOnUse" x="15" y="8" width="10" height="11">
<path d="M15.6436 8.3269H24.0148V18.1343H15.6436V8.3269Z" fill="url(#paint0_linear_139_3116)"/>
</mask>
<g mask="url(#mask0_139_3116)">
<path d="M15.6584 8.3418L24 16.6821V9.00015L15.6584 8.3418Z" fill="url(#paint1_linear_139_3116)"/>
</g>
<path d="M14.9999 0V6.75022C14.9999 7.99337 16.007 9.0002 17.2499 9.0002H24L14.9999 0Z" fill="#87CDAC"/>
<path d="M2.25008 0C1.01238 0 0 1.01247 0 2.25017V2.43758C0 1.20018 1.01248 0.187506 2.25008 0.187506H14.9998V9.90001e-05H2.25008V0Z" fill="white" fill-opacity="0.2"/>
<path d="M21.7498 32.8128H2.25008C1.01238 32.8128 0 31.8 0 30.5627V30.7499C0 31.9879 1.01248 32.9999 2.25008 32.9999H21.7498C22.9878 32.9999 23.9999 31.9878 23.9999 30.7499V30.5627C23.9999 31.8001 22.9877 32.8128 21.7498 32.8128Z" fill="#263138" fill-opacity="0.2"/>
<path d="M17.2497 9.00022C16.0069 9.00022 14.9998 7.99339 14.9998 6.75024V6.93765C14.9998 8.1808 16.0069 9.18763 17.2497 9.18763H23.9999V9.00022H17.2497Z" fill="#263138" fill-opacity="0.102"/>
<mask id="mask1_139_3116" style="mask-type:luminance" maskUnits="userSpaceOnUse" x="-1" y="-1" width="26" height="35">
<path d="M-0.0148315 -0.0148926H24.0149V33.0148H-0.0148315V-0.0148926Z" fill="url(#paint2_radial_139_3116)"/>
</mask>
<g mask="url(#mask1_139_3116)">
<path d="M14.9999 0H2.25021C1.0125 0 0.00012207 1.01247 0.00012207 2.25017V30.7499C0.00012207 31.9879 1.0126 33 2.25021 33H21.7499C22.9879 33 24 31.9878 24 30.7499V9.0002L14.9999 0Z" fill="url(#paint3_radial_139_3116)"/>
</g>
<defs>
<linearGradient id="paint0_linear_139_3116" x1="19.8292" y1="9.02622" x2="19.8292" y2="17.4351" gradientUnits="userSpaceOnUse">
<stop stop-color="white" stop-opacity="0.02"/>
<stop offset="1" stop-color="white" stop-opacity="0.2"/>
</linearGradient>
<linearGradient id="paint1_linear_139_3116" x1="19.8292" y1="9.41735" x2="19.8292" y2="17.044" gradientUnits="userSpaceOnUse">
<stop stop-color="#263138"/>
<stop offset="1" stop-color="#263138"/>
</linearGradient>
<radialGradient id="paint2_radial_139_3116" cx="0" cy="0" r="1" gradientUnits="userSpaceOnUse" gradientTransform="scale(0)">
<stop stop-color="white" stop-opacity="0"/>
<stop offset="1" stop-color="white" stop-opacity="0.098"/>
</radialGradient>
<radialGradient id="paint3_radial_139_3116" cx="0" cy="0" r="1" gradientUnits="userSpaceOnUse" gradientTransform="translate(0.960016 0.99004) scale(16.5001 16.5)">
<stop stop-color="white"/>
<stop offset="1" stop-color="white"/>
</radialGradient>
</defs>
</svg>
