<svg width="461" height="308" viewBox="0 0 461 308" fill="none" xmlns="http://www.w3.org/2000/svg">
<g filter="url(#filter0_d_359_27679)">
<rect x="25" y="167" width="199.478" height="111.128" rx="15" fill="white"/>
<g clip-path="url(#clip0_359_27679)">
<path d="M65.904 215.833C65.904 218.667 63.58 221 60.758 221C57.936 221 55.612 218.667 55.612 215.833C55.612 213 57.936 210.667 60.758 210.667C63.58 210.667 65.904 213 65.904 215.833ZM60.758 223C57.936 223 55.612 225.333 55.612 228.167C55.612 231 57.936 233.333 60.758 233.333C63.58 233.333 65.904 231 65.904 228.167C65.904 225.333 63.58 223 60.758 223ZM91.8 222C91.8 235.833 80.678 247 66.9 247C53.122 247 42 235.833 42 222C42 208.167 53.122 197 66.9 197C80.678 197 91.8 208.167 91.8 222ZM85.16 222C85.16 211.833 77.026 203.667 66.9 203.667C56.774 203.667 48.64 211.833 48.64 222C48.64 232.167 56.774 240.333 66.9 240.333C77.026 240.333 85.16 232.167 85.16 222ZM73.042 223C70.22 223 67.896 225.333 67.896 228.167C67.896 231 70.22 233.333 73.042 233.333C75.864 233.333 78.188 231 78.188 228.167C78.188 225.333 75.864 223 73.042 223ZM73.042 210.667C70.22 210.667 67.896 213 67.896 215.833C67.896 218.667 70.22 221 73.042 221C75.864 221 78.188 218.667 78.188 215.833C78.188 213 75.864 210.667 73.042 210.667ZM158.698 206.833C158.864 206.833 159.03 207 159.196 207.167V212.5C159.196 212.833 158.864 213 158.698 213H149.9C149.568 213 149.402 212.667 149.402 212.5V207.333C149.402 207 149.734 206.833 149.9 206.833H158.698ZM158.532 214.333H141.6C141.434 214.333 141.102 214.5 141.102 214.833L138.944 223.167L138.778 223.667L136.122 214.833C136.122 214.667 135.79 214.333 135.624 214.333H128.984C128.818 214.333 128.486 214.5 128.486 214.833L125.996 223.167L125.83 223.667L125.664 223.167L124.668 219L123.672 214.833C123.672 214.667 123.34 214.333 123.174 214.333H109.894V207.167C109.894 207 109.562 206.667 109.23 206.833L100.93 209.5C100.598 209.5 100.432 209.667 100.432 210V214.5H98.274C98.108 214.5 97.776 214.667 97.776 215V221.333C97.776 221.5 97.942 221.833 98.274 221.833H100.432V229.667C100.432 235.167 103.42 237.667 108.898 237.667C111.222 237.667 113.38 237.167 114.874 236.333V229.667C114.874 229.333 114.542 229.167 114.376 229.333C113.546 229.667 112.716 229.833 112.052 229.833C110.558 229.833 109.728 229.167 109.728 227.5V221.833H114.542C114.708 221.833 115.04 221.667 115.04 221.333V216L121.348 237C121.348 237.167 121.68 237.5 121.846 237.5H128.818C128.984 237.5 129.316 237.333 129.316 237L132.304 227.667L133.798 232.5L135.126 237C135.126 237.167 135.458 237.5 135.624 237.5H142.596C142.762 237.5 143.094 237.333 143.094 237L149.402 216V237C149.402 237.167 149.568 237.5 149.9 237.5H158.366C158.532 237.5 158.864 237.333 158.864 237V214.833C158.864 214.667 158.698 214.333 158.532 214.333ZM169.654 206.833H161.188C161.022 206.833 160.69 207 160.69 207.333V236.833C160.69 237 160.856 237.333 161.188 237.333H169.654C169.82 237.333 170.152 237.167 170.152 236.833V207.167C170.152 207 169.986 206.833 169.654 206.833ZM180.942 206.833H172.144C171.978 206.833 171.646 207 171.646 207.333V212.5C171.646 212.667 171.812 213 172.144 213H180.942C181.108 213 181.44 212.833 181.44 212.5V207.167C181.44 207 181.274 206.833 180.942 206.833ZM180.776 214.333H172.31C172.144 214.333 171.812 214.5 171.812 214.833V236.667C171.812 236.833 171.978 237.167 172.31 237.167H180.776C180.942 237.167 181.274 237 181.274 236.667V214.833C181.274 214.667 181.108 214.333 180.776 214.333ZM207.502 225.667C207.502 232 202.19 237.5 194.72 237.5C187.416 237.5 182.104 232 182.104 225.667C182.104 219.333 187.416 213.833 194.886 213.833C202.19 213.833 207.502 219.333 207.502 225.667ZM198.538 225.833C198.538 223.5 196.878 221.667 194.886 221.833C192.728 221.833 191.234 223.667 191.234 225.833C191.234 228 192.894 229.833 194.886 229.833C197.044 229.833 198.538 228 198.538 225.833Z" fill="#F22F46"/>
</g>
<rect x="25" y="44" width="199.478" height="111.128" rx="15" fill="white"/>
<g clip-path="url(#clip1_359_27679)">
<mask id="mask0_359_27679" style="mask-type:alpha" maskUnits="userSpaceOnUse" x="74" y="64" width="102" height="72">
<path d="M74.0225 64.1885H175.649V135.812H74.0225V64.1885Z" fill="#00A1E0"/>
</mask>
<g mask="url(#mask0_359_27679)">
<path fill-rule="evenodd" clip-rule="evenodd" d="M116.22 72.0292C119.5 68.5838 124.066 66.4502 129.11 66.4502C135.835 66.4502 141.664 70.2198 144.802 75.8366C147.588 74.5801 150.605 73.9313 153.657 73.9329C165.762 73.9329 175.589 83.9224 175.589 96.2491C175.589 108.576 165.762 118.565 153.657 118.565C152.177 118.565 150.735 118.415 149.323 118.132C146.577 123.07 141.327 126.425 135.349 126.425C132.915 126.43 130.513 125.873 128.325 124.797C125.542 131.393 119.059 136.03 111.512 136.03C103.628 136.03 96.9405 131.016 94.3625 123.967C93.215 124.212 92.0455 124.334 90.8728 124.334C81.4948 124.334 73.9102 116.568 73.9102 107.031C73.9102 100.623 77.3251 95.0436 82.3915 92.0279C81.3166 89.5298 80.7634 86.835 80.7662 84.1117C80.7662 73.1043 89.6211 64.208 100.531 64.208C106.92 64.208 112.637 67.2803 116.223 72.0488" fill="#00A1E0"/>
</g>
<path fill-rule="evenodd" clip-rule="evenodd" d="M88.7209 101.433C88.657 101.601 88.7437 101.636 88.7642 101.666C88.9551 101.805 89.149 101.906 89.3433 102.02C90.382 102.574 91.3609 102.736 92.3846 102.736C94.4695 102.736 95.766 101.616 95.766 99.8144V99.7789C95.766 98.1128 94.3013 97.5058 92.9339 97.0723L92.7549 97.0139C91.72 96.6754 90.827 96.3806 90.827 95.6945V95.6595C90.827 95.0714 91.3501 94.6379 92.1571 94.6379C93.0538 94.6379 94.1224 94.9391 94.8061 95.3202C94.8061 95.3202 95.0086 95.4521 95.0822 95.255C95.1222 95.1483 95.4708 94.207 95.5082 94.1015C95.5478 93.991 95.4783 93.9077 95.4069 93.8648C94.6223 93.3822 93.5388 93.0543 92.4179 93.0543L92.2098 93.055C90.3006 93.055 88.9667 94.2199 88.9667 95.886V95.9218C88.9667 97.6785 90.4388 98.2515 91.8137 98.6473L92.0349 98.7167C93.0362 99.0273 93.9031 99.2972 93.9031 100.006V100.041C93.9031 100.693 93.3389 101.18 92.4347 101.18C92.0831 101.18 90.9626 101.174 89.7483 100.399C89.6015 100.313 89.5178 100.251 89.4046 100.181C89.3448 100.145 89.1954 100.079 89.1304 100.276L88.7194 101.43M119.245 101.43C119.181 101.598 119.267 101.633 119.289 101.663C119.479 101.802 119.674 101.903 119.868 102.017C120.907 102.571 121.885 102.733 122.909 102.733C124.994 102.733 126.29 101.613 126.29 99.8114V99.7759C126.29 98.1097 124.83 97.5028 123.458 97.0693L123.279 97.0109C122.244 96.6724 121.352 96.3776 121.352 95.6915V95.6565C121.352 95.0684 121.875 94.6349 122.682 94.6349C123.578 94.6349 124.643 94.9361 125.331 95.3172C125.331 95.3172 125.533 95.4491 125.607 95.252C125.647 95.1453 125.996 94.204 126.029 94.0985C126.069 93.988 125.999 93.9047 125.928 93.8617C125.144 93.3792 124.06 93.0513 122.939 93.0513L122.731 93.052C120.822 93.052 119.488 94.2168 119.488 95.883V95.9188C119.488 97.6755 120.96 98.2485 122.335 98.6443L122.556 98.7136C123.561 99.0243 124.424 99.2942 124.424 100.003V100.038C124.424 100.69 123.86 101.177 122.955 101.177C122.603 101.177 121.48 101.171 120.269 100.396C120.122 100.31 120.036 100.251 119.925 100.178C119.887 100.154 119.711 100.085 119.651 100.273L119.24 101.427M140.089 97.8983C140.089 98.9161 139.9 99.719 139.532 100.288C139.164 100.85 138.609 101.125 137.836 101.125C137.062 101.125 136.509 100.852 136.147 100.292C135.782 99.7265 135.598 98.9198 135.598 97.902C135.598 96.8842 135.783 96.0851 136.147 95.5234C136.508 94.9655 137.058 94.6978 137.836 94.6978C138.613 94.6978 139.166 94.9681 139.532 95.5234C139.902 96.0851 140.089 96.8842 140.089 97.902M141.83 96.0134C141.658 95.4292 141.392 94.9165 141.038 94.4867C140.682 94.057 140.234 93.7102 139.7 93.4614C139.169 93.2107 138.542 93.0844 137.832 93.0844C137.122 93.0844 136.498 93.2115 135.964 93.4614C135.433 93.7117 134.981 94.057 134.626 94.4867C134.272 94.9165 134.006 95.4292 133.834 96.0134C133.664 96.594 133.578 97.2273 133.578 97.902C133.578 98.5768 133.664 99.2101 133.834 99.7906C134.005 100.375 134.271 100.888 134.626 101.317C134.981 101.747 135.433 102.09 135.964 102.335C136.498 102.579 137.126 102.704 137.832 102.704C138.538 102.704 139.166 102.579 139.696 102.335C140.227 102.091 140.679 101.747 141.034 101.317C141.388 100.888 141.654 100.375 141.826 99.7906C141.995 99.2101 142.082 98.5768 142.082 97.902C142.082 97.231 141.995 96.594 141.826 96.0134M156.136 100.839C156.079 100.668 155.913 100.732 155.913 100.732C155.661 100.83 155.39 100.92 155.103 100.966C154.813 101.012 154.49 101.035 154.15 101.035C153.309 101.035 152.637 100.782 152.159 100.281C151.677 99.7793 151.408 98.9726 151.411 97.8794C151.414 96.8842 151.652 96.1378 152.08 95.5649C152.502 94.9994 153.152 94.7054 154.012 94.7054C154.729 94.7054 155.278 94.7894 155.854 94.9711C155.854 94.9711 155.99 95.0311 156.055 94.8498C156.208 94.4238 156.321 94.1185 156.485 93.651C156.531 93.5172 156.418 93.4607 156.376 93.4444C156.151 93.3555 155.618 93.2096 155.214 93.1481C154.837 93.0901 154.4 93.0599 153.907 93.0599C153.174 93.0599 152.524 93.1862 151.968 93.4365C151.411 93.6865 150.94 94.0321 150.566 94.4619C150.193 94.8916 149.909 95.4043 149.718 95.9886C149.53 96.5691 149.434 97.2062 149.434 97.8809C149.434 99.336 149.823 100.516 150.593 101.379C151.362 102.246 152.521 102.683 154.03 102.683C154.923 102.683 155.838 102.501 156.496 102.239C156.496 102.239 156.621 102.178 156.567 102.03L156.137 100.839M159.182 96.9182C159.266 96.3527 159.419 95.8815 159.661 95.5159C160.022 94.9579 160.572 94.6526 161.346 94.6526C162.119 94.6526 162.631 94.9595 162.997 95.5159C163.24 95.8834 163.346 96.3716 163.386 96.9182L159.164 96.9174L159.182 96.9182ZM165.048 95.6742C164.9 95.1125 164.533 94.5433 164.294 94.2832C163.912 93.8723 163.543 93.582 163.173 93.4237C162.639 93.1946 162.064 93.077 161.484 93.078C160.748 93.078 160.079 93.2036 159.537 93.4588C158.996 93.7159 158.54 94.0657 158.181 94.503C157.823 94.9402 157.553 95.4567 157.381 96.0485C157.21 96.6328 157.123 97.2736 157.123 97.9446C157.123 98.6307 157.213 99.2678 157.39 99.8445C157.569 100.425 157.857 100.934 158.246 101.356C158.634 101.782 159.131 102.114 159.729 102.348C160.323 102.579 161.044 102.7 161.87 102.697C163.574 102.691 164.47 102.309 164.836 102.101C164.902 102.064 164.963 102.001 164.886 101.817L164.502 100.728C164.443 100.565 164.28 100.624 164.28 100.624C163.857 100.783 163.26 101.069 161.859 101.065C160.943 101.064 160.267 100.791 159.841 100.364C159.408 99.9267 159.191 99.2896 159.157 98.3849L165.061 98.3894C165.061 98.3894 165.216 98.3879 165.232 98.2349C165.238 98.1716 165.434 97.0135 165.056 95.6753L165.048 95.6742ZM111.993 96.9182C112.077 96.3527 112.231 95.8815 112.472 95.5159C112.833 94.9579 113.383 94.6526 114.157 94.6526C114.93 94.6526 115.442 94.9595 115.808 95.5159C116.051 95.8834 116.157 96.3716 116.197 96.9182L111.975 96.9174L111.993 96.9182ZM117.859 95.6742C117.711 95.1125 117.344 94.5433 117.105 94.2832C116.723 93.8723 116.354 93.582 115.984 93.4237C115.45 93.1946 114.875 93.077 114.295 93.078C113.559 93.078 112.89 93.2036 112.348 93.4588C111.806 93.7159 111.351 94.0657 110.992 94.503C110.634 94.9402 110.364 95.4567 110.192 96.0485C110.021 96.6328 109.935 97.2736 109.935 97.9446C109.935 98.6307 110.024 99.2678 110.202 99.8445C110.381 100.425 110.669 100.934 111.054 101.356C111.443 101.782 111.939 102.114 112.537 102.348C113.131 102.579 113.849 102.7 114.678 102.697C116.382 102.691 117.279 102.309 117.645 102.101C117.71 102.064 117.772 102.001 117.694 101.817L117.31 100.728C117.25 100.565 117.087 100.624 117.087 100.624C116.665 100.783 116.067 101.069 114.666 101.065C113.755 101.064 113.075 100.791 112.649 100.364C112.215 99.9267 111.999 99.2896 111.965 98.3849L117.868 98.3894C117.868 98.3894 118.024 98.3879 118.04 98.2349C118.046 98.1716 118.242 97.0135 117.863 95.6753L117.859 95.6742ZM99.2526 100.801C99.0214 100.615 98.9892 100.569 98.9126 100.448C98.7957 100.266 98.7359 100.007 98.7359 99.6753C98.7359 99.1551 98.9078 98.7781 99.2627 98.5255C99.259 98.5263 99.7709 98.0807 100.974 98.0958C101.509 98.1055 102.044 98.1514 102.573 98.2334V100.936H102.574C102.574 100.936 101.827 101.099 100.982 101.15C99.7828 101.223 99.2523 100.802 99.256 100.803L99.2526 100.801ZM101.599 96.6166C101.36 96.5989 101.05 96.5902 100.68 96.5902C100.175 96.5902 99.686 96.6535 99.2302 96.7779C98.7707 96.9031 98.3559 97.0968 98.001 97.3547C97.6451 97.6109 97.3523 97.9462 97.1454 98.3348C96.9365 98.7268 96.83 99.1867 96.83 99.7069C96.83 100.235 96.9208 100.691 97.1002 101.064C97.2759 101.434 97.5405 101.754 97.8699 101.995C98.1975 102.236 98.6022 102.414 99.0692 102.519C99.5325 102.626 100.056 102.68 100.631 102.68C101.236 102.68 101.838 102.628 102.421 102.529C102.917 102.443 103.412 102.346 103.904 102.238C104.1 102.193 104.319 102.133 104.319 102.133C104.464 102.095 104.453 101.938 104.453 101.938L104.45 96.5099C104.45 95.3187 104.134 94.4328 103.512 93.8862C102.892 93.3396 101.984 93.0645 100.807 93.0645C100.366 93.0645 99.6524 93.1248 99.2265 93.2111C99.2265 93.2111 97.9412 93.4629 97.4107 93.8821C97.4107 93.8821 97.2941 93.9545 97.3576 94.1185L97.7761 95.2493C97.828 95.396 97.9696 95.3458 97.9696 95.3458C97.9696 95.3458 98.0141 95.3281 98.0664 95.2968C99.1985 94.6749 100.633 94.6937 100.633 94.6937C101.268 94.6937 101.762 94.8238 102.09 95.0782C102.412 95.3274 102.576 95.704 102.576 96.4956V96.747C102.072 96.6731 101.605 96.6305 101.605 96.6305L101.599 96.6166ZM149.05 93.5519C149.058 93.532 149.063 93.5106 149.063 93.4889C149.063 93.4673 149.059 93.4458 149.05 93.4259C149.042 93.4059 149.03 93.3878 149.015 93.3727C148.999 93.3575 148.981 93.3457 148.961 93.3378C148.861 93.2993 148.359 93.1926 147.975 93.1685C147.235 93.1218 146.824 93.2477 146.454 93.415C146.089 93.5813 145.684 93.8485 145.46 94.1577L145.459 93.4339C145.459 93.3344 145.39 93.2541 145.29 93.2541H143.781C143.683 93.2541 143.612 93.3344 143.612 93.4339V102.293C143.612 102.34 143.631 102.386 143.664 102.42C143.698 102.454 143.743 102.473 143.791 102.473H145.338C145.385 102.473 145.43 102.454 145.464 102.42C145.497 102.386 145.516 102.34 145.516 102.293V97.8444C145.516 97.2488 145.581 96.6569 145.711 96.2837C145.839 95.9147 146.012 95.6203 146.226 95.4092C146.431 95.2053 146.681 95.054 146.955 94.9681C147.213 94.8936 147.479 94.8557 147.747 94.8558C148.055 94.8558 148.393 94.9357 148.393 94.9357C148.507 94.9485 148.57 94.8784 148.609 94.7751C148.71 94.5033 148.997 93.6895 149.053 93.5274" fill="#FFFFFE"/>
<path fill-rule="evenodd" clip-rule="evenodd" d="M134.603 89.4631C134.411 89.4048 134.217 89.3582 134.02 89.3236C133.755 89.279 133.487 89.2581 133.219 89.261C132.153 89.261 131.313 89.5648 130.723 90.165C130.137 90.7606 129.738 91.6679 129.538 92.8618L129.466 93.2647H128.128C128.128 93.2647 127.965 93.258 127.931 93.4378L127.711 94.6742C127.696 94.7926 127.746 94.8665 127.903 94.8657H129.206L127.884 102.308C127.781 102.907 127.662 103.401 127.531 103.774C127.402 104.143 127.275 104.419 127.12 104.62C126.969 104.814 126.827 104.957 126.58 105.04C126.377 105.109 126.143 105.141 125.887 105.141C125.744 105.141 125.554 105.116 125.414 105.088C125.274 105.06 125.201 105.029 125.096 104.984C125.096 104.984 124.944 104.925 124.883 105.08C124.834 105.206 124.487 106.169 124.446 106.288C124.404 106.406 124.463 106.499 124.537 106.526C124.71 106.588 124.839 106.628 125.075 106.684C125.404 106.762 125.68 106.767 125.939 106.767C126.481 106.767 126.976 106.69 127.386 106.541C127.798 106.391 128.157 106.129 128.475 105.774C128.818 105.391 129.034 104.991 129.241 104.444C129.445 103.902 129.619 103.23 129.758 102.446L131.086 94.8657H133.028C133.028 94.8657 133.191 94.8717 133.225 94.6927L133.445 93.4562C133.46 93.3379 133.41 93.264 133.253 93.2647H131.368C131.378 93.2218 131.463 92.553 131.68 91.9235C131.772 91.6547 131.946 91.438 132.093 91.2891C132.23 91.1473 132.4 91.041 132.586 90.9792C132.791 90.9153 133.005 90.8843 133.219 90.8872C133.396 90.8872 133.571 90.9087 133.703 90.9366C133.886 90.9758 133.957 90.9966 134.005 91.0109C134.197 91.0701 134.223 91.0128 134.26 90.9189L134.711 89.6704C134.757 89.5362 134.644 89.4797 134.603 89.4631ZM108.272 102.324C108.272 102.423 108.201 102.504 108.103 102.504H106.54C106.441 102.504 106.371 102.423 106.371 102.324V89.6323C106.371 89.5332 106.441 89.4529 106.54 89.4529H108.103C108.201 89.4529 108.272 89.5332 108.272 89.6323V102.324Z" fill="#FFFFFE"/>
</g>
<rect x="236" y="21" width="199.478" height="111.128" rx="15" fill="white"/>
<path d="M265 107.091L276.873 73.4926L265 65.816V107.091ZM302.551 86.3107V67.2356L265 107.091L302.551 86.3107ZM265 47V63.1006L289.504 74.9498L300.894 65.816L265 47Z" fill="#13214D"/>
<path d="M328.422 55.8626V68.7831H326.302V59.934L322.361 68.7831H320.893L316.933 59.934V68.7831H314.813V55.8626H317.1L321.636 65.9945L326.154 55.8626H328.422Z" fill="#13214D"/>
<path d="M332.286 57.1826C331.901 57.1826 331.579 57.0524 331.319 56.7922C331.059 56.5319 330.929 56.2097 330.929 55.8254C330.929 55.4412 331.059 55.119 331.319 54.8587C331.579 54.5985 331.901 54.4683 332.286 54.4683C332.657 54.4683 332.973 54.5985 333.234 54.8587C333.494 55.119 333.624 55.4412 333.624 55.8254C333.624 56.2097 333.494 56.5319 333.234 56.7922C332.973 57.0524 332.657 57.1826 332.286 57.1826ZM333.327 58.5397V68.7831H331.207V58.5397H333.327Z" fill="#13214D"/>
<path d="M335.403 63.6521C335.403 62.5986 335.613 61.6753 336.035 60.8821C336.469 60.0765 337.064 59.4568 337.82 59.023C338.576 58.5893 339.443 58.3724 340.422 58.3724C341.662 58.3724 342.684 58.6698 343.49 59.2647C344.308 59.8472 344.859 60.6838 345.144 61.7745H342.858C342.672 61.2663 342.374 60.8697 341.965 60.5847C341.556 60.2996 341.042 60.1571 340.422 60.1571C339.555 60.1571 338.861 60.4669 338.34 61.0866C337.832 61.6939 337.578 62.5491 337.578 63.6521C337.578 64.7552 337.832 65.6165 338.34 66.2362C338.861 66.8559 339.555 67.1657 340.422 67.1657C341.649 67.1657 342.461 66.6266 342.858 65.5484H345.144C344.847 66.5894 344.289 67.4198 343.471 68.0395C342.653 68.6468 341.637 68.9504 340.422 68.9504C339.443 68.9504 338.576 68.7335 337.82 68.2998C337.064 67.8536 336.469 67.2339 336.035 66.4407C335.613 65.6351 335.403 64.7056 335.403 63.6521Z" fill="#13214D"/>
<path d="M349.376 60.0269C349.685 59.5064 350.094 59.1036 350.603 58.8185C351.123 58.5211 351.737 58.3724 352.443 58.3724V60.5661H351.904C351.074 60.5661 350.442 60.7768 350.008 61.1981C349.586 61.6195 349.376 62.3508 349.376 63.3918V68.7831H347.256V58.5397H349.376V60.0269Z" fill="#13214D"/>
<path d="M358.834 68.9504C357.868 68.9504 356.994 68.7335 356.213 68.2998C355.432 67.8536 354.819 67.2339 354.373 66.4407C353.926 65.6351 353.703 64.7056 353.703 63.6521C353.703 62.611 353.933 61.6877 354.391 60.8821C354.85 60.0765 355.476 59.4568 356.269 59.023C357.062 58.5893 357.948 58.3724 358.927 58.3724C359.906 58.3724 360.793 58.5893 361.586 59.023C362.379 59.4568 363.005 60.0765 363.463 60.8821C363.922 61.6877 364.151 62.611 364.151 63.6521C364.151 64.6932 363.916 65.6165 363.445 66.4221C362.974 67.2277 362.329 67.8536 361.511 68.2998C360.706 68.7335 359.813 68.9504 358.834 68.9504ZM358.834 67.11C359.38 67.11 359.888 66.9798 360.359 66.7196C360.842 66.4593 361.233 66.0689 361.53 65.5484C361.827 65.0278 361.976 64.3957 361.976 63.6521C361.976 62.9085 361.834 62.2826 361.549 61.7745C361.264 61.2539 360.886 60.8635 360.415 60.6032C359.944 60.343 359.435 60.2128 358.89 60.2128C358.345 60.2128 357.837 60.343 357.366 60.6032C356.907 60.8635 356.542 61.2539 356.269 61.7745C355.996 62.2826 355.86 62.9085 355.86 63.6521C355.86 64.7552 356.139 65.6103 356.696 66.2176C357.267 66.8125 357.979 67.11 358.834 67.11Z" fill="#13214D"/>
<path d="M369.964 68.9504C369.159 68.9504 368.434 68.8079 367.789 68.5229C367.157 68.2254 366.655 67.8288 366.284 67.3331C365.912 66.8249 365.713 66.261 365.689 65.6413H367.882C367.92 66.0751 368.124 66.4407 368.496 66.7382C368.88 67.0232 369.357 67.1657 369.927 67.1657C370.522 67.1657 370.981 67.0542 371.303 66.8311C371.638 66.5956 371.805 66.2982 371.805 65.9388C371.805 65.5545 371.619 65.2695 371.247 65.0836C370.888 64.8977 370.312 64.6932 369.518 64.4701C368.75 64.2594 368.124 64.0549 367.641 63.8566C367.157 63.6583 366.736 63.3547 366.376 62.9457C366.029 62.5367 365.856 61.9975 365.856 61.3283C365.856 60.783 366.017 60.2872 366.339 59.841C366.662 59.3825 367.12 59.023 367.715 58.7628C368.322 58.5025 369.016 58.3724 369.797 58.3724C370.962 58.3724 371.898 58.6698 372.604 59.2647C373.323 59.8472 373.707 60.6466 373.757 61.6629H371.638C371.6 61.2043 371.415 60.8387 371.08 60.5661C370.745 60.2934 370.293 60.1571 369.723 60.1571C369.165 60.1571 368.738 60.2624 368.44 60.4731C368.143 60.6838 367.994 60.9627 367.994 61.3097C367.994 61.5824 368.093 61.8116 368.291 61.9975C368.49 62.1834 368.731 62.3322 369.016 62.4437C369.301 62.5429 369.723 62.673 370.281 62.8341C371.024 63.0324 371.631 63.2369 372.102 63.4476C372.586 63.6459 373.001 63.9434 373.348 64.34C373.695 64.7366 373.875 65.2633 373.887 65.9202C373.887 66.5027 373.726 67.0232 373.404 67.4818C373.082 67.9403 372.623 68.2998 372.028 68.56C371.446 68.8203 370.758 68.9504 369.964 68.9504Z" fill="#13214D"/>
<path d="M380.62 68.9504C379.654 68.9504 378.78 68.7335 377.999 68.2998C377.218 67.8536 376.605 67.2339 376.159 66.4407C375.712 65.6351 375.489 64.7056 375.489 63.6521C375.489 62.611 375.719 61.6877 376.177 60.8821C376.636 60.0765 377.262 59.4568 378.055 59.023C378.848 58.5893 379.734 58.3724 380.713 58.3724C381.692 58.3724 382.578 58.5893 383.372 59.023C384.165 59.4568 384.791 60.0765 385.249 60.8821C385.708 61.6877 385.937 62.611 385.937 63.6521C385.937 64.6932 385.702 65.6165 385.231 66.4221C384.76 67.2277 384.115 67.8536 383.297 68.2998C382.492 68.7335 381.599 68.9504 380.62 68.9504ZM380.62 67.11C381.166 67.11 381.674 66.9798 382.145 66.7196C382.628 66.4593 383.018 66.0689 383.316 65.5484C383.613 65.0278 383.762 64.3957 383.762 63.6521C383.762 62.9085 383.62 62.2826 383.334 61.7745C383.049 61.2539 382.671 60.8635 382.2 60.6032C381.729 60.343 381.221 60.2128 380.676 60.2128C380.131 60.2128 379.623 60.343 379.152 60.6032C378.693 60.8635 378.327 61.2539 378.055 61.7745C377.782 62.2826 377.646 62.9085 377.646 63.6521C377.646 64.7552 377.925 65.6103 378.482 66.2176C379.052 66.8125 379.765 67.11 380.62 67.11Z" fill="#13214D"/>
<path d="M392.327 60.2686H390.43V68.7831H388.293V60.2686H387.084V58.5397H388.293V57.8146C388.293 56.6372 388.602 55.7821 389.222 55.2491C389.854 54.7038 390.839 54.4312 392.178 54.4312V56.1973C391.533 56.1973 391.081 56.3212 390.821 56.5691C390.561 56.8046 390.43 57.2197 390.43 57.8146V58.5397H392.327V60.2686Z" fill="#13214D"/>
<path d="M396.677 60.2686V65.9388C396.677 66.323 396.764 66.6018 396.938 66.7753C397.124 66.9365 397.434 67.017 397.867 67.017H399.169V68.7831H397.495C396.541 68.7831 395.81 68.56 395.302 68.1139C394.794 67.6677 394.54 66.9426 394.54 65.9388V60.2686H393.331V58.5397H394.54V55.9928H396.677V58.5397H399.169V60.2686H396.677Z" fill="#13214D"/>
<path d="M319.034 76.5189C320.409 76.5189 321.611 76.7854 322.64 77.3183C323.681 77.8388 324.481 78.5948 325.038 79.5863C325.608 80.5655 325.893 81.7119 325.893 83.0256C325.893 84.3394 325.608 85.4796 325.038 86.4463C324.481 87.413 323.681 88.1566 322.64 88.6772C321.611 89.1853 320.409 89.4394 319.034 89.4394H314.813V76.5189H319.034ZM319.034 87.7105C320.546 87.7105 321.704 87.3015 322.51 86.4835C323.316 85.6655 323.718 84.5129 323.718 83.0256C323.718 81.526 323.316 80.3548 322.51 79.512C321.704 78.6692 320.546 78.2478 319.034 78.2478H316.933V87.7105H319.034Z" fill="#13214D"/>
<path d="M337.215 79.1959L330.931 94.2544H328.738L330.82 89.2721L326.786 79.1959H329.147L332.028 87.004L335.021 79.1959H337.215Z" fill="#13214D"/>
<path d="M343.982 79.0286C344.788 79.0286 345.507 79.1959 346.139 79.5306C346.783 79.8652 347.285 80.361 347.645 81.0178C348.004 81.6747 348.184 82.4679 348.184 83.3974V89.4394H346.083V83.7135C346.083 82.7963 345.854 82.0961 345.395 81.6127C344.937 81.117 344.311 80.8691 343.518 80.8691C342.725 80.8691 342.092 81.117 341.621 81.6127C341.163 82.0961 340.934 82.7963 340.934 83.7135V89.4394H338.814V79.1959H340.934V80.3672C341.281 79.9458 341.721 79.6173 342.254 79.3818C342.799 79.1464 343.375 79.0286 343.982 79.0286Z" fill="#13214D"/>
<path d="M350.181 84.2712C350.181 83.2425 350.392 82.3316 350.813 81.5384C351.247 80.7452 351.829 80.1317 352.56 79.6979C353.304 79.2517 354.122 79.0286 355.014 79.0286C355.82 79.0286 356.52 79.1897 357.115 79.512C357.722 79.8218 358.206 80.2122 358.565 80.6832V79.1959H360.703V89.4394H358.565V87.915C358.206 88.3983 357.716 88.8011 357.097 89.1233C356.477 89.4456 355.77 89.6067 354.977 89.6067C354.097 89.6067 353.292 89.3836 352.56 88.9374C351.829 88.4789 351.247 87.8468 350.813 87.0412C350.392 86.2232 350.181 85.2999 350.181 84.2712ZM358.565 84.3084C358.565 83.6019 358.417 82.9884 358.119 82.4679C357.834 81.9474 357.456 81.5508 356.985 81.2781C356.514 81.0054 356.006 80.8691 355.461 80.8691C354.915 80.8691 354.407 81.0054 353.936 81.2781C353.465 81.5384 353.081 81.9288 352.784 82.4493C352.498 82.9574 352.356 83.5647 352.356 84.2712C352.356 84.9776 352.498 85.5973 352.784 86.1303C353.081 86.6632 353.465 87.0722 353.936 87.3572C354.42 87.6299 354.928 87.7662 355.461 87.7662C356.006 87.7662 356.514 87.6299 356.985 87.3572C357.456 87.0846 357.834 86.688 358.119 86.1674C358.417 85.6345 358.565 85.0148 358.565 84.3084Z" fill="#13214D"/>
<path d="M375.887 79.0286C376.692 79.0286 377.411 79.1959 378.043 79.5306C378.688 79.8652 379.19 80.361 379.549 81.0178C379.921 81.6747 380.107 82.4679 380.107 83.3974V89.4394H378.006V83.7135C378.006 82.7963 377.777 82.0961 377.318 81.6127C376.86 81.117 376.234 80.8691 375.441 80.8691C374.647 80.8691 374.015 81.117 373.544 81.6127C373.086 82.0961 372.856 82.7963 372.856 83.7135V89.4394H370.756V83.7135C370.756 82.7963 370.526 82.0961 370.068 81.6127C369.609 81.117 368.983 80.8691 368.19 80.8691C367.397 80.8691 366.765 81.117 366.294 81.6127C365.835 82.0961 365.606 82.7963 365.606 83.7135V89.4394H363.487V79.1959H365.606V80.3672C365.953 79.9458 366.393 79.6173 366.926 79.3818C367.459 79.1464 368.029 79.0286 368.636 79.0286C369.454 79.0286 370.186 79.2021 370.83 79.5492C371.475 79.8962 371.97 80.3981 372.317 81.055C372.627 80.4353 373.111 79.9458 373.767 79.5863C374.424 79.2145 375.131 79.0286 375.887 79.0286Z" fill="#13214D"/>
<path d="M383.882 77.8388C383.498 77.8388 383.175 77.7087 382.915 77.4484C382.655 77.1882 382.525 76.8659 382.525 76.4817C382.525 76.0975 382.655 75.7753 382.915 75.515C383.175 75.2547 383.498 75.1246 383.882 75.1246C384.254 75.1246 384.57 75.2547 384.83 75.515C385.09 75.7753 385.22 76.0975 385.22 76.4817C385.22 76.8659 385.09 77.1882 384.83 77.4484C384.57 77.7087 384.254 77.8388 383.882 77.8388ZM384.923 79.1959V89.4394H382.804V79.1959H384.923Z" fill="#13214D"/>
<path d="M386.999 84.3084C386.999 83.2549 387.21 82.3316 387.631 81.5384C388.065 80.7328 388.66 80.1131 389.416 79.6793C390.172 79.2455 391.039 79.0286 392.019 79.0286C393.258 79.0286 394.28 79.3261 395.086 79.921C395.904 80.5035 396.455 81.3401 396.741 82.4307H394.454C394.268 81.9226 393.971 81.526 393.562 81.2409C393.153 80.9559 392.638 80.8133 392.019 80.8133C391.151 80.8133 390.457 81.1232 389.936 81.7429C389.428 82.3502 389.174 83.2053 389.174 84.3084C389.174 85.4114 389.428 86.2728 389.936 86.8925C390.457 87.5122 391.151 87.822 392.019 87.822C393.245 87.822 394.057 87.2829 394.454 86.2046H396.741C396.443 87.2457 395.885 88.0761 395.067 88.6958C394.249 89.3031 393.233 89.6067 392.019 89.6067C391.039 89.6067 390.172 89.3898 389.416 88.956C388.66 88.5099 388.065 87.8902 387.631 87.097C387.21 86.2914 386.999 85.3618 386.999 84.3084Z" fill="#13214D"/>
<path d="M402.571 89.6067C401.765 89.6067 401.04 89.4642 400.396 89.1791C399.764 88.8817 399.262 88.4851 398.89 87.9893C398.518 87.4812 398.32 86.9173 398.295 86.2976H400.489C400.526 86.7313 400.73 87.097 401.102 87.3944C401.486 87.6795 401.963 87.822 402.534 87.822C403.128 87.822 403.587 87.7105 403.909 87.4874C404.244 87.2519 404.411 86.9544 404.411 86.595C404.411 86.2108 404.225 85.9258 403.853 85.7398C403.494 85.5539 402.918 85.3494 402.125 85.1264C401.356 84.9157 400.73 84.7112 400.247 84.5129C399.764 84.3146 399.342 84.0109 398.983 83.6019C398.636 83.1929 398.462 82.6538 398.462 81.9845C398.462 81.4392 398.623 80.9435 398.946 80.4973C399.268 80.0387 399.726 79.6793 400.321 79.419C400.929 79.1588 401.623 79.0286 402.403 79.0286C403.568 79.0286 404.504 79.3261 405.211 79.921C405.929 80.5035 406.314 81.3029 406.363 82.3192H404.244C404.207 81.8606 404.021 81.495 403.686 81.2223C403.352 80.9497 402.899 80.8133 402.329 80.8133C401.771 80.8133 401.344 80.9187 401.046 81.1294C400.749 81.3401 400.6 81.6189 400.6 81.9659C400.6 82.2386 400.699 82.4679 400.898 82.6538C401.096 82.8397 401.338 82.9884 401.623 83.1C401.908 83.1991 402.329 83.3293 402.887 83.4904C403.63 83.6887 404.238 83.8932 404.709 84.1039C405.192 84.3022 405.607 84.5996 405.954 84.9962C406.301 85.3928 406.481 85.9196 406.493 86.5764C406.493 87.1589 406.332 87.6795 406.01 88.138C405.688 88.5966 405.229 88.956 404.634 89.2163C404.052 89.4766 403.364 89.6067 402.571 89.6067Z" fill="#13214D"/>
<rect x="235.522" y="143.172" width="199.478" height="111.128" rx="15" fill="white"/>
<g clip-path="url(#clip2_359_27679)">
<path d="M292.623 170.358L307.897 185.555L300.26 186.936L292.623 185.555L291.235 177.957L292.623 170.358Z" fill="#188038"/>
<path d="M292.624 185.555V170.358H267.63C265.328 170.358 263.464 172.213 263.464 174.503V226.999C263.464 229.289 265.328 231.144 267.63 231.144H303.732C306.033 231.144 307.897 229.289 307.897 226.999V185.555H292.624Z" fill="#34A853"/>
<path d="M271.795 193.844V213.875H299.566V193.844H271.795ZM283.945 210.422H275.267V205.586H283.945V210.422ZM283.945 202.133H275.267V197.297H283.945V202.133ZM296.095 210.422H287.416V205.586H296.095V210.422ZM296.095 202.133H287.416V197.297H296.095V202.133Z" fill="white"/>
<path d="M334.024 183.875C333.588 183.039 332.982 182.412 332.206 181.994C331.431 181.56 330.534 181.343 329.516 181.343C328.401 181.343 327.407 181.592 326.535 182.091C325.662 182.589 324.976 183.296 324.475 184.213C323.99 185.129 323.748 186.19 323.748 187.396C323.748 188.601 323.99 189.67 324.475 190.603C324.976 191.519 325.662 192.226 326.535 192.725C327.407 193.223 328.401 193.472 329.516 193.472C331.019 193.472 332.239 193.054 333.176 192.218C334.113 191.382 334.686 190.249 334.896 188.818H328.571V186.624H337.853V188.77C337.675 190.072 337.207 191.27 336.448 192.363C335.704 193.456 334.727 194.332 333.515 194.991C332.319 195.634 330.986 195.956 329.516 195.956C327.933 195.956 326.486 195.594 325.178 194.871C323.869 194.131 322.827 193.11 322.051 191.808C321.292 190.506 320.912 189.035 320.912 187.396C320.912 185.756 321.292 184.285 322.051 182.983C322.827 181.681 323.869 180.668 325.178 179.945C326.503 179.205 327.949 178.835 329.516 178.835C331.309 178.835 332.901 179.277 334.291 180.162C335.696 181.03 336.714 182.267 337.344 183.875H334.024Z" fill="#858585"/>
<path d="M346.371 196.028C345.11 196.028 343.971 195.747 342.953 195.184C341.936 194.605 341.136 193.802 340.554 192.773C339.972 191.728 339.682 190.522 339.682 189.156C339.682 187.805 339.98 186.608 340.578 185.563C341.176 184.518 341.992 183.714 343.026 183.152C344.06 182.589 345.215 182.308 346.492 182.308C347.768 182.308 348.924 182.589 349.958 183.152C350.992 183.714 351.808 184.518 352.406 185.563C353.003 186.608 353.302 187.805 353.302 189.156C353.302 190.506 352.995 191.704 352.381 192.749C351.767 193.794 350.927 194.605 349.861 195.184C348.811 195.747 347.647 196.028 346.371 196.028ZM346.371 193.641C347.082 193.641 347.744 193.472 348.358 193.134C348.988 192.797 349.497 192.291 349.885 191.615C350.273 190.94 350.467 190.12 350.467 189.156C350.467 188.191 350.281 187.379 349.909 186.72C349.538 186.045 349.045 185.539 348.431 185.201C347.817 184.864 347.154 184.695 346.443 184.695C345.733 184.695 345.07 184.864 344.456 185.201C343.858 185.539 343.382 186.045 343.026 186.72C342.671 187.379 342.493 188.191 342.493 189.156C342.493 190.587 342.856 191.696 343.584 192.483C344.327 193.255 345.256 193.641 346.371 193.641Z" fill="#858585"/>
<path d="M361.826 196.028C360.566 196.028 359.427 195.747 358.409 195.184C357.391 194.605 356.591 193.802 356.009 192.773C355.428 191.728 355.137 190.522 355.137 189.156C355.137 187.805 355.436 186.608 356.034 185.563C356.631 184.518 357.447 183.714 358.481 183.152C359.516 182.589 360.671 182.308 361.947 182.308C363.224 182.308 364.379 182.589 365.413 183.152C366.447 183.714 367.263 184.518 367.861 185.563C368.459 186.608 368.758 187.805 368.758 189.156C368.758 190.506 368.451 191.704 367.837 192.749C367.223 193.794 366.382 194.605 365.316 195.184C364.266 195.747 363.103 196.028 361.826 196.028ZM361.826 193.641C362.537 193.641 363.199 193.472 363.813 193.134C364.444 192.797 364.953 192.291 365.34 191.615C365.728 190.94 365.922 190.12 365.922 189.156C365.922 188.191 365.736 187.379 365.365 186.72C364.993 186.045 364.5 185.539 363.886 185.201C363.272 184.864 362.61 184.695 361.899 184.695C361.188 184.695 360.525 184.864 359.911 185.201C359.314 185.539 358.837 186.045 358.481 186.72C358.126 187.379 357.948 188.191 357.948 189.156C357.948 190.587 358.312 191.696 359.039 192.483C359.782 193.255 360.711 193.641 361.826 193.641Z" fill="#858585"/>
<path d="M376.869 182.308C377.903 182.308 378.816 182.517 379.608 182.935C380.416 183.336 381.046 183.843 381.498 184.454V182.525H384.286V196.028C384.286 197.25 384.027 198.335 383.51 199.283C382.993 200.248 382.242 201.003 381.256 201.55C380.287 202.097 379.123 202.37 377.766 202.37C375.956 202.37 374.454 201.944 373.258 201.092C372.063 200.256 371.384 199.115 371.222 197.668H373.961C374.171 198.359 374.615 198.914 375.294 199.332C375.989 199.766 376.813 199.983 377.766 199.983C378.881 199.983 379.778 199.645 380.456 198.97C381.151 198.295 381.498 197.314 381.498 196.028V193.81C381.03 194.437 380.392 194.967 379.584 195.401C378.792 195.819 377.887 196.028 376.869 196.028C375.706 196.028 374.64 195.739 373.67 195.16C372.717 194.565 371.958 193.745 371.392 192.7C370.843 191.639 370.568 190.442 370.568 189.108C370.568 187.773 370.843 186.592 371.392 185.563C371.958 184.534 372.717 183.738 373.67 183.176C374.64 182.597 375.706 182.308 376.869 182.308ZM381.498 189.156C381.498 188.24 381.305 187.444 380.917 186.769C380.545 186.093 380.052 185.579 379.438 185.225C378.824 184.872 378.162 184.695 377.451 184.695C376.74 184.695 376.078 184.872 375.464 185.225C374.85 185.563 374.349 186.069 373.961 186.744C373.589 187.404 373.404 188.191 373.404 189.108C373.404 190.024 373.589 190.828 373.961 191.519C374.349 192.21 374.85 192.741 375.464 193.11C376.094 193.464 376.756 193.641 377.451 193.641C378.162 193.641 378.824 193.464 379.438 193.11C380.052 192.757 380.545 192.242 380.917 191.567C381.305 190.876 381.498 190.072 381.498 189.156Z" fill="#858585"/>
<path d="M390.678 177.967V195.811H387.915V177.967H390.678Z" fill="#858585"/>
<path d="M406.544 188.842C406.544 189.341 406.512 189.791 406.447 190.193H396.244C396.325 191.254 396.721 192.106 397.432 192.749C398.142 193.392 399.015 193.713 400.049 193.713C401.536 193.713 402.586 193.094 403.2 191.856H406.181C405.777 193.078 405.042 194.083 403.975 194.871C402.925 195.642 401.616 196.028 400.049 196.028C398.773 196.028 397.625 195.747 396.608 195.184C395.606 194.605 394.814 193.802 394.232 192.773C393.667 191.728 393.384 190.522 393.384 189.156C393.384 187.789 393.659 186.592 394.208 185.563C394.774 184.518 395.557 183.714 396.559 183.152C397.577 182.589 398.74 182.308 400.049 182.308C401.309 182.308 402.432 182.581 403.418 183.128C404.403 183.674 405.171 184.446 405.72 185.442C406.27 186.423 406.544 187.556 406.544 188.842ZM403.66 187.974C403.644 186.962 403.281 186.15 402.57 185.539C401.859 184.928 400.978 184.623 399.928 184.623C398.975 184.623 398.159 184.928 397.48 185.539C396.801 186.134 396.397 186.945 396.268 187.974H403.66Z" fill="#858585"/>
<path d="M327.383 222.772C326.252 222.772 325.234 222.579 324.329 222.194C323.425 221.792 322.714 221.229 322.197 220.506C321.68 219.782 321.421 218.938 321.421 217.974H324.378C324.443 218.697 324.725 219.292 325.226 219.758C325.743 220.224 326.462 220.457 327.383 220.457C328.336 220.457 329.08 220.232 329.613 219.782C330.146 219.316 330.413 218.721 330.413 217.998C330.413 217.435 330.243 216.977 329.904 216.623C329.581 216.27 329.169 215.996 328.668 215.804C328.183 215.611 327.504 215.402 326.632 215.177C325.533 214.887 324.636 214.598 323.942 214.309C323.263 214.003 322.681 213.537 322.197 212.91C321.712 212.283 321.47 211.447 321.47 210.402C321.47 209.438 321.712 208.594 322.197 207.87C322.681 207.147 323.36 206.592 324.232 206.207C325.105 205.821 326.115 205.628 327.262 205.628C328.894 205.628 330.227 206.038 331.261 206.858C332.311 207.661 332.893 208.771 333.006 210.185H329.952C329.904 209.574 329.613 209.052 329.08 208.618C328.547 208.184 327.844 207.967 326.971 207.967C326.179 207.967 325.533 208.168 325.032 208.57C324.531 208.972 324.281 209.55 324.281 210.306C324.281 210.82 324.434 211.246 324.741 211.584C325.065 211.905 325.469 212.162 325.953 212.355C326.438 212.548 327.1 212.757 327.941 212.982C329.055 213.288 329.96 213.593 330.655 213.899C331.366 214.204 331.964 214.678 332.449 215.321C332.949 215.948 333.2 216.792 333.2 217.853C333.2 218.705 332.966 219.509 332.497 220.265C332.045 221.02 331.374 221.631 330.485 222.097C329.613 222.547 328.579 222.772 327.383 222.772Z" fill="#858585"/>
<path d="M343.367 209.1C344.385 209.1 345.29 209.317 346.082 209.751C346.89 210.185 347.52 210.828 347.972 211.68C348.441 212.532 348.675 213.561 348.675 214.767V222.604H345.936V215.177C345.936 213.987 345.637 213.079 345.04 212.452C344.442 211.809 343.626 211.487 342.592 211.487C341.558 211.487 340.734 211.809 340.12 212.452C339.522 213.079 339.223 213.987 339.223 215.177V222.604H336.46V204.76H339.223V210.86C339.692 210.298 340.281 209.864 340.992 209.558C341.719 209.253 342.511 209.1 343.367 209.1Z" fill="#858585"/>
<path d="M364.439 215.635C364.439 216.133 364.406 216.583 364.342 216.985H354.138C354.219 218.046 354.615 218.898 355.326 219.541C356.037 220.184 356.909 220.506 357.943 220.506C359.43 220.506 360.48 219.887 361.094 218.649H364.075C363.671 219.871 362.936 220.875 361.87 221.663C360.819 222.435 359.511 222.821 357.943 222.821C356.667 222.821 355.52 222.539 354.502 221.977C353.5 221.398 352.708 220.594 352.127 219.565C351.561 218.52 351.278 217.315 351.278 215.948C351.278 214.582 351.553 213.384 352.102 212.355C352.668 211.31 353.452 210.507 354.453 209.944C355.471 209.381 356.635 209.1 357.943 209.1C359.204 209.1 360.327 209.373 361.312 209.92C362.298 210.467 363.065 211.238 363.615 212.235C364.164 213.215 364.439 214.349 364.439 215.635ZM361.555 214.767C361.538 213.754 361.175 212.942 360.464 212.331C359.753 211.72 358.872 211.415 357.822 211.415C356.869 211.415 356.053 211.72 355.374 212.331C354.696 212.926 354.292 213.738 354.162 214.767H361.555Z" fill="#858585"/>
<path d="M379.397 215.635C379.397 216.133 379.365 216.583 379.3 216.985H369.097C369.177 218.046 369.573 218.898 370.284 219.541C370.995 220.184 371.868 220.506 372.902 220.506C374.388 220.506 375.438 219.887 376.052 218.649H379.033C378.629 219.871 377.894 220.875 376.828 221.663C375.778 222.435 374.469 222.821 372.902 222.821C371.625 222.821 370.478 222.539 369.46 221.977C368.458 221.398 367.667 220.594 367.085 219.565C366.519 218.52 366.237 217.315 366.237 215.948C366.237 214.582 366.511 213.384 367.061 212.355C367.626 211.31 368.41 210.507 369.412 209.944C370.43 209.381 371.593 209.1 372.902 209.1C374.162 209.1 375.285 209.373 376.27 209.92C377.256 210.467 378.024 211.238 378.573 212.235C379.122 213.215 379.397 214.349 379.397 215.635ZM376.513 214.767C376.497 213.754 376.133 212.942 375.422 212.331C374.711 211.72 373.831 211.415 372.78 211.415C371.827 211.415 371.011 211.72 370.333 212.331C369.654 212.926 369.25 213.738 369.121 214.767H376.513Z" fill="#858585"/>
<path d="M385.339 211.56V218.914C385.339 219.413 385.452 219.774 385.679 219.999C385.921 220.208 386.325 220.313 386.89 220.313H388.587V222.604H386.406C385.162 222.604 384.208 222.314 383.546 221.735C382.883 221.157 382.552 220.216 382.552 218.914V211.56H380.977V209.317H382.552V206.014H385.339V209.317H388.587V211.56H385.339Z" fill="#858585"/>
</g>
</g>
<defs>
<filter id="filter0_d_359_27679" x="0" y="0" width="460.478" height="307.128" filterUnits="userSpaceOnUse" color-interpolation-filters="sRGB">
<feFlood flood-opacity="0" result="BackgroundImageFix"/>
<feColorMatrix in="SourceAlpha" type="matrix" values="0 0 0 0 0 0 0 0 0 0 0 0 0 0 0 0 0 0 127 0" result="hardAlpha"/>
<feOffset dy="4"/>
<feGaussianBlur stdDeviation="12.5"/>
<feComposite in2="hardAlpha" operator="out"/>
<feColorMatrix type="matrix" values="0 0 0 0 0 0 0 0 0 0 0 0 0 0 0 0 0 0 0.1 0"/>
<feBlend mode="normal" in2="BackgroundImageFix" result="effect1_dropShadow_359_27679"/>
<feBlend mode="normal" in="SourceGraphic" in2="effect1_dropShadow_359_27679" result="shape"/>
</filter>
<clipPath id="clip0_359_27679">
<rect width="166" height="50" fill="white" transform="translate(42 197)"/>
</clipPath>
<clipPath id="clip1_359_27679">
<rect width="102" height="72" fill="white" transform="translate(74 64)"/>
</clipPath>
<clipPath id="clip2_359_27679">
<rect width="171" height="71" fill="white" transform="translate(250 165)"/>
</clipPath>
</defs>
</svg>
