<svg width="31" height="34" viewBox="0 0 31 34" fill="none" xmlns="http://www.w3.org/2000/svg">
<path d="M29.9179 16.0923C29.1532 14.7949 28.0816 13.759 26.7342 12.9744C25.7466 12.3988 24.6513 12.0256 23.514 11.8769V7.75897C24.0838 7.52735 24.5697 7.13198 24.9083 6.62434C25.247 6.11671 25.4228 5.52032 25.4128 4.91282C25.4128 3.18461 24.0082 1.8359 22.2551 1.8359C21.8375 1.83455 21.4237 1.91446 21.0375 2.07107C20.6513 2.22767 20.3002 2.45788 20.0044 2.74849C19.7087 3.03911 19.474 3.38441 19.3139 3.76461C19.1537 4.14482 19.0713 4.55243 19.0713 4.9641C19.0713 6.23077 19.758 7.32307 20.9285 7.81025V11.9282C19.9921 12.0615 19.0193 12.3487 18.1297 12.8L6.88253 4.37949C6.96577 4.08718 7.02819 3.78461 7.02819 3.46667C7.02819 1.55385 5.45712 0 3.51149 0C1.56586 0 0 1.55385 0 3.46667C0 5.37948 1.57107 6.93333 3.5167 6.93333C4.15371 6.93157 4.77804 6.75775 5.32187 6.43077L6.05018 6.97948L16.1425 14.1487C15.6066 14.6308 15.1124 15.1744 14.7119 15.8C13.8832 17.0311 13.4317 18.4714 13.4113 19.9487V20.2564C13.4113 21.3128 13.6194 22.3077 13.9627 23.2564C14.2749 24.0769 14.7171 24.8205 15.2633 25.4974L11.9131 28.8102C11.503 28.6601 11.062 28.6103 10.6281 28.665C10.1942 28.7198 9.78018 28.8774 9.42162 29.1245C9.06307 29.3716 8.77064 29.7007 8.56942 30.0836C8.36821 30.4665 8.2642 30.8918 8.26632 31.3231C8.26495 31.675 8.33425 32.0237 8.47023 32.3491C8.60621 32.6745 8.80618 32.9701 9.05862 33.2189C9.31106 33.4678 9.61096 33.6649 9.94105 33.799C10.2711 33.933 10.6249 34.0013 10.9819 34C11.3389 34.0013 11.6926 33.933 12.0227 33.799C12.3528 33.6649 12.6527 33.4678 12.9051 33.2189C13.1576 32.9701 13.3575 32.6745 13.4935 32.3491C13.6295 32.0237 13.6988 31.675 13.6974 31.3231C13.6974 31.0461 13.6558 30.7743 13.5726 30.5179L17.0373 27.1025C17.5215 27.4288 18.0373 27.7071 18.5771 27.9333C19.7124 28.4228 20.9379 28.676 22.177 28.6769H22.4163C23.8523 28.6836 25.2664 28.3307 26.5261 27.6513C27.8787 26.9231 28.9451 25.9282 29.7515 24.6615C30.5681 23.3992 31.0013 21.933 31 20.4359V20.359C31 18.8359 30.6358 17.4359 29.8919 16.1538L29.9179 16.0923ZM25.6885 23.2615C24.7521 24.2872 23.6701 24.9282 22.4476 24.9282H22.2395C21.5424 24.9282 20.8609 24.7384 20.1898 24.3949C19.4598 24.021 18.8412 23.466 18.395 22.7846C17.9112 22.1077 17.6459 21.3743 17.6459 20.5897V20.3384C17.6459 19.5692 17.802 18.841 18.1661 18.1538C18.5531 17.4199 19.129 16.7992 19.836 16.3538C20.5487 15.841 21.3031 15.6667 22.151 15.6667H22.2291C22.9836 15.6556 23.7296 15.8245 24.4036 16.159C25.1007 16.5282 25.6729 17.0308 26.1203 17.6974C26.5446 18.3456 26.8067 19.0838 26.885 19.8513L26.9059 20.3384C26.8915 21.4303 26.4519 22.475 25.6781 23.2564L25.6885 23.2615Z" fill="#F8761F"/>
</svg>
