<svg width="37" height="37" viewBox="0 0 37 37" fill="none" xmlns="http://www.w3.org/2000/svg">
<path d="M23.8999 17.5V24.5C23.8999 26 22.9999 27.4 21.5999 27.9L19.0999 28.8C18.6999 28.9 18.2999 28.8 18.1999 28.4C18.1999 28.3 18.1999 28.2 18.1999 28.1V19.6L13.3999 21.4C12.7999 21.6 12.4999 22.2 12.4999 22.8V34.2C12.4999 35.2 13.4999 35.9 14.3999 35.6L28.8999 30.3C30.2999 29.8 31.2999 28.4 31.2999 26.9V12.4C31.2999 13.9 30.3999 15.3 28.8999 15.8C28.7999 15.8 23.8999 17.5 23.8999 17.5ZM23.8999 16.8V14.7C23.8999 13.2 22.9999 11.8 21.5999 11.3L19.0999 10.4C18.6999 10.3 18.2999 10.4 18.1999 10.8C18.1999 10.9 18.1999 11 18.1999 11.1V17.6C18.1999 18.6 17.1999 19.3 16.2999 19L6.8999 15.6C6.2999 15.4 5.8999 14.8 5.8999 14.2V2.9C5.8999 1.9 6.8999 1.2 7.7999 1.5L28.7999 9C29.9999 9.4 30.8999 10.5 31.0999 11.7C30.8999 12.9 29.5999 14.7 28.5999 15.1C28.4999 15.1 23.8999 16.8 23.8999 16.8Z" fill="#0B53CE"/>
</svg>
