<svg width="68" height="68" viewBox="0 0 68 68" fill="none" xmlns="http://www.w3.org/2000/svg">
<path d="M36.1245 22.6675C41.6018 22.6675 46.042 18.2273 46.042 12.75C46.042 7.27273 41.6018 2.83252 36.1245 2.83252C30.6472 2.83252 26.207 7.27273 26.207 12.75C26.207 18.2273 30.6472 22.6675 36.1245 22.6675Z" fill="#7B83EB"/>
<path d="M35.4178 14.875H26.4375L26.482 15.0725L26.4863 15.0895L26.5308 15.2725C27.8791 20.383 33.0845 23.5666 38.2482 22.4378V17.7075C38.2435 16.1556 36.9679 14.8796 35.4157 14.875H35.4178Z" fill="black" fill-opacity="0.098039"/>
<path d="M33.2927 17H27.1641C28.8029 20.4556 32.3005 22.6675 36.1252 22.6675V19.8347C36.1206 18.2824 34.8447 17.0068 33.2927 17.0022V17Z" fill="black" fill-opacity="0.2"/>
<path d="M58.4377 23.3753C62.5454 23.3753 65.8753 20.0454 65.8753 15.9377C65.8753 11.83 62.5454 8.5 58.4377 8.5C54.3299 8.5 51 11.83 51 15.9377C51 20.0454 54.3299 23.3753 58.4377 23.3753Z" fill="#5059C9"/>
<path d="M64.8126 25.5H48.1078C47.3629 25.5 46.7499 26.1129 46.7499 26.8578V44.0915C46.6541 49.2131 50.187 53.7429 55.1776 54.8973C55.8963 55.0482 56.6282 55.1239 57.3623 55.1239C63.1954 55.1239 67.9962 50.3265 68 44.4933V28.6873C68 26.9388 66.5611 25.5 64.8126 25.5Z" fill="#5059C9"/>
<path d="M53.125 28.6877V48.8846C53.125 58.2046 45.4558 65.8738 36.1355 65.8738C30.0718 65.8738 24.4506 62.6274 21.42 57.375C21.0111 56.6953 20.6559 55.9847 20.3573 55.25C20.0792 54.557 19.8452 53.8473 19.6563 53.125C19.3058 51.7353 19.1275 50.3079 19.125 48.875V28.6873C19.125 28.6861 19.125 28.6846 19.125 28.6833C19.125 26.937 20.562 25.5 22.3083 25.5H49.9417C51.688 25.5 53.125 26.937 53.125 28.6833V28.6877Z" fill="#7B83EB"/>
<path d="M33.2927 17H27.1641C28.8029 20.4556 32.3005 22.6675 36.1252 22.6675V19.8347C36.1206 18.2824 34.8447 17.0068 33.2927 17.0022V17Z" fill="black" fill-opacity="0.2"/>
<path d="M38.25 25.5V52.4237C38.25 53.7388 37.3252 54.8859 36.04 55.165C35.84 55.2243 35.6323 55.2531 35.4237 55.25H20.3573C20.0792 54.557 19.8452 53.8473 19.6563 53.125C19.3058 51.7353 19.1275 50.3079 19.125 48.875V28.6873C19.125 28.6861 19.125 28.6846 19.125 28.6833C19.125 26.937 20.562 25.5 22.3083 25.5H38.25Z" fill="black" fill-opacity="0.098039"/>
<path d="M36.125 25.5V54.5487C36.1281 54.7573 36.0993 54.965 36.04 55.165C35.7609 56.4502 34.6139 57.375 33.2987 57.375H21.42C21.0111 56.6953 20.6559 55.9847 20.3577 55.25C20.0792 54.557 19.8452 53.8473 19.6563 53.125C19.3058 51.7353 19.1275 50.3079 19.125 48.875V28.6873C19.125 28.6861 19.125 28.6846 19.125 28.6833C19.125 26.937 20.562 25.5 22.3083 25.5H36.125ZM36.125 25.5V50.2987C36.1179 51.8466 34.8466 53.1179 33.2987 53.125H19.6563C19.3058 51.7353 19.1275 50.3079 19.125 48.875V28.6873C19.125 28.6861 19.125 28.6846 19.125 28.6833C19.125 26.937 20.562 25.5 22.3083 25.5H36.125ZM22.3123 25.5C22.3111 25.5 22.3096 25.5 22.3083 25.5C20.562 25.5 19.125 26.937 19.125 28.6833V48.875C19.1275 50.3079 19.3058 51.7353 19.6563 53.125H31.1737C32.7216 53.1179 33.9929 51.8466 34 50.2987V25.5H22.3123Z" fill="black" fill-opacity="0.2"/>
<path d="M2.83251 17H31.1653C32.7191 17 33.9978 18.2787 33.9978 19.8325V48.1653C33.9978 49.7191 32.7191 50.9978 31.1653 50.9978H2.83251C1.27871 50.9978 0 49.7191 0 48.1653V19.8325C0 18.2787 1.27871 17 2.83251 17Z" fill="#4B53BC"/>
<path d="M25.4581 27.5718H19.1062V44.6145H14.9329V27.5718H8.54492V23.3855H25.4581V27.5718Z" fill="white"/>
</svg>
