<?xml version="1.0" encoding="utf-8"?>
<!-- Generator: Adobe Illustrator 27.0.0, SVG Export Plug-In . SVG Version: 6.00 Build 0)  -->
<svg version="1.1" id="Layer_1" xmlns="http://www.w3.org/2000/svg" xmlns:xlink="http://www.w3.org/1999/xlink" x="0px" y="0px"
	 viewBox="0 0 38 38" style="enable-background:new 0 0 38 38;" xml:space="preserve">
<style type="text/css">
	.st0{fill:#2CA01C;}
	.st1{fill:#FFFFFF;}
</style>
<g>
	<path class="st0" d="M19,37c9.9,0,18-8.1,18-18S28.9,1,19,1S1,9.1,1,19S9.1,37,19,37z"/>
	<path class="st1" d="M6,19c0,3.9,3.1,7,7,7h1v-2.6h-1c-2.4,0-4.4-1.9-4.4-4.4c0-2.4,1.9-4.4,4.4-4.4c0,0,0,0,0.1,0h2.4v13.6
		c0,1.4,1.2,2.6,2.6,2.6V12h-5C9.1,12,6,15.1,6,19L6,19L6,19z M25,12h-1v2.6h1c2.4,0,4.4,2,4.4,4.5c0,2.4-1.9,4.3-4.4,4.4h-2.4V9.8
		c0-1.4-1.2-2.6-2.6-2.6l0,0V26h5c3.9,0,7-3.1,7-7S28.9,12,25,12L25,12z"/>
</g>
</svg>
