<svg width="39" height="27" viewBox="0 0 39 27" fill="none" xmlns="http://www.w3.org/2000/svg">
<mask id="mask0_127_2784" maskUnits="userSpaceOnUse" x="0" y="0" width="39" height="27">
<path d="M0.25 0.125732H38.3821V27H0.25V0.125732Z" fill="#00A1E0"/>
</mask>
<g>
<path fill-rule="evenodd" clip-rule="evenodd" d="M16.083 3.06785C17.3139 1.77505 19.027 0.974485 20.9196 0.974485C23.443 0.974485 25.63 2.38892 26.8076 4.49643C27.8529 4.02496 28.9852 3.78155 30.1302 3.78214C34.6724 3.78214 38.3594 7.53039 38.3594 12.1556C38.3594 16.7808 34.6724 20.5291 30.1302 20.5291C29.575 20.5291 29.0339 20.4728 28.5039 20.3664C27.4735 22.2193 25.5038 23.4781 23.2608 23.4781C22.3475 23.48 21.446 23.271 20.6252 22.8671C19.5808 25.3424 17.1484 27.0821 14.3166 27.0821C11.3585 27.0821 8.8491 25.2009 7.88178 22.5559C7.45125 22.6476 7.01241 22.6937 6.57239 22.6934C3.05359 22.6934 0.207703 19.7797 0.207703 16.2012C0.207703 13.7966 1.48905 11.7033 3.39005 10.5717C2.98675 9.63437 2.77916 8.62325 2.78022 7.6014C2.78022 3.47125 6.10275 0.133179 10.1963 0.133179C12.5936 0.133179 14.7385 1.28594 16.0844 3.0752" fill="#00A1E0"/>
</g>
<path fill-rule="evenodd" clip-rule="evenodd" d="M5.7649 14.1003C5.74092 14.1634 5.77345 14.1765 5.78116 14.1877C5.8528 14.24 5.92556 14.278 5.99845 14.3205C6.38819 14.5284 6.75549 14.5893 7.13961 14.5893C7.92188 14.5893 8.40835 14.1692 8.40835 13.4931V13.4798C8.40835 12.8546 7.85879 12.6269 7.34569 12.4642L7.27854 12.4423C6.89021 12.3153 6.55515 12.2047 6.55515 11.9472V11.9341C6.55515 11.7134 6.75142 11.5508 7.05424 11.5508C7.3907 11.5508 7.79164 11.6638 8.04819 11.8068C8.04819 11.8068 8.12418 11.8563 8.15179 11.7823C8.1668 11.7423 8.29759 11.3891 8.31161 11.3495C8.32647 11.3081 8.3004 11.2768 8.27362 11.2607C7.97922 11.0796 7.57266 10.9566 7.15209 10.9566L7.074 10.9569C6.35763 10.9569 5.85714 11.3939 5.85714 12.0191V12.0325C5.85714 12.6917 6.4095 12.9067 6.9254 13.0552L7.00839 13.0812C7.38411 13.1977 7.70935 13.299 7.70935 13.5649V13.5782C7.70935 13.8229 7.49766 14.0054 7.1584 14.0054C7.02648 14.0054 6.60604 14.0031 6.15042 13.7126C6.09533 13.6802 6.06392 13.6569 6.02145 13.6307C5.99902 13.617 5.94294 13.5922 5.91855 13.6664L5.76434 14.0992M17.218 14.0992C17.194 14.1623 17.2265 14.1754 17.2345 14.1866C17.3059 14.2389 17.3789 14.2768 17.4518 14.3194C17.8415 14.5273 18.2088 14.5881 18.593 14.5881C19.3752 14.5881 19.8617 14.1681 19.8617 13.492V13.4787C19.8617 12.8535 19.3136 12.6258 18.7991 12.4631L18.7319 12.4412C18.3436 12.3142 18.0085 12.2035 18.0085 11.9461V11.933C18.0085 11.7123 18.2048 11.5496 18.5076 11.5496C18.8441 11.5496 19.2436 11.6627 19.5015 11.8057C19.5015 11.8057 19.5775 11.8552 19.6053 11.7812C19.6202 11.7412 19.7511 11.388 19.7637 11.3484C19.7787 11.3069 19.7525 11.2757 19.7259 11.2595C19.4315 11.0785 19.0249 10.9554 18.6043 10.9554L18.5261 10.9557C17.8097 10.9557 17.3092 11.3928 17.3092 12.018V12.0314C17.3092 12.6905 17.8616 12.9055 18.3775 13.054L18.4603 13.0801C18.8375 13.1966 19.1613 13.2979 19.1613 13.5638V13.5771C19.1613 13.8218 18.9496 14.0043 18.6104 14.0043C18.4782 14.0043 18.0566 14.002 17.6024 13.7115C17.5473 13.6791 17.515 13.6567 17.4733 13.6296C17.4591 13.6205 17.3931 13.5945 17.3705 13.6652L17.2163 14.098M25.039 12.7741C25.039 13.156 24.9683 13.4573 24.8301 13.6709C24.6921 13.8816 24.4838 13.9849 24.1936 13.9849C23.9034 13.9849 23.6959 13.8825 23.56 13.6723C23.423 13.4601 23.3539 13.1574 23.3539 12.7755C23.3539 12.3936 23.4234 12.0938 23.56 11.883C23.6957 11.6737 23.902 11.5733 24.1936 11.5733C24.4852 11.5733 24.6927 11.6747 24.8301 11.883C24.9692 12.0938 25.039 12.3936 25.039 12.7755M25.6923 12.0669C25.6279 11.8477 25.5282 11.6553 25.3951 11.4941C25.2617 11.3328 25.0936 11.2027 24.8932 11.1093C24.6941 11.0153 24.4586 10.9679 24.1922 10.9679C23.9259 10.9679 23.6917 11.0156 23.4913 11.1093C23.2922 11.2033 23.1226 11.3328 22.9894 11.4941C22.8565 11.6553 22.7567 11.8477 22.6922 12.0669C22.6284 12.2847 22.596 12.5224 22.596 12.7755C22.596 13.0287 22.6284 13.2663 22.6922 13.4842C22.7562 13.7034 22.8562 13.8958 22.9894 14.057C23.1227 14.2183 23.2922 14.347 23.4913 14.4389C23.6917 14.5306 23.9273 14.5772 24.1922 14.5772C24.4572 14.5772 24.6927 14.5306 24.8918 14.4389C25.0908 14.3473 25.2605 14.2183 25.3937 14.057C25.5267 13.8958 25.6264 13.7034 25.6909 13.4842C25.7545 13.2663 25.7869 13.0287 25.7869 12.7755C25.7869 12.5238 25.7545 12.2847 25.6909 12.0669M31.0602 13.8774C31.0387 13.8133 30.9768 13.8375 30.9768 13.8375C30.8819 13.8741 30.7805 13.9081 30.6726 13.9251C30.5638 13.9423 30.4426 13.9509 30.3151 13.9509C29.9996 13.9509 29.7473 13.856 29.5679 13.668C29.387 13.4799 29.2861 13.1772 29.2875 12.7671C29.2885 12.3936 29.3779 12.1136 29.5384 11.8986C29.6968 11.6864 29.9408 11.5761 30.2632 11.5761C30.5324 11.5761 30.7385 11.6076 30.9543 11.6758C30.9543 11.6758 31.0055 11.6983 31.0301 11.6303C31.0874 11.4704 31.1297 11.3559 31.1913 11.1805C31.2087 11.1303 31.166 11.1091 31.1505 11.103C31.0658 11.0696 30.8659 11.0149 30.7145 10.9918C30.5729 10.97 30.4089 10.9587 30.2238 10.9587C29.949 10.9587 29.7051 11.0061 29.4962 11.1C29.2873 11.1938 29.1107 11.3235 28.9705 11.4847C28.8303 11.646 28.7238 11.8383 28.6523 12.0576C28.5815 12.2754 28.5457 12.5144 28.5457 12.7676C28.5457 13.3136 28.6915 13.7563 28.9803 14.0802C29.2691 14.4055 29.7037 14.5696 30.2701 14.5696C30.6051 14.5696 30.9486 14.5013 31.1953 14.4027C31.1953 14.4027 31.2424 14.3798 31.222 14.3243L31.0608 13.8774M32.2033 12.4064C32.2346 12.1942 32.2922 12.0174 32.3828 11.8802C32.5183 11.6709 32.7248 11.5563 33.015 11.5563C33.3052 11.5563 33.4973 11.6714 33.6347 11.8802C33.7258 12.0181 33.7656 12.2013 33.7805 12.4064L32.1963 12.4061L32.2033 12.4064ZM34.4043 11.9396C34.3487 11.7289 34.2109 11.5153 34.1211 11.4177C33.9781 11.2635 33.8393 11.1546 33.7006 11.0952C33.5002 11.0092 33.2846 10.9651 33.0669 10.9655C32.7907 10.9655 32.5398 11.0126 32.3365 11.1083C32.1332 11.2048 31.9622 11.3361 31.8276 11.5001C31.6932 11.6642 31.5921 11.858 31.5276 12.0801C31.4631 12.2993 31.4306 12.5398 31.4306 12.7915C31.4306 13.0489 31.4644 13.288 31.5308 13.5044C31.598 13.7222 31.7061 13.9132 31.8519 14.0716C31.9977 14.2314 32.1841 14.3559 32.4084 14.4436C32.6313 14.5306 32.9019 14.5757 33.2117 14.5747C33.851 14.5726 34.1874 14.429 34.3248 14.3512C34.3494 14.3374 34.3725 14.3135 34.3436 14.2446L34.1992 13.8358C34.1771 13.7748 34.1159 13.7969 34.1159 13.7969C33.9575 13.8566 33.7332 13.9638 33.2075 13.9624C32.864 13.9618 32.6103 13.8596 32.4505 13.6993C32.2878 13.5352 32.2065 13.2962 32.1939 12.9567L34.4089 12.9584C34.4089 12.9584 34.4673 12.9579 34.4733 12.9004C34.4757 12.8767 34.5491 12.4422 34.4073 11.94L34.4043 11.9396ZM14.4971 12.4064C14.5284 12.1942 14.5862 12.0174 14.6766 11.8802C14.8123 11.6709 15.0186 11.5563 15.3088 11.5563C15.599 11.5563 15.7911 11.6714 15.9285 11.8802C16.0195 12.0181 16.0593 12.2013 16.0743 12.4064L14.4901 12.4061L14.4971 12.4064ZM16.6981 11.9396C16.6426 11.7289 16.5047 11.5153 16.415 11.4177C16.272 11.2635 16.1332 11.1546 15.9944 11.0952C15.794 11.0092 15.5785 10.9651 15.3607 10.9655C15.0845 10.9655 14.8336 11.0126 14.6303 11.1083C14.427 11.2048 14.256 11.3361 14.1214 11.5001C13.9873 11.6642 13.8859 11.858 13.8214 12.0801C13.7571 12.2993 13.7247 12.5398 13.7247 12.7915C13.7247 13.0489 13.7582 13.288 13.8251 13.5044C13.8921 13.7222 14.0003 13.9132 14.1447 14.0716C14.2905 14.2314 14.477 14.3559 14.7013 14.4436C14.9242 14.5306 15.1933 14.5757 15.5046 14.5747C16.1438 14.5726 16.4803 14.429 16.6177 14.3512C16.6421 14.3374 16.6653 14.3135 16.6363 14.2446L16.4919 13.8358C16.4696 13.7748 16.4085 13.7969 16.4085 13.7969C16.2501 13.8566 16.0258 13.9638 15.5001 13.9624C15.158 13.9618 14.9029 13.8596 14.743 13.6993C14.5804 13.5352 14.4991 13.2962 14.4865 12.9567L16.7015 12.9584C16.7015 12.9584 16.7598 12.9579 16.7659 12.9004C16.7682 12.8767 16.8417 12.4422 16.6997 11.94L16.6981 11.9396ZM9.71661 13.8632C9.62983 13.7934 9.61778 13.7763 9.58904 13.7308C9.54516 13.6625 9.52273 13.5654 9.52273 13.4409C9.52273 13.2457 9.58721 13.1043 9.7204 13.0095C9.71899 13.0098 9.91106 12.8426 10.3625 12.8482C10.5634 12.8519 10.7639 12.8691 10.9625 12.8999V13.914H10.9628C10.9628 13.914 10.6824 13.975 10.3656 13.9942C9.91554 14.0215 9.71647 13.8635 9.71787 13.8639L9.71661 13.8632ZM10.597 12.2932C10.5073 12.2866 10.3909 12.2833 10.2521 12.2833C10.0629 12.2833 9.87923 12.3071 9.7082 12.3538C9.53576 12.4007 9.38015 12.4734 9.24697 12.5702C9.11342 12.6663 9.00358 12.7921 8.92593 12.9379C8.84756 13.085 8.80761 13.2576 8.80761 13.4528C8.80761 13.6508 8.84168 13.8219 8.90897 13.962C8.97491 14.1009 9.07417 14.2209 9.19776 14.3113C9.32071 14.4016 9.47254 14.4683 9.64778 14.5079C9.82161 14.548 10.0179 14.5682 10.2338 14.5682C10.4609 14.5682 10.6866 14.549 10.9053 14.5118C11.0916 14.4793 11.2771 14.4429 11.4619 14.4026C11.5356 14.3854 11.6175 14.363 11.6175 14.363C11.6721 14.349 11.6679 14.29 11.6679 14.29L11.6667 12.2532C11.6667 11.8062 11.5484 11.4738 11.3148 11.2687C11.0821 11.0636 10.7414 10.9604 10.2998 10.9604C10.1344 10.9604 9.86662 10.983 9.7068 11.0154C9.7068 11.0154 9.22454 11.1099 9.02547 11.2672C9.02547 11.2672 8.98173 11.2943 9.00556 11.3559L9.16258 11.7802C9.18206 11.8352 9.23519 11.8164 9.23519 11.8164C9.23519 11.8164 9.25188 11.8098 9.2715 11.798C9.69628 11.5646 10.2346 11.5717 10.2346 11.5717C10.4729 11.5717 10.658 11.6205 10.7814 11.716C10.9021 11.8095 10.9636 11.9508 10.9636 12.2478V12.3422C10.7744 12.3144 10.5991 12.2984 10.5991 12.2984L10.597 12.2932ZM28.4013 11.1433C28.4045 11.1358 28.4062 11.1278 28.4062 11.1197C28.4063 11.1115 28.4047 11.1035 28.4016 11.096C28.3985 11.0885 28.3939 11.0817 28.3882 11.076C28.3824 11.0704 28.3756 11.0659 28.3681 11.0629C28.3304 11.0485 28.1424 11.0085 27.998 10.9994C27.7204 10.9819 27.5662 11.0291 27.4274 11.0919C27.2903 11.1543 27.1386 11.2546 27.0545 11.3706L27.0542 11.099C27.0542 11.0617 27.028 11.0315 26.9907 11.0315H26.4243C26.3876 11.0315 26.361 11.0617 26.361 11.099V14.4229C26.361 14.4409 26.3681 14.4581 26.3807 14.4708C26.3933 14.4835 26.4103 14.4906 26.4281 14.4907H27.0085C27.0263 14.4906 27.0434 14.4835 27.0559 14.4708C27.0685 14.4581 27.0755 14.4409 27.0755 14.4229V12.7539C27.0755 12.5304 27.0999 12.3084 27.1486 12.1683C27.1965 12.0298 27.2617 11.9194 27.342 11.8402C27.4187 11.7637 27.5124 11.7069 27.6154 11.6747C27.712 11.6467 27.8121 11.6325 27.9126 11.6325C28.0283 11.6325 28.1551 11.6625 28.1551 11.6625C28.1978 11.6673 28.2215 11.641 28.2359 11.6023C28.2739 11.5003 28.3817 11.1949 28.4027 11.1341" fill="#FFFFFE"/>
<path fill-rule="evenodd" clip-rule="evenodd" d="M22.9808 9.60924C22.909 9.58737 22.8361 9.56989 22.7622 9.55691C22.6629 9.54018 22.5623 9.53232 22.4616 9.53343C22.0617 9.53343 21.7464 9.64743 21.525 9.87261C21.3052 10.0961 21.1556 10.4365 21.0806 10.8845L21.0536 11.0357H20.5515C20.5515 11.0357 20.4903 11.0332 20.4774 11.1006L20.3949 11.5646C20.3892 11.609 20.4081 11.6367 20.467 11.6364H20.9557L20.4599 14.4289C20.421 14.6538 20.3766 14.8388 20.3274 14.979C20.2789 15.1173 20.2315 15.221 20.1732 15.2963C20.1167 15.3691 20.0631 15.4227 19.9707 15.454C19.8945 15.4799 19.8067 15.4917 19.7105 15.4917C19.657 15.4917 19.5858 15.4827 19.5332 15.4721C19.4806 15.4616 19.4533 15.4497 19.4139 15.433C19.4139 15.433 19.3566 15.411 19.334 15.469C19.3156 15.5163 19.1854 15.8777 19.17 15.9224C19.1543 15.9666 19.1763 16.0014 19.204 16.0114C19.2691 16.0349 19.3174 16.0499 19.406 16.0709C19.5291 16.1002 19.6329 16.1021 19.73 16.1021C19.9336 16.1021 20.1191 16.0732 20.2728 16.0172C20.4276 15.9608 20.5623 15.8625 20.6815 15.7294C20.8103 15.5858 20.8914 15.4354 20.9689 15.2303C21.0456 15.0271 21.1109 14.7748 21.1632 14.4807L21.6614 11.6364H22.3899C22.3899 11.6364 22.4513 11.6387 22.464 11.5715L22.5465 11.1076C22.5522 11.0631 22.5334 11.0354 22.4743 11.0357H21.7673C21.7708 11.0196 21.8029 10.7687 21.8841 10.5324C21.9187 10.4316 21.9839 10.3503 22.0391 10.2944C22.0907 10.2412 22.1542 10.2013 22.2243 10.1781C22.3011 10.1542 22.3812 10.1425 22.4616 10.1436C22.5282 10.1436 22.5936 10.1517 22.6433 10.1621C22.7119 10.1769 22.7385 10.1846 22.7565 10.19C22.8285 10.2122 22.8382 10.1907 22.8524 10.1555L23.0214 9.68703C23.0388 9.63668 22.9965 9.61546 22.9808 9.60924ZM13.1009 14.4349C13.1009 14.4722 13.0746 14.5026 13.0376 14.5026H12.4511C12.414 14.5026 12.3876 14.4722 12.3876 14.4349V9.67275C12.3876 9.63555 12.414 9.60542 12.4511 9.60542H13.0376C13.0746 9.60542 13.1009 9.63555 13.1009 9.67275V14.4349Z" fill="#FFFFFE"/>
</svg>
