<svg width="34" height="38" viewBox="0 0 34 38" fill="none" xmlns="http://www.w3.org/2000/svg">
<g clip-path="url(#clip0_139_3145)">
<path fill-rule="evenodd" clip-rule="evenodd" d="M29.7798 7.31677C29.7516 7.12503 29.5823 7.01989 29.4412 7.00752C29.3001 6.99515 26.5598 6.95495 26.5598 6.95495C26.5598 6.95495 24.2647 4.75931 24.0389 4.53356C23.8132 4.31091 23.3711 4.37894 23.1986 4.42842C23.1955 4.42842 22.7691 4.5614 22.0448 4.78096C21.9257 4.3944 21.747 3.92126 21.493 3.44502C20.6778 1.90808 19.4801 1.09476 18.0347 1.09167C18.0315 1.09167 18.0315 1.09167 18.0284 1.09167C17.9281 1.09167 17.8277 1.10095 17.7274 1.11022C17.6835 1.06074 17.6427 1.01127 17.5957 0.961787C16.9655 0.29691 16.1597 -0.0247043 15.1909 0.00312777C13.3253 0.0556994 11.4661 1.38545 9.95795 3.74808C8.89819 5.40873 8.08926 7.49613 7.86038 9.11348C5.71892 9.76908 4.22021 10.2268 4.18572 10.236C3.10402 10.57 3.06953 10.604 2.92844 11.6091C2.83124 12.3667 0 33.9551 0 33.9551L23.7191 38L34 35.4797C34 35.4797 29.8049 7.5085 29.7798 7.31677ZM20.8565 5.14278C20.311 5.30977 19.6902 5.49841 19.016 5.7056C19.0035 4.77477 18.8906 3.47595 18.4485 2.35648C19.8657 2.61934 20.5618 4.19958 20.8565 5.14278ZM17.7744 6.08597C16.5328 6.46634 15.1752 6.88073 13.8145 7.29512C14.197 5.85095 14.9244 4.40987 15.8148 3.46667C16.1472 3.11413 16.6112 2.72448 17.1599 2.50183C17.6772 3.56254 17.787 5.06856 17.7744 6.08597ZM15.2316 1.22774C15.6706 1.21846 16.0374 1.31433 16.3541 1.51843C15.8493 1.7751 15.3633 2.14619 14.9056 2.62862C13.7204 3.88415 12.8111 5.8293 12.4506 7.70951C11.3218 8.05277 10.215 8.39294 9.19919 8.70218C9.8388 5.7458 12.3534 1.30814 15.2316 1.22774Z" fill="#95BF47"/>
<path fill-rule="evenodd" clip-rule="evenodd" d="M29.4412 7.00749C29.3001 6.99512 26.5598 6.95492 26.5598 6.95492C26.5598 6.95492 24.2647 4.75928 24.0389 4.53353C23.9543 4.45003 23.8414 4.40674 23.7191 4.38818V37.9969L33.9969 35.4766C33.9969 35.4766 29.8017 7.50846 29.7767 7.31673C29.7547 7.125 29.5823 7.01986 29.4412 7.00749Z" fill="#5E8E3E"/>
<path fill-rule="evenodd" clip-rule="evenodd" d="M18.0221 12.2213L16.8275 16.628C16.8275 16.628 15.495 16.0312 13.9179 16.127C11.604 16.2724 11.5789 17.7104 11.6009 18.0722C11.7263 20.0421 16.9812 20.4719 17.279 25.089C17.511 28.7195 15.3257 31.2027 12.1778 31.4006C8.39964 31.6357 6.31775 29.4369 6.31775 29.4369L7.11727 26.0785C7.11727 26.0785 9.2117 27.6371 10.886 27.532C11.9802 27.464 12.3722 26.5857 12.3314 25.9641C12.1684 23.3943 7.88544 23.5458 7.61579 19.3215C7.38691 15.7683 9.75412 12.1656 14.9777 11.8409C16.9937 11.7141 18.0221 12.2213 18.0221 12.2213Z" fill="white"/>
</g>
<defs>
<clipPath id="clip0_139_3145">
<rect width="34" height="38" fill="white"/>
</clipPath>
</defs>
</svg>
