<svg width="38" height="38" viewBox="0 0 38 38" fill="none" xmlns="http://www.w3.org/2000/svg">
<path fill-rule="evenodd" clip-rule="evenodd" d="M13.9325 0C11.8319 0.00154944 10.1319 1.70283 10.1334 3.79922C10.1319 5.89562 11.8335 7.5969 13.9341 7.59845H17.7347V3.80077C17.7362 1.70438 16.0346 0.00309888 13.9325 0C13.9341 0 13.9341 0 13.9325 0ZM13.9325 10.1333H3.80063C1.70004 10.1349 -0.0015483 11.8362 4.2429e-06 13.9326C-0.00310084 16.0289 1.69848 17.7302 3.79907 17.7333H13.9325C16.0331 17.7318 17.7347 16.0305 17.7331 13.9341C17.7347 11.8362 16.0331 10.1349 13.9325 10.1333Z" fill="#36C5F0"/>
<path fill-rule="evenodd" clip-rule="evenodd" d="M38 13.9326C38.0016 11.8362 36.3 10.1349 34.1994 10.1333C32.0988 10.1349 30.3972 11.8362 30.3988 13.9326V17.7333H34.1994C36.3 17.7318 38.0016 16.0305 38 13.9326ZM27.8666 13.9326V3.79922C27.8682 1.70438 26.1681 0.00309888 24.0675 0C21.9669 0.00154944 20.2654 1.70283 20.2669 3.79922V13.9326C20.2638 16.0289 21.9654 17.7302 24.066 17.7333C26.1666 17.7318 27.8682 16.0305 27.8666 13.9326Z" fill="#2EB67D"/>
<path fill-rule="evenodd" clip-rule="evenodd" d="M24.0659 38C26.1665 37.9985 27.8681 36.2972 27.8666 34.2008C27.8681 32.1044 26.1665 30.4031 24.0659 30.4016H20.2653V34.2008C20.2638 36.2956 21.9654 37.9969 24.0659 38ZM24.0659 27.8651H34.1994C36.3 27.8636 38.0016 26.1623 38 24.0659C38.0031 21.9695 36.3015 20.2682 34.2009 20.2651H24.0675C21.9669 20.2667 20.2653 21.968 20.2669 24.0644C20.2653 26.1623 21.9654 27.8636 24.0659 27.8651Z" fill="#ECB22E"/>
<path fill-rule="evenodd" clip-rule="evenodd" d="M1.06157e-06 24.0658C-0.00155148 26.1622 1.70003 27.8635 3.80062 27.8651C5.90121 27.8635 7.60279 26.1622 7.60124 24.0658V20.2666H3.80062C1.70003 20.2682 -0.00155148 21.9694 1.06157e-06 24.0658ZM10.1334 24.0658V34.1992C10.1303 36.2955 11.8319 37.9968 13.9325 37.9999C16.0331 37.9984 17.7347 36.2971 17.7331 34.2007V24.0689C17.7362 21.9725 16.0346 20.2712 13.9341 20.2682C11.8319 20.2682 10.1319 21.9694 10.1334 24.0658Z" fill="#E01E5A"/>
</svg>
