<svg width="22" height="32" viewBox="0 0 22 32" fill="none" xmlns="http://www.w3.org/2000/svg">
<path d="M11.7102 7.63077C9.87402 7.63077 8.76535 8.15824 8.76535 9.52967C8.76535 13.4681 21.9654 11.6044 22 22.0835C22 28.378 17.0457 32 9.83937 32C6.85984 32 3.60315 31.4022 0.381102 29.9956V21.6264C3.29134 23.244 6.96378 24.4396 9.83937 24.4396C11.7795 24.4396 13.1654 23.9121 13.1654 22.2945C13.1654 18.1099 0 19.6571 0 9.95165C0 3.72747 4.67717 0 11.7102 0C14.5858 0 17.4268 0.457143 20.3024 1.61758V9.88132C17.6693 8.43956 14.3433 7.63077 11.7102 7.63077Z" fill="#6772E5"/>
</svg>
