<svg width="39" height="39" viewBox="0 0 39 39" fill="none" xmlns="http://www.w3.org/2000/svg">
<path d="M19.75 39C30.3815 39 39 30.3815 39 19.75C39 9.11852 30.3815 0.5 19.75 0.5C9.11852 0.5 0.5 9.11852 0.5 19.75C0.5 30.3815 9.11852 39 19.75 39Z" fill="#F22F46"/>
<path d="M19.75 33.9949C27.6173 33.9949 33.995 27.6172 33.995 19.7499C33.995 11.8826 27.6173 5.50488 19.75 5.50488C11.8827 5.50488 5.505 11.8826 5.505 19.7499C5.505 27.6172 11.8827 33.9949 19.75 33.9949Z" fill="white"/>
<path d="M14.9375 18.9798C17.1701 18.9798 18.98 17.1699 18.98 14.9373C18.98 12.7047 17.1701 10.8948 14.9375 10.8948C12.7049 10.8948 10.895 12.7047 10.895 14.9373C10.895 17.1699 12.7049 18.9798 14.9375 18.9798Z" fill="#F22F46"/>
<path d="M24.5625 18.9798C26.7951 18.9798 28.605 17.1699 28.605 14.9373C28.605 12.7047 26.7951 10.8948 24.5625 10.8948C22.3299 10.8948 20.52 12.7047 20.52 14.9373C20.52 17.1699 22.3299 18.9798 24.5625 18.9798Z" fill="#F22F46"/>
<path d="M14.9375 28.6048C17.1701 28.6048 18.98 26.7949 18.98 24.5623C18.98 22.3297 17.1701 20.5198 14.9375 20.5198C12.7049 20.5198 10.895 22.3297 10.895 24.5623C10.895 26.7949 12.7049 28.6048 14.9375 28.6048Z" fill="#F22F46"/>
<path d="M24.5625 28.6048C26.7951 28.6048 28.605 26.7949 28.605 24.5623C28.605 22.3297 26.7951 20.5198 24.5625 20.5198C22.3299 20.5198 20.52 22.3297 20.52 24.5623C20.52 26.7949 22.3299 28.6048 24.5625 28.6048Z" fill="#F22F46"/>
</svg>
