<svg width="42" height="25" viewBox="0 0 42 25" fill="none" xmlns="http://www.w3.org/2000/svg">
<path d="M4.75255 0H37.9301C40.0298 0 41.7295 1.69965 41.7295 3.79942V16.4638C41.7295 18.5635 40.0298 20.2632 37.9301 20.2632H26.0322L27.6653 24.2624L20.4831 20.2632H4.76911C2.6695 20.2632 0.969849 18.5635 0.969849 16.4638V3.79942C0.953131 1.71637 2.65262 0 4.75255 0Z" fill="#7594FF"/>
<path d="M3.29077 3.46304C3.52275 3.1481 3.87064 2.98252 4.3346 2.9494C5.17973 2.883 5.66025 3.28057 5.77616 4.14226C6.2898 7.60525 6.85312 10.538 7.44955 12.9405L11.0781 6.03122C11.4096 5.40151 11.8239 5.07018 12.321 5.03706C13.05 4.98739 13.4973 5.45119 13.6796 6.42879C14.0939 8.63237 14.6241 10.5048 15.2536 12.0954C15.6845 7.88691 16.4135 4.85476 17.4408 2.98252C17.6892 2.51855 18.0538 2.28657 18.5343 2.2533C18.9155 2.22034 19.2634 2.33625 19.5781 2.58479C19.8929 2.83333 20.0587 3.1481 20.0918 3.52927C20.1083 3.82749 20.0587 4.07602 19.9262 4.32456C19.2799 5.51758 18.7496 7.52246 18.3189 10.3059C17.9048 13.0067 17.7556 15.1111 17.8549 16.6189C17.8882 17.0329 17.8218 17.3975 17.6562 17.7124C17.4572 18.0769 17.1591 18.2757 16.778 18.3088C16.3471 18.342 15.8999 18.1433 15.469 17.6958C13.9281 16.1217 12.702 13.7689 11.8073 10.6374C10.7302 12.7582 9.93494 14.3488 9.4213 15.4092C8.4437 17.2816 7.61529 18.2426 6.91935 18.2923C6.47195 18.3254 6.09094 17.9442 5.75961 17.1491C4.91464 14.9785 4.00327 10.7864 3.02583 4.5731C2.95944 4.14226 3.05879 3.76109 3.29077 3.46304ZM38.8976 6.06434C38.3012 5.02051 37.423 4.39096 36.2467 4.14226C35.9317 4.07603 35.6337 4.04291 35.3519 4.04291C33.7613 4.04291 32.4689 4.87132 31.4582 6.5283C30.5965 7.93658 30.1658 9.49405 30.1658 11.2007C30.1658 12.4765 30.4309 13.57 30.9611 14.4814C31.5575 15.5252 32.4358 16.1548 33.6121 16.4033C33.9269 16.4697 34.2251 16.5028 34.5069 16.5028C36.114 16.5028 37.4064 15.6744 38.4006 14.0174C39.2621 12.5924 39.6929 11.035 39.6929 9.32847C39.7095 8.03609 39.4278 6.95898 38.8976 6.06434ZM36.81 10.654C36.578 11.7475 36.1637 12.5593 35.5506 13.1061C35.0702 13.5369 34.6228 13.7191 34.2087 13.6363C33.8109 13.5535 33.4795 13.2056 33.2311 12.5593C33.0321 12.0457 32.9329 11.532 32.9329 11.0515C32.9329 10.6374 32.966 10.2231 33.0488 9.8421C33.198 9.16272 33.4796 8.4999 33.9269 7.87035C34.4738 7.05834 35.0536 6.72716 35.6501 6.84307C36.0478 6.92587 36.3793 7.27392 36.6277 7.92002C36.8265 8.43366 36.9259 8.9473 36.9259 9.42782C36.9259 9.85866 36.8928 10.2729 36.81 10.654ZM28.5254 6.06434C27.929 5.02051 27.0342 4.39096 25.8744 4.14226C25.5596 4.07603 25.2614 4.04291 24.9796 4.04291C23.389 4.04291 22.0966 4.87132 21.0859 6.5283C20.2244 7.93658 19.7936 9.49405 19.7936 11.2007C19.7936 12.4765 20.0587 13.57 20.5889 14.4814C21.1853 15.5252 22.0635 16.1548 23.2398 16.4033C23.5548 16.4697 23.8528 16.5028 24.1346 16.5028C25.7418 16.5028 27.0342 15.6744 28.0283 14.0174C28.89 12.5924 29.3207 11.035 29.3207 9.32847C29.3207 8.03609 29.0556 6.95898 28.5254 6.06434ZM26.4212 10.654C26.1892 11.7475 25.7749 12.5593 25.1619 13.1061C24.6814 13.5369 24.234 13.7191 23.8197 13.6363C23.4221 13.5535 23.0908 13.2056 22.8421 12.5593C22.6434 12.0457 22.544 11.532 22.544 11.0515C22.544 10.6374 22.5772 10.2231 22.66 9.8421C22.8091 9.16272 23.0908 8.4999 23.5382 7.87035C24.085 7.05834 24.6648 6.72716 25.2613 6.84307C25.659 6.92587 25.9905 7.27392 26.2389 7.92002C26.4379 8.43366 26.5371 8.9473 26.5371 9.42782C26.5538 9.85866 26.504 10.2729 26.4212 10.654Z" fill="white"/>
</svg>
