<svg width="40" height="14" viewBox="0 0 40 14" fill="none" xmlns="http://www.w3.org/2000/svg">
<path d="M40 2.98193V12.5842L38.6875 13.8814V4.48476L40 2.98193Z" fill="#E79225"/>
<path d="M31.3984 2.98984L30.0391 4.48476L30.1094 4.57967L38.6328 4.54804L38.7109 4.48476L40 2.98193L31.3984 2.98984Z" fill="#FFF16D"/>
<path d="M38.7109 4.48486H30.0391V13.8894H38.7109V4.48486Z" fill="url(#paint0_linear_139_3152)"/>
<path d="M37.3906 7.86997C37.2187 7.43494 36.9609 7.03946 36.625 6.69934C36.3047 6.36714 35.9453 6.11403 35.5391 5.94793C35.1406 5.78183 34.7109 5.69482 34.2422 5.69482C33.7734 5.69482 33.3359 5.78183 32.9375 5.94793C32.5312 6.11403 32.1719 6.36714 31.8516 6.69934C31.5156 7.03946 31.2656 7.43494 31.0937 7.86997C30.9219 8.30499 30.8438 8.77957 30.8438 9.3016C30.8438 9.80782 30.9297 10.2824 31.1016 10.7253C31.2734 11.1683 31.5234 11.5638 31.8594 11.9118C32.1719 12.2361 32.5313 12.4813 32.9297 12.6474C33.3281 12.8135 33.7734 12.9005 34.25 12.9005C34.7109 12.9005 35.1406 12.8135 35.5391 12.6474C35.9375 12.4813 36.3047 12.2361 36.625 11.9118C36.9609 11.5638 37.2187 11.1683 37.3906 10.7332C37.5625 10.2982 37.6484 9.81573 37.6484 9.30951C37.6484 8.77957 37.5625 8.30499 37.3906 7.86997ZM35.6016 10.9705C35.2656 11.3739 34.8203 11.5796 34.2422 11.5796C33.6641 11.5796 33.2109 11.3739 32.875 10.9705C32.5391 10.5671 32.375 10.0056 32.375 9.29369C32.375 8.56601 32.5469 8.00443 32.875 7.59313C33.2109 7.18183 33.6562 6.98409 34.2422 6.98409C34.8203 6.98409 35.2656 7.18974 35.6016 7.59313C35.9297 8.00443 36.1016 8.56601 36.1016 9.29369C36.1016 10.0056 35.9375 10.5671 35.6016 10.9705Z" fill="white"/>
<path d="M29.1875 2.19897V2.24643L30.2969 10.8758L29.6484 12.695L29.5625 12.6317L28.4219 4.3583L28.4453 4.24756L29.1562 2.24643L29.1875 2.19897Z" fill="#009ADA"/>
<path d="M20.6484 3.40123L29.1875 2.19897L28.4688 4.27129L28.3672 4.38203L20.3828 5.56847L20.4219 4.08937L20.6484 3.40123Z" fill="#91C9ED"/>
<path d="M28.4688 4.27124L29.6484 12.695L21.2344 13.8893L20.1016 5.75034L20.5937 5.36277L28.4688 4.27124Z" fill="url(#paint1_linear_139_3152)"/>
<path d="M27.0391 5.88496C27 5.62394 26.9141 5.4262 26.7734 5.29174C26.6562 5.18891 26.5156 5.13354 26.3516 5.13354C26.3125 5.13354 26.2656 5.13354 26.2188 5.14145C26 5.17309 25.8359 5.27592 25.7344 5.44202C25.6563 5.56066 25.625 5.71095 25.625 5.88496C25.625 5.94823 25.6328 6.01942 25.6406 6.09061L25.9453 8.28157L23.5234 8.64541L23.2188 6.45445C23.1797 6.20134 23.0937 6.0036 22.9531 5.86914C22.8359 5.7584 22.6953 5.70304 22.5391 5.70304C22.5 5.70304 22.4609 5.70304 22.4219 5.71095C22.1953 5.74258 22.0234 5.84541 21.9141 6.01151C21.8359 6.13016 21.8047 6.28044 21.8047 6.45445C21.8047 6.51773 21.8125 6.58891 21.8203 6.66801L22.6484 12.3708C22.6875 12.6319 22.7734 12.8296 22.9297 12.9641C23.0469 13.0669 23.1875 13.1143 23.3594 13.1143C23.4062 13.1143 23.4531 13.1143 23.5 13.1064C23.7109 13.0748 23.8672 12.972 23.9688 12.8059C24.0391 12.6872 24.0703 12.5448 24.0703 12.3787C24.0703 12.3155 24.0625 12.2443 24.0547 12.1731L23.7187 9.91886L26.1406 9.55501L26.4766 11.8093C26.5156 12.0703 26.6016 12.268 26.75 12.3946C26.8672 12.4974 27.0078 12.5528 27.1719 12.5528C27.2109 12.5528 27.2578 12.5528 27.3047 12.5448C27.5234 12.5132 27.6875 12.4104 27.7891 12.2443C27.8594 12.1256 27.8984 11.9833 27.8984 11.8093C27.8984 11.746 27.8906 11.6748 27.8828 11.6036L27.0391 5.88496Z" fill="white"/>
<path d="M12.6562 0L9.61719 7.30847L10.0312 10.5198L10.0547 10.5119L13.4687 2.73672L13.4531 2.57062L12.7187 0.102825L12.6562 0Z" fill="#66BF6B"/>
<path d="M12.6562 0L13.4453 2.68136L13.4609 2.73672L20.9766 6.14576L21 6.12994L20.3594 3.56723L12.6562 0Z" fill="#98D0A0"/>
<path d="M13.4453 2.6814L21 6.12998L17.5859 13.9684L10.0312 10.5198L13.4453 2.6814Z" fill="url(#paint2_linear_139_3152)"/>
<path d="M18.7109 6.76259C18.5469 6.31966 18.3203 5.93999 18.0234 5.62361C17.7266 5.30723 17.3672 5.05412 16.9453 4.8722C16.5234 4.69028 16.1016 4.60327 15.6719 4.60327H15.6484C15.2109 4.60327 14.7812 4.7061 14.3594 4.89593C13.9141 5.09367 13.5312 5.36259 13.2031 5.71853C12.875 6.06655 12.6094 6.49367 12.4062 6.98406C12.2031 7.46655 12.0938 7.95694 12.0703 8.43943V8.60553C12.0703 9.03265 12.1406 9.45186 12.2891 9.86316C12.4453 10.2982 12.6719 10.6699 12.9688 10.9863C13.2656 11.3027 13.6328 11.5558 14.0703 11.7377C14.4844 11.9197 14.9063 12.0067 15.3359 12.0067H15.3438C15.7734 12.0067 16.2031 11.9117 16.625 11.7298C17.0703 11.5321 17.4609 11.2552 17.7891 10.8993C18.1172 10.5513 18.3906 10.1321 18.5938 9.64169C18.7969 9.15129 18.9062 8.66881 18.9297 8.18632V8.04395C18.9375 7.60892 18.8672 7.1818 18.7109 6.76259ZM17.2031 9.04056C16.9219 9.72079 16.5391 10.1875 16.0781 10.4406C15.8281 10.575 15.5703 10.6462 15.3125 10.6462C15.0859 10.6462 14.8438 10.5908 14.6016 10.488C14.0703 10.2586 13.7422 9.8948 13.6016 9.37276C13.5547 9.19875 13.5312 9.01683 13.5312 8.827C13.5312 8.44734 13.625 8.02813 13.8125 7.57728C14.1016 6.88124 14.4844 6.40666 14.9453 6.14564C15.1953 6.00327 15.4531 5.93999 15.7109 5.93999C15.9453 5.93999 16.1797 5.99536 16.4297 6.09819C16.9531 6.32756 17.2812 6.69141 17.4219 7.21344C17.4688 7.37954 17.4922 7.56146 17.4922 7.75129C17.4922 8.14677 17.3984 8.57389 17.2031 9.04056Z" fill="white"/>
<path d="M9.01563 1.2417L10.25 9.61006L9.6875 12.5524L9.60938 12.4496L8.40625 4.36599V4.2078L8.9375 1.38407L9.01563 1.2417Z" fill="#760D16"/>
<path d="M0 5.56825L0.585938 2.61006L9.01563 1.2417L8.44531 4.25526V4.453L0.101563 5.64735L0 5.56825Z" fill="#EF463E"/>
<path d="M8.44531 4.25537L9.6875 12.5525L1.34375 13.8734L0 5.56837L8.44531 4.25537Z" fill="url(#paint3_linear_139_3152)"/>
<path d="M7.54688 11.2315C7.48438 11.1524 7.39062 11.097 7.28125 11.0575C7.17188 11.0179 7.03906 11.0021 6.875 11.0021C6.72656 11.0021 6.55469 11.0179 6.36719 11.0495L4.16406 11.4292C4.1875 11.2552 4.27344 11.0337 4.42188 10.7569C4.58594 10.4484 4.83594 10.0767 5.15625 9.64955C5.26562 9.49927 5.35156 9.38853 5.41406 9.30944C5.45313 9.25407 5.51562 9.18288 5.59375 9.08006C6.10156 8.40774 6.40625 7.86198 6.53125 7.43486C6.60156 7.18966 6.64062 6.94446 6.65625 6.69927C6.66406 6.62808 6.66406 6.5648 6.66406 6.50153C6.66406 6.32751 6.64844 6.1535 6.61719 5.97949C6.59375 5.8213 6.55469 5.69475 6.5 5.59192C6.44531 5.4891 6.38281 5.41 6.30469 5.36254C6.21875 5.30718 6.08594 5.28345 5.92188 5.28345C5.78906 5.28345 5.625 5.29927 5.42969 5.33091L2.88281 5.77384C2.57813 5.82921 2.34375 5.91622 2.20313 6.05859C2.08594 6.16932 2.03125 6.3117 2.03125 6.46989C2.03125 6.50944 2.03125 6.55689 2.03906 6.60435C2.07813 6.82582 2.1875 6.98401 2.36719 7.06311C2.47656 7.11057 2.60156 7.13429 2.75781 7.13429C2.85937 7.13429 2.97656 7.12639 3.10156 7.10266L5.22656 6.723C5.22656 6.76254 5.23438 6.80209 5.23438 6.83373C5.23438 6.96819 5.21094 7.10266 5.16406 7.22921C5.10156 7.41113 4.94531 7.66424 4.6875 7.98853C4.61719 8.07554 4.50781 8.21791 4.35938 8.39983C3.78125 9.10379 3.375 9.70492 3.125 10.2032C2.94531 10.5512 2.82812 10.8834 2.75781 11.2236C2.71875 11.4213 2.69531 11.6032 2.69531 11.7851C2.69531 11.9117 2.70313 12.0382 2.72656 12.1569C2.75781 12.3309 2.79688 12.4733 2.85156 12.584C2.90625 12.6947 2.98437 12.7818 3.07031 12.8292C3.15625 12.8767 3.27344 12.8925 3.44531 12.8925C3.65625 12.8925 3.94531 12.8608 4.3125 12.7976L6.625 12.3942C7.03125 12.323 7.32031 12.2202 7.48438 12.0857C7.61719 11.975 7.6875 11.8247 7.6875 11.6507C7.6875 11.6032 7.67969 11.5558 7.67188 11.5083C7.65625 11.4055 7.61719 11.3106 7.54688 11.2315Z" fill="white"/>
<defs>
<linearGradient id="paint0_linear_139_3152" x1="463.597" y1="17.9444" x2="463.597" y2="916.546" gradientUnits="userSpaceOnUse">
<stop offset="0.005618" stop-color="#FFE513"/>
<stop offset="1" stop-color="#FDB924"/>
</linearGradient>
<linearGradient id="paint1_linear_139_3152" x1="63.1814" y1="134.06" x2="938.568" y2="835.304" gradientUnits="userSpaceOnUse">
<stop offset="0.005618" stop-color="#008CD2"/>
<stop offset="1" stop-color="#00649D"/>
</linearGradient>
<linearGradient id="paint2_linear_139_3152" x1="558.487" y1="316.221" x2="558.487" y2="1103.49" gradientUnits="userSpaceOnUse">
<stop stop-color="#26A146"/>
<stop offset="1" stop-color="#008A52"/>
</linearGradient>
<linearGradient id="paint3_linear_139_3152" x1="423.672" y1="83.1986" x2="555.594" y2="900.939" gradientUnits="userSpaceOnUse">
<stop stop-color="#D92231"/>
<stop offset="1" stop-color="#BA2234"/>
</linearGradient>
</defs>
</svg>
