<?xml version="1.0" encoding="utf-8"?>
<!-- Generator: Adobe Illustrator 27.0.0, SVG Export Plug-In . SVG Version: 6.00 Build 0)  -->
<svg version="1.1" id="Layer_1" xmlns="http://www.w3.org/2000/svg" xmlns:xlink="http://www.w3.org/1999/xlink" x="0px" y="0px"
	 viewBox="0 0 400 266.7" style="enable-background:new 0 0 400 266.7;" xml:space="preserve">
<style type="text/css">
	.st0{fill:#CADDFF;}
	.st1{fill:#99B9FF;}
	.st2{fill:#5479F7;}
	.st3{fill:#FFFFFF;}
</style>
<g id="Robotic_process_automation_5_">
	<path class="st0" d="M148.4,15.7c-20.9,5.5-109.8,28.8-131.7,85.1C-8.2,165,66.4,240.5,169.4,254.4
		c106.9,14.4,227.6-19.5,218.2-72.1c-4.3-24-52.4-31.2-50.2-59.5c2.2-27.6,53.3-41.1,48-73.9c-0.3-2.1-1.4-8.2-6-14.4
		C353.4-0.5,236-7.2,148.4,15.7z"/>
	<g>
		<path class="st1" d="M247,34.8l2.2,3.2l4-1.5c0.6,0.7,1.3,1.3,2,1.8l-1,4.1l3.5,1.7l2.7-3.3c0.9,0.2,1.8,0.4,2.7,0.5l1.2,4.1
			l3.9-0.3l0.6-4.2c0.9-0.2,1.7-0.5,2.6-0.9l3.1,2.9l3.2-2.2l-1.5-4c0.7-0.6,1.3-1.3,1.8-2l4.1,1l1.7-3.5l-3.3-2.7
			c0.2-0.9,0.4-1.8,0.5-2.7l4.1-1.2l-0.3-3.9l-4.2-0.6c-0.2-0.9-0.5-1.7-0.9-2.6l2.9-3.1l-2.2-3.2l-4,1.5c-0.6-0.7-1.3-1.3-2-1.8
			l1-4.1l-3.5-1.7l-2.7,3.3c-0.9-0.2-1.8-0.4-2.7-0.5L265.3,5l-3.9,0.3l-0.6,4.2c-0.9,0.2-1.7,0.5-2.6,0.9l-3.1-2.9l-3.2,2.2l1.5,4
			c-0.7,0.6-1.3,1.3-1.8,2l-4.1-1l-1.7,3.5l3.3,2.7c-0.2,0.9-0.4,1.8-0.5,2.7l-4.1,1.2l0.3,3.9l4.2,0.6c0.2,0.9,0.5,1.7,0.9,2.6
			L247,34.8z M259.1,16.9c4.6-3.1,10.8-1.9,13.9,2.7s1.9,10.8-2.7,13.9c-4.6,3.1-10.8,1.9-13.9-2.7
			C253.3,26.2,254.6,19.9,259.1,16.9z"/>
	</g>
	<g>
		<g>
			<path class="st2" d="M101.9,176.3l224.4,0.5c2,0,3.6-1.5,3.9-3.5l17.9-144.8c0.4-3.5-2-6.8-5.5-6.8l-221.5,0.2L101.9,176.3z"/>
			<path class="st3" d="M97.3,176.1h219.9c2,0,3.6-1.5,3.9-3.5l17.8-143.5c0.5-4-2.5-7.5-6.3-7.5H115.4c-2,0-3.6,1.5-3.9,3.5
				L93.4,171.5C93.1,174,95,176.1,97.3,176.1z"/>
			<path d="M317.3,176.7H153.7c-0.3,0-0.5-0.2-0.5-0.5c0-0.3,0.2-0.5,0.5-0.5h163.6c1.7,0,3.1-1.3,3.3-3.1l17.8-143
				c0.2-1.8-0.3-3.6-1.5-4.9c-1.1-1.3-2.6-2-4.3-2H306c-0.3,0-0.5-0.2-0.5-0.5c0-0.3,0.2-0.5,0.5-0.5h26.6c1.9,0,3.8,0.9,5.1,2.3
				c1.4,1.6,2,3.7,1.8,5.8l-17.8,143C321.4,175,319.5,176.7,317.3,176.7z"/>
			<path d="M97.9,136.5C97.9,136.5,97.9,136.5,97.9,136.5c-0.4,0-0.6-0.3-0.5-0.6l13.7-110.3c0.3-2.3,2.2-4,4.4-4h85.4
				c0.3,0,0.5,0.2,0.5,0.5c0,0.3-0.2,0.5-0.5,0.5h-85.4c-1.7,0-3.1,1.3-3.3,3.1L98.5,136.1C98.4,136.3,98.2,136.5,97.9,136.5z"/>
		</g>
		<g>
			<g>
				<polygon class="st0" points="123.2,162.9 128.1,124.3 114.3,124.3 109.4,162.9 				"/>
				<polygon class="st0" points="139.9,162.9 146.9,109.5 133.1,109.5 126,162.9 				"/>
				<polygon class="st0" points="156.5,162.9 162.9,113.6 149.1,113.6 142.6,162.9 				"/>
				<polygon class="st1" points="173.1,162.9 182.1,95.4 168.2,95.4 159.2,162.9 				"/>
				<polygon class="st0" points="189.7,162.9 200.9,78.9 187,78.9 175.9,162.9 				"/>
				<polygon class="st0" points="206.4,162.9 216.9,85.4 203,85.4 192.5,162.9 				"/>
				<polygon class="st1" points="223.3,162.9 235.3,75.1 221.4,75.1 209.4,162.9 				"/>
				<polygon class="st0" points="240.2,162.9 253.2,69 239.3,69 226.4,162.9 				"/>
				<polygon class="st1" points="257.2,162.9 270.9,65.6 257.1,65.6 243.3,162.9 				"/>
				<polygon class="st1" points="274.1,162.9 290.3,48 276.5,48 260.2,162.9 				"/>
				<polygon class="st0" points="291.1,162.9 305.3,61.8 291.4,61.8 277.2,162.9 				"/>
				<polygon class="st0" points="308,162.9 323.4,52.8 309.6,52.8 294.1,162.9 				"/>
			</g>
			<g>
				<path d="M211.1,75.4c-0.1,0-0.3-0.1-0.4-0.2l-9.2-9.2c-0.2-0.2-0.2-0.6,0-0.8c0.2-0.2,0.6-0.2,0.8,0l8.8,8.8l27.7-27.6
					c0.2-0.2,0.6-0.2,0.8,0l14.2,14.2l23.1-23.4c0.2-0.2,0.6-0.2,0.8,0c0.2,0.2,0.2,0.6,0,0.8l-23.5,23.8c-0.1,0.1-0.2,0.2-0.4,0.2
					c0,0,0,0,0,0c-0.1,0-0.3-0.1-0.4-0.2l-14.2-14.2l-27.7,27.6C211.3,75.3,211.2,75.4,211.1,75.4z"/>
				<path d="M116.6,116.6c-0.1,0-0.3-0.1-0.4-0.2c-0.2-0.2-0.2-0.6,0-0.8l24-24c0.2-0.2,0.6-0.2,0.8,0l12.6,12.6l38.7-38.7
					c0.2-0.2,0.6-0.2,0.8,0c0.2,0.2,0.2,0.6,0,0.8l-39.1,39.1c-0.2,0.2-0.6,0.2-0.8,0l-12.6-12.6L117,116.5
					C116.9,116.6,116.8,116.6,116.6,116.6z"/>
				<g>
					<path class="st1" d="M138.2,92.1c0-1.3,1-2.3,2.3-2.3c1.3,0,2.3,1,2.3,2.3c0,1.3-1,2.3-2.3,2.3
						C139.3,94.4,138.2,93.4,138.2,92.1z"/>
					<path d="M140.6,89.8c1.3,0,2.3,1,2.3,2.3c0,1.3-1,2.3-2.3,2.3c-1.3,0-2.3-1-2.3-2.3C138.2,90.8,139.3,89.8,140.6,89.8z
						 M140.6,88.7c-1.9,0-3.4,1.5-3.4,3.4c0,1.9,1.5,3.4,3.4,3.4s3.4-1.5,3.4-3.4C144,90.2,142.5,88.7,140.6,88.7z"/>
				</g>
				<g>
					<circle class="st0" cx="211.1" cy="74.7" r="2.3"/>
					<path d="M211.1,77.6c-1.6,0-2.9-1.3-2.9-2.9c0-1.6,1.3-2.9,2.9-2.9c1.6,0,2.9,1.3,2.9,2.9C214,76.3,212.7,77.6,211.1,77.6z
						 M211.1,72.9c-1,0-1.8,0.8-1.8,1.8c0,1,0.8,1.8,1.8,1.8c1,0,1.8-0.8,1.8-1.8C212.9,73.7,212.1,72.9,211.1,72.9z"/>
				</g>
				<g>
					<circle class="st1" cx="239.3" cy="46.5" r="2.3"/>
					<path d="M239.3,44.2c1.3,0,2.3,1,2.3,2.3c0,1.3-1,2.3-2.3,2.3c-1.3,0-2.3-1-2.3-2.3C237,45.2,238.1,44.2,239.3,44.2z
						 M239.3,43.1c-1.9,0-3.4,1.5-3.4,3.4c0,1.9,1.5,3.4,3.4,3.4s3.4-1.5,3.4-3.4C242.8,44.6,241.2,43.1,239.3,43.1z"/>
				</g>
				<g>
					<path class="st0" d="M251.6,61.4c0-1.3,1-2.3,2.3-2.3c1.3,0,2.3,1,2.3,2.3c0,1.3-1,2.3-2.3,2.3
						C252.7,63.7,251.6,62.7,251.6,61.4z"/>
					<path d="M254,64.3c-1.6,0-2.9-1.3-2.9-2.9c0-1.6,1.3-2.9,2.9-2.9c1.6,0,2.9,1.3,2.9,2.9C256.8,63,255.6,64.3,254,64.3z
						 M254,59.6c-1,0-1.8,0.8-1.8,1.8c0,1,0.8,1.8,1.8,1.8c1,0,1.8-0.8,1.8-1.8C255.8,60.4,255,59.6,254,59.6z"/>
				</g>
				<g>
					
						<ellipse transform="matrix(1 -6.289584e-03 6.289584e-03 1 -0.2116 1.7623)" class="st2" cx="280.1" cy="34.5" rx="3.1" ry="3.1"/>
					<path d="M280.1,31.4c1.7,0,3.1,1.4,3.1,3.1c0,1.7-1.4,3.1-3.1,3.1c-1.7,0-3.1-1.4-3.1-3.1C277,32.8,278.4,31.4,280.1,31.4z
						 M280.1,30.4c-2.3,0-4.2,1.9-4.2,4.2c0,2.3,1.9,4.2,4.2,4.2c2.3,0,4.2-1.9,4.2-4.2C284.3,32.2,282.4,30.4,280.1,30.4z"/>
				</g>
				<g>
					<circle class="st0" cx="153.7" cy="104.8" r="2.3"/>
					<path d="M153.7,107.7c-1.6,0-2.9-1.3-2.9-2.9c0-1.6,1.3-2.9,2.9-2.9c1.6,0,2.9,1.3,2.9,2.9
						C156.6,106.4,155.3,107.7,153.7,107.7z M153.7,103c-1,0-1.8,0.8-1.8,1.8c0,1,0.8,1.8,1.8,1.8c1,0,1.8-0.8,1.8-1.8
						C155.5,103.8,154.7,103,153.7,103z"/>
				</g>
				<g>
					<path class="st1" d="M195.1,61.4c0-1.3,1-2.3,2.3-2.3c1.3,0,2.3,1,2.3,2.3c0,1.3-1,2.3-2.3,2.3
						C196.1,63.7,195.1,62.6,195.1,61.4z"/>
					<path d="M197.4,59c1.3,0,2.3,1,2.3,2.3c0,1.3-1,2.3-2.3,2.3c-1.3,0-2.3-1-2.3-2.3C195.1,60.1,196.1,59,197.4,59z M197.4,57.9
						c-1.9,0-3.4,1.5-3.4,3.4c0,1.9,1.5,3.4,3.4,3.4c1.9,0,3.4-1.5,3.4-3.4C200.8,59.5,199.3,57.9,197.4,57.9z"/>
				</g>
				<g>
					<circle class="st0" cx="116.1" cy="116.2" r="2.3"/>
					<path d="M116.1,119.1c-1.6,0-2.9-1.3-2.9-2.9c0-1.6,1.3-2.9,2.9-2.9c1.6,0,2.9,1.3,2.9,2.9C119,117.8,117.7,119.1,116.1,119.1z
						 M116.1,114.5c-1,0-1.8,0.8-1.8,1.8c0,1,0.8,1.8,1.8,1.8c1,0,1.8-0.8,1.8-1.8C117.9,115.3,117.1,114.5,116.1,114.5z"/>
				</g>
			</g>
		</g>
	</g>
	<g>
		<path d="M177.4,207.4l123.9,0.3c1.1,0,2-0.8,2.1-1.9l9.9-77.2c0.2-1.9-1.1-3.7-3-3.7L188,125.1L177.4,207.4z"/>
		<g>
			<path class="st3" d="M175.4,207.3h121.4c1.1,0,2-0.8,2.1-1.9l9.8-76.2c0.3-2.1-1.4-4-3.5-4H185.4c-1.1,0-2,0.8-2.1,1.9l-10,77.7
				C173.1,206.2,174.1,207.3,175.4,207.3z"/>
			<path d="M296.8,207.8H175.4c-0.8,0-1.5-0.3-2-0.9c-0.5-0.6-0.8-1.4-0.7-2.1l10-77.7c0.2-1.3,1.3-2.4,2.7-2.4h119.8
				c1.2,0,2.3,0.5,3.1,1.4c0.8,0.9,1.1,2.1,1,3.2l-9.8,76.2C299.3,206.8,298.2,207.8,296.8,207.8z M185.4,125.8
				c-0.8,0-1.5,0.6-1.6,1.4l-10,77.7c-0.1,0.5,0.1,0.9,0.4,1.3c0.3,0.3,0.7,0.5,1.2,0.5h121.4c0.8,0,1.5-0.6,1.6-1.4l9.8-76.2
				c0.1-0.9-0.2-1.7-0.7-2.4c-0.6-0.6-1.4-1-2.2-1H185.4z"/>
		</g>
		<g>
			<path class="st0" d="M259.1,143.2h40.6c0.1,0,0.2-0.1,0.2-0.2l0.4-2.4c0-0.1-0.1-0.2-0.2-0.2h-40.6c-0.1,0-0.2,0.1-0.2,0.2
				l-0.4,2.4C258.9,143,259,143.2,259.1,143.2z"/>
			<path class="st2" d="M253.4,143.2h3.6c0.1,0,0.2-0.1,0.3-0.2l0.4-2.3c0-0.2-0.1-0.3-0.3-0.3h-3.6c-0.1,0-0.2,0.1-0.3,0.2
				l-0.4,2.3C253.2,143,253.3,143.2,253.4,143.2z"/>
			<path class="st2" d="M194.4,150.6h3.6c0.1,0,0.2-0.1,0.3-0.2l0.4-2.3c0-0.2-0.1-0.3-0.3-0.3h-3.6c-0.1,0-0.2,0.1-0.3,0.2
				l-0.4,2.3C194.1,150.4,194.2,150.6,194.4,150.6z"/>
			<path class="st2" d="M184.7,158.5h3.6c0.1,0,0.2-0.1,0.3-0.2l0.4-2.3c0-0.2-0.1-0.3-0.3-0.3H185c-0.1,0-0.2,0.1-0.3,0.2l-0.4,2.3
				C184.4,158.3,184.5,158.5,184.7,158.5z"/>
			<path class="st0" d="M200.1,150.6h98.5c0.1,0,0.2-0.1,0.2-0.2l0.4-2.4c0-0.1-0.1-0.2-0.2-0.2h-98.5c-0.1,0-0.2,0.1-0.2,0.2
				l-0.4,2.4C199.9,150.5,200,150.6,200.1,150.6z"/>
			<path class="st0" d="M190.7,158.5h106.6c0.1,0,0.2-0.1,0.2-0.2l0.4-2.4c0-0.1-0.1-0.2-0.2-0.2H191.1c-0.1,0-0.2,0.1-0.2,0.2
				l-0.4,2.4C190.5,158.4,190.6,158.5,190.7,158.5z"/>
		</g>
		<g>
			<path d="M191,198.8h-4.7c-0.3,0-0.5-0.2-0.5-0.5c0-0.3,0.2-0.5,0.5-0.5h4.7c0.4,0,0.8-0.2,1-0.5l2.3-3.3c0.4-0.6,1.1-1,1.8-1
				c0.7,0,1.4,0.3,1.9,0.9c0.2,0.3,0.6,0.5,1,0.5c0.4,0,0.7-0.2,1-0.6l4-6.7c0.4-0.7,1.1-1.1,1.9-1.1c0.8,0,1.5,0.4,2,1l1.1,1.7
				c0.2,0.4,0.6,0.6,1,0.5c0.4,0,0.8-0.2,1-0.6l10.8-19.7c0.4-0.7,1.2-1.2,2-1.2h36.8c0.3,0,0.5,0.2,0.5,0.5c0,0.3-0.2,0.5-0.5,0.5
				h-36.8c-0.4,0-0.8,0.2-1,0.6L211.9,189c-0.4,0.7-1.1,1.2-1.9,1.2c-0.8,0-1.6-0.4-2-1l-1.1-1.7c-0.2-0.3-0.6-0.6-1-0.5
				c-0.4,0-0.8,0.2-1,0.6l-4,6.7c-0.4,0.7-1.1,1.1-1.8,1.1c-0.8,0-1.5-0.3-1.9-0.9c-0.2-0.3-0.6-0.5-1-0.5c-0.4,0-0.7,0.2-0.9,0.5
				l-2.3,3.3C192.5,198.4,191.8,198.8,191,198.8z"/>
			<g>
				<path class="st2" d="M194.7,193.4c0-0.6,0.5-1.2,1.2-1.2c0.6,0,1.2,0.5,1.2,1.2c0,0.6-0.5,1.2-1.2,1.2
					C195.2,194.6,194.7,194,194.7,193.4z"/>
				<path d="M195.8,192.3c0.6,0,1.2,0.5,1.2,1.2c0,0.6-0.5,1.2-1.2,1.2c-0.6,0-1.2-0.5-1.2-1.2C194.7,192.8,195.2,192.3,195.8,192.3
					z M195.8,191.2c-1.2,0-2.2,1-2.2,2.2c0,1.2,1,2.2,2.2,2.2c1.2,0,2.2-1,2.2-2.2C198.1,192.2,197.1,191.2,195.8,191.2z"/>
			</g>
			<g>
				<path class="st1" d="M204.6,186.4c0-0.6,0.5-1.2,1.2-1.2s1.2,0.5,1.2,1.2c0,0.6-0.5,1.2-1.2,1.2S204.6,187,204.6,186.4z"/>
				<path d="M205.8,185.2c0.6,0,1.2,0.5,1.2,1.2c0,0.6-0.5,1.2-1.2,1.2c-0.6,0-1.2-0.5-1.2-1.2C204.6,185.7,205.1,185.2,205.8,185.2
					z M205.8,184.1c-1.2,0-2.2,1-2.2,2.2c0,1.2,1,2.2,2.2,2.2c1.2,0,2.2-1,2.2-2.2C208,185.1,207,184.1,205.8,184.1z"/>
			</g>
			<g>
				<path class="st2" d="M252.9,168c0-0.6,0.5-1.2,1.2-1.2c0.6,0,1.2,0.5,1.2,1.2c0,0.6-0.5,1.2-1.2,1.2
					C253.5,169.2,252.9,168.7,252.9,168z"/>
				<path d="M254.1,166.9c0.6,0,1.2,0.5,1.2,1.2c0,0.6-0.5,1.2-1.2,1.2c-0.6,0-1.2-0.5-1.2-1.2C252.9,167.4,253.5,166.9,254.1,166.9
					z M254.1,165.8c-1.2,0-2.2,1-2.2,2.2c0,1.2,1,2.2,2.2,2.2c1.2,0,2.2-1,2.2-2.2C256.3,166.8,255.3,165.8,254.1,165.8z"/>
			</g>
		</g>
	</g>
	<g>
		<g>
			<g>
				<path d="M316.6,207.5l-2.4,0c0,0-5.8-7.3-9.7-7.7l-0.4-20.6c15,0.1,28.2,8.5,34.2,21L316.6,207.5z"/>
				<path d="M287.7,216.7c1.2,6.8,7.4,12.1,15,12.3c1.9,0.1,4-1.1,4-1.1s2,0.1,2.3,0l11.8,18.3c-5.5,2.5-11.7,3.7-18.2,3.3
					c-18.9-1.1-33.7-15.3-35.3-32.4L287.7,216.7z"/>
				<path d="M324.5,244.3l-2.4,0.1l-9.5-18.4c3.6-2.6,5.9-6.7,5.9-11.4c0-1.1-0.1-2.2-0.4-3.3l19.5-7.3l2.4,0
					c1.2,3.4,1.8,7.1,1.8,10.9C341.7,227.4,334.8,238.2,324.5,244.3z"/>
			</g>
			<g>
				<path class="st2" d="M300.3,199.9c-6.9,1-12.2,6.4-12.8,13l-33.3,1c0,0,0,0,0,0c0,0,0,0,0,0c0,0-5-0.8-5-0.8
					c0-0.2,45.5-48,45.5-48l5,0.8C299.7,165.7,300.1,188.5,300.3,199.9z"/>
				<path d="M254.2,214.3c-0.1,0-0.2,0-0.3-0.1c-0.7-0.1-2.9-0.5-3.9-0.6c-1.2-0.2-1.3-0.2-1.3-0.7c0-0.3,0-0.3,7.3-8
					c3.8-4,9-9.5,15.6-16.5c11.4-12,22.7-23.9,22.7-23.9c0.1-0.1,0.3-0.2,0.5-0.2l5,0.8c0.3,0,0.5,0.3,0.5,0.5l0.6,34.1
					c0,0.3-0.2,0.5-0.5,0.5c-6.7,1-11.7,6.1-12.3,12.5c0,0.3-0.3,0.5-0.5,0.5L254.2,214.3C254.2,214.3,254.2,214.3,254.2,214.3z
					 M250.3,212.6c0.7,0.1,1.7,0.3,2.5,0.4c0.4,0.1,0.8,0.1,1.1,0.2c0.2,0,0.4,0.1,0.5,0.1l32.6-0.9c0.8-6.5,6-11.7,12.7-12.9
					l-0.6-33.2l-4.3-0.7C280.6,180.5,254.7,207.8,250.3,212.6z"/>
			</g>
		</g>
		<g>
			<g>
				<path class="st2" d="M314.2,207.5c-2.4-4.2-6.9-7.2-12.1-7.7l-0.4-20.6c15,0.1,28.2,8.5,34.2,21L314.2,207.5z"/>
				<path d="M315.2,185.3c-0.1,0-0.1,0-0.2,0c-3.3-1.3-6.8-2.2-10.3-2.5c-0.3,0-0.5-0.3-0.5-0.6c0-0.3,0.3-0.5,0.6-0.5
					c3.7,0.3,7.2,1.2,10.6,2.5c0.3,0.1,0.4,0.4,0.3,0.7C315.6,185.2,315.4,185.3,315.2,185.3z"/>
				<path class="st2" d="M285.3,216.7c1.2,6.8,7.4,12.1,15,12.3c2.3,0.1,4.4-0.3,6.4-1.1l11.8,18.3c-5.5,2.5-11.7,3.7-18.2,3.3
					c-18.9-1.1-33.7-15.3-35.3-32.4L285.3,216.7z"/>
				<path d="M302.6,247.2c-0.7,0-1.4,0-2.2-0.1c-0.3,0-0.5-0.3-0.5-0.6c0-0.3,0.3-0.5,0.6-0.5c0.7,0,1.4,0.1,2.1,0.1
					c3.9,0,7.7-0.6,11.3-1.8c0.3-0.1,0.6,0.1,0.7,0.3c0.1,0.3-0.1,0.6-0.3,0.7C310.5,246.5,306.6,247.2,302.6,247.2z"/>
				<path d="M293,245.9c0,0-0.1,0-0.1,0c-12.7-3.5-22.5-13.6-25-25.7c-0.1-0.3,0.1-0.6,0.4-0.6c0.3-0.1,0.6,0.1,0.6,0.4
					c2.4,11.8,11.9,21.5,24.2,24.9c0.3,0.1,0.5,0.4,0.4,0.7C293.4,245.7,293.2,245.9,293,245.9z"/>
				<path class="st2" d="M322.1,244.3l-11.9-18.3c3.6-2.6,5.9-6.7,5.9-11.4c0-1.1-0.1-2.2-0.4-3.3l21.8-7.3
					c1.2,3.4,1.8,7.1,1.8,10.9C339.3,227.4,332.4,238.2,322.1,244.3z"/>
			</g>
			<g>
				<g>
					<path class="st3" d="M295.3,199c-6.9,1-12.2,6.4-12.8,13l-33.3,1c0,0,0,0,0,0c0-24.4,19.5-45.3,45.5-48L295.3,199z"/>
					<path d="M249.2,213.5c-0.1,0-0.3-0.1-0.4-0.2c-0.1-0.1-0.2-0.2-0.2-0.4l0,0c0-12,4.7-23.5,13.1-32.5c8.5-9,20.2-14.7,32.9-16
						c0.2,0,0.3,0,0.4,0.1c0.1,0.1,0.2,0.2,0.2,0.4l0.6,34.1c0,0.3-0.2,0.5-0.5,0.5c-6.7,1-11.7,6.1-12.3,12.5
						c0,0.3-0.3,0.5-0.5,0.5L249.2,213.5C249.2,213.5,249.2,213.5,249.2,213.5z M294.2,165.5c-25.2,2.9-44.2,22.9-44.4,46.9
						l32.3-0.9c0.8-6.5,6-11.7,12.7-12.9L294.2,165.5z"/>
				</g>
			</g>
		</g>
	</g>
	<g>
		<g>
			<path class="st1" d="M185.6,42.6h-56.8c-1.2,0-2.2,0.9-2.4,2.1l-0.9,6.7c-0.1,1.1,0.7,2.1,1.8,2.1h56.8c1.2,0,2.2-0.9,2.4-2.1
				l0.9-6.7C187.6,43.6,186.8,42.6,185.6,42.6z"/>
			<path d="M184.2,54h-56.8c-0.7,0-1.4-0.3-1.8-0.8c-0.5-0.5-0.6-1.2-0.6-1.9l0.9-6.7c0.2-1.4,1.5-2.6,2.9-2.6h56.8
				c0.7,0,1.4,0.3,1.8,0.8c0.5,0.5,0.6,1.2,0.6,1.9l-0.9,6.7C187,52.9,185.7,54,184.2,54z M128.9,43.2c-0.9,0-1.7,0.7-1.8,1.6
				l-0.9,6.7c-0.1,0.4,0.1,0.8,0.3,1c0.2,0.3,0.6,0.4,1,0.4h56.8c0.9,0,1.7-0.7,1.8-1.6l0.9-6.7c0.1-0.4-0.1-0.8-0.3-1
				c-0.2-0.3-0.6-0.4-1-0.4H128.9z"/>
		</g>
		<g>
			<path class="st1" d="M185.6,42.6h-56.8c-1.2,0-2.2,0.9-2.4,2.1l-0.9,6.7c-0.1,1.1,0.7,2.1,1.8,2.1h56.8c1.2,0,2.2-0.9,2.4-2.1
				l0.9-6.7C187.6,43.6,186.8,42.6,185.6,42.6z"/>
			<path d="M184.2,54h-56.8c-0.7,0-1.4-0.3-1.8-0.8c-0.5-0.5-0.6-1.2-0.6-1.9l0.9-6.7c0.2-1.4,1.5-2.6,2.9-2.6h56.8
				c0.7,0,1.4,0.3,1.8,0.8c0.5,0.5,0.6,1.2,0.6,1.9l-0.9,6.7C187,52.9,185.7,54,184.2,54z M128.9,43.2c-0.9,0-1.7,0.7-1.8,1.6
				l-0.9,6.7c-0.1,0.4,0.1,0.8,0.3,1c0.2,0.3,0.6,0.4,1,0.4h56.8c0.9,0,1.7-0.7,1.8-1.6l0.9-6.7c0.1-0.4-0.1-0.8-0.3-1
				c-0.2-0.3-0.6-0.4-1-0.4H128.9z"/>
		</g>
	</g>
	<g>
		<g>
			<path class="st3" d="M286.9,264.9c-0.1,0-0.3-0.1-0.4-0.2c-0.2-0.2-0.2-0.6,0-0.8l31.4-31.4c0.2-0.2,0.6-0.2,0.8,0
				c0.2,0.2,0.2,0.6,0,0.8l-31.4,31.4C287.2,264.9,287,264.9,286.9,264.9z"/>
			<path class="st3" d="M292.3,243.1c-0.1,0-0.3-0.1-0.4-0.2c-0.2-0.2-0.2-0.6,0-0.8L317,217c0.2-0.2,0.6-0.2,0.8,0
				c0.2,0.2,0.2,0.6,0,0.8l-25.1,25.1C292.6,243,292.4,243.1,292.3,243.1z"/>
		</g>
		<g>
			<path d="M56.5,136.5c-0.1,0-0.3-0.1-0.4-0.2c-0.2-0.2-0.2-0.6,0-0.8l6.6-6.6c1.8-1.8,4.8-1.8,6.6,0c1.4,1.4,3.6,1.4,5,0
				l19.2-19.2c0.2-0.2,0.6-0.2,0.8,0c0.2,0.2,0.2,0.6,0,0.8l-19.2,19.2c-1.8,1.8-4.8,1.8-6.6,0c-1.4-1.4-3.6-1.4-5,0l-6.6,6.6
				C56.8,136.5,56.7,136.5,56.5,136.5z"/>
			<path d="M67.2,115.1c-0.4,0-0.8-0.1-1.1-0.2c-0.8-0.3-1.4-0.9-1.8-1.7c-0.7-1.6,0-3.5,1.6-4.2c0.8-0.3,1.6-0.4,2.4-0.1
				c0.8,0.3,1.4,0.9,1.8,1.7c0.7,1.6,0,3.5-1.6,4.2C68.1,115,67.7,115.1,67.2,115.1z M67.2,109.8c-0.3,0-0.6,0.1-0.8,0.2
				c-1,0.5-1.5,1.7-1.1,2.8c0.2,0.5,0.6,0.9,1.2,1.1c0.5,0.2,1.1,0.2,1.5,0c1-0.5,1.5-1.7,1.1-2.8c-0.2-0.5-0.6-0.9-1.1-1.1
				C67.7,109.8,67.5,109.8,67.2,109.8z"/>
			<path d="M73.7,107c-0.1,0-0.3-0.1-0.4-0.2c-0.2-0.2-0.2-0.6,0-0.8l19.6-19.6c0.2-0.2,0.6-0.2,0.8,0c0.2,0.2,0.2,0.6,0,0.8
				l-19.6,19.6C74,106.9,73.8,107,73.7,107z"/>
		</g>
		<g>
			<path d="M210.4,17.8c-0.1,0-0.3-0.1-0.4-0.2c-0.2-0.2-0.2-0.6,0-0.8l9.8-9.8c0.2-0.2,0.6-0.2,0.8,0c0.2,0.2,0.2,0.6,0,0.8
				l-9.8,9.8C210.7,17.7,210.6,17.8,210.4,17.8z"/>
			<g>
				<path class="st3" d="M213.9,37.6c0,1.9-1.6,3.4-3.5,3.4c-1.9,0-3.4-1.6-3.4-3.5c0-1.9,1.6-3.4,3.5-3.4L213.9,37.6z"/>
				<path class="st2" d="M210.5,41.5C210.4,41.5,210.4,41.5,210.5,41.5c-1.1,0-2.1-0.4-2.9-1.2c-0.7-0.8-1.1-1.8-1.1-2.8
					c0-2.2,1.8-3.9,4-3.9c0,0,0,0,0.1,0c0.3,0,0.5,0.3,0.5,0.6c0,0.3-0.2,0.5-0.6,0.5c0,0,0,0,0,0c-1.6,0-2.9,1.3-2.9,2.9
					c0,0.8,0.3,1.5,0.8,2.1c0.5,0.6,1.3,0.9,2.1,0.9c1.6,0,2.9-1.3,3-2.9c0-0.3,0.2-0.5,0.5-0.5c0,0,0,0,0,0c0.3,0,0.5,0.3,0.5,0.6
					C214.4,39.8,212.6,41.5,210.5,41.5z"/>
			</g>
			<g>
				<path class="st3" d="M219.7,28.6l26.1-26.3L219.7,28.6z"/>
				<path class="st2" d="M219.7,29.2c-0.1,0-0.3-0.1-0.4-0.2c-0.2-0.2-0.2-0.6,0-0.8L245.4,2c0.2-0.2,0.6-0.2,0.8,0
					c0.2,0.2,0.2,0.6,0,0.8L220.1,29C220,29.1,219.8,29.2,219.7,29.2z"/>
			</g>
		</g>
		<g>
			<path d="M331.7,206.1C331.7,206.1,331.7,206.1,331.7,206.1l-2-0.1c-0.3,0-0.5-0.3-0.5-0.6c0-0.3,0.3-0.5,0.6-0.5l1.9,0.1
				c0.3,0,0.5,0.3,0.5,0.6C332.2,205.8,332,206.1,331.7,206.1z"/>
			<path d="M324.9,205.7C324.9,205.7,324.9,205.7,324.9,205.7l-2-0.1c-0.3,0-0.5-0.3-0.5-0.6c0-0.3,0.3-0.5,0.6-0.5l1.9,0.1
				c0.3,0,0.5,0.3,0.5,0.6C325.5,205.5,325.2,205.7,324.9,205.7z"/>
			<path d="M327.5,203.5C327.5,203.5,327.5,203.5,327.5,203.5c-0.3,0-0.6-0.3-0.5-0.6l0.1-1.9c0-0.3,0.3-0.5,0.6-0.5
				c0.3,0,0.5,0.3,0.5,0.6L328,203C328,203.2,327.8,203.5,327.5,203.5z"/>
			<path d="M327.1,210.1C327.1,210.1,327.1,210.1,327.1,210.1c-0.3,0-0.6-0.3-0.5-0.6l0.1-1.9c0-0.3,0.3-0.5,0.6-0.5
				c0.3,0,0.5,0.3,0.5,0.6l-0.1,1.9C327.6,209.9,327.4,210.1,327.1,210.1z"/>
		</g>
	</g>
	<g>
		<g>
			<path d="M146.7,224.8C146.7,224.8,146.7,224.8,146.7,224.8c-5.1,0-10.4-3.1-15.6-9.1c-3.7-4.2-6-8.4-6.1-8.6
				c-0.8-1.4-0.3-3.2,1.1-3.9c1.4-0.8,3.2-0.3,3.9,1.1c2.3,4.1,9.7,14.7,16.6,14.7c0,0,0,0,0,0c2.2,0,3.9-0.7,5.2-2.1
				c3.1-3.3,3.3-10,3.1-12.3c-0.1-1.6,1.1-3,2.7-3.1c1.6-0.1,3,1.1,3.1,2.7c0,0.4,0.8,10.8-4.7,16.7
				C153.7,223.5,150.5,224.8,146.7,224.8z"/>
			<path d="M167.1,203.9h-17.2c-1.6,0-2.9-1.3-2.9-2.9c0-1.6,1.3-2.9,2.9-2.9h17.2c1.6,0,2.9,1.3,2.9,2.9
				C170,202.6,168.7,203.9,167.1,203.9z"/>
		</g>
		<g>
			<g>
				<g>
					<path class="st3" d="M144.7,163.9h-1.2v-17.2h1.2c4.2,0,7.6,3.4,7.6,7.6v2C152.2,160.6,148.9,163.9,144.7,163.9z"/>
					<path d="M145.8,164.5h-2.4c-0.3,0-0.5-0.2-0.5-0.5v-17.2c0-0.3,0.2-0.5,0.5-0.5h2.4c3.8,0,7,3.1,7,7v4.3
						C152.8,161.4,149.7,164.5,145.8,164.5z M144,163.4h1.8c3.2,0,5.9-2.6,5.9-5.9v-4.3c0-3.2-2.6-5.9-5.9-5.9H144V163.4z"/>
				</g>
				<g>
					<path class="st3" d="M64.7,163.9H66v-17.2h-1.2c-4.2,0-7.6,3.4-7.6,7.6v2C57.2,160.6,60.6,163.9,64.7,163.9z"/>
					<path d="M66,164.5h-2.4c-3.8,0-7-3.1-7-7v-4.3c0-3.8,3.1-7,7-7H66c0.3,0,0.5,0.2,0.5,0.5v17.2C66.5,164.2,66.3,164.5,66,164.5z
						 M63.6,147.3c-3.2,0-5.9,2.6-5.9,5.9v4.3c0,3.2,2.6,5.9,5.9,5.9h1.8v-16.1H63.6z"/>
				</g>
			</g>
			<g>
				<path class="st3" d="M63.2,154.7c0-18.4,18.6-37.5,41.5-37.5c22.9,0,41.5,19.1,41.5,37.5s-18.6,29.3-41.5,29.3
					C81.8,183.9,63.2,173.1,63.2,154.7z"/>
				<path d="M104.7,184.5c-11.6,0-22.1-2.8-29.7-7.8c-8.1-5.4-12.4-13-12.4-22c0-9.2,4.5-18.7,12.3-26.1c8.2-7.7,18.8-12,29.7-12
					s21.5,4.3,29.7,12c7.8,7.4,12.3,16.9,12.3,26.1c0,9-4.3,16.6-12.4,22C126.8,181.7,116.3,184.5,104.7,184.5z M104.7,117.7
					c-23.4,0-41,19.5-41,37c0,8.6,4.1,15.9,11.9,21.1c7.4,4.9,17.7,7.6,29,7.6c11.4,0,21.7-2.7,29-7.6c7.8-5.2,11.9-12.5,11.9-21.1
					C145.7,137.2,128.2,117.7,104.7,117.7z"/>
			</g>
			<g>
				<path class="st3" d="M115.1,189.5H94.3c-9.1,0-16.5,7.4-16.5,16.5c0,6,0.6,12,1.8,17.9l3,15.1c2.1,10.6,11.4,18.2,22.2,18.2
					s20.1-7.6,22.2-18.2l3-15.1c1.2-5.9,1.8-11.9,1.8-17.9C131.6,196.8,124.2,189.5,115.1,189.5z"/>
				<path d="M104.7,257.8c-11,0-20.6-7.8-22.7-18.6L79,224c-1.2-5.9-1.8-12-1.8-18c0-9.4,7.6-17,17-17h20.8c9.4,0,17,7.6,17,17
					c0,6-0.6,12.1-1.8,18l-3,15.1C125.3,249.9,115.7,257.8,104.7,257.8z M94.3,190c-8.8,0-16,7.2-16,16c0,6,0.6,12,1.7,17.8l3,15.1
					c2,10.3,11.1,17.8,21.6,17.8c10.5,0,19.6-7.5,21.6-17.8l3-15.1c1.2-5.9,1.7-11.9,1.7-17.8c0-8.8-7.2-16-16-16H94.3z"/>
			</g>
			<path class="st2" d="M106,226h-2.6c-5.5,0-10-4.5-10-10v-26.6H116V216C116,221.5,111.6,226,106,226z"/>
			<path d="M116,190H93.4c-0.3,0-0.5-0.2-0.5-0.5c0-0.3,0.2-0.5,0.5-0.5H116c0.3,0,0.5,0.2,0.5,0.5C116.6,189.8,116.3,190,116,190z"
				/>
			<path d="M132.6,149.1h-40c-4.2,0-7.5,3.6-7.5,8.1v5.3c0,3.4,1.8,7,5,7.6c11.1,2.1,34,2.1,45.1,0c3.1-0.6,5-4.2,5-7.6v-5.3
				C140.1,152.8,136.8,149.1,132.6,149.1z"/>
			<g>
				<path class="st2" d="M103.2,159.8c0,1.5-1.1,2.7-2.5,2.7c-1.4,0-2.5-1.2-2.5-2.7s1.1-2.7,2.5-2.7
					C102.1,157,103.2,158.3,103.2,159.8z"/>
				<ellipse class="st2" cx="127.5" cy="159.8" rx="2.5" ry="2.7"/>
			</g>
		</g>
		<g>
			<path d="M78.2,238c-5.7,0-13.4-0.8-18.3-4.6c-2.8-2.2-4.5-5.1-4.9-8.5c-1.9-15.7,17-24.7,17.8-25c1.5-0.7,3.2,0,3.9,1.4
				c0.7,1.5,0,3.2-1.4,3.9c-0.2,0.1-15.9,7.6-14.5,19.1c0.2,1.9,1.1,3.4,2.7,4.7c5.4,4.2,17.2,3.6,21.3,3c1.6-0.2,3.1,0.9,3.3,2.5
				c0.2,1.6-0.9,3.1-2.5,3.3C85.2,237.6,82.2,238,78.2,238z"/>
			<path d="M98.2,241h-5.6c-3,0-5.6-2.3-5.9-5.3l-0.2-1.9c-0.2-1.7,0.4-3.3,1.5-4.5c1.1-1.2,2.7-1.9,4.4-1.9h8.9
				c1.6,0,2.9,1.3,2.9,2.9c0,1.6-1.3,2.9-2.9,2.9h-8.9c0,0,0,0-0.1,0c0,0,0,0.1,0,0.1l0.2,1.9c0,0.1,0,0.1,0.1,0.1h5.6
				c1.6,0,2.9,1.3,2.9,2.9S99.8,241,98.2,241z"/>
		</g>
	</g>
</g>
</svg>
