<?xml version="1.0" encoding="utf-8"?>
<!-- Generator: Adobe Illustrator 27.0.0, SVG Export Plug-In . SVG Version: 6.00 Build 0)  -->
<svg version="1.1" id="Layer_1" xmlns="http://www.w3.org/2000/svg" xmlns:xlink="http://www.w3.org/1999/xlink" x="0px" y="0px"
	 viewBox="0 0 400 281.3" style="enable-background:new 0 0 400 281.3;" xml:space="preserve">
<style type="text/css">
	.st0{fill:#D1D1FF;}
	.st1{fill:#FFFFFF;}
	.st2{fill:#9192FF;}
	.st3{opacity:0.4;fill:#E5E5FF;}
	.st4{fill:#3335CF;}
	.st5{fill:#1B1B43;}
	.st6{fill:#EBEBFF;}
	.st7{opacity:0.3;fill:#1B1B43;}
	.st8{fill:#FFA121;}
	.st9{fill:#FFBC96;}
	.st10{opacity:0.2;fill:#FE5B52;}
	.st11{fill:#D28572;}
</style>
<g>
	<g>
		<g>
			<circle class="st0" cx="329.5" cy="34.4" r="20.6"/>
			<g>
				<path class="st1" d="M331.6,43.6v2.9H328v-2.7c-2.6-0.2-5.1-0.8-6.6-1.8l2-4.4c1.7,1,4,1.6,5.9,1.6c1.7,0,2.3-0.4,2.3-1
					c0-2.3-10-0.4-10-7.2c0-2.9,2.1-5.4,6.3-5.9v-2.8h3.6V25c1.9,0.2,3.8,0.7,5.2,1.5l-1.8,4.4c-1.8-0.9-3.4-1.3-5-1.3
					c-1.8,0-2.3,0.5-2.3,1.1c0,2.2,10,0.4,10,7C337.6,40.5,335.6,42.9,331.6,43.6z"/>
			</g>
		</g>
		<g>
			<circle class="st0" cx="293.6" cy="62.4" r="12.5"/>
			<g>
				<path class="st1" d="M294.9,68v1.7h-2.2v-1.7c-1.6-0.1-3.1-0.5-4-1.1l1.2-2.7c1,0.6,2.4,1,3.6,1c1,0,1.4-0.2,1.4-0.6
					c0-1.4-6-0.3-6-4.3c0-1.8,1.3-3.2,3.8-3.6v-1.7h2.2v1.7c1.2,0.1,2.3,0.4,3.2,0.9l-1.1,2.7c-1.1-0.5-2.1-0.8-3-0.8
					c-1.1,0-1.4,0.3-1.4,0.7c0,1.3,6,0.2,6,4.2C298.5,66.1,297.3,67.6,294.9,68z"/>
			</g>
		</g>
		<g>
			
				<ellipse transform="matrix(0.2259 -0.9741 0.9741 0.2259 184.5037 373.0668)" class="st0" cx="327" cy="70.4" rx="9.7" ry="9.7"/>
			<g>
				<path class="st1" d="M328,74.8v1.3h-1.7v-1.3c-1.2-0.1-2.4-0.4-3.1-0.8l0.9-2.1c0.8,0.5,1.9,0.8,2.8,0.8c0.8,0,1.1-0.2,1.1-0.5
					c0-1.1-4.7-0.2-4.7-3.3c0-1.4,1-2.5,3-2.8v-1.3h1.7v1.3c0.9,0.1,1.8,0.3,2.4,0.7l-0.9,2.1c-0.8-0.4-1.6-0.6-2.3-0.6
					c-0.8,0-1.1,0.2-1.1,0.5c0,1,4.7,0.2,4.7,3.3C330.8,73.3,329.8,74.4,328,74.8z"/>
			</g>
		</g>
		<g>
			<g>
				<rect x="286.7" y="28.4" class="st2" width="1.4" height="10.1"/>
			</g>
			<g>
				<rect x="282.4" y="32.7" class="st2" width="10.1" height="1.4"/>
			</g>
		</g>
		<g>
			<g>
				<rect x="298.6" y="1.3" class="st2" width="2.1" height="15.2"/>
			</g>
			<g>
				<rect x="292.1" y="7.9" class="st2" width="15.2" height="2.1"/>
			</g>
		</g>
		<g>
			<g>
				<rect x="346.8" y="79" class="st2" width="1.6" height="11.5"/>
			</g>
			<g>
				<rect x="341.8" y="84" class="st2" width="11.5" height="1.6"/>
			</g>
		</g>
	</g>
	<g>
		
			<ellipse transform="matrix(0.2322 -0.9727 0.9727 0.2322 117.9997 228.1443)" class="st3" cx="203.5" cy="39.3" rx="18.7" ry="18.7"/>
		<circle class="st3" cx="202.1" cy="233.7" r="21.1"/>
		<path class="st2" d="M163,264.6c-0.2,0-0.4,0-0.7,0l0-0.6c1,0,2,0,3-0.1l0,0.6C164.6,264.6,163.8,264.6,163,264.6z M159.3,264.4
			c-1-0.1-2-0.2-3-0.4l0.1-0.6c1,0.2,2,0.3,3,0.4L159.3,264.4z M168.5,264.2l-0.1-0.6c1-0.1,2-0.3,3-0.5l0.1,0.6
			C170.5,263.9,169.5,264.1,168.5,264.2z M153.3,263.4c-1-0.2-2-0.5-2.9-0.8l0.2-0.6c0.9,0.3,1.9,0.6,2.9,0.8L153.3,263.4z
			 M174.4,263l-0.2-0.6c1-0.3,1.9-0.6,2.9-1l0.2,0.6C176.4,262.4,175.4,262.7,174.4,263z M147.5,261.5c-0.9-0.4-1.9-0.8-2.8-1.3
			l0.3-0.5c0.9,0.5,1.8,0.9,2.7,1.3L147.5,261.5z M180.2,260.8l-0.3-0.5c0.9-0.4,1.8-0.9,2.7-1.4l0.3,0.5
			C182,259.9,181.1,260.4,180.2,260.8z M142,258.7c-0.9-0.5-1.7-1.1-2.6-1.7l0.4-0.5c0.8,0.6,1.7,1.1,2.5,1.7L142,258.7z
			 M185.5,257.8l-0.3-0.5c0.8-0.6,1.7-1.2,2.4-1.8l0.4,0.5C187.2,256.7,186.3,257.3,185.5,257.8z M137.1,255.2
			c-0.8-0.7-1.5-1.3-2.3-2.1l0.4-0.4c0.7,0.7,1.5,1.4,2.2,2L137.1,255.2z M190.3,254.1l-0.4-0.4c0.7-0.7,1.5-1.4,2.1-2.1l0.4,0.4
			C191.8,252.6,191,253.4,190.3,254.1z M132.7,250.9c-0.7-0.8-1.3-1.6-1.9-2.4l0.5-0.4c0.6,0.8,1.2,1.6,1.9,2.3L132.7,250.9z
			 M194.5,249.6l-0.5-0.4c0.6-0.8,1.2-1.6,1.8-2.4l0.5,0.3C195.7,248,195.1,248.8,194.5,249.6z M129,246c-0.6-0.9-1.1-1.7-1.6-2.6
			l0.5-0.3c0.5,0.9,1,1.7,1.5,2.6L129,246z M198,244.6l-0.5-0.3c0.5-0.9,1-1.8,1.4-2.7l0.5,0.3C199,242.8,198.5,243.7,198,244.6z
			 M126.1,240.7c-0.4-0.9-0.8-1.9-1.1-2.8l0.6-0.2c0.3,0.9,0.7,1.9,1.1,2.8L126.1,240.7z M200.6,239.1l-0.6-0.2
			c0.4-0.9,0.7-1.9,1-2.8l0.6,0.2C201.4,237.2,201,238.1,200.6,239.1z M124,234.9c-0.3-1-0.5-2-0.7-3l0.6-0.1c0.2,1,0.4,2,0.7,2.9
			L124,234.9z M202.5,233.3l-0.6-0.1c0.2-1,0.4-2,0.6-3l0.6,0.1C202.9,231.3,202.7,232.3,202.5,233.3z M122.9,228.9
			c-0.1-1-0.2-2-0.2-3l0.6,0c0,1,0.1,2,0.2,3L122.9,228.9z M203.4,227.2l-0.6,0c0.1-1,0.1-2,0.1-3h0.6
			C203.5,225.2,203.4,226.2,203.4,227.2z M202.9,223.8c0-1-0.1-2-0.1-3l0.6-0.1c0.1,1,0.1,2,0.1,3.1L202.9,223.8z M123.2,222.9
			l-0.6,0c0-1,0.1-2,0.2-3l0.6,0.1C123.3,220.8,123.2,221.9,123.2,222.9z M202.4,217.8c-0.2-1-0.4-2-0.6-3l0.6-0.1
			c0.2,1,0.4,2,0.6,3L202.4,217.8z M123.8,216.9l-0.6-0.1c0.2-1,0.4-2,0.7-3l0.6,0.2C124.3,214.9,124,215.9,123.8,216.9z M201,211.9
			c-0.3-1-0.7-1.9-1-2.8l0.6-0.2c0.4,0.9,0.7,1.9,1,2.9L201,211.9z M125.4,211.1l-0.6-0.2c0.3-1,0.7-1.9,1.1-2.8l0.6,0.2
			C126.1,209.2,125.7,210.1,125.4,211.1z M198.7,206.3c-0.4-0.9-0.9-1.8-1.4-2.6l0.5-0.3c0.5,0.9,1,1.8,1.5,2.7L198.7,206.3z
			 M127.8,205.5l-0.5-0.3c0.5-0.9,1-1.8,1.5-2.6l0.5,0.3C128.8,203.8,128.3,204.6,127.8,205.5z M195.6,201.2
			c-0.6-0.8-1.2-1.6-1.8-2.4l0.5-0.4c0.6,0.8,1.3,1.6,1.9,2.4L195.6,201.2z M131,200.4l-0.5-0.4c0.6-0.8,1.2-1.6,1.9-2.4l0.5,0.4
			C132.2,198.8,131.6,199.6,131,200.4z M191.8,196.5c-0.7-0.7-1.4-1.4-2.2-2.1l0.4-0.5c0.8,0.7,1.5,1.4,2.2,2.1L191.8,196.5z
			 M134.9,195.9l-0.4-0.4c0.7-0.7,1.5-1.4,2.2-2.1l0.4,0.5C136.4,194.5,135.7,195.2,134.9,195.9z M187.3,192.5
			c-0.8-0.6-1.6-1.2-2.5-1.7l0.3-0.5c0.9,0.6,1.7,1.2,2.5,1.8L187.3,192.5z M139.5,192l-0.4-0.5c0.8-0.6,1.7-1.2,2.5-1.7l0.3,0.5
			C141.2,190.8,140.3,191.4,139.5,192z M182.2,189.2c-0.9-0.5-1.8-0.9-2.7-1.4l0.3-0.6c0.9,0.4,1.8,0.9,2.7,1.4L182.2,189.2z
			 M144.6,188.8l-0.3-0.5c0.9-0.5,1.8-0.9,2.8-1.3l0.2,0.6C146.4,187.9,145.5,188.3,144.6,188.8z M176.7,186.7
			c-0.9-0.3-1.9-0.7-2.9-0.9l0.2-0.6c1,0.3,2,0.6,2.9,0.9L176.7,186.7z M150.2,186.4l-0.2-0.6c1-0.3,1.9-0.6,2.9-0.9l0.2,0.6
			C152.1,185.8,151.1,186.1,150.2,186.4z M171,185.1c-1-0.2-2-0.4-3-0.5l0.1-0.6c1,0.1,2,0.3,3,0.5L171,185.1z M156,184.9l-0.1-0.6
			c1-0.2,2-0.3,3-0.4l0.1,0.6C158,184.6,157,184.8,156,184.9z M165,184.4c-1,0-2-0.1-3,0l0-0.6c1,0,2,0,3.1,0L165,184.4z"/>
		<path class="st2" d="M176.3,56.2l0-0.6c1,0,2-0.1,3-0.2l0.1,0.6C178.4,56.1,177.3,56.2,176.3,56.2z M173.2,56c-1-0.1-2-0.3-3-0.5
			l0.1-0.6c1,0.2,2,0.4,3,0.5L173.2,56z M182.4,55.4l-0.1-0.6c1-0.2,1.9-0.6,2.9-0.9l0.2,0.6C184.4,54.8,183.4,55.1,182.4,55.4z
			 M167.3,54.6c-1-0.4-1.9-0.8-2.8-1.2l0.3-0.5c0.9,0.5,1.8,0.9,2.7,1.2L167.3,54.6z M188.1,53.2l-0.3-0.5c0.9-0.5,1.7-1,2.6-1.6
			l0.3,0.5C189.9,52.2,189,52.7,188.1,53.2z M161.8,51.8c-0.8-0.6-1.7-1.2-2.4-1.9l0.4-0.5c0.8,0.7,1.6,1.3,2.4,1.8L161.8,51.8z
			 M193.1,49.7l-0.4-0.5c0.7-0.7,1.5-1.4,2.1-2.1l0.5,0.4C194.6,48.3,193.9,49,193.1,49.7z M157.2,47.8c-0.7-0.8-1.3-1.6-1.9-2.4
			l0.5-0.4c0.6,0.8,1.2,1.6,1.9,2.3L157.2,47.8z M197.2,45.1l-0.5-0.3c0.6-0.8,1.1-1.7,1.5-2.6l0.5,0.3
			C198.3,43.3,197.7,44.2,197.2,45.1z M153.6,42.8c-0.5-0.9-0.9-1.8-1.3-2.8l0.6-0.2c0.4,0.9,0.8,1.8,1.3,2.7L153.6,42.8z M200,39.6
			l-0.6-0.2c0.4-0.9,0.6-1.9,0.9-2.9l0.6,0.1C200.7,37.7,200.4,38.7,200,39.6z M151.3,37.2c-0.3-1-0.5-2-0.6-3l0.6-0.1
			c0.1,1,0.3,2,0.6,2.9L151.3,37.2z M201.5,33.7l-0.6-0.1c0.1-1,0.2-2,0.2-3c0-0.3,0-0.6,0-0.9l0.6,0c0,0.3,0,0.6,0,0.9
			C201.6,31.6,201.6,32.7,201.5,33.7z M150.5,31.1c0-0.2,0-0.3,0-0.5c0-0.9,0-1.7,0.1-2.6l0.6,0.1c-0.1,0.8-0.1,1.7-0.1,2.5
			c0,0.2,0,0.3,0,0.5L150.5,31.1z M200.7,26.7c-0.2-1-0.4-2-0.6-2.9l0.6-0.2c0.3,1,0.5,2,0.7,3L200.7,26.7z M151.7,25.1l-0.6-0.1
			c0.2-1,0.5-2,0.9-3l0.6,0.2C152.2,23.2,151.9,24.1,151.7,25.1z M199.1,21c-0.4-0.9-0.8-1.8-1.3-2.7l0.5-0.3c0.5,0.9,1,1.8,1.4,2.8
			L199.1,21z M153.7,19.5l-0.5-0.3c0.5-0.9,1-1.8,1.5-2.7l0.5,0.3C154.7,17.7,154.2,18.6,153.7,19.5z M196.1,15.8
			c-0.6-0.8-1.2-1.6-1.9-2.3l0.4-0.4c0.7,0.7,1.4,1.5,2,2.4L196.1,15.8z M157,14.5l-0.5-0.4c0.7-0.8,1.4-1.5,2.1-2.2l0.4,0.4
			C158.4,13,157.7,13.7,157,14.5z M192,11.4c-0.8-0.6-1.6-1.2-2.4-1.8l0.3-0.5c0.9,0.6,1.7,1.2,2.5,1.8L192,11.4z M161.4,10.4
			l-0.4-0.5c0.8-0.6,1.7-1.2,2.6-1.7l0.3,0.5C163.1,9.3,162.2,9.8,161.4,10.4z M187,8.2c-0.9-0.4-1.8-0.8-2.8-1.2l0.2-0.6
			c1,0.3,1.9,0.7,2.8,1.2L187,8.2z M166.6,7.5l-0.2-0.6c0.9-0.4,1.9-0.7,2.9-1l0.2,0.6C168.5,6.8,167.6,7.1,166.6,7.5z M181.3,6.2
			c-1-0.2-2-0.4-3-0.5l0.1-0.6c1,0.1,2,0.2,3,0.5L181.3,6.2z M172.4,5.9l-0.1-0.6c1-0.1,2-0.2,3.1-0.3l0,0.6
			C174.4,5.7,173.4,5.8,172.4,5.9z"/>
		<path class="st2" d="M28,155.2c-4.9,0-8.8-3.9-8.8-8.8c0-4.9,3.9-8.8,8.8-8.8s8.8,3.9,8.8,8.8C36.8,151.3,32.8,155.2,28,155.2z
			 M28,138.8c-4.2,0-7.6,3.4-7.6,7.6c0,4.2,3.4,7.6,7.6,7.6s7.6-3.4,7.6-7.6C35.6,142.2,32.2,138.8,28,138.8z"/>
	</g>
	<g>
		<g>
			<rect x="70.1" y="42.1" class="st1" width="252.3" height="186.6"/>
			<path class="st2" d="M323.1,229.3H69.5V41.5h253.5V229.3z M70.7,228.1h251.1V42.7H70.7V228.1z"/>
		</g>
		<g>
			<rect x="87.6" y="168.1" class="st0" width="20.6" height="39.9"/>
			<rect x="120.4" y="148.2" class="st0" width="20.6" height="59.9"/>
			<rect x="153.2" y="107.1" class="st0" width="20.6" height="101"/>
			<rect x="186" y="136.2" class="st0" width="20.6" height="71.8"/>
			<rect x="218.8" y="104.6" class="st0" width="20.6" height="103.4"/>
			<rect x="251.5" y="110" class="st0" width="20.6" height="98"/>
			<rect x="284.3" y="74.2" class="st0" width="20.6" height="133.9"/>
			<polygon class="st4" points="93.8,192.2 93.3,191.1 127.8,173.5 163.3,125.1 195.9,159.2 229.3,125.7 261.8,129.7 294.4,92.3 
				295.3,93.1 262.3,130.9 229.8,127 195.9,160.9 163.4,127 128.6,174.5 			"/>
		</g>
		<rect x="145.5" y="65.1" class="st4" width="101.6" height="1.2"/>
		<rect x="179.8" y="78.5" class="st4" width="33" height="1.2"/>
	</g>
	<g>
		<g>
			<path class="st4" d="M66,230.3c2-10.4,0.7-21.5-3.6-31.2c-4.3-9.6-11.6-17.7-20.5-22.6c4.5,5.7,5.7,13.5,6.1,20.9
				c0.5,7.4,0.4,15.1,3.1,21.9c2.7,6.9,9,12.8,16,11.9L66,230.3z"/>
			<path class="st4" d="M66.2,233c-2-10.4-0.7-21.5,3.6-31.2c4.3-9.6,11.6-17.7,20.5-22.6c-4.5,5.7-5.7,13.5-6.1,20.9
				c-0.5,7.4-0.4,15.1-3.1,21.9c-2.7,6.9-9,12.8-16,11.9L66.2,233z"/>
			<path class="st0" d="M58.2,228c-4.5-7.5-5.7-17-3.3-25.5c2.4-8.5,8.5-15.6,16.2-19.1c-1.6,10.7,6.3,21,4.9,31.7
				c-0.9,6.9-6.1,13-12.5,14.6L58.2,228z"/>
			<path class="st2" d="M61.5,242.3c0-10.6,3.6-21.3,10.3-29.8c6.6-8.5,16.2-14.9,26.8-17.9c-6,4.7-8.9,12.1-10.9,19.3
				c-2,7.2-3.5,14.7-7.9,20.9c-4.3,6.2-12.4,10.7-19.8,8.4L61.5,242.3z"/>
			<path class="st2" d="M64.8,242.9c0-10.6-3.3-21.3-9.4-29.8c-6.1-8.5-14.9-14.9-24.6-17.9c5.5,4.7,8.2,12.1,10,19.3
				c1.8,7.2,3.2,14.7,7.2,20.9c4,6.2,11.4,10.7,18.2,8.4L64.8,242.9z"/>
		</g>
		<g>
			<polygon class="st1" points="82.7,279.3 44.2,279.3 37.6,239.2 89.3,239.2 			"/>
			<path class="st2" d="M83.1,279.7H43.8l-6.8-41h52.8L83.1,279.7z M44.6,278.8h37.7l6.5-39.1H38.2L44.6,278.8z"/>
		</g>
	</g>
	<g>
		<g>
			<rect x="16.4" y="33.1" class="st1" width="117.2" height="92.1"/>
			<path class="st2" d="M134.3,125.8H15.8V32.5h118.4V125.8z M17.1,124.6h116V33.7h-116V124.6z"/>
		</g>
		<g>
			<g>
				<rect x="32.4" y="48.2" class="st0" width="26.4" height="15"/>
				<g>
					<rect x="69.9" y="49.7" class="st2" width="48.1" height="0.6"/>
					<rect x="69.9" y="55.4" class="st0" width="48.1" height="0.6"/>
					<rect x="69.9" y="61.1" class="st0" width="48.1" height="0.6"/>
				</g>
			</g>
			<g>
				<g>
					<rect x="44.8" y="93" class="st0" width="5.5" height="17.1"/>
					<rect x="50.3" y="84.7" class="st2" width="5.5" height="25.4"/>
				</g>
				<g>
					<rect x="65.4" y="81.8" class="st0" width="5.5" height="28.2"/>
					<rect x="70.9" y="99.6" class="st2" width="5.5" height="10.4"/>
				</g>
				<g>
					<rect x="86" y="90.6" class="st0" width="5.5" height="19.5"/>
					<rect x="91.5" y="86.3" class="st2" width="5.5" height="23.8"/>
				</g>
				<g>
					<rect x="106.6" y="96.4" class="st0" width="5.5" height="13.6"/>
					<rect x="112.1" y="77.5" class="st2" width="5.5" height="32.5"/>
				</g>
			</g>
			<polygon class="st2" points="117.6,110.3 32.6,110.3 32.6,76 33.3,76 33.3,109.7 117.6,109.7 			"/>
		</g>
	</g>
	<g>
		<g>
			<g>
				<g>
					<polygon class="st5" points="360.4,262.8 364.1,279.1 339.3,279.1 349.6,270.1 348.9,262.1 					"/>
					
						<rect x="351.2" y="269.2" transform="matrix(0.6433 -0.7656 0.7656 0.6433 -82.7053 366.2134)" class="st6" width="0.9" height="5.4"/>
				</g>
				<g>
					<polygon class="st5" points="311.7,262.6 313.5,279.1 287,279.1 299.1,270.1 299.1,262 					"/>
					
						<rect x="300.7" y="269.2" transform="matrix(0.6433 -0.7656 0.7656 0.6433 -100.7324 327.5175)" class="st6" width="0.9" height="5.4"/>
				</g>
				<path class="st4" d="M364.8,264.8l-3.9,0.1l-11.7,0.2l-6.5,0.1c-6.4-22-12.3-43.6-17.2-64c-1-4-1.9-8-2.7-11.9
					c-3.2-14.5-5.8-28.2-7.4-41c-0.4-2.7-0.7-5.4-0.9-8.1c-0.2-2.1-0.4-4.2-0.5-6.2l29.1,4.9c0.3,2.8,0.6,5.5,0.9,8.3
					C348.3,184.8,355.8,224.3,364.8,264.8z"/>
				<path class="st4" d="M327.5,137.9l-0.9,9.9l-3.7,39.9l-0.1,1.5l-7.1,75.6h-21.8c0.4-43.7,1.9-85.3,7.6-116
					c0.4-2.3,0.9-4.5,1.3-6.6l11.6-2L327.5,137.9z"/>
				
					<rect x="321.5" y="160.7" transform="matrix(0.9816 -0.1907 0.1907 0.9816 -28.8862 64.7313)" class="st5" width="0.6" height="43.5"/>
				<path class="st7" d="M343.9,147.1l-17.3,0.7l-11.3,0.4l-13.8,0.5c0.4-2.3,0.9-4.5,1.3-6.6l11.6-2c-0.2-2.1-0.4-4.2-0.5-6.2
					l29.1,4.9C343.3,141.6,343.6,144.3,343.9,147.1z"/>
			</g>
			<g>
				<path class="st8" d="M311.5,92.4l11.2-1.4l23.3,4.9l0.1,42c0,1.2-0.5,2.3-1.3,3l0,0c-0.8,0.7-1.8,1.1-2.8,1.1l-39.1,0.1
					l-7.5-22.7l7.3-21.5L311.5,92.4z"/>
				<path class="st5" d="M325.4,101.6c-2.4,0-4.7-0.9-6.6-2.6l0.3-0.3c3.5,3.3,8.9,3.3,13,0l0.3,0.4
					C330.3,100.7,327.8,101.6,325.4,101.6z"/>
				<g>
					<path class="st8" d="M350.4,99c-0.9-3.8-4-6.7-7.9-7.3l-14.9-2l9,15.4l2.8,9.6l14-2L350.4,99z"/>
					<path class="st9" d="M356.4,129.2c-0.4,5.2-3.5,7.4-7.5,8.3c-4.2,0.9-9.2,0.5-13.1,0.5c-6.3,0-12.6-0.3-18.8-0.6l-15.9,0.2
						l-1.8-2.8c2.1-2.9,7.7-6.8,17.5-4.5l25.5-5.8l-2.8-9.8l14-2l2.9,13C356.4,127,356.5,128.2,356.4,129.2z"/>
				</g>
				<g>
					<polygon class="st9" points="288,118.6 298,131.2 299.9,131.7 301.4,117 291.1,112.2 					"/>
					<path class="st8" d="M321.4,89.6l-14.6,2.3c-4,0.6-7.5,3.2-9.3,6.9l-6.4,13.3l10.3,4.8l1.1-10.5L321.4,89.6z"/>
				</g>
				<path class="st10" d="M356.4,129.2c-0.4,5.2-3.5,7.4-7.5,8.3c-0.8-1-1.3-2.2-1.3-3.6c0-3.1,2.5-5.7,5.7-5.7
					C354.4,128.3,355.5,128.6,356.4,129.2z"/>
				
					<rect x="286.6" y="120.4" transform="matrix(0.1125 -0.9937 0.9937 0.1125 147.1569 405.9888)" class="st5" width="28.5" height="0.5"/>
				
					<rect x="339.2" y="104.7" transform="matrix(0.9607 -0.2777 0.2777 0.9607 -18.5377 98.7645)" class="st5" width="0.5" height="20.2"/>
			</g>
			<g>
				<path class="st5" d="M330.9,56.4c-0.1-1,0-2.1,0.3-3.1c0.3-1,1-1.9,1.9-2.5c0.5-0.3,1-0.5,1.5-0.5c0.5-0.1,1.1-0.1,1.6,0
					c1.1,0.1,2.1,0.5,3,1.1c0.9,0.6,1.6,1.4,2.1,2.3c0.5,1,0.6,2.1,0.3,3.1c-0.3,1-0.9,1.9-1.6,2.7c-0.7,0.7-1.6,1.4-2.4,1.9
					l-0.1-0.1c0.8-0.6,1.6-1.2,2.3-2c0.7-0.7,1.2-1.6,1.5-2.6c0.2-0.9,0.2-2-0.3-2.8c-0.4-0.9-1.1-1.6-2-2.1c-0.8-0.5-1.8-0.9-2.8-1
					c-1-0.1-2,0-2.8,0.5c-0.9,0.5-1.5,1.3-1.8,2.3c-0.2,0.5-0.3,1-0.3,1.5c-0.1,0.5-0.1,1-0.1,1.5L330.9,56.4z"/>
				<circle class="st5" cx="335.9" cy="56.6" r="4.9"/>
				<path class="st5" d="M339.5,83.6l-2.6-4l1,4.4l-9,2.4L312,87l1.4-13.4c-4.3-2.1-7.4-15.8,9-18.1c3-0.4,6-0.2,8.8,1
					c8.4,3.6,11.3,13,12.1,26.1L339.5,83.6z"/>
				<path class="st9" d="M325.5,97.8L325.5,97.8c-3.7,0-6.6-3-6.6-6.6V76.8h13.2v14.3C332.1,94.8,329.1,97.8,325.5,97.8z"/>
				<path class="st5" d="M327.8,82.8c-1.4,4.2-4.7,6.1-9,7.2v-6.2L327.8,82.8z"/>
				<path class="st9" d="M331.8,62.9l-0.4,18.6c0,0-7.8,5.7-13.3,4c-1.8-0.5-3.1-2.6-3.9-5.2c-0.4-1.2-0.7-2.6-1-3.9
					c-0.9-4.9-0.8-9.9-0.8-9.9L331.8,62.9z"/>
				<path class="st5" d="M315.8,74.3c0,0.6-0.3,1-0.7,1c-0.4,0-0.7-0.4-0.7-1c0-0.6,0.3-1,0.7-1C315.5,73.3,315.8,73.8,315.8,74.3z"
					/>
				<ellipse class="st5" cx="320.7" cy="73.9" rx="0.8" ry="1.2"/>
				<path class="st5" d="M323.4,71.5c0,0.3-1,0.3-2,0.2c-1.1-0.2-2-0.1-1.8-0.8c0.1-0.6,1-0.5,2-0.3
					C322.7,70.7,323.5,71.3,323.4,71.5z"/>
				<path class="st5" d="M313.1,72.2c0,0.3,0.8,0.3,1.7,0c0.9-0.3,1.7-0.3,1.5-1c-0.1-0.6-0.8-0.4-1.7-0.2
					C313.7,71.3,313.1,71.9,313.1,72.2z"/>
				<path class="st10" d="M327.1,76.3c0,1.2-1,2.2-2.2,2.2c-1.2,0-2.2-1-2.2-2.2s1-2.2,2.2-2.2C326.1,74.1,327.1,75.1,327.1,76.3z"
					/>
				<path class="st10" d="M315.2,78.5c0,0.8-0.4,1.4-1,1.8c-0.4-1.2-0.7-2.6-1-3.9C314.3,76.5,315.2,77.4,315.2,78.5z"/>
				<path class="st5" d="M317.5,75.2c0,0.2,0,0.4-0.1,0.6c-0.1,0.2-0.2,0.3-0.3,0.5c-0.2,0.3-0.4,0.5-0.4,0.7c0,0.1,0,0.2,0,0.3
					c0,0.1,0.1,0.2,0.2,0.3c0.2,0.2,0.5,0.3,0.8,0.4l0,0.2c-0.4,0-0.7,0-1.1-0.3c-0.2-0.1-0.3-0.3-0.4-0.5c-0.1-0.2-0.1-0.4,0-0.7
					c0.1-0.4,0.4-0.7,0.6-0.9c0.2-0.2,0.4-0.4,0.5-0.7L317.5,75.2z"/>
				<path class="st1" d="M317,80.1c0.8,2.5,4.2,1.3,4.5-1.1L317,80.1z"/>
				<path class="st5" d="M311.8,69.4c5.7,0,10.5-0.5,15-2.7c0.5,3.7,2.1,5.5,4.2,6.5l4.6-3.8l-2.4-7.7l-12.4-0.7l-9.6,4.8
					L311.8,69.4z"/>
				<g>
					
						<ellipse transform="matrix(0.5754 -0.8179 0.8179 0.5754 80.3023 303.4737)" class="st9" cx="332.4" cy="74.4" rx="3.9" ry="2.7"/>
					<path class="st5" d="M331.4,75.7c-0.1-0.3-0.1-0.6-0.1-1c0-0.3,0.2-0.7,0.4-1c0.2-0.3,0.5-0.5,0.8-0.7c0.3-0.1,0.7-0.2,1-0.2
						l0,0.2c-0.3,0.1-0.5,0.3-0.8,0.4c-0.2,0.2-0.4,0.3-0.6,0.5c-0.2,0.2-0.3,0.5-0.3,0.7c-0.1,0.3-0.1,0.6-0.2,0.9L331.4,75.7z"/>
				</g>
				<path class="st8" d="M337.4,61.3c-0.6-0.4-1.2-0.8-1.7-1.2l-1.5-1.3c-0.5-0.4-1-0.8-1.5-1.2c-0.5-0.4-1.1-0.8-1.7-1.2
					c0.7-0.1,1.5,0.1,2.1,0.4c0.7,0.3,1.3,0.7,1.8,1.1c0.5,0.5,1,1,1.5,1.5C336.8,60,337.2,60.6,337.4,61.3z"/>
			</g>
			<g>
				<g>
					<rect x="299.8" y="137.5" class="st5" width="16.1" height="4.8"/>
					<polygon class="st6" points="304.9,142.3 268.5,142.3 252.5,107.7 288.9,107.7 					"/>
				</g>
				<g>
					<path class="st9" d="M291.4,140.7c-0.9,0.2-1.4,0.9-1.4,1.7v-3.8c0-0.8-0.5-1.5-1.3-1.5c-0.9-0.1-1.6,0.6-1.6,1.4V137
						c0-0.8-0.6-1.5-1.3-1.5c-0.9-0.1-1.6,0.6-1.6,1.5v1.6c0-0.8-0.8-1.5-1.6-1.4c-0.8,0.1-1.3,0.8-1.3,1.5l0,3
						c0-0.8-0.6-1.7-1.4-1.8c-1.6-0.2-1.3,2.7-1.3,2.7c0.5,2.9,1.3,3.2,3.1,3.3c2.7,0.2,5.5,0.2,8.2,0c1.7-0.1,2-0.3,2.8-2.9
						C292.9,141.9,292.7,140.5,291.4,140.7z"/>
					<g>
						<path class="st11" d="M281.3,139.6c0.1,0.6,0.2,1.2,0.2,1.8c0,0.3,0,0.6,0,0.9c0,0.3,0,0.6-0.1,0.9l-0.2,0
							c-0.1-0.3-0.1-0.6-0.1-0.9c0-0.3,0-0.6-0.1-0.9c0-0.6,0-1.2,0.1-1.9L281.3,139.6z"/>
						<path class="st11" d="M284.3,138.5c0.1,0.7,0.2,1.3,0.2,2c0,0.3,0,0.7,0,1c0,0.3,0,0.7-0.1,1l-0.2,0c-0.1-0.3-0.1-0.7-0.1-1
							c0-0.3,0-0.7-0.1-1c0-0.7,0-1.3,0.1-2L284.3,138.5z"/>
						<path class="st11" d="M287.2,138.5c0.1,0.6,0.2,1.2,0.2,1.9c0,0.3,0,0.6,0,0.9c0,0.3,0,0.6-0.1,0.9l-0.2,0
							c-0.1-0.3-0.1-0.6-0.2-0.9c0-0.3-0.1-0.6-0.1-0.9c0-0.6,0-1.2,0.1-1.9L287.2,138.5z"/>
						<path class="st11" d="M291,140.9c-0.1,0.2-0.2,0.4-0.3,0.6c-0.1,0.2-0.2,0.4-0.3,0.7c-0.1,0.2-0.2,0.5-0.3,0.7
							c-0.1,0.2-0.2,0.5-0.3,0.7l-0.2,0c0-0.3,0-0.5,0.1-0.8c0.1-0.2,0.1-0.5,0.2-0.7c0.1-0.2,0.2-0.5,0.3-0.7
							c0.1-0.2,0.3-0.4,0.6-0.6L291,140.9z"/>
					</g>
				</g>
			</g>
		</g>
		<g>
			<g>
				<polygon class="st1" points="366.6,63 366.6,79.7 358.9,85.1 366.6,85.1 395.2,85.1 395.2,63 				"/>
				<path class="st2" d="M395.5,85.4H358l8.3-5.9V62.7h29.2V85.4z M359.9,84.8h35V63.3h-28v16.5L359.9,84.8z"/>
			</g>
			<polygon class="st2" points="380.5,79.9 375.9,75.5 376.7,74.6 380.2,78 386.2,67 387.3,67.6 			"/>
		</g>
	</g>
	<rect x="3.8" y="279.8" class="st5" width="392.5" height="0.9"/>
</g>
</svg>
