<?xml version="1.0" encoding="utf-8"?>
<!-- Generator: Adobe Illustrator 27.0.0, SVG Export Plug-In . SVG Version: 6.00 Build 0)  -->
<svg version="1.1" id="Layer_1" xmlns="http://www.w3.org/2000/svg" xmlns:xlink="http://www.w3.org/1999/xlink" x="0px" y="0px"
	 viewBox="0 0 770 512" style="enable-background:new 0 0 770 512;" xml:space="preserve">
<style type="text/css">
	.st0{fill:#F3F6FD;}
	.st1{fill:#E4ECF9;}
	.st2{fill:#64D3FF;}
	.st3{fill:#FE4C40;}
	.st4{fill:#71C687;}
	.st5{fill:#D6D4F6;}
	.st6{fill:#3A4146;}
	.st7{fill:#FCC230;}
	.st8{fill:#D1DCF8;}
	.st9{fill:#FFFFFF;}
	.st10{fill:#FFAB90;}
	.st11{fill:#EE984F;}
	.st12{fill:#FFCF3D;}
	.st13{fill:#42C1F4;}
	.st14{fill:#FEC9AC;}
	.st15{opacity:0.5;}
	.st16{fill:#2E363A;}
	.st17{fill:#8D7EA3;}
	.st18{fill:#7E6A9D;}
	.st19{fill:#4F2D2A;}
	.st20{fill:#4A5258;}
	.st21{fill:#FFD964;}
	.st22{fill:#FFC536;}
	.st23{fill:#FFB612;}
	.st24{fill:#20154F;}
	.st25{fill:#BBCAEA;}
	.st26{fill:#EBF2FF;}
</style>
<g>
	<g id="Sale_Forecasting">
		<g>
			<g>
				<g>
					<g>
						<g>
							<path class="st0" d="M499.5,396.7V44.6H154.1v352.1c0,7.4,6,13.4,13.4,13.4h318.6C493.5,410.1,499.5,404.1,499.5,396.7z"/>
						</g>
						<g>
							<path class="st1" d="M387,184H263.8c-26.6,0-48.2-21.6-48.2-48.2v-16.7c0-26.6,21.6-48.2,48.2-48.2H387
								c26.6,0,48.2,21.6,48.2,48.2v16.7C435.1,162.4,413.6,184,387,184z"/>
						</g>
						<g>
							<path class="st1" d="M499.5,44.6V25.6c0-5.2-4.2-9.4-9.4-9.4H163.5c-5.2,0-9.4,4.2-9.4,9.4v19.1H499.5z"/>
						</g>
					</g>
					<g>
						<g>
							<circle class="st2" cx="479.6" cy="31.5" r="5.7"/>
						</g>
						<g>
							<circle class="st3" cx="459.6" cy="31.5" r="5.7"/>
						</g>
						<g>
							<circle class="st4" cx="439.6" cy="31.5" r="5.7"/>
						</g>
					</g>
				</g>
				<g>
					<g>
						<g>
							<g>
								<rect x="201.4" y="351.1" class="st5" width="3.5" height="44.3"/>
							</g>
						</g>
						<g>
							<g>
								<rect x="244.7" y="335.3" class="st5" width="3.5" height="60"/>
							</g>
						</g>
						<g>
							<g>
								<rect x="288.1" y="319.6" class="st5" width="3.5" height="75.8"/>
							</g>
						</g>
						<g>
							<g>
								<rect x="331.5" y="303.8" class="st5" width="3.5" height="91.6"/>
							</g>
						</g>
						<g>
							<g>
								<rect x="374.9" y="288" class="st5" width="3.5" height="107.3"/>
							</g>
						</g>
						<g>
							<g>
								<rect x="418.2" y="272.2" class="st5" width="3.5" height="123.1"/>
							</g>
						</g>
						<g>
							<g>
								<rect x="461.6" y="256.5" class="st5" width="3.5" height="138.9"/>
							</g>
						</g>
					</g>
					<g>
						<g>
							<path class="st6" d="M268.4,382c-0.8,0-1.6,0-2.4-0.1c-10.7-0.5-20.8-4.4-30.6-8.2l-0.8-0.3c-10.7-4.1-20.3-7.5-30.3-7.5
								c0,0,0,0-0.1,0c-11.2,0-21.3,5.1-25.8,13.1c-0.5,0.8-1.5,1.2-2.4,0.7c-0.8-0.5-1.2-1.5-0.7-2.4c6.1-10.9,18.9-14.9,28.8-14.9
								c0,0,0,0,0.1,0c10.6,0,20.6,3.5,31.6,7.8l0.8,0.3c9.5,3.7,19.4,7.5,29.5,8c20.2,1,38.8-11.1,56-24.3l2.7-2
								c16.2-12.6,33-25.5,53.4-28.2c10.4-1.4,21.1,0.1,31.5,1.6c14.5,2,28.2,4,40.9-1.4c10-4.2,18.9-13.3,24.9-25.5
								c5.5-11.1,7.1-18.5,9.8-30.8c0.2-0.9,1.2-1.5,2.1-1.3c0.9,0.2,1.5,1.1,1.3,2.1c-2.7,12.1-4.5,20.1-10.1,31.6
								c-6.4,13-15.8,22.6-26.6,27.2c-13.6,5.7-28.4,3.7-42.7,1.6c-10.1-1.4-20.6-2.9-30.5-1.6c-19.4,2.5-35.9,15.2-51.7,27.5
								l-2.7,2.1C307.2,369.9,288.8,382,268.4,382z"/>
						</g>
					</g>
					<g>
						<g>
							<circle class="st3" cx="420" cy="326.5" r="7.7"/>
						</g>
					</g>
					<g>
						<g>
							<circle class="st7" cx="378.2" cy="322.9" r="7.7"/>
						</g>
					</g>
					<g>
						<g>
							<circle class="st3" cx="333.2" cy="346.4" r="7.7"/>
						</g>
					</g>
					<g>
						<g>
							<circle class="st7" cx="289.9" cy="375.6" r="7.7"/>
						</g>
					</g>
					<g>
						<g>
							<circle class="st2" cx="246.5" cy="375.6" r="7.7"/>
						</g>
					</g>
					<g>
						<g>
							<circle class="st2" cx="203.1" cy="362.3" r="7.7"/>
						</g>
					</g>
				</g>
				<g>
					<g>
						<g>
							<g>
								<polygon class="st1" points="209.8,283.5 200.3,283.5 200.3,274 202.4,274 202.4,281.4 209.8,281.4 								"/>
							</g>
						</g>
						<g>
							<g>
								<rect x="200.3" y="232.1" class="st1" width="2.1" height="20.9"/>
							</g>
						</g>
						<g>
							<g>
								<polygon class="st1" points="202.4,211.2 200.3,211.2 200.3,201.7 209.8,201.7 209.8,203.8 202.4,203.8 								"/>
							</g>
						</g>
						<g>
							<g>
								<path class="st1" d="M305.3,203.8h-15.9v-2.1h15.9V203.8z M273.4,203.8h-15.9v-2.1h15.9V203.8z M241.6,203.8h-15.9v-2.1
									h15.9V203.8z"/>
							</g>
						</g>
						<g>
							<g>
								<polygon class="st1" points="330.7,211.2 328.6,211.2 328.6,203.8 321.2,203.8 321.2,201.7 330.7,201.7 								"/>
							</g>
						</g>
						<g>
							<g>
								<rect x="328.6" y="232.1" class="st1" width="2.1" height="20.9"/>
							</g>
						</g>
						<g>
							<g>
								<polygon class="st1" points="330.7,283.5 321.2,283.5 321.2,281.4 328.6,281.4 328.6,274 330.7,274 								"/>
							</g>
						</g>
						<g>
							<g>
								<path class="st1" d="M305.3,283.5h-15.9v-2.1h15.9V283.5z M273.4,283.5h-15.9v-2.1h15.9V283.5z M241.6,283.5h-15.9v-2.1
									h15.9V283.5z"/>
							</g>
						</g>
					</g>
					<g>
						
							<rect x="234.1" y="186.9" transform="matrix(-1.836970e-16 1 -1 -1.836970e-16 508.0914 -22.8899)" class="st1" width="62.8" height="111.4"/>
					</g>
					<g>
						<path class="st8" d="M294.8,219.2h-58.6c-1.9,0-3.4,1.5-3.4,3.4v40.1c0,0.7,0.2,1.4,0.6,1.9c0.6,0.9,1.7,1.5,2.8,1.5h58.6
							c1.9,0,3.4-1.6,3.4-3.4v-40.1C298.2,220.7,296.6,219.2,294.8,219.2z M234.3,222.6c0-1.1,0.9-1.9,1.9-1.9h58.6
							c1.1,0,1.9,0.9,1.9,1.9v26.3L283,235.2l-20.6,20.6l-9.5-9.5l-17.8,17.8c-0.5-0.3-0.8-0.9-0.8-1.5V222.6z"/>
					</g>
					<g>
						<circle class="st8" cx="252.6" cy="234.2" r="4.2"/>
					</g>
				</g>
				<g>
					<path class="st9" d="M379.3,170.1H256.2c-26.6,0-48.2-21.6-48.2-48.2v-16.7c0-26.6,21.6-48.2,48.2-48.2h123.2
						c26.6,0,48.2,21.6,48.2,48.2V122C427.5,148.6,405.9,170.1,379.3,170.1z"/>
				</g>
				<g>
					<path class="st8" d="M417.3,129.8c0,0.7-0.3,1.4-0.8,1.9c-0.5,0.5-1.2,0.8-1.9,0.8h-80.1c-1.5,0-2.7-1.2-2.7-2.7
						c0-1.5,1.2-2.7,2.7-2.7h80.1C416.1,127.1,417.3,128.3,417.3,129.8z"/>
				</g>
				<g>
					<path class="st8" d="M377.1,146.9c0,1.5-1.2,2.7-2.7,2.7h-39.9c-0.7,0-1.4-0.3-1.9-0.8c-0.5-0.5-0.8-1.2-0.8-1.9
						c0-1.5,1.2-2.7,2.7-2.7h39.9C375.8,144.2,377.1,145.4,377.1,146.9z"/>
				</g>
				<g>
					<path class="st8" d="M417.3,112.6c0,0.7-0.3,1.4-0.8,1.9c-0.5,0.5-1.2,0.8-1.9,0.8h-80.1c-1.5,0-2.7-1.2-2.7-2.7
						c0-1.5,1.2-2.7,2.7-2.7h80.1C416.1,109.9,417.3,111.1,417.3,112.6z"/>
				</g>
				<g>
					<path class="st8" d="M417.3,95.5c0,0.7-0.3,1.4-0.8,1.9c-0.5,0.5-1.2,0.8-1.9,0.8h-80.1c-1.5,0-2.7-1.2-2.7-2.7
						c0-0.7,0.3-1.4,0.8-1.9c0.5-0.5,1.2-0.8,1.9-0.8h80.1C416.1,92.8,417.3,94,417.3,95.5z"/>
				</g>
				<g>
					<path class="st8" d="M331.8,78.4c0-0.7,0.3-1.4,0.8-1.9c0.5-0.5,1.2-0.8,1.9-0.8h80.1c1.5,0,2.7,1.2,2.7,2.7
						c0,0.7-0.3,1.4-0.8,1.9c-0.5,0.5-1.2,0.8-1.9,0.8h-80.1C333,81.1,331.8,79.9,331.8,78.4z"/>
				</g>
				<g>
					<g>
						<path class="st8" d="M288.5,71.9c-9.5-4.2-20.6-4.8-31.1-1c-21.6,8-32.7,31.9-24.8,53.6c8,21.6,31.9,32.7,53.6,24.8
							c9.5-3.5,17-10.1,21.7-18.3l-36.1-20.9L288.5,71.9z"/>
					</g>
					<g>
						<path class="st4" d="M320.3,90.3c-4.1-11.1-12.4-19.4-22.4-23.8l-16.7,38.2L320.3,90.3z"/>
					</g>
					<g>
						<path class="st2" d="M321.5,96.6L282.4,111l36.1,20.9l0,0C324.5,121.5,326,108.7,321.5,96.6z"/>
					</g>
				</g>
				<g>
					<g>
						<path class="st1" d="M565.1,85.5v127.8c0,2.5-2,4.5-4.5,4.5H450.1c-2.5,0-4.5-2-4.5-4.5V85.5c0-2.5,2-4.5,4.5-4.5h110.5
							C563.1,81,565.1,83,565.1,85.5z"/>
					</g>
					<g>
						<path class="st1" d="M445.6,71.6L445.6,71.6c0,2.1,1.7,3.9,3.9,3.9h111.7c2.1,0,3.9-1.7,3.9-3.9v0c0-2.1-1.7-3.9-3.9-3.9
							H449.5C447.3,67.7,445.6,69.5,445.6,71.6z"/>
					</g>
					<g>
						<g>
							<g>
								<rect x="458.5" y="194" class="st10" width="7.9" height="14.7"/>
							</g>
						</g>
						<g>
							<g>
								<rect x="472.8" y="178.5" class="st4" width="7.9" height="30.2"/>
							</g>
						</g>
						<g>
							<g>
								<rect x="487.1" y="187.2" class="st11" width="7.9" height="21.4"/>
							</g>
						</g>
						<g>
							<g>
								<rect x="501.4" y="172.6" class="st12" width="7.9" height="36.1"/>
							</g>
						</g>
						<g>
							<g>
								<rect x="515.6" y="164.9" class="st13" width="7.9" height="43.8"/>
							</g>
						</g>
						<g>
							<g>
								<rect x="529.9" y="180.4" class="st4" width="7.9" height="28.2"/>
							</g>
						</g>
						<g>
							<g>
								<rect x="544.2" y="154.1" class="st3" width="7.9" height="54.6"/>
							</g>
						</g>
					</g>
					<g>
						<path class="st6" d="M461,177.8c-0.3,0-0.6-0.1-0.8-0.3c-0.4-0.4-0.4-1.2,0-1.6L479,158c0.3-0.3,0.7-0.4,1-0.3l18.1,4.4
							l17.5-20.7c0.2-0.3,0.6-0.4,1-0.4l14.9,1.6l13.3-17c0.1-0.2,0.3-0.3,0.6-0.4l8.5-2.6c0.6-0.2,1.2,0.2,1.4,0.8
							c0.2,0.6-0.2,1.2-0.8,1.4l-8.2,2.5l-13.4,17.2c-0.2,0.3-0.6,0.5-1,0.4l-14.9-1.6l-17.5,20.7c-0.3,0.3-0.7,0.5-1.1,0.4
							l-18.2-4.4l-18.3,17.5C461.5,177.7,461.2,177.8,461,177.8z"/>
					</g>
					<g>
						<circle class="st9" cx="461" cy="176.7" r="2.3"/>
					</g>
					<g>
						<circle class="st9" cx="479.6" cy="158.8" r="2.3"/>
					</g>
					<g>
						<circle class="st9" cx="498.7" cy="163" r="2.3"/>
					</g>
					<g>
						<circle class="st9" cx="516.5" cy="142.3" r="2.3"/>
					</g>
					<g>
						<circle class="st9" cx="532.1" cy="144" r="2.3"/>
					</g>
					<g>
						<circle class="st9" cx="554.4" cy="123.8" r="2.3"/>
					</g>
					<g>
						<g>
							<path class="st8" d="M538.8,100.1c0,0.6-0.3,1.2-0.7,1.6c-0.4,0.4-1,0.7-1.6,0.7H513c-1.3,0-2.3-1-2.3-2.3
								c0-0.6,0.3-1.2,0.7-1.6c0.4-0.4,1-0.7,1.6-0.7h23.4C537.7,97.8,538.8,98.8,538.8,100.1z"/>
						</g>
						<g>
							<path class="st8" d="M556.8,107.7c0,0.6-0.3,1.2-0.7,1.6c-0.4,0.4-1,0.7-1.6,0.7H513c-1.3,0-2.3-1-2.3-2.3
								c0-0.6,0.3-1.2,0.7-1.6c0.4-0.4,1-0.7,1.6-0.7h41.4C555.7,105.4,556.8,106.4,556.8,107.7z"/>
						</g>
						<g>
							<path class="st8" d="M556.8,115c0,0.6-0.3,1.2-0.7,1.6c-0.4,0.4-1,0.7-1.6,0.7H513c-1.3,0-2.3-1-2.3-2.3
								c0-0.6,0.3-1.2,0.7-1.6c0.4-0.4,1-0.7,1.6-0.7h41.4C555.7,112.7,556.8,113.7,556.8,115z"/>
						</g>
					</g>
				</g>
			</g>
			<g>
				<g>
					<g>
						<g>
							<g>
								<path class="st14" d="M196.5,152c0,0,3.4,4.7,1.7,10c-1.7,5.3-5.6,7.3-5.6,7.3s-6.4,59.4-23.8,68.9
									c-5.3,2.9-10.9,4.7-16.3,5.7c-12.3,2.2-23.2-0.3-25.9-5.7c-3.9-7.8-5.9-14.3-5.9-14.3l29.4-18.6c0.3-0.2,1.9,1.2,4,2.1
									c0.8,0.3,1.7,0.6,2.6,0.6c3.3,0,23.8-31,25.4-39.5c1.6-8.6-1.2-3.4,0.9-10.3c2.2-6.8,1.4-14,3.3-13.8
									c1.9,0.1,1.9,7.1,1.9,7.1s14-11.3,14.3-8.6C202.7,145.7,196.5,152,196.5,152z"/>
							</g>
							<g class="st15">
								<path class="st10" d="M148.6,229c0.6,5.1,1.9,10.1,3.9,14.9c-12.3,2.2-23.2-0.3-25.9-5.7c-3.9-7.8-5.9-14.3-5.9-14.3
									l29.4-18.6c0.3-0.2,1.9,1.2,4,2.1c-2.2,2.3-3.7,5.2-4.6,8.2C148.2,219.8,148.1,224.5,148.6,229z"/>
							</g>
						</g>
					</g>
					<g>
						<g>
							<g>
								<g>
									<g>
										<rect x="54" y="462.6" class="st14" width="14.9" height="24.3"/>
									</g>
									<g>
										<path class="st10" d="M69,466v8.6c-5,0.3-10-0.1-14.9-1V466H69z"/>
									</g>
									<g>
										<path class="st16" d="M74.7,495.8H27.3c-1.1,0-2.2-0.5-2.9-1.3c-0.7-0.8-1.2-1.9-1.2-3.1c0-1.8,1.1-3.4,2.7-4.1
											c5-2,13.7-4.1,15.6-6.1c2.5-2.6,6.8-6.9,9.9-6.7c3.1,0.2,4.9,5.4,9.7,8.4c3.4,2.1,7-3.1,8.8-6.4c0.6-1.1,2.2-1.1,2.7,0
											C76.3,484,74.7,495.8,74.7,495.8z"/>
									</g>
								</g>
								<g>
									<g>
										<rect x="108.7" y="462.6" class="st14" width="14.9" height="24.3"/>
									</g>
									<g>
										<path class="st10" d="M108.7,461v13.6c5,0.3,10-0.1,14.9-1V461H108.7z"/>
									</g>
									<g>
										<path class="st16" d="M103,495.8h47.4c1.1,0,2.2-0.5,2.9-1.3c0.7-0.8,1.2-1.9,1.2-3.1c0-1.8-1.1-3.4-2.7-4.1
											c-5-2-13.7-4.1-15.6-6.1c-2.5-2.6-6.8-6.9-9.9-6.7c-3.1,0.2-4.9,5.4-9.7,8.4c-3.4,2.1-7-3.1-8.8-6.4
											c-0.6-1.1-2.2-1.1-2.7,0C101.4,484,103,495.8,103,495.8z"/>
									</g>
								</g>
								<g>
									<g>
										<path class="st6" d="M43.9,467.4c0,0,11.8,0.9,21.9,0.5c1.4-0.1,2.8-0.2,4.1-0.3c3.7-0.4,6.7-1,8.4-2
											c6.4-4,5.9-135.8,5.9-135.8s15.4,135.6,18,136.9c0.9,0.5,4.7,0.3,9.3-0.3c8.1-1.1,18.7-3.6,21.4-6.1
											c2.8-2.6-0.6-92.6-3.1-151c-0.9-21.7-1.8-39-2.1-46c-0.1-2.1-0.2-3.2-0.2-3.2l-5.5,0.2l-81.2,3.4
											c-0.7,2.2-1.1,10.3-1.2,22C39.1,338.9,43.9,467.4,43.9,467.4z"/>
									</g>
									<g>
										<path class="st16" d="M39.6,285.7c19,2,38,5.4,56.5,10c10.1,2.5,20.2,5.5,29.2,10.7c1.5,0.9,3,1.8,4.4,2.9
											c-0.9-21.7-1.8-39-2.1-46c-1-0.6-1.9-1.1-2.9-1.6c-0.9-0.5-1.8-1-2.8-1.4l-81.2,3.4C40.1,266,39.7,274,39.6,285.7z"/>
									</g>
									<g>
										<path class="st16" d="M69.8,467.7c3.7-0.4,6.7-1,8.4-2c6.4-4,5.9-135.8,5.9-135.8s15.4,135.6,18,136.9
											c0.9,0.5,4.7,0.3,9.3-0.3c-7.1-46.9-25.2-153.9-30.2-154L69.8,467.7z"/>
									</g>
								</g>
							</g>
							<g>
								<g>
									<g>
										<g>
											<g>
												<g>
													<g>
														<path class="st9" d="M34.2,256c-1.3,4.4-2,7.4-1.5,7.7c0.2,0.1,0.9,0.4,2,0.8c3.8,1.3,12.5,3.6,23.7,5.3
															c0.9,0.1,1.9,0.3,2.8,0.4c0.5,0.1,1,0.1,1.4,0.2c11.8,1.5,25.9,2.1,39.9,0c1.2-0.2,2.4-0.4,3.5-0.6
															c7-1.3,14-3.2,20.6-6.1l-0.5-7.7l0-0.6l-0.9-13.8l0-0.6l-0.9-13.8l0-0.6l-0.2-2.3l-0.1-1.8l-0.4-5.8c0,0,3.6-1.5,8-4
															c0.3-0.2,0.7-0.4,1-0.6c5.9-3.4,12.9-8.5,14.6-13.8c0.1-0.2,0.1-0.4,0.2-0.6c0.1-0.3,0.1-0.5,0.2-0.8
															c0,0-1.3-5-4.6-11.9c-0.2-0.3-0.3-0.7-0.5-1.1c-0.1-0.2-0.2-0.4-0.3-0.6c-0.3-0.6-0.6-1.1-0.9-1.7
															c-2-3.8-4.6-8-7.8-12.2c-0.1-0.2-0.3-0.4-0.5-0.6c-4-5-9-9.9-15.2-13.8c-0.2-0.1-0.5-0.3-0.7-0.5c0,0-0.1,0-0.1,0
															c-0.1-0.1-0.2-0.1-0.3-0.2c-5-2.8-14.1-6.3-26.9-8.3c-4.3-0.7-8.7-0.8-13.2-0.6c-10.7,0.5-21.5,3.5-31.4,8.9
															c-0.4,0.2-0.7,0.4-1.1,0.6c-1.5,0.8-3,1.7-4.5,2.7c-0.1,0-0.1,0.1-0.2,0.1c-4.7,3-8.8,6.7-12.3,11
															c-0.2,0.2-0.3,0.4-0.5,0.6c-1,1.3-1.9,2.6-2.8,3.9c-1.3,2.1-2.6,4.2-3.8,6.4c-0.5,1.2-0.9,2.3-1.3,3.5
															c-0.1,0.2-0.1,0.4-0.2,0.6c-1.8,5-3.2,9.7-4.1,13.8c0,0.1-0.1,0.2-0.1,0.4c4.6,2.9,18.8,11.2,30.5,11.4
															c0,0,0.1,1.2,0.3,3.4c1.2,0.1,2.2,0.2,2.8,0.3c0.6,0.1,0.9,0.2,0.9,0.3c0,0.1-0.2,0.6-0.5,1.5
															c-0.6,1.7-1.8,4.8-3.2,8.6c-0.3,0.9-0.7,1.9-1.1,3c-0.1,0.2-0.2,0.4-0.2,0.6c-1.6,4.3-3.3,9.1-4.9,13.8
															c-0.1,0.2-0.1,0.4-0.2,0.6c-0.4,1.2-0.8,2.5-1.3,3.7c-1.3,3.7-2.4,7.2-3.3,10.2C34.4,255.7,34.3,255.9,34.2,256z"/>
													</g>
												</g>
												<g>
													<path class="st17" d="M93.4,145.6v1.1c10.1,5.8,22.5,126.2,22.5,126.2s18.2-1.1,20.6-3c2.3-1.9-6.2-49.9-6.4-51.4
														c8.1-0.2,23.2-11.4,23.2-11.4s-3.7-9.8-8.6-20.5c-4.2-9.3-9.3-19.2-13.7-24.2C121.5,151.6,93.4,145.6,93.4,145.6z"/>
												</g>
												<g>
													<path class="st18" d="M121.5,197.3c1.8,5.7,2.9,11.6,4.6,17.3c0.5,1.6,1,3.1,1.6,4.6c9-0.2,25.6-12.6,25.6-12.6
														s-4.1-10.8-9.5-22.7c-2.1,5.1-5,9.8-8.6,14.1c-1.9,2.3-4.5,4.6-7.5,4.2C125,202,123.1,199.5,121.5,197.3z"/>
												</g>
											</g>
											<g>
												<g>
													<g>
														<g>
															<g>
																<g>
																	<g>
																		<g>
																			<g>
																				<g>
																					<g>
																						<g>
																							<g>
																								<g>
																									<g>
																										<path class="st14" d="M68.4,146.2c1.5,4.3,6.9,7.3,11,8.5c3.9,1.1,8.1,1.2,12,0.1
																											c8.8-2.3,9.1-7.8,9.1-7.8c-1.5-0.5-2.2-4.3-2.6-8.4c-0.4-5.2-0.3-10.8-0.3-10.8H74.1
																											c0,0-0.7,7.1-1.4,12.6c-0.3,2.3-1.6,4.1-3.2,5.2C68.9,146,68.4,146.2,68.4,146.2z"/>
																									</g>
																									<g class="st15">
																										<path class="st10" d="M71.6,143.5c8,2.9,17.5,2,24.3-3.2c0.7-0.5,1.4-1.1,2-1.7
																											c-0.4-5.2-0.3-10.8-0.3-10.8H74.1c0,0-0.7,7.1-1.4,12.6C72.6,141.5,72.2,142.6,71.6,143.5z"/>
																									</g>
																								</g>
																							</g>
																						</g>
																					</g>
																				</g>
																			</g>
																		</g>
																	</g>
																</g>
																<g>
																	<g>
																		<g>
																			<g>
																				<path class="st14" d="M104.5,119.8c-0.6,4.5-1.5,9.2-4.6,12.6c-2.7,3-6.8,4.4-10.8,4.6
																					c-2.2,0.1-4.4-0.1-6.5-0.8c-4.2-1.5-7.4-4.8-10.3-8.1c-1.1-1.2-2.1-2.5-3.1-3.8c-1-1.3-2.3-2.5-3.7-3.4
																					c0,0,0,0,0,0c-1.1-0.8-2-1.8-2.9-2.9c-0.7-0.8-1.4-1.7-1.6-2.8c-0.2-0.9,0.1-1.9,0.7-2.7
																					c0.3-0.5,0.7-0.9,1.2-1.2c-0.9-4.9-0.4-10,1.6-14.6c2.6-6.1,7.6-11,13.7-13.5l22.7-3.6c0.1,3.4,1.6,6.6,2.6,9.8
																					C106.5,99.2,105.9,109.7,104.5,119.8z"/>
																			</g>
																		</g>
																	</g>
																	<g>
																		<g>
																			<g>
																				<path class="st19" d="M79.3,106.8c-0.1-0.1-0.1-0.3,0-0.6c0.1-0.3,0.5-0.8,1.1-1.2c1-0.7,2.4-0.9,3.6-0.6
																					c0.7,0.2,1.1,0.6,1.4,0.8c0.2,0.3,0.3,0.5,0.2,0.6c-0.2,0.2-0.7-0.2-1.9-0.4c-1-0.2-2-0.1-2.8,0.4
																					C79.9,106.4,79.5,106.9,79.3,106.8z"/>
																			</g>
																		</g>
																		<g>
																			<g>
																				<path class="st19" d="M95.3,104.3c-0.1-0.1,0.2-0.8,1.4-1.5c1.1-0.5,2.3-0.7,3.4-0.5c1.4,0.2,1.9,0.8,1.8,1
																					c-0.1,0.2-0.7,0.1-1.9,0c-1-0.1-2,0.1-2.9,0.5C96,104.1,95.4,104.5,95.3,104.3z"/>
																			</g>
																		</g>
																		<g>
																			<g>
																				<path class="st19" d="M90.5,121.8c0.1-0.1,0.4,0.2,0.9,0.5c0.3,0.2,0.6,0.4,1,0.5c0.4,0.1,1,0,1.2-0.3
																					c0.5-0.5,0.1-1.9,0-3c-0.2-1.2-0.4-2.3-0.7-3.4c-0.6-2.7-1-4-0.8-4.1c0.2-0.1,1,1.1,1.8,3.9
																					c0.5,1.8,0.8,3.6,1,5.4c0,0.3,0,0.7,0,1c-0.1,0.4-0.2,0.8-0.5,1.1c-0.8,0.7-1.6,0.6-2.2,0.4
																					c-0.6-0.2-1-0.6-1.2-0.8C90.5,122.3,90.4,121.9,90.5,121.8z"/>
																			</g>
																		</g>
																		<g>
																			<g>
																				<path class="st19" d="M92.1,128.5c0,0.1-0.2,0.3-0.7,0.4c-0.5,0.2-1.3,0.3-2.4,0.2c-1.8-0.3-3.5-1.1-4.8-2.5
																					c-0.7-0.9-1-1.7-0.9-2.3c0-0.6,0.2-0.8,0.3-0.8c0.3,0,0,1.1,1.4,2.4c1.1,1.2,2.6,1.9,4.2,2.1
																					C91,128.5,92,128.2,92.1,128.5z"/>
																			</g>
																		</g>
																		<g>
																			<ellipse class="st19" cx="98.9" cy="110.8" rx="1.2" ry="2.1"/>
																		</g>
																		<g>
																			<ellipse class="st19" cx="83.8" cy="111.9" rx="1.2" ry="2.1"/>
																		</g>
																	</g>
																</g>
															</g>
														</g>
													</g>
												</g>
											</g>
										</g>
										<g>
											<path class="st16" d="M76.4,106.6c1-0.7,2.3-1.1,2.9-2.2c1.1-2-1.2-4.8,0.1-6.8c0.8-1.2,2.6-1.3,4-0.8
												c1.4,0.4,2.8,1.2,4.3,1c3.3-0.3,5.3-4.6,8.5-4.4c1.6,0.1,2.9,1.2,4.1,2.3c1.4,1.3,2.8,2.6,3.8,4.3
												c2,3.4,1.8,7.7,1.1,11.7c1.5-2.2,3-4.4,4.4-6.6c0.8-1.2,1.6-2.4,1.9-3.7c0.5-2.5-0.9-5.2-3.2-6.2c2.4-1.2,3.9-4,3.6-6.7
												c-0.3-2.7-2.3-5.1-4.9-5.8c-1.4-0.4-2.9-0.4-4-1.2c-2.1-1.6-1.6-5.4-3.9-6.8c-1.3-0.8-2.9-0.4-4.3,0.1
												c-1.4,0.5-2.8,1.3-4.3,1.1c-3.1-0.3-4.8-4.1-7.9-4.9c-2.7-0.7-5.3,1.3-7.2,3.3c-1.9,2-3.9,4.3-6.7,4.7
												c-1.6,0.2-3.1-0.3-4.7-0.3c-1.6,0-3.4,0.7-3.7,2.2c-0.4,1.6,1,3.1,1,4.8c0,1.7-1.4,3-2.8,4c-1.4,1-2.9,2-3.3,3.7
												c-0.4,1.6,0.5,3.2,1.4,4.6c1,1.3,2.1,2.7,2.4,4.3c0.5,2.6-1.3,5.5,0,7.9c0.8,1.5,2.7,2.2,4.5,2.3
												c1.8,0.1,3.5-0.4,5.2-0.4c1.1,0,2.8,0.7,3.8,0.4c1.1-0.4,1.2-1.8,1.6-2.8C74.5,108.4,75.3,107.4,76.4,106.6z"/>
										</g>
										<g>
											<path class="st14" d="M60.8,114.6l1.7,3.4c2.4,2.4,5.3,4.2,8.4,5.4c0.6,0.2,1.3,0.4,1.9,0.1c0.8-0.4,0.9-1.6,0.8-2.5
												c-0.1-2.2-0.2-4.3-0.9-6.4c-0.6-2.1-1.9-4-3.7-5.1c-1.9-1.1-4.4-1.1-6.1,0.3C61.7,110.9,61.3,112.9,60.8,114.6z"/>
										</g>
										<g class="st15">
											<path class="st10" d="M68.9,119.1c0.1,0.5-0.4,1-0.9,1.1c-0.2,0-0.5,0-0.7-0.1c-0.8-0.3-1.4-1-2-1.7
												c-1-1.2-1.8-2.7-1.9-4.3c0-0.5,0.1-1,0.4-1.4c0.5-0.5,1.3-0.6,2-0.4c1.4,0.4,2.5,1.5,2.9,2.9L68.9,119.1z"/>
										</g>
									</g>
								</g>
							</g>
						</g>
						<g>
							<g>
								<path class="st17" d="M45.4,213c0.1,2.5,0.2,6.2,0,10.7c-0.5,10.9-2.8,26.4-10.7,40.9c-2.9,5.4-6.6,10.7-11.3,15.5h29.3
									c0,0,3.7-3.5,8.6-9.8c5.1-6.6,11.4-16.3,15.9-28.3c3-7.9,5.2-16.8,5.8-26.5c2.3-36.1-12.3-65.1-14.4-68.9
									c-0.1-0.3-0.2-0.4-0.2-0.4s-12.1,2.1-31.1,11.6c-1.6,0.4-8.6,3.2-14.9,13.4c-3.7,5.9-7.2,14.2-9.3,26c0,0,0.6,0.4,1.5,1
									c4.6,2.9,18.8,11.2,30.5,11.4c0,0,0,0,0,0.1c0,0.2,0.1,0.8,0.2,1.7C45.3,211.8,45.3,212.4,45.4,213z"/>
							</g>
						</g>
						<g>
							<path class="st18" d="M13.1,197.2c0,0,0.6,0.4,1.5,1c4.6,2.9,18.8,11.2,30.5,11.4c0,0,0,0,0,0.1c2-6.6,4.1-13.1,6.4-19.6
								c-2.6,2.5-5.9,4.2-9.5,4.5c-3.5,0.4-7.3-0.6-10-2.9c-1.5-1.2-2.7-2.8-3.7-4.4c-3.1-4.8-5.2-10.4-5.8-16
								C18.7,177,15.2,185.4,13.1,197.2z"/>
						</g>
						<g>
							<path class="st18" d="M23.4,280.1h29.3c0,0,3.7-3.5,8.6-9.8c5.1-6.6,11.4-16.3,15.9-28.3c-2.4,1-4.9,1.6-7.5,1.4
								c-2.5-0.2-4.9-1.1-7.1-2.3c-11-5.8-17.8-18.7-16.5-31l-0.8,1.3c0,0.5,0.1,1,0.1,1.7c0.1,2.5,0.2,6.2,0,10.7
								c-0.5,10.9-2.8,26.4-10.7,40.9C31.8,270,28.1,275.3,23.4,280.1z"/>
						</g>
						<g>
							<g>
								<path class="st17" d="M23.4,280.1h29.3c0,0,3.7-3.5,8.6-9.8c3.3-4.3,7.2-10,10.7-16.8c3.8-7.2,7.2-15.8,9.2-25.3
									c-13-0.1-27.9-0.2-36.1-0.2c-0.7,8.5-2.6,19-7,29.5c-1,2.4-2.1,4.8-3.4,7.1C31.8,270,28.1,275.3,23.4,280.1z"/>
							</g>
						</g>
					</g>
				</g>
				<g>
					<g>
						<path class="st20" d="M96.3,265.1h99.2l4.1-15.6l13.6-51.7c0.8-2.9-1-5.2-3.9-5.2h-88.8c-0.9,0-1.7,0.2-2.5,0.6
							c-1.9,0.8-3.6,2.6-4.1,4.7L96.3,265.1z"/>
					</g>
					<g>
						<path class="st6" d="M96.6,265.4h99.2l4.1-15.6c-2.8,0.5-5.6,0.8-8.5,1c-17.9,1.1-36.2-5.1-49.8-16.8
							c-12.1-10.3-20.4-24.9-23.2-40.5c-1.9,0.8-3.6,2.6-4.1,4.7L96.6,265.4z"/>
					</g>
					<g>
						
							<ellipse transform="matrix(0.3146 -0.9492 0.9492 0.3146 -110.3517 306.7079)" class="st9" cx="157.2" cy="229.8" rx="6.5" ry="5.5"/>
					</g>
				</g>
				<g>
					<path class="st14" d="M131.4,226.6c-0.7,5.1-4.7,9.3-9.2,11.7c-4.5,2.4-9.6,3.3-14.6,4.1c-7.9,3.3-21.1,7.8-35.5,11.1
						c-11.2,2.5-23.1,4.2-33.9,3.9c-6.3-0.2-12.1-1-17.2-2.8c-8.3-2.9-12.3-9.2-13.7-16.7c-2.4-12.1,1.8-27.3,5.1-36.1
						c0.6-1.6,1.2-3,1.7-4.1c0.2,0.1,0.4,0.3,0.7,0.5c4.6,2.9,18.8,11.2,30.5,11.4c0,0,0.1,0.7,0.2,2c-0.3,0.7-0.7,1.3-1.1,2
						c-1.9,3.5-3.9,7.1-5.1,9.9c-1.2,2.7-1.5,4.6-0.1,4.5c0.7,0,2.9,0,6,0c8.2,0,23.1,0.1,36.1,0.2c7.5,0,14.4,0.1,19,0.1l0,0
						c1.3-2.2,2.6-4.4,4.5-6.2c1.8-1.8,3.4-8,5.5-6.5l-3.1,9.6c-0.2,0.2-0.4,0.4-0.4,0.7c0,0.7,1,0.8,1.7,0.7
						c5.8-1.2,11.6-2.3,17.4-3.5c2-0.4,4.5-0.5,5.4,1.3C131.5,225.1,131.5,225.9,131.4,226.6z"/>
				</g>
				<g class="st15">
					<path class="st10" d="M7.2,237.9c4.9-5.4,10.3-10.4,16.1-14.9c2.5-2,5.5-3.9,8.7-3.5c1.7,0.2,3.3,1.1,4.7,2
						c0.9,0.5,1.8,1.1,2.4,1.8c1.2-2.7,3.2-6.3,5.1-9.9c0.4-0.7,0.7-1.3,1.1-2c-0.1-1.3-0.2-2-0.2-2c-11.6-0.2-25.8-8.5-30.5-11.4
						c-0.3-0.2-0.5-0.3-0.7-0.5c-0.5,1.1-1.1,2.5-1.7,4.2C9,210.6,4.8,225.8,7.2,237.9z"/>
				</g>
			</g>
			<g>
				<g>
					<g>
						<path class="st21" d="M460.9,114.2c0.4-9.8,8.7-17.5,18.6-17.1c9.8,0.4,17.5,8.7,17.1,18.6c-0.4,9.8-8.7,17.5-18.6,17.1
							C468.1,132.4,460.4,124.1,460.9,114.2z"/>
					</g>
					<g>
						<path class="st22" d="M466,116.8c0.8,5.6,5.2,9.8,10.4,10.8c0.9,0.2,1.8,0.2,2.7,0.2c0,0,0,0,0,0c4.2-0.2,7.9-2.3,10.1-5.6
							c1.8-2.7,2.5-5.9,2.1-9c-0.5-3.4-2.3-6.4-5-8.4c-2.1-1.5-4.5-2.4-7.1-2.5c-0.9,0-1.8,0-2.7,0.2
							C469.7,103.6,465,109.9,466,116.8z"/>
					</g>
					<g>
						<g>
							<path class="st9" d="M482.2,121.8c-0.7,0.3-1.5,0.5-2.4,0.6v1.4c0,0.2-0.1,0.3-0.2,0.4c-0.1,0.1-0.3,0.2-0.4,0.2
								c-0.2,0-0.3-0.1-0.4-0.2c-0.1-0.1-0.2-0.3-0.2-0.4v-1.4c-1.4-0.1-2.8-0.4-4-0.9c-0.2-0.1-0.3-0.2-0.4-0.3
								c-0.1-0.2-0.2-0.3-0.2-0.5c0-0.2,0.1-0.4,0.2-0.6c0.2-0.2,0.3-0.2,0.6-0.2c0.1,0,0.3,0,0.4,0.1c1.1,0.5,2.2,0.7,3.4,0.8v-4.6
								c-0.9-0.2-1.7-0.5-2.3-0.8c-0.6-0.3-1.1-0.7-1.5-1.2c-0.4-0.5-0.6-1.2-0.6-1.9c0-0.7,0.2-1.3,0.5-1.9
								c0.3-0.6,0.8-1.1,1.5-1.5c0.7-0.4,1.5-0.6,2.4-0.7v-1.4c0-0.2,0.1-0.3,0.2-0.4c0.1-0.1,0.3-0.2,0.4-0.2
								c0.2,0,0.3,0.1,0.4,0.2c0.1,0.1,0.2,0.3,0.2,0.4v1.4c1.3,0.1,2.5,0.3,3.5,0.7c0.4,0.1,0.6,0.4,0.6,0.8c0,0.2-0.1,0.4-0.2,0.6
								c-0.1,0.2-0.3,0.3-0.6,0.3c-0.1,0-0.2,0-0.3-0.1c-0.9-0.3-1.9-0.5-2.9-0.5v4.8c1,0.2,1.8,0.5,2.4,0.7
								c0.6,0.3,1.2,0.7,1.6,1.2c0.4,0.5,0.6,1.2,0.6,2.1C484.4,120,483.6,121.2,482.2,121.8z M476.6,113.4c0.4,0.3,1.1,0.6,2,0.8
								v-4.4c-0.8,0.1-1.4,0.3-1.9,0.7c-0.5,0.4-0.7,0.9-0.7,1.5C476,112.6,476.2,113.1,476.6,113.4z M482.6,118.4
								c0-0.5-0.3-0.9-0.7-1.2c-0.5-0.3-1.2-0.5-2.1-0.8l0.1,4.3C481.7,120.5,482.7,119.8,482.6,118.4z"/>
						</g>
					</g>
					<g>
						<path class="st23" d="M479.1,127.8c4.2-0.2,7.9-2.3,10.1-5.6c1.8-2.7,2.5-5.9,2.1-9c-0.5-3.4-2.3-6.4-5-8.4
							c-2.1-1.5-4.5-2.4-7.1-2.5c7.4,3.7,10.4,13.5,5.4,20.8C483.2,125.1,481.3,126.7,479.1,127.8z"/>
					</g>
				</g>
				<g>
					<g>
						<g>
							<g>
								<path class="st21" d="M478.7,93.7c-0.5,0-0.9-0.4-0.9-0.9v-3.6c0-0.5,0.4-0.9,0.9-0.9s0.9,0.4,0.9,0.9v3.6
									C479.6,93.3,479.2,93.7,478.7,93.7z"/>
							</g>
						</g>
						<g>
							<g>
								<path class="st21" d="M478.7,141.7c-0.5,0-0.9-0.4-0.9-0.9v-3.6c0-0.5,0.4-0.9,0.9-0.9s0.9,0.4,0.9,0.9v3.6
									C479.6,141.3,479.2,141.7,478.7,141.7z"/>
							</g>
						</g>
					</g>
					<g>
						<g>
							<g>
								<path class="st21" d="M493.7,100c-0.4-0.4-0.4-0.9,0-1.3l2.6-2.6c0.4-0.4,0.9-0.4,1.3,0c0.4,0.4,0.4,0.9,0,1.3L495,100
									C494.6,100.3,494.1,100.3,493.7,100z"/>
							</g>
						</g>
						<g>
							<g>
								<path class="st21" d="M459.8,133.8c-0.4-0.4-0.4-0.9,0-1.3l2.6-2.6c0.4-0.4,0.9-0.4,1.3,0s0.4,0.9,0,1.3l-2.6,2.6
									C460.7,134.2,460.2,134.2,459.8,133.8z"/>
							</g>
						</g>
					</g>
					<g>
						<g>
							<g>
								<path class="st21" d="M499.9,115c0-0.5,0.4-0.9,0.9-0.9h3.6c0.5,0,0.9,0.4,0.9,0.9s-0.4,0.9-0.9,0.9h-3.6
									C500.3,115.9,499.9,115.5,499.9,115z"/>
							</g>
						</g>
						<g>
							<g>
								<path class="st21" d="M452,115c0-0.5,0.4-0.9,0.9-0.9h3.6c0.5,0,0.9,0.4,0.9,0.9s-0.4,0.9-0.9,0.9h-3.6
									C452.4,115.9,452,115.5,452,115z"/>
							</g>
						</g>
					</g>
					<g>
						<g>
							<g>
								<path class="st21" d="M493.7,130c0.4-0.4,0.9-0.4,1.3,0l2.6,2.6c0.4,0.4,0.4,0.9,0,1.3c-0.4,0.4-0.9,0.4-1.3,0l-2.6-2.6
									C493.3,130.9,493.3,130.4,493.7,130z"/>
							</g>
						</g>
						<g>
							<g>
								<path class="st21" d="M459.8,96.1c0.4-0.4,0.9-0.4,1.3,0l2.6,2.6c0.4,0.4,0.4,0.9,0,1.3c-0.4,0.4-0.9,0.4-1.3,0l-2.6-2.6
									C459.5,97.1,459.5,96.5,459.8,96.1z"/>
							</g>
						</g>
					</g>
				</g>
				<g>
					<g>
						<g>
							<g>
								<path class="st21" d="M478.7,93.7c-0.5,0-0.9-0.4-0.9-0.9v-3.6c0-0.5,0.4-0.9,0.9-0.9s0.9,0.4,0.9,0.9v3.6
									C479.6,93.3,479.2,93.7,478.7,93.7z"/>
							</g>
						</g>
						<g>
							<g>
								<path class="st21" d="M478.7,141.7c-0.5,0-0.9-0.4-0.9-0.9v-3.6c0-0.5,0.4-0.9,0.9-0.9s0.9,0.4,0.9,0.9v3.6
									C479.6,141.3,479.2,141.7,478.7,141.7z"/>
							</g>
						</g>
					</g>
					<g>
						<g>
							<g>
								<path class="st21" d="M493.7,100c-0.4-0.4-0.4-0.9,0-1.3l2.6-2.6c0.4-0.4,0.9-0.4,1.3,0c0.4,0.4,0.4,0.9,0,1.3L495,100
									C494.6,100.3,494.1,100.3,493.7,100z"/>
							</g>
						</g>
						<g>
							<g>
								<path class="st21" d="M459.8,133.8c-0.4-0.4-0.4-0.9,0-1.3l2.6-2.6c0.4-0.4,0.9-0.4,1.3,0s0.4,0.9,0,1.3l-2.6,2.6
									C460.7,134.2,460.2,134.2,459.8,133.8z"/>
							</g>
						</g>
					</g>
					<g>
						<g>
							<g>
								<path class="st21" d="M499.9,115c0-0.5,0.4-0.9,0.9-0.9h3.6c0.5,0,0.9,0.4,0.9,0.9s-0.4,0.9-0.9,0.9h-3.6
									C500.3,115.9,499.9,115.5,499.9,115z"/>
							</g>
						</g>
						<g>
							<g>
								<path class="st21" d="M452,115c0-0.5,0.4-0.9,0.9-0.9h3.6c0.5,0,0.9,0.4,0.9,0.9s-0.4,0.9-0.9,0.9h-3.6
									C452.4,115.9,452,115.5,452,115z"/>
							</g>
						</g>
					</g>
					<g>
						<g>
							<g>
								<path class="st21" d="M493.7,130c0.4-0.4,0.9-0.4,1.3,0l2.6,2.6c0.4,0.4,0.4,0.9,0,1.3c-0.4,0.4-0.9,0.4-1.3,0l-2.6-2.6
									C493.3,130.9,493.3,130.4,493.7,130z"/>
							</g>
						</g>
						<g>
							<g>
								<path class="st21" d="M459.8,96.1c0.4-0.4,0.9-0.4,1.3,0l2.6,2.6c0.4,0.4,0.4,0.9,0,1.3c-0.4,0.4-0.9,0.4-1.3,0l-2.6-2.6
									C459.5,97.1,459.5,96.5,459.8,96.1z"/>
							</g>
						</g>
					</g>
				</g>
			</g>
		</g>
	</g>
	<g id="Crypto_Bot">
		<g>
			<g>
				<path class="st24" d="M491.3,255.9c13.6,0,24.6-9.9,24.6-22.1c0-2.1-1.7-3.8-3.8-3.8c-2.1,0-3.8,1.7-3.8,3.8
					c0,8-7.7,14.6-17.1,14.6c-9.4,0-17.1-6.5-17.1-14.6c0-2.1-1.7-3.8-3.8-3.8s-3.8,1.7-3.8,3.8C466.7,246,477.7,255.9,491.3,255.9z
					"/>
			</g>
			<path class="st24" d="M494.9,251.9c5.8,15.8,15.6,26.6,29.3,32c33.9,13.3,80.7-10.1,81.2-10.3c1.8-0.9,4.1-0.2,5.1,1.6
				c0.9,1.9,0.2,4.1-1.6,5.1c-1.6,0.8-30.5,15.3-60.6,15.3c-9,0-18.2-1.3-26.7-4.7c-15.7-6.2-27-18.4-33.6-36.4L494.9,251.9z"/>
			<g>
				<g>
					<g>
						<path class="st25" d="M584.9,160.9h15.8v31.5h-15.8c-8.7,0-15.8-7.1-15.8-15.8v0C569.2,167.9,576.2,160.9,584.9,160.9z"/>
					</g>
				</g>
				<g>
					<g>
						<g>
							<rect x="744.7" y="119.1" class="st25" width="4.3" height="56.4"/>
						</g>
					</g>
					<g>
						<g>
							<circle class="st25" cx="746.9" cy="111.9" r="9.3"/>
						</g>
					</g>
				</g>
				<g>
					<g>
						<path class="st25" d="M760.5,176.6L760.5,176.6c0,8.7-7.1,15.8-15.8,15.8h-15.8v-31.5h15.8
							C753.4,160.9,760.5,167.9,760.5,176.6z"/>
					</g>
				</g>
			</g>
			<g>
				<g>
					<rect x="629.2" y="222.2" class="st25" width="65.6" height="38.6"/>
				</g>
			</g>
			<g>
				<g>
					<path class="st8" d="M616.1,248.8c2.1-2.6,5.2-4,8.5-4h74.9c3.3,0,6.4,1.5,8.5,4c13.3,16.5,21.6,40.2,21.6,66.4
						c0,50-30.2,90.5-67.5,90.5s-67.5-40.5-67.5-90.5C594.5,289,602.8,265.4,616.1,248.8z"/>
				</g>
			</g>
			<g>
				<g>
					<path class="st25" d="M729.5,315.2c0-26.2-8.3-49.9-21.6-66.4c-2.1-2.6-5.2-4-8.5-4h-4.2c3.3,0,49.5,93.3-31.5,160.6
						c0.7,0.1,1.5,0.1,2.2,0.2C701.4,402.9,729.5,363.5,729.5,315.2z"/>
				</g>
			</g>
			<g>
				<path class="st24" d="M642.2,244.8l1.5,47.1c1.1,9.3,9,16.3,18.3,16.3h0c9.4,0,17.3-7,18.3-16.3l1.5-47.1H642.2z"/>
			</g>
			<g>
				<g>
					<path class="st8" d="M607.7,132.3c4.2-3.9,9.6-5.8,15.2-5.8h78.4c5.5,0,11,2,15.2,5.8c12.9,11.9,20.9,28,20.9,45.8
						c0,0.9,0,1.8-0.1,2.6c-1.2,28-23.5,49.6-49.5,49.6h-51.2c-26,0-48.3-21.6-49.5-49.6c0-0.9-0.1-1.8-0.1-2.6
						C586.8,160.3,594.7,144.2,607.7,132.3z"/>
				</g>
			</g>
			<g>
				<g>
					<path class="st24" d="M618.8,166.1h69.5c10.7,0,19.3,8.6,19.3,19.3c0,10.7-8.6,19.3-19.3,19.3h-69.5
						c-10.7,0-19.3-8.6-19.3-19.3C599.5,174.7,608.1,166.1,618.8,166.1z"/>
				</g>
			</g>
			<g>
				<g>
					<g>
						<path class="st9" d="M625.6,174.6L625.6,174.6c3.6,0,6.4,2.9,6.4,6.4v8.1c0,3.6-2.9,6.4-6.4,6.4h0c-3.6,0-6.4-2.9-6.4-6.4V181
							C619.2,177.5,622.1,174.6,625.6,174.6z"/>
					</g>
				</g>
				<g>
					<g>
						<path class="st9" d="M681.4,174.6L681.4,174.6c3.6,0,6.4,2.9,6.4,6.4v8.1c0,3.6-2.9,6.4-6.4,6.4h0c-3.6,0-6.4-2.9-6.4-6.4V181
							C675,177.5,677.8,174.6,681.4,174.6z"/>
					</g>
				</g>
			</g>
			<g>
				<g>
					<g>
						<g>
							<rect x="580.5" y="119.1" class="st25" width="4.3" height="56.4"/>
						</g>
					</g>
					<g>
						<g>
							<circle class="st25" cx="582.7" cy="111.9" r="9.3"/>
						</g>
					</g>
				</g>
			</g>
			<path class="st24" d="M697.9,334.5c21.5,4.1,54.3-9.9,57.7-21.6c0.8-2.7,0.3-5.5-1.5-8.6c-4.8-8.3-18.1-16.2-32.9-19.8
				c-2-0.5-3.3-2.5-2.8-4.5c0.5-2,2.5-3.3,4.5-2.8c17,4.1,31.8,13.2,37.7,23.3c2.8,4.8,3.6,9.8,2.2,14.4
				c-4.2,14.4-33.1,27.8-56.7,27.8c-3.4,0-6.6-0.3-9.7-0.9L697.9,334.5z"/>
			<g>
				<path class="st24" d="M681.1,353.8c10.6,0,19.2-7,19.2-15.7c0-8.6-8.6-15.7-19.2-15.7c-2.1,0-3.8,1.7-3.8,3.8s1.7,3.8,3.8,3.8
					c6.3,0,11.7,3.7,11.7,8.1c0,4.4-5.4,8.1-11.7,8.1c-2.1,0-3.8,1.7-3.8,3.8S679.1,353.8,681.1,353.8z"/>
			</g>
			<ellipse class="st26" cx="662" cy="455.7" rx="56.8" ry="11.4"/>
		</g>
	</g>
</g>
</svg>
