<?xml version="1.0" encoding="utf-8"?>
<!-- Generator: Adobe Illustrator 27.0.0, SVG Export Plug-In . SVG Version: 6.00 Build 0)  -->
<svg version="1.1" id="Layer_1" xmlns="http://www.w3.org/2000/svg" xmlns:xlink="http://www.w3.org/1999/xlink" x="0px" y="0px"
	 viewBox="0 0 768 448" style="enable-background:new 0 0 768 448;" xml:space="preserve">
<style type="text/css">
	.st0{fill-rule:evenodd;clip-rule:evenodd;fill:#ECF5FE;}
	.st1{fill:none;stroke:#97B9DE;stroke-width:4;stroke-miterlimit:10;}
	.st2{fill:#8C8C8C;}
	.st3{fill:#014CB0;}
	.st4{fill:#01328E;}
	.st5{fill:#410E24;}
	.st6{fill:#0039A7;}
	.st7{fill:#FEAE95;}
	.st8{fill:#363637;}
	.st9{fill:#FFFFFF;}
	.st10{fill:#F2A802;}
	.st11{fill:#EB7865;}
	.st12{fill-rule:evenodd;clip-rule:evenodd;fill:#CDD8E8;}
	.st13{fill-rule:evenodd;clip-rule:evenodd;fill:#B2CBE9;}
	.st14{fill-rule:evenodd;clip-rule:evenodd;fill:#97B9DE;}
	.st15{fill:#8A9EE5;}
	.st16{fill:#97B9DE;}
	.st17{fill:#EEF4FE;}
	.st18{fill-rule:evenodd;clip-rule:evenodd;fill:#879EE4;}
	.st19{fill-rule:evenodd;clip-rule:evenodd;fill:#B1CAE8;}
	.st20{fill:#ECF6FF;}
	.st21{fill-rule:evenodd;clip-rule:evenodd;fill:#F2A802;}
	.st22{fill-rule:evenodd;clip-rule:evenodd;fill:#E9AC38;}
	.st23{fill-rule:evenodd;clip-rule:evenodd;fill:#FFFFFF;}
	.st24{fill-rule:evenodd;clip-rule:evenodd;fill:#0039A7;}
	.st25{fill-rule:evenodd;clip-rule:evenodd;fill:#447FF5;}
	.st26{fill:#AACBEC;}
	
		.st27{fill-rule:evenodd;clip-rule:evenodd;fill:#FFFFFF;stroke:#8A9EE5;stroke-width:4.296;stroke-linecap:round;stroke-linejoin:round;stroke-miterlimit:10;}
	.st28{fill:none;stroke:#8A9EE5;stroke-width:4.296;stroke-linecap:round;stroke-linejoin:round;stroke-miterlimit:10;}
</style>
<g>
	<path class="st0" d="M29.7,433.6c225,0,449.9,0,674.8,0c69.8-96.6,70.4-142.9,56-167.3c-30-51-127-9.5-211.7-78.6
		C488,138.1,508.9,93,456.6,56.2c-80.9-57-229.8-18.6-319.3,59.8C3.5,233,27.3,417.4,29.7,433.6z"/>
	<path class="st1" d="M3.1,413.7c225,0,449.9,0,674.8,0c69.8-96.6,70.4-142.9,56-167.3c-30-51-127-9.5-211.7-78.6
		c-60.9-49.6-39.9-94.7-92.2-131.5c-80.9-57-229.8-18.6-319.3,59.8C-23,213.1,0.8,397.5,3.1,413.7z"/>
	<path class="st2" d="M477.4,333.6c9.5,0,19-0.1,28.6-0.1c1.3,0,2.5-0.1,3.7,0.3c2,0.8,2.7,2,2.2,4.1c-0.2,0.7-0.4,1.3-0.6,1.9
		c-9,25.2-18,50.5-27.1,75.7c-1.4,3.9-2.2,4.4-6.3,4.5c-35.1,0.1-70.2,0.1-105.3,0.2c-1.8,0-3.3-0.7-4.9-1.4
		c-0.6-2.7,0.2-5.1,1.2-7.6c0.1-0.3,0.1-0.6,0.1-0.8c0.7-0.7,0.6-1.5,0.5-2.3c1-0.5,1.1-1.5,1.5-2.3c1.6-4.5,3.2-9,4.7-13.5
		c0.4-1.1,0.9-2.1,0.9-3.3c0.2-0.2,0.4-0.4,0.5-0.7c2.4-7.7,5.7-15.1,7.5-23c0.5-0.2,0.6-0.7,0.7-1.2c2.9-8.4,5.8-16.8,8.8-25.2
		c0.3-0.7,0.5-1.5,0.2-2.2c1.6-2,3.6-2.8,6.1-2.5c0.9,0.1,1.7,0,2.6,0c24.1-0.1,48.2-0.1,72.3-0.6
		C475.9,333.6,476.6,333.6,477.4,333.6z"/>
	<path class="st3" d="M244.4,390.7c-0.3-0.8-1-1.1-1.7-1.4c-4.8-2.3-9.1-5.5-13.2-8.7c-3.8-2.9-6-6.9-7.4-11.7
		c-2.4-8.3-0.9-16.4-0.1-24.6c1.4-14.2,5-28,8-41.8c1.8-8,2.9-16.1,4.4-24.1c0.2-1.2,0.5-2.5,0.7-3.7c1.6-8.6,7.4-13.3,14.9-16.6
		c1.4,0.8,3,0.5,4.5,0.4c6.2-0.3,12,1.4,17.3,4.3c2.6,1.4,5,3.1,7,5.4c3.8,4.5,4.6,10,5.2,15.5c0.4,4-0.3,8-0.7,12
		c-0.7,6.9-2,13.7-3.4,20.6c-0.9,4.5-1.4,9-2.1,13.5c-0.7,4-1.5,8.1-1.3,12.2c0,0.6-0.1,1.2-0.2,1.7c-0.6,2.1-0.2,4.2-0.3,6.3
		c0,1.3,0.7,1.9,2,1.9c1.6,0,3.2,0.3,4.8,0.5c9.3,1.5,18.4,3.6,27.3,6.3c2.3,0.7,4.5,1.6,6.9,1.8c0.6,1.3,1.7,2,2.9,2.6
		c10.5,5.2,21,10.5,31.4,15.7c0.8,0.4,1.5,1,2.4,0.6c0.1,1.1,0.8,2,0.7,3.1c-3.1,4.3-6.1,8.6-9.2,12.9c-1.1,1.6-2.1,3.2-3,4.9
		c-1,2.3-1,2.4,1.3,3.3c0.2,0.1,0.3,0.2,0.5,0.3c-0.1,0.3-0.1,0.7-0.3,0.8c-2.2,1.1-4.6,1.6-6.9,1.2c-4.1-0.8-8.2-1.1-12.2-1.3
		c-5.4-0.2-10.9-0.9-16.4-0.8c-5.1,0.1-10.1-0.6-15.2-0.7c-2.6-0.1-5.3-0.4-8-0.8c-2.8-0.4-5.6-1.1-8.5-1.4
		c-2.9-0.3-5.8-0.4-8.4-1.4c-5.6-2-11.2-4-16.6-6.4C249.3,392.3,247.1,390.7,244.4,390.7z"/>
	<path class="st4" d="M477.4,333.6c-0.8,0-1.5,0.1-2.3,0.1c-24.1,0.5-48.2,0.5-72.3,0.6c-0.9,0-1.7,0.1-2.6,0
		c-2.5-0.3-4.5,0.6-6.1,2.5c-3-1.3-6-2.5-9.1-3.8c-0.7-0.6-1.2-1.2-1.4-2.1c-1.2-4.8-2.6-9.6-3.8-14.4c-1.8-7.4-3.3-14.9-5-22.3
		c-0.7-2.9-1.9-5.6-2.4-8.5c-1.2-6.3-3.1-12.4-5.6-18.3c-2.6-6.1-5.8-12-9.8-17.4c-0.4-0.5-0.8-1.1-0.7-1.8c1.2-0.2,2,0.6,2.9,1.1
		c3.5,2.2,7.3,3.9,11,5.7c14.4,6.9,28.4,14.5,42,22.9c5.2,3.3,10.5,6.4,15.7,9.7c0.4,0.2,0.8,0.6,1.6,0.4c1-4.7,2.1-9.6,2.9-14.5
		c1.9-11.4,3.9-22.7,5.3-34.2c0.3-2.3,0.9-2.9,3.3-3.2c2.3-0.3,4.6,0,6.9,0c0.6,0,1.2,0,1.7,0c1.6,0.4,3.2,0.8,4.7,1.2
		c6.3,1.4,12.7,2.4,19.2,2.8c2.4,0.2,4.8,0.5,7.1,0.7c2.4,0.2,2.8,0.6,3.1,3c0.4,3.1,0.6,6.1,0.4,9.2c-0.8,12.7-1,25.3-1.6,38
		c-0.4,7.1-1.6,14.1-2.5,21.2C479,319.1,477.7,326.3,477.4,333.6z"/>
	<path class="st5" d="M290.9,240.3c-9.4,0.3-18-2.1-25.9-7.4c-4-2.7-6.4-6.1-6.6-11.1c-0.3-10.5,1.2-20.7,4.4-30.6
		c4.4-13.4,11.7-25,20.8-35.6c5.5-6.5,12.2-11.4,20-14.9c6.3-2.8,12.8-3.2,19.3-0.8c2.3,0.8,4.4,1.3,6.9,1c9.2-1.3,16.4,2.6,22.6,9
		c3,3.1,4.2,7,5.3,11.1c0.9,3.4,1.3,6.8,1.3,10.3c0.1,8.5-0.1,16.9-1,25.3c-0.9,7.9-0.4,15.7,1.2,23.5c0.8,3.9,1,7.8,1,11.8
		c0,5.4-3.2,9.1-6.9,12.4c-0.7,0.6-1.7,0.3-2.4,0.9c-3.7,0.4-7.2-0.1-10.7-1.1c-1.9-0.6-3.9-1.1-5.8-1c-1.7,0.1-2.9-0.5-4.1-1.7
		c-0.3-0.8-0.8-1.6-1-2.4c-0.4-1.9-1.4-3.8-0.4-5.8c2.6,0.3,5.1,0.7,7.7,1c3,0.3,3.6,0,5-2.7c2.2-4.2,3.9-8.6,5.5-12.9
		c5.4-14.2,6.6-28.7,2.1-43.4c-0.7-2.4-1.8-4.4-3.9-5.8c-4.8-3.3-9.3-6.8-13.1-11.1c-0.2-0.2-0.5-0.2-0.9-0.3
		c-0.2,1.3-0.4,2.5-0.6,3.8c-1.4,5.9-3.5,11.6-6.8,16.7c-2.2,3.4-4.6,6.6-7.2,9.7c-2.9,3.5-6.1,6.6-8.7,10.4
		c-1.8,2.6-2.8,5.4-2.8,8.6c-0.1,3.8,0.2,7.5,1,11.2c1.2,5.4,2,10.8,0.1,16.2c-1.3,1.4-2.9,2.3-4.4,3.3c-1,0.3-2,0.5-3.1,0.8
		C296.4,239.2,293.7,240.2,290.9,240.3z"/>
	<path class="st6" d="M330.4,241.4c1.1,1.1,2.4,1.8,4.1,1.7c2-0.1,4,0.4,5.8,1c3.5,1,7,1.5,10.7,1.1c1.5,0.7,3.2,1.1,4.5,2.3
		c0.2,0.4,0.4,0.6,0.8,0.8l0,0c-0.1,0.7,0.3,1.3,0.7,1.8c4,5.4,7.2,11.3,9.8,17.4c2.5,5.9,4.4,12,5.6,18.3c0.5,2.9,1.8,5.6,2.4,8.5
		c1.8,7.4,3.3,14.9,5,22.3c1.1,4.8,2.5,9.6,3.8,14.4c0.2,0.9,0.7,1.5,1.4,2.1c-1,0.7-0.6,1.8-0.6,2.6c-0.1,4.8-0.1,9.6-0.1,14.4
		c-0.4,0.4-0.5,0.9,0,1.3c0,0.9,0,1.8-0.1,2.7c-0.4,1.2-0.5,2.4,0,3.6c0.1,2.6,0.1,5.1,0.2,7.7c-1.9,7.9-5.1,15.3-7.5,23
		c-0.1,0.3-0.3,0.5-0.5,0.7c-5.9-2.1-11.9-4-18-5.8c-1.3-0.4-2.6-0.8-3.9-0.6c0.1-1.1-0.5-2.1-0.7-3.1c-0.6-4.2-1.3-8.4-1.7-12.6
		c-0.6-5.6-0.9-11.3-1.5-16.9c-0.9-7.3-2.2-14.6-2.9-22c-1.6-15.9-4.6-31.5-7.5-47.2c-2.1-11.7-4.4-23.4-9.6-34.2
		C330.4,245,329.6,243.2,330.4,241.4z"/>
	<path class="st6" d="M290.9,240.3c2.8-0.1,5.4-1.1,8.1-1.8c1-0.3,2-0.5,3.1-0.8c1.4,0.3,2.9-0.4,4.3,0.4c1.4,3.1,1.3,6.3,0.9,9.6
		c-0.4,1.1-0.6,2.2-0.6,3.4c0.3,9.5,0.6,19,1.4,28.5c1.1,12.5,1.6,25.1,2.5,37.6c0.7,9.5,1.7,18.9,3.2,28.3
		c0.8,5.1,2.1,10.1,3.2,15.2c-2.4-0.2-4.6-1.1-6.9-1.8c-8.9-2.8-18-4.9-27.3-6.3c-1.6-0.3-3.2-0.5-4.8-0.5c-1.3,0-2-0.6-2-1.9
		c0.1-2.1-0.3-4.2,0.3-6.3c0.2-0.5,0.3-1.1,0.2-1.7c-0.2-4.2,0.6-8.2,1.3-12.2c0.7-4.5,1.3-9.1,2.1-13.5c1.3-6.8,2.7-13.7,3.4-20.6
		c0.4-4,1.1-8,0.7-12c-0.5-5.5-1.4-11-5.2-15.5c-2-2.3-4.4-4-7-5.4c-5.3-3-11.1-4.6-17.3-4.4c-1.5,0.1-3.1,0.4-4.5-0.4
		c5.4-2.9,11.2-5.1,17-7c7.7-2.6,14.9-6,22.1-9.5C289.9,241.4,290.5,241,290.9,240.3z"/>
	<path class="st4" d="M244.4,390.7c2.7,0,4.9,1.6,7.2,2.6c5.4,2.4,11.1,4.3,16.6,6.4c2.6,1,5.6,1.1,8.4,1.4c2.9,0.3,5.6,1,8.5,1.4
		c2.7,0.4,5.3,0.7,8,0.8c5.1,0.2,10.1,0.9,15.2,0.7c5.5-0.2,10.9,0.5,16.4,0.8c4.1,0.2,8.2,0.5,12.2,1.3c2.3,0.4,4.7-0.1,6.9-1.2
		c0.2-0.1,0.2-0.5,0.3-0.8c3.3,0.4,6.6,0.8,9.8,2c0,0.2,0,0.4,0,0.6c-0.2,1.3-1.4,2.4-1.1,3.8c-10.1,0.4-20.1,0.7-30.2,0.5
		c-4.1-0.1-8.3,0-12.4,0c-0.7,0-1.4,0-2,0.1c-2.5,0.4-3.6,1.8-3.5,4.4c0.1,2.3,1.4,3.6,3.9,3.7c1.1,0,2.1,0,3.2,0
		c12.5,0,24.9,0,37.4,0c-1.1,3-3.5,3.9-6.4,4c-7,0.2-14,0.5-21,0.7c-19.5,0.7-39,1.4-58.4,2.1c-4.1,0.1-8.3,0.2-12.4,0.3
		c-3.4,0-5-1.3-6.3-4.4c-0.8-2-1.3-4-1.2-6.1c0.2-7.9,0-15.8,0.7-23.6C244.2,391.5,244.3,391.1,244.4,390.7z"/>
	<path class="st7" d="M473.5,239.9c-6.5-0.4-12.9-1.4-19.2-2.8c-1.6-0.4-3.2-0.8-4.7-1.2c0-2.6,0.1-5.2,0.1-7.8
		c0-7.8,1-15.5,1.6-23.2c0.3-4.4,0.6-8.8,0.7-13.2c0.1-1.8,0.4-3.6,0.6-5.4c0.1-0.9,0.5-1.7,1.1-2.3c1.4-1.7,3.5-1.4,4.4,0.5
		c0.6,1.3,0.8,2.8,0.8,4.2c-0.1,4.9,0.7,9.8,0.7,14.5c1,0.6,1.4-0.1,1.9-0.5c3-2.2,6.4-3.5,10.1-4.1c1.9-0.3,3.8-0.6,5.7-0.7
		c2.1-0.1,3.2,0.5,3.5,1.8c0.4,1.4-0.2,2.5-2.2,3.6c-1.7,0.9-3.5,1.7-5.3,2.1c-1.5,0.4-2.9,1-4.1,2c1,0.4,1.7,0.2,2.4,0
		c3-0.7,5.7,0.1,8.3,1.5c2,1.1,3.2,2.7,2.8,5.2c-0.5,3.4-1,6.7-3.7,9.1c-0.4,0.4-0.9,1-1.4,1c-2,0.1-2.3,1.5-2.5,3
		C474.5,231.5,474,235.7,473.5,239.9z"/>
	<path class="st8" d="M349.3,419.1c-12.5,0-24.9,0-37.4,0c-1.1,0-2.1,0-3.2,0c-2.5-0.1-3.8-1.3-3.9-3.7c-0.1-2.6,1-4.1,3.5-4.4
		c0.7-0.1,1.3-0.1,2-0.1c4.1,0,8.3-0.1,12.4,0c10.1,0.1,20.1-0.2,30.2-0.5c0.8,0.5,1.5,0.5,2.2-0.1c4.6,0.4,9.3,0,13.9,0.2
		c0,0.3,0,0.6-0.1,0.8c-0.9,2.4-1.8,4.9-1.2,7.6C361.5,418.9,355.4,419,349.3,419.1z"/>
	<path class="st4" d="M356.3,248.2c-0.4-0.1-0.6-0.4-0.8-0.8C356,247.4,356.2,247.8,356.3,248.2z"/>
	<path class="st7" d="M353.9,406.1c-3.2-1.2-6.4-1.6-9.8-2c-0.2-0.1-0.3-0.2-0.5-0.3c-2.3-0.9-2.3-1-1.3-3.3c0.8-1.8,1.8-3.4,3-4.9
		c3.1-4.3,6.1-8.6,9.2-12.9c1.4-0.2,2.7,0.2,3.9,0.6c6,1.8,12.1,3.6,18,5.8c0.1,1.2-0.5,2.2-0.9,3.3c-1.6,4.5-3.1,9-4.7,13.5
		c-0.3,0.9-0.4,1.9-1.5,2.3c-1.9-0.3-3.8-0.7-5.6-1C360.5,406.7,357.3,405.7,353.9,406.1z"/>
	<path class="st9" d="M384.3,350c0-4.8,0.1-9.6,0.1-14.4c0-0.9-0.5-1.9,0.6-2.6c3,1.3,6,2.5,9.1,3.8c0.3,0.8,0,1.5-0.2,2.2
		c-2.9,8.4-5.8,16.8-8.8,25.2c-0.2,0.5-0.3,0.9-0.7,1.2c-0.1-2.6-0.1-5.1-0.2-7.7c0.3-1.2,0.3-2.4,0-3.7c0-0.9,0-1.8,0.1-2.7
		C384.5,350.9,384.5,350.4,384.3,350z"/>
	<path class="st6" d="M353.9,406.1c3.4-0.3,6.6,0.7,9.9,1.2c1.9,0.3,3.8,0.6,5.6,1c0.2,0.8,0.2,1.6-0.5,2.3
		c-4.6-0.3-9.3,0.2-13.9-0.2c-0.1-0.9-0.1-1.7-0.2-2.6c-0.1-0.5-0.1-1.2-1-1.1C353.9,406.4,353.9,406.2,353.9,406.1z"/>
	<path class="st10" d="M317,360.7c-1.1-5-2.4-10.1-3.2-15.2c-1.5-9.4-2.5-18.8-3.2-28.3c-0.9-12.6-1.4-25.1-2.5-37.6
		c-0.8-9.5-1.1-19-1.4-28.5c0-1.2,0.2-2.3,0.6-3.4c5.2,1.1,10.4,1.7,15.6,0.4c2.5-0.6,5-1.1,7.6-1.4c5.2,10.8,7.5,22.5,9.6,34.2
		c2.8,15.7,5.9,31.3,7.5,47.2c0.7,7.3,2.1,14.6,2.9,22c0.7,5.6,0.9,11.3,1.5,16.9c0.4,4.2,1.1,8.4,1.7,12.6c-1,0.3-1.7-0.3-2.4-0.6
		c-10.5-5.2-21-10.5-31.4-15.7C318.7,362.7,317.6,362,317,360.7z"/>
	<path class="st7" d="M330.5,246.7c-2.6,0.3-5.1,0.8-7.6,1.4c-5.2,1.3-10.4,0.7-15.6-0.4c0.4-3.3,0.4-6.5-0.9-9.6
		c0-1.3,0.1-2.5,0.1-3.8c1.9-5.4,1-10.8-0.1-16.2c-0.8-3.7-1.1-7.4-1-11.2c0.1-3.2,1-6,2.8-8.6c2.6-3.7,5.8-6.9,8.7-10.4
		c2.6-3.1,5.1-6.2,7.2-9.7c3.3-5.2,5.3-10.8,6.7-16.7c1.1,0.5,1.3,1.6,1.7,2.6c2.9,8,5.8,15.9,6.6,24.6c0.5,6.4,0.8,12.9,0.2,19.2
		c-0.9,8.8-4,16.9-9.7,23.8c-0.3,0.4-0.5,0.8-0.5,1.3c-1,2,0,3.9,0.4,5.8c0.2,0.8,0.6,1.6,1,2.4C329.6,243.2,330.4,245,330.5,246.7z
		"/>
	<path class="st11" d="M329,233.2c0-0.5,0.2-0.9,0.5-1.3c5.7-6.9,8.8-15.1,9.7-23.8c0.6-6.3,0.4-12.8-0.2-19.2
		c-0.7-8.6-3.7-16.6-6.6-24.6c-0.4-1-0.6-2-1.7-2.6c0.2-1.2,0.4-2.5,0.6-3.8c0.4,0.1,0.7,0.1,0.9,0.3c3.9,4.3,8.4,7.9,13.1,11.1
		c2.1,1.4,3.2,3.4,3.9,5.8c4.5,14.7,3.3,29.2-2.1,43.4c-1.7,4.4-3.4,8.8-5.5,12.9c-1.4,2.7-2,3-5,2.7
		C334.2,233.9,331.6,233.5,329,233.2z"/>
	<path class="st9" d="M306.5,234.4c0,1.3-0.1,2.5-0.1,3.8c-1.4-0.8-2.9-0.1-4.3-0.4C303.6,236.7,305.2,235.8,306.5,234.4z"/>
	<path class="st2" d="M384.2,354c0.3,1.2,0.3,2.4,0,3.7C383.8,356.5,383.8,355.2,384.2,354z"/>
	<path class="st2" d="M384.3,350c0.2,0.4,0.2,0.9,0,1.3C383.9,350.8,383.9,350.4,384.3,350z"/>
	<path class="st11" d="M353.9,406.6c0.8-0.1,0.9,0.6,1,1.1c0.1,0.9,0.1,1.7,0.2,2.6c-0.7,0.6-1.4,0.6-2.2,0.1
		C352.5,408.9,353.7,407.9,353.9,406.6z"/>
	<path class="st12" d="M595.4,148.5h21v83.4h-21V148.5z"/>
	<path class="st13" d="M570.9,158.9h21v73h-21V158.9z"/>
	<path class="st14" d="M545.5,175.9h21v56h-21V175.9z"/>
	<path class="st14" d="M520.5,195.4h21v36.5h-21V195.4z"/>
	<path class="st15" d="M609.2,125.4L519.8,171l1.7,3.3l89.3-45.7L609.2,125.4z"/>
	<path class="st15" d="M612.1,125.2l-14.3-4.4l-1.1,3.5l14.3,4.5L612.1,125.2z"/>
	<path class="st15" d="M608.6,124.1l-4.4,14.3l3.5,1.1l4.4-14.3L608.6,124.1z"/>
	<path class="st15" d="M513.5,59c-0.8,0-1.5,0.7-1.5,1.5v33c0,0.8,0.7,1.5,1.5,1.5h33c0.8,0,1.5-0.7,1.5-1.5
		C548.1,74.5,532.6,59,513.5,59z"/>
	<path class="st16" d="M529.7,122.7L509,96V63.5c0-0.8-0.7-1.5-1.5-1.5C490.1,62,476,77.5,476,96.6c0,19.1,15.5,34.5,34.5,34.5
		c6.9,0.5,13.8-1.8,19-6.3C530.1,124.2,530.2,123.3,529.7,122.7z"/>
	<path class="st17" d="M546.6,98.1h-30c-0.8,0-1.5,0.7-1.5,1.5c0,0.3,0.1,0.7,0.3,0.9l19.5,24.2c0.3,0.3,0.6,0.5,1.1,0.6h0.1
		c0.4,0,0.7-0.1,1-0.4c7-6.5,11-15.7,11-25.3C548.1,98.7,547.4,98.1,546.6,98.1z"/>
	<path class="st18" d="M248.7,54.3c0-4.7-1.9-9.3-5.2-12.6c-3.4-3.4-7.9-5.2-12.6-5.2c-37.1,0-122.4,0-159.5,0
		c-4.7,0-9.3,1.9-12.6,5.2c-3.4,3.4-5.2,7.9-5.2,12.6c0,30.6,0,92.7,0,123.3c0,4.7,1.9,9.3,5.2,12.6c3.4,3.4,7.9,5.2,12.6,5.2
		c37.1,0,122.4,0,159.5,0c4.7,0,9.3-1.9,12.6-5.2c3.4-3.4,5.2-7.9,5.2-12.6C248.7,147,248.7,84.9,248.7,54.3z"/>
	<path class="st19" d="M245.4,57.8c0-4.7-1.9-9.3-5.2-12.6c-3.4-3.4-7.9-5.2-12.6-5.2c-36,0-116.9,0-152.9,0
		c-4.7,0-9.3,1.9-12.6,5.2c-3.4,3.4-5.2,7.9-5.2,12.6c0,29.4,0,87.5,0,116.9c0,4.7,1.9,9.3,5.2,12.6c3.4,3.4,7.9,5.2,12.6,5.2
		c36,0,116.9,0,152.9,0c4.7,0,9.3-1.9,12.6-5.2c3.4-3.4,5.2-7.9,5.2-12.6C245.4,145.3,245.4,87.2,245.4,57.8z"/>
	<path class="st18" d="M232.8,53c0-0.4-0.3-0.7-0.7-0.7c-7.2,0-64.7,0-72,0c-0.4,0-0.7,0.3-0.7,0.7c0,0.4,0.3,0.7,0.7,0.7
		c7.2,0,64.7,0,72,0C232.4,53.8,232.8,53.4,232.8,53z"/>
	<path class="st0" d="M146.5,56c0-4.7-3.9-8.6-8.6-8.6c-16,0-50.2,0-66.2,0c-4.7,0-8.6,3.9-8.6,8.6c0,11.7,0,32.4,0,44.1
		c0,4.7,3.9,8.6,8.6,8.6c16,0,50.2,0,66.2,0c4.7,0,8.6-3.9,8.6-8.6C146.5,88.4,146.5,67.7,146.5,56z"/>
	<path class="st0" d="M235.4,153.5c0-5-4-9-9-9c-24.1,0-89.7,0-113.8,0c-5,0-9,4-9,9c0,6.6,0,15.6,0,22.2c0,5,4,9,9,9
		c24.1,0,89.7,0,113.8,0c5,0,9-4,9-9C235.4,169.1,235.4,160.2,235.4,153.5z"/>
	<path class="st15" d="M387.4,137.3l-1-0.2c-1.5-0.5-2.5-1.8-2.5-3.4v-15.2h-29.3c-1.9,0-3.5-1.6-3.5-3.5V61.1
		c0-4.5,3.7-8.2,8.2-8.2H432c4.5,0,8.2,3.7,8.2,8.2v49.2c0,4.5-3.7,8.2-8.2,8.2h-29.8l-11.8,17.2
		C389.7,136.7,388.6,137.3,387.4,137.3z"/>
	<path class="st20" d="M396.2,82.2h-1.2c-1,0-1.8-0.8-1.8-1.8c0-1,0.8-1.8,1.8-1.8h6.4c1.9,0,3.5-1.6,3.5-3.5c0-1.9-1.6-3.5-3.5-3.5
		h-2.4v-1.2c0-1.9-1.6-3.5-3.5-3.5c-1.9,0-3.5,1.6-3.5,3.5v1.7c-3.4,1.2-5.8,4.4-5.8,8.3c0,4.8,4,8.8,8.8,8.8h1.2
		c1,0,1.8,0.8,1.8,1.8c0,1-0.8,1.8-1.8,1.8h-6.4c-1.9,0-3.5,1.6-3.5,3.5c0,1.9,1.6,3.5,3.5,3.5h2.4v1.2c0,1.9,1.6,3.5,3.5,3.5
		c1.9,0,3.5-1.6,3.5-3.5v-1.7c3.4-1.2,5.8-4.4,5.8-8.3C405,86.1,401.1,82.2,396.2,82.2z"/>
	<path class="st21" d="M657.8,439H184.7c-5.1,0-9.3-4.2-9.3-9.3c0-5.1,4.2-9.3,9.3-9.3h473.1c5.1,0,9.3,4.2,9.3,9.3
		C667.1,434.8,662.9,439,657.8,439z"/>
	<path class="st22" d="M601.5,382.8c0.2-4.4,7.4-7.8,2.8-7.8c-20.7,0-73.4,0-91.3,0c-3.3,0-6,2.5-6,5.6c0,1.5,0,3.2,0,4.6
		c0,3.1,2.7,5.6,6,5.6c17.9,0,70.6,0,91.3,0C609,391,601.2,389,601.5,382.8z"/>
	<path class="st23" d="M601.2,382.7c0.1-3.4,4.4-6.1,2.5-6.1c-8.5,0-31.4,0.2-38.7,0.2c-1.4,0-2.5,1.9-2.5,4.3c0,1.2,0,2.4,0,3.6
		c0,2.4,1.1,4.3,2.5,4.3c7.3,0,29.4,0.2,37.9,0.2C604.7,389.1,601,387.5,601.2,382.7z"/>
	<path class="st24" d="M599.1,412.6c0.2-4.4,7.4-7.8,2.8-7.8c-20.7,0-73.4,0-91.3,0c-3.3,0-6,2.5-6,5.6c0,1.5,0,3.2,0,4.6
		c0,3.1,2.7,5.6,6,5.6c17.9,0,70.6,0,91.3,0C606.5,420.7,598.8,418.8,599.1,412.6z"/>
	<path class="st25" d="M601,397.7c0.2-4.4,7.4-7.8,2.8-7.8c-20.7,0-73.4,0-91.3,0c-3.3,0-6,2.5-6,5.6c0,1.5,0,3.2,0,4.6
		c0,3.1,2.7,5.6,6,5.6c17.9,0,70.6,0,91.3,0C608.5,405.8,600.7,403.8,601,397.7z"/>
	<path class="st23" d="M600.6,397.7c0.1-3.4,4.2-6.1,2.4-6.1c-8.3,0-30.6,0.2-37.7,0.2c-1.3,0-2.4,1.9-2.4,4.3c0,1.2,0,2.4,0,3.6
		c0,2.4,1.1,4.3,2.4,4.3c7.1,0,28.7,0.2,36.9,0.2C604,404.1,600.5,402.4,600.6,397.7z"/>
	<path class="st23" d="M598.7,412.8c0.1-3.4,4.2-6.1,2.4-6.1c-8.3,0-30.6,0.2-37.7,0.2c-1.3,0-2.4,1.9-2.4,4.3c0,1.2,0,2.4,0,3.6
		c0,2.4,1.1,4.3,2.4,4.3c7.1,0,28.7,0.2,36.9,0.2C602.2,419.1,598.6,417.5,598.7,412.8z"/>
	<path class="st26" d="M202.8,222.2H65c-1.1,0-2-0.9-2-2c0-1.1,0.9-2,2-2h137.7c1.1,0,2,0.9,2,2
		C204.8,221.3,203.9,222.2,202.8,222.2z"/>
	<path class="st26" d="M135.8,237.2H65c-1.1,0-2-0.9-2-2c0-1.1,0.9-2,2-2h70.8c1.1,0,2,0.9,2,2C137.8,236.3,136.9,237.2,135.8,237.2
		z"/>
	<path class="st26" d="M66.6,236.1c0.5-2.7-1.3-5.3-4-5.7c-2.7-0.5-5.3,1.3-5.7,4c-0.5,2.7,1.3,5.3,4,5.7
		C63.6,240.6,66.2,238.8,66.6,236.1z"/>
	<path class="st26" d="M66.5,221.7c0.8-2.6-0.7-5.4-3.4-6.1c-2.6-0.8-5.4,0.7-6.1,3.4c-0.8,2.6,0.7,5.4,3.4,6.1
		C63,225.8,65.7,224.3,66.5,221.7z"/>
	<path class="st27" d="M598.5,259.1c0-0.8-0.6-1.5-1.4-1.5l-68.6-1.4c-0.8,0-1.5,0.6-1.5,1.4l-0.8,40.1c0,0.8,0.6,1.5,1.4,1.5
		l68.6,1.4c0.8,0,1.5-0.6,1.5-1.4L598.5,259.1z"/>
	<path class="st28" d="M562.5,283l35.4-25.1l-69.9-1.4L562.5,283z"/>
	<path class="st19" d="M59.4,353c-0.2-0.1,0.6,0.9,0.8,1c0.8,0.6,1.8,1.1,2.8,1.4c2.9,1,6.1,1.3,9.2,1.5c10.3,0.7,18.8-0.6,26.6-8.1
		c13.4-12.8,32.9-36.9,52.2-19.5c8.7,7.8,12.9,19.8,21.9,27.3c2.8,2.3,5.9,3.9,9.3,4.7c3.5,0.9,13.5,0.3,15.7,3.3
		c1.4,2,1.6,5.1,2.2,7.4c0.9,3.4,4.2,7.9,1.5,10.4c-2.9,2.7-8.4,1.8-12.7,1.5c-2.9-0.2-6.7-0.2-9.5-0.4c-13.1-0.5-26.3,0.8-40.2,0.7
		c-20.5-0.2-41.4,0.8-61.7-1c-2.7-0.2-18.7,4.1-19.5-0.9C57,376.6,58,359,59.4,353z"/>
	<path class="st18" d="M59.5,281.3h-3.6v103.6h3.6V281.3z"/>
	<path class="st18" d="M211.3,382.5H56.5v2.3h154.9V382.5z"/>
	<path class="st18" d="M210.4,379.6c2.3,0,4.1,1.9,4.1,4.1c0,2.3-1.8,4.1-4.1,4.1c-2.3,0-4.1-1.9-4.1-4.1
		C206.3,381.5,208.2,379.6,210.4,379.6z"/>
	<path class="st18" d="M58,276.5c2.6,0,4.8,2.1,4.8,4.8c0,2.6-2.1,4.8-4.8,4.8c-2.6,0-4.8-2.1-4.8-4.8S55.4,276.5,58,276.5z"/>
	<path class="st18" d="M89.1,340.9c0-1.8-1.4-3.2-3.2-3.2c-1.5,0-3.4,0-4.8,0c-1.8,0-3.2,1.4-3.2,3.2c0,10.3,0,42,0,42h11.2
		C89.1,383,89.1,351.2,89.1,340.9z"/>
	<path class="st18" d="M113.2,329.4c0-1.8-1.4-3.2-3.2-3.2c-1.5,0-3.4,0-4.8,0c-1.8,0-3.2,1.4-3.2,3.2c0,12,0,53.8,0,53.8h11.2
		C113.2,383.2,113.2,341.4,113.2,329.4z"/>
	<path class="st18" d="M161,318.6c0-1.8-1.4-3.2-3.2-3.2c-1.5,0-3.4,0-4.8,0c-1.8,0-3.2,1.4-3.2,3.2c0,13.5,0,65.3,0,65.3h11.2
		C161,383.9,161,332.1,161,318.6z"/>
	<path class="st18" d="M183.1,337.8c0-1.8-1.4-3.2-3.2-3.2c-1.5,0-3.4,0-4.8,0c-1.8,0-3.2,1.4-3.2,3.2c0,10.8,0,45.7,0,45.7h11.2
		C183.1,383.5,183.1,348.6,183.1,337.8z"/>
	<path class="st18" d="M204.9,356.4c0-0.8-0.3-1.7-0.9-2.3c-0.6-0.6-1.4-0.9-2.3-0.9c-1.5,0-3.4,0-4.8,0c-0.8,0-1.7,0.3-2.3,0.9
		c-0.6,0.6-0.9,1.4-0.9,2.3c0,7.7,0,26.6,0,26.6h11.2C204.9,383,204.9,364.1,204.9,356.4z"/>
	<path class="st18" d="M136.8,303.9c0-1.8-1.4-3.2-3.2-3.2c-1.5,0-3.4,0-4.8,0c-1.8,0-3.2,1.4-3.2,3.2c0,15.1,0,79.5,0,79.5h11.2
		C136.8,383.4,136.8,319.1,136.8,303.9z"/>
</g>
</svg>
