<?xml version="1.0" encoding="utf-8"?>
<!-- Generator: Adobe Illustrator 27.0.0, SVG Export Plug-In . SVG Version: 6.00 Build 0)  -->
<svg version="1.1" id="Layer_1" xmlns="http://www.w3.org/2000/svg" xmlns:xlink="http://www.w3.org/1999/xlink" x="0px" y="0px"
	 viewBox="0 0 691.2 486.1" style="enable-background:new 0 0 691.2 486.1;" xml:space="preserve">
<style type="text/css">
	.st0{fill:#83A1E6;}
	.st1{fill:#F0F5FF;}
	.st2{fill:#1D3C80;}
	.st3{fill:#D6DAE6;}
	.st4{fill:#FF6F61;}
	.st5{fill:#FFC3AD;}
	.st6{fill:#F0A68C;}
	.st7{fill:#1E1F35;}
	.st8{fill:#FFFFFF;}
	.st9{fill:#122A61;}
	.st10{fill:#D8ECF2;}
	.st11{fill:#D8E4E8;}
	.st12{fill:#ABBADE;}
	.st13{fill:#6E93E6;}
	.st14{fill:none;stroke:#83A1E6;stroke-width:5.4157;stroke-miterlimit:10;}
	.st15{fill:#DFE7F4;}
</style>
<g>
	<g>
		<g>
			<path class="st0" d="M269.4,108.7h-8.1c-1.9,0-3.4-1.5-3.4-3.4V95.2c-1.7-0.5-3.3-1.2-4.9-2l-7.2,7.2c-1.3,1.3-3.5,1.3-4.8,0
				l-5.7-5.7c-1.3-1.3-1.3-3.5,0-4.8l7.2-7.2c-0.8-1.5-1.5-3.2-2-4.9h-10.2c-1.9,0-3.4-1.5-3.4-3.4v-8.1c0-1.9,1.5-3.4,3.4-3.4h10.2
				c0.5-1.7,1.2-3.3,2-4.9l-7.2-7.2c-1.3-1.3-1.3-3.5,0-4.8l5.7-5.7c1.3-1.3,3.5-1.3,4.8,0l7.2,7.2c1.5-0.8,3.2-1.5,4.9-2V35.5
				c0-1.9,1.5-3.4,3.4-3.4h8.1c1.9,0,3.4,1.5,3.4,3.4v10.2c1.7,0.5,3.3,1.2,4.9,2l7.2-7.2c1.3-1.3,3.5-1.3,4.8,0l5.7,5.7
				c1.3,1.3,1.3,3.5,0,4.8l-7.2,7.2c0.8,1.5,1.5,3.2,2,4.9h10.2c1.9,0,3.4,1.5,3.4,3.4v8.1c0,1.9-1.5,3.4-3.4,3.4h-10.2
				c-0.5,1.7-1.2,3.3-2,4.9l7.2,7.2c1.3,1.3,1.3,3.5,0,4.8l-5.7,5.7c-1.3,1.3-3.5,1.3-4.8,0l-7.2-7.2c-1.5,0.8-3.2,1.5-4.9,2v10.2
				C272.8,107.2,271.3,108.7,269.4,108.7z M252.9,91.3l0.5,0.3c1.8,1,3.6,1.8,5.6,2.3l0.6,0.2v11.3c0,1,0.8,1.8,1.8,1.8h8.1
				c1,0,1.8-0.8,1.8-1.8V94l0.6-0.2c1.9-0.5,3.8-1.3,5.6-2.3l0.5-0.3l8,8c0.7,0.7,1.9,0.7,2.6,0l5.7-5.7c0.7-0.7,0.7-1.9,0-2.6l-8-8
				l0.3-0.5c1-1.8,1.8-3.6,2.3-5.6l0.2-0.6h11.3c1,0,1.8-0.8,1.8-1.8v-8.1c0-1-0.8-1.8-1.8-1.8h-11.3l-0.2-0.6
				c-0.5-1.9-1.3-3.8-2.3-5.6l-0.3-0.5l8-8c0.7-0.7,0.7-1.9,0-2.6l-5.7-5.7c-0.7-0.7-1.9-0.7-2.6,0l-8,8l-0.5-0.3
				c-1.8-1-3.6-1.8-5.6-2.3l-0.6-0.2V35.5c0-1-0.8-1.8-1.8-1.8h-8.1c-1,0-1.8,0.8-1.8,1.8v11.3l-0.6,0.2c-1.9,0.5-3.8,1.3-5.6,2.3
				l-0.5,0.3l-8-8c-0.7-0.7-1.9-0.7-2.6,0l-5.7,5.7c-0.7,0.7-0.7,1.9,0,2.6l8,8l-0.3,0.5c-1,1.8-1.8,3.6-2.3,5.6l-0.2,0.6h-11.3
				c-1,0-1.8,0.8-1.8,1.8v8.1c0,1,0.8,1.8,1.8,1.8h11.3l0.2,0.6c0.5,1.9,1.3,3.8,2.3,5.6l0.3,0.5l-8,8c-0.7,0.7-0.7,1.9,0,2.6
				l5.7,5.7c0.7,0.7,1.9,0.7,2.6,0L252.9,91.3z M265.4,84.6c-7.8,0-14.1-6.3-14.1-14.1s6.3-14.1,14.1-14.1c7.8,0,14.1,6.3,14.1,14.1
				S273.2,84.6,265.4,84.6z M265.4,57.8c-7,0-12.6,5.7-12.6,12.6c0,7,5.7,12.6,12.6,12.6c7,0,12.6-5.7,12.6-12.6
				C278,63.5,272.3,57.8,265.4,57.8z"/>
		</g>
	</g>
	<g id="fon">
		<path class="st1" d="M42.8,181.2c82.5-44.1,169-51.1,241.3-67c95.2-21,127.8-78.7,238.6-73.4c106.4,5.1,118.1,108.9,136,197.2
			c15.7,77.2,13,179.8-33.6,219.6c-41.4,35.5-202.2,20.4-293.3,16.8c-88.1-3.5-210.2,15.9-244.8-4.1
			C35.6,440.5,10.7,357.7,7.2,310.4C3.3,256.9,3.4,202.2,42.8,181.2z"/>
	</g>
	<g>
		<g>
			<path class="st2" d="M432.6,267.6c-4.9-11.4-13.7-20.2-16-33.5c-4-23.3,19.7-45.4,18.7-74.9c-0.5-14-6.4-26.7-16-35.9
				c9.2,6.4,14.3,13.8,18.7,25.3c7.2,19-2.6,39.5-2.7,39.7c-0.2,0.4,0,0.8,0.4,1c0.1,0.1,0.2,0.1,0.3,0.1c0.3,0,0.6-0.2,0.7-0.4
				c0.1-0.2,10.1-21.3,2.7-40.9c-5.8-15.4-13.1-23.8-29.1-31.7c-9.5-5.8-21.1-9-33.9-8.2c-15.5,0.9-23.3,8.3-27.1,14.4
				c-0.5,0.8-0.9,1.6-1.3,2.4c-1.6,3.2-2.1,5.7-2.1,5.7l9.7,197.6c0,0,32.7,11.6,43.2,8.4c13.7-1.6,36.3-25.8,37-51.4
				c1.2,7.3,1.2,16.3-2.1,26.3c-0.2,0.6,0.1,1.2,0.7,1.4c0.6,0.2,1.3-0.1,1.5-0.7c4.9-15.2,2.7-28.3-0.1-36.7
				C435,272.6,433.8,269.9,432.6,267.6z"/>
		</g>
		<g>
			<polygon class="st3" points="372,279.8 319.1,279.8 318.3,298 371.3,298 			"/>
		</g>
		<g>
			<path class="st4" d="M469.9,438.6l-0.1-0.2L421.1,317c-2.2-5.5-6.5-10-11.9-12.4c-5.6-2.5-13.3-5.7-21.4-8.4l-12-5
				c-0.3,0.4-0.5,0.9-0.8,1.3c-9.3-2.3-19-3.9-27.7-3.7c-5.9,0.1,4.7,10.2,16.2,20.9c-5.4,6.6-11.5,11.5-16.7,18.8
				c-5.9-7.6-10.3-14.9-15.1-21.8c10-7.4,18.3-13.9,13.3-15.6c-3.5-1.2-12.9,0-23.9,2.3c-0.9-1-1.9-2-2.9-2.9l-39,14.3
				c-6.8,2.5-12,8-14.1,15l-36.1,119.6l-0.1,0.3c-0.6,1.7-0.9,3.5-0.9,5.4c-0.1,9.7,8.1,17.6,17.8,17.6l65.7,6.5
				c9.6,0,17.6-14,17.8-23.6c0.1-3-0.6-5.8-1.9-8.2l47.9-1.1c-1.6,2.7-2.5,5.8-2.5,9.1c0.1,9.6,39.4,23.8,49,23.8
				c0,0,36.3-6.9,38.5-7.7C469.2,457.7,473.5,447.5,469.9,438.6z M271.7,427.7h-1.3l1.2-3.3L271.7,427.7z M421.8,416l5.1,11.7h-4.7
				L421.8,416z"/>
		</g>
		<g>
			<g>
				<path class="st4" d="M389.5,136.3c-1.4,4.5-7.4,6.6-13.4,4.7c-6-1.9-9.8-7.1-8.3-11.5c1.4-4.5,5.4-6.7,13.4-4.7
					C391.2,127.2,390.9,131.8,389.5,136.3z"/>
			</g>
		</g>
		<g>
			<g>
				<path class="st5" d="M364.6,286.5c-1.3-5.5-1.8-10.3-2-14.2c-5.1,3.1-10.9,5.4-17.9,5.7c-4.9,0.2-9.8-1.1-14.3-3.3
					c-0.1,3.5-0.5,7.5-1.6,11.8h0l-10.7,3.9c12.4,11.9,18,24.4,28.7,38.1c6.5-9.1,14.4-14.5,20.6-24.2c2.9-4.5,5.8-8.8,8.5-13.2
					L364.6,286.5z"/>
			</g>
			<g>
				<path class="st5" d="M351.1,157.2c30.9-0.8,38.9,8.6,41.6,26.2c0.9,5.8,1.2,12.5,1.6,20.1c0,0.4,0,0.7,0,1.1
					c0.1-2.5,0.1-5,0-7.7c-0.4-7.5-0.7-14.2-1.6-20.1c-2.7-17.6-10.7-27-41.6-26.2c-39.5,1-58.3,7.1-57,43.1
					C295.3,163.5,314.1,158.1,351.1,157.2z"/>
			</g>
			<g>
				<path class="st6" d="M362.7,265.8c-5.1,3.2-11,5.4-18,5.8c-5,0.2-9.9-1.2-14.6-3.5c0.2,1.8,0.3,4.1,0.2,6.7
					c4.6,2.2,9.4,3.6,14.3,3.3c6.9-0.3,12.8-2.6,17.9-5.7C362.5,269.7,362.6,267.5,362.7,265.8z"/>
			</g>
			<g>
				<path class="st5" d="M394.3,203.4c-0.4-7.5-0.7-14.2-1.6-20.1c-2.7-17.6-10.7-27-41.6-26.2c-37,0.9-55.8,6.3-57,36.6
					c0.1,1.5,0.1,3,0.3,4.6c0.5,6.6,1.4,13,2.7,19.1c0,0,0,0,0,0c3.2,15.6,8.5,28.9,14.4,35.6c4.1,4.6,9.6,9.8,15.9,13.5
					c0.9,0.6,1.9,1.1,2.8,1.5c4.6,2.3,9.6,3.7,14.6,3.5c7-0.3,12.8-2.6,18-5.8c1-0.6,2-1.3,2.9-2c3-2.1,5.7-4.6,8.2-7
					c6.7-6.5,19.5-25.7,20.5-52.3C394.4,204.2,394.3,203.8,394.3,203.4z"/>
			</g>
		</g>
		<g>
			<g>
				<path class="st6" d="M407.2,175c-1.2,12.1-7.6,30.4-14.8,44.7l-0.1,0c-2.1-23.9-9.5-26.1-14.2-31c-6.1-6.4-8-20.3-8-20.3
					s-7.4,10.4-18.9,14c-10.8,3.4-27.3,0.2-42.1,6.3c-9.8,4.1-11.6,31-11.6,31l-2.2-49.8l77.4-26.9L407.2,175z"/>
			</g>
		</g>
		<g>
			<g>
				<path class="st5" d="M385.1,226.7c-1.8,5-0.6,10.1,2.7,11.3c3.3,1.2,7.5-1.9,9.3-7c1.8-5,0.6-10.1-2.7-11.3
					C391.1,218.5,386.9,221.6,385.1,226.7z"/>
			</g>
		</g>
		<g>
			<g>
				<path class="st5" d="M293.4,231c-1.8-5-0.6-10.1,2.7-11.3c3.3-1.2,7.5,1.9,9.3,7c1.8,5,0.6,10.1-2.7,11.3
					C299.4,239.2,295.2,236,293.4,231z"/>
			</g>
		</g>
		<g>
			<g>
				<ellipse class="st7" cx="318.1" cy="214.7" rx="4.3" ry="6.3"/>
			</g>
		</g>
		<g>
			<g>
				<ellipse class="st7" cx="372.2" cy="214.7" rx="4.3" ry="6.3"/>
			</g>
		</g>
		<g>
			<path class="st2" d="M407.3,168c-1.3-9.6-6.8-36.1-31.6-35.8c-0.6,0-1.2,0.2-1.9,0.4c0,0,0,0,0,0c0,0-0.4-0.3-1.1-0.8
				c-3.5-2.3-14.9-8.7-31.6-6.2c-20.6,3-47.8,12.4-49.1,53.5c-0.9,28.3,5.7,40.7,5.7,40.7s-3.5-25.1,9.2-32.5
				c9.3-5.5,22.3-5.1,38.6-7.6c12.7-2,21.5-11.9,24.9-17v0c0.5-0.8,0.9-1.4,1.2-1.9c0.1,0.4,0.2,1.1,0.3,1.8c1.1,6.1,5,19,12.8,26.2
				c9.9,9.1,9.6,19.9,8,31c7.1-14.3,13.5-32.6,14.8-44.7C407.5,172.3,407.5,169.9,407.3,168z"/>
		</g>
		<g>
			<g>
				<path class="st8" d="M337.1,242C337.1,242,337.1,242.1,337.1,242c0.1,0.1,0.1,0.1,0.2,0.1c0.1,0,0.1,0.1,0.2,0.1
					c0.1,0.1,0.2,0.1,0.3,0.2c0.1,0.1,0.3,0.2,0.4,0.2c0.2,0.1,0.3,0.2,0.5,0.3c0.2,0.1,0.4,0.2,0.5,0.3c0.2,0.1,0.4,0.2,0.6,0.3
					c0.2,0.1,0.4,0.2,0.6,0.3c0.2,0.1,0.4,0.2,0.7,0.2c0.2,0,0.5,0.1,0.7,0.2c0.1,0,0.2,0,0.4,0.1c0.1,0,0.2,0.1,0.4,0.1
					c0.1,0,0.3,0,0.4,0.1c0.1,0,0.2,0.1,0.4,0.1c0.3,0,0.5,0,0.8,0.1c0.3,0,0.5,0,0.8,0c0.3,0,0.6,0,0.9,0l0.1,0l0.1,0l0,0l0,0
					c0.2,0-0.2,0-0.2,0l0,0l0.3,0l0.6-0.1l0.2,0c0,0,0,0,0.1,0c0,0,0.1,0,0.1,0c0.1,0,0.2,0,0.3,0c0.2-0.1,0.5-0.1,0.7-0.1
					c0.2-0.1,0.5-0.1,0.7-0.2c0.1,0,0.2-0.1,0.3-0.1c0.1,0,0.2-0.1,0.3-0.1c0.2-0.1,0.4-0.2,0.7-0.3c0.4-0.2,0.9-0.4,1.3-0.7
					c0.2-0.1,0.4-0.2,0.6-0.4c0.2-0.1,0.4-0.2,0.5-0.4c0.3-0.2,0.6-0.5,0.9-0.7c0.2-0.2,0.5-0.3,0.6-0.5c0.1-0.1,0.2-0.2,0.2-0.2
					l0.3-0.2c1.1-0.8,2.6-0.5,3.4,0.6c0.3,0.5,0.5,1.1,0.4,1.6c0,0,0,0.1-0.1,0.3c0,0.2-0.1,0.6-0.2,1c-0.1,0.4-0.3,0.9-0.5,1.5
					c-0.3,0.6-0.6,1.2-1,1.8c-0.2,0.3-0.5,0.7-0.7,1c-0.3,0.3-0.6,0.7-0.9,1c-0.7,0.6-1.5,1.3-2.4,1.8c-0.9,0.5-1.9,0.9-3,1.3
					c-0.3,0.1-0.6,0.1-0.9,0.2L348,253l-0.2,0l-0.2,0l-0.6,0.1l-0.3,0l0,0l-0.2,0l0,0l0,0l-0.1,0l-0.2,0c-0.5,0-1.1,0-1.6,0
					c-0.5-0.1-1.1-0.1-1.6-0.2c-0.5-0.1-1-0.2-1.6-0.4c-0.5-0.1-1-0.3-1.5-0.5c-0.9-0.4-1.8-0.9-2.6-1.5c-0.4-0.3-0.7-0.6-1-0.9
					c-0.3-0.3-0.6-0.6-0.9-0.9c-0.3-0.3-0.5-0.6-0.7-0.9c-0.2-0.3-0.4-0.6-0.6-0.9c-0.2-0.3-0.3-0.5-0.4-0.8
					c-0.1-0.3-0.2-0.5-0.3-0.7c-0.2-0.4-0.3-0.8-0.3-1c0-0.1-0.1-0.3-0.1-0.3c0-0.1,0-0.1,0-0.1c-0.1-1.3,0.8-2.5,2.2-2.7
					C335.9,241.4,336.6,241.6,337.1,242L337.1,242z"/>
			</g>
		</g>
		<g>
			<g>
				<path class="st2" d="M324.5,200.2c0,0,0,0-0.1-0.1c-0.1,0-0.2-0.1-0.4-0.2c-0.4-0.1-1-0.3-1.7-0.5c-1.4-0.4-3.3-0.7-5.2-0.7
					c-0.5,0-0.9,0-1.4,0.1c-0.5,0-0.9,0.1-1.3,0.2c-0.4,0.1-0.8,0.2-1.2,0.3c-0.2,0.1-0.4,0.1-0.5,0.2c-0.2,0.1-0.3,0.1-0.5,0.2
					c-0.3,0.1-0.6,0.3-0.8,0.4c-0.2,0.1-0.4,0.3-0.6,0.4c-0.3,0.2-0.5,0.4-0.5,0.4l-0.1,0.1c-0.7,0.5-1.6,0.3-2.1-0.4
					c-0.4-0.7-0.3-1.5,0.3-2c0,0,0.2-0.2,0.6-0.5c0.2-0.2,0.5-0.3,0.8-0.6c0.3-0.2,0.7-0.4,1.1-0.6c0.2-0.1,0.4-0.2,0.6-0.3
					c0.2-0.1,0.4-0.2,0.7-0.3c0.5-0.2,1-0.4,1.5-0.5c0.5-0.2,1.1-0.3,1.7-0.4c0.6-0.1,1.1-0.2,1.7-0.2c2.3-0.2,4.6,0,6.3,0.3
					c0.8,0.1,1.5,0.3,2,0.4c0.3,0.1,0.4,0.1,0.6,0.2c0.2,0,0.2,0.1,0.2,0.1c1.2,0.4,1.9,1.7,1.5,2.9c-0.4,1.2-1.7,1.9-2.9,1.5
					C324.7,200.3,324.6,200.3,324.5,200.2L324.5,200.2z"/>
			</g>
		</g>
		<g>
			<g>
				<path class="st2" d="M365.5,200.2c0,0,0,0,0.1-0.1c0.1,0,0.2-0.1,0.4-0.2c0.4-0.1,1-0.3,1.7-0.5c1.4-0.4,3.3-0.7,5.2-0.7
					c0.5,0,0.9,0,1.4,0.1c0.5,0,0.9,0.1,1.3,0.2c0.4,0.1,0.8,0.2,1.2,0.3c0.2,0.1,0.4,0.1,0.5,0.2c0.2,0.1,0.3,0.1,0.5,0.2
					c0.3,0.1,0.6,0.3,0.8,0.4c0.2,0.1,0.4,0.3,0.6,0.4c0.3,0.2,0.5,0.4,0.5,0.4l0.1,0.1c0.7,0.5,1.6,0.3,2.1-0.4
					c0.4-0.7,0.3-1.5-0.3-2c0,0-0.2-0.2-0.6-0.5c-0.2-0.2-0.5-0.3-0.8-0.6c-0.3-0.2-0.7-0.4-1.1-0.6c-0.2-0.1-0.4-0.2-0.6-0.3
					c-0.2-0.1-0.4-0.2-0.7-0.3c-0.5-0.2-1-0.4-1.5-0.5c-0.5-0.2-1.1-0.3-1.7-0.4c-0.6-0.1-1.1-0.2-1.7-0.2c-2.3-0.2-4.6,0-6.3,0.3
					c-0.8,0.1-1.5,0.3-2,0.4c-0.3,0.1-0.4,0.1-0.6,0.2c-0.2,0-0.2,0.1-0.2,0.1c-1.2,0.4-1.9,1.7-1.5,2.9c0.4,1.2,1.7,1.9,2.9,1.5
					C365.3,200.3,365.4,200.3,365.5,200.2L365.5,200.2z"/>
			</g>
		</g>
		<g>
			<g>
				<path class="st9" d="M375.7,132.2l-4,30.3c-0.1-0.8-0.3-1.4-0.3-1.8c-0.3,0.4-0.6,1.1-1.2,1.9l2.4-30.8c0.7,0.5,1.1,0.8,1.1,0.8
					c0,0,0,0,0,0C374.4,132.4,375,132.3,375.7,132.2z"/>
			</g>
		</g>
		<g>
			<g>
				<path class="st6" d="M342.2,233.6c-1.3,0-2.7-0.2-3.7-1c-0.7-0.5-1.5-1.5-1.5-3.3c0-1.9,1-3.5,2-5.1c0.2-0.2,0.3-0.5,0.5-0.7
					c0.5-0.8,1.2-3.2,1.4-4c0.1-0.5,0.6-0.7,1.1-0.6c0.5,0.1,0.7,0.6,0.6,1.1c-0.1,0.3-0.9,3.3-1.6,4.5c-0.2,0.2-0.3,0.5-0.5,0.7
					c-0.9,1.4-1.8,2.7-1.8,4.1c0,0.9,0.3,1.5,0.8,1.9c1.5,1.1,4.8,0.5,5.9,0.2c0.5-0.1,0.9,0.1,1.1,0.6c0.1,0.5-0.1,0.9-0.6,1.1
					C345.6,233.2,344,233.6,342.2,233.6z"/>
			</g>
		</g>
		<g>
			<g>
				<g>
					<polygon class="st10" points="447.7,462.8 248,462.8 248.1,457.2 447.7,457.2 					"/>
				</g>
			</g>
			<g>
				<path class="st11" d="M275.9,330.7h144c15.4,0,27.9,12.5,27.9,27.9v98.6H248v-98.6C248,343.2,260.5,330.7,275.9,330.7z"/>
			</g>
			<g>
				<g>
					<circle class="st12" cx="350.5" cy="369.2" r="14.5"/>
				</g>
			</g>
		</g>
		<g>
			<g>
				<path class="st3" d="M346.7,328.5l3.9-20.6c0.1-0.8,0.5-1.5,1.1-2l4.8-4.4l7.1-5.2l9.3,5.2L346.7,328.5z"/>
			</g>
			<g>
				<path class="st8" d="M356.5,301.5c0,0,13.3,10.9,23.2,27c0.9-5.3,2.7-35.7,2.7-35.7L372,279.8L356.5,301.5z"/>
			</g>
		</g>
		<g>
			<g>
				<path class="st3" d="M346.6,328.5l-3.9-20.6c-0.1-0.8-0.5-1.5-1.1-2l-4.8-4.4L326,290.7l-11.2,3.8L346.6,328.5z"/>
			</g>
			<g>
				<path class="st8" d="M336.8,301.5c0,0-16.7,14.3-23.2,27c-1.1-11.1-2.7-35.7-2.7-35.7l8.2-13.1L336.8,301.5z"/>
			</g>
		</g>
		<g>
			<path class="st13" d="M112.2,485h442.4c4.6,0,8.4-3.8,8.4-8.4v-5.4c0-4.6-3.8-8.4-8.4-8.4H112.2c-4.6,0-8.4,3.8-8.4,8.4v5.4
				C103.7,481.2,107.5,485,112.2,485z"/>
		</g>
		<g>
			<g>
				<path class="st12" d="M360.2,266c-2.9,0-5.9-0.2-9.1-0.5c-1.1-0.1-1.8-1.1-1.7-2.1c0.1-1.1,1.1-1.8,2.1-1.7
					c13.2,1.4,23.3-0.2,30.3-4.9c5.3-3.6,8.7-8.8,10.4-16c0.2-1,1.3-1.7,2.3-1.4c1,0.2,1.7,1.3,1.4,2.3c-1.9,8.1-5.9,14.2-12,18.3
					C378,264,370,266,360.2,266z"/>
			</g>
		</g>
		<g>
			<path class="st12" d="M404.9,196.3c-0.1-3.9-0.5-8-1.3-12.1c-0.8-4.1-2.1-8.2-3.6-12.1c-0.2-0.5-0.4-1-0.6-1.5l-0.3-0.8
				c-0.1-0.2-0.2-0.5-0.3-0.7l-0.6-1.4l-0.3-0.7l-0.1-0.2l0-0.1l-0.1-0.2l-0.2-0.4c-1-1.9-2.1-3.7-3.3-5.5c-2.4-3.5-5.1-6.7-8.1-9.5
				c-1.5-1.4-3-2.6-4.6-3.8c-0.4-0.3-0.8-0.6-1.2-0.9c-0.4-0.3-0.8-0.5-1.2-0.8c-0.4-0.3-0.8-0.5-1.2-0.8c-0.4-0.2-0.8-0.5-1.2-0.7
				c-0.4-0.2-0.8-0.5-1.2-0.7c-0.4-0.2-0.8-0.4-1.2-0.6c-0.8-0.4-1.6-0.8-2.4-1.2c-1.6-0.7-3.2-1.3-4.7-1.9
				c-3.1-1.1-5.9-1.8-8.5-2.2c-2.6-0.5-4.8-0.7-6.7-0.9c-0.5,0-0.9-0.1-1.3-0.1c-0.4,0-0.8,0-1.2,0c-0.4,0-0.7,0-1,0
				c-0.3,0-0.6,0-0.8,0c-0.8,0-1.3,0-1.4,0v0c0,0,0,0,0,0c0,0,0,0,0,0v0c-0.1,0-0.6,0-1.4,0c-0.2,0-0.5,0-0.8,0c-0.3,0-0.7,0-1,0
				c-0.4,0-0.8,0-1.2,0c-0.4,0-0.9,0.1-1.3,0.1c-1.9,0.1-4.1,0.4-6.7,0.9c-2.6,0.5-5.4,1.2-8.5,2.2c-1.5,0.5-3.1,1.2-4.7,1.9
				c-0.8,0.4-1.6,0.7-2.4,1.2c-0.4,0.2-0.8,0.4-1.2,0.6c-0.4,0.2-0.8,0.5-1.2,0.7c-0.4,0.2-0.8,0.5-1.2,0.7
				c-0.4,0.2-0.8,0.5-1.2,0.8c-0.4,0.3-0.8,0.5-1.2,0.8c-0.4,0.3-0.8,0.6-1.2,0.9c-1.6,1.2-3.1,2.4-4.6,3.8c-3,2.8-5.7,5.9-8.1,9.5
				c-1.2,1.8-2.3,3.6-3.3,5.5l-0.2,0.4l-0.1,0.2l0,0.1l-0.1,0.2l-0.3,0.7l-0.6,1.4c-0.1,0.2-0.2,0.5-0.3,0.7l-0.3,0.8
				c-0.2,0.5-0.4,1-0.6,1.5c-1.6,3.9-2.8,8-3.6,12.1c-0.8,4.1-1.2,8.2-1.3,12.1c-0.1,3.9,0.1,7.7,0.5,11.3c0.4,3.6,1,6.9,1.6,9.9
				c0.6,3,1.4,5.8,2.1,8.2c0.7,2.4,1.3,4.5,1.9,6.2c0.6,1.7,1,3,1.3,3.9c0.3,0.9,0.5,1.4,0.5,1.4l5.2-1.7c0,0-0.1-0.5-0.4-1.4
				c-0.3-0.9-0.6-2.2-1.1-3.9c-0.5-1.7-1-3.7-1.6-6c-0.6-2.3-1.1-5-1.6-7.8c-0.5-2.9-0.9-6-1.2-9.3c-0.3-3.3-0.3-6.8-0.1-10.4
				c0.2-3.6,0.7-7.2,1.5-10.9c0.8-3.6,2-7.2,3.5-10.7c0.2-0.4,0.4-0.8,0.6-1.3l0.3-0.6c0.1-0.2,0.2-0.4,0.3-0.6l0.7-1.3l0.3-0.7
				l0.3-0.5c0.9-1.6,1.9-3.2,2.9-4.7c2.1-3,4.5-5.7,7-8c1.3-1.2,2.6-2.2,4-3.2c1.3-1,2.7-1.9,4.1-2.7c0.3-0.2,0.7-0.4,1-0.6
				c0.3-0.2,0.7-0.4,1-0.5c0.7-0.4,1.4-0.7,2-1c1.4-0.6,2.7-1.2,4-1.6c2.6-0.9,5.1-1.5,7.3-2c2.2-0.4,4.2-0.7,5.9-0.8
				c0.4,0,0.8-0.1,1.2-0.1c0.4,0,0.7,0,1-0.1c0.3,0,0.6,0,0.9-0.1c0.3,0,0.6,0,0.8,0c0.7,0,1.1,0,1.3,0c0.2,0,0.6,0,1.3,0
				c0.2,0,0.5,0,0.8,0c0.3,0,0.6,0,0.9,0.1c0.3,0,0.6,0,1,0.1c0.4,0,0.7,0.1,1.2,0.1c1.6,0.1,3.6,0.4,5.9,0.8c2.2,0.4,4.7,1.1,7.3,2
				c1.3,0.4,2.6,1,4,1.6c0.7,0.3,1.4,0.6,2,1c0.3,0.2,0.7,0.3,1,0.5c0.3,0.2,0.7,0.4,1,0.6c1.4,0.8,2.7,1.7,4.1,2.7
				c1.3,1,2.7,2,4,3.2c2.5,2.3,5,5,7,8c1,1.5,2,3.1,2.9,4.7l0.3,0.5l0.3,0.7l0.7,1.3c0.1,0.2,0.2,0.4,0.3,0.6l0.3,0.6
				c0.2,0.4,0.4,0.8,0.6,1.3c1.5,3.5,2.6,7.1,3.5,10.7c0.8,3.6,1.3,7.3,1.5,10.9c0.2,3.6,0.1,7.1-0.1,10.4c-0.3,3.3-0.7,6.4-1.2,9.3
				c-0.5,2.9-1.1,5.5-1.6,7.8c-0.6,2.3-1.1,4.3-1.6,6c-0.5,1.7-0.8,3-1.1,3.9c-0.3,0.9-0.4,1.4-0.4,1.4l5.2,1.7c0,0,0.2-0.5,0.5-1.4
				c0.3-0.9,0.8-2.2,1.3-3.9c0.6-1.7,1.2-3.8,1.9-6.2c0.7-2.4,1.4-5.1,2.1-8.2c0.6-3,1.2-6.3,1.6-9.9
				C404.8,204,405,200.2,404.9,196.3z"/>
		</g>
		<g>
			<g>
				<path class="st12" d="M400.9,212.5c1.5,4.2,0.1,12.1-2.6,20.7c-2.9,9.3-6.7,16.9-10.6,18.9c7.7,1.8,13.6-3.5,17.6-16.3
					C409.3,223.2,407.7,215.6,400.9,212.5z"/>
			</g>
			<g>
				<path class="st0" d="M399.3,233.5c-2.9,9.3-6.7,16.9-10.6,18.9c-1,0.5-1.9,0.1-3-0.2c-1.4-0.4-2.4-1-2.9-2.6
					c-1.3-4.2,0-12,2.7-20.4c2.5-7.9,5.5-14.6,8.8-17.6c1.6-1.5,2.7-1.3,4.4-0.8c1.3,0.4,2.6,0.6,3.2,2
					C403.4,216.9,402,224.8,399.3,233.5z"/>
			</g>
		</g>
		<g>
			<g>
				<path class="st12" d="M291.1,212.5c-1.5,4.2-0.1,12.1,2.6,20.7c2.9,9.3,6.7,16.9,10.6,18.9c-7.7,1.8-13.6-3.5-17.6-16.3
					C282.7,223.2,284.2,215.6,291.1,212.5z"/>
			</g>
			<g>
				<path class="st0" d="M292.7,233.5c2.9,9.3,6.7,16.9,10.6,18.9c1,0.5,1.9,0.1,3-0.2c1.4-0.4,2.4-1,2.9-2.6c1.3-4.2,0-12-2.7-20.4
					c-2.5-7.9-5.5-14.6-8.8-17.6c-1.6-1.5-2.7-1.3-4.4-0.8c-1.3,0.4-2.6,0.6-3.2,2C288.6,216.9,290,224.8,292.7,233.5z"/>
			</g>
		</g>
		<g>
			<path class="st0" d="M343.9,267.3h11.6c1.4,0,2.5-1.1,2.5-2.5v-1.6c0-1.4-1.1-2.5-2.5-2.5h-11.6c-1.4,0-2.5,1.1-2.5,2.5v1.6
				C341.3,266.1,342.5,267.3,343.9,267.3z"/>
		</g>
	</g>
	<g>
		<path class="st0" d="M506.5,393.7c-0.2,0-0.4,0-0.6,0c-1.1,0-2-0.6-2.4-1.6c-0.4-1-0.3-2.1,0.4-2.9c6.7-8.1,6.6-16.7,6.5-19.2
			h-9.9c-10.7,0-19.5-8.7-19.5-19.5v-50.4c0-10.7,8.7-19.5,19.5-19.5h124.9c10.7,0,19.5,8.7,19.5,19.5v50.4
			c0,10.7-8.7,19.5-19.5,19.5h-89.2C532.3,377.5,522.1,393.7,506.5,393.7z M500.5,282.4c-9.8,0-17.8,8-17.8,17.8v50.4
			c0,9.8,8,17.8,17.8,17.8h11.4l0.1,0.7c0.1,0.4,1.6,11.1-6.7,21.3c-0.3,0.3-0.3,0.7-0.1,1.1c0.2,0.4,0.5,0.6,0.9,0.6
			c0.2,0,0.3,0,0.5,0c15,0,24.8-16.2,28.4-23.2l0.2-0.5h90.3c9.8,0,17.8-8,17.8-17.8v-50.4c0-9.8-8-17.8-17.8-17.8H500.5z"/>
	</g>
	<g>
		<g>
			<g>
				<g>
					<path class="st0" d="M460.8,89.8c-23.2,0-42.1-18.9-42.1-42.1c0-11,4.2-21.4,11.9-29.3c7.6-7.9,17.8-12.4,28.8-12.8
						c0.6,0,1,0.4,1,1c0,0.5-0.4,1-1,1c-21.7,0.7-38.7,18.3-38.7,40.1c0,22.1,18,40.1,40.1,40.1c22.1,0,40.1-18,40.1-40.1
						c0-0.5,0.4-1,1-1c0.5,0,1,0.4,1,1C502.9,71,484,89.8,460.8,89.8z"/>
				</g>
			</g>
			<g>
				<g>
					<path class="st0" d="M451.4,1.4c-0.2,0.3-0.1,0.6,0.2,0.8l7.6,4.6l-7.4,5c-0.3,0.2-0.3,0.5-0.2,0.8c0.2,0.3,0.5,0.3,0.8,0.2
						l8.1-5.5c0.2-0.1,0.3-0.3,0.3-0.5c0-0.2-0.1-0.4-0.3-0.5l-8.4-5c-0.1-0.1-0.2-0.1-0.3-0.1C451.7,1.1,451.5,1.2,451.4,1.4z"/>
				</g>
			</g>
		</g>
		<g>
			<g>
				<path class="st0" d="M432.4,53.3c-0.1-0.3-0.1-0.6-0.1-1c0-6.8,8.3-9.1,8.3-13.1c0-1.5-1.2-2.6-2.9-2.6c-1.5,0-2.7,0.6-3.7,1.6
					l-1.3-1.6c1.4-1.3,3.1-2.1,5.3-2.1c3.1,0,5.2,2,5.2,4.5c0,5.1-7.5,7.4-8.1,12.1h8.1v2.2H432.4z"/>
			</g>
			<g>
				<path class="st0" d="M457.8,49.4v3.9h-2.4v-3.9h-7.9v-1.9l5.5-12.8l2.1,0.9l-5,11.6h5.3V42h2.4v5.2h2.2v2.2H457.8z"/>
			</g>
			<g>
				<path class="st0" d="M462.9,54.5l7.4-21.5l1.9,0.7l-7.4,21.5L462.9,54.5z"/>
			</g>
			<g>
				<path class="st0" d="M478.6,53.3c0-8,2.2-12.2,6.2-16.2H476v-2.2h11.7v1.9c-4.8,4.7-6.3,8.4-6.3,16.5H478.6z"/>
			</g>
		</g>
	</g>
	<g>
		<g>
			<g>
				<circle class="st14" cx="53.3" cy="393.7" r="47.7"/>
			</g>
		</g>
		<g>
			<g>
				<path class="st0" d="M74.7,395H53.3c-0.7,0-1.3-0.6-1.3-1.3v-30.1c0-0.7,0.6-1.3,1.3-1.3s1.3,0.6,1.3,1.3v28.8h20.1
					c0.7,0,1.3,0.6,1.3,1.3C76,394.4,75.4,395,74.7,395z"/>
			</g>
		</g>
	</g>
	<g>
		<g>
			<path class="st15" d="M253.2,64.6H148.3c-8.6,0-15.6,7-15.6,15.6v42.3c0,8.6,7,15.6,15.6,15.6h75.4c3.2,6.4,11.8,20.2,24.9,19.9
				c1.3,0,2-1.6,1.2-2.6c-6.9-8.4-5.5-17.3-5.5-17.3h8.9c8.6,0,15.6-7,15.6-15.6V80.2C268.9,71.6,261.9,64.6,253.2,64.6z"/>
		</g>
		<g>
			<g>
				
					<ellipse transform="matrix(0.9725 -0.2329 0.2329 0.9725 -18.1821 44.1403)" class="st0" cx="177.8" cy="99.1" rx="7.7" ry="7.7"/>
			</g>
			<g>
				<circle class="st2" cx="199.6" cy="99.1" r="7.7"/>
			</g>
			<g>
				
					<ellipse transform="matrix(0.3002 -0.9539 0.9539 0.3002 60.3676 280.4291)" class="st0" cx="221.3" cy="99.1" rx="7.7" ry="7.7"/>
			</g>
		</g>
	</g>
	<g>
		<g>
			<path class="st15" d="M605.2,193h70c5.8,0,10.4,4.7,10.4,10.4v28.2c0,5.8-4.7,10.4-10.4,10.4h-50.3c-2.2,4.3-7.8,13.5-16.6,13.3
				c-0.9,0-1.4-1-0.8-1.7c4.6-5.6,3.7-11.5,3.7-11.5h-6c-5.8,0-10.4-4.7-10.4-10.4v-28.2C594.7,197.7,599.4,193,605.2,193z"/>
		</g>
		<g>
			<g>
				
					<ellipse transform="matrix(0.2298 -0.9732 0.9732 0.2298 294.6128 804.3769)" class="st2" cx="655.5" cy="216.1" rx="5.1" ry="5.1"/>
			</g>
			<g>
				
					<ellipse transform="matrix(0.2298 -0.9732 0.9732 0.2298 283.4408 790.2606)" class="st0" cx="641" cy="216.1" rx="5.1" ry="5.1"/>
			</g>
			<g>
				
					<ellipse transform="matrix(0.2298 -0.9732 0.9732 0.2298 272.2689 776.1442)" class="st0" cx="626.5" cy="216.1" rx="5.1" ry="5.1"/>
			</g>
		</g>
	</g>
	<g>
		<g>
			<g>
				<path class="st0" d="M199.3,325.8c-7.9,0-15.4-3.5-22.3-10.5c-5.5-5.6-9.5-12.2-12-16.9H61.9c-12.3,0-22.4-10-22.4-22.4v-58.2
					c0-12.3,10-22.4,22.4-22.4h144.4c12.3,0,22.4,10,22.4,22.4V276c0,12.3-10,22.4-22.4,22.4h-11.5c-0.2,2.8-0.3,12.9,7.5,22.4
					c0.7,0.9,0.9,2.1,0.4,3.2c-0.5,1.1-1.5,1.7-2.7,1.8C199.8,325.8,199.5,325.8,199.3,325.8z M61.9,197.1
					c-11.4,0-20.7,9.3-20.7,20.7V276c0,11.4,9.3,20.7,20.7,20.7h103.7c0.3,0,0.6,0.2,0.8,0.5c4.2,8.2,15.8,27.4,33.5,26.9
					c0.5,0,1-0.3,1.2-0.8c0.2-0.5,0.1-1-0.2-1.4c-9.6-11.7-7.9-24-7.8-24.5c0.1-0.4,0.4-0.7,0.8-0.7h12.3c11.4,0,20.7-9.3,20.7-20.7
					v-58.2c0-11.4-9.3-20.7-20.7-20.7H61.9z"/>
			</g>
		</g>
		<g>
			<g>
				<path class="st0" d="M208.5,213.9H58.9c-0.8,0-1.5-0.7-1.5-1.5c0-0.8,0.7-1.5,1.5-1.5h149.5c0.8,0,1.5,0.7,1.5,1.5
					C209.9,213.3,209.3,213.9,208.5,213.9z"/>
			</g>
		</g>
		<g>
			<g>
				<path class="st0" d="M158,230.3H59.7c-0.8,0-1.5-0.7-1.5-1.5c0-0.8,0.7-1.5,1.5-1.5H158c0.8,0,1.5,0.7,1.5,1.5
					C159.5,229.6,158.8,230.3,158,230.3z"/>
			</g>
		</g>
		<g>
			<path class="st0" d="M208.5,230.3h-32.3c-0.8,0-1.5-0.7-1.5-1.5c0-0.8,0.7-1.5,1.5-1.5h32.3c0.8,0,1.5,0.7,1.5,1.5
				C209.9,229.6,209.3,230.3,208.5,230.3z"/>
		</g>
		<g>
			<g>
				<path class="st0" d="M96.4,243.5H58.9c-0.8,0-1.5-0.7-1.5-1.5s0.7-1.5,1.5-1.5h37.5c0.8,0,1.5,0.7,1.5,1.5
					S97.3,243.5,96.4,243.5z"/>
			</g>
		</g>
		<g>
			<g>
				<path class="st0" d="M208.5,243.5h-97.1c-0.8,0-1.5-0.7-1.5-1.5s0.7-1.5,1.5-1.5h97.1c0.8,0,1.5,0.7,1.5,1.5
					S209.3,243.5,208.5,243.5z"/>
			</g>
		</g>
		<g>
			<g>
				<path class="st0" d="M133.7,256.8H58.9c-0.8,0-1.5-0.7-1.5-1.5c0-0.8,0.7-1.5,1.5-1.5h74.8c0.8,0,1.5,0.7,1.5,1.5
					C135.2,256.1,134.5,256.8,133.7,256.8z"/>
			</g>
		</g>
	</g>
	<g>
		<g>
			<g>
				<path class="st2" d="M553.4,161.3c-0.2,0-0.3,0-0.5,0c-0.9,0-1.6-0.5-2-1.3c-0.4-0.8-0.2-1.7,0.3-2.3c5.4-6.6,5.4-13.5,5.2-15.6
					h-8c-8.7,0-15.8-7.1-15.8-15.8V85.5c0-8.7,7.1-15.8,15.8-15.8h39.6c8.7,0,15.8,7.1,15.8,15.8v40.8c0,8.7-7.1,15.8-15.8,15.8
					h-10.7C574.3,148.2,566.1,161.3,553.4,161.3z M548.5,71.1c-7.9,0-14.4,6.5-14.4,14.4v40.8c0,7.9,6.5,14.4,14.4,14.4h9.2l0.1,0.6
					c0.1,0.4,1.3,9-5.5,17.2c-0.2,0.3-0.3,0.6-0.1,0.9c0.1,0.3,0.4,0.5,0.7,0.5c12.4,0.3,20.5-13.1,23.4-18.8l0.2-0.4h11.5
					c7.9,0,14.4-6.5,14.4-14.4V85.5c0-7.9-6.5-14.4-14.4-14.4H548.5z"/>
			</g>
		</g>
		<g>
			<g>
				<g>
					<path class="st0" d="M572.6,126.2h-5.3c-1,0-1.8-0.8-1.8-1.8v-20.2c0-1-0.8-1.8-1.8-1.8l0,0c-1,0-1.8-0.8-1.8-1.8v-2.3
						c0-1,0.8-1.8,1.8-1.8h8.9c1,0,1.8,0.8,1.8,1.8v26.2C574.4,125.4,573.6,126.2,572.6,126.2z M569.5,92.4c-1.8,0-3.1-0.5-3.9-1.5
						c-0.9-1-1.3-2.3-1.3-3.9c0-1.6,0.4-2.9,1.3-3.9c0.9-1.1,2.2-1.6,3.9-1.6s3.1,0.5,4,1.6c0.9,1.1,1.3,2.4,1.3,3.9
						c0,1.6-0.4,2.8-1.3,3.9C572.6,91.9,571.3,92.4,569.5,92.4z"/>
				</g>
			</g>
		</g>
	</g>
	<path class="st2" d="M155.8,330H149c-0.3-1.1-0.8-2.2-1.3-3.2l4.8-4.8c0.9-0.9,0.9-2.3,0-3.2l-3.8-3.8c-0.9-0.9-2.3-0.9-3.2,0
		l-4.8,4.8c-1-0.6-2.1-1-3.2-1.3v-6.7c0-1.2-1-2.2-2.2-2.2H130c-1.2,0-2.2,1-2.2,2.2v6.7c-1.1,0.3-2.2,0.8-3.2,1.3l-4.8-4.8
		c-0.9-0.9-2.3-0.9-3.2,0l-3.8,3.8c-0.9,0.9-0.9,2.3,0,3.2l4.8,4.8c-0.6,1-1,2.1-1.3,3.2h-6.7c-1.2,0-2.2,1-2.2,2.2v5.3
		c0,1.2,1,2.2,2.2,2.2h6.7c0.3,1.1,0.8,2.2,1.3,3.2l-4.8,4.8c-0.9,0.9-0.9,2.3,0,3.2l3.8,3.8c0.9,0.9,2.3,0.9,3.2,0l4.8-4.8
		c1,0.6,2.1,1,3.2,1.3v6.7c0,1.2,1,2.2,2.2,2.2h5.3c1.2,0,2.2-1,2.2-2.2v-6.7c1.1-0.3,2.2-0.8,3.2-1.3l4.8,4.8
		c0.9,0.9,2.3,0.9,3.2,0l3.8-3.8c0.9-0.9,0.9-2.3,0-3.2l-4.8-4.8c0.6-1,1-2.1,1.3-3.2h6.7c1.2,0,2.2-1,2.2-2.2v-5.3
		C158,331,157,330,155.8,330z M141,334.9c0,4.6-3.7,8.3-8.3,8.3c-4.6,0-8.3-3.7-8.3-8.3c0-4.6,3.7-8.3,8.3-8.3
		C137.3,326.6,141,330.3,141,334.9z"/>
	<path class="st0" d="M522.2,182h-6.7c-0.3-1.1-0.8-2.2-1.3-3.2l4.8-4.8c0.9-0.9,0.9-2.3,0-3.2l-3.8-3.8c-0.9-0.9-2.3-0.9-3.2,0
		l-4.8,4.8c-1-0.6-2.1-1-3.2-1.3v-6.7c0-1.2-1-2.2-2.2-2.2h-5.3c-1.2,0-2.2,1-2.2,2.2v6.7c-1.1,0.3-2.2,0.8-3.2,1.3l-4.8-4.8
		c-0.9-0.9-2.3-0.9-3.2,0l-3.8,3.8c-0.9,0.9-0.9,2.3,0,3.2l4.8,4.8c-0.6,1-1,2.1-1.3,3.2H476c-1.2,0-2.2,1-2.2,2.2v5.3
		c0,1.2,1,2.2,2.2,2.2h6.7c0.3,1.1,0.8,2.2,1.3,3.2l-4.8,4.8c-0.9,0.9-0.9,2.3,0,3.2l3.8,3.8c0.9,0.9,2.3,0.9,3.2,0l4.8-4.8
		c1,0.6,2.1,1,3.2,1.3v6.7c0,1.2,1,2.2,2.2,2.2h5.3c1.2,0,2.2-1,2.2-2.2v-6.7c1.1-0.3,2.2-0.8,3.2-1.3l4.8,4.8
		c0.9,0.9,2.3,0.9,3.2,0l3.8-3.8c0.9-0.9,0.9-2.3,0-3.2l-4.8-4.8c0.6-1,1-2.1,1.3-3.2h6.7c1.2,0,2.2-1,2.2-2.2v-5.3
		C524.4,183,523.4,182,522.2,182z M507.4,186.9c0,4.6-3.7,8.3-8.3,8.3c-4.6,0-8.3-3.7-8.3-8.3c0-4.6,3.7-8.3,8.3-8.3
		C503.7,178.6,507.4,182.3,507.4,186.9z"/>
</g>
</svg>
