<?xml version="1.0" encoding="utf-8"?>
<!-- Generator: Adobe Illustrator 27.0.0, SVG Export Plug-In . SVG Version: 6.00 Build 0)  -->
<svg version="1.1" id="Layer_1" xmlns="http://www.w3.org/2000/svg" xmlns:xlink="http://www.w3.org/1999/xlink" x="0px" y="0px"
	 viewBox="0 0 450 300" style="enable-background:new 0 0 450 300;" xml:space="preserve">
<style type="text/css">
	.st0{fill:#F0F2F5;}
	.st1{fill:#FFFFFF;}
	.st2{fill:#1F4168;}
	.st3{fill:#7490EF;}
	.st4{fill:#1F4068;}
	.st5{fill:#E1E6EB;}
	.st6{fill:#112E4C;}
	.st7{opacity:0.4;}
	.st8{fill:#1B1A2E;}
	.st9{fill:#4441B5;}
	.st10{fill:#1B1B2F;}
	.st11{fill:#FFC89F;}
	.st12{fill:#FF9A6C;}
	.st13{fill:#E43F5A;}
	.st14{fill:#D56E10;}
</style>
<g>
	<path class="st0" d="M292.9,87.7c0.3,0.1,0.6,0.2,0.9,0.3c0.2,0.1,0.5,0.1,0.7,0.2c0.1,0,0.1,0.1,0.1,0.1c0.2,0.1,0.4,0.1,0.5,0.1
		c0.1,0,0.1,0,0.1,0c0.1,0,0.2,0.1,0.2,0.1c0.3,0.1,0.6,0.1,0.8,0.2c0.2,0.1,0.4,0.1,0.5,0.1c0.4,0.1,0.9,0.2,1.3,0.2
		c0.1,0,0.3,0.1,0.4,0.1h0.1c0.4,0.1,0.8,0.1,1.1,0.1c0.8,0.1,1.6,0.1,2.3,0.2c0.4,0,0.8,0,1.1,0c0,0,0,0,0.1,0c0.2,0,0.3,0,0.5,0
		c0.1,0,0.2,0,0.4,0c0.2,0,0.4,0,0.5,0c0.4,0,0.8-0.1,1.1-0.1c0.4,0,0.9-0.1,1.3-0.1l8.4,17.1l20.3-10.1l-8.1-16.4
		c0.1-0.1,0.1-0.1,0.2-0.2c0.2-0.1,0.3-0.3,0.5-0.4c0.1-0.1,0.3-0.3,0.4-0.4c0.2-0.2,0.4-0.4,0.5-0.5c0.1-0.1,0.1-0.2,0.2-0.2
		c0,0,0.1,0,0.1-0.1c0.2-0.2,0.4-0.4,0.6-0.6c0.1-0.1,0.1-0.1,0.1-0.2c0.1-0.2,0.3-0.4,0.4-0.5c0.1-0.1,0.2-0.2,0.3-0.4
		c0,0,0,0,0.1-0.1s0.1-0.2,0.2-0.2c0.2-0.2,0.3-0.4,0.5-0.6c0-0.1,0.1-0.1,0.1-0.1l0.1-0.1c0.1-0.2,0.3-0.4,0.4-0.6
		c0.1-0.1,0.1-0.1,0.1-0.2c0.1-0.2,0.3-0.4,0.4-0.6c0.1-0.1,0.1-0.1,0.1-0.2c0.2-0.2,0.3-0.5,0.5-0.7c0.2-0.3,0.4-0.6,0.6-1
		c0.2-0.2,0.3-0.5,0.4-0.8c0-0.1,0.1-0.1,0.1-0.1c0.1-0.1,0.1-0.1,0.1-0.2c0.2-0.3,0.4-0.6,0.5-0.9c0.2-0.4,0.4-0.7,0.5-1.1
		c0.2-0.4,0.4-0.8,0.5-1.2l18.9,1.2l1.5-22.7l-18.2-1.2c0-0.1,0-0.1,0-0.1c-0.1-0.4-0.2-0.8-0.3-1.3c-0.1-0.3-0.2-0.6-0.3-0.9
		c-0.1-0.1-0.1-0.2-0.1-0.3c-0.1-0.3-0.2-0.5-0.2-0.8c-0.1-0.3-0.2-0.6-0.3-0.8c-0.1-0.1-0.1-0.2-0.1-0.2v-0.1
		c-0.1-0.2-0.2-0.4-0.2-0.6c-0.1-0.1-0.1-0.2-0.1-0.4c-0.1-0.1-0.1-0.2-0.1-0.2c0-0.1-0.1-0.1-0.1-0.1c-0.1-0.1-0.1-0.2-0.2-0.4
		c-0.1-0.2-0.2-0.5-0.3-0.6c-0.1-0.2-0.2-0.4-0.3-0.6c-0.1-0.2-0.2-0.3-0.2-0.5c-0.1-0.2-0.2-0.4-0.2-0.5c0-0.1-0.1-0.1-0.1-0.2
		c-0.1-0.2-0.2-0.3-0.2-0.5c-0.1-0.2-0.2-0.4-0.3-0.5c-0.1-0.1-0.1-0.2-0.2-0.3c-0.1-0.2-0.2-0.4-0.4-0.6c-0.1-0.1-0.2-0.3-0.3-0.4
		c-0.1-0.1-0.1-0.2-0.2-0.3v-0.1c-0.1-0.1-0.2-0.3-0.3-0.4c-0.1-0.2-0.2-0.4-0.4-0.6c-0.1-0.1-0.1-0.1-0.1-0.2
		c-0.2-0.2-0.3-0.5-0.5-0.6c0,0,0,0,0-0.1c0,0,0-0.1-0.1-0.1c0,0,0-0.1-0.1-0.1l10.5-15.9L324,3.3l-10.1,15.2
		c-0.1-0.1-0.2-0.1-0.3-0.1c-1.9-0.6-3.8-1-5.7-1.2c-1.5-0.2-3.1-0.3-4.6-0.3c-0.3,0-0.5,0-0.8,0c-0.2,0-0.4,0-0.6,0
		c-0.3,0-0.5,0-0.8,0.1c-0.2,0-0.3,0-0.5,0.1c-0.1,0-0.3,0-0.4,0.1c-0.1,0-0.1,0-0.2,0c-0.1,0-0.3,0-0.4,0.1L291,0l-20.3,10.1
		l8.1,16.4c-0.1,0.1-0.1,0.1-0.1,0.1c-0.2,0.2-0.4,0.4-0.6,0.5c-0.1,0.1-0.2,0.2-0.4,0.4c-0.1,0.1-0.1,0.1-0.2,0.2
		c-0.2,0.2-0.4,0.4-0.5,0.5c-0.1,0.1-0.1,0.1-0.1,0.1c-0.2,0.2-0.5,0.5-0.7,0.8c-0.2,0.2-0.4,0.4-0.5,0.6c0,0,0,0-0.1,0.1
		s-0.1,0.2-0.2,0.2c-0.1,0.1-0.2,0.2-0.2,0.3c-0.2,0.2-0.3,0.4-0.5,0.6c-0.1,0.1-0.1,0.1-0.1,0.1c-0.1,0.2-0.2,0.3-0.4,0.5
		c-0.1,0.2-0.2,0.4-0.4,0.5s-0.2,0.2-0.3,0.4c-0.1,0.1-0.1,0.2-0.2,0.2c-0.2,0.2-0.3,0.4-0.4,0.6c-0.2,0.4-0.4,0.6-0.6,1
		c-0.2,0.3-0.4,0.5-0.5,0.8c-0.2,0.4-0.4,0.6-0.5,1c0,0.1-0.1,0.1-0.1,0.1s0,0.1-0.1,0.1c-0.2,0.3-0.3,0.6-0.4,0.9
		c0,0.1-0.1,0.1-0.1,0.2c-0.2,0.4-0.3,0.6-0.5,1c0,0,0,0.1-0.1,0.1L251.3,37l-1.5,22.7l18.2,1.2c0,0.1,0.1,0.3,0.1,0.4
		c0.1,0.4,0.2,0.6,0.2,0.9c0.1,0.4,0.2,0.7,0.3,1c0,0.1,0,0.1,0,0.1c0.1,0.3,0.2,0.6,0.3,0.9c0,0.1,0,0.1,0,0.1
		c0.1,0.3,0.2,0.6,0.3,0.8c0.1,0.1,0.1,0.2,0.1,0.3c0.1,0.1,0.1,0.3,0.2,0.4c0.1,0.2,0.2,0.5,0.3,0.7c0.1,0.1,0.1,0.2,0.1,0.3
		c0.1,0.2,0.2,0.5,0.3,0.7c0.1,0.1,0.1,0.2,0.1,0.3v0.1c0.2,0.4,0.4,0.8,0.5,1.1c0.1,0.2,0.2,0.5,0.4,0.7c0.1,0.1,0.1,0.3,0.2,0.4
		c0.1,0.1,0.1,0.3,0.2,0.4c0.1,0.2,0.2,0.5,0.4,0.6c0,0,0,0,0,0.1c0.2,0.2,0.3,0.5,0.5,0.8c0.1,0.1,0.1,0.2,0.2,0.3s0.1,0.2,0.2,0.3
		c0,0,0,0,0,0.1c0.1,0.2,0.3,0.5,0.5,0.7c0.2,0.4,0.4,0.6,0.7,1l-10.5,15.9l18.8,12.6l10.1-15.2C292.7,87.6,292.7,87.6,292.9,87.7z
		 M288,60.6c-4.2-8.4-0.7-18.7,7.7-22.9c8.4-4.2,18.6-0.7,22.7,7.7s0.7,18.7-7.7,22.9C302.3,72.5,292.2,69,288,60.6z"/>
	<path class="st0" d="M58.8,98.1c0.4,0,0.6,0,1,0.1c0.2,0,0.5,0,0.7,0c0.1,0,0.1,0,0.2,0c0.2,0,0.4,0,0.5,0c0.1,0,0.1,0,0.1,0
		s0.2,0,0.2,0c0.3,0,0.6,0,0.9-0.1c0.2,0,0.4,0,0.5-0.1c0.4,0,0.9-0.1,1.3-0.1c0.1,0,0.3,0,0.5-0.1h0.1c0.4-0.1,0.8-0.1,1.1-0.1
		c0.8-0.1,1.5-0.2,2.3-0.4c0.4-0.1,0.7-0.2,1.1-0.2c0,0,0,0,0.1,0c0.1-0.1,0.3-0.1,0.4-0.1c0.1-0.1,0.2-0.1,0.4-0.1
		c0.2-0.1,0.4-0.1,0.5-0.1c0.4-0.1,0.7-0.2,1.1-0.4c0.4-0.1,0.8-0.2,1.2-0.4L85,110.5l17.2-14.6L90.5,82c0.1-0.1,0.1-0.2,0.2-0.2
		c0.1-0.2,0.2-0.4,0.4-0.5c0.1-0.2,0.2-0.4,0.3-0.5c0.1-0.2,0.2-0.4,0.4-0.6c0.1-0.1,0.1-0.2,0.2-0.3v-0.1c0.1-0.2,0.3-0.5,0.4-0.8
		c0.1-0.1,0.1-0.1,0.1-0.2c0.1-0.2,0.2-0.4,0.3-0.6c0.1-0.2,0.2-0.3,0.2-0.5v-0.1c0.1-0.1,0.1-0.2,0.1-0.3c0.1-0.2,0.2-0.4,0.3-0.6
		c0-0.1,0.1-0.1,0.1-0.1s0-0.1,0.1-0.1c0.1-0.2,0.2-0.4,0.3-0.6c0-0.1,0.1-0.1,0.1-0.2c0.1-0.2,0.2-0.5,0.2-0.6
		c0.1-0.1,0.1-0.2,0.1-0.2c0.1-0.2,0.2-0.5,0.3-0.8c0.1-0.4,0.2-0.8,0.4-1.1c0.1-0.3,0.2-0.5,0.2-0.8c0-0.1,0-0.1,0.1-0.1
		c0-0.1,0.1-0.1,0.1-0.2c0.1-0.4,0.2-0.6,0.2-1c0.1-0.4,0.2-0.8,0.3-1.2c0.1-0.4,0.2-0.8,0.2-1.2l18.6-3.3l-4-22.3l-17.9,3.2
		c0-0.1-0.1-0.1-0.1-0.1c-0.2-0.4-0.4-0.8-0.6-1.2c-0.2-0.3-0.4-0.6-0.5-0.8c-0.1-0.1-0.1-0.2-0.2-0.2c-0.2-0.2-0.3-0.5-0.5-0.8
		c-0.2-0.2-0.3-0.5-0.5-0.8c-0.1-0.1-0.1-0.2-0.2-0.2L90.1,42c-0.1-0.2-0.2-0.4-0.4-0.5c-0.1-0.1-0.1-0.2-0.2-0.3
		c-0.1-0.1-0.1-0.1-0.2-0.2c0-0.1-0.1-0.1-0.1-0.1c-0.1-0.1-0.2-0.2-0.2-0.3c-0.2-0.2-0.3-0.4-0.5-0.6c-0.1-0.2-0.3-0.4-0.4-0.5
		c-0.1-0.1-0.2-0.3-0.4-0.4c-0.1-0.2-0.2-0.3-0.4-0.5c-0.1-0.1-0.1-0.1-0.1-0.1c-0.1-0.1-0.2-0.2-0.4-0.4c-0.1-0.2-0.3-0.3-0.4-0.5
		c-0.1-0.1-0.2-0.2-0.2-0.2c-0.2-0.2-0.3-0.3-0.5-0.5c-0.1-0.1-0.2-0.2-0.4-0.4c-0.1-0.1-0.1-0.2-0.2-0.2c0,0,0,0-0.1-0.1
		c-0.1-0.1-0.2-0.2-0.4-0.4c-0.2-0.2-0.4-0.3-0.5-0.5c-0.1-0.1-0.1-0.1-0.2-0.1c-0.2-0.2-0.4-0.4-0.6-0.5c0,0,0,0-0.1-0.1l-0.1-0.1
		l-0.1-0.1l6.4-17.9L68.7,9l-6.1,17.2c-0.1,0-0.2,0-0.3,0c-2-0.1-3.9-0.1-5.8,0.2c-1.5,0.2-3,0.5-4.6,0.8c-0.3,0.1-0.5,0.1-0.8,0.2
		c-0.2,0.1-0.4,0.1-0.6,0.2c-0.2,0.1-0.5,0.2-0.8,0.2c-0.2,0.1-0.3,0.1-0.5,0.2c-0.1,0.1-0.3,0.1-0.4,0.1c-0.1,0-0.1,0.1-0.2,0.1
		c-0.1,0.1-0.3,0.1-0.4,0.1L36.1,13.9L19,28.5l11.8,13.9c-0.1,0.1-0.1,0.1-0.1,0.1c-0.1,0.2-0.3,0.4-0.4,0.6
		c-0.1,0.1-0.2,0.2-0.2,0.4c-0.1,0.1-0.1,0.2-0.1,0.2c-0.1,0.2-0.2,0.4-0.4,0.6c-0.1,0.1-0.1,0.1-0.1,0.2c-0.2,0.3-0.4,0.6-0.5,0.9
		c-0.1,0.2-0.2,0.5-0.4,0.7c0,0,0,0,0,0.1c-0.1,0.1-0.1,0.2-0.2,0.3s-0.1,0.2-0.2,0.3c-0.1,0.2-0.2,0.4-0.3,0.6
		c0,0.1-0.1,0.1-0.1,0.2c-0.1,0.2-0.2,0.4-0.2,0.5c-0.1,0.2-0.2,0.4-0.2,0.5c0,0,0,0,0,0.1c-0.1,0.1-0.1,0.3-0.2,0.4
		c-0.1,0.1-0.1,0.2-0.1,0.3c-0.1,0.2-0.2,0.5-0.3,0.8c-0.1,0.4-0.2,0.7-0.4,1.1c-0.1,0.3-0.2,0.6-0.3,0.9c-0.1,0.4-0.2,0.8-0.3,1.1
		c0,0.1,0,0.1,0,0.1s0,0.1,0,0.1c-0.1,0.3-0.2,0.6-0.2,0.9c0,0.1-0.1,0.1-0.1,0.2c-0.1,0.4-0.1,0.7-0.2,1.1v0.1L6.9,59.2l4,22.3
		l17.9-3.2c0.1,0.1,0.1,0.2,0.2,0.4c0.1,0.3,0.3,0.6,0.5,0.9c0.2,0.3,0.4,0.6,0.5,0.9c0,0,0,0.1,0.1,0.1c0.2,0.3,0.3,0.5,0.5,0.8
		l0.1,0.1c0.2,0.2,0.3,0.5,0.5,0.7c0.1,0.1,0.1,0.2,0.2,0.2c0.1,0.1,0.2,0.2,0.2,0.4c0.1,0.2,0.3,0.4,0.4,0.6
		c0.1,0.1,0.1,0.2,0.2,0.2c0.1,0.2,0.3,0.4,0.4,0.6c0.1,0.1,0.1,0.2,0.2,0.2c0,0,0,0,0.1,0.1c0.2,0.4,0.5,0.6,0.8,0.9
		c0.2,0.2,0.4,0.4,0.5,0.6c0.1,0.1,0.2,0.2,0.3,0.4c0.1,0.1,0.2,0.2,0.3,0.4c0.2,0.2,0.4,0.4,0.5,0.5c0.2,0.2,0.4,0.4,0.6,0.6
		c0.1,0.1,0.2,0.2,0.2,0.2s0.2,0.2,0.2,0.2c0,0,0,0,0.1,0.1c0.2,0.2,0.4,0.4,0.6,0.5c0.3,0.2,0.6,0.5,0.9,0.8l-6.4,17.9l21.2,7.7
		l6.1-17.2C58.6,98.1,58.7,98.1,58.8,98.1z M47.7,73.1c-6-7.1-5.1-17.9,2-23.9c7.1-6,17.8-5.2,23.8,2c6,7.1,5.1,17.9-2,23.9
		C64.4,81.2,53.7,80.3,47.7,73.1z"/>
	<path class="st0" d="M407.7,133.1c0.1,0.1,0.2,0.2,0.4,0.3c0.1,0.1,0.2,0.1,0.3,0.2c0,0,0.1,0,0.1,0.1c0.1,0.1,0.1,0.1,0.2,0.1
		c0,0,0.1,0,0.1,0.1c0.1,0,0.1,0.1,0.1,0.1c0.1,0.1,0.2,0.2,0.4,0.2c0.1,0.1,0.2,0.1,0.2,0.1c0.2,0.1,0.4,0.2,0.6,0.3
		c0.1,0.1,0.1,0.1,0.2,0.1c0.2,0.1,0.4,0.2,0.5,0.2c0.4,0.2,0.7,0.3,1.1,0.5c0.2,0.1,0.4,0.1,0.5,0.2c0.1,0,0.1,0.1,0.2,0.1
		c0.1,0,0.1,0.1,0.2,0.1c0.1,0,0.2,0.1,0.2,0.1c0.2,0.1,0.4,0.1,0.5,0.2s0.4,0.1,0.6,0.2l1.1,9.1l10.9-1.3l-1.1-8.8
		c0.1,0,0.1-0.1,0.1-0.1c0.1-0.1,0.2-0.1,0.3-0.1c0.1-0.1,0.2-0.1,0.2-0.1c0.1-0.1,0.2-0.1,0.3-0.2c0.1,0,0.1-0.1,0.1-0.1
		c0.1-0.1,0.2-0.1,0.4-0.2l0.1-0.1c0.1-0.1,0.2-0.1,0.3-0.2c0.1-0.1,0.1-0.1,0.2-0.1c0.1,0,0.1-0.1,0.1-0.1c0.1-0.1,0.2-0.1,0.3-0.2
		c0,0,0.1,0,0.1-0.1c0,0,0,0,0.1,0c0.1-0.1,0.2-0.1,0.3-0.2l0.1-0.1c0.1-0.1,0.2-0.1,0.3-0.2c0.1,0,0.1-0.1,0.1-0.1
		c0.1-0.1,0.2-0.2,0.3-0.2c0.2-0.1,0.3-0.2,0.5-0.4c0.1-0.1,0.2-0.2,0.3-0.3c0,0,0,0,0.1-0.1l0.1-0.1c0.1-0.1,0.2-0.2,0.4-0.4
		c0.1-0.1,0.3-0.3,0.4-0.4c0.2-0.1,0.3-0.3,0.4-0.5l8.5,3.6l4.3-10.1l-8.1-3.5V121c0-0.2,0.1-0.4,0.1-0.6c0-0.2,0-0.3,0-0.5
		c0-0.1,0-0.1,0-0.1c0-0.1,0-0.3,0-0.4s0-0.3,0-0.4c0-0.1,0-0.1,0-0.1s0,0,0-0.1c0-0.1,0-0.2,0-0.3s0-0.1,0-0.2s0-0.1,0-0.1v-0.1
		c0-0.1,0-0.1,0-0.2c0-0.1,0-0.2,0-0.4s0-0.2-0.1-0.4c0-0.1,0-0.2,0-0.2c0-0.1,0-0.2-0.1-0.3c0-0.1,0-0.1,0-0.1s0-0.2-0.1-0.2
		c0-0.1-0.1-0.2-0.1-0.3c0-0.1,0-0.1,0-0.2c0-0.1-0.1-0.2-0.1-0.3s-0.1-0.2-0.1-0.2s0-0.1-0.1-0.2c0-0.1-0.1-0.2-0.1-0.2
		c0-0.1-0.1-0.2-0.1-0.3s0-0.1,0-0.1c-0.1-0.1-0.1-0.2-0.1-0.4c0,0,0,0,0-0.1c0,0,0,0,0-0.1l7.4-5.6l-6.6-8.8l-7.1,5.3
		c-0.1-0.1-0.1-0.1-0.1-0.1c-0.8-0.6-1.6-1.1-2.4-1.5c-0.6-0.4-1.3-0.6-2-0.9c-0.1-0.1-0.2-0.1-0.4-0.1s-0.2-0.1-0.3-0.1
		c-0.1-0.1-0.2-0.1-0.4-0.1c-0.1,0-0.2-0.1-0.2-0.1c-0.1,0-0.1-0.1-0.2-0.1h-0.1c-0.1,0-0.1-0.1-0.2-0.1l-1.1-9.1L410,94.2l1.1,8.8
		c0,0-0.1,0-0.1,0.1c-0.1,0.1-0.2,0.1-0.4,0.2c-0.1,0.1-0.1,0.1-0.2,0.1c-0.1,0-0.1,0.1-0.1,0.1c-0.1,0.1-0.2,0.1-0.3,0.2
		c0,0-0.1,0-0.1,0.1c-0.2,0.1-0.3,0.2-0.5,0.2c-0.1,0.1-0.2,0.1-0.4,0.2c-0.1,0-0.1,0.1-0.1,0.1c-0.1,0.1-0.1,0.1-0.2,0.1
		c-0.1,0.1-0.2,0.1-0.3,0.2l-0.1,0.1c-0.1,0.1-0.2,0.1-0.2,0.2c-0.1,0.1-0.2,0.1-0.2,0.2c-0.1,0.1-0.1,0.1-0.2,0.1
		c-0.1,0-0.1,0.1-0.1,0.1c-0.1,0.1-0.2,0.2-0.3,0.2c-0.2,0.1-0.3,0.2-0.5,0.4c-0.1,0.1-0.2,0.2-0.4,0.3c-0.1,0.1-0.3,0.2-0.4,0.4
		c0,0,0,0.1-0.1,0.1c0,0,0,0-0.1,0.1c-0.1,0.1-0.2,0.2-0.4,0.4l-0.1,0.1c-0.1,0.1-0.2,0.2-0.4,0.4l-8.5-3.6l-4.3,10.1l8.1,3.5
		c0,0.1,0,0.1,0,0.2c0,0.2-0.1,0.3-0.1,0.5s0,0.4-0.1,0.5c0,0,0,0,0,0.1c0,0.2,0,0.3,0,0.5c0,0,0,0,0,0.1c0,0.1,0,0.3,0,0.4
		c0,0.1,0,0.1,0,0.2s0,0.1,0,0.2s0,0.2,0,0.4c0,0.1,0,0.1,0,0.2c0,0.1,0,0.2,0,0.4c0,0.1,0,0.1,0,0.2c0,0.2,0.1,0.4,0.1,0.6
		c0,0.1,0,0.2,0.1,0.4c0,0.1,0,0.2,0.1,0.2c0,0.1,0,0.1,0.1,0.2c0,0.1,0.1,0.2,0.1,0.4s0.1,0.3,0.1,0.4c0,0.1,0,0.1,0.1,0.2
		c0,0.1,0,0.1,0.1,0.2c0.1,0.1,0.1,0.2,0.1,0.4c0.1,0.2,0.1,0.4,0.2,0.5l-7.4,5.6l6.6,8.8L407.7,133.1
		C407.6,133.1,407.6,133.1,407.7,133.1z M409.8,120c-0.5-4.5,2.6-8.6,7.1-9.2c4.5-0.5,8.6,2.6,9.1,7.2c0.5,4.5-2.6,8.6-7.1,9.2
		C414.4,127.7,410.3,124.5,409.8,120z"/>
	<path class="st0" d="M60.9,175.3c0.2,0.1,0.3,0.2,0.5,0.3c0.1,0.1,0.2,0.2,0.4,0.2l0.1,0.1c0.1,0.1,0.2,0.1,0.2,0.2
		c0,0,0.1,0,0.1,0.1c0.1,0,0.1,0.1,0.1,0.1c0.1,0.1,0.3,0.2,0.4,0.2c0.1,0.1,0.2,0.1,0.2,0.1c0.2,0.1,0.4,0.2,0.6,0.4
		c0.1,0.1,0.1,0.1,0.2,0.1c0.2,0.1,0.4,0.2,0.5,0.3c0.4,0.2,0.8,0.4,1.2,0.5c0.2,0.1,0.4,0.1,0.6,0.2c0.1,0,0.2,0.1,0.2,0.1
		c0.1,0,0.1,0.1,0.2,0.1c0.1,0.1,0.2,0.1,0.3,0.1c0.2,0.1,0.4,0.1,0.6,0.2c0.2,0.1,0.5,0.1,0.7,0.2l1.3,10.4l12.3-1.5l-1.2-10
		c0.1,0,0.1-0.1,0.1-0.1c0.1-0.1,0.2-0.1,0.3-0.1c0.1-0.1,0.2-0.1,0.3-0.1c0.1-0.1,0.2-0.1,0.4-0.2c0.1,0,0.1-0.1,0.2-0.1
		c0.1-0.1,0.3-0.1,0.4-0.2c0.1,0,0.1-0.1,0.1-0.1c0.1-0.1,0.2-0.1,0.3-0.2c0.1-0.1,0.2-0.1,0.2-0.1c0.1,0,0.1-0.1,0.2-0.1
		c0.1-0.1,0.2-0.1,0.4-0.2l0.1-0.1c0,0,0,0,0.1,0c0.1-0.1,0.2-0.1,0.4-0.2c0.1,0,0.1-0.1,0.1-0.1c0.1-0.1,0.2-0.2,0.3-0.2
		c0.1,0,0.1-0.1,0.1-0.1c0.1-0.1,0.2-0.2,0.4-0.3c0.2-0.1,0.4-0.2,0.5-0.4c0.1-0.1,0.2-0.2,0.4-0.3c0,0,0.1,0,0.1-0.1
		c0.1,0,0.1-0.1,0.1-0.1c0.1-0.1,0.3-0.2,0.4-0.4c0.2-0.2,0.4-0.3,0.5-0.5c0.2-0.2,0.4-0.4,0.5-0.5l9.6,4.1l4.9-11.5l-9.2-3.9v-0.1
		c0-0.2,0.1-0.5,0.1-0.7c0-0.2,0-0.4,0-0.5c0-0.1,0-0.1,0-0.2c0-0.2,0-0.3,0-0.5s0-0.4,0-0.5c0-0.1,0-0.1,0-0.2c0,0,0,0,0-0.1
		c0-0.1,0-0.2,0-0.4c0-0.1,0-0.1,0-0.2s0-0.1,0-0.1v-0.1c0-0.1,0-0.1,0-0.2c0-0.1,0-0.3-0.1-0.4c0-0.1,0-0.2-0.1-0.4
		c0-0.1,0-0.2-0.1-0.3c0-0.1,0-0.2-0.1-0.3c0-0.1,0-0.1,0-0.1c0-0.1,0-0.2-0.1-0.3c0-0.1-0.1-0.2-0.1-0.4c0-0.1,0-0.1-0.1-0.2
		c0-0.1-0.1-0.2-0.1-0.4s-0.1-0.2-0.1-0.3c0-0.1,0-0.1-0.1-0.2c0-0.1-0.1-0.2-0.1-0.3s-0.1-0.2-0.1-0.4c0-0.1,0-0.1-0.1-0.1
		c-0.1-0.2-0.1-0.3-0.1-0.4c0,0,0,0,0-0.1c0,0,0,0,0-0.1l8.4-6.3l-7.5-10l-8,6c-0.1-0.1-0.1-0.1-0.1-0.1c-0.9-0.6-1.8-1.2-2.7-1.7
		c-0.8-0.4-1.5-0.7-2.3-1c-0.1-0.1-0.3-0.1-0.4-0.1c-0.1-0.1-0.2-0.1-0.4-0.1c-0.1-0.1-0.3-0.1-0.4-0.1c-0.1,0-0.2-0.1-0.2-0.1
		c-0.1,0-0.2-0.1-0.2-0.1c-0.1,0-0.1,0-0.1,0c-0.1,0-0.2-0.1-0.2-0.1l-1.3-10.4l-12.3,1.5l1.2,10c0,0-0.1,0-0.1,0.1
		c-0.1,0.1-0.2,0.1-0.4,0.2c-0.1,0.1-0.2,0.1-0.2,0.1c-0.1,0-0.1,0.1-0.1,0.1c-0.1,0.1-0.2,0.1-0.4,0.2c-0.1,0-0.1,0-0.1,0.1
		c-0.2,0.1-0.4,0.2-0.5,0.3c-0.1,0.1-0.2,0.2-0.4,0.2c-0.1,0.1-0.1,0.1-0.2,0.1s-0.1,0.1-0.2,0.1c-0.1,0.1-0.2,0.1-0.4,0.2l-0.1,0.1
		c-0.1,0.1-0.2,0.1-0.3,0.2c-0.1,0.1-0.2,0.1-0.3,0.2c-0.1,0.1-0.1,0.1-0.2,0.2c-0.1,0.1-0.1,0.1-0.1,0.1c-0.1,0.1-0.2,0.2-0.4,0.2
		c-0.2,0.1-0.4,0.2-0.5,0.4c-0.1,0.1-0.3,0.2-0.4,0.4c-0.2,0.1-0.3,0.3-0.5,0.4l-0.1,0.1c0,0,0,0-0.1,0.1c-0.1,0.1-0.2,0.2-0.4,0.4
		l-0.1,0.1c-0.1,0.1-0.3,0.3-0.4,0.4c0,0,0,0-0.1,0.1l-9.6-4.1l-4.9,11.5l9.2,3.9c0,0.1,0,0.2,0,0.2c0,0.2-0.1,0.4-0.1,0.5
		s0,0.4-0.1,0.6v0.1c0,0.2,0,0.4,0,0.5v0.1c0,0.2,0,0.4,0,0.5c0,0.1,0,0.1,0,0.2s0,0.2,0,0.2c0,0.1,0,0.3,0,0.4c0,0.1,0,0.1,0,0.2
		c0,0.1,0,0.3,0,0.4c0,0.1,0,0.1,0,0.2c0,0.2,0.1,0.5,0.1,0.6c0,0.1,0.1,0.3,0.1,0.4c0,0.1,0,0.2,0.1,0.2c0,0.1,0,0.2,0.1,0.2
		c0,0.1,0.1,0.3,0.1,0.4c0.1,0.2,0.1,0.3,0.1,0.5c0,0.1,0,0.1,0.1,0.2c0,0.1,0.1,0.1,0.1,0.2c0.1,0.1,0.1,0.3,0.1,0.4
		c0.1,0.2,0.1,0.4,0.2,0.6l-8.4,6.3l7.5,10l8-6C60.8,175.2,60.9,175.3,60.9,175.3z M63.3,160.4c-0.6-5.2,3-9.8,8.1-10.4
		s9.8,3,10.4,8.1c0.6,5.2-3,9.8-8.1,10.4C68.6,169.2,63.9,165.5,63.3,160.4z"/>
	<path class="st0" d="M193.9,9.6h-6.5v19.9h6.5V9.6z"/>
	<path class="st0" d="M179.3,16.5h-6.5v12.9h6.5V16.5z"/>
	<path class="st0" d="M164.7,9.6h-6.5v19.9h6.5V9.6z"/>
	<path class="st0" d="M150.2,15.3h-6.5v14.2h6.5V15.3z"/>
	<path class="st0" d="M135.6,17.5h-6.5v12h6.5V17.5z"/>
	<path class="st0" d="M121,22.3h-6.5v7.1h6.5V22.3z"/>
	<path class="st0" d="M161.6,167.1h53c0.9,0,1.6,0.8,1.6,1.6v12.4c0,0.9-0.8,1.6-1.6,1.6h-2.4c0,0.7,0.1,2,1.1,2.8
		c0,0-2.6-0.2-3.4-2.8h-48.3c-0.9,0-1.6-0.8-1.6-1.6v-12.4C160,167.9,160.7,167.1,161.6,167.1z"/>
	<path class="st1" d="M247.8,55.6v91.1c0,4-3.2,7.3-7.3,7.3H92.6c-4,0-7.3-3.2-7.3-7.3V55.6H247.8z"/>
	<path class="st0" d="M247.8,49.6v6H85.3v-6c0-4,3.2-7.3,7.3-7.3h148C244.6,42.4,247.8,45.6,247.8,49.6z"/>
	<path class="st2" d="M166.5,122.1c9.8,0,17.7-7.9,17.7-17.7s-7.9-17.7-17.7-17.7s-17.7,7.9-17.7,17.7S156.8,122.1,166.5,122.1z"/>
	<path class="st1" d="M163.6,113l-7.5-6.9l2.5-2.6l4.9,4.6l11-10.9l2.5,2.5L163.6,113z"/>
	<path class="st2" d="M247.9,55.7H85.2v-6.2c0-4,3.3-7.4,7.3-7.4h148c4,0,7.3,3.3,7.3,7.4L247.9,55.7L247.9,55.7z M85.4,55.5h162.3
		v-5.9c0-3.9-3.2-7.1-7.1-7.1h-148c-3.9,0-7.1,3.2-7.1,7.1V55.5z"/>
	<path class="st2" d="M240.6,154h-148c-4,0-7.3-3.3-7.3-7.4V55.5h162.7v91.2C247.9,150.7,244.6,154,240.6,154z M85.4,55.7v90.9
		c0,3.9,3.2,7.1,7.1,7.1h148c3.9,0,7.1-3.2,7.1-7.1V55.7H85.4z"/>
	<path class="st2" d="M93.5,51c1.1,0,2-0.9,2-2s-0.9-2-2-2c-1.1,0-2,0.9-2,2S92.4,51,93.5,51z"/>
	<path class="st2" d="M102.2,51c1.1,0,2-0.9,2-2s-0.9-2-2-2c-1.1,0-2,0.9-2,2S101.1,51,102.2,51z"/>
	<path class="st2" d="M110.9,51c1.1,0,2-0.9,2-2s-0.9-2-2-2c-1.1,0-2,0.9-2,2S109.8,51,110.9,51z"/>
	<path class="st3" d="M377.6,80.7h-61.9c-2,0-3.6,1.6-3.6,3.6v27.5c0,2,1.6,3.6,3.6,3.6h5.3c0.1,1.5-0.2,4.4-2.3,6.3
		c0,0,5.9-0.5,7.5-6.3h51.3c2,0,3.6-1.6,3.6-3.6V84.4C381.2,82.4,379.6,80.7,377.6,80.7z"/>
	<path class="st1" d="M326.3,100.5c1.3,0,2.4-1.1,2.4-2.4s-1.1-2.4-2.4-2.4c-1.3,0-2.4,1.1-2.4,2.4S325,100.5,326.3,100.5z"/>
	<path class="st1" d="M342.3,98.1c0,1.3-1.1,2.4-2.4,2.4c-1.3,0-2.4-1.1-2.4-2.4s1.1-2.4,2.4-2.4C341.2,95.8,342.3,96.9,342.3,98.1z
		"/>
	<path class="st1" d="M353.4,100.5c1.3,0,2.4-1.1,2.4-2.4s-1.1-2.4-2.4-2.4c-1.3,0-2.4,1.1-2.4,2.4S352.1,100.5,353.4,100.5z"/>
	<path class="st1" d="M367,100.5c1.3,0,2.4-1.1,2.4-2.4s-1.1-2.4-2.4-2.4c-1.3,0-2.4,1.1-2.4,2.4S365.7,100.5,367,100.5z"/>
	<path class="st3" d="M113.6,101.6H51.8c-2,0-3.6,1.6-3.6,3.6v27.5c0,2,1.6,3.6,3.6,3.6h5.3c0.1,1.5-0.2,4.4-2.3,6.3
		c0,0,5.9-0.5,7.5-6.3h51.3c2,0,3.6-1.6,3.6-3.6v-27.5C117.3,103.2,115.7,101.6,113.6,101.6z"/>
	<path class="st1" d="M62.4,121.4c1.3,0,2.4-1.1,2.4-2.4s-1.1-2.4-2.4-2.4c-1.3,0-2.4,1.1-2.4,2.4S61.1,121.4,62.4,121.4z"/>
	<path class="st1" d="M76,121.4c1.3,0,2.4-1.1,2.4-2.4s-1.1-2.4-2.4-2.4c-1.3,0-2.4,1.1-2.4,2.4S74.6,121.4,76,121.4z"/>
	<path class="st1" d="M89.5,121.4c1.3,0,2.4-1.1,2.4-2.4s-1.1-2.4-2.4-2.4c-1.3,0-2.4,1.1-2.4,2.4S88.2,121.4,89.5,121.4z"/>
	<path class="st1" d="M103,121.4c1.3,0,2.4-1.1,2.4-2.4s-1.1-2.4-2.4-2.4c-1.3,0-2.4,1.1-2.4,2.4S101.7,121.4,103,121.4z"/>
	<path class="st1" d="M355.5,158.4c0,0,3.8-0.3,4.8-4h32.7c1.3,0,2.3-1.1,2.3-2.3v-17.5c0-1.3-1.1-2.3-2.3-2.3h-39.4
		c-1.3,0-2.3,1.1-2.3,2.3v17.5c0,1.3,1.1,2.3,2.3,2.3h3.4C357.1,155.4,356.9,157.3,355.5,158.4z"/>
	<path class="st4" d="M355.5,158.4c0.3-0.1,0.5-0.1,0.8-0.2c0.2-0.1,0.5-0.2,0.8-0.3c0.5-0.2,1-0.5,1.4-0.8c0.2-0.2,0.4-0.4,0.6-0.5
		c0.2-0.2,0.4-0.4,0.5-0.6c0.4-0.5,0.5-0.9,0.8-1.5c-0.1,0.1-0.1,0.3-0.1,0.4s-0.1,0.3-0.1,0.4l-0.2,0.4c-0.1,0.1-0.1,0.2-0.2,0.4
		c-0.1,0.2-0.4,0.5-0.5,0.7c-0.2,0.2-0.4,0.4-0.6,0.6c-0.5,0.4-0.9,0.6-1.5,0.8S356.1,158.4,355.5,158.4z"/>
	<path class="st4" d="M357.1,154.5c0.1,0.7,0.1,1.5-0.2,2.2c-0.1,0.4-0.3,0.7-0.5,1c-0.2,0.3-0.5,0.6-0.8,0.8
		c0.5-0.5,0.9-1.2,1.1-1.9C356.9,155.9,357,155.2,357.1,154.5z"/>
	<path class="st4" d="M360.4,154.5l15.7-0.1h15.7h1c0.4,0,0.6,0,0.9-0.1c0.6-0.1,1.2-0.5,1.5-1.1c0.2-0.3,0.2-0.6,0.3-0.9v-0.2v-0.2
		v-0.5v-2v-7.9v-3.9v-2v-1c0-0.3-0.1-0.6-0.2-0.9c-0.2-0.6-0.7-1.1-1.3-1.3c-0.3-0.1-0.6-0.1-0.9-0.1h-1h-3.9l-31.3-0.1h-1.9h-1
		c-0.4,0-0.6,0-0.9,0.1c-0.6,0.2-1.1,0.7-1.3,1.3c-0.1,0.3-0.2,0.6-0.2,0.9v1v7.9v7.9c0,0.4,0,0.6,0,1s0.1,0.6,0.3,0.9
		c0.3,0.6,0.9,1,1.5,1.2c0.3,0.1,0.6,0.1,1,0.1c-0.4,0-0.6,0-1-0.1c-0.6-0.1-1.2-0.6-1.5-1.2c-0.2-0.3-0.2-0.6-0.3-0.9
		c0-0.4,0-0.6,0-1v-7.9v-7.9v-1c0-0.4,0.1-0.6,0.2-1c0.2-0.6,0.8-1.1,1.4-1.3c0.2-0.1,0.4-0.1,0.5-0.1c0.2,0,0.4,0,0.5,0h1h1.9
		l31.3-0.1h3.9h1c0.4,0,0.7,0.1,1,0.2c0.6,0.2,1.2,0.8,1.4,1.4c0.1,0.3,0.2,0.6,0.2,1v1v2v3.9v7.9v2v0.5v0.2v0.2
		c-0.1,0.4-0.1,0.6-0.3,0.9c-0.4,0.6-0.9,1-1.6,1.2l-0.2,0.1h-0.2h-0.5h-1h-15.7L360.4,154.5z"/>
	<path class="st4" d="M360.4,144.9c0.8,0,1.5-0.7,1.5-1.5s-0.7-1.5-1.5-1.5s-1.5,0.7-1.5,1.5S359.6,144.9,360.4,144.9z"/>
	<path class="st4" d="M369,144.9c0.8,0,1.5-0.7,1.5-1.5s-0.7-1.5-1.5-1.5c-0.8,0-1.5,0.7-1.5,1.5S368.2,144.9,369,144.9z"/>
	<path class="st4" d="M377.7,144.9c0.8,0,1.5-0.7,1.5-1.5s-0.7-1.5-1.5-1.5c-0.8,0-1.5,0.7-1.5,1.5S376.9,144.9,377.7,144.9z"/>
	<path class="st4" d="M386.4,144.9c0.8,0,1.5-0.7,1.5-1.5s-0.7-1.5-1.5-1.5c-0.8,0-1.5,0.7-1.5,1.5S385.5,144.9,386.4,144.9z"/>
	<path class="st0" d="M433.8,190.2c0,0-9.5,3.6-18.7,12.7c-8.7,8.6-13.4,16.8-13.4,16.8c7-2.1,13.6-5.8,19.4-11.1
		C426.8,203.3,431,197,433.8,190.2z"/>
	<path class="st0" d="M410.4,221.5c-5.3,0.2-10.2,1.7-14.6,4c4.6,1.9,9.6,2.9,14.9,2.6c5.3-0.2,10.2-1.7,14.6-4
		C420.8,222.3,415.7,221.3,410.4,221.5z"/>
	<path class="st0" d="M391.3,194.2c-1.1,4.9-1.1,10,0.2,15.2c1.2,5.2,3.6,9.7,6.7,13.6c1.1-4.9,1.1-10-0.2-15.2
		C396.8,202.7,394.4,198.1,391.3,194.2z"/>
	<path class="st0" d="M409.6,264.4c6.1-3.4,7.2-7.2,4.3-11.7s-6.7-8-10.9-10.5c0,0,0.5,7.3,5.3,14.2
		C410.7,259.8,411.1,262.4,409.6,264.4z"/>
	<path class="st0" d="M406.5,236.1c-0.1-0.1-0.3-0.1-0.4-0.1l-0.7-0.2c-0.2-0.1-0.5-0.1-0.7-0.2l-0.4-0.1l-0.4-0.1l-0.7-0.2
		c-1-0.2-1.9-0.4-2.9-0.5c-2-0.2-4-0.4-6-0.4c-2-0.1-3.9,0.1-5.9,0.3c0.1-0.1,0.1-0.1,0.1-0.2c1.3-1.8,2.7-3.5,4.1-5.2
		c1.4-1.7,2.9-3.3,4.4-5c0.8-0.8,1.5-1.6,2.3-2.4c0.8-0.8,1.6-1.6,2.3-2.3c-0.8,0.8-1.6,1.5-2.4,2.3c-0.8,0.8-1.5,1.6-2.3,2.4
		c-1.5,1.6-3,3.3-4.4,5c-1.4,1.7-2.8,3.4-4.2,5.2c-0.4,0.5-0.8,1-1.1,1.5c-0.1-0.6-0.2-1.3-0.4-2c-0.2-0.6-0.4-1.3-0.6-2
		s-0.5-1.3-0.7-1.9c-0.3-0.6-0.5-1.3-0.9-1.9c0.1,0.3,0.3,0.6,0.4,0.9c0.1,0.3,0.3,0.6,0.4,0.9c0.2,0.6,0.5,1.3,0.7,1.9
		c0.2,0.6,0.4,1.3,0.6,2l0.1,0.5c0.1,0.2,0.1,0.4,0.1,0.5c0.1,0.3,0.1,0.6,0.2,0.9c-0.9,1.3-1.9,2.6-2.7,3.9
		c-0.3,0.5-0.6,0.9-0.9,1.4c-0.3,0.5-0.6,0.9-0.9,1.4L382,244l-0.9,1.4c-0.1,0.2-0.3,0.5-0.4,0.7l-0.4,0.7l-0.4,0.7
		c-0.1,0.2-0.3,0.5-0.4,0.7l-0.8,1.5l-0.2,0.4l-0.2,0.4l-0.4,0.8c-0.5,1-1,2-1.5,3c-0.2,0.5-0.5,1-0.7,1.5l-0.4,0.8
		c-0.1,0.2-0.2,0.5-0.3,0.8l-0.6,1.5l-0.6,1.5l-0.3,0.8l-0.3,0.8l-0.4,1H373c0.1-1.3,0.1-2.7,0.1-4.1c0.1-3.5,0.3-7,0.5-10.5
		c0.2-3.5,0.5-7,0.8-10.5c0.2-2.1,0.4-4.2,0.6-6.2c0.6,0.4,1.3,0.8,2,1.1c4.6,1.6,9.5-0.3,9.5-0.3c-2.1-2.1-4.7-3.7-7.7-4.7
		c-1.1-0.4-2.2-0.6-3.4-0.8l0.2-2l0.3-2.6c0-0.2,0.1-0.4,0.1-0.6c4.3,4.6,8.8,6.5,8.8,6.5c-0.9-4.9-3-9.6-6.1-13.8
		c-0.5-0.6-0.9-1.1-1.4-1.6l0.1-0.9l0.2-1.3l0.2-1.3l0.2-1.3c0.1-0.4,0.1-0.9,0.2-1.3l0.5-2.6c0.1-0.4,0.2-0.9,0.2-1.3l0.2-1.3
		l0.2-1.3c0.1-0.4,0.2-0.9,0.3-1.3l0.1-0.2c0.3-0.1,7.2-1.9,12.9-7.9c2.9-3,5.3-3.9,7.5-2.8c-4.4-5.3-8.4-5.7-12.2-2.1
		c-3.7,3.7-6.5,8-8.2,12.7l0.5-2.3c0.5-2.1,0.9-4.2,1.5-6.2c0,0,0,0,0-0.1c0.4-1.3,0.7-2.6,1.1-3.9c0,0,6.1-7.2,11.2-18.3
		c5.4-11.7,5.6-21.9,5.6-21.9c-5.4,4.9-9.9,11-13,18.2c-3,7.2-4.3,14.7-3.9,22c-0.4,1.3-0.7,2.6-1.1,3.9c-0.2-0.8-2-6.5-5.8-13
		c-4.4-7.4-9.9-11.3-9.9-11.3c0.6,4.9,2.3,9.7,5.1,14c2.8,4.3,6.5,7.9,10.6,10.4c-0.5,2.1-1.1,4.1-1.5,6.2l-0.5,2.6
		c-0.1,0.4-0.2,0.9-0.3,1.3l-0.2,1.3l-0.2,1.3c-0.1,0.4-0.2,0.9-0.2,1.3l-0.5,2.6c-0.4,2-0.7,4-1,6c-2.9-2.6-6.4-2.2-10.9,1.8
		c2.4-0.8,4.6,0.5,7,3.9c0.8,1.2,1.7,2.3,2.6,3.2c-0.2,1.8-0.4,3.5-0.6,5.3c-1.9-0.3-3.7-0.3-5.5-0.1c-0.1-0.1,2.2,3,5,4.9
		c-0.2,2.1-0.4,4.2-0.6,6.3c-0.3,3.5-0.5,7-0.8,10.5c-0.3,4.9-0.5,9.7-0.6,14.5h-0.1l-0.1-1.2v-0.5v-0.2v-0.2l-0.1-0.9l-0.1-0.9
		l-0.1-0.5l-0.1-0.5l-0.2-1.8v-0.2l-0.1-0.2l-0.1-0.5l-0.1-0.9l-0.1-0.9l-0.2-0.9c-0.1-0.6-0.2-1.2-0.4-1.8L371,249
		c-1.1-4.7-2.4-9.4-4-13.9c-0.8-2.3-1.6-4.5-2.6-6.7c-0.9-2.2-1.9-4.5-2.9-6.6c-1.3-2.9-2.7-5.8-4.2-8.6c4-2.9,7.5-6.6,10.1-11.2
		s4-9.6,4.3-14.5c-4,2.9-7.5,6.6-10.1,11.2c-2.6,4.6-4,9.6-4.3,14.5c-0.8-1.4-1.5-2.8-2.3-4.2c0.6,1.1,1.2,2.1,1.8,3.2
		c0.2,0.4,0.4,0.8,0.6,1.1c0.4,0.7,0.7,1.4,1.1,2.1c1.1,2.2,2.1,4.3,3.1,6.5c0.8,1.6,1.5,3.3,2.2,5c-1.8-0.8-3.7-1.3-5.6-1.8
		c-1.9-0.5-3.9-0.9-5.8-1.2c-1-0.1-2-0.2-3-0.3l-0.8-0.1h-0.4h-0.4c-0.2,0-0.5,0-0.8,0h-0.8c-0.2,0-0.5,0-0.8,0c-0.2,0-0.5,0-0.8,0
		c-0.5,0-1,0.1-1.5,0.1c-1,0.1-2,0.2-3,0.3c-4.7-1.7-9.8-2.3-15-1.8s-10.1,2.2-14.3,4.9c-0.2,0,8.5,4.7,15,4.1
		c8.1-0.8,14.3-7.1,14.3-7.1c1-0.1,2-0.2,3-0.2c0.5-0.1,1-0.1,1.5-0.1c0.2,0,0.5,0,0.8,0c0.2,0,0.5,0,0.8,0h0.8c0.2,0,0.5,0,0.8,0.1
		h0.4h0.4l0.8,0.1c1,0.1,2,0.2,3,0.3c2,0.3,3.9,0.6,5.8,1.1c0.9,0.2,1.9,0.5,2.9,0.8c0.9,0.3,1.9,0.6,2.7,0.9
		c0.2,0.5,0.5,1.1,0.6,1.6c0.9,2.2,1.8,4.5,2.5,6.8c1.6,4.6,2.9,9.2,4,13.9l0.4,1.8c0.1,0.6,0.2,1.2,0.4,1.8l0.2,0.9l0.1,0.9
		l0.1,0.9l0.1,0.5l0.1,0.2v0.2l0.2,1.8l0.1,0.5l0.1,0.5l0.1,0.9l0.1,0.9v0.2v0.2v0.5l0.1,1.2h-18.3v6.3v0.3v30.2H391v-36.8h-18.1
		l0.4-1l0.3-0.8l0.3-0.8l0.6-1.5l0.6-1.5c0.1-0.2,0.2-0.5,0.4-0.8l0.4-0.8c0.2-0.5,0.5-1,0.7-1.5c0.5-1,0.9-2,1.5-3l0.4-0.8l0.2-0.4
		l0.2-0.4l0.8-1.5c0.1-0.2,0.3-0.5,0.4-0.7l0.4-0.7l0.4-0.7c0.1-0.2,0.3-0.5,0.4-0.7l0.9-1.4l0.9-1.4c0.3-0.5,0.6-0.9,0.9-1.4
		c0.3-0.5,0.6-0.9,0.9-1.4c1.2-1.8,2.5-3.5,3.7-5.2c1-0.1,1.9-0.2,2.9-0.2c1-0.1,2-0.1,3,0c1.1,0,2,0.1,3.1,0.2
		c0.6,0.5,1.1,1.1,1.6,1.6c0.4,0.4,0.8,0.9,1.1,1.3c-2,1.3-3.9,3.2-5.3,5.4c-1.4,2.2-2.2,4.7-2.5,7.1c2.1-1.3,3.9-3.2,5.3-5.4
		s2.2-4.6,2.5-7.1c0.1,0.2,0.2,0.3,0.4,0.5c0.1,0.2,0.2,0.3,0.4,0.5s0.2,0.4,0.4,0.5l0.4,0.5c0.1,0.1,0.1,0.2,0.2,0.2l0.2,0.2
		c0.4,0.7,0.8,1.4,1.2,2.1l-0.2-0.5c-0.1-0.2-0.2-0.4-0.2-0.5l-0.3-0.5c-0.1-0.2-0.2-0.4-0.3-0.5c-0.4-0.7-0.8-1.3-1.3-2
		s-1-1.3-1.5-1.9c-0.3-0.3-0.5-0.6-0.8-0.9c-0.3-0.2-0.5-0.5-0.8-0.8c0.9,0.1,1.9,0.2,2.8,0.3c1,0.1,2,0.3,2.9,0.5l0.7,0.2l0.4,0.1
		l0.4,0.1c0.2,0.1,0.5,0.1,0.7,0.2l0.7,0.2C406.2,236.1,406.4,236.1,406.5,236.1c1.8,1.7,4,2.9,6.5,3.7c2.5,0.7,5.1,0.8,7.5,0.4
		c-1.9-1.6-4.1-2.9-6.6-3.6C411.5,235.8,409,235.7,406.5,236.1z"/>
	<path class="st0" d="M332.1,171.9c0.8,7.3,3.2,14.5,7.3,21.2c4.1,6.6,9.5,12,15.6,15.9c0,0-2.3-9.1-8.4-19.8
		C340.3,178,332.1,171.9,332.1,171.9z"/>
	<path class="st0" d="M358.8,216.3c-3.6-3.5-7.9-6.2-12.9-7.9c-5-1.7-10.1-2.1-15-1.5c3.6,3.5,7.9,6.2,12.9,7.9
		C348.8,216.5,353.9,217,358.8,216.3z"/>
	<path class="st0" d="M355.2,233.3c-0.7-2.5-2-4.7-3.6-6.6c0.5-0.4,0.9-0.6,1.4-1c0.6-0.4,1.3-0.8,2-1.2c-0.4,0.2-0.7,0.4-1.1,0.5
		c-0.4,0.2-0.7,0.4-1.1,0.6c-0.7,0.4-1.3,0.9-2,1.3c-0.6,0.5-1.2,1-1.8,1.6c-0.1,0.1-0.3,0.3-0.4,0.4l-0.4,0.4
		c-0.1,0.1-0.3,0.3-0.4,0.5l-0.4,0.5c0.5-0.6,1.1-1.2,1.7-1.7l0.2-0.2c0.1-0.1,0.1-0.1,0.2-0.2l0.5-0.4c0.2-0.1,0.3-0.2,0.5-0.4
		c0.2-0.1,0.3-0.2,0.5-0.4c0.2-0.1,0.3-0.2,0.5-0.4c-0.4,2.4-0.3,5,0.5,7.5c0.7,2.5,2,4.8,3.6,6.6
		C356,238.4,355.9,235.8,355.2,233.3z"/>
	<path class="st0" d="M335.2,249.9c-0.9-2.3,0.1-4.7,3.4-7.3c6.5-5.3,8.9-12.2,8.9-12.2c-4.8,1.3-9.4,3.7-13.3,7.1
		C330.3,241,330.3,245,335.2,249.9z"/>
	<path class="st1" d="M145.7,286.3h-27.5v13.2h27.5V286.3z"/>
	<path class="st0" d="M118.2,286.3H83.5v13.2h34.7V286.3z"/>
	<path class="st0" d="M146.6,286.3h-28.4v1.1h28.4V286.3z"/>
	<path class="st0" d="M146.1,289.9h-12.7v0.3h12.7V289.9z"/>
	<path class="st0" d="M146.6,298.5h-28.4v1.1h28.4V298.5z"/>
	<path class="st1" d="M89.5,286.3H87v13.2h2.6V286.3z"/>
	<path class="st1" d="M114.2,286.3h-0.6v13.2h0.6V286.3z"/>
	<path class="st1" d="M112,286.3h-0.6v13.2h0.6V286.3z"/>
	<path class="st0" d="M145.5,295h-2.9l-2.7-4.8h2.9L145.5,295z"/>
	<path class="st1" d="M94.7,291v4h-1.1v-1.6h-0.3v1.6h-1.1v-4h1.1v1.4h0.3V291H94.7z"/>
	<path class="st1" d="M96.1,291v4h-1.1v-4H96.1z"/>
	<path class="st1" d="M98.7,292.1h-0.9v-0.3c0-0.1,0-0.2-0.1-0.2c0-0.1-0.1-0.1-0.1-0.1c-0.1,0-0.1,0-0.1,0.1
		c-0.1,0.1-0.1,0.1-0.1,0.2s0,0.2,0.1,0.3c0.1,0.1,0.1,0.2,0.3,0.2c0.5,0.3,0.8,0.5,0.9,0.6c0.1,0.2,0.2,0.5,0.2,0.8
		c0,0.3-0.1,0.5-0.1,0.6c-0.1,0.1-0.2,0.2-0.4,0.4c-0.2,0.1-0.4,0.1-0.6,0.1c-0.3,0-0.5-0.1-0.7-0.2c-0.2-0.1-0.3-0.2-0.4-0.4
		c-0.1-0.2-0.1-0.4-0.1-0.7v-0.2h0.9v0.5c0,0.2,0,0.2,0.1,0.3c0,0.1,0.1,0.1,0.1,0.1s0.1,0,0.2-0.1s0.1-0.1,0.1-0.2
		c0-0.2-0.1-0.4-0.1-0.5s-0.2-0.2-0.5-0.4c-0.2-0.2-0.4-0.3-0.5-0.4c-0.1-0.1-0.2-0.2-0.2-0.3c-0.1-0.1-0.1-0.3-0.1-0.5
		c0-0.3,0.1-0.5,0.1-0.6c0.1-0.1,0.2-0.2,0.4-0.4c0.2-0.1,0.4-0.1,0.6-0.1s0.5,0.1,0.7,0.1c0.2,0.1,0.3,0.2,0.4,0.4
		c0.1,0.1,0.1,0.4,0.1,0.6L98.7,292.1L98.7,292.1z"/>
	<path class="st1" d="M101.2,291v0.8h-0.6v3.2h-1.1v-3.2H99V291H101.2z"/>
	<path class="st1" d="M103.8,293.3c0,0.4,0,0.7,0,0.8c0,0.2-0.1,0.3-0.2,0.5c-0.1,0.1-0.2,0.2-0.4,0.3s-0.4,0.1-0.6,0.1
		s-0.4-0.1-0.6-0.1c-0.2-0.1-0.3-0.2-0.4-0.3c-0.1-0.1-0.2-0.3-0.2-0.5s0-0.5,0-0.9v-0.7c0-0.4,0-0.7,0-0.8c0-0.2,0.1-0.3,0.2-0.5
		c0.1-0.1,0.2-0.2,0.4-0.3c0.2-0.1,0.4-0.1,0.6-0.1s0.4,0.1,0.6,0.1s0.3,0.2,0.4,0.3c0.1,0.1,0.2,0.3,0.2,0.5s0,0.5,0,0.9V293.3z
		 M102.7,292c0-0.2,0-0.3-0.1-0.4c0-0.1-0.1-0.1-0.1-0.1c-0.1,0-0.1,0-0.1,0.1s-0.1,0.2-0.1,0.4v1.9c0,0.2,0,0.4,0,0.4
		s0.1,0.1,0.1,0.1s0.1-0.1,0.1-0.1s0.1-0.2,0.1-0.5L102.7,292L102.7,292z"/>
	<path class="st1" d="M104.2,291h0.7c0.5,0,0.8,0,1,0.1c0.2,0.1,0.3,0.1,0.4,0.3c0.1,0.2,0.2,0.4,0.2,0.8c0,0.3-0.1,0.5-0.1,0.6
		s-0.2,0.2-0.5,0.2c0.2,0.1,0.4,0.1,0.4,0.2c0.1,0.1,0.1,0.2,0.1,0.2s0,0.3,0,0.6v1.1h-0.9v-1.3c0-0.2,0-0.4-0.1-0.4
		c-0.1-0.1-0.1-0.1-0.2-0.1v1.8h-1.1L104.2,291L104.2,291z M105.2,291.7v0.9c0.1,0,0.2,0,0.2-0.1s0.1-0.1,0.1-0.3V292
		c0-0.1,0-0.2-0.1-0.2C105.4,291.7,105.3,291.7,105.2,291.7z"/>
	<path class="st1" d="M109,291l-0.8,2.5v1.4h-0.9v-1.4l-0.7-2.5h0.9c0.2,0.8,0.2,1.3,0.2,1.6c0.1-0.4,0.2-0.9,0.3-1.6H109z"/>
	<path class="st1" d="M144.5,265.7h-23.6V277h23.6V265.7z"/>
	<path class="st0" d="M120.9,265.7H91.1V277h29.8V265.7z"/>
	<path class="st0" d="M145.3,265.7h-24.4v0.9h24.4V265.7z"/>
	<path class="st0" d="M144.9,268.7h-10.9v0.2h10.9V268.7z"/>
	<path class="st0" d="M145.3,276.1h-24.4v0.9h24.4V276.1z"/>
	<path class="st1" d="M96.3,267.3h-2.2v8.1h2.2V267.3z"/>
	<path class="st1" d="M116.2,267.3h-14.7v8.1h14.7V267.3z"/>
	<path class="st0" d="M144.3,273h-2.5l-2.3-4.2h2.5L144.3,273z"/>
	<path class="st5" d="M138,286.3H99.6c-2.5,0-4.5-2.1-4.5-4.5v-0.2c0-2.5,2-4.5,4.5-4.5H138V286.3z"/>
	<path class="st1" d="M138.8,285.6h-15.6c-2.1,0-3.8-1.7-3.8-3.8v-0.2c0-2.1,1.7-3.8,3.8-3.8h15.6V285.6z"/>
	<path class="st5" d="M139.4,277h-19.9v0.8h19.9V277z"/>
	<path class="st5" d="M139.1,279.5h-8.9v0.2h8.9V279.5z"/>
	<path class="st5" d="M139.4,285.6h-19.9v0.8h19.9V285.6z"/>
	<path class="st1" d="M116.4,284.8H99.9c-1.7,0-3.1-1.4-3.1-3.1c0-0.9,0.4-1.6,0.9-2.2c0.6-0.6,1.3-0.9,2.2-0.9h16.5
		c-0.1,0.1-0.3,0.2-0.4,0.4c-0.7,0.7-1.1,1.7-1.1,2.8C114.9,282.9,115.5,284.1,116.4,284.8z"/>
	<path class="st5" d="M114.3,285.2c-0.1,0-0.1,0-0.1-0.1c-1.1-0.8-1.8-2.1-1.8-3.5c0-1.2,0.5-2.3,1.3-3.1c0.1-0.1,0.3-0.3,0.5-0.4
		c0.1-0.1,0.2-0.1,0.3,0.1s0.1,0.2-0.1,0.3c-0.2,0.1-0.3,0.2-0.4,0.4c-0.8,0.8-1.2,1.8-1.2,2.8c0,1.3,0.6,2.5,1.6,3.2
		c0.1,0.1,0.1,0.2,0.1,0.3C114.4,285.2,114.4,285.2,114.3,285.2z"/>
	<path class="st6" d="M332.4,185c-0.1-0.4-0.9-10.3,1.7-16.5l3.1,1.3c-2.2,5.4-1.5,14.8-1.4,14.8L332.4,185z"/>
	<path class="st2" d="M365.1,299.7c0,0-5.7-46.3,9.1-95.2c2.2-7.3-2-15.1-9.3-17.1c-13.7-3.9-36.7-8-62.6-3.3
		c-6.1,1.1-10.8,6.3-11.1,12.6c-1.3,20.8-2.7,68.8,9.6,102.9H365.1z"/>
	<path class="st2" d="M364.8,154.3c-0.8,3.6-1.5,7.1-2,10.5c-0.9,5.4-5.8,9.1-11.2,8.3c-4.2-0.6-9.3-1.1-15-1.2
		c-2.7-0.1-5.6-0.1-8.6,0c-2.3,0.1-4.8,0.2-7.3,0.4c-0.2,0-0.5,0.1-0.7,0.1c-6.3,0.5-11.4-4.7-10.8-11c0.4-3.6,0.8-6.6,1.1-9.1
		c0.4-2.9,2-5.3,4.3-6.9c0.9-0.6,1.8-1.1,2.8-1.3c1.5-0.4,2.9-0.8,4.3-1.2c16.7-4.2,28.8-2.6,36.3-0.4
		C363,143.9,366,149.1,364.8,154.3z"/>
	<g class="st7">
		<path class="st2" d="M332.4,185c0,0,30.5-2.6,31.3,28.3s-3.5,50.3-3.5,50.3S365.2,192.8,332.4,185z"/>
	</g>
	<g class="st7">
		<path class="st2" d="M328,171.8c-2.3,0.1-4.8,0.2-7.3,0.4c-0.2,0-0.5,0.1-0.7,0.1c-6.3,0.5-11.4-4.7-10.8-11
			c0.4-3.6,0.8-6.6,1.1-9.1c0.4-2.9,2-5.3,4.3-6.9c0.9-0.6,1.8-1.1,2.8-1.3c1.5-0.4,2.9-0.8,4.3-1.2
			C327.5,148.4,328,168.4,328,171.8z"/>
	</g>
	<path class="st8" d="M336.6,170.4c-3.5,0-7,0.1-10.5,0.2c-1.8,0.1-3.5,0.1-5.3,0.2l-0.6,0.1c-0.2,0-0.5,0-0.6,0.1
		c-0.2,0-0.5,0-0.6,0h-0.4l-0.4-0.1c-0.5-0.1-0.9-0.1-1.3-0.2s-0.9-0.2-1.3-0.4c-1.6-0.6-3.2-1.8-4.2-3.2c-0.5-0.7-1-1.5-1.3-2.3
		c-0.4-0.8-0.5-1.8-0.6-2.6c-0.1-0.9,0-1.8,0.1-2.7l0.4-2.6c0.2-1.8,0.5-3.5,0.8-5.2h0.1l-0.5,5.3l-0.2,2.6
		c-0.1,0.4-0.1,0.9-0.1,1.3c0,0.2,0,0.4,0,0.6s0,0.4,0.1,0.6c0.1,1.7,0.8,3.4,1.8,4.8c1,1.4,2.4,2.5,4,3.2c0.8,0.4,1.6,0.6,2.5,0.7
		l0.4,0.1h0.4c0.2,0,0.4,0,0.6,0c0.4,0,0.9-0.1,1.3-0.1l2.6-0.2c0.9-0.1,1.8-0.1,2.6-0.2c1.8-0.1,3.5-0.1,5.3-0.1
		C333.1,170.2,334.9,170.3,336.6,170.4z"/>
	<path class="st8" d="M356.8,142c1.1,0.3,2.1,0.8,3,1.5c0.9,0.6,1.8,1.5,2.3,2.5c0.6,0.9,1.1,2,1.3,3.1c0.3,1.1,0.4,2.3,0.2,3.4
		c-0.1,0.6-0.2,1.1-0.4,1.6l-0.4,1.6l-0.4,1.6c-0.1,0.5-0.2,1.1-0.4,1.6c-0.2,1.1-0.4,2.2-0.6,3.3l-0.1,0.8l-0.1,0.4l-0.1,0.4
		c-0.1,0.6-0.2,1.1-0.5,1.6c-0.8,2.2-2.4,4-4.4,5c-1,0.5-2.1,0.9-3.2,1.1c-0.3,0.1-0.6,0.1-0.9,0.1h-0.9c-0.6-0.1-1.2-0.1-1.7-0.2
		c-4.4-0.6-8.9-1-13.3-1.3v-0.1c4.5,0.1,8.9,0.4,13.4,0.9c0.6,0.1,1.1,0.1,1.6,0.2h0.8l0.8-0.1c1.1-0.2,2.2-0.5,3.1-1.1
		c1.9-1.1,3.5-2.8,4.3-4.8c0.4-1.1,0.6-2.1,0.8-3.2l0.6-3.3l0.6-3.3l0.4-1.6c0.1-0.5,0.2-1.1,0.3-1.6c0-0.3,0.1-0.5,0.1-0.8v-0.8
		l-0.1-0.8c-0.1-0.3-0.1-0.5-0.2-0.8c-0.2-1.1-0.7-2.1-1.3-3C360.7,144.2,358.9,142.8,356.8,142z"/>
	<path class="st8" d="M370.4,206.1c0.2-0.9,0.4-1.9,0.5-2.9c0.1-0.9,0-1.9-0.2-2.9c-0.3-1.9-1.1-3.7-2.1-5.3
		c-1.1-1.6-2.5-2.9-4.2-3.9c-0.8-0.5-1.7-0.9-2.6-1.2c-0.5-0.2-0.9-0.3-1.4-0.4l-1.4-0.4l-2.8-0.7c-0.9-0.2-1.9-0.5-2.8-0.6
		c-0.9-0.2-1.9-0.4-2.8-0.6c-0.5-0.1-0.9-0.2-1.4-0.3l-1.4-0.2c-0.9-0.2-1.9-0.4-2.9-0.5c-0.9-0.1-1.9-0.3-2.9-0.4s-1.9-0.2-2.9-0.4
		l-2.9-0.3c-7.7-0.6-15.4-0.6-23,0c-0.9,0.1-1.9,0.2-2.9,0.2l-2.9,0.4l-1.4,0.2l-1.4,0.2l-2.9,0.5c-1.9,0.3-3.7,1-5.3,2.1
		s-3,2.5-4,4.1h-0.1c0.9-1.7,2.3-3.2,3.9-4.3s3.5-1.9,5.4-2.2l2.9-0.5l1.4-0.2l1.4-0.2l2.9-0.4c0.9-0.1,1.9-0.2,2.9-0.3
		c0.9-0.1,1.9-0.2,2.9-0.2l2.9-0.2c0.5-0.1,0.9,0,1.5-0.1h1.5c0.9,0,1.9-0.1,2.9,0l2.9,0.1c0.9,0.1,1.9,0.1,2.9,0.1
		c0.5,0,0.9,0.1,1.5,0.1l1.5,0.1l1.5,0.1c0.5,0.1,0.9,0.1,1.5,0.1c3.9,0.4,7.7,0.9,11.5,1.6c1.9,0.3,3.8,0.7,5.7,1.1
		c0.9,0.2,1.9,0.4,2.8,0.6c0.9,0.2,1.9,0.4,2.8,0.7l1.4,0.4c0.5,0.1,0.9,0.2,1.4,0.4c0.9,0.3,1.8,0.7,2.7,1.2c1.7,1,3.1,2.4,4.2,4
		c1.1,1.6,1.8,3.5,2,5.4C371.3,202.3,371.1,204.3,370.4,206.1z"/>
	<path class="st8" d="M361.8,296.7c-0.5-3.8-0.8-7.6-0.9-11.4c-0.1-1.9-0.2-3.8-0.2-5.7c0-0.9-0.1-1.9-0.1-2.9s0-1.9,0-2.9
		c0.1-7.6,0.6-15.2,1.2-22.9c0.6-7.6,1.6-15.2,3-22.7c0.1-0.5,0.2-0.9,0.3-1.4l0.3-1.4c0.2-0.9,0.4-1.9,0.6-2.8
		c0.4-1.9,0.8-3.8,1.3-5.6c0.9-3.7,2-7.4,3.1-11h0.1c-2,7.3-3.8,14.8-5.2,22.3l-0.5,2.8c-0.1,0.5-0.2,0.9-0.2,1.4l-0.2,1.4
		c-0.4,1.9-0.6,3.8-0.9,5.6c-0.5,3.8-1,7.6-1.4,11.4c-0.4,3.8-0.7,7.6-0.9,11.4l-0.1,2.9c-0.1,0.9-0.1,1.9-0.1,2.9
		c-0.1,1.9-0.1,3.8-0.1,5.7C361,281.4,361.1,289,361.8,296.7z"/>
	<path class="st3" d="M357.1,286.8c0.8,9.2-3.6,10.1-3.6,10.1c-1.5,2.5-3.4,2.8-3.4,2.8h-82.2l-1.7-40.4l-1.9-11l-11.1,19
		c-6.8,11.2-18,10.3-18,10.3c-2.7,0.9-6.2,3-6.2,3c-16.3-3.5-11.8-15.3-11.8-15.3c5.5-2.5,20.1-21.8,20.1-21.8l7.5-18.6
		c-2.3-6.1,2.8-7.9,2.8-7.9c6.4-14.4,8.9-27.5,12.6-26.7c2.5-4.6,12.1-4,16.7-6.3c-0.2-3.5,1.9-5,4.7-4.3c0.1,0,0.1,0,0.1,0
		c3.7,0.9,8.4,3.5,12.7,3.2c8.2-0.4,17.1-5.9,19.1-6.7c0.1-0.1,0.2-0.1,0.2-0.1c2.7-1.1,3.3,2.9,3.3,2.9c5,5.3,28.9,8,30.3,10.7
		c7.9,0.6,14.4,29.7,14.6,40.4C362.1,259.3,357.1,286.8,357.1,286.8z"/>
	<g class="st7">
		<path class="st9" d="M296.5,207.1c0,0,0.4,4.3-0.7,6.9l4.6-1.6c0,0-0.6-6-2.5-7.1L296.5,207.1z"/>
	</g>
	<g class="st7">
		<path class="st9" d="M278.4,210.6c0,0,1.3-4,8.4-2.8l-2.5-4.7C284.4,203.1,278.1,203.6,278.4,210.6z"/>
	</g>
	<g class="st7">
		<path class="st9" d="M275.3,299.7c-7.6-3.3-6.3-11.4-7.8-19.3l2.7-0.8C277.2,283.9,275.3,299.7,275.3,299.7z"/>
	</g>
	<path class="st6" d="M284.2,203.2c1.5,3.5,4.7,11.2,13.6,2.6c0,0-0.8-3.3-8.1,0C289.8,205.8,286.5,202,284.2,203.2z"/>
	<path class="st3" d="M323,149.3c0.3-6.4-3.3-11.7-8.1-11.9c-4.8-0.2-8.9,4.8-9.2,11.1c-0.3,6.4,3.3,11.7,8.1,11.9
		C318.6,160.7,322.7,155.7,323,149.3z"/>
	<path class="st3" d="M323,149.3c0.3-6.4-3.3-11.7-8.1-11.9c-4.8-0.2-8.9,4.8-9.2,11.1c-0.3,6.4,3.3,11.7,8.1,11.9
		C318.6,160.7,322.7,155.7,323,149.3z"/>
	<path class="st2" d="M300,213.7c0,0,1.3-13-10.2-7.9c0,0-9.5-6-11.3,4.8c0,0-0.6-15.6-1.8-26.6c-0.2-3.5,1.9-5,4.7-4.3
		c0.1,0,0.1,0,0.1,0c3.7,0.9,8.4,3.5,12.7,3.2c8.2-0.4,17.1-5.9,19.1-6.7c0.1-0.1,0.2-0.1,0.2-0.1c2.7-1.1,3.3,2.5,3.3,2.9
		c0,0,0,0,0,0.1S320.5,202.7,300,213.7z"/>
	<path class="st10" d="M265.3,138.7c0,0-1.5,6.6-0.2,10c1.3,3.3,3,2.2,3,2.2s-3.9-6.3-2.3-12.3L265.3,138.7z"/>
	<path class="st10" d="M311.8,155.4l13-11.8c0,0,1.7,7.4-2.7,12.7c-2.7,3.3-1.1,6.6-1.1,6.6s-3.9-0.4-2.8-4.2
		c-0.1,0.2-1.5,1.3-1.5,5.1c0,0-1.4-0.1-1.9-1.2c-0.3-0.8,0.1-1.5,0.1-1.5c-1,0.7-2.4,1.1-3.3,0.6l1.5-1.9c-0.4,0.4-1.5,1.6-3.6,2.1
		c-3,0.6-4.7-0.8-4.7-0.8L311.8,155.4z"/>
	<path class="st11" d="M310.9,178.9l0.9-19.2l-29.2-1.3l-1.1,22.9c-0.1,0.8-0.8,1.3-1.6,1.1c-0.1,0-0.1-0.1-0.2-0.1
		c-0.2,4.4,1.4,9.7,2.7,12.7c2.5,5.6,7.3,10.8,7.3,10.8l14.9-11.7c4.7-3.2,7.7-8.3,7.9-14h-0.1C311.7,180.5,310.9,179.8,310.9,178.9
		z"/>
	<path class="st11" d="M291.7,179.4c10.8,0.5,19.9-7.9,20.3-18.6l1.1-23.8c0.5-10.8-7.8-19.9-18.5-20.4
		c-10.8-0.5-19.9,7.9-20.3,18.6l-1.1,23.8C272.6,169.7,280.9,178.9,291.7,179.4z"/>
	<path class="st12" d="M281.7,176.1l-0.2,3.9c2,0.1,6.7,0,10.3-3C288.3,177.6,284.9,177.2,281.7,176.1z"/>
	<path class="st10" d="M280.4,143.3c-0.1,1,0.7,1.8,1.7,1.8s1.8-0.7,1.8-1.7c0.1-1-0.7-1.8-1.7-1.8
		C281.3,141.6,280.4,142.3,280.4,143.3z"/>
	<path class="st10" d="M277.9,141.4c0.5-0.5,1.1-0.8,1.7-1.1s1.3-0.4,2-0.3c0.2,0,0.4,0.1,0.5,0.1l0.2,0.1c0.1,0,0.2,0.1,0.2,0.1
		c0.2,0.1,0.4,0.1,0.5,0.2c0.2,0.1,0.3,0.1,0.5,0.2l0.2,0.1l0.2,0.1l0.4,0.3c0.2,0.2,0.5,0.4,0.8,0.6c-0.3-0.1-0.6-0.3-0.9-0.5
		l-0.5-0.2l-0.2-0.1l-0.2-0.1c-0.2-0.1-0.3-0.1-0.5-0.2l-0.5-0.1c-0.1,0-0.2-0.1-0.2-0.1l-0.2-0.1c-0.2,0-0.3-0.1-0.5-0.1
		c-0.6-0.1-1.2,0-1.9,0.2C279.1,140.9,278.5,141.2,277.9,141.4z"/>
	<path class="st10" d="M298.8,144.1c-0.1,1,0.7,1.8,1.7,1.8c1,0.1,1.8-0.7,1.8-1.7c0.1-1-0.7-1.8-1.7-1.8
		C299.6,142.4,298.8,143.1,298.8,144.1z"/>
	<path class="st10" d="M296.3,142.3c0.5-0.5,1.1-0.8,1.7-1.1c0.6-0.2,1.3-0.4,2-0.3c0.2,0,0.4,0.1,0.5,0.1l0.2,0.1
		c0.1,0,0.2,0.1,0.2,0.1c0.2,0.1,0.4,0.1,0.5,0.2c0.2,0.1,0.3,0.1,0.5,0.2l0.2,0.1l0.2,0.1l0.4,0.3c0.2,0.2,0.5,0.4,0.8,0.6
		c-0.3-0.1-0.6-0.3-0.9-0.5l-0.5-0.2L302,142l-0.2-0.1c-0.2-0.1-0.3-0.1-0.5-0.2l-0.5-0.1c-0.1,0-0.2-0.1-0.2-0.1l-0.2-0.1
		c-0.2,0-0.3-0.1-0.5-0.1c-0.6-0.1-1.2,0-1.9,0.2C297.5,141.7,296.9,142,296.3,142.3z"/>
	<path class="st10" d="M289.2,157.6c-0.4-0.2-0.7-0.4-1.1-0.5c-0.4-0.2-0.6-0.5-0.8-0.9c-0.4-0.7-0.4-1.6-0.2-2.3
		c0.2-0.8,0.4-1.5,0.5-2.3s0.4-1.5,0.7-2.2c-0.1,0.4-0.2,0.8-0.3,1.1s-0.2,0.8-0.2,1.1c-0.1,0.8-0.3,1.5-0.5,2.3
		c-0.1,0.4-0.1,0.8-0.1,1.1s0.1,0.8,0.3,1.1c0.2,0.4,0.4,0.6,0.7,0.9C288.5,157.2,288.8,157.4,289.2,157.6z"/>
	<path class="st13" d="M294.1,160.5c-0.1,0.4-0.3,0.8-0.5,1.1c-0.5,0.7-1.2,1.3-2.1,1.5c-0.9,0.2-1.9,0.1-2.6-0.3
		c-0.8-0.4-1.3-1-1.6-1.8c0.4,0,0.7,0,1,0c0.4,0,0.8,0,1.1,0c0.1,0,0.3,0,0.4,0c0.1,0,0.2,0,0.4-0.1c0.2-0.1,0.5-0.1,0.7-0.1
		c0.4-0.1,0.9-0.3,1.4-0.6c0.3-0.2,0.6-0.4,0.9-0.5c0.3-0.2,0.5-0.3,0.9-0.5C294.3,159.7,294.3,160.1,294.1,160.5z"/>
	<path class="st1" d="M293.4,159.7c-0.1,0.4-0.2,0.7-0.4,1c-0.4,0.6-0.9,1.1-1.7,1.3c-0.8,0.2-1.6,0.1-2.2-0.3
		c-0.3-0.2-0.6-0.4-0.8-0.7c0.4,0,0.8,0,1.1,0c0.1,0,0.3,0,0.4,0c0.1,0,0.2,0,0.4-0.1c0.2-0.1,0.5-0.1,0.7-0.1
		c0.4-0.1,0.9-0.3,1.4-0.6C292.7,160.1,293,160,293.4,159.7z"/>
	<path class="st10" d="M278.1,136.6c0.1-0.4,0.3-0.8,0.6-1.1c0.1-0.1,0.3-0.3,0.4-0.4c0.1-0.1,0.2-0.1,0.2-0.2s0.2-0.1,0.2-0.2
		c0.6-0.4,1.5-0.6,2.3-0.5c0.2,0,0.4,0.1,0.6,0.1l0.3,0.1c0.1,0,0.2,0.1,0.3,0.1c0.2,0.1,0.4,0.1,0.5,0.2c0.2,0.1,0.4,0.2,0.5,0.3
		c0.1,0.1,0.2,0.1,0.2,0.2s0.1,0.1,0.2,0.2c0.1,0.1,0.2,0.3,0.4,0.4c0.1,0.2,0.2,0.4,0.3,0.5c0.1,0.2,0.2,0.4,0.2,0.5
		c-0.4,0-0.8-0.1-1.1-0.1c-0.2,0-0.4,0-0.5-0.1c-0.1,0-0.2,0-0.2-0.1c-0.1,0-0.2,0-0.2,0c-0.2,0-0.3-0.1-0.4-0.1
		c-0.1,0-0.3,0-0.4-0.1c-0.1,0-0.1,0-0.2,0c-0.1,0-0.1,0-0.2,0h-0.2c-0.1,0-0.1,0-0.2,0c-0.5-0.1-1-0.1-1.6-0.1
		C279.6,136.5,278.9,136.5,278.1,136.6z"/>
	<path class="st10" d="M296.5,137.4c0.1-0.4,0.3-0.8,0.6-1.1c0.1-0.1,0.3-0.3,0.4-0.4c0.1-0.1,0.2-0.1,0.2-0.2s0.2-0.1,0.2-0.2
		c0.6-0.4,1.5-0.6,2.3-0.5c0.2,0,0.4,0.1,0.6,0.1l0.3,0.1c0.1,0,0.2,0.1,0.3,0.1c0.2,0.1,0.4,0.1,0.5,0.2c0.2,0.1,0.4,0.2,0.5,0.3
		c0.1,0.1,0.2,0.1,0.2,0.2c0.1,0.1,0.1,0.1,0.2,0.2c0.1,0.1,0.2,0.3,0.4,0.4c0.1,0.2,0.2,0.4,0.3,0.5c0.1,0.2,0.2,0.4,0.2,0.5
		c-0.4,0-0.8-0.1-1.1-0.1c-0.2,0-0.4,0-0.5-0.1c-0.1,0-0.2,0-0.2-0.1c-0.1,0-0.2,0-0.2,0c-0.2,0-0.3-0.1-0.4-0.1s-0.3,0-0.4-0.1
		c-0.1,0-0.1,0-0.2,0c-0.1,0-0.1,0-0.2,0h-0.2c-0.1,0-0.1,0-0.2,0c-0.5-0.1-1-0.1-1.6-0.1C297.9,137.4,297.3,137.4,296.5,137.4z"/>
	<path class="st10" d="M304.3,125.5c-1.1-2.8-4-4.3-6.8-3.5c-2.1,0.6-4.7,2.2-7.5,6.1c-1,1.3-1.8,2.9-2.6,4.4
		c-1.3,2.8-5.2,9.4-12.9,11.5l-1.3,11.4l-0.2-0.2c-4.2-3.6-7-8.8-7.7-14.5c-0.1-0.4-0.1-0.9-0.2-1.3c0,0,0.1,1.5-1.1,2.5
		c-1.2,0.9-2.8,0.4-2.8,0.4s3.3-3.9,2.2-11.1c-1-6.5,1.9-10.5,7.9-13.5c0,0-4.3,0.4-4.9-3.6c0,0,9.1,4.6,15.9-2.8
		c8.3-9,18.3-7,20.2,1.5c0,0,2.3-4.7,5.8-1.7c3.5,3,6.9,7.7,12.7,10.5c5.8,2.8,0.7,18.5,9.5,22.4c0,0-4.9,1.9-6.3-3.5
		c0,0,4.4,12-12.3,19.2l1.7-11.3c0,0-6.7-1.6-7.5-9.8C305.5,132.4,305.5,128.7,304.3,125.5z"/>
	<path class="st10" d="M302.4,112.9c0.1-0.4,0.2-0.8,0.4-1.2c0.2-0.4,0.4-0.8,0.7-1.1c0.2-0.4,0.6-0.7,0.9-1
		c0.4-0.3,0.8-0.5,1.3-0.6c0.5-0.1,0.9-0.2,1.5-0.1c0.5,0.1,0.9,0.2,1.3,0.4c0.8,0.4,1.5,1,2.1,1.6s1.1,1.3,1.6,2.1
		c0.5,0.7,0.9,1.4,1.4,2.1c0.5,0.7,0.9,1.4,1.5,2c0.3,0.3,0.6,0.5,0.9,0.8c0.2,0.1,0.4,0.2,0.5,0.4s0.4,0.2,0.5,0.3
		c1.4,0.8,3,1.3,4.6,1.8c0.4,0.1,0.8,0.3,1.2,0.5s0.8,0.5,1.2,0.8c0.4,0.3,0.7,0.7,0.9,1.1s0.4,0.9,0.5,1.3c0.2,0.9,0.2,1.8,0.1,2.7
		c-0.1,0.9-0.2,1.7-0.4,2.5c-0.3,1.6-0.5,3.3-0.3,5h-0.1c-0.3-0.8-0.4-1.6-0.5-2.5c-0.1-0.9,0-1.7,0.1-2.6c0.1-0.8,0.2-1.7,0.2-2.5
		c0.1-0.8,0-1.6-0.2-2.3c-0.1-0.4-0.2-0.7-0.4-1s-0.4-0.5-0.7-0.8c-0.3-0.2-0.6-0.4-0.9-0.6c-0.4-0.2-0.7-0.3-1.1-0.4
		c-0.4-0.1-0.8-0.3-1.2-0.5l-0.6-0.2l-0.6-0.2c-0.8-0.4-1.6-0.8-2.3-1.2c-0.8-0.5-1.4-1.1-1.9-1.8c-0.5-0.7-0.9-1.5-1.3-2.2
		c-0.9-1.4-2-2.8-3.2-3.8c-0.6-0.5-1.3-0.9-2-1.3c-0.4-0.2-0.7-0.3-1.1-0.4c-0.4-0.1-0.7-0.1-1.1,0c-0.7,0.1-1.3,0.5-1.9,1.1
		s-1.1,1.2-1.5,1.9H302.4z"/>
	<path class="st10" d="M302.7,123.2c-0.9-0.5-1.9-0.6-2.8-0.5c-0.9,0.1-1.9,0.4-2.8,0.7c-0.9,0.4-1.8,0.8-2.6,1.3
		c-0.8,0.6-1.6,1.3-2.2,2l-0.5,0.6l-0.5,0.6c-0.4,0.4-0.6,0.8-0.9,1.2c-0.3,0.4-0.6,0.8-0.9,1.2l-0.5,0.6l-0.4,0.6
		c-1.2,1.6-2.3,3.3-3.5,5l-0.1-0.1c0.8-1.9,1.8-3.7,2.9-5.4c0.6-0.8,1.2-1.6,1.9-2.4c0.6-0.8,1.4-1.5,2.2-2.2
		c0.8-0.6,1.6-1.3,2.4-1.9c0.8-0.6,1.6-1.2,2.6-1.7c0.5-0.2,0.9-0.4,1.5-0.5c0.2-0.1,0.5-0.1,0.8-0.2c0.2,0,0.5-0.1,0.8-0.1
		c0.5,0,1.1,0.1,1.6,0.2C302,122.5,302.4,122.8,302.7,123.2z"/>
	<path class="st10" d="M314.1,148.5c-1.3,0.1-2.7-0.1-4-0.5c-0.6-0.2-1.3-0.5-1.9-0.8s-1.1-0.8-1.6-1.3c-0.9-1-1.6-2.2-2-3.5
		s-0.6-2.6-0.7-3.9c-0.1-1.3,0-2.7,0.2-4c0.2-1.3,0.4-2.6,0.4-3.9s0-2.6-0.3-3.9c-0.1-0.6-0.4-1.2-0.6-1.8c-0.3-0.6-0.6-1.2-1.1-1.6
		l0.1-0.1c0.3,0.2,0.5,0.4,0.8,0.7c0.2,0.2,0.4,0.5,0.6,0.8s0.4,0.6,0.5,0.9c0.1,0.3,0.2,0.6,0.4,0.9c0.4,1.3,0.5,2.7,0.5,4
		c-0.1,1.3-0.2,2.7-0.5,4c-0.2,1.3-0.5,2.6-0.5,3.9c-0.1,1.3,0.1,2.6,0.5,3.9c0.2,0.6,0.5,1.2,0.9,1.8c0.4,0.5,0.8,1,1.3,1.5
		c0.5,0.4,1,0.8,1.5,1.2c0.5,0.4,1.1,0.6,1.7,0.9C311.4,148.1,312.7,148.4,314.1,148.5L314.1,148.5z"/>
	<path class="st10" d="M263.6,132.2c-0.2-0.4-0.3-0.8-0.5-1.1c-0.1-0.4-0.2-0.8-0.3-1.2s-0.1-0.8-0.2-1.2c-0.1-0.4,0-0.8,0-1.2
		c0.1-0.8,0.4-1.6,0.5-2.3s0.4-1.5,0.5-2.3c0.1-0.2,0.1-0.4,0.2-0.6s0.1-0.4,0.2-0.6s0.2-0.4,0.3-0.5c0.1-0.2,0.2-0.4,0.4-0.5
		c0.5-0.7,1.1-1.3,1.8-1.8c0.7-0.5,1.5-0.8,2.3-1c0.8-0.2,1.6-0.3,2.4-0.1v0.1c-0.8,0.2-1.5,0.5-2.1,0.9c-0.6,0.4-1.3,0.7-1.9,1.2
		c-0.6,0.4-1.1,0.9-1.6,1.4l-0.4,0.4c-0.1,0.1-0.2,0.3-0.4,0.5c-0.2,0.3-0.5,0.6-0.6,0.9c-0.2,0.4-0.4,0.7-0.5,1.1
		c-0.1,0.4-0.2,0.8-0.2,1.1c-0.1,0.8,0.1,1.5,0.1,2.3c0.1,0.4,0.1,0.8,0.1,1.1s0,0.8,0,1.2s0,0.8,0,1.2S263.6,131.8,263.6,132.2
		L263.6,132.2z"/>
	<path class="st11" d="M313.6,160.1h-0.2c-2.2-0.1-3.9-2-3.9-4.2l0.3-5.7c0.1-2.2,2-3.9,4.2-3.9h0.2c2.2,0.1,3.9,2,3.9,4.2l-0.3,5.7
		C317.6,158.4,315.8,160.2,313.6,160.1z"/>
	<path class="st12" d="M313.8,150.2c0.4,0,0.9,0.2,1.2,0.5c0.2,0.2,0.3,0.4,0.4,0.5c0.1,0.2,0.2,0.4,0.3,0.6
		c0.3,0.9,0.2,1.8-0.2,2.7c-0.2,0.4-0.5,0.8-0.9,1.1c-0.2,0.2-0.4,0.3-0.6,0.4c-0.1,0.1-0.3,0.1-0.5,0s-0.4-0.2-0.4-0.3
		c-0.2-0.2-0.2-0.5-0.2-0.7c0-0.2,0-0.5,0.1-0.6c0.1-0.4,0.2-0.9,0.3-1.2c0,0.4,0,0.9,0,1.3c0,0.2,0.1,0.4,0.1,0.6
		c0.1,0.2,0.1,0.4,0.2,0.5c0.1,0.1,0.1,0.1,0.1,0.1c0,0,0.1,0,0.2-0.1c0.1-0.1,0.3-0.2,0.4-0.3c0.3-0.2,0.5-0.6,0.6-0.9
		c0.3-0.7,0.4-1.5,0.2-2.3c-0.1-0.4-0.2-0.8-0.4-1.1C314.6,150.6,314.3,150.3,313.8,150.2z"/>
	<path class="st12" d="M312.9,151.8c-0.2-0.2-0.3-0.5-0.4-0.8c-0.1-0.3-0.1-0.5,0-0.8c0.1-0.1,0.1-0.3,0.2-0.4
		c0.1-0.1,0.2-0.2,0.4-0.3c0.4-0.1,0.6,0,0.9,0.2c-0.3,0.1-0.5,0.2-0.6,0.3c-0.1,0.1-0.2,0.3-0.2,0.5c-0.1,0.2-0.1,0.4-0.2,0.6
		C313,151.3,313,151.6,312.9,151.8z"/>
	<path class="st10" d="M324.4,140.4c0.5,0.6,0.9,1.2,1.2,1.9c0.1,0.4,0.2,0.7,0.4,1.1c0.1,0.4,0.2,0.7,0.2,1.1c0.1,0.8,0,1.5,0,2.2
		s0.1,1.4,0.1,2.2l0.1,0.5c0,0.2,0,0.4,0,0.5s-0.1,0.4-0.1,0.5s-0.1,0.4-0.1,0.5c-0.1,0.4-0.2,0.7-0.3,1.1c-0.1,0.4-0.2,0.7-0.4,1.1
		s-0.4,0.6-0.6,0.9c-0.2,0.3-0.5,0.6-0.7,0.9c-0.1,0.1-0.3,0.2-0.4,0.4c-0.1,0.1-0.3,0.2-0.4,0.4c-0.1,0.1-0.3,0.2-0.5,0.3
		c-0.2,0.1-0.3,0.2-0.5,0.3l-0.1-0.1c0.8-1.2,1.5-2.3,2-3.6c0.2-0.3,0.2-0.6,0.4-0.9c0.1-0.3,0.2-0.6,0.4-0.9
		c0.1-0.2,0.1-0.3,0.2-0.5c0.1-0.2,0.1-0.4,0.1-0.5c0.1-0.2,0.1-0.4,0.1-0.5l0.1-0.5c0.2-0.7,0.2-1.4,0.1-2.1
		c-0.1-0.7-0.4-1.3-0.6-2.1c-0.1-0.4-0.2-0.6-0.2-1s-0.2-0.7-0.2-1C324.6,141.7,324.4,141.1,324.4,140.4L324.4,140.4z"/>
	<path class="st10" d="M292.7,105.7c-0.9,0.2-1.7,0.5-2.5,0.7c-0.4,0.1-0.8,0.3-1.2,0.4c-0.1,0.1-0.2,0.1-0.3,0.1
		c-0.1,0.1-0.2,0.1-0.3,0.1c-0.2,0.1-0.4,0.1-0.6,0.2c-0.4,0.1-0.8,0.2-1.2,0.4c-0.2,0.1-0.4,0.2-0.6,0.2c-0.2,0.1-0.4,0.2-0.6,0.3
		c-0.1,0.1-0.2,0.1-0.3,0.2s-0.2,0.1-0.2,0.2c-0.2,0.1-0.4,0.3-0.5,0.4c-0.2,0.1-0.3,0.3-0.5,0.5c-0.2,0.2-0.3,0.3-0.4,0.5
		c-0.3,0.4-0.5,0.7-0.8,1c-0.3,0.4-0.6,0.7-0.9,1c-0.4,0.3-0.6,0.6-1,0.9s-0.7,0.6-1.2,0.8c-0.8,0.5-1.8,0.8-2.7,0.8
		c-0.9,0-1.9-0.4-2.6-1.1l0.1-0.1c0.8,0.4,1.6,0.4,2.4,0.2c0.4-0.1,0.8-0.2,1.1-0.4l0.1-0.1l0.1-0.1l0.3-0.1
		c0.1-0.1,0.2-0.1,0.3-0.1l0.2-0.2c0.4-0.2,0.7-0.5,1-0.6c0.2-0.1,0.4-0.2,0.5-0.4c0.2-0.1,0.4-0.2,0.5-0.4c0.3-0.3,0.6-0.6,0.9-0.9
		c0.2-0.2,0.4-0.3,0.5-0.4c0.2-0.1,0.4-0.3,0.5-0.4c0.4-0.2,0.7-0.5,1.1-0.8c0.2-0.1,0.4-0.2,0.5-0.4l0.3-0.2
		c0.1-0.1,0.2-0.1,0.3-0.2c0.2-0.1,0.4-0.2,0.5-0.4c0.2-0.1,0.4-0.2,0.5-0.4c0.4-0.3,0.8-0.5,1.1-0.8c0.2-0.1,0.4-0.2,0.6-0.3
		c0.1-0.1,0.2-0.1,0.3-0.1l0.4-0.1c0.4-0.1,0.9-0.2,1.3-0.3c0.5-0.1,0.9-0.1,1.3-0.1s0.9,0.1,1.3,0.2L292.7,105.7z"/>
	<path class="st2" d="M269,117.4c0.6,0.2,1.2,0.3,1.9,0.4s1.3,0.1,1.9,0.1c1.3,0,2.5-0.2,3.7-0.6c0.6-0.2,1.2-0.4,1.8-0.7
		c0.3-0.1,0.6-0.3,0.8-0.5l0.4-0.2c0.1-0.1,0.3-0.2,0.4-0.2c1.1-0.7,2-1.6,2.9-2.5c-0.8,1.1-1.6,2-2.7,2.8c-0.2,0.2-0.5,0.4-0.8,0.6
		c-0.3,0.2-0.5,0.4-0.8,0.5c-0.6,0.3-1.2,0.6-1.8,0.8c-1.2,0.4-2.6,0.6-3.9,0.5C271.4,118.2,270.2,117.9,269,117.4z"/>
	<path class="st2" d="M263.9,142c0.3-0.3,0.5-0.6,0.7-1c0.2-0.4,0.4-0.8,0.4-1.1c0.1-0.4,0.2-0.8,0.2-1.2l0.1-0.6v-0.6
		c0-0.2,0-0.4,0-0.6v-0.6c-0.1-0.4-0.1-0.8-0.1-1.2c-0.1-0.4-0.1-0.8-0.2-1.2s-0.1-0.8-0.2-1.2c0.2,0.4,0.3,0.8,0.4,1.2
		c0.1,0.4,0.2,0.8,0.3,1.2c0.1,0.4,0.1,0.8,0.2,1.2l0.1,0.6c0,0.2,0,0.4,0,0.6c0,0.9-0.1,1.7-0.4,2.5c-0.1,0.4-0.4,0.8-0.6,1.2
		C264.6,141.4,264.3,141.7,263.9,142z"/>
	<path class="st2" d="M280.1,141.3c-0.7,0.7-1.5,1.2-2.3,1.8c-0.4,0.2-0.8,0.5-1.3,0.7c-0.5,0.2-0.9,0.4-1.3,0.5
		c-0.9,0.3-1.9,0.5-2.9,0.5s-1.9-0.1-2.9-0.5c0.9,0.2,1.9,0.2,2.8,0.1c0.5-0.1,0.9-0.1,1.4-0.2c0.5-0.1,0.9-0.2,1.3-0.4
		c0.9-0.3,1.8-0.6,2.6-1.1C278.5,142.4,279.3,141.9,280.1,141.3z"/>
	<path class="st2" d="M293.1,118.8c-1.8,0.8-3.1,2.1-4.2,3.6c-0.5,0.8-1,1.6-1.5,2.4c-0.4,0.8-0.8,1.7-1.2,2.5
		c-0.8,1.7-1.5,3.5-2.3,5.2c-0.4,0.9-0.9,1.7-1.4,2.5s-1.2,1.5-1.9,2.1c0.7-0.6,1.2-1.4,1.7-2.2c0.5-0.8,0.9-1.6,1.3-2.5
		c0.8-1.7,1.5-3.5,2.2-5.2c0.8-1.8,1.6-3.5,2.8-5c0.6-0.8,1.2-1.5,2-2.1C291.3,119.6,292.2,119.1,293.1,118.8z"/>
	<path class="st2" d="M293.1,118.8c0.4-0.2,0.8-0.4,1.3-0.6c0.5-0.1,0.9-0.3,1.3-0.4c0.2-0.1,0.5-0.1,0.7-0.1c0.1,0,0.2-0.1,0.4-0.1
		h0.4c0.2,0,0.5,0,0.7,0l0.7,0.1c0.1,0,0.2,0.1,0.4,0.1l0.4,0.1c0.2,0.1,0.5,0.1,0.7,0.2c0.1,0.1,0.2,0.1,0.4,0.1l0.3,0.2l0.3,0.2
		l0.3,0.2c0.8,0.5,1.4,1.3,1.8,2.1c-0.5-0.8-1.2-1.3-2-1.8c-0.8-0.5-1.6-0.8-2.5-0.9l-0.6-0.1c-0.2,0-0.5,0-0.6,0h-0.4
		c-0.1,0-0.2,0-0.4,0c-0.2,0-0.5,0.1-0.6,0.1c-0.2,0-0.5,0.1-0.6,0.1l-0.6,0.1C294,118.6,293.5,118.7,293.1,118.8z"/>
	<path class="st2" d="M325.1,147.5c0-0.9-0.1-1.8-0.2-2.8c-0.1-0.9-0.4-1.8-0.8-2.6c-0.2-0.4-0.4-0.8-0.5-1.3
		c-0.2-0.4-0.3-0.9-0.4-1.3c-0.2-0.9-0.4-1.8-0.4-2.8c0.2,0.9,0.5,1.8,0.8,2.6s0.7,1.7,1.1,2.5c0.2,0.4,0.4,0.9,0.5,1.3l0.1,0.4
		c0,0.1,0.1,0.2,0.1,0.4s0.1,0.2,0.1,0.4l0.1,0.4C325.4,145.7,325.2,146.6,325.1,147.5z"/>
	<path class="st2" d="M317.3,146.5c-1.3-0.5-2.5-1.3-3.6-2.3c-1.1-0.9-2-2.1-2.7-3.3s-1.3-2.6-1.8-4s-0.6-2.8-0.6-4.3
		c0.2,1.4,0.5,2.8,0.9,4.2c0.2,0.6,0.5,1.3,0.8,1.9c0.1,0.3,0.3,0.6,0.5,0.9s0.4,0.6,0.5,0.9c0.7,1.2,1.6,2.3,2.6,3.3
		c0.5,0.5,1.1,0.9,1.6,1.4C316.1,145.7,316.7,146.1,317.3,146.5z"/>
	<path class="st2" d="M303.1,115.3c-0.1-0.7-0.1-1.4,0.1-2.1c0.1-0.4,0.2-0.7,0.5-1c0.2-0.3,0.6-0.5,1.1-0.5
		c0.4-0.1,0.8,0.1,1.1,0.2c0.4,0.2,0.6,0.3,0.9,0.5c0.6,0.4,1.1,0.9,1.6,1.4c-0.6-0.4-1.2-0.8-1.8-1.1c-0.6-0.3-1.2-0.6-1.8-0.5
		c-0.3,0-0.6,0.2-0.8,0.4c-0.2,0.2-0.4,0.5-0.5,0.8C303.4,113.8,303.3,114.6,303.1,115.3z"/>
	<path class="st2" d="M302.3,117c-0.3-0.7-0.7-1.3-1.2-1.9c-0.5-0.6-1.1-1.1-1.6-1.5c-1.2-0.8-2.6-1.4-4-1.7
		c-1.5-0.3-2.9-0.3-4.4-0.1c-0.7,0.1-1.5,0.3-2.2,0.6c-0.7,0.2-1.4,0.6-2,0.9c1.2-0.9,2.6-1.5,4.1-1.9c1.5-0.4,3-0.4,4.6,0
		c0.8,0.2,1.5,0.4,2.2,0.7c0.7,0.3,1.4,0.7,2,1.2C300.9,114.2,301.9,115.5,302.3,117z"/>
	<path class="st2" d="M269.3,135.2c-0.6-0.4-1.1-0.9-1.3-1.6c-0.1-0.2-0.1-0.4-0.1-0.5l-0.1-0.5c0-0.4,0-0.7,0.1-1.1
		c0-0.2,0.1-0.4,0.1-0.5l0.1-0.5c0.1-0.2,0.1-0.4,0.2-0.5c0.1-0.2,0.1-0.4,0.2-0.5c0.2-0.3,0.4-0.6,0.5-0.9c0.2-0.3,0.4-0.6,0.6-0.8
		c-0.1,0.4-0.3,0.6-0.4,0.9s-0.2,0.6-0.4,0.9c-0.1,0.3-0.2,0.6-0.3,0.9c-0.1,0.4-0.2,0.6-0.2,1c-0.1,0.6-0.1,1.3,0.1,1.9
		C268.5,134.1,268.8,134.7,269.3,135.2z"/>
	<path class="st2" d="M271.7,135.6c-0.3,0.1-0.6,0.1-0.9,0.1c-0.3-0.1-0.6-0.2-0.9-0.4c-0.2-0.2-0.4-0.5-0.5-0.8
		c-0.1-0.2-0.1-0.3-0.1-0.5s-0.1-0.3-0.1-0.5h0.4c0,0.3-0.1,0.6-0.1,0.9s-0.1,0.6-0.1,0.9c-0.1-0.3-0.1-0.6-0.2-0.9
		s-0.1-0.6-0.1-0.9h0.4c0.1,0.1,0.1,0.3,0.1,0.4s0.1,0.3,0.1,0.4c0.1,0.2,0.2,0.5,0.4,0.7c0.2,0.2,0.4,0.4,0.6,0.5
		C271,135.6,271.3,135.6,271.7,135.6z"/>
	<path class="st2" d="M276.9,122.6c-0.9,0.8-1.8,1.7-2.6,2.7c-0.8,0.9-1.5,2-2,3.1c-0.3,0.5-0.5,1.1-0.6,1.7
		c-0.1,0.3-0.2,0.6-0.2,0.9s-0.1,0.6-0.1,0.9c-0.1,0.3-0.1,0.6-0.1,0.9c0,0.3,0,0.6,0.1,0.9c0.1,0.6,0.2,1.2,0.3,1.8
		c-0.2-0.6-0.4-1.2-0.5-1.8c-0.1-0.3-0.1-0.6-0.1-0.9c0-0.3,0-0.6,0-0.9c0-0.6,0.1-1.3,0.3-1.9c0.2-0.6,0.4-1.2,0.6-1.8
		c0.3-0.6,0.6-1.1,0.9-1.6c0.4-0.5,0.8-1.1,1.2-1.5C274.9,124.2,275.8,123.3,276.9,122.6z"/>
	<path class="st2" d="M287.2,124.4c-0.8,1.6-1.7,3.2-2.7,4.7c-1.1,1.5-2.2,3-3.5,4.3c-0.6,0.6-1.3,1.3-2,1.9
		c-0.7,0.6-1.5,1.1-2.3,1.6s-1.7,0.8-2.6,1.1s-1.8,0.3-2.7,0.2c0.9,0,1.8-0.1,2.7-0.4c0.9-0.3,1.7-0.6,2.5-1.1
		c1.5-0.9,2.9-2.2,4.2-3.5c0.6-0.6,1.2-1.3,1.8-2.1s1.1-1.4,1.7-2.2c0.5-0.8,1.1-1.5,1.6-2.2C286.2,125.9,286.7,125.2,287.2,124.4z"
		/>
	<path class="st2" d="M320.2,155.8c-0.2,0.5-0.5,0.9-0.8,1.3c-0.3,0.4-0.5,0.8-0.7,1.3c-0.2,0.4-0.4,0.9-0.4,1.3
		c-0.1,0.5-0.1,0.9,0,1.5c-0.2-0.5-0.4-1-0.4-1.5s0.2-1.1,0.4-1.5c0.2-0.5,0.5-0.9,0.9-1.3C319.4,156.4,319.8,156.1,320.2,155.8z"/>
	<path class="st2" d="M321.3,131.3c-0.3,2.1-0.4,4.2-0.4,6.2s0.1,4.2,0.4,6.2c0.1,0.5,0.1,1.1,0.2,1.5c0.1,0.5,0.2,1,0.3,1.5
		c0.1,0.5,0.2,1.1,0.2,1.6c0.1,0.5,0.1,1.1,0.2,1.6c0.1,1.1,0,2.1-0.4,3.2c-0.3,1.1-1,1.9-1.7,2.6c0.3-0.4,0.6-0.9,0.8-1.3
		c0.2-0.5,0.4-0.9,0.5-1.4c0.2-1,0.2-2.1,0.2-3c-0.1-1.1-0.2-2.1-0.4-3l-0.3-1.5c-0.1-0.5-0.1-1.1-0.2-1.6c-0.2-2.1-0.3-4.2-0.2-6.3
		c0-0.5,0.1-1.1,0.1-1.6c0.1-0.5,0.1-1.1,0.2-1.6C321,133.4,321.1,132.4,321.3,131.3z"/>
	<path class="st2" d="M327.7,144.4c-0.5,0.1-0.9-0.1-1.4-0.3c-0.5-0.2-0.9-0.5-1.2-0.8c-0.4-0.4-0.6-0.8-0.9-1.2
		c-0.1-0.2-0.2-0.5-0.3-0.6c-0.1-0.2-0.1-0.5-0.2-0.7c0.1,0.2,0.2,0.4,0.4,0.6l0.2,0.3c0.1,0.1,0.1,0.2,0.2,0.3
		c0.3,0.4,0.6,0.7,0.9,1.1C326.1,143.6,326.8,144,327.7,144.4z"/>
	<path class="st2" d="M310.4,124.2c0.9,0.8,1.6,1.6,2.4,2.5c0.7,0.9,1.4,1.9,1.9,2.9s0.9,2.2,1.1,3.3s0.2,2.3,0,3.5
		c0-1.2-0.1-2.3-0.4-3.4c-0.2-1.1-0.6-2.2-1.2-3.2c-0.5-1-1.1-2-1.8-2.9C311.9,126,311.1,125.1,310.4,124.2z"/>
	<path class="st2" d="M303.2,118.2c0.1-0.6,0.2-1.3,0.4-1.9c0.1-0.3,0.2-0.6,0.4-0.9c0.2-0.3,0.4-0.6,0.7-0.7
		c0.2-0.1,0.4-0.1,0.5-0.1c0.2,0.1,0.4,0.1,0.5,0.2c0.3,0.2,0.5,0.4,0.8,0.7c0.5,0.5,0.7,1.2,0.9,1.8c0.2,0.6,0.3,1.3,0.5,1.9
		c0.1,0.3,0.2,0.6,0.2,0.9c0.1,0.3,0.2,0.6,0.4,0.9c0.5,1.2,1.2,2.2,1.9,3.3c-0.9-0.9-1.8-1.9-2.3-3.1c-0.3-0.6-0.5-1.2-0.6-1.8
		c-0.2-0.6-0.3-1.3-0.5-1.9s-0.4-1.2-0.8-1.7c-0.2-0.2-0.4-0.5-0.6-0.6c-0.2-0.2-0.5-0.3-0.8-0.2c-0.2,0.1-0.5,0.4-0.6,0.6
		s-0.3,0.5-0.4,0.8C303.6,117,303.4,117.5,303.2,118.2z"/>
	<path class="st2" d="M313.6,115.7c0.2,0.4,0.4,0.8,0.6,1.1c0.1,0.2,0.3,0.4,0.4,0.5c0.2,0.2,0.3,0.3,0.5,0.5c0.6,0.6,1.3,1.1,2,1.5
		c0.4,0.2,0.8,0.4,1.1,0.6c0.4,0.2,0.8,0.4,1.2,0.6l1.2,0.5c0.4,0.2,0.8,0.4,1.2,0.5c-0.4-0.1-0.9-0.2-1.3-0.3
		c-0.4-0.1-0.8-0.3-1.2-0.4c-0.4-0.2-0.8-0.4-1.2-0.5c-0.4-0.2-0.8-0.4-1.2-0.6c-0.2-0.1-0.4-0.2-0.5-0.4l-0.5-0.4
		c-0.4-0.3-0.7-0.6-1-0.9c-0.2-0.2-0.3-0.4-0.4-0.5c-0.1-0.2-0.2-0.4-0.4-0.6C313.9,116.6,313.7,116.2,313.6,115.7z"/>
	<g class="st7">
		<path class="st9" d="M325.9,271.1c0,0,3-1,5.1-2.7c0,0-4.6-1.2-2-8.1c0,0-6.7-20.7-2-38.8C326.9,221.5,320.5,249.4,325.9,271.1z"
			/>
	</g>
	<g class="st7">
		<path class="st9" d="M264.2,248.3c-0.2-0.6-4.9-18.3-4.3-36c0,0-3.3,8.5,1.3,26.7c1.3,5.3,0.9,10.8-1.3,15.8l-1.3,3L264.2,248.3z"
			/>
	</g>
	<g class="st7">
		<path class="st9" d="M332.2,268.4c0,0,9.2-1.5,17.7,3.9C350,272.3,338.1,262.1,332.2,268.4z"/>
	</g>
	<g class="st7">
		<path class="st9" d="M291.6,286.1c0,0,1.8,7-1.3,13.7h-5.7C287.4,299.2,293.2,294.6,291.6,286.1z"/>
	</g>
	<g class="st7">
		<path class="st9" d="M270.2,279.6c0,0-1.9,1.4-3.2,0l-0.9-20.3L270.2,279.6z"/>
	</g>
	<path class="st9" d="M250.9,249.9c-0.8-0.8-1.8-1.4-2.7-2c-0.5-0.3-0.9-0.6-1.4-0.9l-0.7-0.4l-0.8-0.4c-0.2-0.1-0.5-0.2-0.8-0.4
		c-0.2-0.1-0.5-0.2-0.8-0.4l-0.8-0.3l-0.8-0.3c-0.5-0.2-1.1-0.4-1.6-0.5c-0.3-0.1-0.5-0.1-0.8-0.2c-0.3-0.1-0.5-0.1-0.8-0.2
		c0.3,0.1,0.6,0.1,0.8,0.1c0.3,0.1,0.6,0.1,0.8,0.1c0.5,0.1,1.1,0.2,1.6,0.4c1.1,0.3,2.2,0.7,3.2,1.2c1,0.5,2,1.1,2.9,1.8
		C249.3,248.3,250.2,249,250.9,249.9z"/>
	<path class="st9" d="M226.5,262.1c0.9-0.1,1.7,0.1,2.5,0.4c0.8,0.3,1.6,0.7,2.3,1.3c0.4,0.3,0.6,0.6,0.9,0.9
		c0.1,0.2,0.3,0.3,0.4,0.5s0.2,0.4,0.4,0.5c0.1,0.2,0.2,0.4,0.4,0.5l0.4,0.5c0.2,0.4,0.4,0.8,0.5,1.2c-0.2-0.4-0.5-0.7-0.7-1.1
		l-0.4-0.5c-0.1-0.2-0.2-0.4-0.4-0.5c-0.1-0.2-0.3-0.3-0.4-0.5c-0.1-0.2-0.3-0.3-0.4-0.5c-0.3-0.3-0.6-0.6-0.9-0.8
		c-0.6-0.5-1.3-0.9-2.1-1.3C228.1,262.4,227.3,262.1,226.5,262.1z"/>
	<path class="st9" d="M217.9,265.2c1.4-0.4,2.8-0.5,4.2-0.6s2.9,0.1,4.3,0.4c0.7,0.2,1.4,0.4,2,0.6s1.3,0.6,1.9,1
		c0.6,0.4,1.2,0.9,1.6,1.3l0.4,0.4c0.1,0.1,0.2,0.3,0.4,0.4c0.2,0.3,0.4,0.6,0.6,0.9c-0.4-0.6-0.9-1.1-1.4-1.6
		c-0.5-0.5-1.1-0.9-1.7-1.2c-0.6-0.4-1.2-0.6-1.9-0.9s-1.3-0.4-2-0.6c-0.7-0.2-1.4-0.2-2-0.4c-0.7-0.1-1.4-0.1-2.1-0.1
		c-0.7,0-1.4,0-2.1,0.1C219.3,265,218.6,265.1,217.9,265.2z"/>
	<path class="st9" d="M289.2,278.5c0.9,1.6,1.6,3.3,2.2,5s0.9,3.6,1.1,5.4c0.1,0.9,0.1,1.8,0.1,2.8c-0.1,0.9-0.1,1.8-0.3,2.8
		c-0.3,1.8-1,3.6-1.9,5.2c0.4-0.8,0.7-1.7,0.9-2.6l0.1-0.4l0.1-0.4c0.1-0.2,0.1-0.5,0.2-0.6c0.1-0.5,0.2-0.9,0.2-1.3
		s0.1-0.9,0.2-1.3c0-0.5,0.1-0.9,0.1-1.3c0.1-0.9,0-1.8-0.1-2.7c-0.1-0.9-0.2-1.8-0.4-2.7s-0.4-1.8-0.6-2.6
		c-0.2-0.9-0.5-1.8-0.8-2.6C289.9,280.2,289.5,279.4,289.2,278.5z"/>
	<path class="st9" d="M332.2,268.4c2.5-0.4,4.9-0.4,7.4-0.1c1.2,0.1,2.5,0.4,3.6,0.7s2.4,0.8,3.5,1.3c0.3,0.1,0.6,0.3,0.8,0.4
		l0.8,0.5c0.5,0.4,1.1,0.7,1.5,1.1c1,0.8,1.9,1.6,2.6,2.6l0.3,0.4l0.3,0.4c0.2,0.2,0.4,0.5,0.5,0.8c0.3,0.5,0.6,1.1,0.9,1.6
		c0.5,1.1,0.9,2.3,1.2,3.5l-0.3-0.9c-0.1-0.3-0.2-0.6-0.4-0.9l-0.4-0.8c-0.1-0.1-0.1-0.3-0.2-0.4l-0.2-0.4c-0.3-0.5-0.6-1.1-0.9-1.6
		c-0.2-0.2-0.4-0.5-0.5-0.8l-0.3-0.4l-0.3-0.4c-0.8-0.9-1.7-1.8-2.6-2.5c-0.5-0.4-1-0.7-1.5-1.1l-0.8-0.5c-0.3-0.2-0.5-0.3-0.8-0.4
		c-2.2-1.1-4.6-1.7-7-2.1c-1.2-0.2-2.5-0.3-3.7-0.3C334.7,268.2,333.4,268.3,332.2,268.4z"/>
	<path class="st9" d="M344.6,279.1c-0.6-1-1.3-1.9-1.9-2.8c-0.7-0.9-1.4-1.8-2.2-2.6c-0.4-0.4-0.8-0.8-1.2-1.2
		c-0.4-0.4-0.9-0.7-1.3-1.1c-0.9-0.6-1.9-1.2-2.9-1.7c0.5,0.2,1.1,0.4,1.6,0.6c0.5,0.2,1.1,0.5,1.5,0.9c1,0.6,1.9,1.4,2.7,2.2
		c0.4,0.4,0.8,0.9,1.2,1.3c0.4,0.5,0.7,0.9,1.1,1.4C343.5,277.1,344.1,278.1,344.6,279.1z"/>
	<path class="st9" d="M329.9,258.5c0.8-1.8,1.7-3.4,2.9-5c1.1-1.5,2.4-3,3.8-4.3c0.7-0.6,1.5-1.2,2.2-1.8c0.4-0.3,0.8-0.5,1.2-0.8
		s0.8-0.5,1.3-0.7c1.7-0.9,3.6-1.5,5.4-1.8c-0.9,0.2-1.8,0.5-2.7,0.8c-0.1,0.1-0.2,0.1-0.4,0.1l-0.4,0.1c-0.2,0.1-0.4,0.2-0.6,0.3
		c-0.4,0.2-0.9,0.4-1.3,0.6c-0.4,0.2-0.8,0.5-1.2,0.7s-0.8,0.5-1.2,0.8c-0.4,0.3-0.8,0.6-1.1,0.9s-0.7,0.6-1.1,0.9
		c-1.4,1.2-2.7,2.7-3.8,4.2c-0.6,0.8-1.1,1.5-1.6,2.3C330.8,256.8,330.3,257.6,329.9,258.5z"/>
	<path class="st9" d="M331,268.4c-1.2,1.1-2.6,1.8-4,2.5c-1.5,0.6-3,1.1-4.5,1.3c-1.6,0.3-3.2,0.4-4.7,0.2c-1.6-0.1-3.1-0.4-4.6-0.9
		c1.5,0.4,3.1,0.5,4.6,0.6c0.8,0,1.6,0,2.3-0.1c0.4,0,0.8-0.1,1.2-0.1s0.8-0.1,1.2-0.2c1.5-0.2,3-0.7,4.5-1.2
		c0.7-0.3,1.5-0.6,2.1-0.9C329.6,269.2,330.3,268.8,331,268.4z"/>
	<path class="st9" d="M314,272.6c0.6,0.6,1.3,1.1,2,1.6c0.7,0.5,1.3,1,2.1,1.5c1.4,0.9,2.9,1.8,4.4,2.5c0.8,0.4,1.5,0.7,2.3,1
		c0.8,0.3,1.6,0.6,2.4,0.8c1.6,0.5,3.3,0.8,5,0.8c-0.4,0-0.9,0.1-1.3,0c-0.2,0-0.4,0-0.6,0l-0.6-0.1c-0.9-0.1-1.7-0.2-2.5-0.5
		c-1.6-0.4-3.3-1-4.8-1.8c-1.5-0.8-3-1.6-4.4-2.6C316.5,274.9,315.2,273.8,314,272.6z"/>
	<path class="st9" d="M312.2,271.3c-0.5-0.2-1.1-0.3-1.6-0.4c-0.5-0.1-1.1,0-1.6,0.2c-0.5,0.2-1,0.4-1.5,0.7
		c-0.1,0.1-0.2,0.2-0.4,0.2l-0.3,0.2l-0.6,0.6c-0.5,0.4-1,0.6-1.5,0.8c-0.6,0.2-1.2,0.2-1.7,0.1c-0.6-0.1-1.1-0.2-1.6-0.2
		c-0.6-0.1-1.1-0.1-1.7-0.2c-2.2-0.2-4.4-0.3-6.7-0.2c-1.1,0.1-2.2,0.2-3.3,0.6c-0.5,0.2-1,0.4-1.4,0.8l-0.1,0.1l-0.1,0.2
		c-0.1,0.1-0.1,0.2-0.2,0.4c-0.1,0.1-0.1,0.1-0.1,0.2l-0.1,0.2c0,0.1-0.1,0.3-0.1,0.4h-0.1c-0.1-0.6,0.2-1.2,0.5-1.6
		c0.4-0.5,0.9-0.8,1.4-1c1.1-0.5,2.2-0.6,3.3-0.7c1.1-0.1,2.3-0.1,3.4,0s2.2,0.2,3.3,0.4s2.2,0.4,3.3,0.5c1.1,0.1,2.2-0.3,3-1
		c0.8-0.8,1.8-1.5,2.9-1.8c0.6-0.1,1.2-0.2,1.7-0.1C311.2,270.9,311.7,271.1,312.2,271.3z"/>
	<path class="st9" d="M270.2,279.6c1.5-0.3,2.9-0.6,4.3-0.9l4.4-0.9l4.4-0.9l4.4-0.9c-1.4,0.5-2.9,0.8-4.3,1.2
		c-1.5,0.4-2.9,0.6-4.3,0.9c-1.5,0.3-2.9,0.5-4.4,0.8C273.1,279.2,271.7,279.4,270.2,279.6z"/>
	<path class="st9" d="M328.9,260.3c-1.1-3.1-1.8-6.3-2.4-9.6c-0.3-1.6-0.5-3.2-0.8-4.9c-0.2-1.6-0.4-3.3-0.5-4.9
		c-0.1-0.8-0.1-1.6-0.1-2.5s-0.1-1.6-0.1-2.5c0-1.6,0.1-3.3,0.2-4.9c0.1-1.6,0.4-3.3,0.6-4.9l0.2-1.2c0.1-0.4,0.2-0.8,0.2-1.2
		c0.2-0.8,0.4-1.6,0.6-2.4c-0.7,3.2-1.2,6.4-1.3,9.7l-0.1,0.6v0.6l-0.1,1.2c0,0.8-0.1,1.6,0,2.5c0,0.8,0.1,1.6,0.1,2.5
		c0.1,0.8,0.1,1.6,0.1,2.5c0.2,3.3,0.6,6.5,1.2,9.7c0.3,1.6,0.6,3.2,0.9,4.8C328.1,257.2,328.5,258.8,328.9,260.3z"/>
	<path class="st9" d="M331,268.4c-0.4-0.1-0.8-0.2-1.1-0.4c-0.4-0.2-0.6-0.5-0.9-0.8c-0.3-0.3-0.5-0.6-0.6-1.1
		c-0.2-0.4-0.2-0.8-0.3-1.2c-0.1-0.8-0.1-1.6,0.1-2.4s0.5-1.5,0.8-2.2c-0.2,0.8-0.4,1.5-0.5,2.3c0,0.2-0.1,0.4-0.1,0.6
		s-0.1,0.4-0.1,0.6c0,0.4,0,0.8,0.1,1.1c0.1,0.8,0.4,1.5,0.8,2.1c0.2,0.3,0.5,0.6,0.8,0.8C330.3,268,330.6,268.2,331,268.4z"/>
	<path class="st9" d="M339.7,196.2c-1.6,1.6-3,3.3-4.4,5.2c-0.6,0.9-1.3,1.9-1.9,2.8l-0.9,1.5c-0.3,0.5-0.5,1-0.8,1.5
		c-0.3,0.5-0.5,1-0.8,1.5l-0.4,0.8c-0.1,0.1-0.1,0.2-0.2,0.4l-0.2,0.4l-0.6,1.6c-0.1,0.2-0.2,0.5-0.3,0.8l-0.3,0.8
		c-0.4,1.1-0.7,2.2-1.1,3.2c-0.2,0.5-0.3,1.1-0.4,1.6s-0.2,1.1-0.4,1.6c0.1-0.6,0.2-1.1,0.3-1.7c0.1-0.6,0.2-1.1,0.4-1.7l0.4-1.6
		l0.1-0.4c0.1-0.1,0.1-0.3,0.1-0.4l0.3-0.8c0.6-2.2,1.6-4.3,2.6-6.3s2.3-4,3.7-5.8c0.7-0.9,1.4-1.8,2.2-2.6
		C338.1,197.8,338.8,197,339.7,196.2z"/>
	<path class="st9" d="M264.2,248.3c-0.4-1.5-0.8-2.9-1.2-4.4c-0.2-0.8-0.4-1.5-0.5-2.2l-0.5-2.2c-0.6-3-1.1-6-1.5-9
		c-0.4-3-0.6-6-0.8-9.1c-0.2-3-0.1-6.1,0.1-9.1c0,0.8,0,1.5,0,2.3v1.1l0.1,1.1l0.1,2.3l0.1,2.3c0.1,0.8,0.1,1.5,0.2,2.3
		c0.1,0.8,0.1,1.5,0.2,2.3l0.2,2.3c0.1,0.8,0.2,1.5,0.3,2.2c0.4,3,0.8,6,1.3,9l0.4,2.2l0.5,2.2C263.6,245.3,263.9,246.8,264.2,248.3
		z"/>
	<path class="st9" d="M266.4,251.4c0.8,1.4,1.6,2.8,2.5,4c0.9,1.3,1.8,2.6,2.9,3.8c1,1.2,2,2.4,3.2,3.5s2.3,2.2,3.5,3.2
		c2.5,2,5.1,3.7,8,4.9c2.9,1.2,6,1.9,9.2,2.1l-1.2-0.1c-0.2,0-0.4,0-0.6,0l-0.6-0.1c-0.4-0.1-0.8-0.1-1.2-0.1l-1.2-0.2
		c-0.4-0.1-0.8-0.2-1.2-0.3c-0.4-0.1-0.8-0.2-1.2-0.3l-1.1-0.4l-1.1-0.4c-0.4-0.1-0.8-0.3-1.1-0.5s-0.7-0.3-1.1-0.5l-1.1-0.6
		l-1.1-0.6c-1.3-0.8-2.7-1.8-3.9-2.8c-2.5-2.1-4.7-4.3-6.6-6.9c-1-1.2-1.9-2.6-2.7-3.9C267.9,254.2,267.1,252.8,266.4,251.4z"/>
	<path class="st9" d="M268,249.4c0.5,0.5,1,0.9,1.5,1.2l0.4,0.3c0.1,0.1,0.3,0.2,0.4,0.2c0.1,0.1,0.3,0.2,0.4,0.2l0.4,0.2
		c1.2,0.6,2.4,1,3.6,1.3l0.9,0.2l0.2,0.1h0.2l0.5,0.1l0.5,0.1c0.1,0,0.2,0,0.2,0.1h0.2l1,0.1c0.4,0.1,0.6,0,1,0h1
		c0.6-0.1,1.3-0.1,2-0.1c-0.4,0.1-0.6,0.1-1,0.2c-0.4,0.1-0.6,0.1-1,0.2l-1,0.1c-0.4,0-0.6,0.1-1,0.1c-0.6,0-1.3,0-2-0.1l-0.5-0.1
		h-0.2l-0.2-0.1l-1-0.2c-1.3-0.3-2.6-0.8-3.7-1.5C269.9,251.3,268.8,250.5,268,249.4z"/>
	<path class="st9" d="M258.7,243.8c-1.5-1.2-2.9-2.5-4.3-3.8s-2.6-2.8-3.7-4.3c-0.3-0.4-0.6-0.8-0.9-1.2l-0.8-1.2
		c-0.3-0.4-0.5-0.8-0.8-1.2l-0.4-0.6c-0.1-0.2-0.2-0.4-0.4-0.6l-0.7-1.2l-0.6-1.3l-0.3-0.6l-0.3-0.6c-0.2-0.5-0.4-0.9-0.5-1.3
		c0.2,0.4,0.4,0.9,0.6,1.3l0.3,0.6l0.4,0.6l0.7,1.2l0.7,1.2c1,1.6,2,3.2,3.2,4.7s2.3,2.9,3.6,4.3l1,1.1c0.4,0.4,0.6,0.7,1,1
		C257.3,242.5,258,243.2,258.7,243.8z"/>
	<path class="st9" d="M252.9,235.3c-1-1.2-1.9-2.4-2.7-3.8c-0.8-1.3-1.5-2.7-2.1-4.1c-0.3-0.7-0.5-1.5-0.8-2.2
		c-0.2-0.8-0.4-1.5-0.5-2.3c-0.1-0.8-0.1-1.6-0.1-2.3c0.1-0.8,0.2-1.5,0.5-2.3c-0.4,1.5-0.3,3-0.1,4.6c0.1,0.8,0.3,1.5,0.5,2.2
		c0.2,0.7,0.5,1.5,0.8,2.2c0.6,1.4,1.3,2.8,2,4.1c0.4,0.6,0.8,1.3,1.2,2C252,234,252.4,234.7,252.9,235.3z"/>
	<path class="st9" d="M259.9,210.7c-0.2-1-0.4-1.9-0.5-2.9s-0.2-2-0.2-3c-0.1-1-0.1-2,0-3s0.1-2,0.4-2.9c-0.1,1-0.1,2-0.1,3
		c0,0.2,0,0.5,0,0.8v0.8c0,0.5,0.1,1,0.1,1.5c0.1,1,0.1,2,0.2,2.9C259.8,208.8,259.9,209.7,259.9,210.7z"/>
	<path class="st2" d="M315.9,225.1h-15.8v1.3h15.8V225.1z"/>
	<path class="st2" d="M313.8,227.3h-11.6v18.8h11.6V227.3z"/>
	<path class="st1" d="M311.8,240.5h-7.6v0.4h7.6V240.5z"/>
	<path class="st1" d="M308.1,228.8c0.9,0,1.7-0.8,1.7-1.7s-0.8-1.7-1.7-1.7c-0.9,0-1.7,0.8-1.7,1.7S307.1,228.8,308.1,228.8z"/>
	<path class="st1" d="M310.1,233.3H306v4.8h4.2V233.3z"/>
	<path class="st1" d="M311,241.4h-5.9v0.4h5.9V241.4z"/>
	<path class="st2" d="M308.1,227.8c0.4,0,0.7-0.3,0.7-0.7s-0.3-0.7-0.7-0.7c-0.4,0-0.7,0.3-0.7,0.7S307.7,227.8,308.1,227.8z"/>
	<path class="st11" d="M270.2,279.6c0,0,6.1,2.7,5.2,17.6c0,0-2.9,0.5-5.3,1.5c-2.3,1.1-7,0.9-12.1-3.4c-5.8-4.9-9.6-6.7-9.6-6.7
		s-3.6-0.7-4.9-1.3c0,0-1.3,1.3-3.3,2.1c0,0,0.2,3-2.2,4c-0.4,0.1-0.7-0.1-0.8-0.4c-0.1-1-0.5-3-1-4.6c-0.2-0.6-0.1-1.4,0.4-1.9
		c0.6-0.6,1.5-1.5,2.1-2.3c0,0-1.3,0.2-2.9,0.2c0,0-0.8,1.3-3,2.8c0,0,1.1,5.8-3.7,6c-0.4,0-0.6-0.3-0.6-0.6
		c0.1-0.8,0.2-2.1-0.1-3.5c0,0-0.3,2-2,2.9c-0.4,0.2-0.8-0.1-0.8-0.5c-0.1-1.5-0.5-4.8-1.3-7.2c-0.2-0.8-0.1-1.7,0.4-2.3
		c1.2-1.6,3.3-4.6,4.7-6.9c0.6-1.1,1.7-1.9,3-2.2c3.3-0.8,9.7-2.5,13.7-4.3c1.5-0.6,3.2-0.5,4.6,0.4c0,0,11.2,7.6,15,10
		C266.8,279.6,268.2,280.4,270.2,279.6z"/>
	<path class="st11" d="M228.9,276.1c0,0,0.2,3.5-2.9,5c0,0-1.9,0.4-0.9,2.6c0,0-0.2,2.2-2.7,2.1c-2.5-0.2-3.5-2.9-3.5-2.9
		s-1.3,0.3-2.5-0.2c0,0-3.8,1.1-8.5-0.2c0,0-0.8,4.2-4.6,3.6c-0.4-0.1-0.6-0.5-0.5-0.8c0.2-0.8,0.5-2.2,0.8-3.8c0,0-0.8-0.2-1.1-0.5
		c0,0,0.7,4.4-3,5.1c-0.4,0.1-0.7-0.2-0.8-0.5l-0.5-1.8c0,0-0.1,0.9-1.1,1.4c-0.4,0.2-0.8,0-0.9-0.4c-0.3-0.8-0.8-2.1-1.1-2.7
		c0,0,0.4,1.3-0.5,2.2c-0.4,0.3-0.9,0.2-1.1-0.2c-0.3-0.7-0.8-1.8-1.5-2.9c-0.3-0.5-0.5-1.1-0.4-1.6c0.1-1.1,0.3-2.9,0.2-4.4
		c-0.1-0.5,0.2-1.1,0.6-1.3l1.3-0.8c0,0,0.2-1.5,0.3-3c0-0.8,0.6-1.3,1.3-1.4l4.6-0.5l5.4-2.5c0.6-0.3,1.3-0.4,2-0.4l4.3,0.3
		c1.1-0.8,2.4-1,3.6-0.6l1.8,0.6c0,0,2.5,0.8,4.6,2.7c0.9,0.8,1.9,1.5,2.9,2.1C226.1,270.9,228.2,272.6,228.9,276.1z"/>
	<path class="st12" d="M251.9,281.7c-0.3,0.1-0.6,0.1-0.9,0.2c-0.3,0.1-0.6,0.1-0.9,0.1c-0.6,0-1.2,0-1.8-0.1
		c-0.6,0-1.2-0.1-1.8-0.1c-0.6-0.1-1.2-0.1-1.8-0.1c-0.6,0-1.2-0.1-1.8-0.1c-0.3,0-0.6,0-0.8,0.1c-0.3,0.1-0.5,0.2-0.8,0.3
		c-0.2,0.1-0.5,0.3-0.7,0.5l-0.6,0.6c-0.5,0.4-0.9,0.8-1.3,1.1c0.4-0.4,0.8-0.8,1.2-1.2l0.6-0.6c0.2-0.2,0.4-0.4,0.7-0.6
		c0.2-0.2,0.5-0.3,0.8-0.4s0.6-0.1,0.9-0.1c0.6,0,1.2,0,1.8,0c0.6,0,1.2,0.1,1.8,0.1s1.2,0.1,1.8,0.2c0.6,0.1,1.2,0.1,1.8,0.1
		C250.8,281.8,251.4,281.8,251.9,281.7z"/>
	<path class="st12" d="M247.7,274.9c-0.5,0.2-1.1,0.4-1.7,0.5c-0.6,0.1-1.2,0.2-1.8,0.2c-1.2,0.1-2.3,0.1-3.5,0.1s-2.3-0.1-3.5-0.1
		c-1.2,0-2.3,0.5-3,1.4c-1.3,1.9-2.7,3.8-4.1,5.6l-0.5,0.7c-0.2,0.2-0.4,0.5-0.5,0.7c-0.3,0.5-0.4,1.1-0.5,1.6
		c-0.1,1.2-0.2,2.3-0.1,3.5h-0.1c-0.2-1.2-0.2-2.3-0.1-3.5c0-0.6,0.2-1.2,0.5-1.7c0.1-0.3,0.3-0.5,0.5-0.8l0.5-0.7
		c0.7-0.9,1.4-1.9,2.1-2.8l1.1-1.4l0.5-0.7c0.2-0.2,0.4-0.5,0.5-0.7c0.8-0.9,1.9-1.4,3.1-1.4c1.2,0,2.3,0,3.5,0c1.2,0,2.3,0,3.5-0.1
		c0.6-0.1,1.2-0.1,1.7-0.2C246.5,275.1,247.1,275,247.7,274.9z"/>
	<path class="st12" d="M245.6,270.1c-0.6,0.5-1.5,0.8-2.3,0.9c-0.8,0.1-1.6,0.2-2.5,0.2s-1.6,0.1-2.4,0.2c-0.8,0.1-1.6,0.2-2.4,0.4
		c0.8-0.3,1.6-0.5,2.3-0.6c0.8-0.2,1.6-0.2,2.5-0.3s1.6-0.1,2.4-0.2C244.1,270.7,244.9,270.6,245.6,270.1z"/>
	<path class="st12" d="M205.2,271.9c-0.2,0.9-0.4,1.7-0.5,2.5c-0.1,0.4-0.2,0.8-0.3,1.3c-0.1,0.4-0.2,0.8-0.3,1.2
		c-0.1,0.4-0.2,0.8-0.2,1.2c0,0.2,0,0.4,0,0.6s0,0.4,0,0.6c-0.1,0.9-0.1,1.8-0.4,2.6c0.1-0.4,0.1-0.9,0.1-1.3s0-0.9,0-1.3v-0.6
		c0-0.2,0-0.4,0-0.6c0-0.4,0.1-0.9,0.2-1.3c0.2-0.9,0.5-1.7,0.7-2.5C204.7,273.6,204.9,272.8,205.2,271.9z"/>
	<path class="st12" d="M211.6,265.4c-0.2,0.3-0.5,0.6-0.7,0.9c-0.2,0.3-0.5,0.6-0.8,0.8c-0.3,0.2-0.6,0.5-0.9,0.8
		c-0.3,0.3-0.5,0.5-0.8,0.8s-0.5,0.6-0.8,0.9c-0.2,0.3-0.5,0.6-0.8,0.8c-0.5,0.5-1.1,1.1-1.8,1.5c0.5-0.6,1-1.2,1.5-1.8
		c0.3-0.3,0.5-0.5,0.8-0.8c0.3-0.3,0.6-0.5,0.8-0.8c0.3-0.2,0.6-0.5,0.8-0.8c0.2-0.3,0.5-0.6,0.8-0.9c0.2-0.3,0.5-0.6,0.8-0.8
		C211,265.9,211.3,265.6,211.6,265.4z"/>
	<path class="st12" d="M202.5,281c-0.1-0.6-0.2-1.2-0.2-1.9c-0.1-0.3-0.1-0.6-0.1-0.9c-0.1-0.3-0.1-0.6-0.1-0.9v-0.1
		c0.4-0.6,0.6-1.3,0.9-2.1c0.1-0.4,0.2-0.7,0.3-1.1c0.1-0.4,0.1-0.8,0.1-1.1v-0.1l0.1-0.1c0.2-0.1,0.5-0.2,0.8-0.2
		c0.2-0.1,0.5-0.2,0.7-0.4c0.2-0.1,0.5-0.3,0.6-0.5c0.2-0.2,0.4-0.4,0.6-0.6c-0.1,0.2-0.3,0.5-0.5,0.7c-0.2,0.2-0.4,0.4-0.6,0.6
		s-0.5,0.4-0.7,0.5c-0.2,0.1-0.5,0.2-0.8,0.3l0.1-0.2c0,0.4-0.1,0.8-0.2,1.2c-0.1,0.4-0.2,0.8-0.4,1.1c-0.2,0.4-0.3,0.7-0.5,1.1
		c-0.2,0.4-0.3,0.7-0.5,1.1v-0.1c0.1,0.3,0.2,0.6,0.2,0.9c0.1,0.3,0.1,0.6,0.2,0.9C202.6,279.7,202.6,280.3,202.5,281z"/>
	<path class="st12" d="M199.9,268.1c-0.3,0.2-0.6,0.4-0.9,0.5c-0.3,0.2-0.6,0.4-0.8,0.6c-0.5,0.5-0.8,1.1-0.9,1.8
		c-0.1,0.2-0.1,0.4-0.1,0.5v0.5c0,0.4-0.1,0.7-0.1,1.1c0,0.7-0.1,1.5-0.1,2.2c0,0.4,0,0.7-0.1,1.1c0,0.2,0,0.4-0.1,0.5
		c0,0.2-0.1,0.4-0.1,0.5c-0.1,0.4,0,0.6,0.2,1c0.1,0.4,0.2,0.7,0.4,1.1c0.4,1.4,0.8,2.8,0.9,4.3h-0.1c-0.3-1.4-0.7-2.8-1.2-4.2
		l-0.4-1c-0.1-0.4-0.2-0.8-0.1-1.1c0-0.2,0.1-0.4,0.1-0.5c0.1-0.2,0.1-0.4,0.1-0.5c0.1-0.4,0.1-0.7,0.1-1.1c0.1-0.7,0.1-1.5,0.1-2.2
		c0-0.4,0-0.7,0-1.1v-0.5c0-0.2,0-0.4,0-0.6c0.1-0.8,0.5-1.5,1.1-1.9c0.3-0.2,0.6-0.5,0.9-0.6C199.3,268.3,199.6,268.1,199.9,268.1z
		"/>
	<path class="st12" d="M193.7,272.9c0.1,0.8,0.1,1.6,0,2.4c-0.1,0.8-0.1,1.6-0.2,2.4c-0.1,0.2-0.1,0.4-0.1,0.6s0.1,0.4,0.1,0.5
		c0.1,0.2,0.1,0.4,0.2,0.5s0.2,0.4,0.3,0.5c0.4,0.7,0.8,1.5,1,2.2c-0.4-0.7-0.8-1.4-1.2-2.1l-0.4-0.5c-0.1-0.2-0.2-0.4-0.3-0.6
		c-0.1-0.2-0.1-0.4-0.1-0.6s0-0.4,0.1-0.6c0.1-0.8,0.2-1.6,0.3-2.4L193.7,272.9z"/>
	<path class="st12" d="M216.5,273.5c0.2,1.1,0.5,2.1,0.9,3l0.2,0.4l0.2,0.4c0.1,0.1,0.1,0.2,0.2,0.4c0.1,0.1,0.1,0.2,0.2,0.4
		c0.3,0.5,0.6,0.9,0.9,1.3c-0.4-0.3-0.8-0.7-1.2-1.1c-0.4-0.4-0.6-0.9-0.8-1.4c-0.2-0.5-0.4-1-0.5-1.5
		C216.6,274.6,216.5,274,216.5,273.5z"/>
	<path class="st12" d="M216,271.1c-0.5,0.5-0.9,1-1.4,1.5c-0.5,0.5-1,0.9-1.6,1.3c-0.5,0.4-1.1,0.8-1.6,1.2c-0.6,0.4-1.2,0.7-1.8,1
		l0.1-0.1c-0.1,0.6-0.1,1.2-0.2,1.7c-0.1,0.6-0.2,1.1-0.4,1.7c-0.1,0.6-0.3,1.1-0.5,1.6c-0.2,0.5-0.4,1.1-0.6,1.6
		c0.2-0.5,0.4-1.1,0.5-1.6c0.2-0.5,0.3-1.1,0.4-1.6c0.1-0.6,0.2-1.1,0.3-1.7c0.1-0.6,0.1-1.1,0.2-1.7v-0.1l0.1-0.1
		c0.6-0.3,1.2-0.6,1.8-1c0.3-0.2,0.6-0.4,0.8-0.5c0.3-0.2,0.5-0.4,0.8-0.6c0.5-0.4,1.1-0.8,1.6-1.2
		C214.9,271.9,215.4,271.5,216,271.1z"/>
	<path class="st12" d="M219.3,278.9c-0.3,0.6-0.4,1.2-0.4,1.9s0.1,1.3,0.2,1.9c0.1,0.3,0.2,0.6,0.3,0.9s0.3,0.6,0.5,0.8
		c0.4,0.5,1,0.8,1.6,1s1.2,0.2,1.9,0.1c0.6-0.1,1.1-0.5,1.5-1.1c0.2-0.2,0.3-0.5,0.4-0.8c0.1-0.3,0-0.6-0.1-0.9
		c-0.2-0.6-0.5-1.2-0.6-1.8h0.1c0.2,0.6,0.6,1.1,0.8,1.8c0.1,0.3,0.2,0.6,0.2,1c-0.1,0.4-0.2,0.7-0.4,1c-0.2,0.3-0.4,0.5-0.7,0.8
		c-0.3,0.2-0.6,0.3-0.9,0.4c-0.6,0.1-1.3,0.1-2-0.2s-1.2-0.6-1.6-1.1c-0.2-0.2-0.4-0.5-0.6-0.8c-0.2-0.3-0.3-0.6-0.4-0.9
		c-0.2-0.6-0.3-1.3-0.2-2C218.7,280.1,218.9,279.4,219.3,278.9z"/>
	<path class="st12" d="M227.1,272.9c0.4,0.6,0.6,1.5,0.5,2.2c-0.1,0.4-0.2,0.8-0.4,1.1c-0.1,0.2-0.2,0.4-0.3,0.5
		c-0.1,0.2-0.2,0.3-0.4,0.5c-0.4,0.6-0.8,1.3-1.1,2c-0.3,0.7-0.6,1.4-0.9,2.1c0.1-0.8,0.4-1.5,0.6-2.2s0.6-1.4,1.1-2.1
		c0.1-0.2,0.2-0.3,0.4-0.5s0.2-0.3,0.3-0.5c0.1-0.2,0.2-0.4,0.2-0.5c0.1-0.2,0.1-0.4,0.1-0.5c0.1-0.4,0.1-0.8,0-1.1
		C227.4,273.6,227.3,273.2,227.1,272.9z"/>
	<path class="st12" d="M229.6,275c-0.4,0.6-0.7,1.3-1.1,1.9c-0.4,0.6-0.8,1.2-1.1,1.9c-0.4,0.6-0.7,1.3-1,2
		c-0.4,0.6-0.7,1.3-1.1,1.9c0.4-0.6,0.6-1.3,0.9-2.1c0.3-0.7,0.6-1.3,1-2.1c0.2-0.4,0.4-0.6,0.6-0.9l0.6-0.9
		C228.7,276.2,229.2,275.6,229.6,275z"/>
	<path class="st14" d="M318.6,150.8c0.2-4.9-2.1-9.1-5.3-9.2c-3.1-0.1-5.9,3.7-6.1,8.7c-0.2,4.9,2.1,9.1,5.3,9.2
		C315.7,159.7,318.4,155.8,318.6,150.8z"/>
	<path class="st14" d="M312.6,159.5l2.2,0.1l0.8-17.9h-2.4L312.6,159.5z"/>
	<path class="st3" d="M321.9,151c0.2-4.9-2.6-9.1-6.3-9.3c-3.7-0.2-6.9,3.7-7.1,8.6c-0.2,4.9,2.6,9.1,6.3,9.3
		C318.4,159.8,321.6,155.9,321.9,151z"/>
	<path class="st3" d="M315,142c-0.2,0-0.4-0.2-0.3-0.4c0-0.2,1.7-18.6-5.1-26c-1.9-2.1-4.3-3-7.1-3c-0.2,0-0.3-0.1-0.3-0.3
		s0.1-0.3,0.3-0.3c3-0.1,5.6,1,7.6,3.2c7,7.6,5.3,25.7,5.3,26.4C315.2,141.9,315.1,142,315,142z"/>
	<path class="st3" d="M316.4,142.1c-0.2,0-0.4-0.2-0.3-0.4c0-0.2,1.7-19.3-5.6-26.5c-2.1-2.1-4.9-2.9-8.1-2.6
		c-0.2,0-0.4-0.1-0.4-0.3s0.1-0.4,0.3-0.4c3.5-0.4,6.3,0.5,8.6,2.8c7.5,7.3,5.8,26.2,5.7,27C316.7,142,316.5,142.1,316.4,142.1z"/>
	<path class="st1" d="M316.2,157.7c-0.1,0-0.1,0-0.2,0c-1.4-0.1-2.7-0.9-3.7-2.2c-0.9-1.3-1.4-3.2-1.3-5s0.7-3.6,1.8-4.9
		c1.1-1.3,2.5-2,3.9-1.9c1.4,0.1,2.7,0.9,3.7,2.2c0.9,1.3,1.4,3.2,1.3,5c-0.1,1.9-0.7,3.6-1.8,4.9
		C318.8,157.1,317.5,157.7,316.2,157.7z M316.4,143.8c-1.3,0-2.5,0.6-3.5,1.8c-1.1,1.2-1.6,2.9-1.8,4.7c-0.1,1.8,0.4,3.6,1.3,4.9
		c0.9,1.3,2.2,2.1,3.5,2.2s2.7-0.6,3.7-1.8c1.1-1.2,1.6-2.9,1.8-4.7c0.1-1.8-0.4-3.6-1.3-4.9c-0.9-1.3-2.2-2.1-3.5-2.2
		C316.5,143.9,316.5,143.8,316.4,143.8z"/>
	<path class="st3" d="M298.9,163.7c-0.8,0-1.6-0.1-2.5-0.1l0.1-0.6c9.6,1.1,15.7-4.6,15.8-4.7l0.4,0.5
		C312.7,158.7,307.4,163.7,298.9,163.7z"/>
	<path class="st2" d="M298.9,164.8c-0.9,0-1.8-0.1-2.6-0.1c-0.8-0.1-1.3-0.8-1.3-1.6c0.1-0.8,0.8-1.3,1.6-1.3c1.3,0.2,2.7,0.2,4,0.1
		c0.8-0.1,1.5,0.5,1.6,1.3c0.1,0.8-0.5,1.5-1.3,1.6C300.3,164.8,299.6,164.8,298.9,164.8z"/>
	<path class="st6" d="M320.2,150.9c0.1-2.8-1.5-5.2-3.6-5.3c-2.1-0.1-4,2.1-4.1,5c-0.1,2.8,1.5,5.2,3.6,5.3
		C318.3,156,320.1,153.8,320.2,150.9z"/>
	<path class="st6" d="M316.7,145.6h1.2l-0.2,10.3h-1.5L316.7,145.6z"/>
	<path class="st2" d="M321.5,151c0.1-2.8-1.5-5.2-3.6-5.3c-2.1-0.1-4,2.1-4.1,5c-0.1,2.8,1.5,5.2,3.6,5.3
		C319.5,156,321.4,153.8,321.5,151z"/>
	<path class="st1" d="M318,154.4c-0.1,0-0.1,0-0.1,0c-1.5-0.1-2.7-1.8-2.6-3.8c0.1-0.9,0.4-1.9,0.9-2.5c0.5-0.6,1.3-1,2-1
		c1.5,0.1,2.7,1.8,2.6,3.8S319.5,154.4,318,154.4z M318.1,147.4c-0.6,0-1.3,0.3-1.8,0.9c-0.5,0.6-0.8,1.5-0.9,2.4
		c-0.1,1.9,1,3.5,2.4,3.5c1.4,0.1,2.6-1.4,2.7-3.3C320.6,149,319.6,147.4,318.1,147.4C318.2,147.4,318.2,147.4,318.1,147.4z"/>
	<path class="st2" d="M255.7,294.6h-70.8v5h70.8V294.6z"/>
	<path class="st2" d="M210.6,271.3l-2.3-0.1L83.1,266c-3.4-0.1-6.1-3-6.4-6.7l-6.9-85c-0.4-4.2,2.6-7.9,6.4-8.1l124.4-5.2l2.3-0.1
		c3.6-0.2,6.6,2.8,7,6.7l7.8,95.6C217.9,267.7,214.7,271.5,210.6,271.3z"/>
	<path class="st2" d="M148.4,283.5l6.7-55.4h-28.1l-7.2,59.2c-0.8,6.6,3.8,12.4,9.8,12.4h16.8H173v-0.9c0,0-11.8-1.1-15.4-2.2
		C151.9,294.9,147.7,290,148.4,283.5z"/>
	<g class="st7">
		<path class="st2" d="M210.6,271.3l-2.3-0.1c4,0.2,7.3-3.4,6.9-7.9l-7.8-95.6c-0.3-3.9-3.4-6.9-7-6.7l2.3-0.1
			c3.6-0.2,6.6,2.8,7,6.7l7.8,95.6C217.9,267.7,214.7,271.5,210.6,271.3z"/>
	</g>
	<g class="st7">
		<path class="st2" d="M154.1,233.7l0.6,35.2l-4.5-0.2L154.1,233.7z"/>
	</g>
	<path class="st0" d="M138.9,244.4c2.3,0,4.1-1.8,4.1-4.1c0-2.3-1.8-4.1-4.1-4.1c-2.3,0-4.1,1.8-4.1,4.1
		C134.9,242.6,136.7,244.4,138.9,244.4z"/>
	<g class="st7">
		<path class="st2" d="M255.7,294.6h-29.5v5h29.5V294.6z"/>
	</g>
	<path class="st8" d="M133.1,228.1c-0.6,0.1-1.3,0.1-1.9,0.4c-0.6,0.2-1.2,0.5-1.8,0.9c-0.3,0.2-0.5,0.4-0.8,0.6l-0.4,0.4
		c-0.1,0.1-0.2,0.2-0.3,0.4c-0.4,0.5-0.8,1.1-1,1.6c-0.2,0.6-0.4,1.2-0.5,1.9l-0.2,2c-0.2,1.3-0.4,2.6-0.5,3.9l-0.5,3.9l-0.3,2
		l-0.2,2c-0.4,2.6-0.6,5.3-0.9,7.9s-0.6,5.3-0.9,7.9c-0.3,2.6-0.6,5.3-0.9,7.9c-0.6,5.3-1.3,10.5-2.1,15.7h-0.1
		c0.5-5.3,1.1-10.5,1.7-15.8c0.3-2.6,0.6-5.3,1-7.9c0.4-2.6,0.7-5.3,1.1-7.9c0.4-2.6,0.7-5.3,1-7.9l0.2-2l0.2-2l0.4-3.9
		c0.2-1.3,0.3-2.6,0.5-3.9l0.2-2c0.1-0.6,0.3-1.3,0.5-1.9c0.3-0.6,0.6-1.2,1.1-1.7c0.1-0.1,0.2-0.2,0.4-0.4l0.4-0.4
		c0.2-0.2,0.5-0.4,0.8-0.6c0.6-0.4,1.2-0.6,1.8-0.8C131.8,228.1,132.5,228,133.1,228.1z"/>
	<path class="st8" d="M148.4,283.5c0.3-3,0.6-6.2,1-9.2l0.5-4.6c0.2-1.5,0.4-3,0.6-4.6l0.6-4.6l0.3-2.3l0.3-2.3
		c0.4-3,0.8-6.2,1.1-9.2c0.4-3,0.7-6.2,1.1-9.2l0.1-1.2l0.1-0.6c0-0.2,0-0.4,0.1-0.6c0-0.8-0.1-1.5-0.3-2.2s-0.6-1.4-1-2
		c-0.4-0.6-1-1.1-1.6-1.5c-0.3-0.2-0.6-0.4-1-0.6l-0.5-0.2c-0.1-0.1-0.2-0.1-0.3-0.1l-0.3-0.1c-0.1,0-0.2-0.1-0.3-0.1l-0.3-0.1
		l-0.3-0.1h-0.1H148l-0.6-0.1h-0.6l-4.6-0.1c-3.1-0.1-6.1-0.1-9.2-0.1V228c3.1-0.1,6.1-0.1,9.2-0.1l4.6-0.1c1.5-0.1,3.2,0.3,4.5,1.2
		c0.6,0.5,1.2,1,1.7,1.6c0.5,0.6,0.8,1.3,1.1,2.1c0.2,0.8,0.3,1.6,0.3,2.3c0,0.2,0,0.4-0.1,0.6l-0.1,0.6l-0.1,1.2
		c-0.4,3-0.8,6.2-1.2,9.2c-0.4,3-0.8,6.2-1.2,9.2l-0.3,2.3l-0.2,2.3l-0.5,4.6c-0.2,1.5-0.4,3-0.5,4.6l-0.6,4.6
		C149.3,277.4,148.9,280.4,148.4,283.5z"/>
	<path class="st8" d="M138.9,236.1c1.1,0,2.2,0.4,2.9,1.2s1.3,1.8,1.3,2.9s-0.4,2.2-1.2,3c-0.4,0.4-0.9,0.8-1.4,0.9
		c-0.5,0.2-1.1,0.4-1.6,0.4c-0.6,0-1.1-0.1-1.6-0.4c-0.5-0.2-1-0.5-1.4-0.9c-0.8-0.8-1.2-1.9-1.2-3c0-1.1,0.5-2.2,1.3-2.9
		C136.8,236.6,137.9,236.1,138.9,236.1z M138.9,236.1c-0.5,0-1.1,0.1-1.6,0.3c-0.5,0.2-0.9,0.5-1.3,0.9c-0.8,0.8-1.2,1.8-1.1,2.9
		c0,1.1,0.5,2.1,1.2,2.8c0.8,0.7,1.8,1.1,2.8,1.1s2-0.4,2.8-1.1s1.2-1.8,1.2-2.8s-0.4-2.1-1.1-2.9c-0.4-0.4-0.8-0.7-1.3-0.9
		C140.1,236.2,139.5,236.1,138.9,236.1z"/>
	<path class="st8" d="M200.5,161c1.2-0.1,2.5,0.3,3.5,0.9c1.1,0.6,1.9,1.6,2.5,2.7c0.3,0.5,0.5,1.1,0.7,1.7s0.2,1.2,0.3,1.8l0.3,3.7
		l0.6,7.4c0.2,2.5,0.4,4.9,0.6,7.4l1.2,14.8c0.2,2.5,0.4,4.9,0.6,7.4l0.6,7.4l1.2,14.8l1.2,14.8c0.4,4.9,0.8,9.8,1.2,14.8l0.1,1.8
		c0.1,0.6,0.1,1.2,0.1,1.9c0,1.2-0.4,2.5-0.9,3.6c-0.6,1.1-1.5,2.1-2.6,2.6c1.1-0.6,1.9-1.6,2.5-2.6s0.9-2.3,0.9-3.5
		c0-0.6-0.1-1.2-0.1-1.8l-0.2-1.8c-0.4-4.9-0.8-9.8-1.2-14.8l-1.2-14.8l-1.2-14.8l-0.6-7.4c-0.2-2.5-0.4-4.9-0.6-7.4l-1.2-14.8
		c-0.2-2.5-0.4-4.9-0.6-7.4l-0.6-7.4l-0.3-3.7c-0.1-0.6-0.1-1.2-0.3-1.8s-0.4-1.2-0.7-1.7c-0.6-1.1-1.4-2-2.5-2.6
		C203,161.4,201.7,161,200.5,161z"/>
	<path class="st8" d="M87.2,253.5l0,0.4l35.7,0.2l0-0.4L87.2,253.5z"/>
	<path class="st0" d="M118.5,248.8l0,1.1l3.2,0l0-1.1L118.5,248.8z"/>
	<path class="st0" d="M113.1,249.9h-5.4v-1.1h5.4V249.9z M102.3,249.8h-5.4v-1.1h5.4V249.8z"/>
	<path class="st0" d="M88.3,248.6l0,1.1l3.2,0l0-1.1L88.3,248.6z"/>
	<path class="st8" d="M152.6,253.9l0,0.4l51.8,0.3l0-0.4L152.6,253.9z"/>
	<path class="st8" d="M404.2,299.4H68.1v0.6h336.1V299.4z"/>
	<path class="st1" d="M236.4,167.7c4.8-4.1,12-3.5,16,1.3c3,3.6,3.5,8.6,1.5,12.6l3.3,4l-6-0.5c-4.8,4.1-12,3.5-16-1.3
		C231.1,179,231.6,171.8,236.4,167.7z"/>
	<path class="st8" d="M257.2,185.6c-0.2-0.4-0.5-0.7-0.8-1.1c-0.3-0.4-0.5-0.7-0.8-1c-0.3-0.4-0.5-0.6-0.8-1s-0.6-0.6-0.8-1
		c0.2,0.4,0.5,0.7,0.8,1.1c0.3,0.4,0.5,0.7,0.8,1c0.3,0.4,0.5,0.6,0.8,1C256.7,184.9,256.9,185.3,257.2,185.6z"/>
	<path class="st8" d="M251.2,185.1c0.5,0.1,1,0.1,1.5,0.2c0.5,0.1,1,0.1,1.5,0.1c0.5,0.1,1,0.1,1.5,0.1c0.5,0.1,1,0.1,1.5,0.1
		c-0.5-0.1-1-0.1-1.5-0.2c-0.5-0.1-1-0.1-1.5-0.1c-0.5-0.1-1-0.1-1.5-0.1C252.2,185.2,251.7,185.1,251.2,185.1z"/>
	<path class="st8" d="M254,181.6c0.3-0.6,0.6-1.3,0.8-1.9c0.2-0.6,0.4-1.3,0.4-2.1c0.2-1.4,0.1-2.8-0.4-4.2c-0.4-1.3-1-2.6-1.8-3.8
		c-0.8-1.1-1.9-2.1-3-2.9c-0.6-0.4-1.2-0.7-1.9-1s-1.3-0.5-2-0.6c-1.4-0.3-2.8-0.3-4.2-0.1c-1.4,0.2-2.7,0.7-3.9,1.5
		c-0.6,0.4-1.2,0.8-1.7,1.2c-0.5,0.5-1,1-1.5,1.5c-0.9,1.1-1.5,2.4-1.9,3.8c-0.4,1.3-0.6,2.8-0.5,4.2c0.1,1.4,0.5,2.8,1.1,4
		c0.6,1.3,1.4,2.5,2.5,3.4c1,1,2.2,1.8,3.5,2.3c1.3,0.5,2.7,0.8,4.1,0.9s2.8-0.2,4.1-0.6c1.3-0.5,2.5-1.2,3.6-2.1
		c-1.1,0.9-2.3,1.6-3.6,2.1c-1.3,0.5-2.7,0.6-4.1,0.6c-1.4-0.1-2.7-0.4-4-0.9c-1.3-0.5-2.5-1.3-3.5-2.3c-0.5-0.5-0.9-1-1.3-1.6
		s-0.8-1.2-1.1-1.8c-0.6-1.3-0.9-2.6-1.1-4c-0.1-1.4,0.1-2.8,0.5-4.1c0.4-1.3,1.1-2.6,1.9-3.7c0.4-0.5,0.9-1.1,1.4-1.5
		c0.5-0.5,1.1-0.9,1.7-1.2c1.2-0.7,2.5-1.2,3.9-1.4c1.3-0.2,2.7-0.2,4.2,0.1c1.3,0.3,2.7,0.8,3.9,1.5c1.2,0.8,2.2,1.7,3,2.8
		c0.8,1.1,1.5,2.4,1.8,3.8c0.4,1.3,0.5,2.8,0.4,4.2c-0.1,0.7-0.2,1.4-0.4,2.1C254.6,180.3,254.3,180.9,254,181.6z"/>
	<path class="st2" d="M243,179.4l-2.7-2.8l0.8-0.8l1.9,1.9l4.3-4.3l0.8,0.8L243,179.4z"/>
</g>
</svg>
