<svg width="500" height="311" viewBox="0 0 500 311" fill="none" xmlns="http://www.w3.org/2000/svg">
<path d="M407.1 35.8998C395.5 29.1998 383.3 23.7998 370.9 19.7998C344.8 11.2998 317.1 7.89979 289.6 8.19979C212.2 9.09979 186.7 47.0998 136.6 46.1998C86.6 45.3998 23.8999 78.1998 19.8999 134.4C15.9999 190.6 30.6 220.7 75.4 244.4C120.1 268.1 199.3 234.1 263.7 245.3C328.1 256.5 386.7 273.5 431 247.5C473 222.9 488.7 168.1 477.8 122.5C468.7 84.7998 440 54.8998 407.1 35.8998Z" fill="#93ABFF"/>
<path d="M407.1 35.8998C395.5 29.1998 383.3 23.7998 370.9 19.7998C344.8 11.2998 317.1 7.89979 289.6 8.19979C212.2 9.09979 186.7 47.0998 136.6 46.1998C86.6 45.3998 23.8999 78.1998 19.8999 134.4C15.9999 190.6 30.6 220.7 75.4 244.4C120.1 268.1 199.3 234.1 263.7 245.3C328.1 256.5 386.7 273.5 431 247.5C473 222.9 488.7 168.1 477.8 122.5C468.7 84.7998 440 54.8998 407.1 35.8998Z" fill="#F6F6F6"/>
<path d="M29.1 104.9L31.7999 93.6998H28.2V91.7998H34.2V93.3998L31.4 104.9H29.1Z" fill="#00186B"/>
<path d="M39.0999 105.1C38.1999 105.1 37.4999 104.9 36.9999 104.6C36.4999 104.3 36.0999 103.8 35.8999 103.2C35.6999 102.6 35.5999 101.9 35.5999 101.1C35.5999 100.7 35.5999 100.4 35.6999 100.1C35.7999 99.7996 35.8999 99.4996 35.9999 99.1996C36.0999 98.8996 36.2999 98.6996 36.4999 98.4996C36.6999 98.2996 36.8999 98.0996 37.1999 97.9996C36.7999 97.6996 36.4999 97.3996 36.2999 96.8996C35.9999 96.3996 35.8999 95.7996 35.8999 95.0996C35.8999 94.3996 35.9999 93.7996 36.2999 93.1996C36.4999 92.6996 36.8999 92.2996 37.3999 91.9996C37.8999 91.6996 38.4999 91.5996 39.1999 91.5996C39.8999 91.5996 40.5999 91.6996 41.0999 91.9996C41.5999 92.2996 41.9999 92.6996 42.1999 93.1996C42.3999 93.6996 42.5999 94.2996 42.4999 95.0996C42.4999 95.7996 42.3999 96.3996 42.0999 96.8996C41.7999 97.3996 41.4999 97.6996 41.1999 97.9996C41.4999 98.0996 41.6999 98.2996 41.8999 98.4996C42.0999 98.6996 42.1999 98.8996 42.3999 99.1996C42.4999 99.4996 42.5999 99.6996 42.6999 100.1C42.7999 100.4 42.7999 100.7 42.7999 101.1C42.7999 101.9 42.6999 102.6 42.4999 103.2C42.2999 103.8 41.8999 104.3 41.3999 104.6C40.5999 104.9 39.9999 105.1 39.0999 105.1ZM39.0999 103.2C39.3999 103.2 39.5999 103.1 39.7999 102.9C39.9999 102.7 39.9999 102.4 40.0999 102.1C40.0999 101.8 40.1999 101.5 40.1999 101.2C40.1999 100.9 40.1999 100.5 40.0999 100.2C40.0999 99.8996 39.9999 99.5996 39.7999 99.3996C39.5999 99.1996 39.3999 99.0996 39.0999 99.0996C38.7999 99.0996 38.5999 99.1996 38.3999 99.3996C38.1999 99.5996 38.0999 99.8996 38.0999 100.2C38.0999 100.5 37.9999 100.9 37.9999 101.2C37.9999 101.5 37.9999 101.8 38.0999 102.1C38.0999 102.4 38.1999 102.7 38.3999 102.9C38.4999 103.1 38.7999 103.2 39.0999 103.2ZM39.0999 97.0996C39.2999 97.0996 39.4999 96.9996 39.5999 96.8996C39.6999 96.6996 39.7999 96.4996 39.8999 96.1996C39.9999 95.8996 39.9999 95.4996 39.9999 95.0996C39.9999 94.5996 39.8999 94.2996 39.7999 93.9996C39.6999 93.6996 39.3999 93.5996 39.0999 93.5996C38.7999 93.5996 38.4999 93.6996 38.3999 93.9996C38.1999 94.2996 38.1999 94.6996 38.1999 95.0996C38.1999 95.4996 38.1999 95.8996 38.2999 96.1996C38.3999 96.4996 38.4999 96.6996 38.5999 96.8996C38.6999 96.9996 38.8999 97.0996 39.0999 97.0996Z" fill="#00186B"/>
<path d="M45.4 97.0992C44.8 97.0992 44.3999 96.8992 44.0999 96.5992C43.7999 96.2992 43.7 95.7992 43.7 95.0992V94.6992C43.7 93.9992 43.7999 93.5992 44.0999 93.1992C44.3999 92.8992 44.8 92.6992 45.4 92.6992C46 92.6992 46.5 92.8992 46.7 93.1992C47 93.4992 47.0999 93.9992 47.0999 94.5992V94.9992C47.0999 95.5992 47 96.0992 46.7 96.3992C46.4 96.8992 46 97.0992 45.4 97.0992ZM45.4 96.1992C45.6 96.1992 45.6999 96.1992 45.7999 96.0992C45.8999 95.9992 45.9 95.8992 45.9 95.6992C45.9 95.4992 45.9 95.2992 45.9 95.0992V94.7992C45.9 94.4992 45.8999 94.1992 45.7999 94.0992C45.7999 93.8992 45.5999 93.7992 45.2999 93.7992C45.0999 93.7992 44.9 93.8992 44.9 93.9992C44.9 94.1992 44.7999 94.3992 44.7999 94.7992V95.0992C44.7999 95.2992 44.7999 95.4992 44.7999 95.6992C44.7999 95.8992 44.9 95.9992 44.9 96.0992C45.1 96.0992 45.2 96.1992 45.4 96.1992ZM46.2999 100.399L48.5999 92.7992H49.5L47.2 100.399H46.2999ZM50.2999 100.499C49.6999 100.499 49.2 100.299 49 99.9992C48.7 99.6992 48.5999 99.1992 48.5999 98.4992V98.0992C48.5999 97.3992 48.7 96.9992 49 96.5992C49.3 96.2992 49.6999 96.0992 50.2999 96.0992C50.8999 96.0992 51.3999 96.2992 51.5999 96.5992C51.8999 96.8992 52 97.3992 52 97.9992V98.3992C52 98.9992 51.8999 99.4992 51.5999 99.8992C51.3999 100.299 50.8999 100.499 50.2999 100.499ZM50.2999 99.4992C50.4999 99.4992 50.6 99.4992 50.7 99.3992C50.8 99.2992 50.7999 99.1992 50.7999 98.9992C50.7999 98.7992 50.7999 98.6992 50.7999 98.3992V98.0992C50.7999 97.7992 50.8 97.4992 50.7 97.2992C50.7 97.0992 50.4999 97.0992 50.2999 97.0992C50.0999 97.0992 49.9 97.1992 49.9 97.3992C49.8 97.5992 49.7999 97.7992 49.7999 98.0992V98.3992C49.7999 98.5992 49.7999 98.7992 49.7999 98.9992C49.7999 99.1992 49.9 99.2992 49.9 99.3992C50 99.4992 50.1999 99.4992 50.2999 99.4992Z" fill="#00186B"/>
<path d="M404.1 199H396.5V214.8H404.1V199Z" fill="#00186B" stroke="#00186B" stroke-miterlimit="10" stroke-linecap="round" stroke-linejoin="round"/>
<path d="M413.9 168.3H406.3V214.8H413.9V168.3Z" fill="#93ABFF" stroke="#00186B" stroke-miterlimit="10" stroke-linecap="round" stroke-linejoin="round"/>
<path d="M423.7 197H416.1V214.7H423.7V197Z" fill="#00186B" stroke="#00186B" stroke-miterlimit="10" stroke-linecap="round" stroke-linejoin="round"/>
<path d="M433.5 188.8H425.9V214.8H433.5V188.8Z" fill="#93ABFF" stroke="#00186B" stroke-miterlimit="10" stroke-linecap="round" stroke-linejoin="round"/>
<path d="M443.3 195.1H435.7V214.8H443.3V195.1Z" fill="#00186B" stroke="#00186B" stroke-miterlimit="10" stroke-linecap="round" stroke-linejoin="round"/>
<path d="M453.1 188.8H445.5V214.8H453.1V188.8Z" fill="#93ABFF" stroke="#00186B" stroke-miterlimit="10" stroke-linecap="round" stroke-linejoin="round"/>
<path d="M462.9 178.5H455.3V214.7H462.9V178.5Z" fill="#00186B" stroke="#00186B" stroke-miterlimit="10" stroke-linecap="round" stroke-linejoin="round"/>
<path d="M472.7 188.8H465.1V214.8H472.7V188.8Z" fill="#93ABFF" stroke="#00186B" stroke-miterlimit="10" stroke-linecap="round" stroke-linejoin="round"/>
<path d="M482.5 203.7H474.9V214.7H482.5V203.7Z" fill="#00186B" stroke="#00186B" stroke-miterlimit="10" stroke-linecap="round" stroke-linejoin="round"/>
<path d="M396.5 152.5H421.3" stroke="#00186B" stroke-width="3" stroke-miterlimit="10" stroke-linecap="round" stroke-linejoin="round"/>
<path d="M396.5 157.6H437.4" stroke="#00186B" stroke-miterlimit="10" stroke-linecap="round" stroke-linejoin="round"/>
<path d="M393.4 48.2998H439.1V103.1" stroke="#00186B" stroke-miterlimit="10" stroke-linecap="round" stroke-linejoin="round"/>
<path d="M439.4 90.5H479.2V102.9" stroke="#00186B" stroke-miterlimit="10" stroke-linecap="round" stroke-linejoin="round"/>
<path d="M459.9 90.9004V102.9" stroke="#00186B" stroke-miterlimit="10" stroke-linecap="round" stroke-linejoin="round"/>
<path d="M376 59.4004V99.9004H393.8" stroke="#00186B" stroke-miterlimit="10" stroke-linecap="round" stroke-linejoin="round"/>
<path d="M390 61.6H366.7C363.6 61.6 361 59.1 361 55.9V44.2C361 41.1 363.5 38.5 366.7 38.5H390C393.1 38.5 395.7 41 395.7 44.2V56C395.7 59.1 393.1 61.6 390 61.6Z" fill="#93ABFF" stroke="#00186B" stroke-miterlimit="10" stroke-linecap="round" stroke-linejoin="round"/>
<path d="M412.5 110H389.2C386.1 110 383.5 107.5 383.5 104.3V92.6004C383.5 89.5004 386 86.9004 389.2 86.9004H412.5C415.6 86.9004 418.2 89.4004 418.2 92.6004V104.4C418.1 107.5 415.6 110 412.5 110Z" fill="#00186B" stroke="#00186B" stroke-miterlimit="10" stroke-linecap="round" stroke-linejoin="round"/>
<path d="M454.6 83.7H431.3C428.2 83.7 425.6 81.2 425.6 78V66.2C425.6 63.1 428.1 60.5 431.3 60.5H454.6C457.7 60.5 460.3 63 460.3 66.2V78C460.3 81.1 457.7 83.7 454.6 83.7Z" fill="white" stroke="#00186B" stroke-miterlimit="10" stroke-linecap="round" stroke-linejoin="round"/>
<path d="M442.7 108.7H434.2C431.8 108.7 429.8 106.7 429.8 104.3V101.6C429.8 99.2002 431.8 97.2002 434.2 97.2002H442.7C445.1 97.2002 447.1 99.2002 447.1 101.6V104.3C447.1 106.7 445.1 108.7 442.7 108.7Z" fill="#93ABFF" stroke="#00186B" stroke-miterlimit="10" stroke-linecap="round" stroke-linejoin="round"/>
<path d="M463 108.7H454.5C452.1 108.7 450.1 106.7 450.1 104.3V101.6C450.1 99.2002 452.1 97.2002 454.5 97.2002H463C465.4 97.2002 467.4 99.2002 467.4 101.6V104.3C467.4 106.7 465.4 108.7 463 108.7Z" fill="#93ABFF" stroke="#00186B" stroke-miterlimit="10" stroke-linecap="round" stroke-linejoin="round"/>
<path d="M483.3 108.7H474.8C472.4 108.7 470.4 106.7 470.4 104.3V101.6C470.4 99.2002 472.4 97.2002 474.8 97.2002H483.3C485.7 97.2002 487.7 99.2002 487.7 101.6V104.3C487.7 106.7 485.7 108.7 483.3 108.7Z" fill="#93ABFF" stroke="#00186B" stroke-miterlimit="10" stroke-linecap="round" stroke-linejoin="round"/>
<path d="M370.9 49.7002H385.3" stroke="#00186B" stroke-miterlimit="10" stroke-linecap="round" stroke-linejoin="round"/>
<path d="M393.5 98.2998H408" stroke="white" stroke-miterlimit="10" stroke-linecap="round" stroke-linejoin="round"/>
<path d="M393.5 101.2H408" stroke="white" stroke-miterlimit="10" stroke-linecap="round" stroke-linejoin="round"/>
<path d="M434.4 73.2998H454.7" stroke="#00186B" stroke-miterlimit="10" stroke-linecap="round" stroke-linejoin="round"/>
<path d="M434.4 70.5996H454.7" stroke="#00186B" stroke-miterlimit="10" stroke-linecap="round" stroke-linejoin="round"/>
<path d="M159.3 78.7998V83.8998" stroke="#00186B" stroke-miterlimit="10" stroke-linecap="round" stroke-linejoin="round"/>
<path d="M171.8 78.7998V83.8998" stroke="#00186B" stroke-miterlimit="10" stroke-linecap="round" stroke-linejoin="round"/>
<path d="M184.2 78.7998V83.8998" stroke="#00186B" stroke-miterlimit="10" stroke-linecap="round" stroke-linejoin="round"/>
<path d="M196.7 78.7998V83.8998" stroke="#00186B" stroke-miterlimit="10" stroke-linecap="round" stroke-linejoin="round"/>
<path d="M209.1 78.7998V83.8998" stroke="#00186B" stroke-miterlimit="10" stroke-linecap="round" stroke-linejoin="round"/>
<path d="M221.6 78.7998V83.8998" stroke="#00186B" stroke-miterlimit="10" stroke-linecap="round" stroke-linejoin="round"/>
<path d="M234.1 78.7998V83.8998" stroke="#00186B" stroke-miterlimit="10" stroke-linecap="round" stroke-linejoin="round"/>
<path d="M246.5 78.7998V83.8998" stroke="#00186B" stroke-miterlimit="10" stroke-linecap="round" stroke-linejoin="round"/>
<path d="M259 78.7998V83.8998" stroke="#00186B" stroke-miterlimit="10" stroke-linecap="round" stroke-linejoin="round"/>
<path d="M271.4 78.7998V83.8998" stroke="#00186B" stroke-miterlimit="10" stroke-linecap="round" stroke-linejoin="round"/>
<path d="M283.9 78.7998V83.8998" stroke="#00186B" stroke-miterlimit="10" stroke-linecap="round" stroke-linejoin="round"/>
<path d="M296.3 78.7998V83.8998" stroke="#00186B" stroke-miterlimit="10" stroke-linecap="round" stroke-linejoin="round"/>
<path d="M308.8 78.7998V83.8998" stroke="#00186B" stroke-miterlimit="10" stroke-linecap="round" stroke-linejoin="round"/>
<path d="M321.2 78.7998V83.8998" stroke="#00186B" stroke-miterlimit="10" stroke-linecap="round" stroke-linejoin="round"/>
<path d="M333.7 78.7998V83.8998" stroke="#00186B" stroke-miterlimit="10" stroke-linecap="round" stroke-linejoin="round"/>
<path d="M155.3 78.7998H336.2" stroke="#00186B" stroke-miterlimit="10" stroke-linecap="round" stroke-linejoin="round"/>
<path d="M164.9 74.8002L177.1 66.1002L189.3 40.2002L202.2 66.6002L213.1 52.8002L226.1 62.4002L239.1 26.7002L252.4 51.2002L263.5 38.5002L274.1 54.8002L289.3 46.0002L301.4 51.6002L313.4 46.0002L329.4 27.0002" stroke="#00186B" stroke-width="3" stroke-miterlimit="10" stroke-linecap="round" stroke-linejoin="round"/>
<path d="M309.2 9.7998H329.7V20.0998H324.4L328.5 26.3998L320.8 20.0998H309.2V9.7998Z" fill="#00186B"/>
<path d="M309.2 73.8998H329.7V63.5998H324.4L328.5 57.2998L320.8 63.5998H309.2V73.8998Z" fill="#93ABFF"/>
<path d="M164 63.5998L178.9 52.3998L190.5 61.4998L202 51.6998L213.5 62.1998L228.8 42.8998L240.7 49.6998L252.2 62.5998L263.7 48.6998L276.9 39.7998L289.5 55.7998L302 59.4998L312.2 58.4998L328.5 50.9998" stroke="#93ABFF" stroke-width="3" stroke-miterlimit="10" stroke-linecap="round" stroke-linejoin="round"/>
<path d="M20.3 113.1C24.5 118.1 30.8001 121.3 37.9001 121.3C47.2001 121.3 55.3001 115.7 58.9001 107.8" stroke="#9E9E9E" stroke-width="9" stroke-miterlimit="10"/>
<path d="M17.7 87.2002C15.9 90.5002 14.8 94.3002 14.8 98.3002C14.8 103.9 16.8 109.1 20.2 113.1" stroke="#93ABFF" stroke-width="9" stroke-miterlimit="10"/>
<path d="M58.9 107.8C60.2 104.9 60.9 101.7 60.9 98.2998C60.9 85.5998 50.6 75.2998 37.9 75.2998C29.2 75.2998 21.6 80.0998 17.7 87.1998" stroke="#00186B" stroke-width="9" stroke-miterlimit="10"/>
<path d="M75.9001 87C75.9001 85.4 74.6001 84 72.9001 84C71.3001 84 69.9001 85.3 69.9001 87C69.9001 88.6 71.2001 90 72.9001 90C74.6001 90 75.9001 88.7 75.9001 87Z" fill="#00186B"/>
<path d="M75.9001 99.7998C75.9001 98.1998 74.6001 96.7998 72.9001 96.7998C71.3001 96.7998 69.9001 98.0998 69.9001 99.7998C69.9001 101.4 71.2001 102.8 72.9001 102.8C74.6001 102.7 75.9001 101.4 75.9001 99.7998Z" fill="#9E9E9E"/>
<path d="M75.9001 114.1C75.9001 112.5 74.6001 111.1 72.9001 111.1C71.3001 111.1 69.9001 112.4 69.9001 114.1C69.9001 115.7 71.2001 117.1 72.9001 117.1C74.6001 117.1 75.9001 115.7 75.9001 114.1Z" fill="#93ABFF"/>
<path d="M80.4001 87.4004H111.5" stroke="#00186B" stroke-miterlimit="10" stroke-linecap="round" stroke-linejoin="round"/>
<path d="M80.4001 99.5996H111.5" stroke="#00186B" stroke-miterlimit="10" stroke-linecap="round" stroke-linejoin="round"/>
<path d="M80.4001 114.1H111.5" stroke="#00186B" stroke-miterlimit="10" stroke-linecap="round" stroke-linejoin="round"/>
<path d="M101.9 156.399H13.8V163.199H101.9V156.399Z" stroke="#00186B" stroke-miterlimit="10" stroke-linecap="round" stroke-linejoin="round"/>
<path d="M101.9 167.199H13.8V173.999H101.9V167.199Z" stroke="#00186B" stroke-miterlimit="10" stroke-linecap="round" stroke-linejoin="round"/>
<path d="M101.9 177.999H13.8V184.799H101.9V177.999Z" stroke="#00186B" stroke-miterlimit="10" stroke-linecap="round" stroke-linejoin="round"/>
<path d="M101.9 188.8H13.8V195.6H101.9V188.8Z" stroke="#00186B" stroke-miterlimit="10" stroke-linecap="round" stroke-linejoin="round"/>
<path d="M101.9 199.6H13.8V206.4H101.9V199.6Z" stroke="#00186B" stroke-miterlimit="10" stroke-linecap="round" stroke-linejoin="round"/>
<path d="M15.2 151.399H40.0999" stroke="#00186B" stroke-width="3" stroke-miterlimit="10" stroke-linecap="round" stroke-linejoin="round"/>
<path d="M15.2 156.499H56.2" stroke="#00186B" stroke-miterlimit="10" stroke-linecap="round" stroke-linejoin="round"/>
<path d="M101.9 165.999H13.8V172.799H101.9V165.999Z" stroke="#00186B" stroke-miterlimit="10" stroke-linecap="round" stroke-linejoin="round"/>
<path d="M101.9 176.799H13.8V183.599H101.9V176.799Z" stroke="#00186B" stroke-miterlimit="10" stroke-linecap="round" stroke-linejoin="round"/>
<path d="M101.9 187.599H13.8V194.399H101.9V187.599Z" stroke="#00186B" stroke-miterlimit="10" stroke-linecap="round" stroke-linejoin="round"/>
<path d="M101.9 198.399H13.8V205.199H101.9V198.399Z" stroke="#00186B" stroke-miterlimit="10" stroke-linecap="round" stroke-linejoin="round"/>
<path d="M101.9 209.199H13.8V215.999H101.9V209.199Z" stroke="#00186B" stroke-miterlimit="10" stroke-linecap="round" stroke-linejoin="round"/>
<path d="M46.5 165.999H13.8V172.799H46.5V165.999Z" fill="#00186B" stroke="#00186B" stroke-miterlimit="10" stroke-linecap="round" stroke-linejoin="round"/>
<path d="M58.2001 176.799H13.8V183.599H58.2001V176.799Z" fill="#93ABFF" stroke="#00186B" stroke-miterlimit="10" stroke-linecap="round" stroke-linejoin="round"/>
<path d="M30.7001 187.599H13.8V194.399H30.7001V187.599Z" fill="#00186B" stroke="#00186B" stroke-miterlimit="10" stroke-linecap="round" stroke-linejoin="round"/>
<path d="M86.2 198.399H13.8V205.199H86.2V198.399Z" fill="#93ABFF" stroke="#00186B" stroke-miterlimit="10" stroke-linecap="round" stroke-linejoin="round"/>
<path d="M67.7 209.199H13.8V215.999H67.7V209.199Z" fill="#00186B" stroke="#00186B" stroke-miterlimit="10" stroke-linecap="round" stroke-linejoin="round"/>
<path d="M348 235.699H152.4C147.1 235.699 142.8 231.399 142.8 226.099V112.499C142.8 107.199 147.1 102.899 152.4 102.899H348C353.3 102.899 357.6 107.199 357.6 112.499V226.099C357.6 231.399 353.3 235.699 348 235.699Z" fill="#00186B" stroke="#00186B" stroke-miterlimit="10" stroke-linecap="round" stroke-linejoin="round"/>
<path d="M350.1 116.5V222.2C350.1 225.6 347.3 228.4 343.9 228.4H156.6C153.1 228.4 150.4 225.6 150.4 222.2V116.5C150.4 113.1 153.2 110.3 156.6 110.3H343.9C347.3 110.3 350.1 113.1 350.1 116.5Z" fill="white" stroke="#00186B" stroke-miterlimit="10" stroke-linecap="round" stroke-linejoin="round"/>
<path d="M165.4 235.7H149C145.6 235.7 142.8 232.9 142.8 229.5V156.6C138.4 159.9 129.2 166.8 126.1 170.5C121.9 175.4 118.8 183 117.4 191C116 199 110.8 205.9 112.2 209.8C113.6 213.6 118.8 236.9 120.5 246.3C122.2 255.7 122.6 263.3 122.6 265.4C122.6 267.5 117.4 293.9 117.4 293.9L155.3 295.3C155.3 295.3 154.6 282.1 156 277.9C157.4 273.7 163.3 264 162.6 258.1C162 252.1 166 242 165.4 235.7Z" fill="white" stroke="#00186B" stroke-miterlimit="10" stroke-linecap="round" stroke-linejoin="round"/>
<path d="M142.8 169.6L139 174C139 174 137.6 181.4 136.9 184.9C136.2 188.4 134.8 191.2 134.8 191.2C134.8 191.2 137.2 196.8 138.6 198.8C140 200.9 140.7 203 140.7 203L142.8 204.3V169.6Z" fill="#00186B" stroke="#00186B" stroke-miterlimit="10" stroke-linecap="round" stroke-linejoin="round"/>
<path d="M125.4 192.099C125.4 192.099 128.2 191.699 131 191.699" stroke="#00186B" stroke-miterlimit="10" stroke-linecap="round" stroke-linejoin="round"/>
<path d="M135 171.199C135 171.199 139 172.399 139 173.999" stroke="#00186B" stroke-miterlimit="10" stroke-linecap="round" stroke-linejoin="round"/>
<path d="M110.9 298.2C110.9 298.2 112.6 281.7 112.6 280C112.6 278.3 112.6 276.5 112.6 274.8C112.6 273.1 114.3 271.8 114.3 271.8C114.3 271.8 131.2 268.3 148.2 274C165.1 279.6 161.2 288.8 161.2 288.8L160.3 301.8" fill="white"/>
<path d="M110.9 298.2C110.9 298.2 112.6 281.7 112.6 280C112.6 278.3 112.6 276.5 112.6 274.8C112.6 273.1 114.3 271.8 114.3 271.8C114.3 271.8 131.2 268.3 148.2 274C165.1 279.6 161.2 288.8 161.2 288.8L160.3 301.8" stroke="#00186B" stroke-miterlimit="10" stroke-linecap="round" stroke-linejoin="round"/>
<path d="M133.5 216.6C133.5 216.6 139.7 203 140.4 197.8C141.1 192.6 139.7 180.4 141.4 175.6C143.1 170.7 142.1 164.5 146.3 162C150.5 159.6 156 160.3 157.1 170C158.1 179.7 157.1 195 157.4 200.2C157.7 205.4 166.8 213.1 167.1 224.2C167.4 235.3 163.6 246.8 162.6 251.7C161.6 256.6 157.4 268 157.4 268" fill="white"/>
<path d="M133.5 216.6C133.5 216.6 139.7 203 140.4 197.8C141.1 192.6 139.7 180.4 141.4 175.6C143.1 170.7 142.1 164.5 146.3 162C150.5 159.6 156 160.3 157.1 170C158.1 179.7 157.1 195 157.4 200.2C157.7 205.4 166.8 213.1 167.1 224.2C167.4 235.3 163.6 246.8 162.6 251.7C161.6 256.6 157.4 268 157.4 268" stroke="#00186B" stroke-miterlimit="10" stroke-linecap="round" stroke-linejoin="round"/>
<path d="M143.2 173.299C143.2 173.299 146 172.499 149.5 173.199C153 173.899 155.1 174.599 155.1 174.599C155.1 174.599 155.4 171.099 155.1 167.699C155.1 167.699 155.6 163.699 153.2 162.099C150.8 160.499 146 160.899 144.4 164.499C142.6 167.999 143.2 173.299 143.2 173.299Z" stroke="#00186B" stroke-miterlimit="10" stroke-linecap="round" stroke-linejoin="round"/>
<path d="M151.9 179.7C151.9 179.7 143.9 177.3 141.9 180.5" stroke="#00186B" stroke-miterlimit="10" stroke-linecap="round" stroke-linejoin="round"/>
<path d="M143.8 181.699C143.8 181.699 146.2 182.499 151.4 182.099" stroke="#00186B" stroke-miterlimit="10" stroke-linecap="round" stroke-linejoin="round"/>
<path d="M389.5 209.599C390.9 205.799 385.7 198.799 384.3 190.799C382.9 182.799 379.8 175.199 375.6 170.299C372.1 166.199 361.1 158.099 357.6 155.499V229.399C357.6 232.799 354.8 235.599 351.4 235.599H336.4C335.9 241.899 339.9 251.999 339.2 257.799C338.5 263.699 344.4 273.399 345.8 277.599C347.2 281.799 346.5 294.999 346.5 294.999L384.4 293.599C384.4 293.599 379.2 267.199 379.2 265.099C379.2 262.999 379.5 255.399 381.3 245.999C382.9 236.699 388.1 213.499 389.5 209.599Z" fill="white" stroke="#00186B" stroke-miterlimit="10" stroke-linecap="round" stroke-linejoin="round"/>
<path d="M364.8 184.999C364.1 181.499 362.7 174.099 362.7 174.099L357.6 168.099V205.199L361 202.999C361 202.999 361.7 200.899 363.1 198.799C364.5 196.699 366.9 191.199 366.9 191.199C366.9 191.199 365.5 188.399 364.8 184.999Z" fill="#00186B" stroke="#00186B" stroke-miterlimit="10" stroke-linecap="round" stroke-linejoin="round"/>
<path d="M376.4 192.099C376.4 192.099 373.6 191.699 370.8 191.699" stroke="#00186B" stroke-miterlimit="10" stroke-linecap="round" stroke-linejoin="round"/>
<path d="M366.8 171.199C366.8 171.199 362.8 172.399 362.8 173.999" stroke="#00186B" stroke-miterlimit="10" stroke-linecap="round" stroke-linejoin="round"/>
<path d="M390.9 298.199C390.9 298.199 389.2 281.699 389.2 279.999C389.2 278.299 389.2 276.499 389.2 274.799C389.2 273.099 387.5 271.799 387.5 271.799C387.5 271.799 370.6 268.299 353.6 273.999C336.7 279.599 340.6 288.799 340.6 288.799L341.5 301.799" fill="white"/>
<path d="M390.9 298.199C390.9 298.199 389.2 281.699 389.2 279.999C389.2 278.299 389.2 276.499 389.2 274.799C389.2 273.099 387.5 271.799 387.5 271.799C387.5 271.799 370.6 268.299 353.6 273.999C336.7 279.599 340.6 288.799 340.6 288.799L341.5 301.799" stroke="#00186B" stroke-miterlimit="10" stroke-linecap="round" stroke-linejoin="round"/>
<path d="M365.1 219.8C365.1 219.8 355.4 201 353.5 196.1C351.6 191.2 350.1 179 347.3 174.7C344.5 170.4 344 164 339.4 162.7C334.8 161.3 329.5 163.3 330.8 173C332 182.7 336.6 197.3 337.5 202.5C338.4 207.7 331.4 217.2 333.6 228.1C335.8 239 342.2 249.3 344.4 253.7" fill="white"/>
<path d="M365.1 219.8C365.1 219.8 355.4 201 353.5 196.1C351.6 191.2 350.1 179 347.3 174.7C344.5 170.4 344 164 339.4 162.7C334.8 161.3 329.5 163.3 330.8 173C332 182.7 336.6 197.3 337.5 202.5C338.4 207.7 331.4 217.2 333.6 228.1C335.8 239 342.2 249.3 344.4 253.7" stroke="#00186B" stroke-miterlimit="10" stroke-linecap="round" stroke-linejoin="round"/>
<path d="M345.1 172.799C345.1 172.799 342.2 172.699 339 174.099C335.8 175.599 333.9 176.699 333.9 176.699C333.9 176.699 332.8 173.399 332.3 169.899C332.3 169.899 330.9 166.099 332.9 163.999C334.9 161.899 339.6 161.199 342 164.299C344.4 167.599 345.1 172.799 345.1 172.799Z" stroke="#00186B" stroke-miterlimit="10" stroke-linecap="round" stroke-linejoin="round"/>
<path d="M338.1 180.999C338.1 180.999 345.3 176.799 348 179.399" stroke="#00186B" stroke-miterlimit="10" stroke-linecap="round" stroke-linejoin="round"/>
<path d="M346.4 181.1C346.4 181.1 344.2 182.4 339.1 183.3" stroke="#00186B" stroke-miterlimit="10" stroke-linecap="round" stroke-linejoin="round"/>
<path d="M325.2 147.9L310.9 150.2L314.4 153.5L275 190.9L261 179.1L216.1 219.1H227.7L261.1 189.3L275.5 201.5L320 158.9L323.4 162.3L325.2 147.9Z" fill="white"/>
<path d="M227.8 219.4H215.4L260.9 178.8L274.9 190.7L313.9 153.6L310.3 150.1L325.4 147.7L323.5 162.9L319.8 159.3L275.4 201.9L261 189.7L227.8 219.4ZM216.8 218.8H227.6L261.1 189L275.5 201.2L320 158.5L323.3 161.7L324.9 148.3L311.5 150.4L314.8 153.5L275 191.3L261 179.4L216.8 218.8Z" fill="black"/>
<path d="M283.8 147.6L286.8 150.5L270.2 167.7L275.1 172.4L291.7 155.2L294.8 158.2L296.3 145.6L283.8 147.6Z" fill="white"/>
<path d="M275.1 172.8L269.8 167.7L286.4 150.5L283.2 147.4L296.6 145.3L295 158.8L291.7 155.7L275.1 172.8ZM270.6 167.7L275.1 172L291.7 154.8L294.6 157.6L296 145.9L284.3 147.8L287.1 150.5L270.6 167.7Z" fill="black"/>
<path d="M291.8 135.2C296.053 135.2 299.5 131.752 299.5 127.5C299.5 123.247 296.053 119.8 291.8 119.8C287.547 119.8 284.1 123.247 284.1 127.5C284.1 131.752 287.547 135.2 291.8 135.2Z" fill="#93ABFF" stroke="#00186B" stroke-miterlimit="10" stroke-linecap="round" stroke-linejoin="round"/>
<path d="M291.8 135.5C287.4 135.5 283.8 131.9 283.8 127.5C283.8 123.1 287.4 119.5 291.8 119.5C296.2 119.5 299.8 123.1 299.8 127.5C299.8 131.9 296.2 135.5 291.8 135.5ZM291.8 120C287.7 120 284.3 123.3 284.3 127.5C284.3 131.6 287.6 135 291.8 135C295.9 135 299.3 131.7 299.3 127.5C299.3 123.4 295.9 120 291.8 120Z" fill="black"/>
<path d="M291.8 133.2C294.948 133.2 297.5 130.648 297.5 127.5C297.5 124.352 294.948 121.8 291.8 121.8C288.652 121.8 286.1 124.352 286.1 127.5C286.1 130.648 288.652 133.2 291.8 133.2Z" fill="white"/>
<path d="M291.8 133.5C288.5 133.5 285.8 130.8 285.8 127.5C285.8 124.2 288.5 121.5 291.8 121.5C295.1 121.5 297.8 124.2 297.8 127.5C297.8 130.8 295.1 133.5 291.8 133.5ZM291.8 122C288.8 122 286.4 124.4 286.4 127.4C286.4 130.4 288.8 132.8 291.8 132.8C294.8 132.8 297.2 130.4 297.2 127.4C297.2 124.5 294.8 122 291.8 122Z" fill="black"/>
<path d="M293.5 129.6C293.2 129.9 292.8 130.1 292.2 130.1V130.9H291.6V130.1C291.2 130.1 290.9 130 290.5 129.9C290.2 129.8 289.9 129.6 289.7 129.5L290 128.7C290.2 128.9 290.4 129 290.7 129.1C291 129.2 291.2 129.3 291.5 129.3V127.8C291.1 127.7 290.8 127.6 290.6 127.5C290.4 127.4 290.2 127.2 290 127C289.8 126.8 289.8 126.5 289.8 126.2C289.8 125.8 289.9 125.4 290.2 125.2C290.5 124.9 290.9 124.7 291.5 124.7V123.9H292.1V124.7C292.4 124.7 292.7 124.8 292.9 124.8C293.2 124.9 293.4 125 293.6 125.1L293.3 125.9C292.9 125.7 292.5 125.5 292.1 125.5V127C292.5 127.1 292.8 127.2 293 127.3C293.2 127.4 293.4 127.5 293.6 127.7C293.8 127.9 293.8 128.2 293.8 128.5C293.9 129 293.7 129.4 293.5 129.6ZM291 126.7C291.1 126.8 291.3 126.9 291.6 127V125.7C291.3 125.7 291.2 125.8 291 125.9C290.9 126 290.8 126.2 290.8 126.3C290.8 126.5 290.8 126.6 291 126.7ZM292.7 129.1C292.8 129 292.9 128.8 292.9 128.7C292.9 128.5 292.8 128.4 292.7 128.3C292.6 128.2 292.4 128.1 292.1 128V129.3C292.4 129.3 292.6 129.2 292.7 129.1Z" fill="black"/>
<path d="M209.2 137.8V153.1L216.1 145.5L209.2 137.8Z" fill="#93ABFF" stroke="#00186B" stroke-miterlimit="10" stroke-linecap="round" stroke-linejoin="round"/>
<path d="M215 141C215.331 141 215.6 140.731 215.6 140.4C215.6 140.068 215.331 139.8 215 139.8C214.669 139.8 214.4 140.068 214.4 140.4C214.4 140.731 214.669 141 215 141Z" fill="black"/>
<path d="M214.9 143.599C215.231 143.599 215.5 143.331 215.5 142.999C215.5 142.668 215.231 142.399 214.9 142.399C214.568 142.399 214.3 142.668 214.3 142.999C214.3 143.331 214.568 143.599 214.9 143.599Z" fill="black"/>
<path d="M214.9 146.2C215.231 146.2 215.5 145.931 215.5 145.6C215.5 145.269 215.231 145 214.9 145C214.568 145 214.3 145.269 214.3 145.6C214.3 145.931 214.568 146.2 214.9 146.2Z" fill="black"/>
<path d="M214.9 148.7C215.231 148.7 215.5 148.431 215.5 148.1C215.5 147.769 215.231 147.5 214.9 147.5C214.568 147.5 214.3 147.769 214.3 148.1C214.3 148.431 214.568 148.7 214.9 148.7Z" fill="black"/>
<path d="M217.2 143.599C217.531 143.599 217.8 143.331 217.8 142.999C217.8 142.668 217.531 142.399 217.2 142.399C216.868 142.399 216.6 142.668 216.6 142.999C216.6 143.331 216.868 143.599 217.2 143.599Z" fill="black"/>
<path d="M217.2 146.2C217.531 146.2 217.8 145.931 217.8 145.6C217.8 145.269 217.531 145 217.2 145C216.868 145 216.6 145.269 216.6 145.6C216.6 145.931 216.868 146.2 217.2 146.2Z" fill="black"/>
<path d="M219.5 146.2C219.831 146.2 220.1 145.931 220.1 145.6C220.1 145.269 219.831 145 219.5 145C219.169 145 218.9 145.269 218.9 145.6C218.9 145.931 219.169 146.2 219.5 146.2Z" fill="black"/>
<path d="M217.2 148.7C217.531 148.7 217.8 148.431 217.8 148.1C217.8 147.769 217.531 147.5 217.2 147.5C216.868 147.5 216.6 147.769 216.6 148.1C216.6 148.431 216.868 148.7 217.2 148.7Z" fill="black"/>
<path d="M214.9 151.3C215.231 151.3 215.5 151.031 215.5 150.7C215.5 150.368 215.231 150.1 214.9 150.1C214.568 150.1 214.3 150.368 214.3 150.7C214.3 151.031 214.568 151.3 214.9 151.3Z" fill="black"/>
<path d="M212 140.4C212 140.7 212.2 141 212.6 141C213 141 213.2 140.8 213.2 140.4C213.2 140.1 213 139.8 212.6 139.8C212.2 139.8 212 140.1 212 140.4Z" fill="black"/>
<path d="M212.6 138.5C212.931 138.5 213.2 138.231 213.2 137.9C213.2 137.568 212.931 137.3 212.6 137.3C212.269 137.3 212 137.568 212 137.9C212 138.231 212.269 138.5 212.6 138.5Z" fill="black"/>
<path d="M212.5 143.599C212.831 143.599 213.1 143.331 213.1 142.999C213.1 142.668 212.831 142.399 212.5 142.399C212.169 142.399 211.9 142.668 211.9 142.999C211.9 143.331 212.169 143.599 212.5 143.599Z" fill="black"/>
<path d="M212.5 146.2C212.831 146.2 213.1 145.931 213.1 145.6C213.1 145.269 212.831 145 212.5 145C212.169 145 211.9 145.269 211.9 145.6C211.9 145.931 212.169 146.2 212.5 146.2Z" fill="black"/>
<path d="M212.5 148.7C212.831 148.7 213.1 148.431 213.1 148.1C213.1 147.769 212.831 147.5 212.5 147.5C212.169 147.5 211.9 147.769 211.9 148.1C211.9 148.431 212.169 148.7 212.5 148.7Z" fill="black"/>
<path d="M212.5 151.3C212.831 151.3 213.1 151.031 213.1 150.7C213.1 150.368 212.831 150.1 212.5 150.1C212.169 150.1 211.9 150.368 211.9 150.7C211.9 151.031 212.169 151.3 212.5 151.3Z" fill="black"/>
<path d="M212.5 153.9C212.831 153.9 213.1 153.632 213.1 153.3C213.1 152.969 212.831 152.7 212.5 152.7C212.169 152.7 211.9 152.969 211.9 153.3C211.9 153.632 212.169 153.9 212.5 153.9Z" fill="black"/>
<path d="M318.3 219H174.4V219.6H318.3V219Z" fill="black"/>
<path d="M251.9 178.501C264.989 178.501 275.6 167.89 275.6 154.801C275.6 141.711 264.989 131.101 251.9 131.101C238.811 131.101 228.2 141.711 228.2 154.801C228.2 167.89 238.811 178.501 251.9 178.501Z" fill="#93ABFF" stroke="#00186B" stroke-miterlimit="10" stroke-linecap="round" stroke-linejoin="round"/>
<path d="M251.9 178.9C238.6 178.9 227.8 168.1 227.8 154.8C227.8 141.5 238.6 130.7 251.9 130.7C265.2 130.7 276 141.5 276 154.8C276 168.1 265.2 178.9 251.9 178.9ZM251.9 131.4C239 131.4 228.5 141.9 228.5 154.8C228.5 167.7 239 178.2 251.9 178.2C264.8 178.2 275.3 167.7 275.3 154.8C275.3 141.9 264.8 131.4 251.9 131.4Z" fill="black"/>
<path d="M251.9 172.301C261.565 172.301 269.4 164.466 269.4 154.801C269.4 145.136 261.565 137.301 251.9 137.301C242.235 137.301 234.4 145.136 234.4 154.801C234.4 164.466 242.235 172.301 251.9 172.301Z" fill="white"/>
<path d="M251.9 172.7C242 172.7 234 164.7 234 154.8C234 144.9 242 136.9 251.9 136.9C261.8 136.9 269.8 144.9 269.8 154.8C269.8 164.7 261.8 172.7 251.9 172.7ZM251.9 137.6C242.4 137.6 234.7 145.3 234.7 154.8C234.7 164.3 242.4 172 251.9 172C261.4 172 269.1 164.3 269.1 154.8C269.1 145.3 261.4 137.6 251.9 137.6Z" fill="black"/>
<path d="M257 161.5C256.1 162.4 254.8 162.9 253 163.1V165.7H251.1V163.1C250 163 248.9 162.8 247.9 162.5C246.9 162.2 246.1 161.7 245.5 161.2L246.5 158.9C247.1 159.4 247.8 159.8 248.6 160.1C249.4 160.4 250.3 160.6 251.1 160.7V156.1C250 155.8 249.1 155.5 248.4 155.2C247.7 154.9 247.1 154.4 246.6 153.8C246.1 153.2 245.9 152.4 245.9 151.4C245.9 150.2 246.4 149.1 247.3 148.2C248.2 147.3 249.5 146.8 251.2 146.6V144H253.1V146.6C254 146.6 254.8 146.8 255.6 147C256.4 147.2 257.1 147.6 257.8 148L256.9 150.3C255.7 149.6 254.5 149.2 253.2 149.1V153.8C254.3 154.1 255.2 154.3 256 154.7C256.7 155 257.3 155.5 257.8 156.1C258.3 156.7 258.6 157.5 258.6 158.5C258.4 159.5 257.9 160.6 257 161.5ZM249.4 152.4C249.8 152.7 250.4 153 251.1 153.2V149C250.3 149.1 249.7 149.4 249.3 149.7C248.9 150.1 248.7 150.5 248.7 151.1C248.8 151.7 249 152.1 249.4 152.4ZM254.8 159.8C255.2 159.4 255.4 159 255.4 158.5C255.4 158 255.2 157.6 254.8 157.2C254.4 156.9 253.8 156.6 253 156.4V160.5C253.8 160.4 254.5 160.2 254.8 159.8Z" fill="black"/>
<path d="M206.4 202C216.562 202 224.8 193.762 224.8 183.6C224.8 173.438 216.562 165.2 206.4 165.2C196.238 165.2 188 173.438 188 183.6C188 193.762 196.238 202 206.4 202Z" fill="#93ABFF" stroke="#00186B" stroke-miterlimit="10" stroke-linecap="round" stroke-linejoin="round"/>
<path d="M206.4 202.3C196.1 202.3 187.7 193.9 187.7 183.6C187.7 173.3 196.1 164.9 206.4 164.9C216.7 164.9 225.1 173.3 225.1 183.6C225.1 193.9 216.7 202.3 206.4 202.3ZM206.4 165.5C196.4 165.5 188.3 173.6 188.3 183.6C188.3 193.6 196.4 201.7 206.4 201.7C216.4 201.7 224.5 193.6 224.5 183.6C224.5 173.6 216.4 165.5 206.4 165.5Z" fill="black"/>
<path d="M206.4 197.2C213.911 197.2 220 191.111 220 183.6C220 176.089 213.911 170 206.4 170C198.889 170 192.8 176.089 192.8 183.6C192.8 191.111 198.889 197.2 206.4 197.2Z" fill="white"/>
<path d="M206.4 197.5C198.7 197.5 192.5 191.3 192.5 183.6C192.5 175.9 198.7 169.7 206.4 169.7C214.1 169.7 220.3 175.9 220.3 183.6C220.3 191.3 214.1 197.5 206.4 197.5ZM206.4 170.3C199 170.3 193.1 176.3 193.1 183.6C193.1 191 199.1 196.9 206.4 196.9C213.8 196.9 219.7 190.9 219.7 183.6C219.7 176.3 213.8 170.3 206.4 170.3Z" fill="black"/>
<path d="M210.3 188.801C209.6 189.501 208.6 189.901 207.2 190.001V192.001H205.7V190.001C204.8 189.901 204 189.801 203.2 189.501C202.4 189.201 201.8 188.901 201.3 188.501L202.1 186.701C202.5 187.101 203.1 187.401 203.7 187.601C204.3 187.801 205 188.001 205.7 188.101V184.501C204.9 184.301 204.1 184.101 203.6 183.801C203 183.601 202.6 183.201 202.2 182.701C201.8 182.201 201.6 181.601 201.6 180.801C201.6 179.801 202 179.001 202.7 178.301C203.4 177.601 204.4 177.201 205.8 177.101V175.101H207.3V177.101C208 177.101 208.6 177.201 209.3 177.401C209.9 177.601 210.5 177.801 211 178.201L210.3 180.001C209.4 179.501 208.4 179.201 207.4 179.001V182.601C208.3 182.801 209 183.001 209.5 183.301C210.1 183.501 210.5 183.901 210.9 184.401C211.3 184.901 211.5 185.501 211.5 186.301C211.4 187.301 211.1 188.201 210.3 188.801ZM204.4 181.801C204.7 182.001 205.2 182.201 205.7 182.401V179.201C205.1 179.301 204.6 179.501 204.3 179.801C204 180.101 203.9 180.401 203.9 180.901C204 181.201 204.1 181.501 204.4 181.801ZM208.7 187.501C209 187.201 209.2 186.901 209.2 186.501C209.2 186.101 209 185.801 208.7 185.501C208.4 185.301 207.9 185.001 207.3 184.901V188.101C207.9 188.001 208.4 187.801 208.7 187.501Z" fill="black"/>
<path d="M299.3 205C309.462 205 317.7 196.762 317.7 186.6C317.7 176.438 309.462 168.2 299.3 168.2C289.138 168.2 280.9 176.438 280.9 186.6C280.9 196.762 289.138 205 299.3 205Z" fill="#93ABFF" stroke="#00186B" stroke-miterlimit="10" stroke-linecap="round" stroke-linejoin="round"/>
<path d="M299.3 205.3C289 205.3 280.6 196.9 280.6 186.6C280.6 176.3 289 167.9 299.3 167.9C309.6 167.9 318 176.3 318 186.6C318 196.9 309.6 205.3 299.3 205.3ZM299.3 168.5C289.3 168.5 281.2 176.6 281.2 186.6C281.2 196.6 289.3 204.7 299.3 204.7C309.3 204.7 317.4 196.6 317.4 186.6C317.4 176.6 309.3 168.5 299.3 168.5Z" fill="black"/>
<path d="M299.3 200.2C306.811 200.2 312.9 194.111 312.9 186.6C312.9 179.089 306.811 173 299.3 173C291.789 173 285.7 179.089 285.7 186.6C285.7 194.111 291.789 200.2 299.3 200.2Z" fill="white"/>
<path d="M299.3 200.5C291.6 200.5 285.4 194.3 285.4 186.6C285.4 178.9 291.6 172.7 299.3 172.7C307 172.7 313.2 178.9 313.2 186.6C313.1 194.3 306.9 200.5 299.3 200.5ZM299.3 173.3C291.9 173.3 286 179.3 286 186.6C286 194 292 199.9 299.3 199.9C306.7 199.9 312.6 193.9 312.6 186.6C312.6 179.3 306.6 173.3 299.3 173.3Z" fill="black"/>
<path d="M303.2 191.801C302.5 192.501 301.5 192.901 300.1 193.001V195.001H298.6V193.001C297.7 192.901 296.9 192.801 296.1 192.501C295.3 192.201 294.7 191.901 294.2 191.501L295 189.701C295.4 190.101 296 190.401 296.6 190.601C297.2 190.801 297.9 191.001 298.6 191.101V187.501C297.8 187.301 297 187.101 296.5 186.801C295.9 186.601 295.5 186.201 295.1 185.701C294.7 185.201 294.5 184.601 294.5 183.801C294.5 182.801 294.9 182.001 295.6 181.301C296.3 180.601 297.3 180.201 298.7 180.101V178.101H300.2V180.101C300.9 180.101 301.5 180.201 302.2 180.401C302.8 180.601 303.4 180.801 303.9 181.201L303.2 183.001C302.3 182.501 301.3 182.201 300.3 182.001V185.601C301.2 185.801 301.9 186.001 302.4 186.301C303 186.501 303.4 186.901 303.8 187.401C304.2 187.901 304.4 188.501 304.4 189.301C304.3 190.301 303.9 191.201 303.2 191.801ZM297.3 184.801C297.6 185.001 298.1 185.201 298.6 185.401V182.201C298 182.301 297.5 182.501 297.2 182.801C296.9 183.101 296.8 183.401 296.8 183.901C296.8 184.201 297 184.501 297.3 184.801ZM301.5 190.501C301.8 190.201 302 189.901 302 189.501C302 189.101 301.8 188.801 301.5 188.501C301.2 188.301 300.7 188.001 300.1 187.901V191.101C300.7 191.001 301.2 190.801 301.5 190.501Z" fill="black"/>
</svg>
