<?xml version="1.0" encoding="utf-8"?>
<!-- Generator: Adobe Illustrator 27.0.0, SVG Export Plug-In . SVG Version: 6.00 Build 0)  -->
<svg version="1.1" id="Layer_11" xmlns="http://www.w3.org/2000/svg" xmlns:xlink="http://www.w3.org/1999/xlink" x="0px" y="0px"
	 viewBox="0 0 500 303.1" style="enable-background:new 0 0 500 303.1;" xml:space="preserve">
<style type="text/css">
	.st0{fill:#E7F3FE;}
	.st1{fill:#A2DFF2;}
	.st2{fill:#96CFE0;}
	.st3{fill:#F37168;}
	.st4{fill:#2E5B9A;}
	.st5{fill:#F09959;}
	.st6{fill:#E38540;}
	.st7{fill:#75A1DE;}
	.st8{fill:#A86B48;}
	.st9{fill:#3E6BAB;}
	.st10{fill:#F0CEB4;}
	.st11{fill:#F7A96F;}
	.st12{fill:#A8CEFF;}
	.st13{fill:#6695D6;}
	.st14{fill:#303C60;}
	.st15{fill:#D54A41;}
	.st16{opacity:0.5;fill:url(#SVGID_1_);}
	.st17{fill:#9EC8FF;}
	.st18{fill:#FFFFFF;}
	.st19{opacity:0.5;fill:#9EC8FF;}
	.st20{opacity:0.5;}
	.st21{fill:#F39892;}
	.st22{fill:#9CD499;}
	.st23{clip-path:url(#SVGID_00000116236149535622774970000017419006733384814723_);fill:#A2DFF2;}
	.st24{clip-path:url(#SVGID_00000116236149535622774970000017419006733384814723_);fill:#9CD499;}
	.st25{clip-path:url(#SVGID_00000116236149535622774970000017419006733384814723_);fill:#9EC8FF;}
	.st26{clip-path:url(#SVGID_00000116236149535622774970000017419006733384814723_);fill:#F39892;}
	.st27{clip-path:url(#SVGID_00000116236149535622774970000017419006733384814723_);fill:#E7F3FE;}
</style>
<g>
	<path class="st0" d="M416,103.8c20.2-21-78.7-93.9-160.3-100.5c-75.1-6.1-174.4,23.5-73.6,67.3C278.2,112.3,405.5,114.7,416,103.8z
		"/>
	<path class="st0" d="M21.6,89.1c47.1-59.5,145.9,3.3,230.5,18.6c84.6,15.3,222.1-9,221.8,58c-0.4,71.4-30.9,111.6-198.2,130.8
		S31.7,256.6,9.8,193.6C-7.2,144.6,9,105,21.6,89.1z"/>
	<g>
		<path class="st1" d="M344.3,165.1c-6.9,14-15.6,52.3-17.9,54.4c-2.4,2.1-16,10.2-18.4,14.2c-2.4,3.9-1.3,2.6-0.3,2.9
			c1,0.3,60.4,0.5,60.4,0.5s-6.8-40.7-7.6-40.9C359.7,196,344.3,165.1,344.3,165.1z"/>
		<path class="st2" d="M334.5,237c10.9,0.1,22.4,0.1,28.7,0.2l-8.7-51.8c-4.6-9-10.2-20.2-10.2-20.2c-0.9,1.8-1.8,3.9-2.7,6.3
			c-0.9,38.9,4.7,49.8,0.5,56.8C338.8,233.7,335.8,236.1,334.5,237z"/>
	</g>
	<g>
		<path class="st1" d="M380.7,148.2c9.9,9.1,31.8,17.7,31.8,17.7s3.3,30.8,1.1,48.2c-2.3,17.4-1,21-1,21l-47.4,0.4
			c0,0-3.9-8.8-15-35c-7.1-16.7-5.8-35.4-5.8-35.4l27.5-12.4L380.7,148.2z"/>
		<path class="st2" d="M367.3,235.1h45.2c0,0-1.3-3.5,1-21c1.9-14.4-0.1-37.8-0.8-45.6l-4.1-1.8c-10.3,3-16.3,18.4-18,33.4
			c-1.2,10.1-17.9,20-28.8,25.4C365.4,232.5,367.3,235.1,367.3,235.1z"/>
		<path class="st2" d="M373.1,159.2c0,0,0.4,13,2.6,12.9c2.2-0.1,15.1-16.5,15.1-16.5l-2.2-1L373.1,159.2z"/>
		<path class="st2" d="M369.7,158.4c0,0-2.8,12-4.2,11.7c-1.4-0.3-3.3-12.4-3.3-12.4L369.7,158.4z"/>
		<path class="st3" d="M369.2,156.9l3.9,0.4l1.5,4.6c0,0-3.4,4-3.5,5.6c-0.1,1.6,0.7,7.6,0.8,13c0,5.4-1.9,27-1,40.3
			c0.9,13.2,0.9,13.2,0.9,13.2l-7.7,0.3c0,0-0.4-14.6,0-30.1s4.9-36.7,4.9-36.7l-1.8-5.4L369.2,156.9z"/>
		<path class="st4" d="M356.2,116.6c-5.5,12.1,1.1,23.4,0.9,22.9c-0.2-0.5,8.3-20.5,8.3-20.5L356.2,116.6z"/>
		<path class="st5" d="M376.9,125.6l6.9,25.3c0.2,0.7,0,1.5-0.4,2c-1.6,2-3.9,6.1-8.6,7.4c-0.9,0.3-2,0.3-2.9,0.3
			c-0.9,0-1.8-0.7-1.9-1.6l-4.6-24L376.9,125.6z"/>
		<path class="st6" d="M375.5,127.7l-2.5,1l-7.8,6.4l3,15.2l1.2,6.1C376.5,151.9,379.1,144.7,375.5,127.7z"/>
		<path class="st5" d="M375.1,137.1c0,8.5-5.1,15.1-11.4,14.9c-6.3-0.2-10.1-5-11.4-15.7c-1-8.4,1.5-18.2,7.7-18
			C366.4,118.4,375.1,128.6,375.1,137.1z"/>
		<path class="st1" d="M412.5,165.9c9.1,2.1,10.8,20.6,13.8,40.2c0.3,2.3,2.1,21.3,2.1,21.3s0.2,3.5-3.3,5.2
			c-3,1.5-4.2,2.6-21.5,2.8c-16.6,0.2-38.1-0.5-38.1-0.5s-0.2-6.2,1.5-9.2c2.6-4.5,28.9-11.1,31.3-11.4c0.3-4.9-2.4-22.6,1.4-34.6
			c2.6-8.3,5.4-12.6,9-13.7C409.8,165.7,411.1,165.6,412.5,165.9z"/>
		<path class="st2" d="M374.9,235.4c8.2,0.1,19.5,0.2,28.7,0.1c17.3-0.2,18.5-1.3,21.5-2.8c3.5-1.7,3.7-4.7,3.7-4.7
			s-1.8-20.3-2.1-22.6c-1.9-13.1-4-28.1-8.8-35.4c4.5,13.3,5.3,24.6,5.4,29.4c0,2.4-0.2,5.8-0.9,8.1c-0.8,2.6-2.8,4.2-5.9,3.3
			c-6.3-1.7-14.2,1.9-14.2,1.9s5.9-2.1,11.5-0.2c5.6,1.9,17.1,14.7,4.5,19.4C414.4,233.5,391.3,234.7,374.9,235.4z"/>
		<path class="st2" d="M368.4,226.4c0,0,2.3-4,7.1-4c4.8,0,4.4,7.8,3.7,10.4c-0.7,2.6-3.5,2.7-3.5,2.7l-9.6-0.2L368.4,226.4z"/>
		<path class="st7" d="M273.7,235.6H354c0-2.2-1.8-4-4-4h-76.3V235.6z"/>
		<path class="st5" d="M366.6,225.8c-9.7-4.5-12.4-3.3-14.6-4.2c-5.4-2.1-7-0.8-11.4,8.7c-0.9,1.9,1.2,2.2,3.3,2.4
			c2.1,0.2,5-3.7,5.8-4.1c0.9-0.4,3.1-0.4,3.1-0.4s-0.7-0.1-1.9,1.9c-1.2,2-2.6,2.7-0.9,2.8c1.6,0.1,2.1-2.5,5.1-1.7
			c3,0.8,2.4,3.7,9.9,3.4c7.2-0.2,12.6,0.5,12.8-4.1c0.3-4.3,0.9-6.4-3.1-7.5C371.6,222.4,366.6,225.8,366.6,225.8z"/>
		<path class="st8" d="M366.7,225.8c6.7-0.2,4.1,8,3.3,8.6c-0.8,0.6,3.7,0.6,3.7,0.6s2.4-3.2,0.9-7.1c-1.4-4-4.9-4.5-4.9-4.5
			l-3.1,1.4L366.7,225.8z"/>
		<path class="st4" d="M373.5,224.2c0.1,1-1.6,2-3.7,2.1c-2.1,0.1-3.8-0.6-3.9-1.7c-0.1-1,1.6-2,3.7-2.1
			C371.7,222.4,373.4,223.1,373.5,224.2z"/>
		<path class="st9" d="M372.9,223.7c0,0.9-1.4,1.8-3.3,1.9c-1.9,0.1-3.4-0.6-3.5-1.5c0-0.9,1.4-1.8,3.3-1.9
			C371.3,222.1,372.8,222.8,372.9,223.7z"/>
		<path class="st10" d="M371.7,223.5c0,0.7-1,1.3-2.4,1.3c-1.3,0.1-2.5-0.4-2.5-1.1c0-0.7,1-1.3,2.4-1.3
			C370.5,222.3,371.6,222.8,371.7,223.5z"/>
		<path class="st5" d="M314.1,226.4c5-2.8,11.1-1.8,13.3,0.9c2.2,2.8,2.6,4.6-2.4,4.6c-5,0-14.9,0.4-16.6,0.2
			C306.8,232,314.1,226.4,314.1,226.4z"/>
		<path class="st5" d="M320.6,225.5c5.4-1.3,9,1.8,13.5,4.8c3.9,2.6,4.7,5.1,0.4,3c-6.3-3.1-10-3.5-10-3.5L320.6,225.5z"/>
		<path class="st5" d="M314.6,227.9c-2.7,0-5.1-0.9-7-0.7c-1.9,0.2-7.9,6.4-7,6.8c0.1,0,0.1,0.1,0.2,0.1c1.4,0.5,3.1-0.1,3.9-1.4
			c0.9-1.4,2.2-3,3.9-2.4c2.7,1,5.5,0.9,5.5,0.9L314.6,227.9z"/>
		<path class="st11" d="M315.1,233.1c-2.8-1.1,1.7-10.3,3.1-10.3s7,4.4,7,4.4s-1.3,0.7-5.7-0.7c-1.1-0.4-2,5.9-3.3,6.6
			C314.9,233.8,315.1,233.1,315.1,233.1z"/>
		<polygon class="st1" points="368.4,151.4 369.7,158.3 365.9,166.5 361.8,157.8 		"/>
		<path class="st4" d="M353.2,141c1.6,10,5.3,11.1,7.9,12c2.6,0.9,12.5-3.2,13.5-6c2.7-7-1.6-12.3-0.8-12.4c0.9-0.1,2.1,2.2,5,5
			c0.3,0.3,2.1,2,2,1.3c-0.6-9.1,3.5-12.8,0.8-21.6c-2-6.5-6.2-5.2-6.2-5.2s-3.8-5.1-12.1-2.9c-5.6,1.5-10.3,4.6-15.9,7.2
			c-5.6,2.6,9.7,13.5,16.4,7.3c6.7-6.3,4.9,5.1,6.3,5.7c1.4,0.6,0.6,0,2.2,5.4c1.6,5.4-4.7,10.2-6.6,11.1c-6.1,2.7-7.4,1.8-9.2-0.3
			C354.8,145.8,353.2,141,353.2,141z"/>
		<path class="st5" d="M379,133c-0.3,2.7-1.8,4.6-3.3,4.4c-1.6-0.2-2-2.3-2.4-5.2c-0.3-2.7,1.8-4.6,3.3-4.4
			C378.2,128,379.3,130.3,379,133z"/>
		<path class="st1" d="M383.2,148.8l6.9,6.4c0,0-13.2,12.5-14.4,12.3c-1.1-0.1-3.1-10.6-3.1-10.6L383.2,148.8z"/>
		<path class="st1" d="M372.8,156.8c-1.3,0.6-0.9,2.4-1.4,3c-0.5,0.6-0.9,0.8-1.3-0.1c-0.4-0.9-0.4-2.9-0.7-3
			c-0.3-0.1-2.9,7.9-2.9,7.9s1.9-5.1,2.3-4.5c0.4,0.6,0.1,1.1,1.6,1.2c1.6,0.1,3.5-0.6,3.5-0.6L372.8,156.8z"/>
	</g>
	<g>
		<path class="st12" d="M273.6,235.6h42.9l-18.2-40.1c-0.5-1.2-1.7-1.9-3-1.9h-38.8c-0.9,0-1.6,1-1.2,1.8L273.6,235.6z"/>
		<path class="st7" d="M252.3,193.6h39.6c1.3,0,2.5,0.8,3,1.9l18.2,40.1h-43.7l-18.3-40.2C250.7,194.6,251.3,193.6,252.3,193.6z"/>
		<path class="st13" d="M272.9,217c1.5,3.1,3.9,5,5.4,4.3c1.5-0.7,1.5-3.8,0-7c-1.5-3.1-3.9-5-5.4-4.3
			C271.4,210.7,271.4,213.8,272.9,217z"/>
	</g>
	<g>
		<g>
			<path class="st14" d="M119.5,164c-0.7,0-1.3,0-2-0.1c-0.5,0-1.1-0.1-1.6-0.1c-0.2,0-0.3-0.2-0.3-0.3c0-0.2,0.2-0.3,0.3-0.3
				c0.5,0,1.1,0,1.6,0.1c4,0.2,8.2,0.4,12.3-7.4c1.8-3.4,3.7-10,3.3-17.4c-0.3-6.1-2.4-14.7-10.4-21.4c-0.1-0.1-0.2-0.3,0-0.5
				c0.1-0.1,0.3-0.2,0.5,0c8.2,6.8,10.3,15.7,10.6,21.9c0.4,7.6-1.6,14.3-3.4,17.7C126.9,163.1,123.1,164,119.5,164z"/>
		</g>
		<g>
			<path class="st14" d="M118.3,162.4c-0.2,0-0.3,0-0.5,0c-0.2,0-0.3-0.2-0.3-0.4c0-0.2,0.2-0.3,0.4-0.3c0.1,0,0.3,0,0.4,0
				c4.2,0,8.1-3,10.7-8.2c4.3-8.7,4.7-22.9-3-32.1c-0.1-0.1-0.1-0.4,0-0.5c0.1-0.1,0.4-0.1,0.5,0c7.9,9.5,7.5,24,3.1,32.9
				C126.8,159.3,122.7,162.4,118.3,162.4z"/>
		</g>
		<path class="st14" d="M103.2,119.2c12.2-9.4,23.6-4.4,27.7,8.3c3.8,11.9-1.1,37.6-19.2,33.1c-18.8-4.6-20.4-10.4-20.2-18.7
			C91.6,135.2,94.4,126,103.2,119.2z"/>
		<path class="st1" d="M96.9,157l-17.4,6.5c0,0,4.9,35.3,5.3,48.8c0.4,13.5-6.4,25.2-6.4,25.2h45.5c0,0,6.3-36.8,5-49.7
			c-1.3-12.9-9.9-26.3-10.3-26.7s-10.9-2.7-10.9-2.7L96.9,157z"/>
		<path class="st15" d="M127.5,200.5c0,0,1.8,16.4,2.5,17.3c0.7,0.8,27.4,13.9,27.4,13.9l-38.8,2.6L127.5,200.5z"/>
		<path class="st15" d="M118.6,161.2c4.3,0.1,5.5,7.1,6.5,12.4C126.1,178.8,118.6,161.2,118.6,161.2z"/>
		<path class="st3" d="M111.2,189.1c-2.4-8.5-15.1-32.1-15.1-32.1l-16.6,6.5c0,0,3.8,27.7,5,43.4l6.3,30.6h20.4
			C111.2,237.6,113.5,197.6,111.2,189.1z"/>
		<polygon class="st15" points="87.7,222.7 106.5,218.4 104.9,234.4 		"/>
		<path class="st15" d="M97.1,227.1c-3.1-4.1-6.1-8.7-3.1-18.2c2.9-9.5,3.2-12.9,2.2-21.6c-1-8.6-5.7-22.4-14.7-22.8
			c0,0-0.3,3-0.8,7.8c1.5,11.4,3.8,30.8,4.1,40c0.4,13.5-6.4,25.2-6.4,25.2l37,0.8C115.4,238.4,100.1,231.3,97.1,227.1z"/>
		<path class="st3" d="M128.9,187.9c-1.3-12.9-9.9-26.3-10.3-26.7c-0.3-0.2-4.3-1.2-7.4-1.9c0.9,2.1,10.5,24.9,10.1,34.3
			c-0.4,9.8,0,44,0,44h2.6C123.8,237.6,130.1,200.8,128.9,187.9z"/>
	</g>
	<linearGradient id="SVGID_1_" gradientUnits="userSpaceOnUse" x1="243.7284" y1="244.7866" x2="243.7284" y2="313.2502">
		<stop  offset="0" style="stop-color:#9EC8FF"/>
		<stop  offset="1" style="stop-color:#E7F3FE"/>
	</linearGradient>
	<path class="st16" d="M220.9,266.8c-0.5-0.2-0.9-0.4-1.3-0.6c-0.4-0.2-0.7-0.5-0.9-0.8c-0.3-0.4-0.5-0.7-0.8-1.1
		c-0.6,1.3-1.6,2.2-3,2.5c0.3,0.1,0.5,0.2,0.7,0.3c1.7,0.7,2.5,2.5,2,4.2c-0.4,1.3-1.7,2.7-3.8,2.4c-1.8-0.2-2.9-1.8-2.9-3.2
		c-0.1-1.5,0.8-2.9,2.2-3.4c0.2-0.1,0.3-0.1,0.6-0.2c-0.4-0.2-0.9-0.4-1.2-0.5c-0.4-0.2-0.7-0.5-1-0.8c-0.3-0.3-0.5-0.7-0.8-1.1
		c-0.2,0.1-0.2,0.3-0.3,0.4c-0.1,0.2-0.2,0.4-0.4,0.5c-0.1,0.1-0.3,0.3-0.4,0.4c-0.1,0.1-0.3,0.2-0.4,0.4c-0.2,0.1-0.3,0.2-0.5,0.3
		c-0.2,0.1-0.4,0.2-0.6,0.2c-0.2,0.1-0.4,0.1-0.6,0.2c0.2,0.1,0.4,0.1,0.6,0.2c1.7,0.6,2.4,2.1,2.4,3.4c-0.1,1.6-1.2,3-2.8,3.3
		c-1.6,0.3-3.1-0.6-3.8-2c-0.8-1.9,0.2-4,2.1-4.6c0.2-0.1,0.3-0.1,0.6-0.2c-0.8-0.3-1.5-0.5-2.1-1c-0.6-0.5-1-1.1-1.2-1.8
		c-0.2,0-0.2,0.2-0.3,0.3c-0.5,1.2-1.4,1.9-2.7,2.2c-1.2,0.3-2.2,0-3.2-0.7c-0.5-0.4-0.9-0.9-1.1-1.5c-0.1-0.1,0-0.3-0.3-0.4
		c-0.8,1.8-2.1,2.8-4.1,2.6c-1.6-0.2-2.7-1.3-3.3-3.1c-0.2,0.1-0.2,0.3-0.2,0.4c-0.3,1-0.9,1.8-1.9,2.3c-1.8,1-4.2,0.2-5-1.7
		c-0.1-0.3-0.2-0.6-0.3-0.9c-0.2,0.1-0.2,0.3-0.2,0.4c-0.2,0.5-0.4,1-0.8,1.4c-1.1,1.1-2.3,1.4-3.8,0.9c-1.5-0.5-2.3-1.6-2.5-3.1
		c-0.1-1.5,0.5-2.6,1.8-3.4c0.1-0.1,0.3-0.2,0.4-0.3c0,0,0,0,0-0.1c-0.1-0.2-0.4-0.2-0.6-0.3c-0.2-0.1-0.4-0.2-0.6-0.4
		c-0.2-0.1-0.3-0.3-0.5-0.4c-0.2-0.2-0.3-0.3-0.4-0.5c-0.1-0.2-0.3-0.4-0.4-0.6c-0.1,0.1-0.1,0.1-0.2,0.2c-0.6,1-1.4,1.6-2.5,1.9
		c0,0-0.1,0-0.1,0.1c0.1,0.2,0.3,0.2,0.5,0.3c0.7,0.3,1.3,0.8,1.7,1.5c0.7,1.3,0.6,2.9-0.4,4c-0.9,1.1-2.5,1.6-3.8,1.1
		c-1.5-0.5-2.4-1.8-2.4-3.3c0-1.5,0.8-2.7,2.1-3.4c0.2-0.1,0.3-0.2,0.6-0.3c-0.7-0.3-1.3-0.5-1.8-1c-0.5-0.4-0.8-1-1.1-1.6
		c-0.2,0-0.2,0.1-0.2,0.2c-0.1,0.1-0.1,0.1-0.1,0.2c-0.6,1.1-1.5,1.7-2.7,1.9c-1.5,0.3-2.7-0.2-3.7-1.4c-0.2-0.2-0.3-0.5-0.5-0.8
		c-0.1-0.1-0.1-0.3-0.2-0.4c-0.2,0-0.2,0.1-0.2,0.2c0,0.1-0.1,0.2-0.1,0.2c-0.3,0.7-0.8,1.2-1.5,1.6c-2.1,1.2-4.8,0.1-5.5-2.3
		c0-0.2-0.1-0.4-0.1-0.6c-0.2,0-0.2,0.2-0.2,0.4c-0.3,1.2-0.9,2-2,2.5c-1.3,0.6-2.6,0.5-3.8-0.4c-1.1-0.9-1.6-2.1-1.4-3.5
		c0.2-1.2,0.8-2.1,1.9-2.7c0.1-0.1,0.3-0.1,0.4-0.2c0,0,0,0,0,0c-2-1.1-1.8-1.3-2.6-2.3c-0.2,0.2-0.3,0.4-0.4,0.6
		c-0.2,0.2-0.3,0.4-0.5,0.6c-0.2,0.2-0.4,0.3-0.6,0.5c-0.2,0.1-0.4,0.2-0.7,0.3c-0.2,0.1-0.5,0.2-0.8,0.3c0.3,0.1,0.5,0.2,0.7,0.3
		c0.9,0.3,1.5,0.9,1.9,1.7c0.7,1.3,0.5,2.8-0.5,3.9c-0.9,1.1-2.5,1.5-3.8,1c-1.3-0.4-2.3-1.6-2.4-3.2c-0.1-1.4,0.7-2.8,2.1-3.3
		c0.3-0.1,0.5-0.2,0.8-0.3c-0.1-0.2-0.3-0.1-0.4-0.2c-0.1-0.1-0.3-0.1-0.4-0.1c-0.1-0.1-0.3-0.1-0.4-0.2c-0.1-0.1-0.3-0.1-0.4-0.2
		c-0.1-0.1-0.3-0.2-0.4-0.3c-0.1-0.1-0.2-0.2-0.3-0.3c-0.1-0.1-0.2-0.2-0.3-0.3c-0.1-0.1-0.2-0.2-0.2-0.4c-0.1-0.1-0.1-0.3-0.2-0.4
		c-0.1-0.1-0.1-0.2-0.2-0.4c-0.2,0.3-0.3,0.6-0.4,0.8c-0.2,0.2-0.3,0.5-0.5,0.7c-0.2,0.2-0.4,0.4-0.7,0.6c-0.2,0.2-0.5,0.3-0.8,0.4
		c-0.3,0.1-0.6,0.2-0.9,0.2c-0.3,0-0.6,0-0.9,0c-0.8-0.1-1.5-0.4-2.1-1c-0.6-0.6-0.9-1.3-1.1-2.1c-0.1,0.2-0.2,0.4-0.2,0.6
		c-0.5,1.4-1.9,2.6-3.9,2.4c-1.6-0.2-2.9-1.6-3.1-3.1c-0.2-1.5,0.6-3,2-3.7c0.1-0.1,0.3-0.2,0.4-0.2c0,0,0,0,0-0.1
		c-0.2-0.2-0.5-0.2-0.7-0.4c-0.2-0.1-0.4-0.3-0.6-0.4c-0.2-0.2-0.4-0.4-0.6-0.6c-0.2-0.2-0.3-0.4-0.4-0.6c-0.1-0.2-0.2-0.5-0.4-0.8
		c-0.2,0.2-0.2,0.4-0.3,0.6c-0.5,0.9-1.2,1.6-2.2,1.9c-1.6,0.6-3.4-0.2-4.2-1.3c-0.9-1.2-1-2.5-0.4-3.9c0-0.1,0.1-0.1,0.1-0.2
		c0-0.1,0.1-0.1,0.1-0.2c0.7-0.1,1.4,0,2,0c0.7,0,1.3,0,2,0c0.7,0,1.4,0,2.1,0c0.2,0.3,0.4,0.7,0.6,1c0.2-0.4,0.3-0.7,0.5-1
		c0.1,0,0.3,0,0.4,0c1.9,0,3.9,0,5.8,0c0.3,0,0.3,0,0.7,0.2c0.3-0.2,0.3-0.2,0.7-0.2c0.2,0,0.3,0,0.5,0c71.3,0,142.5,0,213.8,0
		c0.2,0,0.3,0,0.5,0c0.3,0,0.3,0,0.7,0.2c0.3-0.2,0.3-0.2,0.6-0.2c2,0,4.1,0,6.1,0c0.1,0,0.1,0,0.2,0c0.1,0.2,0.3,0.4,0.4,0.7
		c0.2-0.3,0.3-0.5,0.5-0.7c2.1,0,4.1,0,6.2,0c0.4,0.4,0.5,1,0.7,1.6c0.2,0,0.2-0.1,0.2-0.1c0.1-0.5,0.3-1,0.6-1.4
		c0.5-0.1,1,0,1.5-0.1c0.5,0,1,0,1.5,0c0.5,0,1,0,1.5,0c0.5,0,1,0,1.4,0c0.8,0.9,1,2.6,0.3,3.9c-0.7,1.2-2.1,2-3.5,1.8
		c-1.6-0.2-2.7-1.2-3.3-3.1c-0.2,0-0.2,0.2-0.2,0.3c-0.2,0.8-0.6,1.5-1.2,2.1c-0.3,0.3-0.7,0.5-1.1,0.7c-0.3,0.1-0.5,0.2-0.9,0.3
		c0.3,0.1,0.5,0.2,0.7,0.3c0.7,0.2,1.3,0.7,1.7,1.3c0.8,1.2,0.9,2.5,0.2,3.8c-0.7,1.2-1.8,1.9-3.3,1.8c-1.4-0.1-2.5-0.8-3.1-2.2
		c-0.8-1.9,0.3-4,2-4.6c0.2-0.1,0.4-0.2,0.7-0.3c-1.2-0.5-1.6-0.2-3-2.4c-0.8,1.2-0.6,1.3-2.6,2.5c0.1,0.1,0.3,0.2,0.4,0.2
		c1.2,0.6,1.9,1.6,2,2.9c0.2,1.8-1.1,3.5-2.8,3.9c-1.9,0.4-3.6-0.6-4.2-2.3c-0.1-0.2-0.1-0.4-0.2-0.7c-0.1,0.2-0.1,0.3-0.2,0.4
		c-0.2,0.6-0.5,1.2-0.9,1.7c-1.8,1.9-4.8,1.5-6.1-0.8c-0.1-0.2-0.2-0.4-0.3-0.7c-0.3,0.7-0.6,1.3-1.2,1.8c-0.5,0.5-1.2,0.8-1.8,1
		c0,0.1,0.1,0.2,0.1,0.2c0.4,0.1,0.8,0.3,1.1,0.6c1.2,0.9,1.7,2.5,1.2,4c-0.5,1.4-1.8,2.4-3.3,2.4c-1.4,0-3.2-0.8-3.6-2.9
		c-0.3-1.6,0.6-3.3,2.1-4c0.2-0.1,0.3-0.1,0.5-0.2c0-0.1,0-0.2-0.1-0.2c-0.4-0.1-0.9-0.3-1.3-0.6c-0.4-0.3-0.8-0.7-1-1.1
		c-0.1-0.1-0.2-0.2-0.3-0.4c-0.4,0.5-0.6,1-1.1,1.3c-0.4,0.3-0.9,0.6-1.4,0.9c2.1,1,2.6,3,2.3,4.3c-0.4,1.5-1.6,2.6-3.2,2.8
		c-0.6,0.1-1.2,0-1.8-0.2c-0.6-0.2-1.1-0.6-1.5-1.1c-0.4-0.5-0.6-1-0.8-1.6c-0.3,0.1-0.2,0.3-0.3,0.4c-0.3,1-0.9,1.8-1.8,2.2
		c-1.9,1-4.2,0.3-5.2-1.6c-0.1-0.2-0.2-0.3-0.2-0.5c-0.3,0.4-0.5,0.9-0.8,1.3c-0.3,0.4-0.7,0.7-1.1,0.9c-0.5,0.2-0.9,0.3-1.4,0.5
		c0.1,0.1,0.2,0.1,0.3,0.1c0.9,0.2,1.7,0.7,2.2,1.5c1.2,1.8,0.4,4.3-1.6,5.1c-1.7,0.7-3.6,0-4.5-1.7c-0.8-1.7-0.2-3.6,1.4-4.6
		c0.4-0.2,0.9-0.4,1.4-0.6c-0.1,0-0.2-0.1-0.2-0.1c-1.3-0.3-2.3-1-2.9-2.2c0-0.1-0.1-0.1-0.2-0.2c-0.3,0.6-0.6,1.1-1.1,1.5
		c-0.5,0.4-1.1,0.7-1.7,0.9c0.1,0.2,0.2,0.2,0.4,0.3c0.5,0.2,0.9,0.5,1.2,0.9c1,1.1,1.2,2.4,0.7,3.8c-0.6,1.4-1.7,2.2-3.2,2.2
		c-1.5,0.1-2.6-0.7-3.3-2c-1-1.9,0-4.1,1.7-4.8c0.2-0.1,0.3-0.2,0.6-0.3c-0.2-0.2-0.4-0.2-0.6-0.3c-0.2-0.1-0.4-0.2-0.6-0.3
		c-0.2-0.1-0.4-0.3-0.6-0.4c-0.2-0.1-0.3-0.3-0.4-0.5c-0.1-0.2-0.3-0.4-0.4-0.6c-0.2,0.2-0.3,0.5-0.5,0.6c-0.2,0.2-0.4,0.4-0.6,0.6
		c-0.2,0.2-0.4,0.3-0.6,0.4c-0.2,0.1-0.5,0.3-0.7,0.4c0,0.2,0.1,0.2,0.2,0.3c1.2,0.6,1.9,1.7,2,3c0.1,1-0.2,1.8-0.8,2.6
		c-1,1.2-2.3,1.6-3.7,1.2c-1.4-0.4-2.3-1.4-2.6-2.8c-0.3-1.5,0.4-3,1.8-3.8c0.2-0.1,0.4-0.1,0.5-0.3c-0.3-0.2-0.6-0.3-0.9-0.5
		c-0.3-0.2-0.5-0.4-0.7-0.6c-0.2-0.2-0.4-0.5-0.7-0.8c-0.3,0.4-0.6,0.8-1,1.1c-0.4,0.3-0.8,0.5-1.2,0.8c0.1,0.1,0.2,0.2,0.3,0.3
		c0.8,0.5,1.3,1.2,1.6,2.1c0.4,1.5,0,2.8-1.1,3.8c-1.9,1.7-4.9,1-5.9-1.4c-0.1-0.2-0.2-0.5-0.3-0.7c-0.2,0.2-0.2,0.4-0.3,0.6
		c-0.6,1.4-1.6,2.3-3.2,2.5c-1.5,0.2-3-0.6-3.7-1.9c-0.1-0.2-0.2-0.4-0.3-0.7c-0.1,0.1-0.2,0.2-0.2,0.3c-0.6,1.3-1.6,2.1-3,2.3
		c-1.1,0.2-2-0.2-2.9-0.8c-0.5-0.4-0.9-0.9-1.1-1.4c-0.1-0.1-0.1-0.3-0.2-0.5c-0.1,0.1-0.1,0.2-0.2,0.3c-0.5,1.2-1.4,2-2.7,2.4
		c-0.1,0-0.2,0.1-0.4,0.1c0.2,0.1,0.4,0.1,0.6,0.2c1.8,0.6,2.7,2.4,2.2,4.2c-0.3,1.3-1.5,2.3-2.9,2.5c-1.4,0.2-2.8-0.5-3.5-1.7
		c-1.1-1.9-0.1-4.3,2-5c0.2-0.1,0.3-0.1,0.5-0.2c-0.5-0.2-0.9-0.3-1.3-0.5c-0.4-0.2-0.8-0.5-1-0.8c-0.3-0.4-0.5-0.7-0.8-1.1
		c-1.1,1.8-1.4,1.8-2.9,2.4c0.2,0.1,0.4,0.2,0.7,0.3c1.4,0.7,2.2,2.2,2,3.7c-0.3,1.5-1.5,2.7-3,2.9c-1.6,0.2-3-0.7-3.6-2.2
		c-0.7-1.7,0.1-3.6,1.8-4.4c0.2-0.1,0.4-0.2,0.7-0.3c-1.4-0.6-1.7-0.6-2.9-2.5c-0.9,1.4-0.9,1.6-2.8,2.5c0.2,0.1,0.4,0.2,0.5,0.3
		c1,0.4,1.6,1.2,1.9,2.2c0.6,1.9-0.6,4-2.6,4.4c-2,0.4-3.9-0.9-4.2-3c-0.2-1.4,0.5-2.8,1.8-3.4c0.2-0.1,0.5-0.2,0.8-0.4
		c-0.3-0.2-0.6-0.2-0.8-0.4c-0.3-0.2-0.5-0.3-0.8-0.5c-0.2-0.2-0.4-0.4-0.6-0.6c-0.2-0.2-0.3-0.5-0.5-0.7c-0.1,0-0.2,0-0.2,0.1
		c-0.5,0.9-1.3,1.6-2.3,2c-0.1,0-0.1,0.1-0.3,0.1c0.2,0.1,0.4,0.2,0.5,0.3c0.8,0.4,1.3,0.9,1.7,1.7c1,2.1-0.3,4.5-2.4,4.9
		c-2,0.4-4-0.9-4.3-3.2c-0.1-1.4,0.6-2.7,1.9-3.4c0.2-0.1,0.4-0.1,0.6-0.3c-0.6-0.3-1.2-0.5-1.7-0.9c-0.5-0.4-0.8-0.9-1.1-1.5
		c-0.3,0.6-0.6,1.1-1.1,1.5c-0.5,0.4-1,0.7-1.6,0.9c0.1,0.3,0.3,0.2,0.4,0.3c0.8,0.4,1.4,1,1.8,1.8c0.9,2.1-0.5,4.4-2.5,4.8
		c-1.8,0.4-4.1-0.8-4.2-3.3c0-1.4,0.6-2.5,1.9-3.2c0.2-0.1,0.4-0.2,0.7-0.3c-0.4-0.2-0.8-0.4-1.2-0.6c-0.3-0.2-0.6-0.5-0.9-0.8
		c-0.3-0.3-0.5-0.7-0.7-1.1c-0.2,0.1-0.2,0.4-0.4,0.6c-0.2,0.2-0.3,0.4-0.5,0.6c-0.2,0.2-0.4,0.3-0.6,0.5c-0.2,0.1-0.4,0.3-0.6,0.4
		c-0.2,0.1-0.4,0.2-0.7,0.3c0.2,0.1,0.4,0.2,0.6,0.3c1.2,0.6,1.8,1.5,2,2.8c0.2,1.7-1,3.4-2.7,3.8c-2,0.5-4.2-0.8-4.3-3.2
		c-0.1-1.4,0.5-2.5,1.8-3.3c0.2-0.1,0.4-0.2,0.7-0.3c0-0.2-0.2-0.2-0.3-0.2c-0.1-0.1-0.3-0.1-0.4-0.2c-0.1-0.1-0.2-0.1-0.3-0.2
		c-0.1-0.1-0.2-0.1-0.3-0.2c-0.1-0.1-0.2-0.2-0.3-0.3c-0.1-0.1-0.2-0.2-0.3-0.3c-0.1-0.1-0.2-0.2-0.2-0.3c-0.1-0.1-0.2-0.2-0.2-0.4
		c-0.1-0.1-0.1-0.2-0.2-0.3c-0.2,0.2-0.3,0.4-0.4,0.6c-0.1,0.2-0.3,0.4-0.4,0.5c-0.2,0.2-0.4,0.3-0.6,0.5c-0.2,0.1-0.4,0.2-0.6,0.3
		c-0.2,0.1-0.5,0.2-0.7,0.3c0,0.2,0.2,0.2,0.3,0.2c0.8,0.3,1.4,0.8,1.8,1.5c0.6,1.2,0.6,2.4-0.1,3.5c-0.7,1.2-1.8,1.7-3.1,1.6
		c-2.2-0.1-3.7-2.1-3.2-4.2c0.2-1.1,0.9-1.9,1.9-2.4C220.5,267,220.7,266.9,220.9,266.8z M342.6,244.4c0.8,0.8,1.2,0.5,2.1,2.9
		c0.1-0.3,0.2-0.5,0.3-0.8c0.1-0.2,0.2-0.5,0.4-0.7c0.2-0.2,0.3-0.4,0.5-0.6c0.2-0.2,0.4-0.3,0.6-0.5c0.2-0.2,0.5-0.2,0.7-0.4
		c-0.5-0.3-0.9-0.5-1.3-0.9c-0.4-0.3-0.7-0.8-1.1-1.2c-0.2,0.3-0.4,0.6-0.6,0.8c-0.2,0.3-0.5,0.5-0.7,0.7
		C343.2,244,342.9,244.2,342.6,244.4z M126.1,244.4c0.7,0.3,1.3,0.6,1.7,1.1c0.5,0.5,0.7,1.1,0.9,1.8c0,0,0.1-0.1,0.1-0.1
		c0-0.1,0.1-0.2,0.1-0.2c0.3-1,0.9-1.8,1.9-2.3c0.1,0,0.1-0.1,0.2-0.2c-0.4-0.3-0.9-0.6-1.2-0.9c-0.4-0.4-0.7-0.8-1-1.2
		C127.5,243.7,127.5,243.7,126.1,244.4z M151,255c0.5-1.6,0.4-1.7,2.1-3.1c-0.4-0.3-0.8-0.5-1.2-0.9c-0.4-0.3-0.7-0.7-1-1.1
		c-0.4,0.4-0.7,0.8-1.1,1.1c-0.4,0.3-0.9,0.5-1.3,0.8c0.3,0.2,0.6,0.3,0.9,0.5c0.3,0.2,0.5,0.4,0.7,0.7c0.2,0.3,0.4,0.6,0.5,0.9
		C150.8,254.3,150.9,254.6,151,255z M180.8,257.6c-0.2,0.2-0.3,0.4-0.5,0.6c-0.2,0.2-0.3,0.3-0.5,0.5c-0.2,0.2-0.4,0.3-0.6,0.4
		c-0.2,0.1-0.5,0.2-0.7,0.4c0.2,0.1,0.3,0.2,0.4,0.2c0.3,0.2,0.6,0.4,0.9,0.6c0.4,0.4,0.7,0.9,0.9,1.4c0.1,0.2,0,0.4,0.3,0.5
		c0-0.1,0.1-0.1,0.1-0.2c0.3-1.1,0.9-1.9,1.9-2.4c0.1,0,0.1-0.1,0.1-0.2c-0.4-0.3-0.8-0.5-1.2-0.8
		C181.4,258.3,181.1,258,180.8,257.6z M322.3,254.7c0.9-2.2,1.3-2.1,2.4-2.8c-0.4-0.2-0.9-0.5-1.2-0.8c-0.4-0.3-0.7-0.7-1.1-1.1
		c-0.2,0.3-0.4,0.5-0.6,0.7c-0.2,0.2-0.5,0.5-0.7,0.7c-0.2,0.2-0.5,0.3-0.8,0.5C321.2,252.7,321.6,252.7,322.3,254.7z M190.3,259.5
		c-0.4-0.3-0.8-0.5-1.1-0.8c-0.3-0.3-0.6-0.7-0.9-1c-0.3,0.3-0.6,0.7-1,1c-0.4,0.3-0.8,0.5-1.2,0.8c0.1,0.1,0.1,0.1,0.2,0.2
		c1,0.5,1.6,1.3,1.9,2.4c0,0.1,0.1,0.2,0.2,0.3c0.1-0.3,0.2-0.6,0.3-0.9c0.1-0.2,0.2-0.5,0.4-0.7c0.2-0.2,0.4-0.5,0.6-0.7
		C189.8,259.9,190,259.7,190.3,259.5z M285.1,257.8c-0.1,0.1-0.1,0.1-0.2,0.2c-0.4,0.6-1,1.1-1.7,1.4c-0.1,0-0.1,0.1-0.1,0.2
		c1.2,0.9,1.3,1.1,1.8,2.5c0,0.1,0.1,0.1,0.1,0.2c0.2-0.7,0.4-1.2,0.7-1.7c0.4-0.5,0.8-0.8,1.3-1.2c-0.4-0.3-0.8-0.5-1.1-0.7
		C285.7,258.5,285.4,258.1,285.1,257.8z M136.1,246.8c0.5-1,0.4-1.1,1.7-2.3c-0.2-0.2-0.5-0.3-0.7-0.5c-0.2-0.2-0.4-0.4-0.6-0.6
		c-0.2-0.2-0.3-0.5-0.6-0.7c-0.1,0.1-0.1,0.2-0.2,0.2c-0.4,0.5-0.9,1-1.5,1.3c-0.1,0-0.2,0.1-0.2,0.2
		C135.1,245.2,135.2,245.1,136.1,246.8z M195.7,261.8c0.1-0.1,0.2-0.1,0.2-0.2c0.3-0.8,0.8-1.4,1.5-1.9c0.1,0,0.1-0.1,0.1-0.2
		c-0.3-0.2-0.7-0.4-1-0.7c-0.3-0.3-0.6-0.5-0.8-0.8c-0.2,0.2-0.4,0.4-0.6,0.5c-0.2,0.2-0.4,0.3-0.6,0.5c-0.2,0.1-0.4,0.3-0.6,0.4
		c0.4,0.3,0.8,0.7,1.1,1C195.3,260.8,195.5,261.3,195.7,261.8z M158.4,250.4c-0.2,0.2-0.4,0.4-0.6,0.6c-0.2,0.2-0.4,0.3-0.6,0.5
		c-0.2,0.2-0.5,0.2-0.7,0.5c0.2,0.2,0.4,0.3,0.6,0.5c0.2,0.1,0.3,0.3,0.5,0.5c0.2,0.2,0.3,0.4,0.4,0.6c0.1,0.2,0.2,0.4,0.4,0.7
		c0.3-0.4,0.5-0.9,0.8-1.2c0.3-0.4,0.6-0.6,1-1c-0.3-0.2-0.6-0.4-0.9-0.7C158.9,251.1,158.7,250.7,158.4,250.4z M339.2,244.4
		c-0.7-0.4-1.4-0.9-1.8-1.5c-0.2,0.2-0.4,0.5-0.5,0.7c-0.2,0.2-0.4,0.4-0.5,0.5c-0.2,0.2-0.4,0.3-0.6,0.5c0.3,0.3,0.7,0.6,0.9,1
		c0.3,0.3,0.4,0.7,0.7,1.1C338.3,244.9,338.4,245.1,339.2,244.4z M277.7,258.1c-0.3,0.3-0.6,0.6-0.8,0.8c-0.3,0.2-0.6,0.4-0.9,0.7
		c0.4,0.4,0.7,0.7,1,1c0.3,0.4,0.5,0.8,0.7,1.1c0.3-0.4,0.5-0.9,0.8-1.2c0.3-0.4,0.7-0.6,1-1c-0.3-0.2-0.7-0.4-1-0.6
		C278.2,258.6,278,258.3,277.7,258.1z M313.2,252c0.2,0.2,0.5,0.4,0.7,0.6c0.2,0.2,0.4,0.5,0.6,0.7c0.2,0.2,0.3,0.5,0.4,0.8
		c0.1-0.3,0.2-0.5,0.3-0.7c0.1-0.2,0.3-0.4,0.4-0.6c0.1-0.2,0.3-0.3,0.5-0.5c0.2-0.2,0.4-0.2,0.5-0.4c-0.1-0.1-0.1-0.1-0.1-0.1
		c-0.6-0.3-1.1-0.7-1.5-1.1c0-0.1-0.1-0.1-0.2-0.1C314.5,251.2,313.9,251.6,313.2,252z M203.2,261.8c0.2-0.3,0.3-0.6,0.4-0.9
		c0.2-0.3,0.4-0.5,0.6-0.8c0.2-0.2,0.4-0.4,0.7-0.6c-0.3-0.2-0.6-0.4-0.9-0.7c-0.3-0.2-0.5-0.5-0.8-0.8c-0.3,0.3-0.5,0.5-0.8,0.8
		c-0.3,0.2-0.6,0.4-0.9,0.7C202.7,260.7,202.5,260.6,203.2,261.8z M271.9,259.5c-0.3-0.2-0.6-0.4-0.9-0.6c-0.3-0.2-0.5-0.5-0.8-0.8
		c-0.3,0.3-0.5,0.5-0.8,0.8c-0.3,0.2-0.6,0.4-0.8,0.6c0.3,0.3,0.7,0.6,0.9,1c0.3,0.4,0.5,0.8,0.7,1.2c0.2-0.3,0.3-0.6,0.4-0.9
		c0.2-0.2,0.3-0.5,0.5-0.7C271.4,260,271.7,259.8,271.9,259.5z M164.2,252c0.3,0.3,0.7,0.6,0.9,0.9c0.3,0.3,0.5,0.7,0.8,1.1
		c0.2-0.3,0.4-0.7,0.6-1c0.2-0.3,0.5-0.6,0.8-0.9c-0.3-0.2-0.5-0.4-0.8-0.6c-0.2-0.2-0.5-0.5-0.7-0.7c-0.3,0.2-0.5,0.5-0.8,0.7
		C164.8,251.6,164.5,251.8,164.2,252z M307.5,250.8c-0.5,0.4-1,0.8-1.4,1.3c0.2,0.2,0.4,0.4,0.5,0.6c0.2,0.2,0.3,0.4,0.5,0.6
		c0.1,0.2,0.2,0.5,0.5,0.7c0.3-0.8,0.9-1.4,1.5-1.9C308.5,251.6,308,251.2,307.5,250.8z M216.5,259.6c0.7,0.5,1.2,1.1,1.5,1.9
		c0.2-0.4,0.4-0.7,0.6-1c0.2-0.3,0.5-0.6,0.8-0.9c-0.3-0.2-0.5-0.4-0.8-0.6c-0.3-0.2-0.4-0.5-0.7-0.7c-0.2,0.2-0.5,0.4-0.7,0.6
		C217,259.2,216.8,259.4,216.5,259.6z M210.6,258.3c-0.3,0.3-0.5,0.5-0.8,0.7c-0.2,0.2-0.5,0.4-0.7,0.5c0.3,0.3,0.6,0.6,0.8,0.9
		c0.2,0.3,0.4,0.6,0.7,1c0.2-0.3,0.4-0.7,0.6-1c0.2-0.3,0.5-0.6,0.8-0.9c-0.3-0.2-0.5-0.4-0.8-0.6
		C211.1,258.8,210.9,258.6,210.6,258.3z M262.8,258.4c-0.5,0.4-1,0.8-1.4,1.2c0.3,0.3,0.5,0.5,0.8,0.8c0.2,0.3,0.4,0.6,0.7,1
		c0.2-0.2,0.3-0.5,0.4-0.7c0.2-0.2,0.3-0.4,0.5-0.6c0.2-0.2,0.4-0.3,0.6-0.6C263.8,259.2,263.3,258.8,262.8,258.4z M255.3,261.5
		c0.2-0.4,0.5-0.7,0.7-1.1c0.2-0.3,0.6-0.5,0.8-0.9c-0.3-0.2-0.5-0.4-0.7-0.5c-0.2-0.2-0.5-0.4-0.7-0.6c-0.2,0.2-0.5,0.4-0.7,0.6
		c-0.2,0.2-0.5,0.3-0.7,0.6C254.5,260.2,255,260.7,255.3,261.5z M232.9,261.4c0.2-0.3,0.4-0.6,0.6-0.9c0.2-0.3,0.5-0.6,0.8-0.9
		c-0.3-0.2-0.5-0.4-0.7-0.6c-0.2-0.2-0.4-0.4-0.7-0.6c-0.2,0.2-0.4,0.4-0.7,0.6c-0.2,0.2-0.5,0.4-0.7,0.6c0.3,0.3,0.5,0.5,0.7,0.8
		C232.5,260.7,232.7,261,232.9,261.4z M241.8,259.6c-0.5-0.4-0.9-0.8-1.4-1.1c-0.2,0.2-0.5,0.4-0.7,0.6c-0.2,0.2-0.5,0.3-0.7,0.5
		c0.3,0.3,0.5,0.5,0.7,0.8c0.2,0.3,0.4,0.6,0.6,0.9c0.2-0.3,0.4-0.6,0.6-0.9C241.2,260.2,241.5,259.9,241.8,259.6z M226.8,259.6
		c-0.5-0.4-0.9-0.7-1.3-1.1c-0.4,0.4-0.9,0.7-1.3,1.1c0.2,0.2,0.4,0.3,0.5,0.5c0.2,0.2,0.3,0.4,0.4,0.5c0.1,0.2,0.2,0.4,0.4,0.6
		C225.8,260.6,226.3,260.1,226.8,259.6z M142,244.5c0.2,0.2,0.4,0.3,0.6,0.5c0.2,0.2,0.3,0.3,0.5,0.5c0.2,0.2,0.2,0.4,0.4,0.6
		c0.4-0.5,0.8-1,1.2-1.5c-0.2-0.2-0.4-0.4-0.6-0.5c-0.2-0.2-0.4-0.5-0.7-0.6C142.9,243.8,142.5,244.2,142,244.5z M247.8,261.3
		c0.2-0.4,0.4-0.6,0.6-0.9c0.2-0.3,0.5-0.5,0.7-0.8c-0.2-0.2-0.5-0.4-0.7-0.5c-0.2-0.2-0.4-0.4-0.7-0.5c-0.4,0.4-0.9,0.7-1.3,1.1
		C247,260.1,247.5,260.6,247.8,261.3z M329.9,246.1c0.3-0.6,0.8-1.1,1.3-1.5c-0.2-0.2-0.5-0.4-0.7-0.5c-0.2-0.2-0.4-0.4-0.6-0.5
		c-0.4,0.4-0.8,0.7-1.2,1.1C329.1,245.1,329.4,245.6,329.9,246.1z M173.4,253.6c0.4-0.5,0.7-1,1.1-1.4c-0.4-0.3-0.8-0.7-1.2-1
		c-0.4,0.3-0.8,0.7-1.2,1C172.5,252.6,172.9,253.1,173.4,253.6z M300.1,251.2c-0.4,0.3-0.7,0.6-1.1,0.9c0.3,0.4,0.7,0.8,1,1.3
		c0.2-0.3,0.4-0.5,0.5-0.7c0.2-0.2,0.5-0.4,0.6-0.7C300.8,251.8,300.5,251.5,300.1,251.2z M150.9,245.8c0.3-0.3,0.5-0.7,0.8-1
		c-0.3-0.3-0.6-0.6-1-0.9c-0.3,0.3-0.6,0.4-0.8,0.7C150.3,245,150.6,245.4,150.9,245.8z M293.5,252.2c-0.3-0.3-0.5-0.5-0.9-0.7
		c-0.2,0.1-0.3,0.3-0.4,0.4c-0.1,0.1-0.3,0.2-0.4,0.4c0.2,0.2,0.4,0.5,0.6,0.7c0.1,0.1,0.1,0.1,0.2,0.2
		C293,252.8,293.2,252.5,293.5,252.2z M322.6,244c-0.3,0.3-0.6,0.5-0.8,0.8c0.1,0.2,0.2,0.3,0.4,0.5c0.1,0.1,0.2,0.3,0.3,0.5
		c0.2-0.2,0.3-0.4,0.5-0.6c0.1-0.2,0.4-0.3,0.5-0.6C323.1,244.4,322.8,244.2,322.6,244z M179.9,252.2c0.3,0.4,0.6,0.7,0.9,1
		c0.3-0.3,0.5-0.6,0.8-1c-0.3-0.2-0.5-0.5-0.9-0.7C180.4,251.7,180.2,251.9,179.9,252.2z M188.3,251.6c-0.3,0.2-0.6,0.4-0.8,0.7
		c0.2,0.2,0.4,0.5,0.7,0.8c0.2-0.3,0.5-0.6,0.7-0.9C188.7,252,188.5,251.8,188.3,251.6z M285.1,253c0.3-0.2,0.5-0.5,0.7-0.8
		c-0.2-0.2-0.4-0.4-0.7-0.6c-0.3,0.1-0.4,0.3-0.6,0.5C284.6,252.4,284.9,252.7,285.1,253z M195.6,252.8c0.3-0.2,0.4-0.4,0.6-0.7
		c-0.1-0.1-0.2-0.1-0.3-0.2c-0.1-0.1-0.2-0.1-0.3-0.2c-0.2,0.2-0.3,0.3-0.5,0.5C195.3,252.4,195.5,252.5,195.6,252.8z M202.7,252.1
		c0.1,0.2,0.2,0.4,0.5,0.5c0.2-0.2,0.4-0.4,0.5-0.6c-0.2-0.1-0.3-0.2-0.4-0.4C203,251.8,202.8,251.9,202.7,252.1z M158.5,244.3
		c-0.2,0.2-0.4,0.3-0.6,0.5c0.2,0.2,0.3,0.3,0.4,0.5c0.3-0.2,0.4-0.4,0.5-0.7C158.8,244.5,158.6,244.4,158.5,244.3z M277.6,251.7
		c-0.2,0.1-0.3,0.2-0.4,0.3c0,0,0,0.1,0,0.2c0.2,0.1,0.3,0.4,0.5,0.5c0.2-0.1,0.4-0.3,0.4-0.5C278,252,277.8,251.8,277.6,251.7z
		 M270.7,252.1c-0.1-0.2-0.3-0.3-0.5-0.5c-0.2,0.1-0.4,0.2-0.4,0.4c0.1,0.2,0.3,0.3,0.4,0.5C270.4,252.5,270.5,252.3,270.7,252.1z
		 M315.4,244.8c-0.2-0.2-0.4-0.3-0.5-0.4c-0.2,0-0.3,0.1-0.4,0.3c0.1,0.2,0.2,0.4,0.5,0.5C315.1,245,315.2,244.9,315.4,244.8z
		 M165.5,244.7c0.1,0.1,0.2,0.2,0.3,0.3c0.2-0.2,0.3-0.3,0.5-0.6c-0.1-0.1-0.2-0.2-0.2-0.2C165.8,244.4,165.6,244.5,165.5,244.7z
		 M218.1,251.6c-0.3,0.2-0.5,0.2-0.5,0.5c0.1,0.1,0.2,0.2,0.3,0.3c0.2-0.1,0.3-0.2,0.4-0.5C218.3,251.8,218.2,251.7,218.1,251.6z
		 M210.5,252.4c0.2-0.1,0.4-0.2,0.4-0.5c-0.1-0.1-0.2-0.2-0.3-0.3c-0.1,0.1-0.2,0.2-0.4,0.4C210.3,252.2,210.4,252.3,210.5,252.4z
		 M255.7,252c-0.2-0.1-0.3-0.2-0.4-0.3c-0.2,0.1-0.3,0.2-0.3,0.4c0.1,0.1,0.2,0.2,0.3,0.3C255.5,252.2,255.6,252.1,255.7,252z
		 M263.1,252c-0.3-0.4-0.4-0.4-0.7,0c0.1,0.1,0.2,0.2,0.3,0.4C262.9,252.2,263,252.1,263.1,252z M307.5,245c0.3-0.3,0.3-0.4,0.1-0.6
		c-0.2-0.1-0.2-0.1-0.4,0.2C307.3,244.7,307.4,244.8,307.5,245z M233,251.6c-0.2,0.1-0.3,0.2-0.3,0.4c0.1,0.1,0.2,0.2,0.3,0.3
		c0.1-0.1,0.2-0.2,0.3-0.4C233.1,251.8,233,251.7,233,251.6z M240.1,251.9c0.1,0.1,0.2,0.2,0.3,0.3c0.3-0.2,0.4-0.3,0.3-0.5
		C240.5,251.6,240.4,251.6,240.1,251.9z M225.5,251.6c-0.1,0.1-0.2,0.2-0.2,0.3c0,0.1,0.1,0.2,0.2,0.2c0.1,0,0.3-0.1,0.3-0.2
		C225.7,251.9,225.6,251.8,225.5,251.6z M247.9,252.2c0-0.1,0.1-0.1,0.2-0.2c0-0.1-0.2-0.2-0.3-0.2c-0.1,0-0.2,0.1-0.2,0.2
		C247.6,252.1,247.8,252.2,247.9,252.2z M173.4,244.3C173.4,244.3,173.4,244.3,173.4,244.3c-0.2,0.1-0.3,0.1-0.2,0.3c0,0,0,0,0,0
		c0.1,0,0.2-0.1,0.2-0.2C173.5,244.4,173.5,244.4,173.4,244.3z M121.1,247.9c0-1.7-1.2-3.4-3.5-3.5c-1.9-0.1-3.5,1.6-3.5,3.5
		c0,1.9,1.5,3.5,3.5,3.5C119.5,251.4,121.1,249.8,121.1,247.9z M165.7,262.9c0-1.9-1.5-3.5-3.4-3.5c-2,0-3.5,1.6-3.5,3.5
		c0,1.9,1.5,3.5,3.4,3.5C164.1,266.3,165.6,264.8,165.7,262.9z M340.9,251.9c-1.9,0-3.5,1.6-3.4,3.5c0,1.9,1.5,3.4,3.4,3.4
		c1.9,0,3.5-1.5,3.5-3.4C344.4,253.6,342.9,251.9,340.9,251.9z M132.5,252c-2,0-3.4,1.6-3.4,3.5c0,1.9,1.6,3.4,3.4,3.4
		c1.9,0,3.4-1.5,3.4-3.4C135.9,253.8,134.7,252,132.5,252z M273.9,266.8c-1.9,0-3.4,1.5-3.4,3.4c0,1.9,1.5,3.4,3.4,3.4
		c1.9,0,3.4-1.5,3.4-3.4C277.3,268.4,275.8,266.8,273.9,266.8z M318.6,259.5c-2,0-3.4,1.5-3.4,3.4c0,1.8,1.3,3.4,3.4,3.4
		c2,0,3.4-1.5,3.4-3.4C322,261.1,320.6,259.5,318.6,259.5z M196,270.3c0,1.9,1.6,3.4,3.4,3.4c1.9,0,3.4-1.6,3.3-3.4
		c0-2.1-1.7-3.4-3.4-3.4C197.7,266.9,196,268.2,196,270.3z M154.9,259.5c-1.8,0-3.4,1.4-3.4,3.4c0,2,1.6,3.4,3.4,3.4
		c1.9,0,3.3-1.4,3.4-3.4C158.2,261,156.8,259.5,154.9,259.5z M359.9,247.9c0,1.9,1.4,3.4,3.4,3.4c2,0,3.4-1.6,3.4-3.4
		c0-1.8-1.4-3.3-3.4-3.4C361.4,244.5,359.9,245.9,359.9,247.9z M284.6,270.3c0-1.8-1.3-3.4-3.4-3.4c-1.8,0-3.3,1.5-3.3,3.3
		c0,1.9,1.5,3.4,3.3,3.4C283.2,273.6,284.6,272.1,284.6,270.3z M195.4,270.3c0-1.9-1.5-3.4-3.3-3.4c-1.9,0-3.3,1.5-3.3,3.3
		c0,1.9,1.4,3.3,3.3,3.3C193.8,273.6,195.4,272.1,195.4,270.3z M110,244.5c-1.9,0-3.3,1.5-3.3,3.3c0,1.9,1.5,3.3,3.3,3.3
		c1.9,0,3.3-1.5,3.3-3.3C113.4,246,111.9,244.5,110,244.5z M348.4,252.1c-1.9,0-3.3,1.5-3.3,3.3c0,1.8,1.4,3.3,3.3,3.3
		c2,0,3.4-1.6,3.4-3.3C351.7,253.6,350.3,252.1,348.4,252.1z M107.7,243.2c1.4,1.2,3.5,1.2,4.8,0c1.4-1.2,1.5-3.4,0.5-4.7
		c-0.5-0.1-5-0.1-5.8,0C106.1,239.9,106.3,242,107.7,243.2z M292.1,270.3c0-1.8-1.5-3.3-3.3-3.3c-1.8,0-3.3,1.5-3.3,3.3
		c0,1.8,1.4,3.3,3.3,3.3C290.6,273.6,292.1,272.1,292.1,270.3z M326.1,259.6c-1.8,0-3.3,1.4-3.4,3.2c0,1.8,1.5,3.4,3.3,3.4
		c1.8,0,3.3-1.5,3.3-3.3C329.3,261.1,327.9,259.6,326.1,259.6z M184.6,273.5c1.8,0,3.3-1.5,3.3-3.3c0-1.9-1.6-3.3-3.3-3.3
		c-1.8,0-3.3,1.5-3.3,3.3C181.3,272.1,182.7,273.5,184.6,273.5z M128.4,255.4c0-1.8-1.5-3.3-3.3-3.3c-1.8,0-3.3,1.5-3.3,3.3
		c0,1.8,1.5,3.3,3.3,3.3C126.9,258.6,128.4,257.2,128.4,255.4z M147.3,266.1c1.8,0,3.3-1.5,3.3-3.3c0-1.8-1.4-3.2-3.2-3.3
		c-1.8,0-3.3,1.4-3.3,3.2C144,264.7,145.5,266.1,147.3,266.1z M296.3,267c-1.9,0-3.2,1.5-3.2,3.2c0,1.8,1.5,3.3,3.2,3.3
		c1.8,0,3.2-1.4,3.2-3.3C299.5,268.3,298.1,267,296.3,267z M177.2,267c-1.9,0-3.3,1.5-3.3,3.2c0,1.8,1.4,3.2,3.2,3.2
		c1.8,0,3.3-1.4,3.3-3.2C180.4,268.7,179.3,267.1,177.2,267z M373.9,248c0.1-1.8-1.3-3.3-3.1-3.4c-1.8,0-3.3,1.3-3.3,3.2
		c0,1.9,1.5,3.3,3.1,3.3C372.5,251.2,373.8,249.5,373.9,248z M368.3,243c1.3,1.2,3.3,1.3,4.7,0c1.3-1.2,1.5-3.2,0.4-4.6
		c-0.5-0.1-5-0.1-5.5,0C367,239.5,366.8,241.6,368.3,243z M333.4,259.7c-1.8,0-3.2,1.4-3.2,3.1c0,1.8,1.4,3.2,3.2,3.2
		c1.8,0,3.2-1.4,3.2-3.2C336.6,261.1,335.2,259.7,333.4,259.7z M100.3,243c1.4,1.3,3.4,1.2,4.8-0.1c1.3-1.3,1.3-3.5,0.3-4.5
		c-1.8,0-3.6,0-5.4,0C98.9,239.7,99.1,241.8,100.3,243z M359,255.3c0-1.7-1.4-3.2-3.2-3.2c-1.7,0-3.1,1.4-3.1,3.2
		c0,1.8,1.4,3.2,3.2,3.2C357.6,258.6,359,257.1,359,255.3z M102.7,244.7c-1.8,0-3.2,1.4-3.2,3.2c0,1.8,1.5,3.2,3.2,3.2
		c1.7,0,3.2-1.5,3.2-3.2C105.9,246.2,104.5,244.7,102.7,244.7z M139.9,259.7c-1.6,0-3.2,1.3-3.2,3.2c0,1.9,1.6,3.2,3.2,3.2
		c1.8,0,3.2-1.4,3.2-3.2C143.1,261.1,141.7,259.7,139.9,259.7z M303.7,267.1c-1.7,0-3.1,1.4-3.2,3.1c0,1.7,1.4,3.2,3.1,3.2
		c1.8,0,3.2-1.4,3.2-3.1C306.8,268.5,305.4,267.1,303.7,267.1z M169.7,273.4c1.8,0,3.1-1.4,3.2-3.1c0-1.8-1.4-3.2-3.1-3.2
		c-1.8,0-3.2,1.3-3.2,3.1C166.5,271.9,167.8,273.4,169.7,273.4z M120.7,255.4c0-1.8-1.5-3.2-3.2-3.2c-1.7,0-3.1,1.4-3.2,3.1
		c0,1.8,1.4,3.2,3.1,3.2C119.1,258.6,120.7,257.4,120.7,255.4z M375.2,242c0.6,1.2,1.7,1.8,3,1.8c2.6-0.1,4.1-2.8,2.8-5
		c-0.2-0.3-0.4-0.4-0.8-0.4c-1.4,0-2.9,0-4.3,0c-0.1,0-0.2,0-0.3,0C374.8,239.3,374.6,240.8,375.2,242z M311.1,267.2
		c-1.7,0-3.1,1.4-3.1,3.1c0,1.7,1.4,3.1,3.1,3.1c1.7,0,3.1-1.4,3.1-3.1C314.2,268.5,312.8,267.1,311.1,267.2z M340.9,259.8
		c-1.6,0-3.1,1.3-3.1,3.1c0,1.9,1.6,3.1,3.1,3.1c1.6,0,3-1.3,3-3.1C344,261.1,342.5,259.8,340.9,259.8z M375.1,247.9
		c0,1.7,1.4,3.1,3,3.1c1.5,0,3.1-1.3,3.1-3.1c0-1.7-1.3-3-3.1-3C376.4,244.8,375.1,246.2,375.1,247.9z M92.9,242.8
		c1.3,1.2,3.2,1.3,4.6,0.1c1.3-1.2,1.4-3.1,0.3-4.5c-1.7,0-3.3,0-5,0C91.6,239.7,91.7,241.6,92.9,242.8z M159.1,270.2
		c0,1.7,1.3,3.1,3,3.1c1.7,0,3.1-1.4,3.1-3.1c0-1.8-1.5-3.1-3-3.1C160.6,267.1,159.1,268.5,159.1,270.2z M132.5,259.8
		c-1.7,0-3.1,1.3-3.1,3c0,1.7,1.4,3.1,3,3.1c1.7,0,3.1-1.4,3.1-3C135.5,261.3,134.2,259.8,132.5,259.8z M366.3,255.4
		c0-1.7-1.3-3.1-3-3.1c-1.7,0-3.1,1.4-3.1,3c0,1.7,1.4,3.1,3,3.1C365,258.4,366.3,257.1,366.3,255.4z M247.2,277.8
		c0-1.7-1.4-3.1-3-3.1c-1.7,0-3,1.3-3.1,3c0,1.7,1.3,3,3,3.1C245.9,280.8,247.2,279.4,247.2,277.8z M239.7,277.8
		c0-1.7-1.4-3.1-3-3.1c-1.7,0-3.1,1.3-3.1,3c0,1.7,1.3,3.1,3,3.1C238.4,280.8,239.7,279.5,239.7,277.8z M254.6,277.7
		c0-1.6-1.4-3-3-3c-1.7,0-3,1.4-3.1,3c0,1.7,1.4,3.1,3.1,3C253.3,280.8,254.6,279.4,254.6,277.7z M232.2,277.7c0-1.7-1.4-3-3.1-3
		c-1.7,0-3,1.3-3,3c0,1.7,1.3,3.1,3,3.1C230.9,280.8,232.2,279.4,232.2,277.7z M95.3,244.8c-1.6,0-3.1,1.3-3.1,3
		c0,1.7,1.3,3.1,3,3.1c1.6,0,3-1.4,3-3C98.2,246.2,96.9,244.9,95.3,244.8z M221.8,274.7c-1.7,0-3.1,1.4-3,3c0,1.7,1.4,3,3.1,3
		c1.7,0,3-1.3,3-3C224.8,276.1,223.5,274.7,221.8,274.7z M110.1,252.3c-1.8,0-3.1,1.5-3.1,3c0,1.7,1.4,3,3,3c1.7,0,3-1.3,3-3
		C113.1,253.9,111.9,252.4,110.1,252.3z M259,274.7c-1.5,0-3,1.2-3,3c0,1.8,1.5,3.1,3.1,3c1.7,0,3-1.4,3-3
		C262.1,276.1,260.7,274.7,259,274.7z M217.3,277.8c0-1.7-1.3-3-3-3c-1.6,0-3,1.4-3,3c0,1.7,1.3,3,3,3
		C215.9,280.8,217.3,279.4,217.3,277.8z M318.5,267.2c-1.6,0-3,1.4-3,3c0,1.6,1.4,3,3,3c1.7,0,3-1.4,3-3
		C321.5,268.6,320.2,267.2,318.5,267.2z M266.5,274.7c-1.6,0-3,1.3-3,3c0,1.6,1.3,3,3,3c1.6,0,3-1.3,3-3
		C269.4,276.1,268.1,274.8,266.5,274.7z M157.8,270.3c0-1.8-1.4-3-2.9-3c-1.6,0-3,1.3-3,3c0,1.6,1.3,3,2.9,3
		C156.4,273.2,157.8,272,157.8,270.3z M206.9,274.8c-1.4,0-3,1.1-3,3c0,1.8,1.4,3,3,3c1.6,0,3-1.3,3-3
		C209.9,276.1,208.6,274.8,206.9,274.8z M382.5,241.4c0.4,1.2,1.2,2,2.5,2.2c1.3,0.2,2.4-0.3,3.1-1.4c0.7-1.1,0.7-2.3,0-3.4
		c-0.2-0.3-0.4-0.4-0.7-0.4c-1.3,0-2.6,0-4,0c-0.1,0-0.2,0-0.4,0C382.4,239.3,382.1,240.3,382.5,241.4z M274,274.8
		c-1.5,0-3,1.2-3,2.9c0,1.7,1.3,3,3,3c1.7,0,3-1.4,2.9-2.9C276.9,276,275.4,274.8,274,274.8z M84.8,241.1c0.3,1.3,1.2,2.2,2.4,2.4
		c1.2,0.3,2.5-0.2,3.2-1.3c0.7-1.1,0.7-2.3,0.1-3.5c-0.2-0.3-0.4-0.4-0.8-0.4c-1.3,0-2.5,0-3.8,0c-0.1,0-0.3,0-0.4,0
		C84.8,239.2,84.6,240.1,84.8,241.1z M348.4,259.9c-1.6,0-3,1.3-3,3c0,1.6,1.3,2.9,2.9,2.9c1.6,0,3-1.3,3-3
		C351.3,261.2,350,259.9,348.4,259.9z M196.5,277.7c0,1.6,1.3,2.9,2.9,3c1.6,0,3-1.2,3-2.9c0-1.8-1.6-3-2.9-2.9
		C198,274.8,196.5,275.9,196.5,277.7z M125.1,260c-1.6,0-2.9,1.3-2.9,2.9c0,1.5,1.2,2.9,2.9,3c1.6,0,2.9-1.3,3-2.9
		C128.1,261.4,126.8,260,125.1,260z M278.4,277.7c0,1.6,1.3,2.9,2.9,2.9c1.5,0,2.9-1.1,2.9-2.9c0-1.6-1.3-2.9-2.9-2.9
		C279.7,274.8,278.4,276.1,278.4,277.7z M195,277.7c0-1.7-1.4-2.9-2.9-2.9c-1.7,0-2.9,1.4-2.9,2.9c0,1.6,1.3,2.9,2.9,2.9
		C193.7,280.6,195,279.3,195,277.7z M385.5,245c-1.6,0-2.9,1.3-2.9,2.9c0,1.6,1.3,2.9,2.9,2.9c1.6,0,2.9-1.3,2.9-2.9
		C388.4,246.2,387,245,385.5,245z M370.6,252.5c-1.6,0-2.9,1.3-2.9,2.9c0,1.6,1.3,2.9,2.9,2.9c1.6,0,2.9-1.3,2.9-2.9
		C373.5,253.8,372.2,252.5,370.6,252.5z M326,267.3c-1.6,0-2.9,1.2-2.9,2.9c0,1.7,1.4,2.9,2.9,2.9c1.6,0,2.9-1.3,2.9-2.9
		C328.9,268.6,327.6,267.3,326,267.3z M147.3,267.4c-1.6,0-2.9,1.3-2.9,2.9c0,1.6,1.3,2.9,2.9,2.9c1.6,0,2.8-1.3,2.8-2.9
		C150.2,268.6,148.9,267.4,147.3,267.4z M90.7,247.9c0-1.7-1.3-2.9-2.8-2.9c-1.6,0-2.9,1.2-2.9,2.8c0,1.6,1.3,2.9,2.8,2.9
		C89.2,250.8,90.7,249.6,90.7,247.9z M102.7,252.5c-1.6,0-2.9,1.3-2.9,2.9c0,1.6,1.3,2.8,2.9,2.8c1.6,0,2.8-1.3,2.9-2.8
		C105.6,253.8,104.3,252.5,102.7,252.5z M285.9,277.7c0,1.6,1.3,2.9,2.8,2.9c1.5,0,2.8-1.3,2.8-2.8c0-1.6-1.3-2.9-2.8-2.9
		C287.3,274.9,286,276.2,285.9,277.7z M187.4,277.8c0-1.6-1.2-2.9-2.8-2.9c-1.5,0-2.8,1.2-2.8,2.8c0,1.6,1.2,2.8,2.8,2.9
		C186.1,280.6,187.4,279.3,187.4,277.8z M395.1,238.4c-1.3,0-2.6,0-3.9,0c-0.2,0-0.4,0.1-0.5,0.3c-0.7,0.9-0.8,1.9-0.4,2.9
		c0.5,1.4,1.8,1.9,2.7,1.9c1.3,0,2.2-0.6,2.8-1.8C396.2,240.8,396.1,239.3,395.1,238.4C395.1,238.4,395.1,238.4,395.1,238.4z
		 M355.8,260.1c-1.6,0-2.8,1.3-2.8,2.8c0,1.6,1.3,2.9,2.8,2.9c1.6,0,2.8-1.3,2.8-2.8C358.6,261.4,357.4,260.1,355.8,260.1z
		 M79.5,243.3c1.2,0.4,2.5-0.1,3.2-1.1c0.7-1,0.7-2.4,0-3.4c-0.2-0.3-0.4-0.4-0.7-0.4c-1.1,0-2.2,0-3.3,0c-0.1,0-0.2,0-0.4,0
		C76.8,239.8,77.2,242.6,79.5,243.3z M336.2,270.3c0-1.5-1.2-2.8-2.8-2.8c-1.6,0-2.8,1.2-2.8,2.8c0,1.5,1.3,2.8,2.8,2.8
		C334.9,273,336.2,271.8,336.2,270.3z M296.3,275c-1.5,0-2.8,1.2-2.8,2.7c0,1.5,1.2,2.8,2.8,2.8c1.5,0,2.8-1.2,2.8-2.7
		C299.1,276.2,297.8,275,296.3,275z M120.3,262.9c0-1.6-1.2-2.8-2.8-2.8c-1.5,0-2.7,1.2-2.7,2.8c0,1.5,1.2,2.8,2.8,2.8
		C119.1,265.6,120.3,264.4,120.3,262.9z M139.9,267.5c-1.5,0-2.7,1.2-2.7,2.7c0,1.5,1.1,2.8,2.8,2.8c1.6,0,2.8-1.3,2.7-2.8
		C142.7,268.7,141.5,267.5,139.9,267.5z M179.9,277.7c0-1.5-1.2-2.7-2.7-2.8c-1.5,0-2.8,1.2-2.8,2.7c0,1.5,1.2,2.8,2.7,2.8
		C178.7,280.5,179.9,279.3,179.9,277.7z M375.4,255.3c0,1.6,1.2,2.7,2.6,2.8c1.3,0.1,2.8-0.9,2.8-2.7c0-1.6-1.2-2.7-2.7-2.8
		C376.8,252.6,375.5,253.7,375.4,255.3z M395.7,247.9c0-1.5-1.2-2.8-2.7-2.7c-1.4,0-2.7,1-2.7,2.7c0,1.8,1.5,2.8,2.7,2.7
		C394.5,250.6,395.7,249.4,395.7,247.9z M301,277.7c0,1.2,0.9,2.7,2.7,2.7c1.6,0,2.7-1.3,2.7-2.7c0-1.5-1.2-2.7-2.7-2.7
		C302.2,275,301,276.3,301,277.7z M172.4,277.7c0-1.5-1.2-2.6-2.6-2.7c-1.4,0-2.7,1.2-2.7,2.7c0,1.4,1.1,2.7,2.7,2.7
		C171.2,280.4,172.4,279.2,172.4,277.7z M97.9,255.3c0-1.6-1.4-2.7-2.7-2.7c-1.4,0-2.6,1.2-2.6,2.7c0,1.4,1.1,2.7,2.7,2.7
		C96.7,258,97.9,256.8,97.9,255.3z M400.5,238.4c-0.5,0-1.1,0-1.6,0c-0.2,0-0.4,0.1-0.5,0.2c-0.7,0.8-0.9,1.6-0.6,2.6
		c0.4,1.4,1.5,2.2,2.9,2.1c1.1-0.1,1.9-0.7,2.3-1.7c0.4-1,0.2-2-0.5-2.9c-0.2-0.2-0.4-0.3-0.6-0.3
		C401.5,238.4,401,238.4,400.5,238.4C400.5,238.4,400.5,238.4,400.5,238.4z M363.3,260.2c-1.5,0-2.7,1.2-2.7,2.6
		c0,1.5,1.2,2.7,2.7,2.7c1.6,0,2.7-1.3,2.6-2.6C366,261.5,364.8,260.2,363.3,260.2z M338.2,270.2c0,1.5,1.2,2.7,2.7,2.7
		c1.5,0,2.6-1.2,2.6-2.6c0-1.5-1.2-2.7-2.6-2.7C339.6,267.5,338.3,268.6,338.2,270.2z M80.4,250.5c1.5,0,2.6-1.2,2.6-2.7
		c0-1.5-1.2-2.6-2.7-2.6c-1.5,0-2.6,1.2-2.6,2.7C77.7,249.4,78.9,250.5,80.4,250.5z M75.4,241.6c0.5-1.1,0.3-2-0.4-2.9
		c-0.2-0.2-0.4-0.3-0.6-0.3c-0.9,0-1.8,0-2.8,0c-0.4,0-0.6,0.1-0.8,0.4c-0.7,0.9-0.8,1.9-0.3,2.9c0.5,1,1.3,1.5,2.4,1.6
		C74.1,243.2,75,242.7,75.4,241.6z M129.8,270.2c0,1.5,1.2,2.7,2.6,2.7c1.4,0,2.6-1.2,2.6-2.6c0-1.5-1.2-2.7-2.6-2.6
		C131,267.6,129.8,268.8,129.8,270.2z M110.1,260.2c-1.4,0-2.6,1.1-2.7,2.5c0,1.3,1,2.7,2.6,2.7c1.4,0,2.6-1,2.7-2.5
		C112.7,261.5,111.7,260.3,110.1,260.2z M313.8,277.7c0-1.4-1.2-2.6-2.6-2.6c-1.3,0-2.6,0.9-2.6,2.6c0,1.5,1.1,2.6,2.6,2.6
		C312.6,280.3,313.7,279.2,313.8,277.7z M162.2,280.3c1.4,0,2.6-1.2,2.6-2.6c0-1.4-1.2-2.6-2.6-2.6c-1.4,0-2.6,1.2-2.6,2.6
		C159.6,279.2,160.7,280.3,162.2,280.3z M388.1,255.4c0-1.4-1.1-2.5-2.5-2.5c-1.4,0-2.6,1.1-2.6,2.6c0,1.4,1.1,2.5,2.5,2.5
		C386.9,257.9,388.1,256.8,388.1,255.4z M234.1,285.1c0,1.4,1.1,2.5,2.5,2.5c1.4,0,2.5-1.1,2.5-2.5c0-1.4-1.1-2.6-2.5-2.5
		C235.3,282.6,234.1,283.8,234.1,285.1z M229.2,287.6c1.4,0,2.5-1.1,2.5-2.5c0-1.3-1.1-2.5-2.5-2.5c-1.4,0-2.5,1.1-2.5,2.5
		C226.6,286.4,227.7,287.6,229.2,287.6z M345.9,270.3c0,1.4,1.1,2.5,2.5,2.5c1.4,0,2.5-1.1,2.5-2.5c0-1.4-1.1-2.5-2.5-2.5
		C347,267.7,345.9,268.8,345.9,270.3z M321,277.8c0-1.3-1.1-2.5-2.5-2.6c-1.4,0-2.5,1.2-2.5,2.5c0,1.4,1.1,2.5,2.5,2.5
		C319.9,280.2,321,279.1,321,277.8z M410.3,241.5c0.4-1,0.2-2.1-0.6-2.8c-0.2-0.2-0.3-0.2-0.6-0.2c-0.8,0-1.6,0-2.4,0
		c-0.3,0-0.4,0.1-0.6,0.3c-0.7,0.7-1,1.9-0.6,2.8c0.4,0.9,1.4,1.6,2.4,1.6C408.9,243.1,409.9,242.4,410.3,241.5z M249,285.1
		c0,1.4,1.1,2.5,2.5,2.5c1.4,0,2.5-1.1,2.5-2.5c0-1.4-1.1-2.5-2.5-2.5C250.2,282.6,249.1,283.7,249,285.1z M241.7,285.1
		c0,1.4,1.1,2.5,2.5,2.5c1.4,0,2.5-1.1,2.5-2.5c0-1.4-1.2-2.5-2.5-2.5C242.7,282.6,241.7,283.7,241.7,285.1z M90.3,255.4
		c0-1.4-1.2-2.5-2.5-2.5c-1.4,0-2.5,1.2-2.5,2.5c0,1.4,1.1,2.5,2.5,2.5C89.2,257.9,90.3,256.8,90.3,255.4z M403,247.9
		c0-1.4-1.1-2.5-2.4-2.5c-1.4,0-2.6,1.1-2.6,2.5c0,1.4,1.1,2.5,2.5,2.5C401.9,250.4,403,249.3,403,247.9z M219.3,285.1
		c0,1.4,1.1,2.5,2.5,2.5c1.4,0,2.5-1.1,2.5-2.5c0-1.4-1.1-2.5-2.5-2.5C220.4,282.6,219.3,283.7,219.3,285.1z M259.1,282.6
		c-1.4,0-2.5,1.1-2.5,2.5c0,1.4,1.1,2.5,2.5,2.5c1.4,0,2.5-1.1,2.5-2.5C261.5,283.7,260.5,282.6,259.1,282.6z M125.1,267.8
		c-1.2-0.1-2.5,0.8-2.5,2.4c-0.1,1.4,1,2.5,2.4,2.6c1.3,0.1,2.5-1,2.6-2.4C127.6,269.1,126.7,267.8,125.1,267.8z M214.3,282.6
		c-1.1,0-2.4,0.9-2.4,2.5c0,1.5,1.1,2.5,2.5,2.5c1.5,0,2.5-1.2,2.5-2.5C216.8,283.7,215.6,282.6,214.3,282.6z M373.1,262.9
		c0-1.4-1.1-2.5-2.4-2.5c-1.4,0-2.5,1.1-2.5,2.4c0,1.4,1.1,2.5,2.4,2.5C372,265.4,373.1,264.3,373.1,262.9z M157.3,277.7
		c0-1.4-1.1-2.5-2.5-2.5c-1.5,0-2.5,1.2-2.5,2.4c0,1.4,1.1,2.5,2.5,2.5C156.2,280.2,157.3,279.1,157.3,277.7z M67.2,238.6
		c-0.2-0.2-0.3-0.2-0.6-0.2c-0.8,0-1.5,0-2.3,0c-0.2,0-0.4,0.1-0.6,0.2c-0.4,0.4-0.7,0.9-0.8,1.5c-0.2,1.4,0.8,2.8,2.2,2.9
		c1.6,0.1,2.8-1.2,2.8-2.3C68,239.8,67.7,239.1,67.2,238.6z M266.4,282.7c-1.2,0-2.4,0.8-2.5,2.4c0,1.3,0.9,2.4,2.4,2.5
		c1.3,0,2.5-1.1,2.5-2.4C268.9,283.8,267.8,282.7,266.4,282.7z M102.7,260.4c-1.4,0-2.4,1.1-2.4,2.5c0,1.4,1.1,2.4,2.5,2.4
		c1.4,0,2.4-1.1,2.4-2.5C105.1,261.5,104,260.4,102.7,260.4z M75.4,247.9c0-1.3-1.1-2.5-2.4-2.5c-1.4,0-2.4,1-2.5,2.4
		c0,1.5,1.2,2.5,2.4,2.5C74.3,250.3,75.4,249.2,75.4,247.9z M206.9,287.5c1.6,0,2.4-1.3,2.4-2.4c0-1.4-1.1-2.5-2.4-2.5
		c-1.3,0-2.4,1.1-2.4,2.4C204.5,286.4,205.5,287.5,206.9,287.5z M273.9,282.7c-1.3,0-2.4,1.1-2.4,2.4c0,1.3,1,2.4,2.4,2.4
		c1.3,0,2.4-1.1,2.4-2.4C276.3,283.8,275.3,282.7,273.9,282.7z M328.4,277.7c0-1.3-1.1-2.4-2.4-2.4c-1.3,0-2.4,1-2.4,2.4
		c0,1.4,1,2.4,2.4,2.4C327.4,280.1,328.4,279.1,328.4,277.7z M197,285.1c0,1.4,1,2.4,2.4,2.4c1.3,0,2.3-1,2.4-2.4
		c0-1.3-1-2.4-2.4-2.4C198.1,282.7,197.1,283.8,197,285.1z M355.8,272.6c1.4,0,2.4-1.2,2.4-2.4c0-1.3-1.1-2.4-2.4-2.3
		c-1.3,0-2.4,1.1-2.4,2.4C353.4,271.5,354.4,272.6,355.8,272.6z M144.9,277.8c0,1.3,1.1,2.4,2.4,2.4c1.3,0,2.4-1.1,2.4-2.4
		c0-1.3-1.1-2.4-2.4-2.3C146,275.4,144.9,276.4,144.9,277.8z M283.6,285.2c0-1.3-1-2.4-2.3-2.4c-1.3,0-2.4,1-2.4,2.4
		c0,1.4,1.1,2.3,2.3,2.3C282.6,287.5,283.6,286.4,283.6,285.2z M194.4,285.1c0-1.4-1.1-2.3-2.3-2.3c-1.3,0-2.3,1-2.4,2.4
		c0,1.3,1.1,2.3,2.4,2.3C193.4,287.4,194.4,286.4,194.4,285.1z M393,253c-1.1,0-2.3,0.8-2.3,2.3c0,1.4,1,2.4,2.3,2.4
		c1.3,0,2.3-1.1,2.3-2.3C395.3,254.1,394.3,253,393,253z M117.5,267.9c-1.3,0-2.3,1.1-2.3,2.4c0,1.3,1.1,2.3,2.3,2.3
		c1.3,0,2.3-1,2.3-2.3C119.8,268.8,118.8,267.9,117.5,267.9z M378.2,260.6c-1.3,0-2.3,1.1-2.3,2.3c0,1.2,1,2.3,2.3,2.3
		c1.3,0,2.3-1,2.3-2.3C380.4,261.6,379.4,260.6,378.2,260.6z M414.7,238.4c-0.3,0-0.6,0.1-0.8,0.3c-0.8,0.7-1,1.5-0.8,2.4
		c0.3,1,1.1,1.6,2.1,1.7c1,0.1,1.9-0.5,2.3-1.5c0.4-0.9,0.1-2-0.7-2.6c-0.2-0.2-0.5-0.3-0.8-0.3c-0.2,0-0.5,0-0.7,0
		C415.2,238.4,414.9,238.4,414.7,238.4z M82.6,255.4c0-1.3-1-2.3-2.3-2.3c-1.3,0-2.3,1-2.3,2.3c0,1.3,1,2.3,2.3,2.3
		C81.6,257.7,82.6,256.7,82.6,255.4z M286.5,285.1c0,1.3,1,2.3,2.3,2.3c1.3,0,2.3-1,2.3-2.3c0-1.3-1-2.3-2.3-2.3
		C287.5,282.8,286.5,283.8,286.5,285.1z M407.9,245.6c-1.3,0-2.3,1-2.3,2.3c0,1.2,1,2.2,2.2,2.3c1.3,0,2.3-1,2.3-2.3
		C410.2,246.6,409.2,245.6,407.9,245.6z M182.3,285.1c0,1.3,1,2.2,2.3,2.2c1.3,0,2.3-1,2.3-2.3c0-1.3-1-2.2-2.3-2.2
		C183.3,282.9,182.3,283.8,182.3,285.1z M335.7,277.8c0-1.2-1-2.3-2.2-2.3c-1.3,0-2.3,1-2.3,2.3c0,1.3,1,2.2,2.2,2.2
		C334.6,280,335.6,279,335.7,277.8z M95.2,260.6c-1.3,0-2.3,1-2.3,2.3c0,1.2,1,2.2,2.3,2.2c1.3,0,2.2-1,2.2-2.2
		C97.5,261.6,96.5,260.6,95.2,260.6z M57.5,238.4c-0.5-0.1-0.9,0.2-1.2,0.5c-0.7,0.6-0.9,1.7-0.5,2.6c0.4,0.9,1.1,1.3,2.1,1.3
		c1,0,1.7-0.5,2-1.3c0.4-0.9,0.2-1.7-0.4-2.5c-0.3-0.4-0.7-0.6-1.3-0.6c-0.1,0-0.3,0-0.4,0C57.8,238.4,57.7,238.4,57.5,238.4z
		 M140,275.5c-1.2,0-2.3,1-2.3,2.2c0,1.3,1,2.3,2.2,2.3c1.2,0,2.2-1,2.2-2.2C142.2,276.5,141.2,275.5,140,275.5z M298.5,285.1
		c0-1.2-1-2.2-2.3-2.2c-1.2,0-2.2,1-2.2,2.2c0,1.2,1,2.2,2.2,2.2C297.5,287.3,298.5,286.3,298.5,285.1z M63.2,247.9
		c0,1.3,1,2.2,2.3,2.2c1.2,0,2.2-1,2.2-2.2c0-1.3-1-2.2-2.2-2.2C64.2,245.7,63.2,246.7,63.2,247.9z M177.2,287.3
		c1.2,0,2.2-1,2.2-2.2c0-1.2-0.9-2.2-2.1-2.2c-1.2,0-2.2,0.9-2.3,2.1C175,286.3,175.9,287.3,177.2,287.3z M365.5,270.2
		c0-1.4-1.2-2.2-2.2-2.2c-1.2,0-2.1,1-2.1,2.2c0,1.3,1.1,2.2,2.2,2.2C364.4,272.4,365.5,271.6,365.5,270.2z M107.9,270.3
		c0,1.2,1,2.1,2.1,2.1c1.2,0,2.2-0.9,2.2-2.1c0-1.2-0.9-2.2-2.1-2.2C108.9,268.1,107.9,269.1,107.9,270.3z M341,275.6
		c-1.2,0-2.2,0.9-2.2,2.1c0,1.2,0.9,2.1,2,2.1c1.2,0,2.2-0.9,2.2-2C343.1,276.7,342.2,275.7,341,275.6z M305.8,285.1
		c0-1.2-0.9-2.1-2.1-2.1c-1.2,0-2.1,0.9-2.1,2.1c0,1.2,0.9,2.1,2.1,2.1C304.8,287.2,305.8,286.3,305.8,285.1z M398.4,255.3
		c0,1.2,0.9,2.1,2.1,2.1c1.3,0,2.1-1,2.1-2.1c0-1.2-1-2.1-2.1-2.1C399.4,253.3,398.4,254.2,398.4,255.3z M171.8,285.1
		c0-1.2-1-2.1-2.1-2.1c-0.9,0-2.1,0.7-2.1,2.1c0,1.3,1.1,2.1,2.1,2.1C170.9,287.2,171.8,286.2,171.8,285.1z M387.6,262.9
		c0-1.2-0.9-2.1-2.1-2.1c-1.2,0-2.1,0.9-2.1,2.1c0,1.2,0.9,2.1,2.1,2.1C386.7,265,387.6,264.1,387.6,262.9z M422.8,238.4
		c-0.9,0-2.1,0.7-2.1,2.1c0,1.2,0.9,2.1,2.1,2.1c1.1,0,2.1-0.9,2.1-2.1C424.9,239.4,423.9,238.4,422.8,238.4z M132.5,275.7
		c-1.3,0-2.1,1-2.1,2.1c0,1.1,0.9,2.1,2.1,2.1c1,0,2-0.7,2.1-2.1C134.5,276.6,133.6,275.7,132.5,275.7z M87.8,264.9
		c1.1,0,2-0.9,2-2.1c0-1.1-0.9-2-2.1-2c-1.1,0-2,0.9-2,2.1C85.8,263.8,86.5,264.9,87.8,264.9z M73,253.3c-1,0-2,0.8-2,2.1
		c0,1.2,0.9,2,2,2c1.1,0,2.1-0.9,2-2.1C75,254.2,74.1,253.3,73,253.3z M413.4,247.9c0,1.1,0.9,2,2,2c1.1,0,2-0.9,2-2
		c0-1.1-0.9-2-2-2C414.3,245.9,413.4,246.7,413.4,247.9z M313.2,285.1c0-1.1-0.9-2-2-2c-1.1,0-2.1,0.9-2,2c0,1.1,0.9,2,2,2
		C312.3,287.1,313.2,286.2,313.2,285.1z M50.6,238.5c-1.1,0-2,0.9-2,2c0,1.1,0.9,2,2.1,2c1.1,0,2-1,2-2
		C52.6,239.4,51.7,238.5,50.6,238.5z M370.7,268.2c-1.1,0-2,0.9-2,2c0,1.2,1,2,1.9,2c1.1,0,2-0.9,2-2
		C372.6,269.1,371.8,268.2,370.7,268.2z M160.2,285.1c0,1.1,0.8,2,1.9,2c1.1,0,2-0.8,2-1.9c0-1.1-0.8-2-1.9-2
		C161.1,283.1,160.2,284,160.2,285.1z M100.7,270.3c0,1,0.9,1.9,1.9,1.9c1.2,0,1.9-1,2-1.9c0-1.1-0.9-2-1.9-2
		C101.6,268.3,100.7,269.2,100.7,270.3z M346.5,277.7c0,0.9,0.6,2,1.9,2c1.2,0,2-0.9,2-2c0-1.1-0.9-1.9-1.9-1.9
		C347.5,275.8,346.5,276.5,346.5,277.7z M59.9,247.9c0-1.1-0.8-2-1.9-2c-1.1,0-2,0.9-2,2c0,1.1,0.9,1.9,1.9,1.9
		C59,249.8,59.9,249,59.9,247.9z M125.1,275.8c-1.1,0-1.9,0.8-2,1.9c0,1.1,0.8,1.9,1.8,1.9c1.1,0,1.9-0.8,2-1.9
		C127,276.6,126.1,275.9,125.1,275.8z M316.6,285.1c0,1,0.8,1.9,1.8,1.9c1.1,0,1.9-0.8,1.9-1.9c0-1.1-0.8-1.9-1.9-1.9
		C317.5,283.2,316.7,284,316.6,285.1z M409.7,255.4c0-1-0.8-1.8-1.8-1.9c-1,0-1.9,0.9-1.9,1.9c0,1,0.9,1.8,1.9,1.8
		C408.9,257.2,409.7,256.4,409.7,255.4z M156.7,285.1c0-1-0.8-1.9-1.9-1.9c-1,0-1.8,0.8-1.8,1.9c0,1,0.8,1.8,1.8,1.8
		C155.8,287,156.7,286.1,156.7,285.1z M393,261c-1.1,0-1.9,0.8-1.9,1.9c0,1,0.8,1.8,1.9,1.8c1,0,1.8-0.8,1.8-1.8
		C394.9,261.8,394.1,261,393,261z M229.2,290.8c-1,0-1.9,0.8-1.8,1.8c0,1,0.8,1.8,1.8,1.8c1,0,1.9-0.8,1.9-1.8
		C231,291.6,230.2,290.8,229.2,290.8z M246,292.6c0-1-0.8-1.8-1.8-1.8c-1,0-1.8,0.8-1.8,1.8c0,1,0.8,1.8,1.8,1.8
		C245.2,294.4,246,293.6,246,292.6z M236.7,290.8c-1,0-1.8,0.8-1.8,1.8c0,1,0.8,1.9,1.8,1.9c1,0,1.9-0.8,1.9-1.8
		C238.5,291.6,237.7,290.8,236.7,290.8z M251.6,290.8c-1.1,0-1.9,0.8-1.9,1.8c0,1.2,1,1.8,1.8,1.8c1,0,1.8-0.8,1.8-1.8
		C253.4,291.7,252.7,290.8,251.6,290.8z M220,292.5c0,1,0.8,1.8,1.7,1.9c1,0,1.9-0.8,1.9-1.8c0-1-0.8-1.8-1.8-1.9
		C220.9,290.8,220,291.6,220,292.5z M80.4,264.7c1,0,1.8-0.8,1.8-1.8c0-1-0.9-1.8-1.8-1.8c-1.1,0-1.8,0.8-1.8,1.8
		C78.6,264,79.4,264.7,80.4,264.7z M257.3,292.6c0,1.2,0.9,1.8,1.7,1.8c1,0,1.9-0.7,1.9-1.7c0-1-0.7-1.8-1.7-1.9
		C258.1,290.8,257.3,291.5,257.3,292.6z M428.5,240.5c0,1,0.8,1.8,1.8,1.8c1,0,1.8-0.8,1.8-1.8c0-1-0.8-1.7-1.8-1.7
		C429.3,238.7,428.5,239.5,428.5,240.5z M214.3,290.8c-1,0-1.8,0.8-1.8,1.8c0,1,0.8,1.8,1.7,1.8c1,0,1.8-0.8,1.8-1.8
		C216.1,291.6,215.3,290.8,214.3,290.8z M65.5,253.6c-1-0.1-1.8,0.7-1.9,1.7c-0.1,1,0.7,1.8,1.7,1.9c1,0,1.8-0.7,1.8-1.7
		C67.3,254.5,66.5,253.7,65.5,253.6z M376.4,270.3c0,1,0.8,1.8,1.8,1.8c1,0,1.8-0.8,1.8-1.7c0-1-0.8-1.8-1.8-1.8
		C377.2,268.5,376.4,269.3,376.4,270.3z M357.5,277.7c0-1-0.8-1.7-1.7-1.8c-1,0-1.8,0.8-1.8,1.7c0,1,0.8,1.8,1.7,1.8
		C356.6,279.5,357.5,278.8,357.5,277.7z M326,283.4c-1,0-1.8,0.8-1.7,1.8c0,1,0.8,1.7,1.7,1.7c1,0,1.8-0.8,1.8-1.8
		C327.8,284.1,327,283.4,326,283.4z M205.2,292.6c0,1,0.8,1.8,1.7,1.8c1,0,1.7-0.8,1.7-1.7c0-1-0.7-1.7-1.7-1.7
		C206,290.9,205.2,291.6,205.2,292.6z M266.4,290.9c-1,0-1.8,0.8-1.7,1.8c0,0.9,0.8,1.7,1.7,1.7c0.8,0,1.8-0.7,1.7-1.8
		C268.1,291.6,267.4,290.9,266.4,290.9z M424.5,247.9c0-0.9-0.7-1.7-1.7-1.8c-0.9,0-1.7,0.7-1.8,1.7c0,0.9,0.7,1.7,1.7,1.8
		C423.7,249.6,424.5,248.9,424.5,247.9z M117.6,276c-1,0-1.7,0.8-1.7,1.7c0,1,0.8,1.7,1.7,1.7c1,0,1.7-0.8,1.7-1.7
		C119.3,276.8,118.5,276,117.6,276z M93.5,270.2c0,1,0.7,1.7,1.7,1.7c1,0,1.7-0.8,1.7-1.7c0-1-0.8-1.7-1.7-1.7
		C94.3,268.5,93.5,269.3,93.5,270.2z M147.3,283.4c-1,0-1.7,0.7-1.7,1.7c0,1,0.7,1.7,1.7,1.7c1,0,1.7-0.7,1.7-1.7
		C149,284.2,148.3,283.4,147.3,283.4z M43.2,238.8c-1,0-1.8,0.7-1.8,1.7c0,0.9,0.7,1.7,1.7,1.8c0.9,0,1.7-0.7,1.7-1.7
		C44.8,239.6,44.1,238.8,43.2,238.8z M272.2,292.7c0,0.9,0.8,1.7,1.7,1.6c1,0,1.7-0.9,1.7-1.8c0-0.9-0.8-1.7-1.7-1.7
		C272.9,290.9,272.2,291.8,272.2,292.7z M199.4,294.3c0.9,0,1.7-0.7,1.7-1.7c0-0.9-0.7-1.7-1.7-1.7c-0.9,0-1.7,0.7-1.7,1.7
		C197.7,293.5,198.5,294.3,199.4,294.3z M52.2,247.9c0-0.9-0.8-1.7-1.7-1.7c-0.9,0-1.6,0.8-1.6,1.7c0,0.9,0.8,1.6,1.7,1.6
		C51.5,249.5,52.2,248.8,52.2,247.9z M281.3,291c-0.9,0-1.6,0.8-1.6,1.7c0,0.9,0.7,1.6,1.6,1.6c0.9,0,1.6-0.7,1.6-1.6
		C282.9,291.7,282.2,291,281.3,291z M335,285.1c0-0.9-0.7-1.6-1.6-1.6c-0.9,0-1.6,0.7-1.6,1.6c0,0.9,0.7,1.6,1.6,1.6
		C334.3,286.7,335,286,335,285.1z M193.6,292.6c0-0.9-0.7-1.6-1.6-1.6c-0.9,0-1.6,0.7-1.6,1.6c0,0.9,0.7,1.6,1.6,1.6
		C193,294.2,193.7,293.5,193.6,292.6z M290.4,292.6c0-0.9-0.7-1.6-1.5-1.6c-0.9,0-1.6,0.7-1.6,1.6c0,0.9,0.7,1.6,1.6,1.6
		C289.6,294.2,290.3,293.5,290.4,292.6z M400.5,261.3c-0.9,0-1.6,0.7-1.6,1.6c0,0.9,0.7,1.6,1.6,1.6c0.9,0,1.6-0.7,1.6-1.6
		C402.1,262,401.4,261.3,400.5,261.3z M138.4,285.1c0,1,0.8,1.5,1.6,1.5c0.8,0,1.5-0.7,1.5-1.5c0-0.9-0.7-1.5-1.6-1.6
		C139.1,283.6,138.4,284.3,138.4,285.1z M363.3,279.3c0.9,0,1.5-0.8,1.5-1.6c0-0.8-0.7-1.5-1.5-1.5c-0.9,0-1.6,0.7-1.6,1.6
		C361.7,278.5,362.3,279.3,363.3,279.3z M73,261.3c-0.8,0-1.5,0.6-1.6,1.5c0,0.9,0.7,1.6,1.5,1.6c0.8,0,1.5-0.7,1.5-1.5
		C74.5,262.1,73.8,261.4,73,261.3z M384,270.3c0,0.8,0.7,1.5,1.5,1.5c0.9,0,1.5-0.7,1.5-1.5c0-0.9-0.7-1.5-1.5-1.5
		C384.7,268.7,384,269.3,384,270.3z M416.9,255.4c0-0.8-0.7-1.5-1.5-1.5c-0.9,0-1.6,0.7-1.5,1.6c0,0.8,0.7,1.5,1.5,1.5
		C416.2,256.9,416.9,256.2,416.9,255.4z M58,253.9c-0.8,0-1.5,0.7-1.5,1.5c0,0.8,0.7,1.5,1.6,1.5c0.8,0,1.5-0.7,1.4-1.5
		C59.4,254.5,58.8,253.9,58,253.9z M184.6,291.1c-0.8,0-1.5,0.7-1.5,1.5c0,0.8,0.7,1.5,1.5,1.5c0.8,0,1.5-0.7,1.5-1.5
		C186,291.8,185.4,291.1,184.6,291.1z M296.3,291.1c-0.8,0-1.5,0.7-1.5,1.5c0,0.8,0.7,1.5,1.5,1.5c0.8,0,1.5-0.7,1.5-1.5
		C297.8,291.8,297.1,291.1,296.3,291.1z M111.5,277.7c0-0.8-0.6-1.5-1.5-1.5c-0.8,0-1.5,0.6-1.5,1.5c0,0.8,0.6,1.5,1.5,1.5
		C110.9,279.2,111.5,278.6,111.5,277.7z M342.4,285.1c0-0.8-0.6-1.5-1.5-1.5c-0.8,0-1.5,0.7-1.4,1.5c0,0.8,0.6,1.4,1.5,1.4
		C341.7,286.6,342.4,285.9,342.4,285.1z M86.4,270.2c0,0.8,0.6,1.4,1.4,1.4c0.8,0,1.5-0.7,1.5-1.5c0-0.8-0.7-1.4-1.5-1.4
		C87,268.8,86.4,269.4,86.4,270.2z M437.7,239.1c-0.8,0-1.4,0.6-1.4,1.4c0,0.8,0.6,1.5,1.4,1.5c0.8,0,1.4-0.6,1.4-1.4
		C439.1,239.8,438.4,239.1,437.7,239.1z M177.1,291.2c-0.7,0-1.4,0.7-1.3,1.4c0,0.7,0.6,1.4,1.4,1.4c0.8,0,1.4-0.6,1.4-1.4
		C178.6,291.8,177.9,291.2,177.1,291.2z M370.6,276.4c-0.8,0-1.3,0.6-1.4,1.4c0,0.7,0.6,1.4,1.4,1.4c0.8,0,1.3-0.6,1.4-1.4
		C372,277,371.4,276.4,370.6,276.4z M430.3,246.5c-0.8,0-1.4,0.6-1.4,1.4c0,0.8,0.6,1.4,1.4,1.4c0.8,0,1.4-0.6,1.4-1.3
		C431.6,247.1,431,246.5,430.3,246.5z M133.8,285.1c0-0.8-0.6-1.4-1.4-1.3c-0.7,0-1.3,0.6-1.3,1.3c0,0.7,0.6,1.3,1.3,1.3
		C133.2,286.4,133.8,285.8,133.8,285.1z M305,292.1c-0.1-0.3-0.4-0.6-0.7-0.7c-0.6-0.3-1.4-0.1-1.8,0.4c-0.4,0.5-0.4,1.2,0,1.8
		c0.8-0.2,1.6-0.1,2.4-0.4C305.1,292.6,305.1,292.4,305,292.1z M393,269c-0.7,0-1.3,0.6-1.3,1.3c0,0.7,0.6,1.2,1.3,1.2
		c0.7,0,1.2-0.6,1.2-1.3C394.3,269.5,393.7,269,393,269z M169.7,291.4c-0.7,0-1.3,0.6-1.3,1.3c0,0.7,0.6,1.2,1.3,1.2
		c0.7,0,1.2-0.6,1.2-1.2C170.9,291.9,170.4,291.4,169.7,291.4z M409.1,262.9c0-0.7-0.6-1.3-1.3-1.3c-0.7,0-1.2,0.6-1.2,1.3
		c0,0.7,0.6,1.2,1.3,1.2C408.6,264.1,409.1,263.6,409.1,262.9z M102.8,276.5c-0.7,0-1.3,0.5-1.3,1.2c0,0.7,0.5,1.2,1.2,1.2
		c0.7,0,1.3-0.5,1.3-1.2C103.9,277.1,103.4,276.6,102.8,276.5z M81.5,270.2c0-0.6-0.5-1.2-1.2-1.2c-0.7,0-1.2,0.6-1.2,1.2
		c0,0.6,0.6,1.1,1.2,1.1C81,271.4,81.5,270.9,81.5,270.2z M422.8,254.2c-0.6,0-1.2,0.5-1.2,1.1c0,0.7,0.5,1.2,1.2,1.2
		c0.6,0,1.2-0.5,1.2-1.1C423.9,254.8,423.4,254.2,422.8,254.2z M65.8,263.9c0.1,0.1,0.3,0.1,0.5-0.1c0.4-0.4,0.5-0.8,0.4-1.3
		c-0.1-0.5-0.5-0.8-1-0.9c-0.5-0.1-0.9,0.1-1.2,0.5c-0.1,0.2-0.2,0.4-0.3,0.6C64.7,263.2,65.3,263.5,65.8,263.9z M126.2,285.1
		c0-0.6-0.5-1.1-1.1-1.1c-0.6,0-1.1,0.4-1.1,1.1c0,0.6,0.5,1.1,1.1,1.1C125.7,286.2,126.2,285.7,126.2,285.1z M162.2,291.5
		c-0.6,0-1.1,0.5-1.1,1.1c0,0.6,0.5,1.1,1.1,1.1c0.6,0,1.1-0.5,1.1-1.1C163.3,292,162.8,291.5,162.2,291.5z M347.7,285.3
		c0.5-0.1,1-0.3,1.6-0.4c0.1,0,0.2-0.1,0.4-0.2c-0.3-0.8-1-1.1-1.6-0.9c-0.3,0.1-0.6,0.3-0.8,0.6c-0.2,0.3-0.2,0.6-0.1,0.9
		C347.5,285.4,347.5,285.4,347.7,285.3z M96.1,277.7c0-0.5-0.4-0.9-0.9-0.9c-0.5,0-0.9,0.4-0.9,1c0,0.5,0.4,0.9,0.9,0.9
		C95.7,278.7,96.2,278.2,96.1,277.7z M445.2,239.6c-0.5,0-1,0.4-1,0.9c0,0.5,0.4,0.9,0.9,1c0.5,0,1-0.4,1-0.9
		C446.1,240,445.7,239.6,445.2,239.6z M437.7,246.9c-0.5,0-1,0.4-1,0.9c0,0.5,0.4,0.9,1,0.9c0.5,0,0.9-0.4,0.9-0.9
		C438.6,247.4,438.2,247,437.7,246.9z M154.9,291.7c-0.5,0-1,0.4-1,0.9c0,0.5,0.4,0.9,0.9,1c0.5,0,1-0.4,1-0.9
		C155.8,292.1,155.4,291.7,154.9,291.7z M117.6,284.2c-0.5,0-0.9,0.4-0.9,0.9c0,0.4,0.4,0.8,0.8,0.9c0.5,0,0.9-0.4,0.9-0.8
		C118.5,284.7,118.1,284.3,117.6,284.2z M222.7,300.2c0-0.1,0-0.1,0-0.2c0-0.5-0.4-1-1-0.9c-0.5,0-0.9,0.5-0.9,1
		c0,0.3,0.2,0.4,0.4,0.4c0.4,0,0.8,0,1.2,0C222.6,300.3,222.7,300.3,222.7,300.2z M214.3,300.6c0.1,0,0.1,0,0.2,0
		c0.3,0,0.5-0.2,0.6-0.5c0.1-0.3,0-0.6-0.3-0.8c-0.2-0.2-0.6-0.2-0.9-0.1c-0.3,0.2-0.4,0.4-0.4,0.7c0,0.4,0.2,0.7,0.6,0.7
		C214.2,300.6,214.3,300.6,214.3,300.6C214.3,300.6,214.3,300.6,214.3,300.6z M229.7,299.2c-0.3-0.2-0.8-0.2-1.1,0.1
		c-0.1,0.1-0.2,0.3-0.3,0.5c-0.1,0.2-0.1,0.4,0.1,0.6c0.5,0,1.1,0.1,1.6,0C230.1,299.7,230,299.4,229.7,299.2z M147.3,291.8
		c-0.4,0-0.8,0.3-0.8,0.8c0,0.4,0.3,0.8,0.7,0.8c0.4,0,0.8-0.3,0.8-0.8C148.1,292.2,147.8,291.9,147.3,291.8z M310.2,292.4
		c0.1,0,0.2,0,0.3-0.1c0.1,0,0.2-0.1,0.4-0.1c0.4-0.1,0.8-0.1,1.2-0.1c0.2,0,0.2-0.2,0.1-0.3c-0.7-0.9-2-0.5-2.3,0.4
		c0,0,0,0.1,0,0.2C310,292.3,310.1,292.4,310.2,292.4z M237.6,300c0.1-0.3-0.1-0.5-0.3-0.7c-0.2-0.2-0.4-0.3-0.7-0.3
		c-0.3,0-0.5,0.1-0.7,0.3c-0.2,0.2-0.3,0.4-0.2,0.7C236.4,300.1,237.2,300.1,237.6,300z M206.9,300.5c0.1,0,0.2,0,0.4,0
		c0.3,0,0.4-0.1,0.4-0.4c0-0.3-0.1-0.6-0.4-0.8c-0.2-0.2-0.5-0.2-0.8,0c-0.3,0.2-0.4,0.4-0.4,0.8c0,0.3,0.1,0.4,0.4,0.4
		C206.7,300.5,206.8,300.5,206.9,300.5C206.9,300.5,206.9,300.5,206.9,300.5z M199.8,299.4c-0.2-0.2-0.6-0.1-0.8,0.1
		c-0.1,0.1-0.2,0.2-0.2,0.4c0,0.2,0,0.3,0.1,0.5c0.4,0.1,0.7,0.1,1.1,0C200.1,299.8,200.1,299.6,199.8,299.4z M378.9,277
		c0,0,0-0.1,0.1-0.1c-0.3-0.3-0.7-0.4-1.1-0.3c-0.4,0.1-0.7,0.4-0.8,0.9C377.7,277.5,378.3,277.2,378.9,277z M245.1,299.6
		c-0.2-0.5-0.5-0.7-0.9-0.6c-0.2,0-0.4,0.1-0.6,0.3c-0.1,0.1-0.3,0.2-0.2,0.4C243.9,299.7,244.6,299.7,245.1,299.6z M140,292
		c-0.3,0-0.6,0.2-0.6,0.6c0,0.3,0.2,0.6,0.5,0.6c0.3,0,0.6-0.2,0.6-0.6C140.5,292.3,140.3,292.1,140,292z M415.6,261.9
		c-0.3-0.1-0.5,0-0.7,0.1c-0.4,0.2-0.5,0.6-0.3,1c0.5-0.2,1-0.5,1.5-0.7C416,262,415.8,262,415.6,261.9z M110.6,284.9
		c-0.1-0.4-0.6-0.5-0.9-0.2c-0.1,0.1-0.1,0.3,0,0.3c0.3,0.1,0.5,0.3,0.9,0.2C110.6,285.1,110.6,285,110.6,284.9z M192.6,299.9
		c0-0.2-0.1-0.4-0.2-0.5c-0.1-0.1-0.3-0.1-0.4-0.1c-0.1,0-0.3,0.1-0.4,0.2c-0.1,0.1-0.2,0.2-0.1,0.4
		C191.9,300,192.3,300,192.6,299.9z M250.9,299.3c0.2,0,0.4-0.1,0.5-0.1c0.2,0,0.4,0,0.7,0C251.5,298.8,251.2,298.9,250.9,299.3z
		 M400,269.5c0.1,0,0.3,0,0.4-0.2C400,269.3,400,269.3,400,269.5z M184.6,299.5C184.6,299.5,184.6,299.5,184.6,299.5
		c-0.1,0-0.1,0-0.1,0C184.5,299.5,184.5,299.5,184.6,299.5C184.6,299.5,184.6,299.5,184.6,299.5z"/>
	<path class="st4" d="M460.7,239.8H22.1c-1.1,0-2-0.9-2-2v-0.4c0-1.1,0.9-2,2-2h438.6c1.1,0,2,0.9,2,2v0.4
		C462.7,238.9,461.8,239.8,460.7,239.8z"/>
	<g>
		<path class="st17" d="M291.5,43.9h-32.4c-5.4,0-9.8-4.4-9.8-9.8v-1.9c0-5.4,4.4-9.8,9.8-9.8h32.4c5.4,0,9.8,4.4,9.8,9.8v1.9
			C301.3,39.5,296.9,43.9,291.5,43.9z"/>
		<path class="st17" d="M255.6,40.6v11.8l13.6-13.6C269.2,38.8,255.9,40.6,255.6,40.6z"/>
		<path class="st18" d="M290.8,41.7h-30.9c-4.3,0-7.8-3.5-7.8-7.8v-1.5c0-4.3,3.5-7.8,7.8-7.8h30.9c4.3,0,7.8,3.5,7.8,7.8v1.5
			C298.6,38.2,295.1,41.7,290.8,41.7z"/>
		<path class="st17" d="M277.4,28.8h-21c-0.5,0-0.9-0.4-0.9-0.9c0-0.5,0.4-0.9,0.9-0.9h21c0.5,0,0.9,0.4,0.9,0.9
			C278.3,28.4,277.9,28.8,277.4,28.8z"/>
		<path class="st17" d="M295,32.4h-39.1c-0.3,0-0.5-0.2-0.5-0.5v-0.1c0-0.3,0.2-0.5,0.5-0.5l39.1,0c0.3,0,0.5,0.2,0.5,0.5v0.1
			C295.5,32.1,295.3,32.4,295,32.4z"/>
		<path class="st17" d="M295,34.4h-39.1c-0.3,0-0.5-0.2-0.5-0.5v-0.1c0-0.3,0.2-0.5,0.5-0.5H295c0.3,0,0.5,0.2,0.5,0.5v0.1
			C295.5,34.1,295.3,34.4,295,34.4z"/>
		<g>
			<path class="st17" d="M286.5,41h-0.4c-0.5,0-0.9-0.4-0.9-0.9v-0.2c0-0.5,0.4-0.9,0.9-0.9h0.4c0.5,0,0.9,0.4,0.9,0.9v0.2
				C287.4,40.6,287,41,286.5,41z"/>
			<path class="st17" d="M290.6,41h-0.4c-0.5,0-0.9-0.4-0.9-0.9v-0.2c0-0.5,0.4-0.9,0.9-0.9h0.4c0.5,0,0.9,0.4,0.9,0.9v0.2
				C291.5,40.6,291.1,41,290.6,41z"/>
			<path class="st17" d="M294.7,41h-0.4c-0.5,0-0.9-0.4-0.9-0.9v-0.2c0-0.5,0.4-0.9,0.9-0.9h0.4c0.5,0,0.9,0.4,0.9,0.9v0.2
				C295.6,40.6,295.2,41,294.7,41z"/>
		</g>
	</g>
	<g>
		<path class="st12" d="M189.7,235.6h-80.4c0-2.8,2.3-5.2,5.2-5.2h75.2V235.6z"/>
		<path class="st12" d="M189.8,235.6h-42.9l18.2-40.1c0.5-1.2,1.7-1.9,3-1.9h38.8c0.9,0,1.6,1,1.2,1.8L189.8,235.6z"/>
		<path class="st7" d="M206.9,193.6h-35.4c-1.3,0-2.5,0.8-3,1.9l-18.2,40.1h39.5l18.3-40.2C208.4,194.6,207.8,193.6,206.9,193.6z"/>
		<path class="st13" d="M186.5,215.9c-1.5,3.1-3.9,5-5.4,4.3c-1.5-0.7-1.5-3.8,0-7s3.9-5,5.4-4.3C188,209.7,188,212.8,186.5,215.9z"
			/>
	</g>
	<g>
		<path class="st5" d="M104.5,135.2c0,0-3.6,18.6-7.7,21.9c-4,3.3,9.3,19,13.9,15c4.6-4,0.3-12.9,0.3-12.9s-2.5-1.5,1.7-11.3
			c4.2-9.8-7.1-17.1-7.1-17.1L104.5,135.2z"/>
		<path class="st6" d="M105.6,130.7l-1.1,4.4c0,0-0.5,2.6-1.4,6c1.6,7.4,4.5,12.1,7.2,15.2c0.1-1.7,0.7-4.4,2.5-8.5
			C117,138,105.6,130.7,105.6,130.7z"/>
		<path class="st5" d="M127.6,142.2c-2.5,6.8-8.4,12.2-12.2,10.9c-6.2-2-10.7-6.9-9.7-17.6c1.3-12.6,11-14.1,16.7-12.5
			C128.1,124.7,130.3,134.8,127.6,142.2z"/>
		<path class="st15" d="M96.1,157l-5.9,2.3l9.3,11.9l-2.6,4.7c0,0,9.5,7.2,12.4,21c2.9,13.9,2.6,25.7,2.6,25.7s0.7-28.1-0.7-33.5
			C108.5,178.7,96.1,157,96.1,157z"/>
		<path class="st15" d="M111.1,159.3c0,0,7.3,18.8,8.5,24.1c1.2,5.3,1.4,31.2,1.4,31.2s3.4-22.6,2.4-29.3s-2.4-12.7-2.4-12.7
			l-4.5-3.3c0,0-0.8-9-1.3-9.1C114.8,160.2,111.1,159.3,111.1,159.3z"/>
		<path class="st5" d="M106.9,228.3c14.3-4.3,12.5-6.5,17.7-4c5.2,2.4,11.7,4.1,8.6,4.9c-3,0.8-7.6-1.7-7.6-1.7s0.7,3.9-1.9,5
			c-2.6,1.2-14.1,1.6-20.5-0.2C96.8,230.5,106.9,228.3,106.9,228.3z"/>
		<path class="st1" d="M106.5,227.7h2.8l-1.4,8.1c0,0-5.6-0.8-5.2-1.4C103.1,233.8,106.5,227.7,106.5,227.7z"/>
		<path class="st3" d="M79.5,163.5c-5.6,9.7-7.3,15.1-11.9,33.3c-4.5,18.2-6.4,26.5-1.4,28.9c4.1,2,34.3,11,38,9.9
			c1.7,0.1,4.2-8.5,4.2-8.5L81,214.9c0,0,7.9-19,9.3-31.4c1.4-12.5-4.7-19.9-7.8-19.9C79.5,163.5,79.5,163.5,79.5,163.5z"/>
		<path class="st5" d="M108.3,136.4c-1.3,4.2-0.8,5.1-2.6,5.5c-1.9,0.4-3.6-1.5-4.1-4c-0.5-2.6,0.5-5,2.4-5.4
			C105.8,132,109.1,133.9,108.3,136.4z"/>
		<path class="st14" d="M130.2,128.7c-7.3,12.9-21.7,11-30.5,6.6c-7.2-3.6,20.4-17.4,20.4-17.4L130.2,128.7z"/>
		<path class="st14" d="M106.5,117.9c-2.7-8.1-13.8-6.2-18.8,4.6c-5,10.8,2.7,18.1,7.3,15.4C99.6,135.3,106.5,117.9,106.5,117.9z"/>
	</g>
	<g>
		<path class="st19" d="M262.3,103.7c0.9-3.2,1.5-6.5,1.9-9.9L254,89.2c0.1-1,0.1-1.9,0.1-2.9c0-2.7-0.2-5.4-0.6-8l9.7-5.5
			c-0.7-3.3-1.7-6.6-2.9-9.7l-11.2,0.7c-1.5-3.3-3.4-6.5-5.6-9.4l6-9.4c-2.2-2.6-4.5-5-7-7.2l-9.6,5.8c-2.9-2.2-6-4.2-9.3-5.8
			l1-11.2c-3.1-1.3-6.3-2.3-9.6-3.1l-5.8,9.6c-3.1-0.5-6.2-0.8-9.4-0.8c-0.5,0-1,0-1.5,0L194,21.8c-3.4,0.3-6.7,0.9-10,1.7
			l-0.7,11.2c-3.5,1.1-6.9,2.6-10,4.4l-8.6-7.1c-2.8,1.8-5.5,3.9-8,6.1l4.6,10.2c-2.6,2.6-4.9,5.5-6.9,8.5l-11-2.3
			c-1.6,2.9-3.1,6-4.3,9.1l8.8,6.9c-1,3.4-1.8,7-2.1,10.7l-10.8,3c0,0.7,0,1.3,0,2c0,2.7,0.2,5.4,0.5,8.1l11,2
			c0.7,3.6,1.7,7.2,3.1,10.5l-8.1,7.7c1.5,3,3.2,5.9,5.1,8.7l10.7-3.3c2.3,2.9,4.8,5.5,7.6,7.8l-3.6,10.6c2.7,2,5.6,3.8,8.6,5.3
			l7.9-7.9c3.3,1.5,6.8,2.6,10.4,3.4l1.7,11.1c3.2,0.5,6.5,0.7,9.8,0.7c0.1,0,0.2,0,0.3,0l3.3-10.7c3.7-0.2,7.3-0.9,10.8-1.8l6.7,9
			c3.2-1.1,6.3-2.5,9.3-4l-2-11c3.1-1.9,6-4.1,8.7-6.6l10.1,4.9c2.3-2.4,4.4-5.1,6.3-7.9l-6.9-8.8c1.9-3.1,3.4-6.4,4.6-9.9
			L262.3,103.7z M199.9,112.9c-14.7,0-26.6-11.9-26.6-26.6s11.9-26.6,26.6-26.6c14.7,0,26.6,11.9,26.6,26.6S214.6,112.9,199.9,112.9
			z"/>
		<g>
			<path class="st18" d="M162.1,115.3c-0.2,0-0.4-0.1-0.6-0.3c-1.5-2-2.9-4.2-4.1-6.5c-0.2-0.3,0-0.8,0.3-0.9c0.3-0.2,0.8,0,0.9,0.3
				c1.1,2.2,2.5,4.3,3.9,6.3c0.2,0.3,0.2,0.7-0.1,1C162.4,115.3,162.3,115.3,162.1,115.3z"/>
		</g>
		<g>
			<path class="st18" d="M194.1,134.1C194.1,134.1,194,134.1,194.1,134.1c-8.4-1.1-16.4-4.4-23.1-9.5c-0.3-0.2-0.4-0.7-0.1-1
				c0.2-0.3,0.7-0.4,1-0.1c6.5,5,14.2,8.2,22.3,9.2c0.4,0.1,0.6,0.4,0.6,0.8C194.7,133.9,194.4,134.1,194.1,134.1z"/>
		</g>
	</g>
	<g>
		<rect x="200.8" y="54.1" class="st17" width="126.5" height="70.2"/>
		<rect x="202.2" y="55.6" class="st18" width="121.5" height="63.9"/>
		<g class="st20">
			<g>
				<path class="st17" d="M319.3,114.5H204.1c-0.2,0-0.3-0.1-0.3-0.3V56.6c0-0.2,0.1-0.3,0.3-0.3h115.2c0.2,0,0.3,0.1,0.3,0.3v57.7
					C319.6,114.4,319.4,114.5,319.3,114.5z M204.4,114H319V56.8H204.4V114z"/>
			</g>
			<g>
				<path class="st17" d="M319.3,104.9H204.1c-0.2,0-0.3-0.1-0.3-0.3s0.1-0.3,0.3-0.3h115.2c0.2,0,0.3,0.1,0.3,0.3
					S319.4,104.9,319.3,104.9z"/>
			</g>
			<g>
				<path class="st17" d="M319.3,95.3H204.1c-0.2,0-0.3-0.1-0.3-0.3c0-0.2,0.1-0.3,0.3-0.3h115.2c0.2,0,0.3,0.1,0.3,0.3
					C319.6,95.2,319.4,95.3,319.3,95.3z"/>
			</g>
			<g>
				<path class="st17" d="M319.3,85.7H204.1c-0.2,0-0.3-0.1-0.3-0.3s0.1-0.3,0.3-0.3h115.2c0.2,0,0.3,0.1,0.3,0.3
					S319.4,85.7,319.3,85.7z"/>
			</g>
			<g>
				<path class="st17" d="M319.3,76.1H204.1c-0.2,0-0.3-0.1-0.3-0.3c0-0.2,0.1-0.3,0.3-0.3h115.2c0.2,0,0.3,0.1,0.3,0.3
					C319.6,75.9,319.4,76.1,319.3,76.1z"/>
			</g>
			<g>
				<path class="st17" d="M319.3,66.4H204.1c-0.2,0-0.3-0.1-0.3-0.3c0-0.2,0.1-0.3,0.3-0.3h115.2c0.2,0,0.3,0.1,0.3,0.3
					C319.6,66.3,319.4,66.4,319.3,66.4z"/>
			</g>
			<g>
				<path class="st17" d="M300.1,114.5c-0.2,0-0.3-0.1-0.3-0.3V56.6c0-0.2,0.1-0.3,0.3-0.3c0.2,0,0.3,0.1,0.3,0.3v57.7
					C300.4,114.4,300.2,114.5,300.1,114.5z"/>
			</g>
			<g>
				<path class="st17" d="M280.9,114.5c-0.2,0-0.3-0.1-0.3-0.3V56.6c0-0.2,0.1-0.3,0.3-0.3s0.3,0.1,0.3,0.3v57.7
					C281.2,114.4,281,114.5,280.9,114.5z"/>
			</g>
			<g>
				<path class="st17" d="M261.7,114.5c-0.2,0-0.3-0.1-0.3-0.3V56.6c0-0.2,0.1-0.3,0.3-0.3s0.3,0.1,0.3,0.3v57.7
					C262,114.4,261.8,114.5,261.7,114.5z"/>
			</g>
			<g>
				<path class="st17" d="M242.5,114.5c-0.2,0-0.3-0.1-0.3-0.3V56.6c0-0.2,0.1-0.3,0.3-0.3c0.2,0,0.3,0.1,0.3,0.3v57.7
					C242.8,114.4,242.6,114.5,242.5,114.5z"/>
			</g>
			<g>
				<path class="st17" d="M223.3,114.5c-0.2,0-0.3-0.1-0.3-0.3V56.6c0-0.2,0.1-0.3,0.3-0.3c0.2,0,0.3,0.1,0.3,0.3v57.7
					C223.6,114.4,223.4,114.5,223.3,114.5z"/>
			</g>
		</g>
		<g>
			<path class="st21" d="M204.1,114.8c-0.2,0-0.4-0.1-0.5-0.3c-0.1-0.3,0-0.6,0.2-0.7l19.1-9.6l9.9-9.5l9.2-19.1
				c0-0.1,0.1-0.1,0.1-0.2l10.4-9.3c0.1-0.1,0.3-0.2,0.5-0.1c0.2,0,0.3,0.2,0.4,0.3l8.8,18.9l10.4,18.5l7.9-9
				c0.1-0.1,0.2-0.2,0.4-0.2c0.2,0,0.3,0.1,0.4,0.2l8.9,9l9.3-28c0-0.1,0.1-0.2,0.1-0.2l19.2-19.2c0.2-0.2,0.6-0.2,0.8,0
				c0.2,0.2,0.2,0.6,0,0.8l-19.1,19.1l-9.6,28.7c-0.1,0.2-0.2,0.3-0.4,0.4c-0.2,0-0.4,0-0.5-0.1l-9.2-9.2l-8,9.2
				c-0.1,0.1-0.3,0.2-0.5,0.2c-0.2,0-0.3-0.1-0.4-0.3l-10.8-19.2c0,0,0,0,0,0l-8.5-18.2l-9.8,8.7l-9.2,19.1c0,0.1-0.1,0.1-0.1,0.2
				l-10,9.6c0,0-0.1,0.1-0.1,0.1l-19.2,9.6C204.3,114.8,204.2,114.8,204.1,114.8z"/>
		</g>
		<g>
			<path class="st17" d="M204.1,114.8c-0.1,0-0.3-0.1-0.4-0.2c-0.2-0.2-0.2-0.6,0-0.8L231.8,85c0.2-0.2,0.6-0.2,0.8,0l9.9,9.3
				l18.8-18.9c0.2-0.2,0.6-0.2,0.8,0l9.6,9.2l8.8-9.2c0.1-0.1,0.2-0.2,0.4-0.2c0.1,0,0.3,0.1,0.4,0.2l18.7,18.7l18.9-37.8
				c0.1-0.3,0.5-0.4,0.7-0.2c0.3,0.1,0.4,0.5,0.2,0.7l-19.2,38.5c-0.1,0.2-0.2,0.3-0.4,0.3c-0.2,0-0.4,0-0.5-0.2l-18.8-18.8
				l-8.8,9.2c-0.1,0.1-0.2,0.2-0.4,0.2c-0.1,0-0.3-0.1-0.4-0.2l-9.6-9.2l-18.8,18.9c-0.2,0.2-0.6,0.2-0.8,0l-9.8-9.2l-27.8,28.5
				C204.4,114.8,204.2,114.8,204.1,114.8z"/>
		</g>
	</g>
	<g>
		<path class="st17" d="M174.4,89.8h-3.8V36.2c0-5.4,4.4-9.9,9.9-9.9h23.7c5.4,0,9.9,4.4,9.9,9.9v14C214.1,72,196.3,89.8,174.4,89.8
			z"/>
		<path class="st18" d="M174.8,88h-3.6V36.7c0-5.2,4.2-9.4,9.4-9.4h22.7c5.2,0,9.4,4.2,9.4,9.4v13.4C212.6,71.1,195.7,88,174.8,88z"
			/>
		<path class="st17" d="M195.5,75.6v-1.1c0-0.9-0.6-1.6-1.3-1.6h-41.6c-0.7,0-1.3,0.7-1.3,1.6v1.1c0,7.8,5.4,14,12.1,14h42.5
			C199.2,89.6,195.5,84,195.5,75.6z"/>
		<path class="st18" d="M194.5,76.7v-0.9c0-0.7-0.6-1.3-1.3-1.3h-39c-0.7,0-1.3,0.6-1.3,1.3v0.9c0,6.3,5.1,11.4,11.4,11.4h41.5
			C199.6,88,194.5,85,194.5,76.7z"/>
		<g>
			<path class="st17" d="M208.3,52.7h-29.6c-0.9,0-1.7-0.8-1.7-1.7V34.9c0-0.9,0.8-1.7,1.7-1.7h29.6c0.9,0,1.7,0.8,1.7,1.7V51
				C210,51.9,209.2,52.7,208.3,52.7z M178.6,33.7c-0.6,0-1.1,0.5-1.1,1.1V51c0,0.6,0.5,1.1,1.1,1.1h29.6c0.6,0,1.1-0.5,1.1-1.1V34.9
				c0-0.6-0.5-1.1-1.1-1.1H178.6z"/>
		</g>
		<path class="st17" d="M198.4,60.5h-32.6c-0.5,0-0.8-0.4-0.8-0.8c0-0.5,0.4-0.8,0.8-0.8h32.6c0.5,0,0.8,0.4,0.8,0.8
			C199.3,60.1,198.9,60.5,198.4,60.5z"/>
		<path class="st17" d="M198.4,63.5h-32.6c-0.5,0-0.8-0.4-0.8-0.8c0-0.5,0.4-0.8,0.8-0.8h32.6c0.5,0,0.8,0.4,0.8,0.8
			C199.3,63.2,198.9,63.5,198.4,63.5z"/>
		<path class="st17" d="M198.4,66.5h-32.6c-0.5,0-0.8-0.4-0.8-0.8c0-0.5,0.4-0.8,0.8-0.8h32.6c0.5,0,0.8,0.4,0.8,0.8
			C199.3,66.1,198.9,66.5,198.4,66.5z"/>
		<g>
			<path class="st17" d="M199.8,37.4h-0.3c-0.4,0-0.8-0.4-0.8-0.8v-0.2c0-0.4,0.4-0.8,0.8-0.8h0.3c0.4,0,0.8,0.4,0.8,0.8v0.2
				C200.6,37.1,200.2,37.4,199.8,37.4z"/>
			<path class="st17" d="M203.3,37.4h-0.3c-0.4,0-0.8-0.4-0.8-0.8v-0.2c0-0.4,0.4-0.8,0.8-0.8h0.3c0.4,0,0.8,0.4,0.8,0.8v0.2
				C204.1,37.1,203.7,37.4,203.3,37.4z"/>
			<path class="st17" d="M206.8,37.4h-0.3c-0.4,0-0.8-0.4-0.8-0.8v-0.2c0-0.4,0.4-0.8,0.8-0.8h0.3c0.4,0,0.8,0.4,0.8,0.8v0.2
				C207.6,37.1,207.2,37.4,206.8,37.4z"/>
		</g>
		<rect x="180.2" y="42.9" class="st17" width="4.4" height="7.2"/>
		<rect x="192.3" y="43.5" class="st17" width="4.4" height="6.6"/>
		<rect x="199.3" y="40.6" class="st17" width="4.4" height="9.6"/>
		<rect x="186.1" y="45.8" class="st17" width="4.4" height="4.4"/>
	</g>
	<g>
		<path class="st17" d="M442.5,98.2h15.6c0,8.6-7,15.6-15.6,15.6c-8.6,0-15.6-7-15.6-15.6s7-15.6,15.6-15.6V98.2z"/>
		<g>
			<path class="st21" d="M460.7,96c0-8.6-7-15.6-15.6-15.6V96H460.7z"/>
			<path class="st21" d="M429.5,96c0,8.6,7,15.6,15.6,15.6C436.5,111.6,429.5,104.6,429.5,96z"/>
			<path class="st21" d="M445.1,80.4c-8.6,0-15.6,7-15.6,15.6C429.5,87.4,436.5,80.4,445.1,80.4z"/>
			<path class="st21" d="M445.1,111.6c8.6,0,15.6-7,15.6-15.6C460.7,104.6,453.6,111.6,445.1,111.6z"/>
		</g>
	</g>
	<ellipse transform="matrix(0.9732 -0.2298 0.2298 0.9732 -8.5164 59.8829)" class="st21" cx="252.9" cy="66.5" rx="1.4" ry="1.4"/>
	<ellipse transform="matrix(0.9732 -0.2298 0.2298 0.9732 -13.409 55.6574)" class="st17" cx="232.3" cy="85.4" rx="1.4" ry="1.4"/>
	<circle class="st17" cx="261.7" cy="75.8" r="1.4"/>
	<circle class="st17" cx="280.9" cy="75.8" r="1.4"/>
	<circle class="st21" cx="300.1" cy="75.8" r="1.4"/>
	<g>
		<circle class="st22" cx="160.4" cy="89.6" r="7.5"/>
		<g>
			<path class="st18" d="M159.6,92.2C159.6,92.2,159.6,92.2,159.6,92.2c-0.1,0-0.2-0.1-0.3-0.1l-2-2.3c-0.2-0.2-0.1-0.4,0-0.6
				c0.2-0.2,0.4-0.1,0.6,0l1.7,2l4-3.9c0.2-0.2,0.4-0.2,0.6,0c0.2,0.2,0.2,0.4,0,0.6l-4.3,4.2C159.8,92.2,159.7,92.2,159.6,92.2z"/>
		</g>
	</g>
	<g>
		<rect x="54.8" y="44.6" class="st17" width="5" height="27.1"/>
		<rect x="75.9" y="52.5" class="st17" width="5" height="19.2"/>
		<rect x="86.4" y="44.6" class="st17" width="5" height="27.1"/>
		<rect x="97" y="62.1" class="st17" width="5" height="9.6"/>
		<rect x="65.3" y="36.4" class="st17" width="5" height="35.4"/>
		<rect x="107.5" y="52.5" class="st17" width="5" height="19.2"/>
	</g>
	<g>
		<rect x="360.8" y="47.1" class="st17" width="5" height="14.4"/>
		<rect x="424.6" y="51.8" class="st17" width="5" height="9.7"/>
		<rect x="381.9" y="27.8" class="st17" width="5" height="33.7"/>
		<rect x="392.4" y="46.3" class="st17" width="5" height="15.1"/>
		<rect x="403" y="42" class="st17" width="5" height="19.4"/>
		<rect x="371.4" y="37.6" class="st17" width="5" height="23.9"/>
		<rect x="413.6" y="32" class="st17" width="5" height="29.4"/>
	</g>
	<g>
		<defs>
			<path id="SVGID_00000001657972933043495000000001152426818074696610_" d="M38.9,98.4c-10.9,0-19.8,8.9-19.8,19.8
				c0,10.9,8.9,19.8,19.8,19.8s19.8-8.9,19.8-19.8C58.7,107.3,49.9,98.4,38.9,98.4z M38.9,128.7c-5.8,0-10.5-4.7-10.5-10.5
				c0-5.8,4.7-10.5,10.5-10.5s10.5,4.7,10.5,10.5C49.4,124,44.7,128.7,38.9,128.7z"/>
		</defs>
		<clipPath id="SVGID_00000092442429579566586580000013124832953446194067_">
			<use xlink:href="#SVGID_00000001657972933043495000000001152426818074696610_"  style="overflow:visible;"/>
		</clipPath>
		<path style="clip-path:url(#SVGID_00000092442429579566586580000013124832953446194067_);fill:#A2DFF2;" d="M56.8,129.1
			l-17.9-10.9l-3.2,20.7C44.1,140.2,52.4,136.3,56.8,129.1z"/>
		<path style="clip-path:url(#SVGID_00000092442429579566586580000013124832953446194067_);fill:#9CD499;" d="M56.8,129.1
			c0-0.1,0.1-0.2,0.1-0.2c3.8-6.3,3.9-14.2,0.5-20.6c-6.3,3.3-2.6,1.3-18.5,9.9C56.9,129.2,54.1,127.5,56.8,129.1z"/>
		<path style="clip-path:url(#SVGID_00000092442429579566586580000013124832953446194067_);fill:#9EC8FF;" d="M19.3,111l19.7,7.2
			l18.4-10C48.8,92.3,25.5,94.2,19.3,111z"/>
		<path style="clip-path:url(#SVGID_00000092442429579566586580000013124832953446194067_);fill:#F39892;" d="M35.7,138.9l3.2-20.7
			L19.3,111C14.6,123.5,22.9,136.9,35.7,138.9z"/>
		<path style="clip-path:url(#SVGID_00000092442429579566586580000013124832953446194067_);fill:#E7F3FE;" d="M57.8,128.9
			c3.6-6.2,3.8-14,0.5-20.4l0,0l-0.3-0.6c0,0,0,0,0,0l-0.3-0.5l0,0c-2.1-3.6-5.1-6.5-8.6-8.4c-3.5-1.8-7.5-2.6-11.5-2.4
			c-8.4,0.6-15.5,5.7-18.6,13.5l0,0l-0.2,0.6l-0.2,0.7l0,0c-2,5.9-1.3,12.3,1.8,17.7c3.2,5.5,8.5,9.3,14.7,10.4l0,0l0.7,0.1
			c0,0,0.7,0.1,0.7,0.1l0,0c0.9,0.1,1.8,0.2,2.7,0.2c3.1,0,6.2-0.7,9.1-2c3.7-1.7,6.8-4.4,9-7.8l0,0l0.1-0.2c0,0,0.2-0.4,0.2-0.4
			c0-0.1,0.1-0.1,0.1-0.2l0,0c0,0,0,0,0,0L57.8,128.9L57.8,128.9z M55.7,110c0.4-0.2,0.9-0.5,1.4-0.8c2.9,6,2.8,13.1-0.5,18.9
			c0,0-0.1-0.1-0.1-0.1c-0.7-0.4-1-0.6-2.5-1.5l-13.6-8.3l11.3-6.1C53.3,111.2,54,110.9,55.7,110z M20.2,110.5
			c3-7.2,9.6-12,17.4-12.5c7.8-0.5,14.9,3.3,18.8,9.9l-5.4,2.9c-1.1,0.6-2.7,1.5-5.3,2.9c-1.7,0.9-3.8,2.1-6.5,3.5l-0.2,0.1
			l-0.5-0.3l0,0.2l-8.6-3.2L20.2,110.5z M21.4,128.3c-2.9-5-3.6-11-1.7-16.5l13,4.8l5.5,2l-3,19.5C29.4,137,24.4,133.5,21.4,128.3z
			 M36.5,138.3l3-19l7.7,4.7c3.1,1.9,4.9,3,6,3.7l2.7,1.6C51.6,135.8,44.1,139.3,36.5,138.3z"/>
	</g>
	<path class="st17" d="M26.3,163.3c0,3.4-2.8,6.2-6.2,6.2c-3.4,0-6.2-2.8-6.2-6.2s2.8-6.2,6.2-6.2C23.6,157,26.3,159.8,26.3,163.3z"
		/>
	<path class="st18" d="M24.7,163.5c0,1.7-1.4,3.1-3.1,3.1c-1.7,0-3.1-1.4-3.1-3.1c0-1.7,1.4-3.1,3.1-3.1
		C23.3,160.4,24.7,161.8,24.7,163.5z"/>
	<path class="st17" d="M441.1,163.2H439c-6,0-10.8-4.9-10.8-10.8v-2.1c0-6,4.9-10.8,10.8-10.8h2.1c6,0,10.8,4.9,10.8,10.8v2.1
		C451.9,158.3,447.1,163.2,441.1,163.2z"/>
	<g>
		<path class="st18" d="M455,167.5h-15.5c-2.7,0-4.8-2.2-4.8-4.8v-15.5c0-2.7,2.2-4.8,4.8-4.8H455c2.7,0,4.8,2.2,4.8,4.8v15.5
			C459.8,165.3,457.7,167.5,455,167.5z M439.5,143.8c-1.9,0-3.4,1.5-3.4,3.4v15.5c0,1.9,1.5,3.4,3.4,3.4H455c1.9,0,3.4-1.5,3.4-3.4
			v-15.5c0-1.9-1.5-3.4-3.4-3.4H439.5z"/>
	</g>
	<path class="st17" d="M174.9,164l-4-4.6c-0.6-0.7-0.5-1.8,0.2-2.4l4.6-4c0.7-0.6,1.8-0.5,2.4,0.2l4,4.6c0.6,0.7,0.5,1.8-0.2,2.4
		l-4.6,4C176.5,164.8,175.5,164.7,174.9,164z"/>
	<path class="st17" d="M198.6,167.9c0,1.9-1.6,3.5-3.5,3.5c-1.9,0-3.5-1.6-3.5-3.5c0-1.9,1.6-3.5,3.5-3.5
		C197,164.4,198.6,165.9,198.6,167.9z"/>
	<path class="st17" d="M497.5,157c0,1.9-1.6,3.5-3.5,3.5c-1.9,0-3.5-1.6-3.5-3.5s1.6-3.5,3.5-3.5C496,153.6,497.5,155.1,497.5,157z"
		/>
	<path class="st17" d="M407.5,86.1c0,1.9-1.6,3.5-3.5,3.5c-1.9,0-3.5-1.6-3.5-3.5c0-1.9,1.6-3.5,3.5-3.5
		C405.9,82.6,407.5,84.1,407.5,86.1z"/>
	
		<ellipse transform="matrix(0.1602 -0.9871 0.9871 0.1602 268.1512 573.5453)" class="st17" cx="471.1" cy="129.2" rx="2.7" ry="2.7"/>
	<g>
		<path class="st17" d="M369.9,95.7h-43.6c-4.5,0-8.2-3.7-8.2-8.2V76.8c0-4.5,3.7-8.2,8.2-8.2h43.6c4.5,0,8.2,3.7,8.2,8.2v10.8
			C378,92,374.4,95.7,369.9,95.7z"/>
		<path class="st18" d="M369.8,94.4h-43.5c-3.6,0-6.6-3-6.6-6.6v-5.5c0-3.6,3-6.6,6.6-6.6h43.5c3.6,0,6.6,3,6.6,6.6v5.5
			C376.4,91.5,373.5,94.4,369.8,94.4z"/>
		<g>
			<path class="st18" d="M322,72.7h-0.4c-0.5,0-1-0.4-1-1v-0.2c0-0.5,0.4-1,1-1h0.4c0.5,0,1,0.4,1,1v0.2
				C322.9,72.3,322.5,72.7,322,72.7z"/>
			<path class="st18" d="M326.2,72.7h-0.4c-0.5,0-1-0.4-1-1v-0.2c0-0.5,0.4-1,1-1h0.4c0.5,0,1,0.4,1,1v0.2
				C327.2,72.3,326.8,72.7,326.2,72.7z"/>
			<path class="st18" d="M330.5,72.7h-0.4c-0.5,0-1-0.4-1-1v-0.2c0-0.5,0.4-1,1-1h0.4c0.5,0,1,0.4,1,1v0.2
				C331.5,72.3,331,72.7,330.5,72.7z"/>
		</g>
		<path class="st17" d="M374.1,79.8h-30c-0.5,0-0.9-0.4-0.9-0.9c0-0.5,0.4-0.9,0.9-0.9h30c0.5,0,0.9,0.4,0.9,0.9
			C375,79.4,374.6,79.8,374.1,79.8z"/>
		<path class="st17" d="M351.6,93.6h-30c-0.5,0-0.9-0.4-0.9-0.9c0-0.5,0.4-0.9,0.9-0.9h30c0.5,0,0.9,0.4,0.9,0.9
			C352.5,93.2,352,93.6,351.6,93.6z"/>
		<path class="st17" d="M356.6,93.6h-2.1c-0.4,0-0.8-0.4-0.8-0.8v-0.2c0-0.4,0.4-0.8,0.8-0.8h2.1c0.4,0,0.8,0.4,0.8,0.8v0.2
			C357.4,93.3,357,93.6,356.6,93.6z"/>
		<path class="st17" d="M361.2,93.6h-2.1c-0.4,0-0.8-0.4-0.8-0.8v-0.2c0-0.4,0.4-0.8,0.8-0.8h2.1c0.5,0,0.8,0.4,0.8,0.8v0.2
			C362.1,93.3,361.7,93.6,361.2,93.6z"/>
		<path class="st17" d="M374.4,83.7h-49.6c-0.3,0-0.6-0.3-0.6-0.6c0-0.3,0.3-0.6,0.6-0.6h49.6c0.3,0,0.6,0.3,0.6,0.6
			C375,83.4,374.7,83.7,374.4,83.7z"/>
		<path class="st17" d="M374.4,86.3h-49.6c-0.3,0-0.6-0.3-0.6-0.6c0-0.3,0.3-0.6,0.6-0.6h49.6c0.3,0,0.6,0.3,0.6,0.6
			C375,86.1,374.7,86.3,374.4,86.3z"/>
	</g>
	<ellipse transform="matrix(0.2298 -0.9732 0.9732 0.2298 -49.4698 73.2881)" class="st17" cx="21.6" cy="67.9" rx="6.9" ry="6.9"/>
	<path class="st17" d="M117.6,88.2H68.2c-0.5,0-0.9-0.4-0.9-0.9c0-0.5,0.4-0.9,0.9-0.9h49.5c0.5,0,0.9,0.4,0.9,0.9
		C118.6,87.8,118.1,88.2,117.6,88.2z"/>
	<path class="st17" d="M117.6,92.8H68.2c-0.5,0-0.9-0.4-0.9-0.9c0-0.5,0.4-0.9,0.9-0.9h49.5c0.5,0,0.9,0.4,0.9,0.9
		C118.6,92.4,118.1,92.8,117.6,92.8z"/>
	<g>
		<path class="st19" d="M303.5,158.4c0.1-1.3,0.2-2.6,0.2-3.9c0-0.7,0-1.4-0.1-2.1l-6.4-2.1c-0.4-2.7-1.2-5.3-2.3-7.7l4.2-5.2
			c-1-1.7-2.1-3.4-3.4-4.9l-6.4,2.1c-1.9-1.9-4-3.5-6.3-4.9l0.4-6.7c-1.8-0.8-3.6-1.5-5.6-2l-3.9,5.4c-1.5-0.3-3.1-0.4-4.7-0.4
			c-1.1,0-2.2,0.1-3.2,0.2l-3.7-5.6c-2,0.4-3.9,1-5.7,1.7l0,6.7c-2.4,1.2-4.6,2.7-6.6,4.5l-6.3-2.4c-1.3,1.5-2.5,3-3.6,4.7l4,5.4
			c-1.2,2.3-2.1,4.9-2.7,7.5l-6.5,1.7c-0.1,1.3-0.2,2.6-0.2,3.9c0,0.7,0,1.4,0.1,2.1l6.4,2.1c0.4,2.7,1.2,5.3,2.3,7.7l-4.2,5.2
			c1,1.7,2.1,3.4,3.4,4.9l6.4-2.1c1.9,1.9,4,3.5,6.3,4.9l-0.4,6.7c1.8,0.8,3.6,1.5,5.6,2l3.9-5.4c1.5,0.3,3.1,0.4,4.7,0.4
			c1.1,0,2.2-0.1,3.2-0.2l3.7,5.6c2-0.4,3.9-1,5.7-1.7l0-6.7c2.4-1.2,4.6-2.7,6.6-4.5l6.3,2.4c1.3-1.5,2.5-3,3.6-4.7l-4-5.4
			c1.2-2.3,2.1-4.9,2.7-7.5L303.5,158.4z M269.2,168c-7.5,0-13.5-6-13.5-13.5c0-7.5,6-13.5,13.5-13.5s13.5,6,13.5,13.5
			C282.8,161.9,276.7,168,269.2,168z"/>
		<g>
			<path class="st18" d="M287.7,170.1c-0.2,0-0.3-0.1-0.4-0.2c-0.3-0.2-0.3-0.7-0.1-1c3.4-4,5.2-9.2,5.2-14.5c0-2.5-0.4-5-1.2-7.4
				c-0.1-0.4,0.1-0.8,0.4-0.9c0.4-0.1,0.8,0.1,0.9,0.4c0.9,2.5,1.3,5.1,1.3,7.8c0,5.6-2,11-5.5,15.3
				C288.1,170,287.9,170.1,287.7,170.1z"/>
		</g>
		<g>
			<path class="st18" d="M285.7,138.2c-0.2,0-0.3-0.1-0.5-0.2c-2.3-2.1-4.9-3.7-7.8-4.8c-0.4-0.1-0.5-0.5-0.4-0.9
				c0.1-0.4,0.5-0.5,0.9-0.4c3.1,1.1,5.9,2.8,8.3,5.1c0.3,0.3,0.3,0.7,0,1C286.1,138.1,285.9,138.2,285.7,138.2z"/>
		</g>
		<g>
			<path class="st18" d="M264,132.6c-0.3,0-0.6-0.2-0.7-0.5c-0.1-0.4,0.1-0.8,0.5-0.8c1.9-0.5,3.9-0.7,5.9-0.7
				c0.4,0,0.7,0.3,0.7,0.7c0,0.4-0.3,0.7-0.7,0.7c-1.9,0-3.7,0.2-5.6,0.7C264.1,132.6,264.1,132.6,264,132.6z"/>
		</g>
	</g>
</g>
</svg>
