<svg width="634" height="507" viewBox="0 0 634 507" fill="none" xmlns="http://www.w3.org/2000/svg">
<g clip-path="url(#clip0_5_54)">
<path d="M412.693 158.165C427.162 156.765 441.009 155.366 452.678 156.454C478.193 158.631 501.686 178.849 507.287 203.577C511.955 223.95 502.931 242.613 482.394 254.899C452.055 272.939 433.23 312.286 442.254 339.036C449.566 361.12 474.148 370.918 511.332 367.03C537.626 364.23 559.718 369.984 577.299 383.981C582.9 375.583 586.79 365.474 586.945 350.233C587.101 320.373 565.786 303.11 555.673 282.737C552.406 276.05 550.228 269.207 550.384 261.431C551.006 229.549 578.544 157.698 532.492 119.285C499.197 91.4463 434.008 113.064 397.913 123.173C375.042 129.705 352.483 138.414 329.768 145.568C348.438 164.541 380.954 161.275 412.693 158.165Z" fill="#C4EBF2"/>
<path d="M316.232 491.291H146.647C146.647 491.291 78.6577 479.316 26.2265 305.132C22.9592 294.246 20.3143 283.981 18.4474 274.495C-7.37931 144.635 89.3929 137.17 147.114 144.79C157.694 161.586 166.562 188.803 154.893 226.594C147.27 250.7 132.334 265.008 116.464 275.894C110.552 279.938 104.484 283.67 98.5723 287.092C69.634 304.355 44.5852 319.129 66.8335 372.628C90.0152 428.305 150.848 430.327 204.679 432.037C239.997 433.282 270.491 434.215 283.404 450.389L316.232 491.291Z" fill="#C4EBF2"/>
<path d="M575.743 386.159C573.565 389.114 571.076 392.068 568.431 394.868C566.564 396.89 564.542 398.911 562.675 401.089L562.519 401.244C562.052 401.866 561.43 402.333 560.963 402.955C558.941 405.132 556.762 407.31 554.74 409.798C554.429 410.109 554.118 410.42 553.806 410.887C553.495 411.198 553.184 411.664 552.873 411.975C552.562 412.286 552.251 412.753 551.939 413.064C551.628 413.375 551.317 413.841 551.006 414.152C550.072 415.241 549.294 416.485 548.517 417.574C548.205 418.04 547.894 418.352 547.739 418.818C546.65 420.373 545.561 422.084 544.471 423.95C527.98 452.722 553.651 491.291 553.651 491.291H319.499V490.824L285.738 448.834C271.891 431.726 240.775 430.638 204.835 429.394C151.937 427.683 92.0379 425.661 69.4785 371.695C48.1637 320.529 71.0343 306.843 99.9726 289.58C106.04 286.003 112.264 282.271 118.331 278.072C134.512 266.874 149.759 252.255 157.538 227.372C169.207 190.047 161.116 162.83 150.692 145.257C155.049 145.879 159.25 146.656 163.139 147.434C197.523 154.277 235.485 160.031 270.958 157.543C274.692 157.232 278.581 156.921 282.315 156.454C297.407 154.588 312.187 150.855 326.812 146.345C346.259 167.496 381.11 164.075 412.849 160.964C427.318 159.565 440.854 158.165 452.367 159.254C476.326 161.275 499.197 181.026 504.487 204.044C507.132 215.241 507.443 236.547 480.994 252.255C449.566 270.918 430.274 311.82 439.609 339.813C444.121 353.344 459.523 375.272 511.644 369.673C528.758 367.807 543.849 369.673 557.229 375.117C563.919 378.072 570.143 381.649 575.743 386.159Z" fill="#C4EBF2"/>
<path d="M283.56 450.544L316.232 491.291H146.647C146.647 491.291 78.6578 479.316 26.2265 305.132C22.9593 294.246 20.3144 283.981 18.4474 274.495C46.2966 262.364 91.1044 249.3 116.464 276.05C110.552 280.093 104.484 283.826 98.5723 287.247C69.634 304.51 44.5852 319.285 66.8335 372.784C90.0153 428.46 150.848 430.482 204.679 432.193C240.152 433.437 270.646 434.37 283.56 450.544Z" fill="#B0DEE2"/>
<path d="M586.945 350.233C586.945 350.855 586.945 351.477 586.945 352.1C586.945 352.411 586.945 352.877 586.945 353.188C586.945 353.655 586.945 353.966 586.945 354.432C586.945 354.588 586.945 354.743 586.945 354.899C586.945 355.521 586.945 356.143 586.79 356.61C586.79 357.387 586.634 358.165 586.634 358.787C586.634 359.098 586.479 359.565 586.479 359.876C586.323 361.586 586.012 363.297 585.545 364.852C585.39 365.63 585.234 366.563 584.923 367.341C584.767 368.118 584.612 368.74 584.301 369.518C583.834 370.918 583.367 372.162 582.9 373.406C582.589 374.028 582.434 374.65 582.122 375.272C581.811 375.894 581.5 376.516 581.189 377.138C580.878 377.605 580.722 378.227 580.411 378.694C580.411 378.694 580.411 378.694 580.411 378.849C580.1 379.471 579.789 379.938 579.478 380.404C579.322 380.56 579.322 380.715 579.166 380.871C578.544 381.804 578.077 382.737 577.455 383.67C576.988 384.448 576.366 385.226 575.743 386.003C575.743 386.003 575.744 386.159 575.588 386.159C575.121 386.781 574.81 387.247 574.343 387.869C574.188 388.18 574.032 388.336 573.721 388.647C573.254 389.269 572.787 389.891 572.321 390.358C572.165 390.513 572.01 390.669 572.01 390.824C570.92 392.224 569.676 393.468 568.431 394.712C566.564 396.734 564.542 398.756 562.675 400.933L562.519 401.089C562.052 401.711 561.43 402.177 560.963 402.799C558.941 404.977 556.762 407.154 554.74 409.642C554.429 409.953 554.118 410.264 553.806 410.731C553.495 411.042 553.184 411.509 552.873 411.82C552.562 412.131 552.251 412.597 551.939 412.908C551.628 413.219 551.317 413.686 551.006 413.997C550.072 415.086 549.294 416.33 548.517 417.418C548.205 417.885 547.894 418.196 547.739 418.663C546.65 420.218 545.561 421.928 544.471 423.795C527.98 452.566 553.651 491.135 553.651 491.135H319.499V490.669L285.738 448.678C271.891 431.571 240.775 430.482 204.835 429.238C151.937 427.527 92.0379 425.505 69.4785 371.54C48.1637 320.373 71.0343 306.687 99.9726 289.425C106.04 285.848 112.264 282.115 118.331 277.916C124.088 284.759 128.6 293.779 131.711 305.599C154.426 395.49 220.393 451.477 286.671 415.241C352.95 379.005 417.672 353.966 450.344 403.733C456.879 413.686 463.724 423.639 470.57 433.437C475.237 440.124 477.727 449.611 484.417 454.743C499.975 466.563 513.977 437.014 521.601 427.994C535.759 411.353 550.85 395.956 557.229 374.961C557.54 374.028 557.852 373.095 558.007 372.162C558.474 370.14 558.941 368.274 559.407 366.096C561.897 351.633 554.118 337.947 551.006 324.261C547.894 311.042 549.606 297.201 554.74 284.603C555.051 283.826 555.362 283.048 555.829 282.115C565.786 303.11 587.101 320.373 586.945 350.233Z" fill="#B0DEE2"/>
<path d="M117.987 377.835C136.054 370.042 144.381 349.083 136.585 331.023C128.789 312.963 107.822 304.64 89.7549 312.433C71.6874 320.225 63.3608 341.184 71.1568 359.244C78.9529 377.304 99.9193 385.628 117.987 377.835Z" fill="white"/>
<path d="M92.6602 241.68C112.337 241.68 128.289 225.735 128.289 206.065C128.289 186.396 112.337 170.451 92.6602 170.451C72.9832 170.451 57.0319 186.396 57.0319 206.065C57.0319 225.735 72.9832 241.68 92.6602 241.68Z" fill="white"/>
<path d="M202.968 119.129C222.645 119.129 238.596 103.184 238.596 83.5148C238.596 63.8455 222.645 47.9005 202.968 47.9005C183.291 47.9005 167.34 63.8455 167.34 83.5148C167.34 103.184 183.291 119.129 202.968 119.129Z" fill="#EBF9FC"/>
<path d="M416.116 71.2286C435.793 71.2286 451.744 55.2836 451.744 35.6143C451.744 15.9451 435.793 0 416.116 0C396.439 0 380.488 15.9451 380.488 35.6143C380.488 55.2836 396.439 71.2286 416.116 71.2286Z" fill="#EBF9FC"/>
<path d="M506.043 201.4C525.72 201.4 541.671 185.455 541.671 165.785C541.671 146.116 525.72 130.171 506.043 130.171C486.366 130.171 470.414 146.116 470.414 165.785C470.414 185.455 486.366 201.4 506.043 201.4Z" fill="white"/>
<path d="M556.918 338.569C576.595 338.569 592.546 322.624 592.546 302.955C592.546 283.286 576.595 267.341 556.918 267.341C537.241 267.341 521.29 283.286 521.29 302.955C521.29 322.624 537.241 338.569 556.918 338.569Z" fill="white"/>
<path d="M451.278 183.204C455.918 183.204 459.679 179.444 459.679 174.806C459.679 170.167 455.918 166.407 451.278 166.407C446.638 166.407 442.876 170.167 442.876 174.806C442.876 179.444 446.638 183.204 451.278 183.204Z" fill="white"/>
<path d="M406.159 92.6905C410.799 92.6905 414.56 88.9306 414.56 84.2924C414.56 79.6542 410.799 75.8943 406.159 75.8943C401.519 75.8943 397.757 79.6542 397.757 84.2924C397.757 88.9306 401.519 92.6905 406.159 92.6905Z" fill="#EBF9FC"/>
<path d="M248.865 133.282C253.505 133.282 257.266 129.522 257.266 124.883C257.266 120.245 253.505 116.485 248.865 116.485C244.225 116.485 240.464 120.245 240.464 124.883C240.464 129.522 244.225 133.282 248.865 133.282Z" fill="#EBF9FC"/>
<path d="M156.449 227.061C156.449 231.726 152.715 235.459 148.048 235.459C143.38 235.459 139.646 231.726 139.646 227.061C139.646 222.395 143.38 218.663 148.048 218.663C152.559 218.663 156.449 222.395 156.449 227.061Z" fill="white"/>
<path d="M154.426 380.56C159.066 380.56 162.828 376.8 162.828 372.162C162.828 367.524 159.066 363.764 154.426 363.764C149.786 363.764 146.025 367.524 146.025 372.162C146.025 376.8 149.786 380.56 154.426 380.56Z" fill="white"/>
<path d="M508.376 302.177C513.016 302.177 516.778 298.417 516.778 293.779C516.778 289.141 513.016 285.381 508.376 285.381C503.736 285.381 499.975 289.141 499.975 293.779C499.975 298.417 503.736 302.177 508.376 302.177Z" fill="white"/>
<path d="M188.499 491.291H146.647C146.647 491.291 144.936 486.314 140.58 481.338C136.379 476.361 123.932 474.961 113.975 471.54C108.685 469.674 105.574 462.831 103.084 456.921C100.906 451.789 99.0391 446.967 96.2386 446.345C90.1709 444.946 78.5022 441.991 73.9903 433.593C69.3228 425.039 57.0318 433.593 42.8738 423.95C28.7158 414.308 31.2052 398.6 40.0734 403.577C48.9415 408.554 59.21 398.911 69.4784 400.311C79.7469 401.555 78.3466 412.908 87.2148 415.863C96.083 418.974 106.974 418.041 114.442 432.193C118.331 439.658 122.376 443.079 127.511 445.568C132.178 447.745 137.623 448.989 144.936 451.789C160.183 457.232 188.499 491.291 188.499 491.291Z" fill="#4B92B5"/>
<path d="M41.6292 408.398C41.6292 408.398 46.919 416.641 60.7658 415.708C74.6126 414.775 98.7279 436.236 103.395 437.636C108.063 439.036 106.663 428.616 100.128 423.017C93.5937 417.418 75.0794 412.442 70.4119 406.221C65.7444 400 41.6292 408.398 41.6292 408.398Z" fill="#54A5C6"/>
<path opacity="0.39" d="M171.54 491.291C171.54 491.291 142.447 464.541 124.088 455.521C105.729 446.345 104.64 435.77 94.3716 429.082C84.1031 422.395 67.767 420.373 67.767 420.373C67.767 420.373 88.1482 422.706 97.172 428.771C106.196 434.837 111.33 447.278 130.155 455.832C148.981 464.386 170.607 488.803 170.607 488.803L171.54 491.291Z" fill="#203A51"/>
<path opacity="0.39" d="M188.499 491.291H146.647C146.647 491.291 144.936 486.314 140.579 481.338C136.379 476.361 123.932 474.961 113.975 471.54C108.685 469.673 105.573 462.831 103.084 456.921C107.44 457.543 112.575 459.409 117.864 463.297C133.423 474.961 129.844 473.25 140.113 468.74C148.825 465.008 130.933 455.677 127.355 445.412C132.022 447.589 137.468 448.834 144.78 451.633C160.183 457.232 188.499 491.291 188.499 491.291Z" fill="#203A51"/>
<path d="M609.66 354.432C613.705 354.277 616.039 345.257 616.506 342.613C616.817 341.058 616.973 339.347 616.662 337.792C616.506 336.859 616.195 335.925 615.417 335.459C614.328 334.837 612.772 335.303 611.839 336.081C610.438 337.17 609.505 338.569 608.727 340.124C607.482 342.613 606.549 345.257 606.082 348.056C605.926 349.145 605.771 350.233 606.082 351.322C606.393 352.411 607.015 353.499 608.105 353.966C608.571 354.432 609.038 354.588 609.66 354.432Z" fill="#C4ED45"/>
<path d="M606.238 368.118C609.66 369.829 615.572 364.23 617.128 362.52C618.062 361.431 618.995 360.342 619.462 359.098C619.773 358.476 619.929 357.543 619.462 356.921C618.84 355.988 617.439 355.677 616.195 355.832C614.639 355.988 613.083 356.765 611.839 357.543C609.66 358.787 607.793 360.342 606.082 362.208C605.46 362.831 604.837 363.608 604.526 364.541C604.215 365.474 604.371 366.563 604.993 367.341C605.46 367.496 605.771 367.807 606.238 368.118Z" fill="#C4ED45"/>
<path d="M613.083 378.849C610.905 375.894 602.504 378.072 600.325 378.849C598.925 379.316 597.525 379.938 596.436 380.715C595.814 381.182 595.191 381.804 595.347 382.582C595.347 383.67 596.591 384.603 597.681 384.915C599.236 385.537 600.792 385.537 602.504 385.381C605.149 385.226 607.638 384.759 610.127 383.981C611.061 383.67 611.994 383.359 612.616 382.582C613.394 381.96 613.861 381.026 613.706 379.938C613.55 379.627 613.394 379.16 613.083 378.849Z" fill="#C4ED45"/>
<path d="M598.147 376.205C598.147 376.205 603.904 362.986 600.948 360.342C597.992 357.698 592.235 363.608 593.013 369.207C593.169 370.918 593.791 372.784 594.569 374.339C594.88 375.272 597.058 378.694 598.147 376.205Z" fill="#C4ED45"/>
<path d="M584.612 397.045C584.612 396.89 584.767 396.89 584.767 396.734C585.39 395.801 585.856 394.712 586.167 393.779C586.945 391.135 587.256 388.18 586.79 385.537C586.634 384.448 586.479 383.515 585.856 382.582C584.145 379.782 581.033 380.871 579.633 383.359C578.388 385.537 577.922 388.18 578.388 390.669C578.855 393.157 580.411 395.334 582.433 396.89C582.9 397.201 583.678 397.667 584.3 397.356C584.3 397.356 584.456 397.201 584.612 397.045Z" fill="#C4ED45"/>
<path d="M578.699 402.955C578.699 402.333 579.011 401.866 579.322 401.4C581.189 399.067 584.3 397.667 587.412 397.667C589.901 397.512 594.724 398.6 595.036 401.555C595.191 402.799 594.102 403.888 593.169 404.51C589.59 406.999 583.989 407.154 580.1 404.666C579.477 404.355 578.855 403.733 578.699 403.11V402.955Z" fill="#C4ED45"/>
<path d="M565.942 414.464C566.253 414.464 566.564 414.463 566.875 414.308C568.431 413.375 570.142 411.042 570.92 409.487C572.009 407.154 572.321 404.355 571.698 401.866C571.387 400.467 570.454 399.067 569.053 398.6C568.12 398.289 567.031 398.756 566.408 399.222C565.631 399.845 565.164 400.622 564.853 401.4C563.919 403.577 563.452 405.91 563.764 408.243C563.608 409.02 564.075 414.152 565.942 414.464Z" fill="#C4ED45"/>
<path d="M537.003 443.39C537.159 443.39 537.47 443.39 537.626 443.235C537.781 443.079 552.406 427.683 558.94 421.617C561.119 419.596 563.297 417.574 565.475 415.397C569.209 411.82 573.098 408.087 576.988 404.666C581.655 400.467 586.945 395.801 590.99 390.358C594.88 385.381 597.836 379.627 600.792 374.184L601.881 372.317C605.926 364.852 610.905 351.477 610.905 351.322C611.061 351.011 610.905 350.7 610.438 350.544C610.127 350.389 609.66 350.544 609.66 350.855C609.66 351.011 604.682 364.386 600.637 371.695L599.547 373.561C596.591 379.005 593.635 384.603 589.901 389.58C585.856 394.868 580.566 399.533 576.055 403.733C572.165 407.31 568.275 410.887 564.541 414.463C562.363 416.485 560.185 418.663 558.007 420.684C551.472 426.75 536.848 442.146 536.692 442.302C536.537 442.613 536.537 442.924 536.692 443.079C536.848 443.39 536.848 443.39 537.003 443.39Z" fill="#334763"/>
<path d="M565.008 470.296C564.697 471.54 564.23 472.784 563.764 474.028C557.074 490.047 547.894 492.224 547.894 492.224H505.887L502.153 491.913C502.153 491.913 502.62 490.669 503.398 488.647C506.198 482.271 513.199 467.807 522.534 460.342C523.157 459.876 523.779 459.409 524.557 458.943C538.092 450.233 548.205 447.901 554.429 442.768C560.652 437.636 565.631 424.572 566.253 426.439C567.031 428.149 569.831 453.81 565.008 470.296Z" fill="#4B92B5"/>
<path d="M530.936 457.854C530.936 457.854 535.136 452.255 547.739 447.589C560.341 442.924 564.697 435.614 565.631 438.88C566.564 442.146 559.252 457.076 546.805 465.319C542.916 467.963 537.626 470.451 532.492 469.673C525.179 468.429 528.135 461.431 530.936 457.854Z" fill="#54A5C6"/>
<path d="M562.986 457.854C562.986 457.854 561.741 458.787 557.696 459.876C554.118 460.809 551.006 460.964 550.072 460.964C551.628 459.098 553.184 457.387 554.584 455.521C560.496 448.367 563.919 442.613 563.919 442.613L563.297 442.302C563.297 442.302 560.03 447.589 554.74 454.277C554.895 453.344 554.895 451.633 554.584 450.078C554.118 447.589 553.495 447.123 553.495 446.967C553.34 446.812 553.184 446.812 553.028 446.967C552.873 447.123 552.873 447.278 553.028 447.434C553.028 447.434 553.495 447.901 553.962 450.233C554.429 452.722 553.962 455.21 553.962 455.21V455.366C550.228 459.876 546.65 464.23 542.138 468.274C541.827 466.719 541.204 462.675 541.36 459.565C541.515 455.677 541.827 453.81 541.827 453.81C541.827 453.655 541.671 453.499 541.515 453.499C541.36 453.499 541.204 453.655 541.049 453.81C541.049 453.81 540.737 455.677 540.582 459.565C540.426 463.142 541.36 467.963 541.515 468.74C539.337 470.762 536.848 472.784 533.892 474.65C533.892 474.65 533.736 474.65 533.736 474.806C533.114 473.561 531.558 469.362 531.714 465.474C531.714 460.809 532.18 458.009 532.18 458.009C532.18 457.854 532.025 457.698 531.869 457.698C531.714 457.698 531.558 457.854 531.402 458.009C531.402 458.009 530.936 460.809 530.936 465.63C530.936 469.829 532.647 474.184 533.114 475.272C530.158 477.45 527.669 480.093 525.802 482.737C525.335 481.338 524.401 477.45 523.779 473.717C523.157 469.051 523.157 468.274 523.157 468.118C523.157 467.963 523.001 467.807 522.845 467.807C522.69 467.807 522.534 467.963 522.534 468.118C522.534 468.118 522.534 469.051 523.157 473.717C523.779 478.383 525.335 483.359 525.335 483.359C522.223 487.714 520.512 491.602 520.512 491.757L521.134 491.913C521.134 491.913 521.912 490.047 523.312 487.558C523.312 487.558 523.312 487.558 523.468 487.558C523.468 487.558 527.669 488.025 532.025 488.025C533.736 488.025 535.292 488.025 536.848 487.714C542.604 487.092 543.694 486.625 543.694 486.625C543.849 486.625 544.005 486.314 543.849 486.159C543.693 486.003 543.538 486.003 543.382 486.003C543.382 486.003 542.138 486.47 536.692 487.092C531.403 487.714 524.557 486.936 523.468 486.936C524.712 484.915 526.268 482.426 528.446 480.093C528.446 480.093 528.602 480.093 528.758 480.093C528.758 480.093 532.492 479.782 537.937 480.56C541.204 481.026 543.227 481.026 544.471 481.026C545.249 481.026 545.716 481.026 545.716 481.026C545.872 481.026 546.027 480.871 546.027 480.715C546.027 480.56 545.872 480.404 545.56 480.404C545.56 480.404 543.382 480.715 538.093 479.938C533.425 479.316 530.158 479.471 529.069 479.471C530.469 478.072 531.869 476.672 533.581 475.428C533.736 475.428 533.736 475.272 533.736 475.272C533.892 475.117 534.047 475.117 534.203 474.961C535.914 473.873 537.47 472.628 538.87 471.54L539.026 471.695C539.026 471.695 542.76 472.317 546.805 472.317C548.205 472.317 549.606 472.317 550.85 472.006C554.429 471.54 556.762 471.073 557.074 470.762C557.229 470.607 557.229 470.451 557.074 470.296C556.918 470.14 556.762 470.14 556.607 470.296C556.607 470.296 555.829 470.607 550.85 471.384C546.027 472.006 540.582 471.229 539.337 471.073C543.227 467.963 546.338 464.697 549.294 461.275H549.45C549.606 461.275 553.34 461.275 557.54 460.031C561.897 458.942 563.141 458.009 563.141 457.854C563.297 457.698 563.297 457.543 563.141 457.387C563.452 457.698 563.141 457.698 562.986 457.854Z" fill="#366E84"/>
<path opacity="0.39" d="M565.008 470.296C564.697 471.54 564.23 472.784 563.764 474.028C557.074 490.047 547.894 492.224 547.894 492.224L507.287 491.913C505.887 490.824 504.642 489.736 503.553 488.647C506.354 482.271 513.355 467.807 522.69 460.342C521.445 465.785 521.134 472.317 524.246 478.538C531.091 493.002 553.651 488.025 561.741 476.205C562.986 474.028 564.075 472.162 565.008 470.296Z" fill="#203A51"/>
<path d="M555.673 442.146C554.895 445.101 554.117 447.901 553.184 450.544C539.959 487.247 521.601 492.224 521.601 492.224H438.053L430.585 491.291C430.585 491.291 431.519 488.492 433.23 483.826C438.831 469.051 452.678 435.925 471.503 418.974C472.748 417.729 474.148 416.641 475.393 415.708C502.309 395.645 522.534 390.358 534.825 378.538C547.116 366.874 557.074 336.859 558.474 341.213C559.718 345.412 565.475 404.199 555.673 442.146Z" fill="#5DC990"/>
<path opacity="0.27" d="M487.684 413.53C487.684 413.53 496.085 400.622 521.134 389.891C546.183 379.16 554.895 362.52 556.762 369.985C558.629 377.45 544.16 411.509 519.267 430.482C511.488 436.392 501.064 442.302 490.795 440.591C476.326 437.792 482.394 421.773 487.684 413.53Z" fill="#E9F47D"/>
<path d="M551.784 413.375C551.784 413.375 549.295 415.397 541.204 417.885C534.203 420.062 527.824 420.529 525.957 420.529C529.069 416.33 532.025 412.286 535.137 407.932C546.805 391.602 553.806 378.383 553.806 378.383L552.562 377.761C552.562 377.916 546.183 389.891 535.448 405.132C535.603 402.799 535.914 399.067 535.137 395.334C534.047 389.58 533.114 388.491 532.958 388.18C532.647 387.869 532.336 387.869 532.025 388.18C531.714 388.491 531.714 388.803 532.025 389.114C532.025 389.114 532.958 390.202 533.892 395.49C534.981 401.089 533.892 406.843 533.892 406.999C533.892 407.154 533.892 407.31 533.892 407.31C526.579 417.574 519.423 427.527 510.399 437.014C509.932 433.593 508.532 424.261 508.843 417.263C508.999 408.554 509.777 404.199 509.777 404.199C509.777 403.888 509.621 403.421 509.154 403.421C508.843 403.421 508.376 403.577 508.376 404.044C508.376 404.199 507.754 408.398 507.443 417.263C507.287 425.35 508.999 436.547 509.31 438.414C504.798 443.079 499.819 447.589 494.218 452.1C494.063 452.1 494.063 452.255 493.907 452.255C492.818 449.3 489.706 439.813 489.862 430.949C490.018 420.218 490.951 413.841 490.951 413.841C490.951 413.53 490.796 413.064 490.329 413.064C489.862 413.064 489.551 413.219 489.551 413.686C489.551 413.686 488.617 420.218 488.462 430.949C488.306 440.591 491.885 450.7 492.818 453.188C486.906 458.165 482.083 464.386 478.193 470.296C477.415 467.03 475.393 458.165 474.304 449.611C473.059 439.036 472.904 437.014 472.904 437.014C472.904 436.547 472.592 436.392 472.126 436.236C471.659 436.236 471.348 436.547 471.348 437.014C471.348 437.014 471.348 439.036 472.748 449.767C474.148 460.498 476.949 471.851 476.949 472.006C470.725 482.115 467.458 491.135 467.458 491.291L468.858 491.757C468.858 491.602 470.414 487.558 473.215 481.96H473.37C473.526 481.96 481.616 483.048 490.484 483.048C493.752 483.048 497.174 482.893 500.13 482.426C511.488 480.871 513.822 479.938 513.822 479.938C514.133 479.782 514.288 479.316 514.133 479.005C513.977 478.694 513.511 478.538 513.199 478.694C513.044 478.694 510.866 479.627 499.819 481.182C489.395 482.582 475.548 480.871 473.526 480.715C475.86 476.05 479.127 470.451 483.328 465.163C483.483 465.319 483.639 465.319 483.794 465.319C483.794 465.319 491.107 464.852 501.997 466.408C508.532 467.341 512.577 467.652 514.911 467.652C516.622 467.652 517.245 467.496 517.4 467.496C517.711 467.496 518.022 467.03 518.022 466.719C518.022 466.408 517.556 466.096 517.245 466.096C517.245 466.096 513.044 466.719 502.153 465.008C492.974 463.608 486.284 463.764 484.261 463.919C486.906 460.498 490.018 457.387 493.285 454.588H493.44C493.596 454.588 493.752 454.432 493.907 454.121C494.218 453.966 494.374 453.655 494.685 453.499C497.952 450.855 501.064 448.212 504.02 445.568C504.176 445.723 504.176 445.723 504.331 445.723C504.487 445.723 511.644 447.278 519.889 447.278C522.534 447.278 525.335 447.123 528.135 446.656C535.292 445.568 539.804 444.479 540.426 443.857C540.737 443.546 540.737 443.079 540.426 442.768C540.115 442.457 539.804 442.457 539.493 442.768C539.493 442.768 538.093 443.546 527.824 445.257C518.178 446.812 507.287 444.79 504.954 444.324C512.577 437.014 518.956 429.549 524.712 421.928C524.868 422.084 525.024 422.084 525.179 422.084C525.49 422.084 532.803 421.929 541.36 419.285C549.917 416.641 552.406 414.463 552.406 414.463C552.717 414.152 552.717 413.686 552.406 413.53C552.406 413.219 552.095 413.219 551.784 413.375Z" fill="#317C6D"/>
<path opacity="0.27" d="M555.673 442.146C554.895 445.101 554.118 447.901 553.184 450.544C539.96 487.247 521.601 492.224 521.601 492.224L440.698 491.446C438.053 489.114 435.564 486.47 433.074 483.981C438.675 469.207 452.522 436.081 471.348 419.129C468.858 431.415 468.392 446.501 474.304 460.964C487.995 494.246 532.803 482.737 548.828 455.521C551.628 450.855 553.806 446.345 555.673 442.146Z" fill="#21544A"/>
<path d="M452.678 492.068H413.782C413.782 492.068 402.891 393.935 401.024 394.712C399.157 395.49 395.579 492.068 395.579 492.068C395.579 492.068 356.839 492.068 356.683 492.068C355.594 491.913 355.439 477.45 355.594 467.03C355.594 462.675 355.75 458.943 355.905 457.232C356.839 440.436 357.772 423.795 358.706 406.999C358.862 403.733 362.44 355.677 361.506 355.521C361.506 355.521 382.043 359.098 394.023 360.031C396.668 360.187 398.846 360.342 400.402 360.187C402.113 360.031 404.292 359.72 406.781 359.409C416.738 358.009 430.585 355.521 430.585 355.521L448.477 466.719L452.678 492.068Z" fill="#501A57"/>
<g opacity="0.5">
<path d="M370.53 448.523C370.53 448.523 363.685 483.981 375.976 485.848C388.422 487.714 392.934 461.897 395.579 423.95C398.224 385.848 395.268 364.075 390.134 367.496C385.155 370.607 370.53 448.523 370.53 448.523Z" fill="#6C2C77"/>
<path d="M407.092 381.804C406.003 384.603 406.159 387.869 406.47 390.98C408.804 418.04 411.137 445.101 413.471 472.162C413.938 478.538 416.738 484.292 422.962 486.47C429.34 488.803 438.52 487.092 440.854 479.782C441.631 477.605 441.32 475.117 441.165 472.784C439.764 454.899 437.431 437.17 434.319 419.44C432.763 411.042 431.207 402.644 429.185 394.401C427.94 389.269 426.54 383.826 422.806 380.093C419.072 376.361 412.226 375.272 408.648 379.16C408.026 380.093 407.559 381.026 407.092 381.804Z" fill="#6C2C77"/>
</g>
<path d="M462.791 461.742C460.768 462.986 455.167 465.008 448.633 466.719C436.497 469.985 421.25 473.095 418.761 471.384C415.027 468.896 415.494 466.563 414.716 459.409C414.249 454.899 410.515 405.132 407.559 366.719C407.403 364.23 407.248 361.742 406.937 359.254C405.536 339.813 404.292 324.728 404.136 322.084C403.98 319.285 404.914 304.821 406.314 286.936C408.804 254.588 412.537 211.198 412.693 205.754C412.693 203.422 412.693 200.933 412.537 198.6C412.226 192.691 411.448 187.714 411.448 187.714C411.448 187.714 416.427 190.202 418.294 194.401C420.317 198.445 421.561 201.244 421.561 201.244C421.561 201.244 453.611 213.375 456.101 218.352C458.59 223.328 447.232 254.277 445.365 269.362C443.965 280.871 442.565 288.18 443.187 300.778C443.187 302.333 443.343 304.044 443.498 305.91C443.654 308.554 443.965 311.353 444.432 314.464C446.921 336.236 452.678 338.88 457.345 377.916C457.501 378.694 457.501 379.471 457.656 380.249C462.013 421.929 468.703 458.009 462.791 461.742Z" fill="#EBF4F7"/>
<path d="M457.034 378.227C455.323 376.827 453.767 374.806 452.678 372.006C447.388 358.32 427.94 357.854 430.896 356.299C433.697 354.743 427.94 346.501 432.452 339.813C436.964 333.126 443.343 306.221 443.343 306.221C443.498 308.865 443.81 311.664 444.276 314.775C446.61 336.547 452.367 339.191 457.034 378.227Z" fill="#C6DFE5"/>
<path d="M396.979 322.084C396.513 325.661 395.423 340.902 394.179 360.187C393.868 364.541 393.556 369.207 393.245 374.028C391.69 395.801 389.823 420.373 387.956 439.347C386.4 454.743 384.999 466.563 383.599 470.14C383.444 470.762 383.132 471.073 382.977 471.229C382.821 471.384 382.51 471.384 382.199 471.384C378.465 472.162 366.33 469.985 355.75 467.03C354.35 466.719 352.95 466.252 351.549 465.785C343.615 463.453 337.391 460.809 337.547 458.943C337.702 457.854 338.48 451.011 339.569 440.591C340.192 435.614 340.814 429.705 341.592 423.484C343.303 409.487 345.17 392.846 347.193 376.672C350.46 349.3 353.883 323.328 355.594 313.53C355.75 312.131 356.061 310.887 356.217 309.487C356.839 304.355 357.15 299.067 357.15 293.624V293.468C357.15 285.07 356.683 276.516 355.906 268.74C354.972 258.943 353.883 250.389 353.572 244.79C352.638 231.104 357.306 208.709 357.306 208.709C357.306 208.709 365.863 204.977 370.219 203.733C374.731 202.488 377.843 201.4 377.843 201.4C377.843 201.4 380.643 193.157 383.288 190.824C385.933 188.491 388.422 188.18 388.422 188.18C388.422 188.18 388.578 192.224 388.733 199.067C389.2 211.664 390.289 233.593 392.156 256.61C393.401 271.851 394.646 283.826 395.579 293.624C396.979 306.532 397.757 315.397 396.979 322.084Z" fill="#EBF4F7"/>
<path d="M368.197 360.342C365.085 361.275 355.439 367.185 347.037 376.672C350.305 349.3 353.727 323.328 355.439 313.53C355.594 312.131 355.906 310.887 356.061 309.487C358.395 316.796 362.129 326.905 367.263 331.571C375.82 339.347 373.486 358.943 368.197 360.342Z" fill="#C6DFE5"/>
<path opacity="0.68" d="M441.787 255.988L418.761 258.009C419.85 255.521 420.783 253.033 421.872 250.7L441.009 249.145C441.009 251.477 441.32 253.81 441.787 255.988Z" fill="white"/>
<path d="M406.47 353.966C406.625 355.832 406.781 357.698 406.937 359.565C404.447 359.876 402.269 360.187 400.558 360.342C399.002 360.498 396.824 360.342 394.179 360.187C395.579 340.902 396.668 325.661 396.979 322.084C397.757 315.397 396.979 306.532 395.735 293.468C394.801 283.67 393.401 271.695 392.312 256.454C390.445 233.437 389.511 211.509 388.889 198.911C388.889 198.911 391.69 200.622 394.023 203.577C394.646 204.355 395.268 205.132 395.735 206.065C398.224 210.575 398.535 211.198 398.535 211.198C398.535 211.198 407.87 197.823 412.382 198.911C412.538 201.244 412.538 203.577 412.538 206.065C412.382 211.509 408.648 254.899 406.159 287.247C404.758 305.132 403.825 319.44 403.98 322.395C404.292 324.728 405.225 337.325 406.47 353.966Z" fill="#33CAD1"/>
<path d="M427.162 360.031V360.653C427.162 362.831 428.874 364.541 431.052 364.541H448.01C450.188 364.541 451.9 362.831 451.9 360.653V360.031C451.9 357.854 450.188 356.143 448.01 356.143H431.052C428.874 356.299 427.162 358.009 427.162 360.031Z" fill="white"/>
<path d="M355.283 355.521H369.908C372.086 355.521 373.798 357.232 373.798 359.409V359.72C373.798 361.897 372.086 363.608 369.908 363.608L355.283 363.297C352.949 363.297 351.238 361.12 351.549 358.942C351.705 357.076 353.416 355.521 355.283 355.521Z" fill="white"/>
<path d="M370.064 355.521H352.016C352.016 355.521 349.06 351.633 352.016 347.745C355.594 346.034 359.017 345.101 361.818 344.635C363.84 345.257 365.24 346.19 365.24 346.19L365.863 347.278L369.752 354.899L370.064 355.521Z" fill="#FFC7AE"/>
<path d="M448.944 356.299H430.741L431.207 355.365L434.475 349.3L435.408 347.434C435.408 347.434 435.875 347.123 436.497 346.656C440.542 347.123 445.832 348.056 450.344 349.611C450.5 352.877 448.944 356.299 448.944 356.299Z" fill="#FFC7AE"/>
<path d="M439.453 267.963C439.453 272.473 435.875 276.05 431.363 276.05C426.851 276.05 423.273 272.473 423.273 267.963C423.273 263.453 426.851 259.876 431.363 259.876C435.719 259.876 439.453 263.608 439.453 267.963Z" fill="#374877"/>
<path d="M435.253 267.963C435.253 270.14 433.541 271.851 431.363 271.851C429.185 271.851 427.473 270.14 427.473 267.963C427.473 265.785 429.185 264.075 431.363 264.075C433.541 264.075 435.253 265.785 435.253 267.963Z" fill="#1B223A"/>
<path d="M356.995 293.468C356.995 285.07 356.528 276.516 355.75 268.74L356.683 260.809C356.683 260.809 358.706 249.456 360.262 253.655C361.973 257.698 357.461 282.582 356.995 293.468Z" fill="#C6DFE5"/>
<path d="M442.876 301.089C441.787 293.935 440.542 284.603 440.542 276.672C440.542 261.431 441.787 246.967 441.787 246.967L445.054 269.673C443.654 281.182 442.254 288.491 442.876 301.089Z" fill="#C6DFE5"/>
<path d="M370.064 355.521H352.016C352.016 355.521 349.06 351.633 352.016 347.745C355.594 346.034 359.017 345.101 361.818 344.635C363.84 345.257 365.24 346.19 365.24 346.19L365.863 347.278C362.284 349.922 358.084 353.344 359.484 354.121C359.951 354.432 363.84 354.588 369.908 354.899L370.064 355.521Z" fill="#F9AC8A"/>
<path d="M448.944 356.299H430.741L431.207 355.366C437.275 355.21 441.009 354.899 440.542 354.432C439.453 353.344 436.808 351.166 434.475 349.456L435.408 347.589C435.408 347.589 435.875 347.278 436.497 346.812C440.542 347.278 445.832 348.212 450.344 349.767C450.5 352.877 448.944 356.299 448.944 356.299Z" fill="#F9AC8A"/>
<path d="M357.306 208.554C357.306 208.554 344.392 213.064 341.125 223.95C338.014 234.992 318.41 282.271 322.3 302.488C326.189 322.706 347.815 352.877 349.838 353.966C352.016 355.21 366.641 347.123 367.263 342.924C367.73 338.725 350.616 305.91 350.149 291.913C349.682 277.916 357.306 260.342 358.862 237.481C360.573 214.775 357.306 208.554 357.306 208.554Z" fill="#EBF4F7"/>
<path d="M426.073 199.533L412.849 188.647C409.737 186.159 405.848 184.759 401.802 184.759H397.757C394.023 184.759 390.289 186.003 387.178 188.336L376.909 196.268C373.798 198.756 371.464 202.177 370.53 206.065V206.221C369.597 210.264 366.796 213.686 363.062 215.708C362.44 216.019 362.129 216.174 361.973 216.33C356.528 221.462 355.283 231.104 355.906 237.792L358.706 237.481C358.084 230.949 359.484 222.551 363.685 218.507C363.84 218.507 363.996 218.352 364.151 218.196C365.707 217.418 367.108 216.33 368.352 215.086C370.841 216.019 372.864 217.418 374.575 218.974C377.998 222.395 377.687 227.061 377.376 232.037L377.22 233.282L380.021 233.437L380.176 232.193C380.488 227.061 380.954 221.151 376.598 216.796C374.887 215.086 372.708 213.686 370.375 212.597C371.619 210.731 372.553 208.709 373.175 206.532V206.376C373.953 203.11 375.82 200.311 378.465 198.289L388.733 190.358C391.223 188.491 394.334 187.403 397.602 187.403H401.647C405.07 187.403 408.337 188.647 410.826 190.669L424.051 201.555C427.473 204.355 429.34 208.398 429.34 212.753V260.498H432.141V212.753C432.297 207.776 430.118 202.955 426.073 199.533Z" fill="#1B2656"/>
<path d="M371.93 275.117C371.619 275.117 371.464 275.117 371.308 275.117L371.619 273.717C371.775 273.717 376.131 274.339 379.243 266.096C382.51 257.387 378.154 232.037 378.154 231.726L379.398 233.126C379.554 234.059 383.91 257.543 380.488 266.563C377.687 274.339 373.486 275.117 371.93 275.117Z" fill="#374877"/>
<path d="M372.708 274.495C372.708 274.495 370.53 271.851 369.597 272.317C368.663 272.784 367.574 274.495 368.819 276.05C370.219 277.605 372.708 274.495 372.708 274.495Z" fill="#1B223A"/>
<path d="M363.84 274.339C363.84 274.339 366.641 271.073 367.263 272.784C368.041 274.495 366.641 277.761 365.552 276.516C364.463 275.117 363.84 274.339 363.84 274.339Z" fill="#1B223A"/>
<path d="M364.463 275.117C364.307 275.117 361.04 274.806 356.995 269.207C353.105 263.608 356.683 238.569 356.839 237.481L358.239 237.636C357.15 244.635 355.128 264.075 358.084 268.274C361.662 273.25 364.463 273.561 364.463 273.717V275.117Z" fill="#374877"/>
<path d="M412.382 198.911C407.714 197.823 398.535 211.198 398.535 211.198C398.535 211.198 398.224 210.42 395.735 206.065C393.245 201.555 388.889 198.911 388.889 198.911V183.515H411.293L411.915 190.98L412.382 198.911Z" fill="#FFC7AE"/>
<path d="M411.76 190.98C408.648 193.935 404.914 196.423 401.647 196.423C398.068 196.423 393.245 193.002 388.889 189.269V183.515H411.293L411.76 190.98Z" fill="#ED8772"/>
<path d="M427.629 152.722C426.384 149.611 422.184 153.344 422.184 153.344C422.184 151.633 422.184 150.233 422.028 148.989C420.939 137.17 421.561 131.415 407.403 126.905C393.245 122.24 383.755 126.128 380.954 132.815C378.309 139.347 376.442 146.967 376.442 146.967C376.442 146.967 376.754 149.145 377.376 152.566C377.376 152.566 373.02 150.078 372.553 154.121C372.086 158.165 374.575 163.764 376.442 163.764C378.309 163.764 379.398 161.897 379.398 161.897C382.51 174.028 388.578 189.425 399.469 190.669C412.382 192.068 418.916 176.205 421.25 162.831C421.872 163.608 422.806 164.23 423.895 163.764C426.073 162.986 428.874 155.832 427.629 152.722Z" fill="#FFC7AE"/>
<path d="M376.598 146.967C376.598 146.967 380.176 142.146 382.043 137.481C383.755 132.815 383.755 132.815 383.755 132.815C383.755 132.815 403.047 129.705 409.27 131.882C415.494 134.059 415.494 134.059 416.427 137.325C417.361 140.591 422.184 148.056 422.184 148.056V153.344C422.184 153.344 424.362 150.7 424.517 146.967C424.829 143.235 422.339 138.103 423.273 134.992C424.051 131.882 424.051 130.638 421.561 127.372C419.072 124.261 414.093 117.263 403.203 115.241C398.846 114.463 394.334 113.686 389.822 113.686C387.644 113.686 385.311 113.686 383.132 114.308C381.577 114.775 379.71 115.708 379.243 117.418C377.998 122.24 378.621 126.75 378.621 126.75C378.621 127.061 377.22 128.616 377.065 128.927C375.353 131.571 374.42 134.837 374.264 137.947C373.953 144.946 376.442 148.523 376.442 148.523V146.967H376.598Z" fill="#1B2656"/>
<path d="M395.735 293.468C395.268 292.224 374.42 233.126 372.397 227.527C370.375 221.928 379.399 219.44 379.399 219.44L374.42 216.33C374.42 216.33 374.42 216.33 372.708 214.152C370.997 211.975 377.843 201.244 377.843 201.244C377.843 201.244 380.643 193.002 383.288 190.669C385.933 188.336 388.422 188.025 388.422 188.025C388.422 188.025 389.356 220.995 392.156 256.454C393.401 271.695 394.646 283.67 395.735 293.468Z" fill="white"/>
<path d="M430.896 228.616C430.585 229.705 426.54 239.191 421.717 250.7C420.783 253.033 419.694 255.521 418.605 258.009C414.093 268.585 409.27 279.782 406.159 287.247C408.648 254.899 412.382 211.509 412.538 206.065C412.693 197.512 411.293 188.18 411.293 188.18C411.293 188.18 416.272 190.669 418.138 194.868C420.161 198.911 421.406 201.711 421.406 201.711C421.406 201.711 429.807 214.152 429.185 216.019C428.407 217.885 422.65 220.684 422.65 220.684C422.65 220.684 431.83 225.505 430.896 228.616Z" fill="white"/>
<path d="M480.994 298.756C479.438 307.932 479.438 307.932 479.438 307.932C479.438 307.932 453.922 355.521 451.277 355.521C448.633 355.677 432.919 347.434 432.763 343.546C432.608 339.658 447.699 311.509 450.344 295.49C452.522 282.426 444.899 273.25 441.943 255.832C441.631 253.655 441.32 251.478 441.009 248.989C440.853 246.812 440.698 244.635 440.698 242.302C440.542 215.397 453.144 216.019 453.144 216.019C453.144 216.019 458.279 217.574 460.924 229.238C463.568 241.213 482.55 289.58 480.994 298.756Z" fill="#EBF4F7"/>
<path d="M406.781 359.565C404.292 359.876 402.114 360.187 400.402 360.342C398.846 360.498 396.668 360.342 394.023 360.187C395.423 340.902 396.513 325.661 396.824 322.084C397.602 315.397 396.824 306.532 395.579 293.468C394.646 283.67 393.245 271.695 392.156 256.454C390.289 233.437 389.356 211.509 388.733 198.911C388.733 198.911 389.2 198.134 391.69 201.089C391.378 217.107 393.401 258.631 397.29 274.495C402.114 294.712 394.49 340.902 400.713 350.233C401.958 352.1 403.981 353.344 406.47 353.966C406.625 355.677 406.781 357.698 406.781 359.565Z" fill="#3294B2"/>
<path d="M403.981 208.243C398.691 213.064 398.38 221.306 397.913 228.149C396.513 248.367 401.491 286.47 402.891 281.338C404.758 274.65 404.603 267.03 405.225 260.187C406.159 248.834 407.092 237.636 407.87 226.283C408.337 220.218 409.581 213.219 408.959 207.154C408.959 206.843 408.804 206.376 408.648 206.065C408.181 205.599 407.403 205.91 406.781 206.221C405.692 206.843 404.758 207.465 403.981 208.243Z" fill="#64DDDD"/>
<path opacity="0.46" d="M377.843 362.519C373.642 366.719 368.352 370.451 362.44 370.451C356.217 370.296 352.483 372.317 352.949 379.316C353.105 382.115 354.194 384.915 355.439 387.558C356.995 390.824 359.484 394.246 363.062 394.712C366.33 395.179 369.441 393.313 371.775 390.98C379.087 383.67 381.577 372.006 377.843 362.519Z" fill="white"/>
<path opacity="0.46" d="M431.363 368.74C431.052 369.207 430.896 369.829 430.741 370.451C429.496 377.139 435.564 389.269 440.542 393.157C449.411 400.311 453.145 389.891 450.344 380.249C448.944 375.117 434.941 363.297 431.363 368.74Z" fill="white"/>
<path opacity="0.46" d="M382.666 402.488C374.887 417.418 364.463 431.882 349.371 439.191C347.193 440.28 344.859 441.213 342.525 441.058C341.436 441.058 340.503 440.902 339.569 440.591C340.192 435.614 340.814 429.705 341.592 423.484C348.904 421.617 355.75 418.04 361.662 413.375C372.086 405.132 379.865 394.09 387.489 383.204C388.578 389.891 385.777 396.423 382.666 402.488Z" fill="white"/>
<path opacity="0.46" d="M387.644 439.347C386.088 454.743 384.688 466.563 383.288 470.14C382.821 470.607 382.355 471.073 381.888 471.54C378.154 472.317 366.018 470.14 355.439 467.185C354.039 466.874 352.638 466.408 351.238 465.941C364.463 462.675 381.11 455.521 387.644 439.347Z" fill="white"/>
<path opacity="0.46" d="M363.84 279.627C363.84 279.627 372.708 288.647 381.888 290.824C391.067 293.002 389.511 320.995 388.889 332.037C388.267 343.079 368.508 319.596 364.774 307.932C360.884 296.268 363.84 279.627 363.84 279.627Z" fill="white"/>
<path opacity="0.46" d="M435.253 281.96C435.253 281.96 429.029 283.515 423.273 281.96C417.516 280.404 414.871 278.227 412.537 287.247C410.204 296.268 411.76 314.619 423.273 315.708C434.941 316.796 435.253 281.96 435.253 281.96Z" fill="white"/>
<path d="M394.023 303.422C394.023 304.666 392.934 305.754 391.689 305.754C390.445 305.754 389.356 304.666 389.356 303.422C389.356 302.177 390.445 301.089 391.689 301.089C392.934 301.089 394.023 302.177 394.023 303.422Z" fill="#9DCED6"/>
<path d="M394.957 320.218C394.957 321.462 393.868 322.551 392.623 322.551C391.378 322.551 390.289 321.462 390.289 320.218C390.289 318.974 391.378 317.885 392.623 317.885C394.023 317.885 394.957 318.818 394.957 320.218Z" fill="#9DCED6"/>
<path opacity="0.46" d="M414.404 400.622C415.027 417.418 418.761 435.459 430.585 444.79C445.677 456.765 464.346 448.367 457.19 429.86C451.278 414.775 435.097 408.087 426.54 395.023C424.206 391.446 422.806 387.558 421.25 383.67C420.472 381.649 419.228 376.672 417.205 375.428C414.716 373.717 415.027 375.583 414.871 378.383C414.249 386.003 414.093 393.313 414.404 400.622Z" fill="white"/>
<path opacity="0.46" d="M347.193 226.594C347.349 228.616 348.593 230.793 348.904 232.97C349.216 236.547 349.216 240.124 348.904 243.701C347.66 257.232 341.281 269.829 334.28 281.182C333.191 282.893 320.588 300.778 322.3 290.824C324.789 276.205 339.103 223.484 342.992 222.706C346.726 221.928 347.193 226.439 347.193 226.594Z" fill="white"/>
<path opacity="0.46" d="M456.101 222.706C456.101 222.706 445.365 227.216 450.5 242.457C455.634 257.698 466.836 293.468 472.592 293.468C478.193 293.468 475.082 273.717 467.769 250.233C460.146 226.75 456.101 222.706 456.101 222.706Z" fill="white"/>
<path opacity="0.46" d="M330.857 302.955C332.257 302.955 333.657 303.11 334.435 303.11C338.792 303.11 344.081 304.666 345.482 309.331C347.815 317.418 356.217 349.456 350.771 346.501C345.326 343.546 325.723 309.953 325.567 305.599C325.256 302.955 328.834 302.955 330.857 302.955Z" fill="white"/>
<path opacity="0.46" d="M475.237 306.221C475.237 306.221 450.811 349.767 447.232 346.967C443.654 344.168 442.565 342.146 446.921 329.86C451.277 317.574 456.1 311.82 462.168 307.31C468.236 302.644 475.237 306.221 475.237 306.221Z" fill="white"/>
<path d="M278.581 431.571L277.648 443.701L274.069 491.291H199.39L197.212 443.235C197.212 443.235 212.303 429.705 239.374 426.75C240.152 426.594 241.086 426.594 241.864 426.439H242.019C270.802 424.261 278.581 431.571 278.581 431.571Z" fill="#6C2C77"/>
<path d="M242.019 473.717C246.22 490.824 274.069 491.291 274.069 491.291H237.974L238.908 446.967L239.374 426.75C240.152 426.75 240.93 426.594 241.553 426.594C241.708 426.594 241.708 426.594 241.864 426.594H242.019C270.802 424.417 278.581 431.726 278.581 431.726L277.648 443.857C274.225 444.635 269.713 444.946 264.579 444.946C249.487 444.79 237.819 456.61 242.019 473.717Z" fill="#501A57"/>
<path d="M239.219 426.75L238.752 446.967C238.752 446.967 221.638 450.544 212.614 449.456C203.59 448.367 199.39 463.142 203.279 479.782C204.524 485.07 207.48 488.803 210.903 491.291H199.079L196.9 443.235C197.212 443.079 212.303 429.549 239.219 426.75Z" fill="#501A57"/>
<path d="M222.416 208.554C219.615 211.509 215.415 214.308 211.214 214.619C205.613 215.086 201.568 210.264 199.545 205.599C197.989 202.177 195.5 193.468 200.168 191.291C204.68 189.114 208.569 189.425 208.569 189.425C208.569 189.425 203.59 163.297 232.062 159.254C260.534 155.21 261.156 168.74 261.467 183.515C261.778 198.445 250.576 201.866 250.576 201.866L222.416 208.554Z" fill="#1B2656"/>
<path d="M261.934 286.936C248.554 314.463 221.171 249.145 218.526 240.747C217.437 237.325 217.437 234.215 217.748 231.882C218.215 228.46 219.615 226.283 219.615 226.283C219.615 226.283 219.771 222.706 219.615 218.663C219.615 217.418 219.46 216.174 219.46 215.086C219.149 212.131 218.682 209.331 217.904 207.621C215.415 203.11 212.147 203.266 212.925 197.512C213.859 191.913 217.593 194.557 219.771 194.401C221.794 194.246 226.928 176.827 233.151 175.272C239.374 173.717 244.975 171.229 247.309 169.362C249.643 167.652 251.821 165.785 251.821 165.785C251.821 165.785 259.911 178.538 259.444 191.602C258.978 204.666 252.132 220.995 252.132 220.995C252.132 220.995 252.288 224.572 252.91 227.838C253.221 229.549 253.688 231.26 254.466 232.037C256.333 234.37 256.333 234.37 256.333 234.37C256.333 234.37 266.135 247.123 266.757 264.541C266.912 271.54 265.668 279.16 261.934 286.936Z" fill="#FFC7AE"/>
<path d="M261.934 286.936C248.554 314.464 221.171 249.145 218.526 240.747C217.437 237.325 217.437 234.215 217.748 231.882C222.26 238.725 243.731 270.607 251.043 269.985C259.445 269.207 258.978 246.034 258.978 246.034C258.978 246.034 263.023 254.432 266.757 264.386C266.913 271.54 265.668 279.16 261.934 286.936Z" fill="#F9AC8A"/>
<path d="M313.12 325.972C308.142 327.061 292.584 325.972 292.584 325.972C292.584 325.972 292.584 325.972 292.428 326.128C291.494 327.527 283.715 338.414 283.093 348.989C282.937 351.944 282.782 355.521 282.937 359.565C283.093 370.451 283.871 384.759 285.116 403.11C286.671 428.149 281.537 437.792 276.559 437.792C271.58 437.792 255.088 436.081 253.377 437.792C251.665 439.502 254.31 443.701 228.639 444.635C202.968 445.568 187.877 442.924 187.877 437.481C187.877 432.037 187.565 397.201 192.855 380.249C194.1 376.05 194.878 371.851 195.189 367.652C195.967 357.232 193.944 347.434 191.922 341.369C191.455 340.124 191.144 339.191 190.677 338.258C187.565 331.26 185.543 329.705 185.543 329.705C185.232 329.549 181.342 327.216 177.297 330.016C173.096 332.97 169.207 336.703 168.118 331.726C166.873 326.75 167.651 320.684 168.118 318.818C168.429 317.574 169.673 317.885 169.829 317.885C169.829 317.885 169.051 271.695 179.786 260.809C190.366 249.922 209.969 243.079 212.147 239.036C214.326 234.992 219.771 226.283 219.771 226.283C219.771 226.283 219.771 231.571 222.883 237.636C225.994 243.701 256.177 290.047 256.177 290.047C256.177 290.047 260.534 248.678 258.978 240.902C257.733 233.904 254.621 232.348 253.999 232.037C255.399 232.348 265.979 235.148 276.403 239.036C286.671 242.924 296.784 247.745 298.496 252.722C301.607 261.897 311.098 298.445 313.12 306.843C313.432 307.932 313.587 308.554 313.587 308.554C313.587 308.554 314.832 307.465 315.765 307.932C316.232 308.087 316.543 308.554 316.699 309.642C316.699 312.908 318.099 324.883 313.12 325.972Z" fill="#EBF4F7"/>
<path d="M283.093 348.989C282.937 351.944 282.782 355.521 282.937 359.565C280.137 358.32 276.87 357.854 273.291 359.565C262.867 364.23 248.554 362.986 237.352 362.675C228.328 362.364 209.503 362.053 195.033 367.807C195.811 357.387 193.789 347.589 191.766 341.524L208.569 306.376C208.569 306.376 253.688 312.442 258.667 322.706C263.645 332.97 272.202 334.681 280.293 332.659C287.605 330.949 291.65 326.75 292.428 326.128C291.494 327.372 283.871 338.414 283.093 348.989Z" fill="#C6DFE5"/>
<path d="M315.299 307.776C310.942 311.664 305.03 315.863 299.896 315.863H291.806L288.383 295.957L285.738 279.627L277.959 258.009C278.426 258.631 284.96 269.673 288.383 281.96C291.806 294.557 297.873 309.798 308.764 307.621C310.164 307.31 311.409 306.998 312.654 306.687C312.965 307.776 313.12 308.398 313.12 308.398C313.12 308.398 314.365 307.31 315.299 307.776Z" fill="#C6DFE5"/>
<path d="M255.711 290.047L255.244 295.956C255.244 295.956 234.396 272.162 230.662 265.941C226.928 259.876 230.195 258.631 230.662 256.299C230.817 255.988 230.195 255.21 229.417 254.121C227.861 252.411 225.216 249.922 222.416 247.589C217.282 243.235 211.836 238.88 211.836 238.88C214.014 234.837 219.46 226.128 219.46 226.128C219.46 226.128 219.46 231.415 222.572 237.481C225.528 243.701 255.711 290.047 255.711 290.047Z" fill="white"/>
<path d="M272.98 261.12C271.58 265.785 255.711 300 255.711 300L255.244 295.957L255.711 290.047C255.711 290.047 260.067 248.678 258.511 240.902C257.266 233.904 254.155 232.348 253.532 232.037C254.933 232.348 265.512 235.148 275.936 239.036C275.936 239.036 263.49 249.611 266.135 252.722C268.779 255.832 274.38 256.454 272.98 261.12Z" fill="white"/>
<path d="M185.387 329.705C185.076 329.549 181.187 327.216 177.141 330.016C174.185 332.037 171.54 334.526 169.673 334.059C168.896 333.904 168.273 333.282 167.962 331.726C166.717 326.75 167.495 320.684 167.962 318.818C168.273 317.574 169.518 317.885 169.673 317.885C169.673 317.885 177.919 317.263 179.164 318.352C180.409 319.44 185.076 329.082 185.387 329.705Z" fill="white"/>
<path d="M258.355 339.813C258.2 340.124 258.044 340.435 257.889 340.435L258.355 339.813Z" stroke="black" stroke-miterlimit="10"/>
<path d="M248.554 354.277C248.554 354.277 248.398 354.743 248.243 355.21C248.087 354.432 248.554 354.277 248.554 354.277Z" fill="#F9AC8A"/>
<path d="M255.711 299.845C255.711 299.845 260.534 360.964 257.889 386.47C255.244 411.975 253.377 437.636 253.377 437.636L262.089 437.014C262.089 437.014 256.177 434.059 256.488 423.795C256.8 413.53 260.067 393.157 260.067 371.54C260.067 349.922 257.266 307.309 258.822 298.445C260.378 289.58 262.556 284.759 262.556 284.759L255.711 299.845Z" fill="#9DCED6"/>
<path d="M225.061 391.446C224.439 395.957 224.127 398.6 222.105 399.533C221.016 400.156 219.46 400.156 217.282 399.845C211.37 398.911 192.544 398.445 188.499 395.49C188.188 395.334 188.032 395.023 187.877 394.712C187.254 393.313 187.099 391.291 187.254 389.425C187.566 386.625 188.499 383.67 189.433 381.804C189.433 381.804 189.433 381.649 189.588 381.649C189.744 381.338 198.767 382.737 199.701 382.893C203.591 383.359 207.324 383.981 211.214 384.759C213.859 385.226 225.683 386.781 225.061 391.446Z" fill="white"/>
<path d="M219.615 425.972C216.659 427.527 186.943 424.883 186.165 422.551C186.01 422.24 186.01 421.151 186.01 419.751C186.165 414.308 187.565 402.799 188.188 397.823C188.343 396.423 188.499 395.645 188.499 395.49C192.544 398.6 211.37 399.067 217.282 399.845C219.615 400.156 221.171 400.156 222.105 399.533C222.26 400.311 222.571 424.417 219.615 425.972Z" fill="#EBF4F7"/>
<path d="M286.671 390.824C286.671 391.446 286.36 392.068 285.738 392.691C283.871 395.023 279.048 397.512 276.403 395.957C275.625 395.49 275.003 394.712 274.692 393.468C273.447 388.647 273.136 386.003 273.136 386.003C273.136 386.003 273.602 385.848 274.225 385.537C276.714 384.448 282.315 381.804 283.56 381.493C284.649 381.338 285.738 384.448 286.205 387.403C286.671 388.647 286.671 389.891 286.671 390.824Z" fill="white"/>
<path d="M286.671 415.552C286.36 418.352 277.959 425.505 275.003 423.95C272.047 422.395 276.559 396.112 276.559 396.112C279.204 397.667 283.871 395.179 285.894 392.846C285.894 392.846 286.049 395.023 286.205 398.134C286.36 401.711 286.671 406.532 286.827 410.264C286.827 412.753 286.827 414.775 286.671 415.552Z" fill="#EBF4F7"/>
<path d="M255.711 393.157C255.711 394.401 254.621 395.49 253.377 395.49C252.132 395.49 251.043 394.401 251.043 393.157C251.043 391.913 252.132 390.824 253.377 390.824C254.621 390.824 255.711 391.913 255.711 393.157Z" fill="#9DCED6"/>
<path d="M255.711 303.422C255.711 304.666 254.621 305.754 253.377 305.754C252.132 305.754 251.043 304.666 251.043 303.422C251.043 302.177 252.132 301.089 253.377 301.089C254.621 301.089 255.711 302.177 255.711 303.422Z" fill="#9DCED6"/>
<path opacity="0.46" d="M293.673 324.883C293.517 327.216 284.96 337.17 284.96 337.17C284.96 337.17 284.182 336.547 283.093 335.459C280.759 333.282 276.87 329.082 275.936 324.883C275.158 321.617 275.003 311.82 275.781 303.266C275.781 302.333 275.936 301.4 276.092 300.622C276.87 294.246 278.114 289.269 280.137 289.425C284.96 289.891 290.25 295.801 290.25 295.801C290.25 295.801 290.717 299.067 291.183 303.422C292.272 311.664 293.673 323.484 293.673 324.883Z" fill="white"/>
<path d="M293.673 324.883C293.517 327.216 284.96 337.17 284.96 337.17C284.96 337.17 284.182 336.547 283.093 335.459C286.671 330.793 290.25 324.261 290.094 316.641C289.939 307.154 281.693 304.199 275.781 303.266C275.781 302.333 275.936 301.4 276.092 300.622C278.892 300.778 282.626 301.089 286.983 302.177C288.538 302.488 289.939 302.955 291.183 303.422C292.272 311.664 293.673 323.484 293.673 324.883Z" fill="#C6DFE5"/>
<path d="M210.436 240.591C210.436 240.591 212.925 241.058 212.77 243.079C212.614 245.101 209.191 245.723 208.725 252.566C208.258 259.409 207.48 262.053 205.769 261.12C204.057 260.187 204.835 255.054 204.835 249.611C204.835 244.012 210.436 240.591 210.436 240.591Z" fill="#1B2656"/>
<path d="M234.24 297.667C228.484 297.667 215.881 286.314 210.436 274.495C204.679 262.053 205.613 260.964 206.08 260.498C206.391 260.187 206.858 260.187 207.169 260.187L206.702 261.431C206.858 261.431 207.013 261.431 207.013 261.431C207.169 261.431 207.169 261.275 207.169 261.275C207.169 261.431 206.702 263.142 211.681 273.717C217.282 285.692 229.573 295.956 234.24 295.956C235.174 295.956 235.485 295.49 235.64 295.179C237.352 291.757 231.128 271.073 226.617 258.165L228.017 257.698C229.262 261.12 239.53 290.824 237.041 295.956C236.574 296.89 235.796 297.667 234.24 297.667Z" fill="#374877"/>
<path d="M229.417 254.277C229.417 254.277 229.417 260.342 225.839 258.009C222.26 255.832 222.571 247.745 222.416 247.589C225.372 250.078 228.017 252.566 229.417 254.277Z" fill="#1B2656"/>
<path d="M225.061 391.446C224.439 395.957 224.127 398.6 222.105 399.533C221.016 400.156 219.46 400.156 217.282 399.845C211.37 398.911 192.544 398.445 188.499 395.49C188.188 395.334 188.032 395.023 187.877 394.712C187.254 393.313 187.099 391.291 187.254 389.425C188.81 390.824 191.455 392.224 196.278 393.313C215.726 397.823 222.572 398.445 225.061 391.446Z" fill="#EBF4F7"/>
<path d="M286.672 390.824C286.672 391.446 286.36 392.068 285.738 392.691C283.871 395.023 279.048 397.512 276.403 395.957C275.625 395.49 275.003 394.712 274.692 393.468C273.447 388.647 273.136 386.003 273.136 386.003C273.136 386.003 273.603 385.848 274.225 385.537C275.003 386.781 275.781 388.18 276.248 389.736C277.648 394.557 284.649 390.669 286.205 387.403C286.672 388.647 286.672 389.891 286.672 390.824Z" fill="#EBF4F7"/>
<g opacity="0.44">
<path d="M222.105 399.533C222.105 400.311 222.571 424.261 219.615 425.817C216.659 427.372 186.943 424.728 186.165 422.395C186.01 422.084 186.01 420.995 186.01 419.596C190.522 422.24 204.368 423.328 211.214 423.639C218.371 423.95 219.615 415.552 217.904 406.843C216.815 400.778 199.079 398.6 188.188 397.667C188.343 396.268 188.499 395.49 188.499 395.334C192.544 398.445 211.37 398.911 217.282 399.689C219.615 400.311 221.171 400.156 222.105 399.533Z" fill="#C6DFE5"/>
<path d="M286.671 415.552C286.36 418.352 277.959 425.505 275.003 423.95C272.047 422.395 276.559 396.112 276.559 396.112C279.204 397.667 283.871 395.179 285.894 392.846C285.894 392.846 286.049 395.023 286.205 398.134C278.737 398.289 273.447 413.53 277.337 416.641C279.826 418.663 283.871 413.686 286.827 410.109C286.827 412.753 286.827 414.775 286.671 415.552Z" fill="#C6DFE5"/>
</g>
<path d="M257.422 359.409H206.235C204.213 359.409 202.346 358.32 201.257 356.454L159.716 280.871C159.561 280.56 159.405 280.404 159.405 280.093C158.005 276.361 160.65 272.162 164.695 272.162H224.905C227.083 272.162 229.106 273.561 230.039 275.583L245.287 311.042L262.556 351.166C264.268 355.054 261.467 359.409 257.422 359.409Z" fill="#244477"/>
<path d="M257.422 359.409H206.235C205.457 359.409 204.679 359.254 204.057 358.942C202.968 358.476 202.035 357.543 201.412 356.454L188.032 332.037L159.872 280.871C159.716 280.56 159.561 280.404 159.561 280.093C169.518 297.201 183.987 316.174 199.701 315.708C219.927 315.241 235.174 311.353 245.598 311.198L249.487 320.062L260.533 345.879L262.867 351.166C264.267 355.054 261.467 359.409 257.422 359.409Z" fill="#203B63"/>
<path opacity="0.68" d="M167.029 279.316C166.095 281.026 169.674 283.826 171.074 285.381C172.785 287.403 174.652 289.269 176.675 290.824C184.454 297.356 194.1 301.866 204.213 303.577C230.506 308.398 234.396 298.445 230.195 288.336C225.994 278.227 223.038 277.605 211.214 276.983C199.857 276.516 188.499 277.138 177.141 277.761C174.341 277.916 171.541 277.294 168.74 278.072C167.807 278.383 167.34 278.849 167.029 279.316Z" fill="#2E5793"/>
<path d="M260.378 345.879C259.911 350.233 258.822 353.499 256.644 354.277C249.954 356.454 215.881 355.366 204.057 358.942C202.968 358.476 202.035 357.543 201.412 356.454L188.032 332.037C192.544 333.748 200.634 334.992 214.17 332.971C232.84 330.171 243.264 323.328 249.332 320.062L260.378 345.879Z" fill="#1A3049"/>
<path d="M310.475 326.283C309.698 328.616 305.186 342.768 299.896 346.812C298.184 348.056 296.318 349.145 294.139 349.922C288.694 352.1 282.626 352.877 279.515 352.411C275.314 351.633 269.246 359.72 262.089 360.187C255.088 360.653 251.354 359.565 251.354 358.787C251.354 358.009 251.354 358.009 251.354 358.009C251.354 358.009 250.887 357.854 250.421 357.387C249.798 356.921 248.865 356.299 248.554 355.677C248.398 355.521 248.398 355.366 248.398 355.366C248.398 355.21 248.398 355.21 248.398 355.054C248.243 354.121 248.709 354.121 248.709 354.121C248.709 354.121 247.62 353.81 246.687 352.722C246.22 352.1 245.753 351.322 245.909 350.233C246.064 347.278 251.977 333.593 259.289 334.37H259.444C266.757 335.148 276.092 337.325 280.759 336.236C284.649 335.303 290.094 328.927 291.961 326.594C292.428 325.972 292.739 325.661 292.739 325.661C292.739 325.661 304.097 326.75 310.475 326.283Z" fill="#FFC7AE"/>
<path d="M310.476 326.283C309.698 328.616 305.186 342.768 299.896 346.812C298.185 348.056 296.318 349.145 294.139 349.922C296.94 347.745 302.385 342.924 304.563 336.703C306.897 330.327 296.94 327.683 291.806 326.75C292.272 326.128 292.584 325.817 292.584 325.817C292.584 325.817 304.097 326.75 310.476 326.283Z" fill="#F9AC8A"/>
<path opacity="0.22" d="M294.451 332.659C293.361 333.126 292.428 333.437 291.65 333.748C288.383 334.837 284.338 336.703 282.782 339.969C280.448 344.946 283.404 347.589 291.961 344.635C300.518 341.68 302.541 335.459 300.363 332.815C298.807 331.26 296.473 331.882 294.451 332.659Z" fill="white"/>
<path d="M253.532 355.054C251.976 355.365 250.265 355.677 248.554 355.988C248.398 355.832 248.398 355.677 248.398 355.677C248.087 354.588 248.709 354.432 248.709 354.432C248.709 354.432 245.753 353.499 245.909 350.544C246.064 347.589 251.976 333.904 259.289 334.681H259.444C259.756 336.547 260.689 338.725 262.556 339.813C266.134 341.991 259.911 353.499 253.532 355.054Z" fill="#F9AC8A"/>
<path d="M255.866 353.344C254.155 353.966 248.554 354.277 248.554 354.277C248.554 354.277 247.465 353.966 246.531 352.877C247.153 353.033 247.931 353.188 248.554 353.344C253.221 353.966 259.6 350.233 260.067 349.922C259.911 350.389 257.577 352.877 255.866 353.344Z" fill="#ED8772"/>
<path d="M261 355.832C261 355.832 259.911 357.232 257.889 357.543C255.866 357.854 251.354 358.009 251.354 358.009C251.354 358.009 250.887 357.854 250.421 357.387C253.532 357.698 261 355.832 261 355.832Z" fill="#ED8772"/>
<path d="M256.955 349.456C252.91 351.633 245.598 352.255 238.596 350.855C235.329 350.233 231.595 351.166 228.328 351.633C222.727 352.411 217.126 353.499 211.525 354.588C205.769 355.677 200.012 356.921 194.411 358.165C187.877 359.565 183.52 361.586 177.141 358.787C173.407 357.232 171.074 343.546 170.14 337.325C169.829 335.459 169.673 334.215 169.673 334.215C171.385 334.526 174.185 332.193 177.141 330.171C181.187 327.372 185.076 329.705 185.387 329.86C185.387 329.86 186.632 331.104 187.877 332.97C189.121 334.681 189.432 335.614 189.432 335.77C189.432 335.77 193.789 337.481 200.946 338.414C208.102 339.347 221.949 335.303 224.905 334.526C227.861 333.748 229.417 326.283 238.285 323.795C247.153 321.462 255.244 322.551 256.333 324.883C257.422 327.216 254.933 327.683 254.933 327.683C254.933 327.683 254.933 327.683 255.244 328.771C255.244 328.927 255.244 328.927 255.244 329.082C255.399 330.016 254.777 331.415 254.621 331.571C254.621 331.571 255.088 331.415 255.866 331.882L256.022 332.037C256.644 332.659 255.555 335.148 255.399 335.303C255.555 335.303 256.022 335.148 256.488 335.148C257.111 335.148 257.889 335.459 258.355 336.392C258.978 337.481 258.511 338.725 258.2 339.502C258.044 339.813 257.889 340.124 257.733 340.124C257.733 340.124 258.2 340.124 258.822 340.28C259.444 340.435 260.222 340.747 260.378 341.68C260.845 343.701 261 347.434 256.955 349.456Z" fill="#FFC7AE"/>
<path d="M255.244 329.082C251.51 328.305 241.864 328.927 241.864 328.927C241.864 328.927 241.864 328.927 244.664 328.616C247.465 328.305 254.933 327.838 254.933 327.838C254.933 327.838 254.933 327.838 255.244 328.927C255.244 328.927 255.244 328.927 255.244 329.082Z" fill="#ED8772"/>
<path d="M251.665 335.148C247.153 337.014 243.108 336.858 243.108 336.858C243.108 336.858 246.376 336.703 249.643 335.614C252.754 334.526 254.621 331.726 254.621 331.726C254.621 331.726 255.088 331.571 255.866 332.037C255.244 332.97 254.155 334.059 251.665 335.148Z" fill="#ED8772"/>
<path d="M255.399 335.459C255.399 335.459 254.621 337.481 251.977 340.28C251.821 340.436 251.821 340.435 251.665 340.591C250.265 341.991 248.865 343.079 248.709 343.39C248.865 343.235 249.954 342.457 251.665 340.747C253.688 338.88 255.866 336.703 256.333 335.77C256.333 335.614 256.488 335.459 256.644 335.303C256.022 335.303 255.555 335.459 255.399 335.459Z" fill="#ED8772"/>
<path d="M258.978 340.591C257.111 342.768 252.443 346.19 251.977 346.501C252.132 346.345 252.443 346.034 254.155 344.479C256.333 342.457 257.889 340.435 257.889 340.435C257.889 340.435 258.355 340.435 258.978 340.591Z" fill="#ED8772"/>
<path d="M189.432 335.77C188.966 335.459 178.542 329.393 174.341 334.215C172.63 336.081 171.229 337.014 170.14 337.17C169.829 335.303 169.673 334.059 169.673 334.059C171.385 334.37 174.185 332.037 177.141 330.016C181.187 327.216 185.076 329.549 185.387 329.705C185.387 329.705 186.632 330.949 187.877 332.815C189.121 334.681 189.432 335.614 189.432 335.77Z" fill="#F9AC8A"/>
<path opacity="0.22" d="M177.764 348.523C177.453 348.989 177.297 349.456 177.764 350.233C179.008 352.566 180.253 355.21 182.742 356.143C184.609 356.921 186.788 356.61 188.81 356.299C201.879 354.277 215.104 352.255 227.861 348.212C229.417 347.745 231.284 346.656 231.129 344.946C230.817 343.235 228.639 342.924 227.083 342.924C217.904 342.924 208.725 343.546 199.545 344.479C195.033 344.946 190.366 345.723 185.854 346.501C184.143 346.967 179.008 346.967 177.764 348.523Z" fill="white"/>
<path d="M313.12 325.972C312.343 326.128 311.565 326.283 310.476 326.283C304.097 326.75 292.584 325.972 292.584 325.972C292.584 325.972 293.984 320.995 292.584 316.796C291.183 312.597 296.784 314.93 302.074 313.219C307.364 311.664 313.12 308.398 313.12 308.398C313.12 308.398 315.765 306.065 316.232 309.487C316.699 312.908 318.099 324.883 313.12 325.972Z" fill="white"/>
<path d="M293.673 320.373C293.673 322.862 292.117 324.883 290.25 324.883C288.383 324.883 286.827 322.862 286.827 320.373C286.827 317.885 288.383 315.863 290.25 315.863C292.117 315.863 293.673 317.885 293.673 320.373Z" fill="#1B2656"/>
<path d="M295.228 320.373C295.228 322.862 293.673 324.883 291.806 324.883C289.939 324.883 288.383 322.862 288.383 320.373C288.383 317.885 289.939 315.863 291.806 315.863C293.673 315.863 295.228 317.885 295.228 320.373Z" fill="#244477"/>
<path d="M273.291 241.369C273.291 241.369 285.271 276.05 289.005 290.98C292.739 305.91 292.584 316.796 292.584 316.796H290.094C290.094 316.796 289.628 297.356 284.027 280.093C278.581 262.831 271.113 243.39 271.113 243.39L273.291 241.369Z" fill="#1B2656"/>
<path opacity="0.46" d="M201.257 370.14C201.257 370.14 198.923 377.45 209.347 380.093C219.771 382.737 236.885 385.07 243.264 378.538C249.643 372.006 250.887 367.03 239.841 365.474C228.639 363.764 201.257 370.14 201.257 370.14Z" fill="white"/>
<path opacity="0.46" d="M196.745 430.793C196.745 430.793 219.927 435.614 226.928 423.95C234.085 412.286 233.307 386.159 238.908 392.535C244.509 398.911 250.887 427.061 242.019 435.614C233.307 444.168 191.766 437.014 191.611 433.437C191.766 430.171 196.745 430.793 196.745 430.793Z" fill="white"/>
<path opacity="0.46" d="M265.979 367.03C265.979 367.03 264.112 383.204 270.491 381.649C276.87 379.938 283.093 377.605 282.004 371.695C280.915 365.785 279.515 364.541 275.625 365.319C271.736 366.096 265.979 367.03 265.979 367.03Z" fill="white"/>
<path d="M251.977 220.995C251.977 220.995 244.509 229.549 237.196 226.283C230.039 223.017 219.149 214.93 219.149 214.93V215.086C219.149 215.552 219.149 215.863 219.304 216.33C223.972 221.773 236.263 235.303 243.108 237.17C243.42 237.17 243.886 237.014 244.197 237.014C248.398 235.614 251.199 231.571 252.754 228.149C252.288 224.728 251.977 220.995 251.977 220.995Z" fill="#F9AC8A"/>
<path opacity="0.22" d="M224.283 230.638C224.283 230.638 237.974 239.969 239.686 243.235C241.241 246.345 235.485 249.456 232.062 245.412C228.639 241.369 224.283 230.638 224.283 230.638Z" fill="white"/>
<path opacity="0.22" d="M251.51 235.614C251.51 235.614 246.842 240.435 249.798 240.591C252.599 240.747 255.244 238.569 254.777 237.014C254.155 235.614 251.51 235.614 251.51 235.614Z" fill="white"/>
<path d="M257.889 154.432C257.111 157.698 251.199 164.23 251.199 164.23C251.199 164.23 237.974 166.874 228.017 170.918C221.482 173.561 217.282 174.65 215.259 175.117C214.17 175.272 213.081 174.961 212.459 174.028C210.592 171.695 207.013 166.563 208.102 163.453C208.569 162.053 209.814 160.187 211.836 158.165C216.193 153.966 224.127 149.611 236.263 148.989C246.842 148.523 252.91 149.3 255.711 150.855C257.578 151.944 258.2 153.188 257.889 154.432Z" fill="#EBF4F7"/>
<path d="M242.953 158.631H239.841V155.365H237.041V158.631H233.773V161.431H237.041V164.541H239.841V161.431H242.953V158.631Z" fill="#E52553"/>
<path opacity="0.63" d="M255.555 150.855C254.31 152.877 249.643 154.588 246.376 155.677C240.152 157.698 216.037 163.608 213.081 161.431C211.836 160.498 211.525 159.254 211.525 158.165C215.881 153.966 223.816 149.611 235.952 148.989C246.687 148.523 252.599 149.456 255.555 150.855Z" fill="white"/>
<path d="M202.968 491.291H171.54L169.829 486.159C169.829 486.159 169.829 486.159 167.34 476.983C167.184 476.361 167.029 475.894 166.717 475.272C162.205 466.408 142.291 456.454 137.935 450.7C133.423 444.635 134.356 430.482 127.355 422.395C120.198 414.308 116.931 400.156 118.331 390.824C119.732 381.493 128.911 390.202 132.023 395.49C135.134 400.778 137.001 403.888 146.958 408.398C156.916 412.908 160.805 415.708 163.761 428.46C165.317 435.459 167.962 441.058 171.852 446.345C174.963 450.7 179.164 454.588 184.143 458.631C195.033 467.496 202.968 491.291 202.968 491.291Z" fill="#5DC990"/>
<path opacity="0.27" d="M202.968 491.291H171.54L169.829 486.159C169.829 486.159 169.829 486.159 167.34 476.983C167.184 476.361 167.028 475.894 166.717 475.272C167.806 475.739 168.74 476.361 169.829 477.138C178.386 484.292 189.588 488.803 191.922 482.737C194.255 476.672 175.585 461.275 171.852 446.345C174.963 450.7 179.164 454.588 184.143 458.631C195.033 467.496 202.968 491.291 202.968 491.291Z" fill="#21544A"/>
<path opacity="0.27" d="M122.221 395.645C121.754 397.667 121.599 400 121.91 401.4C123.621 408.398 129.844 413.064 134.667 418.196C140.891 424.883 145.247 432.97 150.381 440.591C152.404 443.701 154.582 446.656 157.694 448.678C158.938 449.456 160.65 450.078 161.739 449.145C162.361 448.678 162.672 447.745 162.672 446.967C162.983 444.946 162.672 442.924 162.361 440.902C161.272 432.348 159.872 423.328 154.115 416.952C150.381 412.597 145.247 409.953 140.58 406.687C135.601 402.955 131.4 398.445 128.133 393.157C125.488 388.491 123.154 391.757 122.221 395.645Z" fill="#E9F47D"/>
<path opacity="0.52" d="M188.499 491.291C188.499 491.291 179.942 472.939 165.161 454.432C150.226 436.081 134.979 415.708 134.979 415.708C134.979 415.708 143.069 423.95 147.425 429.549C151.781 435.148 171.696 458.631 179.786 471.384C187.877 484.137 191.766 491.135 191.766 491.135H188.499V491.291Z" fill="#317C6D"/>
<path d="M119.42 362.364H88.4595C85.8146 362.364 83.792 360.342 83.792 357.698V342.302C83.792 339.658 85.8146 337.636 88.4595 337.636H119.42C122.065 337.636 124.088 339.658 124.088 342.302V357.698C124.088 360.342 121.91 362.364 119.42 362.364Z" fill="#EA2D44"/>
<path d="M112.108 346.967H106.974V341.835H100.906V346.967H95.6163V353.188H100.906V358.32H106.974V353.188H112.108V346.967Z" fill="white"/>
<path d="M95.4607 337.792H94.0604C94.0604 337.636 94.6828 327.216 104.64 327.216C107.441 327.216 109.774 328.149 111.486 329.86C114.442 332.971 114.442 337.636 114.442 337.792H113.041C113.041 337.792 113.041 333.593 110.552 330.949C109.152 329.549 107.129 328.771 104.64 328.771C95.9274 328.616 95.4607 337.325 95.4607 337.792Z" fill="#619093"/>
<path d="M216.348 82.4261L212.925 85.381L209.969 87.8694L207.791 89.8911L206.391 91.1353L199.234 82.8927L193.944 76.8274H193.789L191.455 74.028L193.633 72.1618L198.767 67.6516L201.412 65.3188L203.59 67.8072L216.348 82.4261Z" fill="#C1EFF7"/>
<path d="M195.811 64.3857L198.767 67.6516L193.633 72.1618L190.833 68.8958L195.811 64.3857Z" fill="#8EB9C1"/>
<path d="M214.948 87.7139L211.992 90.0467L209.969 87.8694L212.925 85.381L214.948 87.7139Z" fill="#8EB9C1"/>
<path d="M217.126 94.0902V100.622H186.01V93.9347H189.744C189.744 93.9347 188.188 92.224 187.721 88.8025C187.565 87.8694 187.565 86.6252 187.877 85.381C188.188 83.9814 188.655 82.5817 189.277 81.493C191.144 78.5381 193.944 76.8274 193.944 76.8274L199.234 82.8927C198.612 83.0482 198.145 83.3593 197.523 83.6703C196.745 84.2924 196.122 85.07 195.967 86.1586C195.811 88.3359 196.745 90.8243 197.523 92.3795C197.989 93.3126 198.456 94.0902 198.456 94.0902H217.126Z" fill="#B5DCE5"/>
<path d="M189.277 81.493C191.144 78.5381 193.944 76.8274 193.944 76.8274L199.234 82.8927C198.612 83.0482 198.145 83.3593 197.523 83.6703C196.589 83.0482 195.345 82.5817 193.944 82.1151C192.077 81.6485 190.522 81.3375 189.277 81.493Z" fill="#8EB9C1"/>
<path d="M198.456 94.0902H189.744C189.744 94.0902 189.432 93.9347 188.966 93.7792H189.744C189.744 93.7792 188.188 92.0685 187.721 88.647C189.588 90.2022 191.766 91.6019 193.944 92.0684C195.345 92.224 196.589 92.3795 197.523 92.3795C198.145 93.4681 198.456 94.0902 198.456 94.0902Z" fill="#8EB9C1"/>
<path d="M216.97 97.5117H185.854V100.467H216.97V97.5117Z" fill="#8EB9C1"/>
<path d="M207.791 89.8911L206.391 91.1353L199.234 82.8927L193.944 76.8274L191.611 74.028L193.789 72.1618L199.078 67.6516L201.723 65.3188L203.746 67.6516C201.723 68.5848 199.39 70.2955 199.078 73.4059C198.301 78.3826 204.991 86.7807 207.791 89.8911Z" fill="#B5DCE5"/>
<path d="M97.9501 222.084H78.5023C76.7909 222.084 75.3906 220.684 75.3906 218.974V199.533C75.3906 197.823 76.7909 196.423 78.5023 196.423H97.9501C99.6615 196.423 101.062 197.823 101.062 199.533V218.974C101.062 220.684 99.6615 222.084 97.9501 222.084Z" fill="#51D6A6"/>
<path d="M94.994 206.998H90.9488V202.799H85.9702V206.998H81.925V211.82H85.9702V216.019H90.9488V211.82H94.994V206.998Z" fill="white"/>
<path d="M94.9939 185.537H80.8359V196.268H94.9939V185.537Z" fill="#C5EF5E"/>
<path d="M94.9939 194.712V196.423H80.8359V192.691C82.3918 193.779 84.8811 194.401 88.1483 194.401C90.6376 194.246 92.9714 194.401 94.9939 194.712Z" fill="#72CE5B"/>
<path d="M96.5498 214.308L100.906 221.773L93.7494 225.817C91.7268 227.061 89.0819 226.283 87.8372 224.261C87.3705 223.328 87.2149 222.395 87.3705 221.306C87.3705 221.151 87.3705 220.995 87.5261 220.84C87.8372 219.751 88.4596 218.818 89.5486 218.196L96.5498 214.308Z" fill="#EA3453"/>
<path d="M109.93 212.597C109.774 212.286 109.774 211.975 109.619 211.82C109.619 211.975 109.774 212.286 109.93 212.597Z" fill="#EA3453"/>
<path d="M109.93 215.086C109.619 216.174 108.997 217.107 107.907 217.729L100.906 221.773L96.5499 214.308L103.551 210.264C105.574 209.02 108.219 209.798 109.463 211.82C109.619 212.131 109.774 212.286 109.774 212.597C110.086 213.375 110.086 214.308 109.93 215.086Z" fill="white"/>
<path opacity="0.13" d="M109.93 212.908C110.086 213.686 110.086 214.464 109.93 215.086C109.619 216.174 108.996 217.107 107.907 217.729L93.7494 225.972C91.7268 227.216 89.0819 226.439 87.8372 224.417C87.3705 223.484 87.2149 222.551 87.3705 221.462C90.3265 222.395 94.6828 222.551 100.595 219.44C104.951 216.952 108.063 214.619 109.93 212.908Z" fill="black"/>
<path d="M434.786 32.1929C434.786 32.8149 434.786 33.5925 434.63 34.2146C434.475 34.9922 434.319 35.6143 434.008 36.3919C433.386 38.1027 432.452 39.6579 431.052 41.3686C428.874 44.0124 425.918 46.6563 422.339 49.7667C422.184 49.9222 422.028 50.0778 421.872 50.2333C420.628 51.3219 419.072 52.5661 417.672 53.9658C417.205 54.2768 416.738 54.5879 416.271 54.5879C415.805 54.5879 415.182 54.4324 414.871 53.9658C413.315 52.5661 411.915 51.3219 410.671 50.2333C407.559 47.5894 404.914 45.2566 402.736 42.9238C402.269 42.4572 401.802 41.8352 401.336 41.3686C401.18 41.2131 401.024 40.902 400.869 40.7465C398.691 37.9471 397.602 35.1478 397.602 32.1929C397.602 29.0824 398.691 26.2831 400.558 24.1058C401.024 23.6392 401.491 23.1726 401.958 22.8616C403.669 21.4619 405.847 20.8398 408.026 20.8398C410.204 20.8398 412.071 21.4619 413.782 22.8616C414.716 23.4837 415.494 24.4168 416.116 25.3499C416.738 24.4168 417.672 23.4837 418.45 22.8616C420.161 21.4619 422.184 20.8398 424.206 20.8398C427.007 20.8398 429.652 22.084 431.674 24.1058C433.697 26.2831 434.786 29.0824 434.786 32.1929Z" fill="#EA3453"/>
<path d="M434.475 34.3701C434.319 35.1478 434.163 35.7698 433.852 36.5474H427.94L426.073 41.5241C425.762 42.1462 425.295 42.6128 424.673 42.6128C424.206 42.6128 423.584 42.4572 423.273 42.1462L421.872 45.8787C421.561 46.6563 420.939 46.9673 420.317 46.9673C420.317 46.9673 420.317 46.9673 420.161 46.9673C419.383 46.9673 418.761 46.3453 418.605 45.5677L416.894 38.4137C416.583 39.0358 415.96 39.3468 415.182 39.1913C414.405 39.0358 413.938 38.5692 413.782 37.9471L412.693 33.9036L410.826 44.0125C410.671 44.6345 410.204 45.1011 409.581 45.4121C408.959 45.5677 408.337 45.4121 407.87 44.9456L406.003 43.0793H402.58C402.114 42.6128 401.647 41.9907 401.18 41.5241C401.024 41.3686 400.869 41.0576 400.713 40.902H406.314C406.781 40.902 407.248 41.0576 407.559 41.3686L409.115 42.9238L411.137 31.8818C411.293 31.1042 411.915 30.4821 412.693 30.4821C413.471 30.4821 414.249 30.9487 414.405 31.7263L415.649 36.5474C415.96 35.9254 416.738 35.6143 417.361 35.7698C418.138 35.9254 418.605 36.3919 418.761 37.1695L420.317 44.168L421.561 40.902C421.872 40.2799 422.339 39.8134 422.962 39.8134C423.428 39.8134 424.051 39.9689 424.362 40.28L426.073 35.7698C426.384 35.1478 427.007 34.6812 427.629 34.6812H434.475V34.3701Z" fill="white"/>
<path opacity="0.13" d="M422.339 49.9222C422.184 50.0778 422.028 50.2333 421.872 50.3888C420.628 51.4775 419.072 52.7216 417.672 54.1213C417.205 54.4324 416.738 54.7434 416.271 54.7434C415.805 54.7434 415.182 54.5879 414.871 54.1213C413.315 52.7216 411.915 51.4775 410.671 50.3888C407.559 47.745 404.914 45.4121 402.736 43.0793C402.269 42.6128 401.802 41.9907 401.336 41.5241C401.18 41.3686 401.024 41.0576 400.869 40.902C398.691 38.1027 397.602 35.3033 397.602 32.3484C397.602 29.238 398.691 26.4386 400.558 24.2613C401.024 23.7947 401.491 23.3282 401.958 23.0171C400.558 27.8383 400.558 35.6143 409.27 43.7014C414.249 48.2115 418.605 49.7667 422.339 49.9222Z" fill="black"/>
<path opacity="0.15" d="M421.25 24.2613C420.939 24.4168 420.472 24.5723 420.161 24.8834C418.294 26.4386 418.138 29.3935 419.228 31.4152C421.717 36.0809 430.429 34.9922 430.429 30.4821C430.429 28.3048 428.407 26.9051 426.696 25.972C424.984 25.0389 422.962 23.7947 421.25 24.2613Z" fill="white"/>
<path d="M519.578 170.607C519.578 173.561 518.645 176.205 517.089 178.383C516.622 179.16 516 179.782 515.377 180.404L515.222 180.56L515.066 180.715V186.314H497.485V181.026C494.529 178.538 492.662 174.806 492.662 170.762C492.662 169.673 492.818 168.74 492.974 167.807C493.285 166.563 493.596 165.474 494.218 164.386C495.774 161.431 498.575 159.098 501.842 158.009V149.145H509.776V157.854C509.932 157.854 509.932 157.854 509.932 158.009C509.932 158.009 509.932 158.009 510.088 158.009C515.533 159.565 519.578 164.541 519.578 170.607Z" fill="#AFEFEF"/>
<path opacity="0.58" d="M495.93 167.652C495.93 167.652 499.664 165.319 503.398 167.03C507.132 168.74 508.843 166.874 511.177 166.407C513.666 166.096 516.155 168.118 516.155 168.118C516.155 168.118 518.178 179.782 505.731 179.782C493.285 179.627 495.93 167.652 495.93 167.652Z" fill="#58B7B2"/>
<path opacity="0.58" d="M515.222 180.404C515.066 180.56 515.066 180.56 514.911 180.715V180.871C512.733 181.804 509.31 182.737 506.042 182.582C500.286 182.426 501.997 183.981 504.798 184.292C506.976 184.603 512.421 184.448 514.911 184.292V186.159H497.485V180.871C498.73 181.338 500.286 181.649 502.153 181.804C508.221 182.115 512.732 181.182 515.222 180.404Z" fill="#58B7B2"/>
<path opacity="0.36" d="M505.265 157.698C504.331 158.32 504.176 160.342 504.487 161.897C504.953 164.386 506.198 166.718 507.598 168.585C508.687 170.14 510.088 171.54 511.644 172.473C512.577 173.095 513.977 173.406 514.911 172.784C515.844 172.162 516 170.918 516 169.829C515.844 167.341 514.755 165.008 513.199 162.986C511.644 161.12 509.621 159.565 507.598 158.165C506.354 157.543 505.731 157.387 505.265 157.698Z" fill="white"/>
<path opacity="0.36" d="M517.089 178.383C516.622 179.16 516 179.782 515.377 180.404L515.222 180.56C510.088 181.182 501.842 181.182 496.708 176.361C494.218 174.028 493.129 170.762 492.974 167.496C493.285 166.252 493.596 165.163 494.218 164.075C494.841 169.829 497.174 176.827 505.731 177.449C511.177 177.916 514.911 178.227 517.089 178.383Z" fill="white"/>
<path opacity="0.58" d="M509.31 157.543C506.82 157.387 504.02 157.387 501.842 157.854V148.989H509.776V151.011C507.287 150.544 503.709 150.233 502.931 152.1C502.153 154.277 506.042 156.61 509.31 157.543Z" fill="#58B7B2"/>
<path d="M510.088 157.854C509.777 157.854 509.621 157.698 509.31 157.698C509.465 157.698 509.621 157.698 509.776 157.698V157.854C509.932 157.698 509.932 157.698 510.088 157.854Z" fill="#7DD8D5"/>
<path d="M509.465 149.767H501.997C500.753 149.767 499.819 148.834 499.819 147.589C499.819 146.345 500.753 145.412 501.997 145.412H509.465C510.71 145.412 511.643 146.345 511.643 147.589C511.643 148.834 510.71 149.767 509.465 149.767Z" fill="#7DD8D5"/>
<path d="M569.676 300.156L546.65 324.261C545.872 325.039 544.471 324.883 543.538 323.95L536.848 317.574C535.914 316.641 535.759 315.241 536.381 314.463L559.407 290.358C559.718 290.047 560.03 289.891 560.341 289.891L561.741 289.736L566.564 288.958C566.875 288.958 567.342 288.803 567.498 288.491L573.876 281.804C574.188 281.493 574.81 281.337 575.277 281.337C575.899 281.337 576.366 281.649 576.833 282.115C577.766 283.048 577.922 284.448 577.299 285.226L570.92 291.913C570.609 292.224 570.454 292.535 570.454 292.846L569.831 299.222C569.987 299.533 569.831 299.845 569.676 300.156Z" fill="#C6DFE5"/>
<path d="M566.408 298.6L565.786 299.222L563.608 297.356L555.362 306.065L554.429 305.132L566.875 292.224L567.809 293.002L564.386 296.579L566.408 298.6Z" fill="white"/>
<path d="M554.542 305.187L545.613 314.513L546.513 315.373L555.441 306.047L554.542 305.187Z" fill="#EA2D44"/>
<path d="M546.494 318.04C545.716 318.818 544.316 318.663 543.227 317.729C542.138 316.796 541.982 315.241 542.76 314.463C543.538 313.686 544.938 313.841 546.027 314.775C547.116 315.863 547.272 317.263 546.494 318.04Z" fill="#EA2D44"/>
<path d="M548.205 322.551L546.65 324.261C545.872 325.039 544.471 324.883 543.538 323.95L536.848 317.574C535.914 316.641 535.759 315.241 536.381 314.463L559.407 290.358C559.718 290.047 560.03 289.891 560.341 289.891L561.741 289.736C550.85 299.222 536.692 313.53 542.138 318.663C544.316 320.684 546.338 321.928 548.205 322.551Z" fill="#A7D1D8"/>
<path d="M577.455 285.07L576.055 286.47L572.632 283.048L574.032 281.649C574.343 281.338 574.966 281.182 575.432 281.182C576.055 281.182 576.521 281.493 576.988 281.96C578.077 282.893 578.233 284.292 577.455 285.07Z" fill="#8CBFC4"/>
<path d="M491.573 236.081C491.573 238.414 489.706 240.436 487.217 240.436C484.883 240.436 482.861 238.569 482.861 236.081C482.861 233.748 484.728 231.726 487.217 231.726C489.706 231.882 491.573 233.748 491.573 236.081Z" fill="white"/>
<path d="M488.306 266.563C488.306 268.896 486.439 270.918 483.95 270.918C481.616 270.918 479.594 269.051 479.594 266.563C479.594 264.23 481.461 262.208 483.95 262.208C486.284 262.208 488.306 264.23 488.306 266.563Z" fill="white"/>
<path d="M519.111 234.215C519.111 236.547 517.244 238.569 514.755 238.569C512.421 238.569 510.399 236.703 510.399 234.215C510.399 231.882 512.266 229.86 514.755 229.86C517.089 229.86 519.111 231.882 519.111 234.215Z" fill="white"/>
<path d="M296.006 481.649C296.006 483.981 294.139 486.003 291.65 486.003C289.316 486.003 287.294 484.137 287.294 481.649C287.294 479.316 289.161 477.294 291.65 477.294C294.139 477.294 296.006 479.316 296.006 481.649Z" fill="white"/>
<path d="M296.006 439.347C298.412 439.347 300.363 437.397 300.363 434.992C300.363 432.587 298.412 430.638 296.006 430.638C293.6 430.638 291.65 432.587 291.65 434.992C291.65 437.397 293.6 439.347 296.006 439.347Z" fill="white"/>
<path d="M319.655 461.431C319.655 462.986 318.41 464.23 316.854 464.23C315.299 464.23 314.054 462.986 314.054 461.431C314.054 459.876 315.299 458.631 316.854 458.631C318.41 458.787 319.655 460.031 319.655 461.431Z" fill="white"/>
<path d="M118.02 267.03C118.02 269.362 116.153 271.384 113.664 271.384C111.33 271.384 109.307 269.518 109.307 267.03C109.307 264.697 111.174 262.675 113.664 262.675C116.153 262.831 118.02 264.697 118.02 267.03Z" fill="white"/>
<path d="M177.141 206.065C177.141 207.776 175.741 209.176 174.03 209.176C172.318 209.176 170.918 207.776 170.918 206.065C170.918 204.355 172.318 202.955 174.03 202.955C175.741 202.799 177.141 204.199 177.141 206.065Z" fill="white"/>
<path d="M531.402 97.9782C523.779 90.6688 516 83.0482 506.509 78.2271C496.396 73.0949 485.194 72.3173 473.993 72.1618C454.234 71.8507 434.319 74.9611 416.116 83.0482C406.003 87.5583 396.668 93.6237 388.733 101.4C386.555 103.421 389.823 106.843 392.001 104.666C405.536 91.4464 423.117 83.6703 441.476 79.7823C450.655 77.916 460.146 76.9829 469.481 76.8274C479.905 76.6719 491.107 76.8274 500.908 81.0265C511.488 85.381 519.734 93.6237 527.824 101.4C530.313 103.421 533.581 100.156 531.402 97.9782Z" fill="white"/>
<path d="M514.911 99.5335C467.614 76.6719 414.871 91.2908 368.974 109.798C343.615 120.062 318.877 132.504 291.961 137.636C263.645 143.079 234.24 141.213 206.702 132.815C204.057 132.037 202.968 136.081 205.613 136.858C230.506 144.479 256.644 146.812 282.471 143.39C309.231 139.969 333.502 129.082 358.084 118.818C406.314 98.6003 462.324 78.6936 512.888 103.11C515.222 104.51 517.4 100.778 514.911 99.5335Z" fill="#C4EBF2"/>
<path d="M133.889 123.173C114.286 121.773 94.0604 120.373 74.7682 125.661C65.4332 128.149 57.0318 132.504 48.6303 137.481C40.6956 142.146 33.0721 146.812 26.6932 153.499C24.8262 155.521 27.7823 158.476 29.6493 156.454C36.0282 149.767 43.9628 145.101 51.8975 140.435C60.299 135.614 68.856 131.415 78.191 129.082C96.3941 124.728 115.375 126.128 133.734 127.372C136.534 127.527 136.534 123.328 133.889 123.173Z" fill="#C4EBF2"/>
<path d="M362.907 93.6237C342.681 105.91 320.277 113.686 296.784 116.174C294.139 116.485 294.139 120.684 296.784 120.373C321.055 117.729 344.237 109.953 365.085 97.2006C367.419 95.8009 365.24 92.224 362.907 93.6237Z" fill="#C4EBF2"/>
<path d="M103.706 481.804C130.933 507.621 170.762 506.843 205.924 506.999C246.376 507.31 286.827 498.445 327.278 502.177C329.923 502.488 329.923 498.134 327.278 497.978C289.316 494.401 251.665 502.488 213.859 502.799C178.075 503.11 134.823 505.288 106.818 478.849C104.796 476.827 101.839 479.938 103.706 481.804Z" fill="#C4EBF2"/>
<path d="M349.216 502.644C370.686 502.644 392.156 502.644 413.627 502.644C416.427 502.644 416.427 498.445 413.627 498.445C392.156 498.445 370.686 498.445 349.216 498.445C346.415 498.289 346.415 502.644 349.216 502.644Z" fill="#C4EBF2"/>
<path d="M451.122 501.866C466.68 501.866 482.238 501.866 497.797 502.022C512.421 502.022 527.357 502.955 541.982 501.555C552.406 500.622 562.674 497.201 569.365 488.647C575.432 480.871 577.61 470.918 575.432 461.275C574.81 458.631 570.765 459.72 571.387 462.364C573.876 474.028 568.898 486.47 558.318 492.535C548.361 498.289 536.225 497.667 525.179 497.667C500.441 497.667 475.86 497.512 451.122 497.512C448.477 497.512 448.477 501.866 451.122 501.866Z" fill="#C4EBF2"/>
</g>
<defs>
<clipPath id="clip0_5_54">
<rect width="634" height="507" fill="white"/>
</clipPath>
</defs>
</svg>
