<?xml version="1.0" encoding="utf-8"?>
<!-- Generator: Adobe Illustrator 27.0.0, SVG Export Plug-In . SVG Version: 6.00 Build 0)  -->
<svg version="1.1" id="Layer_1" xmlns="http://www.w3.org/2000/svg" xmlns:xlink="http://www.w3.org/1999/xlink" x="0px" y="0px"
	 viewBox="0 0 500 500" style="enable-background:new 0 0 500 500;" xml:space="preserve">
<style type="text/css">
	.st0{fill:#7F87AB;}
	.st1{fill:#FFFFFF;}
	.st2{fill:#D96249;}
	.st3{fill:#5E6A8E;}
	.st4{fill:#465777;}
	.st5{fill:#C9C9C9;}
	.st6{fill:#DB7965;}
	.st7{fill:#382632;}
	.st8{fill:#E68770;}
	.st9{fill:#694C51;}
	.st10{fill:#EFEFEF;}
	.st11{fill:#E0E0E0;}
	.st12{opacity:0.15;fill:#281A24;enable-background:new    ;}
	.st13{opacity:0.3;fill:#E68770;enable-background:new    ;}
	.st14{opacity:0.35;fill:#E68770;enable-background:new    ;}
	.st15{opacity:0.15;}
	.st16{fill:#281A24;}
	.st17{fill:#3C4F2F;}
	.st18{fill:#56684C;}
	.st19{opacity:0.2;}
	.st20{opacity:0.45;fill:#FFFFFF;enable-background:new    ;}
	.st21{fill:#D8705B;}
</style>
<g>
	<path class="st0" d="M103.1,194H22.4v18.5h80.7V194z"/>
	<path class="st1" d="M33.3,208.7c-3,0-5.5-2.4-5.5-5.5s2.4-5.5,5.5-5.5s5.5,2.4,5.5,5.5S36.3,208.7,33.3,208.7z M33.3,198.6
		c-2.5,0-4.7,2.1-4.7,4.7c0,2.5,2.1,4.7,4.7,4.7c2.5,0,4.7-2.1,4.7-4.7S35.8,198.6,33.3,198.6z"/>
	<path class="st2" d="M98.4,212.5H17.7v18.5h80.7V212.5z"/>
	<path class="st1" d="M28.5,227.2c-3,0-5.5-2.4-5.5-5.5s2.4-5.5,5.5-5.5c3,0,5.5,2.4,5.5,5.5C33.8,224.8,31.4,227.2,28.5,227.2z
		 M28.5,217.1c-2.5,0-4.7,2.1-4.7,4.7c0,2.5,2.1,4.7,4.7,4.7c2.5,0,4.7-2.1,4.7-4.7C33.1,219.2,31,217.1,28.5,217.1z"/>
	<path class="st2" d="M98.4,175.4H17.7V194h80.7V175.4z"/>
	<path class="st1" d="M30.8,190.1c-3,0-5.5-2.4-5.5-5.5s2.4-5.5,5.5-5.5s5.5,2.4,5.5,5.5S33.8,190.1,30.8,190.1z M30.8,180.1
		c-2.5,0-4.7,2.1-4.7,4.7c0,2.5,2.1,4.7,4.7,4.7c2.5,0,4.7-2.1,4.7-4.7C35.4,182.1,33.3,180.1,30.8,180.1z"/>
	<path class="st3" d="M395.2,297.9h-40.7V173h49c12.4,0,21.9,10.7,20.7,22.9l-8.2,83C414.9,289.7,406,297.9,395.2,297.9z"/>
	<path class="st3" d="M378.5,343.7h-110v-34.1h134c1.9,0,3.6,1.6,3.6,3.6v2.8C406.1,331.3,393.7,343.7,378.5,343.7z"/>
	<path class="st4" d="M402,175.4c4.6,19.4,1.6,39.6-0.6,59c-2.2,19.5-5,39-11.5,57.7c-0.1,0.5,0.5,0.6,0.7,0.2
		c6.5-18.7,9.3-38.3,11.5-57.8c2.2-19.5,5.2-39.9,0.6-59.3C402.6,174.7,401.9,175,402,175.4z"/>
	<path class="st4" d="M298.6,327.9c17.8,0.2,35.5,0.6,53.3,0.8c15.8,0.2,32.5,0.1,46.3-8.6c0.4-0.2,0-0.8-0.4-0.6
		c-14.3,9-31.6,8.7-48,8.5c-17.1-0.2-34.2-0.5-51.3-0.8C298.1,327.2,298.1,327.9,298.6,327.9z"/>
	<path class="st5" d="M387.4,435.7c0-7.5-6.4-13.8-14.9-14.4l-44.8-3.2v-29.7c0-1.7-1.5-3.2-3.2-3.2h0.1v-27.8h14.8
		c7.6,0,13.9-6.2,13.9-13.9h-74.2c0,7.6,6.2,13.9,13.9,13.9h14.8v27.8h0.1c-1.7,0-3.2,1.5-3.2,3.2v29.8l-41.4,2.9
		c-8.4,0.6-14.9,6.9-14.9,14.4h12.4c-3.8,1.8-6.3,5.6-6.3,9.9c0,6.1,5,11,11,11c6.1,0,11-5,11-11c0-4.4-2.7-8.2-6.3-9.9h43
		c-3.8,1.8-6.3,5.6-6.3,9.9c0,6.1,5,11,11,11c6.1,0,11-5,11-11c0-4.4-2.7-8.2-6.3-9.9h49.8c-4.7,1.2-8.4,5.5-8.4,10.7
		c0,6.1,5,11,11,11s11-5,11-11c0-5.2-3.5-9.5-8.4-10.7h9.5V435.7z"/>
	<path class="st6" d="M228.2,288.2c-0.7,0.7-8.2,7.2-9.1,13.3c-1.6,10.9,6.3,20.6,8,23c8,11.2,6.5,18.9,32.8,68
		c11.3,21.1,14.4,26.3,13.6,37.2c-1.1,14.7-3,20.1-6.3,25.3c0,0-0.1,7.9,15.5-5c12-9.9,7.2-30.8,7.2-30.8c-0.6-2.8-3-39.8-10.1-59.9
		c-8.8-25.6-27.1-39.8-25.1-44c0.6-1.1,5.2-3.2,8.2-5c0,0,3.6-8-7.3-17C249.8,288.6,228.2,288.2,228.2,288.2z"/>
	<path class="st7" d="M301.1,457.8l-6.8-19.5c0,0-7.2,7.2-9.7,17.5c-1.3,5.6-4.7,9.8-10.1,11.8c-0.6,0.2-1.2,0.4-1.8,0.5
		c-1.9,0.5-6.3,1.5-9.8,1.6c-5.6,0-5.9-1.9-3.5-5.8c0.8-1.5,7.6-9,7.6-9s6.9,1.2,9.6-2.9c0,0,10.1-16.2,13.1-33c0,0,0.5,0,1.2,0.2
		c5,1.3,9.1,5.1,9.8,10.3c0.8,5.8,2.1,17.6,4.4,23.9l0.8,2.5L301.1,457.8z"/>
	<path class="st8" d="M261,295.3c-1,0.5-4.7,2.7-6.2,5.6c-4.8,9.8-1.2,20.5-0.5,23.4c3.8,13.2,1.2,20,9.1,75.1
		c3.4,23.6,4.5,29.6-0.1,39.5c-6.1,13.3-9.8,17.8-14.5,21.6c0,0-2.9,7.3,16.2,0.6c14.7-5.1,17.3-26.4,17.3-26.4
		c0.5-2.9,10.8-38.4,11.2-59.8c0.5-27.1-11.9-46.7-8.4-49.9c1-0.8,6.1-1.1,9.5-1.8c0,0-10.9-16.8-13.7-19.1
		C275,299.4,261,295.3,261,295.3z"/>
	<path class="st9" d="M279.6,475l0.4-20.6c0,0-9.2,4.2-15,13.1c-3.2,4.7-7.9,7.5-13.6,7.6c-0.6,0-1.2,0-1.8-0.1
		c-1.9-0.2-6.4-0.8-9.7-1.8c-5.2-1.8-5-3.9-1.3-6.7c1.3-1.1,10.3-5.8,10.3-5.8s6.1,3.5,9.9,0.6c0,0,15-11.8,23.5-26.4
		c0,0,0.4,0.2,1,0.6c4.2,2.9,6.8,8,5.7,13c-1.2,5.7-4.1,17.2-4.1,23.9v2.7H279.6z"/>
	<path class="st0" d="M235.8,283.1c-1.7,0.6-4.4,1.3-5.6,2.1c-1.2,0.7-2.1,3-2.1,3c33.2,5.6,52.2,19.6,64.4,36.1
		c0,0,17.2-2.5,16.7-4.4C297.9,285.6,235.8,283.1,235.8,283.1z"/>
	<path class="st10" d="M319.1,101.2c-5,0.5-15.9,1.5-23.3,4.7c-25,11.3-26.4,51.4-46.9,69.9c-20,18.2-40.1,37.4-40.1,37.4
		c2.4,10.2,10.5,15.8,10.5,15.8c25-3.3,41.6-14.9,55.6-30.7c12.8-14.5,15-24.5,15-24.5c-0.2,3.5,0,1.2-0.4,12.6
		c-0.5,11.6,0.1,17.9,0.2,23.6c0.1,9.6,0.8,35.1-10.5,50.8c-1.3,1.8-32.1,12.1-49,24.2c0,0,18.9-0.4,40.4,9.8
		c18.3,8.7,32.6,27.5,32.6,27.5c31-0.6,69.4-3.2,79.7-18.3c18.2-26.7-13.7-65,1.2-90.5c0,0,10.7-4.2,12.1-10.2
		c6.2-25.5-2.1-75.4-15.1-89c-4.4-4.5-11.6-10.1-29.6-14.1C330.7,95.9,319.1,101.2,319.1,101.2z"/>
	<path class="st5" d="M497,231.1H293.8v15H497V231.1z"/>
	<path class="st11" d="M293.9,231.1H3v15h290.9V231.1z"/>
	<path class="st0" d="M319.1,101.2c-1.3,22.8,4.8,52.1,4.8,52.1s20.5-33.9,33.1-51.5c0,0-3.6,2.7-19.1,1
		C321.4,100.9,319.1,101.2,319.1,101.2z"/>
	<path class="st12" d="M367.2,109.3c-3.4,4.1-6.8,8.2-11,11.6c-4.5,3.6-9.7,5.6-14.7,8.4c-0.2,0.1-0.2,0.6,0.1,0.7
		c2.3,0.5,4.4,1.5,6.3,2.9c-8.2,6.3-16.1,13.2-23.6,20.4c-0.4,0.4,0.2,0.8,0.5,0.5c7.6-7.3,15.5-14.3,23.9-20.6
		c0.1-0.1,0.2-0.4,0.1-0.6c-1.8-1.5-3.8-2.5-6.1-3.2c4.6-2.4,9.5-4.5,13.7-7.8c4.2-3.4,7.9-7.6,11.3-11.9
		C368,109.4,367.4,108.9,367.2,109.3z"/>
	<path class="st12" d="M321.6,147.2c-1-2.3-1.9-4.6-2.5-7c-0.7-2.5-1.3-5.1-2.3-7.5c-0.5-1.1-1-2.2-1.6-3.2c-0.6-1-1.6-1.9-1.9-3
		c1.6-0.1,3-0.2,4.6-0.4c0.2,0,0.5-0.4,0.4-0.6c-1.5-1.9-2.9-4-4.4-5.9c-0.6-0.8-1.5-1.7-1.8-2.5c-0.5-1-0.1-2.3,0-3.3
		c0.6-3.9,1.5-7.8,2.9-11.4c0.1-0.5-0.6-0.6-0.7-0.2c-1.6,3.9-2.4,8.1-3,12.2c-0.1,0.7-0.2,1.6,0,2.4c0.2,1,1.1,1.8,1.7,2.5
		c1.5,2.1,2.9,4,4.4,6.1c-1.5,0.1-3,0.2-4.5,0.4c-0.2,0-0.5,0.2-0.4,0.5c0.4,1.1,1,1.9,1.7,2.8c0.7,1.1,1.3,2.2,1.9,3.4
		c1.1,2.5,1.8,5.3,2.5,8c0.6,2.2,1.3,4.4,2.3,6.4c1,2.2,1.9,4.4,2.3,6.7c0.1,0.5,0.8,0.2,0.7-0.2
		C323.3,151.1,322.4,149.2,321.6,147.2z"/>
	<path class="st7" d="M298.6,40.2c-4.1,5.2-3.9,12.6-2.1,18.8c1.1,3.5,2.3,7,1.9,10.7c-0.4,3.4-0.6,6.1,1.6,8.8
		c0.4,0.4,0.8-0.1,0.5-0.5c-2.5-3.3-1.2-6.5-1.3-10.3c-0.1-2.7-0.8-5.2-1.6-7.8c-0.8-2.9-1.8-5.8-1.7-9c0.1-3.5,1.1-7.5,3.2-10.3
		C299.4,40.3,299,39.8,298.6,40.2z"/>
	<path class="st8" d="M357,101.9c-2.5-0.6-9.9-4.2-9.9-6.8l-0.2-15.5c1.5-1.7,5.5-13.7,4.2-21.5c-2.7-16.4-14.5-29.3-27.9-28.4
		c-15.4,1.1-22.2,14.4-21.6,30.9c0.6,15.3,11.9,28.4,21.7,30.1v4.7c0,2.7-1.8,5-4.4,5.7c0,0,5.2,7,13.7,7
		C349,108.2,357,101.9,357,101.9z"/>
	<path class="st13" d="M323.4,93.5v-2.8c8.1,0.4,18.8-11.9,18.8-11.9C339.8,85.9,334,92.8,323.4,93.5z"/>
	<path class="st7" d="M309.4,29.9c-0.2,0.1-0.5,0.4-0.6,0.4c-5.1,1.1-7.4,2.5-10.1,8c-4.7,9.8-0.5,16.7,3.2,23.6c0,0,1.6-2.1,4-8.4
		c1.6-4.1,1.8-10.4,1.8-10.4c5.3,9.6,23,9.6,33.8,13.3c0,0,2.5,2.1,4.5,9.6c0,0,0.1,6.7,0.4,11.4c0.2,4.2,23-7.3,10.5-37.9
		C352.7,29.3,330.8,15.3,309.4,29.9z"/>
	<path class="st13" d="M318.7,79.3c-2.4,0.5-3.9-0.4-4.5-0.7c-0.1-0.1-0.1-0.2,0-0.2c0,0,2.5-0.5,4.2-0.8c1.7-0.4,4.2-1.1,4.2-1.1
		c0.1,0,0.2,0,0.1,0.2C322.5,77.3,321.3,78.9,318.7,79.3z"/>
	<path class="st7" d="M321,55.6c-0.4-0.6-0.1-1.2,1.3-1.6c1.3-0.2,4.1,0.1,5.7,0.7c3.6,1.3,4.7,2.8,4,2.4c-1.7-0.8-3.9-1.5-6.4-1.7
		C323.9,55.3,321.4,56.2,321,55.6z"/>
	<path class="st7" d="M312.8,56.7c0.1-0.6-0.4-1.2-1.8-1c-1.3,0.2-3.8,1.5-5.1,2.7c-2.9,2.5-3.5,4.2-2.9,3.6
		c1.3-1.3,3.2-2.7,5.5-3.8C310,57.4,312.7,57.4,312.8,56.7z"/>
	<path class="st14" d="M315.8,66.1c0,1-0.1,1.9-0.2,2.9c-0.1,0.7-0.1,1.5-0.1,2.2c0,0.4,0.1,0.8,0.5,1.1c0.5,0.2,1,0.2,1.5,0
		c0.8-0.2,1.3-1,1.7-1.7c0.1-0.2-0.4-0.5-0.5-0.1c-0.4,0.7-1,1.3-1.7,1.5c-0.5,0.1-0.8,0-1-0.5c-0.1-0.7,0-1.5,0-2.1
		c0.1-1.1,0.2-2.2,0.2-3.3C316.3,65.9,315.8,65.9,315.8,66.1z"/>
	<path class="st7" d="M310.2,65.6c0.1,0.7-0.4,1.5-1.1,1.6c-0.7,0.1-1.3-0.5-1.5-1.2c-0.1-0.7,0.4-1.5,1.1-1.6
		C309.5,64.3,310.2,64.9,310.2,65.6z"/>
	<path class="st7" d="M325.7,63.7c0.1,0.7-0.4,1.5-1.1,1.6c-0.7,0.1-1.3-0.5-1.5-1.2c-0.1-0.7,0.4-1.5,1.1-1.6
		C325,62.5,325.6,63,325.7,63.7z"/>
	<path class="st7" d="M371.8,79.3c-1.5-2.1-3.4-3.2-5.8-3.9c-0.4-0.1-1-0.2-1.3-0.4c-0.8-0.6-0.6-1.3-0.5-2.1c0.1-0.6,0.1-1.2,0-1.8
		c-0.1-1.1-0.6-2.1-1.5-2.8c-2.1-1.9-5.3-0.2-7.3-2.1c-0.4-0.4-1,0.2-0.6,0.6c0.2,0.2,0.6,0.5,1,0.6c-0.7,0.1-1.3,0.2-2.1,0.4
		c-1,0.2-1.8,0.1-1.9,0.8c-1.2,4.4-10.8,14.3-11,17.2c-2.1,1.2-3.4,3.4-4.4,5.7c-0.7,1.7-1.2,4-0.5,5.8c-2.4,3.4-1.7,8.4,1.8,10.9
		c0.4,0.2,0.8,0.5,1.3,0.7c0.1,1.6,0.6,3,1.3,4.4c1.1,2.1,2.9,3.9,5.2,4.5c0.6,0.1,1.3,0.2,1.9,0.2c0.2,2.1,1.2,4.1,2.7,5.6
		c2.8,2.7,7,3.3,10.5,1.7c3.6-1.7,5.3-5.5,6.2-9.2c0.7-3,0.8-6.2-0.5-9c2.7-3.6,2.4-8.4-0.1-11.8c3.9-3.4,5.5-9.7,3.2-14.4
		c-1.3-2.7-4.5-4.1-7.2-4.7c0.2-0.8,0.4-1.8,0.5-2.8c0.1-2.1-0.6-4.1-2.3-5.3c-0.2-0.1-0.4-0.2-0.6-0.4c0.2,0,0.5,0,0.7,0.1
		c1.5,0.2,2.4,1.1,2.9,2.5c0.4,1.3-0.1,2.4,0,3.8c0.1,0.8,0.6,1.3,1.3,1.6c1.3,0.6,2.8,0.7,4,1.6c2.5,1.6,3.9,4.5,4.2,7.3
		c0.4,2.5,0.2,5.5-1,7.8c-0.5,1-1.2,1.8-2.3,2.3c-0.6,0.4-1.7,0.5-1.9,1.3c-0.2,0.8,0.6,1.7,1,2.3c0.8,1.5,1.2,3,0.7,4.7
		c-0.4,1.5-1.3,2.4-1.9,3.8c-0.4,0.7-0.1,1.2,0.5,1.7c2.3,2.2,2.3,5.6,1.6,8.5c-0.8,3-2.5,5.6-4.8,7.5c-0.4,0.4,0.1,0.8,0.6,0.6
		c3.8-3,6.2-8.1,5.5-13c-0.1-1.1-0.5-2.2-1.2-3.2c-0.2-0.4-0.8-0.7-1.1-1.1c-0.5-0.8,0.5-1.8,1-2.5c1.3-2.3,1.6-4.6,0.4-7
		c-0.4-0.7-1-1.2-0.8-2.1c0.2-0.7,0.7-0.7,1.3-1.1c0.8-0.5,1.6-1.2,2.2-2.1c1.2-1.8,1.6-4.1,1.6-6.3C374,84.3,373.4,81.5,371.8,79.3
		z"/>
	<path class="st11" d="M120.6,261.3H18.1v215.1h102.4V261.3z"/>
	<path class="st5" d="M178.3,261.3h-57.7v215.1h57.7V261.3z"/>
	<path class="st5" d="M487.2,246.1h-12.7v230.3h12.7V246.1z"/>
	<g class="st15">
		<path class="st16" d="M270.5,294.7c4-5,8.5-9.5,13.5-13.5c5.3-4.1,11.3-7.3,16.7-11c4.5-3,9.1-6.2,12.7-10.1
			c3.5-3.9,5.9-8.4,7.4-13.5c0.1-0.5-0.6-0.7-0.7-0.2c-1.6,5.5-4.2,10.2-8.2,14.2c-4.1,4-9.1,7.4-13.8,10.4
			c-5.1,3.3-10.3,6.2-15,9.9c-4.8,3.9-9.1,8.2-13,13C269.6,294.5,270.1,295.1,270.5,294.7z"/>
	</g>
	<path class="st11" d="M293.9,246.1h-12.7v230.3h12.7V246.1z"/>
	<path class="st17" d="M461.1,155.2c3.2-2.1,9-12.1,12.7-21.9c2.2-5.8,6.1-33.7,1.8-34.9c-3.3-1-17.6,18.1-23.1,37.2
		c-1.6,5.6-4.6,16.4-0.7,20C454.6,158.1,460.3,155.8,461.1,155.2z"/>
	<path class="st17" d="M437.1,155.7c-6.2-5.6-9.1-11.2-12.2-21.7c-1.8-6.1-6.1-33.7-1.8-34.9c3.3-1,17.6,18.1,23.1,37.2
		c1.6,5.6,4.6,16.4,0.7,20C444.2,158.8,437.9,156.3,437.1,155.7z"/>
	<path class="st18" d="M443.8,155c-1.6-6.4-5.6-15.6-5.2-42.7c0.4-21.6,5.2-40.1,8-40.1c5.2,0,10.7,30.8,11.4,44
		c1,16.7-1.1,28-4.2,38.9C452.6,159.6,444.9,159.3,443.8,155z"/>
	<path class="st10" d="M462.9,231.1h-27.4l-5-77.2h36.8L462.9,231.1z"/>
	<g class="st19">
		<path class="st1" d="M446.7,81.5c-0.2,11.5,0.2,23,1.3,34.5c1.1,11.4,2.5,22.9,1.1,34.3c0,0.4,0.5,0.4,0.5,0
			c1.5-11.5,0-22.9-1.1-34.3c-1.1-11.5-1.5-23-1.3-34.5C447.2,81.2,446.7,81.2,446.7,81.5z"/>
	</g>
	<g class="st19">
		<path class="st1" d="M424.6,107.6c3.8,14.5,8.2,28.8,13.7,42.9c0.1,0.2,0.6,0.1,0.5-0.1c-5.5-14.1-10.1-28.4-13.7-42.9
			C425,107.1,424.5,107.2,424.6,107.6z"/>
	</g>
	<g class="st19">
		<path class="st1" d="M456.9,151.3c2.2-8.1,7.9-14.5,11-22.2c1.8-4.5,2.7-9.2,3.6-13.9c1.1-5,2.2-9.9,3.3-14.9
			c0.1-0.4-0.4-0.5-0.5-0.1c-1.1,5-2.2,9.9-3.3,14.9c-1,4.6-1.8,9.5-3.6,13.9c-3.2,7.8-8.8,14.2-11,22.2
			C456.3,151.5,456.8,151.7,456.9,151.3z"/>
	</g>
	<path class="st7" d="M230.4,226.5l-13.5-61.1c-0.2-1.3-1.5-2.2-2.8-2.2h-92.6c-1.8,0-3.3,1.7-2.8,3.5l16,62.1
		c0.4,1.2,1.5,2.3,2.8,2.3h131c1.3,0,2.3-0.8,2.3-2.2c0-1.3-1.1-2.3-2.3-2.3L230.4,226.5z"/>
	<path class="st20" d="M179.2,197c0,3.2-2.5,5.7-5.7,5.7s-5.7-2.5-5.7-5.7c0-3.2,2.5-5.7,5.7-5.7S179.2,193.9,179.2,197z"/>
	<path class="st8" d="M266.5,228.9c-0.4-0.5,5.9-7.6,15.6-10.2c8.5-2.2,10.3,1.5,19.5-1.2c6.2-1.8,9.3-2.8,12.2-3
		c0,0-0.1,2.5,1.6,6.9c1.8,4.7,3.8,6.9,3.8,6.9c-3,0.5-7.2,0.6-9.7,1.1c-1.5,0.4-4.2,1.3-4.7,1.6H273c-0.4-1.7,2.2-4,1.7-4.7
		C274.5,225.7,267.8,231,266.5,228.9z"/>
	<g class="st15">
		<path class="st16" d="M290.4,172.1c2.9-18.2,0.8-37-5.9-54.1c-0.1-0.5-1-0.2-0.7,0.2c6.7,17,8.7,35.6,5.9,53.7
			C289.5,172.4,290.2,172.5,290.4,172.1z"/>
	</g>
	<path class="st12" d="M384.9,183.6c-2.9,0-5.7,0.6-8.4,1.7c-1.7,0.7-3.3,1.7-4.8,2.8c-5.2-19.5-8.2-39.6-9-59.8
		c0-0.5-0.7-0.5-0.7,0c0.7,20.4,3.8,40.6,9.1,60.2c-0.8,0.6-1.6,1.1-2.4,1.7c-5.5,3.9-12,6.3-18.2,8.8c-6.7,2.8-13.3,5.6-20,8.1
		c-3.5,1.3-7,2.5-10.5,4c-0.4-9.2,2.3-18.1,3.3-27.1c1-9.7,0.6-19.5,0.6-29.3c0-0.5-0.7-0.5-0.7,0c0,9.7,0.4,19.6-0.6,29.3
		c-1,9.2-3.6,18.2-3.3,27.4c-1.7,0.7-3.4,1.5-5.1,2.4c-0.5,0.2,0,0.8,0.4,0.6c5.3-2.9,11.2-4.7,16.7-6.8c6.2-2.3,12.2-4.7,18.3-7.4
		c5.9-2.5,12.4-4.8,17.8-8.4c2.7-1.7,5-3.8,7.8-5.2c3-1.6,6.3-2.4,9.8-2.4C385.4,184.3,385.4,183.6,384.9,183.6z"/>
	<g class="st15">
		<path class="st16" d="M319.8,228.7c5,0,10.1-0.8,15-1.6c5.6-0.8,11.3-1.6,16.8-2.4c11-1.7,22.2-4.2,31.8-10.2c0.4-0.2,0-1-0.4-0.6
			c-9.6,5.9-20.6,8.5-31.6,10.1c-5.3,0.8-10.5,1.5-15.9,2.3c-5.2,0.8-10.4,1.7-15.8,1.7C319.3,227.9,319.3,228.7,319.8,228.7z"/>
	</g>
	<g class="st15">
		<path class="st16" d="M324.9,211c0.5,2.9,1.3,5.7,2.4,8.5c1,2.4,2.1,4.8,3.8,7c0.2,0.4,0.8-0.1,0.5-0.5c-1.7-2.2-2.8-4.6-3.8-7.2
			c-1-2.7-1.8-5.2-2.3-8C325.5,210.2,324.8,210.5,324.9,211z"/>
	</g>
	<path class="st21" d="M275.6,226c1.9-1.3,4-2.3,6.3-2.8c0.5-0.1,0.2-0.8-0.2-0.7c-2.3,0.5-4.6,1.5-6.5,2.8
		C274.8,225.6,275.2,226.2,275.6,226z"/>
	<path class="st21" d="M279,230.7c1.3-1.9,3.6-2.8,5.7-3.6c0.5-0.1,0.2-1-0.2-0.7c-2.3,1-4.6,1.9-6.1,4
		C278.1,230.7,278.7,231.1,279,230.7z"/>
	<path class="st21" d="M286.8,230.7c0.8-0.8,1.8-1.5,3-1.7c0.2,0,0.4-0.2,0.2-0.5c0-0.2-0.2-0.4-0.5-0.2c-1.2,0.2-2.4,1-3.4,1.8
		C286,230.5,286.5,231.1,286.8,230.7z"/>
	<path class="st10" d="M96.6,203.3h-6.8c-0.2,0-0.5,0.2-0.5,0.6v24.2c0,1.6,1.1,2.9,2.4,2.9h2.9c1.3,0,2.4-1.3,2.4-2.9v-24.4
		C97,203.6,96.9,203.3,96.6,203.3z"/>
	<path class="st3" d="M97,211.9h-7.8v16.2c0,1.6,1.1,2.9,2.4,2.9h2.9c1.3,0,2.4-1.3,2.4-2.9V211.9z"/>
	<path class="st10" d="M98.1,204.4h-9.8c-0.2,0-0.5-0.2-0.5-0.6s0.2-0.6,0.5-0.6h9.8c0.2,0,0.5,0.2,0.5,0.6S98.4,204.4,98.1,204.4z"
		/>
	<path class="st10" d="M108.2,203.3h-6.8c-0.2,0-0.5,0.2-0.5,0.6v24.2c0,1.6,1.1,2.9,2.4,2.9h2.9c1.3,0,2.4-1.3,2.4-2.9v-24.4
		C108.7,203.6,108.4,203.3,108.2,203.3z"/>
	<path class="st3" d="M108.7,211.9h-7.8v16.2c0,1.6,1.1,2.9,2.4,2.9h2.9c1.3,0,2.4-1.3,2.4-2.9V211.9z"/>
	<path class="st10" d="M109.8,204.4H100c-0.2,0-0.5-0.2-0.5-0.6s0.2-0.6,0.5-0.6h9.8c0.2,0,0.5,0.2,0.5,0.6S110,204.4,109.8,204.4z"
		/>
	<path class="st10" d="M84.3,203.3h-6.8c-0.2,0-0.5,0.2-0.5,0.6v24.2c0,1.6,1.1,2.9,2.4,2.9h2.9c1.3,0,2.4-1.3,2.4-2.9v-24.4
		C84.8,203.6,84.6,203.3,84.3,203.3z"/>
	<path class="st10" d="M85.9,204.4h-9.8c-0.2,0-0.5-0.2-0.5-0.6s0.2-0.6,0.5-0.6h9.8c0.2,0,0.5,0.2,0.5,0.6S86.1,204.4,85.9,204.4z"
		/>
	<path class="st7" d="M128.6,214.4v3.5H75v-3.5c0-0.4-0.4-0.7-0.7-0.7c-0.4,0-0.7,0.4-0.7,0.7v16.7h0.1H75h53.6h1.6v-1.5v-10.2v-1.6
		v-3.5c0-0.5-0.4-0.7-0.7-0.7C128.9,213.5,128.6,213.9,128.6,214.4z M128.6,229.6H75v-10.2h53.6V229.6z"/>
	<g class="st15">
		<path class="st16" d="M252.4,173.9c2.8,4,3.8,8.8,4.1,13.7c0,0.5,0.8,0.5,0.7,0c-0.5-5-1.3-9.9-4.2-14.1
			C252.9,173.1,252.2,173.5,252.4,173.9z"/>
	</g>
</g>
</svg>
