<svg width="606" height="450" viewBox="0 0 606 450" fill="none" xmlns="http://www.w3.org/2000/svg">
<path d="M70.8676 84.4321C70.8676 84.4321 126.146 36.0594 194.09 59.1003C262.034 82.1412 315.011 186.927 380.653 190.385C446.296 193.843 507.334 158.137 559.154 189.229C610.974 220.321 620.193 355.064 521.145 368.886C422.109 382.708 366.831 333.19 324.218 335.492C281.606 337.794 177.966 389.614 96.1994 366.584C14.4328 343.554 -59.2717 184.625 70.8676 84.4321Z" fill="#F0F0F0"/>
<g opacity="0.46">
<path d="M440.194 92.3398H203.903C201.414 92.3398 199.608 89.9939 200.236 87.5929L222.297 2.84156C222.737 1.16746 224.246 0 225.964 0H462.255C464.744 0 466.55 2.34594 465.922 4.74696L443.862 89.4983C443.432 91.1724 441.923 92.3398 440.194 92.3398Z" fill="#BFD9FF"/>
<path d="M236.306 18.1287H318.524" stroke="#A9C2FF" stroke-width="3.4455" stroke-miterlimit="10" stroke-linecap="round" stroke-linejoin="round"/>
<path d="M229.984 56.0713H312.202" stroke="#A9C2FF" stroke-width="3.4455" stroke-miterlimit="10" stroke-linecap="round" stroke-linejoin="round"/>
<path d="M264.557 41.7422H346.775" stroke="#A9C2FF" stroke-width="3.4455" stroke-miterlimit="10" stroke-linecap="round" stroke-linejoin="round"/>
<path d="M234.203 30.7725H258.862" stroke="#A9C2FF" stroke-width="3.4455" stroke-miterlimit="10" stroke-linecap="round" stroke-linejoin="round"/>
<path d="M230.821 41.7422H255.492" stroke="#A9C2FF" stroke-width="3.4455" stroke-miterlimit="10" stroke-linecap="round" stroke-linejoin="round"/>
<path d="M331.598 18.1287H360.905" stroke="#A9C2FF" stroke-width="3.4455" stroke-miterlimit="10" stroke-linecap="round" stroke-linejoin="round"/>
<path d="M345.96 73.8806H302.202C301.982 73.8806 301.816 73.6713 301.871 73.462L303.832 65.9396C303.876 65.7964 304.008 65.6863 304.162 65.6863H347.92C348.14 65.6863 348.306 65.8955 348.251 66.1048L346.29 73.6272C346.246 73.7704 346.114 73.8806 345.96 73.8806Z" stroke="#84AEE5" stroke-width="1.1485" stroke-miterlimit="10"/>
<path d="M291.562 73.8806H247.805C247.584 73.8806 247.419 73.6713 247.474 73.462L249.435 65.9396C249.479 65.7964 249.611 65.6863 249.765 65.6863H293.523C293.743 65.6863 293.908 65.8955 293.853 66.1048L291.893 73.6272C291.86 73.7704 291.717 73.8806 291.562 73.8806Z" stroke="#84AEE5" stroke-width="1.1485" stroke-miterlimit="10"/>
<path d="M422.869 62.966C420.622 59.9813 411.525 57.8005 409.014 54.8158C407.725 53.2849 407.725 50.4543 408.034 48.0423C408.926 47.4696 409.675 46.8969 410.115 46.3682C410.875 45.2668 411.723 43.7249 412.571 42.0288C412.825 42.2821 413.177 42.4803 413.618 42.4693C414.807 42.4363 419.356 36.2465 418.188 34.8037C417.516 33.9887 416.437 34.6936 415.633 35.4535C416.834 32.7001 417.682 30.5854 417.682 30.5854H417.638C417.748 30.233 417.858 29.8915 417.946 29.5281C419.752 22.292 415.347 16.4216 408.111 16.4216C400.875 16.4216 393.539 22.292 391.733 29.5281C391.645 29.8805 391.579 30.233 391.513 30.5854H391.469C391.469 30.5854 391.26 32.7001 391.094 35.4535C390.665 34.6936 389.938 33.9777 388.858 34.8037C386.975 36.2355 388.429 42.4253 389.607 42.4693C390.048 42.4803 390.489 42.2821 390.874 42.0288C390.885 43.7249 390.962 45.2668 391.171 46.3682C391.392 47.018 392.019 47.7339 392.845 48.4278C391.942 50.7517 390.577 53.373 388.638 54.8158C384.629 57.8005 374.452 59.9813 370.719 62.966C367.36 65.6534 364.364 73.5062 363.802 75.0482H423.761C423.971 73.5062 424.885 65.6534 422.869 62.966Z" fill="#8DBCF8"/>
</g>
<path d="M399.079 159.8H162.789C160.3 159.8 158.493 157.454 159.121 155.053L181.182 70.3013C181.623 68.6272 183.131 67.4597 184.85 67.4597H421.14C423.629 67.4597 425.435 69.8057 424.808 72.2067L402.747 156.958C402.317 158.632 400.808 159.8 399.079 159.8Z" stroke="#7094D8" stroke-width="1.1485" stroke-miterlimit="10"/>
<path d="M394.652 153.478H158.361C155.872 153.478 154.066 151.132 154.694 148.731L176.754 63.9793C177.195 62.3052 178.704 61.1377 180.422 61.1377H416.712C419.202 61.1377 421.008 63.4836 420.38 65.8847L398.319 150.636C397.89 152.31 396.381 153.478 394.652 153.478Z" fill="#A5C5FF"/>
<path d="M232.517 153.478H350.784" stroke="#7094D8" stroke-width="1.1485" stroke-miterlimit="10"/>
<path d="M199.619 61.1377H299.558" stroke="#7094D8" stroke-width="1.1485" stroke-miterlimit="10"/>
<path d="M375.576 140.823H322.445C320 140.823 318.513 138.84 319.119 136.395L332.523 82.6365C333.129 80.1915 335.607 78.209 338.052 78.209H391.182C393.627 78.209 395.114 80.1915 394.509 82.6365L381.105 136.395C380.499 138.84 378.021 140.823 375.576 140.823Z" fill="#B7DEFF"/>
<path d="M349.506 141.043L354.154 122.396L346.532 119.169C346.532 119.169 332.325 124.368 331.113 125.624C330.1 126.681 325 137.551 323.37 141.043H349.506Z" fill="#023F61"/>
<path d="M375.807 141.043C375.928 137.551 376.248 126.67 375.763 125.624C375.179 124.368 363.571 119.169 363.571 119.169L354.341 122.396L349.693 141.043H375.807Z" fill="#023F61"/>
<path d="M354.308 141.043L361.599 124.897L345.949 125.8L344.429 141.043H354.308Z" fill="#BEBECF"/>
<path d="M349.352 115.755L345.949 117.903L343.713 123.289L343.129 130.635L347.931 128.663L351.654 133.146L356.621 129.027L359.672 131.89L364.287 122.033L363.472 115.931L361.544 115.039L349.352 115.755Z" fill="#DEE0E8"/>
<path d="M350.398 101.636C350.398 101.636 349.253 99.0362 346.907 100.765C344.561 102.495 347.303 109.169 349.011 107.164C350.707 105.16 350.398 101.636 350.398 101.636Z" fill="#FB8E74"/>
<path d="M367.117 101.503C367.117 101.503 369.342 98.7499 371.027 100.292C372.712 101.834 367.183 108.894 366.269 107.01C365.366 105.116 367.117 101.503 367.117 101.503Z" fill="#FB8E74"/>
<path d="M361.897 120.965L364.298 108.233L350.409 109.433L347.347 121.383C347.347 121.383 349.77 127.044 352.381 129.555C352.37 129.566 360.443 122.584 361.897 120.965Z" fill="#FB8877"/>
<path d="M373.153 96.3599C372.635 97.9128 371.358 98.2983 371.269 99.2014C371.17 100.105 370.598 102.428 369.717 103.332C368.835 104.235 368.384 104.488 368.384 104.488C368.384 104.488 356.467 107.847 350.42 103.199C350.42 103.199 350.024 101.437 350.442 99.3336C350.85 97.252 349.837 96.8775 351.015 95.8532C352.194 94.8179 352.546 93.9148 352.568 92.7583C352.59 91.6019 352.689 90.1811 353.89 89.0137C355.101 87.8572 356.181 88.2427 357.359 87.2074C357.359 87.2074 359.099 84.2887 361.39 83.9583C363.681 83.6279 368.527 82.4054 371.402 85.9518C374.276 89.4872 372.955 92.5931 373.781 93.6945C374.607 94.7959 373.153 96.3599 373.153 96.3599Z" fill="#713336"/>
<path d="M350.31 99.4438C350.31 99.4438 344.682 114.929 355.277 116.097C364.639 116.317 367.954 104.896 369.298 99.0363C370.642 93.1769 369.805 87.0533 362.315 87.2515C354.826 87.4498 351.125 95.9855 350.31 99.4438Z" fill="#FBA990"/>
<path d="M353.251 93.8929C353.251 93.8929 353.945 95.1375 353.306 96.382C352.667 97.6376 350.916 98.1112 350.663 99.7633C350.398 101.415 349.638 104.852 349.165 105.006C348.702 105.16 349.033 101.647 349.11 100.446C349.187 99.2456 350.079 94.2784 352.579 91.1174C355.079 87.9565 356.621 86.6238 361.071 85.9079C365.52 85.181 368.89 87.0533 370.124 89.7737C371.358 92.4831 369.386 99.3998 369.386 99.3998C369.386 99.3998 369.683 96.1177 368.582 95.3467C367.481 94.5758 366.567 94.003 366.754 93.5515C366.941 93.0999 363.229 94.7299 359.529 93.5405C355.828 92.351 354.628 92.8906 354.022 93.2761C353.394 93.6616 353.251 93.8929 353.251 93.8929Z" fill="#713336"/>
<path d="M342.766 123.465C342.678 123.828 337.6 135.921 337.6 135.921L342.061 138.157L340.805 140.668" stroke="#022755" stroke-width="0.4884" stroke-miterlimit="10"/>
<path d="M364.738 123.465C364.65 123.828 363.692 135.921 363.692 135.921L358.108 138.157V140.668" stroke="#022755" stroke-width="0.4884" stroke-miterlimit="10"/>
<path d="M375.576 140.823H322.445C320 140.823 318.513 138.84 319.119 136.395L332.523 82.6365C333.129 80.1915 335.607 78.209 338.052 78.209H391.182C393.627 78.209 395.114 80.1915 394.509 82.6365L381.105 136.395C380.499 138.84 378.021 140.823 375.576 140.823Z" stroke="white" stroke-width="1.1485" stroke-miterlimit="10"/>
<path d="M190.775 81.3701H272.993" stroke="#73A5FF" stroke-width="3.4455" stroke-miterlimit="10" stroke-linecap="round" stroke-linejoin="round"/>
<path d="M184.442 119.324H266.671" stroke="#73A5FF" stroke-width="3.4455" stroke-miterlimit="10" stroke-linecap="round" stroke-linejoin="round"/>
<path d="M219.025 104.984H301.244" stroke="#73A5FF" stroke-width="3.4455" stroke-miterlimit="10" stroke-linecap="round" stroke-linejoin="round"/>
<path d="M188.66 94.0249H213.331" stroke="#73A5FF" stroke-width="3.4455" stroke-miterlimit="10" stroke-linecap="round" stroke-linejoin="round"/>
<path d="M185.29 104.984H209.95" stroke="#73A5FF" stroke-width="3.4455" stroke-miterlimit="10" stroke-linecap="round" stroke-linejoin="round"/>
<path d="M286.067 81.3701H315.363" stroke="#73A5FF" stroke-width="3.4455" stroke-miterlimit="10" stroke-linecap="round" stroke-linejoin="round"/>
<path d="M300.418 137.122H256.66C256.439 137.122 256.274 136.913 256.329 136.704L258.29 129.181C258.334 129.038 258.466 128.928 258.62 128.928H302.378C302.598 128.928 302.763 129.137 302.708 129.346L300.748 136.869C300.704 137.023 300.572 137.122 300.418 137.122Z" stroke="#7094D8" stroke-width="1.1485" stroke-miterlimit="10"/>
<path d="M246.031 137.122H202.273C202.053 137.122 201.888 136.913 201.943 136.704L203.903 129.181C203.947 129.038 204.08 128.928 204.234 128.928H247.992C248.212 128.928 248.377 129.137 248.322 129.346L246.362 136.869C246.318 137.023 246.185 137.122 246.031 137.122Z" stroke="#7094D8" stroke-width="1.1485" stroke-miterlimit="10"/>
<path d="M296.398 51.6438H347.623" stroke="#7094D8" stroke-width="1.1485" stroke-miterlimit="10"/>
<path d="M397.185 274.486H160.895C158.405 274.486 156.599 272.14 157.227 269.739L179.288 184.988C179.728 183.314 181.237 182.146 182.955 182.146H419.246C421.735 182.146 423.541 184.492 422.913 186.893L400.853 271.645C400.423 273.319 398.914 274.486 397.185 274.486Z" fill="#BFD9FF"/>
<path d="M193.297 200.275H275.526" stroke="#A9C2FF" stroke-width="3.4455" stroke-miterlimit="10" stroke-linecap="round" stroke-linejoin="round"/>
<path d="M186.975 238.229H269.193" stroke="#A9C2FF" stroke-width="3.4455" stroke-miterlimit="10" stroke-linecap="round" stroke-linejoin="round"/>
<path d="M221.548 223.889H303.777" stroke="#A9C2FF" stroke-width="3.4455" stroke-miterlimit="10" stroke-linecap="round" stroke-linejoin="round"/>
<path d="M191.194 212.93H215.853" stroke="#A9C2FF" stroke-width="3.4455" stroke-miterlimit="10" stroke-linecap="round" stroke-linejoin="round"/>
<path d="M187.823 223.889H212.483" stroke="#A9C2FF" stroke-width="3.4455" stroke-miterlimit="10" stroke-linecap="round" stroke-linejoin="round"/>
<path d="M288.589 200.275H317.896" stroke="#A9C2FF" stroke-width="3.4455" stroke-miterlimit="10" stroke-linecap="round" stroke-linejoin="round"/>
<path d="M302.951 256.027H259.193C258.973 256.027 258.807 255.818 258.862 255.609L260.823 248.086C260.867 247.943 260.999 247.833 261.153 247.833H304.911C305.131 247.833 305.297 248.042 305.242 248.251L303.281 255.774C303.237 255.928 303.105 256.027 302.951 256.027Z" stroke="#84AEE5" stroke-width="1.1485" stroke-miterlimit="10"/>
<path d="M248.565 256.027H204.807C204.586 256.027 204.421 255.818 204.476 255.609L206.437 248.086C206.481 247.943 206.613 247.833 206.767 247.833H250.525C250.745 247.833 250.91 248.042 250.855 248.251L248.895 255.774C248.851 255.928 248.708 256.027 248.565 256.027Z" stroke="#84AEE5" stroke-width="1.1485" stroke-miterlimit="10"/>
<path d="M379.86 245.123C377.613 242.139 368.516 239.958 366.005 236.973C364.716 235.442 364.716 232.612 365.025 230.2C365.917 229.627 366.666 229.054 367.106 228.526C367.866 227.424 368.714 225.882 369.562 224.186C369.816 224.44 370.168 224.638 370.609 224.627C371.798 224.594 376.347 218.404 375.179 216.961C374.508 216.146 373.428 216.851 372.624 217.611C373.825 214.858 374.673 212.743 374.673 212.743H374.629C374.739 212.39 374.849 212.049 374.937 211.686C376.743 204.449 372.338 198.579 365.102 198.579C357.866 198.579 350.53 204.449 348.724 211.686C348.636 212.038 348.57 212.39 348.504 212.743H348.46C348.46 212.743 348.251 214.858 348.085 217.611C347.656 216.851 346.929 216.135 345.85 216.961C343.966 218.393 345.42 224.583 346.599 224.627C347.039 224.638 347.48 224.44 347.865 224.186C347.876 225.882 347.953 227.424 348.162 228.526C348.383 229.175 349.011 229.891 349.837 230.585C348.933 232.909 347.568 235.53 345.629 236.973C341.62 239.958 331.444 242.139 327.71 245.123C324.351 247.811 321.355 255.664 320.793 257.206H380.752C380.962 255.653 381.876 247.811 379.86 245.123Z" fill="#8DBCF8"/>
<g opacity="0.46">
<path d="M372.734 387.488H136.433C133.944 387.488 132.137 385.142 132.765 382.741L154.826 297.99C155.266 296.316 156.775 295.148 158.493 295.148H394.784C397.273 295.148 399.079 297.494 398.452 299.895L376.391 384.646C375.961 386.321 374.452 387.488 372.734 387.488Z" fill="#BFD9FF"/>
<path d="M168.846 313.277H251.065" stroke="#A9C2FF" stroke-width="3.4455" stroke-miterlimit="10" stroke-linecap="round" stroke-linejoin="round"/>
<path d="M162.525 351.23H244.743" stroke="#A9C2FF" stroke-width="3.4455" stroke-miterlimit="10" stroke-linecap="round" stroke-linejoin="round"/>
<path d="M197.097 336.89H279.315" stroke="#A9C2FF" stroke-width="3.4455" stroke-miterlimit="10" stroke-linecap="round" stroke-linejoin="round"/>
<path d="M166.732 325.932H191.403" stroke="#A9C2FF" stroke-width="3.4455" stroke-miterlimit="10" stroke-linecap="round" stroke-linejoin="round"/>
<path d="M163.362 336.89H188.033" stroke="#A9C2FF" stroke-width="3.4455" stroke-miterlimit="10" stroke-linecap="round" stroke-linejoin="round"/>
<path d="M264.138 313.277H293.446" stroke="#A9C2FF" stroke-width="3.4455" stroke-miterlimit="10" stroke-linecap="round" stroke-linejoin="round"/>
<path d="M278.5 369.029H234.742C234.522 369.029 234.357 368.819 234.412 368.61L236.372 361.088C236.416 360.945 236.548 360.834 236.703 360.834H280.461C280.681 360.834 280.846 361.044 280.791 361.253L278.83 368.775C278.786 368.93 278.654 369.029 278.5 369.029Z" stroke="#84AEE5" stroke-width="1.1485" stroke-miterlimit="10"/>
<path d="M224.103 369.029H180.345C180.125 369.029 179.959 368.819 180.015 368.61L181.975 361.088C182.019 360.945 182.151 360.834 182.305 360.834H226.063C226.284 360.834 226.449 361.044 226.394 361.253L224.433 368.775C224.389 368.93 224.257 369.029 224.103 369.029Z" stroke="#84AEE5" stroke-width="1.1485" stroke-miterlimit="10"/>
<path d="M355.41 358.125C353.163 355.14 344.065 352.96 341.554 349.975C340.266 348.444 340.266 345.614 340.574 343.202C341.466 342.629 342.215 342.056 342.656 341.527C343.415 340.426 344.264 338.884 345.112 337.188C345.365 337.441 345.717 337.64 346.158 337.629C347.347 337.595 351.896 331.406 350.729 329.963C350.057 329.148 348.977 329.853 348.173 330.613C349.374 327.859 350.222 325.745 350.222 325.745H350.178C350.288 325.392 350.398 325.051 350.486 324.687C352.293 317.451 347.887 311.581 340.651 311.581C333.415 311.581 326.08 317.451 324.273 324.687C324.185 325.04 324.119 325.392 324.053 325.745H324.009C324.009 325.745 323.8 327.859 323.635 330.613C323.205 329.853 322.478 329.137 321.399 329.963C319.516 331.395 320.969 337.584 322.148 337.629C322.588 337.64 323.029 337.441 323.414 337.188C323.425 338.884 323.502 340.426 323.712 341.527C323.932 342.177 324.56 342.893 325.386 343.587C324.483 345.911 323.117 348.532 321.179 349.975C317.17 352.96 306.993 355.14 303.259 358.125C299.9 360.813 296.904 368.665 296.342 370.207H356.302C356.511 368.654 357.425 360.813 355.41 358.125Z" fill="#8DBCF8"/>
</g>
<path d="M325.485 387.917H367.657" stroke="#7094D8" stroke-width="1.1485" stroke-miterlimit="10"/>
<path d="M182.129 274.916H282.476" stroke="#7094D8" stroke-width="1.1485" stroke-miterlimit="10"/>
<path d="M305.462 274.916H329.913" stroke="#7094D8" stroke-width="1.1485" stroke-miterlimit="10"/>
<path d="M411.084 182.565H419.565C422.054 182.565 423.838 184.977 423.1 187.356L419.521 199.009" stroke="#7094D8" stroke-width="1.1485" stroke-miterlimit="10"/>
<path d="M142.612 33.5479H138.283C137.193 33.5479 136.532 32.6668 136.807 31.5875L137.887 27.259C138.162 26.1687 139.252 25.2986 140.343 25.2986H144.671C145.762 25.2986 146.422 26.1797 146.147 27.259L145.068 31.5875C144.792 32.6668 143.702 33.5479 142.612 33.5479Z" fill="#BFD9FF"/>
<path d="M139.451 46.2249H135.122C134.032 46.2249 133.371 45.3438 133.646 44.2645L134.726 39.936C135.001 38.8457 136.091 37.9756 137.182 37.9756H141.51C142.601 37.9756 143.261 38.8567 142.986 39.936L141.907 44.2645C141.631 45.3438 140.541 46.2249 139.451 46.2249Z" fill="#EDF4FF"/>
<path d="M153.207 46.2249H148.878C147.788 46.2249 147.127 45.3438 147.403 44.2645L148.482 39.936C148.757 38.8457 149.848 37.9756 150.938 37.9756H155.266C156.357 37.9756 157.018 38.8567 156.742 39.936L155.663 44.2645C155.399 45.3438 154.297 46.2249 153.207 46.2249Z" fill="#BFD9FF"/>
<path d="M166.974 46.2249H162.646C161.555 46.2249 160.895 45.3438 161.17 44.2645L162.249 39.936C162.525 38.8457 163.615 37.9756 164.705 37.9756H169.034C170.124 37.9756 170.785 38.8567 170.51 39.936L169.43 44.2645C169.155 45.3438 168.053 46.2249 166.974 46.2249Z" fill="#EDF4FF"/>
<path d="M136.213 59.1991H131.884C130.794 59.1991 130.133 58.3179 130.408 57.2386L131.488 52.9102C131.763 51.8198 132.853 50.9497 133.944 50.9497H138.272C139.362 50.9497 140.023 51.8308 139.748 52.9102L138.669 57.2386C138.404 58.3179 137.303 59.1991 136.213 59.1991Z" fill="#EDF4FF"/>
<path d="M132.765 73.0543H128.437C127.346 73.0543 126.686 72.1732 126.961 71.0938L128.04 66.7654C128.316 65.675 129.406 64.8049 130.496 64.8049H134.825C135.915 64.8049 136.576 65.686 136.301 66.7654L135.221 71.0938C134.946 72.1732 133.845 73.0543 132.765 73.0543Z" fill="#EDF4FF"/>
<path d="M149.98 59.1991H145.651C144.561 59.1991 143.9 58.3179 144.176 57.2386L145.255 52.9102C145.53 51.8198 146.621 50.9497 147.711 50.9497H152.039C153.13 50.9497 153.791 51.8308 153.515 52.9102L152.436 57.2386C152.161 58.3179 151.059 59.1991 149.98 59.1991Z" fill="#EDF4FF"/>
<path d="M143.944 83.3743H139.616C138.525 83.3743 137.865 82.4932 138.14 81.4139L139.219 77.0855C139.495 75.9951 140.585 75.125 141.675 75.125H146.004C147.094 75.125 147.755 76.0061 147.48 77.0855L146.4 81.4139C146.136 82.4932 145.035 83.3743 143.944 83.3743Z" fill="#BFD9FF"/>
<path d="M211.966 8.38148C211.944 8.38148 211.922 8.38148 211.9 8.38148C211.833 8.38148 211.767 8.37047 211.701 8.35946V8.37047C211.261 8.33743 210.809 8.32642 210.347 8.32642C197.526 8.32642 184.552 18.6023 181.138 31.3673L180.984 31.9731H180.973C180.962 32.0392 180.951 32.1052 180.929 32.1603L180.83 32.5458H180.841C178.032 45.487 186.325 55.785 199.619 55.2453C211.734 54.7497 223.96 45.0795 227.605 33.0855C231.559 20.0892 224.378 9.24056 211.966 8.38148ZM220.81 32.6559C218.254 41.1806 209.51 48.0643 200.919 48.3286C191.678 48.626 185.907 41.445 187.812 32.4246L188.077 31.3563H188.066C190.522 22.4131 199.63 15.2431 208.628 15.2431C209.091 15.2431 209.554 15.2651 209.994 15.3092C218.585 16.0251 223.53 23.5916 220.81 32.6559Z" fill="#EBEDFC"/>
<path d="M210.71 12.3686C210.314 13.9656 211.051 15.3423 212.505 15.7278C219.51 17.5781 223.255 24.5168 220.81 32.645C218.254 41.1697 209.51 48.0533 200.919 48.3177C192.482 48.582 186.942 42.6456 187.482 34.7487C187.592 33.1186 186.436 31.9511 184.783 31.9511C182.636 31.9511 180.499 33.8896 180.356 35.9932C179.596 47.2493 187.559 55.719 199.641 55.2233C211.756 54.7277 223.982 45.0576 227.627 33.0635C231.141 21.488 225.843 11.6196 215.875 8.97633C213.805 8.45868 211.272 10.1107 210.71 12.3686Z" fill="#A5C5FF"/>
<path d="M270.372 6.01356C270.35 6.01356 270.328 6.01356 270.306 6.01356C270.229 6.01356 270.141 6.00255 270.063 6.00255C269.634 5.98052 269.193 5.9585 268.753 5.9585C255.79 5.9585 242.65 16.4657 239.423 29.44C236.185 42.4032 244.082 52.9214 257.045 52.9214C257.486 52.9214 257.926 52.8994 258.378 52.8774C258.466 52.8774 258.543 52.8663 258.631 52.8663C258.653 52.8663 258.675 52.8663 258.697 52.8663C271.044 52.0293 283.148 41.9847 286.331 29.6602C286.353 29.5941 286.375 29.5281 286.386 29.451C289.47 17.0054 282.366 6.85061 270.372 6.01356ZM259.942 45.9276C259.92 45.9276 259.898 45.9276 259.876 45.9276C259.6 45.9497 259.325 45.9607 259.061 45.9607C258.962 45.9607 258.873 45.9717 258.774 45.9717C249.633 45.9717 244.071 38.5594 246.351 29.4179C248.631 20.2765 257.882 12.8642 267.024 12.8642C267.123 12.8642 267.211 12.8752 267.299 12.8752C267.574 12.8752 267.839 12.8862 268.103 12.9082C268.125 12.9082 268.147 12.9082 268.169 12.9082C276.617 13.503 281.617 20.6619 279.436 29.4069C279.414 29.473 279.403 29.5391 279.381 29.6162C277.134 38.284 268.621 45.3439 259.942 45.9276Z" fill="white"/>
<path d="M278.39 32.5236C275.482 39.165 268.951 44.3965 262.012 45.6741C260.272 45.9935 258.708 47.4033 258.29 49.0884C257.75 51.2692 259.336 52.8992 261.572 52.4917C271.473 50.6964 280.78 43.2291 284.91 33.7572C285.846 31.6205 284.712 29.638 282.531 29.638C280.824 29.627 279.117 30.8605 278.39 32.5236Z" fill="#BFD9FF"/>
<path d="M208.078 88.6391H164.32C164.1 88.6391 163.934 88.4298 163.989 88.2206L165.95 80.6981C165.994 80.555 166.126 80.4448 166.28 80.4448H210.038C210.258 80.4448 210.424 80.6541 210.369 80.8634L208.408 88.3858C208.364 88.529 208.232 88.6391 208.078 88.6391Z" fill="#EDF4FF"/>
<path d="M411.065 123.562C420.175 115.517 422.475 103.237 416.202 96.1334C409.93 89.0295 397.459 89.7918 388.349 97.8361C379.239 105.88 376.939 118.16 383.212 125.264C389.484 132.368 401.955 131.606 411.065 123.562Z" fill="#73A5FF"/>
<path d="M428.42 131.549C427.693 134.49 424.708 136.869 421.779 136.869C418.838 136.869 417.054 134.49 417.792 131.549C418.519 128.608 421.503 126.229 424.433 126.229C427.363 126.229 429.147 128.619 428.42 131.549Z" fill="#73A5FF"/>
<path d="M394.685 120.557C394.079 120.557 393.517 120.326 393.165 119.852L388.143 113.167C387.438 112.231 387.823 110.722 388.98 109.786C390.147 108.85 391.656 108.85 392.361 109.786L396.117 114.786L409.52 104.059C410.688 103.122 412.197 103.122 412.902 104.059C413.607 104.995 413.221 106.504 412.065 107.44L396.546 119.863C395.962 120.315 395.302 120.557 394.685 120.557Z" fill="white"/>
<path d="M523.029 449.474C568.789 449.474 605.886 446.358 605.886 442.513C605.886 438.669 568.789 435.552 523.029 435.552C477.268 435.552 440.172 438.669 440.172 442.513C440.172 446.358 477.268 449.474 523.029 449.474Z" fill="#BFD9FF"/>
<path d="M526.19 72.0964C526.19 72.0964 524.086 76.3147 522.82 85.5884C521.553 94.862 524.923 148.411 524.923 148.411L561.181 144.611L544.737 74.6186L526.19 72.0964Z" fill="#024470"/>
<path d="M504.691 298.309L492.036 360.923L516.707 361.551C516.707 361.551 523.029 305.898 520.507 305.898C517.984 305.898 504.691 298.309 504.691 298.309Z" fill="#45242C"/>
<path d="M562.029 433.449C562.029 433.449 552.755 443.152 548.955 445.256C549.803 446.941 563.295 446.941 568.351 444.408C573.406 441.874 577.206 435.971 577.206 435.971L576.787 442.293H579.32C579.32 442.293 581.854 433.438 581.854 431.334C581.854 429.231 579.32 426.279 579.32 426.279L562.029 433.449Z" fill="#713336"/>
<path d="M558.24 308.64L567.514 422.49L578.472 421.642C578.472 421.642 591.127 338.157 586.061 309.488C580.995 280.819 558.24 308.64 558.24 308.64Z" fill="#FF8D68"/>
<path d="M567.514 422.49C567.514 422.49 564.143 431.345 559.507 435.564C554.87 439.782 566.677 439.782 571.732 435.564C576.787 431.345 577.217 428.812 578.902 427.975C580.587 427.127 578.483 421.653 578.483 421.653L567.514 422.49Z" fill="#FF8D68"/>
<path d="M485.89 431.543C485.89 431.543 475.108 439.539 471.01 440.982C471.561 442.789 484.855 445.057 490.274 443.416C495.692 441.775 500.428 436.599 500.428 436.599L498.942 442.767L501.431 443.196C501.431 443.196 505.418 434.892 505.77 432.821C506.123 430.739 504.129 427.402 504.129 427.402L485.89 431.543Z" fill="#713336"/>
<path d="M503.193 307.88L493.148 421.664L504.096 422.677C504.096 422.677 530.639 342.519 530.485 313.398C530.331 284.289 503.193 307.88 503.193 307.88Z" fill="#FF8D68"/>
<path d="M493.148 421.653C493.148 421.653 488.335 429.814 483.049 433.184C477.762 436.555 489.404 438.548 495.098 435.244C500.792 431.94 501.64 429.517 503.446 428.966C505.252 428.415 504.096 422.666 504.096 422.666L493.148 421.653Z" fill="#FF8D68"/>
<path d="M464.347 126.989L442.551 122.694C442.551 122.694 442.22 125.668 444.203 126.328C446.185 126.989 446.185 126.989 446.185 126.989C446.185 126.989 451.142 138.884 453.455 140.195C455.767 141.516 469.645 147.244 469.645 147.244L473.268 133.256L464.347 126.989Z" fill="#FF7759"/>
<path d="M480.02 144.622C480.02 144.622 479.811 143.147 476.892 137.232C473.654 130.679 472.927 127.981 472.927 127.981C472.927 127.981 462.684 124.016 461.032 122.033C459.38 120.051 458.389 119.72 458.389 119.72C458.389 119.72 456.406 123.355 459.38 125.998C462.354 128.641 464.997 130.624 464.997 130.624C464.997 130.624 464.667 138.223 465.658 141.858C466.649 145.493 469.623 147.255 469.623 147.255L480.02 144.622Z" fill="#FF8D68"/>
<path d="M513.964 156.848C513.964 156.848 499.206 180.461 498.787 178.347C498.369 176.232 479.811 143.774 479.811 143.774L469.634 147.244C469.634 147.244 484.866 194.79 494.569 202.379C494.569 202.379 495.417 203.646 498.369 203.227C501.321 202.808 524.086 179.195 524.086 179.195L513.964 156.848Z" fill="#FF8D68"/>
<path d="M527.776 128.807C527.776 128.807 519.868 131.968 516.079 137.452C512.279 142.937 501.321 167.807 501.321 167.807C501.321 167.807 507.224 178.347 520.716 182.147L539.263 147.993L527.776 128.807Z" fill="#E86D5E"/>
<path d="M517.973 209.769C517.973 209.769 518.601 219.891 518.601 223.68C518.601 223.68 503.424 297.043 502.785 314.125C502.158 331.196 514.801 365.989 514.801 365.989C514.801 365.989 569.199 364.722 586.909 360.934L588.803 324.247C588.803 324.247 591.336 260.367 588.803 242.029C586.27 223.691 575.521 214.197 575.521 214.197L572.36 205.342L517.973 209.769Z" fill="#713336"/>
<path d="M564.452 124.379C564.452 124.379 578.682 131.02 583.109 137.981C587.537 144.942 600.819 182.565 600.819 182.565C600.819 182.565 585.962 187.94 572.987 187.94C572.987 187.94 574.254 199.956 575.521 203.756C576.787 207.555 572.36 209.13 572.36 209.13C572.36 209.13 541.367 217.666 518.282 212.611C518.282 212.611 515.44 211.983 515.44 210.716C515.44 209.45 515.76 206.289 515.76 206.289C515.76 206.289 513.546 184.79 512.918 180.99C512.29 177.19 505.33 166.859 505.957 162.751C506.585 158.643 517.346 139.556 517.346 139.556C517.346 139.556 524.615 131.02 527.787 128.807C530.959 126.593 538.856 126.593 538.856 126.593L564.452 124.379Z" fill="#E86D5E"/>
<path d="M537.49 113.002C537.501 113.497 539.307 124.236 533.36 131.824C527.412 139.589 550.861 139.259 556.313 131.329C561.269 124.225 560.773 123.068 560.773 123.068C560.773 123.068 556.808 110.193 557.965 101.768C557.634 94.1791 537.16 98.8049 537.49 113.002Z" fill="#FF8D68"/>
<path d="M537.336 68.1976C537.336 68.1976 530.496 69.9488 526.63 80.445C522.753 90.9411 525.342 113.244 527.919 115.876C530.496 118.498 538.349 117.495 549.22 113.905C560.707 110.116 564.595 98.1662 566.643 90.2803C570.575 75.2024 557.458 59.6729 537.336 68.1976Z" fill="#FF8D68"/>
<path d="M524.086 80.1146C524.086 80.1146 530.408 95.2916 554.44 96.1397L560.024 122.969C560.024 122.969 570.256 127.882 574.254 130.084C574.254 130.084 578.891 81.3812 567.932 69.5744C556.973 57.7676 537.578 60.7193 529.979 67.4707C522.379 74.2222 524.086 80.1146 524.086 80.1146Z" fill="#024470"/>
<path d="M564.452 124.379L559.077 119.324C559.077 119.324 554.33 132.926 537.578 133.873C537.578 133.873 535.364 130.393 536.631 125.337L533.789 127.551C533.789 127.551 527.776 136.087 528.415 138.62C529.042 141.153 537.06 136.726 537.06 136.726C537.06 136.726 546.543 142.42 550.343 142.739C554.121 143.036 563.824 125.326 564.452 124.379Z" fill="white"/>
<path d="M554.815 95.7432C554.815 95.7432 557.348 91.558 559.881 93.0999C562.414 94.6419 558.262 104.103 554.815 104.323C551.356 104.543 553.207 98.1663 554.815 95.7432Z" fill="#FF7759"/>
<path d="M560.762 151.792L570.465 186.365" stroke="#BB524F" stroke-width="1.1485" stroke-miterlimit="10"/>
<path d="M554.76 153.797C554.76 153.797 556.973 160.438 564.243 164.866" stroke="#BB524F" stroke-width="1.1485" stroke-miterlimit="10"/>
<path d="M565.828 145.57C565.828 145.57 567.095 136.714 577.217 136.087" stroke="#BB524F" stroke-width="1.1485" stroke-miterlimit="10"/>
<path d="M516.178 141.781C516.178 141.781 505.847 158.753 505.957 162.762C506.068 166.771 512.709 178.149 512.709 178.149L520.936 199.648" stroke="#BB524F" stroke-width="1.1485" stroke-miterlimit="10"/>
<path d="M551.907 212.291L562.976 199.647" stroke="#BB524F" stroke-width="1.1485" stroke-miterlimit="10"/>
<path d="M459.149 130.712L446.174 127C446.174 127 447.342 129.875 448.179 130.712C449.027 131.56 458.091 134.721 458.091 134.721" stroke="#E66657" stroke-width="1.026" stroke-miterlimit="10"/>
<path d="M448.19 130.712C448.19 130.712 449.457 134.512 450.084 135.139C450.712 135.767 458.73 138.091 458.73 138.091" stroke="#E66657" stroke-width="1.026" stroke-miterlimit="10"/>
<path d="M461.043 127.54L465.008 130.624L468.004 129.864" stroke="#E66657" stroke-width="1.026" stroke-miterlimit="10"/>
<path d="M538.845 116.581C538.845 116.581 546.852 114.896 551.07 107.308" stroke="#E66657" stroke-width="1.026" stroke-miterlimit="10"/>
<path d="M531.884 98.0342L530.408 106.041L533.151 106.669" stroke="#E66657" stroke-width="1.026" stroke-miterlimit="10"/>
<path d="M531.465 110.26C531.465 110.26 535.474 111.108 539.693 108.784" stroke="#E66657" stroke-width="1.026" stroke-miterlimit="10"/>
<path d="M546.433 102.142C546.433 104.301 544.682 106.041 542.534 106.041C540.376 106.041 538.635 104.29 538.635 102.142C538.635 99.9836 540.387 98.2434 542.534 98.2434C544.682 98.2434 546.433 99.9836 546.433 102.142Z" fill="#FA6157"/>
<path d="M538.845 96.8666C538.845 97.3953 538.415 97.8138 537.897 97.8138C537.38 97.8138 536.95 97.3843 536.95 96.8666C536.95 96.338 537.38 95.9194 537.897 95.9194C538.415 95.9194 538.845 96.349 538.845 96.8666Z" fill="#024470"/>
<path d="M528.613 96.8666C528.613 97.3953 528.183 97.8138 527.666 97.8138C527.148 97.8138 526.718 97.3843 526.718 96.8666C526.718 96.338 527.148 95.9194 527.666 95.9194C528.183 95.9194 528.613 96.349 528.613 96.8666Z" fill="#024470"/>
<path d="M521.872 221.466C521.872 221.466 539.263 226.841 555.707 219.88" stroke="#562525" stroke-width="1.1485" stroke-miterlimit="10"/>
<path d="M527.038 227.689C527.038 227.689 535.893 230.64 550.233 225.156" stroke="#562525" stroke-width="1.1485" stroke-miterlimit="10"/>
<path d="M523.227 223.151L489.815 242.441L515.428 286.802L548.839 267.512L523.227 223.151Z" fill="white"/>
<path d="M554.859 240.333C554.859 240.333 549.583 246.126 548.008 247.392C546.422 248.659 535.673 249.606 535.673 249.606C535.673 249.606 530.926 257.514 529.659 257.195C528.392 256.875 528.712 255.928 528.712 255.928C528.712 255.928 528.393 241.698 529.34 240.112C530.287 238.526 545.783 234.099 545.783 234.099L547.678 231.885L554.859 240.333Z" fill="#FF8D68"/>
<path d="M596.183 184.041C596.601 185.308 599.982 195.22 601.667 200.275C603.353 205.331 565.41 231.896 559.507 236.533L554.87 240.333L547.7 231.896L581.005 198.59L576.159 187.632L596.183 184.041Z" fill="#FF8D68"/>
<path d="M529.67 257.206L531.675 248.351" stroke="#E66657" stroke-width="1.026" stroke-miterlimit="10"/>
<path d="M528.514 249.188L530.827 244.132" stroke="#E66657" stroke-width="1.026" stroke-miterlimit="10"/>
<path d="M529.351 240.123L528.514 257.206H531.256L535.684 249.617" stroke="#E66657" stroke-width="1.026" stroke-miterlimit="10"/>
<path d="M99.6907 449.474C145.451 449.474 182.548 446.357 182.548 442.513C182.548 438.669 145.451 435.552 99.6907 435.552C53.9301 435.552 16.8338 438.669 16.8338 442.513C16.8338 446.357 53.9301 449.474 99.6907 449.474Z" fill="#BFD9FF"/>
<path d="M66.3409 420.133C66.3409 420.133 68.1031 416.366 74.6233 417.369C81.1545 418.371 81.9034 419.626 82.6634 422.898C83.4123 426.158 85.6812 429.682 87.1791 430.431C88.6879 431.18 94.2059 434.947 98.7326 435.707C103.248 436.456 103.755 439.22 102.753 440.476C101.75 441.731 84.6679 442.733 80.9012 442.238C80.9012 442.238 68.0921 441.984 65.0853 440.982C62.0676 439.969 66.0876 421.389 66.3409 420.133Z" fill="#2D2737"/>
<path d="M59.0828 331.868C59.0828 331.868 57.1774 321.471 68.1582 317.98C79.139 314.489 81.2206 319.566 84.5468 329.049C87.8729 338.532 81.6942 419.56 81.6942 419.56C81.6942 419.56 69.0503 421.719 65.8013 419.803C65.8013 419.803 56.1641 367.058 56.836 352.585C57.5078 338.102 59.0828 331.868 59.0828 331.868Z" fill="#3D4776"/>
<path d="M64.4576 416.62C64.4576 416.62 78.7755 415.364 83.2912 414.615L83.0379 421.146C83.0379 421.146 71.7377 423.151 64.7109 422.149L64.4576 416.62Z" fill="#51598D"/>
<path d="M60.9442 128.851C60.9442 128.851 51.9018 129.357 46.3839 149.942C40.855 170.538 37.3415 195.638 39.3571 202.17C41.3616 208.701 62.9597 226.279 70.9998 226.279C79.0398 226.279 79.5355 220.254 78.0266 215.232C76.5177 210.21 60.9552 196.652 60.9552 196.652C60.9552 196.652 73.5109 156.473 73.0043 145.933C72.4866 135.382 66.4621 128.851 60.9442 128.851Z" fill="#7E78C7"/>
<path d="M174.133 122.705L172.635 122.859L175.994 116.207C175.994 116.207 184.541 115.667 185.907 119.28L181.986 127.97L174.133 122.705Z" fill="#FF8D68"/>
<path d="M178.935 103.805C178.935 103.805 178.605 97.0099 181.017 96.0407C183.44 95.0714 186.149 96.9548 186.149 96.9548C186.149 96.9548 190.059 96.5583 191.315 98.2214C192.559 99.8955 192.46 102.418 192.46 102.418C192.46 102.418 194.663 102.913 195.247 105.006C195.819 107.11 194.795 111.163 194.795 111.163C194.795 111.163 192.24 114.302 189.277 113.52C186.314 112.76 178.935 103.805 178.935 103.805Z" fill="#FF7759"/>
<path d="M174.464 109.29C174.464 109.29 173.56 100.391 174.519 99.2126C175.477 98.0341 185.279 84.4761 185.279 84.4761C185.279 84.4761 187.317 86.789 186.138 89.4213C184.971 92.0536 180.356 100.061 180.356 100.061L180.334 106.9C180.323 106.9 177.305 109.004 174.464 109.29Z" fill="#FF7759"/>
<path d="M175.179 116.416C175.179 116.416 172.834 102.131 174.431 100.16C176.028 98.1993 183.869 99.3447 185.356 99.9064C186.854 100.468 190.995 105.81 191.568 107.902C192.141 110.006 188.242 117.595 185.896 119.269C183.561 120.954 176.545 119.148 175.179 116.416Z" fill="#FF8D68"/>
<path d="M169.673 125.833L172.69 120.304C172.69 120.304 179.717 119.048 183.242 124.577C184.244 126.582 183.748 126.582 183.748 126.582L181.49 131.097L169.673 125.833Z" fill="#DEE0E8"/>
<path d="M98.1268 65.3781C98.1268 65.3781 105.561 67.2835 109.768 78.6828C113.976 90.0931 111.167 114.335 108.37 117.187C105.561 120.04 97.0364 118.949 85.2186 115.05C72.7289 110.931 68.5106 97.946 66.2748 89.3883C62.0125 72.9887 76.2644 56.1155 98.1268 65.3781Z" fill="#FF8D68"/>
<path d="M71.4844 128.344L77.5089 106.746C77.5089 106.746 89.558 103.233 97.0915 111.262L99.6026 114.775V128.84C99.6137 128.851 87.0579 131.362 71.4844 128.344Z" fill="#FF8D68"/>
<path d="M54.6663 244.606C54.6663 244.606 50.1506 270.973 54.6663 301.107C59.182 331.241 68.2243 334.258 76.5177 334.258C84.8001 334.258 87.0689 310.149 88.5668 299.609C90.0757 289.058 96.1003 252.899 84.8001 244.617C73.4999 236.324 60.6908 235.575 54.6663 244.606Z" fill="#3D4776"/>
<path d="M86.2979 280.015C86.2979 280.015 77.2556 255.906 93.0825 245.366C108.898 234.815 120.958 236.323 124.725 253.648C128.492 270.973 129.241 330.492 123.976 342.541C118.69 354.601 99.856 335.767 86.2979 280.015Z" fill="#3D4776"/>
<path d="M112.632 66.4134C112.632 66.4134 116.2 71.0502 114.053 76.3919C111.916 81.7446 104.074 83.8813 104.074 83.8813C104.074 83.8813 106.574 87.4498 104.074 92.439L102.29 95.2916C102.29 95.2916 104.79 100.997 104.074 102.418C103.358 103.838 100.869 103.486 100.869 103.486C100.869 103.486 98.0167 95.6441 96.9483 96.36C95.88 97.0759 93.0274 100.633 93.0274 103.849C93.0274 107.054 94.0957 109.555 93.3798 111.691C92.6639 113.828 81.6171 113.828 76.9803 113.112C72.3435 112.396 65.2175 98.1442 63.4333 91.7231C63.4333 91.7231 60.9331 82.813 64.5016 75.3236C64.5016 75.3236 63.7857 68.9025 69.8543 62.4925C75.9119 56.0714 95.1641 58.2191 98.3691 60.7082C98.3691 60.7082 98.0167 57.1398 101.574 57.8557C105.143 58.5716 110.495 61.7766 112.632 66.4134Z" fill="#C53A45"/>
<path d="M101.938 98.849C101.938 98.849 100.869 94.2122 96.9483 96.3488C93.0274 98.4855 97.6642 109.543 100.869 108.827C104.074 108.123 102.642 100.633 101.938 98.849Z" fill="#FF7759"/>
<path d="M68.3014 128.234C68.3014 128.234 69.9865 122.32 71.4954 121.824C73.0043 121.317 91.5846 119.313 101.629 125.337C106.145 128.851 105.649 131.362 105.649 131.362C105.649 131.362 75.6586 125.613 68.3014 128.234Z" fill="#DEE0E8"/>
<path d="M64.4576 126.846C64.4576 126.846 95.5936 124.842 117.687 134.38C127.732 139.402 150.707 162.123 150.707 162.123L168.791 124.456C168.791 124.456 178.957 120.811 182.977 130.359C182.977 130.359 171.556 174.8 162.007 188.865C155.982 193.887 127.225 177.565 127.225 177.565C127.225 177.565 131.741 235.817 130.243 261.942C128.239 266.964 89.0624 269.475 82.0356 268.968C75.0088 268.462 50.3929 260.433 49.8973 258.924C49.3907 257.415 53.4107 197.147 52.4085 190.12C51.4062 183.094 48.3884 148.433 49.3907 143.411C50.3929 138.389 54.9086 128.851 64.4576 126.846Z" fill="#7E78C7"/>
<path d="M97.5981 421.642C97.5981 421.642 99.3603 417.875 105.881 418.877C112.412 419.88 113.161 421.135 113.921 424.406C114.67 427.666 116.938 431.191 118.436 431.94C119.945 432.689 125.463 436.455 129.99 437.215C134.505 437.964 135.012 440.729 134.01 441.984C133.008 443.24 115.925 444.242 112.158 443.747C112.158 443.747 99.3493 443.493 96.3425 442.491C93.3358 441.478 97.3448 422.897 97.5981 421.642Z" fill="#3E3343"/>
<path d="M100.616 333.498C100.616 333.498 99.8669 322.947 111.167 320.689C122.467 318.431 123.976 323.707 126.234 333.498C128.492 343.29 113.425 423.14 113.425 423.14C113.425 423.14 100.616 423.889 97.6091 421.631C97.6091 421.631 93.8424 368.148 96.1002 353.83C98.3581 339.534 100.616 333.498 100.616 333.498Z" fill="#3D4776"/>
<path d="M96.5959 422.897C96.5959 422.897 106.387 425.662 114.681 424.153L115.429 418.382L96.3425 417.126L96.5959 422.897Z" fill="#51598D"/>
<path d="M83.2912 274.365C83.2912 274.365 93.8424 308.266 101.75 324.842" stroke="#2A2E59" stroke-width="1.026" stroke-miterlimit="10"/>
<path d="M104.757 331.615C104.757 331.615 111.156 327.848 117.566 331.615" stroke="#2A2E59" stroke-width="1.026" stroke-miterlimit="10"/>
<path d="M103.623 335.767C103.623 335.767 108.898 332.75 117.941 339.16" stroke="#2A2E59" stroke-width="1.026" stroke-miterlimit="10"/>
<path d="M64.0831 327.099C64.0831 327.099 68.2243 323.333 77.6411 327.474" stroke="#2A2E59" stroke-width="1.026" stroke-miterlimit="10"/>
<path d="M67.0899 330.866C67.0899 330.866 73.1144 327.848 78.7645 332.375" stroke="#2A2E59" stroke-width="1.026" stroke-miterlimit="10"/>
<path d="M81.0223 336.891L78.7645 413.734" stroke="#2A2E59" stroke-width="1.026" stroke-miterlimit="10"/>
<path d="M112.169 272.482C112.169 272.482 120.705 277.504 124.219 269.464" stroke="#2A2E59" stroke-width="1.026" stroke-miterlimit="10"/>
<path d="M120.705 273.484C120.705 273.484 124.725 304.62 123.723 325.216" stroke="#2A2E59" stroke-width="1.026" stroke-miterlimit="10"/>
<path d="M49.3907 156.473L53.4107 199.659" stroke="#524B81" stroke-width="1.026" stroke-miterlimit="10"/>
<path d="M118.315 171.54C118.315 171.54 148.074 193.006 162.007 188.865" stroke="#524B81" stroke-width="1.026" stroke-miterlimit="10"/>
<path d="M153.725 166.265C153.725 166.265 159.749 169.657 159.375 177.565" stroke="#524B81" stroke-width="1.026" stroke-miterlimit="10"/>
<path d="M152.216 163.258C152.216 163.258 158.615 161.374 162.381 167.773" stroke="#524B81" stroke-width="1.026" stroke-miterlimit="10"/>
<path d="M117.192 137.265C117.192 137.265 101.376 145.548 111.916 164.767" stroke="#524B81" stroke-width="1.026" stroke-miterlimit="10"/>
<path d="M94.7786 112.22C94.7786 112.22 97.4109 119.004 106.266 117.87" stroke="#E66657" stroke-width="1.026" stroke-miterlimit="10"/>
<path d="M180.026 98.2764L182.977 95.644C182.977 95.644 185.048 95.633 186.149 96.9547" stroke="#E66657" stroke-width="1.026" stroke-miterlimit="10"/>
<path d="M183.539 98.717C183.539 98.5298 187.746 96.272 187.746 96.272C187.746 96.272 191.579 97.2081 192.141 99.2237C192.702 101.228 192.262 102.297 192.262 102.297" stroke="#E66657" stroke-width="1.026" stroke-miterlimit="10"/>
<path d="M188.506 102.363C188.693 102.296 193.837 102.616 193.837 102.616C193.837 102.616 195.72 103.871 195.654 106.316C195.588 108.762 194.784 111.185 194.784 111.185C194.784 111.185 192.956 113.795 189.817 113.729" stroke="#E66657" stroke-width="1.026" stroke-miterlimit="10"/>
<path d="M191.447 107.627C191.447 107.627 192.075 108.629 191.26 110.446C190.445 112.264 189.453 117.033 185.896 119.269" stroke="#E66657" stroke-width="1.026" stroke-miterlimit="10"/>
<path d="M84.6018 74.9269C77.2556 71.3474 67.8388 75.6759 67.8388 75.6759C67.8388 75.6759 68.9732 70.7747 74.2378 69.0896" stroke="#A03A45" stroke-width="1.368" stroke-miterlimit="10"/>
<path d="M68.2243 78.6937C68.2243 78.6937 70.1076 78.5064 72.5527 82.2732" stroke="#A03A45" stroke-width="1.368" stroke-miterlimit="10"/>
<path d="M100.616 61.8096C100.616 61.8096 109.912 63.3185 110.154 72.6031" stroke="#A03A45" stroke-width="1.368" stroke-miterlimit="10"/>
</svg>
