<svg width="511" height="424" viewBox="0 0 511 424" fill="none" xmlns="http://www.w3.org/2000/svg">
<path d="M62.3453 128.892L29.3774 155.868C28.0552 156.95 27.9281 158.979 29.0914 160.4L67.6396 207.51C68.803 208.933 70.8173 209.208 72.1378 208.128L105.106 181.151C106.426 180.071 106.557 178.041 105.392 176.618L66.8435 129.508C65.6819 128.085 63.6676 127.81 62.3453 128.892Z" fill="#75B3B5"/>
<path d="M105.107 181.151L72.1387 208.128C70.8165 209.21 68.804 208.933 67.6406 207.51L29.0924 160.4C27.929 158.977 28.0562 156.948 29.3784 155.868L62.3463 128.892C63.6668 127.811 65.6828 128.085 66.8462 129.508L105.394 176.618C106.558 178.041 106.429 180.071 105.107 181.151Z" fill="#071D2E"/>
<path d="M65.6962 131.872L31.832 159.584L65.0757 200.208L98.9398 172.496L65.6962 131.872Z" fill="white"/>
<path d="M88.0599 188.465C89.2339 189.9 89.022 192.015 87.5886 193.189C86.1551 194.363 84.0402 194.151 82.8663 192.716C81.6923 191.281 81.9042 189.166 83.3376 187.992C84.7711 186.818 86.886 187.03 88.0599 188.465Z" fill="url(#paint0_radial_158_6915)"/>
<path d="M86.5691 189.685C87.0687 190.296 86.9786 191.196 86.3678 191.696C85.757 192.195 84.8567 192.105 84.3571 191.495C83.8575 190.884 83.9475 189.983 84.5584 189.484C85.1692 188.986 86.0695 189.076 86.5691 189.685Z" fill="#FF7878"/>
<path d="M65.6952 131.872L31.8311 159.584L33.8636 162.067L67.7277 134.356L65.6952 131.872Z" fill="#3B5998"/>
<path d="M34.7778 158.085L33.4854 159.143L34.6235 160.533L35.9159 159.476L34.7778 158.085Z" fill="#C9C9C9"/>
<path d="M38.6064 156.114L35.8057 158.406L36.0539 158.709L38.8546 156.417L38.6064 156.114Z" fill="white"/>
<path d="M39.8874 155.453C39.6173 155.116 39.0418 154.659 39.409 154.3C39.6455 154.408 39.8291 154.493 39.9951 154.731C39.8786 154.427 39.9227 154.249 40.2846 154.38C41.771 153.665 40.3005 156.924 39.8291 155.499L39.8874 155.453Z" fill="#7290CF"/>
<path d="M53.0957 143.437L41.6318 152.818L42.4111 153.77L53.8749 144.389L53.0957 143.437Z" fill="white"/>
<path d="M53.0945 143.439L51.9414 144.382L52.7206 145.335L53.8737 144.391L53.0945 143.439Z" fill="#A8C4FF"/>
<path d="M58.2318 139.841L54.957 142.521L55.1661 142.776L58.4409 140.096L58.2318 139.841Z" fill="white"/>
<path d="M61.0486 137.534L59.1113 139.12L59.3204 139.375L61.2577 137.79L61.0486 137.534Z" fill="white"/>
<path d="M64.291 134.883L61.8838 136.853L62.0929 137.108L64.5001 135.138L64.291 134.883Z" fill="white"/>
<path d="M65.9474 133.529L65.3477 134.02L65.5567 134.275L66.1565 133.784L65.9474 133.529Z" fill="white"/>
<path d="M52.4349 153.413L39.3672 164.107L52.8346 180.564L65.9023 169.87L52.4349 153.413Z" fill="#86CCCC"/>
<path d="M68.5153 140.494L55.0049 151.55L55.745 152.455L69.2554 141.399L68.5153 140.494Z" fill="#BECCCC"/>
<path d="M66.3344 137.953L37.3135 161.702L38.3756 163L67.3965 139.251L66.3344 137.953Z" fill="#BECCCC"/>
<path d="M60.1123 151.098L56.832 153.783L57.4514 154.539L60.7317 151.855L60.1123 151.098Z" fill="#BECCCC"/>
<path d="M62.7713 151.158L57.9268 155.122L58.5461 155.879L63.3907 151.915L62.7713 151.158Z" fill="#BECCCC"/>
<path d="M61.6787 150.459L70.1153 143.556" stroke="#E5E5E5" stroke-width="2.3526"/>
<path d="M63.707 150.662L69.1373 146.219" stroke="#E5E5E5" stroke-width="1.8874"/>
<path d="M62.5771 154.113L59.2969 156.798L59.9162 157.555L63.1965 154.87L62.5771 154.113Z" fill="#BECCCC"/>
<path d="M65.2371 154.171L60.3926 158.136L61.0119 158.893L65.8565 154.928L65.2371 154.171Z" fill="#BECCCC"/>
<path d="M64.9512 157.014L61.6709 159.699L62.2903 160.456L65.5705 157.771L64.9512 157.014Z" fill="#BECCCC"/>
<path d="M67.6122 157.072L62.7676 161.037L63.387 161.794L68.2315 157.829L67.6122 157.072Z" fill="#BECCCC"/>
<path d="M66.5195 156.375L74.9562 149.472" stroke="#E5E5E5" stroke-width="2.3526"/>
<path d="M64.7949 163.376L78.2293 152.383" stroke="#E5E5E5" stroke-width="2.969"/>
<path d="M65.708 164.492L79.1423 153.499" stroke="#E5E5E5" stroke-width="2.969"/>
<path d="M66.6201 165.607L80.0544 154.615" stroke="#E5E5E5" stroke-width="2.969"/>
<path d="M67.5342 166.725L76.2162 159.621" stroke="#E5E5E5" stroke-width="2.3868"/>
<path d="M68.5479 156.578L73.9781 152.134" stroke="#E5E5E5" stroke-width="1.8874"/>
<path d="M64.1436 153.472L68.6046 149.822" stroke="#E5E5E5" stroke-width="1.7107"/>
<path d="M66.1738 153.675L73.4947 147.686" stroke="#E5E5E5" stroke-width="2.1915"/>
<path d="M62.2088 175.802L54.3203 182.257L59.9304 189.113L67.8189 182.657L62.2088 175.802Z" fill="#BB5048"/>
<path d="M72.7488 167.176L64.8604 173.632L70.4705 180.487L78.3589 174.032L72.7488 167.176Z" fill="#3B4C5E"/>
<path d="M83.2889 158.551L75.4004 165.006L81.0105 171.862L88.899 165.406L83.2889 158.551Z" fill="#EB5A49"/>
<path d="M92.7988 173.105C93.3567 173.786 93.1961 174.842 92.4387 175.46L69.6392 194.116C68.8819 194.736 67.8174 194.685 67.2595 194.003L64.3255 190.418C63.7677 189.736 63.9283 188.681 64.6856 188.063L87.4851 169.406C88.2425 168.787 89.307 168.838 89.8648 169.519L92.7988 173.105Z" fill="#FF7878"/>
<path d="M72.1455 183.736C72.262 183.605 72.3927 183.469 72.5374 183.326C72.6839 183.183 72.8605 183.026 73.0706 182.855C73.27 182.693 73.4695 182.557 73.6708 182.447C73.8703 182.339 74.068 182.271 74.2622 182.244C74.4564 182.218 74.6435 182.239 74.8271 182.308C75.0089 182.377 75.1819 182.512 75.3461 182.712C75.4803 182.876 75.5668 183.056 75.6021 183.25C75.6392 183.445 75.6303 183.625 75.5791 183.791C75.685 183.757 75.7962 183.734 75.9128 183.723C76.0293 183.713 76.1476 183.722 76.2658 183.75C76.3859 183.778 76.5059 183.829 76.626 183.907C76.746 183.983 76.8625 184.089 76.9737 184.227C77.1626 184.458 77.2774 184.682 77.3162 184.901C77.3551 185.12 77.3374 185.333 77.2615 185.54C77.1856 185.748 77.062 185.951 76.8872 186.153C76.7125 186.354 76.5077 186.552 76.2694 186.746C76.0805 186.901 75.9057 187.032 75.7433 187.141C75.5809 187.251 75.4043 187.365 75.2119 187.487L72.1455 183.736ZM74.3716 184.304C74.5217 184.181 74.6135 184.055 74.6488 183.925C74.6823 183.794 74.6382 183.655 74.5146 183.505C74.4546 183.43 74.3893 183.383 74.3204 183.358C74.2498 183.333 74.181 183.326 74.1139 183.335C74.045 183.344 73.9797 183.367 73.9144 183.402C73.8491 183.437 73.7908 183.476 73.7396 183.519C73.7184 183.536 73.6937 183.556 73.6637 183.58C73.6337 183.605 73.6108 183.628 73.5913 183.648L74.2269 184.424L74.3716 184.304ZM75.5544 186.05C75.5809 186.034 75.6144 186.011 75.6533 185.983C75.6921 185.955 75.7398 185.916 75.7998 185.868C75.8669 185.814 75.9269 185.752 75.9851 185.681C76.0416 185.612 76.084 185.536 76.114 185.459C76.1423 185.379 76.1493 185.298 76.137 185.213C76.1228 185.129 76.0805 185.042 76.0081 184.956C75.8704 184.788 75.7204 184.717 75.5579 184.742C75.3955 184.767 75.2261 184.852 75.0513 184.995L74.8359 185.171L75.5544 186.05Z" fill="white"/>
<path d="M75.2559 181.19C75.3459 181.093 75.4253 181.012 75.4942 180.947C75.563 180.881 75.6319 180.821 75.6972 180.767C75.7572 180.717 75.8243 180.668 75.9002 180.613C75.9761 180.56 76.0715 180.498 76.1827 180.429L77.8474 182.465C77.9904 182.64 78.1193 182.783 78.234 182.894C78.3488 183.005 78.4547 183.084 78.5553 183.13C78.6559 183.178 78.7513 183.19 78.8448 183.169C78.9384 183.148 79.039 183.093 79.1485 183.005C79.2562 182.917 79.3321 182.827 79.3727 182.738C79.4133 182.65 79.4203 182.551 79.3939 182.444C79.3674 182.336 79.3109 182.218 79.2226 182.085C79.1343 181.953 79.0196 181.799 78.8766 181.624L77.2119 179.589C77.3054 179.488 77.3849 179.407 77.4537 179.344C77.5208 179.28 77.5844 179.224 77.6444 179.174C77.7079 179.123 77.7768 179.07 77.8562 179.015C77.9339 178.961 78.0292 178.899 78.1422 178.83L79.897 180.975C80.1088 181.234 80.2765 181.485 80.4019 181.727C80.5272 181.969 80.5943 182.207 80.6049 182.44C80.6155 182.673 80.559 182.906 80.4336 183.136C80.3101 183.365 80.1053 183.596 79.8228 183.828C79.5404 184.059 79.2738 184.214 79.0231 184.29C78.7725 184.366 78.5341 184.377 78.3082 184.32C78.0804 184.264 77.8615 184.151 77.6479 183.979C77.4361 183.808 77.2225 183.595 77.0106 183.335L75.2559 181.19Z" fill="white"/>
<path d="M81.569 180.043C81.3237 179.928 81.0677 179.81 80.8011 179.686C80.5346 179.563 80.2662 179.441 79.9996 179.317C79.7331 179.194 79.4665 179.07 79.2017 178.946C78.9369 178.823 78.6809 178.703 78.4355 178.588C78.4867 178.528 78.5591 178.454 78.6527 178.362C78.7462 178.27 78.8398 178.187 78.9299 178.113C79.004 178.053 79.0887 177.991 79.1841 177.926C79.2811 177.863 79.3659 177.808 79.4418 177.764L81.2795 178.694L80.7058 176.729C80.7746 176.65 80.8505 176.57 80.9318 176.491C81.013 176.413 81.0995 176.335 81.1913 176.261C81.2513 176.214 81.3307 176.154 81.4331 176.085C81.5355 176.016 81.6238 175.959 81.6979 175.915L82.4976 179.28L83.5921 180.618C83.4315 180.802 83.292 180.943 83.1685 181.044C83.0396 181.15 82.8701 181.261 82.6636 181.379L81.569 180.043Z" fill="white"/>
<path d="M222.522 0.0228271H67.7852V102.065H222.522V0.0228271Z" fill="#669C9E"/>
<path d="M222.522 0.0228271H67.7852V102.065H222.522V0.0228271Z" fill="#071D2E"/>
<path d="M215.835 7.26607H74.4707V89.8316H215.835V7.26607Z" fill="#363D42"/>
<path d="M212.132 9.42862H78.1699V87.6725H212.132V9.42862Z" fill="white"/>
<path d="M146.432 95.3589C146.432 96.6705 145.37 97.7333 144.058 97.7333C142.746 97.7333 141.684 96.6705 141.684 95.3589C141.684 94.0472 142.746 92.9845 144.058 92.9845C145.37 92.9845 146.432 94.049 146.432 95.3589Z" fill="black" stroke="white" stroke-width="1.7318"/>
<path d="M81.668 14.5305V83.9529" stroke="#858585" stroke-width="1.8853"/>
<path d="M81.668 83.9529H208.546" stroke="#858585" stroke-width="1.8853"/>
<path d="M81.668 21.0958H208.546" stroke="#858585" stroke-width="0.9427"/>
<path d="M81.7139 30.0797H208.591" stroke="#858585" stroke-width="0.9427"/>
<path d="M81.7598 39.0635H208.639" stroke="#858585" stroke-width="0.9427"/>
<path d="M81.8057 48.0475H208.685" stroke="#858585" stroke-width="0.9427"/>
<path d="M81.8525 57.0295H208.732" stroke="#858585" stroke-width="0.9427"/>
<path d="M81.8994 66.0134H208.779" stroke="#858585" stroke-width="0.9427"/>
<path d="M81.9453 74.9973H208.825" stroke="#858585" stroke-width="0.9427"/>
<path d="M98.2673 66.4283H87.5322V83.9529H98.2673V66.4283Z" fill="#FBAB20"/>
<path d="M109.003 60.5797H98.2676V83.9529H109.003V60.5797Z" fill="#EB5A49"/>
<path d="M129.598 52.7803H118.863V83.9529H129.598V52.7803Z" fill="#FBAB20"/>
<path d="M140.334 59.0191H129.599V83.9529H140.334V59.0191Z" fill="#EB5A49"/>
<path d="M161.189 39.0636H150.454V83.9529H161.189V39.0636Z" fill="#FBAB20"/>
<path d="M171.925 30.0797H161.189V83.9529H171.925V30.0797Z" fill="#EB5A49"/>
<path d="M192.154 39.0777H181.419V83.9671H192.154V39.0777Z" fill="#FBAB20"/>
<path d="M202.886 17.604H192.151V83.967H202.886V17.604Z" fill="#EB5A49"/>
<path d="M45.4751 233.235L35.1407 237.007L34.6905 235.773C34.2086 234.453 32.7487 233.773 31.4282 234.255L24.0578 236.945C24.2238 236.428 24.2273 235.854 24.0278 235.305C23.5476 233.992 22.0965 233.316 20.7831 233.796C19.4697 234.276 18.7935 235.729 19.2737 237.041C19.475 237.59 19.8475 238.027 20.3082 238.315L13.0756 240.954C11.7551 241.436 11.0754 242.898 11.5574 244.217L12.0075 245.451L1.67318 249.223C0.352698 249.705 -0.326969 251.167 0.154972 252.487L22.529 313.775C23.011 315.096 24.4727 315.775 25.7932 315.293L69.5951 299.303C70.9156 298.821 71.5952 297.359 71.1133 296.039L48.7392 234.751C48.2573 233.432 46.7956 232.753 45.4751 233.235Z" fill="#81C5C7"/>
<path d="M69.5933 299.305L25.7914 315.295C24.4709 315.777 23.0092 315.098 22.5273 313.777L0.154972 252.489C-0.326969 251.169 0.352698 249.707 1.67318 249.225L45.4751 233.235C46.7956 232.753 48.2573 233.432 48.7392 234.753L71.1133 296.041C71.5934 297.361 70.9138 298.823 69.5933 299.305Z" fill="#F2B8A2"/>
<path d="M13.3295 249.077L11.5554 244.219C11.0734 242.898 11.7531 241.438 13.0736 240.956L31.4279 234.257C32.7484 233.775 34.2083 234.454 34.6903 235.775L36.4645 240.633L13.3295 249.077Z" fill="white" stroke="#D15041" stroke-width="3.5163"/>
<path d="M66.7089 297.386L26.7625 311.969C25.442 312.451 23.9821 311.772 23.4984 310.451L3.03974 254.406C2.5578 253.086 3.23745 251.624 4.55794 251.142L44.5043 236.559C45.8248 236.077 47.2847 236.756 47.7667 238.077L68.2253 294.122C68.709 295.444 68.0294 296.904 66.7089 297.386Z" fill="white"/>
<path opacity="0.23" d="M64.2657 295.569L27.4599 309.005C26.2436 309.45 24.8967 308.823 24.4535 307.607L5.60312 255.969C5.15825 254.752 5.78496 253.405 7.00129 252.962L43.8071 239.526C45.0234 239.081 46.3704 239.708 46.8135 240.924L65.6639 292.563C66.1105 293.779 65.4838 295.124 64.2657 295.569Z" stroke="#12365A" stroke-width="2.1098"/>
<path d="M24.0276 235.305C24.5078 236.619 23.8316 238.072 22.5182 238.552C21.2048 239.032 19.7519 238.356 19.2717 237.042C18.7916 235.729 19.4677 234.276 20.7811 233.798C22.0945 233.318 23.5474 233.994 24.0276 235.305Z" fill="white" stroke="#D15041" stroke-width="3.555"/>
<path d="M41.0325 244.259L11.9961 254.858L12.7982 257.055L41.8346 246.457L41.0325 244.259Z" fill="#BECCCC"/>
<path d="M12.9873 263.055L37.2785 254.188" stroke="#BECCCC" stroke-width="1.4065"/>
<path d="M13.4238 264.25L29.7145 258.303" stroke="#BECCCC" stroke-width="1.1518"/>
<path d="M45.7464 249.756L42.2373 251.037L43.5182 254.546L47.0273 253.266L45.7464 249.756Z" stroke="#BECCCC" stroke-width="1.4065"/>
<path d="M15.3447 269.509L39.636 260.642" stroke="#BECCCC" stroke-width="1.4065"/>
<path d="M15.7803 270.704L32.7841 264.497" stroke="#BECCCC" stroke-width="1.1768"/>
<path d="M16.3027 272.139L37.8171 264.285" stroke="#BECCCC" stroke-width="1.3237"/>
<path d="M48.3646 256.929L44.8555 258.21L46.1364 261.719L49.6455 260.438L48.3646 256.929Z" stroke="#BECCCC" stroke-width="1.4065"/>
<path d="M18.2236 277.398L42.5149 268.531" stroke="#BECCCC" stroke-width="1.4065"/>
<path d="M22.5391 289.221L51.3231 278.714" stroke="#BECCCC" stroke-width="2.0397"/>
<path d="M22.9541 290.358L51.7381 279.85" stroke="#BECCCC" stroke-width="2.0397"/>
<path d="M23.3691 291.496L52.1532 280.989" stroke="#BECCCC" stroke-width="2.0397"/>
<path d="M23.7842 292.633L52.5682 282.126" stroke="#BECCCC" stroke-width="2.0397"/>
<path d="M24.252 293.915L33.6383 290.488" stroke="#BECCCC" stroke-width="1.1648"/>
<path d="M50.5462 262.905L47.0371 264.186L48.318 267.695L51.8271 266.415L50.5462 262.905Z" stroke="#BECCCC" stroke-width="1.4065"/>
<path d="M20.3174 283.136L44.6086 274.268" stroke="#BECCCC" stroke-width="1.4065"/>
<path d="M25.6992 297.876L49.9904 289.009" stroke="#BECCCC" stroke-width="1.4065"/>
<path d="M52.6429 268.641L49.1338 269.922L50.4147 273.431L53.9238 272.15L52.6429 268.641Z" stroke="#BECCCC" stroke-width="1.4065"/>
<path d="M57.7678 280.764L48.9834 283.971L49.4059 285.128L58.1903 281.922L57.7678 280.764Z" fill="#BECCCC"/>
<path d="M28.416 305.323L49.9303 297.469" stroke="#BECCCC" stroke-width="1.3237"/>
<path d="M61.2111 292.189L52.4268 295.395L52.8493 296.553L61.6337 293.346L61.2111 292.189Z" fill="#BECCCC"/>
<path d="M45.4167 254.101C44.9083 254.286 44.1951 253.88 43.2506 253.287C43.007 253.135 42.7563 252.978 42.6504 252.936L42.924 252.223C43.0988 252.29 43.3442 252.443 43.6566 252.639C44.0079 252.86 44.8006 253.356 45.1042 253.383C45.2048 253.1 45.2101 252.194 45.2154 251.582C45.2243 250.117 45.2578 249.119 45.625 248.618L46.2411 249.068C45.994 249.407 45.9851 250.666 45.9798 251.585C45.971 253.13 45.9445 253.882 45.4467 254.089C45.4361 254.094 45.4255 254.097 45.4167 254.101Z" fill="#5BC42A"/>
<path d="M48.0337 261.274C47.5253 261.459 46.8121 261.053 45.8658 260.46C45.6222 260.308 45.3715 260.151 45.2656 260.109L45.5393 259.395C45.714 259.462 45.9594 259.616 46.2701 259.812C46.6214 260.033 47.414 260.529 47.7177 260.555C47.8183 260.273 47.8236 259.367 47.8289 258.754C47.8377 257.289 47.8713 256.292 48.2385 255.79L48.8546 256.241C48.6074 256.58 48.5986 257.838 48.5933 258.758C48.5845 260.303 48.558 261.055 48.0619 261.261C48.0531 261.265 48.0443 261.27 48.0337 261.274Z" fill="#5BC42A"/>
<path d="M50.1296 267.009C49.6212 267.195 48.9097 266.789 47.9635 266.197C47.7199 266.045 47.4692 265.886 47.3633 265.846L47.6369 265.133C47.8117 265.2 48.0588 265.353 48.3695 265.549C48.7208 265.77 49.5117 266.266 49.8171 266.291C49.9177 266.008 49.923 265.103 49.9283 264.49C49.9372 263.025 49.9707 262.027 50.3379 261.526L50.954 261.976C50.7069 262.315 50.698 263.574 50.6927 264.494C50.6839 266.038 50.6574 266.79 50.1596 266.997C50.149 267.002 50.1402 267.006 50.1296 267.009Z" fill="#5BC42A"/>
<path d="M52.2233 272.748C51.7149 272.934 51.0017 272.528 50.0572 271.936C49.8136 271.785 49.563 271.626 49.457 271.585L49.7307 270.872C49.9054 270.939 50.1526 271.094 50.4633 271.288C50.8146 271.509 51.6055 272.005 51.9109 272.032C52.0115 271.749 52.0168 270.844 52.0221 270.231C52.0309 268.766 52.0645 267.768 52.4316 267.267L53.0477 267.717C52.8006 268.056 52.7918 269.315 52.7865 270.235C52.7777 271.779 52.7512 272.531 52.2551 272.738C52.2428 272.74 52.2322 272.745 52.2233 272.748Z" fill="#5BC42A"/>
<path d="M423.106 126.247L422.118 127.343L421.599 126.969C420.843 126.424 419.787 126.595 419.24 127.351L407.757 143.263L394.619 157.829C393.994 158.521 394.049 159.589 394.742 160.214L395.217 160.642L394.352 161.838C393.807 162.594 393.978 163.65 394.734 164.195L416.862 180.165L437.129 198.443C437.821 199.068 438.889 199.013 439.514 198.319L440.502 197.223L441.021 197.597C441.777 198.143 442.832 197.972 443.378 197.216L454.861 181.303L468.001 166.737C468.626 166.045 468.571 164.977 467.879 164.352L467.404 163.925L468.268 162.728C468.813 161.973 468.644 160.917 467.886 160.371L445.756 144.4L425.491 126.122C424.799 125.499 423.731 125.553 423.106 126.247Z" fill="#75B3B5"/>
<path d="M411.236 176.106L394.734 164.197C393.978 163.651 393.807 162.596 394.352 161.84L419.242 127.351C419.787 126.595 420.843 126.424 421.601 126.969L467.886 160.371C468.642 160.917 468.813 161.973 468.268 162.728L443.378 197.218C442.832 197.973 441.777 198.145 441.021 197.599L411.236 176.106Z" fill="white"/>
<path d="M467.999 166.739L439.512 198.323C438.887 199.015 437.82 199.071 437.127 198.447L394.741 160.216C394.049 159.591 393.992 158.523 394.617 157.831L423.104 126.247C423.729 125.555 424.797 125.5 425.489 126.124L467.876 164.354C468.569 164.979 468.624 166.047 467.999 166.739Z" fill="white" stroke="#BFBFBF" stroke-width="1.4697"/>
<path d="M425.813 128.765L397.406 160.259L400.691 163.222L429.098 131.728L425.813 128.765Z" fill="#E1EBF0"/>
<path d="M400.698 159.928L425.507 132.424" stroke="#B5B5B5" stroke-width="3.873"/>
<path d="M404.936 163.75L416.747 174.404" stroke="#ED9B13" stroke-width="1.7135"/>
<path d="M416.747 174.402L441.554 146.898" stroke="#ED9B13" stroke-width="1.9693"/>
<path d="M415.71 164.557C416.091 164.901 416.123 165.491 415.777 165.874C415.431 166.255 414.843 166.287 414.46 165.941C414.077 165.595 414.047 165.007 414.391 164.624C414.739 164.243 415.328 164.213 415.71 164.557Z" fill="#EB5A49"/>
<path d="M421.44 160.661C421.823 161.005 421.853 161.595 421.509 161.978C421.163 162.359 420.575 162.391 420.192 162.045C419.809 161.701 419.779 161.111 420.125 160.728C420.467 160.347 421.057 160.317 421.44 160.661Z" fill="#EB5A49"/>
<path d="M423.421 153.552C423.804 153.898 423.834 154.486 423.488 154.869C423.143 155.252 422.554 155.282 422.171 154.936C421.788 154.592 421.758 154.002 422.102 153.619C422.448 153.238 423.038 153.208 423.421 153.552Z" fill="#EB5A49"/>
<path d="M427.864 150.553C428.247 150.897 428.277 151.486 427.933 151.87C427.588 152.253 426.999 152.283 426.616 151.937C426.233 151.592 426.203 151.003 426.549 150.62C426.893 150.238 427.483 150.208 427.864 150.553Z" fill="#EB5A49"/>
<path d="M429.857 144.557C430.24 144.902 430.27 145.491 429.924 145.874C429.58 146.257 428.99 146.287 428.607 145.943C428.224 145.599 428.194 145.009 428.54 144.626C428.886 144.243 429.476 144.213 429.857 144.557Z" fill="#EB5A49"/>
<path d="M412.779 170.824L415.085 165.249" stroke="#EB5A49" stroke-width="1.4697"/>
<path d="M415.086 165.249L420.816 161.353" stroke="#EB5A49" stroke-width="1.4697"/>
<path d="M420.814 161.353L422.795 154.244" stroke="#EB5A49" stroke-width="1.4697"/>
<path d="M422.796 154.246L427.241 151.246" stroke="#EB5A49" stroke-width="1.4697"/>
<path d="M427.241 151.245L429.234 145.249" stroke="#EB5A49" stroke-width="1.4697"/>
<path d="M418.667 167.224C419.05 167.571 419.08 168.158 418.735 168.541C418.391 168.925 417.802 168.955 417.419 168.609C417.035 168.263 417.005 167.675 417.351 167.292C417.694 166.91 418.285 166.88 418.667 167.224Z" fill="#0D3656"/>
<path d="M418.304 157.833C418.687 158.179 418.717 158.767 418.371 159.15C418.027 159.533 417.438 159.563 417.055 159.219C416.671 158.874 416.641 158.285 416.986 157.902C417.332 157.519 417.921 157.487 418.304 157.833Z" fill="#0D3656"/>
<path d="M427.499 156.652C427.883 156.996 427.913 157.586 427.567 157.969C427.222 158.352 426.633 158.382 426.25 158.038C425.866 157.693 425.836 157.104 426.182 156.721C426.529 156.338 427.118 156.306 427.499 156.652Z" fill="#0D3656"/>
<path d="M425.29 148.229C425.673 148.575 425.701 149.163 425.357 149.546C425.013 149.929 424.423 149.959 424.04 149.615C423.657 149.271 423.627 148.681 423.971 148.298C424.317 147.915 424.907 147.885 425.29 148.229Z" fill="#0D3656"/>
<path d="M430.057 140.16C430.44 140.504 430.47 141.094 430.124 141.477C429.78 141.86 429.191 141.89 428.807 141.546C428.424 141.201 428.394 140.612 428.739 140.229C429.085 139.846 429.674 139.814 430.057 140.16Z" fill="#0D3656"/>
<path d="M418.042 167.917L417.68 158.525" stroke="#0D3656" stroke-width="1.4697"/>
<path d="M417.68 158.525L426.877 157.344" stroke="#0D3656" stroke-width="1.4697"/>
<path d="M426.877 157.344L424.667 148.923" stroke="#0D3656" stroke-width="1.4697"/>
<path d="M424.665 148.921L429.433 140.85" stroke="#0D3656" stroke-width="1.4697"/>
<path d="M418.041 167.917L414.235 172.137" stroke="#0D3656" stroke-width="1.4697"/>
<path d="M419.706 174.242L418.312 175.788L419.82 177.149L421.215 175.603L419.706 174.242Z" fill="#B5B5B5"/>
<path d="M431.323 162.351L421.11 173.674L421.864 174.354L432.077 163.031L431.323 162.351Z" fill="#B5B5B5"/>
<path d="M433.612 159.769L432.19 161.345L432.945 162.026L434.367 160.451L433.612 159.769Z" fill="#B5B5B5"/>
<path d="M443.395 148.98L434.812 158.496L435.534 159.147L444.117 149.631L443.395 148.98Z" fill="#B5B5B5"/>
<path d="M446.781 150.701L421.33 178.918L426.579 183.652L452.03 155.435L446.781 150.701Z" stroke="#B5B5B5" stroke-width="1.4697"/>
<path d="M448.772 152.537L423.322 180.752" stroke="#B5B5B5" stroke-width="1.4697"/>
<path d="M442.118 155.863L447.367 160.597" stroke="#B5B5B5" stroke-width="1.4697"/>
<path d="M437.303 161.203L442.551 165.938" stroke="#B5B5B5" stroke-width="1.4697"/>
<path d="M432.484 166.543L437.733 171.278" stroke="#B5B5B5" stroke-width="1.4697"/>
<path d="M427.668 171.885L432.916 176.62" stroke="#B5B5B5" stroke-width="1.4697"/>
<path d="M422.852 177.225L428.102 181.96" stroke="#B5B5B5" stroke-width="1.4697"/>
<path d="M427.489 173.696L424.609 176.89L424.874 177.128L427.754 173.935L427.489 173.696Z" fill="#B5B5B5"/>
<path d="M431.915 168.826L430.211 170.715L430.477 170.955L432.181 169.066L431.915 168.826Z" fill="#B5B5B5"/>
<path d="M437.279 163.069L434.31 166.362L434.574 166.601L437.544 163.308L437.279 163.069Z" fill="#B5B5B5"/>
<path d="M446.933 152.432L443.963 155.724L444.228 155.963L447.198 152.671L446.933 152.432Z" fill="#B5B5B5"/>
<path d="M441.576 158.345L439.692 160.433L439.959 160.673L441.842 158.585L441.576 158.345Z" fill="#B5B5B5"/>
<path d="M429.023 176.483L427.517 178.153L428.453 178.997L429.959 177.327L429.023 176.483Z" fill="#B5B5B5"/>
<path d="M434.037 170.934L432.53 172.604L433.466 173.448L434.973 171.778L434.037 170.934Z" fill="#B5B5B5"/>
<path d="M438.687 165.778L437.181 167.449L438.117 168.293L439.623 166.623L438.687 165.778Z" fill="#B5B5B5"/>
<path d="M443.456 160.493L441.95 162.163L442.886 163.007L444.392 161.337L443.456 160.493Z" fill="#B5B5B5"/>
<path d="M448.325 155.089L446.818 156.759L447.754 157.603L449.261 155.933L448.325 155.089Z" fill="#B5B5B5"/>
<path d="M425.098 180.56L424.836 180.851L425.927 181.834L426.189 181.543L425.098 180.56Z" fill="#B5B5B5"/>
<path d="M422.915 178.778L422.549 179.183L423.019 179.608L423.385 179.203L422.915 178.778Z" fill="#B5B5B5"/>
<path d="M454.255 157.458L428.805 185.675L429.416 186.226L454.866 158.009L454.255 157.458Z" fill="#B5B5B5"/>
<path d="M440.234 178.106L431.521 187.765L432.013 188.21L440.727 178.551L440.234 178.106Z" fill="#B5B5B5"/>
<path d="M458.044 160.872L432.807 188.853L433.3 189.298L458.537 161.317L458.044 160.872Z" fill="#B5B5B5"/>
<path d="M460.302 162.909L435.064 190.89L435.557 191.335L460.795 163.354L460.302 162.909Z" fill="#B5B5B5"/>
<path d="M457.046 169.047L436.32 192.025L436.813 192.47L457.539 169.492L457.046 169.047Z" fill="#B5B5B5"/>
<path d="M446.551 175.637L433.812 189.761L434.304 190.206L447.044 176.082L446.551 175.637Z" fill="#B5B5B5"/>
<path d="M459.059 161.784L447.387 174.724L447.88 175.169L459.551 162.229L459.059 161.784Z" fill="#B5B5B5"/>
<path d="M450.015 167.263L441.301 176.923L441.794 177.368L450.508 167.707L450.015 167.263Z" fill="#B5B5B5"/>
<path d="M456.756 159.779L451.024 166.132L451.517 166.577L457.249 160.223L456.756 159.779Z" fill="#B5B5B5"/>
<path d="M424.145 127.259L395.738 158.754L438.302 197.145L466.709 165.651L424.145 127.259Z" stroke="#ACB4B8" stroke-width="2.913"/>
<path d="M380.381 78.6109H309.333V117.996H380.381V78.6109Z" fill="#F8A255"/>
<path d="M309.333 78.6109C309.333 78.6109 333.273 62.2214 346.144 62.2214C357.642 62.2214 380.381 78.6109 380.381 78.6109H309.333Z" fill="#F7931E"/>
<path d="M415.72 178.844C416.253 179.817 417.093 180.581 417.918 181.324C420.915 184.025 423.911 186.726 426.908 189.427C428.252 190.638 429.721 192.183 429.419 193.968C429.202 195.249 428.125 196.18 427.131 197.017C423.058 200.445 419.24 204.172 415.716 208.161C413.151 206.092 410.588 204.023 408.023 201.954C406.926 201.07 405.302 199.979 404.688 198.662C403.954 197.087 404.82 196.515 405.555 195.08C406.912 192.43 407.198 189.341 407.189 186.407C407.175 182.309 406.723 178.053 408.242 174.247" fill="#FFB0AC"/>
<path d="M447.976 264.617C447.875 265.722 448.145 266.824 448.414 267.901C449.39 271.815 450.368 275.73 451.344 279.644C451.782 281.399 452.138 283.501 450.89 284.813C449.995 285.754 448.581 285.925 447.291 286.064C441.998 286.633 436.748 287.593 431.599 288.933C430.628 285.784 429.655 282.636 428.684 279.487C428.269 278.14 427.531 276.329 427.755 274.893C428.025 273.177 429.063 273.186 430.476 272.406C433.083 270.965 435.045 268.564 436.676 266.125C438.953 262.718 440.955 258.935 444.339 256.625L447.976 264.617Z" fill="#FFB0AC"/>
<path d="M415.685 178.869C414.566 176.826 415.023 174.249 416.054 172.162C417.085 170.076 418.63 168.284 419.782 166.261C420.249 165.443 420.658 164.554 420.663 163.611C420.676 161.295 417.65 159.607 415.685 160.832C414.075 161.838 413.671 163.944 412.981 165.715C411.792 168.764 409.418 171.232 408.207 174.27L415.685 178.869Z" fill="#FFB0AC"/>
<path d="M335.334 131.067C335.334 131.067 325.552 122.886 325.552 119.797C325.552 116.707 321.434 99.4597 324.265 99.7175C327.097 99.9752 328.677 107.365 329.304 108.304C329.929 109.243 332.504 114.649 334.305 115.163C336.107 115.678 355.413 117.736 355.413 117.736C355.413 117.736 354.898 129.464 353.611 131.065C352.324 132.666 352.582 140.132 352.582 140.132H335.306L335.334 131.067Z" fill="#FFB0AC"/>
<path d="M177.355 133.303L176.366 122.796C176.366 122.796 184.508 110.396 180.162 91.671C180.162 91.671 176.347 84.1012 173.556 85.57C170.763 87.0387 174.488 95.4806 173.191 98.1869C171.893 100.895 170.437 101.894 170.437 101.894C170.437 101.894 170.2 75.5445 154.865 75.6063C154.865 75.6063 153 75.9541 155.233 79.536C157.467 83.1179 160.385 92.1512 160.385 92.1512C160.385 92.1512 157.016 90.7442 155.507 91.4027C153.998 92.0611 153.092 95.2494 153.092 95.2494C153.092 95.2494 150.497 95.1488 149.83 95.3835C149.162 95.6183 147.588 99.0413 147.588 99.0413C147.588 99.0413 143.877 99.9081 143.51 101.493C143.143 103.079 143.96 106.278 144.313 110.036C144.666 113.794 149.011 121.488 152.446 125.043C155.883 128.599 155.883 128.599 155.883 128.599L156.423 134.553L177.355 133.303Z" fill="#FFB0AC"/>
<path d="M107.787 204.913L103.398 197.11C103.398 197.11 105.458 187.844 103.398 181.494C101.338 175.144 96.0187 165.02 93.7873 165.706C91.5559 166.393 94.9877 176.69 95.332 179.607C95.6744 182.525 95.8475 186.986 95.5032 187.673C95.1607 188.359 81.9453 199.857 81.9453 199.857C81.9453 199.857 86.2351 209.639 89.84 209.639C93.4448 209.639 96.054 214.448 96.054 214.448L107.787 204.913Z" fill="#FFB0AC"/>
<path d="M82.4679 279.413L75.0252 274.436C75.0252 274.436 72.672 265.239 67.9638 260.506C63.2556 255.773 55.0009 248.618 51.3219 253.271C49.8743 255.102 58.2915 260.02 59.9174 262.469C61.5432 264.915 60.6041 266.497 60.6076 267.265C60.6111 268.033 65.3829 293.369 68.5976 291.74C71.8123 290.111 76.3139 293.219 76.3139 293.219L82.4679 279.413Z" fill="#FFB0AC"/>
<path d="M319.502 255.981L362.534 288.407L428.237 272.194L435.952 291.496C435.952 291.496 374.886 321.414 364.937 320.499C354.987 319.585 319.502 309.002 319.502 309.002V255.981Z" fill="#E0E0E0"/>
<path d="M197.73 246.111C197.73 246.111 165.703 224.21 163.644 213.397C161.584 202.586 152.311 134.283 152.311 134.283L180.127 131.882L197.728 201.555C197.728 201.555 251.906 229.353 251.278 235.275C250.649 241.198 197.728 264.88 197.728 264.88V246.111H197.73Z" fill="#E0E0E0"/>
<path d="M211.52 238.469L162.717 249.109L109.575 203.46L93.1006 216.847C93.1006 216.847 139.443 281.716 152.31 281.716C165.178 281.716 205.956 277.082 205.956 277.082L211.52 238.469Z" fill="#E0E0E0"/>
<path d="M190.343 274.316L148.04 300.876L82.5667 275.953L71.6074 294.132C71.6074 294.132 137.201 339.443 149.306 335.079C161.411 330.715 198.203 312.529 198.203 312.529L190.343 274.316Z" fill="#E0E0E0"/>
<path d="M293.889 236.409C294.226 236.409 295.165 236.472 296.572 236.585C308.038 237.507 350.521 241.724 350.521 241.724L402.006 195.408L416.935 209.122C416.935 209.122 381.411 271.931 355.413 273.476C329.413 275.02 306.461 273.476 306.461 273.476L293.889 236.409Z" fill="#E0E0E0"/>
<path d="M283.591 228.362C283.93 225.788 317.055 206.892 317.055 206.892L334.045 140.135H355.411C355.411 140.135 351.55 211.561 349.49 216.778C347.429 221.995 334.085 237.538 330.976 239.805C327.868 242.072 302.815 259.577 302.815 259.577L283.591 228.362Z" fill="#E0E0E0"/>
<path d="M273.467 216.845C273.467 216.845 303.67 223.024 313.968 233.319C324.265 243.617 341.426 271.075 342.799 273.133C344.173 275.193 366.481 322.558 359.274 332.855C352.066 343.152 309.849 350.703 306.417 350.703C302.985 350.703 283.764 350.703 283.764 350.703C283.764 350.703 208.255 351.045 203.105 350.703C197.958 350.36 169.813 350.36 166.723 344.868C163.634 339.376 159.515 330.452 166.723 311.575C173.931 292.699 185.258 251.847 196.927 241.726C208.596 231.605 231.593 221.65 231.593 221.65L273.467 216.845Z" fill="#F5F5F5"/>
<path d="M263.198 248.537L256.991 249.109C243.396 248.936 232.851 239.823 232.851 226.226L232.509 221.306C232.509 221.306 233.748 220.097 239.372 219.361C243.362 218.838 249.124 219.188 256.991 218.734C263.658 218.349 269.154 216.39 273.465 216.843C282.159 217.758 280.408 217.918 280.408 217.918L281.245 222.22C280.821 233.815 281.16 242.702 263.198 248.537Z" fill="#334752"/>
<path d="M273.467 229.545C271.064 232.977 269.691 239.842 258.02 241.558C246.351 243.274 240.515 231.261 240.515 231.261V206.89H270.72L272.072 218.038L273.467 229.545Z" fill="#FFB0AC"/>
<path d="M272.072 218.038C267.691 221.894 262.008 229.315 255.047 229.315C249.846 229.315 244.446 222.96 240.517 220.669V206.89H270.722L272.072 218.038Z" fill="#E69D9A"/>
<path d="M228.504 181.836C228.504 181.836 218.893 178.06 220.954 188.015C223.014 197.97 229.877 196.596 229.877 196.596C229.877 196.596 232.623 204.147 235.712 207.236C238.801 210.326 244.636 223.024 255.276 224.741C265.915 226.457 276.154 205.865 278.758 195.91C278.758 195.91 285.823 195.91 287.197 191.447C288.57 186.984 289.37 178.862 285.136 178.175C280.903 177.488 278.758 180.348 278.758 180.348C278.758 180.348 276.785 168.679 274.726 166.619C272.666 164.559 230.679 168.105 230.679 168.105L228.504 181.836Z" fill="#FFB0AC"/>
<path d="M229.535 194.192C229.535 194.192 227.356 181.224 226.069 181.224C224.782 181.224 221.384 180.207 220.666 184.668C220.456 185.974 210.252 153.52 220.666 152.233H227.734C227.734 152.233 224.645 147.341 229.537 142.451C234.428 137.56 238.254 138.552 243.952 133.441C248.929 128.978 248.586 122.372 248.586 122.372C248.586 122.372 254.202 131.725 254.483 134.814C254.483 134.814 261.458 131.125 261.971 127.264C261.971 127.264 261.915 134.214 261.915 138.133C261.915 142.052 257.69 137.921 269.437 136.017C278.961 134.472 288.298 148.63 288.298 148.63L276.129 147.859C276.129 147.859 280.861 146.4 288.298 153.264C301.046 165.027 288.445 177.257 288.298 176.689L287.163 179.465C287.163 179.465 284.54 177.075 283.424 178.083C282.308 179.091 279.819 193.334 279.819 193.334C279.819 193.334 277.416 196.337 276.387 190.589C275.358 184.839 274.671 181.665 274.671 181.665C274.671 181.665 272.826 183.782 274.156 184.754C274.156 184.754 265.232 182.952 265.747 177.891L261.371 175.059C261.371 175.059 260.993 181.709 264.374 181.838C264.374 181.838 254.163 182.267 255.537 177.633C255.537 177.633 255.708 181.323 252.105 181.838C248.502 182.354 246.613 182.267 246.613 182.267C246.613 182.267 250.903 180.036 250.903 178.062C250.903 178.062 247.555 181.923 241.721 183.21L242.408 180.465C242.408 180.465 237.173 183.125 234.084 180.207C234.084 180.207 230.91 191.362 231.595 193.507C232.28 195.65 229.535 194.192 229.535 194.192Z" fill="#42210B"/>
<path d="M311.221 262.493C311.221 262.493 314.31 310.202 319.802 313.291L302.983 320.499C302.983 320.499 300.925 275.88 311.221 262.493Z" fill="#5172E1"/>
<path d="M216.112 265.24C216.112 265.24 209.97 316.725 200.702 320.499C200.702 320.499 221.982 330.11 222.326 329.081C222.668 328.05 216.112 265.24 216.112 265.24Z" fill="#5172E1"/>
<path d="M192.53 317.726C200.598 320.021 207.993 324.185 215.829 327.176C226.995 331.436 239.077 333.272 251.004 332.523C251.087 337.623 251.237 349.705 250.587 350.309C250.022 350.833 173.309 351.204 168.007 346.586C158.43 338.241 160.506 322.697 171.806 317.998C178.328 315.285 185.873 315.834 192.53 317.726Z" fill="white"/>
<path d="M279.746 328.03C298.718 319.987 319.553 310.795 340.158 310.977C344.301 311.014 351.967 311.33 355.411 313.634C359.3 316.238 359.964 322.244 360.7 326.865C361.198 329.986 358.211 334.114 356.089 336.456C354.83 337.846 353.05 338.624 351.328 339.364C344.113 342.457 336.846 345.567 329.181 347.257C321.678 348.911 313.946 349.169 306.267 349.419C293.932 349.824 281.571 350.228 269.26 349.379C267.886 349.283 266.875 334.573 267.604 333.072C269.14 329.917 276.402 329.446 279.746 328.03Z" fill="white"/>
<path d="M305.638 352.458H215.724C214.156 352.458 212.887 351.186 212.887 349.621V347.592C212.887 346.025 214.158 344.755 215.724 344.755H305.638C307.206 344.755 308.475 346.026 308.475 347.592V349.621C308.475 351.186 307.204 352.458 305.638 352.458Z" fill="#3462FF"/>
<path d="M305.618 344.353H215.521L208.878 289.682C208.44 286.084 211.249 282.915 214.873 282.915H306.947C310.342 282.915 312.967 285.891 312.543 289.26L305.618 344.353Z" fill="#A9C2FF"/>
<path d="M502.398 350.909H42.1318V364.088H502.398V350.909Z" fill="#80A5FF"/>
<path d="M339.34 89.6797L309.333 78.6109H380.381L353.352 89.6797H339.34Z" fill="#F7931E"/>
<path d="M319.502 42.0576H376.777V80.6711L353.61 92.2536H339.341L319.502 82.3623V42.0576Z" fill="#F2F2F2"/>
<path d="M342.11 46.9494H326.208V64.4546H342.11V46.9494Z" fill="white"/>
<path d="M340.31 64.4529H327.954V62.0238C327.954 59.6211 329.901 57.6739 332.304 57.6739H335.96C338.363 57.6739 340.31 59.6211 340.31 62.0238V64.4529Z" fill="#F76F55"/>
<path d="M330.414 54.3127C330.438 54.0408 330.516 53.7495 330.41 53.5059C330.304 53.2588 330.045 53.1599 329.914 52.9304C329.787 52.708 329.806 52.4149 329.829 52.1466C329.879 51.5711 329.93 50.9956 329.979 50.4201C329.992 50.2718 330.008 50.1147 330.083 49.9964C330.165 49.8693 330.297 49.811 330.417 49.7422C330.781 49.5339 331.074 49.1826 331.409 48.9125C331.745 48.6424 332.167 48.4482 332.546 48.6088C332.719 48.683 332.875 48.826 333.056 48.8454C333.263 48.8666 333.455 48.7236 333.657 48.6583C334.267 48.4588 334.878 48.9831 335.51 49.006C335.897 49.0202 336.319 48.8542 336.649 49.0961C336.933 49.3044 337.048 49.7546 337.332 49.9629C337.583 50.1465 337.922 50.1111 338.144 50.3406C338.573 50.7855 338.171 51.6788 338.402 52.302C338.478 52.5067 338.626 52.6921 338.614 52.9163C338.601 53.1352 338.444 53.2923 338.333 53.4653C337.844 54.235 338.224 55.5449 337.613 56.1751C337.295 56.5035 336.834 56.4964 336.418 56.4735C335.095 56.3993 333.773 56.3252 332.451 56.2528C331.494 56.2016 330.276 55.8591 330.414 54.3127Z" fill="#534741"/>
<path d="M334.529 58.9679H333.791C332.272 58.9679 331.042 57.7375 331.042 56.2193V52.7327H337.277V56.2193C337.277 57.7357 336.047 58.9679 334.529 58.9679Z" fill="#FFB0AC"/>
<path d="M331.042 52.7327C331.042 52.7327 331.384 53.4283 333.187 53.4283C334.989 53.4283 336.448 53.4283 336.448 53.4283L335.118 52.5191L337.277 53.4283L337.821 52.1837H330.399L331.042 52.7327Z" fill="#534741"/>
<path d="M372.316 48.5506H348.805V50.21H372.316V48.5506Z" fill="#B3B3B3"/>
<path d="M372.316 51.9754H348.805V52.8051H372.316V51.9754Z" fill="#B3B3B3"/>
<path d="M372.316 55.2854H348.805V56.1151H372.316V55.2854Z" fill="#B3B3B3"/>
<path d="M372.316 58.1382H348.805V58.968H372.316V58.1382Z" fill="#B3B3B3"/>
<path d="M362.534 61.3918H348.805V62.2215H362.534V61.3918Z" fill="#B3B3B3"/>
<path d="M327.294 86.2479H342.11V68.7426H326.208V85.7059L327.294 86.2479Z" fill="white"/>
<path d="M340.31 86.2479H327.954V83.8187C327.954 81.4161 329.901 79.4689 332.304 79.4689H335.96C338.363 79.4689 340.31 81.4161 340.31 83.8187V86.2479Z" fill="#548EA6"/>
<path d="M329.817 74.0934C329.78 72.9513 330.048 71.7102 330.805 71.0147C331.051 70.7887 331.337 70.6298 331.626 70.4974C332.705 70.0031 333.912 69.8425 335.023 70.222C336.133 70.6016 337.127 71.5619 337.538 72.8524C337.81 73.7051 337.821 74.6407 337.823 75.5534C337.824 76.2984 337.793 77.1263 337.351 77.6506C337.041 78.0213 336.587 78.1573 336.156 78.2597C334.959 78.5457 333.385 79.0629 332.202 78.5245C330.701 77.843 329.877 75.9241 329.817 74.0934Z" fill="#534741"/>
<path d="M334.529 80.7629H333.791C332.272 80.7629 331.042 79.5325 331.042 78.0143V74.5277H337.277V78.0143C337.277 79.5307 336.047 80.7629 334.529 80.7629Z" fill="#FFB0AC"/>
<path d="M331.042 74.5277C331.042 74.5277 331.384 75.2232 333.187 75.2232C334.989 75.2232 336.448 75.2232 336.448 75.2232L335.118 74.3141L337.277 75.2232L337.821 73.9787H330.399L331.042 74.5277Z" fill="#534741"/>
<path d="M372.316 70.3456H348.805V72.005H372.316V70.3456Z" fill="#B3B3B3"/>
<path d="M372.316 73.7704H348.805V74.6001H372.316V73.7704Z" fill="#B3B3B3"/>
<path d="M372.316 77.0804H348.805V77.9101H372.316V77.0804Z" fill="#B3B3B3"/>
<path d="M372.316 79.9332H348.805V80.7629H372.316V79.9332Z" fill="#B3B3B3"/>
<path d="M362.534 83.1868H348.805V84.0165H362.534V83.1868Z" fill="#B3B3B3"/>
<path d="M489.416 221.209L486.018 222.166L485.589 220.639C485.208 219.283 483.801 218.494 482.445 218.875C481.089 219.256 480.3 220.663 480.681 222.019L481.11 223.546L455.027 230.888L454.598 229.361C454.217 228.006 452.808 227.216 451.452 227.598C450.096 227.979 449.307 229.386 449.689 230.744L450.118 232.271L445.572 233.551C441.707 234.638 439.457 238.652 440.546 242.517L452.887 286.361C453.975 290.225 457.989 292.476 461.854 291.389L505.698 279.047C509.562 277.96 511.813 273.945 510.726 270.081L498.384 226.237C497.295 222.372 493.279 220.121 489.416 221.209Z" fill="#75B3B5"/>
<path d="M510.724 270.081C511.811 273.945 509.561 277.96 505.696 279.047L461.852 291.389C457.988 292.476 453.973 290.225 452.886 286.361L440.544 242.517C439.457 238.652 441.708 234.638 445.57 233.551L489.414 221.207C493.279 220.12 497.293 222.371 498.381 226.235L510.724 270.081Z" fill="#548EA6"/>
<path d="M455.278 231.785C455.659 233.141 454.87 234.548 453.514 234.929C452.158 235.311 450.75 234.521 450.368 233.166L449.687 230.744C449.305 229.388 450.095 227.981 451.45 227.598C452.806 227.216 454.213 228.006 454.596 229.361L455.278 231.785Z" fill="#0D3656"/>
<path d="M486.268 223.061C486.649 224.417 485.86 225.824 484.504 226.205C483.149 226.586 481.742 225.797 481.36 224.441L480.679 222.019C480.298 220.663 481.087 219.256 482.443 218.875C483.798 218.494 485.205 219.283 485.587 220.639L486.268 223.061Z" fill="#0D3656"/>
<path d="M500.805 274.561L463.902 284.95C461.106 285.738 458.251 284.287 457.527 281.711L449.336 252.615C448.61 250.039 450.289 247.311 453.086 246.524L489.988 236.135C492.783 235.348 495.638 236.799 496.363 239.374L504.554 268.471C505.278 271.048 503.599 273.774 500.805 274.561Z" fill="#B0D2D3" stroke="white" stroke-width="3.7345"/>
<path d="M462.059 250.779L454.284 252.968L456.473 260.742L464.247 258.553L462.059 250.779Z" fill="#B0D2D3" stroke="white" stroke-width="3.472"/>
<path d="M471.921 248.002L464.148 250.19L466.337 257.964L474.11 255.776L471.921 248.002Z" fill="#B0D2D3" stroke="white" stroke-width="3.472"/>
<path d="M481.788 245.224L474.014 247.413L476.202 255.188L483.977 252.999L481.788 245.224Z" fill="#B0D2D3" stroke="white" stroke-width="3.472"/>
<path d="M491.651 242.449L483.878 244.637L486.067 252.411L493.839 250.223L491.651 242.449Z" fill="#B0D2D3" stroke="white" stroke-width="3.472"/>
<path d="M464.968 260.173L457.195 262.362L459.384 270.134L467.156 267.946L464.968 260.173Z" fill="#B0D2D3" stroke="white" stroke-width="3.472"/>
<path d="M474.835 257.396L467.061 259.585L469.249 267.358L477.023 265.169L474.835 257.396Z" fill="#EB5A49" stroke="white" stroke-width="3.472"/>
<path d="M484.699 254.618L476.925 256.807L479.113 264.58L486.887 262.391L484.699 254.618Z" fill="#B0D2D3" stroke="white" stroke-width="3.472"/>
<path d="M494.562 251.842L486.789 254.03L488.977 261.803L496.75 259.614L494.562 251.842Z" fill="#B0D2D3" stroke="white" stroke-width="3.472"/>
<path d="M467.881 269.566L460.106 271.755L462.295 279.527L470.069 277.339L467.881 269.566Z" fill="#B0D2D3" stroke="white" stroke-width="3.472"/>
<path d="M477.744 266.79L469.972 268.978L472.16 276.75L479.933 274.562L477.744 266.79Z" fill="#B0D2D3" stroke="white" stroke-width="3.472"/>
<path d="M487.61 264.011L479.836 266.2L482.024 273.972L489.799 271.784L487.61 264.011Z" fill="#B0D2D3" stroke="white" stroke-width="3.472"/>
<path d="M497.474 261.234L489.701 263.423L491.889 271.195L499.662 269.007L497.474 261.234Z" fill="#B0D2D3" stroke="white" stroke-width="3.472"/>
<path d="M444.34 256.627C444.34 256.627 449.963 242.515 455.416 245.869C455.416 245.869 456.321 248.496 453.774 253.914C451.227 259.332 446.52 266.817 448.831 269.576C451.142 272.335 454.644 282.765 450.891 284.815C450.891 284.815 441.542 259.912 444.34 256.627Z" fill="#FFB0AC"/>
<path d="M488.386 364.089H58.5479V423.43H488.386V364.089Z" fill="#264FDA"/>
<defs>
<radialGradient id="paint0_radial_158_6915" cx="0" cy="0" r="1" gradientUnits="userSpaceOnUse" gradientTransform="translate(85.9447 185.916) rotate(-39.2943) scale(9.45671)">
<stop stop-color="#B0D2D3"/>
<stop offset="1" stop-color="#B0D2D3"/>
</radialGradient>
</defs>
</svg>
