<?xml version="1.0" encoding="utf-8"?>
<!-- Generator: Adobe Illustrator 27.0.0, SVG Export Plug-In . SVG Version: 6.00 Build 0)  -->
<svg version="1.1" id="Layer_1" xmlns="http://www.w3.org/2000/svg" xmlns:xlink="http://www.w3.org/1999/xlink" x="0px" y="0px"
	 viewBox="0 0 805 474.1" style="enable-background:new 0 0 805 474.1;" xml:space="preserve">
<style type="text/css">
	.st0{fill:#E1E1E1;}
	.st1{fill:#E7E7E7;}
	.st2{fill:#F0F0F0;}
	.st3{fill:#F5F5F5;}
	.st4{fill:#ECECEC;}
	.st5{fill:#007CFF;}
	.st6{opacity:0.8;fill:#FFFFFF;}
	.st7{fill:none;stroke:#1A2E35;stroke-width:0.5;stroke-miterlimit:10;}
	.st8{opacity:0.3;}
	.st9{fill:#FFFFFF;stroke:#1A2E35;stroke-miterlimit:10;}
	.st10{fill:#1A2E35;}
	.st11{fill:#FFFFFF;}
	.st12{fill:none;stroke:#000000;stroke-linecap:round;stroke-linejoin:round;stroke-miterlimit:10;}
	.st13{fill:#FDB470;}
	.st14{opacity:0.2;}
	.st15{fill:#FC5652;}
	.st16{fill:#FE8835;}
	.st17{opacity:0.1;fill:none;stroke:#000000;stroke-width:0.5;stroke-linecap:round;stroke-linejoin:round;stroke-miterlimit:10;}
	.st18{opacity:0.3;fill:#FFFFFF;}
	.st19{opacity:0.1;}
	.st20{opacity:0.7;fill:#FFFFFF;}
	.st21{opacity:0.3;fill:#FFFFFF;enable-background:new    ;}
	.st22{opacity:0.7;fill:#FFFFFF;enable-background:new    ;}
	.st23{opacity:0.2;fill:#FFFFFF;enable-background:new    ;}
	.st24{fill:none;stroke:#FFFFFF;stroke-linecap:round;stroke-linejoin:round;stroke-miterlimit:10;}
	.st25{fill:none;stroke:#1A2E35;stroke-miterlimit:10;}
	.st26{fill:#1A2E35;enable-background:new    ;}
	.st27{opacity:0.2;enable-background:new    ;}
	.st28{opacity:0.7;enable-background:new    ;}
	.st29{fill:#CD7A63;}
	.st30{fill:none;stroke:#007CFF;stroke-width:0.25;stroke-miterlimit:10;}
	.st31{opacity:0.5;fill:#FFFFFF;}
	.st32{fill:#B94D3C;}
	.st33{fill:none;stroke:#000000;stroke-width:0;stroke-linecap:round;stroke-linejoin:round;}
</style>
<g>
	<path class="st0" d="M312.5,154.2c-4.8,7.3-8,15.3-9.7,23.6l-13.2,1.2l0,25.5l13.2,1.2c1.7,8.3,4.9,16.3,9.7,23.6l-8.4,10.1l18,18
		l10.1-8.4c7.3,4.8,15.3,8,23.6,9.7l1.2,13.2l25.5,0l1.2-13.2c8.3-1.7,16.3-4.9,23.6-9.7l10.1,8.4l18-18l-8.4-10.1
		c4.8-7.3,8-15.3,9.7-23.6l13.2-1.2l0-25.5l-13.2-1.2c-1.7-8.3-4.9-16.3-9.7-23.6l8.4-10.1l-18-18l-10.1,8.4
		c-7.3-4.8-15.3-8-23.6-9.7l-1.2-13.2l-25.5,0l-1.2,13.2c-8.3,1.7-16.3,4.9-23.6,9.7l-10.1-8.4l-18,18L312.5,154.2z M394.2,167.3
		c13.5,13.5,13.5,35.3,0,48.8c-13.5,13.5-35.3,13.5-48.8,0c-13.5-13.5-13.5-35.3,0-48.8C358.8,153.8,380.7,153.8,394.2,167.3z"/>
	<path class="st0" d="M196.3,109.6c-2.7,4.1-4.5,8.6-5.5,13.3l-7.4,0.7l0,14.3l7.4,0.7c1,4.6,2.8,9.2,5.5,13.3l-4.7,5.7l10.1,10.1
		l5.7-4.7c4.1,2.7,8.6,4.5,13.3,5.5l0.7,7.4l14.3,0l0.7-7.4c4.6-1,9.2-2.8,13.3-5.5l5.7,4.7l10.1-10.1l-4.7-5.7
		c2.7-4.1,4.5-8.6,5.5-13.3l7.4-0.7l0-14.3l-7.4-0.7c-1-4.6-2.8-9.2-5.5-13.3l4.7-5.7l-10.1-10.1l-5.7,4.7
		c-4.1-2.7-8.6-4.5-13.3-5.5l-0.7-7.4l-14.3,0l-0.7,7.4c-4.6,1-9.2,2.8-13.3,5.5l-5.7-4.7l-10.1,10.1L196.3,109.6z M242.2,117
		c7.6,7.6,7.6,19.9,0,27.4c-7.6,7.6-19.9,7.6-27.4,0c-7.6-7.6-7.6-19.9,0-27.4C222.4,109.5,234.6,109.4,242.2,117z"/>
	<path class="st0" d="M234.9,47.3c-1.3,2.1-2.3,4.3-2.7,6.6l-3.7,0.3l0,7.2l3.7,0.3c0.5,2.3,1.4,4.6,2.7,6.6l-2.4,2.9l5.1,5.1
		l2.9-2.4c2.1,1.3,4.3,2.3,6.6,2.7l0.3,3.7l7.2,0l0.3-3.7c2.3-0.5,4.6-1.4,6.6-2.7l2.9,2.4l5.1-5.1l-2.4-2.9
		c1.3-2.1,2.3-4.3,2.7-6.6l3.7-0.3l0-7.2l-3.7-0.3c-0.5-2.3-1.4-4.6-2.7-6.6l2.4-2.9l-5.1-5.1l-2.9,2.4c-2.1-1.3-4.3-2.3-6.6-2.7
		l-0.3-3.7l-7.2,0l-0.3,3.7c-2.3,0.5-4.6,1.4-6.6,2.7l-2.9-2.4l-5.1,5.1L234.9,47.3z M257.9,51c3.8,3.8,3.8,9.9,0,13.7
		c-3.8,3.8-9.9,3.8-13.7,0c-3.8-3.8-3.8-9.9,0-13.7C248,47.2,254.1,47.2,257.9,51z"/>
	<g>
		<g>
			<path class="st1" d="M177.2,258l-46.8,9.2c-1.9,0.4-3.7-0.9-4.1-2.8l-12.2-62c-0.4-1.9,0.9-3.7,2.8-4.1l46.8-9.2
				c1.9-0.4,3.7,0.9,4.1,2.8l12.2,62C180.3,255.8,179.1,257.7,177.2,258z"/>
		</g>
		<path class="st2" d="M159.3,210.3l-30.3,6c-1,0.2-1.9-0.4-2.1-1.4l-0.2-1.1c-0.2-1,0.4-1.9,1.4-2.1l30.3-6c1-0.2,1.9,0.4,2.1,1.4
			l0.2,1.1C160.8,209.2,160.2,210.1,159.3,210.3z"/>
		<path class="st2" d="M161.6,222l-30.3,6c-1,0.2-1.9-0.4-2.1-1.4l-0.2-1.1c-0.2-1,0.4-1.9,1.4-2.1l30.3-6c1-0.2,1.9,0.4,2.1,1.4
			l0.2,1.1C163.1,220.9,162.5,221.8,161.6,222z"/>
		<path class="st2" d="M163.9,233.7l-30.3,6c-1,0.2-1.9-0.4-2.1-1.4l-0.2-1.1c-0.2-1,0.4-1.9,1.4-2.1l30.3-6c1-0.2,1.9,0.4,2.1,1.4
			l0.2,1.1C165.5,232.6,164.8,233.5,163.9,233.7z"/>
		<path class="st2" d="M150.2,248.6l-14.3,2.8c-1,0.2-1.9-0.4-2.1-1.4l-0.2-1.1c-0.2-1,0.4-1.9,1.4-2.1l14.3-2.8
			c1-0.2,1.9,0.4,2.1,1.4l0.2,1.1C151.8,247.5,151.1,248.4,150.2,248.6z"/>
	</g>
	<g>
		<g>
			<path class="st1" d="M222.2,320l-29.8-3.6c-1.9-0.2-3.3-2-3.1-3.9l4.8-40.3c0.2-1.9,2-3.3,3.9-3.1l29.8,3.6
				c1.9,0.2,3.3,2,3.1,3.9l-4.8,40.3C225.9,318.9,224.1,320.2,222.2,320z"/>
		</g>
		<path class="st2" d="M221.4,285.6l-20-2.4c-0.9-0.1-1.5-0.9-1.4-1.8l0,0c0.1-0.9,0.9-1.5,1.8-1.4l20,2.4c0.9,0.1,1.5,0.9,1.4,1.8
			v0C223,285.1,222.2,285.7,221.4,285.6z"/>
		<path class="st2" d="M220.4,293.7l-20-2.4c-0.9-0.1-1.5-0.9-1.4-1.8l0,0c0.1-0.9,0.9-1.5,1.8-1.4l20,2.4c0.9,0.1,1.5,0.9,1.4,1.8
			l0,0C222,293.1,221.3,293.8,220.4,293.7z"/>
		<path class="st2" d="M219.4,301.7l-20-2.4c-0.9-0.1-1.5-0.9-1.4-1.8l0,0c0.1-0.9,0.9-1.5,1.8-1.4l20,2.4c0.9,0.1,1.5,0.9,1.4,1.8
			l0,0C221.1,301.2,220.3,301.8,219.4,301.7z"/>
		<path class="st2" d="M207.5,308.4l-9.1-1.1c-0.9-0.1-1.5-0.9-1.4-1.8l0,0c0.1-0.9,0.9-1.5,1.8-1.4l9.1,1.1
			c0.9,0.1,1.5,0.9,1.4,1.8l0,0C209.2,307.9,208.4,308.5,207.5,308.4z"/>
	</g>
	<g>
		<g>
			<path class="st1" d="M706.5,196.7l-35.1-13.3c-1.8-0.7-2.7-2.7-2-4.5l17.8-47c0.7-1.8,2.7-2.7,4.5-2l35.1,13.3
				c1.8,0.7,2.7,2.7,2,4.5l-17.8,47C710.3,196.5,708.3,197.4,706.5,196.7z"/>
		</g>
		<path class="st2" d="M715.2,156.2l-23.5-8.9c-0.8-0.3-1.1-1.1-0.9-1.9l0.3-0.8c0.3-0.8,1.1-1.1,1.9-0.9l23.5,8.9
			c0.8,0.3,1.1,1.1,0.9,1.9l-0.3,0.8C716.8,156.1,716,156.5,715.2,156.2z"/>
		<path class="st2" d="M711.8,165.3l-23.5-8.9c-0.8-0.3-1.1-1.1-0.9-1.9l0.3-0.8c0.3-0.8,1.1-1.1,1.9-0.9l23.5,8.9
			c0.8,0.3,1.1,1.1,0.9,1.9l-0.3,0.8C713.4,165.2,712.6,165.6,711.8,165.3z"/>
		<path class="st2" d="M708.3,174.4l-23.5-8.9c-0.8-0.3-1.1-1.1-0.9-1.9l0.3-0.8c0.3-0.8,1.1-1.1,1.9-0.9l23.5,8.9
			c0.8,0.3,1.1,1.1,0.9,1.9l-0.3,0.8C710,174.3,709.1,174.6,708.3,174.4z"/>
		<path class="st2" d="M692.5,178.7l-11.1-4.2c-0.8-0.3-1.1-1.1-0.9-1.9l0.3-0.8c0.3-0.8,1.1-1.1,1.9-0.9l11.1,4.2
			c0.8,0.3,1.1,1.1,0.9,1.9l-0.3,0.8C694.1,178.6,693.2,179,692.5,178.7z"/>
	</g>
	<g>
		<path class="st0" d="M426.6,43.9h-11.1c-0.9,0-1.6-0.7-1.6-1.6V28.6c0-0.9,0.7-1.6,1.6-1.6h11.1c0.9,0,1.6,0.7,1.6,1.6v13.8
			C428.1,43.2,427.4,43.9,426.6,43.9z"/>
		<path class="st0" d="M448,43.9h-11.1c-0.9,0-1.6-0.7-1.6-1.6V15.5c0-0.9,0.7-1.6,1.6-1.6H448c0.9,0,1.6,0.7,1.6,1.6v26.9
			C449.6,43.2,448.9,43.9,448,43.9z"/>
		<path class="st0" d="M471.2,44.3H460c-0.9,0-1.6-0.7-1.6-1.6V2.5c0-0.9,0.7-1.6,1.6-1.6h11.1c0.9,0,1.6,0.7,1.6,1.6v40.3
			C472.7,43.6,472,44.3,471.2,44.3z"/>
	</g>
	<path class="st0" d="M511.2,249.6c-2.6,3.9-4.3,8.3-5.3,12.8l-7.1,0.7l0,13.8l7.1,0.7c0.9,4.5,2.7,8.8,5.3,12.8l-4.5,5.5l9.8,9.8
		l5.5-4.5c3.9,2.6,8.3,4.3,12.8,5.3l0.7,7.1l13.8,0l0.7-7.1c4.5-0.9,8.8-2.7,12.8-5.3l5.5,4.5l9.8-9.8l-4.5-5.5
		c2.6-3.9,4.3-8.3,5.3-12.8l7.1-0.7l0-13.8l-7.1-0.7c-0.9-4.5-2.7-8.8-5.3-12.8l4.5-5.5l-9.8-9.8l-5.5,4.5
		c-3.9-2.6-8.3-4.3-12.8-5.3l-0.7-7.1l-13.8,0l-0.7,7.1c-4.5,0.9-8.8,2.7-12.8,5.3l-5.5-4.5l-9.8,9.8L511.2,249.6z M555.4,256.7
		c7.3,7.3,7.3,19.1,0,26.4c-7.3,7.3-19.1,7.3-26.4,0c-7.3-7.3-7.3-19.1,0-26.4C536.3,249.4,548.1,249.4,555.4,256.7z"/>
	<path class="st0" d="M596.6,282.2c-1.2,1.9-2,3.9-2.5,6l-3.4,0.3l0,6.5l3.4,0.3c0.4,2.1,1.3,4.2,2.5,6l-2.1,2.6l4.6,4.6l2.6-2.1
		c1.9,1.2,3.9,2,6,2.5l0.3,3.4l6.5,0l0.3-3.4c2.1-0.4,4.2-1.3,6-2.5l2.6,2.1l4.6-4.6l-2.1-2.6c1.2-1.9,2-3.9,2.5-6l3.4-0.3l0-6.5
		l-3.4-0.3c-0.4-2.1-1.3-4.2-2.5-6l2.1-2.6l-4.6-4.6l-2.6,2.1c-1.9-1.2-3.9-2-6-2.5l-0.3-3.4l-6.5,0l-0.3,3.4
		c-2.1,0.4-4.2,1.3-6,2.5L599,275l-4.6,4.6L596.6,282.2z M617.5,285.6c3.4,3.4,3.4,9,0,12.5c-3.4,3.4-9,3.4-12.5,0
		c-3.4-3.4-3.4-9,0-12.5C608.4,282.1,614,282.1,617.5,285.6z"/>
	<path class="st3" d="M538.7,183.1c-1.2,1.9-2,3.9-2.5,6l-3.4,0.3l0,6.5l3.4,0.3c0.4,2.1,1.3,4.2,2.5,6l-2.1,2.6l4.6,4.6l2.6-2.1
		c1.9,1.2,3.9,2,6,2.5l0.3,3.4l6.5,0l0.3-3.4c2.1-0.4,4.2-1.3,6-2.5l2.6,2.1l4.6-4.6l-2.1-2.6c1.2-1.9,2-3.9,2.5-6l3.4-0.3l0-6.5
		l-3.4-0.3c-0.4-2.1-1.3-4.2-2.5-6l2.1-2.6l-4.6-4.6l-2.6,2.1c-1.9-1.2-3.9-2-6-2.5l-0.3-3.4l-6.5,0l-0.3,3.4
		c-2.1,0.4-4.2,1.3-6,2.5l-2.6-2.1l-4.6,4.6L538.7,183.1z M559.6,186.5c3.4,3.4,3.4,9,0,12.5c-3.4,3.4-9,3.4-12.5,0
		c-3.4-3.4-3.4-9,0-12.5C550.6,183.1,556.1,183.1,559.6,186.5z"/>
	<path class="st3" d="M591.8,207c-2.3,3.5-3.8,7.3-4.7,11.3l-6.3,0.6l0,12.2l6.3,0.6c0.8,4,2.4,7.8,4.7,11.3l-4,4.9l8.6,8.6l4.9-4
		c3.5,2.3,7.3,3.8,11.3,4.7l0.6,6.3l12.2,0l0.6-6.3c4-0.8,7.8-2.4,11.3-4.7l4.9,4l8.6-8.6l-4-4.9c2.3-3.5,3.8-7.3,4.7-11.3l6.3-0.6
		l0-12.2l-6.3-0.6c-0.8-4-2.4-7.8-4.7-11.3l4-4.9l-8.6-8.6l-4.9,4c-3.5-2.3-7.3-3.8-11.3-4.7l-0.6-6.3l-12.2,0l-0.6,6.3
		c-4,0.8-7.8,2.4-11.3,4.7l-4.9-4l-8.6,8.6L591.8,207z M631,213.4c6.5,6.5,6.5,16.9,0,23.4c-6.5,6.5-16.9,6.5-23.4,0
		c-6.5-6.5-6.5-16.9,0-23.4C614,206.9,624.5,206.9,631,213.4z"/>
	<path class="st3" d="M156.2,36.6c-2,3.1-3.4,6.4-4.1,9.9l-5.5,0.5l0,10.7l5.5,0.5c0.7,3.5,2.1,6.8,4.1,9.9l-3.5,4.3l7.5,7.5
		l4.3-3.5c3.1,2,6.4,3.4,9.9,4.1l0.5,5.5l10.7,0l0.5-5.5c3.5-0.7,6.8-2.1,9.9-4.1l4.3,3.5l7.5-7.5l-3.5-4.3c2-3.1,3.4-6.4,4.1-9.9
		l5.5-0.5l0-10.7l-5.5-0.5c-0.7-3.5-2.1-6.8-4.1-9.9l3.5-4.3l-7.5-7.5l-4.3,3.5c-3.1-2-6.4-3.4-9.9-4.1l-0.5-5.5l-10.7,0l-0.5,5.5
		c-3.5,0.7-6.8,2.1-9.9,4.1l-4.3-3.5l-7.5,7.5L156.2,36.6z M190.4,42.1c5.6,5.6,5.6,14.8,0,20.4c-5.6,5.6-14.8,5.6-20.4,0
		c-5.6-5.6-5.6-14.8,0-20.4C175.6,36.5,184.8,36.5,190.4,42.1z"/>
	<g>
		<g>
			<g>
				<g>
					<g>
						<g>
							<path class="st0" d="M723,295.5H528.8c-3.5,0-6.3-2.8-6.3-6.3V6.3c0-3.5,2.8-6.3,6.3-6.3H723c3.5,0,6.3,2.8,6.3,6.3v282.9
								C729.3,292.7,726.5,295.5,723,295.5z M528.8,0.3c-3.3,0-6,2.7-6,6v282.9c0,3.3,2.7,6,6,6H723c3.3,0,6-2.7,6-6V6.3
								c0-3.3-2.7-6-6-6H528.8z"/>
						</g>
					</g>
					<g>
						<g>
							<path class="st0" d="M499,295.5H304.8c-3.5,0-6.3-2.8-6.3-6.3V6.3c0-3.5,2.8-6.3,6.3-6.3H499c3.5,0,6.3,2.8,6.3,6.3v282.9
								C505.3,292.7,502.5,295.5,499,295.5z M304.8,0.3c-3.3,0-6,2.7-6,6v282.9c0,3.3,2.7,6,6,6H499c3.3,0,6-2.7,6-6V6.3
								c0-3.3-2.7-6-6-6H304.8z"/>
						</g>
					</g>
				</g>
				<g>
					<g>
						<g>
							<path class="st0" d="M275.2,295.5H81c-3.5,0-6.3-2.8-6.3-6.3V6.3C74.7,2.8,77.5,0,81,0h194.2c3.5,0,6.3,2.8,6.3,6.3v282.9
								C281.5,292.7,278.7,295.5,275.2,295.5z M81,0.3c-3.3,0-6,2.7-6,6v282.9c0,3.3,2.7,6,6,6h194.2c3.3,0,6-2.7,6-6V6.3
								c0-3.3-2.7-6-6-6H81z"/>
						</g>
					</g>
				</g>
			</g>
			<g>
				<g>
					<rect x="-1" y="361.2" class="st0" width="806" height="0.1"/>
				</g>
			</g>
		</g>
		<g>
			<rect x="701.4" y="392.7" class="st4" width="59.9" height="0.5"/>
			<rect x="531" y="397.6" class="st4" width="15.7" height="0.5"/>
			<rect x="42.7" y="379" class="st4" width="78.1" height="0.5"/>
			<rect x="136.9" y="379" class="st4" width="11.5" height="0.5"/>
			<rect x="185.5" y="386.6" class="st4" width="169.4" height="0.5"/>
		</g>
	</g>
	<g>
		<g>
			<path class="st3" d="M675.4,449.7c0,3.6-122.4,6.6-273.4,6.6s-273.4-3-273.4-6.6c0-3.6,122.4-6.6,273.4-6.6
				S675.4,446.1,675.4,449.7z"/>
		</g>
	</g>
	<g>
		<g>
			<path class="st5" d="M193.3,163.4H79.7c-2.3,0-4.1-1.8-4.1-4.1V95.2c0-2.3,1.8-4.1,4.1-4.1h113.6c2.3,0,4.1,1.8,4.1,4.1v64.1
				C197.4,161.5,195.6,163.4,193.3,163.4z"/>
			<path class="st6" d="M193.3,163.4H79.7c-2.3,0-4.1-1.8-4.1-4.1V95.2c0-2.3,1.8-4.1,4.1-4.1h113.6c2.3,0,4.1,1.8,4.1,4.1v64.1
				C197.4,161.5,195.6,163.4,193.3,163.4z"/>
		</g>
		<path class="st7" d="M93.9,131.2c0.5-0.5,14.8-14.6,14.8-14.6l14.1,6.9l13.7-16.2l14.1,20.3l13.7-9"/>
		<rect x="91.7" y="137.6" class="st5" width="6.6" height="14.6"/>
		<rect x="105.3" y="127.9" class="st5" width="6.6" height="24.3"/>
		<rect x="119.1" y="130.3" class="st5" width="6.6" height="21.8"/>
		<rect x="133.2" y="116.7" class="st5" width="6.6" height="35.5"/>
		<rect x="147.4" y="135.5" class="st5" width="6.6" height="16.7"/>
		<path class="st5" d="M98.6,129.6c0,2-1.6,3.5-3.5,3.5s-3.5-1.6-3.5-3.5c0-2,1.6-3.5,3.5-3.5S98.6,127.6,98.6,129.6z"/>
		<path class="st5" d="M112.1,116.7c0,2-1.6,3.5-3.5,3.5c-2,0-3.5-1.6-3.5-3.5c0-2,1.6-3.5,3.5-3.5
			C110.5,113.1,112.1,114.7,112.1,116.7z"/>
		<path class="st5" d="M126.3,122.5c0,2-1.6,3.5-3.5,3.5c-2,0-3.5-1.6-3.5-3.5c0-2,1.6-3.5,3.5-3.5
			C124.7,118.9,126.3,120.5,126.3,122.5z"/>
		<path class="st5" d="M140,107.4c0,2-1.6,3.5-3.5,3.5c-2,0-3.5-1.6-3.5-3.5c0-2,1.6-3.5,3.5-3.5C138.5,103.9,140,105.5,140,107.4z"
			/>
		<path class="st5" d="M154.1,127.7c0,2-1.6,3.5-3.5,3.5c-2,0-3.5-1.6-3.5-3.5c0-2,1.6-3.5,3.5-3.5
			C152.5,124.1,154.1,125.7,154.1,127.7z"/>
		<rect x="161.5" y="127.1" class="st5" width="6.6" height="25"/>
		<rect x="105.3" y="127.9" class="st8" width="6.6" height="24.3"/>
		<rect x="133.2" y="116.7" class="st8" width="6.6" height="35.5"/>
		<rect x="161.5" y="127.1" class="st8" width="6.6" height="25"/>
		<rect x="176.1" y="135.5" class="st5" width="6.6" height="16.7"/>
		<line class="st7" x1="164.3" y1="118.7" x2="179.4" y2="127.1"/>
		<path class="st5" d="M168.6,118.7c0,2-1.6,3.5-3.5,3.5c-2,0-3.5-1.6-3.5-3.5c0-2,1.6-3.5,3.5-3.5
			C167,115.2,168.6,116.8,168.6,118.7z"/>
		<circle class="st5" cx="179.4" cy="127.1" r="3.5"/>
	</g>
	<g>
		<circle class="st9" cx="699.3" cy="346.7" r="61.4"/>
		<g>
			<rect x="669.4" y="335.5" class="st5" width="60.7" height="42.9"/>
			<rect x="669.4" y="335.5" class="st8" width="28.8" height="42.9"/>
			<polygon class="st5" points="669.4,335.5 659.5,352.1 688.1,352.1 698.2,335.5 			"/>
			<polygon class="st5" points="698.2,335.5 708.8,352.1 739.1,352.1 730.1,335.5 			"/>
			<polygon class="st8" points="698.2,335.5 708.8,352.1 739.1,352.1 730.1,335.5 			"/>
			<g>
				<g>
					<path class="st10" d="M689,325.1c-2.5-3.5-4.9-6.9-7.4-10.4c-0.3-0.4-0.9,0-0.6,0.4c2.5,3.5,4.9,6.9,7.4,10.4
						C688.6,325.9,689.2,325.5,689,325.1L689,325.1z"/>
				</g>
			</g>
			<g>
				<g>
					<path class="st10" d="M699.1,324.8c-0.1-5.6-0.2-11.3-0.3-16.9c0-0.5-0.8-0.5-0.8,0c0.1,5.6,0.2,11.3,0.3,16.9
						C698.3,325.3,699.1,325.3,699.1,324.8L699.1,324.8z"/>
				</g>
			</g>
			<g>
				<g>
					<path class="st10" d="M709.2,325.2c1.8-3.2,3.6-6.4,5.4-9.7c0.2-0.4-0.4-0.8-0.6-0.4c-1.8,3.2-3.6,6.4-5.4,9.7
						C708.3,325.2,709,325.6,709.2,325.2L709.2,325.2z"/>
				</g>
			</g>
			<g>
				<g>
					<path class="st10" d="M715.7,312.8C715.7,312.8,715.7,312.8,715.7,312.8c-0.1-0.1-0.1-0.1-0.2-0.1c0,0-0.1,0-0.1,0
						c-0.1,0-0.1,0-0.1,0c0,0-0.1,0-0.1,0.1c0,0,0,0.1-0.1,0.1c0,0.1-0.1,0.1-0.1,0.2c0,0,0,0.1,0,0.1c0,0.1,0,0.1,0.1,0.2
						c0,0,0,0,0.1,0.1c0,0,0.1,0.1,0.1,0.1c0,0,0.1,0,0.1,0c0.1,0,0.1,0,0.1,0c0,0,0.1,0,0.1-0.1c0,0,0-0.1,0.1-0.1
						c0-0.1,0.1-0.1,0.1-0.2c0,0,0-0.1,0-0.1C715.8,312.9,715.7,312.9,715.7,312.8L715.7,312.8z"/>
				</g>
			</g>
		</g>
	</g>
	<g>
		<g>
			<g>
				<path class="st5" d="M582.3,155.9l12,56.7c0.5,2.6-2.1,4.7-4.5,3.5l-42.1-20.7c-1.8-0.9-2.3-3.3-1-4.9l30-36
					C578.5,152.5,581.8,153.3,582.3,155.9z"/>
				<path class="st8" d="M582.3,155.9l12,56.7c0.5,2.6-2.1,4.7-4.5,3.5l-42.1-20.7c-1.8-0.9-2.3-3.3-1-4.9l30-36
					C578.5,152.5,581.8,153.3,582.3,155.9z"/>
				<g>
					<path class="st5" d="M584.9,203l-4.7-32.4c20.1-2.9,37.4-15.5,46.3-33.6c14.9-30.3,2.3-67-28-81.9c-30.3-14.9-67-2.3-81.9,28
						c-6.4,13.1-8,28.1-4.3,42.2l-31.7,8.2c-5.6-21.7-3.2-44.7,6.6-64.8c22.8-46.5,79.2-65.8,125.7-43c46.5,22.8,65.8,79.2,43,125.7
						C642.3,179.3,615.7,198.6,584.9,203z"/>
				</g>
				<g class="st8">
					<path d="M584.9,203l-4.7-32.4c20.1-2.9,37.4-15.5,46.3-33.6c14.9-30.3,2.3-67-28-81.9c-30.3-14.9-67-2.3-81.9,28
						c-6.4,13.1-8,28.1-4.3,42.2l-31.7,8.2c-5.6-21.7-3.2-44.7,6.6-64.8c22.8-46.5,79.2-65.8,125.7-43c46.5,22.8,65.8,79.2,43,125.7
						C642.3,179.3,615.7,198.6,584.9,203z"/>
				</g>
			</g>
			<g>
				<g>
					<g>
						
							<ellipse transform="matrix(0.9628 -0.2701 0.2701 0.9628 -6.9092 159.4087)" class="st5" cx="575.7" cy="104.8" rx="38" ry="38"/>
						
							<ellipse transform="matrix(0.9628 -0.2701 0.2701 0.9628 -6.9092 159.4087)" class="st8" cx="575.7" cy="104.8" rx="38" ry="38"/>
						
							<ellipse transform="matrix(0.7825 -0.6227 0.6227 0.7825 60.799 379.5527)" class="st5" cx="573.7" cy="102.8" rx="38" ry="38"/>
						
							<ellipse transform="matrix(0.5136 -0.858 0.858 0.5136 190.8599 542.1991)" class="st11" cx="573.7" cy="102.8" rx="31.5" ry="31.5"/>
						<g>
							<path d="M558.5,125.1l4.2-6.2c0.1,0.1,0.2,0.2,0.4,0.2l-4,6.3C558.9,125.4,558.7,125.3,558.5,125.1z M550.2,116.1
								c-0.1-0.2-0.2-0.4-0.3-0.6l6.6-3.5c0.1,0.1,0.1,0.3,0.2,0.4L550.2,116.1z M570.7,129.6l0.8-7.4l0.5,0l-0.7,7.5
								C571.1,129.6,570.9,129.6,570.7,129.6z M546.7,103.6c0-0.2,0-0.4,0-0.6l7.5-0.1l0,0.5L546.7,103.6z M583.5,127.9l-2.7-7
								l0.4-0.2l3,6.9l-0.2,0.1C583.9,127.8,583.7,127.9,583.5,127.9z M549.3,91c0.1-0.2,0.2-0.4,0.3-0.6l6.7,3.4
								c-0.1,0.1-0.1,0.3-0.2,0.4L549.3,91z M588.5,115.5c0.1-0.1,0.2-0.2,0.3-0.3l5.8,4.8c-0.1,0.2-0.3,0.3-0.4,0.5L588.5,115.5z
								 M562,87.1l-4.4-6l0.5-0.4l4.3,6.1L562,87.1z M592.7,107.2l0.1-0.4l7.3,1.6c0,0.2-0.1,0.4-0.1,0.6L592.7,107.2z M570.7,83.4
								l-1.2-7.4c0.2,0,0.4-0.1,0.6-0.1l1,7.4L570.7,83.4z M592.6,97.9c0-0.1-0.1-0.3-0.1-0.4l7.2-2.1c0.1,0.2,0.1,0.4,0.2,0.6
								L592.6,97.9z M580,84.3l2.4-7.1c0.2,0.1,0.4,0.1,0.6,0.2l-2.6,7C580.3,84.4,580.1,84.3,580,84.3z M588.2,89.6l-0.3-0.3
								l5.4-5.2c0.1,0.2,0.3,0.3,0.4,0.5L588.2,89.6z"/>
						</g>
					</g>
					<g>
						<polyline class="st12" points="565.7,91 573.3,104 585.5,92.1 						"/>
						<path d="M575.5,104.6c-0.9,1-2.3,1.1-3.3,0.2c-1-0.9-1.1-2.3-0.2-3.3c0.9-1,2.3-1.1,3.3-0.2
							C576.2,102.1,576.3,103.6,575.5,104.6z"/>
					</g>
				</g>
				<path class="st8" d="M552.6,82.4c12.5-12.1,32.5-11.8,44.6,0.7c3,3.1,5.2,6.6,6.7,10.3c-1.4-4.7-3.9-9.1-7.6-12.9
					c-12.1-12.5-32.1-12.8-44.6-0.7c-9.4,9.2-11.9,22.8-7.4,34.3C541.1,103.2,543.9,90.9,552.6,82.4z"/>
			</g>
		</g>
		<g>
			<g>
				<g>
					<path class="st5" d="M257.2,328.1c-27.4-30.4-42.5-69.7-42.5-110.6c0-75,50.6-140.7,123.1-159.8L325.6,73l21.3,19.5
						c-56.7,14.9-96.3,66.3-96.3,125c0,32,11.8,62.8,33.2,86.5L257.2,328.1z"/>
				</g>
				<path class="st5" d="M260.7,330.2c1.3-0.3,45.4,0,45.4,0L283.9,304l-26.7,24.1L260.7,330.2z"/>
			</g>
			<g class="st8">
				<g>
					<path d="M257.2,328.1c-27.4-30.4-42.5-69.7-42.5-110.6c0-75,50.6-140.7,123.1-159.8L325.6,73l21.3,19.5
						c-56.7,14.9-96.3,66.3-96.3,125c0,32,11.8,62.8,33.2,86.5L257.2,328.1z"/>
				</g>
				<path d="M260.7,330.2c1.3-0.3,45.4,0,45.4,0L283.9,304l-26.7,24.1L260.7,330.2z"/>
			</g>
			<g>
				<g>
					<g>
						<path class="st5" d="M585.9,388.7v-58c0-2.6,3-4.1,5.1-2.5l36.9,29c1.6,1.3,1.6,3.7,0,5l-36.9,29
							C589,392.8,585.9,391.4,585.9,388.7z"/>
					</g>
					<g>
						<rect x="387" y="342.5" class="st5" width="204.9" height="34.5"/>
					</g>
				</g>
				<path class="st8" d="M627.6,357.2l-36.9-29c-2.1-1.6-5.1-0.2-5.1,2.5v11.8H378.2V377h207.3v11.8c0,2.6,3,4.1,5.1,2.5l36.9-29
					C629.2,360.9,629.2,358.5,627.6,357.2z"/>
				<path class="st5" d="M378.2,52.3v35.3c70,0,127,57,127,127c0,70-57,127-127,127H151.3V377h226.9c89.5,0,162.3-72.8,162.3-162.3
					C540.5,125.2,467.7,52.3,378.2,52.3z"/>
				<path class="st5" d="M385.1,41.1l-0.1,58c0,2.6-3.1,4.1-5.1,2.5L343,72.5c-1.6-1.3-1.6-3.7,0-5L380,38.6
					C382,37,385.1,38.5,385.1,41.1z"/>
			</g>
		</g>
		<path class="st8" d="M385,342.7c0.7,0-14.4,9.6-24.6,9.5l-1,25.8h-6.8l-12.9-34.5L385,342.7z"/>
		<g>
			<g>
				<g>
					<path class="st10" d="M372.6,164.1c4.7,7.5,6.5,12,7.2,19.4c0.9,8.6,0.8,16.2-1,18.5c-2.4,3-29.5,7-44.8,7.1
						c-0.6,0-1.2-4.8-1.2-4.8s-1.9,4.8-2.7,4.8c-4.2,0-6.9,0-6.9,0s3.1-7.3,6.2-33.1c1.5-12.6,13.9-18.2,21.2-19.5
						C362.9,154.3,372.6,164.1,372.6,164.1z"/>
					<path class="st10" d="M337.4,190c-4.3-6.7-9.1-25.2,7.2-31.7c20.5-8.1,30.4,4.7,32.8,17.7c2.4,13.1-4.5,23.3-18.3,23
						C345.3,198.7,340.4,194.7,337.4,190z"/>
					<g>
						<g>
							<g>
								<path class="st13" d="M371.6,214.8c0,0-4.6,3.5-10.5,8.6c-1.2,1.1-2.6,2-4,2.7c-3.9,2.1-7.4,3.2-8.4,1.4
									c-0.2-0.4-0.4-0.9-0.5-1.3c-0.8-3.1-0.5-7.5,2.1-9.6c2.9-2.3,4.2-4.2,3.7-7.3c-0.3-1.7-0.9-3.5-1.6-5.3l2.2-2.6l11.8-11.9
									C366,197.5,365.4,210.5,371.6,214.8z"/>
							</g>
							<path class="st14" d="M354,210.1c3.2-1.9,6.8-5.2,6.4-9.1c-0.2-1.6-0.5-3.1-0.9-4.1l-6.6,8.7
								C353.4,207,353.6,207.9,354,210.1z"/>
							<path class="st13" d="M369.6,176.9c-1.1,12.1-1.3,17.2-7.6,23.5c-9.4,9.5-23.8,6.3-26.3-5.7c-2.2-10.8-0.1-28.7,11.8-33.8
								C359.3,156,370.7,164.8,369.6,176.9z"/>
							<path class="st10" d="M354.5,181.3c-0.1,1.2-0.8,2.2-1.7,2.2c-0.9,0-1.5-1-1.4-2.2c0.1-1.2,0.8-2.2,1.7-2.2
								C353.9,179.1,354.5,180,354.5,181.3z"/>
							<path class="st10" d="M341.9,181c-0.1,1.2-0.8,2.1-1.6,2.1c-0.8,0-1.5-0.9-1.4-2.1c0.1-1.2,0.8-2.1,1.6-2.1
								C341.4,178.9,342,179.9,341.9,181z"/>
							<path class="st10" d="M356.2,176.8c-0.2,0-0.3,0-0.5-0.1c-2.1-1.5-4.4-0.7-4.4-0.7c-0.3,0.1-0.7,0-0.8-0.3
								c-0.1-0.3,0.1-0.7,0.4-0.8c0.1,0,2.9-1.1,5.6,0.8c0.3,0.2,0.3,0.6,0.1,0.8C356.5,176.7,356.3,176.8,356.2,176.8z"/>
							<path class="st10" d="M337.6,175.2c-0.1-0.1-0.2-0.2-0.3-0.3c-0.1-0.3,0.1-0.6,0.4-0.7c3.2-1.1,5.4,0.5,5.5,0.5
								c0.3,0.2,0.3,0.5,0.1,0.8c-0.2,0.3-0.6,0.3-0.9,0.1c-0.1-0.1-1.8-1.2-4.4-0.4C338,175.2,337.8,175.2,337.6,175.2z"/>
							<path class="st10" d="M359.5,166.1c-3.8,4-1.9,19.3,8.9,21.3C380.8,184.5,371,154.1,359.5,166.1z"/>
							<path class="st10" d="M345.1,192.3c1,1.5,2.2,4.4,2.2,4.4c0.3-0.1,0.6-0.1,0.9-0.2c3.8-0.9,5.3-2.6,5.8-4.2
								c0.3-0.9,0.2-1.7,0.1-2.4c-0.1-0.8-0.4-1.3-0.4-1.3c-1.8,1.7-5.3,2.8-7.2,3.3C345.6,192.2,345.1,192.3,345.1,192.3z"/>
							<path class="st11" d="M346.4,192l0.7,1.3c3.6-0.9,6.1-1.9,6.9-3.3c-0.1-0.8-0.4-1.3-0.4-1.3
								C351.8,190.4,348.3,191.5,346.4,192z"/>
							<path class="st15" d="M348.1,196.6c3.8-0.9,5.3-2.6,5.8-4.2c-1.3,0.4-2.8,0.9-4.1,1.8C348.9,194.9,348.4,195.8,348.1,196.6z"
								/>
							<path class="st16" d="M345.3,180.2c0,0-2.3,5.4-4.7,8.1c1.5,1.5,4.3,0.7,4.3,0.7L345.3,180.2z"/>
						</g>
						<path class="st10" d="M350.6,178.5l2.8,0.7C352.2,180.6,350.6,178.5,350.6,178.5z"/>
						<path class="st10" d="M338.3,178.4l2.8,0.7C339.8,180.5,338.3,178.4,338.3,178.4z"/>
					</g>
					<path class="st10" d="M347.7,158.4c-4.8,1.6-9.8,9.9-10.7,13.1c6.8,1.1,25.1-5.2,25.1-5.2s12.2,3.4,6-2.8
						C361.9,157.2,347.7,158.4,347.7,158.4z"/>
					<path class="st13" d="M373.3,186.7c-1.4,2.5-3.7,4-5.9,4.6c-3.2,0.8-4.8-4.3-3.8-7.5c1-2.9,4.1-4.8,7.2-4.2
						C374,180.2,374.9,183.9,373.3,186.7z"/>
					<path class="st7" d="M331.1,173.6c-0.7,5.3-1.4,10.7-3.2,15.7c-1.8,5.1-5.5,15.5-10,18.5"/>
				</g>
				<circle class="st5" cx="368.7" cy="191" r="2.3"/>
				<path class="st17" d="M370.8,183.3c-1.1-0.3-2.3-0.1-3.2,0.6c-0.9,0.7-1.5,1.7-1.5,2.8"/>
			</g>
			<g>
				<path class="st13" d="M276.5,292.6c0.6-1.7,4.9-7.2,7.2-9.3c2.3-2.1,10.4-6.6,10.4-6.6l6.8,6.5c0,0-0.6,3.7-3.4,5.1
					c-1.6,0.8-3.2,1.4-3.2,1.4s0,1.5-0.4,3c-0.4,1.7-1.3,3.7-2.7,3.3c-1.4-0.4-0.7-5-0.7-5.7c-0.1,0.7-0.9,5.3-2.8,5
					c-1.8-0.3-0.9-5.1-0.9-5.1s-0.7,2.2-1,3.3c-0.3,1.1-1.7,1.8-2.5,0.3c-0.8-1.8-0.3-4.3-0.3-4.3s-1.3,1.2-3.6,4.1
					C278,295.5,276,294,276.5,292.6z"/>
				<path class="st17" d="M290.5,291.1c0.2-0.9,0.4-1.7,0.7-2.6c0.3-0.8,0.8-1.6,1.6-2.1"/>
				<path class="st17" d="M286.7,290.7c0.2-0.9,0.4-1.7,0.7-2.6c0.3-0.8,0.8-1.6,1.6-2.1"/>
				<path class="st17" d="M283.2,289.5c0.2-0.9,0.4-1.7,0.7-2.6c0.3-0.8,0.8-1.6,1.6-2.1"/>
			</g>
			<g>
				<path class="st13" d="M330,232.7c0,0.8-2.2,28.2-2.2,28.2c-1.5,2.9-32.9,13.8-36.9,17.7l7.3,7.5c0,0,37.4-7.5,43.4-11.9
					c5.1-3.7,4.7-10.3,4.7-19.3c0-9,3.1-21.5,3.1-21.5L330,232.7z"/>
				<path class="st5" d="M344.2,216.5c-14.8,2.5-16.8,24.5-16.8,24.5l-2.3,17.4l-8.4,6.1l7.9,16.8c0,0,16.8-6.4,24.1-10.7
					c7.4-4.4,7.6-37.8,7.6-37.8L344.2,216.5z"/>
				<path class="st14" d="M341.6,273.2c0.3,0.1-6.2,3.7-6.2,3.7c-0.1,0-2.3-9.6-2.4-9.5c-3.6-16.1-1.2-29-1.2-29
					C334.5,244.1,340.9,268.5,341.6,273.2z"/>
			</g>
			<g>
				<path class="st10" d="M344.8,293c12.3-1.2,28.4-2.2,49.3-2.7c0,0,15.6,36.7-2.9,47.7c-5.6,3.3-14.8,4.6-24.9,4.8
					c-11.8,0.3-21.5-9.2-21.5-20.9V293z"/>
				<path class="st10" d="M385.2,323.3v17.2c-15.4,4.4-47.3,2.7-66.2,1.2c-8.5-0.7-15.1-7.8-15.1-16.4v-14.1c0-4.7,2.9-8.9,7.3-10.5
					c9.2-3.5,25.9-8.6,43.4-8.3C371.5,292.6,385.2,306.3,385.2,323.3z"/>
			</g>
			<g>
				<path class="st5" d="M396.9,290.4c-2.4-3.2-7.9-10.7-8.6-18.6c0,0,0,0,0-0.1c0-0.5-0.1-1-0.1-1.5c-0.1-3.4-0.1-7.4,0.1-12.2
					c0-0.7,0.1-1.5,0.1-2.3c0.1-2.5,0.3-5.2,0.6-8.2c0.4-5.3,1.1-11.3,2-18.2c0.2-1.6,1.7-4,1.9-5.7c1-7.5-5.8-12.9-13.2-12.6
					c-2,0.1-4,0.2-6.2,0.4c-8.2,0.8-15,1.5-22.2,3.2c-2.4,0.6-4.8,1.2-7.2,1.9c-8.4,2.4-12.3,13.2-12.4,21.9
					c-0.1,8.1,5.6,24.6,9.5,39.2c0.6,8.3-4,12.9-2.6,15.8c1.4,2.9,41.6-5,58.2,4.9C396.9,298.3,399.4,293.7,396.9,290.4z"/>
				<path class="st18" d="M396.9,290.4c-2.4-3.2-7.9-10.7-8.6-18.6c0,0,0,0,0-0.1c0-0.5-0.1-1-0.1-1.5c-0.1-3.4-0.1-7.4,0.1-12.2
					c0-0.7,0.1-1.5,0.1-2.3c0.1-2.5,0.3-5.2,0.6-8.2c0.4-5.3,1.1-11.3,2-18.2c0.2-1.6,1.7-4,1.9-5.7c1-7.5-5.8-12.9-13.2-12.6
					c-2,0.1-4,0.2-6.2,0.4c-8.2,0.8-15,1.5-22.2,3.2c-2.4,0.6-4.8,1.2-7.2,1.9c-8.4,2.4-12.3,13.2-12.4,21.9
					c-0.1,8.1,5.6,24.6,9.5,39.2c0.6,8.3-4,12.9-2.6,15.8c1.4,2.9,41.6-5,58.2,4.9C396.9,298.3,399.4,293.7,396.9,290.4z"/>
				<path class="st14" d="M390.5,279.8c0,0-14.2,3.1-20.8,3.4c-6.6,0.3-20.9,4.8-20.9,4.8l-5.1,3.2l-1.8-4.2l8.6-7.7l37.6-7.6
					C388.5,274.8,390.2,279.2,390.5,279.8z"/>
				<polygon class="st14" points="374.2,233 372.4,257.3 364.3,265.2 370,269.6 377.6,265 381.6,251.3 				"/>
			</g>
			<g>
				<g>
					<path class="st10" d="M313.4,454.9l18.9-8.3l6-6.7l1.8,2.5l2.3-1c1.1-8.4-3-12.3-5.2-14.1c-0.2-0.1-0.4-0.3-0.6-0.5
						c-0.1-0.1-0.2-0.1-0.3-0.2c0,0-0.1-0.1-0.1-0.1c-0.1-0.1-0.2-0.1-0.3-0.2c0,0,0,0-0.1,0v0c-0.1,0-0.1-0.1-0.2-0.1l-10.4,4.6
						c0,0-0.2,0.5-0.5,1.4c-1,2.9-3.6,9.6-6.4,13.1c-0.1,0.2-0.2,0.3-0.4,0.4c-0.3,0.4-0.7,0.8-1.1,1.1
						C309.1,453.2,313.4,454.9,313.4,454.9z"/>
					<path class="st13" d="M318,445.7c2.9,1.2,7.1-1.8,10.3-5.6c1.8-2.2,3.5-5.6,5-8.4c1-1.8,1.9-3.3,2.7-4.1
						c0.4-0.4,0.8-0.6,1.2-0.4c0,0,0,0,0,0c-0.2-0.1-0.4-0.3-0.6-0.5c-0.1-0.1-0.2-0.1-0.3-0.2c0,0-0.1-0.1-0.1-0.1
						c-0.1-0.1-0.2-0.1-0.3-0.2c0,0,0,0-0.1,0v0c-0.1,0-0.1-0.1-0.2-0.1c-1.1-0.8-2.3-1.6-2.3-1.6l-9.7,2.4l0.8,3.7
						c-1.1,3.8-3.4,11.2-6,14.6C318.2,445.4,318.1,445.6,318,445.7z"/>
				</g>
				<path class="st13" d="M302.2,373.2c6,14.9,15.4,34,22.2,57.8c0.1,0.4,0.3,0.9,0.4,1.3c0.1,0.5,0.3,0.9,0.4,1.4l7.1-1.7l0.3-1.2
					c0,0,2.5-1.9,2-2.3c-0.3-0.3-0.1-0.8-0.1-1.3v0c-1.9-16.6-9.3-77.7-16.6-90.4c0,0,8.3,1.5,14.6,0.5c4.5-0.8,10-32.2,10-32.2
					s-11.6-3.3-23.4-3.3h-0.2c0,0-23.3,6.9-29.3,12.1c-5.6,4.9-6.4,13-3.3,22.5C289.2,345.1,294.7,354.7,302.2,373.2z"/>
				<path class="st19" d="M295.5,321.3c1.4-5.4,11.4-10.7,21.7-13.6c1.7-2.2-2.6-4.7-2.6-4.7l20.3-1.8l3.5,2.6l6.1,1.3l-5.4,24.3
					l-22.2,3.9l14,65.2l1.7,12.9c0,0-23.8-51.1-28.8-61.9C298.9,338.4,293.1,330.7,295.5,321.3z"/>
				<path class="st13" d="M342.5,305c0,0-31.7,6.7-37.9,11.6c-5.3,4.2-5.4,9.6-3.7,14.7c4.7,14.2,21.7,37.9,41.1,105.8l11.1-3.5
					c-1.1,0-3.9-35.5-4.7-64c-0.4-13.4-7.3-25-10-29.7c0,0,11.3,1.5,17.6,0.5C364.2,339.1,369.3,312.1,342.5,305z"/>
				<path class="st14" d="M339.1,341.3c0,0-4.2-7-9.5-9.9c0,0,6.5,0.4,10.5,8.8l-1.7-0.2L339.1,341.3z"/>
				<g>
					<path class="st10" d="M356.9,448.3l-2.3,0.5l-1.9-3.2c-0.2-0.4-0.8-0.5-1.1-0.2l-6.6,6.1l-18,3.9c0,0-4-4.2,4.9-6.9
						c0.4-0.1,0.8-0.5,1.2-0.8c4.4-3.4,9.7-12.7,9.7-12.7l10.7-2.3c0,0,0.5,0.5,1.2,1.3C356.4,436.1,359.5,440.6,356.9,448.3z"/>
					<path class="st13" d="M354.7,434C354.7,434.1,354.7,434.1,354.7,434c-1.7-1.2-6.6,7.1-10.8,10.4c-3.7,3-8.2,5-10.8,3.3
						c4.4-3.4,10-15.2,10-15.2l8.6-1.9C351.6,430.7,354,433.2,354.7,434z"/>
				</g>
			</g>
			<g>
				<g>
					<path class="st10" d="M322,309.6l31.3-11.9c0.7-0.3,0.5-1.4-0.2-1.4l-50.2-0.6c-0.1,0-0.2,0-0.3,0.1l-19.3,12.5
						c-0.6,0.4-0.3,1.3,0.3,1.3h38.2C321.9,309.6,322,309.6,322,309.6z"/>
					<path class="st20" d="M322,309.6l31.3-11.9c0.7-0.3,0.5-1.4-0.2-1.4l-50.2-0.6c-0.1,0-0.2,0-0.3,0.1l-19.3,12.5
						c-0.6,0.4-0.3,1.3,0.3,1.3h38.2C321.9,309.6,322,309.6,322,309.6z"/>
					<polygon class="st20" points="322.2,306 342.3,298.6 318.7,298.1 					"/>
					<path class="st8" d="M353.3,297.7L322,309.6c-0.1,0-0.1,0-0.2,0h-0.5l-0.6-1.7l32.3-11.6C353.8,296.3,354,297.4,353.3,297.7z"
						/>
				</g>
				<g>
					<path class="st10" d="M281.2,309.6h40.7c0.7,0,1.3-0.5,1.3-1c0-0.1,0-0.2-0.1-0.3L305,266.8c-0.5-1.2-1.8-2-3.4-2h-40.7
						c-0.7,0-1.2,0.4-1.2,1c0,0.1,0,0.2,0.1,0.3l18.1,41.5C278.3,308.8,279.7,309.6,281.2,309.6z"/>
					<path class="st20" d="M260.9,264.8h40.7c1.5,0,2.9,0.8,3.4,2l18.1,41.5c0,0.1,0.1,0.2,0.1,0.3c0,0.6-0.6,1-1.3,1h-40.7
						c-1.5,0-2.9-0.8-3.4-2l-18.1-41.5c0-0.1-0.1-0.2-0.1-0.3C259.7,265.2,260.2,264.8,260.9,264.8z"/>
					<path class="st11" d="M286.2,288.1c0.9,2,2.7,3.4,4,3.1c1.3-0.3,1.7-2.1,0.8-4.1c-0.9-2-2.7-3.3-4-3.1
						C285.7,284.3,285.3,286.1,286.2,288.1z"/>
				</g>
				<path class="st8" d="M301.4,264.8h0.2c1.5,0,2.9,0.8,3.4,2l18.1,41.5c0,0.1,0.1,0.2,0.1,0.3c0,0.6-0.6,1-1.3,1h-1.3L301.4,264.8
					z"/>
			</g>
			<g>
				<path class="st13" d="M375,230.7c0,0.8,2.4,27.9,2.4,27.9c-1.5,2.9-32.9,13.8-36.9,17.7l7.3,7.5c0,0,37.4-7.5,43.4-11.9
					c5.1-3.7,4.7-10.3,4.7-19.3c0-9-2-22-2-22H375z"/>
				<path class="st5" d="M378.1,214c-7.7,3.2-1.8,44.5-1.8,44.5l-7.6,3.2l4.7,17.6c0,0,9.3-1.8,18.7-3.7c9.9-2,11.3-24.8,6.4-43.3
					C393.5,213.9,387.2,210.2,378.1,214z"/>
				<g>
					<path class="st13" d="M327.4,296.1c0.2-1.8,3-8.2,4.7-10.8c1.7-2.6,8.4-9,8.4-9l8.2,4.6c0,0,0.3,3.8-2,5.7
						c-1.3,1.2-2.8,2.2-2.8,2.2s0.4,1.4,0.4,3c0,1.7-0.3,3.9-1.8,3.8c-1.4-0.1-2-4.7-2-5.3c0.1,0.7,0.5,5.4-1.5,5.5
						c-1.8,0.2-2.1-4.8-2.1-4.8s-0.1,2.3-0.2,3.5c-0.1,1.2-1.2,2.2-2.3,0.9c-1.3-1.5-1.4-4.1-1.4-4.1s-1,1.5-2.5,4.8
						C329.5,298.6,327.2,297.6,327.4,296.1z"/>
					<path class="st17" d="M340.5,291.2c0-0.9-0.1-1.8,0-2.7c0.1-0.9,0.4-1.7,1-2.4"/>
					<path class="st17" d="M336.8,291.8c0-0.9-0.1-1.8,0-2.7s0.4-1.7,1-2.4"/>
					<path class="st17" d="M333.1,291.5c0-0.9-0.1-1.8,0-2.7c0.1-0.9,0.4-1.7,1-2.4"/>
				</g>
			</g>
		</g>
	</g>
	<g>
		<circle class="st9" cx="114" cy="346.7" r="61.4"/>
		<g>
			<g>
				<path class="st10" d="M125.6,385.9c0,4-5.6,7.2-12.3,7.1c-6.8-0.1-12.2-3.4-12.2-7.4c0-4,5.6-7.2,12.3-7.1
					C120.2,378.6,125.7,381.9,125.6,385.9z"/>
				<path class="st10" d="M130.9,372.7c0.7-0.6,1.1-1.5,1.1-2.4c0-3.9-8.3-7.2-18.6-7.3c-10.3-0.1-18.7,3-18.7,6.9
					c0,0.9,0.4,1.8,1.1,2.4c-0.2,0.4-0.3,0.8-0.3,1.2c0,0.9,0.4,1.8,1.1,2.4c-0.2,0.4-0.3,0.8-0.3,1.3c0,0.9,0.4,1.8,1.1,2.4
					c-0.2,0.4-0.4,0.8-0.4,1.3c0.1,0.9,0.5,1.8,1.2,2.3c-0.3,0.4-0.4,0.8-0.4,1.3c0,3.3,6.9,6,15.4,6.1c8.6,0.1,15.5-2.4,15.6-5.7
					c0-0.5-0.1-0.9-0.4-1.3c0.7-0.6,1.1-1.4,1.2-2.3c0-0.5-0.1-0.9-0.3-1.3c0.7-0.6,1.1-1.4,1.2-2.3c0-0.4-0.1-0.9-0.3-1.3
					c0.7-0.6,1.1-1.4,1.2-2.3C131.3,373.5,131.1,373.1,130.9,372.7z"/>
				<path class="st21" d="M130.9,372.7c0.7-0.6,1.1-1.5,1.1-2.4c0-3.9-8.3-7.2-18.6-7.3c-10.3-0.1-18.7,3-18.7,6.9
					c0,0.9,0.4,1.8,1.1,2.4c-0.2,0.4-0.3,0.8-0.3,1.2c0,0.9,0.4,1.8,1.1,2.4c-0.2,0.4-0.3,0.8-0.3,1.3c0,0.9,0.4,1.8,1.1,2.4
					c-0.2,0.4-0.4,0.8-0.4,1.3c0.1,0.9,0.5,1.8,1.2,2.3c-0.3,0.4-0.4,0.8-0.4,1.3c0,3.3,6.9,6,15.4,6.1c8.6,0.1,15.5-2.4,15.6-5.7
					c0-0.5-0.1-0.9-0.4-1.3c0.7-0.6,1.1-1.4,1.2-2.3c0-0.5-0.1-0.9-0.3-1.3c0.7-0.6,1.1-1.4,1.2-2.3c0-0.4-0.1-0.9-0.3-1.3
					c0.7-0.6,1.1-1.4,1.2-2.3C131.3,373.5,131.1,373.1,130.9,372.7z"/>
				<path class="st5" d="M146.4,338c0.2-18.2-14.4-33.2-32.6-33.4c-18.2-0.2-33.2,14.4-33.4,32.6c-0.1,9.9,4.2,19.3,11.8,25.7
					c1.4,1.1,2.1,2.9,1.9,4.7c0,0.1,0,0.2,0,0.3c0,4,8.4,7.3,18.9,7.4c10.4,0.1,19-3,19-7c0-0.1,0-0.2,0-0.3
					c-0.2-1.8,0.6-3.6,2.1-4.8C141.7,357.1,146.2,347.9,146.4,338z"/>
				<path class="st22" d="M146.4,338c0.2-18.2-14.4-33.2-32.6-33.4c-18.2-0.2-33.2,14.4-33.4,32.6c-0.1,9.9,4.2,19.3,11.8,25.7
					c1.4,1.1,2.1,2.9,1.9,4.7c0,0.1,0,0.2,0,0.3c0,4,8.4,7.3,18.9,7.4c10.4,0.1,19-3,19-7c0-0.1,0-0.2,0-0.3
					c-0.2-1.8,0.6-3.6,2.1-4.8C141.7,357.1,146.2,347.9,146.4,338z"/>
				<path class="st23" d="M130.8,318.9c0,6.4-7.5,11.6-16.8,11.6c-9.3,0-16.8-5.2-16.8-11.6s7.5-11.7,16.8-11.7
					C123.3,307.2,130.8,312.4,130.8,318.9z"/>
			</g>
			<path class="st24" d="M88.2,350.2c-2.9-4.9-4-10.8-3.2-16.5c0.8-5.6,3.6-11,7.8-14.9"/>
			<g>
				<path class="st10" d="M98.1,383.3c9.5,4,20.5,4.2,30.2,0.4C118.8,387.7,107.5,387.6,98.1,383.3L98.1,383.3z"/>
			</g>
			<g>
				<path class="st10" d="M97.9,379.7c9.5,4,20.5,4.2,30.2,0.4C118.5,384.2,107.3,384.1,97.9,379.7L97.9,379.7z"/>
			</g>
			<g>
				<path class="st10" d="M97.7,376.2c9.5,4,20.5,4.2,30.2,0.4C118.3,380.6,107,380.5,97.7,376.2L97.7,376.2z"/>
			</g>
			<path class="st25" d="M106.2,368.4c2.5-8.6,3-18,1.3-26.9c-0.3-1.4-0.9-3.2-2.2-3.2c-1.2,0-1.9,1.4-2.2,2.7
				c-0.9,4.5,1.5,9.1,4.5,12.3c1.6,1.7,3.6,3.2,5.8,3.3c2.2,0.1,4.3-1.2,5.9-2.9c3.1-3.3,4.6-8.6,3.5-13.2c-0.5-2-1.9-4.1-3.6-3.7
				c-1.1,0.2-1.8,1.3-2.1,2.5c-0.3,1.2-0.1,2.4,0,3.7c1.1,8.8,3.3,17.4,6.4,25.5"/>
		</g>
	</g>
	<g>
		<g>
			<path class="st26" d="M453.1,395.5c0,0,106-24.8,111-2.8c7.2,31.5-69.3,52.7-110,51.4C413.4,442.8,453.1,395.5,453.1,395.5z"/>
			<path class="st27" d="M453.1,395.5c0,0,106-24.8,111-2.8c7.2,31.5-69.3,52.7-110,51.4C413.4,442.8,453.1,395.5,453.1,395.5z"/>
			<path class="st28" d="M529.3,399.5l-49.8,31.6l6.6,9.4c0,0-3.5,5.2-10.2-10.7l30.8-20.4c0,0-9.6-1-9.4-2.5
				c0.4-2.5,21.6-7.2,31.2-9.3c0.5-0.2,1,0.1,1.2,0.6C530.1,398.8,529.8,399.3,529.3,399.5z"/>
			<path class="st28" d="M477.8,427.6l8.6,14c-10.6,1.9-21.5,2.7-32.3,2.5c-3.6,0-7.1-0.7-10.4-1.9l-3-5.5l6.5-13.1L477.8,427.6z"/>
			<g>
				<g>
					<g>
						<g>
							<g>
								<polygon class="st29" points="494.2,422 472.1,436.1 476.1,446.8 502.1,435.1 								"/>
							</g>
						</g>
					</g>
				</g>
				<g>
					<g>
						<g>
							<g>
								<g>
									<g>
										<g>
											<g>
												<g>
													<g>
														<g>
															<g>
																<path class="st10" d="M459.9,439.7l2.2,7.7c0,0,1.6,0.3,2.1,2c0.3,0.9-0.4,3.4-0.4,3.4l5.8,21.3c0,0,1.5-0.4,2-0.8
																	c0.7-0.5,1.3-1,1.7-1.5c1.6-1.8,1.7-4.4,1.8-6.4c0.1-3.3,2-12.8,2-12.8s0.7-2.5,3.3-4.7c1.5-1.2,2.1-2.8,2-3.7
																	c-0.3-1.9-1.7-2.7-3.5-2.5l-2.1,0.3c-1.5-1.1-2-3-1-4.9c0,0,1.3-4.6-0.7-3.9c-1.1,0.4-6,2.6-9.9,4.2
																	c-0.9,0.4-1.8,0.7-2.5,1l0,0C461.1,439.2,459.9,439.7,459.9,439.7z"/>
															</g>
														</g>
													</g>
												</g>
											</g>
										</g>
										<g>
											<g>
												<g>
													<g>
														<path class="st5" d="M476.3,457.6c0.1-0.1,0-0.3-0.1-0.4c-0.5-0.4-1-0.7-1.7-0.9c-0.3-0.1-0.5,0.5-0.2,0.5
															c0.6,0.1,1.1,0.4,1.5,0.7C476.1,457.8,476.3,457.8,476.3,457.6C476.3,457.6,476.3,457.6,476.3,457.6z"/>
													</g>
												</g>
											</g>
										</g>
										<g>
											<g>
												<g>
													<g>
														<path class="st5" d="M476.8,455.8c0.1-0.1,0-0.3-0.1-0.4c-0.5-0.4-1-0.7-1.7-0.9c-0.3-0.1-0.5,0.5-0.2,0.5
															c0.6,0.1,1.1,0.4,1.5,0.7C476.5,455.9,476.7,455.9,476.8,455.8C476.8,455.8,476.8,455.8,476.8,455.8z"/>
													</g>
												</g>
											</g>
										</g>
										<g>
											<g>
												<g>
													<g>
														<path class="st5" d="M477.1,453.8c0.1-0.1,0-0.3-0.1-0.4c-0.5-0.4-1-0.7-1.7-0.9c-0.3-0.1-0.5,0.5-0.2,0.5
															c0.6,0.1,1.1,0.4,1.5,0.7C476.9,454,477.1,454,477.1,453.8C477.1,453.8,477.1,453.8,477.1,453.8z"/>
													</g>
												</g>
											</g>
										</g>
									</g>
								</g>
							</g>
						</g>
					</g>
				</g>
				<g>
					<path class="st23" d="M462.7,438.5L462.7,438.5c-1.7,0.7-2.8,1.2-2.8,1.2l2.2,7.7c0,0,1.6,0.3,2.1,2c0.3,0.9-0.4,3.4-0.4,3.4
						l5.8,21.3c0,0,1.5-0.4,2-0.8c0.3-0.2,0.6-0.5,0.9-0.7l-9.4-34.3C463,438.4,462.9,438.4,462.7,438.5z"/>
				</g>
				<path class="st30" d="M476.8,453.7c0.7-0.3,1.4-0.5,2.2-0.7c0.8-0.1,1.6-0.1,2.3,0.1c0.3,0.1,0.7,0.3,0.8,0.7
					c0.1,0.4-0.2,0.7-0.5,0.9c-0.6,0.4-1.4,0.5-2.1,0.4C478.8,455,477.4,454.1,476.8,453.7"/>
				<path class="st30" d="M476.8,453.6c0.6-0.5,1.2-1,1.7-1.5c0.5-0.6,0.9-1.3,1.1-2c0.1-0.4,0.1-0.8-0.2-1
					c-0.3-0.3-0.7-0.2-1.1-0.1c-0.7,0.3-1.2,0.9-1.4,1.6C476.7,451.2,476.8,452.9,476.8,453.6"/>
			</g>
		</g>
		<path class="st29" d="M496.9,328c0,0,3.9,34.5,4.9,36.3c3.5,6.3,26.7,17,26.7,17l11.8-2.5l8.5,7.1l-5.6,4.4l-6.6-2.5
			c-3.6,0.6-7.2,1-10.8,0.9c-6.1,0-35.5-7.5-40.5-15.7c-4.9-8.2-7.2-46.2-7.2-46.2L496.9,328z"/>
		<g>
			<path class="st5" d="M477.6,341.6c0,0-9.1-30.3,2.2-38.7c11.3-8.4,20.3,33.2,20.3,33.2L477.6,341.6z"/>
			<path class="st31" d="M477.6,341.6c0,0-9.1-30.3,2.2-38.7c11.3-8.4,20.3,33.2,20.3,33.2L477.6,341.6z"/>
			<path class="st5" d="M484.8,396.9l-0.1-40.1l-0.9-54.9l-23.7-5.1l-20.6-0.9l-23.5,10.7l-0.5,13.5c0,0,2.7,61.9,2.5,63.8
				c-0.2,2.3-6.8,16.6-6.8,16.6C440.9,407.2,485.3,399,484.8,396.9z"/>
			<path class="st31" d="M484.8,396.9l-0.1-40.1l-0.9-54.9l-23.7-5.1l-20.6-0.9l-23.5,10.7l-0.5,13.5c0,0,2.7,61.9,2.5,63.8
				c-0.2,2.3-6.8,16.6-6.8,16.6C440.9,407.2,485.3,399,484.8,396.9z"/>
			<g>
				<g>
					<path class="st10" d="M482.6,263.5c1.3-0.1,2.4-1.3,2.5-2.6c0.1-1.3-1-2.6-2.2-2.8l-6.1-0.6c0.3,3.9,0.6,7.8,0.9,11.7
						c1.2,0.3,2.4,0.4,3.6,0c1.1-0.4,2.2-1.3,2.5-2.5C484.1,265.5,483.7,264.1,482.6,263.5z"/>
				</g>
				<g>
					<path class="st29" d="M459.4,286l-13.1-16.4c0,0,0,0,0,0.1c0,1.6-0.1,3.3-0.2,5.2c0,0-1.4-0.7-1.4-0.7
						c-0.6,8.5-3.9,23.1-3.8,24.4l13.7,6.8h2.8l0.2-8.1C456.3,293.8,457.6,289.8,459.4,286z"/>
					<path class="st14" d="M457.5,291.5l-8.3-6.5c-0.2,3.3,1.5,8.5,8.2,11.3C457,294.3,457.1,292.9,457.5,291.5z"/>
				</g>
				<g>
					<path class="st29" d="M449.1,261.4c-2.7,11.1-3.7,16.4,0.1,23.6c5.7,10.9,19.6,11,25.5,0.9c5.4-9.1,8.9-25.6-0.4-33.1
						C465.1,245.4,451.8,250.4,449.1,261.4z"/>
					<path class="st10" d="M451.5,246.4c3.3-5.5,12.1-6.4,15.3-2.1c0.5,0.7-4.7,0.8-4.1,0.8l-3.1,8.7c-0.6-0.3-2.1,0-3.4,1.8
						c0,0-2,12-8.2,15.3C441.9,262.6,442.6,246.4,451.5,246.4z"/>
					<path class="st29" d="M442,269.1c0,3.1,1.4,5.8,3.2,7.6c2.7,2.6,5.9,0.6,6.7-2.9c0.7-3.2,0.1-8.3-3.4-9.6
						C445.1,262.9,442,265.6,442,269.1z"/>
					<path class="st10" d="M464.1,270.7c-0.3,1.1,0,2.2,0.7,2.4c0.7,0.2,1.6-0.5,1.9-1.6c0.3-1.1,0-2.2-0.7-2.4
						C465.3,268.9,464.5,269.6,464.1,270.7z"/>
					<path class="st10" d="M475,274.2c-0.3,1.1,0,2.2,0.7,2.4c0.7,0.2,1.6-0.5,1.9-1.6c0.3-1.1,0-2.2-0.7-2.4
						C476.2,272.4,475.3,273.1,475,274.2z"/>
					<path class="st32" d="M471.2,271.3c0,0,1.4,5.1,2,8.1c0.2,0.7-0.4,1.4-1.1,1.4c-1.6,0-3.1-0.9-3.1-0.9L471.2,271.3z"/>
					<path class="st10" d="M462.9,264c0.1,0.1,0.4,0.2,0.5,0.1c2.3-0.9,3.9,0.3,3.9,0.3c0.2,0.2,0.6,0.1,0.8-0.1
						c0.2-0.2,0.1-0.6-0.1-0.8c-0.1-0.1-2.1-1.5-5-0.4c-0.3,0.1-0.4,0.4-0.3,0.7C462.8,263.9,462.9,264,462.9,264z"/>
					<path class="st10" d="M480.8,269.2c0.1,0,0.2-0.1,0.3-0.1c0.2-0.2,0.2-0.5,0-0.8c-2-2.2-4.5-1.9-4.6-1.9
						c-0.3,0-0.5,0.3-0.5,0.6c0,0.3,0.3,0.5,0.6,0.5c0.1,0,2-0.3,3.6,1.5C480.4,269.1,480.6,269.2,480.8,269.2z"/>
				</g>
				<g>
					<path class="st10" d="M463.2,282.2c0.4,0.3,0.8,0.6,1.2,0.8c0.1,0.1,0.3,0,0.4-0.1l0,0c0.1-0.1,0-0.3-0.1-0.4
						c-2.2-1.2-3.7-3.4-4.1-5.9c0-0.2-0.2-0.3-0.3-0.3c-0.1,0-0.3,0.1-0.3,0.2c0,0,0,0,0,0.1C460.3,278.9,461.4,280.9,463.2,282.2z"
						/>
				</g>
				<g>
					<path class="st10" d="M488.1,255.3c-0.7-2.2-3.4-3.1-5.7-3.3c1.5,0,2.6-1.5,2.6-3c0-1.5-0.9-2.8-2-3.7c-2-1.6-5-2-7.4-1.1
						c0.5-0.2,0.6-0.8,0.5-1.3c-0.1-0.5-0.5-0.9-0.9-1.2c-2.5-1.9-6.3-1.7-8.5,0.4c-0.8-2.7-3.9-4.4-6.6-3.7c-2.6,0.7-7.6,1.2-8.4,8
						c-2.2-1.6-5.7-1.2-7.5,0.9c-1.9,2.3-1.4,6.2,1,7.9c-1.2-0.5-2.7,0.3-3.2,1.5c-0.5,1.2-0.1,2.7,0.7,3.7c0.8,1,2.1,1.6,3.3,2
						c1.2,0.3,2.5,0.5,3.6,0.1c1.2-0.4,2.2-1.3,2.5-2.5c0.2,1.3,1.5,2.2,2.8,2.1c1.3-0.1,2.3-1.2,2.6-2.5c0.2-1.3-0.4-2.6-1.4-3.4
						c1.5,1.4,4.3,0.9,5.1-1c1.1,2.1,2.6,4,4.7,4.9c2.1,0.9,5,0.5,6.3-1.4c0.7,0.8,1.4,1.6,2.3,2.2c0.9,0.6,2,0.9,3,0.6
						c1-0.3,1.8-1.4,1.6-2.4c1.7,1.4,4,2.1,6.1,1.4C487.3,259.7,488.8,257.3,488.1,255.3z"/>
				</g>
			</g>
			<path class="st5" d="M451.2,304.7c0,0,5.8,5.1,8.7-1.5l1.5,1.2c0,0-0.1,4.9-2.9,6.6c0.7,2.7,12.4,42.5,14.5,62.6l-3.2,8.1
				l-8.5-6.7c0,0-4.1-34.4-5.5-63.6c-3.4-1.2-6.1-3.7-7.3-7L451.2,304.7z"/>
			<polygon class="st14" points="458.7,305.4 463.6,309.3 464.5,297.6 462.9,297.3 461.6,305.1 459.2,303.8 			"/>
			<path class="st14" d="M434.6,298.1c-0.1,0,11.7,14.5,11.7,14.5l4-3.1l2.8-2.3l0.7-0.9l-15.7-10.9c0,0-2.1,2.1-2.3,2.1
				C435.7,297.5,434.6,298.1,434.6,298.1z"/>
			<polygon class="st5" points="435.5,297.8 441.2,292.7 456.8,307.4 452.7,305.9 446.8,310.5 			"/>
			<path class="st5" d="M456.8,307.4c-0.3-0.7,0.3-13.7,0.3-13.7l6.5,3.5c-0.3-0.1-0.5,11-0.7,11c-0.2,0-3.7-3.8-3.7-3.8
				L456.8,307.4z"/>
			<path class="st10" d="M453.6,310.4"/>
			<polygon class="st14" points="484.4,339.9 483.2,314.1 489,338.8 			"/>
			<path class="st14" d="M434.2,343.7c0.7-0.1,4.4-1.4,4.4-1.4l-8.2-22.9l11.3,25.3l-6.8,2.7L434.2,343.7z"/>
			<polygon class="st31" points="435.5,297.8 441.2,292.7 456.8,307.4 452.7,305.9 446.8,310.5 			"/>
			<path class="st31" d="M456.8,307.4c-0.3-0.7,0.3-13.7,0.3-13.7l6.5,3.5c-0.3-0.1-0.5,11-0.7,11c-0.2,0-3.7-3.8-3.7-3.8
				L456.8,307.4z"/>
			<polygon class="st18" points="465.7,328.8 468.3,341.7 476,344.5 481.2,339.9 480.2,327.8 			"/>
			<path class="st5" d="M457.8,306.3l-2.4,0.6c0,0-0.1,0.2,0,0.1c0-0.1-1.3,4.6-1.3,4.6c0.4,0.3,1.7,2.6,1.8,2.6
				c0.2,0,3.4-0.3,3.4-0.3l1.2-3.4C460.4,310.3,457.7,306.2,457.8,306.3z"/>
			<path class="st14" d="M457.8,306.3l-2.4,0.6c0,0-0.1,0.2,0,0.1c0-0.1-1.3,4.6-1.3,4.6c0.4,0.3,1.7,2.6,1.8,2.6
				c0.2,0,3.4-0.3,3.4-0.3l1.2-3.4C460.4,310.3,457.7,306.2,457.8,306.3z"/>
		</g>
		<g>
			<path class="st29" d="M431,324.7c0,0,5.8,38.3,9.1,41.8c5.6,6,33.4,22.1,33.4,22.1l13.9-4.9c1-0.3,2-0.1,2.8,0.5l9.5,7.2
				l-0.9,0.8c-0.4,0.3-1,0.4-1.4,0.2l-1.5-0.7l1.6,1.6l-0.5,0.4c-0.5,0.4-1.2,0.6-1.9,0.4l-4.2-1.1l3.9,2.6c-0.9,0.7-2.1,1-3.2,0.7
				l-6.2-1.8c-4.2,1-8.5,1.6-12.9,1.8c-7.3,0.4-41.8-11.6-48.3-20.4c-6.4-8.8-13.1-45.5-13.1-45.5L431,324.7z"/>
			<g>
				<path class="st5" d="M412.7,350.2c0,0-8.6-34.7,2.7-43.1c11.3-8.4,22.5,35.5,22.5,35.5L412.7,350.2z"/>
				<path class="st31" d="M412.7,350.2c0,0-8.6-34.7,2.7-43.1c11.3-8.4,22.5,35.5,22.5,35.5L412.7,350.2z"/>
			</g>
		</g>
		<g>
			<g>
				<path class="st10" d="M505.3,394.3h-21.3h-22.6c0,0,0,0,0,0c0,1.7,1.9,3,4.2,3h22.6h12.9c0,0,0,0,0.1,0c0,0,0,0,0,0h36
					c2.3,0,4.1-1.4,4.1-3H505.3z"/>
			</g>
			<path class="st10" d="M537.8,397.1h-40.2c-0.7,0-1.3-0.5-1.2-1c0-0.1,0-0.2,0.1-0.3l17.9-41c0.5-1.2,1.8-2,3.3-2h40.2
				c0.7,0,1.2,0.4,1.2,1c0,0.1,0,0.2-0.1,0.3l-17.9,41C540.7,396.3,539.3,397.1,537.8,397.1z"/>
			<path class="st22" d="M557.8,352.9h-40.2c-1.5,0-2.9,0.8-3.3,2l-17.2,39.4h-13.2h-22.6c0,0,0,0,0,0c0,1.7,1.9,3,4.2,3h22.6h12.9
				c0,0,0,0,0.1,0c0,0,0,0,0,0h36c0.7,0,1.4-0.2,2-0.4c0.9-0.3,1.7-0.9,2-1.7l17.9-41c0-0.1,0.1-0.2,0.1-0.3
				C559.1,353.3,558.5,352.9,557.8,352.9z"/>
			<path class="st11" d="M533.7,374.7c-0.9,2-2.6,3.3-3.9,3c-1.3-0.3-1.7-2.1-0.8-4c0.8-2,2.6-3.3,3.9-3
				C534.2,370.9,534.6,372.7,533.7,374.7z"/>
			<g class="st8">
				<line class="st33" x1="496.4" y1="394.3" x2="497.1" y2="394.3"/>
				<path d="M514.3,354.8l-17.2,39.4h1.9l18.7-41.4C516.1,352.9,514.8,353.7,514.3,354.8z"/>
			</g>
		</g>
		<g>
			<g>
				<g>
					<g>
						<g>
							<g>
								<polygon class="st29" points="516.4,439.7 542.3,443.9 546.4,433.2 519.2,424.7 								"/>
							</g>
						</g>
					</g>
				</g>
				<g>
					<g>
						<g>
							<g>
								<g>
									<g>
										<g>
											<g>
												<g>
													<g>
														<g>
															<g>
																<path class="st10" d="M553.8,449.3l3.5-7.2c0,0-1-1.3-0.3-2.9c0.4-0.9,2.6-2.3,2.6-2.3l9.8-19.8
																	c0,0-1.4-0.7-2.1-0.7c-0.8-0.1-1.6-0.1-2.3,0c-2.4,0.3-4.3,2.2-5.6,3.6c-2.2,2.4-10,8.3-10,8.3s-2.2,1.4-5.6,1.3
																	c-1.9-0.1-3.4,0.6-4,1.5c-1.1,1.6-0.5,3.1,1,4.2l1.8,1.2c0.4,1.8-0.5,3.6-2.5,4.3c0,0-4,2.6-2,3.3
																	c1.1,0.4,6.2,2,10.2,3.4c0.9,0.3,1.8,0.6,2.6,0.9l0,0C552.6,448.9,553.8,449.3,553.8,449.3z"/>
															</g>
														</g>
													</g>
												</g>
											</g>
										</g>
										<g>
											<g>
												<g>
													<g>
														<path class="st5" d="M553.4,424.9c-0.1,0-0.2,0.2-0.2,0.3c0.1,0.6,0.3,1.2,0.7,1.7c0.2,0.3,0.7,0,0.5-0.3
															c-0.3-0.5-0.5-1-0.6-1.5C553.7,425,553.6,424.9,553.4,424.9C553.4,424.9,553.4,424.9,553.4,424.9z"/>
													</g>
												</g>
											</g>
										</g>
										<g>
											<g>
												<g>
													<g>
														<path class="st5" d="M551.8,426.1c-0.1,0-0.2,0.2-0.2,0.3c0.1,0.6,0.3,1.2,0.7,1.7c0.2,0.3,0.7,0,0.5-0.3
															c-0.3-0.5-0.5-1-0.6-1.5C552.2,426.1,552,426,551.8,426.1C551.8,426,551.8,426,551.8,426.1z"/>
													</g>
												</g>
											</g>
										</g>
										<g>
											<g>
												<g>
													<g>
														<path class="st5" d="M550.3,427.2c-0.1,0-0.2,0.2-0.2,0.3c0.1,0.6,0.3,1.2,0.7,1.7c0.2,0.3,0.7,0,0.5-0.3
															c-0.3-0.5-0.5-1-0.6-1.5C550.6,427.3,550.4,427.2,550.3,427.2C550.3,427.2,550.3,427.2,550.3,427.2z"/>
													</g>
												</g>
											</g>
										</g>
									</g>
								</g>
							</g>
						</g>
					</g>
				</g>
				<path class="st23" d="M557,439.2c0.4-0.9,2.6-2.3,2.6-2.3l9.8-19.8c0,0-1.4-0.7-2.1-0.7c-0.4,0-0.8-0.1-1.1-0.1l-15.7,31.9
					c0.1,0,0.3,0.1,0.4,0.2l0,0c1.7,0.6,2.9,1,2.9,1l3.5-7.2C557.3,442.1,556.3,440.7,557,439.2z"/>
				<path class="st30" d="M550.4,427.5c-0.7-0.3-1.4-0.6-2.1-1c-0.7-0.4-1.3-0.9-1.6-1.6c-0.2-0.3-0.3-0.7-0.1-1
					c0.2-0.3,0.6-0.4,1-0.4c0.7,0.1,1.4,0.5,1.8,1.1C549.8,425.2,550.2,426.8,550.4,427.5"/>
				<path class="st30" d="M550.4,427.6c-0.8,0-1.5-0.1-2.3,0c-0.8,0.1-1.5,0.3-2.1,0.8c-0.3,0.2-0.6,0.5-0.5,0.9
					c0,0.4,0.4,0.6,0.7,0.8c0.7,0.2,1.5,0.1,2.1-0.2C548.9,429.5,549.9,428.2,550.4,427.6"/>
			</g>
			<path class="st10" d="M419.1,427.9c-5.6-8.9-18.2-33,7.4-37.7c25.6-4.7,111.2,36,111.2,36l-5.4,16.3L452.6,430
				c0,0,10.9,14.5-2.3,13.9C431.1,442,426.5,437.4,419.1,427.9z"/>
			<path class="st28" d="M454.5,430.4l-21.8-6.9c0,0,18.3,11.2,25,12.5L454.5,430.4z"/>
		</g>
	</g>
</g>
</svg>
