<svg width="768" height="512" viewBox="0 0 768 512" fill="none" xmlns="http://www.w3.org/2000/svg">
<path d="M614.78 42.9838H607.974C607.708 42.9838 607.502 42.7775 607.502 42.5123C607.502 42.2471 607.708 42.0409 607.974 42.0409H614.78C617.963 42.0409 620.556 39.4478 620.556 36.2654C620.556 33.0831 617.963 30.49 614.78 30.49C614.515 30.49 614.22 30.5195 613.896 30.5784C613.72 30.6079 613.513 30.5195 613.425 30.3722C612.6 29.0462 611.244 28.1033 609.712 27.7791C609.476 27.7202 609.329 27.5139 609.329 27.2782C609.359 27.1014 609.359 26.9246 609.359 26.7478C609.359 23.5654 606.765 20.9724 603.583 20.9724C600.695 20.9724 598.22 23.1529 597.867 26.0111C597.837 26.1585 597.749 26.3058 597.601 26.3647C597.454 26.4237 597.307 26.4237 597.159 26.3353C596.275 25.8049 595.244 25.5397 594.213 25.5397C591.325 25.5397 588.85 27.7202 588.496 30.5784C588.467 30.7258 588.378 30.8436 588.261 30.932C588.143 30.991 587.966 31.0204 587.848 30.9615C587.141 30.6668 586.375 30.49 585.579 30.49C582.397 30.49 579.804 33.0831 579.804 36.2654C579.804 39.4478 582.397 42.0409 585.579 42.0409H593.093C593.358 42.0409 593.565 42.2471 593.565 42.5123C593.565 42.7775 593.358 42.9838 593.093 42.9838H585.579C581.896 42.9838 578.861 39.9782 578.861 36.2654C578.861 32.5821 581.866 29.5471 585.579 29.5471C586.286 29.5471 586.994 29.665 587.642 29.8712C588.29 26.8362 591.03 24.5968 594.183 24.5968C595.156 24.5968 596.128 24.803 597.012 25.2155C597.69 22.21 600.401 20 603.554 20C607.237 20 610.272 23.0056 610.272 26.7183C610.272 26.8067 610.272 26.8657 610.272 26.9246C611.775 27.3371 613.13 28.2801 614.044 29.5766C614.309 29.5471 614.545 29.5176 614.78 29.5176C618.464 29.5176 621.499 32.5232 621.499 36.236C621.499 39.9782 618.493 42.9838 614.78 42.9838Z" fill="#AEC9EB"/>
<path d="M600.548 56.8625C600.43 56.8625 600.312 56.8036 600.224 56.7152L590.942 47.4922C590.794 47.3449 590.765 47.1681 590.824 46.9913C590.883 46.8145 591.06 46.6966 591.266 46.6966H594.625V32.1107C594.625 31.8455 594.831 31.6393 595.096 31.6393H606.235C606.5 31.6393 606.706 31.8455 606.706 32.1107V46.7261H610.065C610.242 46.7261 610.419 46.8439 610.507 47.0207C610.566 47.1975 610.537 47.4038 610.39 47.5217L600.872 56.7446C600.784 56.833 600.666 56.8625 600.548 56.8625ZM592.386 47.669L600.548 55.7722L608.916 47.669H606.235C605.97 47.669 605.763 47.4627 605.763 47.1975V32.6117H595.568V47.1975C595.568 47.4627 595.362 47.669 595.096 47.669H592.386Z" fill="#AEC9EB"/>
<path d="M98.8832 257.47H96.9384C93.5792 257.47 90.8389 254.729 90.8389 251.37V244.534C90.8389 244.269 91.0451 244.062 91.3103 244.062H104.511C104.776 244.062 104.983 244.269 104.983 244.534V251.37C104.983 254.729 102.272 257.47 98.8832 257.47ZM91.7818 245.005V251.4C91.7818 254.228 94.1096 256.556 96.9384 256.556H98.8832C101.712 256.556 104.04 254.228 104.04 251.4V245.005H91.7818Z" fill="#AEC9EB"/>
<path d="M103.214 245.005H92.636C92.3708 245.005 92.1646 244.799 92.1646 244.534V240.291C92.1646 237.108 94.7576 234.545 97.9105 234.545C101.093 234.545 103.656 237.138 103.656 240.291V244.534C103.686 244.799 103.48 245.005 103.214 245.005ZM93.1075 244.062H102.743V240.291C102.743 237.639 100.592 235.458 97.9105 235.458C95.2585 235.458 93.078 237.609 93.078 240.291V244.062H93.1075Z" fill="#AEC9EB"/>
<path d="M97.9107 250.84C96.9678 250.84 96.2017 250.074 96.2017 249.131C96.2017 248.188 96.9678 247.422 97.9107 247.422C98.8536 247.422 99.6198 248.188 99.6198 249.131C99.6198 250.074 98.8536 250.84 97.9107 250.84ZM97.9107 248.365C97.4982 248.365 97.1446 248.718 97.1446 249.131C97.1446 249.543 97.4982 249.897 97.9107 249.897C98.3233 249.897 98.6768 249.543 98.6768 249.131C98.6768 248.689 98.3527 248.365 97.9107 248.365Z" fill="#AEC9EB"/>
<path d="M97.9104 253.197C97.6452 253.197 97.439 252.991 97.439 252.726L97.4684 250.339C97.4684 250.074 97.6747 249.867 97.9399 249.867C98.2051 249.867 98.4114 250.074 98.4114 250.339L98.3819 252.726C98.3819 252.991 98.1756 253.197 97.9104 253.197Z" fill="#AEC9EB"/>
<path d="M403.153 48.1109H389.893C389.038 48.1109 388.331 47.4038 388.331 46.5492V38.004C388.331 37.1495 389.038 36.4423 389.893 36.4423H403.153C404.007 36.4423 404.714 37.1495 404.714 38.004V46.5492C404.685 47.4038 404.007 48.1109 403.153 48.1109ZM389.863 36.9432C389.274 36.9432 388.773 37.4146 388.773 38.0334V46.5787C388.773 47.168 389.244 47.669 389.863 47.669H403.123C403.712 47.669 404.213 47.1975 404.213 46.5787V38.0334C404.213 37.4441 403.742 36.9432 403.123 36.9432H389.863Z" fill="#AEC9EB"/>
<path d="M402.711 47.168H390.305C389.716 47.168 389.245 46.6965 389.245 46.1072V38.4165C389.245 37.8272 389.716 37.3557 390.305 37.3557H402.711C403.3 37.3557 403.772 37.8272 403.772 38.4165V46.1072C403.772 46.6965 403.3 47.168 402.711 47.168ZM390.305 37.8566C389.981 37.8566 389.716 38.1218 389.716 38.446V46.1367C389.716 46.4608 389.981 46.726 390.305 46.726H402.711C403.035 46.726 403.3 46.4608 403.3 46.1367V38.446C403.3 38.1218 403.035 37.8566 402.711 37.8566H390.305Z" fill="#AEC9EB"/>
<path d="M403.948 50.2916H388.832C388.213 50.2916 387.712 49.7906 387.712 49.1718C387.712 48.553 388.213 48.0521 388.832 48.0521H403.948C404.567 48.0521 405.068 48.553 405.068 49.1718C405.068 49.7906 404.567 50.2916 403.948 50.2916ZM388.832 48.5236C388.479 48.5236 388.184 48.8182 388.184 49.1718C388.184 49.5254 388.479 49.8201 388.832 49.8201H403.948C404.302 49.8201 404.597 49.5254 404.597 49.1718C404.597 48.8182 404.302 48.5236 403.948 48.5236H388.832Z" fill="#AEC9EB"/>
<path d="M386.446 67.7356H373.186C372.331 67.7356 371.624 67.0284 371.624 66.1739V57.6286C371.624 56.7741 372.331 56.0669 373.186 56.0669H386.446C387.3 56.0669 388.007 56.7741 388.007 57.6286V66.1739C388.007 67.0284 387.3 67.7356 386.446 67.7356ZM373.186 56.5678C372.596 56.5678 372.095 57.0393 372.095 57.6581V66.2033C372.095 66.7927 372.567 67.2936 373.186 67.2936H386.446C387.035 67.2936 387.536 66.8221 387.536 66.2033V57.6581C387.536 57.0687 387.064 56.5678 386.446 56.5678H373.186Z" fill="#AEC9EB"/>
<path d="M386.033 66.7927H373.598C373.009 66.7927 372.537 66.3212 372.537 65.7319V58.0411C372.537 57.4518 373.009 56.9803 373.598 56.9803H386.003C386.593 56.9803 387.064 57.4518 387.064 58.0411V65.7319C387.064 66.3212 386.593 66.7927 386.033 66.7927ZM373.598 57.4813C373.274 57.4813 373.009 57.7465 373.009 58.0706V65.7613C373.009 66.0855 373.274 66.3507 373.598 66.3507H386.003C386.327 66.3507 386.593 66.0855 386.593 65.7613V58.0706C386.593 57.7465 386.327 57.4813 386.003 57.4813H373.598Z" fill="#AEC9EB"/>
<path d="M387.241 69.9161H372.125C371.506 69.9161 371.005 69.4151 371.005 68.7964C371.005 68.1776 371.506 67.6766 372.125 67.6766H387.241C387.86 67.6766 388.361 68.1776 388.361 68.7964C388.361 69.4151 387.86 69.9161 387.241 69.9161ZM372.125 68.1481C371.772 68.1481 371.477 68.4428 371.477 68.7964C371.477 69.15 371.772 69.4446 372.125 69.4446H387.241C387.595 69.4446 387.89 69.15 387.89 68.7964C387.89 68.4428 387.595 68.1481 387.241 68.1481H372.125Z" fill="#AEC9EB"/>
<path d="M420.214 67.7356H406.954C406.099 67.7356 405.392 67.0284 405.392 66.1739V57.6286C405.392 56.7741 406.099 56.0669 406.954 56.0669H420.214C421.068 56.0669 421.775 56.7741 421.775 57.6286V66.1739C421.746 67.0284 421.068 67.7356 420.214 67.7356ZM406.924 56.5678C406.335 56.5678 405.834 57.0393 405.834 57.6581V66.2033C405.834 66.7927 406.306 67.2936 406.924 67.2936H420.184C420.774 67.2936 421.274 66.8221 421.274 66.2033V57.6581C421.274 57.0687 420.803 56.5678 420.184 56.5678H406.924Z" fill="#AEC9EB"/>
<path d="M419.772 66.7927H407.366C406.777 66.7927 406.306 66.3212 406.306 65.7319V58.0411C406.306 57.4518 406.777 56.9803 407.366 56.9803H419.772C420.361 56.9803 420.833 57.4518 420.833 58.0411V65.7319C420.833 66.3212 420.361 66.7927 419.772 66.7927ZM407.366 57.4813C407.042 57.4813 406.777 57.7465 406.777 58.0706V65.7613C406.777 66.0855 407.042 66.3507 407.366 66.3507H419.772C420.096 66.3507 420.361 66.0855 420.361 65.7613V58.0706C420.361 57.7465 420.096 57.4813 419.772 57.4813H407.366Z" fill="#AEC9EB"/>
<path d="M421.009 69.9161H405.893C405.274 69.9161 404.773 69.4151 404.773 68.7964C404.773 68.1776 405.274 67.6766 405.893 67.6766H421.009C421.628 67.6766 422.129 68.1776 422.129 68.7964C422.129 69.4151 421.628 69.9161 421.009 69.9161ZM405.893 68.1481C405.54 68.1481 405.245 68.4428 405.245 68.7964C405.245 69.15 405.54 69.4446 405.893 69.4446H421.009C421.363 69.4446 421.658 69.15 421.658 68.7964C421.658 68.4428 421.363 68.1481 421.009 68.1481H405.893Z" fill="#AEC9EB"/>
<path d="M387.329 55.7133C387.27 55.7133 387.241 55.6839 387.182 55.6544C387.094 55.566 387.064 55.4187 387.152 55.3303L390.895 50.5567C390.983 50.4683 391.13 50.4389 391.219 50.5273C391.307 50.6157 391.337 50.763 391.248 50.8514L387.506 55.6249C387.477 55.6839 387.418 55.7133 387.329 55.7133Z" fill="#AEC9EB"/>
<path d="M406.07 55.7133C406.011 55.7133 405.922 55.6839 405.893 55.6249L402.151 50.8514C402.062 50.763 402.092 50.6157 402.18 50.5273C402.268 50.4389 402.416 50.4683 402.504 50.5567L406.246 55.3303C406.335 55.4187 406.305 55.566 406.217 55.6544C406.158 55.6839 406.128 55.7133 406.07 55.7133Z" fill="#AEC9EB"/>
<path d="M177.588 64.1112H173.198C172.932 64.1112 172.726 63.905 172.726 63.6398V49.7022C172.726 49.437 172.932 49.2307 173.198 49.2307H177.588C177.853 49.2307 178.059 49.437 178.059 49.7022V63.6398C178.059 63.905 177.853 64.1112 177.588 64.1112ZM173.669 63.1683H177.146V50.1736H173.669V63.1683Z" fill="#AEC9EB"/>
<path d="M187.901 64.1112H183.511C183.245 64.1112 183.039 63.905 183.039 63.6398V53.5033C183.039 53.2381 183.245 53.0319 183.511 53.0319H187.901C188.166 53.0319 188.372 53.2381 188.372 53.5033V63.6398C188.372 63.905 188.166 64.1112 187.901 64.1112ZM183.982 63.1683H187.459V53.9453H183.982V63.1683Z" fill="#AEC9EB"/>
<path d="M198.214 64.1113H193.824C193.559 64.1113 193.353 63.905 193.353 63.6398V43.8384C193.353 43.5732 193.559 43.3669 193.824 43.3669H198.214C198.48 43.3669 198.686 43.5732 198.686 43.8384V63.6398C198.686 63.905 198.48 64.1113 198.214 64.1113ZM194.295 63.1683H197.772V44.2804H194.295V63.1683Z" fill="#AEC9EB"/>
<path d="M185.308 50.9103C185.19 50.9103 185.072 50.8514 184.984 50.7925L177.411 43.5732H171.164C170.899 43.5732 170.693 43.367 170.693 43.1018C170.693 42.8366 170.899 42.6303 171.164 42.6303H177.588C177.706 42.6303 177.824 42.6892 177.912 42.7482L185.161 49.6433L191.025 38.0925C191.113 37.9451 191.26 37.8273 191.437 37.8273H195.504C195.769 37.8273 195.975 38.0335 195.975 38.2987C195.975 38.5639 195.769 38.7702 195.504 38.7702H191.732L185.721 50.6157C185.662 50.7336 185.514 50.8514 185.397 50.8514C185.338 50.8809 185.308 50.9103 185.308 50.9103Z" fill="#AEC9EB"/>
<path d="M198.863 38.3282L194.119 40.273L195.238 38.3282L194.119 36.3834L198.863 38.3282Z" fill="#AEC9EB"/>
<path d="M597.042 136.422C595.215 136.775 593.359 137.04 591.503 137.158C591.237 137.188 591.031 136.982 591.002 136.716C590.972 136.451 591.178 136.245 591.444 136.215C593.241 136.098 595.068 135.832 596.865 135.479C597.131 135.42 597.396 135.597 597.425 135.832C597.484 136.098 597.337 136.333 597.072 136.392L596.983 135.921L597.042 136.422ZM602.464 134.978C602.228 135.037 601.993 134.889 601.934 134.683C601.845 134.447 601.993 134.182 602.228 134.094C603.967 133.505 605.676 132.797 607.297 131.972C607.532 131.854 607.797 131.943 607.915 132.179C608.033 132.414 607.945 132.679 607.709 132.797C606.029 133.622 604.291 134.359 602.523 134.948C602.493 134.978 602.493 134.978 602.464 134.978ZM586.022 137.188C585.992 137.188 585.933 137.188 585.904 137.188C584.048 137.07 582.162 136.834 580.335 136.481C580.07 136.422 579.922 136.186 579.952 135.921C580.011 135.656 580.246 135.508 580.512 135.538C582.309 135.891 584.136 136.127 585.963 136.245C586.228 136.274 586.405 136.481 586.405 136.746C586.375 136.982 586.228 137.129 586.022 137.188ZM612.424 130.057C612.247 130.086 612.041 130.027 611.952 129.851C611.805 129.644 611.864 129.35 612.07 129.202C613.573 128.171 615.046 127.051 616.431 125.843C616.637 125.666 616.932 125.696 617.079 125.873C617.256 126.079 617.227 126.374 617.05 126.521C615.635 127.759 614.162 128.908 612.601 129.969C612.542 130.027 612.483 130.027 612.424 130.057ZM575.119 135.037C575.031 135.066 574.972 135.037 574.884 135.007C573.116 134.418 571.377 133.681 569.668 132.856C569.432 132.738 569.344 132.473 569.462 132.237C569.58 132.002 569.845 131.913 570.081 132.031C571.731 132.827 573.44 133.534 575.178 134.123C575.414 134.212 575.561 134.477 575.473 134.713C575.414 134.889 575.267 135.007 575.119 135.037ZM620.733 122.72C620.586 122.749 620.439 122.72 620.321 122.602C620.114 122.425 620.114 122.13 620.262 121.954C621.47 120.569 622.59 119.095 623.591 117.593C623.739 117.386 624.033 117.327 624.24 117.475C624.446 117.622 624.505 117.917 624.358 118.123C623.326 119.685 622.177 121.188 620.939 122.602C620.939 122.631 620.851 122.69 620.733 122.72ZM565.16 130.145C565.042 130.175 564.924 130.145 564.806 130.086C563.244 129.055 561.741 127.906 560.327 126.668C560.121 126.492 560.121 126.197 560.268 126.02C560.445 125.814 560.74 125.814 560.916 125.961C562.301 127.169 563.775 128.289 565.277 129.291C565.484 129.438 565.543 129.733 565.395 129.939C565.366 130.057 565.277 130.116 565.16 130.145ZM626.892 113.467C626.803 113.497 626.685 113.467 626.597 113.438C626.361 113.32 626.273 113.055 626.391 112.819C627.186 111.169 627.894 109.46 628.483 107.721C628.571 107.486 628.836 107.338 629.072 107.427C629.308 107.515 629.455 107.78 629.367 108.016C628.778 109.784 628.041 111.523 627.216 113.202C627.157 113.35 627.039 113.438 626.892 113.467ZM556.791 122.838C556.644 122.867 556.467 122.808 556.349 122.69C555.112 121.276 553.962 119.803 552.902 118.241C552.754 118.035 552.813 117.74 553.019 117.593C553.226 117.445 553.52 117.504 553.668 117.711C554.699 119.213 555.819 120.687 557.027 122.072C557.204 122.278 557.174 122.573 556.997 122.72C556.938 122.808 556.85 122.838 556.791 122.838ZM630.457 102.948C630.398 102.948 630.339 102.948 630.28 102.948C630.015 102.889 629.868 102.653 629.897 102.388C630.251 100.591 630.487 98.7637 630.604 96.9367C630.634 96.6715 630.84 96.4948 631.105 96.4948C631.371 96.5242 631.547 96.7305 631.547 96.9957C631.429 98.8521 631.194 100.738 630.811 102.565C630.781 102.771 630.634 102.918 630.457 102.948ZM550.574 113.644C550.368 113.674 550.161 113.585 550.073 113.379C549.248 111.699 548.511 109.961 547.922 108.193C547.833 107.957 547.981 107.692 548.216 107.604C548.452 107.515 548.717 107.663 548.806 107.898C549.395 109.637 550.102 111.346 550.927 112.966C551.045 113.202 550.957 113.467 550.721 113.585C550.662 113.615 550.633 113.644 550.574 113.644ZM631.164 91.8685C631.135 91.8685 631.135 91.8685 631.105 91.8685C630.84 91.898 630.634 91.6917 630.604 91.4265C630.487 89.5996 630.221 87.7727 629.868 85.9753L629.838 85.7985C629.779 85.5333 629.956 85.2975 630.192 85.2386C630.428 85.1797 630.693 85.3565 630.752 85.5922L630.781 85.769C631.135 87.5959 631.4 89.4818 631.518 91.3381C631.547 91.6033 631.4 91.8096 631.164 91.8685ZM546.979 103.095C546.714 103.154 546.478 103.036 546.448 102.771L546.419 102.683C546.065 100.885 545.8 99.0289 545.682 97.2019C545.653 96.9367 545.859 96.7305 546.124 96.701C546.39 96.6716 546.596 96.8778 546.625 97.143C546.743 98.9405 547.008 100.738 547.362 102.506C547.391 102.742 547.244 103.036 546.979 103.095ZM628.925 80.8186C628.689 80.8776 628.453 80.7302 628.394 80.524C627.805 78.7855 627.098 77.0764 626.273 75.4558C626.155 75.22 626.243 74.9548 626.479 74.837C626.715 74.7191 626.98 74.8075 627.098 75.0432C627.923 76.7228 628.66 78.4613 629.278 80.2293C629.367 80.4651 629.219 80.7302 628.984 80.8186C628.984 80.7892 628.954 80.8186 628.925 80.8186ZM546.213 92.0453C546.183 92.0453 546.124 92.0453 546.095 92.0453C545.83 92.0159 545.653 91.8096 545.653 91.5444C545.771 89.688 546.006 87.8022 546.36 85.9753C546.419 85.7101 546.655 85.5627 546.92 85.5922C547.185 85.6511 547.332 85.8869 547.303 86.1521C546.949 87.9495 546.714 89.7764 546.596 91.6033C546.566 91.8391 546.419 92.0159 546.213 92.0453ZM623.974 70.859C623.798 70.8885 623.591 70.8295 623.503 70.6527C622.472 69.15 621.352 67.6766 620.144 66.3212C619.967 66.1149 619.997 65.8203 620.173 65.6729C620.38 65.4961 620.674 65.5256 620.822 65.7024C622.059 67.0873 623.208 68.5901 624.269 70.1518C624.416 70.3581 624.358 70.6527 624.151 70.8001C624.092 70.8295 624.033 70.859 623.974 70.859ZM548.364 81.1428C548.275 81.1722 548.216 81.1428 548.128 81.1133C547.892 81.0249 547.745 80.7597 547.833 80.524C548.423 78.756 549.159 77.0175 549.984 75.3084C550.102 75.0727 550.367 74.9843 550.603 75.1022C550.839 75.22 550.927 75.4852 550.809 75.721C550.014 77.3711 549.307 79.0801 548.717 80.8186C548.658 81.0249 548.511 81.1133 548.364 81.1428ZM616.608 62.579C616.461 62.6084 616.313 62.579 616.195 62.4611C614.81 61.253 613.337 60.1332 611.805 59.1314C611.599 58.9841 611.54 58.6894 611.687 58.4831C611.834 58.2769 612.129 58.2179 612.335 58.3653C613.897 59.3966 615.4 60.5458 616.814 61.7539C617.02 61.9307 617.02 62.2254 616.873 62.4022C616.814 62.4906 616.726 62.5495 616.608 62.579ZM553.226 71.1831C553.108 71.2126 552.99 71.1831 552.872 71.1242C552.666 70.9769 552.607 70.6822 552.754 70.4759C553.786 68.9142 554.935 67.4114 556.172 65.9971C556.349 65.7908 556.644 65.7908 556.821 65.9381C557.027 66.1149 557.027 66.4096 556.88 66.5864C555.671 67.9713 554.552 69.4446 553.55 70.9769C553.461 71.0947 553.344 71.1537 553.226 71.1831ZM560.504 62.8147C560.357 62.8442 560.18 62.7852 560.062 62.6674C559.885 62.4611 559.915 62.1664 560.091 62.0191C561.506 60.7815 562.979 59.6323 564.541 58.5715C564.747 58.4242 565.042 58.4831 565.189 58.6894C565.336 58.8957 565.277 59.1903 565.071 59.3377C563.568 60.369 562.095 61.4887 560.71 62.6968C560.681 62.7558 560.592 62.7852 560.504 62.8147ZM569.727 56.5973C569.521 56.6267 569.314 56.5384 569.226 56.3321C569.108 56.0964 569.197 55.8312 569.432 55.7133C571.112 54.8882 572.85 54.1516 574.618 53.5328C574.854 53.4444 575.119 53.5917 575.208 53.8274C575.296 54.0632 575.149 54.3284 574.913 54.4168C573.174 55.0061 571.465 55.7133 569.845 56.5383C569.786 56.5678 569.756 56.5973 569.727 56.5973ZM585.727 52.2363C585.698 52.2363 585.698 52.2363 585.668 52.2363C583.9 52.3541 582.103 52.6193 580.335 52.9435L580.217 52.9729C579.952 53.0319 579.716 52.8551 579.657 52.6193C579.598 52.3541 579.775 52.1184 580.011 52.0595L580.158 52.03C581.955 51.6764 583.782 51.4112 585.609 51.2933C585.874 51.2639 586.081 51.4701 586.11 51.7353C586.14 51.9711 585.963 52.2068 585.727 52.2363Z" fill="#AEC9EB"/>
<path d="M293.184 424.632H268.462C266.37 424.632 264.69 422.923 264.69 420.86V408.75C264.69 406.658 266.399 404.978 268.462 404.978H293.184C295.277 404.978 296.956 406.687 296.956 408.75V420.86C296.956 422.953 295.247 424.632 293.184 424.632ZM268.462 405.744C266.812 405.744 265.457 407.1 265.457 408.75V420.86C265.457 422.511 266.812 423.866 268.462 423.866H293.184C294.835 423.866 296.19 422.511 296.19 420.86V408.75C296.19 407.1 294.835 405.744 293.184 405.744H268.462Z" fill="#AEC9EB"/>
<path d="M268.315 415.321L276.595 411.048V412.286L269.641 415.792V415.822L276.595 419.328V420.566L268.315 416.293V415.321Z" fill="#AEC9EB"/>
<path d="M277.744 421.244L282.724 408.337H283.932L278.952 421.244H277.744Z" fill="#AEC9EB"/>
<path d="M293.332 416.293L285.052 420.536V419.299L292.065 415.792V415.763L285.052 412.256V411.019L293.332 415.262V416.293Z" fill="#AEC9EB"/>
<path d="M660.984 244.563L657.035 239.466H642.774C641.065 239.466 639.68 238.081 639.68 236.372V227.326C639.68 225.616 641.065 224.232 642.774 224.232H657.919C659.628 224.232 661.013 225.616 661.013 227.326V244.563H660.984ZM642.744 224.998C641.477 224.998 640.446 226.029 640.446 227.296V236.342C640.446 237.609 641.477 238.641 642.744 238.641H657.418L660.188 242.236V227.296C660.188 226.029 659.157 224.998 657.89 224.998H642.744Z" fill="#AEC9EB"/>
<path d="M646.368 226.854H647.694V233.69C647.694 236.401 646.368 237.226 644.6 237.226C644.129 237.226 643.54 237.108 643.186 236.99L643.392 235.93C643.658 236.047 644.07 236.136 644.483 236.136C645.661 236.136 646.368 235.605 646.368 233.602V226.854Z" fill="#AEC9EB"/>
<path d="M649.698 235.458C650.288 235.812 651.142 236.136 652.055 236.136C653.411 236.136 654.177 235.429 654.177 234.397C654.177 233.454 653.647 232.895 652.262 232.364C650.612 231.775 649.58 230.92 649.58 229.477C649.58 227.885 650.906 226.707 652.881 226.707C653.912 226.707 654.678 226.942 655.12 227.208L654.766 228.268C654.442 228.092 653.765 227.797 652.822 227.797C651.437 227.797 650.906 228.622 650.906 229.329C650.906 230.272 651.525 230.744 652.939 231.303C654.678 231.981 655.533 232.806 655.533 234.309C655.533 235.871 654.354 237.256 651.967 237.256C650.995 237.256 649.904 236.961 649.374 236.607L649.698 235.458Z" fill="#AEC9EB"/>
<path d="M488.163 427.726H482.683V424.367C482.27 424.22 481.858 424.072 481.474 423.866L479.088 426.253L475.198 422.363L477.585 419.977C477.379 419.594 477.231 419.181 477.084 418.769H473.695V413.288H477.084C477.231 412.875 477.379 412.492 477.585 412.109L475.169 409.693L479.058 405.803L481.474 408.22C481.858 408.043 482.241 407.866 482.624 407.748V404.301H488.104V407.748C488.487 407.866 488.871 408.043 489.254 408.22L491.699 405.774L495.589 409.663L493.143 412.109C493.32 412.463 493.497 412.846 493.615 413.258H497.062V418.739H493.644C493.526 419.152 493.349 419.535 493.173 419.888L495.589 422.304L491.699 426.194L489.312 423.807C488.929 424.014 488.546 424.161 488.134 424.308V427.726H488.163ZM483.478 426.931H487.397V423.719L487.662 423.63C488.193 423.454 488.723 423.247 489.224 422.982L489.489 422.835L491.758 425.104L494.528 422.334L492.259 420.065L492.406 419.8C492.672 419.299 492.878 418.798 493.025 418.238L493.114 417.943H496.326V414.024H493.084L492.996 413.73C492.848 413.199 492.613 412.698 492.348 412.198L492.2 411.932L494.499 409.634L491.729 406.864L489.43 409.162L489.165 409.015C488.694 408.75 488.163 408.544 487.633 408.396L487.338 408.308V405.067H483.419V408.308L483.125 408.396C482.594 408.544 482.064 408.779 481.563 409.045L481.298 409.192L479.029 406.923L476.259 409.693L478.528 411.962L478.38 412.227C478.115 412.728 477.88 413.258 477.732 413.789L477.644 414.083H474.461V418.002H477.644L477.732 418.297C477.88 418.857 478.115 419.387 478.38 419.888L478.528 420.153L476.288 422.393L479.058 425.163L481.298 422.923L481.563 423.071C482.064 423.336 482.594 423.572 483.154 423.719L483.449 423.807V426.931H483.478ZM485.364 420.537C482.889 420.537 480.885 418.533 480.885 416.058C480.885 413.582 482.889 411.579 485.364 411.579C487.839 411.579 489.843 413.582 489.843 416.058C489.843 418.533 487.839 420.537 485.364 420.537ZM485.364 412.374C483.331 412.374 481.681 414.024 481.681 416.058C481.681 418.091 483.331 419.741 485.364 419.741C487.397 419.741 489.047 418.091 489.047 416.058C489.047 414.024 487.397 412.374 485.364 412.374Z" fill="#AEC9EB"/>
<path d="M467.832 431.94H464.001V429.583C463.707 429.494 463.441 429.376 463.176 429.229L461.497 430.909L458.786 428.198L460.465 426.518C460.318 426.253 460.2 425.958 460.112 425.693H457.754V421.862H460.112C460.2 421.568 460.318 421.303 460.465 421.037L458.786 419.358L461.497 416.647L463.176 418.327C463.441 418.209 463.707 418.091 463.972 418.002V415.586H467.802V418.002C468.068 418.091 468.333 418.209 468.598 418.327L470.307 416.618L473.018 419.328L471.309 421.037C471.427 421.303 471.545 421.568 471.633 421.833H474.049V425.664H471.663C471.574 425.929 471.456 426.224 471.338 426.489L473.047 428.198L470.337 430.909L468.657 429.229C468.392 429.376 468.127 429.494 467.832 429.583V431.94ZM464.561 431.38H467.302V429.141L467.508 429.082C467.891 428.964 468.244 428.817 468.598 428.61L468.775 428.522L470.366 430.113L472.311 428.168L470.72 426.577L470.808 426.4C470.985 426.047 471.132 425.693 471.25 425.31L471.309 425.104H473.578V422.363H471.309L471.25 422.157C471.132 421.774 470.985 421.421 470.808 421.096L470.72 420.92L472.311 419.328L470.366 417.384L468.745 419.004L468.569 418.916C468.244 418.739 467.861 418.592 467.508 418.474L467.302 418.415V416.146H464.561V418.415L464.355 418.474C463.972 418.592 463.618 418.739 463.265 418.916L463.088 419.004L461.497 417.413L459.552 419.358L461.143 420.949L461.055 421.126C460.878 421.479 460.701 421.833 460.613 422.216L460.554 422.422H458.314V425.163H460.554L460.613 425.369C460.731 425.752 460.878 426.135 461.084 426.489L461.172 426.666L459.611 428.227L461.556 430.172L463.117 428.61L463.294 428.699C463.648 428.876 464.001 429.052 464.414 429.141L464.62 429.2V431.38H464.561ZM465.887 426.901C464.149 426.901 462.764 425.487 462.764 423.778C462.764 422.039 464.178 420.654 465.887 420.654C467.626 420.654 469.011 422.069 469.011 423.778C469.011 425.487 467.626 426.901 465.887 426.901ZM465.887 421.185C464.473 421.185 463.324 422.334 463.324 423.748C463.324 425.163 464.473 426.312 465.887 426.312C467.301 426.312 468.451 425.163 468.451 423.748C468.451 422.363 467.301 421.185 465.887 421.185Z" fill="#AEC9EB"/>
<path d="M118.979 167.45C117.359 167.45 116.033 166.124 116.033 164.503V149.033C113.351 147.855 111.642 145.262 111.642 142.315C111.642 139.987 112.732 137.836 114.589 136.451L115.208 135.98L115.237 143.14L118.891 145.144L122.663 143.317L122.633 135.98L123.252 136.451C125.138 137.836 126.228 140.046 126.228 142.344C126.228 145.291 124.519 147.884 121.837 149.063V164.533C121.896 166.124 120.6 167.45 118.979 167.45ZM114.441 137.6C113.145 138.838 112.408 140.518 112.408 142.315C112.408 145.026 114.029 147.413 116.563 148.385L116.799 148.473V164.474C116.799 165.652 117.771 166.625 118.95 166.625C120.128 166.625 121.101 165.652 121.101 164.474V148.473L121.337 148.385C123.841 147.383 125.491 144.996 125.491 142.315C125.491 140.488 124.755 138.808 123.458 137.571L123.488 143.788L118.891 145.998L114.471 143.582L114.441 137.6Z" fill="#AEC9EB"/>
<path d="M749 492.287H19V480.618C19 477.849 21.2394 475.609 24.0093 475.609H743.991C746.761 475.609 749 477.849 749 480.618V492.287Z" fill="#B7CDEB"/>
<path d="M420.804 363.725H347.167V455.778H420.804V363.725Z" fill="#303030"/>
<path d="M243.504 475.58V464.589L283.431 455.778H484.539L524.496 464.53V475.58H243.504Z" fill="#404040"/>
<path d="M149.949 381.228V81.349C149.949 78.9917 151.864 77.0764 154.221 77.0764H613.779C616.136 77.0764 618.052 78.9917 618.052 81.349V381.228C618.052 383.586 616.136 385.501 613.779 385.501H154.221C151.864 385.472 149.949 383.586 149.949 381.228Z" fill="#404040"/>
<path d="M613.602 81.5259H154.398V367.733H613.602V81.5259Z" fill="#737373"/>
<path d="M609.595 85.5038H158.376V363.725H609.595V85.5038Z" fill="#D6E8FF"/>
<path d="M595.395 349.537V99.7211L172.582 99.7211L172.582 349.537L595.395 349.537Z" fill="white"/>
<path d="M595.422 99.6476H172.579V118.86H595.422V99.6476Z" fill="#75A2FA"/>
<path d="M559.531 110.462H548.806V112.848H559.531V110.462Z" fill="white"/>
<path d="M574.36 112.297L566.776 104.713L565.088 106.401L572.672 113.985L574.36 112.297Z" fill="white"/>
<path d="M566.789 113.986L574.373 106.402L572.685 104.714L565.101 112.299L566.789 113.986Z" fill="white"/>
<path d="M578.802 104.215V113.968H588.555V104.215H578.802ZM586.669 112.082H580.688V106.101H586.669V112.082Z" fill="white"/>
<path d="M206.996 112.495C208.688 112.495 210.06 111.123 210.06 109.43C210.06 107.738 208.688 106.366 206.996 106.366C205.303 106.366 203.931 107.738 203.931 109.43C203.931 111.123 205.303 112.495 206.996 112.495Z" fill="white"/>
<path d="M194.295 112.495C195.988 112.495 197.36 111.123 197.36 109.43C197.36 107.738 195.988 106.366 194.295 106.366C192.603 106.366 191.231 107.738 191.231 109.43C191.231 111.123 192.603 112.495 194.295 112.495Z" fill="white"/>
<path d="M181.625 112.495C183.318 112.495 184.69 111.123 184.69 109.43C184.69 107.738 183.318 106.366 181.625 106.366C179.933 106.366 178.561 107.738 178.561 109.43C178.561 111.123 179.933 112.495 181.625 112.495Z" fill="white"/>
<path d="M467.655 269.728H199.864C195.356 269.728 191.702 266.074 191.702 261.565V149.505C191.702 144.996 195.356 141.343 199.864 141.343H467.655C472.163 141.343 475.817 144.996 475.817 149.505V261.565C475.788 266.074 472.163 269.728 467.655 269.728Z" fill="#D1E1FF"/>
<path d="M434.594 244.033H217.162C212.653 244.033 209 240.379 209 235.871V150.418C209 145.91 212.653 142.256 217.162 142.256H434.594C439.102 142.256 442.756 145.91 442.756 150.418V235.9C442.756 240.408 439.102 244.033 434.594 244.033Z" fill="#8BB1F9"/>
<path d="M442.756 156.4V155.221H433.827V142.256C433.798 142.256 433.739 142.256 433.709 142.256H432.649V155.221H419.742V142.256H418.564V155.221H405.657V142.256H404.479V155.221H391.573V142.256H390.394V155.221H377.488V142.256H376.309V155.221H363.403V142.256H362.224V155.221H349.318V142.256H348.139V155.221H335.911V142.256H334.732V155.221H321.826V142.256H320.647V155.221H307.741V142.256H306.562V155.221H293.656V142.256H292.477V155.221H279.571V142.256H278.392V155.221H265.486V142.256H264.307V155.221H251.401V142.256H250.222V155.221H237.316V142.256H236.137V155.221H223.32V142.256H222.141V155.221H209.028V156.4H222.141V169.306H209.028V170.485H222.141V183.391H209.028V184.57H222.141V197.476H209.028V198.655H222.141V211.561H209.028V212.74H222.141V225.646H209.028V226.824H222.141V239.731H210.354C210.62 240.143 210.885 240.556 211.209 240.909H222.141V244.092H223.32V240.909H236.226V244.092H237.404V240.909H250.311V244.092H251.489V240.909H264.396V244.092H265.574V240.909H278.481V244.092H279.659V240.909H292.566V244.092H293.744V240.909H306.65V244.092H307.829V240.909H320.735V244.092H321.914V240.909H334.82V244.092H335.999V240.909H348.228V244.092H349.406V240.909H362.312V244.092H363.491V240.909H376.397V244.092H377.576V240.909H390.482V244.092H391.661V240.909H404.567V244.092H405.746V240.909H418.652V244.092H419.831V240.909H432.737V244.092H433.798C433.827 244.092 433.886 244.092 433.916 244.092V240.939H440.664C440.988 240.556 441.253 240.173 441.518 239.76H433.916V226.854H442.844V225.675H433.916V212.769H442.844V211.59H433.916V198.684H442.844V197.505H433.916V184.599H442.844V183.421H433.916V170.485H442.844V169.306H433.916V156.4H442.756ZM236.196 239.701H223.32V226.795H236.226V239.701H236.196ZM236.196 225.616H223.32V212.71H236.226V225.616H236.196ZM236.196 211.531H223.32V198.625H236.226V211.531H236.196ZM236.196 197.476H223.32V184.57H236.226V197.476H236.196ZM236.196 183.391H223.32V170.485H236.226V183.391H236.196ZM236.196 169.306H223.32V156.4H236.226V169.306H236.196ZM250.281 239.701H237.375V226.795H250.281V239.701ZM250.281 225.616H237.375V212.71H250.281V225.616ZM250.281 211.531H237.375V198.625H250.281V211.531ZM250.281 197.476H237.375V184.57H250.281V197.476ZM250.281 183.391H237.375V170.485H250.281V183.391ZM250.281 169.306H237.375V156.4H250.281V169.306ZM264.366 239.701H251.46V226.795H264.366V239.701ZM264.366 225.616H251.46V212.71H264.366V225.616ZM264.366 211.531H251.46V198.625H264.366V211.531ZM264.366 197.476H251.46V184.57H264.366V197.476ZM264.366 183.391H251.46V170.485H264.366V183.391ZM264.366 169.306H251.46V156.4H264.366V169.306ZM278.451 239.701H265.545V226.795H278.451V239.701ZM278.451 225.616H265.545V212.71H278.451V225.616ZM278.451 211.531H265.545V198.625H278.451V211.531ZM278.451 197.476H265.545V184.57H278.451V197.476ZM278.451 183.391H265.545V170.485H278.451V183.391ZM278.451 169.306H265.545V156.4H278.451V169.306ZM292.507 239.701H279.6V226.795H292.507V239.701ZM292.507 225.616H279.6V212.71H292.507V225.616ZM292.507 211.531H279.6V198.625H292.507V211.531ZM292.507 197.476H279.6V184.57H292.507V197.476ZM292.507 183.391H279.6V170.485H292.507V183.391ZM292.507 169.306H279.6V156.4H292.507V169.306ZM306.591 239.701H293.685V226.795H306.591V239.701ZM306.591 225.616H293.685V212.71H306.591V225.616ZM306.591 211.531H293.685V198.625H306.591V211.531ZM306.591 197.476H293.685V184.57H306.591V197.476ZM306.591 183.391H293.685V170.485H306.591V183.391ZM306.591 169.306H293.685V156.4H306.591V169.306ZM320.676 239.701H307.77V226.795H320.676V239.701ZM320.676 225.616H307.77V212.71H320.676V225.616ZM320.676 211.531H307.77V198.625H320.676V211.531ZM320.676 197.476H307.77V184.57H320.676V197.476ZM320.676 183.391H307.77V170.485H320.676V183.391ZM320.676 169.306H307.77V156.4H320.676V169.306ZM334.761 239.701H321.855V226.795H334.761V239.701ZM334.761 225.616H321.855V212.71H334.761V225.616ZM334.761 211.531H321.855V198.625H334.761V211.531ZM334.761 197.476H321.855V184.57H334.761V197.476ZM334.761 183.391H321.855V170.485H334.761V183.391ZM334.761 169.306H321.855V156.4H334.761V169.306ZM348.169 239.701H335.94V226.795H348.169V239.701ZM348.169 225.616H335.94V212.71H348.169V225.616ZM348.169 211.531H335.94V198.625H348.169V211.531ZM348.169 197.476H335.94V184.57H348.169V197.476ZM348.169 183.391H335.94V170.485H348.169V183.391ZM348.169 169.306H335.94V156.4H348.169V169.306ZM362.253 239.701H349.347V226.795H362.253V239.701ZM362.253 225.616H349.347V212.71H362.253V225.616ZM362.253 211.531H349.347V198.625H362.253V211.531ZM362.253 197.476H349.347V184.57H362.253V197.476ZM362.253 183.391H349.347V170.485H362.253V183.391ZM362.253 169.306H349.347V156.4H362.253V169.306ZM376.309 239.701H363.403V226.795H376.309V239.701ZM376.309 225.616H363.403V212.71H376.309V225.616ZM376.309 211.531H363.403V198.625H376.309V211.531ZM376.309 197.476H363.403V184.57H376.309V197.476ZM376.309 183.391H363.403V170.485H376.309V183.391ZM376.309 169.306H363.403V156.4H376.309V169.306ZM390.394 239.701H377.488V226.795H390.394V239.701ZM390.394 225.616H377.488V212.71H390.394V225.616ZM390.394 211.531H377.488V198.625H390.394V211.531ZM390.394 197.476H377.488V184.57H390.394V197.476ZM390.394 183.391H377.488V170.485H390.394V183.391ZM390.394 169.306H377.488V156.4H390.394V169.306ZM404.479 239.701H391.573V226.795H404.479V239.701ZM404.479 225.616H391.573V212.71H404.479V225.616ZM404.479 211.531H391.573V198.625H404.479V211.531ZM404.479 197.476H391.573V184.57H404.479V197.476ZM404.479 183.391H391.573V170.485H404.479V183.391ZM404.479 169.306H391.573V156.4H404.479V169.306ZM418.564 239.701H405.657V226.795H418.564V239.701ZM418.564 225.616H405.657V212.71H418.564V225.616ZM418.564 211.531H405.657V198.625H418.564V211.531ZM418.564 197.476H405.657V184.57H418.564V197.476ZM418.564 183.391H405.657V170.485H418.564V183.391ZM418.564 169.306H405.657V156.4H418.564V169.306ZM432.619 239.701H419.713V226.795H432.619V239.701ZM432.619 225.616H419.713V212.71H432.619V225.616ZM432.619 211.531H419.713V198.625H432.619V211.531ZM432.619 197.476H419.713V184.57H432.619V197.476ZM432.619 183.391H419.713V170.485H432.619V183.391ZM432.619 169.306H419.713V156.4H432.619V169.306Z" fill="#0E242E"/>
<path d="M441.783 192.82C428.14 209.616 430.94 194.912 414.144 172.871C397.348 150.831 377.429 191.759 366.231 206.11C355.034 220.46 344.544 233.042 320.411 201.218C296.278 169.394 282.635 192.113 266.193 215.568C249.751 238.994 240.999 241.44 229.832 232.364C220.196 224.555 216.542 221.638 209.028 225.204V235.016C209.028 240.025 213.095 244.062 218.075 244.062H433.709C438.719 244.062 442.756 239.996 442.756 235.016V191.612C442.431 192.025 442.107 192.408 441.783 192.82Z" fill="#2B6E8C"/>
<path d="M218.075 244.033H433.709C438.719 244.033 442.756 239.967 442.756 234.987V231.186C436.774 232.158 427.227 231.51 417.827 221.491C402.622 205.226 391.072 207.318 366.939 220.961C342.806 234.604 336.765 224.909 321.56 209.41C306.356 193.94 292.713 199.185 278.54 215.981C264.366 232.777 252.049 241.44 237.611 230.685C225.087 221.373 218.693 224.644 209.028 232.895V235.016C209.028 239.996 213.065 244.033 218.075 244.033Z" fill="#2B6E8C"/>
<path d="M257.862 325.6C268.38 315.083 268.38 298.03 257.862 287.513C247.345 276.995 230.292 276.995 219.775 287.513C209.257 298.03 209.257 315.083 219.775 325.6C230.292 336.118 247.345 336.118 257.862 325.6Z" fill="#FA6A85"/>
<path d="M238.819 306.561H265.752C265.752 301.934 264.573 297.573 262.51 293.772L238.819 306.561Z" fill="#84D4FD"/>
<path d="M238.819 306.561L262.51 293.772C258.356 286.081 250.576 280.66 241.442 279.776L238.819 306.561Z" fill="#84D4FD"/>
<path d="M221.965 327.541C226.591 331.253 232.425 333.463 238.82 333.463C253.7 333.463 265.752 321.412 265.752 306.531H238.82L221.965 327.541Z" fill="#73A0F9"/>
<path d="M289.531 284.343H278.333V295.54H289.531V284.343Z" fill="#84D4FD"/>
<path d="M356.744 293.802H298.902C296.809 293.802 295.13 292.122 295.13 290.03V289.205C295.13 287.113 296.809 285.433 298.902 285.433H356.744C358.836 285.433 360.516 287.113 360.516 289.205V290.03C360.545 292.092 358.836 293.802 356.744 293.802Z" fill="#8BB1F9"/>
<path d="M289.531 305.117H278.333V316.314H289.531V305.117Z" fill="#73A0F9"/>
<path d="M424.694 314.575H298.902C296.809 314.575 295.13 312.896 295.13 310.804V309.979C295.13 307.887 296.809 306.207 298.902 306.207H424.694C426.786 306.207 428.465 307.887 428.465 309.979V310.804C428.465 312.866 426.786 314.575 424.694 314.575Z" fill="#8BB1F9"/>
<path d="M289.531 325.92H278.333V337.117H289.531V325.92Z" fill="#FA6A85"/>
<path d="M389.275 335.349H298.902C296.809 335.349 295.13 333.67 295.13 331.577V330.752C295.13 328.66 296.809 326.981 298.902 326.981H389.275C391.367 326.981 393.047 328.66 393.047 330.752V331.577C393.076 333.67 391.367 335.349 389.275 335.349Z" fill="#8BB1F9"/>
<path d="M596.895 475.756H629.661L633.109 347.136L596.895 475.756Z" fill="#4D7CDB"/>
<path d="M633.109 347.136H656.299L668.705 475.756H629.662L633.109 347.136Z" fill="#5990FF"/>
<path d="M633.109 347.136H520.636C526.057 389.597 515.214 458.696 484.421 475.757H596.895C627.687 458.696 638.531 389.597 633.109 347.136Z" fill="#7FA8F9"/>
<path d="M642.98 463.263H642.185C641.477 463.263 640.917 462.703 640.917 461.996V364.816C640.917 364.108 641.477 363.548 642.185 363.548H642.98C643.687 363.548 644.247 364.108 644.247 364.816V461.996C644.247 462.703 643.687 463.263 642.98 463.263Z" fill="#8BB1F9"/>
<path d="M657.89 463.38L657.094 463.41C656.387 463.439 655.798 462.909 655.768 462.202L653.823 422.511C653.794 421.803 654.324 421.214 655.032 421.185L655.827 421.155C656.534 421.126 657.124 421.656 657.153 422.363L659.098 462.054C659.127 462.762 658.597 463.351 657.89 463.38Z" fill="#8BB1F9"/>
<path d="M653.529 396.58L652.733 396.61C652.026 396.639 651.437 396.109 651.407 395.401L649.463 355.71C649.433 355.003 649.964 354.414 650.671 354.384L651.466 354.355C652.174 354.325 652.763 354.856 652.792 355.563L654.737 395.254C654.767 395.961 654.236 396.551 653.529 396.58Z" fill="#8BB1F9"/>
<path d="M553.49 382.731H602.169C602.611 374.981 602.67 367.408 602.316 360.248H553.638C553.991 367.379 553.932 374.981 553.49 382.731Z" fill="#FA6A85"/>
<path d="M617.226 410.4C618.199 405.037 618.965 399.586 619.554 394.164H570.876C570.286 399.586 569.52 405.037 568.548 410.4H617.226Z" fill="white"/>
<path d="M551.812 410.4C552.784 405.037 553.55 399.586 554.139 394.164H536.577C535.988 399.586 535.222 405.037 534.25 410.4H551.812Z" fill="white"/>
<path d="M609.153 440.367C611.097 435.24 612.777 429.789 614.221 424.131H565.542C564.098 429.789 562.389 435.24 560.474 440.367H609.153Z" fill="white"/>
<path d="M543.737 440.367C545.682 435.24 547.362 429.789 548.805 424.131H531.243C529.8 429.789 528.091 435.24 526.175 440.367H543.737Z" fill="white"/>
<path d="M591.621 469.51C596.07 465.178 599.989 459.668 603.378 453.274H554.7C551.311 459.668 547.392 465.178 542.942 469.51H591.621Z" fill="white"/>
<path d="M526.175 469.51C530.625 465.178 534.544 459.668 537.932 453.274H520.37C516.982 459.668 513.063 465.178 508.613 469.51H526.175Z" fill="white"/>
<path d="M127.672 252.372C126.11 252.608 125.875 253.757 125.875 253.757C124.077 252.46 123.488 254.14 124.49 254.965C122.545 254.876 124.166 256.32 124.313 256.379C122.869 258.088 124.637 267.753 124.637 267.753L136.011 267.429C136.011 267.429 140.608 262.302 140.696 262.331C142.877 260.976 143.319 258.177 141.904 256.409C144.704 254.523 141.669 248.099 135.893 249.602C135.51 246.979 127.26 246.272 127.672 252.372Z" fill="#2B1710"/>
<path d="M130.206 253.963C130.206 255.849 128.762 256.409 128.084 256.202C130.294 260.563 128.438 263.157 126.258 263.068C126.081 264.6 125.433 265.072 125.433 265.072L125.462 270.111C126.081 274.796 125.256 279.835 125.02 280.188C124.784 280.542 122.339 280.925 122.309 281.043C122.427 283.606 133.359 290.383 139.753 282.369C137.396 281.956 136.6 281.219 136.394 280.689C136.188 280.188 136.541 276.593 136.541 276.593C138.781 275.798 140.991 274.206 141.226 270.729C141.462 267.252 140.873 257.057 140.873 257.057C135.657 260.74 130.678 258.059 130.206 253.963Z" fill="#FF8762"/>
<path d="M126.67 268.902C126.435 270.11 125.226 270.906 124.018 270.67C122.81 270.435 122.015 269.226 122.25 268.018C122.486 266.81 123.694 266.015 124.902 266.25C126.11 266.486 126.936 267.694 126.67 268.902Z" fill="#FF8762"/>
<path d="M138.899 269.993C138.663 272.203 136.306 275.798 132.416 270.7C134.213 271.024 136.807 271.171 138.899 269.993Z" fill="#521A14"/>
<path d="M138.781 270.022C138.457 271.171 136.365 272.821 132.888 270.877C135.304 270.994 137.602 270.847 138.781 270.022Z" fill="white"/>
<path d="M132.386 266.928C131.826 266.81 131.296 266.427 131.149 265.808C131.149 265.749 131.178 265.691 131.208 265.691C131.267 265.691 131.326 265.72 131.326 265.749C131.502 266.486 132.239 266.81 132.857 266.751C132.916 266.751 132.945 266.78 132.975 266.839C132.975 266.898 132.945 266.928 132.887 266.957C132.739 266.957 132.563 266.957 132.386 266.928Z" fill="#E0B3A8"/>
<path d="M128.909 262.744C128.85 262.714 128.821 262.656 128.85 262.597C129.646 261.035 131.827 260.387 133.27 260.77C133.329 260.77 133.359 260.829 133.329 260.888C133.329 260.946 133.27 260.976 133.211 260.947C131.827 260.593 129.764 261.212 128.998 262.685C128.998 262.744 128.968 262.744 128.909 262.744Z" fill="#2B1710"/>
<path d="M140.549 262.066C140.519 262.066 140.49 262.037 140.49 262.007C140.048 261.212 138.722 260.829 137.838 261.241C137.779 261.271 137.72 261.241 137.72 261.182C137.691 261.123 137.72 261.064 137.779 261.064C138.751 260.593 140.195 261.005 140.696 261.889C140.726 261.948 140.696 262.007 140.667 262.037C140.578 262.066 140.549 262.066 140.549 262.066Z" fill="#2B1710"/>
<path d="M138.221 269.109C138.192 269.109 138.162 269.079 138.162 269.05C138.133 268.991 138.162 268.932 138.192 268.902C138.545 268.696 138.663 268.372 138.663 268.166C138.693 267.901 138.604 267.694 138.575 267.665C138.486 267.606 137.985 267.694 137.691 267.753C137.514 267.783 137.337 267.812 137.19 267.842C137.072 267.842 136.954 267.783 136.866 267.606C136.483 266.958 136.041 264.365 137.426 262.39C137.455 262.331 137.514 262.331 137.573 262.361C137.632 262.39 137.632 262.449 137.602 262.508C136.335 264.306 136.63 266.84 137.043 267.518C137.101 267.635 137.16 267.665 137.16 267.665C137.308 267.635 137.485 267.606 137.661 267.576C138.221 267.459 138.575 267.429 138.693 267.547C138.811 267.635 138.869 267.93 138.84 268.195C138.811 268.431 138.722 268.843 138.251 269.109C138.28 269.109 138.251 269.109 138.221 269.109Z" fill="#2B1710"/>
<path d="M133.006 270.906C132.77 270.847 132.535 270.788 132.299 270.729C132.24 270.7 132.211 270.671 132.24 270.612C132.27 270.553 132.299 270.523 132.358 270.553C134.774 271.348 138.31 270.612 139.017 269.728C139.047 269.698 139.106 269.669 139.165 269.698C139.194 269.728 139.224 269.787 139.194 269.845C138.516 270.671 135.422 271.378 133.006 270.906Z" fill="#2B1710"/>
<path d="M125.226 269.757C124.46 269.61 124.225 269.256 124.166 269.02C124.077 268.755 124.166 268.461 124.401 268.284C124.608 268.107 124.991 267.96 125.462 268.077C125.138 267.37 124.519 267.017 124.018 266.987C123.547 266.958 123.164 267.164 122.928 267.547C122.899 267.606 122.84 267.606 122.781 267.577C122.722 267.547 122.722 267.488 122.751 267.429C123.016 266.958 123.458 266.722 124.018 266.781C124.755 266.84 125.433 267.4 125.727 268.195C125.727 268.225 125.727 268.284 125.698 268.313C125.668 268.343 125.639 268.343 125.58 268.343C125.109 268.136 124.726 268.254 124.519 268.431C124.342 268.578 124.284 268.785 124.342 268.991C124.431 269.315 124.843 269.521 125.433 269.61C125.492 269.61 125.521 269.669 125.521 269.728C125.521 269.787 125.462 269.816 125.403 269.816C125.344 269.787 125.285 269.787 125.226 269.757Z" fill="#E0B3A8"/>
<path d="M135.009 274.295C134.95 274.295 134.891 274.265 134.803 274.236C134.744 274.236 134.715 274.177 134.744 274.118C134.744 274.059 134.803 274.029 134.862 274.059C136.365 274.442 137.75 273.823 137.75 273.823C137.808 273.794 137.867 273.823 137.867 273.882C137.897 273.941 137.867 274 137.808 274C137.779 274.029 136.482 274.589 135.009 274.295Z" fill="#E0B3A8"/>
<path d="M132.74 276.799C129.175 276.092 127.319 273.175 126.759 270.464C126.759 270.405 126.788 270.346 126.847 270.346C126.906 270.346 126.965 270.376 126.965 270.435C127.643 273.794 130.413 277.448 135.982 276.652C136.041 276.652 136.07 276.682 136.1 276.741C136.1 276.799 136.07 276.829 136.011 276.858C134.774 277.035 133.683 277.006 132.74 276.799Z" fill="#E0B3A8"/>
<path d="M133.183 265.101C133.183 265.808 132.888 266.398 132.475 266.398C132.092 266.398 131.768 265.838 131.739 265.131C131.739 264.423 132.033 263.834 132.446 263.834C132.858 263.805 133.183 264.364 133.183 265.101Z" fill="#2B1710"/>
<path d="M138.545 266.751C137.985 266.633 137.455 266.25 137.308 265.632C137.308 265.573 137.338 265.514 137.367 265.514C137.426 265.514 137.485 265.543 137.485 265.573C137.662 266.309 138.398 266.633 139.016 266.574C139.075 266.574 139.105 266.603 139.134 266.662C139.134 266.721 139.105 266.751 139.046 266.78C138.898 266.81 138.722 266.81 138.545 266.751Z" fill="#E0B3A8"/>
<path d="M139.37 264.924C139.37 265.632 139.075 266.221 138.663 266.221C138.25 266.221 137.956 265.661 137.926 264.954C137.926 264.247 138.221 263.657 138.633 263.657C139.017 263.628 139.341 264.217 139.37 264.924Z" fill="#2B1710"/>
<path d="M134.538 272.792C136.277 273.882 137.573 273.057 138.28 271.849C136.778 271.938 135.334 272.468 134.538 272.792Z" fill="white"/>
<path d="M129.971 268.46C129.882 268.519 129.529 268.136 129.146 267.576C128.792 267.017 128.556 266.545 128.645 266.486C128.733 266.427 129.087 266.81 129.47 267.37C129.853 267.93 130.059 268.401 129.971 268.46Z" fill="#F7D5CD"/>
<path d="M131.002 268.814C130.913 268.873 130.56 268.49 130.177 267.93C129.793 267.37 129.587 266.899 129.676 266.84C129.764 266.781 130.118 267.164 130.501 267.724C130.884 268.284 131.09 268.755 131.002 268.814Z" fill="#F7D5CD"/>
<path d="M132.151 269.05C132.062 269.109 131.709 268.726 131.326 268.166C130.972 267.606 130.736 267.134 130.825 267.075C130.913 267.016 131.267 267.4 131.65 267.959C132.003 268.49 132.239 268.991 132.151 269.05Z" fill="#F7D5CD"/>
<path d="M144.969 457.399L146.324 465.473C144.645 469.922 145.381 475.521 145.381 475.521L178.413 475.55C174.848 468.861 159.348 468.36 157.728 465.148C156.107 461.937 155.37 452.448 155.37 452.448L144.969 457.399Z" fill="#FF8762"/>
<path d="M152.394 465.885C152.335 464.736 153.19 460.581 156.195 459.344C156.578 461.613 157.079 463.881 157.727 465.178C159.348 468.39 174.847 468.891 178.413 475.58L145.381 475.55C145.381 475.55 144.644 469.922 146.324 465.502C146.324 465.473 152.276 467.977 152.394 465.885Z" fill="#2B1710"/>
<path d="M177.529 474.283C177.883 474.696 178.178 475.108 178.413 475.55L145.382 475.521C145.382 475.521 145.323 475.02 145.264 474.224L177.529 474.283Z" fill="#693E2F"/>
<path d="M155.311 466.74C155.399 466.74 155.458 466.681 155.488 466.622C155.488 466.622 155.989 465.266 156.961 464.854C157.344 464.677 157.786 464.677 158.228 464.883C158.316 464.913 158.434 464.883 158.464 464.795C158.493 464.706 158.464 464.589 158.375 464.559C157.816 464.323 157.285 464.323 156.784 464.53C155.665 465.031 155.134 466.474 155.134 466.533C155.105 466.622 155.164 466.74 155.252 466.769C155.252 466.74 155.281 466.74 155.311 466.74Z" fill="#693E2F"/>
<path d="M158.435 468.95C158.523 468.95 158.582 468.891 158.612 468.832C158.612 468.832 159.113 467.476 160.085 467.064C160.468 466.887 160.91 466.887 161.352 467.093C161.441 467.123 161.558 467.093 161.588 467.005C161.617 466.917 161.588 466.799 161.499 466.769C160.94 466.533 160.409 466.533 159.908 466.74C158.789 467.241 158.258 468.684 158.258 468.743C158.229 468.832 158.288 468.95 158.376 468.979C158.376 468.95 158.405 468.95 158.435 468.95Z" fill="#693E2F"/>
<path d="M163.561 470.394C163.65 470.394 163.709 470.335 163.738 470.276C163.738 470.276 164.239 468.92 165.212 468.508C165.595 468.331 166.037 468.331 166.479 468.537C166.567 468.567 166.685 468.537 166.714 468.449C166.744 468.36 166.714 468.242 166.626 468.213C166.066 467.977 165.536 467.977 165.035 468.184C163.915 468.684 163.385 470.128 163.385 470.187C163.355 470.276 163.414 470.394 163.502 470.423C163.502 470.394 163.532 470.394 163.561 470.394Z" fill="#693E2F"/>
<path d="M102.065 457.399L103.421 465.473C101.741 469.922 102.478 475.521 102.478 475.521L135.51 475.55C131.944 468.861 116.445 468.36 114.824 465.148C113.204 461.937 112.467 452.448 112.467 452.448L102.065 457.399Z" fill="#FF8762"/>
<path d="M109.491 465.885C109.432 464.736 110.287 460.581 113.292 459.344C113.675 461.613 114.176 463.881 114.825 465.178C116.445 468.39 131.945 468.891 135.51 475.58L102.478 475.55C102.478 475.55 101.742 469.922 103.421 465.502C103.421 465.473 109.403 467.977 109.491 465.885Z" fill="#2B1710"/>
<path d="M134.626 474.283C134.98 474.696 135.274 475.108 135.51 475.55L102.478 475.521C102.478 475.521 102.419 475.02 102.36 474.224L134.626 474.283Z" fill="#693E2F"/>
<path d="M112.408 466.74C112.496 466.74 112.555 466.681 112.585 466.622C112.585 466.622 113.086 465.266 114.058 464.854C114.441 464.677 114.883 464.677 115.325 464.883C115.414 464.913 115.532 464.883 115.561 464.795C115.59 464.706 115.561 464.589 115.473 464.559C114.913 464.323 114.382 464.323 113.881 464.53C112.762 465.031 112.231 466.474 112.231 466.533C112.202 466.622 112.261 466.74 112.349 466.769C112.349 466.74 112.379 466.74 112.408 466.74Z" fill="#693E2F"/>
<path d="M115.532 468.95C115.621 468.95 115.679 468.891 115.709 468.832C115.709 468.832 116.21 467.476 117.182 467.064C117.565 466.887 118.007 466.887 118.449 467.093C118.538 467.123 118.656 467.093 118.685 467.005C118.715 466.917 118.685 466.799 118.597 466.769C118.037 466.533 117.506 466.533 117.005 466.74C115.886 467.241 115.355 468.684 115.355 468.743C115.326 468.832 115.385 468.95 115.473 468.979C115.473 468.95 115.503 468.95 115.532 468.95Z" fill="#693E2F"/>
<path d="M120.659 470.394C120.747 470.394 120.806 470.335 120.835 470.276C120.835 470.276 121.336 468.92 122.309 468.508C122.692 468.331 123.134 468.331 123.576 468.537C123.664 468.567 123.782 468.537 123.811 468.449C123.841 468.36 123.811 468.242 123.723 468.213C123.163 467.977 122.633 467.977 122.132 468.184C121.012 468.684 120.482 470.128 120.482 470.187C120.452 470.276 120.511 470.394 120.6 470.423C120.6 470.394 120.629 470.394 120.659 470.394Z" fill="#693E2F"/>
<path d="M159.731 342.185C168.542 376.985 164.682 452.832 162.678 463.469H141.727C143.731 438.776 132.976 382.495 132.976 382.495C129.97 426.783 120.777 463.056 120.777 463.056H97.3511L109.491 343.217L134.243 334.848L159.731 342.185Z" fill="#213594"/>
<path d="M112.998 286.111C95.8781 303.555 84.7398 335.968 114.324 340.948C143.908 345.957 112.998 286.111 112.998 286.111Z" fill="#A6D5F5"/>
<path d="M139.488 281.219C144.379 282.133 148.269 284.638 148.269 284.638C156.372 297.279 160.173 343.983 160.173 343.983L109.491 344.808C109.314 341.331 108.813 290.118 112.968 286.14C117.123 282.162 123.517 280.748 123.517 280.748C123.517 280.748 133.948 280.807 139.488 281.219Z" fill="#C7E8FF"/>
<path d="M193.353 310.863C193.618 309.772 195.268 302.877 195.68 302.141C196.093 301.375 201.957 296.188 202.605 295.864C203.224 295.54 208.174 293.949 208.321 293.978C209.205 295.128 208.469 296.247 207.172 297.19C205.876 298.133 204.078 299.194 203.96 299.43C203.843 299.665 202.988 301.08 203.253 301.198C203.548 301.345 205.316 304.793 205.728 305.942C206.141 307.091 205.787 308.888 204.638 310.391C203.489 311.865 196.476 316.962 196.476 316.962L193.353 310.863Z" fill="#FF8762"/>
<path d="M148.27 284.608C153.367 287.496 158.671 298.339 162.885 304.999C167.099 311.658 182.509 317.728 193.795 306.325C194.355 306.885 197.243 317.198 197.243 317.198C194.915 324.299 180.83 335.379 163.238 333.051C145.618 330.723 142.082 312.336 141.64 306.796C140.873 297.072 143.083 286.288 148.27 284.608Z" fill="#A6D5F5"/>
<path d="M168.483 314.31C168.542 314.34 168.63 314.34 168.689 314.281C169.072 313.868 169.426 312.925 169.691 312.189C169.809 311.923 169.927 311.57 170.015 311.393C170.163 311.717 170.339 312.601 170.163 312.896C170.104 312.955 170.133 313.072 170.192 313.131C170.251 313.19 170.369 313.161 170.428 313.102C170.663 312.748 170.516 311.982 170.398 311.599C170.251 311.128 170.133 311.069 170.074 311.039C170.045 311.01 169.956 311.01 169.927 311.039C169.779 311.098 169.691 311.305 169.396 312.1C169.131 312.778 168.778 313.721 168.454 314.104C168.395 314.133 168.424 314.222 168.483 314.31C168.483 314.281 168.483 314.281 168.483 314.31Z" fill="#D9D9D9"/>
<path d="M132.328 379.46C132.357 379.46 132.387 379.46 132.416 379.431C132.534 379.372 132.563 379.254 132.534 379.166C132.18 378.311 131.768 376.131 131.267 373.596C130.236 368.292 128.969 361.692 127.112 360.779C124.519 359.482 122.928 350.288 124.549 345.869C124.578 345.751 124.519 345.633 124.431 345.603C124.313 345.574 124.195 345.633 124.165 345.721C122.456 350.377 124.136 359.777 126.935 361.162C128.615 362.016 129.911 368.764 130.854 373.685C131.355 376.219 131.768 378.429 132.151 379.342C132.151 379.401 132.239 379.46 132.328 379.46Z" fill="#BFBFBF"/>
<path d="M159.142 457.016C159.26 457.016 159.348 456.927 159.348 456.809C159.407 456.043 164.358 381.258 156.255 345.957C156.225 345.839 156.107 345.78 155.989 345.81C155.871 345.839 155.813 345.957 155.842 346.075C163.945 381.317 158.995 456.073 158.936 456.809C158.936 456.927 159.024 457.016 159.142 457.016Z" fill="#BFBFBF"/>
<path d="M162.03 459.461C162.148 459.461 162.236 459.373 162.236 459.255C162.236 459.137 162.148 459.049 162.03 459.049L144.085 458.813C143.967 458.813 143.879 458.902 143.879 459.019C143.879 459.137 143.967 459.226 144.085 459.226L162.03 459.461Z" fill="#BFBFBF"/>
<path d="M120.365 458.578C120.482 458.578 120.571 458.489 120.571 458.371C120.571 458.253 120.482 458.165 120.365 458.165L99.9738 457.723C99.856 457.723 99.7676 457.811 99.7676 457.929C99.7676 458.047 99.856 458.136 99.9738 458.136L120.365 458.578Z" fill="#BFBFBF"/>
<path d="M615.694 196.386H513.387C507.729 196.386 503.132 191.789 503.132 186.131V179.56C503.132 173.903 507.729 169.306 513.387 169.306H615.694C621.351 169.306 625.948 173.903 625.948 179.56V186.131C625.948 191.818 621.351 196.386 615.694 196.386Z" fill="#AEC9FF"/>
<path d="M613.867 186.515H516.275C514.772 186.515 513.564 185.307 513.564 183.804V182.065C513.564 180.562 514.772 179.354 516.275 179.354H613.867C615.37 179.354 616.578 180.562 616.578 182.065V183.804C616.578 185.277 615.37 186.515 613.867 186.515Z" fill="#FA6A85"/>
<path d="M549.778 191.17C554.253 191.17 557.881 187.542 557.881 183.067C557.881 178.592 554.253 174.964 549.778 174.964C545.302 174.964 541.674 178.592 541.674 183.067C541.674 187.542 545.302 191.17 549.778 191.17Z" fill="white"/>
<path d="M570.935 237.609C574.412 235.163 581.955 234.279 585.874 239.819C589.764 245.359 616.932 277.566 598.692 283.223C580.452 288.881 566.25 280.571 564.717 274.295C563.215 268.018 564.6 260.092 568.106 252.784C571.642 245.506 570.935 237.609 570.935 237.609Z" fill="#2B1710"/>
<path d="M538.58 427.137C537.696 425.34 536.724 421.921 536.96 417.001C537.225 415.174 537.52 412.846 537.873 410.194C538.05 408.868 538.227 407.453 538.433 406.01L529.623 408.367C529.77 409.958 529.917 411.431 530.035 412.787C530.3 415.675 530.212 418.592 529.711 421.45C529.564 422.305 529.387 423.041 529.181 423.454C528.474 424.868 523.435 429.76 521.107 434.003C520.901 434.504 515.685 435.329 516.451 436.537C516.923 436.802 526.028 437.509 527.059 436.537C528.091 435.564 530.507 433.119 533.218 432.559C533.394 432.588 533.394 436.979 533.394 436.979L537.343 437.008C537.343 437.008 537.814 433.119 537.962 431.94C538.139 430.761 539.494 428.964 538.58 427.137Z" fill="#FF8762"/>
<path d="M521.108 434.062C522.758 434.238 524.555 434.621 525.203 434.327C526.058 433.944 531.686 426.99 537.845 425.251C538.08 426.017 538.345 426.636 538.581 427.137C539.495 428.964 538.139 430.732 537.962 431.91C537.786 433.089 537.344 436.979 537.344 436.979L533.395 436.949C533.395 436.949 533.395 432.559 533.218 432.529C530.507 433.089 528.091 435.505 527.06 436.507C526.029 437.48 516.953 436.772 516.452 436.507C515.715 435.388 520.636 434.592 521.108 434.062Z" fill="#2B1710"/>
<path d="M532.422 370.267C531.067 368.794 529.181 365.788 528.032 361.014C527.767 359.187 527.413 356.86 527 354.208C526.794 352.882 526.588 351.497 526.352 350.023L518.573 354.768C519.162 356.241 519.722 357.626 520.223 358.893C521.313 361.604 522.05 364.432 522.345 367.32C522.433 368.204 522.463 368.941 522.404 369.383C522.138 370.945 518.661 377.074 517.63 381.759C517.571 382.319 512.798 384.558 513.888 385.501C514.418 385.619 523.347 383.733 524.054 382.525C524.761 381.287 526.382 378.282 528.827 376.985C529.004 376.956 530.242 381.169 530.242 381.169L534.043 380.079C534.043 380.079 533.395 376.219 533.218 375.04C533.012 373.832 533.807 371.74 532.422 370.267Z" fill="#FF8762"/>
<path d="M517.601 381.788C519.221 381.494 521.078 381.346 521.608 380.904C522.315 380.315 525.763 372.035 531.185 368.646C531.627 369.295 532.039 369.825 532.422 370.237C533.807 371.711 533.012 373.832 533.189 374.982C533.365 376.16 534.014 380.02 534.014 380.02L530.212 381.111C530.212 381.111 528.975 376.897 528.798 376.926C526.352 378.223 524.702 381.228 524.024 382.466C523.347 383.704 514.389 385.56 513.859 385.442C512.798 384.588 517.306 382.466 517.601 381.788Z" fill="#2B1710"/>
<path d="M566.191 267.076C553.844 272.704 555.995 301.021 520.989 273.146L517.276 278.42C522.846 289.264 536.017 303.82 551.811 303.201C567.605 302.583 575.826 292.977 575.826 292.977L566.191 267.076Z" fill="#A6D5F5"/>
<path d="M571.701 266.251L566.191 267.076C565.484 274.619 558.647 282.752 558.294 286.936C557.94 291.12 563.391 297.397 565.601 301.345C567.811 305.294 567.811 308.771 567.811 308.771H590.943C590.943 307.739 596.512 281.809 595.834 275.444C595.156 269.079 586.906 266.663 586.906 266.663C586.906 266.663 578.596 267.311 571.701 266.251Z" fill="#C7E8FF"/>
<path d="M579.333 258C584.902 258.972 588.143 253.786 586.523 249.72C586.965 241.381 583.428 233.16 570.935 237.609C564.717 238.375 562.331 246.596 567.428 248.748C574.235 254.759 579.333 258 579.333 258Z" fill="#2B1710"/>
<path d="M574.353 261.212C574.736 263.54 574.883 264.041 571.583 266.251C571.671 276.741 586.876 268.136 586.847 266.575C586.847 266.368 584.018 265.75 583.016 263.952C582.014 262.155 581.513 257.587 581.896 251.488C579.509 252.107 578.684 250.221 578.655 246.98C578.596 243.738 577.064 238.523 570.758 239.348C568.371 242.265 567.104 244.092 567.31 247.893C567.517 251.665 567.075 254.376 567.546 256.173C567.959 257.971 569.903 261.3 574.353 261.212Z" fill="#FF8762"/>
<path d="M583.104 254.729C584.179 254.729 585.049 253.858 585.049 252.784C585.049 251.71 584.179 250.84 583.104 250.84C582.03 250.84 581.16 251.71 581.16 252.784C581.16 253.858 582.03 254.729 583.104 254.729Z" fill="#FF8762"/>
<path d="M582.692 253.786C582.633 253.786 582.603 253.757 582.574 253.698C582.544 253.639 582.574 253.551 582.633 253.521C582.81 253.462 582.898 253.344 582.898 253.226C582.898 253.109 582.839 252.961 582.692 252.873C582.544 252.784 582.397 252.784 582.22 252.843C582.191 252.873 582.132 252.873 582.102 252.843C582.073 252.814 582.043 252.784 582.043 252.725C582.073 252.254 582.368 251.9 582.869 251.753C583.369 251.606 583.87 251.753 584.165 252.136C584.195 252.195 584.195 252.284 584.136 252.313C584.077 252.342 583.988 252.342 583.959 252.283C583.694 251.93 583.252 251.9 582.957 251.989C582.721 252.077 582.456 252.254 582.368 252.549C582.544 252.519 582.721 252.549 582.869 252.667C583.075 252.814 583.193 253.05 583.163 253.256C583.163 253.374 583.075 253.609 582.751 253.757C582.721 253.786 582.692 253.786 582.692 253.786Z" fill="#E0B3A8"/>
<path d="M574.736 261.212H574.766C577.977 260.298 580.541 257.587 581.337 254.317C581.366 254.258 581.307 254.169 581.248 254.169C581.189 254.14 581.101 254.199 581.101 254.258C580.364 257.44 577.83 260.063 574.707 260.947C574.648 260.976 574.589 261.035 574.618 261.094C574.648 261.153 574.707 261.212 574.736 261.212Z" fill="#E0B3A8"/>
<path d="M577.889 247.245C577.918 247.245 577.977 247.215 578.007 247.186C578.036 247.127 578.007 247.068 577.948 247.009C576.858 245.477 574.589 244.298 573.616 246.243C573.587 246.302 573.528 246.331 573.528 246.39C573.557 246.449 573.616 246.479 573.675 246.479C574.323 246.272 576.209 246.302 577.83 247.215C577.83 247.245 577.859 247.245 577.889 247.245Z" fill="#2B1710"/>
<path d="M567.752 247.392C567.782 247.392 567.841 247.363 567.841 247.333C567.87 247.304 568.371 246.655 569.962 246.862C570.021 246.862 570.08 246.832 570.11 246.744C570.11 246.685 570.021 246.655 569.992 246.596C569.108 244.681 567.694 247.068 567.635 247.156C567.605 247.215 567.605 247.274 567.664 247.333C567.723 247.363 567.723 247.392 567.752 247.392Z" fill="#2B1710"/>
<path d="M570.64 253.992C570.67 253.992 570.699 253.963 570.729 253.934C570.758 253.875 570.758 253.816 570.699 253.757C570.051 253.256 569.344 252.608 569.196 252.401C569.314 252.372 569.55 252.372 569.727 252.372C570.169 252.372 570.67 252.342 570.994 252.195C571.672 251.812 571.023 249.013 570.434 247.716C570.405 247.657 570.346 247.628 570.257 247.657C570.198 247.687 570.169 247.746 570.198 247.834C570.876 249.366 571.259 251.782 570.876 252.018C570.64 252.166 570.139 252.166 569.727 252.166C569.226 252.166 568.931 252.195 568.931 252.401C568.931 252.637 569.815 253.403 570.552 253.992C570.581 253.963 570.611 253.992 570.64 253.992Z" fill="#2B1710"/>
<path d="M575.148 251.164C575.572 251.164 575.915 250.57 575.915 249.838C575.915 249.106 575.572 248.512 575.148 248.512C574.725 248.512 574.382 249.106 574.382 249.838C574.382 250.57 574.725 251.164 575.148 251.164Z" fill="#2B1710"/>
<path d="M575.325 251.605C575.59 251.605 576.149 251.487 576.326 250.545C576.326 250.515 576.297 250.486 576.267 250.486C576.238 250.486 576.208 250.515 576.208 250.545C576.032 251.458 575.472 251.517 575.266 251.487C575.236 251.487 575.207 251.517 575.207 251.546C575.207 251.576 575.236 251.605 575.266 251.605C575.266 251.605 575.295 251.605 575.325 251.605Z" fill="#E0B3A8"/>
<path d="M569.461 251.311C569.884 251.311 570.227 250.717 570.227 249.985C570.227 249.253 569.884 248.659 569.461 248.659C569.038 248.659 568.695 249.253 568.695 249.985C568.695 250.717 569.038 251.311 569.461 251.311Z" fill="#2B1710"/>
<path d="M569.638 251.782C569.903 251.782 570.463 251.664 570.64 250.722C570.64 250.692 570.61 250.663 570.581 250.663C570.551 250.663 570.522 250.692 570.522 250.722C570.345 251.635 569.786 251.694 569.579 251.664C569.55 251.664 569.521 251.694 569.521 251.723C569.521 251.753 569.55 251.782 569.579 251.782C569.579 251.782 569.609 251.782 569.638 251.782Z" fill="#E0B3A8"/>
<path d="M576.179 252.814C576.474 253.226 576.68 253.579 576.621 253.609C576.562 253.638 576.297 253.373 576.003 252.961C575.708 252.549 575.502 252.195 575.561 252.166C575.59 252.107 575.885 252.401 576.179 252.814Z" fill="#FF7E57"/>
<path d="M575.413 252.902C575.708 253.314 575.914 253.668 575.855 253.697C575.796 253.727 575.531 253.461 575.237 253.049C574.942 252.637 574.736 252.283 574.795 252.254C574.824 252.225 575.119 252.519 575.413 252.902Z" fill="#FF7E57"/>
<path d="M574.588 252.99C574.883 253.403 575.089 253.756 575.03 253.786C574.971 253.815 574.706 253.55 574.411 253.138C574.117 252.725 573.911 252.372 573.97 252.342C573.999 252.284 574.294 252.578 574.588 252.99Z" fill="#FF7E57"/>
<path d="M581.779 255.436C581.779 255.936 582.191 256.349 582.692 256.349C583.192 256.349 583.605 255.936 583.605 255.436C583.605 254.935 583.192 254.523 582.692 254.523C582.191 254.523 581.779 254.935 581.779 255.436Z" fill="white"/>
<path d="M574.117 255.584C571.936 254.935 569.55 255.083 569.314 255.79C570.522 256.438 573.174 255.996 574.117 255.584Z" fill="#E0B3A8"/>
<path d="M571.671 258.442C572.113 258.442 572.555 258.354 572.909 258.147C572.968 258.118 572.968 258.029 572.938 258C572.909 257.941 572.82 257.941 572.791 257.971C571.995 258.501 570.551 258.118 570.404 258C570.345 257.971 570.286 257.971 570.257 258.029C570.227 258.088 570.227 258.147 570.286 258.177C570.375 258.265 570.993 258.442 571.671 258.442Z" fill="#E0B3A8"/>
<path d="M569.402 255.967C570.374 258.442 572.054 258.147 574.087 255.672C572.142 256.144 570.698 256.379 569.402 255.967Z" fill="#E0B3A8"/>
<path d="M571.111 256.232C572.202 256.232 573.498 256.085 574.294 255.702C574.353 255.672 574.382 255.613 574.353 255.554C574.323 255.495 574.264 255.466 574.205 255.495C572.879 256.144 569.933 256.114 569.343 255.79C569.285 255.761 569.226 255.79 569.196 255.849C569.167 255.908 569.196 255.967 569.255 255.996C569.52 256.144 570.257 256.232 571.111 256.232Z" fill="#2B1710"/>
<path d="M567.104 310.479C567.104 310.479 559.885 316.844 558.647 316.844C557.41 316.844 530.448 294.862 521.166 295.776C511.884 296.689 508.142 307.238 510.322 320.557C512.503 333.876 519.162 369.029 519.162 369.029L537.903 363.931C537.903 363.931 529.24 323.651 531.391 324.889C533.571 326.126 552.459 341.007 552.459 341.007L579.716 337.294L578.478 312.513L572.113 309.566L567.104 310.479Z" fill="#162885"/>
<path d="M518.986 362.959C518.868 362.959 518.75 362.871 518.691 362.753C518.632 362.605 518.72 362.429 518.897 362.37L533.159 358.186C533.306 358.127 533.483 358.215 533.542 358.392C533.601 358.539 533.513 358.716 533.336 358.775L519.074 362.959C519.045 362.959 519.015 362.959 518.986 362.959Z" fill="#D4D4D4"/>
<path d="M590.235 310.332C590.235 310.332 600.46 327.688 595.186 340.388C589.911 353.088 557.085 354.65 553.992 362.075C550.898 369.501 541.439 419.682 541.439 419.682H519.899C519.899 419.682 523.759 366.259 531.656 351.85C539.553 337.441 562.331 326.745 565.572 324.447C568.813 322.119 572.084 309.566 572.084 309.566L590.235 310.332Z" fill="#213594"/>
<path d="M591.325 308.27H567.104V310.48H591.325V308.27Z" fill="#2B1710"/>
<path d="M580.512 307.503H579.363V310.98H580.512V307.503Z" fill="#213594"/>
<path d="M588.733 307.503H587.583V310.98H588.733V307.503Z" fill="#213594"/>
<path d="M588.232 326.568C588.202 326.568 588.173 326.568 588.173 326.568C582.839 325.272 580.187 319.496 581.454 311.835C581.484 311.688 581.631 311.57 581.808 311.599C581.955 311.629 582.073 311.776 582.044 311.953C580.835 319.29 583.311 324.8 588.32 326.008C588.467 326.038 588.585 326.215 588.526 326.362C588.497 326.48 588.379 326.568 588.232 326.568Z" fill="#D4D4D4"/>
<path d="M535.428 414.083C535.398 414.083 535.398 414.083 535.369 414.083C535.221 414.054 535.103 413.907 535.133 413.73C535.487 411.785 544.179 366.024 548.629 357.125C551.546 351.291 563.244 348.285 572.673 345.869C578.095 344.484 582.78 343.276 584.813 341.832C590.618 337.736 589.94 323.798 587.318 312.1C587.288 311.953 587.377 311.776 587.554 311.747C587.701 311.717 587.878 311.806 587.907 311.982C590.559 323.857 591.207 338.09 585.167 342.333C583.045 343.836 578.301 345.044 572.821 346.458C563.539 348.845 551.958 351.821 549.159 357.42C544.739 366.259 535.811 413.406 535.722 413.877C535.693 413.995 535.545 414.083 535.428 414.083Z" fill="#D4D4D4"/>
<path d="M521.166 415.174C520.989 415.174 520.872 415.056 520.872 414.879C520.872 414.702 520.989 414.584 521.166 414.584L541.144 414.496C541.321 414.496 541.439 414.614 541.439 414.791C541.439 414.967 541.321 415.085 541.144 415.085L521.166 415.174Z" fill="#D4D4D4"/>
<path d="M605.97 294.067C605.97 294.067 609.271 304.999 609.094 314.634C608.888 324.27 604.468 337.5 604.468 338.915C604.261 342.922 600.961 345.044 598.545 344.719C596.129 344.425 594.596 344.13 594.331 344.661C594.037 345.515 592.416 346.812 591.679 346.605C590.766 347.165 590.176 346.871 590.176 346.871C589.528 347.313 588.909 346.664 588.909 346.664C588.909 346.664 588.909 344.602 589.116 344.219C589.322 343.806 589.764 342.51 589.764 342.51C589.764 342.51 588.703 343.452 588.674 343.953C588.615 344.454 588.762 346.045 588.084 346.222C587.583 344.719 587.731 343.423 587.79 342.716C587.849 342.009 589.44 339.504 590.795 339.268C592.151 339.003 597.602 339.121 598.015 338.62C598.427 338.119 596.747 313.839 596.305 311.599C595.863 309.36 591.355 296.395 591.355 296.395L605.97 294.067Z" fill="#FF8762"/>
<path d="M590.088 341.979C590.118 341.979 590.177 341.949 590.206 341.92L591.001 341.066C591.06 341.007 591.06 340.918 591.001 340.859C590.942 340.801 590.854 340.801 590.795 340.859L590 341.714C589.941 341.772 589.941 341.861 590 341.92C590.029 341.979 590.059 341.979 590.088 341.979Z" fill="#E0B3A8"/>
<path d="M590.353 346.193C590.353 346.193 590.648 344.307 590.677 344.101C590.707 343.953 591.296 343.099 591.826 342.362C591.885 342.303 591.856 342.215 591.797 342.156C591.738 342.097 591.65 342.126 591.591 342.185C591.237 342.657 590.442 343.806 590.412 344.042C590.383 344.277 590.088 346.163 590.088 346.163L590.353 346.193Z" fill="#E0B3A8"/>
<path d="M591.708 346.046C591.767 346.046 591.826 346.016 591.856 345.957C591.856 345.957 592.239 344.837 592.298 344.661C592.357 344.543 592.946 343.806 593.476 343.158C593.535 343.099 593.506 343.01 593.447 342.952C593.388 342.893 593.3 342.922 593.241 342.981C592.975 343.305 592.091 344.366 592.003 344.572C591.915 344.749 591.561 345.839 591.561 345.898C591.532 345.987 591.591 346.046 591.649 346.075C591.679 346.046 591.708 346.046 591.708 346.046Z" fill="#E0B3A8"/>
<path d="M592.563 269.816C585.138 275.149 586.051 286.553 589.764 295.599C593.477 304.645 596.512 313.957 596.512 331.607C603.702 332.992 606.501 332.078 606.501 332.078C606.501 332.078 612.07 316.049 608.829 300.255C605.588 284.461 598.604 269.816 592.563 269.816Z" fill="#A6D5F5"/>
<path d="M569.491 239.259C570.493 244.298 578.744 244.74 580.129 244.74C579.569 239.024 572.408 237.933 569.491 239.259Z" fill="#2B1710"/>
<path d="M498.241 266.545H539.73L546.92 297.131H505.431L498.241 266.545Z" fill="#8CB2FF"/>
<path d="M496.444 266.545H537.903L545.122 297.131H503.634L496.444 266.545Z" fill="#5C90F9"/>
<path d="M519.192 284.137H524.526V281.691C524.526 280.512 523.553 279.54 522.375 279.54H517.041V281.986C517.012 283.164 517.984 284.137 519.192 284.137Z" fill="#8CB2FF"/>
<path d="M561.27 297.131H503.84V299.842H561.27V297.131Z" fill="#5C90F9"/>
<path d="M497.063 283.371C494.028 281.19 492.79 273.617 497.829 272.026C498.035 272.291 498.271 274.207 498.271 274.207C498.271 274.207 505.814 274.914 506.138 277.242C507.288 278.479 506.02 279.835 506.02 279.835C506.138 281.19 502.868 282.015 502.868 282.015C502.868 282.015 504.871 281.632 504.812 282.604C504.753 283.577 499.332 284.343 497.063 283.371Z" fill="#FF8762"/>
<path d="M503.781 277.919C502.072 277.919 499.479 277.742 497.74 276.829C497.711 276.8 497.681 276.77 497.711 276.711C497.74 276.682 497.77 276.652 497.829 276.682C500.54 278.125 505.431 277.713 505.49 277.713C505.549 277.713 505.578 277.742 505.578 277.801C505.578 277.86 505.549 277.89 505.49 277.89C505.49 277.86 504.783 277.919 503.781 277.919Z" fill="#E0B3A8"/>
<path d="M499.803 280.807C499.744 280.807 499.685 280.777 499.685 280.719C499.685 280.66 499.715 280.63 499.773 280.63C499.803 280.63 502.691 280.66 505.696 279.776C505.726 279.776 505.785 279.776 505.785 279.835C505.785 279.864 505.785 279.923 505.726 279.923C502.897 280.777 500.127 280.807 499.803 280.807Z" fill="#E0B3A8"/>
<path d="M501.011 282.339C500.864 282.339 500.775 282.339 500.746 282.339C500.687 282.339 500.657 282.31 500.657 282.251C500.657 282.192 500.687 282.163 500.746 282.163C500.746 282.163 501.541 282.221 502.573 281.986C502.602 281.986 502.661 282.015 502.661 282.045C502.661 282.104 502.632 282.133 502.602 282.133C501.924 282.31 501.335 282.339 501.011 282.339Z" fill="#E0B3A8"/>
</svg>
