<?xml version="1.0" encoding="utf-8"?>
<!-- Generator: Adobe Illustrator 27.0.0, SVG Export Plug-In . SVG Version: 6.00 Build 0)  -->
<svg version="1.1" id="Layer_1" xmlns="http://www.w3.org/2000/svg" xmlns:xlink="http://www.w3.org/1999/xlink" x="0px" y="0px"
	 viewBox="0 0 683 425.2" style="enable-background:new 0 0 683 425.2;" xml:space="preserve">
<style type="text/css">
	.st0{fill:#D5ECFA;}
	.st1{fill:#B1BEDD;}
	.st2{fill:#5CBEE3;}
	.st3{fill:#8DD7F7;}
	.st4{fill:#B1E2F9;}
	.st5{fill:#0B609F;}
	.st6{fill:#C6E0F4;}
	.st7{opacity:0.2;fill:#FFFFFF;enable-background:new    ;}
	.st8{opacity:0.3;fill:#326C90;enable-background:new    ;}
	.st9{opacity:0.5;fill:#FFFFFF;enable-background:new    ;}
	.st10{fill:#4785C5;}
	.st11{fill:#4A85C5;}
	.st12{fill:#2F54A4;}
	.st13{fill:#FFCD4C;}
	.st14{fill:#1061A0;}
	.st15{fill:#FAB995;}
	.st16{fill:#E27633;}
	.st17{fill:#F5917E;}
	.st18{fill:#AE1E3C;}
	.st19{fill:#ECE4B6;}
	.st20{fill:#E1314C;}
	.st21{fill:#4A58A6;}
	.st22{fill:#444F98;}
	.st23{fill:#C1C2C5;}
	.st24{fill:#3B2F3D;}
	.st25{fill:#FCBC68;}
	.st26{fill:#F79831;}
	.st27{fill:#FAEBD4;}
	.st28{fill:#F89F52;}
	.st29{fill:#DAD3A4;}
	.st30{fill:#31415F;}
	.st31{fill:#293752;}
	.st32{fill:#211E1F;}
	.st33{fill:#414C91;}
	.st34{fill:#F79B46;}
	.st35{fill:#39A290;}
	.st36{fill:#79241C;}
	.st37{fill:#E67C25;}
	.st38{fill:#1D285C;}
	.st39{fill:#00B1D1;}
	.st40{fill:#89CFC0;}
	.st41{fill:#237165;}
	.st42{fill:#FFFFFF;}
	.st43{fill:#EF5E7C;}
	.st44{fill:#414559;}
	.st45{fill:#7464AB;}
	.st46{fill:#CECECE;}
	.st47{fill:#F68F31;}
	.st48{fill:#FABA97;}
	.st49{fill:#192E35;}
	.st50{fill:#949ACC;}
	.st51{fill:#002B3A;}
	.st52{fill:#071D2A;}
	.st53{fill:#E3C1A8;}
	.st54{opacity:0.32;fill:#EE8171;enable-background:new    ;}
	.st55{fill:#DE7360;}
	.st56{fill:#281C1C;}
	.st57{fill:#E1E1E1;}
	.st58{fill:#431514;}
	.st59{fill:#383939;}
	.st60{fill:#D46B5E;}
	.st61{fill:#434243;}
	.st62{opacity:0.32;fill:#F08372;enable-background:new    ;}
	.st63{fill:#0E0D0B;}
</style>
<g>
	<path class="st0" d="M9.9,272.8c8.4-40.3,57.1-77,57.1-77c37.8-52,22.3-82,57.5-126c7.8-9.8,22.5-25.8,45.6-39.5
		c46.8-27.8,123.6-44.2,169-14.9c26.6,17.2,22.6,36,57.7,52.6c30.5,14.4,63.1,16.7,63.1,16.7c14.3,1,32.4,0.4,57,7.8
		c6.3,1.9,11.3,3.8,14.4,5c21.6,8.6,50.7,31.3,73.6,67.5c4.5,7.1,62.6,102,21.2,195.2c-3.3,7.5-6.7,13.5-9.1,17.7
		c0,0.3-0.2,0.6-0.6,1c-3.7,5.6-24.4,32-75.6,19.4c-41.8,6.2-104,12.2-194.1,15.3C133.6,421.1,41.8,392,41.8,392
		C6.6,374.7,1.5,313.1,9.9,272.8z"/>
	<path class="st0" d="M387.9,9c4.6-3.6,11.1-4.5,17.2-5c36.7-2.8,74.5,7.2,103.2,27.4c7.2,5,14.2,11.3,15.6,19.2
		c1.4,8,0.3,15.1-23,22.1c-3.3,0.4-6.6,0.7-9.9,0.9c-26.6,1.4-53.6-4.6-76.3-16.9c-6-3.2-11.6-6.9-16.9-10.9
		c-6.1-4.7-11.9-10.2-14.6-16.9C380.6,22.1,381.8,13.8,387.9,9z"/>
	<path class="st1" d="M345.6,425.2c182.6,0,330.7-10.5,330.7-23.4c0-12.9-148.1-23.4-330.7-23.4c-182.6,0-330.7,10.5-330.7,23.4
		C14.9,414.7,162.9,425.2,345.6,425.2z"/>
	<path class="st2" d="M174.6,276.1H13.2v98.7h161.3V276.1z"/>
	<path class="st3" d="M3.8,356.1c0,0-2.3,23.3,0,26.3c0,0,149.4,1.2,181.8,0c0,0,3-19.6,0-26.3H3.8z"/>
	<path class="st3" d="M3.8,296.7c0,0-2.3,23.3,0,26.3c0,0,149.4,1.2,181.8,0c0,0,3-19.6,0-26.3H3.8z"/>
	<path class="st4" d="M39.6,276c0,0-23.4-1.3-26.4,0.1c0,0-0.9,93.9,0.4,114.3c0,0,19.7,1.8,26.4-0.1L39.6,276z"/>
	<path class="st4" d="M174.2,276.8c0,0-23.4-1.3-26.4,0.1c0,0-0.9,93.2,0.4,113.4c0,0,19.7,1.8,26.4-0.1L174.2,276.8z"/>
	<path class="st3" d="M39.9,328.9c0,0-23.4-0.3-26.4,0.1c0,0-1.2,25.7,0.1,31.3c0,0,19.7,0.5,26.4-0.1L39.9,328.9z"/>
	<path class="st3" d="M174.4,327.4c0,0-23.4-0.3-26.4,0.1c0,0-1.2,25.7,0.1,31.3c0,0,19.7,0.4,26.4-0.1L174.4,327.4z"/>
	<path class="st3" d="M39.9,269.2c0,0-23.4-0.3-26.4,0.1c0,0-1.2,25.7,0.1,31.3c0,0,19.7,0.5,26.4-0.1L39.9,269.2z"/>
	<path class="st3" d="M174.4,267.7c0,0-23.4-0.3-26.4,0.1c0,0-1.2,25.7,0.1,31.3c0,0,19.7,0.5,26.4-0.1L174.4,267.7z"/>
	<path class="st4" d="M3.8,327.3c0,0-2.3,23.3,0,26.3c0,0,149.4,1.2,181.8,0c0,0,3-19.6,0-26.3H3.8z"/>
	<path class="st3" d="M44.5,359.1c0,0,1.2-0.6,3.5-1.1c1.2-0.3,2.6-0.7,4.2-0.9c1.6-0.2,3.5-0.3,5.5-0.4c4.1-0.3,8.7,0.5,13.7,1.5
		c4.8,1.1,10.2,1.5,15.5,1.2c2.7-0.2,5.3-0.4,7.9-0.5c2.6,0,5.1-0.1,7.6-0.1c5-0.2,9.6,0,13.5,0.3c4,0.2,7.3,0.5,9.6,0.8
		c2.3,0.3,3.7,0.5,3.7,0.5l0,0.4c0,0-1.3,0.3-3.6,0.7c-2.3,0.4-5.6,0.9-9.6,1.2c-4,0.3-8.6,0.5-13.6,0.3c-2.5-0.2-5.1-0.4-7.7-0.5
		c-2.6-0.2-5.3-0.6-7.9-0.9c-2.6-0.4-5.2-0.9-7.8-1.1c-2.6-0.2-5.1-0.3-7.7-0.2c-2.5,0.1-4.9,0.2-7.1,0.2c-2.2-0.1-4.4-0.4-6.3-0.4
		c-1.9-0.1-3.7-0.2-5.4-0.3c-1.6-0.1-2.9-0.1-4.1-0.2c-1.2-0.1-2.1-0.1-2.7-0.1c-0.6,0-1,0-1,0L44.5,359.1z"/>
	<path class="st3" d="M70.4,364.2c0,0,0.5-0.3,1.4-0.5c1-0.2,2.4-0.4,4-0.3c0.8,0.1,1.7,0.1,2.6,0.4c0.9,0.3,1.8,0.7,2.7,1.1
		c1,0.4,1.9,0.8,2.9,1c1,0.2,2.1,0.5,3.1,0.4c2.1,0.1,4.2,0.1,6.1,0.1c2,0,3.8,0.1,5.4,0.3c3.2,0.2,5.3,0.6,5.3,0.6l0,0.2
		c0,0-2.1,0.7-5.3,1c-1.6,0.2-3.5,0.2-5.5,0.1c-1-0.1-2-0.2-3.1-0.4c-1-0.1-2.1-0.5-3.2-0.8c-2.1-0.6-4.1-1.3-6.1-1.5
		c-1-0.1-1.9-0.2-2.8-0.4c-0.9-0.2-1.7-0.3-2.4-0.4c-0.7-0.1-1.5-0.2-2.1-0.4c-0.6-0.1-1.2-0.1-1.6-0.2c-0.9-0.2-1.5-0.1-1.5-0.2
		L70.4,364.2z"/>
	<path class="st3" d="M31,340.6c0,2.1-1.7,3.9-3.9,3.9c-2.1,0-3.9-1.7-3.9-3.9c0-2.1,1.7-3.9,3.9-3.9C29.3,336.7,31,338.4,31,340.6z
		"/>
	<path class="st3" d="M167.1,340.6c0,2.1-1.7,3.9-3.9,3.9c-2.1,0-3.9-1.7-3.9-3.9c0-2.1,1.7-3.9,3.9-3.9
		C165.4,336.7,167.1,338.4,167.1,340.6z"/>
	<path class="st4" d="M3.8,267.5c0,0-2.3,23.3,0,26.3c0,0,149.4,1.2,181.8,0c0,0,3-19.6,0-26.3H3.8z"/>
	<path class="st3" d="M44.5,278.6c0,0,1.2-0.6,3.5-1.2c1.2-0.3,2.6-0.7,4.2-0.9c1.6-0.2,3.5-0.3,5.5-0.4c4.1-0.4,8.7,0.5,13.7,1.5
		c4.8,1.1,10.2,1.5,15.5,1.2c2.7-0.2,5.3-0.4,7.9-0.5c2.6,0,5.1-0.1,7.6-0.1c5-0.2,9.6,0,13.5,0.3c4,0.2,7.3,0.5,9.6,0.8
		c2.3,0.3,3.7,0.5,3.7,0.5l0,0.4c0,0-1.3,0.3-3.6,0.7c-2.3,0.4-5.6,0.9-9.6,1.2c-4,0.3-8.6,0.5-13.6,0.3c-2.5-0.2-5.1-0.4-7.7-0.5
		c-2.6-0.2-5.3-0.6-7.9-0.9c-2.6-0.4-5.2-0.9-7.8-1.1c-2.6-0.2-5.1-0.3-7.7-0.1c-2.5,0.1-4.9,0.2-7.1,0.1c-2.2-0.1-4.4-0.4-6.3-0.4
		c-1.9-0.1-3.7-0.2-5.4-0.3c-1.6-0.1-2.9-0.1-4.1-0.2c-1.2-0.1-2.1-0.1-2.7-0.1c-0.6,0-1,0-1,0L44.5,278.6z"/>
	<path class="st3" d="M70.4,283.7c0,0,0.5-0.3,1.4-0.5c1-0.2,2.4-0.4,4-0.3c0.8,0.1,1.7,0.1,2.6,0.4c0.9,0.3,1.8,0.7,2.7,1.1
		c1,0.4,1.9,0.7,2.9,1c1,0.2,2.1,0.5,3.1,0.4c2.1,0.1,4.2,0.1,6.1,0.1c2,0,3.8,0.1,5.4,0.3c3.2,0.2,5.3,0.6,5.3,0.6l0,0.2
		c0,0-2.1,0.7-5.3,1c-1.6,0.2-3.5,0.2-5.5,0.1c-1-0.1-2-0.3-3.1-0.4c-1-0.1-2.1-0.5-3.2-0.8c-2.1-0.6-4.1-1.3-6.1-1.5
		c-1-0.1-1.9-0.2-2.8-0.4c-0.9-0.2-1.7-0.3-2.4-0.4c-0.7-0.1-1.5-0.3-2.1-0.4c-0.6-0.1-1.2-0.1-1.6-0.2c-0.9-0.2-1.5-0.1-1.5-0.2
		L70.4,283.7z"/>
	<path class="st3" d="M31,280.8c0,2.1-1.7,3.9-3.9,3.9c-2.1,0-3.9-1.7-3.9-3.9c0-2.1,1.7-3.9,3.9-3.9C29.3,277,31,278.7,31,280.8z"
		/>
	<path class="st3" d="M167.1,280.8c0,2.1-1.7,3.9-3.9,3.9c-2.1,0-3.9-1.7-3.9-3.9c0-2.1,1.7-3.9,3.9-3.9
		C165.4,277,167.1,278.7,167.1,280.8z"/>
	<path class="st2" d="M112.7,206.6H27.2v52.3h85.5V206.6z"/>
	<path class="st3" d="M22.2,249.1c0,0-1.2,12.3,0,14c0,0,79.2,0.7,96.4,0c0,0,1.6-10.4,0-14H22.2z"/>
	<path class="st3" d="M22.2,217.6c0,0-1.2,12.3,0,14c0,0,79.2,0.7,96.4,0c0,0,1.6-10.4,0-14H22.2z"/>
	<path class="st4" d="M41.2,206.6c0,0-12.4-0.7-14,0c0,0-0.5,49.8,0.2,60.6c0,0,10.4,1,14,0L41.2,206.6z"/>
	<path class="st4" d="M112.5,207c0,0-12.4-0.7-14,0.1c0,0-0.5,49.4,0.2,60.1c0,0,10.4,1,14-0.1L112.5,207z"/>
	<path class="st3" d="M41.3,234.6c0,0-12.4-0.2-14,0.1c0,0-0.6,13.6,0.1,16.6c0,0,10.4,0.2,14,0L41.3,234.6z"/>
	<path class="st3" d="M112.6,233.8c0,0-12.4-0.2-14,0.1c0,0-0.6,13.6,0.1,16.6c0,0,10.4,0.2,14-0.1L112.6,233.8z"/>
	<path class="st3" d="M41.3,203c0,0-12.4-0.2-14,0.1c0,0-0.6,13.6,0.1,16.6c0,0,10.4,0.2,14,0L41.3,203z"/>
	<path class="st3" d="M112.6,202.2c0,0-12.4-0.2-14,0.1c0,0-0.6,13.6,0.1,16.6c0,0,10.4,0.2,14,0L112.6,202.2z"/>
	<path class="st4" d="M22.2,233.8c0,0-1.2,12.3,0,14c0,0,79.2,0.7,96.4,0c0,0,1.6-10.4,0-14H22.2z"/>
	<path class="st3" d="M43.8,250.6c0,0,0.6-0.3,1.9-0.6c0.6-0.1,1.4-0.4,2.2-0.5c0.9-0.1,1.8-0.2,2.9-0.2c2.1-0.2,4.6,0.3,7.2,0.8
		c2.6,0.6,5.4,0.8,8.2,0.7c1.4-0.1,2.8-0.2,4.2-0.2c1.4,0,2.7,0,4-0.1c2.6-0.1,5.1,0,7.2,0.1c2.1,0.1,3.9,0.3,5.1,0.4
		c1.2,0.2,1.9,0.3,1.9,0.3v0.2c0,0-0.7,0.2-1.9,0.4c-1.2,0.2-3,0.5-5.1,0.7c-2.1,0.1-4.6,0.2-7.2,0.2c-1.3-0.1-2.7-0.2-4.1-0.3
		c-1.4-0.1-2.8-0.3-4.2-0.5c-1.4-0.2-2.8-0.5-4.2-0.6c-1.4-0.1-2.7-0.1-4.1-0.1c-1.3,0-2.6,0.1-3.8,0.1c-1.2,0-2.3-0.2-3.3-0.2
		c-1,0-2-0.1-2.8-0.2c-0.9-0.1-1.6,0-2.2-0.1c-0.6,0-1.1-0.1-1.4-0.1c-0.3,0-0.5,0-0.5,0L43.8,250.6z"/>
	<path class="st3" d="M57.5,253.4c0,0,0.2-0.2,0.7-0.3c0.5-0.1,1.2-0.2,2.1-0.1c0.4,0,0.9,0,1.4,0.2c0.5,0.1,1,0.4,1.5,0.6
		c0.5,0.2,1,0.4,1.5,0.5c0.5,0.1,1.1,0.2,1.6,0.2c1.1,0,2.2,0.1,3.2,0.1c1,0,2,0.1,2.8,0.1c1.7,0.1,2.8,0.3,2.8,0.3l0,0.1
		c0,0-1.1,0.4-2.8,0.5c-0.9,0.1-1.8,0.1-2.9,0c-0.5-0.1-1.1-0.1-1.6-0.2c-0.5-0.1-1.1-0.2-1.7-0.4c-1.1-0.3-2.2-0.7-3.2-0.8
		c-0.5-0.1-1-0.1-1.5-0.2c-0.5-0.1-0.9-0.2-1.3-0.2c-0.4-0.1-0.8-0.1-1.1-0.2c-0.3,0-0.6-0.1-0.9-0.1c-0.5-0.1-0.8-0.1-0.8-0.1
		L57.5,253.4z"/>
	<path class="st3" d="M36.6,240.8c0,1.1-0.9,2-2.1,2c-1.1,0-2.1-0.9-2.1-2c0-1.1,0.9-2,2.1-2C35.7,238.8,36.6,239.7,36.6,240.8z"/>
	<path class="st3" d="M108.8,240.8c0,1.1-0.9,2-2.1,2s-2.1-0.9-2.1-2c0-1.1,0.9-2,2.1-2C107.8,238.8,108.8,239.7,108.8,240.8z"/>
	<path class="st4" d="M22.2,202.1c0,0-1.2,12.3,0,14c0,0,79.2,0.7,96.4,0c0,0,1.6-10.4,0-14H22.2z"/>
	<path class="st3" d="M43.8,208c0,0,0.6-0.3,1.9-0.6c0.6-0.1,1.4-0.4,2.2-0.5c0.9-0.1,1.8-0.2,2.9-0.2c2.1-0.2,4.6,0.3,7.2,0.8
		c2.6,0.6,5.4,0.8,8.2,0.7c1.4-0.1,2.8-0.2,4.2-0.2c1.4,0,2.7,0,4-0.1c2.6-0.1,5.1,0,7.2,0.1c2.1,0.1,3.9,0.3,5.1,0.4
		c1.2,0.2,1.9,0.3,1.9,0.3v0.2c0,0-0.7,0.2-1.9,0.4c-1.2,0.2-3,0.5-5.1,0.7c-2.1,0.1-4.6,0.2-7.2,0.2c-1.3-0.1-2.7-0.2-4.1-0.3
		c-1.4-0.1-2.8-0.3-4.2-0.5c-1.4-0.2-2.8-0.5-4.2-0.6c-1.4-0.1-2.7-0.1-4.1-0.1c-1.3,0-2.6,0.1-3.8,0.1c-1.2,0-2.3-0.2-3.3-0.2
		c-1-0.1-2-0.1-2.8-0.2c-0.9-0.1-1.6,0-2.2-0.1c-0.6,0-1.1-0.1-1.4-0.1c-0.3,0-0.5,0-0.5,0L43.8,208z"/>
	<path class="st3" d="M57.5,210.7c0,0,0.2-0.2,0.7-0.3c0.5-0.1,1.2-0.2,2.1-0.1c0.4,0,0.9,0,1.4,0.2c0.5,0.1,1,0.4,1.5,0.6
		c0.5,0.2,1,0.4,1.5,0.5c0.5,0.1,1.1,0.2,1.6,0.2c1.1,0,2.2,0.1,3.2,0.1c1,0,2,0.1,2.8,0.1c1.7,0.1,2.8,0.3,2.8,0.3l0,0.1
		c0,0-1.1,0.4-2.8,0.5c-0.9,0.1-1.8,0.1-2.9,0c-0.5-0.1-1.1-0.1-1.6-0.2c-0.5-0.1-1.1-0.2-1.7-0.4c-1.1-0.3-2.2-0.7-3.2-0.8
		c-0.5-0.1-1-0.1-1.5-0.2c-0.5-0.1-0.9-0.2-1.3-0.2c-0.4-0.1-0.8-0.1-1.1-0.2c-0.3,0-0.6-0.1-0.9-0.1c-0.5-0.1-0.8-0.1-0.8-0.1
		L57.5,210.7z"/>
	<path class="st3" d="M36.6,209.2c0,1.1-0.9,2.1-2.1,2.1c-1.1,0-2.1-0.9-2.1-2.1c0-1.1,0.9-2,2.1-2C35.7,207.1,36.6,208,36.6,209.2z
		"/>
	<path class="st3" d="M108.8,209.2c0,1.1-0.9,2.1-2.1,2.1s-2.1-0.9-2.1-2.1c0-1.1,0.9-2,2.1-2C107.8,207.1,108.8,208,108.8,209.2z"
		/>
	<path class="st2" d="M109,154.2H41.7v41.2H109V154.2z"/>
	<path class="st3" d="M37.7,187.6c0,0-0.9,9.7,0,11c0,0,62.4,0.5,75.9,0c0,0,1.3-8.2,0-11H37.7z"/>
	<path class="st3" d="M37.7,162.8c0,0-0.9,9.7,0,11c0,0,62.4,0.5,75.9,0c0,0,1.3-8.2,0-11H37.7z"/>
	<path class="st4" d="M52.7,154.2c0,0-9.7-0.6-11,0c0,0-0.4,39.2,0.2,47.7c0,0,8.2,0.8,11,0L52.7,154.2z"/>
	<path class="st4" d="M108.9,154.5c0,0-9.7-0.5-11,0c0,0-0.4,38.9,0.2,47.3c0,0,8.2,0.8,11,0L108.9,154.5z"/>
	<path class="st3" d="M52.8,176.3c0,0-9.7-0.1-11,0c0,0-0.5,10.7,0,13.1c0,0,8.2,0.2,11,0L52.8,176.3z"/>
	<path class="st3" d="M108.9,175.6c0,0-9.7-0.1-11,0c0,0-0.5,10.7,0,13.1c0,0,8.2,0.2,11,0L108.9,175.6z"/>
	<path class="st3" d="M52.8,151.3c0,0-9.7-0.1-11,0c0,0-0.5,10.7,0,13.1c0,0,8.2,0.2,11,0L52.8,151.3z"/>
	<path class="st3" d="M108.9,150.7c0,0-9.7-0.1-11,0c0,0-0.5,10.7,0,13.1c0,0,8.2,0.2,11,0L108.9,150.7z"/>
	<path class="st4" d="M37.7,175.6c0,0-0.9,9.7,0,11c0,0,62.4,0.5,75.9,0c0,0,1.3-8.2,0-11H37.7z"/>
	<path class="st3" d="M54.7,188.9c0,0,0.5-0.2,1.5-0.5c0.5-0.1,1.1-0.3,1.8-0.4c0.7-0.1,1.5-0.1,2.3-0.2c1.7-0.1,3.6,0.2,5.7,0.6
		c2,0.4,4.3,0.6,6.5,0.5c1.1-0.1,2.2-0.2,3.3-0.2c1.1,0,2.1,0,3.2,0c2.1-0.1,4,0,5.7,0.1c1.6,0.1,3,0.2,4,0.3c1,0.1,1.5,0.2,1.5,0.2
		v0.2c0,0-0.5,0.1-1.5,0.3c-1,0.1-2.4,0.4-4,0.5c-1.7,0.1-3.6,0.2-5.7,0.1c-1-0.1-2.1-0.1-3.2-0.2c-1.1-0.1-2.2-0.2-3.3-0.4
		c-1.1-0.2-2.2-0.4-3.3-0.5c-1.1-0.1-2.1-0.1-3.2-0.1c-1,0-2,0.1-3,0.1c-0.9,0-1.8-0.2-2.6-0.1c-0.8,0-1.6-0.1-2.2-0.1
		c-0.7-0.1-1.2,0-1.7-0.1c-0.5,0-0.9-0.1-1.1-0.1c-0.3,0-0.4,0-0.4,0V188.9z"/>
	<path class="st3" d="M65.6,191c0,0,0.2-0.1,0.6-0.2c0.4-0.1,1-0.2,1.7-0.1c0.3,0,0.7,0,1.1,0.2c0.4,0.1,0.7,0.3,1.2,0.4
		c0.4,0.2,0.8,0.3,1.2,0.4c0.4,0.1,0.9,0.2,1.3,0.2c0.9,0,1.7,0,2.6,0.1c0.8,0,1.6,0.1,2.2,0.1c1.3,0.1,2.2,0.2,2.2,0.2v0.1
		c0,0-0.9,0.3-2.2,0.4c-0.7,0.1-1.5,0.1-2.3,0c-0.4,0-0.9-0.1-1.3-0.2c-0.4-0.1-0.9-0.2-1.3-0.3c-0.9-0.2-1.7-0.6-2.5-0.6
		c-0.4-0.1-0.8-0.1-1.2-0.2c-0.4-0.1-0.7-0.1-1-0.2c-0.3-0.1-0.6-0.1-0.9-0.2c-0.2,0-0.5,0-0.7-0.1c-0.4-0.1-0.6-0.1-0.6-0.1V191z"
		/>
	<path class="st3" d="M49.1,181.1c0,0.9-0.7,1.6-1.6,1.6c-0.9,0-1.6-0.7-1.6-1.6c0-0.9,0.7-1.6,1.6-1.6
		C48.4,179.5,49.1,180.2,49.1,181.1z"/>
	<path class="st3" d="M105.9,181.1c0,0.9-0.7,1.6-1.6,1.6c-0.9,0-1.6-0.7-1.6-1.6c0-0.9,0.7-1.6,1.6-1.6
		C105.2,179.5,105.9,180.2,105.9,181.1z"/>
	<path class="st4" d="M37.7,150.7c0,0-0.9,9.7,0,11c0,0,62.4,0.5,75.9,0c0,0,1.3-8.2,0-11H37.7z"/>
	<path class="st3" d="M54.7,155.3c0,0,0.5-0.2,1.5-0.5c0.5-0.1,1.1-0.3,1.8-0.4c0.7-0.1,1.5-0.1,2.3-0.2c1.7-0.1,3.6,0.2,5.7,0.6
		c2,0.4,4.3,0.6,6.5,0.5c1.1-0.1,2.2-0.2,3.3-0.2c1.1,0,2.1,0,3.2,0c2.1-0.1,4,0,5.7,0.1c1.6,0.1,3,0.2,4,0.3c1,0.1,1.5,0.2,1.5,0.2
		v0.2c0,0-0.5,0.1-1.5,0.3c-1,0.1-2.4,0.4-4,0.5c-1.7,0.1-3.6,0.2-5.7,0.1c-1-0.1-2.1-0.1-3.2-0.2c-1.1-0.1-2.2-0.2-3.3-0.4
		c-1.1-0.2-2.2-0.4-3.3-0.5c-1.1-0.1-2.1-0.1-3.2-0.1c-1,0-2,0.1-3,0.1c-0.9,0-1.8-0.2-2.6-0.1c-0.8,0-1.6-0.1-2.2-0.1
		c-0.7-0.1-1.2,0-1.7-0.1c-0.5,0-0.9-0.1-1.1-0.1c-0.3,0-0.4,0-0.4,0V155.3z"/>
	<path class="st3" d="M65.6,157.4c0,0,0.2-0.1,0.6-0.2c0.4-0.1,1-0.2,1.7-0.1c0.3,0,0.7,0,1.1,0.2c0.4,0.1,0.7,0.3,1.2,0.4
		c0.4,0.2,0.8,0.3,1.2,0.4c0.4,0.1,0.9,0.2,1.3,0.2c0.9,0,1.7,0,2.6,0.1c0.8,0,1.6,0.1,2.2,0.1c1.3,0.1,2.2,0.2,2.2,0.2v0.1
		c0,0-0.9,0.3-2.2,0.4c-0.7,0.1-1.5,0.1-2.3,0c-0.4,0-0.9-0.1-1.3-0.2c-0.4-0.1-0.9-0.2-1.3-0.3c-0.9-0.2-1.7-0.6-2.5-0.6
		c-0.4-0.1-0.8-0.1-1.2-0.1c-0.4-0.1-0.7-0.1-1-0.2c-0.3-0.1-0.6-0.1-0.9-0.2c-0.2,0-0.5,0-0.7-0.1c-0.4-0.1-0.6-0.1-0.6-0.1V157.4z
		"/>
	<path class="st3" d="M49.1,156.2c0,0.9-0.7,1.6-1.6,1.6c-0.9,0-1.6-0.7-1.6-1.6c0-0.9,0.7-1.6,1.6-1.6
		C48.4,154.6,49.1,155.3,49.1,156.2z"/>
	<path class="st3" d="M105.9,156.2c0,0.9-0.7,1.6-1.6,1.6c-0.9,0-1.6-0.7-1.6-1.6c0-0.9,0.7-1.6,1.6-1.6
		C105.2,154.6,105.9,155.3,105.9,156.2z"/>
	<path class="st5" d="M41.1,392.9H83c0-7.2-5.9-13.1-13.1-13.1H54.3C47,379.8,41.1,385.7,41.1,392.9z"/>
	<path class="st5" d="M56.3,283.1v105.1h11.6V283.1H56.3z"/>
	<path class="st5" d="M415.1,393.6H457c0-7.2-5.9-13.1-13.1-13.1h-15.6C421,380.5,415.1,386.4,415.1,393.6z"/>
	<path class="st5" d="M430.2,283.9V389h11.6V283.9H430.2z"/>
	<path class="st2" d="M508,272.8V84.1h-140v188.8H508z"/>
	<path class="st6" d="M502.3,88.9H373.6V268h128.8V88.9z"/>
	<path class="st2" d="M505.1,107.4v-1.5h-66.2V85.3H437v20.6h-66v1.5h66v18.4h-66v1.6h66v18.4h-66v1.6h66v18.4h-66v1.6h66v18.4h-66
		v1.5h66v18.4h-66v1.6h66v18.4h-66v1.6h66v18.4h-66v1.6h66v21.2h1.9V247h66.2v-1.6h-66.2v-18.4h66.2v-1.6h-66.2v-18.4h66.2v-1.6
		h-66.2v-18.4h66.2v-1.5h-66.2v-18.4h66.2v-1.6h-66.2v-18.4h66.2v-1.6h-66.2v-18.4h66.2v-1.6h-66.2v-18.4H505.1z"/>
	<path class="st7" d="M421.3,88.9L375.7,268h-2.1v-34.8l36.7-144.3H421.3z"/>
	<path class="st7" d="M471.5,88.9L425.9,268h-32.7l45.6-179.1H471.5z"/>
	<path class="st7" d="M502.3,88.9v10.9L459.5,268H437l45.6-179.1H502.3z"/>
	<path class="st2" d="M283.6,276V87.3h-140V276H283.6z"/>
	<path class="st6" d="M278,92.1H149.2v179.1H278V92.1z"/>
	<path class="st2" d="M280.7,110.6v-1.6h-66.2V88.5h-1.8v20.5h-66v1.6h66V129h-66v1.6h66V149h-66v1.5h66v18.4h-66v1.6h66v18.4h-66
		v1.6h66v18.4h-66v1.6h66v18.4h-66v1.6h66v18.4h-66v1.6h66v21.2h1.8v-21.2h66.2v-1.6h-66.2v-18.4h66.2v-1.6h-66.2v-18.4h66.2v-1.6
		h-66.2v-18.4h66.2v-1.6h-66.2v-18.4h66.2v-1.6h-66.2v-18.4h66.2V149h-66.2v-18.4h66.2V129h-66.2v-18.4H280.7z"/>
	<path class="st7" d="M196.9,92.1l-45.6,179.1h-2.1v-34.8l36.7-144.3H196.9z"/>
	<path class="st7" d="M247.1,92.1l-45.6,179.1h-32.7l45.6-179.1H247.1z"/>
	<path class="st7" d="M278,92.1V103l-42.8,168.2h-22.5l45.6-179.1H278z"/>
	<path class="st2" d="M597,363.2c-3.3,5.1-6.2,10.1-8.2,14c0,0,40.4,11.9,50.9,5.2c8.9-5.7,0-10.9,0-10.9s15.1-0.8,20.6-5.3
		c5.4-4.4-1.3-7.7-1.6-7.9c0.5-0.1,6.3-1.3,12.2-4.7c0.2-0.1,0.4-0.2,0.6-0.3c5.4-3.3,10.7-8.5,11.4-16.4
		c1.4-17.2-25.9-3.2-35.4,5.3c0,0,0,0,0,0s0,0,0,0c0-0.5-0.8-6.9-5.8-7c-1.6,0-4.1,1.5-6.6,3.7c-5.5,4.7-11.5,12.2-11.5,12.2
		s0,0,0,0c-0.1-0.5-2.3-12.3-10.4-7C608.3,347.3,602.2,355.3,597,363.2z"/>
	<path class="st8" d="M588.9,377.2c0,0,40.4,11.9,50.9,5.2c8.9-5.7,0-10.9,0-10.9s15.1-0.8,20.6-5.3c5.4-4.4-1.3-7.7-1.6-7.9
		c0.5-0.1,6.3-1.3,12.2-4.7c0-1.2,0.2-2.5,0.6-4c2.5-9.4-1.5-10.7-13.7,1.3c-12.2,12-19.2,9.4-21.4,1.8c-2.2-7.6-8.9-5.9-16,7.4
		C613.2,373.5,599.2,362.1,588.9,377.2z M625.2,373c5.3,1.5,2.2,8.4-9.8,5.6C603.5,375.6,617.1,370.7,625.2,373z"/>
	<path class="st8" d="M650.4,345.3c1.6,2.6-6.6,11.9-9.3,8.9C638.4,351.3,648,341.4,650.4,345.3z"/>
	<path class="st9" d="M647.6,342.1c0.7-0.4,11.6-6.6,20.1-9.9c8.8-3.5,16-1.4,12.6,9.2c-1.7,5.3-5.4,9.3-8.6,11.9
		c5.4-3.3,10.7-8.5,11.4-16.4C684.4,319.6,657.1,333.6,647.6,342.1z"/>
	<path class="st9" d="M641.8,335.1c-1.6,0-4.1,1.5-6.6,3.7c9.4-5.1,12.2,2.8,12.3,3.3C647.5,341.6,646.8,335.2,641.8,335.1z"/>
	<path class="st9" d="M597,363.2c9.2-11.8,17.2-19.3,20.8-18.6c3.6,0.7,5.8,6.1,5.9,6.4c-0.1-0.5-2.3-12.3-10.4-7
		C608.3,347.3,602.2,355.3,597,363.2z"/>
	<path class="st10" d="M677.4,336.8c0,0-50.3,29.7-86.8,39.6C590.6,376.5,649.7,350.9,677.4,336.8z"/>
	<path class="st2" d="M581.1,363.1c2.7,5.4,5.6,10.4,7.9,14.1c0,0,30.7-28.8,30.2-41.2c-0.4-10.5-9.5-5.5-9.5-5.5s6.9-13.4,5.8-20.4
		c-1-6.9-7.3-2.8-7.6-2.6c0.2-0.5,2.1-6.1,2.1-12.8c0-0.2,0-0.4,0-0.7c-0.1-6.3-1.9-13.5-8.5-18.1c-14.1-9.9-15.8,20.6-13.3,33.1
		c0,0,0,0,0,0s0,0,0,0c-0.4-0.2-6.4-2.9-9,1.4c-0.9,1.4-0.7,4.3-0.1,7.5c1.3,7.1,4.7,16,4.7,16s0,0,0,0c-0.4-0.2-11.8-4.3-11.3,5.4
		C573.1,345.4,576.9,354.7,581.1,363.1z"/>
	<path class="st8" d="M589.1,377.2c0,0,30.7-28.8,30.2-41.2c-0.4-10.5-9.5-5.5-9.5-5.5s6.9-13.4,5.8-20.4c-1-6.9-7.3-2.8-7.6-2.6
		c0.2-0.5,2.1-6.1,2.1-12.8c-1-0.6-2.1-1.4-3.2-2.5c-6.9-6.9-10-4.1-5.8,12.5c4.2,16.6-1.6,21.3-9.3,19.3c-7.7-1.9-9.6,4.6-1.7,17.6
		C598.2,354.4,581.3,360.7,589.1,377.2z M606.3,346c4.8-2.8,7.6,4.3-2.8,10.9C593,363.5,599,350.3,606.3,346z"/>
	<path class="st8" d="M592.7,308.1c3.1,0,7,11.7,3,12.5C591.8,321.5,588,308.2,592.7,308.1z"/>
	<path class="st9" d="M588.5,308.9c0-0.8,0.2-13.3,1.5-22.3c1.5-9.3,6.9-14.4,14.3-6.2c3.7,4.1,5.3,9.3,5.9,13.4
		c-0.1-6.3-1.9-13.5-8.5-18.1C587.6,265.9,585.9,296.5,588.5,308.9z"/>
	<path class="st9" d="M579.4,310.4c-0.9,1.4-0.7,4.3-0.1,7.5c0.4-10.6,8.6-9.1,9.1-9C588,308.8,582.1,306.1,579.4,310.4z"/>
	<path class="st9" d="M581.1,363.1c-5.6-13.8-8-24.6-5.6-27.3c2.4-2.7,8.3-1.9,8.5-1.9c-0.4-0.2-11.8-4.3-11.3,5.4
		C573.1,345.4,576.9,354.7,581.1,363.1z"/>
	<path class="st10" d="M599,280.6c0,0,0.3,58.3-9.6,94.8C589.4,375.3,597.1,311.6,599,280.6z"/>
	<path class="st11" d="M588.6,354.5c-0.2,8.5,0.1,16.7,0.6,22.7c0,0,57.2-15.6,64.8-31.4c6.4-13.3-8.1-13.1-8.1-13.1
		s17.5-12.1,20.8-21.6c3.2-9.2-7.3-8.3-7.8-8.2c0.5-0.5,6.6-6.2,11.2-14.6c0.1-0.3,0.3-0.5,0.4-0.8c4.1-7.9,6.6-18,1.5-28.1
		c-11-21.6-33.3,15.3-38.4,32.4c0,0,0,0.1,0,0.1s0,0,0,0c-0.4-0.5-6-7.7-12.1-4.2c-2,1.2-3.7,4.8-5.1,9.3
		c-3.1,9.7-4.7,23.1-4.7,23.1s0,0,0,0c-0.4-0.5-11.8-13.1-17.6-0.7C590.3,327.1,588.9,341.2,588.6,354.5z"/>
	<path class="st8" d="M589.2,377.2c0,0,57.2-15.6,64.8-31.4c6.4-13.3-8.1-13.1-8.1-13.1s17.5-12.1,20.8-21.6
		c3.2-9.2-7.3-8.3-7.8-8.2c0.5-0.5,6.6-6.2,11.2-14.6c-0.9-1.4-1.7-3.2-2.3-5.2c-4-13.1-9.7-11.7-15.4,11.7
		c-5.7,23.4-16.1,25.4-24.4,17.9c-8.3-7.5-15-0.6-13.7,20.7C615.6,354.8,590.4,351.5,589.2,377.2z M629,344.5
		c8.2-2.8,10.3,8.9-7.7,15.7C603.4,367,616.6,348.7,629,344.5z"/>
	<path class="st8" d="M639.3,293.7c3.9,2,0.9,19.2-4.5,17.6C629.3,309.7,633.5,290.7,639.3,293.7z"/>
	<path class="st9" d="M633.5,291.9c0.5-1,9-16.4,16.7-26.7c8-10.6,18.1-13.4,21.8,1.7c1.9,7.6,0.4,15.1-1.5,20.6
		c4.1-7.9,6.6-18,1.5-28.1C661,237.8,638.6,274.7,633.5,291.9z"/>
	<path class="st9" d="M621.4,287.8c-2,1.2-3.7,4.8-5.1,9.3c7.5-13,16.7-5.6,17.2-5.1C633.1,291.4,627.4,284.2,621.4,287.8z"/>
	<path class="st9" d="M588.6,354.5c2.2-20.9,6.3-35.8,11.1-37.6c4.8-1.8,11.6,3.1,11.8,3.3c-0.4-0.5-11.8-13.1-17.6-0.7
		C590.3,327.1,588.9,341.2,588.6,354.5z"/>
	<path class="st12" d="M665.4,263.6c0,0-38.2,72.6-74.6,111.5C590.8,375.1,642.5,300.9,665.4,263.6z"/>
	<path class="st13" d="M219,114.3c3.7,0,6.7-3,6.7-6.7c0-3.7-3-6.7-6.7-6.7c-3.7,0-6.7,3-6.7,6.7C212.3,111.3,215.3,114.3,219,114.3
		z"/>
	<path class="st14" d="M201.9,108.8h34.7c0,0-4.6-15.5-17.3-15.9C206.5,92.6,201.9,108.8,201.9,108.8z"/>
	<path class="st14" d="M220.8,107.8l-2.2,0l0.3-59.4l2.3,0L220.8,107.8z"/>
	<path class="st13" d="M346.8,112.1c3.7,0,6.7-3,6.7-6.7c0-3.7-3-6.7-6.7-6.7c-3.7,0-6.7,3-6.7,6.7
		C340.1,109.1,343.1,112.1,346.8,112.1z"/>
	<path class="st14" d="M329.8,106.7h34.7c0,0-4.6-15.5-17.3-15.9C334.4,90.5,329.8,106.7,329.8,106.7z"/>
	<path class="st14" d="M348.6,105.7l-2.3,0l0.3-59.4l2.2,0L348.6,105.7z"/>
	<path class="st13" d="M475.7,112.8c3.7,0,6.7-3,6.7-6.7c0-3.7-3-6.7-6.7-6.7c-3.7,0-6.7,3-6.7,6.7C469,109.8,472,112.8,475.7,112.8
		z"/>
	<path class="st14" d="M458.7,107.4h34.7c0,0-4.6-15.5-17.3-15.9C463.3,91.2,458.7,107.4,458.7,107.4z"/>
	<path class="st14" d="M477.6,106.4l-2.3,0l0.3-59.4l2.3,0L477.6,106.4z"/>
	<path class="st15" d="M453.6,196.7c0,0,22.4,13.1,27.1,14.7c4.7,1.7-3,11.9-3,11.9s-29.7-2.9-36.4-14.6
		C434.5,197.1,453.6,196.7,453.6,196.7z"/>
	<path class="st15" d="M501.7,212.5c-1.2-0.5-3.2-0.7-5.3-0.7c-2.1,0-4.4,0.1-6.2,0.2c-0.1,0-0.3,0-0.4,0c-0.4,0-0.8,0.1-1.1,0.1
		c-1.5,0.1-3.8,0.1-5.4-0.5c-2.6-0.9-2.6-1.5-6.4-2.9c-3.8-1.4-6.5-3.3-7.9-3.1c0,0,1.9,0.1,0.8,5.7c0,0.2-0.1,0.5-0.1,0.7
		c-0.8,3.7-1.2,7.7-1.7,10.2l24,1.1c2.7,0.2,5.8-0.5,6.4-0.7c0,0,0.1,0,0.1,0h0h0c0,0,4,3.3,4.8,2.4c0.7-0.7-3.5-4.4-3.8-4.7
		c0.3,0.2,5.9,4.2,6.9,3c0.8-1-5.3-4.9-5.8-5.2c0.6,0.3,7.7,4,8,2.7c0.2-1.3-6-4.9-6.8-5.3c0.7,0.4,7.1,3.5,8.1,2.2
		C510.6,216.8,505.3,213.9,501.7,212.5z"/>
	<path class="st16" d="M399.6,209.5c-7.6,2.9-12.3,4.7-15.2,5.8c0,0,0,0,0,0c-1.2,0.6-2.7,1.3-4.5,2.1c-1.7-2.5-2.9-5.1-3.1-7.7
		c-1.2-13.9,20-4.1,20-4.1S397.9,207.2,399.6,209.5z"/>
	<path class="st15" d="M439.6,391.6c-1,1.4-3.8,2.7-8.7,2.8c-4.7,0.1-14.7-0.8-20.7-0.4c-0.5,0-0.9,0-1.4,0
		c-1.5,0.1-2.5-0.2-3.3-0.6c-2.9-1.6-1.3-6.2-0.4-10.7c0.3-1.2,0.5-2.4,0.5-3.5c0.2-2.8-0.1-6.4-0.5-9.7c-0.5-4.6-1.3-8.6-1.3-8.6
		l16.6-0.3c0,0-0.4,4.5-0.3,9.3c0.1,2.7,0.4,5.5,1,7.6c0.4,1.2,0.8,2.2,1.4,2.9c3.7,4,9.4,7.2,14.3,9.1c0.9,0.3,1.6,0.8,2,1.3
		C439.3,391,439.5,391.3,439.6,391.6z"/>
	<path class="st17" d="M420.2,369.8c-4.8-0.2-10.8-0.6-15-0.3c-0.5-4.6-1.3-8.6-1.3-8.6l16.6-0.3C420.5,360.5,420.1,365,420.2,369.8
		z"/>
	<path class="st18" d="M431.1,393.4c-5,0.1-16.2-0.8-22.1-0.3c-3.4,0.3-4.8-0.2-5.1-2.2c-0.3-2.1,0-5.1,1.1-8
		c7.5,2.4,16.7-4,17.3-3.4c3.9,3.8,9.8,6.6,14.8,8.2c1.3,0.4,2.2,1.1,2.6,1.8C440,391.3,438.3,393.3,431.1,393.4z"/>
	<path class="st19" d="M439.6,391.6c-1,1.4-3.8,2.7-8.8,2.8c-4.8,0.1-14.8-0.8-20.9-0.4c-0.3,0-0.6,0-0.9,0.1
		c-1.7,0.2-2.9-0.1-3.8-0.6c-0.8-0.5-1.2-1.4-1.4-2.4c1.9,0.3,5.2,0.5,10.4,0.3c8.7-0.3,21.3,2.4,24.7-0.6c0.3-0.3,0.6-0.7,0.7-1.1
		C440.1,390.2,440,390.9,439.6,391.6z"/>
	<path class="st15" d="M419.7,391.6c-1,1.4-3.8,2.7-8.7,2.8c-4.7,0.1-14.7-0.8-20.7-0.4c-0.5,0-0.9,0-1.4,0
		c-1.5,0.1-2.5-0.2-3.3-0.6c-2.9-1.6-1.3-6.2-0.4-10.7c0.3-1.2,0.5-2.4,0.5-3.5c0.2-2.5-0.1-5.6-0.4-8.6c-0.5-5.1-1.5-9.7-1.5-9.7
		l16.6-0.3c0,0-0.5,5.2-0.2,10.4c0.1,2.3,0.4,4.6,0.9,6.5c0.4,1.2,0.8,2.2,1.4,2.9c3.7,4,9.4,7.2,14.3,9.1c0.9,0.3,1.6,0.8,2,1.3
		C419.4,391,419.6,391.3,419.7,391.6z"/>
	<path class="st17" d="M400.4,370.9c-4.7-0.2-10.6-0.6-14.9-0.4c-0.5-5.1-1.5-9.7-1.5-9.7l16.6-0.3
		C400.6,360.5,400.1,365.7,400.4,370.9z"/>
	<path class="st20" d="M411.2,393.4c-5,0.1-16.2-0.8-22.1-0.3c-3.4,0.3-4.8-0.2-5.1-2.2c-0.3-2.1,0-5.1,1.1-8
		c7.5,2.4,16.7-4,17.3-3.4c3.9,3.8,9.8,6.6,14.8,8.2c1.3,0.4,2.2,1.1,2.6,1.8C420.1,391.3,418.4,393.3,411.2,393.4z"/>
	<path class="st19" d="M419.7,391.6c-1,1.4-3.8,2.7-8.8,2.8c-4.8,0.1-14.8-0.8-20.9-0.4c-0.3,0-0.6,0-0.9,0.1
		c-1.7,0.2-2.9-0.1-3.8-0.6c-0.8-0.5-1.2-1.4-1.4-2.4c1.9,0.3,5.2,0.5,10.4,0.3c8.7-0.3,21.3,2.4,24.7-0.6c0.3-0.3,0.6-0.7,0.7-1.1
		C420.2,390.2,420.2,390.9,419.7,391.6z"/>
	<path class="st21" d="M402,365.7c9.4,1.4,19.3,0.3,25.2-0.7c3.3-0.5,5.4-1.1,5.4-1.1s1.7-27.3,0.3-47c-1.4-19.6-3.6-55.8-3.6-55.8
		c-8.9-29.5-19.5-14.5-19.5-14.5s-0.3,1.6-0.9,4.3C405,271.1,389.1,363.7,402,365.7z"/>
	<path class="st22" d="M402,365.7c3.6,0.5,7.4,0.7,10.9,0.7c-0.5-7-1.6-31.2-0.8-43.4c1-16.3,1.1-34.5,1.1-34.5
		c-6.7,4.8-11.4,15.3-14.6,26.9C396.3,337.3,396,364.8,402,365.7z"/>
	<path class="st21" d="M373.6,366.4c4.9,1,9.8,1.3,14.4,1.4c10.2,0.1,18.3-1.4,18.3-1.4s-0.1-35.6,4-58.9
		c4.1-23.3,4.7-61.6,4.7-61.6l-20.8,6l-17.7,5.2c0,0,1,25.5,0,33.3c-1,7.7,3.7,6.7,0,17.2C373,318,373.6,366.4,373.6,366.4z"/>
	<path class="st22" d="M373.6,366.4c4.9,1,9.8,1.3,14.4,1.4c-0.8-3.3-1.8-7.1-2.6-10.9c-2.1-9.3-3.8-27.7-3.2-32.4
		c1.4-10.2,9.1-8.2,8.8-25.6c0-0.2,0-0.5,0-0.7c0-0.1,0-0.1,0-0.1c-0.2-13.1,2.2-35.5,3.4-46.1l-17.7,5.2c0,0,1,25.5,0,33.3
		c-1,7.7,3.7,6.7,0,17.2c-0.3,0.8-0.5,1.8-0.8,2.9c-0.8,3.9-1.4,9.6-1.7,15.7C373.4,340.9,373.6,366.4,373.6,366.4z"/>
	<path class="st20" d="M445.3,205.6c6.1-1.7,9.9-6.2,11.9-9.2c1.1-1.7,1.7-2.9,1.7-2.9s-9.1-9.1-17.3-18.7c-1.5-1.7-2.8-3.1-4-4.3
		c-5.5-5.4-8.4-5.8-8.9-6.5l-0.6,0.3C428,164.2,435.8,208.2,445.3,205.6z"/>
	<path class="st20" d="M438.2,212.8c6.1-1.7,17-13.5,19-16.5c-9.2-1.9-16.2-16.8-19.7-25.9c-5.5-5.4-8.4-5.8-8.9-6.5l-0.6,0.3
		C428,164.2,428.7,215.5,438.2,212.8z"/>
	<path class="st20" d="M388.8,251.1c9.4,2.6,35.6,1.8,35.6,1.8s0.3-18.4,1.2-34.2c0.2-3.6,0.4-7,0.7-10.1c1.3-16.6-1.8-45-1.8-45
		s-3.7-2.1-7.8-4.1c-4.1-2-7.1,0-7.8,0.5c-0.6,0.5-11.4,15.7-12,18.1c-0.2,0.7-1.7,6.9-3.6,15.5
		C388.8,214.5,382.2,249.2,388.8,251.1z"/>
	<path class="st18" d="M388.8,251.1c9.4,2.6,35.6,1.8,35.6,1.8s0.3-18.4,1.2-34.2c-15.1-3-11.9-53.7-11.9-53.7
		c0-0.5-10,12.3-20.4,28.7C388.8,214.5,382.2,249.2,388.8,251.1z"/>
	<path class="st21" d="M425.6,213.4c-2.5,31.3-1.2,56.8-1.2,56.8s7.7,1.8,16.4-1.8c0,0-7.3-26.4-6.1-55.9c0.3-6.5,0.3-12.2,0.2-17.3
		c0-1-0.1-1.9-0.1-2.8c0-0.6-0.1-1.2-0.1-1.8c-0.1-2.3-0.2-4.4-0.4-6.4c-0.9-10.9-2.8-17.2-4.6-20.6c-2.9-5.5-7.2-3.5-7.2-3.5
		s2.3,9.1,3.2,23.9c0.1,2.1,0.2,4.2,0.3,6.5c0,0.6,0,1.2,0.1,1.8c0,0.9,0,1.9,0,2.8C426.3,200.8,426.1,206.8,425.6,213.4z"/>
	<path class="st21" d="M361.5,259.6c16.2,15.1,43.4,13.8,43.4,13.8s1.6-9.2,3.6-22.2c0.7-4.6,1.5-9.7,2.3-15.1
		c1.8-12.3,3.7-25.9,5.1-37.6c0.1-1.1,0.2-2.2,0.3-3.2c0.1-1,0.2-1.9,0.2-2.8c0.1-0.6,0.1-1.2,0.1-1.8c0.2-2.3,0.2-4.4,0.3-6.4
		c0.5-21.1-4.1-31-4.1-31s-9.7,2.1-16.9,4.9c-5.6,2.2-8.1,1.5-11.2,10.7c-1.9,5.6-5.4,21.1-8.3,35c-1.9,8.8-3.5,17-4.4,21.7
		c-0.9,5-2.8,11.5-4.7,17.4C364.5,251.9,361.5,259.6,361.5,259.6z"/>
	<path class="st2" d="M386.3,185.9c5.5,1.6,10.7,2.7,15.2,3.4c6.6,1,11.9,1.3,15.1,1.3c0.2-2.2,0.2-4.4,0.3-6.4
		c-4.9,0-15.8-0.6-28.8-4.5L386.3,185.9z"/>
	<path class="st2" d="M386.2,190.6c5.5,1.6,10.5,2.7,15,3.4c6.7,1,11.9,1.3,15.1,1.3c0.1-1,0.2-1.9,0.2-2.8
		c-4.9,0-16.1-0.6-29.5-4.6L386.2,190.6z"/>
	<path class="st2" d="M425.9,184c0.1,2.1,0.2,4.2,0.3,6.5c2.4,0.1,5.3,0.2,8.6,0.1c-0.1-2.3-0.2-4.4-0.4-6.4
		C431.1,184.3,428.1,184.2,425.9,184z"/>
	<path class="st2" d="M426.2,192.3c0,0.9,0,1.9,0,2.8c2.4,0.1,5.3,0.2,8.7,0.1c0-1-0.1-1.9-0.1-2.8
		C431.5,192.6,428.6,192.5,426.2,192.3z"/>
	<path class="st23" d="M391,161.3c0,0-0.1,0.1-0.2,0.1C390.9,161.4,390.9,161.3,391,161.3z"/>
	<path class="st20" d="M367.3,243.1c9.6-3,25.3-4.7,41.3,8.1c0.4-2.7,0.9-5.6,1.3-8.6c0.2-1.2,0.4-2.3,0.5-3.5
		c0.1-1,0.3-1.9,0.4-2.9l-6.9-6.5L376.4,204c-1.2,5.5-2.2,10.7-3.1,15.1c-0.5,2.6-1,4.9-1.3,6.6
		C371.1,230.6,369.2,237.1,367.3,243.1z"/>
	<path class="st18" d="M373.3,219c9.5,19,29.5,22.8,36.6,23.5c0.2-1.2,0.4-2.3,0.5-3.5c-1.6-2.2-3.9-5.4-6.5-9.4L376.4,204
		C375.2,209.5,374.2,214.7,373.3,219z"/>
	<path class="st18" d="M400.7,207.3c0,0-11.3,7.9-27.1,4.4C373.6,211.7,383.2,199.4,400.7,207.3z"/>
	<path class="st15" d="M406.4,238.2c0,0-18.9-9.7-26.5-20.8c-1.7-2.5-2.9-5.1-3.1-7.7c-1.2-13.9,20-4.1,20-4.1s1.2,1.6,2.9,3.9
		c4.3,5.8,12.2,16.2,14.8,18.8C418.1,231.9,406.4,238.2,406.4,238.2z"/>
	<path class="st24" d="M395.1,234.9c0,0.1,0.6,1,2.2,2.1c0.5,0.3,1.1,0.7,1.8,1c1.4,0.7,3.2,1.3,5.7,1.5c3.6,0.1,3.6,2.6,7.9,2.6
		s3.9,1.1,7.2,2.5c2.6,1.5,6.2,2.1,6.4,2.1c-0.3-0.1-4.7-1.4-5.5-7.1c-1-7.2-3.3-7.2-6-3.4c-1.7,2.4-3.1,3.4-3.8,2.9
		c-0.6-0.5-0.3-1.9,0-3.5c0.1-0.5,0.2-0.9,0.2-1.4c0.1-1.1,0.1-2.2-0.5-2.6c-1.8-1.5-3.7,1.8-4.8,0c-1-1.8,1.7-7.3-1.7-8
		c-0.1,0.2-0.3,0.4-0.4,0.6C399.8,229.5,396.6,235.9,395.1,234.9z"/>
	<path class="st20" d="M373.6,211.7c1.5-0.5,3-1,4.5-1.4c0.9-0.2,1.8-0.5,2.7-0.7c10.4-2.4,19.8-2.2,19.8-2.2s1.9-10.6,5-26.1
		c1.5-7.7,0.3-12.6-1.3-15.7c0-0.1,0-0.1,0-0.1c-1.7-3.1-4.9-5.2-8.4-5.3c-1.8-0.1-3.4,0.3-4.8,1.1c0,0-0.1,0-0.1,0.1
		c0,0-0.1,0.1-0.2,0.1c-6.4,3.8-9.2,15.1-10.9,22.8C377.6,195,373.6,211.7,373.6,211.7z"/>
	<path class="st18" d="M378.1,210.2c-5.3-9.2,5.7-11.4,5.7-30.1c0-14.2,5.8-18,7.1-18.7c-6.4,3.8-9.2,15.1-10.9,22.8
		c-2.3,10.8-6.3,27.4-6.3,27.4C375.1,211.1,376.6,210.7,378.1,210.2z"/>
	<path class="st25" d="M367.7,187.9H313v52.3h54.7V187.9z"/>
	<path class="st26" d="M288.2,240.2H319v-52.3h-30.8V240.2z"/>
	<path class="st27" d="M332.8,193.5h-8.4v33.4h8.4V193.5z"/>
	<path class="st27" d="M363.9,193.5H338v3h25.9V193.5z"/>
	<path class="st27" d="M363.9,197.5H338v3h25.9V197.5z"/>
	<path class="st25" d="M470.4,222.3h-51.9v49.5h51.9V222.3z"/>
	<path class="st26" d="M395.1,271.8h29.2v-49.5h-29.2V271.8z"/>
	<path class="st27" d="M437.3,227.6h-8v31.7h8V227.6z"/>
	<path class="st27" d="M466.7,227.6h-24.5v2.8h24.5V227.6z"/>
	<path class="st27" d="M466.7,231.4h-24.5v2.8h24.5V231.4z"/>
	<path class="st25" d="M572.2,222.4h-52.1v49.8h52.1V222.4z"/>
	<path class="st26" d="M496.6,272.1h29.3v-49.8h-29.3V272.1z"/>
	<path class="st27" d="M539,227.7h-8v31.8h8V227.7z"/>
	<path class="st27" d="M568.6,227.7h-24.7v2.8h24.7V227.7z"/>
	<path class="st27" d="M568.6,231.5h-24.7v2.8h24.7V231.5z"/>
	<path class="st28" d="M122.6,193.5c0,0-5.1,0.1-5.1,0.9c0.1,1,4.5,1.1,4.5,1.1s1.3,1.6,3.5,3.1c1.6,1.1,3.7,2.2,6,2.6
		c5.3,0.7,3.9-5.9,3.9-5.9s-0.7-0.7-1.7-1.7c-2.2-2.1-5.9-5.6-8-6.3c-3.2-1.1-8.2-2.1-8.3-1.1c-0.1,1.4,6.1,3,6.5,3
		c-0.4-0.1-6.8-1.4-7.4-0.4c-0.6,1,6.3,2.6,6.7,2.7c-0.4-0.1-6.7-0.9-6.7,0.1C116.4,193,122.6,193.5,122.6,193.5z"/>
	<path class="st20" d="M139.7,216.6c0.3,0.2,0.6,0.4,0.9,0.7c5.5,4.2,14.4,9.2,22.7,6.6c8.8-2.8,8.1-12.7,7.1-19.2
		c-1.1-6.5-2.8-20.7-6.9-29.1c-0.5-1.1-1.1-2.1-1.7-2.9c-0.5-0.7-1-1.2-1.6-1.7c-0.3-0.3-0.7-0.5-1-0.7c-2.9-1.7-7.6-3.6-10.3-1.8
		l1.1,2.1c-1.1,0.7-2,1.7-2.7,3c-1,1.9-1.7,4.4-1.5,7.7c0.6,10.6,1.7,15.5,1.7,15.5s-11.1-4.4-12-1.4c0,0.8-0.2,1.5-0.5,2.2
		c-0.9,2.1-2.7,3.8-2.7,3.8C128.8,206.5,134.2,212.3,139.7,216.6z"/>
	<path class="st29" d="M134.8,197.4c4.3,2.2,0.5,10.2,4,11c0.2,0.1,0.4,0.1,0.6,0.1c3.1-0.1,2.6-6.9,4.4-7.3
		c4.1-0.7,10.1,11,13.5,8.4c0.1-0.1,0.2-0.1,0.2-0.2c0,0,0,0,0,0c0,0,0,0,0,0c2.8-2.7-3.2-7.1-8.1-20.7c-5-13.7,0.1-18,0.3-18.1
		c-1.1,0.7-2,1.7-2.7,3c-1,1.9-1.7,4.4-1.5,7.7c0.6,10.6,1.7,15.5,1.7,15.5c-0.1-0.1-3.7-1.5-6.9-2.1c-2.4-0.5-4.7-0.6-5.1,0.7
		C135.3,196,135.1,196.7,134.8,197.4z"/>
	<path class="st18" d="M140.6,217.3c5.5,4.2,14.4,9.2,22.7,6.6c8.8-2.8,8.1-12.7,7.1-19.2c-1.1-6.5-2.8-20.7-6.9-29.1
		c-0.5-1.1-1.1-2.1-1.7-2.9c-0.5-0.7-1-1.2-1.6-1.7c1.6,1.6,4.7,6.4,5.9,20.8C167.6,211.8,161.3,230.4,140.6,217.3z"/>
	<path class="st15" d="M130.1,391.7c0.8,0.4,1.8,0.6,3.3,0.6c0.4,0,0.9,0,1.4,0c6.1-0.4,16.1,0.5,20.9,0.5c4.9-0.1,7.8-1.3,8.8-2.8
		c-0.1-0.3-0.3-0.7-0.6-1c-0.4-0.5-1.1-0.9-2.1-1.3c-5-1.9-10.7-5.2-14.5-9.2c-0.6-0.7-1.1-1.7-1.5-2.9c-0.7-2.2-0.9-5-1-7.7
		c-0.2-4.8,0.3-9.3,0.3-9.3l-16.8,0.3c0,0,0.8,4,1.3,8.7c0.4,3.3,0.7,6.9,0.5,9.7c-0.1,1.1-0.3,2.3-0.5,3.6
		C128.8,385.4,127.2,390.1,130.1,391.7z"/>
	<path class="st18" d="M156,391.8c-5,0.1-16.4-0.8-22.3-0.3c-3.5,0.3-4.9-0.2-5.2-2.3c-0.4-2.2,0-5.1,1.1-8.1
		c7.6,2.4,16.8-4.1,17.5-3.4c4,3.8,9.9,6.7,15,8.3c1.3,0.4,2.2,1.1,2.6,1.8C165,389.7,163.2,391.7,156,391.8z"/>
	<path class="st19" d="M164.5,390c-1,1.4-3.8,2.7-8.8,2.8c-4.8,0.1-15-0.8-21.1-0.5c-0.3,0-0.6,0-0.9,0.1c-1.8,0.2-3-0.1-3.8-0.7
		c-0.8-0.5-1.2-1.4-1.4-2.4c1.9,0.3,5.2,0.5,10.5,0.3c8.8-0.3,21.5,2.4,25-0.6c0.3-0.3,0.6-0.7,0.7-1.1
		C165,388.6,165,389.3,164.5,390z"/>
	<path class="st15" d="M110.1,391.7c0.8,0.4,1.8,0.6,3.3,0.6c0.4,0,0.9,0,1.4,0c6.1-0.4,16.1,0.5,20.9,0.5c4.9-0.1,7.8-1.3,8.8-2.8
		c-0.1-0.3-0.3-0.7-0.6-1c-0.4-0.5-1.1-0.9-2.1-1.3c-5-1.9-10.7-5.2-14.5-9.2c-0.6-0.7-1.1-1.7-1.5-2.9c-0.5-1.8-0.8-3.9-0.9-6.1
		c-0.3-5.4,0.2-10.9,0.2-10.9l-16.8,0.3c0,0,1,5,1.5,10.4c0.3,2.8,0.5,5.7,0.3,8.1c-0.1,1.1-0.3,2.3-0.5,3.6
		C108.7,385.4,107.1,390.1,110.1,391.7z"/>
	<path class="st17" d="M128.5,358.9c0,0,0.8,4,1.3,8.7c0.5,0.1,1,0.1,1.6,0.1c0.4,0,0.9,0,1.4,0c3.3-0.2,7.9,0,12.1,0.2
		c-0.2-4.8,0.3-9.3,0.3-9.3L128.5,358.9z"/>
	<path class="st17" d="M108.4,358.9c0,0,1,5,1.5,10.4c0.4,0.1,0.9,0.1,1.4,0.1c0.4,0,0.9,0,1.4,0c3.4-0.2,8,0,12.2,0.2
		c-0.3-5.4,0.2-10.9,0.2-10.9L108.4,358.9z"/>
	<path class="st20" d="M135.9,391.8c-5,0.1-16.4-0.8-22.3-0.3c-3.5,0.3-4.9-0.2-5.2-2.3c-0.4-2.2,0-5.1,1.1-8.1
		c7.6,2.4,16.8-4.1,17.5-3.4c4,3.8,9.9,6.7,15,8.3c1.3,0.4,2.2,1.1,2.6,1.8C144.9,389.7,143.2,391.7,135.9,391.8z"/>
	<path class="st19" d="M144.4,390c-1,1.4-3.8,2.7-8.8,2.8c-4.8,0.1-15-0.8-21.1-0.5c-0.3,0-0.6,0-0.9,0.1c-1.8,0.2-3-0.1-3.8-0.7
		c-0.8-0.5-1.2-1.4-1.4-2.4c1.9,0.3,5.2,0.5,10.5,0.3c8.8-0.3,21.5,2.4,25-0.6c0.3-0.3,0.6-0.7,0.7-1.1
		C144.9,388.6,144.9,389.3,144.4,390z"/>
	<path class="st30" d="M156.9,361.3c0,0-9.6,2.3-18,2.2c-3.3-0.1-6.4-0.5-8.8-1.6c-7.5-3.5-4.9-54.4-1.6-93.8
		c2.1-25,4.5-45.2,4.7-45.7c0.6-1.1,15.4,1,15.4,1l4.4,19c0,0,2.8,42.5,2.4,66C155,332.1,156.9,361.3,156.9,361.3z"/>
	<path class="st31" d="M138.9,363.5c-3.3-0.1-6.4-0.5-8.8-1.6c-7.5-3.5-4.9-54.4-1.6-93.8c1.7-2.5,2.7-3.8,2.7-3.8l8-12
		c0,0-2.8,34.5,4.4,54.5C153.7,334.9,131.3,348.7,138.9,363.5z"/>
	<path class="st30" d="M140.6,229.3c0,0-3.8,66.5-5.6,79.3c-1.7,12.8-2.8,56.8-2.8,56.8c-5.1,1.4-11,1.5-16.4,1.1
		c-9.1-0.7-16.8-3-16.8-3s2.6-33.3,5.4-42.7c2.8-9.4,2.8-7.9,4.1-11.1c0.9-2.3-3.2-3.6-1.3-6.9c3.6-6.5,1.3-13.4-0.8-30.7
		c-2.1-17.3,1.5-33.1,1.5-33.1c1.5-3.8,3.4-6.5,5.5-8.6C124.1,220.3,140.6,229.3,140.6,229.3z"/>
	<path class="st31" d="M114.8,320.5c1.6,6,4.6,10.5,2.5,20.1c-1.7,7.5-1.5,20.6-1.4,25.9c-9.1-0.7-16.8-3-16.8-3s2.6-33.3,5.4-42.7
		c2.8-9.4,2.8-7.9,4.1-11.1c0.9-2.3-3.2-3.6-1.3-6.9c3.6-6.5,1.3-13.4-0.8-30.7c-2.1-17.3,1.5-33.1,1.5-33.1
		c1.5-3.8,3.4-6.5,5.5-8.6c3.5,0,5.5,0.8,5.5,0.8s-6.4,19.9-3.2,37.4c3.2,17.5,5.2,28.4,1.5,32.7c-3.7,4.3,2.6,6.2,2.6,9.4
		S113.3,314.6,114.8,320.5z"/>
	<path class="st20" d="M139.1,161.7c0,0,4.7,13.6,5.8,32.3c1.1,18.7,0.7,38.4,0.7,38.4s-12.4,1.6-20.1,0c-7.7-1.6,0-71,0-71
		L139.1,161.7z"/>
	<path class="st18" d="M126.5,205.1l22.7-10l1.3,20.7c0,0-12.7,3-22,14.1C119.3,241,126.5,205.1,126.5,205.1z"/>
	<path class="st21" d="M158.8,254.4c0,0-4.9,2.9-15.4,3.2c0,0-0.2-35.3-1.7-64c-0.1-0.9-0.1-1.8-0.1-2.7c0-0.6-0.1-1.2-0.1-1.8
		c-0.1-2.2-0.2-4.3-0.4-6.3c-0.5-6.9-1-13-1.7-17.5c-0.4-2.8-0.4-3.4-0.9-4.8c0.2,0.1,5.2,3,9.8,5c4.6,2.1,5.4,2.5,5.1,13.2
		c0,0.8,0,1.9,0,3.2c0.1,1.7,0.2,3.9,0.3,6.3c0,0.6,0.1,1.2,0.1,1.8c0.1,0.9,0.1,1.8,0.2,2.7C155.4,215.4,158.8,254.4,158.8,254.4z"
		/>
	<path class="st32" d="M137.7,125.6l-1.3-0.9c0,0-4.3-0.6-7.2,4c-2.8,4.6-8.2,19-28.8,22.3c-3.8,0.6-7.3,1.2-10.3,1.9
		c-13.4,3-20.1,7.3-22.6,17.7c-3.7,15.3,11,21.8,11,21.8s0.9,18.7,23.7,14.1c12.9-2.6,19-17,22-29c2.3-9.2,2.6-16.9,2.6-16.9
		l15.3-29.1L137.7,125.6z M72.7,185.7c-14.8-16.4,6.1-26.9,6.1-26.9C66.1,171.3,72.6,185.5,72.7,185.7z M81.2,193.1
		c2.9,10.8,12.4,13,12.4,13C79.2,206.5,81.2,193.1,81.2,193.1z"/>
	<path class="st21" d="M136.8,222.5c-0.2-5.1-0.4-10.4-0.7-15.7c-0.3-4.5-0.6-9-0.9-13.3c-0.1-0.9-0.2-1.8-0.2-2.7
		c-0.1-0.6-0.1-1.2-0.2-1.8c-0.2-2.2-0.4-4.3-0.7-6.3c-1.3-10.8-3.1-19.5-5.5-23.2l-4-1.8c0,0-6.1,4.7-10.7,8.5
		c-4.6,3.8-7.1,4.6-7.6,8.5c-0.5,3.9-0.9,31.5-1.7,40.6c0,0.1,0,0.2,0,0.3c0,0.3-0.1,0.5-0.1,0.9c0,0.1,0,0.2,0,0.3
		c-0.1,0.4-0.1,0.9-0.2,1.4c0,0.1,0,0.2,0,0.3c0,0.1,0,0.3-0.1,0.4c0,0.1,0,0.1,0,0.2c0,0.1,0,0.2,0,0.3c-0.1,0.6-0.2,1.2-0.3,1.8
		c0,0.1,0,0.2-0.1,0.3c0,0,0,0.1,0,0.1c0,0.2-0.1,0.3-0.1,0.5c0,0.2-0.1,0.3-0.1,0.5c0,0.2-0.1,0.4-0.1,0.5c0,0.1,0,0.2,0,0.2
		c0,0.2-0.1,0.4-0.1,0.5c-0.1,0.5-0.2,1-0.3,1.5c-0.1,0.4-0.1,0.8-0.2,1.2c0,0.1,0,0.2,0,0.2c-0.1,0.7-0.2,1.4-0.4,2.1
		c0,0.1,0,0.1,0,0.2c-0.3,1.8-0.7,3.7-1.1,5.6c-0.1,0.3-0.1,0.6-0.2,0.9c-0.1,0.3-0.1,0.6-0.2,0.9c-1.9,9.6-3.8,18.6-3.8,18.6
		s20.7,5.8,40.4,3c0,0,0-13.1-0.5-29.8C137,226.6,136.9,224.6,136.8,222.5z"/>
	<path class="st33" d="M136.1,206.8l-31.6,8.6c0,0.1,0,0.2,0,0.3c0,0.3-0.1,0.5-0.1,0.9c0,0.1,0,0.2,0,0.3c-0.1,0.4-0.1,0.9-0.2,1.4
		c0,0.1,0,0.2,0,0.3c0,0.1,0,0.3-0.1,0.4c0,0.1,0,0.1,0,0.2c0,0.1,0,0.2,0,0.3c-0.1,0.6-0.2,1.2-0.3,1.8c0,0.1,0,0.2-0.1,0.3
		c0,0,0,0.1,0,0.1c0,0.2-0.1,0.3-0.1,0.5c0,0.2-0.1,0.3-0.1,0.5c0,0.2-0.1,0.4-0.1,0.5c0,0.1,0,0.2,0,0.2c0,0.2-0.1,0.4-0.1,0.5
		c-0.1,0.5-0.2,1-0.3,1.5c-0.1,0.4-0.1,0.8-0.2,1.2c0,0.1,0,0.2,0,0.2c-0.1,0.7-0.2,1.4-0.4,2.1c0,0.1,0,0.1,0,0.2
		c-0.3,1.8-0.7,3.7-1.1,5.6c-0.1,0.3-0.1,0.6-0.2,0.9c-0.1,0.3-0.1,0.6-0.2,0.9c15.3-12.3,27.8-10.6,36.2-8.3c-0.1-1.9-0.1-4-0.2-6
		C136.6,217.4,136.4,212.1,136.1,206.8z"/>
	<path class="st28" d="M130,147.7l-4.8,9.1l1.6,5.2c2.7,2.6,5,3.7,7,4.1c2.7,0.6,5.2-1.5,5.1-4.2c0-0.7,0-1.5,0.1-2.1
		c0.1-1.6,0.4-2.8,0.4-2.8l-8.9-8.9L130,147.7z"/>
	<path class="st2" d="M114.6,181.3l-1.4,6.1c0.4,0.1,7.4,1.6,18.1,1.6c1.1,0,2.2,0,3.4-0.1c-0.2-2.2-0.4-4.3-0.7-6.3
		C122.4,183,114.7,181.4,114.6,181.3z"/>
	<path class="st2" d="M113.8,189.3l-0.6,2.7c0.4,0.1,7.2,1.6,17.7,1.6c1.3,0,2.8,0,4.2-0.1c-0.1-0.9-0.2-1.8-0.2-2.7
		C122.3,191.2,113.9,189.4,113.8,189.3z"/>
	<path class="st2" d="M141.1,182.8c0.1,2,0.3,4.1,0.4,6.3c2.8,0,7-0.1,12.2-0.8c-0.1-2.4-0.2-4.6-0.3-6.3
		C148,182.7,143.7,182.8,141.1,182.8z"/>
	<path class="st34" d="M141.5,190.9c0.1,0.9,0.1,1.8,0.1,2.7c2.7,0,7-0.1,12.3-0.7c-0.1-0.9-0.1-1.9-0.2-2.7
		C148.4,190.8,144.2,190.9,141.5,190.9z"/>
	<path class="st35" d="M149.8,169.6l-0.2,0.8l-12.7,43.8h27.8l12.7-43.8l-1.3-0.8H149.8z"/>
	<path class="st36" d="M138.9,214.1h25.9l12.7-43.8h-25.9L138.9,214.1z"/>
	<path class="st37" d="M160.5,167.6l-1.4,4.3h7.1l1.6-4l-0.4-0.3H160.5z"/>
	<path class="st13" d="M159.6,171.9h7.1l1.1-4h-6.9L159.6,171.9z"/>
	<path class="st15" d="M151,188.8c-0.6-1-7,0.3-7.4,0.4c0.4-0.1,6.7-1.6,6.5-3c-0.1-1.1-5.1,0-8.3,1.1c-2.1,0.7-5.8,4.2-8,6.3
		c-1,1-1.7,1.7-1.7,1.7s-1.4,6.6,3.9,5.9c2.3-0.3,4.4-1.4,6-2.6c2.1-1.5,3.5-3.1,3.5-3.1s4.4-0.1,4.5-1.1c0.1-0.9-5.1-0.9-5.1-0.9
		s6.2-0.5,6.2-1.8c0-1.1-6.3-0.2-6.7-0.1C144.8,191.4,151.7,189.8,151,188.8z"/>
	<path class="st20" d="M132.7,197.4c-0.3-0.7-0.5-1.4-0.5-2.2c-0.9-3-12,1.4-12,1.4s1.1-4.9,1.7-15.5c0.2-3.3-0.5-5.8-1.5-7.7
		c-0.7-1.3-1.6-2.2-2.7-3c-2.7-1.8-6.4-1.9-9.3-0.3c-0.4,0.2-0.7,0.4-1,0.7c-0.6,0.5-1.2,1-1.6,1.7c-0.6,0.8-1.2,1.8-1.7,2.9
		c-4.1,8.4-5.8,22.6-6.9,29.1c-1.1,6.5-1.7,16.4,7.1,19.2c8.3,2.6,17.1-2.4,22.7-6.6c0.3-0.2,0.6-0.5,0.9-0.7
		c5.5-4.3,10.9-10,7.6-15.4C135.4,201.1,133.6,199.5,132.7,197.4z"/>
	<path class="st18" d="M101.5,191.7c1.2-14.4,4.2-19.2,5.9-20.8c-0.6,0.5-1.2,1-1.6,1.7c-0.6,0.8-1.2,1.8-1.7,2.9
		c-4.1,8.4-5.8,22.6-6.9,29.1c-1.1,6.5-1.7,16.4,7.1,19.2c8.3,2.6,17.1-2.4,22.7-6.6C106.2,230.4,99.9,211.8,101.5,191.7z"/>
	<path class="st5" d="M168.2,379.8h-15.6c-7.2,0-13.1,5.9-13.1,13.1h41.8C181.3,385.7,175.4,379.8,168.2,379.8z"/>
	<path class="st5" d="M166.2,283.1h-11.6v105.1h11.6V283.1z"/>
	<path class="st5" d="M584.5,272.3h-561c-12.9,0-23.4,9.1-23.4,20.3s10.5,20.3,23.4,20.3h561c12.9,0,23.4-9.1,23.4-20.3
		S597.4,272.3,584.5,272.3z"/>
	<path class="st38" d="M584.5,272.3h-561c-12.9,0-23.4,9.1-23.4,20.3s10.5,20.3,23.4,20.3h561c12.9,0,23.4-9.1,23.4-20.3
		S597.4,272.3,584.5,272.3z M584.5,308.9h-561c-10.4,0-18.8-7.3-18.8-16.3c0-9,8.5-16.3,18.8-16.3h561c10.4,0,18.8,7.3,18.8,16.3
		C603.3,301.6,594.8,308.9,584.5,308.9z"/>
	<path class="st39" d="M25.2,306c7.7,0,14-6,14-13.4c0-7.4-6.3-13.4-14-13.4c-7.7,0-14,6-14,13.4C11.3,300,17.5,306,25.2,306z"/>
	<path class="st39" d="M583.2,306c8.5,0,15.4-6,15.4-13.4c0-7.4-6.9-13.4-15.4-13.4c-8.5,0-15.4,6-15.4,13.4
		C567.8,300,574.7,306,583.2,306z"/>
	<path class="st38" d="M439.5,276H414v32.8h25.5V276z"/>
	<path class="st38" d="M497.1,276h-25.5v32.8h25.5V276z"/>
	<path class="st38" d="M552.4,276h-25.5v32.8h25.5V276z"/>
	<path class="st38" d="M80.4,276.2H54.9v32.8h25.5V276.2z"/>
	<path class="st38" d="M138,276.2h-25.5v32.8H138V276.2z"/>
	<path class="st38" d="M193.3,276.2h-25.5v32.8h25.5V276.2z"/>
	<path class="st25" d="M103,225.9H54.9v45.9H103V225.9z"/>
	<path class="st26" d="M60.2,225.9H33.2v45.9h27.1V225.9z"/>
	<path class="st27" d="M72.3,230.9h-7.4v29.3h7.4V230.9z"/>
	<path class="st27" d="M99.6,230.9H76.8v2.6h22.7V230.9z"/>
	<path class="st27" d="M99.6,234.4H76.8v2.6h22.7V234.4z"/>
	<path class="st25" d="M199.7,224.9h-49.2v47h49.2V224.9z"/>
	<path class="st26" d="M156,224.9h-27.7v47H156V224.9z"/>
	<path class="st27" d="M168.3,229.9h-7.5v30h7.5V229.9z"/>
	<path class="st27" d="M196.2,229.9H173v2.7h23.3V229.9z"/>
	<path class="st27" d="M196.2,233.5H173v2.7h23.3V233.5z"/>
	<path class="st35" d="M377,142.7H232.6c-3.8,0-7,3.1-7,6.9v242.5h158.3V149.7C383.9,145.8,380.8,142.7,377,142.7z"/>
	<path class="st38" d="M362.9,331.7h-5.4v43h5.4V331.7z"/>
	<path class="st38" d="M352.3,331.7h-5.4v43h5.4V331.7z"/>
	<path class="st38" d="M341.8,331.7h-5.4v43h5.4V331.7z"/>
	<path class="st38" d="M331.2,331.7h-5.4v43h5.4V331.7z"/>
	<path class="st38" d="M320.6,331.7h-5.4v43h5.4V331.7z"/>
	<path class="st38" d="M310.1,331.7h-5.4v43h5.4V331.7z"/>
	<path class="st38" d="M299.5,331.7h-5.4v43h5.4V331.7z"/>
	<path class="st40" d="M377.8,139.3H233.4v3.3h144.4V139.3z"/>
	<path class="st40" d="M373.1,154.1H236.8c-0.5,0-0.9,0.4-0.9,0.9v144.8c0,0.5,0.4,0.9,0.9,0.9h136.3c0.5,0,0.9-0.4,0.9-0.9V155
		C374,154.5,373.6,154.1,373.1,154.1z"/>
	<path class="st41" d="M359,170.9H252.1c-1.9,0-3.4,1.5-3.4,3.4v35.8c0,1.9,1.5,3.4,3.4,3.4H359c1.9,0,3.4-1.5,3.4-3.4v-35.8
		C362.5,172.4,361,170.9,359,170.9z"/>
	<path class="st42" d="M275.1,261.4c9.4,0,17.1-7.6,17.1-17c0-9.4-7.6-17-17.1-17c-9.4,0-17.1,7.6-17.1,17
		C258.1,253.7,265.7,261.4,275.1,261.4z"/>
	<path class="st2" d="M281.1,239.9c1,1.3,1.6,2.8,1.6,4.6h8c0-3.8-1.5-7.3-3.8-10L281.1,239.9z"/>
	<path class="st2" d="M275.6,237c1.5,0.1,3,0.6,4.1,1.5l5.8-5.5c-2.7-2.4-6.2-3.9-10-4L275.6,237z"/>
	<path class="st2" d="M264.5,233.2l5.7,5.5c1-0.8,2.2-1.4,3.5-1.7l-0.1-8C270.1,229.5,267,231,264.5,233.2z"/>
	<path class="st2" d="M259.6,244.4h8c0-1.6,0.5-3,1.4-4.2l-5.7-5.6C261,237.3,259.7,240.7,259.6,244.4z"/>
	<path class="st43" d="M275.3,243.6l-9.1-3.1c-0.5-0.2-1,0.1-1.2,0.6c-0.2,0.5,0.1,1,0.6,1.2l9.1,3.1c0.5,0.2,1-0.1,1.2-0.6
		C276.1,244.3,275.8,243.8,275.3,243.6z"/>
	<path class="st42" d="M333.9,261.4c9.4,0,17.1-7.6,17.1-17c0-9.4-7.6-17-17.1-17c-9.4,0-17.1,7.6-17.1,17
		C316.9,253.7,324.5,261.4,333.9,261.4z"/>
	<path class="st2" d="M339.9,239.9c1,1.3,1.6,2.8,1.6,4.6h8c0-3.8-1.5-7.3-3.8-10L339.9,239.9z"/>
	<path class="st2" d="M334.4,237c1.5,0.1,3,0.6,4.1,1.5l5.8-5.5c-2.7-2.4-6.2-3.9-10-4L334.4,237z"/>
	<path class="st2" d="M323.3,233.2l5.7,5.5c1-0.8,2.2-1.4,3.5-1.7l-0.1-8C328.9,229.5,325.8,231,323.3,233.2z"/>
	<path class="st2" d="M318.4,244.4h8c0-1.6,0.5-3,1.4-4.2l-5.7-5.6C319.8,237.3,318.5,240.7,318.4,244.4z"/>
	<path class="st43" d="M337.7,234.2c-0.5-0.2-1,0.1-1.2,0.5l-3.4,9c-0.2,0.5,0.1,1,0.5,1.2c0.5,0.2,1-0.1,1.2-0.5l3.4-9
		C338.4,234.9,338.1,234.4,337.7,234.2z"/>
	<path class="st35" d="M304.5,231.3c-1.2,0-2.1,0.9-2.1,2.1s0.9,2.1,2.1,2.1s2.1-0.9,2.1-2.1S305.7,231.3,304.5,231.3z"/>
	<path class="st35" d="M304.5,242.7c1.2,0,2.1-0.9,2.1-2.1c0-1.2-0.9-2.1-2.1-2.1c-1.2,0-2.1,0.9-2.1,2.1
		C302.4,241.7,303.3,242.7,304.5,242.7z"/>
	<path class="st35" d="M304.5,245.7c-1.2,0-2.1,0.9-2.1,2.1c0,1.2,0.9,2.1,2.1,2.1s2.1-0.9,2.1-2.1
		C306.6,246.6,305.7,245.7,304.5,245.7z"/>
	<path class="st35" d="M304.5,257.1c1.2,0,2.1-0.9,2.1-2.1c0-1.2-0.9-2.1-2.1-2.1c-1.2,0-2.1,0.9-2.1,2.1
		C302.4,256.2,303.3,257.1,304.5,257.1z"/>
	<path class="st35" d="M344.2,272.3c-2.9,0-5.2,2.3-5.2,5.2c0,2.9,2.4,5.2,5.2,5.2s5.2-2.3,5.2-5.2
		C349.4,274.7,347.1,272.3,344.2,272.3z"/>
	<path class="st35" d="M328.3,272.3c-2.9,0-5.2,2.3-5.2,5.2c0,2.9,2.4,5.2,5.2,5.2c2.9,0,5.2-2.3,5.2-5.2
		C333.6,274.7,331.2,272.3,328.3,272.3z"/>
	<path class="st2" d="M312.5,272.3c-2.9,0-5.2,2.3-5.2,5.2c0,2.9,2.4,5.2,5.2,5.2c2.9,0,5.2-2.3,5.2-5.2
		C317.7,274.7,315.4,272.3,312.5,272.3z"/>
	<path class="st35" d="M296.6,272.3c-2.9,0-5.2,2.3-5.2,5.2c0,2.9,2.4,5.2,5.2,5.2c2.9,0,5.2-2.3,5.2-5.2
		C301.9,274.7,299.5,272.3,296.6,272.3z"/>
	<path class="st35" d="M280.8,272.3c-2.9,0-5.2,2.3-5.2,5.2c0,2.9,2.4,5.2,5.2,5.2c2.9,0,5.2-2.3,5.2-5.2
		C286,274.7,283.7,272.3,280.8,272.3z"/>
	<path class="st2" d="M264.9,272.3c-2.9,0-5.2,2.3-5.2,5.2c0,2.9,2.4,5.2,5.2,5.2c2.9,0,5.2-2.3,5.2-5.2
		C270.2,274.7,267.8,272.3,264.9,272.3z"/>
	<path class="st44" d="M499.9,391.8h-15.6c-7.2,0-13.1,5.9-13.1,13.1H513C513,397.7,507.2,391.8,499.9,391.8z"/>
	<path class="st20" d="M552.4,237.3c0,0-5.3,2-9.2,23.3c-3.9,21.3-9.9,23.1-7.2,27.1c2.7,4-2.5,1.8-4.8,7.5c-2.3,5.7-6.3,12-6.3,12
		l18.4,3.4c0,0,11.1-13.6,14.3-23.8C560.6,276.5,559.9,233.5,552.4,237.3z"/>
	<path class="st21" d="M552.4,236c0,0-1.7,7.6-3.9,21.4c-0.4,2.3-0.7,4.7-1.1,7.3c-0.2,1.1-0.3,2.1-0.5,3.2
		c-0.1,0.7-0.2,1.4-0.3,2.1c-0.1,0.3-0.1,0.7-0.1,1c-2.9,21.2-5.2,36.1-5.2,36.1l21.2,3.4C562.5,310.6,583.5,222.5,552.4,236z"/>
	<path class="st2" d="M548.5,257.3c-0.4,2.3-0.7,4.7-1.1,7.3c3,0.1,6.1,0.1,9.3,0.1l-0.1-7.3C553.9,257.4,551.1,257.4,548.5,257.3z"
		/>
	<path class="st2" d="M546.9,267.9c-0.1,0.7-0.2,1.4-0.3,2.1c-0.1,0.3-0.1,0.7-0.1,1c2.9,0.1,5.9,0.1,9,0.1l0-3.2
		C552.6,268,549.7,268,546.9,267.9z"/>
	<path class="st15" d="M624.4,383.2c-0.9-0.1-1.7-0.1-2.4,0c-11.6,0.8-15.8,13.9-10.2,17c2.2,0.2,4.1,0.4,5.8,0.6
		c3.1,0,5.8,0.1,8.2,0.3c2.4,0.2,4.4,0.4,6.1,0.7c3.8,0.5,5.8,1.1,5.8,1.1S639.6,384.3,624.4,383.2z"/>
	<path class="st17" d="M611.8,400.1c2.2,0.2,4.1,0.4,5.8,0.7c3.1,0,5.8,0.1,8.2,0.3c0.1-3.4-0.1-12-3.8-17.9
		C610.4,384,606.2,397,611.8,400.1z"/>
	<path class="st30" d="M566.8,303.8c-1.2-0.1-57.2,2.4-66.4,18.8c-3.8,6.8-2.3,19.4-0.4,33.2c2.2,15.8,3.9,36.7,3.9,36.7
		s10.2,0.8,19.9-1.2c4.3-0.9,8.4-2.3,11.5-4.5c0,0-2-20.2-2-33.6c0-2.7-0.4-5.5-1.3-8c-1.4-3.9,1.6-3.9,4-1.8
		c2.8,2.6,3.8,3.3,11.2,1c7.4-2.4,22.7,2.9,31.7-2c4.2-2.3,9.3-10.2,10-18.2C589.7,315,584.9,305.6,566.8,303.8z"/>
	<path class="st31" d="M559.3,331.6c-9.8,2.2-28.2-6.1-32.5-5c-1.2,0.3-2.1,0.9-2.8,2c-3.3,5.1,1.5,13.6-9.7,13.7
		c-1.7,0-2.4,0.7-2.5,1.9c-0.4,6,17.1,31,12,47.3c3.6-0.7,7.2-1.9,10-3.5c0.5-0.3,1-0.6,1.5-0.9c0,0-2-20.2-2-33.6
		c0-0.4,0-0.9,0-1.3c-0.1-2.3-0.5-4.6-1.3-6.7c-1.4-3.9,1.6-3.9,4-1.8c2.8,2.6,3.8,3.3,11.2,1c7.4-2.4,22.7,2.9,31.7-2
		c4.2-2.3,9.3-10.2,10-18.2c-3.4-3-6.1-4.1-6.1-4.1S571.8,328.8,559.3,331.6z"/>
	<path class="st20" d="M555.5,236.1c0,0-5,20.7-5.2,35.4c-0.1,4.5-0.5,9.2-1.1,13.6c-0.7,5.8-1.5,11.3-1.6,15.7
		c-0.1,3.1,0.2,5.7,1,7.4c3,5.9,21.6,5.9,21.6,5.9s3.5-75.5,3.4-76.6C573.5,236.3,558,229.1,555.5,236.1z"/>
	<path class="st18" d="M564.1,261.6c-4.1,15.1-10,21.3-15,23.6c-0.7,5.8-1.5,11.3-1.6,15.7c7.8-0.2,17.6-1.2,17.7-4.6
		C565.5,290.5,572.5,230.8,564.1,261.6z"/>
	<path class="st15" d="M570.7,225.5c-6.1-3.3-8.2-10-8.2-10s-0.4,0.3-0.9,0.9c-3.3,3.2-14.8,9.6-6.1,16.5c0.6,0.5,2.1,5.7,2.7,6
		C567.8,243.8,576.4,228.7,570.7,225.5z"/>
	<path class="st30" d="M594.9,374.2c-2.7-0.7-5.4-1-8.1-0.7c-4.1,0.4-3.4-2.6-0.8-4.3c3.2-2.1,4.2-2.9,3.7-10.6
		c-0.5-7.7,8.4-21.2,5.9-31.1c-1.2-4.6-7.6-11.5-15.2-14.2c-8.7-3.1-19-0.7-25.2,16.3c-0.4,1.2-7,54.8,1.8,68.8
		c4.1,6.5,18.2,7.1,32.1,8.6c15.9,1.8,31.5,4.1,31.5,4.1s3.3-9.7,3.7-19.5c0.2-4.3-0.1-8.7-1.5-12.2
		C622.9,379.4,607.9,377.5,594.9,374.2z"/>
	<path class="st31" d="M622.9,379.4c0,0-14.9-1.9-28-5.2c-0.4-0.1-0.9-0.2-1.3-0.3c-2.3-0.5-4.5-0.6-6.8-0.4
		c-4.1,0.4-3.4-2.6-0.8-4.3c3.2-2.1,4.2-2.9,3.7-10.6c-0.5-7.7,8.4-21.2,5.9-31.1c-1.2-4.6-7.6-11.5-15.2-14.2
		c-3.7,2.5-5.5,4.9-5.5,4.9s-2.3,22.3-2.6,35c-0.3,10-5,16.3-5,20.7c0,1.2,0.4,2.3,1.2,3.2c4.1,4.5,13.5,1.9,10.9,12.7
		c-0.4,1.6,0.1,2.5,1.2,2.9c5.8,1.9,29.2-10,43.7-1.1c0.2-3.7,0-7.4-1-10.6C623.3,380.5,623.1,380,622.9,379.4z"/>
	<path class="st21" d="M602.3,280c-0.4-2.5-0.8-5.7-1.3-9.2c-0.2-1-0.3-2.1-0.5-3.2c-0.2-1-0.4-2.1-0.6-3.2c-0.5-2.4-1-4.8-1.7-7.2
		c-1.6-6-4-12.1-7.5-17.5c-4.4-6.7-10.6-12.2-19.6-15.1c0,0-6.4,12.8-8,32.6c-0.1,0.6-0.1,1.2-0.1,1.8c-0.1,1.6-0.2,3.5-0.2,5.5
		c0,1-0.1,2.1-0.1,3.3c0,1,0,2.1-0.1,3.2c-0.1,6.6,0,14.2,0.1,21.9c0.2,11.4,0.5,22.8,0.7,31c0.2,7,0.4,11.6,0.4,11.6
		s31.2,5.2,48.7-3.5c0,0-3-14.5-5.8-28.9C604.8,294.2,603.1,285.3,602.3,280z"/>
	<path class="st17" d="M561.6,216.3c-3.3,3.2-14.8,9.6-6.1,16.5c0.6,0.5,2.1,5.7,2.7,6c6.7-3.7,4.7-17.5,4.7-17.5L561.6,216.3z"/>
	<path class="st45" d="M583.8,283.5c0,0,12.1,4.5,15.3-3.5c3.8-9.5-7.4-30.2-7.4-30.2L583.8,283.5z"/>
	<path class="st21" d="M590.6,239.7c-6-4-11.5-5.9-15.5-4.6c0,0,5.4,40.5-12.7,57.8c0.2,11.4,0.5,22.8,0.7,31
		c5.7-5.7,19.3-16.6,43.3-20.8c-1.7-8.9-3.4-17.8-4.2-23.1C600.9,270.8,599.4,253.1,590.6,239.7z"/>
	<path class="st20" d="M638.7,378c-2.6-3.6-4.9-3.7-7.2-2.3c-2.4,1.5-4.6,4.6-7,7.5c7.7,4.7,8.1,13.4,7.5,18.6
		c3.8,0.5,5.8,1.1,5.8,1.1c6.4,1,13.1,3.9,18.4,7c1.5,0.9,2.9,1.2,3.9,1c2.9-0.7,3.1-5.4-2.8-12.5
		C653.1,393.6,643.1,384.1,638.7,378z"/>
	<path class="st19" d="M638.7,378c-2.6-3.6-4.9-3.7-7.2-2.3c1.8,1.6,4.8,4.5,9,9.6c7.7,9.4,22.7,20.1,19.6,25.6
		c2.9-0.7,3.1-5.5-2.8-12.5C653.1,393.6,643.1,384.1,638.7,378z"/>
	<path class="st16" d="M555.3,227.6c-0.2-0.1-0.4-0.2-0.6-0.2c-0.2,0-0.5,0-0.7,0.2c0.2,0.1,0.4,0.2,0.5,0.3l0.4,0.3
		c0.1,0.1,0.3,0.2,0.5,0.3c0.2,0.1,0.3,0.2,0.6,0.2c0-0.2-0.1-0.4-0.2-0.6C555.7,227.9,555.5,227.7,555.3,227.6z"/>
	<path class="st2" d="M580.2,257.9c-7.4,0-13.3-0.4-17.2-0.7c-0.1,0.6-0.1,1.2-0.1,1.8c-0.1,1.6-0.2,3.5-0.2,5.5
		c4.1,0.4,10.1,0.7,17.5,0.7c5.8,0,12.5-0.2,19.8-0.8c-0.5-2.4-1-4.8-1.7-7.2C591.6,257.7,585.5,257.9,580.2,257.9z"/>
	<path class="st2" d="M562.5,267.9c0,1,0,2.1-0.1,3.2c4.1,0.3,10.2,0.7,17.7,0.7c6.1,0,13.1-0.2,20.9-0.9c-0.2-1-0.3-2.1-0.5-3.2
		C583.4,269.1,569.7,268.5,562.5,267.9z"/>
	<path class="st46" d="M528,316.7c-2.9,1.3-4.9,3.3-5.5,5.2c0.5,0.1,1.1,0,1.7-0.3l10.1-4.7c0.5-0.2,1-0.6,1.3-1.1
		C533.7,315.1,530.9,315.4,528,316.7z"/>
	<path class="st25" d="M534,307.7h-59.6v46.1H534V307.7z"/>
	<path class="st26" d="M481,307.7h-33.5v46.1H481V307.7z"/>
	<path class="st27" d="M495.9,312.7h-9.1v29.5h9.1V312.7z"/>
	<path class="st27" d="M529.7,312.7h-28.2v2.6h28.2V312.7z"/>
	<path class="st27" d="M529.7,316.2h-28.2v2.6h28.2V316.2z"/>
	<path class="st25" d="M549.2,349.5H469v57.3h80.2V349.5z"/>
	<path class="st37" d="M477.8,349.5h-45.1v57.3h45.1V349.5z"/>
	<path class="st26" d="M477.9,349.5l12.9,20.3H562l-12.9-20.3H477.9z"/>
	<path class="st47" d="M416.6,369.9h48.7l12.9-20.3h-48.7L416.6,369.9z"/>
	<path class="st27" d="M544.6,375.9h-59.9v18.7h59.9V375.9z"/>
	<path class="st48" d="M537.3,301.6c0,0-1.3-0.2-3.2-0.4c-4-0.4-10.6-0.9-13.3,0.1c-4.1,1.5-10.1,4.5-9.3,5.7c1,1.5,8.7-2,9.2-2.2
		c-0.5,0.2-8,4.1-7.8,5.7c0.2,1.6,8.5-2.5,9-2.7c-0.4,0.3-7.6,4.5-6.7,5.7c1.1,1.4,7.8-3.2,7.8-3.2s-5.2,4.2-4.4,5.1
		c0.9,1,5.5-2.6,5.5-2.6s2.7,0.5,6,0.3c2.6-0.2,5.6-0.7,8.2-2.3C544.2,307.2,537.3,301.6,537.3,301.6z"/>
	<path class="st20" d="M594.5,254.6c-0.5-6.3-3.6-12.3-7.6-16.1c-6.5-6.3-15.3-6.6-18.1,7.8c-2.6,13.3-3.2,22.9-5.7,28.7
		c-2.5,5.8,2.6,5.3,2.2,7.2c-0.4,1.9-2.8-0.4-5.1,1.8c-2.3,2.2-5.5,6.7-12.4,10.3c-6.8,3.6-11.8,3.3-11.8,11.1c0,1.7,0.5,3.4,1.3,5
		c3.1,5.6,11.4,9.7,23,6.8c14.8-3.6,17.8-7.8,26.2-14.3c8.3-6.5,7-10,6.5-15.8C592.5,281.4,595.4,265.8,594.5,254.6z"/>
	<path class="st18" d="M594.5,254.6c-0.5-6.3-3.6-12.3-7.6-16.1c2.8,3.7,4.2,10-2.6,18.2c-3.7,4.4-3,9.5-1.9,14l0.1,0.2l0.2,0.7
		c0.9,3.3,1.8,6.3,1.2,8.3c-1.7,5.5-9.1,3.2-10.3,6.4c-1.3,3.5,10.9,9.4,3.3,12.1c-4.4,1.6-6.8,3.3-10.8,5.5c0,0,0,0,0,0
		c-3,1.7-6.8,3.7-12.9,6.2c-8.1,3.3-13,2.1-15.8,0.4c3.1,5.6,11.4,9.7,23,6.8c14.8-3.6,17.8-7.8,26.2-14.3c0.2-0.1,0.4-0.3,0.5-0.4
		c3.5-2.8,5.2-5.1,5.9-7.3c0.8-2.6,0.3-5,0.1-8.1C592.5,281.4,595.4,265.8,594.5,254.6z"/>
	<path class="st42" d="M259.2,176.3h-4.4v31.8h4.4V176.3z"/>
	<path class="st2" d="M259.2,181.3h-4.4v26.9h4.4V181.3z"/>
	<path class="st26" d="M260.8,179.1h-7.5v2.1h7.5V179.1z"/>
	<path class="st42" d="M270.1,176.3h-4.4v31.8h4.4V176.3z"/>
	<path class="st2" d="M270.1,193.3h-4.4v14.8h4.4V193.3z"/>
	<path class="st26" d="M271.7,191.2h-7.5v2.1h7.5V191.2z"/>
	<path class="st42" d="M281.1,176.3h-4.4v31.8h4.4V176.3z"/>
	<path class="st2" d="M281.1,183.9h-4.4v24.2h4.4V183.9z"/>
	<path class="st26" d="M282.7,181.8h-7.5v2.1h7.5V181.8z"/>
	<path class="st42" d="M292.1,176.3h-4.4v31.8h4.4V176.3z"/>
	<path class="st2" d="M292.1,181.3h-4.4v26.9h4.4V181.3z"/>
	<path class="st26" d="M293.6,179.1h-7.5v2.1h7.5V179.1z"/>
	<path class="st42" d="M303,176.3h-4.4v31.8h4.4V176.3z"/>
	<path class="st2" d="M303,178.5h-4.4v29.7h4.4V178.5z"/>
	<path class="st26" d="M304.6,176.3H297v2.1h7.5V176.3z"/>
	<path class="st38" d="M325.5,176.3h-14v13.9h14V176.3z"/>
	<path class="st38" d="M325.5,194.2h-14v13.9h14V194.2z"/>
	<path class="st43" d="M318.5,178.7c-2.6,0-4.6,2.1-4.6,4.6s2.1,4.6,4.6,4.6c2.6,0,4.6-2.1,4.6-4.6S321,178.7,318.5,178.7z"/>
	<path class="st2" d="M318.5,196.5c-2.6,0-4.6,2.1-4.6,4.6c0,2.6,2.1,4.6,4.6,4.6c2.6,0,4.6-2.1,4.6-4.6
		C323.1,198.6,321,196.5,318.5,196.5z"/>
	<path class="st38" d="M356.5,176.3h-6.1v31.8h6.1V176.3z"/>
	<path class="st49" d="M354.5,178.5h-2.1v27.4h2.1V178.5z"/>
	<path class="st42" d="M354.2,181.4h-1.5v10.8h1.5V181.4z"/>
	<path class="st26" d="M353.4,179.3c-1.7,0-3.1,1.4-3.1,3c0,1.7,1.4,3,3.1,3c1.7,0,3.1-1.4,3.1-3
		C356.5,180.6,355.1,179.3,353.4,179.3z"/>
	<path class="st38" d="M346.4,176.3h-6.1v31.8h6.1V176.3z"/>
	<path class="st49" d="M344.4,178.5h-2.1v27.4h2.1V178.5z"/>
	<path class="st42" d="M344.1,192.2h-1.5v8.1h1.5V192.2z"/>
	<path class="st26" d="M343.4,197.2c-1.7,0-3.1,1.4-3.1,3c0,1.7,1.4,3,3.1,3c1.7,0,3.1-1.4,3.1-3
		C346.4,198.6,345.1,197.2,343.4,197.2z"/>
	<path class="st38" d="M336.4,176.3h-6.1v31.8h6.1V176.3z"/>
	<path class="st49" d="M334.4,178.5h-2.1v27.4h2.1V178.5z"/>
	<path class="st42" d="M334,181.4h-1.5v10.8h1.5V181.4z"/>
	<path class="st26" d="M333.3,175.6c-1.7,0-3.1,1.4-3.1,3c0,1.7,1.4,3,3.1,3c1.7,0,3.1-1.4,3.1-3C336.4,177,335,175.6,333.3,175.6z"
		/>
	<path class="st25" d="M247.4,124.4c-3.7,0-6.7,3-6.7,6.7v5.7H254V131C254,127.4,251,124.4,247.4,124.4z"/>
	<path class="st13" d="M251.1,127.2h-0.8c-1.6,0-2.9,1.3-2.9,2.9v6.7c0,1.6,1.3,2.9,2.9,2.9h0.8c1.6,0,2.9-1.3,2.9-2.9v-6.7
		C254,128.5,252.7,127.2,251.1,127.2z"/>
	<path class="st50" d="M256.1,136.8h-17.5v5.9h17.5V136.8z"/>
	<path class="st25" d="M271.3,124.4c-3.7,0-6.7,3-6.7,6.7v5.7H278V131C278,127.4,275,124.4,271.3,124.4z"/>
	<path class="st13" d="M274.6,127.2c-1.8,0-3.3,1.5-3.3,3.3v5.9c0,1.8,1.5,3.3,3.3,3.3c1.8,0,3.3-1.5,3.3-3.3v-5.9
		C278,128.7,276.5,127.2,274.6,127.2z"/>
	<path class="st50" d="M280.1,136.8h-17.5v5.9h17.5V136.8z"/>
	<path class="st51" d="M440.9,124.1C440.9,124.1,440.9,124.1,440.9,124.1c-0.2-0.4-0.4-0.7-0.6-1c0,0,0-0.1-0.1-0.1
		c-2.7-4.4-7.9-6.9-14.1-7.2c-9.1-0.5-10.9,7.4-10.9,7.4c-2.4-1.1-6.1,0.6-5.1,7.2c1,6.6,2.8,10.1,2.8,10.1l24.4,3.6
		c3.3-5.2,4.8-9.8,4.8-13.7c0-1.5-0.2-3-0.6-4.3C441.4,125.3,441.2,124.7,440.9,124.1z"/>
	<path class="st52" d="M434.2,142.7l4.2-1.2c0,0,3-6,0.4-9.6C436.2,128.3,434.2,142.7,434.2,142.7z"/>
	<path class="st52" d="M414.9,128.9c-2.8,1.6-2.8,7.7-2.7,8.9l0.4,0.4C412.6,138.3,417.9,127.2,414.9,128.9z"/>
	<path class="st52" d="M440.9,124.1C440.9,124.1,440.9,124.1,440.9,124.1c-0.2-0.5-0.4-0.8-0.6-1c0,0,0-0.1-0.1-0.1
		c-0.1,0-0.3,0.1-0.5,0.2c-3.8,1.4-8.9-1.3-8.9-1.3s5.8,9.1,7.2,9.3c0.7,0.1,2.7-0.4,4.1-0.9c0-1.5-0.2-3-0.6-4.3
		C441.4,125.3,441.2,124.7,440.9,124.1z"/>
	<path class="st53" d="M418.6,126.1c-0.1,0.3-0.2,0.6-0.2,0.9C418.5,126.7,418.5,126.4,418.6,126.1z"/>
	<path class="st15" d="M411.7,157.8c0,0,2.1,1.9,6.3,2.4c4.9,0.6,6.7,0.1,6.7,0.1l2.8-14.4l-12.7-4.2L411.7,157.8z"/>
	<path class="st17" d="M424.7,160.3l0.8-4.1l-8.5-5.6L424.7,160.3z"/>
	<path class="st15" d="M415.8,148c-0.2,1,0.2,2.1,1.1,2.7l8.9,5.8c0.7,0.5,1.7,0.6,2.6,0.2l5.9-2.6c0.8-0.3,1.3-1,1.5-1.9l3.7-18.9
		l-20.1-3.9L415.8,148z"/>
	<path class="st54" d="M433.1,145.8c-0.4,2.1,1,4,3.1,4.4l1.4-7.4C435.6,142.4,433.5,143.8,433.1,145.8z"/>
	<path class="st55" d="M432.9,137.1c-0.2,0-0.3,0.1-0.3,0.3l-0.7,7.9l-2.6-0.5c-0.2,0-0.3,0.1-0.3,0.2c0,0.2,0.1,0.3,0.2,0.3
		l2.9,0.6c0.1,0,0.2,0,0.2-0.1c0.1-0.1,0.1-0.1,0.1-0.2l0.7-8.2C433.2,137.3,433,137.1,432.9,137.1z"/>
	<path class="st15" d="M414.4,136.6c-2.6-0.5-5.2,1.2-5.7,3.8c-0.5,2.6,1.2,5.1,3.9,5.6c2.6,0.5,5.2-1.2,5.7-3.8
		C418.8,139.6,417,137.1,414.4,136.6z"/>
	<path class="st52" d="M423.3,134.2c0,1,3.8,1,4-0.1C427.7,132.4,423.3,132.5,423.3,134.2z"/>
	<path class="st52" d="M436.7,135.5c-0.5,0.8,2.6,2.5,3.3,1.7C441,136,437.5,134.2,436.7,135.5z"/>
	<path class="st54" d="M422.9,139.8c-2.1-0.4-4.1,0.9-4.5,3c-0.4,2.1,1,4,3.1,4.4c2.1,0.4,4.1-0.9,4.5-3
		C426.3,142.1,425,140.1,422.9,139.8z"/>
	<path class="st56" d="M427.4,137.6c-0.4-0.1-0.9,0.4-1.1,1.2c-0.2,0.7,0.1,1.4,0.5,1.5c0.4,0.1,0.9-0.4,1.1-1.2
		C428.1,138.4,427.9,137.7,427.4,137.6z"/>
	<path class="st56" d="M435.6,139.2c-0.4-0.1-0.9,0.4-1.1,1.2c-0.2,0.7,0.1,1.4,0.5,1.5c0.4,0.1,0.9-0.4,1.1-1.2
		C436.2,140,436,139.3,435.6,139.2z"/>
	<path class="st55" d="M430.7,149.5c-2.5,1-4-0.8-4-0.9c-0.1-0.1-0.3-0.2-0.4-0.1c-0.1,0.1-0.2,0.3-0.1,0.4c0,0,0.8,1.1,2.3,1.3
		c0.7,0.1,1.5,0.1,2.4-0.3c0.1-0.1,0.2-0.2,0.2-0.4C431,149.5,430.8,149.4,430.7,149.5z"/>
	<path class="st55" d="M412.9,138.3c-0.2-0.1-0.3,0-0.4,0.2c-0.1,0.2,0,0.3,0.2,0.4c0.1,0,2.9,1,2.1,3.4c-0.2,0.7-0.6,1.2-1,1.6
		c-0.1,0.1-0.1,0.3,0,0.4c0.1,0.1,0.1,0.1,0.2,0.1c0.1,0,0.2,0,0.2-0.1c0.5-0.4,0.9-1,1.2-1.8C416.2,140.1,414.1,138.7,412.9,138.3z
		"/>
	<path class="st55" d="M412.5,140.9c-0.2,0.1-0.2,0.2-0.2,0.4c0.1,0.1,0.2,0.2,0.4,0.2c0.2-0.1,1.5-0.5,2.1,1c0,0.1,0.1,0.2,0.2,0.2
		c0.1,0,0.1,0,0.2,0c0.2-0.1,0.2-0.2,0.2-0.4C414.7,140.5,413.2,140.6,412.5,140.9z"/>
	<path class="st51" d="M439.6,129.1c0,0,4.9-1.1,4.8-6.5c0,0-4,4.7-10,0.6c-6-4.1-21.4-5.9-21.4,12.9c0,0,3.5-1.6,5.4-9.1
		c0.1-0.3,0.3-0.2,0.3-0.5c0,0,19.5,18.7,27.4,0.4c0-0.1,0-0.1,0.1-0.1C446.1,126.7,444.3,129.3,439.6,129.1z"/>
	<path class="st52" d="M435.2,132.2c-8.5-0.3-17.2-5.5-17.2-5.5s20.1,18.3,28,0.4C445.3,128.7,443.1,132.5,435.2,132.2z"/>
	<path class="st52" d="M446.1,126.9c0,0.1-0.1,0.1-0.1,0.2C446,127,446.1,126.9,446.1,126.9z"/>
	<path class="st51" d="M418.6,128.4l-1.1,10.2c0,0,5-4.9,4.8-8.6L418.6,128.4z"/>
	<path class="st57" d="M136.3,151.5l-3.4-0.9c0,0-1.6,0.4-2.3,1.9l-1.6,4.1l8,2l0.5-4.5C137.5,154.1,137.5,151.8,136.3,151.5z"/>
	<path class="st57" d="M137,156.4C137.1,156.4,137.1,156.4,137,156.4C137,156.4,137,156.4,137,156.4z"/>
	<path class="st57" d="M138.5,154.9C138.5,154.9,138.5,154.9,138.5,154.9C138.5,155,138.5,154.9,138.5,154.9z"/>
	<path class="st57" d="M138.3,154.7C138.3,154.7,138.3,154.7,138.3,154.7C138.4,154.8,138.4,154.7,138.3,154.7z"/>
	<path class="st57" d="M137.6,154.3C137.6,154.3,137.5,154.3,137.6,154.3C137.6,154.3,137.6,154.3,137.6,154.3z"/>
	<path class="st57" d="M137.9,154.4C137.9,154.4,137.9,154.4,137.9,154.4C137.9,154.4,137.8,154.4,137.9,154.4z"/>
	<path class="st57" d="M137,153.4c-0.3,0.1-0.4,0.4-0.3,0.6c0.1,0.3,0.4,0.4,0.6,0.3c0,0,0.1,0,0.1,0c0,0-0.1,0,0,0c0,0,0,0,0,0
		c0.1,0,0.1,0,0.2,0c0,0,0.1,0,0.1,0c0,0,0,0,0,0c0.1,0,0,0,0,0c0,0,0,0,0,0c0,0,0,0,0.1,0c0.1,0,0.1,0,0.2,0c0,0,0,0,0.1,0
		c-0.1,0,0,0,0,0c0,0,0,0,0,0c0.1,0.1,0.2,0.1,0.2,0.1c0,0,0,0,0,0s0,0,0,0c0,0,0,0,0,0c0,0,0,0,0,0l0,0c0,0,0.1,0.1,0.1,0.1
		c0,0,0,0,0.1,0.1c0,0,0,0,0,0c0,0,0.1,0.1,0.1,0.1c0,0.1,0.1,0.1,0.1,0.1c0,0,0,0,0,0c0,0,0,0.1,0,0c0,0,0,0,0,0
		c0,0.1,0.1,0.2,0.1,0.2c0,0,0,0,0,0c0,0,0,0,0,0c0,0,0,0.1,0,0.1c0,0,0,0.1,0,0.1c0,0,0,0.1,0,0.1c0,0,0-0.1,0,0c0,0,0,0,0,0v0
		c0,0,0,0.1,0,0.1c0,0.1,0,0.1,0,0.1c0,0,0,0.1,0,0.1c0,0,0,0,0,0c0,0,0,0,0,0c0,0,0,0.1,0,0.1c0,0-0.1,0.1-0.1,0.1c0,0,0,0,0,0.1
		c0,0,0,0,0,0c0,0,0,0,0,0c0,0-0.1,0.1-0.1,0.1c0,0-0.1,0.1-0.1,0.1c0,0,0,0,0,0l0,0c0,0,0,0-0.1,0c0,0-0.1,0.1-0.1,0.1
		c0,0,0,0-0.1,0c0,0,0,0,0,0c0.1,0,0,0,0,0c0,0,0,0,0,0c-0.1,0-0.2,0.1-0.2,0.1c0,0,0,0-0.1,0c0.1,0,0,0,0,0h0c0,0-0.1,0-0.1,0
		c-0.1,0-0.1,0-0.1,0s-0.1,0,0,0c-0.1,0-0.2,0-0.3-0.1l0,0c0.1,0,0,0,0,0c0,0,0,0,0,0c0,0-0.1,0-0.1-0.1c-0.2-0.1-0.5,0-0.7,0.2
		c-0.1,0.2,0,0.5,0.2,0.7c0.5,0.3,1.1,0.4,1.7,0.2c0.5-0.2,0.9-0.5,1.2-1c0.2-0.5,0.3-1,0.2-1.6C139.2,153.7,138,153.1,137,153.4z"
		/>
	<path class="st57" d="M137.9,156.4C137.9,156.4,137.9,156.4,137.9,156.4C137.9,156.4,138,156.4,137.9,156.4z"/>
	<path class="st57" d="M137.6,156.5L137.6,156.5C137.6,156.5,137.7,156.5,137.6,156.5z"/>
	<path class="st57" d="M138.2,156.3L138.2,156.3C138.2,156.3,138.2,156.2,138.2,156.3z"/>
	<path class="st57" d="M138.6,155.5C138.6,155.5,138.6,155.5,138.6,155.5C138.6,155.5,138.6,155.5,138.6,155.5z"/>
	<path class="st57" d="M138.3,156.1C138.3,156.1,138.3,156.1,138.3,156.1C138.3,156.1,138.4,156.1,138.3,156.1z"/>
	<path class="st57" d="M138.5,155.8C138.5,155.8,138.5,155.8,138.5,155.8C138.5,155.9,138.5,155.9,138.5,155.8z"/>
	<path class="st57" d="M137.5,147l-3.4-0.9c0,0-1.6,0.4-2.3,1.9l-1.6,4.1l8,2l0.5-4.5C138.6,149.6,138.7,147.3,137.5,147z"/>
	<path class="st57" d="M139.5,150.3C139.5,150.2,139.5,150.2,139.5,150.3C139.5,150.3,139.5,150.3,139.5,150.3z"/>
	<path class="st57" d="M139.6,150.5C139.6,150.5,139.6,150.5,139.6,150.5C139.6,150.5,139.6,150.5,139.6,150.5z"/>
	<path class="st57" d="M139,149.9C139,149.9,139,149.9,139,149.9C139,149.9,139,149.9,139,149.9z"/>
	<path class="st57" d="M139.6,151.4C139.6,151.3,139.6,151.3,139.6,151.4C139.6,151.4,139.6,151.4,139.6,151.4z"/>
	<path class="st57" d="M138.2,151.9C138.2,152,138.2,151.9,138.2,151.9C138.2,151.9,138.1,151.9,138.2,151.9z"/>
	<path class="st57" d="M139.1,151.9C139.1,151.9,139.1,151.9,139.1,151.9C139.1,151.9,139.1,151.9,139.1,151.9z"/>
	<path class="st57" d="M138.1,148.9c-0.3,0.1-0.4,0.4-0.3,0.6c0.1,0.3,0.4,0.4,0.6,0.3c0,0,0.1,0,0.1,0c0,0-0.1,0,0,0c0,0,0,0,0,0
		c0.1,0,0.1,0,0.2,0c0,0,0.1,0,0.1,0c0,0,0,0,0,0c0.1,0,0,0,0,0c0,0,0,0,0,0c0,0,0,0,0.1,0c0.1,0,0.1,0,0.2,0c0,0,0,0,0.1,0
		c-0.1,0,0,0,0,0c0,0,0,0,0,0c0.1,0.1,0.2,0.1,0.2,0.1c0,0,0,0,0,0s0,0,0,0c0,0,0,0,0,0c0,0,0,0,0,0l0,0c0,0,0.1,0.1,0.1,0.1
		c0,0,0,0,0.1,0.1c0,0,0,0,0,0c0,0,0.1,0.1,0.1,0.1c0,0.1,0.1,0.1,0.1,0.1c0,0,0,0,0,0c0,0,0,0.1,0,0c0,0,0,0,0,0
		c0,0.1,0.1,0.2,0.1,0.2c0,0,0,0,0,0c0,0,0,0,0,0c0,0,0,0.1,0,0.1c0,0,0,0.1,0,0.1c0,0,0,0.1,0,0.1c0,0,0-0.1,0,0c0,0,0,0,0,0v0
		c0,0,0,0.1,0,0.1c0,0.1,0,0.1,0,0.1c0,0,0,0.1,0,0.1c0,0,0,0,0,0s0,0,0,0c0,0,0,0.1,0,0.1c0,0-0.1,0.1-0.1,0.1c0,0,0,0,0,0.1
		c0,0,0,0,0,0c0,0,0,0,0,0c0,0-0.1,0.1-0.1,0.1c0,0-0.1,0.1-0.1,0.1c0,0,0,0,0,0l0,0c0,0,0,0-0.1,0c0,0-0.1,0.1-0.1,0.1
		c0,0,0,0-0.1,0c0,0,0,0,0,0c0.1,0,0,0,0,0c0,0,0,0,0,0c-0.1,0-0.2,0.1-0.2,0.1c0,0,0,0-0.1,0c0.1,0,0,0,0,0h0c0,0-0.1,0-0.1,0
		c-0.1,0-0.1,0-0.1,0c-0.1,0-0.1,0,0,0c-0.1,0-0.2,0-0.3-0.1l0,0c0.1,0,0,0,0,0c0,0,0,0,0,0c0,0-0.1,0-0.1-0.1
		c-0.2-0.1-0.5,0-0.7,0.2c-0.1,0.2,0,0.5,0.2,0.7c0.5,0.3,1.1,0.4,1.7,0.2c0.5-0.2,0.9-0.5,1.2-1c0.2-0.5,0.3-1,0.2-1.6
		C140.3,149.3,139.2,148.7,138.1,148.9z"/>
	<path class="st57" d="M139.7,151C139.7,151,139.7,151,139.7,151C139.7,151.1,139.7,151.1,139.7,151z"/>
	<path class="st57" d="M139.5,151.6C139.5,151.6,139.5,151.6,139.5,151.6C139.5,151.6,139.5,151.6,139.5,151.6z"/>
	<path class="st57" d="M139.3,151.8L139.3,151.8C139.3,151.8,139.3,151.8,139.3,151.8z"/>
	<path class="st57" d="M125.8,163.6c-0.7-0.2-1.5,0.3-1.7,1c-0.2,0.7,0.3,1.5,1,1.7c0.7,0.2,1.5-0.3,1.7-1
		C127,164.5,126.5,163.8,125.8,163.6z"/>
	<path class="st57" d="M124.6,149.2C124.6,149.2,124.6,149.2,124.6,149.2C124.7,149.3,124.6,149.2,124.6,149.2z"/>
	<path class="st57" d="M124.4,148.9C124.4,148.9,124.4,148.9,124.4,148.9C124.4,148.9,124.4,148.9,124.4,148.9z"/>
	<path class="st57" d="M124.7,149.7C124.7,149.7,124.7,149.7,124.7,149.7C124.7,149.7,124.7,149.7,124.7,149.7z"/>
	<path class="st57" d="M123.2,148.3C123.2,148.3,123.2,148.3,123.2,148.3C123.3,148.3,123.3,148.3,123.2,148.3z"/>
	<path class="st57" d="M123.7,148.4C123.7,148.4,123.7,148.4,123.7,148.4C123.7,148.4,123.6,148.4,123.7,148.4z"/>
	<path class="st57" d="M122.4,151.5C122.5,151.6,122.4,151.5,122.4,151.5C122.4,151.5,122.4,151.5,122.4,151.5z"/>
	<path class="st57" d="M123.8,151.5C123.8,151.5,123.8,151.5,123.8,151.5C123.8,151.5,123.9,151.4,123.8,151.5z"/>
	<path class="st57" d="M122.3,146.8c-0.4,0.1-0.6,0.6-0.5,1c0.1,0.4,0.5,0.6,0.9,0.5c0,0,0.1,0,0.1,0c0,0-0.1,0,0,0c0,0,0,0,0,0h0
		c0.1,0,0.2,0,0.2,0c0,0,0.1,0,0.1,0c0,0,0,0,0,0c0,0,0,0,0,0c0.1,0,0,0,0,0c0,0,0.1,0,0.1,0c0,0,0.1,0,0.1,0c0.1,0,0.2,0,0.2,0.1
		c0,0,0.1,0,0.1,0c-0.1,0,0,0,0,0c0,0,0,0,0,0c0.1,0.1,0.3,0.1,0.4,0.2c0,0,0,0,0,0c0,0,0,0,0,0c0,0,0,0,0,0c0,0,0,0,0,0
		c0,0,0,0,0,0c0.1,0,0.1,0.1,0.1,0.1c0,0,0.1,0.1,0.1,0.1c0,0,0,0,0,0c0,0,0,0,0,0c0,0,0.1,0.1,0.1,0.1c0.1,0.1,0.1,0.2,0.1,0.2
		c0,0,0,0,0,0c0,0,0.1,0.1,0,0c0,0,0,0,0,0.1c0,0.1,0.1,0.2,0.1,0.4c0,0,0,0,0,0.1c0,0,0,0,0-0.1c0,0,0,0.1,0,0.1c0,0.1,0,0.1,0,0.2
		c0,0,0,0.1,0,0.1c0,0,0-0.1,0,0c0,0,0,0,0,0v0c0,0,0,0.1,0,0.1c0,0.1,0,0.1-0.1,0.2c0,0,0,0.1,0,0.1c0,0,0,0,0,0c0,0,0,0,0,0
		c0,0,0,0.1-0.1,0.1c0,0.1-0.1,0.1-0.1,0.2c0,0,0,0.1-0.1,0.1c0.1-0.1,0,0,0,0c0,0,0,0,0,0c-0.1,0.1-0.1,0.1-0.1,0.1
		c0,0-0.1,0.1-0.1,0.1c0,0,0,0,0,0c0,0,0,0,0,0c0,0-0.1,0.1-0.1,0.1c-0.1,0-0.1,0.1-0.2,0.1c0,0-0.1,0-0.1,0h0c0.1,0,0,0,0,0h0
		c-0.1,0.1-0.2,0.1-0.4,0.1c0,0-0.1,0-0.1,0c0.1,0,0,0,0,0c0,0,0,0,0,0c-0.1,0-0.1,0-0.2,0c-0.1,0-0.1,0-0.2,0c-0.1,0-0.2,0-0.1,0
		c-0.1,0-0.3-0.1-0.4-0.1c0,0,0,0-0.1,0c0,0,0.1,0,0,0c-0.1,0,0,0,0,0c0,0,0,0,0,0c-0.1,0-0.1-0.1-0.2-0.1c-0.4-0.2-0.8-0.1-1,0.3
		c-0.2,0.4-0.1,0.9,0.3,1c0.8,0.4,1.8,0.5,2.6,0.2c0.8-0.3,1.5-0.8,1.8-1.5c0.4-0.7,0.5-1.6,0.2-2.4
		C125.7,147.4,123.9,146.5,122.3,146.8z"/>
	<path class="st57" d="M124.6,150.6C124.6,150.6,124.6,150.6,124.6,150.6C124.6,150.6,124.6,150.7,124.6,150.6z"/>
	<path class="st57" d="M124.4,151C124.4,151,124.4,151,124.4,151C124.4,151,124.5,150.9,124.4,151z"/>
	<path class="st57" d="M124.1,151.3C124.1,151.3,124.1,151.3,124.1,151.3C124.1,151.3,124.2,151.3,124.1,151.3z"/>
	<path class="st38" d="M138.1,154.2l-8-2C132.8,152.8,135.5,153.5,138.1,154.2z"/>
	<path class="st49" d="M134.2,153c-2.2-0.5-4-0.9-4-0.8c0,0.1,1.7,0.6,3.9,1.2c2.2,0.5,4,0.9,4,0.8
		C138.2,154.1,136.4,153.5,134.2,153z"/>
	<path class="st32" d="M125,131.3c-5.2,10-3.2,22.6-8.3,28.3c-5.2,5.7,26.3,9.7,26.3,9.7l5.8-15l-6.1-30.9
		C142.6,123.4,130.1,121.3,125,131.3z"/>
	<path d="M126.2,147.5c0,0-10.8,13.7-8.9,18.1c1.9,4.4,22.6,15.4,26.5-5.8C148,137.6,126.2,147.5,126.2,147.5z"/>
	<path class="st32" d="M150.1,127.7c-2.4-2.7-6-4.5-9.6-4.5c-2.5,0-5,0.9-6.9,2.5c-0.9,0.7-1.6,1.6-2.2,2.6c0,0,0,0,0,0
		c-0.3,0-3.3,0.8-5.5,9.3c-3.6,14.5,4.3,14.5,4.3,14.5l2.5-1l7.2,3l2.2-0.9c2.3-1,9.9-1.4,11.8-3c0.4-0.3,0.7-0.6,1.1-1
		c0.7-0.6,1.3-1.2,1.9-1.8c2.2-2.3,3.5-5.8,2.7-8.9C158,132.4,152.5,130.5,150.1,127.7z"/>
	<path class="st58" d="M149.7,137.6c-1.2-1-2.9,1.1-2.9,1.1s-6.8,5.8-7.6,11.3c-0.3,1.8,0,3.3,0.6,4.2l2.2-0.9c2.3-1,4.4-2.3,6.2-4
		C148.6,149.1,153,140.2,149.7,137.6z"/>
	<path d="M146.5,134.3l-4.5,17c0,0,8.3,4.9,13.1-3.8C159.4,139.6,154.6,132.7,146.5,134.3z"/>
	<path class="st15" d="M146.7,132.4l-11.5-1.6l-3.3,22.9c-0.1,1,0.3,2,1.2,2.6l8.8,5.3c0.7,0.4,1.7,0.5,2.5,0.1l5.6-2.9
		c0.7-0.4,1.3-1.1,1.4-1.9l0.1-0.8l1.3-9.2l0.8-5.3C154.2,137.1,151.1,133,146.7,132.4z"/>
	<path class="st54" d="M149.8,151.3c-0.4,1.5,0.4,2.9,1.8,3.6l0.8-6C151.2,149.2,150.1,150.1,149.8,151.3z"/>
	<path class="st55" d="M148.4,142.5c0-0.2-0.2-0.3-0.4-0.3c-0.2,0-0.3,0.2-0.3,0.4l0.9,8.4l-3.3,0.6c-0.2,0-0.3,0.2-0.3,0.4
		c0,0.2,0.2,0.3,0.3,0.3c0,0,0,0,0.1,0l3.6-0.7c0.2,0,0.3-0.2,0.3-0.4L148.4,142.5z"/>
	<path class="st32" d="M146.8,130.9c0,0.1,0.5,4.7-2.5,8c-2.3,2.5-6.1,3.6-11.3,3.3l-0.2,3c0.5,0,1.1,0,1.6,0
		c5.4,0,9.5-1.5,12.2-4.4c4-4.3,3.3-10.2,3.3-10.4L146.8,130.9z"/>
	<path class="st32" d="M132.2,128l-1.3,15.6c0,0,14.7,0.3,17.9-10.7l-0.3-3.1L132.2,128z"/>
	<path class="st15" d="M131.5,142.9c-2.6-0.4-4.9,1.4-5.3,4c-0.4,2.6,1.4,5,4,5.3c2.6,0.4,4.9-1.4,5.3-4
		C135.9,145.6,134.1,143.2,131.5,142.9z"/>
	<path class="st56" d="M150.7,140.3c-0.3,0.9,2.9,2,3.4,1.1C154.9,140.1,151.3,138.9,150.7,140.3z"/>
	<path class="st56" d="M139.5,139.5c0.3,0.9,3.6,0.6,3.5-0.4C142.9,137.6,139,137.9,139.5,139.5z"/>
	<path class="st54" d="M139.1,146.5c-1.7-0.4-3.3,0.6-3.7,2.3c-0.4,1.7,0.6,3.3,2.3,3.7c1.7,0.4,3.3-0.6,3.7-2.3
		C141.8,148.6,140.8,146.9,139.1,146.5z"/>
	<path class="st56" d="M142.6,144.2c-0.5-0.1-1,0.6-1.2,1.5c-0.1,0.9,0.2,1.6,0.7,1.7c0.5,0.1,1-0.6,1.2-1.5
		C143.5,145.1,143.2,144.3,142.6,144.2z"/>
	<path class="st56" d="M151.2,145.5c-0.5-0.1-1,0.6-1.2,1.5c-0.1,0.9,0.2,1.6,0.7,1.7c0.5,0.1,1-0.6,1.2-1.5
		C152,146.3,151.7,145.5,151.2,145.5z"/>
	<path class="st17" d="M130.1,144.7c0.3,0.8,0.5,1.6,0.5,2.4c0,0.8-0.3,1.6-0.6,2.4l0.2,0.2c0.7-0.6,1.1-1.5,1.1-2.5
		c0-1-0.4-1.9-1-2.6L130.1,144.7z"/>
	<path class="st59" d="M147.4,154.4c-0.1-0.1-0.2-0.1-0.3-0.1c-0.2,0-0.4,0-0.6,0c-1.1,0.1-2.3-0.1-3.3-0.4
		c-0.4-0.1-0.8-0.2-1.1-0.2c-0.3,0-0.6,0.1-0.8,0.3c-0.4,0.5-0.3,1.2,0,1.7c0.1,0.2,0.2,0.3,0.3,0.4c0.7,0.9,1.9,1.5,3.1,1.5
		c0.5,0,1-0.1,1.5-0.4c0.7-0.4,1.3-1,1.6-1.7C147.8,155.2,147.8,154.6,147.4,154.4z"/>
	<path class="st42" d="M146.5,154.3c-1.1,0.1-2.3-0.1-3.3-0.4c-0.4-0.1-0.8-0.2-1.1-0.2c0,0.3,0,0.6,0.2,0.8
		c0.2,0.2,0.5,0.4,0.7,0.5c1,0.4,2.1,0.5,3.2,0.4c0.2,0,0.5-0.1,0.7-0.3c0.2-0.2,0.2-0.4,0.2-0.7
		C146.9,154.3,146.7,154.3,146.5,154.3z"/>
	<path class="st60" d="M144.5,156.1c-1-0.3-2-0.3-2.9,0.1c0.7,0.9,1.9,1.5,3.1,1.5c0.5,0,1-0.1,1.5-0.4
		C145.8,156.7,145.1,156.2,144.5,156.1z"/>
	<path class="st61" d="M142,126.8c0,0-10.5,0.8-11.9,8.9c0,0,4-0.8,6.6-2.6c0,0-3.6,5.4-9.6,6.2c0,0,8.8,1.4,14-8.6l-4.9,0.3
		C136.2,131.1,138.4,128.1,142,126.8z"/>
	<path class="st15" d="M125.4,159.4c0.2,0.6,0.4,2.1,1.5,3.6c0.5,0.6,1,1.3,1.8,1.9c0.1,0.1,0.1,0.1,0.2,0.2
		c0.1,0.1,0.3,0.3,0.5,0.4c0.2,0.2,0.5,0.4,0.8,0.6c0.2,0.2,0.4,0.3,0.6,0.5c0.1,0.1,0.2,0.1,0.3,0.2c0.1,0.1,0.2,0.1,0.3,0.2
		c0.1,0.1,0.2,0.1,0.3,0.2c1.2,0.8,2.5,1.5,4.1,2.2l0.4,1.7l1.6-1.7c0,0,1-0.7,1.3-2.3c0-0.2,0-0.3,0-0.5c-0.1-0.2,0.5-0.5,0.5-0.8
		c0.1-1.5,0.6-4.1,1.1-5.1c0.1-0.2,0.1-0.4,0.2-0.4l-9.1-9.3C131,152.5,127.4,156.8,125.4,159.4z"/>
	<path class="st42" d="M125.4,159.2c-2.9,12.5,9.4,15.4,9.4,15.4l3-5.2C130.2,168.3,125.4,159.2,125.4,159.2z"/>
	<path class="st42" d="M140.4,160.7c-1.7,7.7-2.6,8.7-2.7,8.7l3.9,5c0,0,4.3-1.8,1.9-10.2C143.2,163.2,140.4,160.7,140.4,160.7z"/>
	<path class="st17" d="M138.9,165.9c0.1-1.5,1.2-4.1,1.6-5.1l-8.6-5.1C131.9,155.6,133.8,162.9,138.9,165.9z"/>
	<path class="st15" d="M418.2,164.7c5.8,0.4,6.5-4.4,6.5-4.4l-13-2.6C411.7,157.8,412.3,164.3,418.2,164.7z"/>
	<path class="st32" d="M553.3,195.6c-5.2,0.8,3.8,19.2,12.1,13.8C565.4,209.3,562.7,194.1,553.3,195.6z"/>
	<path class="st32" d="M537.1,214.2c-0.7-0.9-2.9-2.6-3.6-2.9c-0.7-0.3-4,0.1-4,0.1s1.7,8.2,7.1,9.5c0,0,1.2-0.1,1.6-0.5
		c0.4-0.3,2.8-1.7,2.4-2.3C540.3,217.6,537.9,215,537.1,214.2z"/>
	<path class="st48" d="M553.7,202.2l-21,11l10.5,20c0.5,0.9,1.3,1.5,2.3,1.6l7.5,1c1,0.1,2.1-0.3,2.8-1.1l7.9-9.5
		c0.8-0.9,0.9-2.3,0.4-3.4L553.7,202.2z"/>
	<path class="st62" d="M538,223.3l4.1,7.9c2.2-1.1,3-3.8,1.9-6C542.9,223,540.2,222.2,538,223.3z"/>
	<path class="st55" d="M548,222.7l-2.7,1.4l-3.5-8.6c-0.1-0.2-0.3-0.3-0.4-0.2c-0.2,0.1-0.3,0.3-0.2,0.4l3.6,9
		c0,0.1,0.1,0.2,0.2,0.2c0,0,0.1,0,0.1,0c0.1,0,0.1,0,0.2,0l3-1.6c0.2-0.1,0.2-0.3,0.1-0.5C548.3,222.7,548.1,222.6,548,222.7z"/>
	<path class="st48" d="M561.7,208.6c-2.8,1.5-3.8,4.9-2.4,7.6c1.5,2.7,4.9,3.8,7.6,2.4c2.8-1.5,3.8-4.9,2.4-7.6
		C567.9,208.2,564.4,207.1,561.7,208.6z"/>
	<path class="st63" d="M544.5,212c0.6,1.1,4.8-0.1,4.5-1.3C548.4,208.9,543.5,210.2,544.5,212z"/>
	<path class="st63" d="M534.8,218.1c1,0.6,3.8-2.2,3-3C536.5,213.8,533.2,217.1,534.8,218.1z"/>
	<path class="st62" d="M553.3,214.9c-2.2,1.2-3,3.8-1.9,6c1.2,2.2,3.8,3,6,1.9c2.2-1.2,3-3.8,1.9-6
		C558.2,214.6,555.5,213.8,553.3,214.9z"/>
	<path class="st56" d="M547.2,214.4c-0.5,0.2-0.5,1.1,0,1.9c0.4,0.8,1.2,1.2,1.6,1c0.5-0.2,0.5-1.1,0-1.9
		C548.4,214.6,547.7,214.2,547.2,214.4z"/>
	<path class="st56" d="M538.9,218.8c-0.5,0.2-0.5,1.1,0,1.9c0.4,0.8,1.2,1.2,1.6,1c0.5-0.2,0.5-1.1,0-1.9
		C540.1,218.9,539.4,218.5,538.9,218.8z"/>
	<path class="st55" d="M552.6,226c-0.2-0.1-0.4,0-0.4,0.2c0,0-1,2.6-4.1,2.3c-0.2,0-0.4,0.1-0.4,0.3c0,0.2,0.1,0.4,0.3,0.4
		c0.2,0,0.4,0,0.6,0c3.2,0,4.2-2.7,4.2-2.8C552.9,226.2,552.8,226,552.6,226z"/>
	<path class="st55" d="M564.8,216.5c-0.6-0.3-1.1-0.7-1.6-1.4c-1.7-2.4,1.1-4.4,1.2-4.5c0.2-0.1,0.2-0.3,0.1-0.5
		c-0.1-0.2-0.3-0.2-0.5-0.1c-1.2,0.9-3,3.1-1.4,5.4c0.6,0.8,1.2,1.3,1.9,1.7c0.1,0,0.1,0,0.1,0c0.1,0,0.2-0.1,0.3-0.2
		C565,216.8,564.9,216.6,564.8,216.5z"/>
	<path class="st55" d="M565.3,212.8c-0.9-0.1-2.6,0.3-2.8,2.4c0,0.2,0.1,0.4,0.3,0.4c0,0,0,0,0,0c0.2,0,0.3-0.1,0.3-0.3
		c0.2-1.9,1.8-1.8,2-1.8c0.2,0,0.4-0.1,0.4-0.3C565.6,213,565.5,212.8,565.3,212.8z"/>
	<path class="st32" d="M550.7,193.9c-1.6-1.7-6.4-1.7-8.4-0.8c-2,0.8-3.7,2-5.2,3.5c-1,1-2,2-2.9,3.2c-4,5-8.4,7.1-9.6,5.9
		c0.8,2.5,2.5,2.9,4,2.3c-2.3,1.1-3.7,0.1-3.7,0.1s6.6,8.6,10.5,6.4c3.9-2.2,8-7.9,11.1-7.5c3.1,0.4,6.5-1.4,8.4-3.7
		c-0.4-1-1.5-5.3-1.9-6.2C552,195.7,551.7,195,550.7,193.9z"/>
	<path class="st32" d="M554.6,189.7c-1.7-0.1-2.6,4.4-2.6,4.4s0.6-6.9-1.1-6c-1.8,0.9,0.2,8.6,0.4,8.5
		C554,196.5,556.3,189.8,554.6,189.7z"/>
	<path class="st32" d="M558.4,206.4c-0.6-0.8-3.7-4.4-3.7-4.4l-6,1.2l3.7,2.1c0,0,3.8,8.7,7.2,8.8c0,0-1.6-2.4,0.7-4.4
		C562.6,207.6,559.1,207.1,558.4,206.4z"/>
	<path class="st61" d="M539.6,206.8c-0.4-1.4-1.3-3.3-2.5-3.4c-1.2-0.1-4-2.4-4-2.4s-1.1,1.2-2,1.9c0,0,2.5,2.1,4.5,2.3
		c2,0.1,0.9,2.4,2.1,3.7c1.2,1.3,2.6,1.5,2.6,1.5l2.2-1.8C542.5,208.5,540,208.2,539.6,206.8z"/>
	<path class="st61" d="M541.4,205.4c-0.4-0.8-1.4-3.5-2.9-4.8c-1.5-1.3-3.4-2.1-3.4-2.1l-0.6,0.7c0,0,3.6,1.1,4.7,3.2
		c1.2,2.1,1.1,2.2,1.1,2.2s0.3,1.1,1.1,1.8c0.8,0.7,2.1,1.2,2.1,1.2l0.7-0.4C544.4,207.2,541.8,206.2,541.4,205.4z"/>
	<path class="st32" d="M552.2,196.2c0,0,0.2,5.8,0.1,6.6c-0.1,0.8,4.3,3.3,5,4.1c0.7,0.8,3.7,1.6,3.7,1.6
		C561,195.5,552.2,196.2,552.2,196.2z"/>
	<path class="st15" d="M480.2,213.1l-4.9-0.5l2.4,10.8c0,0,10.8,2.3,15.6,0.2c4.7-2.1,3-6.9,3-6.9L480.2,213.1z"/>
	<path class="st17" d="M383.9,208.8l0.1,7.2c0.5-3,13.9-8.6,13.9-8.6C396,207.1,383.9,208.8,383.9,208.8z"/>
	<path class="st17" d="M442.5,210.5c0.5,1.2,4.5,3.9,4.5,3.9l9-16.5C451.1,204.1,442.5,210.5,442.5,210.5z"/>
</g>
</svg>
