<?xml version="1.0" encoding="utf-8"?>
<!-- Generator: Adobe Illustrator 27.0.0, SVG Export Plug-In . SVG Version: 6.00 Build 0)  -->
<svg version="1.1" id="Layer_1" xmlns="http://www.w3.org/2000/svg" xmlns:xlink="http://www.w3.org/1999/xlink" x="0px" y="0px"
	 viewBox="0 0 526.1 345" style="enable-background:new 0 0 526.1 345;" xml:space="preserve">
<style type="text/css">
	.st0{fill:#EEF5FF;}
	.st1{opacity:0.63;}
	.st2{fill:#A9CBF7;}
	.st3{fill:#CFE5FF;}
	.st4{fill:#092C24;}
	.st5{fill:#245558;}
	.st6{fill:#3D8E94;}
	.st7{fill:#317277;}
	.st8{fill:#297EEC;}
	.st9{fill:#4095F2;}
	.st10{fill:#FFFFFF;}
	.st11{fill:#9BB8BC;}
	.st12{fill:#CBDBEF;}
	.st13{fill:#F89D13;}
	.st14{fill:#D68A2F;}
	.st15{fill:#184785;}
	.st16{fill:#124072;}
</style>
<g>
	<path class="st0" d="M72.1,334h365.6c37.1-21.5,58.4-64.2,51.4-102.2c-7-38-41.3-71.3-84.3-81.8c0.3-24.2-3.8-49.3-15.7-71.2
		c-11.8-22-30.9-41.3-55.5-53.1c-24.6-11.8-54.6-15.5-81.4-8.2c-26.8,7.3-49.5,26.1-56.9,49.5c-27.8-6.1-58.4,1.4-79.2,18.5
		S85.5,129,91.1,153.2c-20.2,1.7-38.6,8.6-53.1,20.9c-14.5,12.2-24,28.8-26.4,46.2c-2.9,21.2,4.5,42.7,16.4,61.5
		C39.9,300.6,56,317.7,72.1,334z"/>
	<g class="st1">
		<g>
			<g>
				<rect x="244.7" y="137.5" class="st2" width="1.3" height="2.5"/>
			</g>
			<g>
				<path class="st2" d="M245.9,132.2h-1.3v-5.4h1.3V132.2z M245.9,121.4h-1.3v-5.4h1.3V121.4z M245.9,110.7h-1.3v-5.4h1.3V110.7z
					 M245.9,100h-1.3v-5.4h1.3V100z M245.9,89.2h-1.3v-5.4h1.3V89.2z M245.9,78.5h-1.3v-5.4h1.3V78.5z"/>
			</g>
			<g>
				<polygon class="st2" points="245.9,67.8 244.7,67.8 244.7,65.9 242.8,65.9 242.8,64.6 245.9,64.6 				"/>
			</g>
			<g>
				<path class="st2" d="M238.1,65.9h-4.7v-1.3h4.7V65.9z M228.7,65.9H224v-1.3h4.7V65.9z M219.3,65.9h-4.7v-1.3h4.7V65.9z
					 M210,65.9h-4.7v-1.3h4.7V65.9z M200.6,65.9h-4.7v-1.3h4.7V65.9z M191.2,65.9h-4.7v-1.3h4.7V65.9z"/>
			</g>
			<g>
				<polygon class="st2" points="181.9,65.9 178.7,65.9 178.7,62.7 180,62.7 180,64.6 181.9,64.6 				"/>
			</g>
			<g>
				<path class="st2" d="M180,58h-1.3v-4.7h1.3V58z M180,48.5h-1.3v-4.7h1.3V48.5z M180,39.1h-1.3v-4.7h1.3V39.1z"/>
			</g>
			<g>
				<polygon class="st2" points="180,29.7 178.7,29.7 178.7,27.8 176.8,27.8 176.8,26.5 180,26.5 				"/>
			</g>
			<g>
				<path class="st2" d="M171.5,27.8h-5.2v-1.3h5.2V27.8z M161.1,27.8h-5.2v-1.3h5.2V27.8z M150.6,27.8h-5.2v-1.3h5.2V27.8z
					 M140.1,27.8h-5.2v-1.3h5.2V27.8z M129.6,27.8h-5.2v-1.3h5.2V27.8z M119.1,27.8h-5.2v-1.3h5.2V27.8z M108.6,27.8h-5.2v-1.3h5.2
					V27.8z M98.1,27.8h-5.2v-1.3h5.2V27.8z"/>
			</g>
			<g>
				<polygon class="st2" points="85.7,29.7 84.5,29.7 84.5,26.5 87.6,26.5 87.6,27.8 85.7,27.8 				"/>
			</g>
			<g>
				<path class="st2" d="M85.7,76.4h-1.3v-4.7h1.3V76.4z M85.7,67h-1.3v-4.7h1.3V67z M85.7,57.7h-1.3V53h1.3V57.7z M85.7,48.4h-1.3
					v-4.7h1.3V48.4z M85.7,39h-1.3v-4.7h1.3V39z"/>
			</g>
			<g>
				<polygon class="st2" points="87.6,84.2 84.5,84.2 84.5,81.1 85.7,81.1 85.7,83 87.6,83 				"/>
			</g>
			<g>
				<rect x="90.5" y="83" class="st2" width="2.8" height="1.3"/>
			</g>
			<g>
				<polygon class="st2" points="99.3,86.1 98.1,86.1 98.1,84.2 96.2,84.2 96.2,83 99.3,83 				"/>
			</g>
			<g>
				<polygon class="st2" points="101.2,158.3 98.1,158.3 98.1,155.2 99.3,155.2 99.3,157.1 101.2,157.1 				"/>
			</g>
			<g>
				<path class="st2" d="M133.6,158.3h-5.4v-1.3h5.4V158.3z M122.8,158.3h-5.4v-1.3h5.4V158.3z M112,158.3h-5.4v-1.3h5.4V158.3z"/>
			</g>
			<g>
				<rect x="139" y="157.1" class="st2" width="2.5" height="1.3"/>
			</g>
		</g>
		<g>
			<g>
				<rect x="284" y="43.4" class="st2" width="2.5" height="1.3"/>
			</g>
			<g>
				<path class="st2" d="M278.9,44.7h-5.1v-1.3h5.1V44.7z M268.7,44.7h-5.1v-1.3h5.1V44.7z M258.5,44.7h-5.1v-1.3h5.1V44.7z
					 M248.3,44.7h-5.1v-1.3h5.1V44.7z M238.1,44.7H233v-1.3h5.1V44.7z"/>
			</g>
			<g>
				<polygon class="st2" points="225.9,46.6 224.7,46.6 224.7,43.4 227.9,43.4 227.9,44.7 225.9,44.7 				"/>
			</g>
			<g>
				<path class="st2" d="M225.9,140.8h-1.3v-5.2h1.3V140.8z M225.9,130.3h-1.3v-5.2h1.3V130.3z M225.9,119.9h-1.3v-5.2h1.3V119.9z
					 M225.9,109.4h-1.3v-5.2h1.3V109.4z M225.9,98.9h-1.3v-5.2h1.3V98.9z M225.9,88.5h-1.3v-5.2h1.3V88.5z M225.9,78h-1.3v-5.2h1.3
					V78z M225.9,67.5h-1.3v-5.2h1.3V67.5z M225.9,57.1h-1.3v-5.2h1.3V57.1z"/>
			</g>
			<g>
				<rect x="224.7" y="146" class="st2" width="1.3" height="2.5"/>
			</g>
		</g>
		<g>
			<g>
				<rect x="319.2" y="114.9" class="st2" width="1.3" height="2.5"/>
			</g>
			<g>
				<path class="st2" d="M320.5,110.2h-1.3v-4.7h1.3V110.2z M320.5,100.7h-1.3V96h1.3V100.7z M320.5,91.2h-1.3v-4.7h1.3V91.2z
					 M320.5,81.8h-1.3V77h1.3V81.8z"/>
			</g>
			<g>
				<polygon class="st2" points="320.5,72.3 319.2,72.3 319.2,69.1 322.4,69.1 322.4,70.4 320.5,70.4 				"/>
			</g>
			<g>
				<rect x="325.3" y="69.1" class="st2" width="2.9" height="1.3"/>
			</g>
			<g>
				<polygon class="st2" points="334.3,70.4 331.1,70.4 331.1,69.1 333,69.1 333,67.2 334.3,67.2 				"/>
			</g>
			<g>
				<path class="st2" d="M334.3,62.3H333v-4.9h1.3V62.3z M334.3,52.6H333v-4.9h1.3V52.6z"/>
			</g>
			<g>
				<polygon class="st2" points="334.3,42.9 333,42.9 333,39.8 336.2,39.8 336.2,41 334.3,41 				"/>
			</g>
			<g>
				<path class="st2" d="M363.2,41h-4.5v-1.3h4.5V41z M354.2,41h-4.5v-1.3h4.5V41z M345.2,41h-4.5v-1.3h4.5V41z"/>
			</g>
			<g>
				<polygon class="st2" points="370.9,42.9 369.6,42.9 369.6,41 367.7,41 367.7,39.8 370.9,39.8 				"/>
			</g>
			<g>
				<path class="st2" d="M370.9,69.4h-1.3V65h1.3V69.4z M370.9,60.5h-1.3v-4.4h1.3V60.5z M370.9,51.7h-1.3v-4.4h1.3V51.7z"/>
			</g>
			<g>
				<polygon class="st2" points="372.8,76.9 369.6,76.9 369.6,73.8 370.9,73.8 370.9,75.7 372.8,75.7 				"/>
			</g>
			<g>
				<path class="st2" d="M403.1,76.9h-5.1v-1.3h5.1V76.9z M393,76.9h-5.1v-1.3h5.1V76.9z M382.9,76.9h-5.1v-1.3h5.1V76.9z"/>
			</g>
			<g>
				<polygon class="st2" points="411.3,78.8 410.1,78.8 410.1,76.9 408.2,76.9 408.2,75.7 411.3,75.7 				"/>
			</g>
			<g>
				<path class="st2" d="M411.3,176.4h-1.3v-4.9h1.3V176.4z M411.3,166.7h-1.3v-4.9h1.3V166.7z M411.3,156.9h-1.3V152h1.3V156.9z
					 M411.3,147.1h-1.3v-4.9h1.3V147.1z M411.3,137.4h-1.3v-4.9h1.3V137.4z M411.3,127.6h-1.3v-4.9h1.3V127.6z M411.3,117.9h-1.3
					V113h1.3V117.9z M411.3,108.1h-1.3v-4.9h1.3V108.1z M411.3,98.3h-1.3v-4.9h1.3V98.3z M411.3,88.6h-1.3v-4.9h1.3V88.6z"/>
			</g>
			<g>
				<polygon class="st2" points="413.2,184.5 410.1,184.5 410.1,181.3 411.3,181.3 411.3,183.2 413.2,183.2 				"/>
			</g>
			<g>
				<rect x="418.2" y="183.2" class="st2" width="5" height="1.3"/>
			</g>
			<g>
				<polygon class="st2" points="431.4,186.4 430.1,186.4 430.1,184.5 428.2,184.5 428.2,183.2 431.4,183.2 				"/>
			</g>
			<g>
				<path class="st2" d="M431.4,213.9h-1.3v-4.6h1.3V213.9z M431.4,204.7h-1.3v-4.6h1.3V204.7z M431.4,195.5h-1.3V191h1.3V195.5z"/>
			</g>
			<g>
				<polygon class="st2" points="431.4,221.6 428.2,221.6 428.2,220.4 430.1,220.4 430.1,218.5 431.4,218.5 				"/>
			</g>
			<g>
				<path class="st2" d="M423.2,221.6h-5.1v-1.3h5.1V221.6z M413.1,221.6H408v-1.3h5.1V221.6z M402.9,221.6h-5.1v-1.3h5.1V221.6z
					 M392.8,221.6h-5.1v-1.3h5.1V221.6z M382.7,221.6h-5.1v-1.3h5.1V221.6z M372.6,221.6h-5.1v-1.3h5.1V221.6z"/>
			</g>
			<g>
				<polygon class="st2" points="362.4,221.6 359.3,221.6 359.3,218.5 360.5,218.5 360.5,220.4 362.4,220.4 				"/>
			</g>
			<g>
				<path class="st2" d="M360.5,213.1h-1.3v-5.3h1.3V213.1z M360.5,202.5h-1.3v-5.3h1.3V202.5z M360.5,191.8h-1.3v-5.3h1.3V191.8z"
					/>
			</g>
			<g>
				<polygon class="st2" points="360.5,181.1 359.3,181.1 359.3,179.2 357.4,179.2 357.4,178 360.5,178 				"/>
			</g>
			<g>
				<path class="st2" d="M352.1,179.2h-5.2V178h5.2V179.2z M341.7,179.2h-5.2V178h5.2V179.2z M331.2,179.2H326V178h5.2V179.2z
					 M320.7,179.2h-5.2V178h5.2V179.2z M310.3,179.2H305V178h5.2V179.2z"/>
			</g>
			<g>
				<rect x="297.3" y="178" class="st2" width="2.5" height="1.3"/>
			</g>
		</g>
		<g>
			<g>
				<rect x="67.3" y="184.6" class="st2" width="2.5" height="1.3"/>
			</g>
			<g>
				<path class="st2" d="M51,185.8v-1.3h4.1v1.3H51z M59.1,185.8v-1.3h4.1v1.3H59.1z"/>
			</g>
			<g>
				<polygon class="st2" points="43.7,185.8 43.7,182.7 45,182.7 45,184.6 46.9,184.6 46.9,185.8 				"/>
			</g>
			<g>
				<path class="st2" d="M43.7,177.9v-4.7H45v4.7H43.7z M43.7,168.5v-4.7H45v4.7H43.7z"/>
			</g>
			<g>
				<polygon class="st2" points="41.8,157.2 41.8,155.9 45,155.9 45,159.1 43.7,159.1 43.7,157.2 				"/>
			</g>
			<g>
				<rect x="30.1" y="155.9" class="st2" width="5.8" height="1.3"/>
			</g>
			<g>
				<polygon class="st2" points="21.1,157.2 21.1,154 22.4,154 22.4,155.9 24.3,155.9 24.3,157.2 				"/>
			</g>
			<g>
				<path class="st2" d="M21.1,149.4v-4.7h1.3v4.7H21.1z M21.1,140v-4.7h1.3v4.7H21.1z M21.1,130.6v-4.7h1.3v4.7H21.1z"/>
			</g>
			<g>
				<polygon class="st2" points="21.1,121.2 21.1,118.1 24.3,118.1 24.3,119.3 22.4,119.3 22.4,121.2 				"/>
			</g>
			<g>
				<path class="st2" d="M28.8,119.3v-1.3h4.5v1.3H28.8z M37.8,119.3v-1.3h4.5v1.3H37.8z M46.9,119.3v-1.3h4.5v1.3H46.9z
					 M55.9,119.3v-1.3h4.5v1.3H55.9z"/>
			</g>
			<g>
				<polygon class="st2" points="64.9,119.3 64.9,118.1 66.8,118.1 66.8,116.2 68.1,116.2 68.1,119.3 				"/>
			</g>
			<g>
				<path class="st2" d="M66.8,112.1v-4.1h1.3v4.1H66.8z M66.8,104v-4.1h1.3v4.1H66.8z"/>
			</g>
			<g>
				<polygon class="st2" points="66.8,95.9 66.8,92.7 70,92.7 70,94 68.1,94 68.1,95.9 				"/>
			</g>
			<g>
				<rect x="74.8" y="92.7" class="st2" width="4.8" height="1.3"/>
				<rect x="84.4" y="92.7" class="st2" width="4.8" height="1.3"/>
				<rect x="103.5" y="92.7" class="st2" width="4.8" height="1.3"/>
				<rect x="94" y="92.7" class="st2" width="4.8" height="1.3"/>
			</g>
			<g>
				<rect x="111.4" y="92.7" class="st2" width="2.5" height="1.3"/>
			</g>
		</g>
	</g>
	<g>
		<g>
			<g>
				<path class="st3" d="M76.4,168.7c2.5,3.6,7.5,4.5,11.1,1.9l2.4-1.7c2.6,2.1,5.4,3.8,8.5,5c0,0,0,0,0,0l-0.4,2.5
					c-0.8,4.4,2.2,8.5,6.5,9.2c4.4,0.8,8.5-2.2,9.2-6.5l0.5-2.9c3.2-0.3,6.5-1.1,9.5-2.4l1.5,2.1c2.5,3.6,7.5,4.5,11.1,1.9
					c3.6-2.5,4.5-7.5,1.9-11.1l-1.7-2.4c2.1-2.6,3.8-5.4,5-8.5c0,0,0,0,0,0l2.5,0.4c4.4,0.8,8.5-2.2,9.2-6.5
					c0.8-4.4-2.2-8.5-6.5-9.2l-2.9-0.5c-0.3-3.2-1.1-6.5-2.4-9.5l2.1-1.5c3.6-2.5,4.5-7.5,1.9-11.1c-2.5-3.6-7.5-4.5-11.1-1.9
					l-2.4,1.7c0,0,0,0,0,0c-2.6-2.1-5.4-3.8-8.5-5l0.4-2.5c0.8-4.4-2.2-8.5-6.5-9.2c-4.4-0.8-8.5,2.2-9.2,6.5l-0.5,2.9
					c-3.2,0.3-6.5,1.1-9.5,2.4l-1.5-2.1c-2.5-3.6-7.5-4.5-11.1-1.9c-3.6,2.5-4.5,7.5-1.9,11.1l1.7,2.4c0,0,0,0,0,0
					c-2.1,2.6-3.8,5.4-5,8.5l-2.5-0.4c-4.4-0.8-8.5,2.2-9.2,6.5c-0.8,4.4,2.2,8.5,6.5,9.2l2.9,0.5c0.3,3.2,1.1,6.5,2.4,9.5l-2.1,1.5
					C74.7,160.1,73.8,165.1,76.4,168.7z M97.2,123.8c10.7-7.6,25.6-5,33.2,5.7c7.6,10.7,5,25.6-5.7,33.2c-10.7,7.6-25.6,5-33.2-5.7
					C83.9,146.2,86.4,131.4,97.2,123.8z"/>
			</g>
			<g>
				<path class="st3" d="M123.2,134.6c4.8,6.8,3.2,16.2-3.6,21c-6.8,4.8-16.2,3.2-21-3.6c-4.8-6.8-3.2-16.2,3.6-21
					C109,126.1,118.4,127.8,123.2,134.6z"/>
			</g>
		</g>
		<g>
			<g>
				<path class="st3" d="M141.7,103.4c0.7,2,2.9,3.1,5,2.3l1.3-0.5c0.9,1.3,2.1,2.5,3.3,3.4c0,0,0,0,0,0l-0.5,1.1
					c-0.9,1.9-0.1,4.2,1.9,5.2c1.9,0.9,4.2,0.1,5.2-1.9l0.6-1.3c1.6,0.3,3.2,0.3,4.8,0.1l0.4,1.1c0.7,2,2.9,3.1,5,2.3
					c2-0.7,3.1-2.9,2.3-5l-0.5-1.3c1.3-0.9,2.5-2.1,3.4-3.3c0,0,0,0,0,0l1.1,0.5c1.9,0.9,4.2,0.1,5.2-1.9c0.9-1.9,0.1-4.2-1.9-5.2
					l-1.3-0.6c0.3-1.6,0.3-3.2,0.1-4.8l1.1-0.4c2-0.7,3.1-2.9,2.3-5c-0.7-2-2.9-3.1-5-2.3l-1.3,0.5c0,0,0,0,0,0
					c-0.9-1.3-2.1-2.5-3.3-3.4l0.5-1.1c0.9-1.9,0.1-4.2-1.9-5.2c-1.9-0.9-4.2-0.1-5.2,1.9l-0.6,1.3c-1.6-0.3-3.2-0.3-4.8-0.1
					l-0.4-1.1c-0.7-2-2.9-3.1-5-2.3c-2,0.7-3.1,2.9-2.3,5l0.5,1.3c0,0,0,0,0,0c-1.3,0.9-2.5,2.1-3.4,3.3l-1.1-0.5
					c-1.9-0.9-4.2-0.1-5.2,1.9c-0.9,1.9-0.1,4.2,1.9,5.2l1.3,0.6c-0.3,1.6-0.3,3.2-0.1,4.8l-1.1,0.4
					C142.1,99.1,141,101.4,141.7,103.4z M157.2,85.1c6-2.2,12.6,0.9,14.8,6.9c2.2,6-0.9,12.6-6.9,14.8c-6,2.2-12.6-0.9-14.8-6.9
					C148.1,93.8,151.2,87.2,157.2,85.1z"/>
			</g>
			<g>
				<path class="st3" d="M168,93.4c1.4,3.8-0.6,8-4.4,9.3c-3.8,1.4-8-0.6-9.3-4.4c-1.4-3.8,0.6-8,4.4-9.3
					C162.5,87.7,166.6,89.6,168,93.4z"/>
			</g>
		</g>
		<g>
			<g>
				<path class="st3" d="M338.4,132.6c1.8,2.6,5.4,3.2,8,1.4l1.7-1.2c1.9,1.5,3.9,2.7,6.1,3.6c0,0,0,0,0,0l-0.3,1.8
					c-0.5,3.1,1.6,6.1,4.7,6.6c3.1,0.5,6.1-1.6,6.6-4.7l0.4-2.1c2.3-0.2,4.6-0.8,6.9-1.7l1,1.5c1.8,2.6,5.4,3.2,8,1.4
					c2.6-1.8,3.2-5.4,1.4-8l-1.2-1.7c1.5-1.9,2.7-3.9,3.6-6.1c0,0,0,0,0,0l1.8,0.3c3.1,0.5,6.1-1.6,6.6-4.7c0.5-3.1-1.6-6.1-4.7-6.6
					l-2.1-0.4c-0.2-2.3-0.8-4.6-1.7-6.9l1.5-1c2.6-1.8,3.2-5.4,1.4-8c-1.8-2.6-5.4-3.2-8-1.4l-1.7,1.2c0,0,0,0,0,0
					c-1.9-1.5-3.9-2.7-6.1-3.6l0.3-1.8c0.5-3.1-1.6-6.1-4.7-6.6c-3.1-0.5-6.1,1.6-6.6,4.7l-0.4,2.1c-2.3,0.2-4.6,0.8-6.8,1.7l-1-1.5
					c-1.8-2.6-5.4-3.2-8-1.4c-2.6,1.8-3.2,5.4-1.4,8l1.2,1.7c0,0,0,0,0,0c-1.5,1.9-2.7,3.9-3.6,6.1l-1.8-0.3
					c-3.1-0.5-6.1,1.6-6.6,4.7c-0.5,3.1,1.6,6.1,4.7,6.6l2.1,0.4c0.2,2.3,0.8,4.6,1.7,6.8l-1.5,1C337.2,126.4,336.6,130,338.4,132.6
					z M353.3,100.4c7.7-5.4,18.4-3.6,23.8,4.1c5.4,7.7,3.6,18.4-4.1,23.8c-7.7,5.4-18.4,3.6-23.8-4.1
					C343.8,116.5,345.6,105.8,353.3,100.4z"/>
			</g>
			<g>
				<path class="st3" d="M372,108.1c3.4,4.9,2.3,11.6-2.6,15.1c-4.9,3.4-11.6,2.3-15.1-2.6c-3.4-4.9-2.3-11.6,2.6-15.1
					C361.8,102.1,368.6,103.2,372,108.1z"/>
			</g>
		</g>
	</g>
	<g>
		<g>
			<g>
				<path class="st4" d="M407.4,199.4c-0.1,3.7-0.3,7.4-0.4,11.1c-0.1,2.5-0.2,4.9-0.3,7.4c0,0.2,0.1,0.4,0.1,0.6
					c-0.2,4.3-0.4,8.5-0.6,12.8c0,0.9-0.1,1.8-0.1,2.7c-0.1,1.6-0.1,3.2-0.2,4.8c0,0.5,0,0.9-0.1,1.4c0,0.7-0.1,1.4-0.1,2.1
					c7.2,1.6,14.4,3.3,21.6,4.9c2.6,0,17-0.3,28.3-11.9c0.6-0.6,1.1-1.2,1.6-1.7c9.3-10.8,9.5-23.1,9.5-25.8
					c-2.1,2.2-7.7,7.6-16.7,9.5c-4.4,0.9-8.3,0.8-11.2,0.3c-1.1-0.2-2.1-0.4-2.9-0.6c0,0-0.1,0-0.1,0c4.5-1.1,10.3-2.9,16.6-6.3
					c5.4-2.9,9.7-6.1,12.8-8.8c-0.1-2.4-0.3-6.1-0.8-10.5c0-0.4-0.1-0.8-0.1-1.3c0-0.3-0.1-0.7-0.1-1c-0.2-1.6-0.4-3-0.6-4.3
					c-0.1-0.4-0.1-0.8-0.2-1.2c-0.5-3.2-1.1-5.7-1.4-7.8c0-0.2-0.1-0.5-0.1-0.7c-0.1-0.8-0.2-1.5-0.3-2.2c-0.6-5.5,0-13.4,5.9-23.9
					c0.2-0.4,0.5-0.9,0.7-1.3c-0.5,0.2-1,0.5-1.6,0.8c0,0,0,0,0,0c-9.1,2.2-18.8,5.6-28,11.1c0,0-0.1,0-0.1,0.1
					c-0.2,0.1-0.4,0.3-0.6,0.4c0,0-0.1,0-0.1,0.1c-1.4,0.9-2.8,1.8-4.2,2.7c-0.3,0.2-0.5,0.4-0.8,0.5c-4,2.9-7.9,6.2-11.5,10
					c-1,1-1.9,2.1-2.8,3.1l0,0c-0.7,0.8-1.3,1.6-1.9,2.5c-0.2,0.3-0.5,0.6-0.7,1c-4.3,6.1-6.3,11.9-7.2,14.6
					C408.2,196.1,407.8,197.8,407.4,199.4z"/>
				<path class="st5" d="M416,218.2c1.3,2.6,2,5.4,2.2,8.3c-1.3,1.4-2.7,2.8-4.1,4.2c-2.8,2.8-5.5,5.5-8.3,8.1c0,0.5,0,0.9-0.1,1.4
					c5.3-4.9,10.6-10.2,16-15.9c2-2.1,3.9-4.3,5.8-6.4c1.8,0.2,3.7,0.3,5.5,0.3c1.9,0,3.8-0.2,5.7-0.6c-1.1-0.2-2.1-0.4-2.9-0.6
					c-1,0.1-1.9,0.2-2.9,0.2c-1.6,0-3.2,0-4.8-0.2c5.1-6.3,9.1-13,12-19.9c4.4,0,8.8-0.7,13-2c3.9-1.2,7.5-2.8,11-5
					c0-0.3-0.1-0.7-0.1-1c-3.5,2.2-7.2,3.9-11.1,5.1c-0.1,0-0.3,0.1-0.4,0.1c2.5-1.5,4.8-3.2,6.9-5.2c1.4-1.3,2.7-2.7,4-4.2
					c-0.1-0.4-0.1-0.8-0.2-1.2c-1.3,1.7-2.8,3.3-4.4,4.8c-2.9,2.7-6.3,5-9.9,6.8c-2.7,0.6-5.5,0.9-8.3,0.9c1.2-2.9,2.1-5.8,3.2-8.9
					c0.7-2.2,1.5-4.4,2.3-6.6c2.1-0.4,4.1-0.8,6.1-1.4c3.3-0.9,6.5-2.1,9.7-3.5c0-0.2-0.1-0.5-0.1-0.7c-3.1,1.4-6.4,2.6-9.7,3.5
					c-1.8,0.5-3.7,0.9-5.6,1.3c2.2-5.8,5-11.9,9.9-18.7c3.2-4.4,6.9-8.5,11-12.3c0.2-0.4,0.5-0.9,0.7-1.3c-0.5,0.2-1,0.5-1.6,0.8
					c0,0,0,0,0,0c-4.1,3.7-7.7,7.8-10.9,12.2c-5.1,7-8,13.4-10.2,19.4c-0.1,0-0.1,0-0.2,0l0.1,0.4c-1.2-2.9-2.6-5.7-4.2-8.3l0.1,0
					c0.1-1.7,0-3.8-0.5-6.3c-0.5-2.6-1.4-4.7-2.1-6.3c0,0-0.1,0-0.1,0.1c-0.2,0.1-0.4,0.3-0.6,0.4c0,0-0.1,0-0.1,0.1
					c0.7,1.5,1.5,3.5,2,6c0.4,1.8,0.5,3.5,0.5,4.8c-0.6-1-1.3-2-2.1-3c-1.5-2-3.1-3.7-4.5-5c-0.3,0.2-0.5,0.4-0.8,0.5
					c1.5,1.4,3,3.1,4.5,5.1c3.8,4.8,6,9.6,7.4,13.4c-0.6,1.8-1.2,3.5-1.8,5.2c-1.1,3.3-2.1,6.4-3.4,9.5c-1.7,4.2-3.9,8.3-6.4,12.3
					c-0.7-6.2-2.6-12.3-5.7-17.6c-1.1-1.9-2.4-3.7-2.4-3.7c-1-1.4-2.2-2.9-3.7-4.4c-1.6-1.7-3.3-3.1-4.7-4.2c0,0,0,0-0.1-0.1
					c-0.3,0.3-0.5,0.6-0.8,0.9c0,0,0.1,0.1,0.1,0.1c1.3,0.8,2.7,1.9,4.1,3.3c1.9,1.8,3.3,3.6,4.3,5.1c0,0,1.2,1.7,2.3,3.5
					c3.2,5.5,5.2,11.9,5.7,18.4c-1.6,2.4-3.3,4.7-5.2,6.9c-0.2,0.3-0.5,0.6-0.7,0.8c-2.3,2.7-4.7,5.3-7.4,7.9
					c-0.3-2.7-1-5.4-2.2-7.9c-0.5-1-0.9-1.8-1.4-2.4c0,0-0.3-0.5-0.6-0.9c-1.3-1.8-2.9-3-3.3-3.2c-1.7-1.2-3.4-1.8-4.6-2.1
					c0,0.5-0.1,0.9-0.1,1.4c1.5,0.5,5.1,1.8,7.2,4.6C414.7,215.8,415.4,216.9,416,218.2z"/>
			</g>
			<g>
				<g>
					<g>
						<g id="XMLID_3_">
							<path class="st6" d="M412.7,251.4c-3.4,5.6-6.8,11.3-10.3,16.9c5.2-3.3,10.4-6.6,15.6-9.9c10.5-7.1,44.6-33.5,59.2-57.9
								c4.2-7,9.5-19.7,4.1-27.5c-7.8-11.2-23.9,9.3-32,19.5c-0.7,0.8-1.3,1.6-1.9,2.3c-4.7,5.7-8.8,12-12.6,18.2
								c-5.4,8.9-12.4,20.8-18.1,31C415.2,246.6,413.9,249.1,412.7,251.4z"/>
						</g>
					</g>
					<path class="st5" d="M402.3,268.6c-0.1,0-0.1,0-0.1-0.1c-0.1-0.1-0.1-0.3,0-0.4c18.3-16.2,34.9-34.3,49.3-53.9
						c7.2-9.7,13.9-19.9,20-30.3c0.1-0.2,0.3-0.2,0.4-0.1c0.2,0.1,0.2,0.3,0.1,0.4c-6.1,10.4-12.8,20.7-20,30.4
						c-14.4,19.6-31,37.7-49.4,54C402.5,268.6,402.4,268.6,402.3,268.6z"/>
				</g>
				<g>
					<g>
						<path class="st7" d="M402.2,270.1c0.7-0.2,1.3-0.4,2-0.5c6.1-1.7,12.3-3.4,18.4-5.1c5.8-1.6,14.4-4.1,24.9-7.1
							c4-1.1,7.9-2.3,11.9-3.4c2.7-0.8,5.4-1.5,8.1-2.2c8.2-2.2,16.5-4.3,24.5-7.3c13.2-4.9,20.3-8.1,23.7-13
							c0.7-1.1,2.6-3.8,2.4-7.3c0,0-0.1-2.9-1.9-5.3c-8.5-11.5-41.5-0.2-52.6,6.2c-16.4,9.5-31.1,21.2-46.3,32.4
							C412.2,261.7,407.2,265.9,402.2,270.1z"/>
					</g>
					<path class="st6" d="M402.1,270.5c-0.1,0-0.1-0.1-0.2-0.1c-0.1-0.1,0-0.3,0.1-0.4c19.9-12.3,41-23,62.7-31.7
						c12.8-5.2,25.9-9.8,39.2-13.6c0.2,0,0.3,0,0.4,0.2c0,0.2,0,0.3-0.2,0.4c-13.2,3.9-26.4,8.5-39.1,13.6
						c-21.6,8.7-42.7,19.4-62.6,31.7C402.3,270.5,402.2,270.5,402.1,270.5z"/>
				</g>
				<g>
					<path class="st7" d="M398.2,264.8c1.5-5.5,3.8-13.7,6.9-23.5c3.3-10.7,8.1-21.6,15.6-43.8c1.6-4.7,8.8-26.2,18.2-29
						c0.9-0.3,3.4-1,5.8,0.1c3.5,1.6,4.6,6.1,5,7.9c4.3,18.1-14.8,47.1-14.8,47.1c-5.1,8.4-12.2,18.3-21.9,28.2
						C407.9,256.9,402.9,261.2,398.2,264.8z"/>
					<path class="st6" d="M398.1,265.1C398.1,265.1,398,265.1,398.1,265.1c-0.2-0.1-0.3-0.3-0.2-0.5c11.3-18,21.4-37,29.9-56.4
						c4.1-9.3,7.8-18.8,11.2-28.3c0.1-0.2,0.2-0.2,0.4-0.2c0.2,0.1,0.3,0.2,0.2,0.4c-3.4,9.6-7.2,19.1-11.2,28.4
						c-8.5,19.4-18.6,38.4-29.9,56.4C398.4,265.1,398.2,265.2,398.1,265.1z"/>
				</g>
				<g>
					<path id="XMLID_1_" class="st6" d="M430.7,275.2c0,0,16,0.3,23.4,0.2c16.5,0,35.4,1.1,46.1-9.3c2.5-2.4,4.7-5.7,4.3-9.7
						c-0.3-2.4-1.6-4.7-3.2-6.5c-5.5-6-19.2-4.7-26.2-3.9c-13.7,1.4-53.2,17.5-53.2,17.5c-7.1,3.4-14.1,6.8-21.2,10.2
						C410.7,274.3,420.7,274.8,430.7,275.2z"/>
					<path class="st5" d="M400.7,274.1c-0.1,0-0.2-0.1-0.2-0.2c0-0.2,0.1-0.3,0.3-0.4l91.5-17.7c0.2,0,0.3,0.1,0.4,0.3
						c0,0.2-0.1,0.3-0.3,0.4l-91.5,17.7C400.8,274.1,400.7,274.1,400.7,274.1z"/>
				</g>
			</g>
		</g>
		<g>
			<g>
				<g>
					<g>
						<g id="XMLID_00000041272724270300085190000017329800467797010069_">
							<path class="st6" d="M105.1,252.9c2.1,6.3,4.2,12.5,6.2,18.8c-4.3-4.4-8.7-8.7-13-13.1c-8.7-9.3-36-42.6-44.8-69.6
								c-2.5-7.7-4.9-21.3,2.2-27.7c10.1-9.2,21.2,14.4,26.8,26.1c0.5,1,0.9,1.9,1.3,2.7c3.3,6.6,5.9,13.7,8.2,20.6
								c3.3,9.8,7.5,23,10.8,34.3C103.6,247.7,104.4,250.4,105.1,252.9z"/>
						</g>
					</g>
					<path class="st5" d="M111.4,272c0.1,0,0.1,0,0.2-0.1c0.1-0.1,0.2-0.3,0.1-0.4c-14.2-19.9-26.4-41.2-36.1-63.5
						c-4.8-11.1-9.1-22.5-12.7-34c-0.1-0.2-0.2-0.3-0.4-0.2c-0.2,0.1-0.3,0.2-0.2,0.4c3.6,11.5,7.9,23,12.7,34.1
						c9.7,22.3,21.9,43.7,36.1,63.6C111.1,272,111.3,272,111.4,272z"/>
				</g>
				<g>
					<g>
						<path class="st7" d="M111.1,273.5c-0.6-0.3-1.2-0.6-1.8-1c-5.6-3-11.2-6-16.8-9c-5.3-2.9-13.1-7.2-22.7-12.5
							c-3.6-2-7.2-4-10.8-6c-2.5-1.4-4.9-2.7-7.4-4c-7.5-4-15.1-7.9-22.3-12.5c-11.8-7.7-18-12.5-20.2-18c-0.5-1.2-1.7-4.3-0.7-7.6
							c0,0,0.7-2.8,3.1-4.8c10.8-9.3,40.5,9.1,49.9,17.8c13.9,12.9,25.6,27.6,38,41.9C103.2,263.1,107.1,268.3,111.1,273.5z"/>
					</g>
					<path class="st6" d="M111.1,273.9c0.1,0,0.2,0,0.2-0.1c0.1-0.1,0.1-0.3,0-0.4c-16.7-16.4-34.9-31.5-54.1-44.9
						c-11.3-7.9-23.1-15.3-35.2-22c-0.2-0.1-0.3,0-0.4,0.1c-0.1,0.2,0,0.3,0.1,0.4c12,6.7,23.8,14.1,35.1,22
						c19.1,13.3,37.3,28.4,54,44.8C110.9,273.8,111,273.9,111.1,273.9z"/>
				</g>
				<g>
					<path id="XMLID_00000130640771510064124410000013576287447385214365_" class="st6" d="M82.2,272.2c0,0-15.7-3.3-22.9-5
						c-16.1-3.7-34.7-6.8-42.9-19.4c-1.9-2.9-3.4-6.6-2-10.4c0.8-2.3,2.6-4.2,4.6-5.6c6.7-4.6,19.8-0.3,26.4,2
						c13,4.4,48,28.9,48,28.9c6.1,4.9,12.2,9.8,18.3,14.7C101.9,275.7,92,273.9,82.2,272.2z"/>
					<path class="st5" d="M111.7,277.8c0.1,0,0.2-0.1,0.3-0.2c0.1-0.2,0-0.3-0.2-0.4l-85.2-37.6c-0.2-0.1-0.3,0-0.4,0.2
						c-0.1,0.2,0,0.3,0.2,0.4l85.2,37.6C111.6,277.7,111.7,277.8,111.7,277.8z"/>
				</g>
			</g>
		</g>
	</g>
	<g>
		<path class="st8" d="M157,255H35.5c-1.6,0-3-1.3-3-3v-13.6c0-1.6,1.3-3,3-3H157c1.6,0,3,1.3,3,3V252C160,253.7,158.6,255,157,255z
			"/>
		<rect x="37.8" y="255" class="st9" width="116.8" height="19.5"/>
		<path class="st8" d="M157,294.1H35.5c-1.6,0-3-1.3-3-3v-13.6c0-1.6,1.3-3,3-3H157c1.6,0,3,1.3,3,3v13.6
			C160,292.8,158.6,294.1,157,294.1z"/>
		<path class="st8" d="M157,333.2H35.5c-1.6,0-3-1.3-3-3v-13.6c0-1.6,1.3-3,3-3H157c1.6,0,3,1.3,3,3v13.6
			C160,331.8,158.6,333.2,157,333.2z"/>
		<rect x="37.8" y="294.1" class="st9" width="116.8" height="19.5"/>
	</g>
	<g>
		<g>
			<path class="st9" d="M420.1,296.6H167.6c-0.3,0-0.5-0.2-0.5-0.5V119c0-0.3,0.2-0.5,0.5-0.5h252.5c0.3,0,0.5,0.2,0.5,0.5v177.1
				C420.6,296.4,420.4,296.6,420.1,296.6z"/>
		</g>
		<g>
			<rect x="173" y="124.5" class="st0" width="241.6" height="146.1"/>
		</g>
		<g>
			<path class="st2" d="M389.5,249H198.2c-0.3,0-0.5-0.2-0.5-0.5V144.8c0-0.3,0.2-0.5,0.5-0.5h191.3c0.3,0,0.5,0.2,0.5,0.5v103.8
				C390,248.8,389.8,249,389.5,249z"/>
		</g>
		<g>
			<g>
				<path class="st10" d="M206.4,150.9c0-1.2-1-2.2-2.2-2.2c-1.2,0-2.2,1-2.2,2.2s1,2.2,2.2,2.2C205.4,153,206.4,152.1,206.4,150.9z
					"/>
			</g>
			<g>
				<path class="st10" d="M214.3,150.9c0-1.2-1-2.2-2.2-2.2c-1.2,0-2.2,1-2.2,2.2s1,2.2,2.2,2.2C213.3,153,214.3,152.1,214.3,150.9z
					"/>
			</g>
			<g>
				<path class="st10" d="M222.1,150.9c0-1.2-1-2.2-2.2-2.2c-1.2,0-2.2,1-2.2,2.2s1,2.2,2.2,2.2C221.1,153,222.1,152.1,222.1,150.9z
					"/>
			</g>
		</g>
		<g>
			<path class="st8" d="M274.5,294.3l-17.7,37.4c0,0,0.2,2.6,1.9,2.6h80.1v-2.6h-35.4l17.8-38.2L274.5,294.3z"/>
		</g>
		<g>
			<path class="st11" d="M303.4,331.9H260c-0.3,0-0.5-0.2-0.5-0.5c0-0.3,0.2-0.5,0.5-0.5h43.4c0.3,0,0.5,0.2,0.5,0.5
				C303.9,331.6,303.7,331.9,303.4,331.9z"/>
		</g>
	</g>
	<g>
		<path class="st12" d="M33.7,124.4h-3.5v-3.5c0-0.8-0.6-1.4-1.4-1.4c-0.8,0-1.4,0.6-1.4,1.4v3.5h-3.5c-0.8,0-1.4,0.6-1.4,1.4
			c0,0.8,0.6,1.4,1.4,1.4h3.5v3.5c0,0.8,0.6,1.4,1.4,1.4c0.8,0,1.4-0.6,1.4-1.4v-3.5h3.5c0.8,0,1.4-0.6,1.4-1.4
			C35.1,125,34.5,124.4,33.7,124.4z"/>
		<path class="st12" d="M464.5,109H461v-3.5c0-0.8-0.6-1.4-1.4-1.4c-0.8,0-1.4,0.6-1.4,1.4v3.5h-3.5c-0.8,0-1.4,0.6-1.4,1.4
			c0,0.8,0.6,1.4,1.4,1.4h3.5v3.5c0,0.8,0.6,1.4,1.4,1.4c0.8,0,1.4-0.6,1.4-1.4v-3.5h3.5c0.8,0,1.4-0.6,1.4-1.4
			C465.9,109.6,465.3,109,464.5,109z"/>
		<g>
			<path class="st12" d="M405.5,19c0,3.4,2.8,6.2,6.2,6.2c3.4,0,6.2-2.8,6.2-6.2c0-3.4-2.8-6.2-6.2-6.2
				C408.3,12.8,405.5,15.6,405.5,19z M407.9,19c0-2.1,1.7-3.8,3.8-3.8c2.1,0,3.8,1.7,3.8,3.8c0,2.1-1.7,3.8-3.8,3.8
				C409.6,22.8,407.9,21.1,407.9,19z"/>
		</g>
		<g>
			<path class="st12" d="M149.6,12.8c0,3.4,2.8,6.2,6.2,6.2c3.4,0,6.2-2.8,6.2-6.2c0-3.4-2.8-6.2-6.2-6.2
				C152.4,6.7,149.6,9.4,149.6,12.8z M152,12.8c0-2.1,1.7-3.8,3.8-3.8c2.1,0,3.8,1.7,3.8,3.8c0,2.1-1.7,3.8-3.8,3.8
				C153.7,16.6,152,14.9,152,12.8z"/>
		</g>
		<g>
			<path class="st12" d="M27.9,69c0,3.4,2.8,6.2,6.2,6.2c3.4,0,6.2-2.8,6.2-6.2c0-3.4-2.8-6.2-6.2-6.2C30.7,62.9,27.9,65.6,27.9,69z
				 M30.3,69c0-2.1,1.7-3.8,3.8-3.8c2.1,0,3.8,1.7,3.8,3.8c0,2.1-1.7,3.8-3.8,3.8C32,72.8,30.3,71.1,30.3,69z"/>
		</g>
		<g>
			<path class="st12" d="M406.2,52.8c-0.9,0-1.6,0.7-1.6,1.6c0,0.9,0.7,1.5,1.6,1.5h15.5c0.9,0,1.6-0.7,1.6-1.5
				c0-0.9-0.7-1.6-1.6-1.6H406.2z"/>
		</g>
		<g>
			<path class="st12" d="M428.3,52.8c-0.9,0-1.6,0.7-1.6,1.6c0,0.9,0.7,1.5,1.6,1.5h2.8c0.9,0,1.5-0.7,1.5-1.5
				c0-0.9-0.7-1.6-1.5-1.6H428.3z"/>
		</g>
		<g>
			<g>
				<path class="st12" d="M68.2,37.6c-0.9,0-1.6,0.7-1.6,1.6c0,0.9,0.7,1.5,1.6,1.5h15.5c0.9,0,1.6-0.7,1.6-1.5
					c0-0.9-0.7-1.6-1.6-1.6H68.2z"/>
			</g>
			<g>
				<path class="st12" d="M90.4,37.6c-0.9,0-1.6,0.7-1.6,1.6c0,0.9,0.7,1.5,1.6,1.5h2.8c0.9,0,1.5-0.7,1.5-1.5
					c0-0.9-0.7-1.6-1.5-1.6H90.4z"/>
			</g>
		</g>
		<g>
			<path class="st12" d="M473.5,153c-0.8,0-1.5,0.7-1.5,1.6c0,0.9,0.7,1.5,1.5,1.5h14.8c0.8,0,1.5-0.7,1.5-1.5
				c0-0.9-0.7-1.6-1.5-1.6H473.5z"/>
		</g>
		<g>
			<path class="st12" d="M500.1,153c-0.8,0-1.5,0.7-1.5,1.6c0,0.9,0.7,1.5,1.5,1.5h2.7c0.8,0,1.5-0.7,1.5-1.5c0-0.9-0.7-1.6-1.5-1.6
				H500.1z"/>
		</g>
	</g>
	<g>
		<g>
			<g>
				<path class="st10" d="M444,182.9c0,3.5,0,3.5,0,3.5v93.4c0,2.5-2.1,4.6-4.6,4.6H275.3c-2.5,0-4.6-2.1-4.6-4.6v-97
					c0-2.5,2.1-4.6,4.6-4.6h164.1C442,178.3,444,180.4,444,182.9z"/>
			</g>
		</g>
		<g>
			<g>
				<path class="st13" d="M343.1,237.8c0,7.9-3,15-7.9,20.5c-5.6,6.2-13.7,10.1-22.7,10.1c-16.9,0-30.5-13.7-30.5-30.5
					c0-4.2,0.8-8.2,2.4-11.8l28.2,11.8l-1.4-30.5c0.5,0,1,0,1.4,0C329.4,207.3,343.1,221,343.1,237.8z"/>
			</g>
			<g>
				<g>
					<path class="st8" d="M308.1,202.3c-9.1,0.4-17.2,4.8-22.5,11.6c-1.7,2.2-3.1,4.6-4.2,7.1l28.2,11.8L308.1,202.3z"/>
				</g>
			</g>
		</g>
		<g>
			<g>
				<g>
					<g>
						<rect x="412.4" y="216.8" class="st14" width="4.2" height="4.2"/>
					</g>
				</g>
				<g>
					<path class="st8" d="M434.5,219.4h-15c0,0,0,0,0,0v-1c0,0,0,0,0,0h15c0,0,0,0,0,0L434.5,219.4
						C434.5,219.4,434.5,219.4,434.5,219.4z"/>
				</g>
			</g>
			<g>
				<g>
					<g>
						<rect x="412.4" y="209.3" class="st8" width="4.2" height="4.2"/>
					</g>
				</g>
				<g>
					<g>
						<path class="st8" d="M434.5,212h-15c0,0,0,0,0,0v-1c0,0,0,0,0,0h15c0,0,0,0,0,0L434.5,212C434.5,211.9,434.5,212,434.5,212z"
							/>
					</g>
				</g>
			</g>
			<g>
				<g>
					<g>
						<rect x="412.4" y="224.3" class="st13" width="4.2" height="4.2"/>
					</g>
				</g>
				<g>
					<g>
						<path class="st8" d="M434.5,226.9h-15c0,0,0,0,0,0v-1c0,0,0,0,0,0h15c0,0,0,0,0,0L434.5,226.9
							C434.5,226.9,434.5,226.9,434.5,226.9z"/>
					</g>
				</g>
			</g>
			<g>
				<g>
					<g>
						<path class="st8" d="M434,241.6h-21c-0.3,0-0.5-0.2-0.5-0.5l0,0c0-0.3,0.2-0.5,0.5-0.5h21c0.3,0,0.5,0.2,0.5,0.5l0,0
							C434.5,241.4,434.3,241.6,434,241.6z"/>
					</g>
				</g>
				<g>
					<g>
						<path class="st8" d="M434,245.9h-21c-0.3,0-0.5-0.2-0.5-0.5l0,0c0-0.3,0.2-0.5,0.5-0.5h21c0.3,0,0.5,0.2,0.5,0.5l0,0
							C434.5,245.7,434.3,245.9,434,245.9z"/>
					</g>
				</g>
				<g>
					<g>
						<path class="st8" d="M434,250.2h-21c-0.3,0-0.5-0.2-0.5-0.5l0,0c0-0.3,0.2-0.5,0.5-0.5h21c0.3,0,0.5,0.2,0.5,0.5l0,0
							C434.5,250,434.3,250.2,434,250.2z"/>
					</g>
				</g>
				<g>
					<g>
						<path class="st8" d="M434,254.6h-21c-0.3,0-0.5-0.2-0.5-0.5l0,0c0-0.3,0.2-0.5,0.5-0.5h21c0.3,0,0.5,0.2,0.5,0.5l0,0
							C434.5,254.3,434.3,254.6,434,254.6z"/>
					</g>
				</g>
				<g>
					<g>
						<path class="st8" d="M434,258.9h-21c-0.3,0-0.5-0.2-0.5-0.5l0,0c0-0.3,0.2-0.5,0.5-0.5h21c0.3,0,0.5,0.2,0.5,0.5l0,0
							C434.5,258.6,434.3,258.9,434,258.9z"/>
					</g>
				</g>
				<g>
					<g>
						<path class="st8" d="M434,263.2h-21c-0.3,0-0.5-0.2-0.5-0.5l0,0c0-0.3,0.2-0.5,0.5-0.5h21c0.3,0,0.5,0.2,0.5,0.5l0,0
							C434.5,262.9,434.3,263.2,434,263.2z"/>
					</g>
				</g>
				<g>
					<g>
						<path class="st8" d="M434,267.5h-21c-0.3,0-0.5-0.2-0.5-0.5l0,0c0-0.3,0.2-0.5,0.5-0.5h21c0.3,0,0.5,0.2,0.5,0.5l0,0
							C434.5,267.3,434.3,267.5,434,267.5z"/>
					</g>
				</g>
			</g>
		</g>
		<g>
			<g>
				<path class="st15" d="M444,182.9c0,3.5,0,3.5,0,3.5v4.6H270.7v-8.1c0-2.5,2.1-4.6,4.6-4.6h164.1C442,178.3,444,180.4,444,182.9z
					"/>
			</g>
		</g>
		<g>
			<g>
				<g>
					<g>
						<g>
							<g>
								<path class="st8" d="M425.8,184.7c0,1.2-1,2.1-2.1,2.1c-1.2,0-2.1-1-2.1-2.1c0-1.2,1-2.1,2.1-2.1
									C424.8,182.5,425.8,183.5,425.8,184.7z"/>
							</g>
						</g>
					</g>
				</g>
			</g>
			<g>
				<path class="st14" d="M432.7,184.7c0,1.2-1,2.1-2.1,2.1c-1.2,0-2.1-1-2.1-2.1c0-1.2,1-2.1,2.1-2.1
					C431.7,182.5,432.7,183.5,432.7,184.7z"/>
			</g>
			<g>
				<g>
					<g>
						<g>
							<g>
								<path class="st13" d="M439.3,184.7c0,1.2-1,2.1-2.1,2.1c-1.2,0-2.1-1-2.1-2.1c0-1.2,1-2.1,2.1-2.1
									C438.4,182.5,439.3,183.5,439.3,184.7z"/>
							</g>
						</g>
					</g>
				</g>
			</g>
		</g>
		<g>
			<g>
				<path class="st14" d="M343.1,237.8c0,7.9-3,15-7.9,20.5l-22.7-20.5l-1.4-30.5c0.5,0,1,0,1.4,0
					C329.4,207.3,343.1,221,343.1,237.8z"/>
			</g>
		</g>
		<g>
			<g>
				<g>
					<g>
						<rect x="372.9" y="230.1" class="st8" width="9.7" height="41.7"/>
					</g>
					<g>
						<g>
							<path class="st13" d="M372.9,260.8c3.4-1.1,6.7-3,9.7-5v16h-9.7V260.8z"/>
						</g>
					</g>
				</g>
				<g>
					<g>
						<rect x="357" y="241.7" class="st8" width="9.7" height="30.1"/>
					</g>
					<g>
						<g>
							<path class="st13" d="M364.9,261.5c0.6,0.1,1.2,0.1,1.8,0.2v10.1H357v-10C358.7,261.2,361.2,261,364.9,261.5z"/>
						</g>
					</g>
				</g>
				<g>
					<g>
						<rect x="388.7" y="217.7" class="st8" width="9.7" height="54.1"/>
					</g>
					<g>
						<g>
							<path class="st13" d="M398.5,247.3v24.5h-9.7v-20.3C392.2,249.1,395.4,247.3,398.5,247.3z"/>
						</g>
					</g>
				</g>
			</g>
			<g>
				<g>
					<path class="st14" d="M398.1,201.9l-8.8,1.9l2.4,2.3l-13.4,13.7l-4.7-4.6l-16.7,17c-0.6,0.6-0.6,1.7,0,2.3l0,0
						c0.6,0.6,1.7,0.6,2.3,0l14.4-14.6l4.7,4.6l15.7-16l2.4,2.3L398.1,201.9z"/>
				</g>
			</g>
		</g>
	</g>
	<g>
		<path class="st16" d="M209,334.5H75.3v-12c0-1.3,1.1-2.4,2.4-2.4h129c1.3,0,2.4,1.1,2.4,2.4V334.5z"/>
		<path class="st16" d="M206.8,180.7h-23.9c-1.2,0-2.2-1-2.2-2.2v-30.3c0-1.2,1-2.2,2.2-2.2h23.9c1.2,0,2.2,1,2.2,2.2v30.3
			C209,179.7,208.1,180.7,206.8,180.7z"/>
		<path class="st15" d="M190.6,180.7H77.3c-1.1,0-2.1-0.9-2.1-2.1V148c0-1.1,0.9-2.1,2.1-2.1h113.2c1.1,0,2.1,0.9,2.1,2.1v30.6
			C192.6,179.7,191.7,180.7,190.6,180.7z"/>
		<path class="st10" d="M183.2,174.8H84c-0.7,0-1.2-0.5-1.2-1.2v-19.2c0-0.7,0.5-1.2,1.2-1.2h99.2c0.7,0,1.2,0.5,1.2,1.2v19.2
			C184.4,174.3,183.8,174.8,183.2,174.8z"/>
		<path class="st8" d="M86.6,164.3c0-1.2,1-2.2,2.1-2.2c1.2,0,2.1,1,2.1,2.2c0,1.2-1,2.2-2.1,2.2C87.5,166.4,86.6,165.5,86.6,164.3z
			"/>
		<path class="st13" d="M93.8,164.3c0-1.2,1-2.2,2.1-2.2c1.2,0,2.1,1,2.1,2.2c0,1.2-1,2.2-2.1,2.2C94.7,166.4,93.8,165.5,93.8,164.3
			z"/>
		<path class="st8" d="M101,164.3c0-1.2,1-2.2,2.1-2.2c1.2,0,2.1,1,2.1,2.2c0,1.2-1,2.2-2.1,2.2C101.9,166.4,101,165.5,101,164.3z"
			/>
		<path class="st8" d="M108.2,164.3c0-1.2,1-2.2,2.1-2.2s2.1,1,2.1,2.2c0,1.2-1,2.2-2.1,2.2S108.2,165.5,108.2,164.3z"/>
		<path class="st8" d="M179.2,170.8h-10.4c-0.2,0-0.4-0.2-0.4-0.4v-12.3c0-0.2,0.2-0.4,0.4-0.4h10.4c0.2,0,0.4,0.2,0.4,0.4v12.3
			C179.6,170.6,179.4,170.8,179.2,170.8z"/>
		<rect x="83.6" y="180.7" class="st16" width="105.9" height="9.3"/>
		<rect x="189.4" y="180.7" class="st9" width="4.7" height="9.3"/>
		<path class="st8" d="M160.3,170.8h-1.9c-0.2,0-0.3-0.1-0.3-0.3V158c0-0.2,0.1-0.3,0.3-0.3h1.9c0.2,0,0.3,0.1,0.3,0.3v12.5
			C160.7,170.7,160.5,170.8,160.3,170.8z"/>
		<path class="st8" d="M151.2,170.8h-1.9c-0.2,0-0.3-0.1-0.3-0.3V158c0-0.2,0.1-0.3,0.3-0.3h1.9c0.2,0,0.3,0.1,0.3,0.3v12.5
			C151.5,170.7,151.4,170.8,151.2,170.8z"/>
		<path class="st8" d="M142,170.8h-1.9c-0.2,0-0.3-0.1-0.3-0.3V158c0-0.2,0.1-0.3,0.3-0.3h1.9c0.2,0,0.3,0.1,0.3,0.3v12.5
			C142.4,170.7,142.2,170.8,142,170.8z"/>
		<path class="st8" d="M132.9,170.8H131c-0.2,0-0.3-0.1-0.3-0.3V158c0-0.2,0.1-0.3,0.3-0.3h1.9c0.2,0,0.3,0.1,0.3,0.3v12.5
			C133.2,170.7,133.1,170.8,132.9,170.8z"/>
		<path class="st8" d="M123.8,170.8h-1.9c-0.2,0-0.3-0.1-0.3-0.3V158c0-0.2,0.1-0.3,0.3-0.3h1.9c0.2,0,0.3,0.1,0.3,0.3v12.5
			C124.1,170.7,123.9,170.8,123.8,170.8z"/>
		<rect x="83.6" y="180.7" class="st9" width="105.8" height="3.3"/>
		<path class="st16" d="M206.8,224.4h-23.9c-1.2,0-2.2-1-2.2-2.2v-30.3c0-1.2,1-2.2,2.2-2.2h23.9c1.2,0,2.2,1,2.2,2.2v30.3
			C209,223.4,208.1,224.4,206.8,224.4z"/>
		<path class="st15" d="M190.6,224.4H77.3c-1.1,0-2.1-0.9-2.1-2.1v-30.6c0-1.1,0.9-2.1,2.1-2.1h113.2c1.1,0,2.1,0.9,2.1,2.1v30.6
			C192.6,223.5,191.7,224.4,190.6,224.4z"/>
		<path class="st10" d="M183.2,218.6H84c-0.7,0-1.2-0.5-1.2-1.2v-19.2c0-0.7,0.5-1.2,1.2-1.2h99.2c0.7,0,1.2,0.5,1.2,1.2v19.2
			C184.4,218.1,183.8,218.6,183.2,218.6z"/>
		<rect x="83.6" y="224.4" class="st16" width="105.9" height="9.3"/>
		<rect x="189.4" y="224.4" class="st9" width="4.7" height="9.3"/>
		<g>
			<path class="st8" d="M179.7,208c0-1.2-1-2.2-2.1-2.2c-1.2,0-2.1,1-2.1,2.2c0,1.2,1,2.2,2.1,2.2
				C178.8,210.2,179.7,209.2,179.7,208z"/>
			<path class="st13" d="M172.5,208c0-1.2-1-2.2-2.1-2.2c-1.2,0-2.1,1-2.1,2.2c0,1.2,1,2.2,2.1,2.2
				C171.6,210.2,172.5,209.2,172.5,208z"/>
			<path class="st8" d="M165.4,208c0-1.2-1-2.2-2.1-2.2s-2.1,1-2.1,2.2c0,1.2,1,2.2,2.1,2.2S165.4,209.2,165.4,208z"/>
			<path class="st8" d="M158.2,208c0-1.2-1-2.2-2.1-2.2c-1.2,0-2.1,1-2.1,2.2c0,1.2,1,2.2,2.1,2.2
				C157.2,210.2,158.2,209.2,158.2,208z"/>
			<path class="st8" d="M87.1,214.6h10.4c0.2,0,0.4-0.2,0.4-0.4v-12.3c0-0.2-0.2-0.4-0.4-0.4H87.1c-0.2,0-0.4,0.2-0.4,0.4v12.3
				C86.7,214.4,86.9,214.6,87.1,214.6z"/>
			<path class="st8" d="M106,214.6h1.9c0.2,0,0.3-0.1,0.3-0.3v-12.5c0-0.2-0.1-0.3-0.3-0.3H106c-0.2,0-0.3,0.1-0.3,0.3v12.5
				C105.7,214.4,105.8,214.6,106,214.6z"/>
			<path class="st8" d="M115.1,214.6h1.9c0.2,0,0.3-0.1,0.3-0.3v-12.5c0-0.2-0.1-0.3-0.3-0.3h-1.9c-0.2,0-0.3,0.1-0.3,0.3v12.5
				C114.8,214.4,115,214.6,115.1,214.6z"/>
			<path class="st8" d="M124.3,214.6h1.9c0.2,0,0.3-0.1,0.3-0.3v-12.5c0-0.2-0.1-0.3-0.3-0.3h-1.9c-0.2,0-0.3,0.1-0.3,0.3v12.5
				C123.9,214.4,124.1,214.6,124.3,214.6z"/>
			<path class="st8" d="M133.4,214.6h1.9c0.2,0,0.3-0.1,0.3-0.3v-12.5c0-0.2-0.1-0.3-0.3-0.3h-1.9c-0.2,0-0.3,0.1-0.3,0.3v12.5
				C133.1,214.4,133.2,214.6,133.4,214.6z"/>
			<path class="st8" d="M142.6,214.6h1.9c0.2,0,0.3-0.1,0.3-0.3v-12.5c0-0.2-0.1-0.3-0.3-0.3h-1.9c-0.2,0-0.3,0.1-0.3,0.3v12.5
				C142.2,214.4,142.4,214.6,142.6,214.6z"/>
		</g>
		<rect x="83.6" y="224.4" class="st9" width="105.8" height="3.3"/>
		<path class="st16" d="M206.8,268.2h-23.9c-1.2,0-2.2-1-2.2-2.2v-30.3c0-1.2,1-2.2,2.2-2.2h23.9c1.2,0,2.2,1,2.2,2.2V266
			C209,267.2,208.1,268.2,206.8,268.2z"/>
		<path class="st15" d="M190.6,268.2H77.3c-1.1,0-2.1-0.9-2.1-2.1v-30.6c0-1.1,0.9-2.1,2.1-2.1h113.2c1.1,0,2.1,0.9,2.1,2.1v30.6
			C192.6,267.3,191.7,268.2,190.6,268.2z"/>
		<path class="st10" d="M183.2,262.4H84c-0.7,0-1.2-0.5-1.2-1.2V242c0-0.7,0.5-1.2,1.2-1.2h99.2c0.7,0,1.2,0.5,1.2,1.2v19.2
			C184.4,261.9,183.8,262.4,183.2,262.4z"/>
		<path class="st8" d="M86.6,251.8c0-1.2,1-2.2,2.1-2.2c1.2,0,2.1,1,2.1,2.2c0,1.2-1,2.2-2.1,2.2C87.5,254,86.6,253,86.6,251.8z"/>
		<path class="st13" d="M93.8,251.8c0-1.2,1-2.2,2.1-2.2c1.2,0,2.1,1,2.1,2.2c0,1.2-1,2.2-2.1,2.2C94.7,254,93.8,253,93.8,251.8z"/>
		<path class="st8" d="M101,251.8c0-1.2,1-2.2,2.1-2.2c1.2,0,2.1,1,2.1,2.2c0,1.2-1,2.2-2.1,2.2C101.9,254,101,253,101,251.8z"/>
		<path class="st13" d="M108.2,251.8c0-1.2,1-2.2,2.1-2.2s2.1,1,2.1,2.2c0,1.2-1,2.2-2.1,2.2S108.2,253,108.2,251.8z"/>
		<path class="st8" d="M179.2,258.4h-10.4c-0.2,0-0.4-0.2-0.4-0.4v-12.3c0-0.2,0.2-0.4,0.4-0.4h10.4c0.2,0,0.4,0.2,0.4,0.4V258
			C179.6,258.2,179.4,258.4,179.2,258.4z"/>
		<rect x="83.6" y="268.2" class="st16" width="105.9" height="9.3"/>
		<rect x="189.4" y="268.2" class="st9" width="4.7" height="9.3"/>
		<path class="st8" d="M160.3,258.4h-1.9c-0.2,0-0.3-0.1-0.3-0.3v-12.5c0-0.2,0.1-0.3,0.3-0.3h1.9c0.2,0,0.3,0.1,0.3,0.3V258
			C160.7,258.2,160.5,258.4,160.3,258.4z"/>
		<path class="st8" d="M151.2,258.4h-1.9c-0.2,0-0.3-0.1-0.3-0.3v-12.5c0-0.2,0.1-0.3,0.3-0.3h1.9c0.2,0,0.3,0.1,0.3,0.3V258
			C151.5,258.2,151.4,258.4,151.2,258.4z"/>
		<path class="st8" d="M142,258.4h-1.9c-0.2,0-0.3-0.1-0.3-0.3v-12.5c0-0.2,0.1-0.3,0.3-0.3h1.9c0.2,0,0.3,0.1,0.3,0.3V258
			C142.4,258.2,142.2,258.4,142,258.4z"/>
		<path class="st8" d="M132.9,258.4H131c-0.2,0-0.3-0.1-0.3-0.3v-12.5c0-0.2,0.1-0.3,0.3-0.3h1.9c0.2,0,0.3,0.1,0.3,0.3V258
			C133.2,258.2,133.1,258.4,132.9,258.4z"/>
		<path class="st8" d="M123.8,258.4h-1.9c-0.2,0-0.3-0.1-0.3-0.3v-12.5c0-0.2,0.1-0.3,0.3-0.3h1.9c0.2,0,0.3,0.1,0.3,0.3V258
			C124.1,258.2,123.9,258.4,123.8,258.4z"/>
		<rect x="83.6" y="268.2" class="st9" width="105.8" height="3.3"/>
		<path class="st16" d="M206.8,312h-23.9c-1.2,0-2.2-1-2.2-2.2v-30.3c0-1.2,1-2.2,2.2-2.2h23.9c1.2,0,2.2,1,2.2,2.2v30.3
			C209,311,208.1,312,206.8,312z"/>
		<path class="st15" d="M190.6,312H77.3c-1.1,0-2.1-0.9-2.1-2.1v-30.6c0-1.1,0.9-2.1,2.1-2.1h113.2c1.1,0,2.1,0.9,2.1,2.1v30.6
			C192.6,311.1,191.7,312,190.6,312z"/>
		<path class="st10" d="M183.2,306.2H84c-0.7,0-1.2-0.5-1.2-1.2v-19.2c0-0.7,0.5-1.2,1.2-1.2h99.2c0.7,0,1.2,0.5,1.2,1.2V305
			C184.4,305.6,183.8,306.2,183.2,306.2z"/>
		<rect x="83.6" y="312" class="st16" width="105.9" height="9.3"/>
		<rect x="189.4" y="312" class="st9" width="4.7" height="9.3"/>
		<g>
			<ellipse class="st8" cx="89.2" cy="295.6" rx="2.1" ry="2.2"/>
			<path class="st13" d="M94.3,295.6c0-1.2,1-2.2,2.1-2.2c1.2,0,2.1,1,2.1,2.2c0,1.2-1,2.2-2.1,2.2
				C95.2,297.8,94.3,296.8,94.3,295.6z"/>
			<ellipse class="st8" cx="103.6" cy="295.6" rx="2.1" ry="2.2"/>
			<path class="st8" d="M108.7,295.6c0-1.2,1-2.2,2.1-2.2c1.2,0,2.1,1,2.1,2.2c0,1.2-1,2.2-2.1,2.2
				C109.6,297.8,108.7,296.8,108.7,295.6z"/>
			<path class="st8" d="M179.7,302.2h-10.4c-0.2,0-0.4-0.2-0.4-0.4v-12.3c0-0.2,0.2-0.4,0.4-0.4h10.4c0.2,0,0.4,0.2,0.4,0.4v12.3
				C180.1,302,179.9,302.2,179.7,302.2z"/>
			<path class="st8" d="M160.8,302.2h-1.9c-0.2,0-0.3-0.1-0.3-0.3v-12.5c0-0.2,0.1-0.3,0.3-0.3h1.9c0.2,0,0.3,0.1,0.3,0.3v12.5
				C161.1,302,161,302.2,160.8,302.2z"/>
			<path class="st8" d="M151.7,302.2h-1.9c-0.2,0-0.3-0.1-0.3-0.3v-12.5c0-0.2,0.1-0.3,0.3-0.3h1.9c0.2,0,0.3,0.1,0.3,0.3v12.5
				C152,302,151.9,302.2,151.7,302.2z"/>
			<path class="st8" d="M142.5,302.2h-1.9c-0.2,0-0.3-0.1-0.3-0.3v-12.5c0-0.2,0.1-0.3,0.3-0.3h1.9c0.2,0,0.3,0.1,0.3,0.3v12.5
				C142.9,302,142.7,302.2,142.5,302.2z"/>
			<path class="st8" d="M133.4,302.2h-1.9c-0.2,0-0.3-0.1-0.3-0.3v-12.5c0-0.2,0.1-0.3,0.3-0.3h1.9c0.2,0,0.3,0.1,0.3,0.3v12.5
				C133.7,302,133.6,302.2,133.4,302.2z"/>
			<path class="st8" d="M124.2,302.2h-1.9c-0.2,0-0.3-0.1-0.3-0.3v-12.5c0-0.2,0.1-0.3,0.3-0.3h1.9c0.2,0,0.3,0.1,0.3,0.3v12.5
				C124.6,302,124.4,302.2,124.2,302.2z"/>
		</g>
		<rect x="83.6" y="312" class="st9" width="105.8" height="3.3"/>
		<path class="st15" d="M192.6,334.5H75.3v-12c0-1.3,1.1-2.4,2.4-2.4h112.5c1.3,0,2.4,1.1,2.4,2.4V334.5z"/>
	</g>
	<path class="st16" d="M475.7,341.9H25.7c-2.3,0-4.3-1.9-4.3-4.3v-1.5c0-2.3,1.9-4.3,4.3-4.3h449.9c2.3,0,4.3,1.9,4.3,4.3v1.5
		C479.9,339.9,478,341.9,475.7,341.9z"/>
	<g>
		<g>
			<g>
				<path class="st8" d="M283.4,135c-0.4-0.3-0.9-0.6-1.4-0.8v-33.9h-4.6v33.9c-0.5,0.2-1,0.5-1.4,0.8c-1.5,1.1-2.5,2.9-2.5,5
					c0,3.4,2.8,6.2,6.2,6.2c3.4,0,6.2-2.8,6.2-6.2C285.8,137.9,284.9,136.1,283.4,135z M279.6,142.9c-1.6,0-3-1.3-3-3s1.3-3,3-3
					c1.7,0,3,1.3,3,3C282.6,141.6,281.3,142.9,279.6,142.9z M299.4,121.3l-0.6-1.3c-2.7-6.3-4.3-12.9-4.8-19.7h-4.6
					c0.5,7.4,2.2,14.6,5.2,21.5l0.6,1.3c-1.1,1.1-1.8,2.7-1.8,4.4c0,3.4,2.8,6.2,6.2,6.2c3.4,0,6.2-2.8,6.2-6.2c0-2-1-3.8-2.5-4.9
					c-1-0.8-2.3-1.3-3.7-1.3C299.5,121.3,299.4,121.3,299.4,121.3z M302.5,127.5c0,1.6-1.3,3-3,3c-1.6,0-3-1.3-3-3c0-1.6,1.3-3,3-3
					C301.2,124.5,302.5,125.8,302.5,127.5z M248.5,135c-0.4-0.3-0.9-0.6-1.4-0.8v-33.9h-4.6v33.9c-0.5,0.2-1,0.5-1.4,0.8
					c-1.5,1.1-2.5,2.9-2.5,5c0,3.4,2.8,6.2,6.2,6.2c3.4,0,6.2-2.8,6.2-6.2C251,137.9,250,136.1,248.5,135z M244.8,142.9
					c-1.6,0-3-1.3-3-3s1.3-3,3-3c1.7,0,3,1.3,3,3C247.8,141.6,246.4,142.9,244.8,142.9z M224.9,133.7c3.4,0,6.2-2.8,6.2-6.2
					c0-1.7-0.7-3.3-1.8-4.4l0.6-1.3c2.9-6.9,4.7-14.1,5.2-21.5h-4.6c-0.5,6.8-2.1,13.4-4.8,19.7l-0.6,1.3c-0.1,0-0.1,0-0.2,0
					c-1.4,0-2.7,0.5-3.7,1.3c-1.5,1.1-2.5,2.9-2.5,4.9C218.7,130.9,221.5,133.7,224.9,133.7z M224.9,124.5c1.6,0,3,1.3,3,3
					c0,1.6-1.3,3-3,3c-1.6,0-3-1.3-3-3C221.9,125.8,223.2,124.5,224.9,124.5z"/>
				<g>
					<g>
						<path class="st8" d="M265.9,141.5c-0.4-0.3-0.9-0.6-1.4-0.8v-40.4h-4.6v40.4c-0.5,0.2-1,0.5-1.4,0.8c-1.5,1.1-2.5,2.9-2.5,5
							c0,3.4,2.8,6.2,6.2,6.2c3.4,0,6.2-2.8,6.2-6.2C268.4,144.4,267.5,142.6,265.9,141.5z M262.2,149.4c-1.6,0-3-1.3-3-3
							c0-1.6,1.3-3,3-3c1.7,0,3,1.3,3,3C265.2,148.1,263.9,149.4,262.2,149.4z"/>
					</g>
				</g>
			</g>
			<path class="st13" d="M316.8,35.7C314.9,17.9,299.8,4,281.5,4c-6.7,0-13,1.9-18.3,5.1c-5.4-3.8-11.9-6-19-6
				c-16.9,0-30.8,12.6-32.9,29C197,36.6,186.6,50,186.6,65.7c0,19.4,15.8,35.2,35.2,35.2l0,0H304l0,0c0,0,0,0,0,0
				c18.7,0,33.8-15.1,33.8-33.8C337.8,52.9,329.1,40.8,316.8,35.7z"/>
			<g>
				<g>
					<path class="st10" d="M300.2,66.7c-0.7-4.9-2.3-9.6-4.9-13.9c-2.5-4.3-5.8-8-9.7-11.1c-4.1-3.1-8.7-5.4-13.7-6.7
						c-5-1.3-10.1-1.6-15.2-0.9c-4.9,0.7-9.6,2.3-13.9,4.9c-4.3,2.5-8,5.8-11.1,9.7c-3.1,4.1-5.4,8.7-6.7,13.7
						c-1.3,5-1.6,10.1-0.9,15.2c0.7,4.9,2.3,9.6,4.9,13.9c2.5,4.3,5.8,8,9.7,11.1c4.1,3.1,8.7,5.4,13.7,6.7c5,1.3,10.1,1.6,15.2,0.9
						c4.9-0.7,9.6-2.3,13.9-4.9c4.3-2.5,8-5.8,11.1-9.7c3.1-4.1,5.4-8.7,6.7-13.7C300.7,76.9,301,71.8,300.2,66.7z M288.6,79.1
						c-3.8,14.5-18.7,23.3-33.3,19.5c-14.5-3.8-23.3-18.7-19.5-33.3c3.8-14.5,18.7-23.3,33.3-19.4c7,1.8,12.9,6.3,16.6,12.6
						C289.4,64.7,290.4,72,288.6,79.1z"/>
				</g>
			</g>
			<path class="st10" d="M251.1,90.3c0,0.5-0.4,0.9-0.9,0.9c-0.5,0-0.9-0.4-0.9-0.9c0-0.5,0.4-0.9,0.9-0.9
				C250.7,89.4,251.1,89.8,251.1,90.3z"/>
			<path class="st10" d="M255.9,90.3c0,0.5-0.4,0.9-0.9,0.9c-0.5,0-0.9-0.4-0.9-0.9c0-0.5,0.4-0.9,0.9-0.9
				C255.5,89.4,255.9,89.8,255.9,90.3z"/>
			<path class="st10" d="M260.7,90.3c0,0.5-0.4,0.9-0.9,0.9c-0.5,0-0.9-0.4-0.9-0.9c0-0.5,0.4-0.9,0.9-0.9
				C260.3,89.4,260.7,89.8,260.7,90.3z"/>
			<path class="st10" d="M265.5,90.3c0,0.5-0.4,0.9-0.9,0.9c-0.5,0-0.9-0.4-0.9-0.9c0-0.5,0.4-0.9,0.9-0.9
				C265.1,89.4,265.5,89.8,265.5,90.3z"/>
			<path class="st10" d="M270.6,90.3c0,0.6-0.5,1.2-1.2,1.2c-0.6,0-1.2-0.5-1.2-1.2c0-0.6,0.5-1.2,1.2-1.2
				C270,89.1,270.6,89.6,270.6,90.3z"/>
			<path class="st10" d="M275.1,90.3c0,0.5-0.4,0.9-0.9,0.9c-0.5,0-0.9-0.4-0.9-0.9c0-0.5,0.4-0.9,0.9-0.9
				C274.7,89.4,275.1,89.8,275.1,90.3z"/>
		</g>
		<g>
			<path class="st10" d="M251.2,65.2h4.4l4.2,13.8h-3.9l-1.6-6.7c-0.3-1.3-0.7-3-1-4.4h-0.1c-0.3,1.4-0.6,3.1-1,4.4l-1.6,6.7H247
				L251.2,65.2z M250,73.3h6.8v2.8H250V73.3z"/>
			<path class="st10" d="M260.9,65.2h5.1c3,0,5.6,1.1,5.6,4.6c0,3.4-2.6,4.8-5.5,4.8h-1.5v4.4h-3.7V65.2z M265.9,71.8
				c1.4,0,2.1-0.7,2.1-2s-0.8-1.7-2.2-1.7h-1.2v3.7H265.9z"/>
			<path class="st10" d="M273.8,65.2h3.7v13.8h-3.7V65.2z"/>
		</g>
	</g>
</g>
</svg>
