<?xml version="1.0" encoding="utf-8"?>
<!-- Generator: Adobe Illustrator 27.0.0, SVG Export Plug-In . SVG Version: 6.00 Build 0)  -->
<svg version="1.1" id="Layer_1" xmlns="http://www.w3.org/2000/svg" xmlns:xlink="http://www.w3.org/1999/xlink" x="0px" y="0px"
	 viewBox="0 0 500 445.8" style="enable-background:new 0 0 500 445.8;" xml:space="preserve">
<style type="text/css">
	.st0{fill:#E8F0FE;}
	.st1{fill:#1A004D;}
	.st2{fill:#34348C;}
	.st3{fill:#C7D8F9;}
	.st4{fill:#7190F4;}
	.st5{opacity:0.5;fill:#E9A431;enable-background:new    ;}
	.st6{opacity:0.5;fill:#7190F4;enable-background:new    ;}
	.st7{fill:#E9A431;}
	.st8{fill:#516CDD;}
	.st9{opacity:0.5;fill:#E8F0FE;enable-background:new    ;}
	.st10{fill:none;stroke:#C7D8F9;stroke-width:2;stroke-miterlimit:10;}
	.st11{fill:#FFFFFF;}
	.st12{fill:#F4CEC9;}
	.st13{fill:#F2C7BD;}
	.st14{opacity:0.5;}
	.st15{fill:#444A7C;}
	.st16{fill:#232A7C;}
	.st17{fill:#CC6E27;}
</style>
<g>
	<path class="st0" d="M482.7,266.3c-0.1,69.9-31.8,130.4-81.6,173c-2.6,2.2-5.2,4.3-7.8,6.4H83c-2.2-2.1-4.4-4.2-6.5-6.4
		c-43.2-44.6-70-107.3-70-173c0-131.5,106.6-238.1,238.1-238.1C376.1,28.2,482.9,134.8,482.7,266.3z"/>
	<path class="st1" d="M356.2,417.7h-63.9v18h63.9V417.7z"/>
	<path class="st1" d="M479.5,226.2v184.8c0,4.4-3.5,7.9-7.9,7.9H176.9c-4.4,0-7.9-3.5-7.9-7.9V227.6c0-5.9,4.8-10.7,10.7-10.7h290.6
		C475.3,216.9,479.5,221.1,479.5,226.2z"/>
	<path class="st2" d="M479.5,224.7v180.9H168.9V226.1c0-5.1,4.1-9.2,9.2-9.2h293.6C476,217,479.5,220.4,479.5,224.7z"/>
	<path class="st2" d="M475,226.6v169.7c0,2.6-2.1,4.8-4.8,4.8H178.3c-2.6,0-4.8-2.1-4.8-4.8V226.6c0-2.6,2.1-4.8,4.8-4.8h291.9
		C472.8,221.8,475,223.9,475,226.6z"/>
	<path class="st1" d="M376.4,439.5H272.1v-1.8c0-2.1,1.7-3.8,3.8-3.8h96.6c2.1,0,3.8,1.7,3.8,3.8L376.4,439.5L376.4,439.5z"/>
	<path class="st3" d="M157.6,118.4h143.3c1.9,0,3.3-1.5,3.3-3.3V37.6c0-1.9-1.5-3.3-3.3-3.3H157.6c-1.9,0-3.3,1.5-3.3,3.3v77.4
		C154.2,116.9,155.7,118.4,157.6,118.4z"/>
	<path class="st4" d="M210.1,44H174v2.6h36.1V44z"/>
	<path class="st5" d="M225.5,44h-11.1v2.6h11.1V44z"/>
	<path class="st4" d="M168.6,44h-3.1v2.6h3.1V44z"/>
	<path class="st4" d="M275.2,44h-15.3v2.6h15.3V44z"/>
	<path class="st4" d="M256.6,44h-25.8v2.6h25.8V44z"/>
	<path class="st4" d="M216.5,92.3h-2.2H174v2.5h40.4h2.2h8.9v-2.5H216.5z"/>
	<path class="st4" d="M168.6,92.3h-3.1v2.6h3.1V92.3z"/>
	<path class="st4" d="M268.3,92.3h-8.4v2.6h8.4V92.3z"/>
	<path class="st5" d="M256.6,92.3h-25.8v2.6h25.8V92.3z"/>
	<path class="st4" d="M181.4,52.1H174v2.6h7.4V52.1z"/>
	<path class="st5" d="M226.2,52.1h-41.6v2.6h41.6V52.1z"/>
	<path class="st4" d="M168.6,52.1h-3.1v2.6h3.1V52.1z"/>
	<path class="st4" d="M292.8,52.1h-62v2.6h62V52.1z"/>
	<path class="st4" d="M181.4,100.3H174v2.6h7.4V100.3z"/>
	<path class="st4" d="M241.2,100.3h-7.4v2.6h7.4V100.3z"/>
	<path class="st5" d="M226.2,100.3h-41.6v2.6h41.6V100.3z"/>
	<path class="st4" d="M168.6,100.3h-3.1v2.6h3.1V100.3z"/>
	<path class="st4" d="M292.8,100.3h-45.2v2.6h45.2V100.3z"/>
	<path class="st4" d="M196.4,60.1H174v2.6h22.5V60.1z"/>
	<path class="st4" d="M210.1,60.1h-10.9v2.6h10.9V60.1z"/>
	<path class="st4" d="M168.6,60.1h-3.1v2.6h3.1V60.1z"/>
	<path class="st4" d="M249,60.1h-33.9v2.6H249V60.1z"/>
	<path class="st5" d="M292.8,60.1h-40.2v2.6h40.2V60.1z"/>
	<path class="st4" d="M233.5,68.1H174v2.6h59.5V68.1z"/>
	<path class="st4" d="M168.6,68.1h-3.1v2.6h3.1V68.1z"/>
	<path class="st4" d="M280.6,68.1h-44v2.6h44V68.1z"/>
	<path class="st6" d="M204.5,76.2H174v2.6h30.6V76.2z"/>
	<path class="st4" d="M168.6,76.2h-3.1v2.6h3.1V76.2z"/>
	<path class="st4" d="M280.6,76.2h-58.3v2.6h58.3V76.2z"/>
	<path class="st4" d="M292.8,76.2H285v2.6h7.9V76.2z"/>
	<path class="st4" d="M216.4,76.2h-7.9v2.6h7.9V76.2z"/>
	<path class="st7" d="M189.3,84.2H174v2.6h15.4V84.2z"/>
	<path class="st7" d="M220.3,84.2H205v2.6h15.4V84.2z"/>
	<path class="st4" d="M168.6,84.2h-3.1v2.6h3.1V84.2z"/>
	<path class="st4" d="M265.9,84.2h-39.8v2.6h39.8V84.2z"/>
	<path class="st6" d="M292.8,84.2h-21.7v2.6h21.7V84.2z"/>
	<path class="st4" d="M201.4,84.2h-7.9v2.6h7.9V84.2z"/>
	<path class="st3" d="M496.1,208.3l3.3-3.3L485.5,191l-3.3,3.3L496.1,208.3z"/>
	<path class="st3" d="M482.2,204.9l3.3,3.3l13.9-13.9l-3.3-3.3L482.2,204.9z"/>
	<path class="st3" d="M139.5,22.9l3.3-3.3L128.9,5.7L125.6,9L139.5,22.9z"/>
	<path class="st3" d="M125.6,19.6l3.3,3.3L142.8,9l-3.3-3.3L125.6,19.6z"/>
	<path class="st1" d="M234.8,442.5H48.7c-6,0-10.9-4.9-10.9-10.9V100.3c0-6,4.9-10.9,10.9-10.9h186.2c6,0,10.9,4.9,10.9,10.9v331.3
		C245.8,437.6,240.9,442.5,234.8,442.5z"/>
	<path class="st8" d="M237,107.5v317c0,3.9-3.2,7-7,7H53.5c-3.9,0-7.1-3.2-7.1-7v-317c0-3.9,3.2-7,7.1-7h45.5c3,0,5.5,2.5,5.5,5.5
		c0,1.5,0.6,2.9,1.6,3.9c1,1,2.4,1.6,3.9,1.6h63.3c3,0,5.5-2.5,5.5-5.5c0-1.5,0.6-2.9,1.6-3.9s2.4-1.6,3.9-1.6H230
		C233.9,100.4,237,103.6,237,107.5z"/>
	<path class="st0" d="M154,101.9h-35.2c-0.6,0-1.2-0.5-1.2-1.2s0.5-1.2,1.2-1.2H154c0.6,0,1.2,0.5,1.2,1.2S154.6,101.9,154,101.9z"
		/>
	<path class="st0" d="M163.3,102.2c0.8,0,1.4-0.6,1.4-1.4c0-0.8-0.6-1.4-1.4-1.4c-0.8,0-1.4,0.6-1.4,1.4
		C161.9,101.6,162.6,102.2,163.3,102.2z"/>
	<path class="st8" d="M198.4,207.3h-6.7c-1.2-5.2-3.2-10.1-5.9-14.6l4.9-4.9c1.7-1.7,1.7-4.6,0-6.3L180,170.6
		c-1.7-1.7-4.6-1.7-6.3,0l-4.7,4.7c-4.4-2.8-9.3-4.9-14.5-6.2v-7c0-2.5-2-4.5-4.5-4.5h-15.3c-2.5,0-4.5,2-4.5,4.5v6.7
		c-5.2,1.2-10.1,3.2-14.6,5.9l-4.9-4.9c-1.7-1.7-4.6-1.7-6.3,0l-10.8,10.8c-1.7,1.7-1.7,4.6,0,6.3l4.8,4.8
		c-2.8,4.4-4.9,9.3-6.2,14.5h-7c-2.5,0-4.5,2-4.5,4.5V226c0,2.5,2,4.5,4.5,4.5h6.7c1.2,5.2,3.2,10.1,5.9,14.6l-4.9,4.9
		c-1.7,1.7-1.7,4.6,0,6.3l10.8,10.8c1.7,1.7,4.6,1.7,6.3,0l4.7-4.7c4.4,2.8,9.3,4.9,14.5,6.2v7c0,2.5,2,4.5,4.5,4.5h15.3
		c2.5,0,4.5-2,4.5-4.5v-6.7c5.2-1.2,10.1-3.2,14.6-5.9c0,0,0,0,0,0l4.9,4.9c1.7,1.7,4.6,1.7,6.3,0l10.8-10.8c1.7-1.7,1.7-4.6,0-6.3
		l-4.7-4.7c2.8-4.4,4.9-9.3,6.2-14.5h7c2.5,0,4.5-2,4.5-4.5v-15.3C202.9,209.3,200.9,207.3,198.4,207.3z M141.8,250
		c-17.2,0-31.1-13.9-31.1-31.1s13.9-31.1,31.1-31.1c17.2,0,31.1,13.9,31.1,31.1S158.9,250,141.8,250z"/>
	<path class="st0" d="M120.4,323H80.1v2.8h40.3V323z"/>
	<path class="st5" d="M137.6,323h-12.5v2.8h12.5V323z"/>
	<path class="st0" d="M74.1,323h-3.4v2.8h3.4V323z"/>
	<path class="st0" d="M193.1,323h-17.1v2.8h17.1V323z"/>
	<path class="st0" d="M172.4,323h-28.8v2.8h28.8V323z"/>
	<path class="st0" d="M127.6,376.9h-2.5H80.1v2.8h45.1h2.5h10v-2.8H127.6z"/>
	<path class="st0" d="M74.1,376.9h-3.4v2.8h3.4V376.9z"/>
	<path class="st0" d="M185.5,376.9h-9.4v2.8h9.4V376.9z"/>
	<path class="st5" d="M172.4,376.9h-28.8v2.8h28.8V376.9z"/>
	<path class="st0" d="M88.3,332h-8.3v2.8h8.3V332z"/>
	<path class="st5" d="M138.4,332H91.9v2.8h46.5V332z"/>
	<path class="st0" d="M74.1,332h-3.4v2.8h3.4V332z"/>
	<path class="st0" d="M212.8,332h-69.3v2.8h69.3V332z"/>
	<path class="st0" d="M88.3,385.8h-8.3v2.8h8.3V385.8z"/>
	<path class="st0" d="M155.1,385.8h-8.3v2.8h8.3V385.8z"/>
	<path class="st5" d="M138.4,385.8H91.9v2.8h46.5V385.8z"/>
	<path class="st0" d="M74.1,385.8h-3.4v2.8h3.4V385.8z"/>
	<path class="st0" d="M212.8,385.8h-50.5v2.8h50.5V385.8z"/>
	<path class="st0" d="M105.2,340.9H80.1v2.8h25.1V340.9z"/>
	<path class="st0" d="M120.4,340.9h-12.2v2.8h12.2V340.9z"/>
	<path class="st0" d="M74.1,340.9h-3.4v2.8h3.4V340.9z"/>
	<path class="st0" d="M163.8,340.9H126v2.8h37.8V340.9z"/>
	<path class="st5" d="M212.8,340.9h-44.9v2.8h44.9V340.9z"/>
	<path class="st0" d="M146.6,349.9H80.1v2.8h66.5V349.9z"/>
	<path class="st0" d="M74.1,349.9h-3.4v2.8h3.4V349.9z"/>
	<path class="st0" d="M199.2,349.9h-49.1v2.8h49.1V349.9z"/>
	<path class="st9" d="M114.2,358.9H80.1v2.8h34.1V358.9z"/>
	<path class="st0" d="M74.1,358.9h-3.4v2.8h3.4V358.9z"/>
	<path class="st0" d="M199.2,358.9h-65.1v2.8h65.1V358.9z"/>
	<path class="st0" d="M212.8,358.9h-8.8v2.8h8.8V358.9z"/>
	<path class="st0" d="M127.5,358.9h-8.8v2.8h8.8V358.9z"/>
	<path class="st7" d="M97.2,367.9H80.1v2.8h17.2V367.9z"/>
	<path class="st7" d="M131.9,367.9h-17.2v2.8h17.2V367.9z"/>
	<path class="st0" d="M74.1,367.9h-3.4v2.8h3.4V367.9z"/>
	<path class="st0" d="M182.7,367.9h-44.5v2.8h44.5V367.9z"/>
	<path class="st9" d="M212.8,367.9h-24.2v2.8h24.2V367.9z"/>
	<path class="st0" d="M110.7,367.9h-8.8v2.8h8.8V367.9z"/>
	<path class="st10" d="M15.9,142.3c3.5,0,6.4-2.9,6.4-6.4c0-3.5-2.9-6.4-6.4-6.4c-3.5,0-6.4,2.9-6.4,6.4
		C9.6,139.5,12.4,142.3,15.9,142.3z"/>
	<path class="st10" d="M336,25c3.5,0,6.4-2.9,6.4-6.4c0-3.5-2.9-6.4-6.4-6.4c-3.5,0-6.4,2.9-6.4,6.4C329.6,22.2,332.5,25,336,25z"/>
	<path class="st8" d="M424.4,134.2c0.1-1.1,0.2-2.2,0.2-3.3c0-19.3-15.7-35-35-35c-15.6,0-28.9,10.3-33.3,24.4
		c-0.8-0.1-1.6-0.1-2.5-0.1c-6.2,0-11.9,2.2-16.4,5.9c-5.1-2.9-11-4.6-17.3-4.6c-16.7,0-30.6,11.7-34.1,27.4c0,0,0,0,0,0
		c-2.1-0.6-4.4-0.9-6.7-0.9c-14.3,0-25.9,11.6-25.9,25.9c0,8.6,4.2,16.2,10.6,20.9h9.9h20.6h1.3H341h4.3c0.2-0.2,0.4-0.5,0.6-0.7
		c0.3,0.2,0.7,0.5,1,0.7h17.5h20.1h15.4H430h17.4c6.9-6.4,11.3-15.5,11.3-25.7C458.7,150.1,443.4,134.6,424.4,134.2z"/>
	<path class="st11" d="M348.6,170h-10.2l-1.6,4.8h-7l9.9-27.3h7.7l9.9,27.3h-7L348.6,170z M346.8,164.9l-3.4-10l-3.3,10H346.8z
		 M381.1,156.3c0,1.6-0.4,3-1.1,4.4c-0.7,1.3-1.8,2.3-3.3,3.2c-1.5,0.8-3.4,1.2-5.6,1.2h-4.1v9.8h-6.7v-27.3H371
		c2.2,0,4,0.4,5.5,1.1c1.5,0.8,2.6,1.8,3.4,3.1C380.7,153.1,381.1,154.6,381.1,156.3z M370.5,159.8c1.3,0,2.2-0.3,2.8-0.9
		c0.6-0.6,0.9-1.4,0.9-2.5c0-1.1-0.3-1.9-0.9-2.5c-0.6-0.6-1.6-0.9-2.8-0.9h-3.6v6.9H370.5z M391.2,147.5v27.3h-6.7v-27.3H391.2z"/>
	<path class="st7" d="M354.8,302.5h-5.4c-1-4.2-2.6-8.2-4.7-11.8l4-4c1.4-1.4,1.4-3.7,0-5.1l-8.7-8.7c-1.4-1.4-3.7-1.4-5.1,0
		l-3.8,3.8c-3.6-2.2-7.5-4-11.7-5v-5.6c0-2-1.6-3.6-3.6-3.6h-12.4c-2,0-3.6,1.6-3.6,3.6v5.4c-4.2,1-8.2,2.6-11.8,4.7l-4-4
		c-1.4-1.4-3.7-1.4-5.1,0l-8.7,8.7c-1.4,1.4-1.4,3.7,0,5.1l3.8,3.8c-2.3,3.6-4,7.5-5,11.7h-5.6c-2,0-3.6,1.6-3.6,3.6v12.4
		c0,2,1.6,3.6,3.6,3.6h5.4c0.9,4.2,2.6,8.2,4.7,11.8l-4,4c-1.4,1.4-1.4,3.7,0,5.1l8.7,8.7c1.4,1.4,3.7,1.4,5.1,0l3.8-3.8
		c3.6,2.2,7.5,4,11.7,5v5.6c0,2,1.6,3.6,3.6,3.6h12.4c2,0,3.6-1.6,3.6-3.6v-5.4c4.2-1,8.2-2.6,11.8-4.7l4,4c1.4,1.4,3.7,1.4,5.1,0
		l8.7-8.7c1.4-1.4,1.4-3.7,0-5.1l-3.8-3.8c2.3-3.6,4-7.5,5-11.7h5.6c2,0,3.6-1.6,3.6-3.6v-12.4C358.4,304.1,356.8,302.5,354.8,302.5
		z M309,337c-13.9,0-25.1-11.2-25.1-25.1s11.2-25.1,25.1-25.1c13.9,0,25.1,11.2,25.1,25.1S322.9,337,309,337z"/>
	<path class="st8" d="M440.5,305.7h-3.6c-0.6-2.8-1.7-5.5-3.2-7.9l2.7-2.7c0.9-0.9,0.9-2.5,0-3.4l-5.8-5.8c-0.9-0.9-2.5-0.9-3.4,0
		l-2.6,2.6c-2.4-1.5-5-2.6-7.8-3.3v-3.8c0-1.3-1.1-2.4-2.4-2.4h-8.2c-1.3,0-2.4,1.1-2.4,2.4v3.6c-2.8,0.6-5.5,1.7-7.9,3.2l-2.6-2.6
		c-0.9-0.9-2.5-0.9-3.4,0l-5.8,5.8c-0.9,0.9-0.9,2.5,0,3.4l2.6,2.6c-1.5,2.4-2.6,5-3.3,7.8h-3.8c-1.3,0-2.4,1.1-2.4,2.4v8.2
		c0,1.3,1.1,2.4,2.4,2.4h3.6c0.6,2.8,1.7,5.5,3.1,7.9l-2.7,2.7c-0.9,0.9-0.9,2.5,0,3.4l5.8,5.8c0.9,0.9,2.5,0.9,3.4,0l2.6-2.6
		c2.4,1.5,5,2.6,7.8,3.3v3.8c0,1.3,1.1,2.4,2.4,2.4h8.2c1.3,0,2.4-1.1,2.4-2.4v-3.6c2.8-0.6,5.5-1.7,7.9-3.2l2.7,2.7
		c0.9,0.9,2.5,0.9,3.4,0l5.8-5.8c0.9-0.9,0.9-2.5,0-3.4l-2.6-2.6c1.5-2.4,2.6-5,3.3-7.8h3.7c1.3,0,2.4-1.1,2.4-2.4v-8.2
		C442.9,306.7,441.9,305.7,440.5,305.7z M410,328.6c-9.2,0-16.7-7.5-16.7-16.7c0-9.2,7.5-16.7,16.7-16.7c9.2,0,16.7,7.5,16.7,16.7
		C426.8,321.1,419.3,328.6,410,328.6z"/>
	<path class="st12" d="M62.6,250c-16-2.9-11.4,13.5-11.3,27c1,21.5-8,47.1-0.3,51.7c20.6,11.3,30.6-67.8,25.3-72.6
		C73.8,254,67.9,251.7,62.6,250z"/>
	<path class="st12" d="M58.4,325.6c-13.2-14.1-27.2,59.7-27.4,81.2c-0.1,21.5,7.2,8.3,17-24.1C58,350.3,63.6,331.1,58.4,325.6z"/>
	<path class="st12" d="M29.1,404.3l-2.1,7.6l12.7,2.9l1.3-7.5L29.1,404.3z"/>
	<path class="st2" d="M40,414.7c0,0,1.4,5.1,8.1,12.8c6.7,7.7,9.1,6.8,8.8,9.1c-0.3,2.3-35.1-7-35.1-7l5.1-18.3
		C26.9,411.5,40.1,414.3,40,414.7z"/>
	<path class="st11" d="M26.8,404.3l16.5,4.5c0,0,0-0.1,0-0.2c0.6-1.8,6.1-18.5,12.6-39.4c3.1-9.9,6.3-20.7,9.3-31.3
		c2.2-7.8,4.3-15.4,6.1-22.6c1.2-4.8,2.3-9.4,3.2-13.5c8.3-37.9,5.1-51.8,5.1-51.8l-43.2,7.9l1.9,27.7l0.1,1.1l0.9,12.5l0.4,5.9
		l1.5,21.5L26.8,404.3z"/>
	<path class="st0" d="M37.9,298.8c0,0,0.7,2.3,1.9,6.2c3.5,12.1,11.3,39.9,16.1,64.2c3.1-9.9,6.3-20.7,9.3-31.3
		c-6-13.6-16.1-36.9-16.7-36.9c-0.7,0-6.4-1.3-9.2-1.9C38.5,298.9,37.9,298.8,37.9,298.8z"/>
	<path class="st12" d="M43,261.2c-15.6,4.7-3.8,17.1,2.7,29c11,18.5,15.1,45.3,24,45.9c23.6,0.6-4.7-73.9-11.7-75.8
		C54.8,259.5,48.4,260.2,43,261.2z"/>
	<path class="st12" d="M73.9,324.9c-17.2-9.1-5.8,65.1,1.2,85.4c8.4,24.2,9.7,9.6,8.1-28.2C81.8,348.4,80.7,328.5,73.9,324.9z"/>
	<path class="st12" d="M72.1,408l2,12.4l13-1.3l-1.7-12.4L72.1,408z"/>
	<path class="st2" d="M87.2,419c0,0,3.1,4.4,12,9.5c8.9,5.1,10.9,3.5,11.3,5.8C111,436.5,75,439,75,439l-1.3-18.9
		C73.8,420.1,87.2,418.5,87.2,419z"/>
	<path class="st11" d="M32.4,259.8c0,0-4.8,12.3,1.6,29.5c7.3,19.6,23.5,48.2,23.5,48.2l13.1,73l17.4-2.6c0,0-3.9-75-5.9-86.7
		c-2-11.7-12.5-61-12.5-61L32.4,259.8z"/>
	<path class="st13" d="M75.9,182.4c9.6-0.1,28.9,47.1,22.3,48.3C89.5,237.4,60.6,185.6,75.9,182.4z"/>
	<path class="st7" d="M80,183.6c0,0,6.4,4.9,14.6,23.7l-16.3,12L67,206.4L80,183.6z"/>
	<path class="st13" d="M52.2,183.3l7.9,5.9l5.6-5l0-7.5l-11.2-8.7l-0.2,1.3l-0.6,4L52.2,183.3z"/>
	<g class="st14">
		<path class="st13" d="M54.1,170.6c3.1,6.1,10.2,9,11.6,9.4l0-1.6l-10.5-9.2c0,0-0.4,0-1,0L54.1,170.6z"/>
	</g>
	<path class="st13" d="M53.5,169.5c0,0,2.1,4.6,6.9,6.9c2.3,1.1,4.8,2.6,7.5,2c2.3-0.5,3.5-2.8,4.5-4.7c0.9-1.9,1.4-4,1.4-6
		c0-2.3-0.1-4.4,0.3-6.6c0.4-1.8,0.9-3.9-0.1-5.6c-1.4-2.1-12-4.7-12-4.7l-6.2,3.5l-4.7,3.1L53.5,169.5z"/>
	<path class="st1" d="M71.7,164.4c0,0.7-0.3,1.2-0.8,1.2c-0.4,0-0.7-0.5-0.7-1.2c0-0.3,0.1-0.6,0.2-0.8c0.1-0.2,0.3-0.3,0.5-0.3
		C71.4,163.2,71.8,163.7,71.7,164.4z"/>
	<path class="st1" d="M64.4,164.8c0,0.7-0.4,1.2-0.8,1.2c-0.5,0-0.8-0.5-0.8-1.2c0-0.3,0.1-0.6,0.3-0.8c0.2-0.2,0.4-0.3,0.6-0.3
		C64,163.6,64.4,164.2,64.4,164.8z"/>
	<path class="st1" d="M62.5,161.8C62.5,161.8,62.5,161.8,62.5,161.8l2.8-0.3c0.1,0,0.2-0.1,0.2-0.2c0-0.1-0.1-0.2-0.2-0.2l-2.8,0.3
		c-0.1,0-0.2,0.1-0.2,0.2C62.3,161.7,62.4,161.8,62.5,161.8z"/>
	<path class="st1" d="M70.1,161.4C70.1,161.4,70.1,161.4,70.1,161.4l2.2,0c0.1,0,0.2-0.1,0.2-0.2c0-0.1-0.1-0.2-0.2-0.2l-2.2,0
		c-0.1,0-0.2,0.1-0.2,0.2C69.9,161.3,70,161.4,70.1,161.4z"/>
	<path class="st1" d="M67.9,169c0.8,0,1.3-0.2,1.5-0.6c0.3-0.6-0.3-1.3-0.5-1.5c-0.3-0.4-1.1-1.9-1.2-1.9c-0.1-0.1-0.2-0.1-0.3-0.1
		c-0.1,0.1-0.1,0.2-0.1,0.3c0,0.1,0.9,1.5,1.2,2c0.5,0.6,0.5,0.9,0.4,1.1c-0.1,0.2-0.5,0.4-1.1,0.4c-0.1,0-0.2,0.1-0.2,0.2
		C67.7,168.9,67.8,169,67.9,169z"/>
	<path class="st1" d="M64.9,171c0,0,0.2,0.2,0.6,0.5c0.6,0.4,1.5,0.9,2.5,1c0.8,0,1.5-0.7,1.9-1.2c0.1-0.2,0.2-0.3,0.2-0.3
		s-0.5,0-1.2,0.1c-0.7,0-1.8,0.1-2.6,0C65.8,171.1,65.3,171.1,64.9,171z"/>
	<path class="st11" d="M64.9,171c0,0,0.2,0.2,0.6,0.5c2.2,0.4,3.9,0,4.4-0.2c0.1-0.2,0.2-0.3,0.2-0.3s-0.5,0-1.2,0.1
		c-0.7,0-1.8,0.1-2.6,0C65.8,171.1,65.3,171.1,64.9,171z"/>
	<path class="st1" d="M67.6,157.1c0,0-0.3,1.7-2,2.4c0,0,3.3,0.4,5.2-1.1c0,0-0.9,1.4-1.7,1.7c0,0,4.1,0.2,5.4-1.3l-0.5,2.6
		c0,0,2.4-2.4,2.4-5.3c0-2-0.9-3.9-1.6-5.9c-0.4-1.3-1-2.7-2.2-3.3c-3.3-1.7-7.3-1.4-10.7-0.6c-2.8,0.7-5.6,1.7-7.9,3.5
		c-5.9,4.9-3.6,15.8,0.3,21.2c0,0,0.5-5,0.6-6.5c0.1-1.5,1.5-1.9,1.4-1.2c0,0.7,0.1,4.3,0.8,4.3c0.8,0,1.1-6.3,2.9-7.6
		C61.9,158.7,66.1,158.3,67.6,157.1z"/>
	<path class="st7" d="M30.7,261.3l50.9,0.7c-0.8-10.6,2.1-45.5,2.4-55c0,0,0,0,0,0c0-0.3,0-0.7,0-1c0.3-7.7,0.2-13.9-0.4-16.3
		c-0.9-3.2-2.4-5.6-5.4-7.4c-3.2-1.9-7.7-2.7-11.4-2.9c-1.5,8.3-13,0.2-13,0.2s-2.7,0.3-4.7,0.4c-4.6,0.3-12.6,1.9-14.2,8.8
		c-0.8,3.3-1.6,12-2.5,21.8c-0.5,5.5-1,11.5-1.6,17C30.5,231,31,258.5,30.7,261.3z"/>
	<path class="st15" d="M105.2,237.8l-48.2-0.5l0,2.4l48.2,0.5L105.2,237.8z"/>
	<path class="st16" d="M117.7,240.3l-44.9-0.4l13-30.5l44.9,0.5L117.7,240.3z"/>
	<path class="st2" d="M119,240.3l-44.9-0.4l13-30.5l44.9,0.5L119,240.3z"/>
	<path class="st0" d="M106.6,226.4c0.8-2,0.4-4.1-0.9-4.6c-1.3-0.6-3.1,0.6-3.9,2.6c-0.8,2-0.4,4.1,0.9,4.6
		C104,229.6,105.8,228.4,106.6,226.4z"/>
	<path class="st11" d="M65.7,178.6l-2.3,4.2l2.4,1.9l1.9-5.2"/>
	<path class="st11" d="M63.4,182.8L53,177.4l-2,2.6l10.9,5.8L63.4,182.8z"/>
	<path class="st17" d="M43.7,198.9c0,0-7.1,20.1-7.9,22.5c-0.8,2.4-0.3,4.4,3.3,5.9c3.6,1.5-5.6,4.3-5.8,3.8
		c-0.2-0.5-12.2-10.9-11.5-11.5C22.5,219,43.7,198.9,43.7,198.9z"/>
	<path class="st13" d="M40.4,185.7c6.4,7.1-16.7,53.7-22.1,49.6C7.6,233.2,27.8,176.4,40.4,185.7z"/>
	<path class="st13" d="M19.6,209.5c0,0-7.6,19.4-4.3,23.7c3.3,4.3,35.2,6.6,35.2,6.6l1.3-8.7c0,0-22.1-5.3-22.2-5.6
		c-0.1-0.3,5.3-9.9,5.3-9.9L19.6,209.5z"/>
	<path class="st13" d="M14.7,231c0,1.5,1,2.9,2.3,3.7c10.4,5.9,56.4,6.4,55.1,3.2C72.1,235.4,14.5,219.5,14.7,231z"/>
	<path class="st13" d="M66.5,232.6l-35.8-7.5l4-9.2l-15.4-6.1l-3.1,21.1l22.1,8.3l29.4,0.5v-7L66.5,232.6z"/>
	<path class="st13" d="M82,240.1l-1.5,0.6c-2.2,0.5-3.8,1.3-6,0.9l-0.8-0.2l-5.9-1.9l-0.3-6.4l-0.9-0.5l1.9-1.4l0,0l3.4-2.3
		c0.9-0.6,1.9-1,2.9-1.1l4.6,0.6c0,0,0.9,1.1-1.7,1.4c-0.7,0.1-1.5,0.8-2.2,1.4l1.2,0l1.4,0l5.8,0.2C85.3,231.6,84.9,239.2,82,240.1
		z"/>
	<path class="st7" d="M35.3,216.7c3.2-6,7.3-13.9,8.4-17.8c0,0,7.1-14.8,1.7-17.2c-0.7-0.3-2.2-0.8-3-0.7
		c-5.5,1.4-11.1,5.3-14.9,10.9c-2.5,3.7-5.9,10.5-8.7,17.6c0,0,0,0,0,0L35.3,216.7z"/>
	<path class="st13" d="M101.8,240c0,0,3.4,3.3,7,3.4c3.6,0.1,5.1-3.3,5.1-3.3s-1.3-2.2-5.2-2.3C104.4,237.7,101.8,240,101.8,240z"/>
	<path class="st1" d="M482.5,439.3H0v6.4h482.5V439.3z"/>
	<path class="st7" d="M496.3,335.5h-38.9c-2,0-3.7-1.7-3.7-3.7V298c0-2,1.7-3.7,3.7-3.7h38.9c2,0,3.7,1.7,3.7,3.7v33.8
		C500,333.8,498.3,335.5,496.3,335.5z"/>
	<path class="st11" d="M469.6,323.3l-8.5-5.9v-3.5l8.5-5.9v3.9l-5.3,3.7l5.3,3.8V323.3z"/>
	<path class="st11" d="M472.3,326l6.7-22.1h2.4l-6.7,22.1H472.3z"/>
	<path class="st11" d="M484.2,323.3v-3.9l5.3-3.8l-5.3-3.7V308l8.5,5.9v3.5L484.2,323.3z"/>
	<path class="st7" d="M351.6,85.8c12.3,0,22.3-10,22.3-22.3s-10-22.3-22.3-22.3c-12.3,0-22.3,10-22.3,22.3S339.3,85.8,351.6,85.8z"
		/>
	<path class="st11" d="M361.2,63.5l-15.6-9v18L361.2,63.5z"/>
	<path class="st3" d="M121.8,75.6H66c-1,0-1.8-0.8-1.8-1.8V39.7c0-1,0.8-1.8,1.8-1.8h55.7c1,0,1.8,0.8,1.8,1.8v34.1
		C123.5,74.8,122.7,75.6,121.8,75.6z"/>
	<path class="st11" d="M68.4,64.3l4.6-4.6c2.9-2.9,7.5-2.9,10.4,0l3.3,3.3c0.2,0.2,0.5,0.2,0.7,0L99.4,51c2-2,5.2-2,7.2,0l12.8,12.8
		c0.1,0.1,0.1,0.2,0.1,0.3v7.7c0,0.3-0.2,0.5-0.5,0.5H68.7c-0.3,0-0.5-0.2-0.5-0.5v-7.2C68.3,64.5,68.3,64.4,68.4,64.3z"/>
	<path class="st11" d="M78,55.3c1.7,0,3-1.4,3-3c0-1.7-1.4-3-3-3s-3,1.4-3,3C75,53.9,76.3,55.3,78,55.3z"/>
</g>
</svg>
