<?xml version="1.0" encoding="utf-8"?>
<!-- Generator: Adobe Illustrator 27.0.0, SVG Export Plug-In . SVG Version: 6.00 Build 0)  -->
<svg version="1.1" id="Layer_1" xmlns="http://www.w3.org/2000/svg" xmlns:xlink="http://www.w3.org/1999/xlink" x="0px" y="0px"
	 viewBox="0 0 640 500" style="enable-background:new 0 0 640 500;" xml:space="preserve">
<style type="text/css">
	.st0{fill:#36383D;}
	.st1{fill:#A0A7BF;}
	.st2{fill:#454852;}
	.st3{fill:#1E2124;}
	.st4{fill:#EBF0FA;}
	.st5{fill:#FFBFA3;}
	.st6{fill:#111214;}
	.st7{fill:#FFB03B;}
	.st8{fill:url(#SVGID_1_);}
	.st9{fill:url(#SVGID_00000022536374492911712980000003025245930222723507_);}
	.st10{fill:#CACCE8;}
	.st11{fill:#9DA1CC;}
	.st12{fill:#FFFFFF;}
	.st13{fill:url(#SVGID_00000039095266356270626460000012474958056133485495_);}
	.st14{fill:url(#SVGID_00000082330077759734287580000010810396517853548468_);}
	.st15{fill:#FFD1BD;}
	.st16{fill:#A9B0BF;}
	.st17{fill:url(#SVGID_00000049924852634618936730000003176837390498054280_);}
	.st18{fill:url(#SVGID_00000080903735420484678550000014876818911400893618_);}
	.st19{fill:url(#SVGID_00000087372944151106127620000012305989139872423555_);}
	.st20{fill:#D1D7ED;}
	.st21{fill:url(#SVGID_00000110444532193909593950000016005622701297446284_);}
	.st22{fill:#FFCE3B;}
	.st23{fill:#2B2D33;}
	.st24{fill:url(#SVGID_00000043444673410152683770000000146608868606120886_);}
	.st25{fill:url(#SVGID_00000117638325520733749690000015877010620332360352_);}
	.st26{fill:url(#SVGID_00000049900084910035105520000005196296642750480770_);}
	.st27{fill:#121729;}
	.st28{fill:#717687;}
	.st29{fill:#5A5E6B;}
	.st30{fill:url(#SVGID_00000008850475391192402340000008201445840617425537_);}
	.st31{fill:url(#SVGID_00000047739237890360992060000012494570338455795097_);}
	.st32{fill:url(#SVGID_00000047739355846013148570000014549376968400145829_);}
	.st33{fill:url(#SVGID_00000182515317329854924950000003313793006084424636_);}
	.st34{fill:url(#SVGID_00000147212751606757901390000017790968772516166817_);}
	.st35{fill:url(#SVGID_00000178198640786383335970000000176789428133416086_);}
</style>
<g>
	<path class="st0" d="M520.4,230c-1.6-0.2-2.8-0.6-3.6-1.2c-0.3-0.2-1-0.7-1.2-4.9c-0.2-4.6,0.2-12.4,2.2-20.5
		c1.6-6.5,4.8-15.6,10.9-21.3c6.9-6.5,11.5-9.2,15.1-11.4c3.6-2.2,6.5-3.9,10.4-8.5c4.3-5.1,15.2-16.9,23.9-17.3
		c2.4-0.1,4.5,0.7,6.2,2.3c6.4,6.3,3.7,11.9,1,17.4c-0.6,1.2-1.2,2.5-1.7,3.7c-0.6,1.4-1.1,3-1.7,4.7c-2.3,6.5-5.3,14.6-10,18.2
		c-1.9,1.4-3.7,2.5-5.6,3.5c-4,2.2-7.4,4.2-9.7,9.3c-0.7,1.6-1.3,3.4-1.9,5.1c-2.2,6.5-4.5,13.1-14.9,17.2
		C531.2,229.6,524.5,230.5,520.4,230z M517.8,227.6c1.4,1,8,2.5,21.4-2.8c9.7-3.8,11.8-9.8,14-16.2c0.6-1.7,1.2-3.5,2-5.2
		c2.5-5.6,6.3-7.7,10.4-10c1.8-1,3.6-2,5.4-3.4c4.4-3.4,7.2-11.2,9.5-17.5c0.6-1.7,1.2-3.3,1.8-4.7c0.5-1.3,1.1-2.6,1.7-3.8
		c2.6-5.4,4.9-10.1-0.7-15.5c-1.4-1.4-3-2-5.1-1.9c-8.3,0.4-19.5,12.9-22.8,16.7c-4,4.7-7,6.5-10.8,8.8c-3.6,2.2-8,4.8-14.9,11.2
		c-7.5,7-10.5,19.3-11.6,26C516.6,219.3,517.2,226.7,517.8,227.6z"/>
	<path class="st0" d="M509.4,236.6c-0.3,0.1-0.6,0-0.8-0.2c-0.4-0.3-0.4-0.9-0.1-1.3c0.3-0.3,31.8-34.5,38-45.2
		c6.3-10.9,30.1-35.3,31.1-36.4c0.4-0.4,0.9-0.4,1.3,0c0.4,0.3,0.4,0.9,0,1.3c-0.2,0.3-24.6,25.3-30.8,36
		c-6.3,10.9-36.9,44.1-38.2,45.5C509.7,236.4,509.6,236.5,509.4,236.6z"/>
	<path class="st0" d="M565.8,168.6c-0.5,0.1-0.9-0.2-1.1-0.7c-0.1-0.5,0.2-1,0.6-1.1l14.1-3.7c0.5-0.1,1,0.2,1.1,0.6
		c0.1,0.5-0.2,1-0.6,1.1L565.8,168.6C565.8,168.6,565.8,168.6,565.8,168.6z"/>
	<path class="st0" d="M576.5,173.5C576.5,173.5,576.5,173.5,576.5,173.5l-17.9,3.2c-0.5,0.1-1-0.2-1-0.7c-0.1-0.5,0.2-1,0.7-1
		l17.9-3.2c0.5-0.1,1,0.2,1,0.7C577.3,173,577,173.4,576.5,173.5z"/>
	<path class="st0" d="M560.9,174c-0.1,0-0.2,0-0.3,0c-0.5-0.1-0.9-0.5-0.8-1l1.7-15c0.1-0.5,0.5-0.9,1-0.8c0.5,0.1,0.9,0.5,0.8,1
		l-1.7,15C561.6,173.6,561.3,173.9,560.9,174z"/>
	<path class="st0" d="M571.5,187C571.5,187,571.4,187,571.5,187l-23.3,3c-0.5,0.1-0.9-0.3-1-0.8c-0.1-0.5,0.3-0.9,0.8-1l23.2-3
		c0.5-0.1,0.9,0.3,1,0.8C572.2,186.5,571.9,186.9,571.5,187z"/>
	<path class="st0" d="M538.1,203.8c-0.5,0.1-1-0.2-1.1-0.7c-0.1-0.5,0.2-1,0.7-1.1l15.6-3.5c0.5-0.1,1,0.2,1.1,0.7
		c0.1,0.5-0.2,1-0.7,1.1L538.1,203.8z"/>
	<path class="st0" d="M119.4,267c-1.8,0-3.7-0.2-5.5-0.7c-4.8-1.2-8.8-3.9-11.1-7.7c-4.8-7.8-26.3-14.9-36.7-18.3
		c-9.4-3.1-11.4-10.8-13.5-19c-0.7-2.6-1.4-5.3-2.3-7.8c-1.4-3.8-5.4-7.5-9.6-11.6c-3.6-3.4-7.2-6.9-9.5-10.5c-2.7-4.3-3-8.2-1-12
		c6.2-12.1,33.4-3.2,49.1,3.2c6.8,2.8,14.9,11.6,22,19.4c2.7,2.9,5.2,5.7,7.3,7.7c2.8,2.7,6.5,5,10.3,7.4
		c6.2,3.9,13.2,8.2,18.5,15.5c3.6,5,4.6,11.2,2.8,17.5c-2.1,7.1-7.7,13.3-14.2,15.8C124,266.6,121.7,267,119.4,267z M43.4,174.9
		c-6.1,0-10.1,1.7-11.9,5.1c-3.8,7.4,3.3,14.1,10.2,20.7c4.4,4.1,8.5,8.1,10,12.2c1,2.6,1.7,5.4,2.4,8c2.1,8.1,3.9,15.1,12.5,17.9
		c11.3,3.7,32.5,10.7,37.6,19c4.7,7.6,15.5,8.7,21.1,6.6c6.1-2.3,11.3-8.1,13.2-14.8c1.7-5.8,0.8-11.5-2.5-16.1
		c-5.1-7.1-12-11.3-18-15.1c-3.9-2.4-7.6-4.8-10.6-7.6c-2.1-2-4.7-4.8-7.4-7.8c-6.7-7.3-14.9-16.4-21.5-19
		c-9.2-3.8-17.9-6.5-24.9-7.9C49.8,175.3,46.3,174.9,43.4,174.9z"/>
	<path class="st0" d="M37.8,181.3c0.2-0.4,0.8-0.5,1.2-0.3c2.1,1.2,51.6,30.7,66.3,47.5c11.1,12.6,26,28.9,32.7,36.2
		c-0.5,0.3-1,0.6-1.4,1c-6.8-7.4-21.6-23.6-32.6-36.1c-14.6-16.6-65.4-46.8-65.9-47.2C37.7,182.2,37.5,181.7,37.8,181.3z"/>
	<path class="st0" d="M69.5,202.2C69.5,202.2,69.4,202.2,69.5,202.2l-24-3c-0.5-0.1-0.8-0.5-0.7-1c0.1-0.5,0.5-0.8,1-0.7l22.2,2.8
		l-9.6-17.4c-0.2-0.4-0.1-0.9,0.3-1.2c0.4-0.2,0.9-0.1,1.2,0.3L70.3,201c0.2,0.3,0.1,0.6,0,0.9C70.1,202.1,69.8,202.2,69.5,202.2z"
		/>
	<path class="st0" d="M84.2,212.5c-0.3,0-0.6-0.2-0.8-0.5l-9.8-25.1c-0.2-0.4,0-0.9,0.5-1.1c0.4-0.2,0.9,0,1.1,0.5l9.8,25.1
		c0.2,0.4,0,0.9-0.5,1.1C84.4,212.5,84.3,212.5,84.2,212.5z"/>
	<path class="st0" d="M61.9,220.5c-0.5,0-0.8-0.4-0.8-0.9c0-0.5,0.4-0.8,0.9-0.8l33.9,1.1c0,0,0,0,0,0c0.5,0,0.8,0.4,0.8,0.9
		c0,0.5-0.4,0.8-0.9,0.8L61.9,220.5C61.9,220.5,61.9,220.5,61.9,220.5z"/>
	<path class="st0" d="M107,232.6l-30.8-1.2c-0.5,0-0.8-0.4-0.8-0.9c0-0.5,0.4-0.8,0.9-0.8l30.8,1.2c0.5,0,0.8,0.4,0.8,0.9
		C107.8,232.2,107.4,232.6,107,232.6z"/>
	<path class="st0" d="M516.8,297.9c-0.1,0-0.3,0-0.4-0.1c-0.3-0.1-0.5-0.4-0.5-0.8c0-0.1-0.4-11.4,1.1-24.2c2.1-17.4,6.5-29.1,13-35
		c10.3-9.1,18.5-10.6,24.5-11.6c3.2-0.6,5.7-1,7.7-2.4c2-1.4,4.2-4.2,6.8-7.4c5-6.2,11.8-14.8,22.2-19.1c7.5-3.1,18-5.2,27.3-5.5
		c6-0.2,16.4,0.3,18.6,5.4c1.9,4.3,1.1,12.1-2,19c-3.1,6.9-8,11.8-13.8,13.7c-5,1.6-9.7,2.1-13.9,2.5c-7.1,0.7-12.2,1.2-14.6,6.7
		c-1.2,2.8-1.9,6.5-2.5,10.4c-1.6,9.1-3.4,19.5-13,25.6c-8.5,5.4-17,6.6-25.2,7.9c-5,0.8-9.8,1.5-14.5,3.1
		c-12.1,4.2-20.3,11.5-20.4,11.5C517.2,297.8,517,297.9,516.8,297.9z M531.3,239.1c-13.2,11.7-13.7,47.5-13.6,56
		c2.9-2.3,10-7.4,19.6-10.7c4.8-1.7,9.7-2.4,14.8-3.2c8-1.2,16.3-2.5,24.5-7.6c8.9-5.7,10.7-15.6,12.2-24.4c0.7-4,1.4-7.8,2.7-10.8
		c2.8-6.5,8.9-7.1,16.1-7.8c4.1-0.4,8.7-0.9,13.5-2.4c5.3-1.7,9.8-6.2,12.7-12.7c2.8-6.3,3.7-13.7,2-17.5c-1.3-2.9-7.8-4.6-16.9-4.3
		c-9.1,0.2-19.3,2.3-26.7,5.3c-10,4.1-16.4,12.1-21.5,18.6c-2.7,3.3-4.9,6.2-7.2,7.7c-2.3,1.6-5.1,2.1-8.4,2.7
		C548.8,229,541.1,230.4,531.3,239.1z"/>
	<path class="st0" d="M515,297.8c9-12.9,30.9-43.4,45.2-57.3c18.4-17.8,60.8-39.2,61.2-39.5c0.5-0.3,1.1-0.1,1.4,0.5
		c0.3,0.5,0.1,1.1-0.5,1.4c-0.4,0.2-42.5,21.5-60.7,39.1c-14.3,13.9-36.2,44.5-45.1,57.2C516.1,298.6,515.6,298.1,515,297.8z"/>
	<path class="st0" d="M619.1,214.5c0,0-0.1,0-0.1,0l-18.5,0.2c-0.6,0-1-0.5-1.1-1c0-0.6,0.5-1.1,1-1.1l18.5-0.2c0.6,0,1,0.5,1.1,1
		C620,214,619.6,214.4,619.1,214.5z"/>
	<path class="st0" d="M583.4,225.2c-0.1,0-0.3,0-0.4,0c-0.6-0.2-0.9-0.7-0.7-1.3l5.4-17.7c0.2-0.6,0.7-0.9,1.3-0.7
		c0.6,0.2,0.9,0.7,0.7,1.3l-5.4,17.7C584.1,224.9,583.8,225.2,583.4,225.2z"/>
	<path class="st0" d="M558.6,244.8c-0.5,0.1-1-0.3-1.2-0.8c-0.1-0.6,0.2-1.1,0.8-1.2c10.6-2.3,27.8-6.1,29.2-6.9
		c0.5-0.3,1.1-0.1,1.4,0.4c0.3,0.5,0.1,1.1-0.4,1.4C586.3,238.8,561.5,244.1,558.6,244.8C558.6,244.7,558.6,244.8,558.6,244.8z"/>
	<path class="st0" d="M573.7,256.7C573.7,256.7,573.7,256.7,573.7,256.7l-26.7,1.1c-0.3,0-0.6-0.1-0.8-0.3c-0.2-0.2-0.3-0.5-0.3-0.9
		l3.5-22.7c0.1-0.6,0.6-1,1.2-0.9c0.6,0.1,1,0.6,0.9,1.2l-3.3,21.5l25.4-1.1c0.6,0,1.1,0.4,1.1,1
		C574.7,256.2,574.3,256.6,573.7,256.7z"/>
	<path class="st0" d="M560.4,272.5c0,0-0.1,0-0.1,0l-25.1,0.3c-0.6,0-1-0.5-1.1-1c0-0.6,0.4-1.1,1-1.1l25.1-0.3c0.6,0,1,0.5,1.1,1
		C561.3,272,560.9,272.4,560.4,272.5z"/>
	<path class="st1" d="M449.1,151.2c0,0,2.8-11,5.7-13.7c2.9-2.6,7.3-5.3,10.8-1.4c3.5,3.9,0,8-2.6,10.4
		C460.3,149,449.1,151.2,449.1,151.2z"/>
	<path class="st2" d="M443.7,159.5c0,0,7.9-5.8,11.4-6.2c3.5-0.4,8.1-0.1,8.5,3.9c0.5,4-4.2,5.1-7.5,5.5
		C452.9,163.1,443.7,159.5,443.7,159.5z"/>
	<path class="st0" d="M444.7,158.5l-0.7-0.8c-0.3-0.3-6.7-7.4-7.5-10.9c-1.2-5.4,0-8.8,3.4-9.6c2-0.4,3.7,0.3,4.9,2.1
		c0.8,1.2,1.5,2.9,2,5.1c0.7,3.3-1.7,12.6-1.8,13L444.7,158.5z M440.9,138.2c-0.3,0-0.6,0-0.8,0.1c-3.5,0.8-3.3,4.9-2.5,8.2
		c0.6,2.6,4.8,7.6,6.6,9.6c0.6-2.5,2.1-9,1.6-11.4c-0.5-2.1-1.1-3.6-1.8-4.7C443,138.8,442.1,138.2,440.9,138.2z"/>
	<path class="st3" d="M438.7,172.1c-0.1,0-0.1,0-0.2,0c-0.3-0.1-0.5-0.5-0.4-0.8c7.3-19.5,15.5-26.9,22.7-32.3
		c0.3-0.2,0.7-0.2,0.9,0.1c0.2,0.3,0.2,0.7-0.1,0.9c-7,5.3-15.1,12.6-22.3,31.7C439.2,172,438.9,172.2,438.7,172.1z"/>
	<path class="st3" d="M458.8,157.8c0,0.3-0.3,0.5-0.6,0.6c-8,0.1-13.6,1.6-13.6,1.6c-0.3,0.1-0.7-0.1-0.8-0.4s0.1-0.7,0.4-0.8
		c0.2-0.1,5.8-1.5,13.9-1.7C458.6,157.1,458.8,157.3,458.8,157.8C458.8,157.7,458.8,157.7,458.8,157.8z"/>
	<path class="st0" d="M90.1,165.9c-3.7,0-9.6-0.2-11.8-1.4c-6.9-3.8-6.6-7.7-5.2-10.3c2.1-3.9,6.3-4.3,11.6-1.4
		c3.5,2,8.7,11.8,8.9,12.2c0.1,0.2,0.1,0.4,0,0.5c-0.1,0.2-0.3,0.3-0.5,0.3C93.1,165.8,91.9,165.9,90.1,165.9z M78.6,152
		c-1.7,0-3.4,0.7-4.5,2.7c-1.7,3.1-0.2,6,4.8,8.7c2.5,1.4,10.6,1.3,13.4,1.3c-1.3-2.4-5.4-9.4-8-10.9C82.5,152.8,80.5,152,78.6,152z
		"/>
	<path class="st2" d="M99,170.8c0,0-9.5-2.4-12.9-1.4c-3.4,1-7.5,3-6.4,6.9c1.1,3.9,5.9,3.1,9,2.2C91.8,177.6,99,170.8,99,170.8z"/>
	<path class="st1" d="M108.9,182c0,0-9-3.8-12.5-3.4c-3.5,0.4-7.9,1.8-7.4,5.8c0.5,4,5.3,4,8.5,3.6C100.7,187.6,108.9,182,108.9,182
		z"/>
	<path class="st1" d="M98.6,170.5c0,0,5.3-8.2,5.5-11.7c0.2-3.5-0.3-8.1-4.4-8.3c-4-0.2-4.9,4.5-5,7.7
		C94.5,161.5,98.6,170.5,98.6,170.5z"/>
	<path class="st1" d="M107.5,183.5l-0.3-1c-0.1-0.4-2.9-9.6-2.3-12.9c1.1-5.6,3.3-8.1,6.7-7.5c2,0.4,3.3,1.7,3.8,3.8
		c0.4,1.5,0.3,3.4-0.1,5.6c-0.7,3.6-6.9,10.8-7.1,11.2L107.5,183.5z M110.7,163.2c-2.2,0-3.8,2.2-4.6,6.7c-0.5,2.4,1.3,8.9,2,11.4
		c1.6-2,5.7-7.2,6.2-9.8c0.4-2.1,0.4-3.8,0.1-5.2c-0.4-1.7-1.4-2.7-2.9-3C111.1,163.2,110.9,163.2,110.7,163.2z"/>
	<path class="st3" d="M108.2,183.2c0.1,0,0.1,0,0.2-0.1c0.3-0.2,0.4-0.6,0.2-0.9C96.9,165,87.2,159.7,79,156.1
		c-0.3-0.1-0.7,0-0.8,0.3c-0.1,0.3,0,0.7,0.3,0.8c8,3.5,17.6,8.7,29,25.7C107.7,183.1,107.9,183.2,108.2,183.2z"/>
	<path class="st3" d="M84.3,175c0.1,0.3,0.5,0.4,0.8,0.3c7.4-2.9,13.1-3.7,13.2-3.7c0.3,0,0.6-0.4,0.5-0.7c0-0.3-0.4-0.6-0.7-0.5
		c-0.2,0-5.9,0.8-13.5,3.8C84.3,174.2,84.1,174.6,84.3,175C84.3,174.9,84.3,174.9,84.3,175z"/>
	<path class="st3" d="M92.9,183.9c0.1,0.3,0.4,0.5,0.7,0.4c7.8-1.8,13.5-1.7,13.6-1.7c0.3,0,0.6-0.3,0.6-0.6c0-0.3-0.3-0.6-0.6-0.6
		c-0.2,0-6-0.1-13.9,1.7C93,183.1,92.8,183.5,92.9,183.9C92.9,183.8,92.9,183.8,92.9,183.9z"/>
	<path class="st3" d="M98.9,170.4c0.3,0,0.5-0.3,0.5-0.6c-0.2-8,1-13.6,1-13.7c0.1-0.3-0.1-0.7-0.5-0.7c-0.3-0.1-0.7,0.1-0.7,0.5
		c-0.1,0.2-1.3,5.9-1,14C98.2,170.1,98.5,170.4,98.9,170.4C98.8,170.4,98.9,170.4,98.9,170.4z"/>
	<path class="st1" d="M521.1,149.1c0,0,1.1-13,3.9-16.6c2.8-3.5,7.3-7.4,12.1-3.6c4.7,3.7,1.5,9.1-1.1,12.3
		C533.4,144.4,521.1,149.1,521.1,149.1z"/>
	<path class="st0" d="M536.8,163.1c-1.5,0.7-3.5,1.2-6,1.6c-4.1,0.5-15.5-3.7-15.9-3.8l-1-0.4l0.8-0.6c0.4-0.3,10-7.5,14.5-8.1
		c2.8-0.4,5.2-0.3,7,0.3c2.6,0.8,4.1,2.5,4.4,5c0.3,2.5-0.8,4.4-3.2,5.8C537.2,162.9,537,163,536.8,163.1z M516.2,160.1
		c2.9,1,11.2,3.8,14.4,3.4c2.7-0.3,4.7-0.9,6.2-1.7c2-1.1,2.8-2.6,2.6-4.6c-0.3-2-1.4-3.4-3.6-4c-1.7-0.5-3.9-0.6-6.5-0.3
		C525.8,153.3,518.7,158.3,516.2,160.1z"/>
	<path class="st2" d="M514.8,159.7c0,0-9.3-6.9-10.9-10.7c-1.7-3.8-2.9-9.1,1.5-11c4.4-1.9,7.2,3,8.8,6.5
		C515.6,148,514.8,159.7,514.8,159.7z"/>
	<path class="st3" d="M514.2,161.5c-0.2,0-0.3-0.1-0.4-0.3c-0.2-0.3-0.2-0.7,0.1-0.9c6.1-4.6,19.7-4,20.3-4c0.4,0,0.7,0.3,0.6,0.7
		s-0.3,0.7-0.7,0.6c-0.1,0-13.7-0.6-19.4,3.7C514.5,161.5,514.4,161.5,514.2,161.5z"/>
	<path class="st3" d="M504,185c0,0-0.1,0-0.1,0c-0.4-0.1-0.5-0.5-0.4-0.9c6.4-19.5,12.6-28.7,17.2-35.4c0.8-1.2,1.5-2.3,2.2-3.3
		c4.6-7.1,7.5-11.2,10.6-13.8c0.3-0.2,0.7-0.2,0.9,0.1c0.2,0.3,0.2,0.7-0.1,0.9c-3,2.5-5.9,6.5-10.4,13.5c-0.7,1.1-1.4,2.2-2.2,3.3
		c-4.5,6.6-10.6,15.7-17,35C504.6,184.8,504.3,185,504,185z"/>
	<path class="st3" d="M513.9,161.4c-0.3,0-0.5-0.3-0.6-0.6c-1.4-9.3-6.5-17-6.6-17c-0.2-0.3-0.1-0.7,0.2-0.9
		c0.3-0.2,0.7-0.1,0.9,0.2c0.2,0.3,5.3,8,6.8,17.6c0.1,0.4-0.2,0.7-0.6,0.8C514.1,161.4,514,161.4,513.9,161.4z"/>
	<path class="st3" d="M506.4,178.4c-0.2,0-0.3-0.1-0.4-0.3c-0.2-0.3-0.2-0.7,0.1-0.9c4.4-3.2,17.3-3.7,17.8-3.7
		c0.4,0,0.7,0.3,0.7,0.7c0,0.4-0.3,0.7-0.7,0.7c-0.1,0-13,0.5-17.1,3.4C506.7,178.3,506.5,178.4,506.4,178.4z"/>
	<path class="st4" d="M69.3,126.4H16.6c-0.3,0-0.6-0.3-0.6-0.6c0-0.3,0.3-0.6,0.6-0.6h52.6c0.3,0,0.6,0.3,0.6,0.6
		C69.8,126.1,69.6,126.4,69.3,126.4z"/>
	<path class="st4" d="M612.3,109h-52.6c-0.3,0-0.6-0.3-0.6-0.6c0-0.3,0.3-0.6,0.6-0.6h52.6c0.3,0,0.6,0.3,0.6,0.6
		C612.8,108.8,612.6,109,612.3,109z"/>
	<path class="st4" d="M113.7,126.4H94.3c-0.3,0-0.6-0.3-0.6-0.6c0-0.3,0.3-0.6,0.6-0.6h19.4c0.3,0,0.6,0.3,0.6,0.6
		C114.3,126.1,114,126.4,113.7,126.4z"/>
	<path class="st4" d="M495.8,34h-19.4c-0.3,0-0.6-0.3-0.6-0.6c0-0.3,0.3-0.6,0.6-0.6h19.4c0.3,0,0.6,0.3,0.6,0.6
		C496.4,33.8,496.1,34,495.8,34z"/>
	<path class="st4" d="M536.9,109h-19.4c-0.3,0-0.6-0.3-0.6-0.6c0-0.3,0.3-0.6,0.6-0.6h19.4c0.3,0,0.6,0.3,0.6,0.6
		C537.5,108.8,537.2,109,536.9,109z"/>
	<path class="st4" d="M286.6,19.3h-19.4c-0.3,0-0.6-0.3-0.6-0.6c0-0.3,0.3-0.6,0.6-0.6h19.4c0.3,0,0.6,0.3,0.6,0.6
		C287.2,19,286.9,19.3,286.6,19.3z"/>
	<path class="st4" d="M190.3,118.6h-6.4c-0.3,0-0.6-0.3-0.6-0.6c0-0.3,0.3-0.6,0.6-0.6h6.4c0.3,0,0.6,0.3,0.6,0.6
		C190.9,118.3,190.6,118.6,190.3,118.6z"/>
	<path class="st4" d="M325.6,1.7h-6.4c-0.3,0-0.6-0.3-0.6-0.6c0-0.3,0.3-0.6,0.6-0.6h6.4c0.3,0,0.6,0.3,0.6,0.6
		C326.1,1.4,325.9,1.7,325.6,1.7z"/>
	<path class="st4" d="M306.7,1.7h-6.4c-0.3,0-0.6-0.3-0.6-0.6c0-0.3,0.3-0.6,0.6-0.6h6.4c0.3,0,0.6,0.3,0.6,0.6
		C307.2,1.4,307,1.7,306.7,1.7z"/>
	<path class="st4" d="M403.4,1.1H397c-0.3,0-0.6-0.3-0.6-0.6c0-0.3,0.3-0.6,0.6-0.6h6.4c0.3,0,0.6,0.3,0.6,0.6
		C404,0.9,403.7,1.1,403.4,1.1z"/>
	<path class="st4" d="M499.5,57.2h-6.4c-0.3,0-0.6-0.3-0.6-0.6c0-0.3,0.3-0.6,0.6-0.6h6.4c0.3,0,0.6,0.3,0.6,0.6
		C500.1,57,499.9,57.2,499.5,57.2z"/>
	<path class="st4" d="M304.3,500c167.1,0,302.6-4.9,302.6-11c0-6.1-135.5-11-302.6-11S1.7,482.9,1.7,489
		C1.7,495.1,137.2,500,304.3,500z"/>
	<path class="st5" d="M443.1,65.4c0,0,3.4-5.1,5.8-3.5c2.5,1.6,0.2,6-1.7,7.7c-1.9,1.8-4.5,1.2-4.5,1.2L443.1,65.4z"/>
	<path class="st6" d="M446.2,66.4c0,0,1.8-5.2,1.2-10.1c-0.5-4.9-3.1-9.4-3.1-9.4l-5.5,2.8L446.2,66.4z"/>
	<path class="st7" d="M401.8,101.7c-0.5-6.8,7.7-12.5,13.8-12.5c6,0,15.5,0,15.5,0s5.4,0,12.3,0c6.9,0,16.3,5.7,15.8,12.5l-6.3,37.2
		h-44.7L401.8,101.7z"/>
	
		<linearGradient id="SVGID_1_" gradientUnits="userSpaceOnUse" x1="411.3835" y1="397.4113" x2="402.9928" y2="367.4441" gradientTransform="matrix(1 0 0 -1 0 502)">
		<stop  offset="0" style="stop-color:#FFB03B"/>
		<stop  offset="1" style="stop-color:#FFCE3B"/>
	</linearGradient>
	<path class="st8" d="M403.8,95.5c0,0-17.3,28.7-10.8,37c6.5,8.3,18.5,8.3,18.5,8.3l7.6-12.3l-8.7-11.4l6.5-10.4L403.8,95.5z"/>
	
		<linearGradient id="SVGID_00000078753518594438369940000013580599295756617617_" gradientUnits="userSpaceOnUse" x1="451.085" y1="398.9201" x2="458.5162" y2="363.4385" gradientTransform="matrix(1 0 0 -1 0 502)">
		<stop  offset="0" style="stop-color:#FFB03B"/>
		<stop  offset="1" style="stop-color:#FFCE3B"/>
	</linearGradient>
	<path style="fill:url(#SVGID_00000078753518594438369940000013580599295756617617_);" d="M456.5,95c1.7,1.6,19.1,28.1,11.5,36.4
		c-7.6,8.3-18.5,10.3-18.5,10.3l-7.6-13.2l8.7-11.4l-6.5-10.4C444.1,106.8,454.8,93.4,456.5,95z"/>
	<path class="st6" d="M434.3,136.8l21.7,2.1c0,0,26.1-15.5,31.5-3.1c5.4,12.4-25,26.9-32.6,29c-7.6,2.1-41.3,4.1-52.2,0
		c-10.9-4.1-34.8-15.5-28.2-28c6.5-12.4,33.7,2.1,33.7,2.1L434.3,136.8z"/>
	<path class="st10" d="M454.8,111.7h-48.5c-1.9,0-3.4,1.5-3.4,3.4v25.5c0,1.9,1.5,3.4,3.4,3.4h48.5c1.9,0,3.4-1.5,3.4-3.4v-25.5
		C458.2,113.2,456.7,111.7,454.8,111.7z"/>
	<path class="st11" d="M458,143.4H403c-0.7,0-1.3,0.6-1.3,1.3v1.6c0,0.7,0.6,1.3,1.3,1.3H458c0.7,0,1.3-0.6,1.3-1.3v-1.6
		C459.2,144,458.7,143.4,458,143.4z"/>
	<path class="st12" d="M433.6,128.8c0,1.6-1.4,3-3.1,3s-3.1-1.3-3.1-3c0-1.6,1.4-3,3.1-3S433.6,127.1,433.6,128.8z"/>
	
		<linearGradient id="SVGID_00000069382244357356387570000007162153671729225347_" gradientUnits="userSpaceOnUse" x1="471.8954" y1="357.8133" x2="415.9554" y2="336.716" gradientTransform="matrix(1 0 0 -1 0 502)">
		<stop  offset="0" style="stop-color:#111214"/>
		<stop  offset="1" style="stop-color:#454852"/>
	</linearGradient>
	<path style="fill:url(#SVGID_00000069382244357356387570000007162153671729225347_);" d="M461.7,137.7
		c-9.5,4.2-40.5,17.8-40.5,17.8l1.5,9.5c0,0,18-0.3,30.8-4c12.8-3.7,23.8-8.7,29.5-14.5C488.7,140.7,471.2,133.5,461.7,137.7z"/>
	<path class="st6" d="M441.8,158.4c0,0,8.5-2.8,16.2-1.3c7.7,1.5,10.2,4.4,9.3,7.6c-0.8,3.2-8.3,5.9-13.8,5.3
		c-5.5-0.6-15.7-3.4-15.7-3.4L441.8,158.4z"/>
	<path class="st6" d="M419.9,157.6c0,0-8.5-2.7-16.3-1.2c-7.7,1.5-10.1,4.5-9.3,7.6c0.9,3.2,8.3,5.8,13.8,5.2
		c5.5-0.6,14.5-4.2,14.5-4.2L419.9,157.6z"/>
	<path class="st5" d="M421,157.9c0,0-11.2-0.3-9.2,5.1c2,5.3,11.7,1.7,11.7,1.7L421,157.9z"/>
	<path class="st5" d="M440.7,158.6c0,0,11.5-0.4,9.6,5c-1.9,5.4-12.3,2.3-12.3,2.3L440.7,158.6z"/>
	
		<linearGradient id="SVGID_00000152242719601412743340000001195314074687830660_" gradientUnits="userSpaceOnUse" x1="384.7726" y1="355.5802" x2="441.0321" y2="339.7572" gradientTransform="matrix(1 0 0 -1 0 502)">
		<stop  offset="0" style="stop-color:#111214"/>
		<stop  offset="1" style="stop-color:#454852"/>
	</linearGradient>
	<path style="fill:url(#SVGID_00000152242719601412743340000001195314074687830660_);" d="M401.2,140.8c9.8,3.8,40.6,17.5,40.6,17.5
		l-1.2,8.3c0,0-17,0.1-32.5-3.5c-15.5-3.7-24.1-8.5-29.9-14.2C372.4,143.1,391.4,137,401.2,140.8z"/>
	<path class="st5" d="M424.3,79.2v8.2l-6,1.6c0,0,2.2,5.5,11.5,5.5c9.3,0,12.4-5.3,12.4-5.3l-5.9-2.3l-0.1-9L424.3,79.2z"/>
	<path class="st15" d="M417.6,65.3c0.3,10.3,7.2,18.6,15.4,18.3s13.6-10.9,13.3-21.2c-0.3-10.3-6.1-16.4-14.3-16.2
		C423.8,46.4,417.4,54.9,417.6,65.3z"/>
	<path class="st15" d="M419.4,63.7c0,0-2.9-5.4-5.5-4s-0.7,5.9,0.9,7.9c1.7,2,4.4,1.7,4.4,1.7L419.4,63.7z"/>
	<path class="st6" d="M420.3,67.5c0,0,0.2-6.8,1.2-9.7c1-2.9,3.9-7,3.9-7s7.7,1.6,11.3,1.3c3.6-0.2,7.8-1.4,9.2-3.4
		c1.5-2.1,3.6-8.7,3.6-8.7l-7.6,0.3l1.5-3.4l-8.1,1.6l-0.5-2.2l-3.6,1.3l-1.1-2.3c0,0-14,6.7-15.3,13.7c-1.2,7-1,10.6-1,10.6
		s1.6-0.1,3.9,1.7c2.3,1.9,0.4,8.6,0.4,8.6s1.3,8.1,5.4,11.3c4.1,3.2,9.7,4.2,14.3,3.4c4.6-0.8,7.5-13.6,7.5-13.6l-3.6,4
		c0,0-1.8,4.9-3.7,5.7c-1.8,0.8-3.8-1.3-3.8-1.3s-2.9,1.2-4.4,0.9c-1.2-0.2-5-1.6-7.4-6.7C421.7,69.9,420.5,69.7,420.3,67.5z"/>
	<path class="st16" d="M203.2,202c-0.1,0-0.2,0-0.3-0.1l-15.2-5.6c-0.3-0.1-0.5-0.4-0.5-0.8l0.2-15.3c-3.9-2.8-7.4-6-10.5-9.7
		l-15.4,1.4c-0.3,0-0.7-0.2-0.8-0.5l-6.7-14.6c-0.1-0.3-0.1-0.7,0.2-0.9l11-10.8c-0.8-4.7-1-9.4-0.5-14.2l-11.7-9.8
		c-0.3-0.2-0.4-0.6-0.2-0.9l5.7-15.2c0.1-0.3,0.4-0.5,0.8-0.5l15.2,0.2c1.9-2.3,7.6-8.5,9.7-10.5l-1.4-15.3c0-0.3,0.2-0.7,0.5-0.8
		l14.6-6.7c0.3-0.1,0.7-0.1,0.9,0.2l10.8,11c4.5-0.8,9.2-1,14.3-0.6l9.8-11.7c0.2-0.3,0.6-0.4,0.9-0.2l15.2,5.6
		c0.3,0.1,0.5,0.4,0.5,0.8l-0.2,15.3c2.3,1.8,8.4,7.5,10.5,9.7l15.4-1.4c0.3,0,0.7,0.2,0.8,0.5l6.7,14.6c0.1,0.3,0.1,0.7-0.2,0.9
		l-11,10.8c0.8,4.7,1,9.3,0.5,14.2l11.6,9.7c0.3,0.2,0.4,0.6,0.2,0.9l-5.6,15.2c-0.1,0.3-0.4,0.5-0.8,0.5c0,0,0,0,0,0l-15.2-0.2
		c-2.7,3.8-5.8,7.2-9.7,10.5l1.4,15.3c0,0.3-0.2,0.7-0.5,0.8l-14.6,6.7c-0.3,0.1-0.7,0.1-0.9-0.2l-10.8-11c-4.7,0.8-9.4,1-14.3,0.5
		l-9.8,11.7C203.7,201.9,203.5,202,203.2,202z M188.9,195l14.1,5.2l9.7-11.6c0.2-0.2,0.4-0.3,0.7-0.3c5,0.5,9.8,0.3,14.7-0.6
		c0.3,0,0.5,0,0.7,0.2l10.7,10.9l13.5-6.2l-1.4-15.2c0-0.3,0.1-0.5,0.3-0.7c4-3.3,7.2-6.9,9.9-10.8c0.2-0.2,0.4-0.4,0.7-0.4l15,0.2
		l5.2-14.2l-11.5-9.6c-0.2-0.2-0.3-0.4-0.3-0.7c0.5-5,0.3-9.8-0.6-14.7c0-0.3,0-0.5,0.2-0.7l10.9-10.7l-6.2-13.5l-15.2,1.4
		c-0.3,0-0.5-0.1-0.7-0.3c-1.7-1.9-8.9-8.6-10.9-10c-0.2-0.2-0.3-0.4-0.3-0.7l0.2-15.1l-14.1-5.2l-9.7,11.6
		c-0.2,0.2-0.4,0.3-0.7,0.3c-5.2-0.4-10-0.3-14.7,0.6c-0.3,0-0.5,0-0.7-0.2l-10.7-10.9l-13.5,6.2l1.3,15.1c0,0.2-0.1,0.5-0.3,0.7
		c-1.8,1.7-8.5,8.9-10,10.9c-0.2,0.2-0.4,0.3-0.7,0.3l-15-0.2l-5.3,14.1l11.6,9.7c0.2,0.2,0.3,0.4,0.3,0.7c-0.5,5-0.3,9.8,0.6,14.7
		c0,0.3,0,0.5-0.2,0.7l-10.9,10.7l6.2,13.5l15.2-1.4c0.3,0,0.5,0.1,0.7,0.3c3.2,3.8,6.7,7.1,10.8,10c0.2,0.2,0.3,0.4,0.3,0.7
		L188.9,195z M218.8,163.5c-3.2,0-6.5-0.6-9.6-1.7c-6.9-2.5-12.4-7.6-15.4-14.2c-3.1-6.5-3.5-13.9-1-20.8c2.5-7,7.5-12.6,14.2-15.7
		c6.6-3.1,14.1-3.4,21.1-0.9c7,2.5,12.5,7.6,15.6,14.2c3.1,6.6,3.4,14.1,0.9,21c-2.5,6.9-7.5,12.4-14.1,15.5
		C226.7,162.6,222.7,163.5,218.8,163.5z M218.5,110.1c-3.7,0-7.4,0.8-10.9,2.4c-6.3,2.9-11,8.2-13.4,14.8c-2.3,6.5-2,13.5,0.9,19.6
		c2.8,6.2,8,10.9,14.5,13.3c6.6,2.4,13.7,2.1,20-0.8c12.9-6.1,18.5-21.5,12.5-34.4c-2.9-6.2-8.1-11-14.7-13.4
		C224.6,110.6,221.5,110.1,218.5,110.1z"/>
	<path class="st16" d="M321.6,122c-0.3,0-0.5-0.1-0.7-0.4l-5.8-8.5c-3.2,0-6.2-0.5-9.4-1.3l-7.8,6.6c-0.3,0.2-0.6,0.3-0.9,0.1
		l-9.5-5.5c-0.3-0.2-0.5-0.5-0.4-0.9l1.9-10.1c-2.2-2.3-4.1-4.8-5.7-7.5l-10.3-0.9c-0.3,0-0.6-0.3-0.7-0.6l-2.8-10.5
		c-0.1-0.3,0-0.7,0.3-0.9l8.5-5.8c0-3.2,0.5-6.2,1.3-9.4l-6.6-7.8c-0.2-0.3-0.3-0.6-0.1-0.9l5.6-9.5c0.2-0.3,0.5-0.4,0.9-0.4l10,1.9
		c1.6-1.4,5.8-4.6,7.5-5.8l0.9-10.3c0-0.3,0.3-0.6,0.6-0.7l10.5-2.8c0.3-0.1,0.7,0,0.9,0.3l5.8,8.5c3.1,0,6.1,0.4,9.4,1.3l7.8-6.6
		c0.3-0.2,0.6-0.3,0.9-0.1l9.5,5.5c0.3,0.2,0.5,0.5,0.4,0.9l-1.9,10c1.3,1.6,4.6,5.8,5.7,7.5l10.3,0.9c0.3,0,0.6,0.3,0.7,0.6
		l2.8,10.5c0.1,0.3,0,0.7-0.3,0.9l-8.5,5.8c0,3.1-0.5,6.2-1.3,9.4l6.5,7.8c0.2,0.3,0.3,0.6,0.1,0.9l-5.6,9.5
		c-0.2,0.3-0.5,0.5-0.9,0.4l-10-1.9c-2.2,2.2-4.7,4.1-7.5,5.7l-0.9,10.3c0,0.3-0.3,0.6-0.6,0.7l-10.5,2.8
		C321.7,122,321.6,122,321.6,122z M305.5,110.1c0.1,0,0.1,0,0.2,0c3.3,0.9,6.5,1.3,9.8,1.3c0.3,0,0.5,0.1,0.7,0.4l5.7,8.4l9.4-2.5
		l0.9-10.1c0-0.3,0.2-0.5,0.4-0.6c3-1.8,5.6-3.7,7.9-6c0.2-0.2,0.5-0.3,0.7-0.2l9.8,1.9l5-8.5l-6.4-7.7c-0.2-0.2-0.2-0.5-0.2-0.7
		c0.9-3.3,1.3-6.5,1.3-9.8c0-0.3,0.1-0.5,0.4-0.7l8.4-5.8l-2.5-9.4l-10.1-0.9c-0.3,0-0.5-0.2-0.6-0.4c-0.9-1.5-4.9-6.7-6.1-7.9
		c-0.2-0.2-0.3-0.5-0.2-0.7l1.9-9.9l-8.5-5l-7.7,6.5c-0.2,0.2-0.5,0.2-0.7,0.2c-3.4-0.9-6.5-1.3-9.7-1.3c0,0-0.1,0-0.1,0
		c-0.3,0-0.5-0.1-0.7-0.4l-5.7-8.4l-9.4,2.5l-0.9,10.1c0,0.2-0.2,0.5-0.4,0.6c-1.4,0.9-6.7,4.9-7.9,6.1c-0.2,0.2-0.5,0.3-0.7,0.2
		l-9.8-1.8l-5,8.5l6.5,7.7c0.2,0.2,0.2,0.5,0.2,0.7c-0.9,3.3-1.3,6.5-1.3,9.8c0,0.3-0.1,0.5-0.4,0.7l-8.4,5.8l2.5,9.4l10.1,0.9
		c0.3,0,0.5,0.2,0.6,0.4c1.7,2.9,3.6,5.5,6,7.9c0.2,0.2,0.3,0.5,0.2,0.7l-1.9,9.9l8.5,5l7.7-6.5
		C305.1,110.2,305.3,110.1,305.5,110.1z M315.4,95c-3.3,0-6.6-0.9-9.6-2.6c-4.4-2.6-7.5-6.6-8.7-11.5c-1.3-4.8-0.7-9.8,1.8-14.2
		c2.5-4.4,6.6-7.6,11.5-8.9c4.9-1.3,10-0.6,14.4,1.9c4.4,2.5,7.6,6.6,8.9,11.5c1.3,4.9,0.6,9.9-1.9,14.3c-2.5,4.4-6.6,7.5-11.4,8.8
		C318.7,94.8,317,95,315.4,95z M315.3,58.8c-1.5,0-3,0.2-4.5,0.6c-4.5,1.2-8.2,4.1-10.5,8.2c-2.3,4-2.9,8.6-1.7,13
		c1.1,4.4,4,8.1,8,10.5c4.1,2.4,8.8,3,13.3,1.8c9.2-2.5,14.7-12,12.2-21.2c-1.2-4.4-4.1-8.2-8.1-10.5
		C321.3,59.6,318.3,58.8,315.3,58.8z"/>
	
		<linearGradient id="SVGID_00000149349525599680465270000014912565657766678963_" gradientUnits="userSpaceOnUse" x1="323.2138" y1="326.1653" x2="323.2138" y2="-25.3311" gradientTransform="matrix(1 0 0 -1 0 502)">
		<stop  offset="0" style="stop-color:#111214"/>
		<stop  offset="1" style="stop-color:#2B2D33"/>
	</linearGradient>
	<path style="fill:url(#SVGID_00000149349525599680465270000014912565657766678963_);" d="M530.1,433.1H116.3
		c-5.8,0-10.5-4.7-10.5-10.5V177.8c0-5.8,4.7-10.5,10.5-10.5h413.8c5.8,0,10.5,4.7,10.5,10.5v244.8
		C540.6,428.4,535.9,433.1,530.1,433.1z"/>
	
		<linearGradient id="SVGID_00000060003103585294218440000014159580455659537574_" gradientUnits="userSpaceOnUse" x1="323.216" y1="348.915" x2="323.216" y2="-33.6678" gradientTransform="matrix(1 0 0 -1 0 502)">
		<stop  offset="0" style="stop-color:#111214"/>
		<stop  offset="1" style="stop-color:#2B2D33"/>
	</linearGradient>
	<path style="fill:url(#SVGID_00000060003103585294218440000014159580455659537574_);" d="M419.6,485.5H226.8c-5,0-9.1-4.1-9.1-9.1
		c0-5,4.1-9.1,9.1-9.1h192.8c5,0,9.1,4.1,9.1,9.1C428.7,481.4,424.6,485.5,419.6,485.5z"/>
	
		<linearGradient id="SVGID_00000121251381099096376810000006179837981919604136_" gradientUnits="userSpaceOnUse" x1="323.2149" y1="313.5288" x2="323.2149" y2="89.5642" gradientTransform="matrix(1 0 0 -1 0 502)">
		<stop  offset="0" style="stop-color:#D1D7ED"/>
		<stop  offset="1" style="stop-color:#A0A7BF"/>
	</linearGradient>
	<path style="fill:url(#SVGID_00000121251381099096376810000006179837981919604136_);" d="M531.3,177H115.2v236.9h416.1V177z"/>
	<path class="st6" d="M375.2,432.2H272.4v35.2h102.7V432.2z"/>
	<path class="st6" d="M329.5,427.8h-12.6c-2.6,0-4.8-2.2-4.8-4.8c0-2.6,2.2-4.8,4.8-4.8h12.6c2.6,0,4.8,2.2,4.8,4.8
		C334.3,425.6,332.1,427.8,329.5,427.8z"/>
	<path class="st12" d="M531.3,177H115.2v13.7h416.1V177z"/>
	<path class="st1" d="M527.2,182.9c0,1.8-1.5,3.3-3.3,3.3c-1.8,0-3.3-1.5-3.3-3.3c0-1.8,1.5-3.3,3.3-3.3
		C525.7,179.6,527.2,181.1,527.2,182.9z"/>
	<path class="st20" d="M515.5,182.9c0,1.8-1.5,3.3-3.3,3.3c-1.8,0-3.3-1.5-3.3-3.3c0-1.8,1.5-3.3,3.3-3.3
		C514,179.6,515.5,181.1,515.5,182.9z"/>
	<path class="st4" d="M503.8,182.9c0,1.8-1.5,3.3-3.3,3.3c-1.8,0-3.3-1.5-3.3-3.3c0-1.8,1.5-3.3,3.3-3.3
		C502.3,179.6,503.8,181.1,503.8,182.9z"/>
	
		<linearGradient id="SVGID_00000109708504390460136270000015356298337638068912_" gradientUnits="userSpaceOnUse" x1="323.4505" y1="367.6935" x2="323.4505" y2="198.275" gradientTransform="matrix(1 0 0 -1 0 502)">
		<stop  offset="0" style="stop-color:#EBF0FA"/>
		<stop  offset="1" style="stop-color:#FFFFFF"/>
	</linearGradient>
	<path style="fill:url(#SVGID_00000109708504390460136270000015356298337638068912_);" d="M430.1,147.4H216.8v266.5h213.4V147.4z"/>
	<path class="st0" d="M427.7,414.9c-0.4,0-0.8-0.3-0.8-0.8V145.6H215.1v268.6c0,0.4-0.3,0.8-0.8,0.8c-0.4,0-0.8-0.3-0.8-0.8V144.8
		c0-0.4,0.3-0.8,0.8-0.8h213.4c0.4,0,0.8,0.3,0.8,0.8v269.3C428.5,414.6,428.2,414.9,427.7,414.9z"/>
	<path class="st20" d="M277.7,218.6h-42.5c-0.5,0-0.9-0.4-0.9-0.9v-42.5c0-0.5,0.4-0.9,0.9-0.9h42.5c0.5,0,0.9,0.4,0.9,0.9v42.5
		C278.6,218.2,278.2,218.6,277.7,218.6z M236.1,216.9h40.8v-40.8h-40.8V216.9z"/>
	<path class="st20" d="M236.4,217.8h40.2c-2.9-8.3-10.8-14.3-20.1-14.3C247.2,203.4,239.3,209.4,236.4,217.8z"/>
	<path class="st20" d="M259,204c5.7-1.4,9.3-7.1,7.9-12.9c-1.4-5.7-7.1-9.3-12.9-7.9c-5.7,1.4-9.3,7.1-7.9,12.9
		C247.5,201.9,253.2,205.4,259,204z"/>
	<path class="st20" d="M408.5,218.6H287.9c-0.5,0-0.9-0.4-0.9-0.9v-42.5c0-0.5,0.4-0.9,0.9-0.9h120.7c0.5,0,0.9,0.4,0.9,0.9v42.5
		C409.4,218.2,409,218.6,408.5,218.6z M288.7,216.9h118.9v-40.8H288.7V216.9z"/>
	<path class="st20" d="M398.9,187.7H297.5c-0.5,0-0.9-0.4-0.9-0.9c0-0.5,0.4-0.9,0.9-0.9h101.5c0.5,0,0.9,0.4,0.9,0.9
		C399.8,187.4,399.4,187.7,398.9,187.7z"/>
	<path class="st20" d="M398.9,197.6H297.5c-0.5,0-0.9-0.4-0.9-0.9s0.4-0.9,0.9-0.9h101.5c0.5,0,0.9,0.4,0.9,0.9
		S399.4,197.6,398.9,197.6z"/>
	<path class="st20" d="M357.3,207h-59.8c-0.5,0-0.9-0.4-0.9-0.9c0-0.5,0.4-0.9,0.9-0.9h59.8c0.5,0,0.9,0.4,0.9,0.9
		C358.1,206.6,357.8,207,357.3,207z"/>
	<path class="st20" d="M277.7,274.6h-42.5c-0.5,0-0.9-0.4-0.9-0.9v-42.5c0-0.5,0.4-0.9,0.9-0.9h42.5c0.5,0,0.9,0.4,0.9,0.9v42.5
		C278.6,274.3,278.2,274.6,277.7,274.6z M236.1,272.9h40.8v-40.8h-40.8V272.9z"/>
	<path class="st20" d="M236.4,273.8h40.2c-2.9-8.3-10.8-14.3-20.1-14.3C247.2,259.4,239.3,265.4,236.4,273.8z"/>
	<path class="st20" d="M264,257.2c4.2-4.2,4.2-10.9,0-15.1c-4.2-4.2-10.9-4.2-15.1,0c-4.2,4.2-4.2,10.9,0,15.1
		C253.1,261.4,259.9,261.4,264,257.2z"/>
	<path class="st20" d="M408.5,274.6H287.9c-0.5,0-0.9-0.4-0.9-0.9v-42.5c0-0.5,0.4-0.9,0.9-0.9h120.7c0.5,0,0.9,0.4,0.9,0.9v42.5
		C409.4,274.3,409,274.6,408.5,274.6z M288.7,272.9h118.9v-40.8H288.7V272.9z"/>
	<path class="st20" d="M398.9,243.8H297.5c-0.5,0-0.9-0.4-0.9-0.9c0-0.5,0.4-0.9,0.9-0.9h101.5c0.5,0,0.9,0.4,0.9,0.9
		C399.8,243.4,399.4,243.8,398.9,243.8z"/>
	<path class="st20" d="M398.9,253.6H297.5c-0.5,0-0.9-0.4-0.9-0.9c0-0.5,0.4-0.9,0.9-0.9h101.5c0.5,0,0.9,0.4,0.9,0.9
		C399.8,253.2,399.4,253.6,398.9,253.6z"/>
	<path class="st20" d="M357.3,263.1h-59.8c-0.5,0-0.9-0.4-0.9-0.9c0-0.5,0.4-0.9,0.9-0.9h59.8c0.5,0,0.9,0.4,0.9,0.9
		C358.1,262.7,357.8,263.1,357.3,263.1z"/>
	<path class="st20" d="M277.7,330.8h-42.5c-0.5,0-0.9-0.4-0.9-0.9v-42.5c0-0.5,0.4-0.9,0.9-0.9h42.5c0.5,0,0.9,0.4,0.9,0.9V330
		C278.6,330.4,278.2,330.8,277.7,330.8z M236.1,329.1h40.8v-40.8h-40.8V329.1z"/>
	<path class="st20" d="M236.4,330h40.2c-2.9-8.3-10.8-14.3-20.1-14.3C247.2,315.6,239.3,321.6,236.4,330z"/>
	<path class="st20" d="M259.6,316.1c5.6-1.7,8.9-7.6,7.2-13.3c-1.7-5.6-7.6-8.9-13.3-7.2c-5.6,1.7-8.9,7.6-7.2,13.3
		C248,314.5,253.9,317.7,259.6,316.1z"/>
	<path class="st20" d="M408.5,330.8H287.9c-0.5,0-0.9-0.4-0.9-0.9v-42.5c0-0.5,0.4-0.9,0.9-0.9h120.7c0.5,0,0.9,0.4,0.9,0.9V330
		C409.4,330.4,409,330.8,408.5,330.8z M288.7,329.1h118.9v-40.8H288.7V329.1z"/>
	<path class="st20" d="M398.9,299.9H297.5c-0.5,0-0.9-0.4-0.9-0.9s0.4-0.9,0.9-0.9h101.5c0.5,0,0.9,0.4,0.9,0.9
		S399.4,299.9,398.9,299.9z"/>
	<path class="st20" d="M398.9,309.8H297.5c-0.5,0-0.9-0.4-0.9-0.9c0-0.5,0.4-0.9,0.9-0.9h101.5c0.5,0,0.9,0.4,0.9,0.9
		C399.8,309.4,399.4,309.8,398.9,309.8z"/>
	<path class="st20" d="M357.3,319.2h-59.8c-0.5,0-0.9-0.4-0.9-0.9c0-0.5,0.4-0.9,0.9-0.9h59.8c0.5,0,0.9,0.4,0.9,0.9
		C358.1,318.8,357.8,319.2,357.3,319.2z"/>
	<path class="st20" d="M277.7,386.7h-42.5c-0.5,0-0.9-0.4-0.9-0.9v-42.5c0-0.5,0.4-0.9,0.9-0.9h42.5c0.5,0,0.9,0.4,0.9,0.9v42.5
		C278.6,386.3,278.2,386.7,277.7,386.7z M236.1,385h40.8v-40.8h-40.8V385z"/>
	<path class="st20" d="M236.4,385.8h40.2c-2.9-8.3-10.8-14.3-20.1-14.3C247.2,371.5,239.3,377.5,236.4,385.8z"/>
	<path class="st20" d="M259.9,371.8c5.6-1.9,8.6-7.9,6.7-13.5c-1.9-5.6-7.9-8.6-13.5-6.7c-5.6,1.9-8.6,7.9-6.7,13.5
		C248.2,370.7,254.3,373.7,259.9,371.8z"/>
	<path class="st20" d="M408.5,386.7H287.9c-0.5,0-0.9-0.4-0.9-0.9v-42.5c0-0.5,0.4-0.9,0.9-0.9h120.7c0.5,0,0.9,0.4,0.9,0.9v42.5
		C409.4,386.3,409,386.7,408.5,386.7z M288.7,385h118.9v-40.8H288.7V385z"/>
	<path class="st20" d="M398.9,355.8H297.5c-0.5,0-0.9-0.4-0.9-0.9c0-0.5,0.4-0.9,0.9-0.9h101.5c0.5,0,0.9,0.4,0.9,0.9
		C399.8,355.4,399.4,355.8,398.9,355.8z"/>
	<path class="st20" d="M398.9,365.7H297.5c-0.5,0-0.9-0.4-0.9-0.9c0-0.5,0.4-0.9,0.9-0.9h101.5c0.5,0,0.9,0.4,0.9,0.9
		C399.8,365.3,399.4,365.7,398.9,365.7z"/>
	<path class="st20" d="M357.3,375.1h-59.8c-0.5,0-0.9-0.4-0.9-0.9s0.4-0.9,0.9-0.9h59.8c0.5,0,0.9,0.4,0.9,0.9
		S357.8,375.1,357.3,375.1z"/>
	<path class="st6" d="M447.5,330.1l-7.8,8.7l36.6,32.7l7.8-8.7L447.5,330.1z"/>
	<path class="st6" d="M442.1,337.6c23.1-23.1,23.1-60.6,0-83.7c-23.1-23.1-60.6-23.1-83.7,0c-23.1,23.1-23.1,60.6,0,83.7
		C381.5,360.7,418.9,360.7,442.1,337.6z"/>
	<path class="st12" d="M435.3,330.8c19.4-19.4,19.4-50.8,0-70.1c-19.4-19.4-50.8-19.4-70.1,0c-19.4,19.4-19.4,50.8,0,70.1
		C384.5,350.2,415.9,350.2,435.3,330.8z"/>
	<path class="st12" d="M531.3,396.4v17.5h-17.7l-41.8-37.4l16.3-18.3L531.3,396.4z"/>
	<path class="st22" d="M369.8,275.1h9.7l18,33.6l45-63.1h10.2l-50.3,80.1h-11.3L369.8,275.1z"/>
	<path class="st22" d="M197.9,381.7c0.3,0,0.7-0.1,0.9-0.4c2.4-1.9,8-6.7,8.7-8.9c0.5-1.5,0.2-3.2-0.7-4.4c-0.9-1.2-2.4-1.9-4-1.8
		c0,0,0,0,0,0c-3,0.1-4.4,2.6-4.8,4.1c-0.2,0.8,0.3,1.7,1.1,1.9c0.8,0.2,1.7-0.3,1.9-1.1c0-0.1,0.5-1.7,1.9-1.8c0,0,0,0,0,0
		c0.7,0,1.2,0.2,1.5,0.6c0.3,0.4,0.4,1.1,0.2,1.6c-0.4,1-4.3,4.6-7.7,7.4c-0.7,0.5-0.8,1.5-0.2,2.2
		C197,381.5,197.4,381.7,197.9,381.7z"/>
	<path class="st22" d="M200.8,362.9h-17.6l1.1,21.7h15.2L200.8,362.9z"/>
	<path class="st12" d="M192.1,337.4c0,0,8,2.3,7.4,7.6c-0.7,5.3-6.3,4.7-7.7,5.9c-1.4,1.2-3.8,3.7,0.1,9.9
		c-6.5-3.6-5.5-10.4-1.6-12.6c3.9-2.2,7.9-1.6,7.2-5.3C196.7,339.1,192.1,337.4,192.1,337.4z"/>
	<path class="st2" d="M75.2,430.4H31.8c-5.2,0-10.1-4.3-10.8-9.5L9.4,334.9c-0.7-5.2,3-9.5,8.2-9.5H61c5.2,0,10.1,4.3,10.8,9.5
		l11.6,85.9C84.1,426.1,80.4,430.4,75.2,430.4z"/>
	<path class="st23" d="M80.8,428.3c-1.5,1.3-3.4,2.1-5.7,2.1H31.8c-5.2,0-10.1-4.3-10.8-9.5L9.4,334.9c-0.6-4.7,2.3-8.7,6.7-9.4
		c-0.7,9.6-0.2,19.7,1.8,29.9C25.6,393.9,51.7,422.7,80.8,428.3z"/>
	<path class="st23" d="M67.5,393.6H11.6v6.9h55.9V393.6z"/>
	<path class="st5" d="M101.6,356.7l6.8,13.7l16.2,2.8c0,0,4.1-1.1,9.5-1.9c6.9-1,15.9,6,14.9,8.3c-1,2.3-22.2,1.1-22.2,1.1
		s-20,1-24.7-0.6c-4.7-1.5-9.3-17.4-9.3-17.4L101.6,356.7z"/>
	
		<linearGradient id="SVGID_00000077308454718298362350000011036741853680359615_" gradientUnits="userSpaceOnUse" x1="79.2852" y1="97.4859" x2="73.3893" y2="155.4644" gradientTransform="matrix(1 0 0 -1 0 502)">
		<stop  offset="0" style="stop-color:#FFB03B"/>
		<stop  offset="1" style="stop-color:#FFCE3B"/>
	</linearGradient>
	<path style="fill:url(#SVGID_00000077308454718298362350000011036741853680359615_);" d="M85.4,339.1c0,0,6.5,3.9,9.2,8.7
		c2.7,4.7,3.4,11.1,3.1,13.3c-0.3,2.1-1.1,7.4-1.1,7.4s-0.1,5,1,11.7c1.1,6.6,1.6,11.3,1.6,14.8c0,3.5-10.4,6.2-19.5,5.5
		c-9.1-0.8-18.8-1.4-22.1-4.7s-3.5-11.3-4.4-21.6c-0.9-10.3,1.1-26.9,1.1-26.9l10-5.6l6-4.4L85.4,339.1z"/>
	
		<linearGradient id="SVGID_00000176737228336407029840000007070017534201992353_" gradientUnits="userSpaceOnUse" x1="101.7624" y1="95.2982" x2="95.4734" y2="157.1481" gradientTransform="matrix(1 0 0 -1 0 502)">
		<stop  offset="0" style="stop-color:#FFB03B"/>
		<stop  offset="1" style="stop-color:#FFCE3B"/>
	</linearGradient>
	<path style="fill:url(#SVGID_00000176737228336407029840000007070017534201992353_);" d="M87.1,337.3c0,0,4.5,0.8,7.9,3.1
		c3.4,2.4,10.2,17.4,10.2,17.4l-7.8,4.5c0,0,0.3-7.8-2.7-11.8c-3-4-7.9-9.1-7.9-9.1L87.1,337.3z"/>
	<path class="st15" d="M70.2,359.5l9.5,13.5l24.5,2.4c0,0,3.3-1.5,8.8-2.4c7-1,14.6,5.5,13.6,7.9c-1,2.4-20.3,1.9-20.3,1.9
		s-27.1,0.9-31.9-0.7c-4.8-1.5-13.9-17-13.9-17L70.2,359.5z"/>
	
		<linearGradient id="SVGID_00000103236948941881917170000008082509565751720364_" gradientUnits="userSpaceOnUse" x1="68.8945" y1="93.7905" x2="62.7722" y2="153.9959" gradientTransform="matrix(1 0 0 -1 0 502)">
		<stop  offset="0" style="stop-color:#FFB03B"/>
		<stop  offset="1" style="stop-color:#FFCE3B"/>
	</linearGradient>
	<path style="fill:url(#SVGID_00000103236948941881917170000008082509565751720364_);" d="M66.9,336.4c0,0-4.6,0-9.4,3.7
		c-4.8,3.8-3.3,12.2-1.5,16.2c1.8,4,4.6,12,4.6,12l12.2-6.3c0,0-6.8-10.8-6.9-13.2c-0.1-2.4,4.1-9.7,4.1-9.7L66.9,336.4z"/>
	<path class="st5" d="M72.4,319.9c0,0-0.8,8.1-0.8,10.6c0,2.6-3.2,5.4-4.7,5.9s3.9,5.2,13.5,5.3s6.7-4.5,6.7-4.5s-2.6-1.8-2.9-4.2
		c-0.3-2.4,0-7.7,0-7.7L72.4,319.9z"/>
	<path class="st15" d="M94.4,301.1c0,0,1.8,9.1,0.8,16.3c-0.9,7.2-4.6,16.3-11,16.3s-10.4-5.6-12.7-8.8c-2.3-3.2-0.8-23.8-0.8-23.8
		H94.4z"/>
	<path class="st15" d="M72,315.8c0,0-2.9-5.4-5.5-4.1c-2.6,1.3-0.7,6,0.9,7.9c1.7,2,4.4,1.7,4.4,1.7L72,315.8z"/>
	<path class="st27" d="M70.2,313.2l1.2,4.2l2.3-11.7c0,0,11.8,1.5,14.3,1.2c2.4-0.4,7-1.2,7-1.2l0.5,5.8c0,0,3.7-8.4,3.7-13
		c0-4.6-1.7-14.2-17.1-10.2c-15.3,3.9-17.6,7.7-18.1,12.8c-0.6,5.1,2.6,10.6,2.6,10.6L70.2,313.2z"/>
	<path class="st28" d="M25.4,392.2h217.1v-7.6H25.4V392.2z"/>
	<path class="st28" d="M32.7,489.8h202.4v-97.7H32.7V489.8z"/>
	<path class="st29" d="M32.7,392.2h202.4v5.1l-202.4,8.6V392.2z"/>
	
		<linearGradient id="SVGID_00000009591296898339198880000008232667715278443941_" gradientUnits="userSpaceOnUse" x1="155.3244" y1="164.9946" x2="132.4932" y2="120.6007" gradientTransform="matrix(1 0 0 -1 0 502)">
		<stop  offset="0" style="stop-color:#CAD0EB"/>
		<stop  offset="1" style="stop-color:#E1E7FF"/>
	</linearGradient>
	<path style="fill:url(#SVGID_00000009591296898339198880000008232667715278443941_);" d="M164.8,382.1H99l1.4,2.5H164L164.8,382.1z
		"/>
	
		<linearGradient id="SVGID_00000047053250410255683920000014028546245014655374_" gradientUnits="userSpaceOnUse" x1="158.7258" y1="173.6291" x2="147.0729" y2="120.3538" gradientTransform="matrix(1 0 0 -1 0 502)">
		<stop  offset="0" style="stop-color:#CAD0EB"/>
		<stop  offset="1" style="stop-color:#E1E7FF"/>
	</linearGradient>
	<path style="fill:url(#SVGID_00000047053250410255683920000014028546245014655374_);" d="M178.7,349.1h-42c-1.2,0-2.6,1-3.1,2.2
		l-12.4,28.8c-0.5,1.2,0,2.2,1.2,2.2h42c1.2,0,2.6-1,3.1-2.2l12.4-28.8C180.5,350.1,179.9,349.1,178.7,349.1z"/>
	<path class="st4" d="M36.4,69.1c0-12,9.2-20.6,20.6-20.6c3.4,0,6.6,0.8,9.4,2.3c3.7-5.5,10-9.2,17.1-9.2c9.7,0,17.9,6.8,20,15.8
		c2.7-1.9,6-3,9.5-3c9.2,0,16.7,6,16.7,18c0,12-6.5,16.2-14.4,16.2c0,0-62.5,0.6-64.4,0C43.6,88.4,36.4,81.1,36.4,69.1z"/>
	<path class="st4" d="M207.7,29.1c0-7.6-5.8-13-13-13c-2.2,0-4.2,0.5-6,1.5c-2.3-3.5-6.3-5.8-10.8-5.8c-6.1,0-11.3,4.3-12.6,10
		c-1.7-1.2-3.8-1.9-6-1.9c-5.8,0-10.5,3.8-10.5,11.4s4.1,10.2,9.1,10.2c0,0,39.5,0.4,40.7,0C203.2,41.3,207.7,36.7,207.7,29.1z"/>
	<path class="st4" d="M531.8,60.5c0-9.5,7.8-24.7,25.1-24.7c17.3,0,26.6,8.3,28.3,15.6c2.2-1.5,4.8-2.4,7.6-2.4
		c7.3,0,13.3,4.8,13.3,14.3c0,9.5-5.1,12.9-11.4,12.9c0,0-49.7,0.5-51.2,0C537.6,75.9,531.8,70.1,531.8,60.5z"/>
	<path class="st15" d="M505.8,271.6l-1.3-5.1c0,0,1.2-7.1,0.6-10.2c-0.6-3.1-1.2-8.5-1.1-9.3c0.1-0.8-1.8,0.1-1.8,3.6
		c0,3.5-1.4,4.6-1.4,4.6s-1.6-5.6-2.9-8.1c-1.3-2.5-4-6.8-6.5-5.8c-2.5,1-2.4,9.6-1.4,13.8c1,4.2,3.3,8.3,4.7,10.1
		c1.4,1.8,4.5,9.7,4.5,9.7L505.8,271.6z"/>
	
		<linearGradient id="SVGID_00000145049477920698090170000006061113189692157832_" gradientUnits="userSpaceOnUse" x1="568.7513" y1="178.5242" x2="573.1132" y2="150.1693" gradientTransform="matrix(1 0 0 -1 0 502)">
		<stop  offset="0" style="stop-color:#FFCE3B"/>
		<stop  offset="1" style="stop-color:#FFB03B"/>
	</linearGradient>
	<path style="fill:url(#SVGID_00000145049477920698090170000006061113189692157832_);" d="M562.6,314c-8.6,4.1,8.7,23.3,10.6,25.6
		c1.8,2.3-14.3,16.2-14.3,16.2l4.7,8.3c0,0,25.8-16.4,22.6-24.3C582.8,332,572.3,309.4,562.6,314z"/>
	<path class="st15" d="M550.9,424c0,0,3.6,42.2,2.4,46.5c-1.1,4.3-2.6,6.6-2.6,6.6s2.8,6.8,8.6,3.2c5.8-3.6,3.3-6.4,3.3-6.4
		l2.1-48.9L550.9,424z"/>
	<path class="st6" d="M562.9,473.5c0,0,2.1,2,2.7,3.4c0.6,1.5,1.1,4.4,0.1,5.3c-1,0.9-3.8,2-6.8,3.1l-2.6,1.5h-16.4
		c0,0-3.3-1.9-1.2-3.2c3.6-2.1,13.3-9,13.3-9s4.1,0.7,7,0.5C561.8,474.9,562.9,473.5,562.9,473.5z"/>
	<path class="st15" d="M533.1,424c0,0,4.9,42.2,3.8,46.5c-1.1,4.3-2.6,6.6-2.6,6.6s2.8,6.8,8.6,3.2c5.8-3.6,3.3-6.4,3.3-6.4
		l0.5-48.9L533.1,424z"/>
	<path class="st6" d="M546.4,473.5c0,0,2.1,2,2.7,3.4c0.6,1.5,1.1,4.4,0.1,5.3c-1,0.9-3.8,2-6.8,3.1l-2.6,1.5h-16.4
		c0,0-3.3-1.9-1.2-3.2c3.6-2.1,13.3-9,13.3-9s4.1,0.7,7,0.5C545.3,474.9,546.4,473.5,546.4,473.5z"/>
	
		<linearGradient id="SVGID_00000140005005244005947250000006938037290229439661_" gradientUnits="userSpaceOnUse" x1="549.2391" y1="136.8653" x2="549.2391" y2="71.3292" gradientTransform="matrix(1 0 0 -1 0 502)">
		<stop  offset="0" style="stop-color:#111214"/>
		<stop  offset="1" style="stop-color:#454852"/>
	</linearGradient>
	<path style="fill:url(#SVGID_00000140005005244005947250000006938037290229439661_);" d="M532.6,360.9c0,0-3.4,0.9-4.6,14
		c-1.3,13.1,4.7,52.3,4.7,52.3h33.1c0,0,5.5-41.3,4.8-52.2c-0.7-10.9-6.6-15.1-6.6-15.1L532.6,360.9z"/>
	<path class="st6" d="M532.6,357.1v3.8c0,0,8.5,1.9,15.3,1.6c6.7-0.3,16.1-2.5,16.1-2.5v-4.6L532.6,357.1z"/>
	
		<linearGradient id="SVGID_00000054248844941210015280000014553400015499262137_" gradientUnits="userSpaceOnUse" x1="551.801" y1="205.5868" x2="543.6103" y2="129.3791" gradientTransform="matrix(1 0 0 -1 0 502)">
		<stop  offset="0" style="stop-color:#FFCE3B"/>
		<stop  offset="1" style="stop-color:#FFB03B"/>
	</linearGradient>
	<path style="fill:url(#SVGID_00000054248844941210015280000014553400015499262137_);" d="M541.3,310.6l-4.5,1.1
		c0,0-5.6,6.7-7.5,9.7c-2.9,4.8,0,10.9,0.3,13.1c0.3,2.2,3.5,12.3,2.3,19c-1.2,6.7,9.2,6.2,12.6,6.2c3.4,0,21.2,0.3,21-5.2
		c-0.1-5.5,2.4-20.1,2.4-20.1l2.8-21.2l-9.5-4.7L541.3,310.6z"/>
	
		<linearGradient id="SVGID_00000109707841904020584010000009028741745686714770_" gradientUnits="userSpaceOnUse" x1="532.8613" y1="180.414" x2="507.0182" y2="213.3056" gradientTransform="matrix(1 0 0 -1 0 502)">
		<stop  offset="0" style="stop-color:#FFCE3B"/>
		<stop  offset="1" style="stop-color:#FFB03B"/>
	</linearGradient>
	<path style="fill:url(#SVGID_00000109707841904020584010000009028741745686714770_);" d="M539,326.4c-5.4,4.7-26.9-16.7-30.7-21.1
		c-3.1-3.5-10.1-21.7-9-26.8l8.8-3.4c2.9,2.3,9.6,21.6,12,23.5C523.6,301.6,547.4,319.1,539,326.4z"/>
	<path class="st22" d="M506,270.2l2.1,5l-8.8,3.4l-1.4-5.4L506,270.2z"/>
	<path class="st5" d="M555.1,292.8c0,0-1,11.2,0.8,13.1c1.9,1.9,1,3.1,2.4,3.6c1.5,0.5-0.8,3.6-10.6,3.8c-9.8,0.2-6.4-3.5-6.4-3.5
		s3.3-1.3,3.6-3.7c0.3-2.4,0-7.4,0-7.4L555.1,292.8z"/>
	<path class="st6" d="M533.2,268.1c3.1-3.9,6.7-8.7,15.8-8.5s12.8,3.8,15.3,8.1c2.5,4.3,3,9.3,5.4,16.6s5.9,12.9,7.9,20
		c2,7.2,1.4,17.8-6.4,25c-7.7,7.2-15.3,8.6-28.6,6.1c-13.3-2.5-14.2-12-15.2-22c-0.9-9.9,2.3-14.9,1.7-22.4
		C528.6,283.3,530,272,533.2,268.1z"/>
</g>
</svg>
