<?xml version="1.0" encoding="utf-8"?>
<!-- Generator: Adobe Illustrator 27.0.0, SVG Export Plug-In . SVG Version: 6.00 Build 0)  -->
<svg version="1.1" id="Layer_1" xmlns="http://www.w3.org/2000/svg" xmlns:xlink="http://www.w3.org/1999/xlink" x="0px" y="0px"
	 viewBox="0 0 756 450" style="enable-background:new 0 0 756 450;" xml:space="preserve">
<style type="text/css">
	.st0{fill:#EDEDED;enable-background:new    ;}
	.st1{clip-path:url(#SVGID_00000137823265095443141560000017101929767864520371_);}
	.st2{fill:#2A2E44;}
	.st3{opacity:0.29;fill:#1C2039;enable-background:new    ;}
	.st4{fill:#0685A5;}
	.st5{fill:#F39D15;}
	.st6{fill:#F37D66;}
	.st7{fill:#1C2039;}
	.st8{fill:#06738C;}
	.st9{fill:#FCB47F;}
</style>
<g>
	<circle class="st0" cx="257" cy="170.7" r="111.8"/>
	<path class="st0" d="M573.9,376.5H166c-47.5,0-86-38.5-86-86v0c0-47.5,38.5-86,86-86h407.9c47.5,0,86,38.5,86,86v0
		C659.9,338,621.4,376.5,573.9,376.5z"/>
	<circle class="st0" cx="462" cy="159.9" r="136.2"/>
</g>
<g>
	<g>
		<defs>
			<rect id="SVGID_1_" x="2.7" width="750" height="450"/>
		</defs>
		<clipPath id="SVGID_00000137832219471735598320000011486886057660389271_">
			<use xlink:href="#SVGID_1_"  style="overflow:visible;"/>
		</clipPath>
		<g style="clip-path:url(#SVGID_00000137832219471735598320000011486886057660389271_);">
			<path class="st2" d="M306.1,134.1l-5.2-21.8l49.1-11.6c6-1.5,12,2.3,13.5,8.3c1.5,6-2.3,12-8.3,13.5L306.1,134.1z"/>
			<path class="st2" d="M322.6,198.5l-5.2-21.8l49.1-11.6c6-1.5,12,2.3,13.5,8.3c1.5,6-2.3,12-8.3,13.5L322.6,198.5z"/>
			<path class="st3" d="M228.8,401.7c60.5,0,109.5-3.2,109.5-7.1c0-3.9-49-7.1-109.5-7.1s-109.5,3.2-109.5,7.1
				C119.3,398.6,168.3,401.7,228.8,401.7z"/>
			<path class="st4" d="M209.7,175.4c-7.2-4.8-4.1-22.1,7.1-38.5c11.1-16.4,25.9-25.8,33.1-20.9c7.2,4.8,4.1,22.1-7.1,38.5
				C231.8,170.8,216.9,180.2,209.7,175.4z"/>
			<path class="st5" d="M237.9,221c1.5-0.9,3.7-0.9,6.1-0.7c5.3,0.7,10.6,4.6,13.4,10.1c6.4,12.7,18.9,37.4,23.5,46.8
				c1.4,2.6,1.8,5.4,1.5,8l-1,6.6c-0.7,4.3-3.7,7.2-8,7.3c-3.5,0.1-7.2-1.6-10-4.6l-7.4-8.1c-5.7-6.3-12.7-11-20-13.9
				c-6.6-2.5-11.9-9-13.3-16.1c-2.7-14.9,2.5-28.2,13.3-34.5L237.9,221z"/>
			<path class="st5" d="M199.6,234.7c-1.6,0.8-2.9,2.6-3.9,4.7c-2.5,4.8-2,11.5,1,17c7,12.5,20.5,36.9,25.8,46.3
				c1.5,2.6,3.5,4.6,5.9,5.6l6.1,2.9c3.9,1.9,8,0.9,10.5-2.6c2-2.8,2.7-7,1.7-11l-2.6-10.9c-2-8.3-2.1-16.9-0.3-24.7
				c1.6-7-0.8-15.2-6.1-20.3c-10.9-10.6-24.8-13.7-36-8.2L199.6,234.7z"/>
			<path class="st4" d="M168.6,153.9l-19.3,20.6c-2.6,2.7-2.9,6.9-0.8,9.9l6.6,10c5.1,7.7,11.5,14.2,19.1,19.3l5.1,3.5
				c8.3,5.6,13.2,15,13.2,25v2.7c0,2,1.4,3.8,3.3,4.4l0.2,0.1c19.4,3.7,37-2.9,49.5-13.3c2.6-2.1,4.4-4.6,6.1-6.3
				c2.3-2.4,2.5-6.1,0.7-8.8l-8.1-11.8c-6.1-9-10.2-19.1-12.2-29.8l-1-5.5c-1.2-7.1-3.3-14.1-6.1-20.7l-2.9-7
				c-1.1-2.6-3.7-4.4-6.5-4.3l-20.4,0.5C185,142.4,175.4,146.6,168.6,153.9z"/>
			<path class="st6" d="M170.4,131.7l-3.7,24.5l5.4,1.6c7.2,2,15,0.7,21.1-3.6c4.7-3.3,6.3-9.6,3.7-14.8l-4.6-8.4L170.4,131.7z"/>
			<path class="st6" d="M193.2,140.2c2.3-2.1,3-5.5,3-8.7c0-11.7-9.2-20.9-17.9-28.8c-0.9-0.8-1.9-1.7-3.2-1.9
				c-1.9-0.3-10.9-0.3-12.4,0.8c-5.9,5.6-4.1,12.6-9.7,18.6c-0.5,0.5-1,1-1,1.7c-0.1,0.7,0.2,1.5,0.7,2c1.9,2.8,5.2,4.6,7.4,7.1
				c2.4,2.6,5,5.1,7.8,7.1c5.5,4.1,12.2,6.4,19,5.1C189.2,142.6,191.5,141.8,193.2,140.2z"/>
			<path class="st7" d="M172.9,147c0,0-20.6-8.9-25.7-16.6s-5.5-13.2-1.8-16.2c3.8-3,15.5-5.4,15.5-5.4s2.1,23.5,4.6,25.2
				C173.8,139.7,172.9,147,172.9,147z"/>
			<path class="st7" d="M149.4,114.3c0.6-0.5,8.2-18.5,9.6-19.4c0.9-0.7,2.3-1,3.7-1.4c2.7-0.6,6.3,0,13.3-1.4h0.1
				c2-0.3,4.1-1,6.2-1.9c3-1.2,8.1-3.9,8.8-4.2c1.5-0.7,8.4,2.6,0.8,9.7c-3.6,3.4-13.2,8.1-20.2,11.3c-7.4,3.7-12.4,5.7-17.6,15.3
				c-5.5,9.8-7.7,8.6-7.3,3.9C147,121.8,149.6,114.1,149.4,114.3z"/>
			<path class="st6" d="M158.7,128.1c-0.2,2.1,1.5,4.7,3.9,5.7c2.4,1,4.5,0.1,4.7-2.1c0.2-2.1-1.5-4.7-3.9-5.7
				C161.1,124.9,159,126,158.7,128.1z"/>
			<path class="st4" d="M251.5,132.8c-4.2,6.2-12.2,7.1-17.7,2.1c-5.5-5-6.6-14-2.5-20.2c4.2-6.2,12.2-7.1,17.7-2.1
				C254.7,117.7,255.8,126.8,251.5,132.8z"/>
			<path class="st6" d="M288.2,80.2l4.5-1.8c1.4-0.6,2.7,1,1.8,2.3c-7.2,10.1-25.9,35.7-35.5,44.9c-4.7,4.5-12,4.8-16.3-0.2
				c-4.3-5-3-12.2,2.1-16.2C256.1,100.4,288.2,80.2,288.2,80.2z"/>
			<path class="st4" d="M183.1,235.8c7.5-4.4,5.9-21.2-3.6-37.5c-9.5-16.3-23.3-26-30.7-21.6c-7.5,4.4-5.9,21.2,3.6,37.5
				C161.8,230.5,175.5,240.2,183.1,235.8z"/>
			<path class="st5" d="M229.3,289.5c-1.2,0.3-2.4,0.8-3.4,1.5l-20.7,14c-9.3,6.3-17.1,14.5-23,24.3l-27.9,45.3l5.3,5.2l53.9-43.8
				l30.5-26.5c1.9-1.7,2.5-4.5,1.2-6.9l-3.9-7.4C239.1,290.6,234.2,288.2,229.3,289.5z"/>
			<path class="st7" d="M172.6,398.1l-22.2-19l4.5-5.4l6.3,6.2l11.4,13C173.8,394.3,173.8,396.6,172.6,398.1z"/>
			<path class="st5" d="M257.9,280.5c-0.6,1.1-1,2.3-1.1,3.5l-3.7,24.7c-1.7,11-0.9,22.4,2.4,33.1l14.9,49.8l6.9,0.5l4.2-69
				l1.1-40.2c0.1-2.6-1.7-4.8-4.2-5.5l-8.1-2C265.4,273.9,260.3,276.2,257.9,280.5z"/>
			<path class="st7" d="M299.4,397.4l-29.1,0.8l-0.2-7l8.9,0.2l16.9,2C297.8,393.8,299.3,395.3,299.4,397.4z"/>
			<path class="st7" d="M188.9,187.7c-8.2-34.8,13.3-69.7,48.2-77.9l59.3-14l29.8,126.1l-59.3,14C232,244.1,197.1,222.6,188.9,187.7
				z"/>
			<path class="st7" d="M192.6,177.4l-19.1,4.2l3.2,15.7l21.6-5L192.6,177.4z"/>
			<path class="st7" d="M293.5,75.1l2-0.5l39.3,166.6l-2,0.5c-3.2,0.8-6.4-1.2-7.1-4.4l-36.6-155C288.3,79,290.4,75.9,293.5,75.1z"
				/>
			<path class="st5" d="M241.8,161.9l6.4,17.9l-31.9-0.7l54.2,11l-7.1-19.7l34.2-0.3L241.8,161.9z"/>
			<path class="st7" d="M207.2,210.6c-1.4,0.2-5.6-6.3-17-14c-12.7-8.7-30.2-4.7-41.8,2.9c-12,8-20.8,20.2-29.5,32
				c-0.6,0.8-1.1,1.5-1.6,2.3c-9.5,13-19.8,26.2-34.3,33.7c-14.3,7.3-30.5,8.1-46.2,8.9c-5.6,0.2-11.5,0.6-17,1.1
				c-34.1,3.6-67,19.9-90.3,45c-2.1,2.3-4.2,4.7-6.3,7c-6.4,7.4-13.2,15.1-21.8,20.4c-6.1,3.7-13.2,5.7-19.9,5.7
				c-7.7,0-14.3-2.6-18.9-7.4c-8.3-8.7-7.9-21.5-6.9-28.3c0.8-5,2-9.7,3.4-14.3c1.1-4.2,2.4-8.4,3-12.7c2.3-13.4-0.2-27.5-6.6-39.5
				c-1,0.5-2.1,0.9-3.3,1.4c-11,4.3-19.9,4.8-27.1,1.6c-5.1-2.3-9.2-7.3-10.6-13c-1.1-4.6-0.2-8.9,2.4-12.3c2.5-3.2,6.1-5,10.4-5.2
				c7.8-0.5,16.2,4.3,21.1,9.2c3.5,3.5,6.6,7.4,9.2,11.6c21.5-10.7,38.6-29.8,46.6-52.6c8.8-25.2,6-54.1-7.4-77.1
				c-1.6-2.7-3.2-5.2-4.8-7.4c-2.9,1-6.1,1.7-9.2,2c-6.8,0.7-13.9-0.1-20.4-2.5c-7.1-2.5-9-9.3-7.2-14.8c1.8-5.4,7.4-9.8,14.6-7.7
				c2.5,0.8,4.7,1.7,7,2.8c6.2,3.2,11.8,7.9,16.8,14c1.9-0.9,3.7-1.9,5.4-3.2c7.9-5.6,13.4-14.9,14.9-25.6c1.6-10.6-1-21.2-7-28.7
				c-6-7.7-15.5-12.6-26.2-13.6c-10.7-1-21.1,2-28.4,8.3c-7.4,6.4-12,15.2-16.9,24.4c-1.8,3.4-3.6,6.9-5.6,10.2
				c-4.5,7.7-17,25.5-35.4,24.2c-7.7-0.6-14.8-4.6-19.9-11.5c-4.8-6.5-7.3-14.6-6.8-22.4c0.5-7.4,3.2-14.6,8-21.5
				c4.2-6.1,10-11.5,16.7-15.9c2.8-1.8,5.9-3.5,8.8-5.2c4.4-2.5,8.6-4.8,12.3-7.7c-1-0.2-1.9-0.6-2.8-0.9c-5.7-2.3-10-6.3-12-11.4
				c-2.3-5.7-0.9-12.7,3.5-17.9c3.8-4.5,9.2-6.5,14.3-5.5c5,1.1,8.8,4.6,10.8,9.8c2.5,6.6,1.6,15-2.3,21.1c0.3-0.1,0.6-0.1,0.9-0.2
				c8.7-2.6,15.4-10.2,16.9-19.1c1.5-8.9-2.5-18.4-9.8-23.5c-7.9-5.6-19.7-6.4-31-2c-10.6,4.1-19.6,11.5-28.3,18.7l-81,67.1
				c-1.1,0.9-2.7,0.8-3.6-0.3c-0.9-1.1-0.8-2.7,0.3-3.6l81-67.1c9-7.4,18.4-15.2,29.7-19.5c6-2.3,12.3-3.4,18.2-3
				c6.6,0.3,12.7,2.3,17.6,5.7c8.9,6.3,13.6,17.8,11.8,28.5c-1.8,10.8-10,20-20.4,23.2c-2.3,0.7-4.6,1-7.1,1
				c-4.8,4.6-10.8,8-16.6,11.3c-2.8,1.6-5.7,3.3-8.4,5c-13.2,8.6-21.5,21.1-22.3,33.4c-0.5,6.5,1.7,13.5,5.9,19
				c4.3,5.7,10,9.1,16.1,9.5c15.5,1,26.6-14.9,30.6-21.7c1.9-3.3,3.7-6.6,5.4-10c4.8-9.3,9.9-18.9,18-25.9
				c8.4-7.2,20.2-10.7,32.2-9.6c12,1.1,22.9,6.9,29.7,15.5c6.9,8.8,9.8,20.6,8,32.7s-8,22.5-17,28.9c-1.6,1.1-3.4,2.1-5.2,3
				c1.6,2.1,3,4.4,4.4,6.9c14.2,24.3,17.1,54.7,7.8,81.3c-8.3,23.9-26.2,44-48.9,55.4c6.8,13,9.5,28,7,42.5c-0.8,4.5-2,9-3.2,13.3
				c-1.2,4.5-2.5,9.1-3.3,13.7c-1.5,10,0.5,18.8,5.5,24c8.1,8.4,22.9,6.8,32.5,0.9c8-4.8,14.1-11.9,20.6-19.4c2-2.4,4.2-4.8,6.3-7.1
				c12-13,26.4-23.6,42.6-31.8c16.2-8.1,33.3-13.1,51-15c5.7-0.6,11.6-0.9,17.3-1.1c15.9-0.8,30.7-1.5,44-8.3
				c13.5-7,23.5-19.7,32.5-32.2c0.6-0.8,1.1-1.5,1.6-2.3c8.8-12.2,18-24.8,30.7-33.2c13.1-8.7,32.8-12.8,47.4-2.9
				c3.8,2.6,6.9,5.7,9.3,9.3C208.5,210.5,208.6,210.4,207.2,210.6z M-182,11.4c0.6-0.7,1.1-1.4,1.7-2c3.5-4.7,4.6-12.2,2.6-17.8
				c-0.9-2.5-2.9-5.7-7.1-6.6c-3.3-0.7-6.6,0.7-9.3,3.8c-3.2,3.7-4.3,8.8-2.7,12.7c0.5,1,0.9,1.9,1.5,2.8
				C-192.4,8.6-187.2,11-182,11.4z M-136.1,104.5c8.1,2.8,16.8,3.2,24.4,1c-4.3-4.8-9-8.6-14.1-11.3c-1.9-1-4.1-1.9-6.2-2.5
				c-4.3-1.4-7.2,1.2-8.3,4.4c-0.7,1.9-0.6,4.2,0.7,6C-138.7,103-137.7,103.9-136.1,104.5z M-172.9,251.7c6,2.7,13.5,2.1,23.2-1.7
				c0.8-0.3,1.7-0.7,2.5-1c-2.4-3.6-5.1-7.1-8.1-10.1c-4.8-4.8-11.9-8-17.2-7.8c-2.8,0.1-5.1,1.2-6.6,3.3c-1.7,2-2.1,4.8-1.5,7.9
				c0.5,1.7,1.1,3.3,2.1,4.7C-177,249-175.1,250.7-172.9,251.7z"/>
			<path class="st4" d="M165.3,231.6c-4.3-6.1-2.5-13.9,4.1-17.3c6.5-3.5,15.4-1.5,19.7,4.6c4.3,6.1,2.5,13.9-4.1,17.3
				C178.4,239.7,169.7,237.7,165.3,231.6z"/>
			<path class="st6" d="M219.2,196.8l1.9,3c0,0-22.4,24.4-36,34.3c-5.3,3.8-12.6,3-16.2-2.4c-3.6-5.5-1.4-12.5,4.4-15.8
				C185.8,208.8,219.2,196.8,219.2,196.8z"/>
			<path class="st6" d="M207.2,201.6l8.2-4.5l0.8-2.4l1.4-5.9c0.1-0.3,0.3-0.6,0.6-0.7c0.6-0.2,1.1,0.2,1.1,0.8v2.7
				c0.2,1.4,1.6,2.3,2.9,1.8c0.6-0.1,1.1-0.5,1.6-0.9l1-0.9l3.5-5.1c0.2-0.3,0.7-0.5,1.1-0.3c0.6,0.2,0.9,0.9,0.6,1.4l-2.8,4.6
				l0.8,0.8c0.6,0.6,0.6,1.4,0,1.9c-0.5,0.5-0.6,1.2-0.1,1.8l0.1,0.1c0.5,0.7,0.5,1.6-0.2,2.1c-0.3,0.3-0.5,0.7-0.6,1.1v0.3
				c0,0.7-0.5,1.2-1.1,1.5l-0.6,0.1c-1.9,0.6-3.9,0.6-5.9-0.1c-0.9-0.3-1.8-0.5-2.7-0.5l-2.3-0.1L207.2,201.6z"/>
			<path class="st6" d="M296,80.4l-0.6-0.7c-0.2-0.2-0.3-0.3-0.7-0.5c-0.2-0.1-0.5-0.2-0.7-0.5l-2.8-2.9c-0.3-0.3-0.6-0.8-0.7-1.4
				c-0.1-1.6,1.2-2.7,2.7-2.5l1.2,0.2c1.4,0.3,2.7,1.1,3.6,2.1l0.2,0.2c1.4,1.6,1.5,3.7,0.5,5.5c-0.1,0.1-0.1,0.2-0.2,0.2
				C297.9,81.1,296.7,81.1,296,80.4z"/>
			<g>
				<path class="st8" d="M563.5,149.4c-1,5.5-15.5,8.3-34.2,5.1c-18.7-3.3-34.3-11.4-33.3-16.9c1-5.5,16.4-13.3,36.4-9.1
					C575.1,137.2,564.5,143.9,563.5,149.4z"/>
				<path class="st6" d="M509.6,142.7c3.7-3.3,4.2-9,1-12.6c-13.4-14.8-35.2-33.8-35.2-33.8l-3.9,3.4c0,0,16.4,29.8,26,41.8
					C500.6,145.3,505.9,146,509.6,142.7z"/>
				<path class="st3" d="M538,401.7c60.5,0,109.5-3.2,109.5-7.1c0-3.9-49-7.1-109.5-7.1s-109.5,3.2-109.5,7.1
					C428.5,398.6,477.5,401.7,538,401.7z"/>
				<path class="st4" d="M534.2,175.4c7.2-4.8,4.1-22.1-7.1-38.5c-11.1-16.4-25.9-25.8-33.1-20.9c-7.2,4.8-4.1,22.1,7.1,38.5
					C512.1,170.8,527,180.2,534.2,175.4z"/>
				<path class="st4" d="M492.4,132.8c4.2,6.2,12.2,7.1,17.7,2.1c5.5-5,6.6-14,2.5-20.2c-4.2-6.2-12.2-7.1-17.7-2.1
					C489.2,117.7,488.2,126.8,492.4,132.8z"/>
				<path class="st7" d="M551.3,177.4l19.1,4.2l-3.2,15.7l-21.6-5L551.3,177.4z"/>
				<path class="st7" d="M708.2,170c-2.4,0.2-4.7,0.8-7,1.7c-6.2-2.6-13-3.4-19.5-4.3c-3.3-0.5-6.5-0.9-9.7-1.5
					c-15.3-3-27.7-11.5-33.1-22.7c-2.8-6-3.5-13.2-1.7-19.8c1.8-6.9,6-12.2,11.5-14.9c14-6.8,30.2,3.9,36.5,8.8
					c2.9,2.3,6,4.8,8.8,7.3c8,6.9,16.2,13.9,26.4,17.5c10.5,3.6,22.7,2.5,33.4-3.2l-0.8-5.3c-9.6,5-21.8,6.8-31,3.6
					c-9.2-3.2-16.8-9.7-24.7-16.4c-2.9-2.5-6-5.1-9-7.4c-7.1-5.5-25.2-17.3-41.9-9.3c-6.9,3.4-11.9,9.8-14.2,18.1
					c-2.1,7.9-1.4,16.3,2,23.3c3.3,6.8,8.3,12.4,15.3,17c6.2,4.1,13.5,7,21.4,8.6c3.4,0.7,6.8,1.1,10,1.6c5,0.7,9.7,1.2,14.2,2.6
					c-0.8,0.6-1.6,1.2-2.4,1.9c-4.5,4.2-7,9.6-6.9,15.1c0,6.1,3.9,12.2,9.9,15.3c5.3,2.8,10.9,2.7,15.3-0.2
					c4.3-2.8,6.5-7.5,6.3-13.2c-0.1-7.1-4.2-14.5-9.9-18.8c0.3,0,0.7-0.1,0.9-0.1c9-0.8,18.1,3.8,22.7,11.5
					c4.6,7.7,4.5,17.9-0.3,25.6c-5.2,8.1-16,13.3-28,13.4c-11.4,0.2-22.4-3.4-33.2-6.9l-100-32.2c-1.4-0.5-2.8,0.3-3.2,1.7
					c-0.5,1.4,0.3,2.8,1.7,3.2l100,32.2c11.1,3.6,22.6,7.3,34.8,7.1c6.4-0.1,12.6-1.5,18.1-3.9c6.1-2.7,10.9-6.9,14.2-11.8
					c5.9-9.1,6.1-21.6,0.5-30.9C730.1,174.6,719,169.1,708.2,170z M712.4,194.1c0.1,2.7-0.6,6.4-4.1,8.8c-2.8,1.9-6.4,1.9-10,0
					c-4.3-2.3-7.2-6.6-7.2-10.8c0-1.1,0.1-2.1,0.3-3.2c1.1-5.1,5.1-9.1,9.8-11.6c0.8,0.3,1.6,0.8,2.4,1.2
					C708.6,181.6,712.3,188.1,712.4,194.1z"/>
				<path class="st7" d="M450.5,75.2l-2.1-0.6l-45.6,165.3l7.4,1.8c5,1.2,10-1.9,11.3-6.9l35.2-149.2
					C457.8,80.9,455,76.4,450.5,75.2z"/>
				<path class="st7" d="M555,187.7c8.2-34.8-13.3-69.7-48.2-77.9l-59.3-14l-29.8,126.1l59.3,14C511.9,244.1,546.8,222.6,555,187.7z
					"/>
				<path class="st5" d="M471.4,161.9l6.4,17.9l-31.9-0.7l54.2,11l-7.1-19.7l34.2-0.3L471.4,161.9z"/>
				<path class="st7" d="M448.4,74.6l-9.3-2l-36.3,167.3l6.2,1.2l7-10.5l34.7-145.9L448.4,74.6z"/>
				<path class="st2" d="M433.3,159c10-46.2,12.6-84.8,5.9-86.4c-6.8-1.5-20.5,34.8-30.4,81c-10,46.2-12.6,84.8-5.9,86.4
					C409.6,241.4,423.3,205.1,433.3,159z"/>
				<path class="st7" d="M433.5,129.7c1.5-7.4-0.1-13.9-3.4-14.5c-3.3-0.7-7.1,4.8-8.6,12.2c-1.5,7.4,0,13.9,3.4,14.5
					C428.2,142.5,432,137.1,433.5,129.7z"/>
				<path class="st7" d="M421.9,178c1.5-7.4,0-13.9-3.4-14.5c-3.3-0.7-7.1,4.8-8.6,12.2c-1.5,7.4,0,13.9,3.4,14.5
					C416.6,190.8,420.4,185.3,421.9,178z"/>
				<path class="st6" d="M580,114.8c0,0-4.8,18.4,2.6,28.7l-18.6,7.5l-11.4-10c0,0,6,2.8,7.2-28.2L580,114.8z"/>
				<path class="st9" d="M561.2,125.2c-2.6-0.1-10.4-1-10.6-3.6c-1.1-10.9-2.4-17.8-1.5-27.4c0.1-1,0.3-2,0.8-2.9
					c1.9-3.7,6.5-6.3,8.1-6.4c6.8,0.1,9.7,5.4,16.6,5.9c0.6,0,1.2,0.1,1.7,0.5c0.5,0.3,0.7,1,0.7,1.6c0.5,2.8-0.6,5.6-0.6,8.4
					c0,2.9-0.2,5.9-0.8,8.7c-1.1,5.5-3.8,10.6-8.9,13.6C565.1,124.5,563.2,125.3,561.2,125.2z"/>
				<path class="st4" d="M587,237.9c-11.5,2.4-23.5,2.3-35.1-0.3h-1.5c-3.3-0.8-5.1-4.3-3.6-7.3c0,0-4.4-27.1-12.4-59.5
					c-2.3-9.1,15.2-24.3,16.3-27.4l0.9-1.6c2-3.4,5.3-5.9,9-6.8c6.6-1.6,17.2-3,23.3,1.9c0.2,0.2,0.5,0.5,0.8,0.7
					c3.7,3.5,5.9,8.4,6,13.5C591.3,172.5,592.4,236.8,587,237.9z"/>
				<path class="st6" d="M561.2,125.2c-2.6-0.1-10.4-1-10.6-3.6c-1.1-10.9-2.4-17.8-1.5-27.4c0.1-1,0.2-2.1,0.8-2.9
					c0.9-1.2,6.5-6.3,8.1-6.4c6.8,0.1,9.7,5.4,16.6,5.9c0.6,0,1.2,0.1,1.7,0.5c0.5,0.3,0.7,1,0.7,1.6c0.5,2.8-0.6,5.6-0.6,8.4
					c0,2.9-0.2,5.9-0.8,8.7c-1.1,5.5-3.8,10.6-8.9,13.6C565.1,124.5,563.2,125.3,561.2,125.2z"/>
				<path class="st7" d="M547.3,86c-1-1.7-0.3-3.9,1.5-4.8l5.4-2.7c7.4-3.6,16.2-3,23.1,1.6l1.8,1.1c8.2,5.5,14.3,13.6,17.3,23.1
					l0.9,2.6c5,13.9-6.3,28-20.9,26.5c-7.4-0.8-13.4-6.5-14.4-14l-2.7-18.9c-0.7-4.4-3.4-8.4-7.4-10.2
					C550.1,89.1,548.5,87.8,547.3,86z"/>
				<path class="st7" d="M548.8,81.1l3.9-1.9c0.6,1.8,1.7,3.5,3.2,4.7c3.4,2.9,5.1,7.3,4.5,11.7l-0.8,6.4l-0.2-1.9
					C558.8,95.8,556,92,552,90c-1.9-0.9-3.5-2.4-4.5-4.2C546.3,84.2,547,82,548.8,81.1z"/>
				<path class="st7" d="M585.3,84.3c4.5-4.5,4.5-11.9,0-16.4s-11.9-4.5-16.4,0s-4.5,11.9,0,16.4C573.5,88.9,580.8,88.9,585.3,84.3z
					"/>
				<path class="st8" d="M584.2,152.3c-3.5-4.4-18.4,1.6-33.2,13.3c-14.9,11.7-24.1,24.9-20.6,29.3c3.5,4.4,21.4,4.8,36.3-6.9
					C581.5,176.3,587.7,156.7,584.2,152.3z"/>
				<path class="st6" d="M545.7,187.7c0.6,5-3,9.6-7.8,10c-19.8,1.9-48.8,1.2-48.8,1.2l-1.5-4.7c0,0,33.1-11.5,48.2-13.7
					C540.7,179.7,545.1,182.7,545.7,187.7z"/>
				<path class="st6" d="M581.4,286.5l11.9,26.5c5.1,11.3,7.1,23.8,5.6,36l-4.7,42.3l-5.1,1.1l-0.6-3.5c-2.6-11-5.1-22.2-7.1-33.3
					c-4.2-22.2-8.3-40.7-14-64.5v-0.2c-0.7-3.6,1.5-7.2,5.1-8.3C576.1,281.5,579.9,283.2,581.4,286.5z"/>
				<path class="st7" d="M532.4,391l-0.5,6.2c0,0.3-0.3,0.6-0.7,0.6l-12.7-2.6c-0.5-0.1-0.5-0.7,0-0.8l6-1.4
					c1.2-0.2,2.3-1.1,2.8-2.3l0.3-0.7L532.4,391z"/>
				<path class="st6" d="M555.7,289l2.3,28.9c1,12.4-1.4,24.8-6.9,35.8l-18.8,38.3l-5.1-0.7l0.7-3.5c1.2-11.3,2.8-22.5,4.6-33.8
					c3.6-22.3,5.9-41,8.7-65.5v-0.2c0.6-3.6,3.8-6.3,7.5-6.1C552.3,282.4,555.3,285.3,555.7,289z"/>
				<path class="st4" d="M528.9,304.7c2.7-12.7,15.7-78.6,18.2-83c1.4-2.4,7-4.1,8.7-4.6l2.3-0.8c12.5-4.4,21.1-9.1,31.3,5.9
					c5,7.1,1.4,27.1-1.1,35.2c-0.2,0.7-0.3,1.2-0.6,1.9c-3.5,13-1.9,26.8,4.2,38.7c1.4,2.7,2.4,5,2.3,5.4c-0.6,2.6-9.2,5.4-11.1,6.2
					c-0.6,0.2-1.1,0.3-1.7,0.5c0,0-9.5,2-18.1,3.6c-7.9,1.4-16,0.3-23.3-3C534.5,308.1,528.8,305.2,528.9,304.7z"/>
				<path class="st7" d="M594.3,387.4l0.6,6.2c0,0.3-0.2,0.7-0.6,0.7l-13-0.5c-0.5,0-0.6-0.7-0.1-0.8l5.6-2.4c1.1-0.5,2-1.5,2.4-2.7
					l0.2-0.7L594.3,387.4z"/>
				<path class="st6" d="M478.4,100.2c0.8-1.5,0.1-3.4-1.5-3.9l-3.3-1.4c-1.4-0.6-3.3-0.3-4.2,0.6l-0.8,0.7
					c-1.5,1.4-1.9,2.9-1.4,4.4l0.9,2.5c0.2,0.7,1,1.4,2,1.8c1.7,0.7,3.9,0.5,5.4-0.5l0.3-0.2c0.5-0.3,0.8-0.7,1-1L478.4,100.2z"/>
				<path class="st6" d="M497.6,197.4l-9-2.7l-1.2-2.1l-2.5-5.4c-0.1-0.2-0.5-0.5-0.7-0.5c-0.6-0.1-1,0.5-0.9,1l0.6,2.7
					c0.1,1.4-1.1,2.5-2.5,2.4c-0.6,0-1.2-0.2-1.8-0.6l-1.2-0.7l-4.5-4.3c-0.3-0.3-0.8-0.3-1.1-0.1c-0.6,0.3-0.7,1-0.2,1.5l3.7,3.9
					l-0.7,0.9c-0.5,0.7-0.2,1.5,0.5,1.9c0.6,0.3,0.8,1.1,0.6,1.7v0.1c-0.3,0.8-0.1,1.7,0.7,2.1c0.3,0.2,0.7,0.6,0.8,1l0.1,0.3
					c0.2,0.7,0.8,1.1,1.5,1.2h0.6c2,0.1,3.9-0.3,5.7-1.2c0.8-0.5,1.7-0.8,2.6-1l2.1-0.6L497.6,197.4z"/>
			</g>
		</g>
	</g>
</g>
</svg>
