<?xml version="1.0" encoding="utf-8"?>
<!-- Generator: Adobe Illustrator 27.0.0, SVG Export Plug-In . SVG Version: 6.00 Build 0)  -->
<svg version="1.1" id="Layer_1" xmlns="http://www.w3.org/2000/svg" xmlns:xlink="http://www.w3.org/1999/xlink" x="0px" y="0px"
	 viewBox="0 0 499.7 345" style="enable-background:new 0 0 499.7 345;" xml:space="preserve">
<style type="text/css">
	.st0{fill:#D3DDF2;}
	.st1{fill:#D5E3F7;}
	.st2{fill:#38517C;}
	.st3{fill:#F5A365;}
	.st4{fill:#11294C;}
	.st5{fill:#183972;}
	.st6{fill:#B6E1F7;}
	.st7{fill:#DD9152;}
	.st8{fill:#3D1A0E;}
	.st9{fill:#7DBBD3;}
	.st10{opacity:0.65;}
	.st11{fill:#C2CDE6;}
	.st12{fill:#FFFFFF;}
	.st13{fill:#A3B9E5;}
	.st14{fill:#87A4D8;}
	.st15{fill:#5B7ABE;}
	.st16{opacity:0.67;}
	.st17{fill:#92BAE8;}
	.st18{fill:#99CCFF;}
	.st19{fill:#2E4566;}
	.st20{fill:#92C8DD;}
	.st21{fill:#173456;}
	.st22{fill:#2F4666;}
</style>
<g>
	<g>
		<g>
			<g>
				<g>
					<path class="st0" d="M386.9,56.3V39l-11.3-2.1l-5.4-8.2l5.4-7.3l-14.3-9.6l-7.3,6.1l-9.2-1.4l-1.4-7.5h-17.6v9.4l-8.5,6.1
						l-9.6-4.9l-9.9,12.7l7.5,7.3l-2.8,8.9l-8.9,2.8l1.4,19.5l11,0.5l4.9,7.3l-4.5,7l13.6,9.2l7-5.4l10.3,1.6l1.2,9.2l17.6-2.3
						l-0.2-8.7l8.7-4.7l9.6,3.3l8.5-13.2l-8.5-5.4l2.8-9.9L386.9,56.3z M338.8,78.4c-13.4,0-24.3-10.9-24.3-24.3
						s10.9-24.3,24.3-24.3s24.3,10.9,24.3,24.3S352.2,78.4,338.8,78.4z"/>
				</g>
			</g>
		</g>
		<g>
			<g>
				<g>
					<path class="st0" d="M475.8,77.7l-3.8-17l-11.5,0.4l-7.1-6.9l3.7-8.3l-16.1-6.3l-5.8,7.5l-9.2,0.6l-3-7l-17.2,3.8l2,9.2
						l-6.9,7.8l-10.5-2.7l-6.9,14.5l8.9,5.5l-0.8,9.3l-8.1,4.7l5.6,18.7l10.9-1.9l6.4,6l-2.8,7.8l15.3,6l5.7-6.8l10.4-0.6l3.2,8.7
						l16.6-6.1l-2.1-8.4l7.5-6.5l10.1,1.1l5.4-14.7l-9.4-3.4l0.6-10.2L475.8,77.7z M433.7,109.6c-13.1,2.9-26.1-5.4-29-18.5
						c-2.9-13.1,5.4-26.1,18.5-29c13.1-2.9,26.1,5.4,29,18.5C455,93.7,446.8,106.7,433.7,109.6z"/>
				</g>
			</g>
		</g>
		<g>
			<g>
				<g>
					<path class="st0" d="M382.3,124l-2-9.2l-6.2,0.2l-3.8-3.7l2-4.5l-8.7-3.4l-3.1,4.1l-5,0.3l-1.6-3.8l-9.3,2.1l1.1,5l-3.7,4.2
						l-5.7-1.5l-3.7,7.9l4.8,3l-0.4,5l-4.4,2.5l3,10.1l5.9-1l3.5,3.3l-1.5,4.2l8.3,3.2l3.1-3.7l5.6-0.3l1.7,4.7l9-3.3l-1.1-4.6
						l4-3.5l5.5,0.6l2.9-7.9l-5.1-1.9l0.3-5.5L382.3,124z M359.5,141.2c-7.1,1.6-14.1-2.9-15.7-10c-1.6-7.1,2.9-14.1,10-15.7
						c7.1-1.6,14.1,2.9,15.7,10C371.1,132.6,366.6,139.7,359.5,141.2z"/>
				</g>
			</g>
		</g>
	</g>
	<g>
		<g>
			<rect y="259.8" class="st1" width="138.4" height="7.9"/>
		</g>
		<g>
			<rect y="278.7" class="st1" width="174.2" height="7.9"/>
		</g>
		<g>
			<rect y="297.5" class="st1" width="99.1" height="7.9"/>
		</g>
		<g>
			<rect y="316.4" class="st1" width="166.5" height="7.9"/>
		</g>
		<g>
			<rect y="335.3" class="st1" width="194.4" height="7.9"/>
		</g>
	</g>
	<g>
		<path class="st2" d="M461.7,307.1c0,0-9.3,3.9-13.7,2.9c0,0-4.2,2-1.3,5.6c0,0,10.9,4.8,26.1,2.2c0,0,11.2,0,15.7-1
			c0,0,0.7-8.6-3.1-11.4L461.7,307.1z"/>
		<g>
			<path class="st3" d="M475.7,292.2c0,0-8.6,14-14,14.9c0,0,1.7,5.2,8.4,4.2c0,0,12.9-1.8,15.3-5.8c0,0-0.4-9.5,0-12.3
				C485.4,293.2,479.2,290.1,475.7,292.2z"/>
		</g>
		<path class="st2" d="M436.4,318.8c0,0-9.3,3.9-13.7,2.9c0,0-4.2,2-1.3,5.6c0,0,10.9,4.8,26.1,2.2c0,0,11.2,0,15.7-1
			c0,0,0.7-8.6-3.1-11.4L436.4,318.8z"/>
		<g>
			<path class="st3" d="M450.4,303.9c0,0-8.6,14-14,14.9c0,0,1.7,5.2,8.4,4.2c0,0,12.9-1.8,15.3-5.8c0,0-0.4-9.5,0-12.3
				C460.1,304.9,453.9,301.8,450.4,303.9z"/>
		</g>
		<path class="st4" d="M469,266.6c0,0,3.6,22.4,1.1,30.5c0,0,10.9,3.1,15.6,0c0,0,4.8-36.3,0-51.7c0,0-8.2-33.7-8.8-37.5l-12.4,23.8
			v13.3L469,266.6z"/>
		<path class="st5" d="M482.7,198.6c0,0-12.2,32-13.9,40.2c0,0,0.3,4.3,1.7,9.5c0,0,3.8,2.9-6.7,57c0,0-7.2,5-14.5-1.3
			c0,0,7.2-39.8,4.2-47.3c0,0-5-13.9-3.2-19.6c0,0,0.4-29.5,2.3-35.3C452.6,201.8,470.5,194.4,482.7,198.6z"/>
		<path class="st6" d="M448.2,95.7c0,0-10,10-10.2,24.9l1.9,47.1l3.2,37.7h5.1l-2.2-28.2l-1.5-37.5l-0.2-13.5l3.9-17l2.2-9.6
			L448.2,95.7z"/>
		<path class="st2" d="M448.3,99.8c0,0-7.4,13.4-8.5,23.9c0,0,0.2,4.6,3.2,13c0,0-0.8,38.7,1.1,47.4c0,0,5.6,1.6,8.4,1.6l6.5-66.1
			l4.1-22.1v-9l-1-1.3l-2.3-1.1C459.8,86.2,449.2,94.4,448.3,99.8z"/>
		<path class="st7" d="M440.8,81.4c0,0,8.8,12.1,7.4,18.4c0,0,10.7-6.5,11.5-13.6c0,0-4.6-4.5-6.3-11.1
			C453.5,75.1,442.7,78.1,440.8,81.4z"/>
		<path class="st6" d="M483.2,101.8c0,0,7.1,5.5-1.5,37.5c0,0-1.5,9.9,0,17.3c0,0,7.2,36,6.1,40.6c0,0-2.4,4.8-6.8,3.6
			c0,0-2.7,0.6-6.5,0.2c0,0-19.1,1.9-24,6.9c0,0-6.5-65.9-1.9-80.2c0,0,6.1-35.9,13.5-40.5C462.1,87.3,472.1,80.2,483.2,101.8z"/>
		<path class="st6" d="M467.4,120.6l15.8,25.1l1.4,36.4c0,0,2.5,6.2,9.9,0c0,0,4.2-36.1,2.5-43.4c0,0-9.3-28.9-17.8-36.9
			C479.3,101.8,458.9,83.9,467.4,120.6z"/>
		<path class="st3" d="M485.4,183.3l-1.8,8.6v8.2l1.8,8.6l1.3,3.3c0,0,2.2,1.2,1.8-2.6l-1.4-9.7l2.5,6l3.1,6.6c0,0,2.6,2.3,2.5-1.4
			l-2.9-7.1l-2.2-5.6l3.6,6.4l3.1,5.7c0,0,1.8,0.9,1.2-2.3l-4.4-9.8l4.5,8.2c0,0,2.4,1.2,1.4-2.5l-3.6-7.1c0,0,0.6-7.1-1.4-10.1
			l-0.7-5.8C493.8,180.7,487.3,181.1,485.4,183.3z"/>
		<path class="st3" d="M442.8,54.6c0,0-5,2.4-6.3,6.7c0,0-0.4,2.4,0,3.2c0,0-0.1,1-0.8,2.5c0,0-3.2,10.1,2.7,14.7
			c0,0,6.6,2.4,13.6-3.9c0,0,2.2-0.8,4.8-3.4c0,0,3.6-4.5,0-5.2c0,0-2.4,0.1-3.2-10.1C453.5,59.3,449.7,51.3,442.8,54.6z"/>
		<path class="st8" d="M442.9,54.5c0,0,1.3-6.4,12.6-0.8c0,0,9.1,2,10,11.9c0,0,4.1,18.8,8.4,21.9c0,0,9.7,7.6,9.3,14.3
			c0,0-7.9-12.3-16-14.3c0,0-5.9,0.5-7.4-1.3l-5.2-3.1L450.3,73V60.6L442.9,54.5z"/>
		<path class="st9" d="M481.4,142.8l-14-22.2c0,0-1.7-2.3-3-12.7c0,0-0.4,7.6,1.5,13.4l15.1,26.5L481.4,142.8z"/>
	</g>
	<g class="st10">
		<g>
			<path class="st11" d="M188.9,135.3H91.4c-32.5,0-58.8-26.3-58.8-58.8V60.7c0-32.5,26.3-58.8,58.8-58.8h97.5
				c32.5,0,58.8,26.3,58.8,58.8v15.8C247.7,109,221.4,135.3,188.9,135.3z"/>
		</g>
		<g>
			<path class="st11" d="M95.4,83.5H61c-8,0-14.4-6.5-14.4-14.4v-3.9c0-8,6.5-14.4,14.4-14.4h34.5c8,0,14.4,6.5,14.4,14.4v3.9
				C109.8,77,103.4,83.5,95.4,83.5z"/>
			<path class="st12" d="M102.2,84.6h-48c-4.8,0-8.8-3.9-8.8-8.8V58.4c0-4.8,3.9-8.8,8.8-8.8h48c4.8,0,8.8,3.9,8.8,8.8v17.4
				C111,80.7,107,84.6,102.2,84.6z M54.2,51.9c-3.6,0-6.5,2.9-6.5,6.5v17.4c0,3.6,2.9,6.5,6.5,6.5h48c3.6,0,6.5-2.9,6.5-6.5V58.4
				c0-3.6-2.9-6.5-6.5-6.5H54.2z"/>
		</g>
		<g>
			<path class="st11" d="M213.5,83.5h-5.4c-11.1,0-20.1-9-20.1-20.1v-8.8c0-11.1,9-20.1,20.1-20.1h5.4c11.1,0,20.1,9,20.1,20.1v8.8
				C233.7,74.5,224.7,83.5,213.5,83.5z"/>
			<path class="st12" d="M225.7,84.6h-29.8c-5,0-9.1-4.1-9.1-9.1V42.4c0-5,4.1-9.1,9.1-9.1h29.8c5,0,9.1,4.1,9.1,9.1v33.2
				C234.8,80.6,230.7,84.6,225.7,84.6z M195.9,35.6c-3.7,0-6.8,3-6.8,6.8v33.2c0,3.7,3,6.8,6.8,6.8h29.8c3.7,0,6.8-3,6.8-6.8V42.4
				c0-3.7-3-6.8-6.8-6.8H195.9z"/>
		</g>
		<g>
			<path class="st11" d="M228.2,24.1H211c-4,0-7.2-3.2-7.2-7.2V15c0-4,3.2-7.2,7.2-7.2h17.2c4,0,7.2,3.2,7.2,7.2v1.9
				C235.4,20.9,232.2,24.1,228.2,24.1z"/>
			<path class="st12" d="M231.6,25.2h-24c-2.7,0-5-2.2-5-5v-8.7c0-2.7,2.2-5,5-5h24c2.7,0,5,2.2,5,5v8.7
				C236.5,23,234.3,25.2,231.6,25.2z M207.6,8.9c-1.5,0-2.7,1.2-2.7,2.7v8.7c0,1.5,1.2,2.7,2.7,2.7h24c1.5,0,2.7-1.2,2.7-2.7v-8.7
				c0-1.5-1.2-2.7-2.7-2.7H207.6z"/>
		</g>
		<g>
			<path class="st11" d="M188.4,24.1h-17.2c-4,0-7.2-3.2-7.2-7.2V15c0-4,3.2-7.2,7.2-7.2h17.2c4,0,7.2,3.2,7.2,7.2v1.9
				C195.6,20.9,192.4,24.1,188.4,24.1z"/>
			<path class="st12" d="M191.8,25.2h-24c-2.7,0-5-2.2-5-5v-8.7c0-2.7,2.2-5,5-5h24c2.7,0,5,2.2,5,5v8.7
				C196.8,23,194.5,25.2,191.8,25.2z M167.8,8.9c-1.5,0-2.7,1.2-2.7,2.7v8.7c0,1.5,1.2,2.7,2.7,2.7h24c1.5,0,2.7-1.2,2.7-2.7v-8.7
				c0-1.5-1.2-2.7-2.7-2.7H167.8z"/>
		</g>
		<g>
			<path class="st13" d="M148.6,24.1h-17.2c-4,0-7.2-3.2-7.2-7.2V15c0-4,3.2-7.2,7.2-7.2h17.2c4,0,7.2,3.2,7.2,7.2v1.9
				C155.9,20.9,152.6,24.1,148.6,24.1z"/>
		</g>
		<g>
			<path class="st11" d="M108.9,24.1H91.6c-4,0-7.2-3.2-7.2-7.2V15c0-4,3.2-7.2,7.2-7.2h17.2c4,0,7.2,3.2,7.2,7.2v1.9
				C116.1,20.9,112.8,24.1,108.9,24.1z"/>
			<path class="st12" d="M112.3,25.2h-24c-2.7,0-5-2.2-5-5v-8.7c0-2.7,2.2-5,5-5h24c2.7,0,5,2.2,5,5v8.7
				C117.2,23,115,25.2,112.3,25.2z M88.2,8.9c-1.5,0-2.7,1.2-2.7,2.7v8.7c0,1.5,1.2,2.7,2.7,2.7h24c1.5,0,2.7-1.2,2.7-2.7v-8.7
				c0-1.5-1.2-2.7-2.7-2.7H88.2z"/>
		</g>
		<g>
			<path class="st11" d="M69.1,24.1H51.9c-4,0-7.2-3.2-7.2-7.2V15c0-4,3.2-7.2,7.2-7.2h17.2c4,0,7.2,3.2,7.2,7.2v1.9
				C76.3,20.9,73.1,24.1,69.1,24.1z"/>
			<path class="st12" d="M72.5,25.2h-24c-2.7,0-5-2.2-5-5v-8.7c0-2.7,2.2-5,5-5h24c2.7,0,5,2.2,5,5v8.7C77.4,23,75.2,25.2,72.5,25.2
				z M48.5,8.9c-1.5,0-2.7,1.2-2.7,2.7v8.7c0,1.5,1.2,2.7,2.7,2.7h24c1.5,0,2.7-1.2,2.7-2.7v-8.7c0-1.5-1.2-2.7-2.7-2.7H48.5z"/>
		</g>
		<g>
			<rect x="50.4" y="94.8" class="st13" width="59.5" height="3.3"/>
		</g>
		<g>
			<rect x="50.4" y="101.7" class="st13" width="40.6" height="3.3"/>
		</g>
		<g>
			<rect x="50.4" y="108.7" class="st13" width="59.5" height="3.3"/>
		</g>
		<g>
			<rect x="50.4" y="115.6" class="st13" width="53" height="3.3"/>
		</g>
		<g>
			<rect x="181.1" y="96.6" class="st13" width="59.5" height="3.3"/>
		</g>
		<g>
			<rect x="181.1" y="103.6" class="st13" width="40.6" height="3.3"/>
		</g>
		<g>
			<rect x="181.1" y="110.5" class="st13" width="59.5" height="3.3"/>
		</g>
		<g>
			<rect x="181.1" y="117.5" class="st13" width="53" height="3.3"/>
		</g>
		<g>
			<rect x="135" y="52" class="st14" width="9.5" height="16.7"/>
		</g>
		<g>
			<rect x="148.8" y="49.2" class="st14" width="9.5" height="19.5"/>
		</g>
		<g>
			<rect x="162.6" y="49.2" class="st14" width="9.5" height="19.5"/>
		</g>
		<g>
			<polygon class="st15" points="121.6,67.1 137.8,59.4 146.4,64.7 165.9,55.9 167.3,57 169.6,53.5 164.5,53.5 165.6,54.6 
				146.8,62.7 138.5,57.3 121.6,65.3 			"/>
		</g>
		<g>
			
				<ellipse transform="matrix(0.6057 -0.7957 0.7957 0.6057 -21.2518 156.8764)" class="st14" cx="147.7" cy="99.9" rx="22.9" ry="22.9"/>
		</g>
		<g>
			<path class="st15" d="M147.7,99.9l21-9.2c0,0-4.5-10.5-15-13L147.7,99.9z"/>
		</g>
		<g>
			<path class="st5" d="M147.7,99.9l-2-22.9c0,0,5.1-0.4,8,0.7L147.7,99.9z"/>
		</g>
	</g>
	<g class="st16">
		<g>
			<path class="st11" d="M159,247.8H65.9c-17.3,0-31.2-14-31.2-31.2v-34c0-17.3,14-31.2,31.2-31.2H159c17.3,0,31.2,14,31.2,31.2v34
				C190.3,233.8,176.3,247.8,159,247.8z"/>
		</g>
		<g>
			<path class="st11" d="M176.2,167.3h-12.5c-2.9,0-5.2-2.3-5.2-5.2v-1.4c0-2.9,2.3-5.2,5.2-5.2h12.5c2.9,0,5.2,2.3,5.2,5.2v1.4
				C181.4,165,179,167.3,176.2,167.3z"/>
			<path class="st12" d="M178.6,168.1h-17.4c-2,0-3.6-1.6-3.6-3.6v-6.3c0-2,1.6-3.6,3.6-3.6h17.4c2,0,3.6,1.6,3.6,3.6v6.3
				C182.2,166.5,180.6,168.1,178.6,168.1z M161.2,156.3c-1.1,0-1.9,0.9-1.9,1.9v6.3c0,1.1,0.9,1.9,1.9,1.9h17.4
				c1.1,0,1.9-0.9,1.9-1.9v-6.3c0-1.1-0.9-1.9-1.9-1.9H161.2z"/>
		</g>
		<g>
			<path class="st11" d="M147.4,167.3h-12.5c-2.9,0-5.2-2.3-5.2-5.2v-1.4c0-2.9,2.3-5.2,5.2-5.2h12.5c2.9,0,5.2,2.3,5.2,5.2v1.4
				C152.6,165,150.3,167.3,147.4,167.3z"/>
			<path class="st12" d="M149.9,168.1h-17.4c-2,0-3.6-1.6-3.6-3.6v-6.3c0-2,1.6-3.6,3.6-3.6h17.4c2,0,3.6,1.6,3.6,3.6v6.3
				C153.4,166.5,151.8,168.1,149.9,168.1z M132.5,156.3c-1.1,0-1.9,0.9-1.9,1.9v6.3c0,1.1,0.9,1.9,1.9,1.9h17.4
				c1.1,0,1.9-0.9,1.9-1.9v-6.3c0-1.1-0.9-1.9-1.9-1.9H132.5z"/>
		</g>
		<g>
			<path class="st13" d="M118.6,167.3h-12.5c-2.9,0-5.2-2.3-5.2-5.2v-1.4c0-2.9,2.3-5.2,5.2-5.2h12.5c2.9,0,5.2,2.3,5.2,5.2v1.4
				C123.9,165,121.5,167.3,118.6,167.3z"/>
		</g>
		<g>
			<path class="st11" d="M89.9,167.3H77.4c-2.9,0-5.2-2.3-5.2-5.2v-1.4c0-2.9,2.3-5.2,5.2-5.2h12.5c2.9,0,5.2,2.3,5.2,5.2v1.4
				C95.1,165,92.8,167.3,89.9,167.3z"/>
			<path class="st12" d="M92.3,168.1H75c-2,0-3.6-1.6-3.6-3.6v-6.3c0-2,1.6-3.6,3.6-3.6h17.4c2,0,3.6,1.6,3.6,3.6v6.3
				C95.9,166.5,94.3,168.1,92.3,168.1z M75,156.3c-1.1,0-1.9,0.9-1.9,1.9v6.3c0,1.1,0.9,1.9,1.9,1.9h17.4c1.1,0,1.9-0.9,1.9-1.9
				v-6.3c0-1.1-0.9-1.9-1.9-1.9H75z"/>
		</g>
		<g>
			<path class="st11" d="M61.1,167.3H48.7c-2.9,0-5.2-2.3-5.2-5.2v-1.4c0-2.9,2.3-5.2,5.2-5.2h12.5c2.9,0,5.2,2.3,5.2,5.2v1.4
				C66.3,165,64,167.3,61.1,167.3z"/>
			<path class="st12" d="M63.6,168.1H46.2c-2,0-3.6-1.6-3.6-3.6v-6.3c0-2,1.6-3.6,3.6-3.6h17.4c2,0,3.6,1.6,3.6,3.6v6.3
				C67.2,166.5,65.5,168.1,63.6,168.1z M46.2,156.3c-1.1,0-1.9,0.9-1.9,1.9v6.3c0,1.1,0.9,1.9,1.9,1.9h17.4c1.1,0,1.9-0.9,1.9-1.9
				v-6.3c0-1.1-0.9-1.9-1.9-1.9H46.2z"/>
		</g>
		<g>
			<rect x="47.6" y="218.4" class="st13" width="43" height="2.4"/>
		</g>
		<g>
			<rect x="47.6" y="223.4" class="st13" width="29.3" height="2.4"/>
		</g>
		<g>
			<rect x="47.6" y="228.5" class="st13" width="43" height="2.4"/>
		</g>
		<g>
			<rect x="47.6" y="233.5" class="st13" width="38.3" height="2.4"/>
		</g>
		<g>
			<rect x="142.1" y="219.8" class="st13" width="43" height="2.4"/>
		</g>
		<g>
			<rect x="142.1" y="224.8" class="st13" width="29.3" height="2.4"/>
		</g>
		<g>
			<rect x="142.1" y="229.8" class="st13" width="43" height="2.4"/>
		</g>
		<g>
			<rect x="142.1" y="234.8" class="st13" width="38.3" height="2.4"/>
		</g>
		<g>
			
				<ellipse transform="matrix(0.9191 -0.394 0.394 0.9191 -80.7469 63.67)" class="st14" cx="114.7" cy="228.5" rx="12.3" ry="12.3"/>
		</g>
		<g>
			<path class="st15" d="M114.7,228.5l11.3-4.9c0,0-2.4-5.6-8-6.9L114.7,228.5z"/>
		</g>
		<g>
			<path class="st5" d="M114.7,228.5l-1.1-12.3c0,0,2.7-0.2,4.3,0.4L114.7,228.5z"/>
		</g>
		<g>
			<g>
				<g>
					<rect x="58.1" y="173.9" class="st1" width="4.1" height="34.4"/>
				</g>
			</g>
			<g>
				<g>
					<rect x="66.8" y="181.3" class="st1" width="4.1" height="27.1"/>
				</g>
			</g>
			<g>
				<g>
					<rect x="75.4" y="185.4" class="st1" width="4.1" height="23"/>
				</g>
			</g>
			<g>
				<g>
					<rect x="84.3" y="190.3" class="st1" width="4.1" height="18"/>
				</g>
			</g>
			<g>
				<g>
					<rect x="93.1" y="175.9" class="st1" width="4.1" height="32.5"/>
				</g>
			</g>
			<g>
				<g>
					<rect x="101.8" y="182.4" class="st1" width="4.1" height="26"/>
				</g>
			</g>
			<g>
				<g>
					<rect x="110.6" y="180" class="st1" width="4.1" height="28.4"/>
				</g>
			</g>
			<g>
				<g>
					<rect x="119.3" y="188.9" class="st1" width="4.1" height="19.5"/>
				</g>
			</g>
			<g>
				<g>
					<rect x="128.1" y="185.1" class="st1" width="4.1" height="23.2"/>
				</g>
			</g>
			<g>
				<g>
					<rect x="136.8" y="190.8" class="st1" width="4.1" height="17.5"/>
				</g>
			</g>
			<g>
				<g>
					<rect x="145.6" y="193.6" class="st1" width="4.1" height="14.8"/>
				</g>
			</g>
			<g>
				<g>
					<rect x="154.3" y="185.6" class="st1" width="4.1" height="22.8"/>
				</g>
			</g>
			<g>
				<g>
					<rect x="163.1" y="176.6" class="st1" width="4.1" height="31.7"/>
				</g>
			</g>
			<g>
				<g>
					<polygon class="st17" points="147.6,192.1 138.8,189.6 138.8,189.5 129.9,182.9 121.2,187.3 112.8,177.1 103.1,180.7 
						103.1,180.7 94.8,171.5 86.3,188.7 77.1,183.4 68.8,179.1 68.8,179.1 60.1,171.4 60.2,171.4 68.9,179 77.1,183.3 86.2,188.5 
						94.7,171.3 94.8,171.4 103.2,180.6 112.9,177 112.9,177 121.2,187.2 129.9,182.8 138.8,189.4 147.6,192 156.3,182.5 
						165.1,173.6 165.2,173.7 156.4,182.6 					"/>
				</g>
			</g>
			<g>
				<g>
					<circle class="st18" cx="60" cy="171.3" r="1"/>
				</g>
				<g>
					<path class="st18" d="M60,172.4c-0.6,0-1-0.5-1-1c0-0.6,0.5-1,1-1c0.6,0,1,0.5,1,1C61.1,171.9,60.6,172.4,60,172.4z M60,170.3
						c-0.6,0-1,0.5-1,1c0,0.6,0.5,1,1,1c0.6,0,1-0.5,1-1C61,170.8,60.6,170.3,60,170.3z"/>
				</g>
			</g>
			<g>
				<g>
					<path class="st18" d="M69.7,179c0,0.6-0.5,1-1,1s-1-0.5-1-1s0.5-1,1-1S69.7,178.4,69.7,179z"/>
				</g>
				<g>
					<path class="st18" d="M68.7,180c-0.6,0-1-0.5-1-1c0-0.6,0.5-1,1-1c0.6,0,1,0.5,1,1C69.7,179.5,69.2,180,68.7,180z M68.7,178
						c-0.6,0-1,0.5-1,1c0,0.6,0.5,1,1,1c0.6,0,1-0.5,1-1C69.7,178.4,69.2,178,68.7,178z"/>
				</g>
			</g>
			<g>
				<g>
					<circle class="st18" cx="77.4" cy="183.4" r="1"/>
				</g>
				<g>
					<path class="st18" d="M77.4,184.4c-0.6,0-1-0.5-1-1s0.5-1,1-1c0.6,0,1,0.5,1,1S78,184.4,77.4,184.4z M77.4,182.4
						c-0.6,0-1,0.5-1,1s0.5,1,1,1c0.6,0,1-0.5,1-1S78,182.4,77.4,182.4z"/>
				</g>
			</g>
			<g>
				<g>
					<circle class="st18" cx="86.2" cy="188.5" r="1"/>
				</g>
				<g>
					<path class="st18" d="M86.2,189.6c-0.6,0-1-0.5-1-1c0-0.6,0.5-1,1-1c0.6,0,1,0.5,1,1C87.2,189.1,86.8,189.6,86.2,189.6z
						 M86.2,187.5c-0.6,0-1,0.5-1,1c0,0.6,0.5,1,1,1c0.6,0,1-0.5,1-1C87.2,188,86.7,187.5,86.2,187.5z"/>
				</g>
			</g>
			<g>
				<g>
					<path class="st18" d="M95.7,171.4c0,0.6-0.5,1-1,1c-0.6,0-1-0.5-1-1c0-0.6,0.5-1,1-1C95.3,170.4,95.7,170.8,95.7,171.4z"/>
				</g>
				<g>
					<path class="st18" d="M94.7,172.4c-0.6,0-1-0.5-1-1c0-0.6,0.5-1,1-1c0.6,0,1,0.5,1,1C95.7,172,95.3,172.4,94.7,172.4z
						 M94.7,170.4c-0.6,0-1,0.5-1,1c0,0.6,0.5,1,1,1c0.6,0,1-0.5,1-1C95.7,170.9,95.2,170.4,94.7,170.4z"/>
				</g>
			</g>
			<g>
				<g>
					<circle class="st18" cx="103.1" cy="180.7" r="1"/>
				</g>
				<g>
					<path class="st18" d="M103.1,181.7c-0.6,0-1-0.5-1-1s0.5-1,1-1c0.6,0,1,0.5,1,1S103.7,181.7,103.1,181.7z M103.1,179.7
						c-0.6,0-1,0.5-1,1c0,0.6,0.5,1,1,1c0.6,0,1-0.5,1-1C104.1,180.1,103.7,179.7,103.1,179.7z"/>
				</g>
			</g>
			<g>
				<g>
					<circle class="st18" cx="112.8" cy="177.3" r="1"/>
				</g>
				<g>
					<path class="st18" d="M112.8,178.3c-0.6,0-1-0.5-1-1c0-0.6,0.5-1,1-1c0.6,0,1,0.5,1,1C113.9,177.8,113.4,178.3,112.8,178.3z
						 M112.8,176.3c-0.6,0-1,0.5-1,1c0,0.6,0.5,1,1,1c0.6,0,1-0.5,1-1C113.9,176.7,113.4,176.3,112.8,176.3z"/>
				</g>
			</g>
			<g>
				<g>
					<circle class="st18" cx="120.9" cy="187.3" r="1"/>
				</g>
				<g>
					<path class="st18" d="M120.9,188.3c-0.6,0-1-0.5-1-1c0-0.6,0.5-1,1-1c0.6,0,1,0.5,1,1C122,187.9,121.5,188.3,120.9,188.3z
						 M120.9,186.3c-0.6,0-1,0.5-1,1c0,0.6,0.5,1,1,1c0.6,0,1-0.5,1-1C121.9,186.8,121.5,186.3,120.9,186.3z"/>
				</g>
			</g>
			<g>
				<g>
					<path class="st18" d="M131.1,182.8c0,0.6-0.5,1-1,1c-0.6,0-1-0.5-1-1c0-0.6,0.5-1,1-1C130.7,181.8,131.1,182.3,131.1,182.8z"/>
				</g>
				<g>
					<path class="st18" d="M130.1,183.9c-0.6,0-1-0.5-1-1c0-0.6,0.5-1,1-1c0.6,0,1,0.5,1,1C131.2,183.4,130.7,183.9,130.1,183.9z
						 M130.1,181.8c-0.6,0-1,0.5-1,1c0,0.6,0.5,1,1,1c0.6,0,1-0.5,1-1C131.1,182.3,130.7,181.8,130.1,181.8z"/>
				</g>
			</g>
			<g>
				<g>
					<path class="st18" d="M139.7,189.5c0,0.6-0.5,1-1,1c-0.6,0-1-0.5-1-1c0-0.6,0.5-1,1-1C139.2,188.5,139.7,188.9,139.7,189.5z"/>
				</g>
				<g>
					<path class="st18" d="M138.7,190.5c-0.6,0-1-0.5-1-1c0-0.6,0.5-1,1-1c0.6,0,1,0.5,1,1C139.7,190.1,139.2,190.5,138.7,190.5z
						 M138.7,188.5c-0.6,0-1,0.5-1,1c0,0.6,0.5,1,1,1c0.6,0,1-0.5,1-1C139.7,188.9,139.2,188.5,138.7,188.5z"/>
				</g>
			</g>
			<g>
				<g>
					<path class="st18" d="M148.6,191.8c0,0.6-0.5,1-1,1c-0.6,0-1-0.5-1-1c0-0.6,0.5-1,1-1C148.2,190.8,148.6,191.3,148.6,191.8z"/>
				</g>
				<g>
					<path class="st18" d="M147.6,192.9c-0.6,0-1-0.5-1-1s0.5-1,1-1c0.6,0,1,0.5,1,1S148.2,192.9,147.6,192.9z M147.6,190.8
						c-0.6,0-1,0.5-1,1c0,0.6,0.5,1,1,1c0.6,0,1-0.5,1-1C148.6,191.3,148.2,190.8,147.6,190.8z"/>
				</g>
			</g>
			<g>
				<g>
					<path class="st18" d="M157.4,182.7c0,0.6-0.5,1-1,1c-0.6,0-1-0.5-1-1c0-0.6,0.5-1,1-1C156.9,181.6,157.4,182.1,157.4,182.7z"/>
				</g>
				<g>
					<path class="st18" d="M156.4,183.7c-0.6,0-1-0.5-1-1c0-0.6,0.5-1,1-1c0.6,0,1,0.5,1,1C157.4,183.2,157,183.7,156.4,183.7z
						 M156.4,181.6c-0.6,0-1,0.5-1,1c0,0.6,0.5,1,1,1c0.6,0,1-0.5,1-1C157.4,182.1,156.9,181.6,156.4,181.6z"/>
				</g>
			</g>
			<g>
				<g>
					<path class="st18" d="M166.1,173.7c0,0.6-0.5,1-1,1c-0.6,0-1-0.5-1-1c0-0.6,0.5-1,1-1C165.7,172.7,166.1,173.1,166.1,173.7z"/>
				</g>
				<g>
					<path class="st18" d="M165.1,174.7c-0.6,0-1-0.5-1-1c0-0.6,0.5-1,1-1c0.6,0,1,0.5,1,1C166.2,174.2,165.7,174.7,165.1,174.7z
						 M165.1,172.7c-0.6,0-1,0.5-1,1c0,0.6,0.5,1,1,1c0.6,0,1-0.5,1-1C166.1,173.1,165.7,172.7,165.1,172.7z"/>
				</g>
			</g>
		</g>
	</g>
	<g>
		<polygon class="st4" points="287.4,132.8 279.9,154.6 286.9,184.9 290.2,184.9 290.4,145.5 290.4,132.8 		"/>
		<path class="st4" d="M266.1,211.4c0,0,0.1,41.3,1.3,47.7c0,0,0.9,29,3.4,51.4v5.7c0,0,12,4.7,14.8-3.2l-2.5-46.7
			c0,0,7-57.1,7.1-60.3c0,0,2-30.3-5.2-34.4l-13.9,5.4L266.1,211.4z"/>
		<path class="st4" d="M285.6,313l9.3,9.5c0,0,10.7,0.6,12.4,5.7c0,0-1.5,3.4-12.4,2.5c0,0-10.9-0.6-13.9-3.2c0,0-8.2,0.2-10.9-1.5
			c0,0-0.8-6.1,0.7-9.9C270.8,316.2,281.6,312.8,285.6,313z"/>
		<path class="st19" d="M205.2,76.3c0,0,1.3-3.5,4.4-3l3.5,4.9C213.1,78.3,209.5,80.4,205.2,76.3z"/>
		<path class="st3" d="M216.7,73.1c0,0,2.6-2,1.5-6c0,0-1-2.6,0.3-4.8c0,0-2.1-1.7-3,4.6l-2-4.7l-3.8-8.3c0,0-2.1-1.2-1.1,1.8
			l1.7,4.3l1.1,3.1c0,0-0.1,0.5-0.7-0.2l-1.6-3.8l-2.2-5c0,0-1.5-1.2-1.5,0.6l1.3,3.5l1.7,4.7l0.1,0.6c0,0-0.1,0.5-0.8-0.2l-1.4-3.5
			l-1.7-4.1c0,0-1.4-0.8-1.1,0.9l2.5,7.3l-2.8-5.6c0,0-1.6-1.4-1.1,0.8c0,0,1.9,4.5,2.1,4.9c0,0,0.7,2,1.1,2.7c0,0,1.5,4,2.4,5.1
			c0,0,1.4,2,2.7,1.9C210.5,73.5,213.8,74.4,216.7,73.1z"/>
		<path class="st3" d="M209.6,73.3l1.5,7.9l7.4-4.9l-1.4-5C217,71.4,210.2,71.4,209.6,73.3z"/>
		<path class="st2" d="M275.2,193.1c0,0-18.9,54-22.1,60.3c0,0-10.4,58.4-11,61.2l-1.3,7.9c0,0-7.6-2.5-10.7,0c0,0-1.6-48,4.7-64.7
			c0,0,2.8-28.1,3.8-32.2c0,0,0.3-36.5-0.3-46.4l1.3-11.1h13l22.8,7.6l4.6,0.3L275.2,193.1z"/>
		<path class="st4" d="M240.8,322.5c0,0,0.6,5.5,1.9,6.1c0,0,3.8,8.6-4.8,9.5c0,0-11.4,2.1-10.7-7.8c0,0,1.5-4.6,2.9-7.8
			C230,322.5,235.1,317.3,240.8,322.5z"/>
		<path class="st2" d="M241.4,99.9l-13.3-8.8l-10.7-18.4c0,0-4.6,8.4-12.2,3.6l10.3,26.7c0,0,12.6,11.7,20.2,15.5
			C235.7,118.5,247.7,109.8,241.4,99.9z"/>
		<path class="st6" d="M290,131.9c0,0-5.3,18.7-4.8,21.5c0.4,2.7,2.9,20,1.7,23.6c0,0-15.4,8-44.9-5.5l20.6-58.7l3.6-9.7h2.4
			l11.3,5.7C279.9,108.7,291.7,125.6,290,131.9z"/>
		<path class="st2" d="M325.1,159.4c0,0.4-26.1,14.8-26.1,14.8l-14.2-5.3l22-11.5L325.1,159.4z"/>
		<path class="st8" d="M271.6,72.8c0,0-6.2,0.6-3.3,13l6.4-10.3L271.6,72.8z"/>
		<path class="st2" d="M279.9,108.7c0,0,11.1,24,8.6,44.9l0.4,56c0,0,0.7,2.1,2.6-1.5c0,0,2.1-64.8,1-70.9c0,0,2-5.9,1.2-11.2
			C293.7,126,286.5,113.1,279.9,108.7z"/>
		<path class="st7" d="M269.2,95.1l-0.6,7.9c0,0,5.4,14.2,10.2,15.5c0,0,1.5-16,3.2-19.6L269.2,95.1z"/>
		<path class="st3" d="M288.4,90.1c0,0,4.9-2.6,2.3,3.3c0,0-2.3,3.6-3.8,2c0,0-3.2,4.9-4.8,5.4c0,0-4.1,2.6-7.7,2c0,0-4.1,0-6.4-8.4
			c0,0,0-8.7,0.7-11.3c0,0-1.2-9.7,9.4-8.6c0,0,9.3,1,9.7,4.7C288,79.2,290.1,81.6,288.4,90.1z"/>
		<path class="st8" d="M288,91.2h-1.2c0,0,0.9-5.5,0-8c0,0,1.9-3.5-1.2-4.2c0,0-8.8-0.4-13-3.7c0,0-2.9-3.3,1.1-6
			c0,0-0.3,1.2,1.6,0.7c0,0,10.2-5.1,15,2.8c0,0,7.7,3.8,0,16.9C290.3,89.6,288.3,89.7,288,91.2z"/>
		<path class="st3" d="M310.5,171.3l2.4-3.2l-5.9-4c0,0-4.3,0,1.7,4.9l-0.6,0.8L310.5,171.3z"/>
		<path class="st3" d="M310.5,171.3l-9.4-5.4c0,0-4.6,0.4,0,3.5l7.4,4.8C308.5,174.3,313.2,174.4,310.5,171.3z"/>
		<path class="st3" d="M308.5,174.3c0,0,1.5,4.5-5.2,0.8l-6.9-4.9c0,0-1.5-3.3,3.1-1.9L308.5,174.3z"/>
		<path class="st3" d="M305.2,176.5c0,0,1.3,2-1.8,1.6l-6.1-5.3c0,0-0.1-1.7,1.8-0.6L305.2,176.5z"/>
		<path class="st20" d="M276.8,117.2l-5.3-3.3l-4.9,4.6l-0.3-15.5h2.4C268.6,103,273.8,115.5,276.8,117.2L276.8,117.2z"/>
		<path class="st20" d="M278.8,118.5l2.5-1.6l2.9,3.1c0,0-3.5-11-4.3-11.4L278.8,118.5z"/>
		<path class="st2" d="M266.2,103c0,0,5.9,20.5-9.3,45.5c0,0-13.7,29.7-22.5,36.4c0,0-6.1-0.4-10.3-5.7c0,0,12-30.5,14.1-40.2
			c0,0,0.4-15.7-2.5-20.6c0,0,7.4-13.9,5.7-18.6c0,0,2.7-4.6,7.2-3.6c0,0,6.3,2.4,10.3,6.7C258.9,103,265.8,101.1,266.2,103z"/>
		<path class="st19" d="M236.3,118.5c0,0,8.3-7.2,5.7-17.5c0,0-6.3,16.5-9.7,15.5l3.5,2.2L236.3,118.5z"/>
		<path class="st19" d="M238.2,139c0,0,10.9-20.8,10.5-28.8c0,0-7.6,21-10.6,22.6L238.2,139z"/>
		<path class="st19" d="M258.9,103.5c0,0-1.2,10.3-4,13.4c0,0,2.5-13.2,2-15.7l2,1.8L258.9,103.5z"/>
	</g>
	<g>
		<g>
			<path class="st21" d="M384.1,307.7c0,0.5,0,0.7,0,0.7c-4,2.5-18.3,1.3-18.3,1.3c-15.9,1.8-21.1-1.1-22.5-2.3
				c-0.2,0.4,0.2,1.8,0.1,2.3c0,0,0.2,4.8,22.5,2.3c0,0,14.3,1.3,18.3-1.3C384.2,310.8,384.2,309.4,384.1,307.7z"/>
			<path class="st2" d="M365.8,309.7c0,0,14.3,1.3,18.3-1.3c0,0,0-0.3,0-0.7c-0.1-2.1-0.4-7.9-2.5-9.8c0,0-10.9-2.9-17-2.5
				l-11.6,6.7c0,0-9.3,0.6-9.7,5.3c0,0,0,0.4,0.6,0.9C345.2,309.6,349.9,311.5,365.8,309.7z"/>
		</g>
		<path class="st3" d="M369.3,288c0,0-1.6,7.3-4.8,7.4c0,0,4.8,5.3,17,2.5c0,0-0.4-5.9-1.5-9.9H369.3z"/>
		<g>
			<path class="st21" d="M391.9,320.1c-16.1,1.8-21.2-1.1-22.5-2.3c-0.3,0.5,0.1,1.8,0,2.4c0,0,0.2,4.8,22.5,2.3
				c0,0,14.3,1.3,18.3-1.3c0,0,0-1-0.1-2.3C405.9,321.3,391.9,320.1,391.9,320.1z"/>
			<path class="st2" d="M391.9,320.1c0,0,14.1,1.2,18.2-1.2c0,0,0.1,0,0.1-0.1c0,0,0-8.2-2.5-10.5c0,0-10.9-2.9-17-2.5l-11.6,6.7
				c0,0-9.3,0.6-9.7,5.3c0,0,0,0.4,0.5,0.9C371.2,319.9,375.8,321.9,391.9,320.1z"/>
		</g>
		<path class="st3" d="M395.4,298.4c0,0-4,7.6-4.8,7.4c0,0,4.8,5.3,17,2.5c0,0-0.4-5.9-1.5-9.9H395.4z"/>
		<path class="st4" d="M349.3,189c0,0,6.6,45.5,12.3,55.9c0,0,7.6,40.4,6.3,47c0,0,10.1,1.6,13.3,0c0,0,4-29.6,0-42.3
			c0,0-3.2-13.9-1.6-19.6l-6.9-30.3l-17-15.5L349.3,189z"/>
		<path class="st21" d="M359.4,191.8c0,0,15,32.5,16.9,43.2c0,0,6.1,14.8,10.2,17c0,0,9.2,33.1,6.9,47.3c0,0,10.1,3.5,14.5,0
			c0,0,4.1-41.1-6.3-53c0,0-4.1-12.9-4.1-18.6c0,0,3.5-36.6,1.9-42C399.4,185.8,377.4,171.6,359.4,191.8z"/>
		<path class="st2" d="M381,88.5l5.9,3.9c0,0,21,6.1,18.2,25.3c0,0-4.1,36.4-5.7,40.4c0,0,3.2,27.1,0.9,34c0,0-2.4-6.3-7.2-6.9
			c0,0-27.8,13.9-42.4,6.9l-3.5-1.6c0,0,2.5-46.7,0-56.8c0,0-0.3-14.5,0-17.7c0,0,11-18.6,17-20.2C364.4,95.9,376.2,89.5,381,88.5z"
			/>
		<path class="st2" d="M382.9,113.8l5.2,34.2c0,0-4.6,23.1-5.2,27.1l-3.1,8.2c0,0,4.2,3.5,12.3,2.4l2.4-4.7c0,0,7.6-12.8,9.9-27.8
			c0,0,4.3-27.1-1.7-41.3C402.8,111.8,392.3,84.7,382.9,113.8z"/>
		<path class="st2" d="M347.4,116.1l-5.7,27L330,172.3v3.5l-1.9,2.5c0,0,7.6,2.2,6.6,6l4.4-5.4c0,0,5.4-4.4,12.6-15.1
			C351.8,163.7,354.9,123.3,347.4,116.1z"/>
		<path class="st3" d="M332.1,183.4c0,0,0.1,2.9-2.1,6.4c0,0-0.6,3.9-2.4,3.4c0,0-2.1,0-1.3-4c0,0,0.6-3.6-0.2-4.9
			c0,0-0.4-3.4,3-5.7l4.6,0.9C333.7,179.5,334.6,180.7,332.1,183.4z"/>
		<path class="st3" d="M326.4,181.8l-4.6,10.2l8.1,9.3c0,0,2.7-1.3-0.7-4.8l-3.3-3.4l1.5-7.4L326.4,181.8z"/>
		<path class="st3" d="M330,197.4l2.7,0.5c0,0,1.1-0.8-0.8-2.4l-4.4-2.3l-2.4-1.6v1.6C325.1,193.3,326.9,197.8,330,197.4z"/>
		<path class="st3" d="M332,195.5c0,0,2-0.1,1.1-1.5l-4.6-2.7l-1.3,1.7L332,195.5z"/>
		<path class="st3" d="M332.3,193.4c0,0,0.9-0.3,0-1.4l-3.2-1.7l-0.7,0.9L332.3,193.4z"/>
		<path class="st3" d="M381.3,183.4c0,0-4.8,5.2-5.6,9.9c0,0-0.5,3.9-1.2,4.5c0,0,0.6,3.6,3.4,0.6l-0.9,4.2c0,0,2.4,3.7,4.3,0
			c0,0,2.8,1.7,3.8-1.2c0,0,2.4,1.1,3.9-1c0,0,2.9-0.1,3.9-2.5c0,0,0-10.5-1.4-13.6C391.5,184.3,384.8,181.4,381.3,183.4z"/>
		<path class="st7" d="M359.7,86.7c0,0,7.4,8.3,5,20.4c0,0,11.4-11.7,16.3-18.6c0,0-1.9-3.9,0-9.4l-10.4-1.4L359.7,86.7z"/>
		<path class="st3" d="M380.6,73.9c0,0,6.2-2.5,2.7,4.3c0,0-2.7,4.1-4.7,1.9l-7.8,7.5c0,0-8.3,2.1-12.8,0c0,0-2.9-6.3,1.4-17.5
			c0,0,0-2.5,0.2-4.6c0,0,2.5-7,6.2-7.8c0,0,9.9-3.1,15.9,2.9C381.6,60.4,382.7,67.8,380.6,73.9z"/>
		<path class="st8" d="M384.4,73.9c0,0,5.8-11.2,0-15.3c0,0-9.8-11.7-21.3-1.8c0,0-3.3,0.6-3.3-1.5c0,0-4,4,1.7,6.2
			c0,0,14.8-0.6,18.3-1c0,0,1.7,0.9,0.6,2.9c0,0-1.2,2.9-2.9,2.7c0,0,2.3,6.3,0.8,7.9l-0.4,1.1l1.8,0.2l0.9-1.1
			C380.6,74.1,382.4,72.5,384.4,73.9z"/>
		<path class="st22" d="M347.2,120c0,0,4.6,21.4,3.3,30.2l-2.3,18.5l-4.3,5.3C343.9,174,349.5,131.9,347.2,120z"/>
		<path class="st22" d="M385.2,107.8c0,0-4.3,12.7,2.8,40.3l-6.7,35.4l2.7-33.3C384.1,150.2,376.5,122.8,385.2,107.8z"/>
		<polygon class="st21" points="381,88.5 387,92.3 377.2,109.5 371.6,104.9 364.7,107.1 		"/>
		<path class="st21" d="M364.4,95.9c0,0,1.9,6.6,0.3,11.2c0,0-1.9-5.1-3-5.6c0,0-2.5,4.8-4.1,4.9C355.9,106.6,362.3,96,364.4,95.9z"
			/>
	</g>
</g>
</svg>
