<svg width="582" height="396" viewBox="0 0 582 396" fill="none" xmlns="http://www.w3.org/2000/svg">
<path fill-rule="evenodd" clip-rule="evenodd" d="M66.1023 394.216H546.903C547.445 394.216 547.885 394.589 547.885 395.044C547.885 395.499 547.445 395.872 546.903 395.872H66.1023C65.5606 395.872 65.1199 395.499 65.1199 395.044C65.1178 394.589 65.5586 394.216 66.1023 394.216Z" fill="#0F4884"/>
<path fill-rule="evenodd" clip-rule="evenodd" d="M432.057 95.9476C411.082 95.9476 391.122 100.285 373.015 108.101C340.496 43.9617 273.938 0 197.108 0C88.2489 0 0 88.2489 0 197.108C0 305.967 88.2489 394.216 197.108 394.216H432.057C514.421 394.216 581.191 327.446 581.191 245.082C581.191 162.717 514.421 95.9476 432.057 95.9476Z" fill="#EFF3FF"/>
<path d="M42.8476 28.126H295.509C295.612 28.126 295.698 28.2145 295.698 28.3258V171.666H42.6602V28.3237C42.6602 28.2145 42.7446 28.126 42.8476 28.126Z" fill="white"/>
<path fill-rule="evenodd" clip-rule="evenodd" d="M42.6622 26.0762H295.661C295.679 26.0762 295.696 26.0906 295.696 26.1112V171.631C295.696 171.649 295.682 171.666 295.661 171.666H42.6622C42.6437 171.666 42.6272 171.651 42.6272 171.631V26.1091C42.6293 26.0906 42.6437 26.0762 42.6622 26.0762Z" fill="#355297"/>
<path fill-rule="evenodd" clip-rule="evenodd" d="M146.453 158.411H220.42C221.184 158.411 221.809 157.787 221.809 157.023C221.809 156.259 221.184 155.635 220.42 155.635H146.453C145.689 155.635 145.064 156.259 145.064 157.023C145.067 157.787 145.691 158.411 146.453 158.411Z" fill="#EB6502"/>
<path fill-rule="evenodd" clip-rule="evenodd" d="M138.468 152.368H156.808C157.572 152.368 158.196 151.744 158.196 150.98C158.196 150.216 157.572 149.592 156.808 149.592H138.468C137.704 149.592 137.079 150.216 137.079 150.98C137.082 151.744 137.706 152.368 138.468 152.368Z" fill="white"/>
<path fill-rule="evenodd" clip-rule="evenodd" d="M146.453 146.327H173.843C174.607 146.327 175.231 145.703 175.231 144.939C175.231 144.175 174.607 143.551 173.843 143.551H146.453C145.689 143.551 145.064 144.175 145.064 144.939C145.064 145.703 145.691 146.327 146.453 146.327Z" fill="white"/>
<path fill-rule="evenodd" clip-rule="evenodd" d="M146.543 140.286H169.052C169.816 140.286 170.44 139.662 170.44 138.898C170.44 138.134 169.816 137.51 169.052 137.51H146.543C145.779 137.51 145.155 138.134 145.155 138.898C145.155 139.66 145.779 140.286 146.543 140.286Z" fill="white"/>
<path fill-rule="evenodd" clip-rule="evenodd" d="M146.541 134.243H214.388C215.152 134.243 215.776 133.619 215.776 132.855C215.776 132.091 215.152 131.467 214.388 131.467H146.541C145.777 131.467 145.153 132.091 145.153 132.855C145.155 133.619 145.779 134.243 146.541 134.243Z" fill="white"/>
<path fill-rule="evenodd" clip-rule="evenodd" d="M182.032 146.327H200.016C200.78 146.327 201.404 145.703 201.404 144.939C201.404 144.175 200.78 143.551 200.016 143.551H182.032C181.268 143.551 180.644 144.175 180.644 144.939C180.644 145.703 181.268 146.327 182.032 146.327Z" fill="white"/>
<path fill-rule="evenodd" clip-rule="evenodd" d="M175.332 140.286H228.317C229.081 140.286 229.705 139.662 229.705 138.898C229.705 138.134 229.081 137.51 228.317 137.51H175.332C174.568 137.51 173.944 138.134 173.944 138.898C173.944 139.66 174.57 140.286 175.332 140.286Z" fill="#EB6502"/>
<path fill-rule="evenodd" clip-rule="evenodd" d="M236.018 140.286H250.41C251.174 140.286 251.798 139.662 251.798 138.898C251.798 138.134 251.174 137.51 250.41 137.51H236.018C235.253 137.51 234.629 138.134 234.629 138.898C234.629 139.66 235.256 140.286 236.018 140.286Z" fill="#6CD6FF"/>
<path fill-rule="evenodd" clip-rule="evenodd" d="M257.577 140.286H271.969C272.734 140.286 273.358 139.662 273.358 138.898C273.358 138.134 272.734 137.51 271.969 137.51H257.577C256.813 137.51 256.189 138.134 256.189 138.898C256.189 139.66 256.813 140.286 257.577 140.286Z" fill="#FFCA05"/>
<path fill-rule="evenodd" clip-rule="evenodd" d="M138.468 128.161H156.808C157.572 128.161 158.196 127.537 158.196 126.773C158.196 126.009 157.572 125.385 156.808 125.385H138.468C137.704 125.385 137.079 126.009 137.079 126.773C137.082 127.537 137.706 128.161 138.468 128.161Z" fill="white"/>
<path fill-rule="evenodd" clip-rule="evenodd" d="M146.895 120.088H165.236C166 120.088 166.624 119.464 166.624 118.7C166.624 117.936 166 117.312 165.236 117.312H146.895C146.131 117.312 145.507 117.936 145.507 118.7C145.509 119.464 146.133 120.088 146.895 120.088Z" fill="white"/>
<path fill-rule="evenodd" clip-rule="evenodd" d="M146.453 114.047H173.843C174.607 114.047 175.231 113.423 175.231 112.659C175.231 111.895 174.607 111.271 173.843 111.271H146.453C145.689 111.271 145.064 111.895 145.064 112.659C145.067 113.423 145.691 114.047 146.453 114.047Z" fill="white"/>
<path fill-rule="evenodd" clip-rule="evenodd" d="M146.543 108.005H169.052C169.816 108.005 170.44 107.381 170.44 106.617C170.44 105.853 169.816 105.229 169.052 105.229H146.543C145.779 105.229 145.155 105.853 145.155 106.617C145.155 107.381 145.779 108.005 146.543 108.005Z" fill="white"/>
<path fill-rule="evenodd" clip-rule="evenodd" d="M146.541 101.964H175.997C176.761 101.964 177.386 101.34 177.386 100.576C177.386 99.8116 176.761 99.1875 175.997 99.1875H146.541C145.777 99.1875 145.153 99.8116 145.153 100.576C145.155 101.34 145.779 101.964 146.541 101.964Z" fill="#FFCA05"/>
<path fill-rule="evenodd" clip-rule="evenodd" d="M182.032 114.047H200.016C200.78 114.047 201.404 113.423 201.404 112.659C201.404 111.895 200.78 111.271 200.016 111.271H182.032C181.268 111.271 180.644 111.895 180.644 112.659C180.644 113.423 181.268 114.047 182.032 114.047Z" fill="white"/>
<path fill-rule="evenodd" clip-rule="evenodd" d="M175.332 108.005H228.317C229.081 108.005 229.705 107.381 229.705 106.617C229.705 105.853 229.081 105.229 228.317 105.229H175.332C174.568 105.229 173.944 105.853 173.944 106.617C173.944 107.381 174.57 108.005 175.332 108.005Z" fill="#F48120"/>
<path fill-rule="evenodd" clip-rule="evenodd" d="M236.018 108.005H250.41C251.174 108.005 251.798 107.381 251.798 106.617C251.798 105.853 251.174 105.229 250.41 105.229H236.018C235.253 105.229 234.629 105.853 234.629 106.617C234.629 107.381 235.256 108.005 236.018 108.005Z" fill="white"/>
<path fill-rule="evenodd" clip-rule="evenodd" d="M257.577 108.005H271.969C272.734 108.005 273.358 107.381 273.358 106.617C273.358 105.853 272.734 105.229 271.969 105.229H257.577C256.813 105.229 256.189 105.853 256.189 106.617C256.189 107.381 256.813 108.005 257.577 108.005Z" fill="white"/>
<path fill-rule="evenodd" clip-rule="evenodd" d="M168.058 95.9355H221.042C221.806 95.9355 222.43 95.3114 222.43 94.5473C222.43 93.7832 221.806 93.1592 221.042 93.1592H168.058C167.293 93.1592 166.669 93.7832 166.669 94.5473C166.669 95.3114 167.293 95.9355 168.058 95.9355Z" fill="white"/>
<path fill-rule="evenodd" clip-rule="evenodd" d="M228.743 95.9355H243.135C243.9 95.9355 244.524 95.3114 244.524 94.5473C244.524 93.7832 243.9 93.1592 243.135 93.1592H228.743C227.979 93.1592 227.355 93.7832 227.355 94.5473C227.355 95.3114 227.979 95.9355 228.743 95.9355Z" fill="white"/>
<path fill-rule="evenodd" clip-rule="evenodd" d="M250.303 95.9355H264.695C265.459 95.9355 266.083 95.3114 266.083 94.5473C266.083 93.7832 265.459 93.1592 264.695 93.1592H250.303C249.539 93.1592 248.915 93.7832 248.915 94.5473C248.915 95.3114 249.539 95.9355 250.303 95.9355Z" fill="white"/>
<path fill-rule="evenodd" clip-rule="evenodd" d="M168.058 89.5283H191.364C192.128 89.5283 192.752 88.9042 192.752 88.1401C192.752 87.376 192.128 86.752 191.364 86.752H168.058C167.293 86.752 166.669 87.376 166.669 88.1401C166.669 88.9022 167.293 89.5283 168.058 89.5283Z" fill="white"/>
<path fill-rule="evenodd" clip-rule="evenodd" d="M199.198 89.5283H235.637C236.401 89.5283 237.025 88.9042 237.025 88.1401C237.025 87.376 236.401 86.752 235.637 86.752H199.198C198.434 86.752 197.81 87.376 197.81 88.1401C197.81 88.9022 198.434 89.5283 199.198 89.5283Z" fill="white"/>
<path fill-rule="evenodd" clip-rule="evenodd" d="M244.645 89.5283H275.384C276.148 89.5283 276.772 88.9042 276.772 88.1401C276.772 87.376 276.148 86.752 275.384 86.752H244.645C243.881 86.752 243.257 87.376 243.257 88.1401C243.257 88.9022 243.881 89.5283 244.645 89.5283Z" fill="white"/>
<path d="M98.5385 35.9561H53.7076V163.736H98.5385V35.9561Z" fill="#1D3A7D"/>
<path fill-rule="evenodd" clip-rule="evenodd" d="M182.05 101.964H198.016C198.78 101.964 199.404 101.34 199.404 100.576C199.404 99.8116 198.78 99.1875 198.016 99.1875H182.05C181.286 99.1875 180.662 99.8116 180.662 100.576C180.662 101.34 181.286 101.964 182.05 101.964Z" fill="#F48120"/>
<path fill-rule="evenodd" clip-rule="evenodd" d="M203.276 101.964H219.242C220.006 101.964 220.63 101.34 220.63 100.576C220.63 99.8116 220.006 99.1875 219.242 99.1875H203.276C202.512 99.1875 201.888 99.8116 201.888 100.576C201.888 101.34 202.512 101.964 203.276 101.964Z" fill="#F48120"/>
<path fill-rule="evenodd" clip-rule="evenodd" d="M138.468 82.6445H162.013C162.777 82.6445 163.401 82.0204 163.401 81.2563C163.401 80.4922 162.777 79.8682 162.013 79.8682H138.468C137.704 79.8682 137.079 80.4922 137.079 81.2563C137.082 82.0204 137.706 82.6445 138.468 82.6445Z" fill="white"/>
<path fill-rule="evenodd" clip-rule="evenodd" d="M168.066 82.6445H184.032C184.796 82.6445 185.42 82.0204 185.42 81.2563C185.42 80.4922 184.796 79.8682 184.032 79.8682H168.066C167.302 79.8682 166.678 80.4922 166.678 81.2563C166.678 82.0204 167.302 82.6445 168.066 82.6445Z" fill="white"/>
<path fill-rule="evenodd" clip-rule="evenodd" d="M190.878 82.6445H206.844C207.608 82.6445 208.232 82.0204 208.232 81.2563C208.232 80.4922 207.608 79.8682 206.844 79.8682H190.878C190.114 79.8682 189.49 80.4922 189.49 81.2563C189.49 82.0204 190.114 82.6445 190.878 82.6445Z" fill="white"/>
<path fill-rule="evenodd" clip-rule="evenodd" d="M66.7655 126.032H76.9851C77.7224 126.032 78.3259 125.429 78.3259 124.691C78.3259 123.954 77.7224 123.351 76.9851 123.351H66.7655C66.0281 123.351 65.4247 123.954 65.4247 124.691C65.4247 125.429 66.0281 126.032 66.7655 126.032Z" fill="#E8F6FD"/>
<path fill-rule="evenodd" clip-rule="evenodd" d="M60.7329 119.396H87.3715C88.1088 119.396 88.7123 118.793 88.7123 118.056C88.7123 117.318 88.1088 116.715 87.3715 116.715H60.7329C59.9955 116.715 59.3921 117.318 59.3921 118.056C59.3921 118.795 59.9955 119.396 60.7329 119.396Z" fill="#E8F6FD"/>
<path fill-rule="evenodd" clip-rule="evenodd" d="M60.7329 112.373H81.0898C81.8271 112.373 82.4306 111.77 82.4306 111.032C82.4306 110.295 81.8271 109.691 81.0898 109.691H60.7329C59.9955 109.691 59.3921 110.295 59.3921 111.032C59.3921 111.77 59.9955 112.373 60.7329 112.373Z" fill="#E8F6FD"/>
<path fill-rule="evenodd" clip-rule="evenodd" d="M66.7655 105.348H87.0832C87.8205 105.348 88.424 104.744 88.424 104.007C88.424 103.269 87.8205 102.666 87.0832 102.666H66.7655C66.0281 102.666 65.4247 103.269 65.4247 104.007C65.4247 104.746 66.0281 105.348 66.7655 105.348Z" fill="#E8F6FD"/>
<path fill-rule="evenodd" clip-rule="evenodd" d="M66.7655 98.3241H73.3953C74.1326 98.3241 74.736 97.7207 74.736 96.9834C74.736 96.246 74.1326 95.6426 73.3953 95.6426H66.7655C66.0281 95.6426 65.4247 96.246 65.4247 96.9834C65.4247 97.7207 66.0281 98.3241 66.7655 98.3241Z" fill="#E8F6FD"/>
<path fill-rule="evenodd" clip-rule="evenodd" d="M60.7329 91.2988H80.062C80.7994 91.2988 81.4028 90.6953 81.4028 89.958C81.4028 89.2206 80.7994 88.6172 80.062 88.6172H60.7329C59.9955 88.6172 59.3921 89.2206 59.3921 89.958C59.3921 90.6974 59.9955 91.2988 60.7329 91.2988Z" fill="#E8F6FD"/>
<path fill-rule="evenodd" clip-rule="evenodd" d="M66.6522 84.2763H72.1121C72.8495 84.2763 73.4529 83.6728 73.4529 82.9355C73.4529 82.1982 72.8495 81.5947 72.1121 81.5947H66.6522C65.9148 81.5947 65.3114 82.1982 65.3114 82.9355C65.3114 83.6728 65.9148 84.2763 66.6522 84.2763Z" fill="#E8F6FD"/>
<path fill-rule="evenodd" clip-rule="evenodd" d="M65.9539 77.2529H87.3715C88.1088 77.2529 88.7123 76.6494 88.7123 75.9121C88.7123 75.1747 88.1088 74.5713 87.3715 74.5713H65.9539C65.2166 74.5713 64.6132 75.1747 64.6132 75.9121C64.6152 76.6494 65.2166 77.2529 65.9539 77.2529Z" fill="#E8F6FD"/>
<path fill-rule="evenodd" clip-rule="evenodd" d="M60.7329 70.2275H77.8192C78.5565 70.2275 79.1599 69.624 79.1599 68.8867C79.1599 68.1494 78.5565 67.5459 77.8192 67.5459H60.7329C59.9955 67.5459 59.3921 68.1494 59.3921 68.8867C59.3921 69.624 59.9955 70.2275 60.7329 70.2275Z" fill="#E8F6FD"/>
<path fill-rule="evenodd" clip-rule="evenodd" d="M65.9539 63.204H87.3715C88.1088 63.204 88.7123 62.6006 88.7123 61.8632C88.7123 61.1259 88.1088 60.5225 87.3715 60.5225H65.9539C65.2166 60.5225 64.6132 61.1259 64.6132 61.8632C64.6152 62.6006 65.2166 63.204 65.9539 63.204Z" fill="#E8F6FD"/>
<path fill-rule="evenodd" clip-rule="evenodd" d="M65.9539 56.1796H79.1002C79.8376 56.1796 80.441 55.5762 80.441 54.8388C80.441 54.1015 79.8376 53.498 79.1002 53.498H65.9539C65.2166 53.498 64.6132 54.1015 64.6132 54.8388C64.6152 55.5762 65.2166 56.1796 65.9539 56.1796Z" fill="#E8F6FD"/>
<path fill-rule="evenodd" clip-rule="evenodd" d="M60.7329 49.1562H70.2523C70.9896 49.1562 71.5931 48.5527 71.5931 47.8154C71.5931 47.0781 70.9896 46.4746 70.2523 46.4746H60.7329C59.9955 46.4746 59.3921 47.0781 59.3921 47.8154C59.3921 48.5527 59.9955 49.1562 60.7329 49.1562Z" fill="#E8F6FD"/>
<path fill-rule="evenodd" clip-rule="evenodd" d="M66.7655 132.237H76.9851C77.7224 132.237 78.3259 131.634 78.3259 130.896C78.3259 130.159 77.7224 129.556 76.9851 129.556H66.7655C66.0281 129.556 65.4247 130.159 65.4247 130.896C65.4247 131.636 66.0281 132.237 66.7655 132.237Z" fill="#E8F6FD"/>
<path fill-rule="evenodd" clip-rule="evenodd" d="M60.7329 138.445H86.4838C87.2211 138.445 87.8246 137.842 87.8246 137.104C87.8246 136.367 87.2211 135.764 86.4838 135.764H60.7329C59.9955 135.764 59.3921 136.367 59.3921 137.104C59.3921 137.842 59.9955 138.445 60.7329 138.445Z" fill="#E8F6FD"/>
<path fill-rule="evenodd" clip-rule="evenodd" d="M66.7655 144.65H76.9851C77.7224 144.65 78.3259 144.047 78.3259 143.31C78.3259 142.572 77.7224 141.969 76.9851 141.969H66.7655C66.0281 141.969 65.4247 142.572 65.4247 143.31C65.4247 144.049 66.0281 144.65 66.7655 144.65Z" fill="#E8F6FD"/>
<path fill-rule="evenodd" clip-rule="evenodd" d="M115.479 43.9375H117.137C117.901 43.9375 118.525 43.3134 118.525 42.5493C118.525 41.7852 117.901 41.1611 117.137 41.1611H115.479C114.715 41.1611 114.09 41.7852 114.09 42.5493C114.093 43.3134 114.717 43.9375 115.479 43.9375Z" fill="#B1CBEF"/>
<path fill-rule="evenodd" clip-rule="evenodd" d="M115.479 51.0097H117.137C117.901 51.0097 118.525 50.3857 118.525 49.6216C118.525 48.8574 117.901 48.2334 117.137 48.2334H115.479C114.715 48.2334 114.09 48.8574 114.09 49.6216C114.093 50.3857 114.717 51.0097 115.479 51.0097Z" fill="#B1CBEF"/>
<path fill-rule="evenodd" clip-rule="evenodd" d="M115.211 75.0595H116.681C117.446 75.0595 118.07 74.4355 118.07 73.6714C118.07 72.9073 117.446 72.2832 116.681 72.2832H115.211C114.447 72.2832 113.823 72.9073 113.823 73.6714C113.823 74.4355 114.447 75.0595 115.211 75.0595Z" fill="#B1CBEF"/>
<path fill-rule="evenodd" clip-rule="evenodd" d="M115.299 69.0185H116.681C117.445 69.0185 118.07 68.3944 118.07 67.6303C118.07 66.8662 117.445 66.2422 116.681 66.2422H115.299C114.535 66.2422 113.911 66.8662 113.911 67.6303C113.911 68.3924 114.535 69.0185 115.299 69.0185Z" fill="#B1CBEF"/>
<path fill-rule="evenodd" clip-rule="evenodd" d="M115.299 62.9755H116.681C117.445 62.9755 118.07 62.3515 118.07 61.5874C118.07 60.8233 117.445 60.1992 116.681 60.1992H115.299C114.535 60.1992 113.911 60.8233 113.911 61.5874C113.911 62.3515 114.535 62.9755 115.299 62.9755Z" fill="#B1CBEF"/>
<path fill-rule="evenodd" clip-rule="evenodd" d="M115.299 56.7255H116.681C117.445 56.7255 118.07 56.1015 118.07 55.3374C118.07 54.5733 117.445 53.9492 116.681 53.9492H115.299C114.535 53.9492 113.911 54.5733 113.911 55.3374C113.911 56.1015 114.535 56.7255 115.299 56.7255Z" fill="#B1CBEF"/>
<path fill-rule="evenodd" clip-rule="evenodd" d="M115.384 95.9355H116.679C117.443 95.9355 118.068 95.3114 118.068 94.5473C118.068 93.7832 117.443 93.1592 116.679 93.1592H115.384C114.62 93.1592 113.996 93.7832 113.996 94.5473C113.996 95.3114 114.622 95.9355 115.384 95.9355Z" fill="#B1CBEF"/>
<path fill-rule="evenodd" clip-rule="evenodd" d="M115.384 89.5283H116.679C117.443 89.5283 118.068 88.9042 118.068 88.1401C118.068 87.376 117.443 86.752 116.679 86.752H115.384C114.62 86.752 113.996 87.376 113.996 88.1401C113.996 88.9022 114.622 89.5283 115.384 89.5283Z" fill="#B1CBEF"/>
<path fill-rule="evenodd" clip-rule="evenodd" d="M115.392 82.6445H116.679C117.443 82.6445 118.067 82.0204 118.067 81.2563C118.067 80.4922 117.443 79.8682 116.679 79.8682H115.392C114.628 79.8682 114.004 80.4922 114.004 81.2563C114.004 82.0204 114.63 82.6445 115.392 82.6445Z" fill="#B1CBEF"/>
<path fill-rule="evenodd" clip-rule="evenodd" d="M115.841 120.088H116.681C117.445 120.088 118.07 119.464 118.07 118.7C118.07 117.936 117.445 117.312 116.681 117.312H115.841C115.077 117.312 114.453 117.936 114.453 118.7C114.453 119.464 115.077 120.088 115.841 120.088Z" fill="#B1CBEF"/>
<path fill-rule="evenodd" clip-rule="evenodd" d="M115.384 114.047H116.679C117.443 114.047 118.068 113.423 118.068 112.659C118.068 111.895 117.443 111.271 116.679 111.271H115.384C114.62 111.271 113.996 111.895 113.996 112.659C113.996 113.423 114.622 114.047 115.384 114.047Z" fill="#B1CBEF"/>
<path fill-rule="evenodd" clip-rule="evenodd" d="M115.477 108.005H116.681C117.445 108.005 118.07 107.381 118.07 106.617C118.07 105.853 117.445 105.229 116.681 105.229H115.477C114.712 105.229 114.088 105.853 114.088 106.617C114.088 107.381 114.712 108.005 115.477 108.005Z" fill="#B1CBEF"/>
<path fill-rule="evenodd" clip-rule="evenodd" d="M115.477 101.964H116.681C117.445 101.964 118.07 101.34 118.07 100.576C118.07 99.8116 117.445 99.1875 116.681 99.1875H115.477C114.712 99.1875 114.088 99.8116 114.088 100.576C114.088 101.34 114.712 101.964 115.477 101.964Z" fill="#B1CBEF"/>
<path fill-rule="evenodd" clip-rule="evenodd" d="M116 152.368H116.681C117.446 152.368 118.07 151.744 118.07 150.98C118.07 150.216 117.446 149.592 116.681 149.592H116C115.236 149.592 114.612 150.216 114.612 150.98C114.612 151.744 115.236 152.368 116 152.368Z" fill="#B1CBEF"/>
<path fill-rule="evenodd" clip-rule="evenodd" d="M116 146.327H116.681C117.446 146.327 118.07 145.703 118.07 144.939C118.07 144.175 117.446 143.551 116.681 143.551H116C115.236 143.551 114.612 144.175 114.612 144.939C114.612 145.703 115.236 146.327 116 146.327Z" fill="#B1CBEF"/>
<path fill-rule="evenodd" clip-rule="evenodd" d="M115.942 140.286H116.679C117.443 140.286 118.067 139.662 118.067 138.898C118.067 138.134 117.443 137.51 116.679 137.51H115.942C115.178 137.51 114.554 138.134 114.554 138.898C114.554 139.66 115.18 140.286 115.942 140.286Z" fill="#B1CBEF"/>
<path fill-rule="evenodd" clip-rule="evenodd" d="M115.841 134.243H116.681C117.445 134.243 118.07 133.619 118.07 132.855C118.07 132.091 117.445 131.467 116.681 131.467H115.841C115.077 131.467 114.453 132.091 114.453 132.855C114.453 133.619 115.077 134.243 115.841 134.243Z" fill="#B1CBEF"/>
<path fill-rule="evenodd" clip-rule="evenodd" d="M115.841 128.161H116.681C117.445 128.161 118.07 127.537 118.07 126.773C118.07 126.009 117.445 125.385 116.681 125.385H115.841C115.077 125.385 114.453 126.009 114.453 126.773C114.453 127.537 115.077 128.161 115.841 128.161Z" fill="#B1CBEF"/>
<path d="M167.893 151.865H7.60193V253.639H167.893V151.865Z" fill="#7183D5"/>
<path d="M7.70283 162.74H167.773C167.839 162.74 167.893 162.798 167.893 162.866V253.679H7.58337V162.866C7.58337 162.796 7.63693 162.74 7.70283 162.74Z" fill="white"/>
<path fill-rule="evenodd" clip-rule="evenodd" d="M7.59788 161.442H167.858C167.876 161.442 167.893 161.457 167.893 161.477V253.646C167.893 253.664 167.876 253.681 167.858 253.681H7.59788C7.57934 253.681 7.56287 253.666 7.56287 253.646V161.477C7.56287 161.457 7.57934 161.442 7.59788 161.442Z" fill="#355297"/>
<path fill-rule="evenodd" clip-rule="evenodd" d="M73.3396 245.281H120.201C120.685 245.281 121.081 244.886 121.081 244.402C121.081 243.918 120.685 243.522 120.201 243.522H73.3396C72.8556 243.522 72.4602 243.918 72.4602 244.402C72.4623 244.884 72.8577 245.281 73.3396 245.281Z" fill="#EB6502"/>
<path fill-rule="evenodd" clip-rule="evenodd" d="M68.2813 241.453H79.9014C80.3854 241.453 80.7809 241.058 80.7809 240.574C80.7809 240.09 80.3854 239.694 79.9014 239.694H68.2813C67.7973 239.694 67.4019 240.09 67.4019 240.574C67.4019 241.058 67.7973 241.453 68.2813 241.453Z" fill="white"/>
<path fill-rule="evenodd" clip-rule="evenodd" d="M73.3396 237.626H90.6916C91.1756 237.626 91.5711 237.231 91.5711 236.747C91.5711 236.263 91.1756 235.867 90.6916 235.867H73.3396C72.8556 235.867 72.4602 236.263 72.4602 236.747C72.4623 237.231 72.8577 237.626 73.3396 237.626Z" fill="white"/>
<path fill-rule="evenodd" clip-rule="evenodd" d="M73.3973 233.797H87.6578C88.1418 233.797 88.5372 233.402 88.5372 232.918C88.5372 232.434 88.1418 232.038 87.6578 232.038H73.3973C72.9133 232.038 72.5178 232.434 72.5178 232.918C72.5178 233.402 72.9133 233.797 73.3973 233.797Z" fill="white"/>
<path fill-rule="evenodd" clip-rule="evenodd" d="M73.3973 229.971H116.381C116.865 229.971 117.26 229.575 117.26 229.091C117.26 228.607 116.865 228.212 116.381 228.212H73.3973C72.9133 228.212 72.5178 228.607 72.5178 229.091C72.5178 229.575 72.9133 229.971 73.3973 229.971Z" fill="white"/>
<path fill-rule="evenodd" clip-rule="evenodd" d="M95.8797 237.626H107.273C107.757 237.626 108.153 237.231 108.153 236.747C108.153 236.263 107.757 235.867 107.273 235.867H95.8797C95.3957 235.867 95.0002 236.263 95.0002 236.747C95.0002 237.231 95.3977 237.626 95.8797 237.626Z" fill="white"/>
<path fill-rule="evenodd" clip-rule="evenodd" d="M91.6369 233.797H125.206C125.69 233.797 126.085 233.402 126.085 232.918C126.085 232.434 125.69 232.038 125.206 232.038H91.6369C91.1529 232.038 90.7574 232.434 90.7574 232.918C90.7574 233.402 91.1529 233.797 91.6369 233.797Z" fill="#EB6502"/>
<path fill-rule="evenodd" clip-rule="evenodd" d="M130.083 233.797H139.201C139.685 233.797 140.08 233.402 140.08 232.918C140.08 232.434 139.685 232.038 139.201 232.038H130.083C129.599 232.038 129.204 232.434 129.204 232.918C129.204 233.402 129.599 233.797 130.083 233.797Z" fill="#6CD6FF"/>
<path fill-rule="evenodd" clip-rule="evenodd" d="M143.742 233.797H152.86C153.344 233.797 153.739 233.402 153.739 232.918C153.739 232.434 153.344 232.038 152.86 232.038H143.742C143.258 232.038 142.863 232.434 142.863 232.918C142.863 233.402 143.258 233.797 143.742 233.797Z" fill="#FFCA05"/>
<path fill-rule="evenodd" clip-rule="evenodd" d="M68.2813 226.117H79.9014C80.3854 226.117 80.7809 225.722 80.7809 225.238C80.7809 224.754 80.3854 224.358 79.9014 224.358H68.2813C67.7973 224.358 67.4019 224.754 67.4019 225.238C67.4019 225.722 67.7973 226.117 68.2813 226.117Z" fill="white"/>
<path fill-rule="evenodd" clip-rule="evenodd" d="M73.3396 192.474H90.6916C91.1756 192.474 91.5711 192.078 91.5711 191.594C91.5711 191.11 91.1756 190.715 90.6916 190.715H73.3396C72.8556 190.715 72.4602 191.11 72.4602 191.594C72.4623 192.078 72.8577 192.474 73.3396 192.474Z" fill="white"/>
<path fill-rule="evenodd" clip-rule="evenodd" d="M73.3973 188.648H87.6578C88.1418 188.648 88.5372 188.252 88.5372 187.768C88.5372 187.284 88.1418 186.889 87.6578 186.889H73.3973C72.9133 186.889 72.5178 187.284 72.5178 187.768C72.5178 188.252 72.9133 188.648 73.3973 188.648Z" fill="white"/>
<path fill-rule="evenodd" clip-rule="evenodd" d="M73.3973 184.818H116.381C116.865 184.818 117.26 184.423 117.26 183.939C117.26 183.455 116.865 183.06 116.381 183.06H73.3973C72.9133 183.06 72.5178 183.455 72.5178 183.939C72.5178 184.423 72.9133 184.818 73.3973 184.818Z" fill="#6CD6FF"/>
<path fill-rule="evenodd" clip-rule="evenodd" d="M95.8797 192.474H107.273C107.757 192.474 108.153 192.078 108.153 191.594C108.153 191.11 107.757 190.715 107.273 190.715H95.8797C95.3957 190.715 95.0002 191.11 95.0002 191.594C95.0002 192.078 95.3977 192.474 95.8797 192.474Z" fill="white"/>
<path fill-rule="evenodd" clip-rule="evenodd" d="M91.6369 188.648H125.206C125.69 188.648 126.085 188.252 126.085 187.768C126.085 187.284 125.69 186.889 125.206 186.889H91.6369C91.1529 186.889 90.7574 187.284 90.7574 187.768C90.7574 188.252 91.1529 188.648 91.6369 188.648Z" fill="#C5579F"/>
<path fill-rule="evenodd" clip-rule="evenodd" d="M130.083 188.648H139.201C139.685 188.648 140.08 188.252 140.08 187.768C140.08 187.284 139.685 186.889 139.201 186.889H130.083C129.599 186.889 129.204 187.284 129.204 187.768C129.204 188.252 129.599 188.648 130.083 188.648Z" fill="#FFCA05"/>
<path fill-rule="evenodd" clip-rule="evenodd" d="M143.742 188.648H152.86C153.344 188.648 153.739 188.252 153.739 187.768C153.739 187.284 153.344 186.889 152.86 186.889H143.742C143.258 186.889 142.863 187.284 142.863 187.768C142.863 188.252 143.258 188.648 143.742 188.648Z" fill="white"/>
<path fill-rule="evenodd" clip-rule="evenodd" d="M73.6218 221.003H85.2419C85.7259 221.003 86.1213 220.608 86.1213 220.124C86.1213 219.64 85.7259 219.244 85.2419 219.244H73.6218C73.1378 219.244 72.7423 219.64 72.7423 220.124C72.7423 220.606 73.1378 221.003 73.6218 221.003Z" fill="white"/>
<path fill-rule="evenodd" clip-rule="evenodd" d="M73.3396 217.175H90.6916C91.1756 217.175 91.5711 216.779 91.5711 216.295C91.5711 215.811 91.1756 215.416 90.6916 215.416H73.3396C72.8556 215.416 72.4602 215.811 72.4602 216.295C72.4623 216.779 72.8577 217.175 73.3396 217.175Z" fill="white"/>
<path fill-rule="evenodd" clip-rule="evenodd" d="M73.3973 213.348H87.6578C88.1418 213.348 88.5372 212.952 88.5372 212.468C88.5372 211.984 88.1418 211.589 87.6578 211.589H73.3973C72.9133 211.589 72.5178 211.984 72.5178 212.468C72.5178 212.952 72.9133 213.348 73.3973 213.348Z" fill="white"/>
<path fill-rule="evenodd" clip-rule="evenodd" d="M73.3973 209.519H92.0591C92.5431 209.519 92.9385 209.123 92.9385 208.639C92.9385 208.155 92.5431 207.76 92.0591 207.76H73.3973C72.9133 207.76 72.5178 208.155 72.5178 208.639C72.5178 209.123 72.9133 209.519 73.3973 209.519Z" fill="#FFCA05"/>
<path fill-rule="evenodd" clip-rule="evenodd" d="M95.8797 217.175H107.273C107.757 217.175 108.153 216.779 108.153 216.295C108.153 215.811 107.757 215.416 107.273 215.416H95.8797C95.3957 215.416 95.0002 215.811 95.0002 216.295C95.0002 216.779 95.3977 217.175 95.8797 217.175Z" fill="white"/>
<path fill-rule="evenodd" clip-rule="evenodd" d="M91.6369 213.348H125.206C125.69 213.348 126.085 212.952 126.085 212.468C126.085 211.984 125.69 211.589 125.206 211.589H91.6369C91.1529 211.589 90.7574 211.984 90.7574 212.468C90.7574 212.952 91.1529 213.348 91.6369 213.348Z" fill="#F48120"/>
<path fill-rule="evenodd" clip-rule="evenodd" d="M130.083 213.348H139.201C139.685 213.348 140.08 212.952 140.08 212.468C140.08 211.984 139.685 211.589 139.201 211.589H130.083C129.599 211.589 129.204 211.984 129.204 212.468C129.204 212.952 129.599 213.348 130.083 213.348Z" fill="white"/>
<path fill-rule="evenodd" clip-rule="evenodd" d="M143.742 213.348H152.86C153.344 213.348 153.739 212.952 153.739 212.468C153.739 211.984 153.344 211.589 152.86 211.589H143.742C143.258 211.589 142.863 211.984 142.863 212.468C142.863 212.952 143.258 213.348 143.742 213.348Z" fill="white"/>
<path fill-rule="evenodd" clip-rule="evenodd" d="M87.0276 180.857H120.597C121.081 180.857 121.476 180.462 121.476 179.978C121.476 179.494 121.081 179.099 120.597 179.099H87.0276C86.5436 179.099 86.1482 179.494 86.1482 179.978C86.1482 180.462 86.5436 180.857 87.0276 180.857Z" fill="white"/>
<path fill-rule="evenodd" clip-rule="evenodd" d="M125.474 180.857H134.591C135.075 180.857 135.471 180.462 135.471 179.978C135.471 179.494 135.075 179.099 134.591 179.099H125.474C124.99 179.099 124.594 179.494 124.594 179.978C124.594 180.462 124.99 180.857 125.474 180.857Z" fill="white"/>
<path fill-rule="evenodd" clip-rule="evenodd" d="M139.133 180.857H148.251C148.735 180.857 149.13 180.462 149.13 179.978C149.13 179.494 148.735 179.099 148.251 179.099H139.133C138.649 179.099 138.253 179.494 138.253 179.978C138.253 180.462 138.649 180.857 139.133 180.857Z" fill="white"/>
<path fill-rule="evenodd" clip-rule="evenodd" d="M87.0276 177.239H101.795C102.279 177.239 102.674 176.844 102.674 176.36C102.674 175.876 102.279 175.48 101.795 175.48H87.0276C86.5436 175.48 86.1482 175.876 86.1482 176.36C86.1482 176.842 86.5436 177.239 87.0276 177.239Z" fill="#C5579F"/>
<path fill-rule="evenodd" clip-rule="evenodd" d="M106.756 177.239H129.842C130.326 177.239 130.722 176.844 130.722 176.36C130.722 175.876 130.326 175.48 129.842 175.48H106.756C106.272 175.48 105.877 175.876 105.877 176.36C105.877 176.842 106.272 177.239 106.756 177.239Z" fill="#EB6502"/>
<path fill-rule="evenodd" clip-rule="evenodd" d="M135.549 177.239H155.023C155.507 177.239 155.902 176.844 155.902 176.36C155.902 175.876 155.507 175.48 155.023 175.48H135.549C135.065 175.48 134.67 175.876 134.67 176.36C134.67 176.842 135.065 177.239 135.549 177.239Z" fill="white"/>
<path fill-rule="evenodd" clip-rule="evenodd" d="M87.0276 205.7H120.597C121.081 205.7 121.476 205.305 121.476 204.821C121.476 204.337 121.081 203.941 120.597 203.941H87.0276C86.5436 203.941 86.1482 204.337 86.1482 204.821C86.1482 205.305 86.5436 205.7 87.0276 205.7Z" fill="white"/>
<path fill-rule="evenodd" clip-rule="evenodd" d="M125.474 205.7H134.591C135.075 205.7 135.471 205.305 135.471 204.821C135.471 204.337 135.075 203.941 134.591 203.941H125.474C124.99 203.941 124.594 204.337 124.594 204.821C124.594 205.305 124.99 205.7 125.474 205.7Z" fill="white"/>
<path fill-rule="evenodd" clip-rule="evenodd" d="M139.133 205.7H148.251C148.735 205.7 149.13 205.305 149.13 204.821C149.13 204.337 148.735 203.941 148.251 203.941H139.133C138.649 203.941 138.253 204.337 138.253 204.821C138.253 205.305 138.649 205.7 139.133 205.7Z" fill="white"/>
<path fill-rule="evenodd" clip-rule="evenodd" d="M87.0276 201.641H101.795C102.279 201.641 102.674 201.245 102.674 200.761C102.674 200.277 102.279 199.882 101.795 199.882H87.0276C86.5436 199.882 86.1482 200.277 86.1482 200.761C86.1482 201.243 86.5436 201.641 87.0276 201.641Z" fill="white"/>
<path fill-rule="evenodd" clip-rule="evenodd" d="M106.756 201.641H129.842C130.326 201.641 130.722 201.245 130.722 200.761C130.722 200.277 130.326 199.882 129.842 199.882H106.756C106.272 199.882 105.877 200.277 105.877 200.761C105.877 201.243 106.272 201.641 106.756 201.641Z" fill="white"/>
<path fill-rule="evenodd" clip-rule="evenodd" d="M135.549 201.641H155.023C155.507 201.641 155.902 201.245 155.902 200.761C155.902 200.277 155.507 199.882 155.023 199.882H135.549C135.065 199.882 134.67 200.277 134.67 200.761C134.67 201.243 135.065 201.641 135.549 201.641Z" fill="white"/>
<path d="M42.9835 167.701H14.5819V248.655H42.9835V167.701Z" fill="#1D3A7D"/>
<path fill-rule="evenodd" clip-rule="evenodd" d="M95.892 209.519H106.007C106.491 209.519 106.886 209.123 106.886 208.639C106.886 208.155 106.491 207.76 106.007 207.76H95.892C95.408 207.76 95.0126 208.155 95.0126 208.639C95.0126 209.123 95.408 209.519 95.892 209.519Z" fill="#F48120"/>
<path fill-rule="evenodd" clip-rule="evenodd" d="M109.339 209.519H119.454C119.938 209.519 120.333 209.123 120.333 208.639C120.333 208.155 119.938 207.76 119.454 207.76H109.339C108.855 207.76 108.46 208.155 108.46 208.639C108.46 209.123 108.857 209.519 109.339 209.519Z" fill="#F48120"/>
<path fill-rule="evenodd" clip-rule="evenodd" d="M68.2813 197.281H83.1968C83.6808 197.281 84.0762 196.886 84.0762 196.402C84.0762 195.918 83.6808 195.522 83.1968 195.522H68.2813C67.7973 195.522 67.4019 195.918 67.4019 196.402C67.4019 196.886 67.7973 197.281 68.2813 197.281Z" fill="white"/>
<path fill-rule="evenodd" clip-rule="evenodd" d="M87.0317 197.281H97.1462C97.6302 197.281 98.0257 196.886 98.0257 196.402C98.0257 195.918 97.6302 195.522 97.1462 195.522H87.0317C86.5477 195.522 86.1522 195.918 86.1522 196.402C86.1522 196.886 86.5497 197.281 87.0317 197.281Z" fill="white"/>
<path fill-rule="evenodd" clip-rule="evenodd" d="M101.486 197.281H111.6C112.084 197.281 112.48 196.886 112.48 196.402C112.48 195.918 112.084 195.522 111.6 195.522H101.486C101.002 195.522 100.606 195.918 100.606 196.402C100.606 196.886 101.002 197.281 101.486 197.281Z" fill="white"/>
<path fill-rule="evenodd" clip-rule="evenodd" d="M22.8551 224.768H29.3305C29.798 224.768 30.179 224.387 30.179 223.92C30.179 223.452 29.798 223.071 29.3305 223.071H22.8551C22.3876 223.071 22.0066 223.452 22.0066 223.92C22.0045 224.385 22.3876 224.768 22.8551 224.768Z" fill="#E8F6FD"/>
<path fill-rule="evenodd" clip-rule="evenodd" d="M19.0326 220.564H35.9109C36.3784 220.564 36.7594 220.183 36.7594 219.716C36.7594 219.248 36.3784 218.867 35.9109 218.867H19.0326C18.5651 218.867 18.1841 219.248 18.1841 219.716C18.1841 220.181 18.5651 220.564 19.0326 220.564Z" fill="#E8F6FD"/>
<path fill-rule="evenodd" clip-rule="evenodd" d="M19.0326 216.114H31.9297C32.3972 216.114 32.7783 215.733 32.7783 215.266C32.7783 214.798 32.3972 214.417 31.9297 214.417H19.0326C18.5651 214.417 18.1841 214.798 18.1841 215.266C18.1841 215.733 18.5651 216.114 19.0326 216.114Z" fill="#E8F6FD"/>
<path fill-rule="evenodd" clip-rule="evenodd" d="M22.8551 211.663H35.7275C36.195 211.663 36.5761 211.282 36.5761 210.814C36.5761 210.347 36.195 209.966 35.7275 209.966H22.8551C22.3876 209.966 22.0066 210.347 22.0066 210.814C22.0045 211.282 22.3876 211.663 22.8551 211.663Z" fill="#E8F6FD"/>
<path fill-rule="evenodd" clip-rule="evenodd" d="M22.8551 207.215H27.0546C27.5221 207.215 27.9032 206.834 27.9032 206.366C27.9032 205.899 27.5221 205.518 27.0546 205.518H22.8551C22.3876 205.518 22.0066 205.899 22.0066 206.366C22.0066 206.832 22.3876 207.215 22.8551 207.215Z" fill="#E8F6FD"/>
<path fill-rule="evenodd" clip-rule="evenodd" d="M19.0326 202.763H31.2789C31.7464 202.763 32.1274 202.382 32.1274 201.915C32.1274 201.447 31.7464 201.066 31.2789 201.066H19.0326C18.5651 201.066 18.1841 201.447 18.1841 201.915C18.1841 202.382 18.5651 202.763 19.0326 202.763Z" fill="#E8F6FD"/>
<path fill-rule="evenodd" clip-rule="evenodd" d="M22.7831 198.313H26.2432C26.7107 198.313 27.0918 197.932 27.0918 197.465C27.0918 196.997 26.7107 196.616 26.2432 196.616H22.7831C22.3156 196.616 21.9346 196.997 21.9346 197.465C21.9346 197.932 22.3156 198.313 22.7831 198.313Z" fill="#E8F6FD"/>
<path fill-rule="evenodd" clip-rule="evenodd" d="M22.3402 193.864H35.9088C36.3763 193.864 36.7573 193.483 36.7573 193.016C36.7573 192.548 36.3763 192.167 35.9088 192.167H22.3402C21.8727 192.167 21.4917 192.548 21.4917 193.016C21.4917 193.481 21.8748 193.864 22.3402 193.864Z" fill="#E8F6FD"/>
<path fill-rule="evenodd" clip-rule="evenodd" d="M19.0326 189.414H29.8578C30.3253 189.414 30.7063 189.033 30.7063 188.565C30.7063 188.098 30.3253 187.717 29.8578 187.717H19.0326C18.5651 187.717 18.1841 188.098 18.1841 188.565C18.1841 189.033 18.5651 189.414 19.0326 189.414Z" fill="#E8F6FD"/>
<path fill-rule="evenodd" clip-rule="evenodd" d="M22.3402 184.963H35.9088C36.3763 184.963 36.7573 184.582 36.7573 184.114C36.7573 183.647 36.3763 183.266 35.9088 183.266H22.3402C21.8727 183.266 21.4917 183.647 21.4917 184.114C21.4917 184.582 21.8748 184.963 22.3402 184.963Z" fill="#E8F6FD"/>
<path fill-rule="evenodd" clip-rule="evenodd" d="M22.3402 180.514H30.6692C31.1367 180.514 31.5177 180.133 31.5177 179.666C31.5177 179.198 31.1367 178.817 30.6692 178.817H22.3402C21.8727 178.817 21.4917 179.198 21.4917 179.666C21.4917 180.131 21.8748 180.514 22.3402 180.514Z" fill="#E8F6FD"/>
<path fill-rule="evenodd" clip-rule="evenodd" d="M19.0326 176.063H25.0631C25.5306 176.063 25.9116 175.682 25.9116 175.215C25.9116 174.747 25.5306 174.366 25.0631 174.366H19.0326C18.5651 174.366 18.1841 174.747 18.1841 175.215C18.1841 175.682 18.5651 176.063 19.0326 176.063Z" fill="#E8F6FD"/>
<path fill-rule="evenodd" clip-rule="evenodd" d="M22.8551 228.7H29.3305C29.798 228.7 30.179 228.319 30.179 227.851C30.179 227.384 29.798 227.003 29.3305 227.003H22.8551C22.3876 227.003 22.0066 227.384 22.0066 227.851C22.0045 228.317 22.3876 228.7 22.8551 228.7Z" fill="#E8F6FD"/>
<path fill-rule="evenodd" clip-rule="evenodd" d="M19.0326 232.632H35.3466C35.8141 232.632 36.1951 232.251 36.1951 231.783C36.1951 231.316 35.8141 230.935 35.3466 230.935H19.0326C18.5651 230.935 18.1841 231.316 18.1841 231.783C18.1841 232.251 18.5651 232.632 19.0326 232.632Z" fill="#E8F6FD"/>
<path fill-rule="evenodd" clip-rule="evenodd" d="M22.8551 236.563H29.3305C29.798 236.563 30.179 236.182 30.179 235.715C30.179 235.247 29.798 234.866 29.3305 234.866H22.8551C22.3876 234.866 22.0066 235.247 22.0066 235.715C22.0045 236.182 22.3876 236.563 22.8551 236.563Z" fill="#E8F6FD"/>
<path fill-rule="evenodd" clip-rule="evenodd" d="M73.3973 180.857H82.9352C83.4192 180.857 83.8146 180.462 83.8146 179.978C83.8146 179.494 83.4192 179.099 82.9352 179.099H73.3973C72.9133 179.099 72.5178 179.494 72.5178 179.978C72.5178 180.462 72.9133 180.857 73.3973 180.857Z" fill="white"/>
<path fill-rule="evenodd" clip-rule="evenodd" d="M63.8573 177.239H82.651C83.135 177.239 83.5304 176.844 83.5304 176.36C83.5304 175.876 83.135 175.48 82.651 175.48H63.8573C63.3733 175.48 62.9779 175.876 62.9779 176.36C62.98 176.842 63.3754 177.239 63.8573 177.239Z" fill="white"/>
<path fill-rule="evenodd" clip-rule="evenodd" d="M63.8573 172.758H88.5599C89.0439 172.758 89.4394 172.362 89.4394 171.878C89.4394 171.394 89.0439 170.999 88.5599 170.999H63.8573C63.3733 170.999 62.9779 171.394 62.9779 171.878C62.98 172.362 63.3754 172.758 63.8573 172.758Z" fill="white"/>
<path fill-rule="evenodd" clip-rule="evenodd" d="M53.7179 172.758H54.7683C55.2523 172.758 55.6478 172.362 55.6478 171.878C55.6478 171.394 55.2523 170.999 54.7683 170.999H53.7179C53.2339 170.999 52.8385 171.394 52.8385 171.878C52.8385 172.362 53.2339 172.758 53.7179 172.758Z" fill="#B1CBEF"/>
<path fill-rule="evenodd" clip-rule="evenodd" d="M53.7179 177.239H54.7683C55.2523 177.239 55.6478 176.844 55.6478 176.36C55.6478 175.876 55.2523 175.48 54.7683 175.48H53.7179C53.2339 175.48 52.8385 175.876 52.8385 176.36C52.8385 176.842 53.2339 177.239 53.7179 177.239Z" fill="#B1CBEF"/>
<path fill-rule="evenodd" clip-rule="evenodd" d="M53.547 192.474H54.478C54.962 192.474 55.3574 192.078 55.3574 191.594C55.3574 191.11 54.962 190.715 54.478 190.715H53.547C53.063 190.715 52.6676 191.11 52.6676 191.594C52.6676 192.078 53.063 192.474 53.547 192.474Z" fill="#B1CBEF"/>
<path fill-rule="evenodd" clip-rule="evenodd" d="M53.6027 188.648H54.478C54.962 188.648 55.3575 188.252 55.3575 187.768C55.3575 187.284 54.962 186.889 54.478 186.889H53.6027C53.1187 186.889 52.7233 187.284 52.7233 187.768C52.7233 188.252 53.1187 188.648 53.6027 188.648Z" fill="#B1CBEF"/>
<path fill-rule="evenodd" clip-rule="evenodd" d="M53.6027 184.818H54.478C54.962 184.818 55.3575 184.423 55.3575 183.939C55.3575 183.455 54.962 183.06 54.478 183.06H53.6027C53.1187 183.06 52.7233 183.455 52.7233 183.939C52.7233 184.423 53.1187 184.818 53.6027 184.818Z" fill="#B1CBEF"/>
<path fill-rule="evenodd" clip-rule="evenodd" d="M53.6027 180.857H54.478C54.962 180.857 55.3575 180.462 55.3575 179.978C55.3575 179.494 54.962 179.099 54.478 179.099H53.6027C53.1187 179.099 52.7233 179.494 52.7233 179.978C52.7233 180.462 53.1187 180.857 53.6027 180.857Z" fill="#B1CBEF"/>
<path fill-rule="evenodd" clip-rule="evenodd" d="M53.6562 205.7H54.4779C54.9619 205.7 55.3574 205.305 55.3574 204.821C55.3574 204.337 54.9619 203.941 54.4779 203.941H53.6562C53.1722 203.941 52.7767 204.337 52.7767 204.821C52.7788 205.305 53.1742 205.7 53.6562 205.7Z" fill="#B1CBEF"/>
<path fill-rule="evenodd" clip-rule="evenodd" d="M53.6562 201.641H54.4779C54.9619 201.641 55.3574 201.245 55.3574 200.761C55.3574 200.277 54.9619 199.882 54.4779 199.882H53.6562C53.1722 199.882 52.7767 200.277 52.7767 200.761C52.7788 201.243 53.1742 201.641 53.6562 201.641Z" fill="#B1CBEF"/>
<path fill-rule="evenodd" clip-rule="evenodd" d="M53.6624 197.281H54.478C54.962 197.281 55.3574 196.886 55.3574 196.402C55.3574 195.918 54.962 195.522 54.478 195.522H53.6624C53.1784 195.522 52.783 195.918 52.783 196.402C52.783 196.886 53.1784 197.281 53.6624 197.281Z" fill="#B1CBEF"/>
<path fill-rule="evenodd" clip-rule="evenodd" d="M53.9466 221.003H54.4779C54.9619 221.003 55.3574 220.608 55.3574 220.124C55.3574 219.64 54.9619 219.244 54.4779 219.244H53.9466C53.4626 219.244 53.0671 219.64 53.0671 220.124C53.0671 220.606 53.4626 221.003 53.9466 221.003Z" fill="#B1CBEF"/>
<path fill-rule="evenodd" clip-rule="evenodd" d="M53.6562 217.175H54.4779C54.9619 217.175 55.3574 216.779 55.3574 216.295C55.3574 215.811 54.9619 215.416 54.4779 215.416H53.6562C53.1722 215.416 52.7767 215.811 52.7767 216.295C52.7788 216.779 53.1742 217.175 53.6562 217.175Z" fill="#B1CBEF"/>
<path fill-rule="evenodd" clip-rule="evenodd" d="M53.716 213.348H54.4801C54.9641 213.348 55.3595 212.952 55.3595 212.468C55.3595 211.984 54.9641 211.589 54.4801 211.589H53.716C53.232 211.589 52.8365 211.984 52.8365 212.468C52.8365 212.952 53.232 213.348 53.716 213.348Z" fill="#B1CBEF"/>
<path fill-rule="evenodd" clip-rule="evenodd" d="M53.716 209.519H54.4801C54.9641 209.519 55.3595 209.123 55.3595 208.639C55.3595 208.155 54.9641 207.76 54.4801 207.76H53.716C53.232 207.76 52.8365 208.155 52.8365 208.639C52.8365 209.123 53.232 209.519 53.716 209.519Z" fill="#B1CBEF"/>
<path fill-rule="evenodd" clip-rule="evenodd" d="M54.0455 241.453H54.478C54.962 241.453 55.3574 241.058 55.3574 240.574C55.3574 240.09 54.962 239.694 54.478 239.694H54.0455C53.5615 239.694 53.166 240.09 53.166 240.574C53.166 241.058 53.5635 241.453 54.0455 241.453Z" fill="#B1CBEF"/>
<path fill-rule="evenodd" clip-rule="evenodd" d="M54.0455 237.626H54.478C54.962 237.626 55.3574 237.231 55.3574 236.747C55.3574 236.263 54.962 235.867 54.478 235.867H54.0455C53.5615 235.867 53.166 236.263 53.166 236.747C53.166 237.231 53.5635 237.626 54.0455 237.626Z" fill="#B1CBEF"/>
<path fill-rule="evenodd" clip-rule="evenodd" d="M54.0104 233.797H54.4779C54.9619 233.797 55.3574 233.402 55.3574 232.918C55.3574 232.434 54.9619 232.038 54.4779 232.038H54.0104C53.5264 232.038 53.131 232.434 53.131 232.918C53.131 233.402 53.5264 233.797 54.0104 233.797Z" fill="#B1CBEF"/>
<path fill-rule="evenodd" clip-rule="evenodd" d="M53.9466 229.971H54.4779C54.9619 229.971 55.3574 229.575 55.3574 229.091C55.3574 228.607 54.9619 228.212 54.4779 228.212H53.9466C53.4626 228.212 53.0671 228.607 53.0671 229.091C53.0671 229.575 53.4626 229.971 53.9466 229.971Z" fill="#B1CBEF"/>
<path fill-rule="evenodd" clip-rule="evenodd" d="M53.9466 226.117H54.4779C54.9619 226.117 55.3574 225.722 55.3574 225.238C55.3574 224.754 54.9619 224.358 54.4779 224.358H53.9466C53.4626 224.358 53.0671 224.754 53.0671 225.238C53.0671 225.722 53.4626 226.117 53.9466 226.117Z" fill="#B1CBEF"/>
<path fill-rule="evenodd" clip-rule="evenodd" d="M467.572 379.012L466.503 367.709L477.843 367.981L477.736 380.923L467.572 379.012Z" fill="#F8A98E"/>
<path fill-rule="evenodd" clip-rule="evenodd" d="M467.014 378.057C464.814 385.904 458.586 389.325 462.664 394.216H483.427C483.462 394.123 483.494 394.02 483.527 393.913C483.729 393.242 484.697 392.964 484.049 390.511C482.846 385.957 479.309 378.957 478.094 378.596C475.685 377.882 472.264 379.894 467.014 378.057Z" fill="#8C9EF3"/>
<path fill-rule="evenodd" clip-rule="evenodd" d="M461.338 390.408L461.336 390.416L461.311 391.269C461.371 392.486 461.857 393.559 462.885 394.218H483.427C485.015 392.717 484.343 391.36 484.049 390.511L461.338 390.408Z" fill="#1D3975"/>
<path fill-rule="evenodd" clip-rule="evenodd" d="M432.8 222.344L444.952 271.695L451.153 301.075L464.921 372.637C464.921 372.637 467.833 373.968 472.492 373.698C477.149 373.428 479.501 372.74 479.501 372.74C479.604 351.609 479.505 324.777 477.217 297.811C475.3 275.213 482.518 263.113 481.134 238.188C480.724 230.825 472.791 209.959 472.898 210.227L432.8 222.344Z" fill="#355298"/>
<path fill-rule="evenodd" clip-rule="evenodd" d="M417.446 379.012L417.489 367.322L428.831 367.594L427.61 380.924L417.446 379.012Z" fill="#F8A98E"/>
<path fill-rule="evenodd" clip-rule="evenodd" d="M416.696 376.51C411.07 383.181 398.959 384.608 393.895 386.278C389.79 387.631 387.817 392.177 391.003 394.216H429.82C429.855 394.123 429.888 394.022 429.921 393.913C430.498 391.996 432.007 378.291 427.968 378.596C425.462 378.786 422.305 379.399 416.696 376.51Z" fill="#8C9EF3"/>
<path fill-rule="evenodd" clip-rule="evenodd" d="M389.456 390.408L389.454 390.416L389.429 391.269C389.489 392.486 389.975 393.559 391.003 394.218H429.82C429.855 394.126 429.888 394.023 429.921 393.916C430.032 393.541 430.308 391.592 430.442 390.513L389.456 390.408Z" fill="#1D3975"/>
<path fill-rule="evenodd" clip-rule="evenodd" d="M416.492 219.689L415.254 238.435C411.588 276.286 413.191 324.933 416.364 372.598C416.364 372.598 421.808 373.774 426.465 373.502C431.121 373.233 430.273 372.693 430.273 372.693L441.174 294.789C441.174 294.789 443.64 277.05 449.406 263.224C453.571 253.241 458.681 250.364 457.927 238.763C457.146 226.749 458.155 217.438 456.504 213.288C454.852 209.136 446.597 210.804 446.597 210.804L416.492 219.689Z" fill="#355298"/>
<path fill-rule="evenodd" clip-rule="evenodd" d="M438.734 312.237L441.174 294.792C441.174 294.792 442.517 285.122 445.543 274.499V274.497L443.234 257.965L438.437 299.426L438.734 312.237Z" fill="#1D3975"/>
<path fill-rule="evenodd" clip-rule="evenodd" d="M437.259 157.922C431.134 171.79 426.45 185.366 408.491 188.256C395.767 188.756 372.794 180.741 374.464 176.331C376.281 171.538 368.442 169.961 375.758 170.014C385.477 169.872 404.46 170.055 406.652 169.876C408.723 169.707 420.002 140.463 436.106 134.445C437.605 133.453 441.607 151.204 437.259 157.922Z" fill="#8C9EF3"/>
<path fill-rule="evenodd" clip-rule="evenodd" d="M353.249 170.255C353.605 170.836 353.636 171.691 354.266 172.525C356.272 175.179 361.621 179.179 373.105 177.363C373.649 177.276 375.138 177.381 375.725 177.278C376.077 176.16 376.339 172.694 374.986 169.53C370.78 170.024 351.387 168.022 353.249 170.255Z" fill="#F7AAAC"/>
<path fill-rule="evenodd" clip-rule="evenodd" d="M430.036 172.607C425.754 179.293 419.448 186.491 408.491 188.254C401.307 188.536 393.386 186.662 384.902 183.708C393.316 182.271 400.539 185.997 408.649 183.548C416.074 181.305 428.994 160.728 428.994 160.728C428.994 160.728 428.73 169.761 430.036 172.607Z" fill="#7183D5"/>
<path fill-rule="evenodd" clip-rule="evenodd" d="M484.531 186.722C482.358 200.416 480.022 222.56 482.092 239.54C454.125 244.678 431.332 241.809 414.534 236.673C416.313 215.836 421.091 151.101 436.104 134.445C454.584 129.035 475.3 131.366 485.447 140.525C486.967 141.856 488.503 143.72 490.026 145.963V196.379C487.896 193.185 485.972 189.737 484.531 186.722Z" fill="#8C9EF3"/>
<path d="M447.227 132.118C453.606 130.985 461.286 129.745 471.256 133.411C468.921 145.962 461.072 147.515 455.076 147.19C446.966 146.749 443.866 139.423 447.227 132.118Z" fill="#7183D5"/>
<path fill-rule="evenodd" clip-rule="evenodd" d="M476.962 216.042C476.962 216.042 452.325 217.588 447.837 216.816C443.351 216.042 441.802 214.804 441.802 214.804C437.543 215.739 434.139 215.743 431.544 215.247C429.35 214.829 424.183 211.859 427.773 210.316L437.856 205.985L460.444 204.901L474.058 205.598L478.698 209.929L476.962 216.042Z" fill="#7183D5"/>
<path fill-rule="evenodd" clip-rule="evenodd" d="M474.706 165.422C474.706 165.422 472.878 182.17 471.409 187.431C469.389 194.662 449.166 196.868 445.168 204.799L480.199 208.304C480.199 208.304 487.47 195.696 486.774 192.369C486.077 189.045 474.706 165.422 474.706 165.422Z" fill="#7183D5"/>
<path fill-rule="evenodd" clip-rule="evenodd" d="M479.161 240.05C453.53 244.305 432.388 241.829 416.387 237.222C419.994 237.694 425.266 238.417 433.247 238.917C452.438 240.12 473.365 237.842 475.808 233.531C476.856 231.684 477.868 186.377 479.903 175.204C481.285 179.657 482.524 182.641 484.53 186.719C482.508 200.642 480.22 224.175 482.092 239.537C481.112 239.718 480.135 239.889 479.161 240.05Z" fill="#7183D5"/>
<path fill-rule="evenodd" clip-rule="evenodd" d="M443.343 118.772C445.096 122.613 447.639 125.62 450.545 127.15L450.238 132.627C443.677 143.716 465.679 148.656 466.456 132.985L465.331 131.632L465.362 123.867C465.827 123.859 469.275 122.065 470.293 121.795C471.308 121.524 472.857 119.643 473.032 117.602C473.207 115.561 470.023 116.105 470.023 116.105C474.047 111.011 478.541 106.894 473.098 101.968C467.656 97.0393 454.85 93.8037 454.85 93.8037L447.182 90.8193C448.07 93.538 447.058 101.799 444.855 107.308C442.882 112.247 440.991 113.615 443.343 118.772Z" fill="#F7AAAC"/>
<path fill-rule="evenodd" clip-rule="evenodd" d="M461.663 124.805C458.951 129.08 455.804 133.5 450.239 132.625L450.545 127.148C453.019 127.643 455.462 127.538 461.663 124.805Z" fill="#E16E73"/>
<path d="M476.442 157.268C481.079 149.044 486.475 138.046 490.905 147.475C499.363 165.482 498.593 201.483 491.506 208.539C484.287 215.571 449.596 216.93 446.303 214.644C442.422 211.95 439.471 207.141 445.757 203.911C449.676 201.539 454.403 200.847 461.09 199.734C471.456 198.011 475.219 196.145 476.22 186.969C477.33 176.791 472.136 164.909 476.442 157.268Z" fill="#8C9EF3"/>
<path fill-rule="evenodd" clip-rule="evenodd" d="M439.516 203.484C438.313 202.397 433.49 198.15 431.968 197.954C431.189 197.853 431.226 198.131 431.222 198.554C431.22 198.924 431.55 199.691 431.931 200.1C432.726 200.961 433.27 203.015 433.776 203.423C428.442 207.455 419.499 205.48 419.843 208.994C420.298 209.539 423.911 211.585 424.702 212.355C427.216 214.808 428.72 215.747 441.699 212.839C442.313 212.701 444.025 212.664 444.69 212.505C444.999 211.356 445.009 207.877 443.201 204.854L439.516 203.484Z" fill="#F8BDBE"/>
<path fill-rule="evenodd" clip-rule="evenodd" d="M341.703 135.03H382.845C384.468 135.03 385.492 136.486 385.794 138.198L388.319 152.415L391.122 168.202H344.489L339.163 137.757C338.904 136.282 340.304 135.03 341.703 135.03Z" fill="#7183D5"/>
<path fill-rule="evenodd" clip-rule="evenodd" d="M342.539 135.03H383.681C385.304 135.03 386.328 136.486 386.631 138.198L391.889 167.811H391.959L392.296 169.983C392.48 171.161 391.374 172.156 390.247 172.156H347.626C346.502 172.156 345.744 171.166 345.577 169.983L345.326 168.198L340 137.755C339.742 136.282 341.143 135.03 342.539 135.03Z" fill="#7183D5"/>
<path fill-rule="evenodd" clip-rule="evenodd" d="M391.017 168.91L391.211 170.154C391.287 170.648 390.698 171.06 390.249 171.06H347.628C347.027 171.06 346.739 170.325 346.668 169.833L346.413 168.031L341.083 137.571C340.947 136.789 341.824 136.134 342.541 136.134H383.683C384.83 136.134 385.382 137.442 385.551 138.393L390.97 168.914H391.017V168.91Z" fill="#324C8E"/>
<path fill-rule="evenodd" clip-rule="evenodd" d="M344.209 167.811H413.148V169.985C413.148 171.182 412.169 172.158 410.975 172.158H346.384C345.19 172.158 344.212 171.18 344.212 169.985V167.811H344.209Z" fill="#7183D5"/>
<path d="M360.076 168.688H354.435V170.677H360.076V168.688Z" fill="#1F3E7A"/>
<path d="M382.579 142.982H357.257V144.029H382.579V142.982Z" fill="#8BA7D7"/>
<path d="M383.335 146.706H358.013V147.752H383.335V146.706Z" fill="#8BA7D7"/>
<path d="M384.091 150.43H358.769V151.476H384.091V150.43Z" fill="#8BA7D7"/>
<path d="M384.847 154.153H359.524V155.2H384.847V154.153Z" fill="#8BA7D7"/>
<path d="M385.605 157.875H360.282V158.921H385.605V157.875Z" fill="#8BA7D7"/>
<path d="M386.361 161.599H361.038V162.645H386.361V161.599Z" fill="#8BA7D7"/>
<path fill-rule="evenodd" clip-rule="evenodd" d="M478.407 102.106C479.76 97.7029 478.321 93.0709 473.979 89.6787C464.981 82.6494 457.255 86.5358 453.917 87.3535C451.61 87.9199 450.053 87.8581 447.783 88.3318C442.111 89.5181 441.629 101.315 445.718 105.189C446.123 105.575 446.754 100.17 447.209 100.516C447.687 100.936 448.218 101.319 448.801 101.657C455.464 105.07 461.278 101.474 465.158 106.044C467.08 108.308 466.886 111.57 464.734 116.61C464.099 118.095 463.253 119.188 465.761 118.027C466.913 117.493 470.667 116.295 471.314 116.818C472.756 117.981 472.029 120.43 470.877 121.219C470.365 121.571 469.393 122.097 469.393 122.097C479.985 120.093 482.463 105.247 478.407 102.106Z" fill="#355298"/>
<path d="M295.506 14.1182H42.6621V26.0761H295.506V14.1182Z" fill="#7183D5"/>
<path fill-rule="evenodd" clip-rule="evenodd" d="M251.153 214.744C255.236 227.73 261.177 240.334 274.513 248.052C286.232 251.063 310.241 252.595 309.538 249.712C308.89 247.049 309.52 246.525 305.432 245.139C303.014 246.639 276.958 227.429 276.67 227.361C274.661 226.885 268.711 198.16 256.873 193.16C255.538 192.062 247.825 208.236 251.153 214.744Z" fill="#FBB44A"/>
<path fill-rule="evenodd" clip-rule="evenodd" d="M257.486 230.692C258.16 231.888 260.728 236.337 265.198 240.347C262.621 235.002 257.2 211.737 257.2 211.737L257.486 230.692Z" fill="#F48120"/>
<path fill-rule="evenodd" clip-rule="evenodd" d="M232.722 304.787H286.203C289.406 304.787 292.028 307.409 292.028 310.612C292.028 313.816 289.406 316.436 286.203 316.436H232.722C229.52 316.436 226.898 313.814 226.898 310.612C226.898 307.409 229.52 304.787 232.722 304.787Z" fill="#C6D4FF"/>
<path fill-rule="evenodd" clip-rule="evenodd" d="M214.722 214.25H160.25L173.95 305.005L228.422 305.055C228.632 305.055 228.846 305.038 229.06 305.005C231.303 305.005 232.803 302.557 232.452 300.34L219.386 217.642C219.036 215.426 216.964 214.25 214.722 214.25Z" fill="#C6D4FF"/>
<path fill-rule="evenodd" clip-rule="evenodd" d="M164.276 217.64L178.117 304.787H238.555C241.76 304.787 244.379 307.409 244.379 310.612C244.379 313.816 241.758 316.436 238.555 316.436H177.661C171.849 316.436 170.842 310.993 170.319 307.695L156.219 218.913C155.867 216.697 157.368 214.248 159.611 214.248C161.854 214.25 163.924 215.426 164.276 217.64Z" fill="#AEC2FD"/>
<path fill-rule="evenodd" clip-rule="evenodd" d="M312.461 383.675L312.393 372.337L302.608 372.619L302.814 384.227L312.461 383.675Z" fill="#F7AAAC"/>
<path fill-rule="evenodd" clip-rule="evenodd" d="M226.632 273.696L248.416 269.564C248.416 269.564 298.938 275.086 308.288 291.569C317.639 308.052 313.952 374.543 313.952 374.543L300.371 374.72C301.253 369.244 286.292 305.714 286.245 305.702L229.305 285.438L226.632 273.696Z" fill="#355298"/>
<path fill-rule="evenodd" clip-rule="evenodd" d="M226.632 273.695L234.285 277.131C240.58 277.246 267.838 281.505 272.408 282.49C287.894 285.826 285.991 293.692 286.242 305.705L274.993 304.179L229.303 285.441L226.632 273.695Z" fill="#1D3975"/>
<path fill-rule="evenodd" clip-rule="evenodd" d="M261.999 381.788L262.932 371.925L253.036 372.162L253.131 383.454L261.999 381.788Z" fill="#F7AAAC"/>
<path fill-rule="evenodd" clip-rule="evenodd" d="M262.485 380.118C265.282 385.144 269.84 389.949 266.281 394.216H248.167C248.136 394.134 248.107 394.045 248.078 393.95C247.903 393.365 247.057 393.122 247.623 390.98C248.674 387.007 251.759 380.899 252.819 380.586C254.92 379.964 257.905 381.721 262.485 380.118Z" fill="#355298"/>
<path fill-rule="evenodd" clip-rule="evenodd" d="M267.63 390.892V390.9C267.671 392.236 267.533 393.413 266.279 394.216H248.165C247.23 393.674 246.985 393.299 247.621 390.982L267.63 390.892Z" fill="#0F4884"/>
<path fill-rule="evenodd" clip-rule="evenodd" d="M201.703 271.307C201.703 271.307 195.372 296.858 206.87 302.365C218.371 307.872 254.253 308.455 254.253 308.455C247.018 335.613 252.299 352.806 252.027 375.939L264.011 376.001C264.011 376.001 276.091 332.808 279.639 308.319C281.429 295.964 281.804 286.14 266.155 282.768C260.891 281.633 226.634 273.698 226.634 273.698L201.703 271.307Z" fill="#355298"/>
<path fill-rule="evenodd" clip-rule="evenodd" d="M207.585 192.898C199.007 212.582 209.14 231.981 200.628 272.635C215.379 277.339 258.967 277.483 260.848 270.746C261.756 245.035 260.277 220.388 259.235 194.688C246.19 185.647 227.11 182.689 212.166 189.618C211.375 189.984 210.112 190.528 209.362 191.125C208.594 191.739 208.341 192.406 207.585 192.898Z" fill="#FBB44A"/>
<path fill-rule="evenodd" clip-rule="evenodd" d="M245.294 243.467L213.486 232.823L213.274 219.885L209.746 215.154C209.746 215.154 202.551 226.159 202.523 226.904C202.494 227.65 205.701 238.835 205.412 238.848C205.124 238.86 224.397 245.269 225.983 245.642C227.567 246.015 245.294 243.467 245.294 243.467Z" fill="#EE7E22"/>
<path fill-rule="evenodd" clip-rule="evenodd" d="M210.707 190.332C198.268 196.441 191.1 233.676 193.949 243.514C194.439 250.585 223.333 249.668 243.908 252.379C246.732 250.301 249.036 247.562 246.398 243.725C233.762 239.078 211.507 234.932 211.546 234.259C213.3 220.783 215.968 202.28 215 193.325C214.886 192.262 211.791 189.801 210.707 190.332Z" fill="#FBB44A"/>
<path d="M350.489 260.601H342.24V394.216H350.489V260.601Z" fill="#C6D4FF"/>
<path fill-rule="evenodd" clip-rule="evenodd" d="M383.836 250.462H230.968V261.491H383.836C387.215 261.491 389.979 259.009 389.979 255.975C389.979 252.944 387.213 250.462 383.836 250.462Z" fill="#C6D4FF"/>
<path fill-rule="evenodd" clip-rule="evenodd" d="M313.711 379.815C313.711 379.815 326.759 385.174 331.108 387.304C334.486 388.958 336.399 392.441 333.625 394.216H299.832C299.803 394.136 299.772 394.047 299.743 393.952C299.241 392.282 297.929 380.351 301.442 380.617C303.625 380.781 308.828 382.33 313.711 379.815Z" fill="#355298"/>
<path fill-rule="evenodd" clip-rule="evenodd" d="M334.972 390.9L334.974 390.909L334.943 392.256C334.892 393.314 334.519 393.644 333.619 394.216H299.669C299.638 394.136 299.609 394.047 299.58 393.953C299.481 393.627 299.243 391.93 299.123 390.991L334.972 390.9Z" fill="#0F4884"/>
<path fill-rule="evenodd" clip-rule="evenodd" d="M254.712 178.776C252.138 181.849 249.65 183.95 246.604 184.615L245.306 190.019C246.223 193.844 245.36 197.038 240.456 196.748C227.378 194.332 231.085 185.711 231.299 185.315L234.329 178.086C233.904 177.961 230.749 175.23 229.886 174.725C229.025 174.218 228.084 172.107 228.438 170.194C228.795 168.283 231.571 169.584 231.571 169.584C229.176 163.906 226.103 159.004 232.329 155.87C238.555 152.735 251.092 153.009 251.092 153.009L258.865 152.216C257.365 154.479 256.634 163.037 257.26 168.637C257.816 173.658 258.168 174.651 254.712 178.776Z" fill="#F7AAAC"/>
<path fill-rule="evenodd" clip-rule="evenodd" d="M239.579 196.569C237.476 197.901 234.308 199.701 232.205 201.034C229.52 196.42 228.125 191.315 228.125 185.842C228.898 184.779 230.945 184.324 231.905 183.869C232.772 187.523 234.465 192.723 239.579 196.569Z" fill="#FFF1D8"/>
<path fill-rule="evenodd" clip-rule="evenodd" d="M239.579 196.57C240.847 198.673 243.306 200.755 244.575 202.856C246.138 199.82 247.895 192.906 248.101 188.964C247.378 188.254 246.972 188.039 246.052 186.919C244.907 189.52 241.791 195.013 239.579 196.57Z" fill="#FFF1D8"/>
<path fill-rule="evenodd" clip-rule="evenodd" d="M237.025 179.659C237.581 184.345 239.585 188.785 244.546 189.895L246.052 186.921L246.606 184.615C244.217 184.442 242.009 183.727 237.025 179.659Z" fill="#E16E73"/>
<path fill-rule="evenodd" clip-rule="evenodd" d="M260.331 250.462C259.705 248.289 258.576 245.334 255.553 244.374C253.407 243.692 249.199 244.53 240.664 245.018C239.616 247.731 239.605 249.191 239.89 250.462H260.331Z" fill="#F8B9BE"/>
<path fill-rule="evenodd" clip-rule="evenodd" d="M302.962 250.457C308.022 250.432 313.678 250.498 315.175 250.434C313.693 246.021 308.71 244.927 304.55 245.168C303.551 245.85 302.61 249.256 302.962 250.457Z" fill="#F8B9BE"/>
<path fill-rule="evenodd" clip-rule="evenodd" d="M300.064 191.965H241.304C239.027 191.965 238.594 193.907 238.168 196.189L230.689 236.207C230.383 238.147 229.546 241.426 234.636 241.44L294.831 241.483L305.151 194.026C305.526 192.062 302.027 191.965 300.064 191.965Z" fill="#7183D5"/>
<path fill-rule="evenodd" clip-rule="evenodd" d="M303.355 192.356H243.177C240.899 192.356 240.466 194.284 240.04 196.548L232.562 236.248H232.57L232.158 238.608C231.886 240.165 233.453 241.484 235.033 241.484H294.726C296.308 241.484 297.37 240.172 297.601 238.608L297.949 236.248H298.025L305.504 195.967C305.866 194.014 305.318 192.356 303.355 192.356Z" fill="#BCCDFF"/>
<path fill-rule="evenodd" clip-rule="evenodd" d="M232.625 240.329C233.173 241.025 234.1 241.482 235.033 241.482H294.726C295.459 241.482 296.081 241.2 296.561 240.74L287.802 234.368L248.727 234.832L232.625 240.329Z" fill="#AEC2FD"/>
<path fill-rule="evenodd" clip-rule="evenodd" d="M296.559 240.742C297.113 240.213 297.478 239.447 297.601 238.607L297.949 236.246H298.025L305.504 195.965C305.759 194.585 305.559 193.353 304.729 192.75L293.124 204.053L287.8 234.37L296.559 240.742Z" fill="#C6D4FF"/>
<path fill-rule="evenodd" clip-rule="evenodd" d="M242.314 192.47C240.777 192.913 240.409 194.606 240.042 196.548L232.564 236.246H232.572L232.16 238.606C232.049 239.245 232.246 239.844 232.627 240.328L248.729 234.831L253.899 204.053L242.314 192.47Z" fill="#C6D4FF"/>
<path fill-rule="evenodd" clip-rule="evenodd" d="M303.355 192.356H243.177C242.853 192.356 242.567 192.396 242.312 192.47L253.895 204.053H293.121L305.013 193.009C304.651 192.599 304.107 192.356 303.355 192.356Z" fill="#DCE9FF"/>
<path fill-rule="evenodd" clip-rule="evenodd" d="M282.16 213.338H264.12C263.437 213.338 263.309 213.915 263.179 214.594L260.936 226.494H260.938L260.815 227.203C260.732 227.67 261.202 228.066 261.678 228.066H279.571C280.045 228.066 280.364 227.673 280.434 227.203L280.539 226.494H280.562L282.803 214.419C282.912 213.836 282.747 213.338 282.16 213.338Z" fill="#7183D5"/>
<path fill-rule="evenodd" clip-rule="evenodd" d="M275.045 216.312H268.125L270.621 250.435H277.541L275.045 216.312Z" fill="#7183D5"/>
<path d="M351.169 248.915H248.177V250.464H351.169V248.915Z" fill="#7183D5"/>
<path fill-rule="evenodd" clip-rule="evenodd" d="M218.169 380.962L224.101 380.956L241.263 391.711V394.216H218.567H217.77H195.073V391.711L212.236 380.956L218.169 380.962Z" fill="#AEC2FD"/>
<path d="M222.321 316.438H214.015V380.965H222.321V316.438Z" fill="#C6D4FF"/>
<path d="M225.773 316.438H210.565V341.549H225.773V316.438Z" fill="#AEC2FD"/>
<path fill-rule="evenodd" clip-rule="evenodd" d="M255.843 163.572C249.199 165.166 243.265 159.922 238.839 163.139C236.648 164.733 236.116 167.668 236.94 172.603C237.084 173.468 235.025 173.011 234.996 172.988C234.09 172.267 233.297 171.849 232.609 172.173C231.081 172.895 231.198 175.223 232.049 176.17C232.428 176.592 233.177 177.268 233.177 177.268C225.594 173.833 224.023 165.856 225.536 160.107C226.049 158.159 226.692 156.472 227.437 155.014C227.402 154.442 227.452 153.853 227.596 153.263C228.204 150.757 230.317 149.029 232.663 148.893C233.705 146.374 236.355 144.902 238.965 145.534C239.752 145.725 240.452 146.088 241.043 146.574L241.323 146.568C242.676 145.161 244.734 144.492 246.783 144.988C248.221 145.336 249.399 146.197 250.167 147.326C252.095 145.707 254.589 144.984 257.04 145.579C261.402 146.638 263.974 151.472 262.784 156.378C262.038 159.446 259.997 161.817 257.503 162.9C256.986 163.172 256.434 163.399 255.843 163.572Z" fill="#1D3A7D"/>
<path fill-rule="evenodd" clip-rule="evenodd" d="M371.041 192.041H312.282C310.004 192.041 309.577 193.969 309.145 196.232L301.481 236.248C301.174 238.171 300.338 241.426 305.427 241.44L365.623 241.483L375.813 193.965C376.188 192.014 373.002 192.041 371.041 192.041Z" fill="#7183D5"/>
<path fill-rule="evenodd" clip-rule="evenodd" d="M374.147 192.356H313.969C311.691 192.356 311.258 194.284 310.832 196.548L303.354 236.248H303.362L302.95 238.608C302.678 240.165 304.245 241.484 305.825 241.484H365.518C367.1 241.484 368.162 240.172 368.393 238.608L368.741 236.248H368.817L376.296 195.967C376.658 194.014 376.108 192.356 374.147 192.356Z" fill="#BCCDFF"/>
<path fill-rule="evenodd" clip-rule="evenodd" d="M303.417 240.329C303.965 241.025 304.892 241.482 305.825 241.482H365.518C366.251 241.482 366.873 241.2 367.351 240.74L358.591 234.368L319.517 234.832L303.417 240.329Z" fill="#AEC2FD"/>
<path fill-rule="evenodd" clip-rule="evenodd" d="M367.351 240.742C367.905 240.213 368.269 239.447 368.393 238.607L368.741 236.246H368.817L376.295 195.965C376.551 194.585 376.351 193.353 375.521 192.75L363.915 204.053L358.591 234.37L367.351 240.742Z" fill="#C6D4FF"/>
<path fill-rule="evenodd" clip-rule="evenodd" d="M313.103 192.47C311.567 192.913 311.198 194.606 310.832 196.548L303.353 236.246H303.362L302.95 238.606C302.839 239.245 303.036 239.844 303.417 240.328L319.519 234.831L324.689 204.053L313.103 192.47Z" fill="#C6D4FF"/>
<path fill-rule="evenodd" clip-rule="evenodd" d="M374.147 192.356H313.969C313.645 192.356 313.359 192.396 313.104 192.47L324.687 204.053H363.913L375.805 193.009C375.441 192.599 374.899 192.356 374.147 192.356Z" fill="#DCE9FF"/>
<path fill-rule="evenodd" clip-rule="evenodd" d="M352.952 213.338H334.912C334.229 213.338 334.101 213.915 333.971 214.594L331.73 226.494H331.732L331.609 227.203C331.526 227.67 331.996 228.066 332.472 228.066H350.365C350.839 228.066 351.158 227.673 351.228 227.203L351.333 226.494H351.356L353.599 214.419C353.704 213.836 353.539 213.338 352.952 213.338Z" fill="#7183D5"/>
<path fill-rule="evenodd" clip-rule="evenodd" d="M345.836 216.312H338.914L341.41 250.435H348.333L345.836 216.312Z" fill="#7183D5"/>
<path fill-rule="evenodd" clip-rule="evenodd" d="M236.444 250.462H158.1C155.066 250.462 152.584 252.944 152.584 255.977C152.584 259.011 155.066 261.493 158.1 261.493H193.049V394.219H200.063H201.703V261.493H236.444C239.478 261.493 241.959 259.011 241.959 255.977C241.959 252.944 239.478 250.462 236.444 250.462Z" fill="#AEC2FD"/>
<path d="M350.489 261.492H342.24V286.942H350.489V261.492Z" fill="#AEC2FD"/>
<path d="M196.123 51.9903V56.9313L178.03 63.8103V59.0588L190.688 54.4598L178.03 49.8216V45.1093L196.123 51.9903ZM172.063 35.7588H177.346L164.803 71.5646H159.521L172.063 35.7588ZM158.456 49.8237L145.798 54.4618L158.456 59.0609V63.8123L140.362 56.9333V51.9924L158.456 45.1134V49.8237Z" fill="#FFC775"/>
<mask id="mask0_70_20760" style="mask-type:luminance" maskUnits="userSpaceOnUse" x="223" y="3" width="119" height="64">
<path d="M250.251 25.8333C239.612 25.8333 230.988 34.879 230.988 46.0378C230.988 47.3024 231.099 48.5402 231.311 49.7409C227.207 50.0251 223.963 53.6047 223.963 57.9813C223.963 62.5433 227.489 66.2402 231.839 66.2402H250.253H251.166H259.217H297.527H308.045H317.219H327.37H335.421C345.437 65.9416 343.33 50.5565 333.162 50.7625C333.685 38.7448 323.62 24.8076 305.636 29.1945C305.327 26.2823 304.313 21.9386 302.058 17.9183C297.327 9.48025 288.582 3.81641 278.575 3.81641C265.653 3.81641 254.834 13.2575 252.045 25.9198C251.454 25.8642 250.857 25.8333 250.251 25.8333Z" fill="white"/>
</mask>
<g mask="url(#mask0_70_20760)">
<path d="M345.435 3.82031H223.961V66.2421H345.435V3.82031Z" fill="url(#paint0_linear_70_20760)"/>
</g>
<mask id="mask1_70_20760" style="mask-type:luminance" maskUnits="userSpaceOnUse" x="232" y="3" width="119" height="64">
<path d="M258.45 25.8333C247.811 25.8333 239.187 34.879 239.187 46.0378C239.187 47.3024 239.298 48.5402 239.511 49.7409C235.406 50.0251 232.162 53.6047 232.162 57.9813C232.162 62.5433 235.688 66.2402 240.038 66.2402H258.453H259.365H267.416H305.726H316.244H325.42H335.571H343.622C353.638 65.9416 351.531 50.5565 341.363 50.7625C341.886 38.7448 331.821 24.8076 313.837 29.1945C313.528 26.2823 312.514 21.9386 310.259 17.9183C305.528 9.48025 296.783 3.81641 286.776 3.81641C273.854 3.81641 263.035 13.2575 260.246 25.9198C259.655 25.8642 259.056 25.8333 258.45 25.8333Z" fill="white"/>
</mask>
<g mask="url(#mask1_70_20760)">
<path d="M353.636 3.82031H232.162V66.2421H353.636V3.82031Z" fill="url(#paint1_linear_70_20760)"/>
</g>
<path fill-rule="evenodd" clip-rule="evenodd" d="M327.45 113.184L328.386 112.566C328.777 112.307 328.952 111.819 328.806 111.374C328.526 110.513 328.357 109.632 328.297 108.748C328.264 108.28 327.92 107.891 327.461 107.798L326.363 107.572C325.793 107.457 325.424 106.9 325.539 106.332L325.968 104.227C326.083 103.657 326.641 103.29 327.209 103.405L328.309 103.63C328.771 103.723 329.238 103.502 329.45 103.084C329.852 102.293 330.35 101.548 330.948 100.866C331.257 100.514 331.285 99.9968 331.026 99.6055L330.408 98.6704C330.087 98.1864 330.221 97.5315 330.705 97.2122L332.496 96.028C332.98 95.7067 333.633 95.8406 333.955 96.3246L334.572 97.2596C334.832 97.6509 335.318 97.826 335.765 97.6818C336.626 97.3997 337.507 97.2328 338.391 97.171C338.861 97.1402 339.248 96.7941 339.34 96.3349L339.565 95.2371C339.68 94.6666 340.236 94.3 340.807 94.4174L342.912 94.8458C343.482 94.9611 343.849 95.5193 343.734 96.0877L343.509 97.1855C343.416 97.6448 343.637 98.1143 344.057 98.3265C344.846 98.7281 345.591 99.2286 346.275 99.8238C346.627 100.133 347.144 100.162 347.535 99.9041L348.471 99.2862C348.955 98.9649 349.607 99.0988 349.929 99.5828L351.113 101.375C351.434 101.861 351.3 102.514 350.816 102.835L349.881 103.453C349.49 103.712 349.315 104.198 349.461 104.645C349.743 105.504 349.91 106.386 349.97 107.269C350.001 107.739 350.347 108.126 350.806 108.221L351.906 108.443C352.476 108.558 352.843 109.117 352.728 109.685L352.299 111.788C352.182 112.358 351.626 112.725 351.055 112.61L349.958 112.385C349.496 112.292 349.029 112.513 348.817 112.933C348.415 113.722 347.917 114.469 347.321 115.149C347.012 115.501 346.981 116.02 347.241 116.412L347.859 117.347C348.18 117.831 348.048 118.486 347.562 118.805L345.772 119.991C345.288 120.31 344.634 120.179 344.312 119.693L343.694 118.758C343.435 118.366 342.949 118.191 342.5 118.337C341.641 118.62 340.759 118.786 339.876 118.846C339.408 118.877 339.019 119.221 338.926 119.682L338.704 120.78C338.587 121.351 338.031 121.719 337.46 121.604L335.355 121.173C334.785 121.058 334.416 120.502 334.533 119.931L334.758 118.832C334.851 118.372 334.63 117.905 334.212 117.691C333.421 117.291 332.676 116.791 331.994 116.195C331.64 115.886 331.125 115.858 330.733 116.117L329.796 116.735C329.312 117.056 328.657 116.922 328.338 116.438L327.154 114.647C326.831 114.158 326.964 113.504 327.45 113.184ZM334.883 111.998C336.548 113.794 339.246 114.344 341.48 113.341C345.167 111.687 346.127 106.977 343.381 104.011C341.717 102.215 339.019 101.665 336.787 102.668C333.098 104.324 332.136 109.032 334.883 111.998Z" fill="#DCE9FF"/>
<path fill-rule="evenodd" clip-rule="evenodd" d="M81.6933 302.41L83.3224 301.333C84.002 300.882 84.3089 300.032 84.0535 299.255C83.5634 297.754 83.2709 296.219 83.1679 294.679C83.1102 293.863 82.5109 293.188 81.7097 293.025L79.7964 292.632C78.8037 292.43 78.1611 291.464 78.3609 290.471L79.1085 286.805C79.3103 285.812 80.2825 285.172 81.2731 285.374L83.1885 285.763C83.9918 285.926 84.8073 285.54 85.176 284.811C85.8742 283.434 86.7454 282.136 87.7834 280.948C88.321 280.332 88.3725 279.432 87.9194 278.75L86.8443 277.121C86.2841 276.276 86.5189 275.138 87.3612 274.579L90.4815 272.516C91.3259 271.955 92.4628 272.188 93.023 273.033L94.1002 274.662C94.5512 275.341 95.4018 275.65 96.1762 275.397C97.6756 274.907 99.212 274.614 100.751 274.509C101.568 274.456 102.242 273.854 102.406 273.051L102.796 271.136C102.998 270.143 103.966 269.5 104.958 269.706L108.624 270.452C109.617 270.654 110.258 271.624 110.056 272.617L109.666 274.532C109.504 275.333 109.891 276.151 110.62 276.52C111.996 277.22 113.295 278.091 114.484 279.127C115.098 279.667 115.998 279.716 116.681 279.267L118.311 278.188C119.155 277.628 120.292 277.86 120.852 278.705L122.916 281.825C123.474 282.671 123.243 283.808 122.399 284.369L120.77 285.446C120.088 285.897 119.783 286.745 120.036 287.524C120.529 289.021 120.819 290.558 120.924 292.096C120.978 292.914 121.579 293.589 122.38 293.754L124.296 294.141C125.288 294.343 125.929 295.313 125.727 296.306L124.982 299.97C124.778 300.965 123.808 301.603 122.815 301.403L120.901 301.012C120.098 300.849 119.283 301.237 118.912 301.968C118.212 303.343 117.343 304.643 116.304 305.829C115.767 306.443 115.713 307.349 116.167 308.029L117.244 309.658C117.804 310.503 117.573 311.642 116.727 312.2L113.606 314.265C112.762 314.821 111.623 314.591 111.063 313.746L109.988 312.117C109.537 311.436 108.688 311.131 107.908 311.384C106.41 311.874 104.874 312.167 103.335 312.272C102.52 312.327 101.844 312.927 101.679 313.728L101.29 315.641C101.086 316.636 100.118 317.277 99.1255 317.075L95.4595 316.327C94.4668 316.125 93.8242 315.157 94.0281 314.162L94.4173 312.247C94.58 311.446 94.1949 310.63 93.4658 310.26C92.0859 309.563 90.7884 308.692 89.6021 307.654C88.9862 307.117 88.0862 307.065 87.4065 307.516L85.7754 308.593C84.9309 309.154 83.792 308.921 83.2338 308.076L81.1701 304.956C80.614 304.108 80.8468 302.969 81.6933 302.41ZM94.6439 300.347C97.5417 303.477 102.246 304.435 106.138 302.689C112.562 299.805 114.233 291.598 109.448 286.43C106.55 283.302 101.848 282.342 97.9578 284.091C91.5319 286.972 89.8595 295.179 94.6439 300.347Z" fill="#DCE9FF"/>
<path fill-rule="evenodd" clip-rule="evenodd" d="M288.049 29.6973L310.463 57.0855H265.632L288.049 29.6973Z" fill="#DCE9FF"/>
<path fill-rule="evenodd" clip-rule="evenodd" d="M303.242 57.0851H293.031V66.242H277.388V57.0851H265.632L284.436 34.1084L303.242 57.0851Z" fill="white"/>
<path d="M298.707 57.0859H293.031V66.2428H298.707V57.0859Z" fill="#DCE9FF"/>
<defs>
<linearGradient id="paint0_linear_70_20760" x1="284.699" y1="62.1198" x2="284.699" y2="3.95106" gradientUnits="userSpaceOnUse">
<stop stop-color="#8C9EF3"/>
<stop offset="1" stop-color="#EBF6FC"/>
</linearGradient>
<linearGradient id="paint1_linear_70_20760" x1="292.9" y1="46.6618" x2="292.898" y2="-16.3389" gradientUnits="userSpaceOnUse">
<stop stop-color="#8C9EF3"/>
<stop offset="1" stop-color="#FDFDFD"/>
</linearGradient>
</defs>
</svg>
