<?xml version="1.0" encoding="utf-8"?>
<!-- Generator: Adobe Illustrator 27.0.0, SVG Export Plug-In . SVG Version: 6.00 Build 0)  -->
<svg version="1.1" id="Layer_1" xmlns="http://www.w3.org/2000/svg" xmlns:xlink="http://www.w3.org/1999/xlink" x="0px" y="0px"
	 viewBox="0 0 611.4 340.9" style="enable-background:new 0 0 611.4 340.9;" xml:space="preserve">
<style type="text/css">
	.st0{fill-rule:evenodd;clip-rule:evenodd;fill:#EAEFF8;}
	.st1{fill-rule:evenodd;clip-rule:evenodd;fill:#D2DFEE;}
	.st2{fill-rule:evenodd;clip-rule:evenodd;fill:#FFB27D;}
	.st3{fill-rule:evenodd;clip-rule:evenodd;fill:#5275D4;}
	.st4{fill-rule:evenodd;clip-rule:evenodd;fill:#8BBAE9;}
	.st5{fill-rule:evenodd;clip-rule:evenodd;fill:#284191;}
	.st6{fill-rule:evenodd;clip-rule:evenodd;fill:#4F8ECC;}
	.st7{fill-rule:evenodd;clip-rule:evenodd;fill:#61A0E0;}
	.st8{fill-rule:evenodd;clip-rule:evenodd;fill:#F08261;}
	.st9{fill-rule:evenodd;clip-rule:evenodd;fill:#FCB88D;}
	.st10{fill-rule:evenodd;clip-rule:evenodd;fill:#FC9774;}
	.st11{fill-rule:evenodd;clip-rule:evenodd;fill:#FBBFA8;}
	.st12{fill-rule:evenodd;clip-rule:evenodd;fill:#3B5BB3;}
	.st13{fill-rule:evenodd;clip-rule:evenodd;fill:#4567C6;}
	.st14{fill-rule:evenodd;clip-rule:evenodd;fill:#F57A44;}
	.st15{fill-rule:evenodd;clip-rule:evenodd;fill:#ED987E;}
	.st16{fill-rule:evenodd;clip-rule:evenodd;fill:#FFFFFF;}
	.st17{fill-rule:evenodd;clip-rule:evenodd;fill:#EFF9FC;}
	.st18{fill-rule:evenodd;clip-rule:evenodd;fill:#C3DFFA;}
	.st19{fill-rule:evenodd;clip-rule:evenodd;fill:#FEFEFE;}
	.st20{fill-rule:evenodd;clip-rule:evenodd;fill:#BBDBFA;}
	.st21{fill-rule:evenodd;clip-rule:evenodd;fill:#99C5F2;}
	.st22{fill-rule:evenodd;clip-rule:evenodd;fill:#A4D0FC;}
	.st23{fill-rule:evenodd;clip-rule:evenodd;fill:#1E77D1;}
	.st24{fill-rule:evenodd;clip-rule:evenodd;fill:#DFEDFA;}
	.st25{fill-rule:evenodd;clip-rule:evenodd;fill:#FFE2DC;}
</style>
<g>
	<g>
		<path class="st0" d="M549.6,17.9c-5.7,0-10.3-4-10.3-8.9c0-4.9,4.6-8.9,10.3-8.9c5.7,0,10.3,4,10.3,8.9
			C560,13.9,555.4,17.9,549.6,17.9L549.6,17.9z M110.7,232.1H55.4c-29.7,0-54.1,21-54.1,46.7l0,0c0,25.7,24.3,46.7,54.1,46.7h467.1
			c48.1,0,87.5-34,87.5-75.6v0c0-41.6-39.4-75.6-87.5-75.6l0,0c-20.4,0-37-14.4-37-32l0,0c0-17.6,16.7-32,37-32H567
			c21.2,0,38.5-15,38.5-33.2l0,0c0-18.3-17.3-33.2-38.5-33.2h-56.3c-8.2,0-15-5.8-15-12.9l0,0c0-7.1,6.7-12.9,15-12.9h9.9
			c5.7,0,10.3-4,10.3-8.9l0,0C531,4,526.3,0,520.6,0h-37.2c0,0-14.2,0-27.9,0c-13.7,0-15.2,14-49.9,14c-53.6,0-26.8,0-80.4,0
			c-7.4,0-13.5,5.2-13.5,11.7l0,0c0,6.4,6.1,11.7,13.5,11.7h13c10.7,0,19.5,7.6,19.5,16.9l0,0c0,9.3-8.8,16.9-19.5,16.9h-39
			c-52.6,0-60.1,11.9-69.3,35.5c-9.2,23.6-57.1,25.6-57.1,25.6h-65.5c-16.2,0-29.5,11.5-29.5,25.5l0,0c0,14,13.3,25.5,29.5,25.5h3.4
			c15.6,0,28.3,11,28.3,24.5l0,0C139,221.1,126.3,232.1,110.7,232.1L110.7,232.1z"/>
	</g>
	<g>
		<path class="st1" d="M310.4,340.9c158.5,0,287.8-4.9,287.8-11s-129.3-11-287.8-11s-287.8,4.9-287.8,11S151.9,340.9,310.4,340.9z"
			/>
	</g>
	<g>
		<g>
			<path class="st2" d="M420.3,119.1c-1.1-2.8-2.4-4.5-3.9-4.9c-3.5-1.5-6.5-3.3-9.2-5.2c-1.1,1.3-0.2,2.7,2.6,4.1
				c1.2,0.6,2,1.3,2.5,1.9c-2.9,1.4-4.3,3.1-4.2,5.1c0.4,1.6,0.9,2.5,1.6,2.8c0.3,0.1,1,0.3,1.6-0.4c1.6,3.1,3.6,3.2,5.2,2.7
				c0.5,0.1,0.6,0.1,1,0.2C417.9,123.1,419.2,120.2,420.3,119.1z"/>
		</g>
		<g>
			<path class="st3" d="M496.5,188.3c-4.4,3.1-8.1,25.9-8.5,68.6c-0.5,16,2.3,37.2,5.9,65.1c2.9,1.3,7.2,1.4,10.5,1.3
				c4.6-34.6,5.3-56.7,1.9-65.7c4.4-11.1,8.1-22.7,10.9-34.5c2,16.4,4.3,29.4,6.9,39c5.9,15.4,14.7,35.6,26.3,60.5
				c2.7,0.4,7.5-0.4,10.2-2.3c-4.1-30.5-11.8-53.5-19.1-61.1c6.9-39,1.2-59.3-7.5-71.2C518.8,190.3,505.4,190.1,496.5,188.3z"/>
		</g>
		<g>
			<path class="st4" d="M544.7,176.3c11.5-44.6-1-60.9-25.7-61.1c-1.6,4.3-4.5,8.8-8.7,13.3c-1.7-3.3-3.6-5.8-5.6-7.5
				c-2.2,1.4-4.3,3.6-6.5,6.7c-0.4-4.6,0.1-8.6,1.3-12c-8.9,0.6-22.7,5-41.5,13.2c-10.3-3.4-23.3-7.2-37.8-10.3l0,0
				c-0.4-0.1-3.2,6.5-3.4,6.6c0.9,3,36.8,16,40.5,17.4c10.7-0.1,21.5,0.3,32.4-3.5c0.2,32.1,2.4,45.4,6.8,49.1
				c4.2,0.9,9.5,1.4,15.5,1.4c0.4,0.7,0.7,1.9,1,3.1c2.8-0.9,5.9-2.3,9.4-3.4l0.9-0.4C532.7,185.1,539.3,181.2,544.7,176.3z"/>
		</g>
		<g>
			<path class="st5" d="M484.1,332.9c8.8,0.4,15.4,0.7,18.5-0.1c3.3-0.8,2.8-2.9,1.1-6.2c-3.3,1.1-6.6,0.8-9.9-0.8
				c-2.9,2-7,3.2-12.4,3.6C479,331,479.8,332.6,484.1,332.9L484.1,332.9z M552.5,334.2c4.9-1.4,9.1-2.3,10.8-3.6
				c2.3-1.6,1.1-3.6-1.3-6.1c-2.8,2-6.1,2.7-9.7,2.1c-2.6,3.7-11,2.1-11.8,4.6C539.5,336,550.3,334.9,552.5,334.2z"/>
		</g>
		<g>
			<path class="st6" d="M508.8,173.1c-0.8-12.6-1.8-27.8-2.8-46.8c1.1-0.5,1.8-1.4,2-1.6c-1-1.4-2.1-2.6-3.2-3.5
				c-1.2,0.8-2.5,1.9-3.7,3.3c0.4,0.5,1.1,1.2,2,1.9c-0.9,11.7-1.9,27.6-2.8,47.7c0.5,1.9,2.1,3.8,4.2,5.2
				C505.8,178.1,508.1,176.1,508.8,173.1z"/>
		</g>
		<g>
			<path class="st7" d="M510.3,128.6c4.2-4.5,7.1-9,8.7-13.3c-0.9-1.7-2.4-3.5-3.4-4c-4.9,5.1-8,7.9-10.9,9.7c0,0,0,0-0.1,0
				c0-0.1-0.1-0.3-0.1-0.4c-0.8-2.7-1.9-5.8-2.4-8.9c-1.4,1-1.9,2.5-2.7,4c-1.2,3.4-1.7,7.3-1.3,12c0.9-1.3,1.8-2.4,2.8-3.4
				c1.2-1.4,2.5-2.4,3.7-3.3c1.1,0.9,2.2,2.1,3.2,3.5C508.7,125.7,509.5,127.1,510.3,128.6z"/>
		</g>
		<g>
			<path class="st7" d="M526.3,142.5c0.2-0.7,0.2-1.5,0.1-2.4c-4.1,0.4-7.8,0.1-11.1-0.9c-0.3,0.7-0.5,1.4-0.5,2.1
				C517.4,142.3,521.2,142.7,526.3,142.5z"/>
		</g>
		<g>
			<path class="st2" d="M515.7,111.4c-0.8-0.9-1.4-2.2-1.9-3.8c0.3-0.8,0.6-1.9,0.8-3.2c5.3-3.8,6-6.5,2-8.2
				c-0.8,0.5-1.7,1.9-2.9,4.2c-0.9,0-0.1-2.5-0.6-3.4c1-3.9,0.1-5.1,0.4-7.5c-2.8-3.9-9.4-5-17.7-3.7c-0.7,7.6-3,25.5,6.1,24.9
				l0.1,1c0.5,3.1,1.6,6.2,2.4,8.9l0.2,0.4C507.7,119.3,510.8,116.5,515.7,111.4z"/>
		</g>
		<g>
			<path class="st5" d="M496.3,86.4c8.2-1.2,14.5-0.8,17.2,3.1c-0.3,2.4,0.4,3.9-0.7,7.8c0.5,0.9-0.1,3.1,0.8,3.1
				c1.1-2.3,2.1-3.7,2.9-4.2c4,1.7,3.3,4.4-2,8.2c-0.3,1.3-0.6,2.3-0.8,3.2c9.4-5.5,13.5-18.8,4.9-25.1c-1.7-11.1-17.6-0.9-25.8-6.1
				C489.8,80.9,493.8,86.4,496.3,86.4z"/>
		</g>
		<g>
			<path class="st8" d="M508.3,110c-1.5,0.4-4.5,0.8-6.2,0.8l0.1,1c0.1,0.6,0.2,1.2,0.4,1.8c0,0,0,0,0.1,0
				C505.2,112.6,507.1,111.4,508.3,110z"/>
		</g>
		<g>
			<path class="st6" d="M501.5,124.9c-0.2-0.2-0.4-0.4-0.6-0.6c1.8-1.9,3.1-3,3.9-3.1c0.5,1,1.2,2.5,2,4.3c0.5-0.4,0.9-0.8,1-0.9
				c-1-1.3-2-2.5-3-3.4C503.8,122,502.7,123.2,501.5,124.9z"/>
		</g>
		<g>
			<path class="st9" d="M552.5,322.6c0.4,1.3,0.5,2.7,0.5,4.1c3,0.4,5.7-0.2,8.2-1.6c-0.7-1.3-1.2-2.7-1.6-4.2
				C557.5,321.9,554.8,322.5,552.5,322.6L552.5,322.6z M503,326.9c-0.1-1.2-0.2-2.4-0.2-3.6c-2.3,0-4.9-0.1-7.1-0.7
				c-0.2,1.5-0.7,2.7-1.3,3.6C497.3,327.4,500.1,327.7,503,326.9z"/>
		</g>
		<g>
			<path class="st10" d="M510.5,156.3l18.4,16c-4.9,3.2-11.1,7.5-19.9,13.6c0.3,0.3,0.7,0.6,1,1c0.2-0.1,0.5-0.2,0.7-0.3
				c0.4,0.4,0.8,0.8,1.1,1.3c0.4,0.5,0.7,1.1,0.9,1.9c0.2,0.7,0.2,1.4,0.1,2.4c0.1,0.2,0.1,0.5,0.2,0.7c2.3-0.7,4.7-1.8,7.4-2.8
				c6.1-2.2,12.7-5.3,18.4-9.1l4.5,3.9c0.9,0.7,0.9,2,0.2,2.9l-19.1,22c-0.7,0.9-2,0.9-2.9,0.2l-32.8-28.5c-0.9-0.7-0.9-2-0.2-2.9
				l19.1-22C508.4,155.6,509.7,155.5,510.5,156.3z"/>
		</g>
		<g>
			<path class="st11" d="M511.4,155.1l20.3,15.3c-5.2,3.4-12.1,8.1-22.7,15.5c0.3,0.3,0.7,0.6,1,1c0.2-0.1,0.5-0.2,0.7-0.3
				c0.4,0.4,0.8,0.8,1.1,1.3c0.4,0.5,0.7,1.1,0.9,1.9c0.2,0.7,0.2,1.4,0.1,2.4c0.1,0.2,0.1,0.5,0.2,0.7c2.3-0.7,4.7-1.8,7.4-2.8
				c7.4-2.7,15.5-6.6,21.9-11.7l3.8,2.9c0.9,0.7,1.1,2,0.4,2.9l-17.5,23.3c-0.7,0.9-2,1.1-2.9,0.4l-34.8-26.1
				c-0.9-0.7-1.1-2-0.4-2.9l17.5-23.3C509.2,154.6,510.5,154.4,511.4,155.1z"/>
		</g>
		<g>
			<path class="st7" d="M498.3,129.7c1-1.6,2.1-3.2,3.2-4.7c-0.2-0.2-0.4-0.4-0.6-0.6c-0.9,1-1.8,2.1-2.8,3.4
				C498.2,128.4,498.3,129,498.3,129.7L498.3,129.7z M489.7,139.2c0-1.9,0.1-4.5,0.4-7.8c-0.8,3.7-2.3,6.7-4.6,9.1
				C486.9,140.1,488.3,139.7,489.7,139.2L489.7,139.2z M510.3,128.6c-0.8-1.5-1.6-2.9-2.5-4c-0.2,0.1-0.5,0.5-1,0.9
				c0.8,2,1.7,4.3,2.5,6.7c4.2-5.2,8.1-11.9,9.7-16.9C517.4,119.6,514.5,124,510.3,128.6L510.3,128.6z M512,189.7
				c-0.9-1.6-1.9-2.8-3-3.8c12.4-8.6,19.6-13.6,25.2-17.1c-1.7-7.2-3.1-17.4-2.6-26.1c-1.8,9.9-2.1,18.3-0.7,25.3
				c-9.7,6.7-18.6,13.6-24.5,18.5l0.4,0.7c-0.9,0.6-1.7,1.3-2.6,2.2C506.7,189.6,509.3,189.7,512,189.7z"/>
		</g>
		<g>
			<path class="st2" d="M510.7,186.5c-2.7,1.1-5.1,2.3-7.3,3.7c-2,3.3-2.5,4.9-1.5,6.8c2.1,2.6,5.4,2.6,5.7,0.7
				c-0.9-1-0.6-2.3,0.4-3.4c1.6,0.4,2.6,0,3.1-1.2c0.6-0.2,1.2-0.3,1.7-0.5c0.5-2.4,0-3.8-0.9-4.9
				C511.5,187.4,511.1,186.9,510.7,186.5z"/>
		</g>
		<g>
			<path class="st5" d="M519.6,86.3c-0.8-1.1-0.8-2.1-0.2-2.9c1.9-0.4,3.4,0.1,4.5,1.3C523,84.5,521.6,85,519.6,86.3z"/>
		</g>
		<g>
			<path class="st5" d="M517.6,82.9c0.8,0.9,1.5,1,2.1,0.6c0.4-1.6,0.2-3-0.7-4.3C519.2,80,518.7,81.2,517.6,82.9z"/>
		</g>
		<g>
			<path class="st5" d="M502.1,85.9c-0.1-2.4-1-3.8-2.8-4.3c-3,1.4-4.7,3.6-5,6.6C495.3,86.9,497.9,86.2,502.1,85.9z"/>
		</g>
		<g>
			<path class="st5" d="M507.6,77.4c-0.4,1,0.1,2.3-1.3,2.7c-1,4.4-4.4-1.5-4.3-3.2C502.6,77.4,504.5,77.6,507.6,77.4z"/>
		</g>
	</g>
	<g>
		<path class="st2" d="M420.9,188.6c-0.8-1-1.4-2.3-2-3.9c0.3-0.9,0.6-1.9,0.9-3.2c5.5-3.9,6.2-6.7,2.1-8.4
			c-0.8,0.5-1.8,1.9-2.9,4.3c-1,0-0.1-2.5-0.6-3.5c1.1-4,0.1-5.2,0.4-7.7c-2.8-4-9.7-5.1-18.1-3.8c-0.7,7.8-3.1,26.2,6.3,25.6l0.1,1
			c0.5,3.2,1.7,6.4,2.5,9.1l0.2,0.4C412.7,196.7,415.9,193.8,420.9,188.6z"/>
	</g>
	<g>
		<path class="st5" d="M401.1,163c8.5-1.3,14.9-0.8,17.7,3.2c-0.3,2.5,0.4,4-0.7,8c0.5,0.9-0.1,3.1,0.9,3.2c1.2-2.4,2.1-3.8,2.9-4.3
			c4.1,1.7,3.4,4.5-2.1,8.4c-0.3,1.3-0.6,2.4-0.9,3.3c9.6-5.7,13.9-19.4,5.1-25.8c-1.8-11.4-18.1-0.9-26.5-6.3
			C394.3,157.4,398.5,163,401.1,163z"/>
	</g>
	<g>
		<path class="st8" d="M413.3,187.2c-1.6,0.4-4.6,0.9-6.4,0.8l0.1,1c0.1,0.6,0.2,1.2,0.4,1.9c0,0,0,0,0.1,0
			C410.2,189.9,412.2,188.7,413.3,187.2z"/>
	</g>
	<g>
		<path class="st5" d="M424.9,162.9c-0.8-1.1-0.9-2.2-0.2-3c1.9-0.4,3.5,0.1,4.7,1.4C428.5,161,427,161.6,424.9,162.9z"/>
	</g>
	<g>
		<path class="st5" d="M423,159.3c0.8,0.9,1.5,1.1,2.2,0.6c0.4-1.7,0.2-3.1-0.7-4.4C424.5,156.4,424,157.6,423,159.3z"/>
	</g>
	<g>
		<path class="st5" d="M407,162.4c-0.1-2.5-1-3.9-2.9-4.4c-3.1,1.4-4.8,3.7-5.2,6.8C400,163.5,402.7,162.7,407,162.4z"/>
	</g>
	<g>
		<path class="st5" d="M412.7,153.8c-0.4,1,0.1,2.4-1.4,2.7c-1,4.5-4.5-1.6-4.5-3.3C407.5,153.7,409.4,153.9,412.7,153.8z"/>
	</g>
	<g>
		<path class="st5" d="M364.9,311.9c0,0-3.1,4.6-8.7,7.8c-5.8,3.4-12.5,5.1-8.3,6.4c4.2,1.4,10.3,2.3,16.3,0.5
			c4.2-1.3,9-1.7,10.3-3.7c1.2-2-3.3-7.3-2.3-14.8C373,302.2,364.9,311.9,364.9,311.9z"/>
	</g>
	<g>
		<path class="st12" d="M384.7,248.8c0,0-23.6-1.3-30.2,0c-6.6,1.3-21,1.6-10.9,28c7.9,20.7,17.5,40.3,17.5,40.3
			c4.9,1.1,8.6,4.4,14.8,3.3c0,0-9-46.7-15.5-53.2c5.1,0.7,14.6,2.2,27.6,5.6c24.3,6.3,33.9,2.7,33.9,2.7l3.3-12.7L384.7,248.8z"/>
	</g>
	<g>
		<path class="st5" d="M356.9,321.7c0,0-3.1,4.6-8.7,7.8c-5.8,3.4-12.5,5.1-8.3,6.4c4.2,1.4,10.3,2.4,16.3,0.5
			c4.2-1.3,9-1.7,10.3-3.7c1.2-2-1.7-6.9-0.7-14.3C366.6,312.4,356.9,321.7,356.9,321.7z"/>
	</g>
	<g>
		<path class="st13" d="M389.7,248.9c0,0-30.6-0.4-37.2,0.9c-6.6,1.3-21,1.6-10.9,28c7.9,20.7,10.9,47.1,10.9,47.1l14.8,3.3
			c0,0-1.7-47.5-9-60c5.1,0.7,14.6,2.2,27.6,5.6c24.3,6.3,37.4,2.6,37.4,2.6l3.3-12.7L389.7,248.9z"/>
	</g>
	<g>
		<path class="st4" d="M425,190.5c23.3,15,9.6,40.4,5,58.8c-3.9,15.7-3.6,25.1-4.2,25.1c-0.6,0-16.5-2-25.7-9.9
			c-9.2-7.9-15.5-15.7-15.5-15.7s11.5-2.3,14.9-17.3c1.7-7.6,0.8-11.7,4.9-23.8C408.5,195.4,425,190.5,425,190.5z"/>
	</g>
	<g>
		<path class="st4" d="M425,190.5l-2.6-6c0,0-7.7,5.3-10.7,7.8c-3.1,2.5-5,3.1-5,3.1s-0.9,8.7-0.2,7.9
			C415.5,193.2,425,190.5,425,190.5z"/>
	</g>
	<g>
		<path class="st7" d="M424.7,213.1c0,0-5.3,17.6-12.2,25c-6.9,7.4-21.1,10.1-25.6,10c3.5-1.5,10.2-5.7,12.7-16.6
			c1.7-7.6,0.8-11.7,4.9-23.8c3-9,12.9-14.1,17.8-16.1c-6.1,4.6-13.6,12-15.8,17.6C403.9,215.3,424.7,213.1,424.7,213.1z"/>
	</g>
	<g>
		<path class="st2" d="M346.1,230.2c0,0-10-4.3-11-3.8c-1.1,0.5-11.9,7.3-11.8,8.4c0,1.1,9.6-4.3,9.6-4.3s-1,2.9-0.3,4.2
			c0.7,1.4,8.1,1.2,14.8,0.6C353.9,234.7,346.1,230.2,346.1,230.2z"/>
	</g>
	<g>
		<path class="st4" d="M424.1,199.6c9.5,18.4-21.2,38.1-39.7,40.2c-18.5,2.1-40.6-3.4-40.6-3.4l2.3-6.1c0,0,37-5.7,37.9-6.4
			C384.9,223.1,420.6,192.8,424.1,199.6z"/>
	</g>
	<g>
		<path class="st2" d="M158.7,233.2c0.4,2.9,0.6,4.4,0.6,4.4c4.3-1.4,7.2-1.8,8.8-1.2c6.4,0.5,11.2-0.6,14.2-3.4
			c1.7-1.6,2.2-1.9-0.1-2c-4.3-0.2-13.4,0.3-12.1-1.3c1.4-1.8-0.4-1.5-0.4-1.5c-2.4,0-4.6,1.2-6.6,3.5
			C160.2,232.7,158.7,233.2,158.7,233.2z"/>
	</g>
	<g>
		<path class="st2" d="M206.2,308.7c0,0,18.4,18.3,21.2,19.6c2.9,1.3,11.6,2.3,5.2,4.4c-6.4,2.1-10.2,0.2-14.6,0
			c-4.4-0.2-9.6,0.3-8.5-3.3c1.2-3.6-1.3-10.3-6.6-13.6C197.8,312.5,206.2,308.7,206.2,308.7z"/>
	</g>
	<g>
		<path class="st12" d="M134.4,252.5c0,0,38.1-1,53.2,11.4c8.8,13.4,30.2,52.9,31.9,57.3c-1.1,1.1-7.6,3.2-10.4,2.9
			c-8.4-10-19.5-18.7-24-26.6c-5.4-9.7-7.1-14.5-16-15.4c-8.8-0.9-28.8-3.7-34.8-3.7C128.4,278.4,134.4,252.5,134.4,252.5z"/>
	</g>
	<g>
		<path class="st13" d="M112.7,249.8l22.2,3.8c0,0,29.4,0.3,42.9,2.8c24.3,4.5-6.3,66.7-9.1,68.8c-3.5-2.6-11,4.4-12-1.8
			c1-1.4,9-45.4,9.1-47c-1.7-2.8-45.3,14.5-54,4.3C103.5,271.1,112.7,249.8,112.7,249.8z"/>
	</g>
	<g>
		<path class="st4" d="M111.8,199.7c5.8-0.8,11.8,0.3,17.3,4.3c4.9,5,10.4,13.1,10,26.6c-0.4,17.1,2.6,18.2-0.6,22.9
			c-13.4,5.5-36.3,29.3-30.9,3.8c3.9-18.4-8.6-32.2,1.5-52.6C110,203,111,201.4,111.8,199.7z"/>
	</g>
	<g>
		<path class="st7" d="M139.1,237c0.3,8.9,1.5,11.5,0.6,14.3c-5.5,0.6-15.4,2.7-17.9,6.2c-2.8,4-5.7,4.6-4.4,1.6
			c1.3-2.9,4.8-7.1-0.6-21.5c-5.4-14.3-8-24-2.7-34L139.1,237z"/>
	</g>
	<g>
		<path class="st5" d="M209.8,327c9.7,2.1,14.9,3.4,17.7,2.4c0.6-0.2,1.2-0.4,1.6-0.6c3.5,1.1,9,2,3.6,3.8c-6.4,2.1-10.2,0.2-14.6,0
			c-4.4-0.2-9.6,0.3-8.5-3.3C209.8,328.7,209.9,327.9,209.8,327z"/>
	</g>
	<g>
		<path class="st4" d="M116.3,201.4c6.3-1.2,9.2,4.5,13.3,13.7c4.1,9.2,6.9,16.9,8.3,18.3c1.4,1.4,26.2-3.3,26.2-3.3s0.7,6.4,0,7.1
			c-0.1,0.1-35.5,11.9-36.7,10.5c-0.8-0.9-16.1-24.4-17-32.9C109.5,206.5,113.1,202,116.3,201.4z"/>
	</g>
	<g>
		<g>
			<path class="st14" d="M206.9,252.9h126.3c2.8,0,5,2.3,5,5l0,0c0,2.8-2.3,5-5,5H206.9c-2.8,0-5-2.3-5-5l0,0
				C201.8,255.1,204.1,252.9,206.9,252.9z"/>
		</g>
		<g>
			<g>
				<path class="st15" d="M220.9,262.9l-18.3,73.3h-2.2c7-37.1,11.5-61.5,13.6-73.3H220.9z"/>
			</g>
			<g>
				<path class="st15" d="M319.2,262.9l18.3,73.3h2.2c-7-37.1-11.5-61.5-13.6-73.3H319.2z"/>
			</g>
		</g>
	</g>
	<g>
		<g>
			<g>
				<polygon class="st14" points="168.6,325.2 173.1,325.2 172.2,336.2 169.5,336.2 				"/>
			</g>
			<g>
				<polygon class="st14" points="96,325.2 100.5,325.2 99.6,336.2 96.9,336.2 				"/>
			</g>
			<g>
				<path class="st11" d="M61.7,190.3C81,277.9,90.6,321.7,90.6,321.7c1.4,6.3,5.5,8.4,12.5,6.3c46.5,0.2,69.8,0.3,69.8,0.3
					c12.6-94.2,19.2-93.5-67.4-65.7c-13.3,3.1-4.5-27.2-1.3-63.9C106.7,170.1,66.5,160.2,61.7,190.3z"/>
			</g>
			<g>
				<path class="st15" d="M180.3,263.7c-15.7,14.7-64.8,8.2-74.9,0c-1,9,55,19,74.7,4.8C180.2,266.7,180.3,265.2,180.3,263.7z"/>
			</g>
		</g>
		<g>
			<g>
				<polygon class="st14" points="371.5,325.2 367,325.2 367.8,336.2 370.5,336.2 				"/>
			</g>
			<g>
				<polygon class="st14" points="444.1,325.2 439.6,325.2 440.5,336.2 443.1,336.2 				"/>
			</g>
			<g>
				<path class="st11" d="M478.3,190.3c-19.3,87.6-28.9,131.5-28.9,131.5c-1.4,6.3-5.5,8.4-12.5,6.3c-46.5,0.2-69.8,0.3-69.8,0.3
					c-12.6-94.2-19.2-93.5,67.4-65.7c13.3,3.1,4.5-27.2,1.3-63.9C433.3,170.1,473.6,160.2,478.3,190.3z"/>
			</g>
			<g>
				<path class="st15" d="M359.8,263.7c15.7,14.7,64.8,8.2,74.9,0c1,9-55,19-74.7,4.8C359.8,266.7,359.8,265.2,359.8,263.7z"/>
			</g>
		</g>
	</g>
	<g>
		<path class="st7" d="M332.4,250h-46.6v2.1c0,0.4,0.3,0.7,0.7,0.7H331c0.8,0,1.4-0.6,1.4-1.4V250z"/>
	</g>
	<g>
		<path class="st7" d="M287.9,250.4L264.7,210l-1.3,0.8c-0.3,0.1-0.3,0.5-0.2,0.7l22.5,39c0.3,0.5,0.9,0.7,1.4,0.4L287.9,250.4z"/>
	</g>
	<g>
		<rect x="289" y="251" class="st16" width="15.6" height="0.9"/>
	</g>
	<g>
		<path class="st16" d="M213.2,172.9c0.4,6,1.3,6.8,7,7.2c-5.7,0.5-6.6,1.3-7,7.2c-0.4-6-1.3-6.8-7-7.2
			C211.9,179.7,212.8,178.9,213.2,172.9L213.2,172.9z M213.4,224c0.2,3.2,0.7,3.6,3.7,3.9c-3,0.2-3.5,0.7-3.7,3.9
			c-0.2-3.2-0.7-3.6-3.7-3.9C212.7,227.6,213.1,227.1,213.4,224L213.4,224z M200.2,164.1c0.2,3.2,0.7,3.7,3.8,3.9
			c-3.1,0.2-3.5,0.7-3.8,3.9c-0.2-3.2-0.7-3.7-3.8-3.9C199.5,167.8,200,167.4,200.2,164.1z"/>
	</g>
	<g>
		<path class="st5" d="M121.1,182.6c-4.9,2.6-6.5,6.3-6.5,10.1c0,0.6-1.2,1.2-1.1,1.8c1,9.7,6.7,22.4-3.4,13.5c0,0-2.5,2.8-2.2,3.1
			c2.4-4.9-5-49.5,12.6-46c0,0,13.7-2,13.3,14.1c1,19,2.6,22.8,3.8,26c-1.5,1.1-2.1,0.7-2.6-0.8c-0.5-1.3-0.8-2.9-0.9-3.3
			c0,0,0.7,4.6,0.9,4.8c0,0-5.6-0.5-8.1-2.5C124.5,201.5,120.6,186,121.1,182.6z"/>
	</g>
	<g>
		<path class="st2" d="M114.2,197.7c0.4-1-0.5-0.9-0.3-1.9c0.5-2.3,0.8-4.7,1-6.8c0.5-3.9,1-7,1-7l8.2,2c0,0-4.2,10.5,0.4,14
			c1,0.7,2.1,1.6,3.3,2.8c-4.4-2.9-8.8-3.1-13.3-2.4C114.1,198.5,114.7,197.6,114.2,197.7z"/>
	</g>
	<g>
		<path class="st7" d="M113.8,192.6l-0.5,2.8l1.1,4.9c0,0,5.2-1.1,8.9,0.8c3.7,1.9,9.4,7.6,9.4,7.6l-4.7-7.4l-0.8-4.8L113.8,192.6z"
			/>
	</g>
	<g>
		<path class="st8" d="M115.8,184c0.5-0.5,1-1,1.6-1.6l6.7,1.7l0,0c-0.1,0.4-1.7,4.4-1.7,8.2c-2-1.1-4.3-3-6.9-6.3
			C115.7,185.3,115.8,184.6,115.8,184z"/>
	</g>
	<g>
		<path class="st2" d="M116.8,175.9c-3,11.7,10.7,24,16.4,12.2c0.8-1.7,2.2-3.5,2.8-6.2c1.3-5.7-1.1-11.1-5.4-12.1
			C126.3,168.8,118.1,170.3,116.8,175.9z"/>
	</g>
	<g>
		<path class="st5" d="M131.4,165c10.3,0,9.4,15.6,9.4,15.6s-2.6,0.9-8.3,0.3c0.4-1.7,0-5.9,0-5.9s-0.5,3.5-1.2,5.6
			c-1.2,0.6-2.5,0.2-4.8-0.3c-1,5-4.2,7.2-6.4,8c-2.5,0.9-5.1,1.9-8.1,0.6c-3-1.3-2-16.5-0.6-19.6c2.2-4.7,5.9-8.9,12.7-7
			C127.5,163.1,131.4,165,131.4,165z"/>
	</g>
	<g>
		<path class="st5" d="M116.8,190.3c0.7,0,1.4-0.1,2.2-0.3c3.6-0.7,8.3-2.9,8.2-14.4c0-0.2-0.2-0.3-0.3-0.3c-0.2,0-0.3,0.2-0.3,0.3
			c0.1,4.7-0.7,8.3-2.3,10.5c-1.2,1.7-2.9,2.7-5.3,3.2c-3.3,0.6-5.6,0.1-6.7-1.6c-0.1-0.2-0.3-0.2-0.5-0.1c-0.2,0.1-0.2,0.3-0.1,0.5
			C112.6,189.7,114.4,190.4,116.8,190.3z"/>
	</g>
	<g>
		<path class="st5" d="M110.7,172.3c3.1,1.7,5.9,5.3,5.7,12.6c1,19,2.6,22.8,3.8,26c-1.5,1.1-2.1,0.7-2.6-0.8
			c-0.5-1.3-0.8-2.9-0.9-3.3c0,0,0.7,4.6,0.9,4.8c0,0-5.6-0.5-8.1-2.5c-0.7-0.6-1.6-2.5-2.5-4.8C106,194.3,107.2,183.6,110.7,172.3z
			"/>
	</g>
	<g>
		<g>
			<g>
				<path class="st16" d="M166.9,198.2H205c0.9,0,1.6,0.7,1.6,1.6v28.6c0,0.9-0.7,1.6-1.6,1.6h-38.1c-0.9,0-1.6-0.7-1.6-1.6v-28.6
					C165.3,199,166,198.2,166.9,198.2z"/>
			</g>
			<g>
				<path class="st7" d="M166.9,197.9H205c0.5,0,1,0.2,1.4,0.6c0.4,0.4,0.6,0.8,0.6,1.4v28.6c0,0.5-0.2,1-0.6,1.4
					c-0.4,0.4-0.8,0.6-1.4,0.6h-38.1c-0.5,0-1-0.2-1.4-0.6l0,0c-0.4-0.4-0.6-0.8-0.6-1.4v-28.6c0-0.5,0.2-1,0.6-1.4v0
					C165.9,198.1,166.4,197.9,166.9,197.9L166.9,197.9z M205,198.5h-38.1c-0.4,0-0.7,0.2-0.9,0.4l0,0c-0.2,0.2-0.4,0.6-0.4,0.9v28.6
					c0,0.4,0.2,0.7,0.4,0.9v0c0.2,0.2,0.6,0.4,0.9,0.4H205c0.4,0,0.7-0.2,0.9-0.4c0.2-0.2,0.4-0.6,0.4-0.9v-28.6
					c0-0.4-0.2-0.7-0.4-0.9C205.7,198.7,205.4,198.5,205,198.5z"/>
			</g>
		</g>
		<g>
			<path class="st10" d="M172.9,215.1h4.7v11.8h-4.7V215.1L172.9,215.1z M194.3,201.4h4.7v25.5h-4.7V201.4L194.3,201.4z
				 M187.1,206.5h4.7v20.4h-4.7V206.5L187.1,206.5z M180,211.6h4.7v15.3H180V211.6z"/>
		</g>
	</g>
	<g>
		<g>
			<rect x="196.1" class="st17" width="196.9" height="189.8"/>
		</g>
		<g>
			<rect x="196.1" class="st18" width="196.9" height="20.4"/>
		</g>
		<g>
			<rect x="201.5" y="5.6" class="st16" width="73.9" height="7.7"/>
		</g>
		<g>
			<path class="st16" d="M381.9,5.1c2.6,0,4.7,2.1,4.7,4.7c0,2.6-2.1,4.7-4.7,4.7c-2.6,0-4.7-2.1-4.7-4.7
				C377.2,7.2,379.3,5.1,381.9,5.1z"/>
		</g>
		<g>
			<rect x="216.9" y="36" class="st18" width="74.3" height="16.1"/>
		</g>
		<g>
			<rect x="216.9" y="57.8" class="st18" width="74.3" height="16.1"/>
		</g>
		<g>
			<path class="st19" d="M219.5,80.2h50.9c0.4,0,0.7,0.3,0.7,0.7v1.5c0,0.4-0.3,0.7-0.7,0.7h-50.9c-0.4,0-0.7-0.3-0.7-0.7v-1.5
				C218.8,80.5,219.1,80.2,219.5,80.2z"/>
		</g>
		<g>
			<path class="st19" d="M219.5,87.8h64.8c0.4,0,0.7,0.3,0.7,0.7V90c0,0.4-0.3,0.8-0.7,0.8h-64.8c-0.4,0-0.7-0.3-0.7-0.8v-1.5
				C218.8,88.1,219.1,87.8,219.5,87.8z"/>
		</g>
		<g>
			<path class="st19" d="M219.5,95.4h64.8c0.4,0,0.7,0.3,0.7,0.7v1.5c0,0.4-0.3,0.7-0.7,0.7h-64.8c-0.4,0-0.7-0.3-0.7-0.7v-1.5
				C218.8,95.7,219.1,95.4,219.5,95.4z"/>
		</g>
		<g>
			<path class="st19" d="M219.5,103h38.7c0.4,0,0.7,0.3,0.7,0.7v1.5c0,0.4-0.3,0.8-0.7,0.8h-38.7c-0.4,0-0.7-0.3-0.7-0.8v-1.5
				C218.8,103.3,219.1,103,219.5,103z"/>
		</g>
		<g>
			<path class="st19" d="M219.5,110.6h64.8c0.4,0,0.7,0.3,0.7,0.8v1.5c0,0.4-0.3,0.7-0.7,0.7h-64.8c-0.4,0-0.7-0.3-0.7-0.7v-1.5
				C218.8,111,219.1,110.6,219.5,110.6z"/>
		</g>
		<g>
			<path class="st19" d="M308.8,37.4h50.9c0.4,0,0.7,0.3,0.7,0.7v1.5c0,0.4-0.3,0.8-0.7,0.8h-50.9c-0.4,0-0.7-0.3-0.7-0.8v-1.5
				C308.1,37.8,308.4,37.4,308.8,37.4z"/>
		</g>
		<g>
			<path class="st19" d="M308.8,45h64.8c0.4,0,0.7,0.3,0.7,0.7v1.5c0,0.4-0.3,0.7-0.7,0.7h-64.8c-0.4,0-0.7-0.3-0.7-0.7v-1.5
				C308.1,45.4,308.4,45,308.8,45z"/>
		</g>
		<g>
			<path class="st19" d="M308.8,52.7h64.8c0.4,0,0.7,0.3,0.7,0.7v1.5c0,0.4-0.3,0.8-0.7,0.8h-64.8c-0.4,0-0.7-0.3-0.7-0.8v-1.5
				C308.1,53,308.4,52.7,308.8,52.7z"/>
		</g>
		<g>
			<path class="st19" d="M308.8,60.3h38.7c0.4,0,0.7,0.3,0.7,0.8v1.5c0,0.4-0.3,0.7-0.7,0.7h-38.7c-0.4,0-0.7-0.3-0.7-0.7V61
				C308.1,60.6,308.4,60.3,308.8,60.3z"/>
		</g>
		<g>
			<rect x="307.1" y="78.8" class="st18" width="74.4" height="16"/>
		</g>
		<g>
			<rect x="216.9" y="126.6" class="st16" width="74.3" height="44"/>
		</g>
		<g>
			<path class="st19" d="M307.3,110.4h50.9c0.4,0,0.7,0.3,0.7,0.7v1.5c0,0.4-0.3,0.8-0.7,0.8h-50.9c-0.4,0-0.7-0.3-0.7-0.8v-1.5
				C306.5,110.7,306.9,110.4,307.3,110.4z"/>
		</g>
		<g>
			<path class="st19" d="M307.3,118h64.8c0.4,0,0.7,0.3,0.7,0.7v1.5c0,0.4-0.3,0.7-0.7,0.7h-64.8c-0.4,0-0.7-0.3-0.7-0.7v-1.5
				C306.5,118.3,306.9,118,307.3,118z"/>
		</g>
		<g>
			<path class="st19" d="M307.3,125.6h64.8c0.4,0,0.7,0.3,0.7,0.7v1.5c0,0.4-0.3,0.7-0.7,0.7h-64.8c-0.4,0-0.7-0.3-0.7-0.7v-1.5
				C306.5,126,306.9,125.6,307.3,125.6z"/>
		</g>
		<g>
			<rect x="303" y="154.5" class="st16" width="74.3" height="16"/>
		</g>
	</g>
	<g>
		<g>
			<rect x="269.1" y="135.1" class="st7" width="5.1" height="30.5"/>
		</g>
		<g>
			<rect x="261.6" y="139.5" class="st20" width="5.1" height="26.1"/>
		</g>
		<g>
			<rect x="254.2" y="143.9" class="st21" width="5.1" height="21.7"/>
		</g>
		<g>
			<rect x="246.7" y="147.3" class="st20" width="5.1" height="18.3"/>
		</g>
		<g>
			<rect x="239.2" y="152.7" class="st22" width="5.1" height="12.9"/>
		</g>
		<g>
			<rect x="231.7" y="157.1" class="st20" width="5.1" height="8.5"/>
		</g>
		<g>
			<path class="st21" d="M267.6,135.1h-35.9v0.4h35.9c0.1,0,0.2-0.1,0.2-0.2C267.9,135.2,267.8,135.1,267.6,135.1z"/>
		</g>
		<g>
			<path class="st21" d="M260.8,139.7c0,0.1-0.1,0.2-0.2,0.2h-28.8v-0.4h28.8C260.7,139.5,260.8,139.6,260.8,139.7z"/>
		</g>
		<g>
			<path class="st21" d="M252.4,144.1c0,0.1-0.1,0.2-0.2,0.2h-20.5v-0.4h20.5C252.3,143.9,252.4,144,252.4,144.1z"/>
		</g>
		<g>
			<path class="st21" d="M245.2,147.5c0,0.1-0.1,0.2-0.2,0.2h-13.3v-0.4H245C245.1,147.3,245.2,147.4,245.2,147.5z"/>
		</g>
		<g>
			<path class="st21" d="M237.2,152.9c0,0.1-0.1,0.2-0.2,0.2h-5.3v-0.4h5.3C237.1,152.7,237.2,152.8,237.2,152.9z"/>
		</g>
		<g>
			<polygon class="st7" points="228,161.8 227.1,161.2 235.3,149.7 241.6,151.9 254.1,139.8 257.5,142.2 269.5,132 270.2,132.8 
				257.5,143.6 254.2,141.2 241.9,153.2 235.7,151 			"/>
		</g>
		<g>
			<polygon class="st7" points="269.9,134.9 269.5,132.5 267.3,131.5 272.1,130.6 			"/>
		</g>
	</g>
	<g>
		<g>
			<path class="st7" d="M148.1,39.7c22.6,5,39.4,25.1,39.4,49.2c0,1.4-0.1,2.8-0.2,4.1l-34.1,1.8c0.7-1.9,1.1-3.9,1.1-6
				c0-7.6-4.9-14-11.8-16.3L148.1,39.7z"/>
		</g>
		<g>
			<path class="st23" d="M148.2,39.2c11.5,2.5,21.6,9,28.7,17.9c7,8.7,11.2,19.8,11.2,31.8c0,0.7,0,1.4,0,2.1c0,0.7-0.1,1.4-0.1,2.1
				l0,0.5l-0.5,0l-34.1,1.8l-0.8,0l0.3-0.8c0.3-0.9,0.6-1.9,0.8-2.8v0c0.2-0.9,0.3-1.9,0.3-2.9c0-3.6-1.2-7-3.1-9.7
				c-2-2.8-4.9-5-8.3-6.1l-0.4-0.1l0.1-0.5l5.6-32.9l0.1-0.6L148.2,39.2L148.2,39.2z M176.1,57.7c-6.9-8.6-16.5-14.8-27.5-17.4
				l-5.4,31.9c3.4,1.2,6.3,3.4,8.4,6.3c2.1,2.9,3.3,6.5,3.3,10.4c0,1.1-0.1,2.1-0.3,3.1h0c-0.1,0.8-0.3,1.5-0.6,2.3l32.8-1.8
				c0-0.5,0.1-1.1,0.1-1.6c0-0.7,0-1.3,0-2.1C187,77.1,182.9,66.3,176.1,57.7z"/>
		</g>
		<g>
			<path class="st20" d="M136.1,77.2l5.6-32.9c-3.5-0.8-7.2-1.2-10.9-1.2c-15.9,0-30.1,7.4-39.4,18.9l27,19.6
				c3.1-3.3,7.5-5.3,12.4-5.3C132.6,76.4,134.4,76.7,136.1,77.2L136.1,77.2z M88.6,66l27,19.6c-1.2,2.4-1.9,5.1-1.9,7.9
				c0,3.8,1.3,7.4,3.4,10.2l-23.8,23.3c-8-8.9-12.8-20.7-12.8-33.6C80.4,83.4,83.4,73.9,88.6,66L88.6,66z M96.6,130.5
				c9,8.3,21,13.4,34.2,13.4c9.9,0,19.1-2.8,26.8-7.7l-19-27.4c-2.3,1.2-5,1.9-7.8,1.9c-3.9,0-7.5-1.3-10.3-3.5L96.6,130.5
				L96.6,130.5z M161.5,133.4l-19-27.4c1.9-1.8,3.4-4,4.3-6.5l34.1-1.8C179.8,112.2,172.4,125,161.5,133.4z"/>
		</g>
		<g>
			<path class="st23" d="M135.7,76.5l5.4-31.8c-1.6-0.3-3.2-0.6-4.9-0.8c-1.8-0.2-3.6-0.3-5.5-0.3c-7.7,0-15.1,1.8-21.6,4.9
				c-6.6,3.2-12.4,7.8-17,13.4l26.1,19c1.6-1.6,3.4-2.8,5.5-3.7c2.1-0.9,4.5-1.4,6.9-1.4c0.9,0,1.9,0.1,2.8,0.2
				C134.3,76.2,135,76.3,135.7,76.5L135.7,76.5z M142.2,44.4l-5.6,32.9l-0.1,0.6l-0.6-0.2c-0.8-0.3-1.7-0.5-2.6-0.6
				c-0.8-0.1-1.7-0.2-2.6-0.2c-2.3,0-4.5,0.5-6.5,1.3c-2.1,0.9-3.9,2.2-5.5,3.8l-0.3,0.3l-0.4-0.3l-27-19.6l-0.5-0.3l0.4-0.4
				c4.8-5.9,10.8-10.8,17.7-14.1c6.7-3.2,14.1-5,22-5c1.9,0,3.7,0.1,5.6,0.3c1.9,0.2,3.7,0.5,5.5,0.9l0.5,0.1L142.2,44.4L142.2,44.4
				z M88.7,66.8l26.2,19c-0.5,1.1-1,2.3-1.3,3.5c-0.3,1.4-0.5,2.8-0.5,4.2c0,1.9,0.3,3.8,0.9,5.6h0c0.6,1.7,1.3,3.2,2.3,4.6
				l-23.1,22.6c-3.8-4.4-6.9-9.5-9-15c-2.1-5.5-3.3-11.5-3.3-17.8c0-4.9,0.7-9.7,2.1-14.2C84.3,74.8,86.3,70.6,88.7,66.8L88.7,66.8z
				 M82,79c1.4-4.8,3.5-9.2,6.2-13.3l0.3-0.5l0.5,0.3l27,19.6l0.4,0.3l-0.2,0.4c-0.6,1.2-1.1,2.4-1.4,3.7c-0.3,1.3-0.5,2.6-0.5,4
				c0,1.8,0.3,3.6,0.8,5.2l0,0c0.6,1.7,1.4,3.3,2.5,4.7l0.3,0.4l-0.3,0.3l-23.8,23.3l-0.4,0.4l-0.4-0.4c-4.1-4.6-7.4-9.9-9.6-15.8
				c-2.2-5.6-3.3-11.8-3.3-18.1C79.9,88.5,80.6,83.6,82,79L82,79z M97.4,130.5c4.4,4,9.6,7.2,15.2,9.4c5.6,2.2,11.7,3.4,18.1,3.4
				c4.8,0,9.4-0.7,13.8-1.9c4.3-1.3,8.5-3.1,12.2-5.4l-18.4-26.5c-1.1,0.5-2.3,0.9-3.5,1.2c-1.3,0.3-2.7,0.5-4.1,0.5
				c-2,0-3.9-0.3-5.6-0.9c-1.7-0.6-3.3-1.4-4.7-2.4L97.4,130.5L97.4,130.5z M112.2,140.9c5.7,2.2,12,3.5,18.5,3.5
				c4.9,0,9.6-0.7,14.1-2c4.6-1.3,9-3.3,13-5.8l0.5-0.3l-0.3-0.5l-19-27.4l-0.3-0.4l-0.4,0.2c-1.2,0.6-2.4,1.1-3.7,1.4
				c-1.2,0.3-2.6,0.5-3.9,0.5c-1.9,0-3.6-0.3-5.3-0.9c-1.7-0.6-3.3-1.4-4.7-2.5l-0.4-0.3l-0.3,0.3l-23.8,23.3l-0.4,0.4l0.4,0.4
				C100.8,135.2,106.3,138.6,112.2,140.9L112.2,140.9z M161.6,132.6l-18.4-26.5c0.9-0.8,1.6-1.8,2.3-2.8c0.7-1,1.3-2.1,1.7-3.3
				l33.2-1.8c-0.6,6.9-2.7,13.3-5.8,19.1C171.3,123.2,166.9,128.4,161.6,132.6L161.6,132.6z M175.5,117.8c-3.4,6.2-8.1,11.7-13.6,16
				l-0.4,0.3l-0.3-0.5l-19-27.4l-0.3-0.4l0.3-0.3c0.9-0.9,1.8-1.9,2.5-2.9c0.7-1.1,1.3-2.2,1.7-3.4l0.1-0.3l0.4,0l34.1-1.8l0.6,0
				l-0.1,0.6C180.9,104.9,178.8,111.7,175.5,117.8z"/>
		</g>
	</g>
	<g>
		<g>
			<path class="st4" d="M340,46.6c0-12.8,10.4-23.2,23.2-23.2c12.8,0,23.2,10.4,23.2,23.2c0,12.8-10.4,23.2-23.2,23.2
				C350.4,69.8,340,59.4,340,46.6z"/>
		</g>
		<g>
			<path class="st20" d="M343.5,46.6c0-10.9,8.8-19.7,19.7-19.7c10.9,0,19.7,8.8,19.7,19.7c0,10.9-8.8,19.7-19.7,19.7
				C352.3,66.3,343.5,57.5,343.5,46.6z"/>
		</g>
		<g>
			<path class="st22" d="M373.5,29.8c2,3.1,3.1,6.7,3.1,10.6c0,10.9-8.8,19.7-19.7,19.7c-3.8,0-7.3-1.1-10.3-2.9
				c3.5,5.5,9.6,9.1,16.6,9.1c10.9,0,19.7-8.8,19.7-19.7C382.9,39.5,379.1,33.3,373.5,29.8z"/>
		</g>
		<g>
			<path class="st24" d="M347,48.4c0-9.6,7.8-17.4,17.4-17.4c5.6,0,10.6,2.7,13.8,6.8c-3-5.2-8.6-8.7-15.1-8.7
				c-9.6,0-17.4,7.8-17.4,17.4c0,4,1.3,7.7,3.6,10.6C347.8,54.5,347,51.6,347,48.4z"/>
		</g>
		<g>
			<path class="st16" d="M364.8,33.9v2.5c1,0.2,1.8,0.5,2.5,1c0.6,0.5,1.2,1.3,1.8,2.3l-2.5,1.4c-0.8-1.4-1.7-2-2.9-2
				c-0.7,0-1.4,0.2-1.9,0.7c-0.5,0.4-0.7,1-0.7,1.7c0,0.6,0.2,1.1,0.6,1.5c0.4,0.4,1.2,0.9,2.4,1.4c1,0.5,1.9,0.9,2.6,1.3
				c0.7,0.4,1.2,0.8,1.5,1.2c1,1,1.4,2.3,1.4,3.8c0,1.4-0.4,2.7-1.3,3.8c-0.9,1.1-2,1.8-3.5,2.2v2.6h-2.2v-2.6
				c-1.7-0.3-2.9-0.8-3.8-1.7c-0.9-0.9-1.5-2.2-1.9-4.1l2.8-0.6c0.4,1.3,0.9,2.2,1.4,2.8c0.6,0.5,1.4,0.8,2.3,0.8
				c0.9,0,1.7-0.3,2.4-0.9c0.6-0.6,0.9-1.4,0.9-2.3c0-0.8-0.3-1.5-0.8-2c-0.3-0.2-0.7-0.5-1.2-0.8c-0.5-0.3-1.2-0.7-2-1
				c-1.7-0.7-2.7-1.4-3.3-2c-0.8-0.9-1.2-2-1.2-3.3c0-0.6,0.1-1.2,0.3-1.7c0.2-0.5,0.5-1,0.9-1.4c0.4-0.4,0.8-0.8,1.4-1.1
				c0.5-0.3,1.2-0.6,1.9-0.7v-2.5H364.8z"/>
		</g>
	</g>
	<g>
		<g>
			<g>
				<path class="st18" d="M504.7,54.4h-14.5l0.7,8.3c0.1,1.2-1.3,1.8-2.1,0.9l-8.4-9.3h-72.8c-3.8,0-6.8-3-6.8-6.8l0-26.5
					c0-3.8,3-6.8,6.8-6.8h97.2c3.8,0,6.8,3,6.8,6.8v26.5C511.5,51.3,508.5,54.4,504.7,54.4z"/>
			</g>
			<g>
				<path class="st25" d="M501.7,27.6h-13c-0.8,0-1.4-0.6-1.4-1.4c0-0.8,0.6-1.4,1.4-1.4h13c0.8,0,1.4,0.6,1.4,1.4
					C503.1,27,502.5,27.6,501.7,27.6L501.7,27.6z M446.6,43.8h-36c-0.8,0-1.4-0.6-1.4-1.4c0-0.8,0.6-1.4,1.4-1.4h36
					c0.8,0,1.4,0.6,1.4,1.4C448.1,43.2,447.4,43.8,446.6,43.8L446.6,43.8z M487.6,43.8h-35.1c-0.8,0-1.4-0.6-1.4-1.4
					c0-0.8,0.6-1.4,1.4-1.4h35.1c0.8,0,1.4,0.6,1.4,1.4C489,43.2,488.3,43.8,487.6,43.8L487.6,43.8z M432.9,35.7h-22.3
					c-0.8,0-1.4-0.6-1.4-1.4c0-0.8,0.6-1.4,1.4-1.4h22.3c0.8,0,1.4,0.6,1.4,1.4C434.3,35.1,433.7,35.7,432.9,35.7L432.9,35.7z
					 M501.7,35.7h-62.5c-0.8,0-1.4-0.6-1.4-1.4c0-0.8,0.6-1.4,1.4-1.4h62.5c0.8,0,1.4,0.6,1.4,1.4C503.1,35.1,502.5,35.7,501.7,35.7
					L501.7,35.7z M482.7,27.6h-72.1c-0.8,0-1.4-0.6-1.4-1.4c0-0.8,0.6-1.4,1.4-1.4h72.1c0.8,0,1.4,0.6,1.4,1.4
					C484.1,27,483.5,27.6,482.7,27.6z"/>
			</g>
		</g>
		<g>
			<path class="st16" d="M501.7,27.6h-13c-0.8,0-1.4-0.6-1.4-1.4c0-0.8,0.6-1.4,1.4-1.4h13c0.8,0,1.4,0.6,1.4,1.4
				C503.1,27,502.5,27.6,501.7,27.6L501.7,27.6z M446.6,43.8h-36c-0.8,0-1.4-0.6-1.4-1.4c0-0.8,0.6-1.4,1.4-1.4h36
				c0.8,0,1.4,0.6,1.4,1.4C448.1,43.2,447.4,43.8,446.6,43.8L446.6,43.8z M487.6,43.8h-35.1c-0.8,0-1.4-0.6-1.4-1.4
				c0-0.8,0.6-1.4,1.4-1.4h35.1c0.8,0,1.4,0.6,1.4,1.4C489,43.2,488.3,43.8,487.6,43.8L487.6,43.8z M432.9,35.7h-22.3
				c-0.8,0-1.4-0.6-1.4-1.4c0-0.8,0.6-1.4,1.4-1.4h22.3c0.8,0,1.4,0.6,1.4,1.4C434.3,35.1,433.7,35.7,432.9,35.7L432.9,35.7z
				 M501.7,35.7h-62.5c-0.8,0-1.4-0.6-1.4-1.4c0-0.8,0.6-1.4,1.4-1.4h62.5c0.8,0,1.4,0.6,1.4,1.4C503.1,35.1,502.5,35.7,501.7,35.7
				L501.7,35.7z M482.7,27.6h-72.1c-0.8,0-1.4-0.6-1.4-1.4c0-0.8,0.6-1.4,1.4-1.4h72.1c0.8,0,1.4,0.6,1.4,1.4
				C484.1,27,483.5,27.6,482.7,27.6z"/>
		</g>
	</g>
	<g>
		<g>
			<rect x="354.7" y="167.8" class="st18" width="14.1" height="4.9"/>
		</g>
		<g>
			<path class="st4" d="M368.6,165.1c0.8-0.4,1.4-1.1,1.4-2.2v-0.3c0.2-9.5,8.5-12.2,9.2-22.7c0.1-0.8,0-1.6,0-2.3
				c-1.3-8-8.9-13.3-17.4-13.3c-9.7,0-18.2,7-17.6,16.8c0.6,10.2,8.6,12.8,8.8,22c0,1,1.1,2.2,2,2.1H368.6z"/>
		</g>
		<g>
			<path class="st18" d="M368.3,164l-3.6,3.2l-6.7-1.6l-3.1-1.5l0,0c-0.3,0-0.8-0.7-0.8-1c-0.1-3.3-1-6-2.8-8.8
				c-1.2-2-2.7-3.9-3.8-5.9c-1.3-2.4-2-4.7-2.2-7.4c-0.2-3.3,0.6-6.4,2.6-9c3.2-4.4,8.6-6.7,13.9-6.7c7.5,0,15,4.6,16.3,12.4
				c0.1,0.7,0.1,1.4,0,2.1c-0.2,2.8-1,5.2-2.3,7.7c-1.2,2.1-2.7,4.1-4,6.2c-1.8,2.8-2.8,5.5-2.8,8.9v0.3
				C368.9,163.4,368.7,163.7,368.3,164z"/>
		</g>
		<g>
			<path class="st24" d="M363.6,165.3l-1.3,1.3l-4.3-1l-3.1-1.5l0,0c-0.3,0-0.8-0.7-0.8-1c-0.1-3.3-1-6-2.8-8.8
				c-1.2-2-2.7-3.9-3.8-5.9c-1.3-2.4-2-4.7-2.2-7.4c-0.2-3.3,0.6-6.4,2.6-9c3.2-4.4,8.6-6.7,13.9-6.7c1.6,0,3.2,0.2,4.7,0.6
				c3.5,2.3,6.2,6,6.9,10.7c0.1,0.8,0.1,1.5,0,2.3c-0.2,3.1-0.9,5.7-2.3,8.4c-1.2,2.3-2.7,4.4-4,6.7c-1.8,3.1-2.8,6-2.8,9.7v0.4
				C364.2,164.6,364,165,363.6,165.3z"/>
		</g>
		<g>
			<path class="st4" d="M354.2,173.8c0.1,1.1,1,1.9,2.1,1.9h1.6l0.6,1c0.4,0.6,0.6,0.6,1.3,0.6h3.8c0.7,0,0.9,0,1.3-0.6l0.6-1h1.6
				c1.1,0,2-0.8,2.1-1.9v-0.7c-0.1-0.2-0.3-0.4-0.5-0.4h-14c-0.3,0-0.5,0.2-0.5,0.4c0,0,0,0.1,0,0.1V173.8L354.2,173.8z
				 M368.5,168.9h-13.6c-0.4,0-0.7,0.3-0.7,0.7v1.2c0,0.4,0.3,0.7,0.7,0.7h13.6c0.4,0,0.7-0.3,0.7-0.7v-1.2
				C369.3,169.2,368.9,168.9,368.5,168.9L368.5,168.9z M368.5,165.1h-13.5c-0.4,0-0.8,0.4-0.8,0.8v1.2c0,0.4,0.4,0.8,0.8,0.8h13.5
				c0.4,0,0.8-0.3,0.8-0.8v-1.2C369.3,165.4,368.9,165.1,368.5,165.1z"/>
		</g>
		<g>
			<path class="st16" d="M363.9,165.1l1.4-17.4h2.1c0.9,0,1.7-0.4,2.3-1v0c0.6-0.6,1-1.4,1-2.3c0-0.9-0.4-1.7-1-2.3
				c-0.6-0.6-1.4-1-2.3-1c-0.9,0-1.7,0.4-2.2,0.9c-0.6,0.6-1,1.4-1,2.3l-0.2,1.9h-6.4l-0.2-1.9c-0.1-0.9-0.5-1.7-1-2.3
				c-0.6-0.6-1.3-0.9-2.2-0.9c-0.9,0-1.7,0.4-2.3,1h0c-0.6,0.6-1,1.4-1,2.3c0,0.9,0.4,1.7,1,2.3c0.6,0.6,1.4,1,2.3,1h2.1l1.4,17.4
				h1.5l-1.4-17.4h6.1l-1.4,17.4H363.9L363.9,165.1z M365.4,146.2l0.2-1.7c0-0.5,0.3-1,0.6-1.4c0.3-0.3,0.7-0.5,1.2-0.5
				c0.5,0,0.9,0.2,1.3,0.5c0.3,0.3,0.5,0.8,0.5,1.3c0,0.5-0.2,0.9-0.5,1.3h0c-0.3,0.3-0.8,0.5-1.3,0.5H365.4L365.4,146.2z
				 M356.1,146.2h-2c-0.5,0-0.9-0.2-1.3-0.5c-0.3-0.3-0.5-0.8-0.5-1.3s0.2-0.9,0.5-1.3v0c0.3-0.3,0.8-0.5,1.3-0.5
				c0.5,0,0.9,0.2,1.2,0.5c0.3,0.3,0.6,0.8,0.6,1.4L356.1,146.2z"/>
		</g>
		<g>
			<path class="st16" d="M355.4,130.3c0.5-0.2,0.7-0.7,0.5-1.2c-0.2-0.5-0.7-0.7-1.2-0.5c-0.4,0.2-0.7,0.3-1.1,0.5
				c-0.3,0.2-0.7,0.4-1,0.6c-0.4,0.3-0.5,0.9-0.3,1.3c0.3,0.4,0.9,0.5,1.3,0.3c0.3-0.2,0.6-0.4,0.9-0.5
				C354.8,130.6,355.1,130.4,355.4,130.3L355.4,130.3z M351.3,133.2c0.3-0.4,0.3-1-0.1-1.3c-0.4-0.3-1-0.3-1.3,0.1
				c-1,1.1-1.7,2.4-2.3,3.8c-0.5,1.4-0.8,2.8-0.8,4.3c0,0.5,0.4,0.9,0.9,0.9c0.5,0,0.9-0.4,0.9-0.9c0-1.3,0.2-2.5,0.7-3.7
				C349.8,135.3,350.5,134.2,351.3,133.2z"/>
		</g>
		<g>
			<path class="st4" d="M361.2,108.3L361.2,108.3c0.4,0,0.8,0.4,0.8,0.8v9.9c0,0.4-0.4,0.8-0.8,0.8l0,0c-0.4,0-0.8-0.4-0.8-0.8V109
				C360.4,108.6,360.7,108.3,361.2,108.3L361.2,108.3z M332,159.7L332,159.7c0.2,0.4,0.7,0.5,1.1,0.3l8.8-4.6
				c0.4-0.2,0.5-0.7,0.3-1.1h0c-0.2-0.4-0.7-0.5-1.1-0.3l-8.8,4.6C331.9,158.9,331.8,159.4,332,159.7L332,159.7z M326.6,143.2
				L326.6,143.2c0,0.4,0.4,0.8,0.8,0.7l9.9-0.7c0.4,0,0.8-0.4,0.7-0.8l0,0c0-0.4-0.4-0.8-0.8-0.7l-9.9,0.7
				C326.9,142.4,326.6,142.8,326.6,143.2L326.6,143.2z M329.8,126.5L329.8,126.5c-0.2,0.4,0.1,0.9,0.5,1l9.3,3.4
				c0.4,0.2,0.9-0.1,1-0.5l0,0c0.1-0.4-0.1-0.9-0.5-1l-9.3-3.4C330.4,125.9,330,126.1,329.8,126.5L329.8,126.5z M342,113.2
				L342,113.2c-0.3,0.3-0.4,0.8-0.2,1.1l5.9,7.9c0.3,0.3,0.8,0.4,1.1,0.2l0,0c0.3-0.3,0.4-0.8,0.2-1.1l-5.9-7.9
				C342.8,113,342.3,112.9,342,113.2L342,113.2z M390.3,159.7L390.3,159.7c-0.2,0.4-0.7,0.5-1.1,0.3l-8.8-4.6
				c-0.4-0.2-0.5-0.7-0.3-1.1l0,0c0.2-0.4,0.7-0.5,1.1-0.3l8.8,4.6C390.4,158.9,390.5,159.4,390.3,159.7L390.3,159.7z M395.7,143.2
				L395.7,143.2c0,0.4-0.4,0.8-0.8,0.7l-9.9-0.7c-0.4,0-0.8-0.4-0.7-0.8l0,0c0-0.4,0.4-0.8,0.8-0.7l9.9,0.7
				C395.4,142.4,395.7,142.8,395.7,143.2L395.7,143.2z M392.5,126.5L392.5,126.5c0.2,0.4-0.1,0.9-0.5,1l-9.3,3.4
				c-0.4,0.2-0.9-0.1-1-0.5l0,0c-0.2-0.4,0.1-0.9,0.5-1l9.3-3.4C391.9,125.9,392.3,126.1,392.5,126.5L392.5,126.5z M380.3,113.2
				L380.3,113.2c0.3,0.3,0.4,0.8,0.2,1.1l-5.9,7.9c-0.3,0.3-0.8,0.4-1.1,0.2l0,0c-0.3-0.3-0.4-0.8-0.2-1.1l5.9-7.9
				C379.5,113,380,112.9,380.3,113.2z"/>
		</g>
	</g>
</g>
</svg>
