<?xml version="1.0" encoding="utf-8"?>
<!-- Generator: Adobe Illustrator 27.0.0, SVG Export Plug-In . SVG Version: 6.00 Build 0)  -->
<svg version="1.1" id="Layer_1" xmlns="http://www.w3.org/2000/svg" xmlns:xlink="http://www.w3.org/1999/xlink" x="0px" y="0px"
	 viewBox="0 0 452 331" style="enable-background:new 0 0 452 331;" xml:space="preserve">
<style type="text/css">
	.st0{fill:url(#SVGID_1_);}
	.st1{fill:url(#SVGID_00000127744322996288506940000000617844770585596039_);}
	.st2{fill:url(#SVGID_00000013173619020156146600000001553054539920749500_);}
	.st3{fill:#7280E9;}
	.st4{fill:#FFFFFF;}
	.st5{fill:url(#SVGID_00000077293374712703597870000010010939492851249553_);}
	.st6{fill:url(#SVGID_00000025438645273231889660000007676301801093946271_);}
	.st7{fill:url(#SVGID_00000004509021770705930950000008707172796268661656_);}
	.st8{fill:#FF4129;}
	.st9{fill:#B2C7FF;}
	.st10{fill:url(#SVGID_00000169545942724390670590000008042075297635160754_);}
	.st11{fill:#909EFF;}
	.st12{fill:url(#SVGID_00000096755328018121279320000016264909617083765912_);}
	.st13{fill:url(#SVGID_00000176764885302918487720000016063514814966763906_);}
	.st14{fill:url(#SVGID_00000172434445210333639790000016205446620734783419_);}
	.st15{fill:url(#SVGID_00000047019956785041958190000008692730357111592628_);}
	.st16{fill:url(#SVGID_00000019655719960797949870000005923137267648119442_);}
	.st17{fill:url(#SVGID_00000170987349474970426480000004606304649742310830_);}
	.st18{fill:url(#SVGID_00000084504816709477476500000007471785335713507773_);}
	.st19{fill:url(#SVGID_00000042001137030012273350000017484124241671696560_);}
	.st20{fill:#FFDAD9;}
	.st21{fill:#7A8AEE;}
	.st22{fill:#373A50;}
	.st23{fill:#111228;}
	.st24{fill:#FECDCB;}
	.st25{fill:#51D1FE;}
	.st26{fill:#3BBFE2;}
	.st27{fill:#FADF68;}
	.st28{fill:#EAC250;}
	.st29{fill:#EBF2FF;}
	.st30{fill:url(#SVGID_00000110470776087739051180000012368501159238494338_);}
</style>
<linearGradient id="SVGID_1_" gradientUnits="userSpaceOnUse" x1="212.3381" y1="336.2611" x2="234.6641" y2="114.1343" gradientTransform="matrix(1 0 0 -1 0 333.0084)">
	<stop  offset="0" style="stop-color:#CEDCF9"/>
	<stop  offset="1" style="stop-color:#C3D2FF"/>
</linearGradient>
<path class="st0" d="M407.7,104.7c-7.7,27.5-15.3,55-23,82.5c-3.8,13.7-7.9,27.9-16.3,37.8c-11.2,13.2-27.6,16-42.8,16.9
	c-22.1,1.4-236.4,2.7-247.7,0c-13.7-3.3-34.1-15.1-38.6-34.3c-2.8-11.6,2-24.4,9.4-31.9c7.5-7.5,17.2-10.5,26.8-11.7
	c8.5-1.1,17.3-1.1,25.2-5.3c7.9-4.1,14.8-14,13.6-24.7c-0.9-7.9-5.8-14-8.6-21.1c-6.1-15.4-2-34.2,4.7-49.2
	c12.2-27.5,33.1-48.8,57-58.2c23.9-9.3,50.6-6.7,73.1,7.3c11,6.8,21,16.3,32.8,20.8c16.3,6.3,33.8,2.4,50.4-2.5
	c16.6-4.9,33.4-10.9,50.3-8.8c16.9,2.2,34.4,14.8,38.9,35.5C416.2,73.2,411.9,89.6,407.7,104.7z"/>
<linearGradient id="SVGID_00000170967709001788522010000001627323409989028774_" gradientUnits="userSpaceOnUse" x1="224.9645" y1="13.8122" x2="224.2915" y2="100.0632" gradientTransform="matrix(1 0 0 -1 0 333.0084)">
	<stop  offset="0" style="stop-color:#CEDCF9"/>
	<stop  offset="1" style="stop-color:#C3D2FF"/>
</linearGradient>
<path style="fill:url(#SVGID_00000170967709001788522010000001627323409989028774_);" d="M411.9,312.1
	c-14.1,35.8-161.4,10.4-178.8,5c0,0,0,0-0.1,0c-3.9-1.2-7.9-1.4-11.9-0.5c-24.1,5.6-52.5,9.5-79.3,9.5c-64.7,0-95.8-22.6-95.8-37
	c0-4.5,13.6-2.8,13.8-12.4c0.3-11-19.6-13-22.7-20.9c-5.2-13.6,82.6-13.2,82.6-13.2h163.7c0,0,119.1-3.5,126.6,11.9
	c7.5,15.4-58.2,22-58.2,22S418.4,295.5,411.9,312.1z"/>
<linearGradient id="SVGID_00000181766340079438621470000018067874174323878035_" gradientUnits="userSpaceOnUse" x1="76.5383" y1="170.6107" x2="62.6647" y2="170.6107" gradientTransform="matrix(1 0 0 -1 0 333.0084)">
	<stop  offset="0" style="stop-color:#D1DEFF"/>
	<stop  offset="1" style="stop-color:#B2C7FF"/>
</linearGradient>
<path style="fill:url(#SVGID_00000181766340079438621470000018067874174323878035_);" d="M62.7,90.3v144.1c0,4.5,3.7,8.2,8.2,8.2
	h5.6V82.1h-5.7c-4.3,0-7.8,3.2-8.2,7.4C62.7,89.8,62.7,90.1,62.7,90.3z"/>
<path class="st3" d="M254.8,122.1h-2.9v-0.7h2.9V122.1z M248.9,122.1h-2.9v-0.7h2.9V122.1z M243,122.1H240v-0.7h2.9V122.1z
	 M237.1,122.1h-2.9v-0.7h2.9V122.1z M231.2,122.1h-2.9v-0.7h2.9V122.1z M225.3,122.1h-2.9v-0.7h2.9V122.1z M219.4,122.1h-2.9v-0.7
	h2.9V122.1z M255.2,118.8h-0.7v-2.9h0.7V118.8z M255.2,113h-0.7V110h0.7V113z M255.2,107.1h-0.7v-2.9h0.7V107.1z M255.2,101.2h-0.7
	v-2.9h0.7V101.2z M255.2,95.3h-0.7v-2.9h0.7V95.3z M255.2,89.4h-0.7v-2.9h0.7V89.4z M255.2,83.5h-0.7v-2.9h0.7V83.5z M255.2,77.6
	h-0.7v-2.9h0.7V77.6z M255.2,71.7h-0.7v-2.9h0.7V71.7z M255.2,65.8h-0.7v-2.9h0.7V65.8z"/>
<path class="st4" d="M66.2,90.4v144.1c0,4.5,3.7,8.2,8.2,8.2h151.6c4.5,0,8.2-3.7,8.2-8.2V90.4c0-4.5-3.7-8.2-8.2-8.2H74.4
	C69.8,82.1,66.2,85.8,66.2,90.4z"/>
<linearGradient id="SVGID_00000031202387519538555250000007907334982376632471_" gradientUnits="userSpaceOnUse" x1="234.174" y1="242.5487" x2="66.1495" y2="242.5487" gradientTransform="matrix(1 0 0 -1 0 333.0084)">
	<stop  offset="0" style="stop-color:#D1DEFF"/>
	<stop  offset="1" style="stop-color:#B2C7FF"/>
</linearGradient>
<path style="fill:url(#SVGID_00000031202387519538555250000007907334982376632471_);" d="M66.1,90.3v8.4h168v-8.4
	c0-4.5-3.7-8.2-8.2-8.2H74.4C69.8,82.1,66.1,85.8,66.1,90.3z"/>
<path class="st4" d="M87.1,90.9c0,1.4,1.2,2.6,2.6,2.6c1.4,0,2.6-1.2,2.6-2.6c0-1.4-1.2-2.6-2.6-2.6C88.3,88.2,87.1,89.4,87.1,90.9z
	"/>
<path class="st4" d="M80,90.9c0,1.4,1.2,2.6,2.6,2.6c1.4,0,2.6-1.2,2.6-2.6c0-1.4-1.2-2.6-2.6-2.6C81.2,88.2,80,89.4,80,90.9z"/>
<path class="st4" d="M72.9,90.9c0,1.4,1.2,2.6,2.6,2.6c1.4,0,2.6-1.2,2.6-2.6c0-1.4-1.2-2.6-2.6-2.6C74.1,88.2,72.9,89.4,72.9,90.9z
	"/>
<linearGradient id="SVGID_00000108291825403691468260000013872056993479393928_" gradientUnits="userSpaceOnUse" x1="175.1237" y1="319.8886" x2="184.8067" y2="306.0389" gradientTransform="matrix(1 0 0 -1 0 333.0084)">
	<stop  offset="0" style="stop-color:#909EFF"/>
	<stop  offset="1" style="stop-color:#6977E3"/>
</linearGradient>
<path style="fill:url(#SVGID_00000108291825403691468260000013872056993479393928_);" d="M223.6,0c-13.4,0-24.8,8.4-29.3,20.2
	c-0.1,0-0.3,0-0.4,0c-10.3,0-18.8,7.5-20.4,17.4c-0.1,0-0.2,0-0.3,0c-9,0-16.3,7.3-16.3,16.3c0,9,7.3,16.3,16.3,16.3h-7.4
	c-9,0-16.3-7.3-16.3-16.3c0-9,7.3-16.3,16.3-16.3c0.1,0,0.2,0,0.3,0c1.6-9.9,10.1-17.4,20.4-17.4c0.1,0,0.3,0,0.4,0
	C191.4,8.4,202.8,0,216.2,0H223.6z"/>
<linearGradient id="SVGID_00000085223917161450884580000005442822792671449021_" gradientUnits="userSpaceOnUse" x1="214.107" y1="311.1002" x2="214.107" y2="263.5422" gradientTransform="matrix(1 0 0 -1 0 333.0084)">
	<stop  offset="0" style="stop-color:#909EFF"/>
	<stop  offset="1" style="stop-color:#6977E3"/>
</linearGradient>
<path style="fill:url(#SVGID_00000085223917161450884580000005442822792671449021_);" d="M275.6,45.4c0,13.6-11.1,24.7-24.7,24.7
	h-82c-9,0-16.3-7.3-16.3-16.3c0-9,7.3-16.3,16.3-16.3c0.1,0,0.2,0,0.3,0c1.6-9.9,10.1-17.4,20.4-17.4c0.1,0,0.3,0,0.4,0
	C194.5,8.4,205.9,0,219.3,0c13.6,0,25.2,8.7,29.5,20.8c0.7-0.1,1.4-0.1,2.1-0.1C264.6,20.7,275.6,31.7,275.6,45.4z"/>
<path class="st4" d="M192,54.7v-7c0-1.3-0.3-2.2-3.1-2.7c-0.8-0.1-1.1-0.6-1.1-1.3c0-0.7,0.4-1.2,1.1-1.3c0.9-0.2,1.6-0.4,2.1-0.6
	c0.7-0.4,1-0.9,1-2v-7c0-3,1.7-4,4.6-4h0.4c0.6,0,1.2,0.5,1.2,1.2c0,0.6-0.5,1.2-1.2,1.2h-0.5c-1.2,0-2,0.2-2,1.4v7.4
	c0,1.9-1,3.2-3,3.9c2,0.7,3,2,3,3.9v7.4c0,1.2,0.8,1.4,2,1.4h0.5c0.6,0,1.2,0.5,1.2,1.2c0,0.6-0.5,1.2-1.2,1.2h-0.4
	C193.6,58.7,192,57.7,192,54.7z"/>
<path class="st4" d="M240.4,58.7H240c-0.6,0-1.2-0.5-1.2-1.2c0-0.6,0.5-1.2,1.2-1.2h0.5c1.2,0,2-0.2,2-1.4v-7.4c0-1.9,1-3.2,3-3.9
	c-2-0.7-3-2-3-3.9v-7.4c0-1.2-0.8-1.4-2-1.4H240c-0.6,0-1.2-0.5-1.2-1.2c0-0.6,0.5-1.2,1.2-1.2h0.4c3,0,4.7,1,4.7,4v7
	c0,1.8,1.1,2.4,3.1,2.7c0.8,0.1,1.1,0.6,1.1,1.3c0,0.7-0.4,1.2-1.1,1.3c-2,0.3-3.1,0.9-3.1,2.7v7C245,57.7,243.3,58.7,240.4,58.7z"
	/>
<path class="st4" d="M201.5,51.2c-0.3-0.3-0.4-0.7-0.2-1.2l5.7-13.4c0.2-0.5,0.7-0.9,1.3-0.9h0.2c0.6,0,1,0.4,1.3,0.9l5.7,13.4
	c0.3,0.8-0.2,1.4-0.9,1.4c-0.4,0-0.8-0.2-1-0.6l-1.4-3.5h-7.5l-1.4,3.5C202.9,51.6,202,51.7,201.5,51.2z M205.4,45.6h6l-3-7.2
	L205.4,45.6z"/>
<path class="st4" d="M218.8,50.5V36.9c0-0.5,0.4-1,1-1h5.1c4,0,5.9,2.1,5.9,4.9c0,2.7-1.9,4.9-5.9,4.9h-4v4.7c0,0.6-0.5,1-1,1
	C219.3,51.5,218.8,51.1,218.8,50.5z M224.7,43.8c2.3,0,4.1-0.8,4.1-3c0-2.3-1.8-3-4.1-3h-3.8v6H224.7z"/>
<path class="st4" d="M233.7,50.5V36.8c0-0.6,0.4-1,1-1c0.6,0,1,0.5,1,1v13.7c0,0.6-0.5,1-1,1C234.2,51.5,233.7,51.1,233.7,50.5z"/>
<path class="st8" d="M254.7,124.5c2.5,0,4.5-2,4.5-4.5c0-2.5-2-4.5-4.5-4.5c-2.5,0-4.5,2-4.5,4.5
	C250.2,122.5,252.2,124.5,254.7,124.5z"/>
<path class="st8" d="M254.7,90.8c1.7,0,3-1.4,3-3c0-1.7-1.4-3-3-3c-1.7,0-3,1.4-3,3C251.7,89.5,253.1,90.8,254.7,90.8z"/>
<path class="st9" d="M164.3,111.3h-1.8c-1.5,0-2.7,1.2-2.7,2.7v76.5c0,1.5,1.2,2.7,2.7,2.7h1.8V111.3z"/>
<linearGradient id="SVGID_00000069395665169620387080000010889220784432156077_" gradientUnits="userSpaceOnUse" x1="161.779" y1="180.7587" x2="224.45" y2="180.7587" gradientTransform="matrix(1 0 0 -1 0 333.0084)">
	<stop  offset="0" style="stop-color:#EBF2FF"/>
	<stop  offset="1" style="stop-color:#E1E8FF"/>
</linearGradient>
<path style="fill:url(#SVGID_00000069395665169620387080000010889220784432156077_);" d="M224.4,114v76.5c0,1.5-1.2,2.7-2.7,2.7
	h-57.3c-1.5,0-2.7-1.2-2.7-2.7V114c0-1.5,1.2-2.7,2.7-2.7h57.3C223.3,111.3,224.4,112.5,224.4,114z"/>
<path class="st11" d="M203.8,126.5h-10.1c-0.3,0-0.6-0.2-0.6-0.6s0.2-0.6,0.6-0.6h10.1c0.3,0,0.6,0.2,0.6,0.6
	S204.1,126.5,203.8,126.5z"/>
<path class="st9" d="M193.7,126.5h-14.9c-0.3,0-0.6-0.2-0.6-0.6s0.2-0.6,0.6-0.6h14.9c0.3,0,0.6,0.2,0.6,0.6S194,126.5,193.7,126.5z
	"/>
<path class="st11" d="M203.8,131.3h-10.1c-0.3,0-0.6-0.2-0.6-0.6c0-0.3,0.2-0.6,0.6-0.6h10.1c0.3,0,0.6,0.2,0.6,0.6
	C204.4,131,204.1,131.3,203.8,131.3z"/>
<path class="st9" d="M193.7,131.3h-9.3c-0.3,0-0.6-0.2-0.6-0.6c0-0.3,0.2-0.6,0.6-0.6h9.3c0.3,0,0.6,0.2,0.6,0.6
	C194.3,131,194,131.3,193.7,131.3z"/>
<path class="st9" d="M203.3,136H194c-0.3,0-0.6-0.2-0.6-0.6c0-0.3,0.2-0.6,0.6-0.6h9.3c0.3,0,0.6,0.2,0.6,0.6
	C203.8,135.8,203.6,136,203.3,136z"/>
<path class="st11" d="M194,136h-15.2c-0.3,0-0.6-0.2-0.6-0.6c0-0.3,0.2-0.6,0.6-0.6H194c0.3,0,0.6,0.2,0.6,0.6
	C194.5,135.8,194.3,136,194,136z"/>
<path class="st11" d="M203.3,140.8h-18.1c-0.3,0-0.6-0.2-0.6-0.6c0-0.3,0.2-0.6,0.6-0.6h18.1c0.3,0,0.6,0.2,0.6,0.6
	C203.8,140.6,203.6,140.8,203.3,140.8z"/>
<path class="st11" d="M203.3,145.6h-9.9c-0.3,0-0.6-0.2-0.6-0.6c0-0.3,0.2-0.6,0.6-0.6h9.9c0.3,0,0.6,0.2,0.6,0.6
	C203.8,145.4,203.6,145.6,203.3,145.6z"/>
<path class="st9" d="M193.4,145.6h-9.7c-0.3,0-0.6-0.2-0.6-0.6c0-0.3,0.2-0.6,0.6-0.6h9.7c0.3,0,0.6,0.2,0.6,0.6
	C194,145.4,193.7,145.6,193.4,145.6z"/>
<path class="st9" d="M209.8,150.4h-16.4c-0.3,0-0.6-0.2-0.6-0.6c0-0.3,0.2-0.6,0.6-0.6h16.4c0.3,0,0.6,0.2,0.6,0.6
	C210.3,150.2,210.1,150.4,209.8,150.4z"/>
<path class="st11" d="M186.9,150.4h-8.1c-0.3,0-0.6-0.2-0.6-0.6c0-0.3,0.2-0.6,0.6-0.6h8.1c0.3,0,0.6,0.2,0.6,0.6
	C187.5,150.2,187.3,150.4,186.9,150.4z"/>
<path class="st11" d="M203.3,155.2h-10.2c-0.3,0-0.6-0.2-0.6-0.6c0-0.3,0.2-0.6,0.6-0.6h10.2c0.3,0,0.6,0.2,0.6,0.6
	C203.8,155,203.6,155.2,203.3,155.2z"/>
<path class="st9" d="M193.1,155.2h-14.3c-0.3,0-0.6-0.2-0.6-0.6c0-0.3,0.2-0.6,0.6-0.6h14.3c0.3,0,0.6,0.2,0.6,0.6
	C193.6,155,193.4,155.2,193.1,155.2z"/>
<path class="st11" d="M209.8,160h-10.4c-0.3,0-0.6-0.2-0.6-0.6c0-0.3,0.2-0.6,0.6-0.6h10.4c0.3,0,0.6,0.2,0.6,0.6
	C210.3,159.7,210.1,160,209.8,160z"/>
<path class="st9" d="M188.9,160h-10.1c-0.3,0-0.6-0.2-0.6-0.6c0-0.3,0.2-0.6,0.6-0.6h10.1c0.3,0,0.6,0.2,0.6,0.6
	C189.5,159.7,189.2,160,188.9,160z"/>
<path class="st9" d="M209.8,164.8h-10.2c-0.3,0-0.6-0.2-0.6-0.6c0-0.3,0.2-0.6,0.6-0.6h10.2c0.3,0,0.6,0.2,0.6,0.6
	C210.3,164.5,210.1,164.8,209.8,164.8z"/>
<path class="st11" d="M188.9,164.8h-10.1c-0.3,0-0.6-0.2-0.6-0.6c0-0.3,0.2-0.6,0.6-0.6h10.1c0.3,0,0.6,0.2,0.6,0.6
	C189.5,164.5,189.2,164.8,188.9,164.8z"/>
<path class="st11" d="M209.8,169.6h-16.7c-0.3,0-0.6-0.2-0.6-0.6s0.2-0.6,0.6-0.6h16.7c0.3,0,0.6,0.2,0.6,0.6
	S210.1,169.6,209.8,169.6z"/>
<path class="st9" d="M188,169.6h-9.2c-0.3,0-0.6-0.2-0.6-0.6s0.2-0.6,0.6-0.6h9.2c0.3,0,0.6,0.2,0.6,0.6S188.3,169.6,188,169.6z"/>
<path class="st9" d="M204.3,174.4h-10.9c-0.3,0-0.6-0.2-0.6-0.6c0-0.3,0.2-0.6,0.6-0.6h10.9c0.3,0,0.6,0.2,0.6,0.6
	C204.8,174.1,204.6,174.4,204.3,174.4z"/>
<path class="st9" d="M193.4,174.4h-14.6c-0.3,0-0.6-0.2-0.6-0.6c0-0.3,0.2-0.6,0.6-0.6h14.6c0.3,0,0.6,0.2,0.6,0.6
	C194,174.1,193.7,174.4,193.4,174.4z"/>
<path class="st11" d="M203.3,179.2h-15.6c-0.3,0-0.6-0.2-0.6-0.6c0-0.3,0.2-0.6,0.6-0.6h15.6c0.3,0,0.6,0.2,0.6,0.6
	C203.8,178.9,203.6,179.2,203.3,179.2z"/>
<path class="st9" d="M211.8,182h-0.4c-0.6,0-1.2-0.5-1.2-1.2c0-0.6,0.5-1.2,1.2-1.2h0.5c1.2,0,2-0.2,2-1.4v-22.1c0-1.9,1-3.2,3-3.9
	c-2-0.7-3-2-3-3.9v-22.1c0-1.2-0.8-1.4-2-1.4h-0.5c-0.6,0-1.2-0.5-1.2-1.2c0-0.6,0.5-1.2,1.2-1.2h0.4c3,0,4.7,1,4.7,4v21.7
	c0,1.8,1.1,2.4,3.1,2.7c0.8,0.1,1.1,0.6,1.1,1.3c0,0.7-0.4,1.2-1.1,1.3c-2,0.3-3.1,0.9-3.1,2.7V178C216.5,181,214.8,182,211.8,182z"
	/>
<path class="st9" d="M169.8,178v-21.7c0-1.8-1.1-2.4-3.1-2.7c-0.8-0.1-1.1-0.6-1.1-1.3c0-0.7,0.4-1.2,1.1-1.3
	c2.7-0.5,3.1-1.4,3.1-2.7v-21.7c0-3,1.7-4,4.7-4h0.4c0.6,0,1.2,0.5,1.2,1.2c0,0.6-0.5,1.2-1.2,1.2h-0.5c-1.2,0-2,0.2-2,1.4v22.1
	c0,1.9-1,3.2-3,3.9c2,0.7,3,2,3,3.9v22.1c0,1.2,0.8,1.4,2,1.4h0.5c0.6,0,1.2,0.5,1.2,1.2c0,0.6-0.5,1.2-1.2,1.2h-0.4
	C171.4,182,169.8,181,169.8,178z"/>
<path class="st9" d="M83.2,111.3h-2.4c-2,0-3.6,1.6-3.6,3.6v41c0,2,1.6,3.6,3.6,3.6h2.4V111.3z"/>
<linearGradient id="SVGID_00000071540510179041670710000013727450430326074516_" gradientUnits="userSpaceOnUse" x1="113.7623" y1="221.6862" x2="113.7623" y2="173.5092" gradientTransform="matrix(1 0 0 -1 0 333.0084)">
	<stop  offset="0" style="stop-color:#EBF2FF"/>
	<stop  offset="0.6273" style="stop-color:#E7EEFF"/>
	<stop  offset="1" style="stop-color:#E1E8FF"/>
</linearGradient>
<path style="fill:url(#SVGID_00000071540510179041670710000013727450430326074516_);" d="M147.9,114.9v41c0,2-1.6,3.6-3.6,3.6h-61
	c-2,0-3.6-1.6-3.6-3.6v-41c0-2,1.6-3.6,3.6-3.6h61C146.3,111.3,147.9,112.9,147.9,114.9z"/>
<linearGradient id="SVGID_00000092448421375992562520000004766614732776923553_" gradientUnits="userSpaceOnUse" x1="110.278" y1="202.4337" x2="136.212" y2="202.4337" gradientTransform="matrix(1 0 0 -1 0 333.0084)">
	<stop  offset="0" style="stop-color:#909EFF"/>
	<stop  offset="1" style="stop-color:#6977E3"/>
</linearGradient>
<path style="fill:url(#SVGID_00000092448421375992562520000004766614732776923553_);" d="M132.4,139.7l2.3-3.1l-2.3-1.7
	c0.6-1.3,0.9-2.6,1-4l2.8-0.4l-0.6-3.8l-2.8,0.4c-0.5-1.3-1.2-2.5-2.1-3.5l1.7-2.2l-3.1-2.3l-1.7,2.2c-1.3-0.6-2.6-0.9-4-1l-0.4-2.8
	l-3.8,0.6l0.4,2.8c-1.3,0.5-2.5,1.2-3.5,2.1l-2.3-1.7l-2.3,3.1l2.3,1.7c-0.6,1.3-0.9,2.6-1,4l-2.8,0.4l0.6,3.8l2.8-0.4
	c0.5,1.3,1.2,2.5,2.1,3.5l-1.7,2.2l3.1,2.3l1.7-2.2c1.3,0.6,2.6,0.9,4,1l0.4,2.7l3.8-0.6l-0.4-2.8c1.3-0.5,2.5-1.2,3.5-2.1
	L132.4,139.7z M120.3,134.5c-2.2-1.6-2.6-4.7-1-6.9c1.6-2.2,4.7-2.7,6.9-1.1c2.2,1.6,2.6,4.7,1,6.9
	C125.6,135.7,122.5,136.1,120.3,134.5z"/>
<linearGradient id="SVGID_00000080929609662664177370000006218846900016220047_" gradientUnits="userSpaceOnUse" x1="91.3158" y1="190.3007" x2="112.317" y2="190.3007" gradientTransform="matrix(1 0 0 -1 0 333.0084)">
	<stop  offset="0" style="stop-color:#909EFF"/>
	<stop  offset="1" style="stop-color:#6977E3"/>
</linearGradient>
<path style="fill:url(#SVGID_00000080929609662664177370000006218846900016220047_);" d="M111.3,147.6l1-3l-2.2-0.7
	c0.2-1.1,0.1-2.3-0.2-3.4l2.1-1l-1.4-2.9l-2.1,1c-0.7-0.9-1.5-1.6-2.5-2.2l0.7-2.2l-3-1l-0.7,2.2c-1.1-0.2-2.3-0.1-3.4,0.2l-1-2.1
	l-2.9,1.4l1,2.1c-0.9,0.7-1.7,1.5-2.2,2.5l-2.2-0.7l-1,3l2.2,0.7c-0.2,1.1-0.1,2.3,0.2,3.4l-2.1,1l1.4,2.8l2.1-1
	c0.7,0.9,1.5,1.7,2.5,2.2l-0.7,2.2l3,1l0.7-2.2c1.2,0.2,2.3,0.1,3.4-0.2l1,2l2.9-1.4l-1-2.1c0.9-0.7,1.7-1.5,2.2-2.5L111.3,147.6z
	 M100.5,146.5c-2.1-0.7-3.2-3-2.5-5.1c0.7-2.1,3-3.3,5.1-2.5c2.1,0.7,3.2,3,2.5,5.1C104.9,146.1,102.6,147.2,100.5,146.5z"/>
<linearGradient id="SVGID_00000139253852035416304350000016814397485842538371_" gradientUnits="userSpaceOnUse" x1="89.3495" y1="159.7572" x2="89.3495" y2="147.8652" gradientTransform="matrix(1 0 0 -1 0 333.0084)">
	<stop  offset="0" style="stop-color:#FADF68"/>
	<stop  offset="1" style="stop-color:#EAC250"/>
</linearGradient>
<path style="fill:url(#SVGID_00000139253852035416304350000016814397485842538371_);" d="M100.3,171.2v16.2c0,1.6-1.3,2.9-2.9,2.9
	H81.3c-1.6,0-2.9-1.3-2.9-2.9v-16.2c0-1.6,1.3-2.9,2.9-2.9h16.2C99,168.3,100.3,169.6,100.3,171.2z"/>
<path class="st9" d="M126.1,171.2v16.2c0,1.6-1.3,2.9-2.9,2.9H107c-1.6,0-2.9-1.3-2.9-2.9v-16.2c0-1.6,1.3-2.9,2.9-2.9h16.2
	C124.8,168.3,126.1,169.6,126.1,171.2z"/>
<linearGradient id="SVGID_00000047035550348303255750000013756400692742494383_" gradientUnits="userSpaceOnUse" x1="140.8295" y1="164.7202" x2="140.8295" y2="142.7622" gradientTransform="matrix(1 0 0 -1 0 333.0084)">
	<stop  offset="0" style="stop-color:#EBF2FF"/>
	<stop  offset="0.6273" style="stop-color:#E7EEFF"/>
	<stop  offset="1" style="stop-color:#E1E8FF"/>
</linearGradient>
<path style="fill:url(#SVGID_00000047035550348303255750000013756400692742494383_);" d="M151.8,171.2v16.2c0,1.6-1.3,2.9-2.9,2.9
	h-16.2c-1.6,0-2.9-1.3-2.9-2.9v-16.2c0-1.6,1.3-2.9,2.9-2.9h16.2C150.5,168.3,151.8,169.6,151.8,171.2z"/>
<path class="st4" d="M93.2,180.1l-5.4,3.3c-0.6,0.4-1.4-0.1-1.4-0.8l0-6.5c0-0.7,0.8-1.2,1.4-0.8l5.4,3.3
	C93.8,178.8,93.8,179.7,93.2,180.1z"/>
<path class="st9" d="M146.5,180.1c0.1-0.8,0.1-1.6-0.1-2.3l1.4-0.7l-1-2l-1.4,0.7c-0.5-0.6-1.1-1.1-1.7-1.5l0.5-1.5l-2.1-0.7
	l-0.5,1.5c-0.8-0.1-1.6-0.1-2.3,0.2l-0.7-1.4l-2,1l0.7,1.4c-0.6,0.5-1.1,1.1-1.5,1.7l-1.5-0.5l-0.7,2.1l1.5,0.5
	c-0.1,0.8-0.1,1.6,0.2,2.3l-1.4,0.7l1,2l1.4-0.7c0.5,0.6,1.1,1.1,1.7,1.5l-0.5,1.5l2.1,0.7l0.5-1.5c0.8,0.1,1.6,0.1,2.3-0.1l0.7,1.4
	l2-1l-0.7-1.4c0.6-0.5,1.1-1.1,1.5-1.7l1.5,0.5l0.7-2.1L146.5,180.1z M143.5,180.2c-0.5,1.4-2.1,2.2-3.5,1.7
	c-1.4-0.5-2.2-2.1-1.7-3.5c0.5-1.4,2.1-2.2,3.5-1.7C143.2,177.1,143.9,178.7,143.5,180.2z"/>
<path class="st4" d="M121.5,179.3c0,3.5-2.9,6.4-6.4,6.4c-3.5,0-6.4-2.9-6.4-6.4c0-3.5,2.9-6.4,6.4-6.4v6.4H121.5z"/>
<path class="st9" d="M86.3,200.4h-5.6c-1.3,0-2.3,1.1-2.3,2.3v26.4c0,1.3,1,2.3,2.3,2.3h5.6V200.4z"/>
<linearGradient id="SVGID_00000047762248219771152680000007891935293776584592_" gradientUnits="userSpaceOnUse" x1="79.8628" y1="117.0322" x2="150.316" y2="117.0322" gradientTransform="matrix(1 0 0 -1 0 333.0084)">
	<stop  offset="0" style="stop-color:#EBF2FF"/>
	<stop  offset="1" style="stop-color:#E1E8FF"/>
</linearGradient>
<path style="fill:url(#SVGID_00000047762248219771152680000007891935293776584592_);" d="M150.3,201.1v29.8c0,0.4-0.3,0.7-0.7,0.7
	H82.2c-1.3,0-2.3-1-2.3-2.3v-26.4c0-1.3,1.1-2.3,2.3-2.3h67.5C150,200.4,150.3,200.7,150.3,201.1z"/>
<linearGradient id="SVGID_00000047021853286926187000000002588700703295540643_" gradientUnits="userSpaceOnUse" x1="92.9475" y1="121.1542" x2="92.9475" y2="115.2632" gradientTransform="matrix(1 0 0 -1 0 333.0084)">
	<stop  offset="0" style="stop-color:#F34B6D"/>
	<stop  offset="1" style="stop-color:#E24067"/>
</linearGradient>
<path style="fill:url(#SVGID_00000047021853286926187000000002588700703295540643_);" d="M92.9,224.3c4.5,0,8.1-3.7,8.1-8.3
	s-3.6-8.3-8.1-8.3c-4.5,0-8.1,3.7-8.1,8.3S88.5,224.3,92.9,224.3z"/>
<path class="st4" d="M92.9,214.8c0.9,0,1.6-0.7,1.6-1.6c0-0.9-0.7-1.6-1.6-1.6c-0.9,0-1.6,0.7-1.6,1.6
	C91.4,214.1,92.1,214.8,92.9,214.8z"/>
<path class="st4" d="M96.9,219.7c-0.1-2.1-1.8-3.8-3.9-3.8c-2.1,0-3.8,1.7-3.9,3.8H96.9z"/>
<path class="st9" d="M136.4,206.7h-31.2v6.2h31.2V206.7z"/>
<path class="st9" d="M146.1,216.1h-41v1.3h41V216.1z"/>
<path class="st9" d="M146.1,220h-41v1.3h41V220z"/>
<path class="st9" d="M114.9,223.9h-9.7v1.3h9.7V223.9z"/>
<path class="st9" d="M123.1,223.9h-4.5v1.3h4.5V223.9z"/>
<path class="st9" d="M130.8,223.9h-6.2v1.3h6.2V223.9z"/>
<path class="st9" d="M221.7,203.3v25.4c0,0.6-0.5,1.1-1.1,1.1h-59.7c-0.6,0-1.1-0.5-1.1-1.1v-25.4c0-0.6,0.5-1.1,1.1-1.1h59.7
	C221.3,202.2,221.7,202.7,221.7,203.3z"/>
<linearGradient id="SVGID_00000047753702174919260100000008004216649424533389_" gradientUnits="userSpaceOnUse" x1="161.564" y1="117.0317" x2="223.457" y2="117.0317" gradientTransform="matrix(1 0 0 -1 0 333.0084)">
	<stop  offset="0" style="stop-color:#EBF2FF"/>
	<stop  offset="1" style="stop-color:#E1E8FF"/>
</linearGradient>
<path style="fill:url(#SVGID_00000047753702174919260100000008004216649424533389_);" d="M222.2,229.8h-59.4c-0.7,0-1.2-0.5-1.2-1.2
	v-25.2c0-0.7,0.6-1.2,1.2-1.2h59.4c0.7,0,1.2,0.5,1.2,1.2v25.2C223.5,229.2,222.9,229.8,222.2,229.8z"/>
<path class="st9" d="M169.8,223.1v-4.6c0-1.2-0.7-1.5-2-1.7c-0.5-0.1-0.7-0.4-0.7-0.9c0-0.5,0.2-0.8,0.7-0.9c1.3-0.2,2-0.6,2-1.7
	v-4.6c0-1.9,1.1-2.6,3-2.6h0.3c0.4,0,0.8,0.3,0.8,0.8c0,0.4-0.3,0.8-0.8,0.8h-0.3c-0.8,0-1.3,0.1-1.3,0.9v4.8c0,1.2-0.6,2.1-1.9,2.5
	c1.3,0.5,1.9,1.3,1.9,2.5v4.8c0,0.8,0.5,0.9,1.3,0.9h0.3c0.4,0,0.8,0.3,0.8,0.8c0,0.4-0.4,0.8-0.8,0.8h-0.3
	C170.9,225.7,169.8,225.1,169.8,223.1z"/>
<path class="st9" d="M213.7,225.7h-0.3c-0.4,0-0.8-0.3-0.8-0.8s0.4-0.8,0.8-0.8h0.3c0.8,0,1.3-0.1,1.3-0.9v-4.8
	c0-1.2,0.6-2.1,1.9-2.5c-1.3-0.5-1.9-1.3-1.9-2.5v-4.8c0-0.8-0.5-0.9-1.3-0.9h-0.3c-0.4,0-0.8-0.3-0.8-0.8c0-0.4,0.4-0.8,0.8-0.8
	h0.3c1.9,0,3,0.6,3,2.6v4.6c0,0.8,0.2,1.5,2,1.7c0.5,0.1,0.7,0.4,0.7,0.9c0,0.5-0.2,0.8-0.7,0.9c-1.3,0.2-2,0.6-2,1.7v4.6
	C216.7,225.1,215.6,225.7,213.7,225.7z"/>
<path class="st9" d="M178.3,219.7v-7.4c0-0.3,0.2-0.5,0.5-0.5c0.3,0,0.5,0.2,0.5,0.5v3.2h4.5v-3.2c0-0.3,0.2-0.5,0.5-0.5
	c0.3,0,0.5,0.2,0.5,0.5v7.4c0,0.3-0.3,0.5-0.5,0.5c-0.3,0-0.5-0.2-0.5-0.5v-3.2h-4.5v3.2c0,0.3-0.3,0.5-0.5,0.5
	C178.6,220.2,178.3,220,178.3,219.7z"/>
<path class="st9" d="M189.3,219.7v-6.8h-2.4c-0.3,0-0.5-0.2-0.5-0.5c0-0.3,0.2-0.5,0.5-0.5h5.9c0.3,0,0.5,0.2,0.5,0.5
	c0,0.3-0.2,0.5-0.5,0.5h-2.4v6.8c0,0.3-0.3,0.5-0.5,0.5C189.5,220.2,189.3,220,189.3,219.7z"/>
<path class="st9" d="M194.6,219.7v-7.1c0-0.4,0.3-0.8,0.8-0.8h0.4c0.3,0,0.6,0.2,0.7,0.5l2.7,6.7l2.7-6.7c0.1-0.3,0.4-0.5,0.7-0.5
	h0.4c0.4,0,0.8,0.4,0.8,0.8v7.1c0,0.3-0.2,0.5-0.5,0.5c-0.3,0-0.5-0.2-0.5-0.5v-6.8l-2.8,6.8c-0.1,0.3-0.4,0.5-0.8,0.5
	c-0.3,0-0.6-0.2-0.8-0.5l-2.8-6.8v6.8c0,0.3-0.3,0.5-0.5,0.5C194.8,220.2,194.6,220,194.6,219.7z"/>
<path class="st9" d="M206.1,219.4v-7.1c0-0.3,0.2-0.5,0.5-0.5c0.3,0,0.5,0.2,0.5,0.5v6.7h3.9c0.3,0,0.5,0.2,0.5,0.5
	c0,0.3-0.2,0.5-0.5,0.5h-4.2C206.4,220.1,206.1,219.8,206.1,219.4z"/>
<path class="st20" d="M353.6,196.4c0,0-0.5,0.8-1.3,2.1c-3.1,5-11.1,17.1-16.3,17.3c-3.7,0.1-8.5-4-13-8.8
	c-6.3-6.8-13.4-14.8-13.4-14.8l2.8-7.9l20.2,14.7l4.4-5.6l7.5,1.4l6.5,1.2L353.6,196.4z"/>
<path class="st20" d="M312.5,184.4l-2.8,7.9c0,0-13-2-12.7-9.6c0.3-7.6,11.8-0.2,11.8-0.2s-0.4-2,1.2-3
	C311.6,178.4,312.5,184.4,312.5,184.4z"/>
<path class="st11" d="M369.7,251.4h-6.1v46.3h6.1V251.4z"/>
<path class="st21" d="M371.4,292.8h-9.5v7h9.5V292.8z"/>
<path class="st11" d="M391.2,302.4L391.2,302.4c0,1-0.8,1.7-1.7,1.7h-45.7c-0.9,0-1.7-0.8-1.7-1.7c0-0.7,0.3-1.3,0.8-1.8
	c0.5-0.5,1.1-0.8,1.8-0.8h44C390.1,299.8,391.2,301,391.2,302.4z"/>
<path class="st21" d="M390.4,307.1c0,1.7-1.4,3-3,3c-1.7,0-3-1.4-3-3c0-1.7,1.4-3,3-3S390.4,305.5,390.4,307.1z"/>
<path class="st21" d="M348.9,307.1c0,1.7-1.4,3-3,3s-3-1.4-3-3c0-1.7,1.4-3,3-3C347.6,304.1,348.9,305.5,348.9,307.1z"/>
<path class="st20" d="M303.5,292.4l0.2,8.5c0,0,0,0.1,0.1,0.1l9.2-0.1l0.5-4.4l0.4-3.8L303.5,292.4z"/>
<path class="st22" d="M292.6,309.6c0,0.1,0,0.1,0,0.2c0,0.2,0.1,0.3,0.3,0.3c2.1,0,13.7,0.2,19.6,0c1.4,0,2.5-1.4,2.2-2.8l-1.6-6.7
	l-9.5-0.4c0,0,0,0,0,0l-7.7,5.2C294,306.4,292.6,307.7,292.6,309.6z"/>
<path class="st22" d="M352.6,223.3l-15.4,22.3l-1,1.5l-21.3,7.1v42.9l-2.6,0l-9.6-0.1c0,0-8.6-46.7-4.9-56.5
	c4.2-11,44.2-18.2,44.2-18.2L352.6,223.3z"/>
<path class="st23" d="M337.2,245.6l-1,1.5l-21.3,7.1v42.9l-2.6,0c-0.6-3.6-0.8-7.3-1.1-11c-0.5-7-1-13.9-1.5-20.9
	c-0.3-4.5-0.6-9,0.6-13.3c1.4-5,4.9-9.2,8.9-12.5c2.7-2.2,9.2-7.9,12.9-5.9C336,235.4,336.9,241.2,337.2,245.6z"/>
<path class="st24" d="M352.3,198.5c-3.1,5-11.1,17.1-16.3,17.3c-3.7,0.1-8.5-3.9-13-8.8c1.7,0.2,3.4,0.2,5.1,0
	c4.4-0.4,8.7-1.9,12-4.9c1-0.9,1.9-2,2.6-3.1c0.8-1.3,1.5-2.8,1.8-4.3c0.2-0.8,0.3-1.6,0.3-2.4c0-0.4-0.2-1.2,0.1-1.5
	c0.4-0.4,1,0.2,1.4,0.4c1.1,0.6,2,1.4,2.8,2.3c0.7,0.7,1.3,1.5,1.8,2.4C351.6,196.8,352,197.6,352.3,198.5z"/>
<path class="st25" d="M347.4,172.5l-0.4,11l-0.7,18.3l-6.2-4.5l-4.7-3.4C339.7,185.5,344.2,175.5,347.4,172.5z"/>
<path class="st26" d="M347,183.5l-0.7,18.3l-6.2-4.5c0.3-0.2,0.5-0.5,0.8-0.8c2.1-2.3,2.8-5.5,3.1-8.6c0-1.1-0.3-6,0.9-6.1
	C345.6,181.7,346.4,182.5,347,183.5z"/>
<path class="st20" d="M333.3,289.5l4.2,7.5c0,0,0.1,0,0.1,0l8.1-4.4l-1.7-4.1l-1.4-3.6L333.3,289.5z"/>
<path class="st22" d="M331.7,309.8c0,0.1,0.1,0.1,0.1,0.2c0.1,0.1,0.3,0.2,0.4,0.1c1.9-1,12.2-6.2,17.4-9.2c1.2-0.7,1.6-2.4,0.7-3.5
	l-4.5-5.2l-8.6,4.1c0,0,0,0,0,0l-4.4,8.2C331.4,306.4,330.8,308.1,331.7,309.8z"/>
<path class="st22" d="M386.7,235.2l-1.6,6.6c-0.5,1.8-1.9,3.2-3.8,3.6l-44.8,8.7l9.1,33.4c0.6,1.2-11.7,7.2-12.3,6
	c0,0-22.6-34.6-17.7-49.1c3.4-10.1,34.5-22,34.5-22L386.7,235.2z"/>
<path class="st25" d="M387.8,236.2c-1,1.2-37.1-6.6-45.9-14c0,0,0.6-3.2,1.3-7.1c0.3-1.9,0.7-3.9,1-5.8c0.5-3.1,0.8-6,0.9-7.7
	c0.1-7.3-2.6-23.7,2.4-29.1c6-6.4,29.3-5.9,34,1.5C387.9,184.4,387.8,236.2,387.8,236.2z"/>
<path class="st26" d="M370.5,202.1c-3,7.4-11,11.8-18.9,12.9c-2.8,0.4-5.6,0.4-8.4,0.2c0.3-1.9,0.7-3.9,1-5.8
	c4.2-2.2,8-5.4,10.6-9.4c2-3,3.4-6.3,4.8-9.6c1.8-4,4.5-11,9.3-5.4C372.5,189.3,372.5,197.1,370.5,202.1z"/>
<path class="st27" d="M391.6,204.4c-1.6,0.2-2.9,1.6-2.8,3.2c0.1,8.5,0.2,31.3-14.3,35.4c-16.2,4.6-22.2,2-24.8,3.4
	c-1,0.5-2,4.9,0.8,6.3c2.8,1.3,31.7,1,38.7-5.2c6.5-5.8,6.2-30.5,6-40C395.1,205.7,393.5,204.2,391.6,204.4z"/>
<path class="st28" d="M389.2,247.6c-7,6.2-35.9,6.5-38.7,5.2c-1.3-0.6-1.8-1.9-1.8-3.2c6.2,1,31.1,0.2,37.5-5.5
	c6.4-5.7,6.2-29.9,6-39.7c1.6,0.1,2.9,1.4,3,3.1C395.3,217,395.7,241.8,389.2,247.6z"/>
<path class="st23" d="M335.5,214v1.8H309l-12.9-33.5h2.2l12.5,31.1L335.5,214z"/>
<path class="st22" d="M309,215.8h-37.3l-12.2-33.9l36.6,0.4L309,215.8z"/>
<path class="st29" d="M413.1,216.9v7.4c0,0.6-0.5,1.1-1.1,1.1H254.6c-0.6,0-1.1-0.5-1.1-1.1v-7.4c0-0.6,0.5-1.1,1.1-1.1h157.4
	C412.6,215.8,413.1,216.3,413.1,216.9z"/>
<path class="st21" d="M403.3,225.4h-6.1v84.8h6.1V225.4z"/>
<path class="st21" d="M269.3,225.4h-6.1v84.8h6.1V225.4z"/>
<path class="st20" d="M362.6,195.4l-4.6,9l-32.3,4.4l0,7h41.9c3.1,0,5.8-1.9,6.9-4.8l2.9-7.6L362.6,195.4z"/>
<path class="st25" d="M375.7,173.9c-4-1.5-7.4,1.8-10.5,7.3c-2.2,3.9-5.5,15.4-5.5,15.4c-0.9,2.5,18.8,10.1,19.7,7.6
	c0,0,2.5-13,2.8-19C382.2,182.1,381.7,176.2,375.7,173.9z"/>
<path class="st20" d="M370.1,155.5c-0.9,3.5-1.3,8-1.5,12.8c0,0-10,6.9-14,5.8c-1.7-0.5,3.1-5.3,3.1-5.3l-0.1-4.8l-0.5-5.8l5.9-2.9
	L370.1,155.5z"/>
<path class="st24" d="M364.5,158.3c-1.5,2.6-6.9,5.8-6.9,5.8l-0.5-5.8l5.9-2.9C363.4,155.9,364.9,157.5,364.5,158.3z"/>
<path class="st20" d="M352.1,161.4c5.2,2.8,16.9-6,18.1-6.9c0.1-0.1,0.1-0.1,0.1-0.1s4.6-0.8,4.3-4.6c-0.4-5.3-4.1-1.8-4.1-1.8
	l3-9.6l-3.9-5.7l-18.4,2.2c0,0-0.8,4.2-1.3,9.3C349.1,151.1,349,159.7,352.1,161.4z"/>
<path class="st23" d="M348.1,142.5c0.7,0.2,17-1.2,18.2-1.1c1.3,0.2,1.8,7.2,2.7,7.6c0.9,0.4,1.5-1,1.5-1s3.8-3.6,4.1,1.8
	c0.3,3.8-4.3,4.6-4.3,4.6s-1,0.7-1.1,0.8l-0.1,6.2c9.8-7.1,12.9-19.3,8.4-26c-4.5-6.7-12-6.8-17.7-6.3c-5.7,0.5-7.9-3.6-12.2-1.5
	C343.1,129.8,343.1,141.1,348.1,142.5z"/>
<path class="st20" d="M351.8,146.8c0.2-0.6,0.7-1.1,1.1-1c0.5,0.1,0.7,0.7,0.5,1.4"/>
<path class="st20" d="M358.4,147.5c0.2-0.6,0.7-1.1,1.1-1c0.5,0.1,0.7,0.7,0.5,1.4"/>
<path class="st20" d="M353.8,147.3l-0.7-0.2c0.1-0.3,0-0.8-0.3-0.9c-0.3-0.1-0.6,0.3-0.7,0.7l-0.7-0.2c0.2-0.9,1-1.4,1.6-1.2
	C353.6,145.7,354,146.4,353.8,147.3z"/>
<path class="st20" d="M360.5,148l-0.7-0.2c0.1-0.4,0-0.8-0.3-0.9c-0.2-0.1-0.6,0.2-0.7,0.7l-0.7-0.2c0.2-0.8,0.9-1.4,1.6-1.2
	C360.2,146.3,360.7,147.1,360.5,148z"/>
<path class="st23" d="M360.1,147.9c-0.2,0.6-0.7,1.1-1.1,1c-0.5-0.1-0.7-0.7-0.5-1.4c0.2-0.6,0.7-1.1,1.1-1
	C360,146.7,360.3,147.3,360.1,147.9z"/>
<path class="st23" d="M353.4,147.2c-0.2,0.6-0.7,1.1-1.1,1c-0.5-0.1-0.7-0.7-0.5-1.4c0.2-0.6,0.7-1.1,1.1-1
	C353.3,146,353.6,146.6,353.4,147.2z"/>
<path class="st23" d="M351.7,145.3c0.1-0.2,0.3-0.4,0.5-0.6c0.5-0.3,1.2-0.2,1.5,0.3c0.1,0.2,0.2,0.5,0.2,0.7
	c-0.2-0.1-0.4-0.3-0.5-0.5C352.9,144.9,352.5,145.1,351.7,145.3z"/>
<path class="st23" d="M358.9,145.8c0.1-0.2,0.3-0.4,0.5-0.6c0.5-0.3,1.2-0.2,1.5,0.3c0.1,0.2,0.2,0.5,0.2,0.7
	c-0.2-0.2-0.4-0.3-0.5-0.5C360,145.4,359.7,145.7,358.9,145.8z"/>
<path class="st23" d="M355.8,146.7c0,0.8-0.1,3-0.4,3.9c-0.3,0.8-0.9,1-1.1,1.5c-0.2,0.6,0.2,1.2,0.6,1.6c-0.3-0.2-0.5-0.4-0.7-0.7
	c-0.2-0.3-0.3-0.6-0.2-1c0.1-0.6,0.8-0.8,1-1.6C355.3,149.8,355.4,148.3,355.8,146.7z"/>
<path class="st4" d="M356.1,155.8c-0.1,1.2-1.1,2.1-2.2,2c-1.1-0.1-1.8-1.2-1.7-2.4c0,0,0,0,0-0.1
	C353.3,155.7,354.6,155.8,356.1,155.8C356.1,155.8,356.1,155.8,356.1,155.8z"/>
<path class="st20" d="M326.7,215.8l-14.8,0c-1.6-8.9,10.6-6.4,11.2-6.3c-0.2-0.1-1.5-0.9-0.8-2.8c0.8-2.1,3.4,2.1,3.4,2.1
	L326.7,215.8z"/>
<linearGradient id="SVGID_00000103986750911802342200000012438147993637119928_" gradientUnits="userSpaceOnUse" x1="304.595" y1="228.2797" x2="333.137" y2="228.2797" gradientTransform="matrix(1 0 0 -1 0 333.0084)">
	<stop  offset="0" style="stop-color:#909EFF"/>
	<stop  offset="1" style="stop-color:#6977E3"/>
</linearGradient>
<path style="fill:url(#SVGID_00000103986750911802342200000012438147993637119928_);" d="M307.9,113.9l-0.5,3.1
	c-0.1,0.4,0.3,0.8,0.7,0.7l3.6-0.6c2.1,1.2,4.5,1.9,7.1,1.9c7.9,0,14.3-6.4,14.3-14.3c0-7.9-6.4-14.3-14.3-14.3
	c-7.9,0-14.3,6.4-14.3,14.3C304.6,108.2,305.8,111.4,307.9,113.9z"/>
<path class="st4" d="M315,107.3l-5-2.2c-0.3-0.1-0.5-0.4-0.5-0.7v-0.1c0-0.3,0.2-0.5,0.5-0.7l5-2.2c0.2-0.1,0.4,0,0.6,0.1
	c0.3,0.3,0.2,0.7-0.2,0.8l-4.5,2l4.5,2c0.4,0.1,0.5,0.6,0.2,0.8C315.4,107.4,315.2,107.4,315,107.3z"/>
<path class="st4" d="M314.9,107.7L314.9,107.7l-5-2.3c-0.4-0.2-0.7-0.5-0.7-1v-0.1c0-0.4,0.3-0.8,0.7-1l5-2.2c0.4-0.2,0.7-0.1,1,0.2
	c0.4,0.4,0.3,1.2-0.3,1.4l-3.7,1.7l3.8,1.7c0.6,0.2,0.7,1,0.3,1.4C315.6,107.7,315.2,107.8,314.9,107.7z M315.1,107
	c0.1,0,0.1,0,0.2,0c0.1-0.1,0-0.2-0.1-0.2l-5.3-2.3l5.3-2.3c0.1-0.1,0.1-0.2,0.1-0.2c0,0-0.1-0.1-0.2,0l-5,2.2
	c-0.1,0.1-0.2,0.2-0.2,0.3v0.1c0,0.2,0.1,0.3,0.2,0.3L315.1,107z"/>
<path class="st4" d="M317.1,109.1c-0.1-0.1-0.2-0.3-0.1-0.6l3.3-9.7c0.1-0.4,0.6-0.4,0.9-0.2c0.1,0.1,0.2,0.3,0.1,0.6l-3.3,9.7
	C317.8,109.3,317.4,109.4,317.1,109.1z"/>
<path class="st4" d="M316.9,109.4c-0.2-0.2-0.3-0.6-0.2-0.9l3.3-9.7c0.2-0.7,1-0.8,1.5-0.3c0.2,0.2,0.3,0.6,0.2,0.9l-3.3,9.7
	C318.1,109.7,317.3,109.8,316.9,109.4z M320.7,99l-3.3,9.7c0,0.1,0,0.1,0,0.2l0,0c0,0,0.2,0.1,0.2-0.1l3.3-9.7c0-0.1,0-0.1,0-0.2
	C320.9,98.9,320.7,98.9,320.7,99z"/>
<path class="st4" d="M322.6,106.9c0-0.2,0.1-0.4,0.3-0.5l4.5-2l-4.5-2c-0.4-0.1-0.4-0.6-0.2-0.8c0.2-0.2,0.4-0.2,0.6-0.1l5,2.2
	c0.3,0.1,0.5,0.4,0.5,0.7v0.1c0,0.3-0.2,0.5-0.5,0.7l-5,2.2C323,107.5,322.6,107.3,322.6,106.9z"/>
<path class="st4" d="M322.2,106.9c0-0.4,0.2-0.7,0.6-0.8l3.7-1.7l-3.8-1.7c-0.6-0.2-0.7-1-0.3-1.4c0.3-0.3,0.7-0.3,1-0.2l5,2.2
	c0.4,0.2,0.7,0.5,0.7,1v0.1c0,0.4-0.3,0.8-0.7,1l-5,2.2C322.9,107.9,322.2,107.5,322.2,106.9z M323.1,107l5-2.2
	c0.1-0.1,0.2-0.2,0.2-0.3v-0.1c0-0.2-0.1-0.3-0.2-0.3l-5-2.2c-0.1,0-0.1,0-0.1,0c-0.1,0.1,0,0.2,0.1,0.2l5.3,2.3l-5.3,2.3
	c0,0-0.1,0-0.1,0.1C323,106.9,323,107,323.1,107z"/>
</svg>
