<?xml version="1.0" encoding="utf-8"?>
<!-- Generator: Adobe Illustrator 27.0.0, SVG Export Plug-In . SVG Version: 6.00 Build 0)  -->
<svg version="1.1" id="Layer_1" xmlns="http://www.w3.org/2000/svg" xmlns:xlink="http://www.w3.org/1999/xlink" x="0px" y="0px"
	 viewBox="0 0 500 331.9" style="enable-background:new 0 0 500 331.9;" xml:space="preserve">
<style type="text/css">
	.st0{fill-rule:evenodd;clip-rule:evenodd;fill:#EEF0FF;}
	.st1{fill:#9195D6;}
	.st2{fill:#EDB256;}
	.st3{fill:#3B455A;}
	.st4{fill:#E0C5B8;}
	.st5{fill:#8EC3CB;}
	.st6{fill:#B9916F;}
	.st7{fill:#F7F7F7;}
	.st8{fill:#FFFFFF;}
	.st9{fill:#284EC6;}
	.st10{fill:#465987;}
	.st11{fill:#717BDB;}
	.st12{fill:#B6C1EF;}
</style>
<g>
	<path class="st0" d="M287.6,292.3c-62,4.8-118.8,56.4-166.6,23c-53.9-37.6-108-81.4-114.3-140C0,112.9,22.5,38,87.9,7.7
		C150-21.1,217,39.9,287.6,45.3c57.5,4.4,120.9-39.6,166.2-9.5c45.9,30.5,34.8,90.6,29.5,139.6c-4.7,43.4-23.9,82.8-57.2,116.2
		C388.6,329,345.5,287.8,287.6,292.3z"/>
	<path class="st1" d="M136.9,287.3c-21.9,0.3-42,2.6-63.7,3.2c-11,0.3-46.9-0.5-53.9,5.6c-11,9.7,18,9.1,15.1,16.4
		c-0.6,1.5-2.8,2.5-4.2,3.7c-2.4,2.3-1.8,5.4,0.8,7.6c11.2,9.7,52.1,6.9,69.3,7.1c99.4,1,199.1,2.1,298-1.1
		c21.3-0.7,42.5-1.6,63.8-2.4c9.7-0.4,21.9-1.3,21.9-3.5c0.1-5.5-18.4,0.3-12.3-10.7c2-3.5,12.1-4.2,7-10.3
		c-5.7-6.7-18.7-11.8-30.8-13.5c-12.3-1.7-25-1.4-37.6-2c-23-1-46.2-1.2-69.3-1.3c-52.4-0.2-104.9,0.1-157.3,0.7
		C168.1,286.9,152.5,287.2,136.9,287.3z"/>
	<path class="st1" d="M24,105.4l-0.1,2.2l68.6,3.1l0.1-2.2L24,105.4z"/>
	<path class="st1" d="M43.6,42.7L41.8,44l49.8,66.4l1.8-1.3L43.6,42.7z"/>
	<path class="st2" d="M294,155.3l0.3-5.2l2.2-0.1l0.6,3.5l1.1-0.5l-0.8,4.4l-2.3,0.4L294,155.3z"/>
	<path class="st3" d="M322.9,175.8l-16.5-1.4l-8.1-19.4l-4.5,1.5l4.2,26.9l25.7,4.7L322.9,175.8z"/>
	<path class="st4" d="M87.4,145.2l-0.8-5.2l-2.2,0.1l-0.3,3.6l-1.1-0.4l1.2,4.4l2.3,0.2L87.4,145.2z"/>
	<path class="st5" d="M55.2,170.5l23.7-4.6l4.1-20.7l4.6,1.1L86.3,175l-23.6,7.9L55.2,170.5z"/>
	<path class="st3" d="M153.5,301.1c-0.5-0.6-1.1-0.9-1.8-0.8c-0.6,0.1-1.2,0.5-1.5,1.1c-0.2,0.4-0.2,0.8-0.3,1.3
		c-0.2,2.2-0.2,7.6,2.8,8.3c1.3,0.3,2.3-0.6,2.6-1.7C155.9,307.7,155.2,303,153.5,301.1z"/>
	<path class="st6" d="M154.5,268.8l-0.2,13.7c0.2,6.1-0.8,12.2-0.6,18.3c0,1.4,0.4,2.9,0.1,4.3c-0.3,1.4-1.4,1.6-2.6,0.9
		c-1.5-0.9-1.3-3.1-1.5-4.6c-0.7-4.3-1.5-8.6-2.2-12.9c-0.4-2.1,0.4-5.1,0.2-7.2l-2.2-11.5L154.5,268.8z"/>
	<path class="st7" d="M138.9,245.2l6,26.4l1.3,25l9.4-0.2l2.6-69.8l-18.3,0.3L138.9,245.2z"/>
	<path class="st3" d="M167,300.6c-0.5-0.5-1.1-0.8-1.8-0.7c-0.6,0.1-1.2,0.6-1.4,1.2c-0.2,0.4-0.2,0.9-0.2,1.3
		c-0.1,2.3,0.2,7.6,3.2,8.2c1.3,0.2,2.3-0.7,2.5-1.9C169.7,307,168.8,302.4,167,300.6z"/>
	<path class="st6" d="M162,269.2l0.8,13.7c0.1,3.8,0.6,7.6,1,11.3c0.4,3.5-0.2,7.1,1.6,10.3c0.6,1,1.7,1.7,2.5,0.4
		c0.6-0.9,0.3-2.5,0.4-3.6c0.5-4.3,1.1-8.6,1.6-13c0.3-2.1-0.6-5-0.6-7.2l1.7-11.6L162,269.2z"/>
	<path class="st7" d="M174,243.6l0.8,25.7l-4,26l-9.6,0.3l0.4-28.1l-5.1-23.3l-1.7-15.2l15.2-2L174,243.6z"/>
	<path class="st3" d="M161.9,174.5l-16.4-0.4l-9.5,17.7l3.4,16.6l0.6,19.8l23.4,0.3l7.7-1.2l-2-21.2l1.2-28.3L161.9,174.5z"/>
	<path class="st6" d="M139.9,221.9l-0.8,2.7l3.8,3.1l3-1.4l0.8-3.2l-2.3-0.9l0.1-0.7l-0.6-0.8L139.9,221.9z"/>
	<path class="st3" d="M145.5,174.8l-20,22l-3,8.9l16.4,17.2l5-3.3l-10.5-14.4l10-7.4L145.5,174.8z"/>
	<path class="st3" d="M161.3,185.2l8.5,17.1l9.2,1.8l17.8-15l-4-4.5l-15.7,8.8l-8.3-15.7L161.3,185.2z"/>
	<path class="st6" d="M160.8,162.2c-2.5-7.2-12-4.5-13.9,1.9c-1.3,4.2,1.9,9.6,6.3,10.8c0,0.2,0,0.3,0,0.5c0,0.7,0.1,1.3,0.2,2
		c0,0.3,3.8-0.5,4.2-0.6c0.1,0,0.3-0.1,0.4-0.2c0.2-0.2-0.1-0.9-0.1-1.2s-0.1-0.6-0.1-0.9c2.1-1,3.5-3.3,3.9-5.5
		C162,166.7,161.6,164.4,160.8,162.2z"/>
	<path class="st3" d="M154.7,154.3c-0.5,0.5-0.7,1.2-0.9,1.9c-0.1,0.4-0.2,0.8-0.1,1.3c0.4,1.6,2,1.5,3.2,2.1
		c1.5,0.6,2.9,1.8,3.7,3.2c1.4,2.2,0.7,4.9,0.2,7.3c-0.2,0.8-0.6,2.1,0.1,2.8c0.7,0.8,2.2,0.6,3,0.3c0.7-0.4,1.3-1,2.1-1.1
		s2,0.2,2.4-0.5c0.1-0.2,0.1-0.5,0.3-0.7c0.5-0.7,1.6,0.1,2.3-0.4c0.4-0.3,0.4-0.9,0.3-1.4c-0.1-0.5-0.4-1-0.3-1.5
		c0.1-0.4,0.4-0.8,0.6-1.1c0.4-0.8,0.2-1.8-0.3-2.4c-1-1.2-3-1-4.1-2.1c-0.6-0.6-0.8-1.4-1-2.2s-0.5-1.6-1.1-2.2
		c-0.8-0.7-1.9-0.6-2.6-1.4c-0.4-0.5-0.7-1.1-1.2-1.5c-0.7-0.5-1.9-0.9-2.7-1.2C157.1,153,155.7,153.3,154.7,154.3z"/>
	<path class="st3" d="M148.7,165.7c0,2.4,1.1,4.9,0,7s-3.8,2.5-6.2,2.6c-0.4,0-5.3,0.4-5.3,0.4c-0.4-1.6-0.8-3.3-1.6-4.8
		c-0.9-1.4-2.3-2.6-4-2.8c0.5-0.1,0.7-0.7,0.7-1.2c-0.1-0.5-0.3-0.9-0.5-1.4c-0.4-1.2,0-2.5,0.9-3.3c1.7-1.6,4.9-0.9,6.4-2.8
		c0.9-1.2,0.8-2.8,1.3-4.3c0.9-2.7,3.9-3.3,6.2-4.5c2.4-1.3,4.6-2,7.3-1.6c3.4,0.6,5.9,4,4.6,7.2c-1.7,4.2-8.4,3.8-9.6,8
		C148.8,164.8,148.7,165.3,148.7,165.7z"/>
	<path class="st8" d="M150.4,174.4l5.1,7.2l2.4-0.2l4-7.3L150.4,174.4z"/>
	<path class="st1" d="M353.7,41.9l-0.3,2.2l82.4,11l0.3-2.2L353.7,41.9z"/>
	<path class="st1" d="M79.4,117l-1.5,1.6l86.4,81.1l1.5-1.6L79.4,117z"/>
	<path class="st1" d="M354.9,47.6l-1.3,1.9l106.7,72.3l1.3-1.9L354.9,47.6z"/>
	<path class="st5" d="M41.4,214.3c0.8-4.1,1.5-7.9,1.5-10c0.2-6.2,1-26.6,1-26.6l3.8-7.8h0.7c0,0-0.1,0-0.2,0c0.1-0.7,0-1.2-0.1-1.7
		c-6.7,0.4-13.5,3.9-15.5,10.4c-0.2,0.5-0.3,1.1-0.3,1.6c-0.3,3.3,0.8,5.8-0.2,9.2c-0.8,2.9-1.6,5.9-2.2,8.9
		c-0.8,4.3-1.6,8.6-2.1,12.9c-0.7,4.8-1.1,9.5-1.2,14.2c0,0.5-0.1,2-0.2,3.7c-0.1,3.6,0,8.5,1.5,8.7c0.3,0,0.6-0.1,0.8-0.2
		c2-1,3.5-2.2,5.3-3.3l0.1-19L41.4,214.3z"/>
	<path class="st5" d="M76.7,233.9c-0.4-4-0.8-8.1-1.3-12.1c-1-8.1-2.3-16.1-4.6-23.9c-0.9-3-1.9-5.9-2.9-8.8
		c-1.2-3.6-2.5-7.1-3.7-10.7c-1.5-4.4-4.1-7.6-8.6-9.1c-0.8-0.3-1.7-0.5-2.5-0.6c0,0.1,0,0.2-0.1,0.3c-0.1,0.4-0.2,0.9-0.4,1.2h3
		c0,0,8.3,29.2,8.7,34.2c0.1,1.9,0.5,6.1,0.9,10.5l4.5,0.7l0.2,16.8c0.3,0.1,0.5,0.1,0.8,0.2c1.4,0.4,2.6,1.4,3.8,2.3
		C76.1,235.9,76.9,236.4,76.7,233.9z"/>
	<path class="st5" d="M57.6,229.7c-0.3,0-0.7,0-1,0.1L53.3,261l3.5,45.4l0,0v-0.7h5.8l7.4-50.5l-0.3-22.9c-3.5-1-7.4-2.6-11-2.5
		C58.4,229.7,58,229.7,57.6,229.7z"/>
	<path class="st5" d="M65.1,214.7c0.7,7,1.5,14.5,1.5,14.5s-3.7,0.1-9,0.5c0.4,0,0.8,0,1.2,0c3.7,0,7.5,1.5,11,2.5l-0.2-16.8
		L65.1,214.7z"/>
	<path class="st3" d="M56.9,306.4v2.4l6.2,3.1l3.1-3.1l-3.1-3.1h-0.4l-0.1,0.7H56.9z"/>
	<path class="st3" d="M56.9,306.4h5.7l0.1-0.7h-5.8V306.4z"/>
	<path class="st5" d="M48.4,230.6c-0.1,0-0.3,0-0.4,0c-3.7,0.8-6.1,1.1-7.7,1.2c-1.5,0.4-3,0.9-4.3,1.5c-0.7,0.3-1.3,0.7-1.9,1.1v4
		l7.1,67.3H47v0.7l0,0l6.4-45.1V261l-0.1-1.9L48.4,230.6z"/>
	<path class="st5" d="M40.3,231.8c-2.5,0.1-2.8-0.3-2.8-0.3s2.3-9.2,3.9-17.1l-7.2,1.1l-0.1,19c0.6-0.4,1.2-0.8,1.9-1.1
		C37.4,232.7,38.8,232.2,40.3,231.8z"/>
	<path class="st5" d="M48.4,230.6l4.8,28.5l0.1,1.9l3.2-31.2C54.1,230,51.3,230.2,48.4,230.6z"/>
	<path class="st3" d="M41.1,305.7h-0.4l-3.1,3.1l3.1,3.1l6.2-3.1v-2.4h-5.7L41.1,305.7z"/>
	<path class="st3" d="M41.1,305.7l0.1,0.7h5.7v-0.7H41.1z"/>
	<path class="st8" d="M65.1,214.7c-0.4-4.4-0.8-8.6-0.9-10.5c-0.3-5-8.7-34.2-8.7-34.2h-3l-0.1,0.1c-0.1,0.1-0.2,0.1-0.3,0.2
		c-0.2,0.1-0.5,0-0.8,0c-1-0.1-2-0.2-2.9-0.3h-0.7l-3.8,7.8c0,0-0.8,20.4-1,26.6c-0.1,2.1-0.7,5.8-1.5,10c-1.6,8-3.9,17.1-3.9,17.1
		s0.3,0.5,2.8,0.3c1.6-0.1,4-0.4,7.7-1.2c0.1,0,0.3,0,0.4,0c2.9-0.3,5.7-0.6,8.1-0.8c0.3,0,0.7-0.1,1-0.1c5.3-0.4,9-0.5,9-0.5
		S65.8,221.7,65.1,214.7z"/>
	<path class="st4" d="M53,168.5c0.4-1.6,2.2-2.4,3.2-3.8c1.1-1.7,1.7-3.6,1.9-5.5v-0.1c-0.1,0.1-0.3,0.1-0.5,0.2
		c-0.2-0.8,0.2-1.6,0.4-2.4c0-0.2,0.1-0.4,0-0.6c-1.4-0.2-2.8-0.8-3.9-1.2c-2.2-0.9-6.3-1.9-8.6-0.8c-1.8,0.9-1.2,3.7-1.1,5.4
		c0,0.5,0.1,0.9,0,1.4s-0.4,0.8-0.6,1.1c0.2,0.7,0.5,1.3,1,1.9c1.4,1.6,2.9,2.4,3.2,4.2C49.8,168.2,51.5,168.2,53,168.5z"/>
	<path class="st4" d="M48.3,170c0,0,0.1,0,0.2,0h4.1c0.3-0.3,0.4-0.8,0.4-1.2c0-0.1,0-0.2,0.1-0.3c-1.5-0.3-3.2-0.4-4.8-0.3
		C48.3,168.7,48.3,169.3,48.3,170z"/>
	<path class="st4" d="M51.3,170.3c0.3,0,0.5,0.1,0.8,0c0.1,0,0.2-0.1,0.3-0.2l0.1-0.1h-4.1C49.4,170.1,50.4,170.2,51.3,170.3z"/>
	<path class="st3" d="M58.2,156.2c0.2,0.9,0.1,1.9,0,2.8c1-0.5,1.6-1.6,2-2.7C59.6,156.4,58.9,156.4,58.2,156.2z"/>
	<path class="st3" d="M58.2,156.2C58.2,156.2,58.1,156.2,58.2,156.2c-0.1,0.2-0.1,0.4-0.1,0.6c-0.2,0.8-0.5,1.6-0.4,2.4
		c0.2-0.1,0.3-0.1,0.5-0.2C58.3,158.1,58.4,157.1,58.2,156.2z"/>
	<path class="st3" d="M43.8,156.7c0-0.7,0.1-1.4,0.4-2.1c0.5-1.1,1.7-1.7,2.9-2.1c3-0.9,6.4-0.7,9.1,1c0.7,0.4,1.4,1,1.7,1.8
		c0.1,0.1,0.1,0.2,0.2,0.4c-0.2-0.9-0.6-1.7-0.4-2.3c0.2-0.9,1.4-1.1,2.1-0.6c0.5,0.4,0.8,1,0.8,1.6s-0.1,1.3-0.3,1.9v0.1
		c0.4,0,0.8-0.1,1.2-0.3c1.9-0.8,3.4-4.1,3.4-6.1c0-0.9-0.4-1.8-1.2-2.4c-0.7-0.5-1.6-0.9-2-1.7c-0.3-0.6-0.4-1.4-0.7-2
		c-0.6-1.1-2-1.4-3.1-1.8c-2.9-0.9-4.5-2-7.6-0.8c-2.2,0.9-5,1-7.1,2.2c-0.9,0.5-1.6,1.4-2.2,2.3c-2.1,3.2-2.6,7.8-1.2,11.1
		c0.3,0.8,0.7,1.4,1.1,2.1c0.8,1.3,1.7,3,3.1,3.6c0-0.2,0.1-0.3,0.1-0.4C43.4,160.4,43.7,158.5,43.8,156.7z"/>
	<path class="st3" d="M44.5,159.6c-0.1-1.8-0.6-4.6,1.1-5.4c2.2-1.1,6.4-0.1,8.6,0.8c1,0.4,2.5,1,3.9,1.2c0-0.2,0-0.4-0.1-0.5
		c0-0.1-0.1-0.2-0.2-0.4c-0.4-0.7-1-1.3-1.7-1.8c-2.6-1.7-6.1-1.9-9.1-1c-1.2,0.4-2.4,1-2.9,2.1c-0.3,0.6-0.3,1.4-0.4,2.1
		c-0.1,1.8-0.4,3.7,0.1,5.4c0.2-0.4,0.5-0.7,0.6-1.1C44.6,160.5,44.5,160.1,44.5,159.6z"/>
	<path class="st3" d="M60.5,154.4c0-0.6-0.3-1.3-0.8-1.6c-0.7-0.5-1.9-0.3-2.1,0.6c-0.1,0.6,0.3,1.5,0.4,2.3
		c0.1,0.2,0.1,0.4,0.2,0.6c0.7,0.1,1.4,0.2,2,0.1v-0.1C60.4,155.6,60.6,155,60.5,154.4z"/>
	<path class="st3" d="M58,155.7c0,0.2,0.1,0.4,0.1,0.5h0.1C58.1,156.1,58.1,155.9,58,155.7z"/>
	<path class="st4" d="M429.2,176.8l7.9-2l7.5,1.5l-6.8,5.3L429.2,176.8z"/>
	<path class="st3" d="M432.7,163c-1.3,2.1-0.7,4.7-0.1,7c0.2,0.9,0.6,2.3-0.3,2.9c-1,0.8-2.7,0-3.2-0.9c-0.4-0.7-0.4-1.5-0.4-2.3
		c0-3.4-0.1-8.3,1.2-11.4c1.1-2.6,5.7-6.2,8.5-3.5c0.5,0.5,0.7,1.2,0.9,1.9c0.1,0.4,0.2,0.8,0.1,1.2c-0.3,1.6-1.9,1.5-3.1,2
		C434.8,160.5,433.5,161.7,432.7,163z"/>
	<path class="st4" d="M435.7,172.9c-2.1-1-3.5-3.1-3.9-5.3s0-4.4,0.7-6.5c2.3-6.9,11.7-4.4,13.7,1.7
		C448,168.2,441.9,175.7,435.7,172.9z"/>
	<path class="st3" d="M444.8,166c-0.2,0.9,0,1.9-0.2,2.8c-0.3,1.7-1.3,3.6-1.2,5.3c1.7,0.3,4-0.1,5.5-0.8c1.6-0.7,1.9-2.5,2.7-4.1
		c0.7-1.5,1.6-2.9,2-4.5c2.2-8.7-4.9-16.1-13.6-14.6c-3.3,0.6-5.7,3.9-4.4,7c1.4,3.3,6.4,3.6,8.4,6.4C444.5,164,444.7,165,444.8,166
		z"/>
	<path class="st4" d="M435.7,172.3c-0.1,0.7-0.1,1.3-0.2,2c0,0.3-0.3,1.1-0.1,1.4c0.1,0.1,0.2,0.2,0.4,0.2c0.4,0.1,4.1,0.8,4.2,0.5
		c0.1-0.8,0.2-1.5,0.2-2.3c0-0.6,0.3-1.7,0.1-2.2c-0.8,0.3-1.5,0.4-2.3,0.4s-1.5,0-2.3-0.1C435.7,172.2,435.7,172.2,435.7,172.3z"/>
	<path class="st4" d="M408.1,227.3l-2.6-0.5l-2.6,3.7l1.5,2.6l3,0.5l1.1-3.7L408.1,227.3z"/>
	<path class="st3" d="M432.5,181l-9.6,0.5l-6.1,25.8l-11.4,18.8l3.2,3.6l15.1-15.1L432.5,181z"/>
	<path class="st3" d="M428.6,303.6c0.4-0.7,1-1.2,1.8-1.2c0.7,0,1.5,0.3,1.9,0.9c0.3,0.4,0.5,0.9,0.6,1.3c0.8,2.4,2,8.3-1.1,9.8
		c-1.3,0.6-2.7-0.1-3.4-1.3C427.5,311.4,427.2,306.1,428.6,303.6z"/>
	<path class="st4" d="M434.3,266.4l-0.4,15.3c0.1,6.8-1.1,13.7-1,20.5c0,1.6,0.4,3.2,0,4.8c-0.4,1.5-1.7,1.8-3,1
		c-1.7-1.1-1.4-3.5-1.7-5.2c-0.7-4.8-1.6-9.7-2.3-14.5c-0.4-2.4,0.5-5.7,0.4-8.1l-2.3-12.9L434.3,266.4z"/>
	<path class="st3" d="M439.5,304.2c0.6-0.7,1.2-1,2-0.9c0.7,0.1,1.4,0.5,1.8,1.2c0.2,0.4,0.3,0.9,0.4,1.4c0.3,2.5,0.6,8.5-2.8,9.5
		c-1.4,0.4-2.7-0.5-3.1-1.8C437,311.7,437.6,306.4,439.5,304.2z"/>
	<path class="st4" d="M436.5,266.3l0.9,15.3c0.1,6.8,1.5,13.6,1.6,20.4c0,1.6-0.3,3.2,0.2,4.8c0.5,1.5,1.7,1.7,3,0.9
		c1.7-1.1,1.3-3.5,1.5-5.3c0.6-4.9,1.3-9.7,1.9-14.6c0.3-2.4-0.7-5.7-0.6-8.1l1.9-13L436.5,266.3z"/>
	<path class="st3" d="M444.3,175.1l-6.5,3.4l-7.3-2.6l-7.5,5.7c0,0,0.8,23.6,0.5,32.4s-0.9,15.9-1.6,28.7c-0.8,14.1,2.8,31,2.8,31
		l29.2-0.4c0,0,6-32.1,2.9-40.4c-3.1-8.3-1.2-16.6-1.3-23.4c-0.1-6.8-3-29.6-3-29.6L444.3,175.1z"/>
	<path class="st4" d="M471.9,154.8l3.1,1l3.8-4.3l-1.4-3.6l-3.6-1.1l-2,4.6L471.9,154.8z"/>
	<path class="st3" d="M446.1,188.9l20.7-6.7l10.4-27.6l-6.2-1.5l-12.2,21l-12.6,2.7L446.1,188.9z"/>
	<path class="st1" d="M263.8,129.1L164.5,198l1.3,1.8l99.3-68.9L263.8,129.1z"/>
	<path class="st1" d="M161.9,65.1l-1.2,1.9l103.1,64l1.2-1.9L161.9,65.1z"/>
	<path class="st1" d="M72.8,110.7l-0.2,2.2l191.8,18.2l0.2-2.2L72.8,110.7z"/>
	<path class="st1" d="M353.5,42.2l-92.8,87l1.5,1.6l92.8-87L353.5,42.2z"/>
	<path class="st1" d="M262.2,129.1L261,131l122.7,79.9l1.2-1.9L262.2,129.1z"/>
	<path class="st1" d="M465.4,119.7l-201,6.6l0.1,2.2l201-6.6L465.4,119.7z"/>
	<path class="st9" d="M256.3,181.6c33.5,0,60.6-27.1,60.6-60.6s-27.1-60.6-60.6-60.6s-60.6,27.1-60.6,60.6S222.8,181.6,256.3,181.6z
		"/>
	<path class="st10" d="M159.1,87.7c15.7,0,28.4-12.7,28.4-28.4s-12.7-28.4-28.4-28.4s-28.4,12.7-28.4,28.4
		C130.7,75,143.4,87.7,159.1,87.7z"/>
	<path class="st11" d="M59.4,109.7c0-17.8,14.5-32.3,32.3-32.3s33.9,14.5,33.9,32.3S109.5,142,91.7,142S59.4,127.5,59.4,109.7z"/>
	<path class="st10" d="M194.2,204.8c3.2-13.7-5.2-27.4-18.9-30.6c-13.7-3.2-27.4,5.2-30.6,18.9c-3.2,13.7,5.2,27.4,18.9,30.6
		C177.2,226.9,190.9,218.5,194.2,204.8z"/>
	<path class="st12" d="M353.6,73.3c15.6,0,28.2-12.6,28.2-28.2s-12.6-28.2-28.2-28.2s-28.2,12.6-28.2,28.2S338,73.3,353.6,73.3z"/>
	<path class="st11" d="M406,228.4c12-12,12-31.4,0-43.4s-31.4-12-43.4,0s-12,31.4,0,43.4S394,240.4,406,228.4z"/>
	<path class="st10" d="M485.6,145.4c13.6-13.6,13.6-35.6,0-49.2s-35.6-13.6-49.2,0s-13.6,35.6,0,49.2S472,159,485.6,145.4z"/>
	<path class="st9" d="M451.8,60.6c3.6-8.8-0.5-18.8-9.3-22.5c-8.8-3.6-18.8,0.5-22.5,9.3c-3.6,8.8,0.5,18.8,9.3,22.5
		C438.2,73.5,448.2,69.3,451.8,60.6z"/>
	<path class="st9" d="M60.3,49.9c3.6-8.8-0.5-18.8-9.3-22.5c-8.8-3.6-18.8,0.5-22.5,9.3c-3.6,8.8,0.5,18.8,9.3,22.5
		C46.6,62.8,56.6,58.7,60.3,49.9z"/>
	<path class="st12" d="M23.9,125.4c10.4,0,18.8-8.4,18.8-18.8s-8.4-18.8-18.8-18.8S5.1,96.2,5.1,106.6S13.5,125.4,23.9,125.4z"/>
	<path class="st12" d="M96.9,199.3c2.7-11.3-4.3-22.6-15.6-25.3s-22.6,4.3-25.3,15.6s4.3,22.6,15.6,25.3
		C83,217.6,94.3,210.6,96.9,199.3z"/>
	<path class="st4" d="M50.8,199.9l3.3-0.2l1.9-2.2l0.7,0.2l-0.2,0.8l2.1-1.4l2,0.2l1.3,2.4l-0.4,2.8l-2.5,1.1l-3.2-0.4l-4.5,0.5
		L50.8,199.9z"/>
	<path class="st5" d="M52.6,198.3l-18.1,0.5l3.7-27.8l-12.4,12.2l-1.9,25.7l6.7,3.6l24.7-7.9L52.6,198.3z"/>
	<path class="st5" d="M320.9,230.1v7.5l-10,32.4l2.5,33.6l-6.2,1.2l-10-41.1l0.4-12.1l4.6-24.7L320.9,230.1z"/>
	<path class="st5" d="M313,238.9l10,68.5h4.6l2.9-37.4l6.2-37.4L313,238.9z"/>
	<path class="st3" d="M308,304.2l-4.8,5l1.4,2.6l9.8-4.7l-1.8-3.7L308,304.2z"/>
	<path class="st3" d="M323.1,306.5l-5.9,3.7l0.7,2.8l10.7-2.1l-0.8-4.1L323.1,306.5z"/>
	<path class="st4" d="M321,155.5c2.8,2.9,7.8,3,10.2,6.3c1.5,2.1,1.5,5.2,0.3,7.6c-0.5,1.1-1.3,2.2-2.4,2.8
		c-0.7,0.4-1.5,0.6-2.3,0.8c-1.1,0.2-2.1,0.1-3.2-0.1c-0.2,0.9-0.3,1.9-0.3,2.9c-1.9-0.7-4.3-0.1-6.2-0.9c0.4-1.1,1.4-3.5,1.9-4.5
		c-0.4-0.4-0.8-0.8-1.1-1.3c-1.9-2.9-1.9-6.9-0.2-9.9C318.6,157.8,319.8,156.6,321,155.5z"/>
	<path class="st3" d="M320.9,157.1l10.2,7.3l-4.6,8.7l4.5,0.3l9.2-12.8l-12.8-12.2l-8.7-1.8l-2.8,3.5l1.9,8L320.9,157.1z"/>
	<path class="st6" d="M195.1,191.9l1.3-2.5l-3.1-3.9l-3.2,0.6l-1.5,3l2.1,1.4l-0.3,0.7l0.4,0.9L195.1,191.9z"/>
	<path class="st4" d="M282,165.8l-1.9-5l2.1-0.9l2.1,3.1l0.8-0.9l1.1,4.5l-2.1,1.3L282,165.8z"/>
	<path class="st3" d="M326.4,182l-22,2.1L286.3,165l-3.9,2.7l14.5,25.3l29.5,4.9V182z"/>
	<path class="st3" d="M309.5,174.5l14.8-1.5c0,0,11.9,13.9,17.8,34.2c5.8,20.3-7.1,48.9-7.1,48.9s-40.1-8.2-46.7-9.5l13-40.7
		L309.5,174.5z"/>
</g>
</svg>
