<?xml version="1.0" encoding="utf-8"?>
<!-- Generator: Adobe Illustrator 27.0.0, SVG Export Plug-In . SVG Version: 6.00 Build 0)  -->
<svg version="1.1" id="Layer_1" xmlns="http://www.w3.org/2000/svg" xmlns:xlink="http://www.w3.org/1999/xlink" x="0px" y="0px"
	 viewBox="0 0 563 563" style="enable-background:new 0 0 563 563;" xml:space="preserve">
<style type="text/css">
	.st0{fill:#F5F5F5;}
	.st1{fill:none;stroke:#264FDA;stroke-linecap:round;stroke-linejoin:round;stroke-miterlimit:10;}
	.st2{fill:none;stroke:#000000;stroke-width:2;stroke-linecap:round;stroke-linejoin:round;stroke-miterlimit:10;}
	.st3{fill:#264FDA;}
	.st4{fill:#FFBE9D;}
	.st5{fill:#1C1C1B;}
	.st6{fill:#FF6363;}
	.st7{fill:#1D1D1B;}
	.st8{fill:#081132;}
	.st9{fill:none;stroke:#1D1D1B;stroke-linecap:round;stroke-linejoin:round;stroke-miterlimit:10;}
	.st10{fill:none;stroke:#081132;stroke-width:0.5;stroke-linecap:round;stroke-linejoin:round;stroke-miterlimit:10;}
	.st11{fill:#FFFFFF;}
	.st12{fill:none;stroke:#1A0F91;stroke-width:4;stroke-linecap:round;stroke-linejoin:round;stroke-miterlimit:10;}
	.st13{fill:#1A0F91;}
	.st14{fill:#91B3FA;}
	.st15{fill:none;stroke:#1C1C1B;stroke-width:0.5;stroke-linecap:round;stroke-linejoin:round;stroke-miterlimit:10;}
	.st16{fill:none;stroke:#FF6363;stroke-linecap:round;stroke-linejoin:round;stroke-miterlimit:10;}
	.st17{fill:none;stroke:#292929;stroke-linecap:round;stroke-linejoin:round;stroke-miterlimit:10;}
	.st18{fill:none;stroke:#000000;stroke-linecap:round;stroke-linejoin:round;stroke-miterlimit:10;}
	.st19{fill:none;stroke:#101C59;stroke-linecap:round;stroke-linejoin:round;stroke-miterlimit:10;}
	.st20{fill:#8F9FFF;}
	.st21{fill:none;stroke:#91B3FA;stroke-width:5;stroke-linecap:round;stroke-linejoin:round;stroke-miterlimit:10;}
</style>
<path class="st0" d="M356.3,413.4c-46.2-53.9-121.8-80.6-191.4-67.6c-19.6,3.6-38.8,10.3-55.1,21.7c-16.3,11.4-29.5,28-34.7,47.3
	c-7.1,26.1,2,56,22.4,73.7c14.5,12.6,33.4,18.9,52,23.5c36.8,9.1,74.9,12.9,112.7,11.2c22.3-1,45-3.9,65.3-13.3
	c18.7-8.7,36.3-24.5,45.7-43.2C382.8,447.4,368.7,427.8,356.3,413.4z"/>
<path class="st0" d="M440.1,383.6c8.5-13.6,18.8-26.4,32.1-35.3c13.3-8.9,30-13.5,45.6-9.8c15.6,3.7,29.3,16.6,31.4,32.5
	c1.6,11.8-3,23.5-8.1,34.2c-12,25.2-28.3,49.3-52,64c-18.8,11.7-58.7,23.7-69.5-4.3C409.8,439.1,426.9,404.7,440.1,383.6z"/>
<path class="st0" d="M210.6,8.5c29.9-1.4,60.2-0.6,90,0.9c38.8,2,77.9,5.2,115.2,15.9c42,12,83.9,34.5,109.5,71.2
	c25.2,36.1,40.6,91.9,23.5,134.3c-11.6,28.9-37.2,49.4-62.6,67.2c-25.4,17.8-52.5,35-69.8,60.8c-3.3,4.9-6.2,10.1-10.6,14.1
	c-4.3,4-10.4,6.7-16.1,5.1c-4.3-1.2-7.7-4.6-10.7-8c-10.6-12-19.7-25.5-32.1-35.7c-23.3-19.1-54.7-23.7-84.5-27.7
	c-33.6-4.4-67.1-8.9-100.7-13.3c-26.5-3.5-57.8-7.6-82.3-18.4C40,257.6,12.8,217.2,7.9,174.4C1.9,123,26.4,59.5,74.9,37.7
	C117.6,18.5,163.7,10.7,210.6,8.5z"/>
<path class="st1" d="M344.2,531.7h-23.9c-3.7,0-6.7-3-6.7-6.7V363.9c0-3.7-3-6.7-6.7-6.7h-94.8"/>
<path class="st1" d="M351.4,510.1h-23.9c-3.7,0-6.7-3-6.7-6.7V350.2c0-3.7-3-6.7-6.7-6.7h-94.8"/>
<path class="st1" d="M343.6,483.3h-31.5c-3.1,0-5.6-2.5-5.6-5.6V368.8c0-3.7-3-6.7-6.7-6.7H183.7"/>
<path class="st2" d="M236.5,541.8l23.2-167.4c0-0.5,0.8-0.6,0.9,0L286,541.7"/>
<path class="st2" d="M111.8,540.5l26.3-109.2l40,109.2"/>
<path class="st3" d="M53.5,385.1c-0.3-0.7-0.5-1.4-0.8-2.1C53,383.7,53.2,384.4,53.5,385.1z"/>
<path class="st3" d="M61.7,326.3c3.1,7.2,6.5,14.3,9.8,21.3c3.5,7.5,7.2,14.8,11.6,21.8c9.2,14.4,20.9,27.1,33.9,38.2
	c14,11.9,30,21.2,46.4,29.2c0.1,0.1,0.3,0.1,0.4,0.2c-3.4,0.1-6.8,0.2-10.2,0c-6.8-0.2-13.6-1.1-20.3-2.3c6,1.6,12,2.7,18.3,2.9
	c10.4,0.3,20.8-0.4,31-2.4c10.1-2,20.3-5.2,28.9-11c3.9-2.6,7.5-5.8,10.2-9.7c1.5-2.1,2.7-4.3,3.6-6.6c-0.1-0.2-0.1-0.5-0.2-0.8
	c-5-18.2-20.8-20.6-35-28.7c-15-8.5-27.8-20.9-36.7-35.7c-8.3-13.7-13.2-29.1-19.8-43.7c-6.2-13.6-14.2-20.6-28.4-25.5
	c-10.5-3.7-22.1-6.2-32.7-2.7c-9.4,3.2-16.4,10.8-20.8,19.8C52.4,303,57.1,315.3,61.7,326.3z"/>
<path class="st4" d="M211,357.5c0.1-7.1-0.1-13.6,1.7-20.7c2.4-9.4,9.7-14.6,18.7-17.5c2-0.6,4.2-1.1,6.1-0.4
	c2.2,0.8,3.7,3.1,4.6,5.3c2.8,7.3,1.4,15.4-0.2,23.1c-3.4,17.1-6.8,34.3-10.2,51.4c-0.2,1-0.5,2.1-1.4,2.6c-0.7,0.4-1.5,0.2-2.3,0.1
	c-7.6-1.5-15-4-22.1-7.2C209,395.6,211,359.1,211,357.5z"/>
<path class="st4" d="M229.5,458.8c5.6-1.6,8.5-2.1,13.9-4.3c0,24.9,3.5,66.9,3.4,74.1c-7,0.8-12.5,3.4-19.5,3.5
	c-5.5-8.6-7.8-33.1-10.9-42.5c-0.7-2.2-3.9-13.1-7.4-25.5C215.8,462.5,222.7,460.7,229.5,458.8z"/>
<path d="M216.6,408.8c8.1,1.9,16.3,2.7,24.5,3.9c4.3,0.6,13.1,3.1,17.2,0.1c5.1-3.8-3.3-6.1-7.1-8.2c-6.6-3.7-13.2-7.2-19.8-10.8
	c-6.1-3.3-13.9-10.4-20.2-3.5c-4,4.4-4.5,11.4-4.9,17C209.7,407.5,213.1,408,216.6,408.8z"/>
<path class="st5" d="M86.2,379.6c3.7-11.8,20.6-14.5,31-13.7c21.7,1.8,43.4,2.3,64.9,4c17.5,1.4,36.7,5.3,48.7,19.3
	c9.9,11.5,11.4,27.3,14.3,41.7c5.2,26.7,6.6,51.7,6,78.7c0,0.6,0,1.3-0.4,1.8c-0.5,0.7-1.4,0.8-2.2,0.9c-10.3,1.4-20.6,2.8-30.9,4.2
	c-0.6,0.1-1.3,0.2-1.8-0.2c-0.6-0.4-0.8-1.1-1-1.7c-1.6-5.6-22.9-90.7-21.4-90.9c-17.8,2.8-31.9,2-49.8,0.6
	c-12.7-1-25.6-3.2-36.7-9.5C96.2,408.8,81.9,393.3,86.2,379.6z"/>
<path class="st6" d="M81,375c1.3,1.9,1.2,3.7,1.8,4.7c3.3,0,6.5,0,9.8,0.1c8.5,0.1,17.2,0.3,25.6-1.5c7.3-1.5,14.6-3.8,21.6-6.3
	c10.9-3.8,21.1-6.5,20.3-19.9c-1-17.2-3.1-39,1.8-55.8c2-6.8,3-11.9,5.9-18.3c0.8-1.8,1.6-3.6,1.7-5.5c0.1-1.4-0.2-2.8-0.5-4.1
	c-5.4-22.1-23.8-22.3-43.2-24.1c-3-0.3-6.1-0.5-9.1,0c-3.7,0.6-8,1.7-11.2,3.7c-17.1,10.3-18.2,27.6-23.4,45.5
	c-2.6,8.9-6.6,17.4-9.2,26.3C67.5,338.7,70,358.4,81,375z"/>
<path d="M251.6,528.3c2.1,1.2,5.2,1.9,7.5,2.6c5.8,1.8,11.8,2.8,17.5,4.8c3,1.1,5.9,4.8,2.6,7.5c-1.4,1.2-3.3,1.5-5.2,1.7
	c-14.5,1.7-29.2,0.9-43.8,0c-0.8,0-1.7-0.1-2.2-0.7c-0.3-0.3-0.5-0.8-0.7-1.2c-1.8-4.7-3-9.9-4.1-14.7c2-0.5,4,0.3,6,0.5
	c2.6,0.2,5.3,0.4,7.7-0.9c3.1-1.7,6-3.9,8.5-6.5c0.2-0.2,0.5-0.5,0.8-0.6c1-0.4,2,0.7,2.4,1.7c0.7,2,0.7,4.3,2.6,5.5
	C251.3,528.2,251.4,528.3,251.6,528.3z"/>
<path class="st5" d="M210.4,352.8c-0.2-2.4,0-4.7,2.3-5.5c3.1-1.2,4.2,0.5,6.2-2.8c3.8-6.2,6.5-14,9.1-20.9c3.1-8.2,9-19,8.7-27.9
	c0-0.5-0.1-0.9-0.3-1.3c-0.3-0.4-0.9-0.6-1.4-0.8c-4.6-1.2-9.4-1.1-14.1-0.8c-31.2,2-48.6,36-63.4,59.3
	c-2.2,3.5-15.2,20.4-18.6,20.2c11.9,0.9,21.1,7,32.2,10.4c6.8,2.1,14.2,8.1,20.6,9c2.1,0.3,10.4-15.2,11.6-17.2
	c3.2-5.3,7.7-11.3,7.6-17.8C210.7,355.6,210.5,354.2,210.4,352.8z"/>
<path class="st5" d="M247.6,355.8c-0.7,5.3-1.5,10.4-2.8,15.5c-0.1,0.5-0.2,0.9-0.5,1.3c-0.5,0.5-1.3,0.6-2.1,0.6
	c-1.5-0.1-3.1-0.5-4.6-0.8c-9.5-1.8-25.2,4.6-32.5-4.3c-1.5-1.8-1.9-4.2-2.2-6.5c-2.2-16.6,3-32.7,2.8-49.4
	c-0.1-8.9,3.2-14.3,7.7-21.5c4.3-7,10.4-9.3,18.1-6.7c13.1,4.5,20.6,18.4,20,31.7C250.8,329,249.4,342.4,247.6,355.8z"/>
<path class="st4" d="M125.7,227.1c-0.1,1.6,3.2,5.3,4.2,6.4c1.6,1.8,3.5,3.3,5.8,4.2c5.9,2.3,12.1,2.6,16.8-2.3
	c2.2-2.3,3.7-5.2,5-8.2c1.9-4.5,4.6-17,3.4-21.7c-1.1-4.3-5.7-0.6-9.9-2c-3.6-1.3-6.4-2.4-10.3-1.7c-3.5,0.6-6.8,2.3-9,5.2
	c-0.6,0.8-1.1,1.5-1.6,2.3c-1.2,2.5-2.2,5-3,7.6c-0.6,2.2-0.9,4.4-1.2,6.6C125.8,224.6,125.8,225.9,125.7,227.1z"/>
<path class="st4" d="M123.2,255.8c3.5,2.4,7.7,4,11.9,4.4c0.8,0.1,11-1.1,9.6-3c-3.8-5.1-1.7-9.6,0.7-15.2c0.4-0.9,3.6-6.1,3.3-6.7
	c-0.1-0.2-0.2-0.3-0.4-0.5c-0.8-0.7-2-0.7-3-0.7c-4-0.1-7.7-1.3-11-3.6c-1.5-1.1-2.9-2.4-4.3-3.8c-0.8-0.8-2.2-3.5-3.3-3.6
	c-0.1,0-0.2,0.1-0.3,0.1c-1.4,5.5-2,10.3-4.8,15.6c-2.1,4.1-7.4,6.1-8.8,6.4C115.1,249.3,119.3,253,123.2,255.8z"/>
<path class="st7" d="M134.7,218.8c0.1-0.8,0.2-1.9,1-2.2c0.8-0.4,1.6,0.3,2.5,0.5c2.7,0.6,5.2-2.3,6.7-4.2c0.3-0.4,0.6-0.7,0.9-1.1
	c1.8-1.8,3.6-2.7,6.6-2.5c3,0.2,5.9,1.3,8.8,0.7c3.2-0.6,5.9-3.3,6.7-6.6c1.2-5.2-3-12.1-8.9-11.2c-1.6,0.3-3.3,1.1-4.7,0.3
	c-0.8-0.5-1.2-1.3-1.8-2c-2.1-2.8-6.1-3.9-9.3-2.6c-0.8,0.4-1.6,0.9-2.5,1.1c-1.7,0.5-3.5,0.1-5.2,0c-2.1-0.1-4.2,0.2-5.9,1.4
	c-1.7,1.2-2.8,3.3-2.5,5.3c0.1,0.6,0.3,1.2,0.3,1.8c-0.3,2.1-3.6,2.2-4.6,4.1c-1,1.8,0.8,4,0.3,6c-0.3,1.2-1.4,2.1-1.5,3.3
	c-0.2,1.5,1.2,2.6,1.8,3.8c0.7,1.4,1.3,3.2,1.4,4.7c0.3,3.1-1.6,6.5,3,6.1C131.6,225.7,134.2,222.6,134.7,218.8z"/>
<path class="st6" d="M193.2,300c1.8,2.2,3.3,4.5,8.6,4.1c6.7-0.4,13.2-3.9,17-9.4c1.1-1.6,1.9-3.3,2.2-5.2
	c1.5-11.2-11.1-18.5-19.1-23.1c-9.2-5.2-19.2-8.9-29.2-12.1c-8.9-2.9-18.2-7.8-27.8-7.1c-0.2,0-0.5,0.1-0.8,0.1
	c0.1,1.2,0.2,2.5,0.2,3.7c4.4,6.9,7.1,15.1,8.9,23.1c1.1,5.2,3.7,11.1,3.2,16.4c10.6,1.5,21.1,3.4,31.6,5.7
	C190.6,297.1,192,298.5,193.2,300z"/>
<path class="st4" d="M209.2,276.2c-4.1,0.5-7.5,3.5-9.4,7.1s-2.8,7.7-3.5,11.7c-2.1,11.5-2.8,24.9-6.7,36
	c-2.4,6.9-11.7,16.3-7.1,24.2c1.3,2.3,4.2,3.6,6.8,3.1c4.6-0.9,6.8-6.1,8.7-10.4c2.5-5.5,6.3-9.8,9.6-14.6
	c4.2-6.1,7.2-13.5,10.3-20.2c3.9-8.6,7.3-18.4,4.2-27.3C220.1,280.4,214.9,275.6,209.2,276.2z"/>
<path class="st8" d="M136.2,237.1c0.2,0.1,0.3,0.2,0.5,0.2c3.4,1.4,7.1,2.2,10.6,1.7c0.9,0.4,0.6,1.1,0.1,2.4
	c-0.6,1.9-1.2,3.7-1.7,5.6c-3.3-3.4-6.6-6.7-9.8-10.1C136.1,237,136.2,237,136.2,237.1z"/>
<path class="st6" d="M84.9,260.5c-6.7,7.7-9.5,18.1-11.7,27.8c-2.9,12.6-5.9,25.2-8.8,37.7c-0.7,3-1.4,5.9-1.5,9
	c-0.1,4.9,1.3,11.1,2.4,15.7c1.5,6,5,5.6,10.4,5.1c8.4-0.8,19.9-3.4,25.6-10.3c2.7-3.3,3.6-7.7,4.4-11.9c1.1-5.8,2.1-11.5,3.2-17.3
	c4.4-23.6,8.8-47.9,3.8-71.3C100.8,246.9,91.8,252.6,84.9,260.5z"/>
<path class="st9" d="M112.8,283.9c-9.7,2.6-8.9,15.1-9.8,22.8c-1.3,11.4-3.5,22.8-6.5,33.8"/>
<path class="st10" d="M216.4,311.5c-3.7,16.2-12.3,40.7-12.4,57.3"/>
<path class="st11" d="M146.8,228.3c0.6,1.5,1.9,2.6,3.3,2.8c1.4,0.2,2.9-0.5,3.7-1.8"/>
<path class="st12" d="M56.5,365.3c27-6.2,49.9-10.7,74.2,0.8c15.8,7.5,26.5,21.4,29.5,36.3c3,14.8-1.8,25.2-14.8,31.7"/>
<path class="st10" d="M198.1,425.8c-0.7-5.6-0.9-12.6-1.6-18.2"/>
<path class="st10" d="M204.3,374.2c-17.4-2.7-28.6-0.3-50.9-0.3"/>
<path class="st4" d="M129.5,218.2c0,2.9,2.3,5.2,5.2,5.2s5.2-2.3,5.2-5.2c0-2.9-2.3-5.2-5.2-5.2S129.5,215.4,129.5,218.2z"/>
<path class="st13" d="M165,437.6c-0.1-0.1-1.5-0.6-1.6-0.7c-16.4-8-32.5-17.3-46.4-29.2c-13-11.1-24.6-23.8-33.9-38.2
	c-4.5-7-8.1-14.3-11.6-21.8c-3.3-7.1-6.7-14.1-9.8-21.3c-4.7-11-9.3-23.3-10.1-35.6c-2.5,5.1-4.2,10.6-5.1,16.1
	c-4,23.8-1.2,53,6.2,76c0.2,0.7,0.5,1.4,0.8,2.1c5,13.7,15,25.9,33.7,36.6c33.2,18.9,59.6,16.1,66.4,16.3
	C157,438.1,161.6,437.7,165,437.6z"/>
<path class="st4" d="M98.9,330.2c5.2,1.1,10.4,2.8,15.5,4.4c8.2,2.5,16.4,3.9,24.7,6.1c2.3,0.6,4.7,1.2,7.2,1.3
	c4.2,0,8.2-1.7,12.4-1.8c5.6-0.1,11.1,3,14.1,7.7c5.1,7.9-3.4,5.8-8.7,5.7c-4.2-0.1-8.3-0.1-12.5-0.2c-16.4-0.2-31.9,0.6-48.3,2
	c-8.9,0.8-24.5,2.9-32.4-2.5c-3.9-2.6-10.2-15.2-6.7-18.9c0.7-0.7,1.6-1.1,2.5-1.5c8-3.2,16.7-4.4,25.3-3.5
	C94.4,329.3,96.7,329.7,98.9,330.2z"/>
<path class="st13" d="M50.2,328.1c0.3,3.4,0.8,6.7,1.3,10c0.7,4.2,1.4,8.3,2.4,12.4c0.9,3.6,2.1,7.2,4.4,10
	c3.8,4.7,10.8,6.5,16.4,4.6c4.5-1.5,3.9-3.1,1.9-6.8c-4-7.7-8.1-15.8-11.5-23.9c-3.4-8.2-6.6-15.9-9.4-24.3
	c-0.6-1.8-1.2-3.5-1.7-5.3c-0.8-2.7-1.3-5.4-1.8-8.2c0.4,2.5-0.4,5.6-0.6,8c-0.3,2.8-0.6,5.6-1,8.4C50.1,318,49.8,323,50.2,328.1z"
	/>
<path class="st2" d="M25.4,541.8l24.4-167.4c0.1-0.5,0.9-0.6,1,0l26.5,167.5"/>
<path class="st14" d="M276,369H34.8v7.4H276V369z"/>
<path class="st15" d="M137,217.5c-0.3-1.9-2.8-2.9-4.4-1.8"/>
<path d="M217.2,369.4H108.6c-1.1,0-2-0.9-2-2v-1.2c0-1.1,0.9-2,2-2h108.6c1.1,0,2,0.9,2,2v1.2C219.1,368.5,218.3,369.4,217.2,369.4z
	"/>
<path d="M219.5,369.4h-96.2l8.4-55.2c0.3-1.9,1.9-3.3,3.8-3.3H224c2.3,0,4,2.1,3.7,4.4L219.5,369.4z"/>
<path class="st16" d="M178.5,338.2l4.2,3.5"/>
<path class="st16" d="M173,338.2l4.2,3.5"/>
<path class="st9" d="M191.4,291.1c-0.3,3.6,1.7,8.3,3.3,10.6"/>
<path class="st6" d="M411,194.3c-1.3,0.4-2.5,0.9-3.6,1.5c0.1,0.1,0.2,0.2,0.2,0.3c1.1,1.5,0.8,3.6-0.6,4.7
	c-1.5,1.1-3.6,0.8-4.7-0.7c-0.1-0.1-0.1-0.2-0.2-0.3c-0.9,0.9-1.7,2-2.4,3.1c0.1,0,0.2,0.1,0.4,0.1c1.7,0.7,2.5,2.7,1.8,4.4
	c-0.7,1.7-2.7,2.5-4.4,1.8c-0.1-0.1-0.2-0.1-0.4-0.2c-0.3,1.3-0.5,2.6-0.6,3.9c0.1,0,0.3-0.1,0.4-0.1c1.8-0.2,3.5,1.1,3.7,2.9
	c0.2,1.8-1.1,3.5-2.9,3.7c-0.2,0-0.3,0-0.5,0c0.4,1.3,0.9,2.6,1.5,3.7c0.1-0.1,0.2-0.2,0.4-0.3c1.5-1.1,3.6-0.8,4.7,0.7
	c1.1,1.5,0.8,3.6-0.6,4.7c-0.1,0.1-0.3,0.2-0.4,0.3c1,0.9,2,1.8,3.2,2.5c0-0.2,0.1-0.3,0.2-0.5c0.7-1.7,2.7-2.5,4.4-1.8
	c1.7,0.7,2.5,2.7,1.8,4.4c-0.1,0.2-0.2,0.3-0.3,0.5c1.3,0.3,2.6,0.5,4,0.6c-0.1-0.2-0.1-0.3-0.1-0.5c-0.2-1.8,1.1-3.5,2.9-3.7
	c1.8-0.2,3.5,1.1,3.7,2.9c0,0.2,0,0.4,0,0.6c1.3-0.4,2.6-0.9,3.7-1.5c-0.1-0.1-0.2-0.2-0.4-0.4c-1.1-1.5-0.8-3.6,0.6-4.7
	c1.5-1.1,3.6-0.8,4.7,0.7c0.1,0.1,0.2,0.3,0.3,0.5c0.9-1,1.8-2,2.5-3.2c-0.2,0-0.3-0.1-0.5-0.1c-1.7-0.7-2.5-2.7-1.8-4.4
	c0.7-1.7,2.7-2.5,4.4-1.8c0.2,0.1,0.3,0.2,0.4,0.2c0.3-1.3,0.5-2.6,0.5-4c-0.1,0-0.3,0.1-0.4,0.1c-1.8,0.2-3.5-1.1-3.7-2.9
	c-0.2-1.8,1.1-3.5,2.9-3.7c0.1,0,0.3,0,0.4,0c-0.4-1.3-0.9-2.5-1.5-3.7c-0.1,0.1-0.2,0.2-0.3,0.3c-1.5,1.1-3.6,0.8-4.7-0.7
	c-1.1-1.5-0.8-3.6,0.6-4.7c0.1-0.1,0.2-0.1,0.3-0.2c-0.9-0.9-2-1.7-3.1-2.4c0,0.1-0.1,0.2-0.1,0.4c-0.7,1.7-2.7,2.5-4.4,1.8
	c-1.7-0.7-2.5-2.7-1.8-4.4c0.1-0.1,0.1-0.2,0.2-0.3c-1.3-0.3-2.5-0.5-3.9-0.5c0,0.1,0.1,0.2,0.1,0.3c0.2,1.8-1.1,3.5-2.9,3.7
	c-1.8,0.2-3.5-1.1-3.7-2.9C411,194.5,411,194.4,411,194.3z M415,200.2c7.5-0.9,14.3,4.4,15.2,11.9c0.9,7.5-4.4,14.3-11.8,15.3
	c-7.5,0.9-14.3-4.4-15.2-11.9C402.2,208,407.5,201.2,415,200.2z"/>
<path class="st6" d="M414.8,230.2c9,1,17.1-5.5,18.1-14.6c1-9-5.5-17.2-14.5-18.2c-9-1-17.1,5.5-18.1,14.5
	C399.3,221,405.8,229.2,414.8,230.2z M406.3,212.8c0.7-5.4,5.9-9.4,11.6-8.8c5.7,0.6,9.8,5.5,9.1,10.9c-0.7,5.4-5.9,9.4-11.6,8.8
	C409.7,223.1,405.6,218.2,406.3,212.8z"/>
<path class="st6" d="M301.6,225c-1,0.3-2,0.7-3,1.2c0.1,0.1,0.1,0.1,0.2,0.2c0.9,1.2,0.7,3-0.5,4c-1.2,0.9-2.9,0.7-3.8-0.6
	c-0.1-0.1-0.1-0.2-0.2-0.3c-0.7,0.8-1.4,1.7-2,2.6c0.1,0,0.2,0.1,0.3,0.1c1.4,0.6,2,2.3,1.5,3.7c-0.6,1.4-2.2,2.1-3.6,1.5
	c-0.1-0.1-0.2-0.1-0.3-0.2c-0.3,1.1-0.4,2.2-0.5,3.3c0.1,0,0.2-0.1,0.3-0.1c1.5-0.2,2.9,0.9,3,2.5c0.2,1.6-0.9,3-2.4,3.2
	c-0.1,0-0.3,0-0.4,0c0.3,1.1,0.7,2.2,1.2,3.2c0.1-0.1,0.2-0.2,0.3-0.3c1.2-0.9,2.9-0.7,3.8,0.6c0.9,1.2,0.7,3-0.5,4
	c-0.1,0.1-0.2,0.2-0.4,0.2c0.8,0.8,1.6,1.5,2.6,2.1c0-0.1,0.1-0.3,0.1-0.4c0.6-1.4,2.2-2.1,3.6-1.5c1.4,0.6,2,2.3,1.5,3.7
	c-0.1,0.1-0.1,0.3-0.2,0.4c1.1,0.3,2.1,0.4,3.3,0.5c0-0.1-0.1-0.3-0.1-0.4c-0.2-1.6,0.9-3,2.4-3.2c1.5-0.2,2.9,0.9,3,2.5
	c0,0.2,0,0.3,0,0.5c1.1-0.3,2.1-0.7,3.1-1.3c-0.1-0.1-0.2-0.2-0.3-0.3c-0.9-1.2-0.7-3,0.5-4c1.2-0.9,2.9-0.7,3.8,0.6
	c0.1,0.1,0.2,0.3,0.2,0.4c0.8-0.8,1.4-1.7,2-2.7c-0.1,0-0.3-0.1-0.4-0.1c-1.4-0.6-2-2.3-1.5-3.7c0.6-1.4,2.2-2.1,3.6-1.5
	c0.1,0.1,0.2,0.1,0.4,0.2c0.2-1.1,0.4-2.2,0.4-3.3c-0.1,0-0.2,0.1-0.4,0.1c-1.5,0.2-2.9-0.9-3-2.5c-0.2-1.6,0.9-3,2.4-3.2
	c0.1,0,0.2,0,0.4,0c-0.3-1.1-0.7-2.1-1.2-3.1c-0.1,0.1-0.2,0.2-0.2,0.2c-1.2,0.9-2.9,0.7-3.8-0.6c-0.9-1.2-0.7-3,0.5-4
	c0.1-0.1,0.2-0.1,0.3-0.2c-0.8-0.8-1.6-1.5-2.5-2.1c0,0.1-0.1,0.2-0.1,0.3c-0.6,1.4-2.2,2.1-3.6,1.5c-1.4-0.6-2-2.3-1.5-3.7
	c0-0.1,0.1-0.2,0.1-0.3c-1-0.3-2.1-0.4-3.2-0.5c0,0.1,0.1,0.2,0.1,0.3c0.2,1.6-0.9,3-2.4,3.2c-1.5,0.2-2.9-0.9-3-2.5
	C301.6,225.2,301.6,225.1,301.6,225z M304.8,230c6.1-0.8,11.6,3.7,12.4,10.1c0.8,6.3-3.5,12.1-9.6,12.8c-6.1,0.8-11.6-3.7-12.4-10.1
	C294.5,236.6,298.8,230.8,304.8,230z"/>
<path class="st6" d="M305,253.7c6.5,0.8,12.3-4,13-10.8c0.7-6.7-4-12.8-10.4-13.6c-6.5-0.8-12.3,4-13,10.8
	C293.8,246.8,298.5,252.9,305,253.7z M297.9,240.6c0.5-4.5,4.7-7.7,9.2-7.3c4.6,0.5,7.9,4.6,7.3,9c-0.5,4.5-4.7,7.7-9.2,7.3
	C300.7,249.2,297.4,245.1,297.9,240.6z"/>
<path class="st6" d="M349.6,191.8c-2.2,0.6-4.4,1.5-6.4,2.6c0.1,0.2,0.3,0.3,0.4,0.5c2,2.6,1.4,6.3-1.1,8.3c-2.6,2-6.3,1.5-8.2-1.2
	c-0.1-0.2-0.2-0.4-0.4-0.6c-1.6,1.7-3,3.5-4.3,5.4c0.2,0.1,0.4,0.1,0.6,0.2c3,1.3,4.4,4.7,3.1,7.7c-1.3,3-4.7,4.4-7.7,3.1
	c-0.2-0.1-0.4-0.2-0.6-0.4c-0.6,2.2-0.9,4.6-1,6.9c0.2-0.1,0.5-0.1,0.7-0.2c3.2-0.4,6.2,1.9,6.6,5.1c0.4,3.2-1.9,6.2-5.1,6.6
	c-0.3,0-0.6,0-0.8,0c0.6,2.3,1.5,4.5,2.6,6.6c0.2-0.2,0.4-0.4,0.6-0.6c2.6-2,6.3-1.5,8.2,1.2c2,2.6,1.4,6.3-1.1,8.3
	c-0.2,0.2-0.5,0.3-0.8,0.5c1.7,1.6,3.6,3.1,5.5,4.4c0.1-0.3,0.1-0.6,0.3-0.9c1.3-3,4.7-4.4,7.7-3.1c3,1.3,4.4,4.7,3.1,7.7
	c-0.1,0.3-0.3,0.6-0.5,0.8c2.3,0.6,4.6,0.9,7,1c-0.1-0.3-0.2-0.6-0.2-0.9c-0.4-3.2,1.9-6.2,5.1-6.6c3.2-0.4,6.2,1.9,6.6,5.1
	c0,0.3,0,0.6,0,1c2.3-0.7,4.5-1.6,6.6-2.7c-0.2-0.2-0.4-0.4-0.6-0.7c-2-2.6-1.4-6.3,1.1-8.3c2.6-2,6.3-1.5,8.2,1.2
	c0.2,0.3,0.3,0.5,0.5,0.8c1.6-1.7,3.1-3.6,4.3-5.6c-0.3-0.1-0.6-0.1-0.8-0.3c-3-1.3-4.4-4.7-3.1-7.7c1.3-3,4.7-4.4,7.7-3.1
	c0.3,0.1,0.5,0.3,0.8,0.4c0.5-2.3,0.9-4.6,1-7c-0.3,0.1-0.5,0.1-0.8,0.2c-3.2,0.4-6.2-1.9-6.6-5.1c-0.4-3.2,1.9-6.2,5.1-6.6
	c0.3,0,0.5,0,0.8,0c-0.7-2.3-1.5-4.4-2.6-6.5c-0.2,0.2-0.3,0.3-0.5,0.5c-2.6,2-6.3,1.5-8.2-1.2c-2-2.6-1.4-6.3,1.1-8.3
	c0.2-0.1,0.4-0.2,0.6-0.4c-1.7-1.6-3.5-3-5.4-4.3c-0.1,0.2-0.1,0.4-0.2,0.6c-1.3,3-4.7,4.4-7.7,3.1c-3-1.3-4.4-4.7-3.1-7.7
	c0.1-0.2,0.2-0.4,0.3-0.6c-2.2-0.5-4.5-0.9-6.8-1c0,0.2,0.1,0.4,0.1,0.6c0.4,3.2-1.9,6.2-5.1,6.6c-3.2,0.4-6.2-1.9-6.6-5.1
	C349.6,192.2,349.6,192,349.6,191.8z M356.8,203.9c12.2-1.5,23.3,7.2,24.8,19.5c1.5,12.3-7.2,23.4-19.4,25
	c-12.2,1.5-23.3-7.2-24.8-19.5C335.9,216.6,344.6,205.4,356.8,203.9z"/>
<path class="st17" d="M356.5,253.3c14.9,1.7,28.4-9.2,30.1-24.1c1.7-15-9.1-28.5-24-30.2c-14.9-1.7-28.4,9.1-30.1,24.1
	C330.9,238.1,341.6,251.6,356.5,253.3z M341.4,224.1c1.1-10.1,10.2-17.3,20.2-16.2c10,1.1,17.2,10.2,16.1,20.3
	c-1.1,10.1-10.2,17.3-20.2,16.2C347.5,243.2,340.3,234.1,341.4,224.1z"/>
<path class="st18" d="M233.9,43.8c2.8-3.2,7.7-3.6,10.9-0.8c3.2,2.8,3.6,7.7,0.8,11"/>
<path class="st18" d="M255.8,83.1c4.1,0,7.4-3.3,7.4-7.4c0-4.1-3.3-7.4-7.4-7.4c-4.1,0-7.4,3.3-7.4,7.4
	C248.4,79.7,251.7,83.1,255.8,83.1z"/>
<path class="st14" d="M446.8,101.6c-0.2-10.7,9-18.9,19.1-18.4c3.5,0.2,6.7,1.3,9.4,3.2c4.2-4.8,10.4-7.7,17.3-7.4
	c9.4,0.5,18.5,6.8,19.2,15.6c9.2,2.6,16.1,11.2,15.7,21.2c-0.3,6.2-3.2,11.6-7.6,15.3c1.1,3.2,1,6.9-1,10.6c-1.1,2-2.8,3.6-4.9,4.6
	c-3.8,1.8-7.3,1.7-10.3,0.5l-0.2,17.3c0,1-1.3,1.4-1.9,0.6l-9-13.1c-8.4,3.5-15.9-1.7-16.5-9.4c-2.2,1.1-4.8,1.7-7.4,1.6
	c-7.7-0.4-13.7-6.5-14.3-14c-4.2,2.5-9.7,3.1-15.1,0.3c-3-1.5-5.4-4.2-6.6-7.3C428.3,111.6,436.5,101.4,446.8,101.6z"/>
<path class="st18" d="M508.7,122.7c5,0.2,9.1,3.4,10.9,7.7"/>
<path class="st18" d="M454.4,128.5c0.4-8.4,7.5-14.9,15.8-14.5"/>
<path class="st18" d="M445.5,101.6c3.2-0.2,6.2,0.6,8.7,2"/>
<path class="st18" d="M462.6,89.9c6.7,0.3,11.9,6,11.6,12.8"/>
<path class="st18" d="M473.3,136.3c-5.9,0.6-11.2-3.8-11.7-9.7"/>
<path class="st18" d="M439.4,120.5c-1.8-5.1,0.9-10.6,6-12.4"/>
<path class="st18" d="M513.3,134.8c-1.2,3.9-5.4,6-9.3,4.8"/>
<path class="st18" d="M495.7,97.5c4.5-3.1,10.1-4.2,15.8-3"/>
<path class="st18" d="M514.9,103.8c3,2.2,5,5.8,5,9.8"/>
<path class="st18" d="M482.4,108.5c3.7-0.8,7.8,1,9.9,4.3c2,3.3,1.8,7.7-0.5,10.8"/>
<path class="st18" d="M481.2,127c-1.3,1.2-2,3.1-1.7,4.8c0.2,1.8,1.4,3.3,3,4.1"/>
<path class="st3" d="M386,44.9l0.6,54.8l-11.4,0.1l-0.6-54.8L386,44.9z"/>
<path class="st6" d="M360.6,53.9l0.5,45.9l-11.4,0.1L349.2,54L360.6,53.9z"/>
<path class="st3" d="M323.8,60.9l0.4,39.1l11.4-0.1l-0.4-39.1H323.8z"/>
<path class="st6" d="M311.8,79l0.2,21l-11.4,0.1l-0.2-21L311.8,79z"/>
<path class="st19" d="M396.1,99.7l-100.3,0.6"/>
<path class="st18" d="M351.4,57.2v12.5"/>
<path class="st18" d="M377.2,76.6v15.8"/>
<path class="st18" d="M302,84.8V90"/>
<path class="st18" d="M326.2,75c0,0.7,0,1.5,0,2.2"/>
<path class="st9" d="M163.1,291.9c0.1-2,0-4.1-0.4-6.1"/>
<path class="st1" d="M442.8,146.7l-25.9,26H314.2l-31.9,32.6"/>
<path class="st1" d="M443.6,157.8l-23,23.2h-90.8l-35.2,35.4"/>
<path class="st1" d="M419,109.1H261.2"/>
<path class="st1" d="M414.3,133.7H287.7L261,160.5"/>
<path class="st1" d="M368.8,149.2l-14.1,14.2h-64.3l-18,18.1"/>
<path class="st1" d="M297.3,148.5h52"/>
<path class="st1" d="M398.3,120.8h-90.9"/>
<path class="st1" d="M380.1,154.8h33.2"/>
<path class="st3" d="M423.4,108.8c0,2.4-2,4.4-4.4,4.4c-2.4,0-4.4-2-4.4-4.4c0-2.4,2-4.4,4.4-4.4
	C421.4,104.4,423.4,106.4,423.4,108.8z"/>
<path class="st3" d="M265.5,108.8c0,2.4-2,4.4-4.4,4.4c-2.4,0-4.4-2-4.4-4.4c0-2.4,2-4.4,4.4-4.4
	C263.6,104.4,265.5,106.4,265.5,108.8z"/>
<path class="st3" d="M412.1,159.9c2.4,0,4.4-2,4.4-4.4c0-2.4-2-4.4-4.4-4.4s-4.4,2-4.4,4.4C407.7,157.9,409.7,159.9,412.1,159.9z"/>
<path class="st3" d="M349.4,152.9c2.4,0,4.4-2,4.4-4.4c0-2.4-2-4.4-4.4-4.4s-4.4,2-4.4,4.4C345,151,346.9,152.9,349.4,152.9z"/>
<path class="st3" d="M371.3,148.5c0,2.4-2,4.4-4.4,4.4c-2.4,0-4.4-2-4.4-4.4c0-2.4,2-4.4,4.4-4.4
	C369.3,144.1,371.3,146.1,371.3,148.5z"/>
<path class="st3" d="M299.8,152.3c2.4,0,4.4-2,4.4-4.4c0-2.4-2-4.4-4.4-4.4s-4.4,2-4.4,4.4C295.5,150.3,297.4,152.3,299.8,152.3z"/>
<path class="st3" d="M287.9,203.4c0,2.4-2,4.4-4.4,4.4c-2.4,0-4.4-2-4.4-4.4c0-2.4,2-4.4,4.4-4.4C286,199,287.9,200.9,287.9,203.4z"
	/>
<path class="st3" d="M294.8,220.6c2.4,0,4.4-2,4.4-4.4c0-2.4-2-4.4-4.4-4.4s-4.4,2-4.4,4.4C290.4,218.6,292.4,220.6,294.8,220.6z"/>
<path class="st3" d="M274.1,183.2c2.4,0,4.4-2,4.4-4.4c0-2.4-2-4.4-4.4-4.4s-4.4,2-4.4,4.4C269.7,181.2,271.7,183.2,274.1,183.2z"/>
<path class="st3" d="M383.9,159.9c2.4,0,4.4-2,4.4-4.4c0-2.4-2-4.4-4.4-4.4s-4.4,2-4.4,4.4C379.5,157.9,381.4,159.9,383.9,159.9z"/>
<path class="st3" d="M418.7,133.7c0,2.4-2,4.4-4.4,4.4c-2.4,0-4.4-2-4.4-4.4c0-2.4,2-4.4,4.4-4.4
	C416.7,129.3,418.7,131.3,418.7,133.7z"/>
<path class="st3" d="M448,157.8c0,2.4-2,4.4-4.4,4.4c-2.4,0-4.4-2-4.4-4.4c0-2.4,2-4.4,4.4-4.4C446,153.4,448,155.4,448,157.8z"/>
<path class="st3" d="M446.9,146.3c0,2.4-2,4.4-4.4,4.4c-2.4,0-4.4-2-4.4-4.4c0-2.4,2-4.4,4.4-4.4
	C444.9,141.9,446.9,143.9,446.9,146.3z"/>
<path class="st3" d="M398.3,125.2c2.4,0,4.4-2,4.4-4.4c0-2.4-2-4.4-4.4-4.4s-4.4,2-4.4,4.4C393.9,123.2,395.9,125.2,398.3,125.2z"/>
<path class="st3" d="M307.4,125.2c2.4,0,4.4-2,4.4-4.4c0-2.4-2-4.4-4.4-4.4s-4.4,2-4.4,4.4C303,123.2,304.9,125.2,307.4,125.2z"/>
<path class="st3" d="M262.8,163.7c2.4,0,4.4-2,4.4-4.4c0-2.4-2-4.4-4.4-4.4c-2.4,0-4.4,2-4.4,4.4
	C258.5,161.7,260.4,163.7,262.8,163.7z"/>
<path class="st20" d="M57.7,110.5c0,1.3,1.1,2.4,2.4,2.4h46.4c1.3,0,2.4-1.1,2.4-2.4c0-1.3-1.1-2.4-2.4-2.4H60.1
	C58.8,108,57.7,109.1,57.7,110.5z"/>
<path class="st20" d="M131.7,108h-14.8c-1.3,0-2.4,1.1-2.4,2.4c0,1.3,1.1,2.4,2.4,2.4h14.8c1.3,0,2.4-1.1,2.4-2.4
	C134.1,109.1,133,108,131.7,108z"/>
<path class="st20" d="M116.9,120H74.6c-1.3,0-2.4,1.1-2.4,2.4c0,1.3,1.1,2.4,2.4,2.4h42.2c1.3,0,2.4-1.1,2.4-2.4
	C119.3,121.1,118.2,120,116.9,120z"/>
<path class="st20" d="M123.4,122.4c0,1.3,1.1,2.4,2.4,2.4h9c1.3,0,2.4-1.1,2.4-2.4c0-1.3-1.1-2.4-2.4-2.4h-9
	C124.4,120,123.4,121.1,123.4,122.4z"/>
<path class="st20" d="M65.4,120h-5.3c-1.3,0-2.4,1.1-2.4,2.4c0,1.3,1.1,2.4,2.4,2.4h5.3c1.3,0,2.4-1.1,2.4-2.4
	C67.9,121.1,66.8,120,65.4,120z"/>
<path class="st20" d="M49.6,120H28.3c-1.3,0-2.4,1.1-2.4,2.4c0,1.3,1.1,2.4,2.4,2.4h21.3c0.8,0,1.5-0.6,1.5-1.5v-1.9
	C51.1,120.6,50.4,120,49.6,120z"/>
<path class="st20" d="M78.9,133.5c0,1.3,1.1,2.4,2.4,2.4h52.6c1.3,0,2.4-1.1,2.4-2.4s-1.1-2.4-2.4-2.4H81.3
	C80,131.1,78.9,132.2,78.9,133.5z"/>
<path class="st20" d="M41.5,133.5c0,1.3,1.1,2.4,2.4,2.4h24.5c1.3,0,2.4-1.1,2.4-2.4s-1.1-2.4-2.4-2.4H43.9
	C42.6,131.1,41.5,132.2,41.5,133.5z"/>
<path class="st20" d="M23.4,145.5c0,1.3,1.1,2.4,2.4,2.4h3.2c1.3,0,2.4-1.1,2.4-2.4c0-1.3-1.1-2.4-2.4-2.4h-3.2
	C24.5,143.1,23.4,144.1,23.4,145.5z"/>
<path class="st20" d="M34.7,145.5c0,1.3,1.1,2.4,2.4,2.4h31.6c1.3,0,2.4-1.1,2.4-2.4c0-1.3-1.1-2.4-2.4-2.4H37.1
	C35.8,143.1,34.7,144.1,34.7,145.5z"/>
<path class="st20" d="M76.3,145.5c0,1.3,1.1,2.4,2.4,2.4h11.6c1.3,0,2.4-1.1,2.4-2.4c0-1.3-1.1-2.4-2.4-2.4H78.7
	C77.4,143.1,76.3,144.1,76.3,145.5z"/>
<path class="st20" d="M99.8,145.5c0,1.3,1.1,2.4,2.4,2.4h11.9c1.3,0,2.4-1.1,2.4-2.4c0-1.3-1.1-2.4-2.4-2.4h-11.9
	C100.9,143.1,99.8,144.1,99.8,145.5z"/>
<path class="st20" d="M125,145.5c0,1.3,1.1,2.4,2.4,2.4h6.5c1.3,0,2.4-1.1,2.4-2.4c0-1.3-1.1-2.4-2.4-2.4h-6.5
	C126.1,143.1,125,144.1,125,145.5z"/>
<path class="st20" d="M50.2,157.4c0,1.3,1.1,2.4,2.4,2.4h4.5c1.3,0,2.4-1.1,2.4-2.4c0-1.3-1.1-2.4-2.4-2.4h-4.5
	C51.3,155,50.2,156.1,50.2,157.4z"/>
<path class="st20" d="M69.1,157.4c0,1.3,1.1,2.4,2.4,2.4h22.7c1.3,0,2.4-1.1,2.4-2.4c0-1.3-1.1-2.4-2.4-2.4H71.5
	C70.2,155,69.1,156.1,69.1,157.4z"/>
<path class="st20" d="M101.5,157.4c0,1.3,1.1,2.4,2.4,2.4h17.7c1.3,0,2.4-1.1,2.4-2.4c0-1.3-1.1-2.4-2.4-2.4H104
	C102.6,155,101.5,156.1,101.5,157.4z"/>
<path class="st20" d="M79.5,76c0,1.3,1.1,2.4,2.4,2.4h52.6c1.3,0,2.4-1.1,2.4-2.4c0-1.3-1.1-2.4-2.4-2.4H81.9
	C80.6,73.6,79.5,74.7,79.5,76z"/>
<path class="st20" d="M98.7,63.3h-6.4c-1.3,0-2.4,1.1-2.4,2.4s1.1,2.4,2.4,2.4h6.4c1.3,0,2.4-1.1,2.4-2.4S100,63.3,98.7,63.3z"/>
<path class="st20" d="M82.5,63.3H60.7c-1.3,0-2.4,1.1-2.4,2.4s1.1,2.4,2.4,2.4h21.8c1.3,0,2.4-1.1,2.4-2.4S83.9,63.3,82.5,63.3z"/>
<path class="st20" d="M104.9,65.7c0,1.3,1.1,2.4,2.4,2.4h27.2c1.3,0,2.4-1.1,2.4-2.4s-1.1-2.4-2.4-2.4h-27.2
	C106,63.3,104.9,64.4,104.9,65.7z"/>
<path class="st20" d="M76.9,88c0,1.3,1.1,2.4,2.4,2.4H91c1.3,0,2.4-1.1,2.4-2.4c0-1.3-1.1-2.4-2.4-2.4H79.3
	C78,85.5,76.9,86.6,76.9,88z"/>
<path class="st20" d="M100.5,88c0,1.3,1.1,2.4,2.4,2.4h11.9c1.3,0,2.4-1.1,2.4-2.4c0-1.3-1.1-2.4-2.4-2.4h-11.9
	C101.5,85.5,100.5,86.6,100.5,88z"/>
<path class="st20" d="M124.2,88c0,1.3,1.1,2.4,2.4,2.4h8.8c1.3,0,2.4-1.1,2.4-2.4c0-1.3-1.1-2.4-2.4-2.4h-8.8
	C125.3,85.5,124.2,86.6,124.2,88z"/>
<path class="st20" d="M88,99.9c0,1.3,1.1,2.4,2.4,2.4H104c1.3,0,2.4-1.1,2.4-2.4c0-1.3-1.1-2.4-2.4-2.4H90.4
	C89.1,97.5,88,98.5,88,99.9z"/>
<path class="st20" d="M50.8,99.9c0,1.3,1.1,2.4,2.4,2.4h4.5c1.3,0,2.4-1.1,2.4-2.4c0-1.3-1.1-2.4-2.4-2.4h-4.5
	C51.9,97.5,50.8,98.5,50.8,99.9z"/>
<path class="st20" d="M64.7,99.9c0,1.3,1.1,2.4,2.4,2.4h10c1.3,0,2.4-1.1,2.4-2.4c0-1.3-1.1-2.4-2.4-2.4h-10
	C65.8,97.5,64.7,98.5,64.7,99.9z"/>
<path class="st20" d="M115.3,99.9c0,1.3,1.1,2.4,2.4,2.4h17.7c1.3,0,2.4-1.1,2.4-2.4c0-1.3-1.1-2.4-2.4-2.4h-17.7
	C116.4,97.5,115.3,98.5,115.3,99.9z"/>
<path class="st20" d="M49.8,71.2c-0.3,0-0.6-0.1-0.8-0.3l-5.8-5.3l5.7-5.9c0.4-0.5,1.2-0.5,1.6,0c0.5,0.4,0.5,1.2,0,1.6l-4.1,4.2
	l4,3.7c0.5,0.4,0.5,1.2,0.1,1.6C50.4,71.1,50.1,71.2,49.8,71.2z"/>
<path class="st20" d="M56.7,71.2c-0.3,0-0.6-0.1-0.8-0.3l-5.8-5.3l5.7-5.9c0.4-0.5,1.2-0.5,1.6,0c0.5,0.4,0.5,1.2,0,1.6l-4.1,4.2
	l4,3.7c0.5,0.4,0.5,1.2,0.1,1.6C57.4,71.1,57.1,71.2,56.7,71.2z"/>
<path class="st20" d="M134.7,163.7c-0.3,0-0.6-0.1-0.8-0.4c-0.4-0.5-0.4-1.2,0.1-1.6l4-3.7l-4.1-4.2c-0.4-0.5-0.4-1.2,0-1.6
	s1.2-0.4,1.6,0l5.7,5.9l-5.7,5.3C135.2,163.6,134.9,163.7,134.7,163.7z"/>
<path class="st20" d="M127.7,163.7c-0.3,0-0.6-0.1-0.8-0.4c-0.4-0.5-0.4-1.2,0.1-1.6l4-3.7l-4.1-4.2c-0.4-0.5-0.4-1.2,0-1.6
	c0.5-0.4,1.2-0.4,1.6,0l5.7,5.9l-5.7,5.3C128.3,163.6,128,163.7,127.7,163.7z"/>
<path class="st14" d="M225.4,174.5H224c-3.9,0-7-3.2-7-7v-51.6c0-3.9,3.2-7,7-7h1.4c3.9,0,7,3.2,7,7v51.6
	C232.5,171.3,229.3,174.5,225.4,174.5z"/>
<path class="st14" d="M250.5,222l-1.4,0.8c-3,1.6-6.8,0.5-8.4-2.5l-19.9-37c-1.6-3-0.5-6.8,2.5-8.4l1.4-0.8c3-1.6,6.8-0.5,8.4,2.5
	l19.9,37C254.6,216.6,253.5,220.4,250.5,222z"/>
<path class="st21" d="M246,244.6c-4.3-8.6-2.3-18.3,4.6-21.8c6.9-3.5,15.9,0.6,20.2,9.2"/>
<path class="st7" d="M225.2,170.4c1.4,0,2.5-1.1,2.5-2.5s-1.1-2.5-2.5-2.5c-1.4,0-2.5,1.1-2.5,2.5S223.9,170.4,225.2,170.4z"/>
<path class="st7" d="M229.9,179.8c0,1.4-1.1,2.5-2.5,2.5c-1.4,0-2.5-1.1-2.5-2.5c0-1.4,1.1-2.5,2.5-2.5
	C228.8,177.3,229.9,178.4,229.9,179.8z"/>
<path class="st18" d="M225.6,127.4c8.6,0,15.5-7,15.5-15.6c0-8.6-7-15.6-15.5-15.6c-8.6,0-15.5,7-15.5,15.6
	C210.1,120.4,217,127.4,225.6,127.4z"/>
<path d="M225.6,122.4c5.8,0,10.6-4.8,10.6-10.6c0-5.9-4.7-10.6-10.6-10.6S215,106,215,111.8C215,117.7,219.8,122.4,225.6,122.4z"/>
<path class="st18" d="M246,244.6c-4.3-8.6-2.3-18.3,4.6-21.8c6.9-3.5,15.9,0.6,20.2,9.2"/>
<path class="st1" d="M225.9,108.8V88.7c0-8-6.5-14.5-14.4-14.5h-70.4"/>
<path class="st1" d="M141.1,105.4h31.5c6.6,0,12.8,2.6,17.5,7.3l29.9,30.1"/>
<path class="st1" d="M141.1,115.8h25c6.6,0,12.8,2.6,17.5,7.3l36,36.2"/>
<path class="st16" d="M219.5,369.4l9.2-55.5c0.3-1.6-1-3.1-2.6-3.1h-40.5"/>
<path class="st14" d="M497.6,409.5h-158v145.8h158V409.5z"/>
<path class="st9" d="M497.6,438.2h-158"/>
<path class="st9" d="M497.6,467h-158"/>
<path class="st9" d="M497.6,495.7h-158"/>
<path class="st9" d="M497.6,524.5h-158"/>
<path class="st3" d="M380.6,534.9h-29.9v8.5h29.9V534.9z"/>
<path class="st3" d="M484,534.9h-88.4v8.5H484V534.9z"/>
<path class="st3" d="M380.6,506.8h-29.9v8.5h29.9V506.8z"/>
<path class="st3" d="M484,506.8h-88.4v8.5H484V506.8z"/>
<path class="st3" d="M380.6,478.7h-29.9v8.5h29.9V478.7z"/>
<path class="st3" d="M484,478.7h-88.4v8.5H484V478.7z"/>
<path class="st3" d="M380.6,450.6h-29.9v8.5h29.9V450.6z"/>
<path class="st3" d="M484,450.6h-88.4v8.5H484V450.6z"/>
<path class="st3" d="M380.6,422.6h-29.9v8.5h29.9V422.6z"/>
<path class="st3" d="M484,422.6h-88.4v8.5H484V422.6z"/>
<path class="st3" d="M451.8,178.6c2.4,0,4.4-2,4.4-4.4c0-2.4-2-4.4-4.4-4.4s-4.4,2-4.4,4.4C447.4,176.7,449.4,178.6,451.8,178.6z"/>
<path class="st3" d="M488.8,166.6c0,2.4-2,4.4-4.4,4.4c-2.4,0-4.4-2-4.4-4.4c0-2.4,2-4.4,4.4-4.4
	C486.9,162.2,488.8,164.2,488.8,166.6z"/>
<path class="st3" d="M478.7,160.7c0,2.4-2,4.4-4.4,4.4c-2.4,0-4.4-2-4.4-4.4c0-2.4,2-4.4,4.4-4.4
	C476.8,156.3,478.7,158.3,478.7,160.7z"/>
<path class="st3" d="M465.3,155.7c2.4,0,4.4-2,4.4-4.4c0-2.4-2-4.4-4.4-4.4c-2.4,0-4.4,2-4.4,4.4
	C460.9,153.7,462.9,155.7,465.3,155.7z"/>
<path class="st1" d="M484.6,164.4l1,214.7l42.4,42.6v65.2l-25.6,25.7"/>
<path class="st1" d="M465.5,149.7v215.6l-37.5,37.7"/>
<path class="st1" d="M474.6,160.4v237.3"/>
<path class="st1" d="M451.8,174.2v185.2l-42.4,42.6"/>
<path class="st3" d="M409.4,406.5c2.4,0,4.4-2,4.4-4.4c0-2.4-2-4.4-4.4-4.4c-2.4,0-4.4,2-4.4,4.4C405,404.5,406.9,406.5,409.4,406.5
	z"/>
<path class="st3" d="M479.5,401.4c0,2.4-2,4.4-4.4,4.4c-2.4,0-4.4-2-4.4-4.4s2-4.4,4.4-4.4C477.5,397,479.5,399,479.5,401.4z"/>
<path class="st3" d="M501.5,518.2c2.4,0,4.4-2,4.4-4.4c0-2.4-2-4.4-4.4-4.4s-4.4,2-4.4,4.4C497.2,516.2,499.1,518.2,501.5,518.2z"/>
<path class="st3" d="M427.9,406.5c2.4,0,4.4-2,4.4-4.4c0-2.4-2-4.4-4.4-4.4s-4.4,2-4.4,4.4C423.5,404.5,425.5,406.5,427.9,406.5z"/>
</svg>
